<svg xmlns="http://www.w3.org/2000/svg" width="1227.438" height="442" viewBox="0 0 1227.438 442">
  <g id="Grupo_88040" data-name="Grupo 88040" transform="translate(-180 -1145)">
    <rect id="Rectángulo_34134" data-name="Rectángulo 34134" width="1227" height="442" transform="translate(180 1145)" fill="#f3f9ff"/>
    <path id="Trazado_144295" data-name="Trazado 144295" d="M-2095.418,405.284A126.59,126.59,0,0,0-1969.637,278.7,126.591,126.591,0,0,0-2095.418,152.11V77.453c110.773.438,200.438,90.368,200.438,201.244S-1984.645,479.5-2095.418,479.94Z" transform="translate(-687.98 1650.696) rotate(180)" fill="#dee4f0"/>
    <path id="Trazado_144296" data-name="Trazado 144296" d="M-2095.418,292.143a82.9,82.9,0,0,0,82.371-82.9,82.9,82.9,0,0,0-82.371-82.9V77.453a131.793,131.793,0,0,1,131.263,131.791,131.793,131.793,0,0,1-131.263,131.791Z" transform="translate(2275.418 1232.209)" fill="#fff"/>
  </g>
</svg>
