<svg id="Capa_1" data-name="Capa 1" xmlns="http://www.w3.org/2000/svg" width="400" height="400" viewBox="0 0 400 400">
  <defs>
    <style>
      .cls-1, .cls-3 {
        fill: #8b82ca;
      }

      .cls-1 {
        opacity: 0.69;
      }

      .cls-2 {
        opacity: 0.5;
      }

      .cls-4 {
        fill: #cfccd9;
      }

      .cls-5 {
        fill: #d8d5ed;
      }

      .cls-6 {
        fill: #b2abdb;
      }

      .cls-7 {
        fill: #3e2ea6;
      }

      .cls-8 {
        fill: #9f99b3;
      }

      .cls-9 {
        fill: #f2d8c2;
      }

      .cls-10 {
        fill: #efba8f;
      }

      .cls-11 {
        fill: #091320;
      }

      .cls-12 {
        fill: #6558b8;
      }

      .cls-13 {
        fill: #fff;
      }

      .cls-14 {
        fill: #6f678c;
      }

      .cls-15 {
        fill: #c78976;
      }

      .cls-16 {
        fill: #bf654e;
      }

      .cls-17 {
        fill: #ffbf9d;
      }

      .cls-18 {
        opacity: 0.4;
      }

      .cls-19 {
        opacity: 0.6;
      }

      .cls-20 {
        fill: #ff9a6c;
      }

      .cls-21 {
        fill: #e88033;
      }

      .cls-22 {
        opacity: 0.2;
      }
    </style>
  </defs>
  <g>
    <path class="cls-1" d="M54.68,44.67V30.79a37.28,37.28,0,0,0,0,74.56V91.47a23.4,23.4,0,0,1,0-46.8Z"/>
    <g class="cls-2">
      <path class="cls-3" d="M54.68,105.35a37.28,37.28,0,1,0,0-74.56V44.67a23.4,23.4,0,1,1,0,46.8Z"/>
    </g>
  </g>
  <g>
    <path class="cls-4" d="M200,318.06v70c103.87,0,188.08-84.21,188.08-188.08S303.87,11.92,200,11.92v70a118.06,118.06,0,0,1,0,236.12Z"/>
    <path class="cls-5" d="M200,11.92C96.13,11.92,11.92,96.13,11.92,200S96.13,388.08,200,388.08v-70a118.06,118.06,0,0,1,0-236.12Z"/>
  </g>
  <g>
    <path class="cls-4" d="M65.43,301.43V283a49.59,49.59,0,0,0,0,99.17V363.68a31.13,31.13,0,0,1,0-62.25Z"/>
    <path class="cls-6" d="M65.43,382.14a49.59,49.59,0,1,0,0-99.17v18.46a31.13,31.13,0,1,1,0,62.25Z"/>
  </g>
  <path class="cls-6" d="M200,81.21a118.79,118.79,0,0,0,0,237.58v-7l-7-.17a111.8,111.8,0,0,1,0-223.16h7Z"/>
  <g>
    <path class="cls-7" d="M183.25,289.81a1.44,1.44,0,0,1,.39,1.33,2.11,2.11,0,0,1-.43,1,2.26,2.26,0,0,1-.93.71,3.33,3.33,0,0,1-1.4.26,4.4,4.4,0,0,1-1.2-.16,2.44,2.44,0,0,1-.94-.47l.7-1a2,2,0,0,0,.71.39,2.84,2.84,0,0,0,.88.14,1.63,1.63,0,0,0,.84-.2.81.81,0,0,0,.38-.56.54.54,0,0,0-.22-.58,1.9,1.9,0,0,0-1-.19h-1.5l.82-3.31h3.59l-.17,1.09h-2.45l-.27,1.12h.48A2.49,2.49,0,0,1,183.25,289.81Z"/>
    <path class="cls-7" d="M185.16,292.73a1.94,1.94,0,0,1-.73-1,3.66,3.66,0,0,1-.07-1.64,4.32,4.32,0,0,1,.59-1.64,3,3,0,0,1,1.06-1,2.69,2.69,0,0,1,1.36-.36,2.14,2.14,0,0,1,1.25.36,1.93,1.93,0,0,1,.72,1,3.52,3.52,0,0,1,.07,1.64,4.49,4.49,0,0,1-.58,1.64,3.18,3.18,0,0,1-1.06,1,2.72,2.72,0,0,1-1.37.36A2.11,2.11,0,0,1,185.16,292.73Zm2.35-1.25a3,3,0,0,0,.53-1.43,2.53,2.53,0,0,0-.08-1.43.8.8,0,0,0-.77-.46,1.12,1.12,0,0,0-.91.46,3,3,0,0,0-.54,1.43,2.53,2.53,0,0,0,.08,1.43.8.8,0,0,0,.77.46A1.15,1.15,0,0,0,187.51,291.48Z"/>
    <path class="cls-7" d="M190.41,289.84a1.49,1.49,0,0,1-.22-1.18,2,2,0,0,1,.6-1.18,1.61,1.61,0,0,1,1.12-.44,1.16,1.16,0,0,1,1,.44,1.47,1.47,0,0,1,.22,1.18,2,2,0,0,1-.59,1.18,1.58,1.58,0,0,1-1.12.45A1.17,1.17,0,0,1,190.41,289.84Zm1.58-.48a1.37,1.37,0,0,0,.28-.7,1.13,1.13,0,0,0-.05-.69.45.45,0,0,0-.42-.24.63.63,0,0,0-.48.24,1.37,1.37,0,0,0-.28.69,1.09,1.09,0,0,0,.06.7.43.43,0,0,0,.41.24A.6.6,0,0,0,192,289.36Zm3.42-2.25h1L191.46,293h-1Zm-1.18,5.75a1.11,1.11,0,0,1-.43-.56,1.75,1.75,0,0,1,0-.86,2,2,0,0,1,.32-.86,1.63,1.63,0,0,1,.6-.57,1.68,1.68,0,0,1,.79-.2,1.14,1.14,0,0,1,1,.45,1.45,1.45,0,0,1,.22,1.18,2,2,0,0,1-.59,1.18,1.64,1.64,0,0,1-1.13.44A1.29,1.29,0,0,1,194.23,292.86Zm1.32-.73a1.37,1.37,0,0,0,.27-.69,1.17,1.17,0,0,0,0-.7.42.42,0,0,0-.41-.24.63.63,0,0,0-.49.24,1.37,1.37,0,0,0-.27.7,1.17,1.17,0,0,0,.05.7.45.45,0,0,0,.41.23A.62.62,0,0,0,195.55,292.13Z"/>
    <path class="cls-7" d="M179.26,301.39a2.35,2.35,0,0,1-1-1.09,2.69,2.69,0,0,1-.17-1.56,3.4,3.4,0,0,1,.66-1.56,3.63,3.63,0,0,1,1.33-1.09,3.84,3.84,0,0,1,1.71-.4,3.13,3.13,0,0,1,1.59.4,2.33,2.33,0,0,1,1,1.09,2.69,2.69,0,0,1,.18,1.56,3.41,3.41,0,0,1-.67,1.56,3.79,3.79,0,0,1-1.32,1.09,3.83,3.83,0,0,1-1.71.39A3.07,3.07,0,0,1,179.26,301.39Zm2.75-1a2.12,2.12,0,0,0,.76-.67,2.2,2.2,0,0,0,.4-1,1.76,1.76,0,0,0-.09-1,1.39,1.39,0,0,0-.55-.67,1.68,1.68,0,0,0-.9-.23,2.05,2.05,0,0,0-1,.23,2.25,2.25,0,0,0-.77.67,2.23,2.23,0,0,0-.39,1,1.82,1.82,0,0,0,.08,1,1.37,1.37,0,0,0,.56.67,1.63,1.63,0,0,0,.9.24A2.09,2.09,0,0,0,182,300.38Z"/>
    <path class="cls-7" d="M187.23,296.89l-.25,1.55h2.73l-.18,1.1h-2.72l-.34,2.14h-1.36l.93-5.88h4.45l-.18,1.09Z"/>
    <path class="cls-7" d="M192.6,296.89l-.24,1.55h2.72l-.17,1.1h-2.73l-.34,2.14h-1.36l.93-5.88h4.45l-.17,1.09Z"/>
  </g>
  <g>
    <path class="cls-8" d="M36.27,239.7s6.83-2.25,10.1,13.51,3.76,24.46,3.76,24.46,1.08,3.4,3.58,2.05,6.71-6,9.82-4.08,3.33,6.19,1.08,11.76-6.7,18-7.1,19.08-.2,2.93,1.66,2.29,13.58-8.21,16.83-2.43-5.54,20.28-6.47,21.88-.79,2.43-.09,3.09,4.41-2.26,7.83-4.28,7.74-3.74,9.34-.25-.86,15.49-17.33,31.59l-8.11,7L51,361.93c-21.36-8.6-28.21-18.76-28.07-22.59s4.8-3.89,8.73-3.33,8.47,1.83,8.87,1,.21-1.69-1.26-2.82S24.12,323,24.92,316.4s14.53-4.07,16.49-4.18,1.44-1.88.66-2.74-9.65-10.64-13.84-14.93-5.73-8.25-3.49-11.29,7.8-.26,10.64,0S37.9,280,37.9,280s-2.86-8.23-5.85-24,4.36-16.32,4.36-16.32"/>
    <path class="cls-9" d="M61.22,363.08c-2.23-11.6-5.46-27.61-9.08-45.27S45.26,284.15,43,272.56c-1.14-5.79-2.06-10.47-2.71-13.73-.32-1.61-.57-2.86-.74-3.73-.09-.42-.15-.74-.2-1s-.08-.33-.08-.33,0,.11,0,.33l.17,1c.15.87.38,2.13.67,3.75.59,3.25,1.48,7.95,2.6,13.75,2.23,11.6,5.46,27.61,9.08,45.27s6.88,33.66,9.18,45.25"/>
    <path class="cls-9" d="M57.93,282.35a3.22,3.22,0,0,0-.46.62c-.27.42-.65,1-1.12,1.79-.92,1.52-2.13,3.65-3.43,6l-3.29,6.1c-.39.72-.73,1.34-1,1.84a4.22,4.22,0,0,0-.34.7,2.91,2.91,0,0,0,.47-.62c.27-.42.65-1,1.1-1.79.91-1.53,2.1-3.68,3.39-6.06l3.34-6.08c.4-.72.74-1.33,1-1.84A3.21,3.21,0,0,0,57.93,282.35Z"/>
    <path class="cls-9" d="M47.29,299.35c.05-.08-4.23-2.78-9.57-6S28,287.51,28,287.6s4.23,2.78,9.57,6S47.23,299.44,47.29,299.35Z"/>
    <path class="cls-9" d="M54.07,326.23a3.61,3.61,0,0,0-.75-.25l-2.07-.56c-1.75-.48-4.16-1.14-6.79-2s-5-1.66-6.7-2.27l-2-.72a3.12,3.12,0,0,0-.76-.22,3.21,3.21,0,0,0,.7.35c.47.21,1.14.5,2,.84,1.68.67,4,1.54,6.68,2.37s5.07,1.46,6.84,1.87c.88.2,1.6.36,2.1.45A2.66,2.66,0,0,0,54.07,326.23Z"/>
    <path class="cls-9" d="M67.08,313s-.22.14-.57.46-.84.78-1.44,1.36c-1.21,1.15-2.87,2.77-4.68,4.57S57,322.81,55.78,324c-.58.6-1.05,1.09-1.36,1.44A3.24,3.24,0,0,0,54,326s.22-.14.57-.46.84-.78,1.45-1.36c1.21-1.15,2.86-2.77,4.68-4.57s3.43-3.45,4.6-4.65c.58-.6,1-1.09,1.36-1.44A3.24,3.24,0,0,0,67.08,313Z"/>
    <path class="cls-9" d="M76.08,335.93a5.73,5.73,0,0,0-.72.6l-1.86,1.74c-1.56,1.47-3.69,3.53-6,5.81s-4.45,4.37-6,5.9l-1.78,1.81a5.25,5.25,0,0,0-.61.7,4.32,4.32,0,0,0,.71-.6c.5-.45,1.12-1,1.86-1.73,1.56-1.47,3.7-3.53,6-5.81s4.45-4.38,6-5.9l1.77-1.81A4.14,4.14,0,0,0,76.08,335.93Z"/>
    <path class="cls-9" d="M59.39,352a5.66,5.66,0,0,0-.94-.33l-2.6-.81c-2.19-.68-5.22-1.64-8.54-2.78S41,345.81,38.88,345l-2.55-1a5.71,5.71,0,0,0-.95-.31,5.8,5.8,0,0,0,.9.45c.58.26,1.44.63,2.5,1.07,2.13.88,5.09,2,8.42,3.17s6.36,2.06,8.58,2.68c1.11.3,2,.54,2.63.69A4.12,4.12,0,0,0,59.39,352Z"/>
  </g>
  <g>
    <g>
      <path class="cls-9" d="M314.52,229.76a28.61,28.61,0,1,1,1-40.4A28.57,28.57,0,0,1,314.52,229.76Z"/>
      <path class="cls-10" d="M309.84,224.82a21.8,21.8,0,1,1,.79-30.79A21.77,21.77,0,0,1,309.84,224.82Z"/>
      <path class="cls-9" d="M310.33,224.35c-.09-.1.54-.82,1.51-2.23A23.18,23.18,0,0,0,315,215.7a22.71,22.71,0,0,0,.89-4.82,21.94,21.94,0,0,0-.34-5.59,21,21,0,0,0-.78-2.92,20.39,20.39,0,0,0-1.24-2.9,21.36,21.36,0,0,0-1.73-2.78,23.82,23.82,0,0,0-2.19-2.55A24.82,24.82,0,0,0,307,192a21.9,21.9,0,0,0-2.79-1.7,20.2,20.2,0,0,0-2.91-1.22,21.5,21.5,0,0,0-2.94-.75A21.83,21.83,0,0,0,288,189a23.08,23.08,0,0,0-6.39,3.18,14,14,0,0,1-2.21,1.53c-.07-.07.49-.87,1.8-2a20.15,20.15,0,0,1,6.41-3.79,22.35,22.35,0,0,1,5.06-1.19,22.07,22.07,0,0,1,6,.15,20.37,20.37,0,0,1,3.16.75,21.73,21.73,0,0,1,3.16,1.27,22.34,22.34,0,0,1,3,1.81,24.43,24.43,0,0,1,2.78,2.34,23.36,23.36,0,0,1,2.36,2.75,22.47,22.47,0,0,1,1.84,3A22.32,22.32,0,0,1,317.23,211a22.48,22.48,0,0,1-1.15,5.07,20,20,0,0,1-3.73,6.44C311.19,223.84,310.4,224.42,310.33,224.35Z"/>
    </g>
    <path class="cls-9" d="M287.1,219.73l-2.72,2.65L282,220l2.64-2.58a16.1,16.1,0,0,1-4-7.94l4.26-1.55a13.75,13.75,0,0,0,2.87,6.38l4.05-4c-2-3.33-4-7.22-.54-10.6,2.58-2.51,6.61-2.8,10.78.61l2.7-2.63,2.37,2.43-2.65,2.58a15.44,15.44,0,0,1,3.33,6.37l-4.17,1.7a14,14,0,0,0-2.36-4.95l-4.13,4c2,3.31,4,7.15.57,10.48C295.26,222.81,291.28,223.09,287.1,219.73Zm8.36-12.89,3.45-3.36c-1.55-1-2.75-.83-3.55,0S294.76,205.44,295.46,206.84Zm-1.77,9.88c.84-.83.62-2,0-3.38l-3.35,3.27C291.76,217.56,292.91,217.48,293.69,216.72Z"/>
  </g>
  <g>
    <g>
      <path class="cls-9" d="M202.45,263.68a30,30,0,1,1-38.2-18.48A30,30,0,0,1,202.45,263.68Z"/>
      <path class="cls-10" d="M195.69,266a22.89,22.89,0,1,1-29.1-14.09A22.86,22.86,0,0,1,195.69,266Z"/>
      <path class="cls-9" d="M195.45,265.34a13.14,13.14,0,0,1-1.47-2.4,24.41,24.41,0,0,0-4.79-5.76,22.84,22.84,0,0,0-9.72-5,22.73,22.73,0,0,0-6.45-.59,22.33,22.33,0,0,0-3.4.45,25.13,25.13,0,0,0-3.39,1,24.55,24.55,0,0,0-3.19,1.51,22.78,22.78,0,0,0-2.83,1.94,21.74,21.74,0,0,0-4.42,4.74,23.35,23.35,0,0,0-2.69,5.22,22.77,22.77,0,0,0-1.19,5,24.36,24.36,0,0,0,.27,7.49,13.54,13.54,0,0,1,.51,2.77,6.72,6.72,0,0,1-1.17-2.61,21.22,21.22,0,0,1-.85-7.77,23.77,23.77,0,0,1,1.05-5.36,23.52,23.52,0,0,1,2.74-5.66,21.73,21.73,0,0,1,2.09-2.7,22.36,22.36,0,0,1,2.58-2.46,21.9,21.9,0,0,1,3-2.11,25.33,25.33,0,0,1,3.44-1.65,24.18,24.18,0,0,1,3.66-1.06,22.05,22.05,0,0,1,3.67-.46,21.14,21.14,0,0,1,3.57.12,21.45,21.45,0,0,1,3.36.62A22.76,22.76,0,0,1,190,256.27a20.89,20.89,0,0,1,4.55,6.35A6.69,6.69,0,0,1,195.45,265.34Z"/>
    </g>
    <path class="cls-9" d="M181,285.56l1.36,3.75L179,290.53l-1.32-3.65c-3.39,1-6.94,1.12-9.3.34l.36-4.75a14.28,14.28,0,0,0,7.35,0l-2-5.58c-4,.44-8.64.71-10.37-4.08-1.29-3.55.18-7.53,5.25-10.05l-1.35-3.71,3.35-1.21,1.32,3.64a16.17,16.17,0,0,1,7.54-.42l-.18,4.72a14.69,14.69,0,0,0-5.75.12l2.06,5.69c4-.48,8.56-.72,10.27,4C187.45,279.09,186,283,181,285.56ZM172.27,272l-1.73-4.75c-1.62,1-2,2.27-1.57,3.37S170.63,272.05,172.27,272Zm8.68,6c-.42-1.17-1.62-1.45-3.25-1.43l1.68,4.62C180.92,280.17,181.34,279,181,278Z"/>
  </g>
  <g>
    <g>
      <path class="cls-9" d="M88.34,189.51a25.21,25.21,0,1,1-25.52-24.84A25.17,25.17,0,0,1,88.34,189.51Z"/>
      <path class="cls-10" d="M82.35,189.58A19.21,19.21,0,1,1,62.9,170.66,19.2,19.2,0,0,1,82.35,189.58Z"/>
      <path class="cls-9" d="M82.33,189a11.82,11.82,0,0,1-.53-2.3,20.86,20.86,0,0,0-2.29-5.87,19.54,19.54,0,0,0-2.59-3.45,19.32,19.32,0,0,0-3.82-3.13A17.57,17.57,0,0,0,70.74,173a18,18,0,0,0-2.62-.94,18.39,18.39,0,0,0-2.83-.54,20.77,20.77,0,0,0-3-.1,20.36,20.36,0,0,0-2.94.36,19.2,19.2,0,0,0-2.77.79,17.64,17.64,0,0,0-2.53,1.16,18.24,18.24,0,0,0-2.24,1.44,19.3,19.3,0,0,0-3.53,3.45A20.3,20.3,0,0,0,46,182.28a20.9,20.9,0,0,0-1.76,6,12.19,12.19,0,0,1-.33,2.34,5.38,5.38,0,0,1-.24-2.38,17.89,17.89,0,0,1,1.38-6.42,19.28,19.28,0,0,1,2.26-4A19.51,19.51,0,0,1,51,174.09a20.17,20.17,0,0,1,2.38-1.6,19.43,19.43,0,0,1,5.69-2.15,20.78,20.78,0,0,1,3.18-.4,21.08,21.08,0,0,1,3.19.12,20.08,20.08,0,0,1,3.05.61,19.79,19.79,0,0,1,5.32,2.42,19.22,19.22,0,0,1,6.59,7.22,17.83,17.83,0,0,1,1.94,6.27A5.57,5.57,0,0,1,82.33,189Z"/>
    </g>
    <path class="cls-9" d="M65.45,201.25l.09,3.35-3,.08-.09-3.26a14.15,14.15,0,0,1-7.5-2.19l1.54-3.69a12,12,0,0,0,5.85,2l-.13-5c-3.34-.72-7.07-1.72-7.19-6-.08-3.17,2.14-5.95,6.85-6.61l-.09-3.32,3-.08.08,3.26A13.59,13.59,0,0,1,71,181.43l-1.4,3.72A12.1,12.1,0,0,0,65,183.72l.14,5.08c3.33.68,7,1.69,7.12,5.9C72.32,197.81,70.13,200.56,65.45,201.25Zm-3.34-13.12L62,183.89c-1.58.4-2.18,1.28-2.16,2.27S60.78,187.75,62.11,188.13Zm5.33,7.06c0-1.05-.91-1.59-2.2-2l.11,4.12C66.83,196.94,67.47,196.15,67.44,195.19Z"/>
  </g>
  <path class="cls-3" d="M207.73,80.89a22.16,22.16,0,0,0-19-33,21.47,21.47,0,0,0-5.82.8,22.19,22.19,0,0,1,0,42.64,21.61,21.61,0,0,0,17.4-2.56l10.28,4Z"/>
  <path class="cls-11" d="M349.9,365.33c0,.11-72.09.2-161,.2s-161-.09-161-.2,72.08-.2,161-.2S349.9,365.22,349.9,365.33Z"/>
  <g>
    <g>
      <path class="cls-12" d="M114.67,341l.62,18.87,4.79,14.78a1.94,1.94,0,0,1-1.37,2.47h0a2,2,0,0,1-1.73-.4c-3-2.6-14.12-12.22-14.09-13.6,0-1.6-2-19.86-2-19.86Z"/>
      <path class="cls-9" d="M118.71,377.11l-15.89-15.27,0,.8a2.89,2.89,0,0,0,.8,1.84c1.27,1.34,4.87,5,13.27,12.23a2,2,0,0,0,1.78.4Z"/>
      <path class="cls-13" d="M106.35,355.54a1.17,1.17,0,0,1,.4,1.51,1.13,1.13,0,0,1-1.49.42,1.22,1.22,0,0,1-.42-1.6,1.17,1.17,0,0,1,1.6-.26"/>
      <path class="cls-11" d="M113.94,369.11c.11.05.48-1,1.57-1.55a5.94,5.94,0,0,1,2.15-.54s-.23-.18-.68-.22a3,3,0,0,0-1.67.4,2.89,2.89,0,0,0-1.2,1.22C113.91,368.82,113.89,369.1,113.94,369.11Z"/>
      <path class="cls-11" d="M115.42,371.56c.1.08.67-.57,1.63-.9a17,17,0,0,1,1.83-.34,2.15,2.15,0,0,0-2-.05C115.82,370.66,115.32,371.52,115.42,371.56Z"/>
      <path class="cls-11" d="M111.26,366a20.09,20.09,0,0,1,2.41-1.56,17.92,17.92,0,0,1,2.76-.81,5.29,5.29,0,0,0-5.17,2.37Z"/>
      <path class="cls-11" d="M110.59,360.3c.06.11,1.08-.38,2.43-.51s2.44.14,2.48,0a3.79,3.79,0,0,0-2.52-.43A3.83,3.83,0,0,0,110.59,360.3Z"/>
      <path class="cls-11" d="M110.27,354.77a9.47,9.47,0,0,1,2.51-.6,9.34,9.34,0,0,1,2.54.49s-.19-.27-.64-.49a4.07,4.07,0,0,0-1.91-.41,4,4,0,0,0-1.88.49C110.45,354.49,110.24,354.73,110.27,354.77Z"/>
      <path class="cls-11" d="M112.69,353.12a1.58,1.58,0,0,0,0-.71,5.07,5.07,0,0,0-.67-1.84,2.24,2.24,0,0,0-1-1,.78.78,0,0,0-.87.23,1.23,1.23,0,0,0-.25.86,2.74,2.74,0,0,0,2.53,2.4,3.19,3.19,0,0,0,3-1.83,1.09,1.09,0,0,0,0-.92.77.77,0,0,0-.82-.36,2.71,2.71,0,0,0-1.2.72,5.53,5.53,0,0,0-1.21,1.53,1.76,1.76,0,0,0-.25.67,8.57,8.57,0,0,1,1.65-2,2.5,2.5,0,0,1,1.06-.6.41.41,0,0,1,.45.19.77.77,0,0,1,0,.61,2.84,2.84,0,0,1-2.64,1.55,2.38,2.38,0,0,1-2.18-2,1,1,0,0,1,.15-.61.43.43,0,0,1,.48-.13,2,2,0,0,1,.86.83A7.23,7.23,0,0,1,112.69,353.12Z"/>
    </g>
    <g>
      <g>
        <path class="cls-12" d="M151.39,343.79l-1,14.11s14,5.73,14.08,8.36l-27.42-.92.62-22Z"/>
        <path class="cls-9" d="M142,356.43a1.12,1.12,0,0,0-.82,1.25,1.08,1.08,0,0,0,1.24.82,1.18,1.18,0,0,0,.85-1.33,1.12,1.12,0,0,0-1.38-.71"/>
        <path class="cls-9" d="M137.08,365.34l.15-2.22,26.24,1.71s1.2.57,1,1.43Z"/>
        <path class="cls-11" d="M150.87,357.77c0,.14-.68.18-1.36.59s-1,1-1.16.9.1-.83.93-1.31S150.9,357.65,150.87,357.77Z"/>
        <path class="cls-11" d="M153.7,359.06c0,.13-.56.34-1,.89s-.63,1.15-.76,1.14-.19-.77.41-1.45S153.7,358.93,153.7,359.06Z"/>
        <path class="cls-11" d="M155.22,362.56c-.12,0-.28-.65.08-1.38s1-1,1.06-.88-.35.5-.64,1.09S155.36,362.55,155.22,362.56Z"/>
        <path class="cls-11" d="M150.73,354.54c-.06.12-.67-.09-1.42-.06s-1.36.24-1.43.12.52-.57,1.41-.59S150.8,354.43,150.73,354.54Z"/>
      </g>
      <path class="cls-11" d="M150.88,351.69a2.64,2.64,0,0,1-1.38-.06,5.86,5.86,0,0,1-1.42-.49,6.82,6.82,0,0,1-.77-.44,1.71,1.71,0,0,1-.41-.34.58.58,0,0,1,0-.71.71.71,0,0,1,.59-.29,1.94,1.94,0,0,1,.52.09,4.43,4.43,0,0,1,.84.32,5,5,0,0,1,1.24.87c.61.61.82,1.12.77,1.15s-.36-.39-1-.9a5.61,5.61,0,0,0-1.2-.73,4.78,4.78,0,0,0-.78-.27c-.29-.09-.54-.1-.62,0s0,.07,0,.16a1.12,1.12,0,0,0,.3.24,5.93,5.93,0,0,0,.71.44,7.55,7.55,0,0,0,1.31.55A8.46,8.46,0,0,1,150.88,351.69Z"/>
      <path class="cls-11" d="M150.7,351.87a2.16,2.16,0,0,1-.32-1.34,4.23,4.23,0,0,1,.24-1.49,4.32,4.32,0,0,1,.37-.83,1.14,1.14,0,0,1,.9-.66.65.65,0,0,1,.56.4,1.82,1.82,0,0,1,.13.51,3.13,3.13,0,0,1-.67,2.32c-.56.7-1.12.84-1.13.79s.43-.31.87-1a3.24,3.24,0,0,0,.47-1.27,2.68,2.68,0,0,0,0-.8c0-.29-.13-.53-.24-.5s-.38.2-.5.43a6.16,6.16,0,0,0-.36.73,4.77,4.77,0,0,0-.31,1.36C150.64,351.35,150.77,351.85,150.7,351.87Z"/>
    </g>
    <g>
      <polygon class="cls-11" points="95.02 204.57 99.07 356.23 120.7 355.58 125.86 199.4 95.02 204.57"/>
      <path class="cls-11" d="M140,199.14S156,263.43,156.53,274.4s-3.43,79.48-3.43,79.48H131.92l1.77-78-16.09-66,3.89-10.34Z"/>
      <path class="cls-14" d="M126.91,207a.67.67,0,0,1,0,.21v.6q0,.84-.09,2.31c-.09,2-.23,4.93-.39,8.49-.37,7.2-.87,17.09-1.43,28s-1.15,20.82-1.55,28c-.22,3.56-.39,6.45-.52,8.49-.06,1-.12,1.75-.16,2.3l0,.6a.58.58,0,0,1,0,.21.67.67,0,0,1,0-.21c0-.16,0-.35,0-.6q0-.84.09-2.31c.09-2,.23-4.93.39-8.49.37-7.2.87-17.09,1.43-28s1.15-20.81,1.55-28c.22-3.56.39-6.46.52-8.49.07-1,.12-1.75.16-2.31l0-.6A.55.55,0,0,1,126.91,207Z"/>
    </g>
    <g>
      <path class="cls-10" d="M124.54,116.71s7.85,39,8,50,4,32.45,4,32.45h-34l-.74-59.41L99.28,122l5.11-7.29Z"/>
      <g>
        <path class="cls-12" d="M125,117.86s8.12,2.38,10.26,5.38c1.7,2.37,4,47.23,4,47.23L142.68,210l-3.41-.32-4.81-14.79Z"/>
        <path class="cls-12" d="M135.21,123.24l22.93,21,28.21-9.14L192,147l-30.1,13.66c-4.3,1.83-7,.82-10-1.57L136.1,146.43Z"/>
        <g>
          <g>
            <path class="cls-11" d="M181.1,138.92a.62.62,0,0,1-1.09.58.62.62,0,1,1,1.09-.58Z"/>
            <path class="cls-11" d="M180.55,139.85a.57.57,0,0,1-.18,0,.62.62,0,0,1-.38-.31.64.64,0,0,1-.05-.49.63.63,0,0,1,.31-.37.64.64,0,0,1,.49-.05.68.68,0,0,1,.38.31.65.65,0,0,1-.27.86A.61.61,0,0,1,180.55,139.85Zm0-1.24a.58.58,0,0,0-.28.07.59.59,0,0,0-.29.35.61.61,0,0,0,0,.46.65.65,0,0,0,.36.29.59.59,0,0,0,.75-.4.59.59,0,0,0,0-.45A.58.58,0,0,0,180.55,138.61Z"/>
          </g>
          <g>
            <path class="cls-11" d="M183.46,138.35a.62.62,0,1,1-.83-.25A.61.61,0,0,1,183.46,138.35Z"/>
            <path class="cls-11" d="M182.92,139.28l-.19,0a.63.63,0,0,1-.37-.31.64.64,0,0,1,.26-.87.64.64,0,0,1,.91.75.65.65,0,0,1-.31.38A.66.66,0,0,1,182.92,139.28Zm0-1.23a.6.6,0,0,0-.18,1.17.57.57,0,0,0,.46-.05.61.61,0,0,0,.25-.81.61.61,0,0,0-.36-.29A.5.5,0,0,0,182.92,138.05Z"/>
          </g>
          <g>
            <path class="cls-11" d="M185.71,137.9a.61.61,0,0,1-.25.84.63.63,0,0,1-.84-.26.61.61,0,0,1,.26-.83A.6.6,0,0,1,185.71,137.9Z"/>
            <path class="cls-11" d="M185.17,138.83a.64.64,0,0,1-.56-.34.63.63,0,0,1,.26-.86.63.63,0,0,1,.86.26h0a.63.63,0,0,1-.26.86A.64.64,0,0,1,185.17,138.83Zm0-1.24a.59.59,0,0,0-.57.43.55.55,0,0,0,0,.45.6.6,0,1,0,1.06-.56h0A.61.61,0,0,0,185.17,137.59Z"/>
          </g>
        </g>
        <polygon class="cls-9" points="186.63 135.73 188.81 134.93 193.82 145.49 191.69 146.4 186.63 135.73"/>
        <path class="cls-11" d="M136,131.56a6.79,6.79,0,0,1,.13,1.18c.08.83.2,1.91.33,3.21.31,2.78.73,6.49,1.2,10.6s.82,7.89,1,10.62c.09,1.36.13,2.47.14,3.23a6.5,6.5,0,0,1,0,1.19,8.86,8.86,0,0,1-.11-1.18c-.06-.76-.14-1.86-.26-3.22-.25-2.71-.66-6.46-1.11-10.6s-.86-7.89-1.09-10.61c-.11-1.36-.18-2.47-.2-3.23A5.76,5.76,0,0,1,136,131.56Z"/>
        <path class="cls-11" d="M141,136.82a44.12,44.12,0,0,1-1.44,5.65,44.89,44.89,0,0,1-1.81,5.55,41.48,41.48,0,0,1,1.43-5.66A42.17,42.17,0,0,1,141,136.82Z"/>
        <path class="cls-11" d="M157.9,151.39a2.5,2.5,0,0,1-.51-1,7,7,0,0,1-.34-2.69,7.33,7.33,0,0,1,.67-2.63c.31-.63.59-1,.63-.93a14.51,14.51,0,0,0-.91,3.58A14.25,14.25,0,0,0,157.9,151.39Z"/>
      </g>
      <g>
        <polygon class="cls-9" points="155.28 175.76 158.21 175.98 157.04 188.22 154.21 187.9 155.28 175.76"/>
        <g>
          <path class="cls-12" d="M104.4,115.57,88.58,125.66a10.28,10.28,0,0,0-3.84,11.65l12.14,38.13L92.5,210.09l34.67-1.48-.84-15.18-2.94-27.17a53.91,53.91,0,0,0-3.73-14.67Z"/>
          <path class="cls-12" d="M87.87,139.4l15.82,33.11a9.78,9.78,0,0,0,6.59,5.31l43.9,10.4,1.12-12.78-33.51-12.61-16.86-32.35a9.62,9.62,0,0,0-13.51-3.8h0A9.62,9.62,0,0,0,87.87,139.4Z"/>
          <path class="cls-11" d="M155.3,175.44l-.18-.05-.52-.17-2-.72-7.35-2.7-24.79-9.26-.07,0,0-.07c-.94-1.85-1.92-3.8-2.92-5.78-2.75-5.35-5.49-10.39-8-14.94-1.28-2.27-2.51-4.42-3.68-6.42-.58-1-1.15-2-1.7-2.9-.27-.47-.54-.91-.83-1.33a9.88,9.88,0,0,0-.9-1.2,10.48,10.48,0,0,0-4.21-3.06,9.51,9.51,0,0,0-3.89-.69,7,7,0,0,0-3.26.87l.19-.13a3.09,3.09,0,0,1,.58-.32,6.72,6.72,0,0,1,2.48-.58,9.51,9.51,0,0,1,4,.65,10.68,10.68,0,0,1,4.34,3.08,10.2,10.2,0,0,1,.93,1.21c.3.43.58.88.85,1.35.56.92,1.13,1.88,1.72,2.88,1.18,2,2.43,4.14,3.72,6.41,2.58,4.54,5.33,9.58,8.08,14.94,1,2,2,3.92,2.92,5.79l-.11-.1,24.74,9.39,7.31,2.81,2,.78.51.21Z"/>
          <g>
            <g>
              <path class="cls-11" d="M147.84,183.41a.62.62,0,1,1-.62-.62A.62.62,0,0,1,147.84,183.41Z"/>
              <path class="cls-11" d="M147.22,184.05a.64.64,0,1,1,.64-.64A.64.64,0,0,1,147.22,184.05Zm0-1.24a.6.6,0,1,0,.6.6A.6.6,0,0,0,147.22,182.81Z"/>
            </g>
            <g>
              <path class="cls-11" d="M150.19,184a.62.62,0,1,1-.62-.62A.62.62,0,0,1,150.19,184Z"/>
              <path class="cls-11" d="M149.57,184.67a.64.64,0,0,1,0-1.28.64.64,0,1,1,0,1.28Zm0-1.24a.6.6,0,1,0,.6.6A.6.6,0,0,0,149.57,183.43Z"/>
            </g>
            <g>
              <circle class="cls-11" cx="151.77" cy="184.69" r="0.62"/>
              <path class="cls-11" d="M151.77,185.32a.63.63,0,0,1-.63-.63.64.64,0,0,1,.63-.64.64.64,0,0,1,.64.64A.64.64,0,0,1,151.77,185.32Zm0-1.23a.6.6,0,1,0,.6.6A.6.6,0,0,0,151.77,184.09Z"/>
            </g>
          </g>
          <path class="cls-11" d="M154.18,188.22l-.21,0-.62-.14-2.36-.56-8.69-2.14c-7.33-1.8-17.45-4.35-28.67-6.94-1.4-.34-2.79-.61-4.16-1a9.09,9.09,0,0,1-3.75-1.87,10.88,10.88,0,0,1-2.3-3.33l-1.66-3.47-5.68-12-3.79-8.1c-.43-.94-.77-1.68-1-2.21-.1-.24-.19-.43-.25-.58a1.57,1.57,0,0,1-.08-.2.6.6,0,0,1,.11.18l.29.57,1.09,2.17c.93,1.93,2.26,4.67,3.91,8s3.59,7.45,5.75,12l1.67,3.45a10.56,10.56,0,0,0,2.22,3.21,8.61,8.61,0,0,0,3.59,1.78c1.34.37,2.75.63,4.15,1,11.23,2.6,21.34,5.19,28.65,7.06l8.66,2.26,2.34.63.61.18Z"/>
          <path class="cls-11" d="M118.72,186.15s-.17.18-.52.44-.87.63-1.52,1.07a24.83,24.83,0,0,1-5.46,2.83,12.5,12.5,0,0,1-6.11.62,8,8,0,0,1-1.8-.52,2.1,2.1,0,0,1-.61-.33,21.1,21.1,0,0,0,2.45.57,13.15,13.15,0,0,0,5.94-.71,29.21,29.21,0,0,0,5.44-2.7A18.35,18.35,0,0,1,118.72,186.15Z"/>
          <path class="cls-11" d="M120.64,190.55s0,.09.11.28a6,6,0,0,1,.2.85,9.37,9.37,0,0,1,0,3.22,9.94,9.94,0,0,1-2,4.34,9.74,9.74,0,0,1-10.7,3,9.94,9.94,0,0,1-3.94-2.69,9.4,9.4,0,0,1-1.69-2.74,5.11,5.11,0,0,1-.27-.83c0-.19-.07-.3,0-.3a11.35,11.35,0,0,0,2.22,3.68,9.84,9.84,0,0,0,3.85,2.54,9.54,9.54,0,0,0,10.3-2.88,9.9,9.9,0,0,0,2-4.17A11.72,11.72,0,0,0,120.64,190.55Z"/>
        </g>
      </g>
    </g>
    <g>
      <g>
        <g>
          <g>
            <path class="cls-15" d="M106.1,85.39l.1,28.25a8.4,8.4,0,0,0,8.85,8.36h0a8.41,8.41,0,0,0,8-8.43c0-2.13,0-3.9,0-4.12,0,0,7.19-.7,7.68-7.82.24-3.44.15-10.57,0-17a13.29,13.29,0,0,0-12.54-13l-.68,0C110,71.63,105.88,78,106.1,85.39Z"/>
            <path class="cls-16" d="M123,109.35a16.56,16.56,0,0,1-9.13-3.17s1.9,5.25,9,5Z"/>
          </g>
          <g>
            <g>
              <g>
                <path class="cls-11" d="M128.93,88.8a1,1,0,0,1-1,1,1,1,0,0,1-1-1,1,1,0,0,1,1-1A1,1,0,0,1,128.93,88.8Z"/>
                <path class="cls-11" d="M129.13,87.6c-.13.13-.87-.49-2-.55s-1.93.44-2,.3.09-.29.45-.53a2.85,2.85,0,0,1,1.65-.4,2.68,2.68,0,0,1,1.55.6C129.09,87.3,129.19,87.54,129.13,87.6Z"/>
              </g>
              <g>
                <path class="cls-11" d="M118.29,88.72a1,1,0,0,1-1,1,1,1,0,0,1-1-1,1,1,0,0,1,1-1A1,1,0,0,1,118.29,88.72Z"/>
                <path class="cls-11" d="M118.23,87.35c-.13.13-.87-.49-2-.54s-1.92.44-2,.3.09-.3.46-.53a2.74,2.74,0,0,1,1.64-.41,2.68,2.68,0,0,1,1.55.6C118.2,87.05,118.3,87.3,118.23,87.35Z"/>
              </g>
              <path class="cls-11" d="M121.7,96a7.47,7.47,0,0,1,1.8-.22c.28,0,.54,0,.6-.24a1.38,1.38,0,0,0-.14-.84c-.22-.69-.46-1.42-.7-2.18a35.2,35.2,0,0,1-1.54-5.67,36.69,36.69,0,0,1,2,5.54c.23.76.46,1.49.67,2.18a1.6,1.6,0,0,1,.08,1.11A.7.7,0,0,1,124,96a1.66,1.66,0,0,1-.48,0A7.07,7.07,0,0,1,121.7,96Z"/>
            </g>
            <path class="cls-11" d="M118.67,85.08c-.12.29-1.21.09-2.5.17s-2.35.37-2.51.1.13-.4.56-.67a4.24,4.24,0,0,1,1.89-.54,4.12,4.12,0,0,1,1.93.34C118.5,84.7,118.73,84.94,118.67,85.08Z"/>
            <path class="cls-11" d="M129,85c-.21.24-.95-.07-1.86-.13s-1.68.07-1.84-.2.06-.37.41-.59a2.66,2.66,0,0,1,1.53-.32,2.55,2.55,0,0,1,1.45.59C129,84.61,129.13,84.87,129,85Z"/>
          </g>
          <g>
            <path class="cls-15" d="M106.38,90.7c-.12-.06-4.81-1.73-4.93,3.15s4.8,4,4.81,3.86S106.38,90.7,106.38,90.7Z"/>
            <path class="cls-16" d="M104.82,95.82s-.09.06-.23.12a.87.87,0,0,1-.64,0A2.12,2.12,0,0,1,103,94a2.87,2.87,0,0,1,.27-1.21,1,1,0,0,1,.66-.64.43.43,0,0,1,.49.25c.07.13,0,.23.06.24s.1-.08.07-.28a.53.53,0,0,0-.18-.31.68.68,0,0,0-.47-.14,1.2,1.2,0,0,0-.91.74,2.93,2.93,0,0,0-.33,1.35,2.23,2.23,0,0,0,1.19,2.14.94.94,0,0,0,.78-.11C104.81,95.94,104.83,95.83,104.82,95.82Z"/>
          </g>
        </g>
        <path class="cls-11" d="M103.68,90.38A2.57,2.57,0,0,1,106,91.71c.28.72.3,1.51.58,2.22a1.7,1.7,0,0,0,1.7,1.25,1.49,1.49,0,0,0,1.08-1.05,4.13,4.13,0,0,0,.11-1.57c-.16-2.29-.51-4.57-.47-6.87a11.76,11.76,0,0,1,1.81-6.54,6.44,6.44,0,0,1,5.88-2.88c1.51.21,2.85,1.08,4.35,1.38a5.94,5.94,0,0,0,5-1.37,2.25,2.25,0,0,1,.24-.17,1.33,1.33,0,0,0,.56-1.5,1.3,1.3,0,0,0-.26-.48c-2.83-2.93-8.16-4-12.16-3.24a14.23,14.23,0,0,0-9.75,6.94c-1.91,3.59-1.7,8.76-1,12.55"/>
      </g>
      <path class="cls-11" d="M119.11,96.82c.18,0,.18,1.17,1.2,2s2.28.71,2.29.87-.28.23-.82.25a2.93,2.93,0,0,1-1.91-.67A2.53,2.53,0,0,1,119,97.6C118.9,97.11,119,96.81,119.11,96.82Z"/>
    </g>
    <g>
      <g>
        <path class="cls-15" d="M187.23,136.93s5.35-4.69,6.36-5,9-.5,9.6-.09,8.68,4.86,7.33,5.55-7-2.52-7-2.52l-.95.13s4.92,2.63,5.8,3.64,0,2-.88,1.62-5.15-2.87-5.48-2.77,4.5,2.92,4.95,3.44c.6.71.21,2.07-.72,1.68-.54-.23-5-3.19-5-3.19a44.68,44.68,0,0,1,3.61,3.3c.4.76-.36,1.45-1.14,1-.53-.33-2.83-2.58-3.54-3,0,0-.79,0-1.95,1.18s-5.74,2.94-5.74,2.94Z"/>
        <path class="cls-16" d="M210.5,137.37a4,4,0,0,1-1.73-.1,10.85,10.85,0,0,1-1.81-.55c-.63-.3-1.32-.65-2-1l-1.53-.79.1,0a25.31,25.31,0,0,1-4.14-.11,24,24,0,0,1,4.13-.3h.05l.05,0,1.53.77,2,1a12.5,12.5,0,0,0,1.72.61C209.85,137.24,210.51,137.31,210.5,137.37Z"/>
      </g>
      <g>
        <path class="cls-15" d="M189.22,138.29a1.83,1.83,0,0,0,2,.69c.75-.15,1.42-.56,2.15-.77,2.19-.63,4.62.54,6.77-.2.3-.1.64-.32.61-.64s-.37-.44-.65-.53l-7.18-2.28"/>
        <path class="cls-16" d="M192.93,134.56a2.92,2.92,0,0,1,.8.16l2.14.61,3.16,1,.91.28a1.51,1.51,0,0,1,1,.58.67.67,0,0,1-.11.71,1.34,1.34,0,0,1-.52.33,5.07,5.07,0,0,1-1.09.25,29.61,29.61,0,0,1-4.05-.22,5.5,5.5,0,0,0-1.7.16c-.51.14-1,.36-1.42.52a2.68,2.68,0,0,1-2.25,0c-.49-.29-.57-.63-.55-.63a2.19,2.19,0,0,0,.62.48,2.61,2.61,0,0,0,2.07-.15,13.76,13.76,0,0,1,1.44-.59,6.13,6.13,0,0,1,1.8-.21,34.32,34.32,0,0,0,4,.19,4.46,4.46,0,0,0,1-.22c.29-.1.49-.31.4-.46s-.41-.27-.72-.37l-.9-.29-3.13-1c-.89-.3-1.61-.55-2.1-.74A3.49,3.49,0,0,1,192.93,134.56Z"/>
      </g>
    </g>
    <path class="cls-15" d="M156.89,176.05l8.86-.87s11.72,8,10.6,9.79-3,0-3,0,2.08,2.57-1.29,3.37c0,0-.8,1.77-2.08,1.61h-.81s-.72,2.23-1.8,1.75a34.47,34.47,0,0,1-4.36-3.37l-9.09-.8Z"/>
    <path class="cls-17" d="M162.4,185.19s-2.27.87-2.74,1.78-.74,3.06.72,3.45a13,13,0,0,0,2.58-.08L162.4,188a17.3,17.3,0,0,1,1.35-1.4C164.23,186.16,163.71,184.59,162.4,185.19Z"/>
    <path class="cls-17" d="M165,186.4s-2.27.88-2.74,1.79a2,2,0,0,0,1.3,2.83,10.5,10.5,0,0,0,2.34-.08l-.24-.46c-.46-.9-.65-1.62.16-2.22l.53-.49A1,1,0,0,0,165,186.4Z"/>
    <path class="cls-17" d="M165.5,190.86a1.33,1.33,0,0,1-.18-1.56,2.13,2.13,0,0,1,1.33-1,1,1,0,0,1,1,.17.89.89,0,0,1,.14.68,3.51,3.51,0,0,1-.89,1.66c-.21.26-.47.55-.81.54s-.59-.32-.79-.61"/>
    <g>
      <g>
        <polygon class="cls-12" points="117.6 119.4 119.59 118.65 121.32 121.74 120.36 125.03 118.33 125.53 116.3 122.98 117.6 119.4"/>
        <path class="cls-12" d="M118.33,125.53s2.58,14.19,4.73,24.17c0,0,1.76,8.3,2.47,10.22a28.4,28.4,0,0,0,3.25,5.33l2.5,1-1.53-14L120.36,125Z"/>
        <g class="cls-18">
          <polygon points="117.6 119.4 119.59 118.65 121.32 121.74 120.36 125.03 118.33 125.53 116.3 122.98 117.6 119.4"/>
        </g>
        <g class="cls-18">
          <path d="M118.33,125.53s2.58,14.19,4.73,24.17c0,0,2,8.22,2.47,10.22.27,1.17,3.25,5.33,3.25,5.33l2.5,1-1.53-14L120.36,125Z"/>
        </g>
      </g>
      <g>
        <polygon class="cls-10" points="105.64 110.78 117.6 119.4 115.02 126.51 104.13 115.31 105.64 110.78"/>
        <polygon class="cls-10" points="119.59 118.65 122.94 111.19 124.83 117.34 122.2 123.81 119.59 118.65"/>
        <path class="cls-11" d="M117.6,119.4a2.15,2.15,0,0,1-.13.55c-.14.41-.3.9-.49,1.49-.42,1.26-1,3-1.79,5.14l-.1.29-.21-.23-2.79-3.08c-2.17-2.4-4.11-4.59-5.5-6.19L105,115.46a4.16,4.16,0,0,1-.56-.74,4.87,4.87,0,0,1,.68.64l1.72,1.82c1.45,1.55,3.43,3.71,5.59,6.12l2.77,3.09-.31.06c.77-2.08,1.44-3.84,1.93-5.09l.58-1.45A2.53,2.53,0,0,1,117.6,119.4Z"/>
        <path class="cls-11" d="M124.83,117.34a8.73,8.73,0,0,1-.56,1.75c-.39,1.06-1,2.51-1.61,4.1l-.28.69-.19.48-.17-.49a34.34,34.34,0,0,0-2.39-4.9,5.11,5.11,0,0,1,1,1.25,16.59,16.59,0,0,1,1.76,3.52H122c.09-.22.18-.45.28-.68.64-1.6,1.25-3,1.71-4.07A8.63,8.63,0,0,1,124.83,117.34Z"/>
      </g>
    </g>
  </g>
  <g>
    <g>
      <path class="cls-12" d="M276.87,341.82l4.61,18.31,7.82,13.42a1.94,1.94,0,0,1-.81,2.71h0a1.91,1.91,0,0,1-1.77,0c-3.52-1.89-16.4-8.93-16.67-10.29-.3-1.57-6.14-19-6.14-19Z"/>
      <g class="cls-19">
        <path class="cls-13" d="M288.49,376.26l-18.77-11.54.21.77a2.87,2.87,0,0,0,1.17,1.63c1.53,1,5.82,3.82,15.56,9.13a1.94,1.94,0,0,0,1.83,0Z"/>
      </g>
      <g class="cls-19">
        <path class="cls-13" d="M271.83,357.81a1.17,1.17,0,0,1,.71,1.39,1.12,1.12,0,0,1-1.37.72,1.24,1.24,0,0,1-.75-1.47,1.16,1.16,0,0,1,1.51-.59"/>
      </g>
      <path class="cls-11" d="M282.13,369.46a5.81,5.81,0,0,1,1.21-1.85,5.89,5.89,0,0,1,2-1c0-.05-.27-.13-.71-.07a2.93,2.93,0,0,0-1.55.74,3,3,0,0,0-.92,1.45C282,369.18,282.08,369.46,282.13,369.46Z"/>
      <path class="cls-11" d="M284.1,371.54c.11,0,.53-.7,1.4-1.23a14.74,14.74,0,0,1,1.71-.72,2.13,2.13,0,0,0-1.93.37C284.29,370.57,284,371.52,284.1,371.54Z"/>
      <path class="cls-11" d="M278.86,367a9.92,9.92,0,0,1,4.55-3.42,4.37,4.37,0,0,0-2.78,1A4.25,4.25,0,0,0,278.86,367Z"/>
      <path class="cls-11" d="M277,361.56c.08.09,1-.6,2.26-1s2.42-.38,2.43-.51a3.82,3.82,0,0,0-2.56.11A3.75,3.75,0,0,0,277,361.56Z"/>
      <path class="cls-11" d="M275.5,356.22a9.11,9.11,0,0,1,2.33-1.11,9.75,9.75,0,0,1,2.58-.07s-.25-.22-.73-.34a4.11,4.11,0,0,0-1.95,0,4.16,4.16,0,0,0-1.74.88C275.62,355.91,275.46,356.19,275.5,356.22Z"/>
      <path class="cls-11" d="M277.51,354.1s0-.26-.16-.7a5.06,5.06,0,0,0-1.05-1.65,2.2,2.2,0,0,0-1.19-.76.79.79,0,0,0-.8.4,1.33,1.33,0,0,0-.06.9,2.74,2.74,0,0,0,3,1.8,3.18,3.18,0,0,0,2.56-2.43,1.08,1.08,0,0,0-.2-.89.74.74,0,0,0-.87-.18,2.74,2.74,0,0,0-1,1,5.49,5.49,0,0,0-.85,1.76,1.9,1.9,0,0,0-.11.71,9.31,9.31,0,0,1,1.19-2.29,2.65,2.65,0,0,1,.92-.81.42.42,0,0,1,.48.09.78.78,0,0,1,.09.6,2.81,2.81,0,0,1-2.24,2.08,2.37,2.37,0,0,1-2.56-1.49.9.9,0,0,1,0-.63.42.42,0,0,1,.43-.23,2,2,0,0,1,1,.63A7,7,0,0,1,277.51,354.1Z"/>
    </g>
    <g>
      <g>
        <path class="cls-12" d="M219.7,345.24l1,14.11s-14,5.73-14.09,8.35l27.42-.91-.62-22Z"/>
        <path class="cls-9" d="M229.12,357.88a1.12,1.12,0,0,1,.81,1.25,1.07,1.07,0,0,1-1.23.82,1.18,1.18,0,0,1-.86-1.33,1.13,1.13,0,0,1,1.38-.71"/>
        <path class="cls-9" d="M234,366.79l-.15-2.22-26.23,1.71s-1.2.57-1,1.42Z"/>
        <path class="cls-11" d="M220.23,359.22c0,.14.68.18,1.35.58s1,1,1.16.91-.1-.83-.92-1.31S220.19,359.1,220.23,359.22Z"/>
        <path class="cls-11" d="M217.39,360.51c0,.13.56.34,1,.89s.62,1.15.75,1.14.2-.78-.41-1.45S217.39,360.38,217.39,360.51Z"/>
        <path class="cls-11" d="M215.87,364c.12,0,.29-.65-.08-1.38s-1-1-1.06-.88.35.5.64,1.09S215.74,364,215.87,364Z"/>
        <path class="cls-11" d="M220.36,356c.06.12.67-.08,1.43-.05s1.35.24,1.42.12-.52-.57-1.41-.59S220.29,355.88,220.36,356Z"/>
      </g>
      <path class="cls-11" d="M220.22,353.13a2.41,2.41,0,0,0,1.37-.05,5.72,5.72,0,0,0,1.42-.49,6.14,6.14,0,0,0,.78-.44,1.68,1.68,0,0,0,.4-.34.58.58,0,0,0,0-.71.74.74,0,0,0-.6-.29,1.86,1.86,0,0,0-.51.09,4.53,4.53,0,0,0-.85.32,4.92,4.92,0,0,0-1.23.87c-.62.61-.82,1.12-.77,1.15s.35-.39,1-.9a5.45,5.45,0,0,1,1.21-.73,4.47,4.47,0,0,1,.78-.27c.28-.09.53-.1.61,0s0,.07,0,.16a1.57,1.57,0,0,1-.3.24,8.09,8.09,0,0,1-.71.44,7.89,7.89,0,0,1-1.31.55A10.68,10.68,0,0,0,220.22,353.13Z"/>
      <path class="cls-11" d="M220.4,353.32a2.25,2.25,0,0,0,.32-1.34,4.51,4.51,0,0,0-.62-2.32,1.14,1.14,0,0,0-.9-.66.65.65,0,0,0-.56.4,1.78,1.78,0,0,0-.12.51,2.82,2.82,0,0,0,0,.92,3.13,3.13,0,0,0,.63,1.4c.56.7,1.12.84,1.13.79s-.43-.31-.86-1a3.08,3.08,0,0,1-.48-1.28,2.61,2.61,0,0,1,0-.79c0-.29.13-.53.24-.51s.38.21.5.44a4.11,4.11,0,0,1,.36.73,5.19,5.19,0,0,1,.32,1.36C220.45,352.8,220.32,353.3,220.4,353.32Z"/>
    </g>
    <g>
      <polygon class="cls-11" points="212.22 191.78 216.63 355.95 238.26 355.3 236.6 214.4 264.16 359.22 283.7 354.12 258.48 192.09 212.22 191.78"/>
      <path class="cls-14" d="M224.07,356.17c-.11,0-.2-34-.2-76s.09-76,.2-76,.2,34,.2,76S224.18,356.17,224.07,356.17Z"/>
      <path class="cls-14" d="M270.33,359.17c-.1,0-5.16-32.61-11.28-72.87s-11-72.92-10.9-72.93,5.16,32.6,11.29,72.87S270.44,359.15,270.33,359.17Z"/>
    </g>
    <g>
      <path class="cls-11" d="M243.21,89.12A33.11,33.11,0,0,0,245,83.89c.26-1.36.67-3.41.12-4.68a3.28,3.28,0,0,0-3.54-2.15A7.94,7.94,0,0,0,237,70.85a20.22,20.22,0,0,0-7.59-2,6.48,6.48,0,0,0-2.84.36,3.6,3.6,0,0,0-1.71,1.84,6.29,6.29,0,0,0-5.58-.89c-2.08.57-4.47,1.69-5.38,3.65a6.1,6.1,0,0,0-.17,4.63c.41,1.27,1.76,3.27,3,2.81"/>
      <g>
        <g>
          <g>
            <path class="cls-17" d="M232.67,124.53h0a9.36,9.36,0,0,1-9.16-9.83c.13-2.62.25-4.74.25-4.74s-7.14-.92-7.4-8,.55-23.46.55-23.46h0A24.72,24.72,0,0,1,241.82,81l1.07.78-.66,33.6A9.38,9.38,0,0,1,232.67,124.53Z"/>
            <path class="cls-20" d="M223.75,109.86A16.55,16.55,0,0,0,233,107s-2.2,5.52-9.3,5.06Z"/>
          </g>
          <g>
            <path class="cls-17" d="M242.2,89.14c.12-.06,4.85-1.57,4.81,3.29s-4.91,3.83-4.91,3.69S242.2,89.14,242.2,89.14Z"/>
            <path class="cls-20" d="M243.6,94.29s.08.06.22.12a.85.85,0,0,0,.64,0,2.1,2.1,0,0,0,1-1.87,3,3,0,0,0-.23-1.22,1,1,0,0,0-.63-.65.43.43,0,0,0-.5.23c-.07.13,0,.23-.07.24s-.1-.08-.06-.29a.56.56,0,0,1,.19-.3.67.67,0,0,1,.47-.12,1.19,1.19,0,0,1,.88.76,3,3,0,0,1,.29,1.36,2.21,2.21,0,0,1-1.25,2.09.93.93,0,0,1-.78-.13C243.6,94.41,243.58,94.3,243.6,94.29Z"/>
          </g>
          <g>
            <g>
              <g>
                <path class="cls-11" d="M218.76,89.57a1,1,0,0,0,1,1,1,1,0,0,0,1-.94,1,1,0,0,0-1-1A1,1,0,0,0,218.76,89.57Z"/>
                <path class="cls-11" d="M218.51,88.43c.13.13.88-.45,2-.48s1.9.5,2,.37-.08-.3-.44-.55a2.81,2.81,0,0,0-1.62-.45,2.66,2.66,0,0,0-1.57.55C218.55,88.13,218.45,88.38,218.51,88.43Z"/>
              </g>
              <g>
                <path class="cls-11" d="M229.46,89.56a1,1,0,0,0,1,1,1,1,0,0,0,1-.94,1,1,0,0,0-1-1A1,1,0,0,0,229.46,89.56Z"/>
                <path class="cls-11" d="M229.25,88.37c.13.13.89-.46,2-.48s1.91.5,2,.36-.08-.3-.43-.54a2.74,2.74,0,0,0-1.62-.46,2.7,2.7,0,0,0-1.57.55C229.3,88.07,229.19,88.31,229.25,88.37Z"/>
              </g>
              <path class="cls-11" d="M225.49,96.57a7.71,7.71,0,0,0-1.78-.28c-.28,0-.55-.07-.6-.26a1.41,1.41,0,0,1,.17-.83c.24-.68.5-1.39.77-2.14a35.33,35.33,0,0,0,1.71-5.6,36.18,36.18,0,0,0-2.16,5.45c-.25.75-.5,1.47-.73,2.15a1.63,1.63,0,0,0-.12,1.1.69.69,0,0,0,.47.4,1.64,1.64,0,0,0,.47,0A7.45,7.45,0,0,0,225.49,96.57Z"/>
              <path class="cls-11" d="M228.72,97.25c-.17,0-.15,1.18-1.14,2s-2.26.77-2.26.94.28.22.82.22a2.93,2.93,0,0,0,1.89-.71,2.56,2.56,0,0,0,.88-1.72C229,97.53,228.81,97.24,228.72,97.25Z"/>
            </g>
            <path class="cls-11" d="M228.86,84.1c.12.29,1.21.12,2.49.24s2.33.45,2.5.18-.12-.41-.54-.68a4.39,4.39,0,0,0-3.8-.33C229,83.72,228.81,84,228.86,84.1Z"/>
            <path class="cls-11" d="M218.83,85.26c.2.25.95,0,1.85-.06s1.68.12,1.85-.14-.06-.38-.4-.6a2.47,2.47,0,0,0-1.51-.37,2.51,2.51,0,0,0-1.46.53C218.84,84.89,218.74,85.14,218.83,85.26Z"/>
          </g>
        </g>
        <path class="cls-11" d="M243.26,82.31c0,2.07.48,4.37.17,6.41-.05.31-.83,1.15-.89,1.46-.37,1.81-1.1,2.6-2.22.77a16.45,16.45,0,0,1-.92-3.49c-.49-2.17-1-4.35-1.46-6.53a11.34,11.34,0,0,1-5.37,1.42,5.55,5.55,0,0,1-4.69-2.61A5.73,5.73,0,0,1,219,81.13a2.39,2.39,0,0,1-3.15.75,2.84,2.84,0,0,1-1.24-3.1c.45-1.75,2.28-2.74,4-3.29,6.71-2.16,14.23-.79,20.39,2.63a10.33,10.33,0,0,1,2.5,1.78c.72.75,1.7,1.61,1.76,2.64"/>
      </g>
      <path class="cls-14" d="M238.15,81.74a3.53,3.53,0,0,1,1.11.18,3.8,3.8,0,0,1,1,.65c.35.3.69.7,1.11,1.09a3.55,3.55,0,0,0,1.38.86,2.39,2.39,0,0,0,1.35,0c.75-.21,1-.62,1-.65a7,7,0,0,1-1.08.37,2.38,2.38,0,0,1-1.16-.1,3.46,3.46,0,0,1-1.22-.81c-.39-.37-.75-.76-1.14-1.07a3.59,3.59,0,0,0-1.17-.64C238.59,81.42,238.12,81.71,238.15,81.74Z"/>
      <path class="cls-14" d="M239,83.87c0,.06.36,0,.77.34a4.07,4.07,0,0,1,.61.7,3.37,3.37,0,0,0,.93.86,3.31,3.31,0,0,0,2.21.47c.59-.09.89-.3.87-.35s-.35,0-.89.06a3.64,3.64,0,0,1-2-.53c-.69-.39-1-1.13-1.6-1.45S239,83.82,239,83.87Z"/>
      <path class="cls-14" d="M220.23,70a1,1,0,0,0-.62.06,2.68,2.68,0,0,0-1.37,1,6.53,6.53,0,0,0-.4,5.48,7.73,7.73,0,0,0,3.48,4.28,7.2,7.2,0,0,0,1.56.67,1.49,1.49,0,0,0,.61.1,21.13,21.13,0,0,1-2-1,7.86,7.86,0,0,1-3.24-4.16,6.55,6.55,0,0,1,.24-5.18,2.86,2.86,0,0,1,1.19-1C220,70.1,220.24,70.08,220.23,70Z"/>
      <path class="cls-14" d="M214.35,73a3.06,3.06,0,0,0,.06,1.37,8.49,8.49,0,0,0,1.26,3.07A8.38,8.38,0,0,0,218,79.78a3,3,0,0,0,1.24.58A13.77,13.77,0,0,1,216,77.2,13.5,13.5,0,0,1,214.35,73Z"/>
    </g>
    <path class="cls-17" d="M175.14,172.06l-10.4.53a2.46,2.46,0,0,0-2.34,2.5c0,2.38.45,5.63,2.31,5.32l1.18-5.18,8.63,7.62a6.24,6.24,0,0,0,3.11,1.52l2-.21Z"/>
    <g>
      <polygon class="cls-9" points="224.88 116.35 219.45 118.15 216.75 163.3 216.75 203.34 250.13 207.04 250.51 149.29 248.36 120.54 243.26 114.45 224.88 116.35"/>
      <polygon class="cls-9" points="223.21 118.51 223.21 114.14 243.05 111.38 242.25 121.46 237.69 129.36 230.24 129.77 224.86 126.45 223.21 118.51"/>
      <path class="cls-11" d="M225,118a5.12,5.12,0,0,1-.11-2,5,5,0,0,1,.28-2,5.12,5.12,0,0,1,.11,2A5.22,5.22,0,0,1,225,118Z"/>
      <path class="cls-11" d="M230,117.64a12.52,12.52,0,0,1,.26-4.45,6.47,6.47,0,0,1,.07,2.24A6.56,6.56,0,0,1,230,117.64Z"/>
      <path class="cls-11" d="M234.75,117.14a7.23,7.23,0,0,1,0-2.36,7.32,7.32,0,0,1,.37-2.34,7.23,7.23,0,0,1,0,2.36A7.66,7.66,0,0,1,234.75,117.14Z"/>
      <path class="cls-11" d="M239.35,116.38a5.36,5.36,0,0,1-.17-2.24,5.22,5.22,0,0,1,.38-2.21,7.93,7.93,0,0,1,0,2.23A7.74,7.74,0,0,1,239.35,116.38Z"/>
      <path class="cls-11" d="M237.15,135.47a3.46,3.46,0,0,1-.26.74c-.19.47-.49,1.13-.88,1.95-.77,1.63-1.92,3.85-3.33,6.22s-2.81,4.44-3.88,5.9c-.53.73-1,1.31-1.29,1.7a3.2,3.2,0,0,1-.53.59,26.15,26.15,0,0,1,1.6-2.45c1-1.5,2.36-3.58,3.76-5.94s2.59-4.55,3.42-6.14A25,25,0,0,1,237.15,135.47Z"/>
    </g>
    <g>
      <path class="cls-14" d="M243.16,113.75l5.38,2.59,10.4,2.54a8.66,8.66,0,0,1,7.11,9.64L260.61,171l6.49,41.16-25.77-.76-1.51-15.32V153.61Z"/>
      <path class="cls-11" d="M239.82,163.4a2.84,2.84,0,0,1,.07-.53c.08-.38.18-.87.3-1.49.28-1.34.67-3.2,1.15-5.47,1-4.66,2.4-11,3.93-18,.43-1.93.85-3.81,1.25-5.62l0,.18-1.79-1.87-.1-.11.08-.12c1.07-1.77,2.07-3.45,3-5v.14c-1.36-3.29-2.49-6-3.31-8l-.89-2.24a7.36,7.36,0,0,1-.29-.81,4.49,4.49,0,0,1,.38.77c.24.55.57,1.28,1,2.2.84,2,2,4.69,3.43,8l0,.07,0,.08-3,5,0-.22,1.8,1.86.07.07,0,.1L245.65,138c-1.57,7-3,13.35-4,18-.53,2.26-1,4.11-1.27,5.44-.15.61-.27,1.1-.37,1.48A3.73,3.73,0,0,1,239.82,163.4Z"/>
    </g>
    <g>
      <path class="cls-14" d="M175.58,170.35l22.8-12.71,11.05-29.8a16,16,0,0,1,8.85-9.21l2.93-1.22,0,78.46.58,18.59-12.35-3.7,6.3-37.36L213.58,155l-2.16,8.9a12.09,12.09,0,0,1-5.63,7.56L182.05,183.8Z"/>
      <polygon class="cls-9" points="175.86 170.93 173.94 171.5 179.34 184.37 181.85 183.4 175.86 170.93"/>
      <path class="cls-11" d="M202.51,162.93A17,17,0,0,0,200.8,160a16.23,16.23,0,0,0-2.52-2.2,5.26,5.26,0,0,1,2.83,1.95A5.33,5.33,0,0,1,202.51,162.93Z"/>
      <path class="cls-11" d="M178.32,170.52s-.12.15-.13.37.13.48.43.39a.34.34,0,0,0,.16-.56c-.13-.18-.3-.19-.31-.25s.21-.17.5.05a.66.66,0,0,1,.26.55.68.68,0,0,1-.5.59.67.67,0,0,1-.73-.23.64.64,0,0,1-.08-.6C178.05,170.49,178.31,170.47,178.32,170.52Z"/>
      <path class="cls-11" d="M180.16,169.74c0,.06-.12.16-.13.38s.13.47.43.38a.34.34,0,0,0,.16-.56c-.13-.17-.3-.19-.31-.24s.21-.17.5,0a.68.68,0,0,1,.26.55.7.7,0,0,1-1.23.37.66.66,0,0,1-.08-.61C179.89,169.72,180.15,169.69,180.16,169.74Z"/>
      <path class="cls-11" d="M221.21,164.61a4.25,4.25,0,0,1-.1-.49c-.05-.36-.12-.82-.21-1.39-.17-1.27-.41-3-.7-5.15-.55-4.4-1.32-10.39-2.16-17-.11-.94-.23-1.87-.34-2.78v-.1l1.67-4.23v.14c-.57-1.32-1.12-2.57-1.64-3.76l0-.05,0-.06,2.47-8.93.72-2.51a5.62,5.62,0,0,1,.29-.88,5,5,0,0,1-.18.91c-.16.63-.37,1.48-.63,2.53-.58,2.22-1.38,5.3-2.34,9v-.12c.52,1.18,1.08,2.44,1.67,3.75l0,.07,0,.07-1.65,4.24v-.09c.11.91.23,1.84.35,2.78.79,6.62,1.51,12.62,2,17,.24,2.15.43,3.9.58,5.17l.13,1.41A1.66,1.66,0,0,1,221.21,164.61Z"/>
      <path class="cls-11" d="M215.73,173.62a1.2,1.2,0,0,1-.08-.37l-.15-1.07c-.12-1-.29-2.33-.49-4-.4-3.34-1-7.94-1.65-13s-1.35-9.67-1.84-13c-.23-1.62-.43-2.95-.57-3.94-.06-.43-.1-.78-.14-1.07s0-.38,0-.38a2.18,2.18,0,0,1,.1.37c.05.28.12.63.21,1.06.18.92.42,2.26.7,3.91.56,3.32,1.27,7.91,1.95,13s1.21,9.69,1.54,13c.17,1.67.29,3,.36,4,0,.43.06.79.08,1.08A1.83,1.83,0,0,1,215.73,173.62Z"/>
      <path class="cls-11" d="M212.57,201.51a4.39,4.39,0,0,0,.53.64,2.41,2.41,0,0,0,2.08.46,3.53,3.53,0,0,0,2.26-2.22,13.67,13.67,0,0,0,.64-4.07,9.4,9.4,0,0,0-.42-4.07,7.51,7.51,0,0,0-2.07-2.61,9.91,9.91,0,0,1-1.58-1.72,2.19,2.19,0,0,1-.37-.77s.16.25.49.68a11.62,11.62,0,0,0,1.65,1.6,7.39,7.39,0,0,1,2.21,2.68,9.35,9.35,0,0,1,.48,4.23,13.62,13.62,0,0,1-.69,4.19,3.81,3.81,0,0,1-2.53,2.36,2.54,2.54,0,0,1-2.25-.63,1.83,1.83,0,0,1-.37-.53A.63.63,0,0,1,212.57,201.51Z"/>
      <path class="cls-11" d="M204.1,172.06s.74-8.69,7.64-9.49A10.19,10.19,0,0,1,204.1,172.06Z"/>
    </g>
    <g>
      <g>
        <path class="cls-12" d="M241,204.62c.45.31,20.05,13.12,20.05,13.12l2.26-1.81,1.07-29.39-19.1-14.48-2.62.91Z"/>
        <polygon class="cls-9" points="245.08 172.48 245.87 204.3 241.65 204.3 243.06 173.11 245.08 172.48"/>
        <path class="cls-17" d="M251.39,211.6a2.49,2.49,0,0,0,2.26,1.54c.06,0,.11,0,.17.13a2.24,2.24,0,0,0,1.9,1.19,4.09,4.09,0,0,0,2.15-.62c1.05-.64,2.92-4.82,2.92-4.82l4.42-9.85-7.44-2-9.44,2.94c0,.17-2.21,9.12-2.21,9.12a2.27,2.27,0,0,0,2.65-1.41,23.48,23.48,0,0,1,1.67-3.12l.7,4-2.69.92a1.8,1.8,0,0,0,1.15,2.05Z"/>
      </g>
      <path class="cls-14" d="M254.72,142.44l12.38,22.79L257,195.14l11.2,6.31,14.24-33.27a9.44,9.44,0,0,0-.12-7.7L264.88,123Z"/>
      <polygon class="cls-9" points="257.03 195.14 255.98 197.46 266.56 203.15 267.66 201.12 257.03 195.14"/>
      <path class="cls-11" d="M257,195.14s0-.06,0-.16l.13-.44.54-1.69,2.06-6.28,7.13-21.4,0,.16c-1.44-2.45-2.92-5-4.42-7.71-2.72-4.87-5.23-9.57-7.38-13.91-1.06-2.18-2-4.26-2.88-6.25a12.52,12.52,0,0,1-1-5.9,13.79,13.79,0,0,1,1.11-4.84,9.51,9.51,0,0,1,2.18-3,7.4,7.4,0,0,1,2-1.3,3.64,3.64,0,0,1,.78-.28,8.76,8.76,0,0,0-2.64,1.69,9.46,9.46,0,0,0-2.09,3,13.53,13.53,0,0,0-1,4.75,12.3,12.3,0,0,0,1.05,5.76c.85,2,1.84,4,2.91,6.22,2.16,4.32,4.67,9,7.4,13.88,1.49,2.67,3,5.25,4.4,7.7l.05.08,0,.08c-2.91,8.54-5.45,16-7.27,21.36-.91,2.63-1.65,4.75-2.16,6.24q-.39,1.06-.6,1.68l-.16.43C257.06,195.09,257,195.14,257,195.14Z"/>
      <path class="cls-11" d="M275.48,165a8.35,8.35,0,0,1-1.22-.44,9.12,9.12,0,0,0-3-.44,8.77,8.77,0,0,0-3,.63,9.37,9.37,0,0,1-1.2.51,2.89,2.89,0,0,1,1.08-.76,7.56,7.56,0,0,1,6.22-.2A2.87,2.87,0,0,1,275.48,165Z"/>
      <polygon class="cls-11" points="252.25 137.02 261.14 166.78 262.4 157 252.25 137.02"/>
      <path class="cls-11" d="M266.94,195.5c0,.05-.11.15-.12.37a.33.33,0,0,0,.43.39.34.34,0,0,0,.16-.56c-.14-.18-.31-.19-.31-.25s.21-.17.5.05a.66.66,0,0,1,.26.55.68.68,0,0,1-.5.59.67.67,0,0,1-.73-.23.64.64,0,0,1-.08-.6C266.67,195.47,266.94,195.45,266.94,195.5Z"/>
      <path class="cls-11" d="M267.84,193.35c0,.06-.11.16-.13.38s.14.47.43.38a.32.32,0,0,0,.16-.55c-.13-.18-.3-.19-.31-.25s.21-.17.5,0a.68.68,0,0,1,.26.55.66.66,0,0,1-.49.59.68.68,0,0,1-.74-.22.69.69,0,0,1-.08-.61C267.57,193.33,267.84,193.3,267.84,193.35Z"/>
      <path class="cls-11" d="M280,155.44c-1.32.7-1.78,2.65-1.63,4.14A35.93,35.93,0,0,1,279,164a18,18,0,0,1-.57,3.15,5.48,5.48,0,0,0,.1,3.16,2.43,2.43,0,0,0,2.51,1.59l1.05-2.12a11.72,11.72,0,0,0-.15-10.66Z"/>
    </g>
  </g>
  <g>
    <path class="cls-12" d="M344.91,315.47a8.48,8.48,0,0,1,4.4-5.62c2.35-1,5.07-.44,7.48.44s4.76,2,7.31,2.2,5.44-1.06,6.2-3.5-.66-4.74-2.39-6.41a15.13,15.13,0,0,0-24.79,5.95"/>
    <g>
      <g class="cls-2">
        <path class="cls-21" d="M344.91,315.47a8.48,8.48,0,0,1,4.4-5.62c2.35-1,5.07-.44,7.48.44s4.76,2,7.31,2.2,5.44-1.06,6.2-3.5-.66-4.74-2.39-6.41a15.13,15.13,0,0,0-24.79,5.95"/>
      </g>
      <path class="cls-10" d="M324.69,325.73c-3.75-3.56-3.56-9.76-1.69-14.57s5.94-8.52,10.5-11a33.28,33.28,0,0,1,29-.94,13.76,13.76,0,0,0-11.12,6.54c-2.05,3.4-2.51,7.54-4.21,11.14a17.54,17.54,0,0,1-22.46,8.79"/>
      <path class="cls-10" d="M322.89,304.35c-4.15-4.9-4.7-12.76-4.09-19.14s2.09-12.82,1.08-19.15c-.6-3.76-2.05-7.34-2.54-11.11s.2-8,3.12-10.46c3.36-2.8,8.64-2.14,12.13.49s5.52,6.75,7,10.86c3.24,9,4.44,19,1.77,28.26s-8.93,17.47-18.11,20.25"/>
      <path class="cls-11" d="M320.89,344.51a4.76,4.76,0,0,1,0-.56c0-.37,0-.92,0-1.62,0-1.4.19-3.44.5-5.93a78.84,78.84,0,0,1,1.6-8.68,39.85,39.85,0,0,1,4-10.05,41.87,41.87,0,0,1,6.47-8.66,41.24,41.24,0,0,1,6.79-5.64c1-.72,2-1.26,2.9-1.77s1.66-.84,2.29-1.15l1.49-.62a3.47,3.47,0,0,1,.53-.2,4.25,4.25,0,0,1-.5.26l-1.46.68c-.63.33-1.39.72-2.26,1.2s-1.83,1.07-2.86,1.8a42.67,42.67,0,0,0-13.09,14.26c-3.82,6.67-4.86,13.69-5.62,18.6-.34,2.49-.51,4.51-.61,5.91L321,344A2.73,2.73,0,0,1,320.89,344.51Z"/>
      <g>
        <path class="cls-12" d="M285.13,285c-7.68,4.63-7.65,8.84-6.37,12.82s6,6.74,9.89,5.25c2.21-.84,3.81-2.76,5.17-4.69s2.65-4,4.57-5.37,4.68-1.92,6.61-.55"/>
        <g class="cls-2">
          <path class="cls-21" d="M285.13,285c-7.68,4.63-7.65,8.84-6.37,12.82s6,6.74,9.89,5.25c2.21-.84,3.81-2.76,5.17-4.69s2.65-4,4.57-5.37,4.68-1.92,6.61-.55"/>
        </g>
        <path class="cls-10" d="M279.38,290.11c2-2.77,7-3.57,10.09-2.19s5.43,4.13,7.48,6.87,4.05,5.63,6.89,7.53,6.81,2.6,9.64.68a8.32,8.32,0,0,0,3.28-5.68,18.89,18.89,0,0,0-.45-6.69c-.68-3.21-1.78-6.58-4.36-8.62-2.87-2.28-6.85-2.39-10.51-2.27A39.64,39.64,0,0,0,289,281.65c-3.95,1.46-8,4.61-9.65,8.46"/>
        <path class="cls-11" d="M314.52,338.37s0-.06,0-.17l0-.5c0-.46,0-1.1-.06-1.9-.05-1.68-.12-4.07-.21-7s-.21-6.48-.42-10.38-.51-8.2-1.1-12.66a41.35,41.35,0,0,0-1.27-6.43,33.25,33.25,0,0,0-2.36-5.63,32.36,32.36,0,0,0-3-4.66,30.79,30.79,0,0,0-3.24-3.55,24,24,0,0,0-5.74-3.92c-.38-.17-.71-.34-1-.46l-.75-.29-.46-.18-.15-.08.16,0,.47.16.77.26c.3.11.63.27,1,.43a23,23,0,0,1,5.85,3.86,29.51,29.51,0,0,1,3.3,3.56,31.93,31.93,0,0,1,3,4.68,33.53,33.53,0,0,1,2.4,5.68,41.52,41.52,0,0,1,1.29,6.48c.59,4.48.87,8.78,1.07,12.69s.29,7.43.36,10.39.08,5.35.09,7v1.9c0,.2,0,.37,0,.5A1.15,1.15,0,0,1,314.52,338.37Z"/>
      </g>
      <path class="cls-11" d="M317.28,341.83a21.94,21.94,0,0,1-.84-3.29,34.55,34.55,0,0,1-.35-9.26A61.37,61.37,0,0,1,319,315.85c1.57-4.94,3.71-10.21,5.54-15.89a69.54,69.54,0,0,0,3.29-16.43,116,116,0,0,0,.24-13.71c-.13-3.91-.34-7.07-.47-9.25-.06-1.08-.11-1.92-.14-2.52,0-.27,0-.49,0-.65a.68.68,0,0,1,0-.23l0,.22c0,.17,0,.38.07.66l.21,2.51c.17,2.18.41,5.34.58,9.25a115.33,115.33,0,0,1-.17,13.75,69.44,69.44,0,0,1-3.28,16.51c-1.84,5.69-4,11-5.57,15.88a63.14,63.14,0,0,0-3,13.35,35.57,35.57,0,0,0,.24,9.22c.19,1.07.36,1.9.51,2.46.07.26.12.47.16.63S317.28,341.83,317.28,341.83Z"/>
      <polygon class="cls-14" points="336.3 345.3 300.27 345.3 299.45 338.37 336.3 338.37 336.3 345.3"/>
      <polygon class="cls-14" points="304.14 344.51 308.64 365.31 328.22 365.31 332.44 344.51 304.14 344.51"/>
      <path class="cls-14" d="M336.3,345.3c0,.1-7.92.15-17.69.12s-17.69-.12-17.69-.22,7.92-.15,17.69-.12S336.3,345.21,336.3,345.3Z"/>
      <path class="cls-11" d="M330.12,355.57a15.21,15.21,0,0,0-3.18-1.82,11,11,0,0,0-3.85-.77,13.42,13.42,0,0,0-4.75.87c-1.64.55-3.17,1.2-4.67,1.55a10.9,10.9,0,0,1-4,.12,7.88,7.88,0,0,1-2.59-.82,6.39,6.39,0,0,1-.63-.39l-.2-.17s.31.18.88.44a9.05,9.05,0,0,0,2.57.7,11.17,11.17,0,0,0,3.93-.19c1.45-.36,3-1,4.63-1.57a13.42,13.42,0,0,1,4.86-.86,11.09,11.09,0,0,1,4,.86,10.43,10.43,0,0,1,2.34,1.37,5.63,5.63,0,0,1,.56.49A.71.71,0,0,1,330.12,355.57Z"/>
      <path class="cls-13" d="M329.84,357a15.15,15.15,0,0,0-3-1.8,10.35,10.35,0,0,0-3.72-.76,13.35,13.35,0,0,0-4.59.82c-1.59.53-3.08,1.15-4.5,1.53a11.5,11.5,0,0,1-3.88.44,6.7,6.7,0,0,1-2.54-.68,5.14,5.14,0,0,1-.61-.39,1.07,1.07,0,0,1-.19-.16s.3.17.86.43a6.93,6.93,0,0,0,2.5.55,11.84,11.84,0,0,0,3.77-.49c1.4-.4,2.87-1,4.48-1.55a13.17,13.17,0,0,1,4.7-.82,10.21,10.21,0,0,1,6.06,2.22c.24.19.42.36.54.47S329.85,357,329.84,357Z"/>
      <path class="cls-13" d="M330.47,354.19a16.38,16.38,0,0,0-3.25-1.92,11.87,11.87,0,0,0-4-.95,12.67,12.67,0,0,0-4.89.86,44.48,44.48,0,0,1-4.84,1.58,12.33,12.33,0,0,1-4.16,0,9.49,9.49,0,0,1-2.68-.85,5.27,5.27,0,0,1-.65-.4c-.14-.11-.21-.17-.2-.18s.31.19.91.46a10.12,10.12,0,0,0,2.65.73,12.78,12.78,0,0,0,4.07-.08,49.57,49.57,0,0,0,4.79-1.59,12.63,12.63,0,0,1,5-.86,12.33,12.33,0,0,1,6.44,2.49,7.57,7.57,0,0,1,.57.5C330.42,354.11,330.48,354.18,330.47,354.19Z"/>
    </g>
    <path class="cls-11" d="M336.62,345.33c0,.1-8.11.17-18.1.17s-18.1-.07-18.1-.17,8.1-.17,18.1-.17S336.62,345.24,336.62,345.33Z"/>
  </g>
  <g>
    <path class="cls-12" d="M61.32,337.42c1.29,1.85,3.81,1.23,5,.1a9.33,9.33,0,0,0,2.11-4.32c1-3.57,2.06-7.31,1.3-10.94a6.15,6.15,0,0,0-1.4-3,3.17,3.17,0,0,0-3-1c-1.27.33-2.06,1.58-2.63,2.76a26.28,26.28,0,0,0-2.58,11.19,9.09,9.09,0,0,0,1.23,5.19"/>
    <g class="cls-22">
      <path d="M61.32,337.42c1.29,1.85,3.81,1.23,5,.1a9.33,9.33,0,0,0,2.11-4.32c1-3.57,2.06-7.31,1.3-10.94a6.15,6.15,0,0,0-1.4-3,3.17,3.17,0,0,0-3-1c-1.27.33-2.06,1.58-2.63,2.76a26.28,26.28,0,0,0-2.58,11.19,9.09,9.09,0,0,0,1.23,5.19"/>
    </g>
    <path class="cls-12" d="M66.17,346.79a11.19,11.19,0,0,1,7-.85,5.8,5.8,0,0,1,3.44,1.54,2.48,2.48,0,0,1,0,3.43,3.27,3.27,0,0,1-2.17.55c-1.85,0-3.89-.34-5.36.77-.84.63-1.4,1.68-2.4,2a2.39,2.39,0,0,1-2.61-1.16,4.07,4.07,0,0,1-.3-3A4.58,4.58,0,0,1,66.17,346.79Z"/>
    <path class="cls-12" d="M57.76,340.07a6.75,6.75,0,0,0,1.05-6.2,12,12,0,0,0-3.67-5.32,19.86,19.86,0,0,0-6.57-3.88,7.22,7.22,0,0,0-3-.5,3.12,3.12,0,0,0-2.48,1.5c-.69,1.32,0,2.92.69,4.23a50.22,50.22,0,0,0,4.31,6.57,11.78,11.78,0,0,0,4.75,4.07c2,.75,4,.66,5.07-.71"/>
    <path class="cls-11" d="M61.23,365.33a5,5,0,0,0,.12-.84c.06-.61.13-1.38.22-2.29a33.45,33.45,0,0,1,.52-3.37,24.75,24.75,0,0,1,1.22-4,14.76,14.76,0,0,1,2-3.6,7.71,7.71,0,0,1,2.56-2.13,7.11,7.11,0,0,1,2.16-.67,5,5,0,0,0,.84-.12,3.5,3.5,0,0,0-.85,0,6.62,6.62,0,0,0-2.25.59,7.51,7.51,0,0,0-2.71,2.15,14.15,14.15,0,0,0-2.1,3.67,24.17,24.17,0,0,0-1.22,4,27.87,27.87,0,0,0-.44,3.4c-.08,1-.1,1.77-.12,2.31A4.31,4.31,0,0,0,61.23,365.33Z"/>
    <path class="cls-11" d="M61.39,363.57a1.73,1.73,0,0,0,0-.39v-1.12c0-1,0-2.37.05-4.1.08-3.46.38-8.24,1-13.49s1.34-10,2-13.37c.16-.85.33-1.61.48-2.28s.28-1.25.41-1.72.19-.8.26-1.08.08-.38.06-.39a2.93,2.93,0,0,0-.13.37c-.09.28-.19.63-.33,1.07s-.29,1-.45,1.7-.36,1.43-.54,2.28a124.91,124.91,0,0,0-2.16,13.38c-.58,5.26-.83,10.06-.86,13.53,0,1.73,0,3.13.06,4.1,0,.46,0,.83.07,1.12A1.83,1.83,0,0,0,61.39,363.57Z"/>
    <path class="cls-11" d="M61.41,354.33a6.6,6.6,0,0,0,0-1.17,31.44,31.44,0,0,0-.35-3.16,43.78,43.78,0,0,0-1-4.6A42,42,0,0,0,58.1,340a29.19,29.19,0,0,0-5.65-8.8,16,16,0,0,0-1.33-1.24c-.21-.17-.39-.34-.57-.48l-.52-.35a7.11,7.11,0,0,0-1-.63,33.73,33.73,0,0,1,3.22,2.87,30.72,30.72,0,0,1,5.51,8.76,43.23,43.23,0,0,1,1.93,5.4A44.23,44.23,0,0,1,60.8,350c.25,1.32.38,2.39.47,3.13A9,9,0,0,0,61.41,354.33Z"/>
  </g>
  <g>
    <path class="cls-12" d="M173.19,47.94h.39l1.14,0a11.65,11.65,0,0,1,1.84.18c.36.06.75.1,1.16.18l1.31.32a21.79,21.79,0,0,1,16.06,19.89,21.72,21.72,0,0,1-3,12.3A22,22,0,0,1,181.56,90a21.42,21.42,0,0,1-7.3,1.61,20.86,20.86,0,0,1-7.65-.95l-.22-.07h.18L153.79,95l-.52.18.16-.52q1.73-5.52,3.32-10.64l.06.25a21.8,21.8,0,0,1-5.13-18.91,21.55,21.55,0,0,1,3.3-7.88A22.19,22.19,0,0,1,160,52.21a22.42,22.42,0,0,1,2.65-1.72,26.56,26.56,0,0,1,2.55-1.16,18.27,18.27,0,0,1,2.3-.73,14.48,14.48,0,0,1,2-.41c.6-.08,1.12-.17,1.58-.21l1.16,0h.95a.92.92,0,0,1-.24,0l-.7.05-1.16.08c-.45.06-1,.16-1.56.25a14.46,14.46,0,0,0-1.95.45,18.78,18.78,0,0,0-2.26.76,27.32,27.32,0,0,0-2.5,1.17,24.83,24.83,0,0,0-2.59,1.73,22,22,0,0,0-4.93,5.23,21.33,21.33,0,0,0-3.18,7.75,21.48,21.48,0,0,0,5.08,18.47l.1.11,0,.15L154,94.82l-.35-.34,12.77-4.43.09,0,.09,0,.22.07a20.19,20.19,0,0,0,7.45.93,20.88,20.88,0,0,0,7.12-1.56,21.53,21.53,0,0,0,10.3-8.92A21.54,21.54,0,0,0,179,48.86l-1.29-.35c-.4-.09-.79-.14-1.15-.2a13.88,13.88,0,0,0-1.82-.24L173.58,48A1.83,1.83,0,0,1,173.19,47.94Z"/>
    <polygon class="cls-12" points="160.35 71.24 163.71 67.88 170.19 73.64 182.92 61.4 186.04 64.76 169.71 80.13 160.35 71.24"/>
  </g>
</svg>
