<svg id="Capa_1" data-name="Capa 1" xmlns="http://www.w3.org/2000/svg" width="400" height="400" viewBox="0 0 400 400">
  <defs>
    <style>
      .cls-1, .cls-3 {
        fill: #8b82ca;
      }

      .cls-1 {
        opacity: 0.69;
      }

      .cls-12, .cls-2, .cls-25 {
        opacity: 0.5;
      }

      .cls-4 {
        fill: #cfccd9;
      }

      .cls-5 {
        fill: #d8d5ed;
      }

      .cls-6 {
        fill: #b2abdb;
      }

      .cls-7 {
        fill: #3e2ea6;
      }

      .cls-22, .cls-8 {
        opacity: 0.3;
      }

      .cls-12, .cls-13, .cls-14, .cls-17, .cls-19, .cls-20, .cls-22, .cls-9 {
        fill: #fff;
      }

      .cls-9 {
        opacity: 0.7;
      }

      .cls-10, .cls-15, .cls-19, .cls-23 {
        opacity: 0.2;
      }

      .cls-11 {
        fill: #091320;
      }

      .cls-13 {
        opacity: 0.6;
      }

      .cls-14, .cls-28 {
        opacity: 0.4;
      }

      .cls-16 {
        opacity: 0.8;
      }

      .cls-18 {
        opacity: 0.1;
      }

      .cls-20 {
        opacity: 0.9;
      }

      .cls-21 {
        fill: #ffb570;
      }

      .cls-23 {
        isolation: isolate;
      }

      .cls-24 {
        fill: #ff8935;
      }

      .cls-26 {
        fill: #e88033;
      }

      .cls-27 {
        fill: #e67b62;
      }

      .cls-29 {
        fill: #d54c38;
      }
    </style>
  </defs>
  <g>
    <path class="cls-1" d="M54.68,44.67V30.79a37.28,37.28,0,0,0,0,74.56V91.47a23.4,23.4,0,0,1,0-46.8Z"/>
    <g class="cls-2">
      <path class="cls-3" d="M54.68,105.35a37.28,37.28,0,1,0,0-74.56V44.67a23.4,23.4,0,1,1,0,46.8Z"/>
    </g>
  </g>
  <g>
    <path class="cls-4" d="M200,318.06v70c103.87,0,188.08-84.21,188.08-188.08S303.87,11.92,200,11.92v70a118.06,118.06,0,0,1,0,236.12Z"/>
    <path class="cls-5" d="M200,11.92C96.13,11.92,11.92,96.13,11.92,200S96.13,388.08,200,388.08v-70a118.06,118.06,0,0,1,0-236.12Z"/>
  </g>
  <g>
    <path class="cls-4" d="M65.43,301.43V283a49.59,49.59,0,0,0,0,99.17V363.68a31.13,31.13,0,0,1,0-62.25Z"/>
    <path class="cls-6" d="M65.43,382.14a49.59,49.59,0,1,0,0-99.17v18.46a31.13,31.13,0,1,1,0,62.25Z"/>
  </g>
  <path class="cls-6" d="M200,81.21a118.79,118.79,0,0,0,0,237.58v-7l-7-.17a111.8,111.8,0,0,1,0-223.16h7Z"/>
  <g>
    <g>
      <g>
        <polygon class="cls-7" points="195.63 324.5 201.92 277.29 208.2 324.5 195.63 324.5"/>
        <polygon class="cls-8" points="195.63 324.5 201.92 277.29 208.2 324.5 195.63 324.5"/>
      </g>
      <polygon class="cls-7" points="171.58 324.5 177.86 277.29 201.92 277.29 195.63 324.5 171.58 324.5"/>
      <polygon class="cls-9" points="171.58 324.5 177.86 277.29 201.92 277.29 195.63 324.5 171.58 324.5"/>
    </g>
    <g>
      <path class="cls-7" d="M183.25,289.81a1.44,1.44,0,0,1,.39,1.33,2.11,2.11,0,0,1-.43,1,2.26,2.26,0,0,1-.93.71,3.33,3.33,0,0,1-1.4.26,4.4,4.4,0,0,1-1.2-.16,2.44,2.44,0,0,1-.94-.47l.7-1a2,2,0,0,0,.71.39,2.84,2.84,0,0,0,.88.14,1.63,1.63,0,0,0,.84-.2.81.81,0,0,0,.38-.56.54.54,0,0,0-.22-.58,1.9,1.9,0,0,0-1-.19h-1.5l.82-3.31h3.59l-.17,1.09h-2.45l-.27,1.12h.48A2.49,2.49,0,0,1,183.25,289.81Z"/>
      <path class="cls-7" d="M185.16,292.73a1.94,1.94,0,0,1-.73-1,3.66,3.66,0,0,1-.07-1.64,4.32,4.32,0,0,1,.59-1.64,3,3,0,0,1,1.06-1,2.69,2.69,0,0,1,1.36-.36,2.14,2.14,0,0,1,1.25.36,1.93,1.93,0,0,1,.72,1,3.52,3.52,0,0,1,.07,1.64,4.49,4.49,0,0,1-.58,1.64,3.18,3.18,0,0,1-1.06,1,2.72,2.72,0,0,1-1.37.36A2.11,2.11,0,0,1,185.16,292.73Zm2.35-1.25a3,3,0,0,0,.53-1.43,2.53,2.53,0,0,0-.08-1.43.8.8,0,0,0-.77-.46,1.12,1.12,0,0,0-.91.46,3,3,0,0,0-.54,1.43,2.53,2.53,0,0,0,.08,1.43.8.8,0,0,0,.77.46A1.15,1.15,0,0,0,187.51,291.48Z"/>
      <path class="cls-7" d="M190.41,289.84a1.49,1.49,0,0,1-.22-1.18,2,2,0,0,1,.6-1.18,1.61,1.61,0,0,1,1.12-.44,1.16,1.16,0,0,1,1,.44,1.47,1.47,0,0,1,.22,1.18,2,2,0,0,1-.59,1.18,1.58,1.58,0,0,1-1.12.45A1.17,1.17,0,0,1,190.41,289.84Zm1.58-.48a1.37,1.37,0,0,0,.28-.7,1.13,1.13,0,0,0-.05-.69.45.45,0,0,0-.42-.24.63.63,0,0,0-.48.24,1.37,1.37,0,0,0-.28.69,1.09,1.09,0,0,0,.06.7.43.43,0,0,0,.41.24A.6.6,0,0,0,192,289.36Zm3.42-2.25h1L191.46,293h-1Zm-1.18,5.75a1.11,1.11,0,0,1-.43-.56,1.75,1.75,0,0,1,0-.86,2,2,0,0,1,.32-.86,1.63,1.63,0,0,1,.6-.57,1.68,1.68,0,0,1,.79-.2,1.14,1.14,0,0,1,1,.45,1.45,1.45,0,0,1,.22,1.18,2,2,0,0,1-.59,1.18,1.64,1.64,0,0,1-1.13.44A1.29,1.29,0,0,1,194.23,292.86Zm1.32-.73a1.37,1.37,0,0,0,.27-.69,1.17,1.17,0,0,0,0-.7.42.42,0,0,0-.41-.24.63.63,0,0,0-.49.24,1.37,1.37,0,0,0-.27.7,1.17,1.17,0,0,0,.05.7.45.45,0,0,0,.41.23A.62.62,0,0,0,195.55,292.13Z"/>
      <path class="cls-7" d="M179.26,301.39a2.35,2.35,0,0,1-1-1.09,2.69,2.69,0,0,1-.17-1.56,3.4,3.4,0,0,1,.66-1.56,3.63,3.63,0,0,1,1.33-1.09,3.84,3.84,0,0,1,1.71-.4,3.13,3.13,0,0,1,1.59.4,2.33,2.33,0,0,1,1,1.09,2.69,2.69,0,0,1,.18,1.56,3.41,3.41,0,0,1-.67,1.56,3.79,3.79,0,0,1-1.32,1.09,3.83,3.83,0,0,1-1.71.39A3.07,3.07,0,0,1,179.26,301.39Zm2.75-1a2.12,2.12,0,0,0,.76-.67,2.2,2.2,0,0,0,.4-1,1.76,1.76,0,0,0-.09-1,1.39,1.39,0,0,0-.55-.67,1.68,1.68,0,0,0-.9-.23,2.05,2.05,0,0,0-1,.23,2.25,2.25,0,0,0-.77.67,2.23,2.23,0,0,0-.39,1,1.82,1.82,0,0,0,.08,1,1.37,1.37,0,0,0,.56.67,1.63,1.63,0,0,0,.9.24A2.09,2.09,0,0,0,182,300.38Z"/>
      <path class="cls-7" d="M187.23,296.89l-.25,1.55h2.73l-.18,1.1h-2.72l-.34,2.14h-1.36l.93-5.88h4.45l-.18,1.09Z"/>
      <path class="cls-7" d="M192.6,296.89l-.24,1.55h2.72l-.17,1.1h-2.73l-.34,2.14h-1.36l.93-5.88h4.45l-.17,1.09Z"/>
    </g>
  </g>
  <g>
    <polygon class="cls-7" points="146.35 366.63 142.6 339.04 161.35 316.54 186.35 319.54 207.1 315.04 227.85 319.54 229.35 330.04 225.35 368.85 216.85 372.53 146.35 366.63"/>
    <polygon class="cls-10" points="213.1 318.54 181.72 344.87 175.27 336.54 200.94 319.37 213.1 318.54"/>
    <g>
      <path class="cls-11" d="M236.26,328.29H133.85A3.25,3.25,0,0,1,130.6,325h0a3.24,3.24,0,0,1,3.25-3.25H236.26a3.25,3.25,0,0,1,3.25,3.25h0A3.26,3.26,0,0,1,236.26,328.29Z"/>
      <path class="cls-12" d="M236.26,328.29H133.85A3.25,3.25,0,0,1,130.6,325h0a3.24,3.24,0,0,1,3.25-3.25H236.26a3.25,3.25,0,0,1,3.25,3.25h0A3.26,3.26,0,0,1,236.26,328.29Z"/>
    </g>
    <g>
      <path class="cls-11" d="M136.45,328.29l3.33,40.61a9,9,0,0,0,8.93,8.23H221.4a9,9,0,0,0,8.92-8.23l3.33-40.61Zm18.25,33.79a3.33,3.33,0,0,1-6.65,0V337.61a3.33,3.33,0,0,1,6.65,0Zm16.83,0a3.32,3.32,0,1,1-6.64,0V337.61a3.32,3.32,0,1,1,6.64,0Zm16.84,0a3.32,3.32,0,1,1-6.64,0V337.61a3.32,3.32,0,1,1,6.64,0Zm16.84,0a3.32,3.32,0,0,1-6.64,0V337.61a3.32,3.32,0,0,1,6.64,0Zm16.84,0a3.32,3.32,0,0,1-6.64,0V337.61a3.32,3.32,0,0,1,6.64,0Z"/>
      <path class="cls-9" d="M136.45,328.29l3.33,40.61a9,9,0,0,0,8.93,8.23H221.4a9,9,0,0,0,8.92-8.23l3.33-40.61Zm18.25,33.79a3.33,3.33,0,0,1-6.65,0V337.61a3.33,3.33,0,0,1,6.65,0Zm16.83,0a3.32,3.32,0,1,1-6.64,0V337.61a3.32,3.32,0,1,1,6.64,0Zm16.84,0a3.32,3.32,0,1,1-6.64,0V337.61a3.32,3.32,0,1,1,6.64,0Zm16.84,0a3.32,3.32,0,0,1-6.64,0V337.61a3.32,3.32,0,0,1,6.64,0Zm16.84,0a3.32,3.32,0,0,1-6.64,0V337.61a3.32,3.32,0,0,1,6.64,0Z"/>
    </g>
    <polygon class="cls-7" points="211.1 319.79 224.36 315.04 243.6 319.79 248.1 343.78 232.35 345.79 226.85 322.04 211.1 319.79"/>
    <g>
      <polygon class="cls-7" points="230.85 343.21 232.02 347.21 249.18 344.71 248.1 340.62 230.85 343.21"/>
      <polygon class="cls-13" points="230.85 343.21 232.02 347.21 249.18 344.71 248.1 340.62 230.85 343.21"/>
    </g>
    <path class="cls-9" d="M234.77,338.08a1.3,1.3,0,1,1-1.3-1.29A1.3,1.3,0,0,1,234.77,338.08Z"/>
    <path class="cls-9" d="M232.85,331.71a1.29,1.29,0,1,1-1.29-1.3A1.29,1.29,0,0,1,232.85,331.71Z"/>
    <g>
      <path class="cls-7" d="M171.32,319.54l-6.38-3-22.34,3L138.85,333l3.75,6s-4.34,20.75-1.3,21,6.75-20.25,6.75-20.25l11.3-1.71s.34,22,5.54,22,0-22.43,0-22.43Zm-30,38.62c-2.13-.75,2.62-18.25,2.62-18.25h2.75S143.47,358.91,141.35,358.16Zm23.59-.37c-2.84,1.37-4.09-19.5-4.09-19.5h2.62S167.77,356.41,164.94,357.79Z"/>
      <path class="cls-9" d="M171.32,319.54l-6.38-3-22.34,3L138.85,333l3.75,6s-4.34,20.75-1.3,21,6.75-20.25,6.75-20.25l11.3-1.71s.34,22,5.54,22,0-22.43,0-22.43Zm-30,38.62c-2.13-.75,2.62-18.25,2.62-18.25h2.75S143.47,358.91,141.35,358.16Zm23.59-.37c-2.84,1.37-4.09-19.5-4.09-19.5h2.62S167.77,356.41,164.94,357.79Z"/>
    </g>
  </g>
  <g>
    <path class="cls-11" d="M311.69,338.42H298.38V185.5a14.14,14.14,0,0,0-14.12-14.12H123.64a14.13,14.13,0,0,0-14.11,14.12V338.42H96.22a3.2,3.2,0,0,0-3.2,3.2v.53h35.62v-.53a3.21,3.21,0,0,0-3.21-3.2H112.12V185.5A11.54,11.54,0,0,1,123.64,174H284.26a11.54,11.54,0,0,1,11.52,11.52V338.42H282.47a3.2,3.2,0,0,0-3.2,3.2v.53h35.62v-.53A3.2,3.2,0,0,0,311.69,338.42Z"/>
    <path class="cls-14" d="M311.69,338.42H298.38V185.5a14.14,14.14,0,0,0-14.12-14.12H123.64a14.13,14.13,0,0,0-14.11,14.12V338.42H96.22a3.2,3.2,0,0,0-3.2,3.2v.53h35.62v-.53a3.21,3.21,0,0,0-3.21-3.2H112.12V185.5A11.54,11.54,0,0,1,123.64,174H284.26a11.54,11.54,0,0,1,11.52,11.52V338.42H282.47a3.2,3.2,0,0,0-3.2,3.2v.53h35.62v-.53A3.2,3.2,0,0,0,311.69,338.42Z"/>
    <g>
      <g>
        <path class="cls-11" d="M162.1,174.77a4,4,0,0,1,.16-.79h-1.32a5,5,0,0,0-.14.79C160.73,175.6,162,175.59,162.1,174.77Z"/>
        <path class="cls-11" d="M183.69,195l-17.45-10.5v-5c3.61-.77,5.68-5.09,2.72-8.06a4.51,4.51,0,0,0-6.54,0H165a3.06,3.06,0,0,1,2.93,1,3.46,3.46,0,0,1-2.38,5.88.66.66,0,0,0-.65.64v5.55L147.48,195c-.71.43-.06,1.55.65,1.12l8.52-5.13,6.2-3.72c.7-.42,1.46-.81,2.13-1.28.14-.1.5-.26.69-.38.43.36,2,1.24,2.37,1.49l6.11,3.67,8.89,5.35A.65.65,0,0,0,183.69,195Z"/>
      </g>
      <path class="cls-7" d="M186.91,219.61l1.62,31.59-45.13-.35,1-29.95-6,42.57-11.44-1.38a229.69,229.69,0,0,1,4.79-43.34c4.78-21.85,16.14-25.57,16.14-25.57a41.28,41.28,0,0,0,35.56,0s12.51,3.38,15.63,22.45,4.85,46.8,4.85,46.8l-11.44,1Z"/>
      <g class="cls-15">
        <path d="M135.52,263.14l2.8.33,5.7-40.15c-1.1,1.51-2.45,4.21-3.39,9C139.18,239.67,136.61,256.08,135.52,263.14Z"/>
      </g>
      <g class="cls-15">
        <path d="M196.31,263.12c-1.09-7.07-3.66-23.45-5.1-30.81-1.1-5.57-2.74-8.31-3.91-9.64l5.11,40.8Z"/>
      </g>
      <g class="cls-16">
        <polygon class="cls-17" points="187.69 234.76 143.91 234.76 143.68 242.12 188.06 242.12 187.69 234.76"/>
      </g>
      <path class="cls-18" d="M149.5,201.54l-4.11,14.06S143.67,207.16,149.5,201.54Z"/>
      <path class="cls-18" d="M182.5,201.54l4.11,14.06S188.33,207.16,182.5,201.54Z"/>
    </g>
    <g>
      <g>
        <path class="cls-11" d="M183.32,174.77a4,4,0,0,1,.16-.79h-1.32a5,5,0,0,0-.14.79C182,175.6,183.24,175.59,183.32,174.77Z"/>
        <path class="cls-11" d="M204.91,195l-17.45-10.5v-5c3.61-.77,5.68-5.09,2.72-8.06a4.51,4.51,0,0,0-6.54,0h2.62a3.06,3.06,0,0,1,2.93,1,3.46,3.46,0,0,1-2.38,5.88.66.66,0,0,0-.65.64v5.55L168.7,195c-.71.43-.06,1.55.65,1.12l8.52-5.13,6.2-3.72c.7-.42,1.46-.81,2.13-1.28.14-.1.5-.26.69-.38.43.36,2,1.24,2.37,1.49l6.11,3.67,8.89,5.35A.65.65,0,0,0,204.91,195Z"/>
      </g>
      <g>
        <g>
          <path class="cls-7" d="M169,193.18a41.28,41.28,0,0,0,35.56,0s12.25,4.76,16.44,23.46l-12.9,3,1.62,31.59-45.13-.35,1-29.95L154.3,217S156.74,197.37,169,193.18Z"/>
          <path class="cls-12" d="M169,193.18a41.28,41.28,0,0,0,35.56,0s12.25,4.76,16.44,23.46l-12.9,3,1.62,31.59-45.13-.35,1-29.95L154.3,217S156.74,197.37,169,193.18Z"/>
        </g>
        <polygon class="cls-10" points="163.85 220.31 165.44 220.85 166.37 209.77 163.85 220.31"/>
        <polygon class="cls-10" points="206.58 206.85 208.13 219.61 210.64 219.03 206.58 206.85"/>
        <ellipse class="cls-7" cx="186.84" cy="211.21" rx="14.12" ry="5.77"/>
      </g>
    </g>
    <g>
      <g>
        <path class="cls-11" d="M222.23,174.77a4,4,0,0,1,.17-.79h-1.33a5,5,0,0,0-.13.79C220.86,175.6,222.16,175.59,222.23,174.77Z"/>
        <path class="cls-11" d="M243.83,195l-17.46-10.5v-5c3.62-.77,5.69-5.09,2.72-8.06a4.5,4.5,0,0,0-6.53,0h2.62a3.07,3.07,0,0,1,2.93,1,3.47,3.47,0,0,1-2.39,5.88.66.66,0,0,0-.65.64v5.55L207.61,195a.65.65,0,0,0,.66,1.12l8.52-5.13,6.19-3.72c.71-.42,1.47-.81,2.13-1.28.14-.1.51-.26.69-.38.44.36,2,1.24,2.37,1.49l6.11,3.67,8.89,5.35A.65.65,0,0,0,243.83,195Z"/>
      </g>
      <g>
        <path class="cls-11" d="M264,256.78S262.25,229,259.13,210c-1.2-7.33-3.79-12.34-6.52-15.74a18.16,18.16,0,0,0-14.18-6.71h-6.17l-3.59,3.75h-6l-3.17-3.75h-3.57a21.5,21.5,0,0,0-18.78,10.93,53.3,53.3,0,0,0-5.3,14.64A229.69,229.69,0,0,0,187,256.43l11.44,1.39,6.05-42.58-.7,50.89,45.13.35L247.05,214l5.49,43.87Z"/>
        <path class="cls-10" d="M203.74,207.76c-.43,5.77-8.65,49.32-8.65,49.32l2.15.59,1.21.15,6.05-42.58S204.17,202,203.74,207.76Z"/>
        <path class="cls-10" d="M255.29,257.57c-1.13-7.95-4-28.07-5.72-39-2.16-13.83-2.52-12.26-2.52-12.26V214l5.49,43.87Z"/>
      </g>
      <g>
        <polygon class="cls-11" points="219.34 186.55 225.71 190.69 231.51 186.55 235.15 187.25 230.95 195.51 225.71 192.43 219.9 195.51 216.69 187.25 219.34 186.55"/>
        <polygon class="cls-19" points="219.34 186.55 225.71 190.69 231.51 186.55 235.15 187.25 230.95 195.51 225.71 192.43 219.9 195.51 216.69 187.25 219.34 186.55"/>
      </g>
      <g>
        <polygon class="cls-11" points="186.26 254.87 199.18 256.52 198.74 259.29 186.26 257.73 186.26 254.87"/>
        <polygon class="cls-19" points="186.26 254.87 199.18 256.52 198.74 259.29 186.26 257.73 186.26 254.87"/>
      </g>
      <g>
        <polygon class="cls-11" points="264.52 255.1 251.56 256.29 251.89 259.07 264.72 257.93 264.52 255.1"/>
        <polygon class="cls-19" points="264.52 255.1 251.56 256.29 251.89 259.07 264.72 257.93 264.52 255.1"/>
      </g>
      <g>
        <path class="cls-9" d="M226.54,207.76a1,1,0,0,1-2.09,0,1,1,0,1,1,2.09,0Z"/>
        <path class="cls-9" d="M227,223.89a1.05,1.05,0,1,1-1.05-1A1,1,0,0,1,227,223.89Z"/>
        <path class="cls-9" d="M227.59,240.61a1,1,0,1,1-1.05-1.05A1,1,0,0,1,227.59,240.61Z"/>
        <path class="cls-9" d="M227.59,257.7a1,1,0,1,1-1.05-1.05A1,1,0,0,1,227.59,257.7Z"/>
      </g>
    </g>
    <g>
      <g>
        <path class="cls-11" d="M247.83,174.77A4,4,0,0,1,248,174h-1.33a5,5,0,0,0-.13.79C246.46,175.6,247.76,175.59,247.83,174.77Z"/>
        <path class="cls-11" d="M269.43,195,252,184.45v-5c3.62-.77,5.69-5.09,2.72-8.06a4.5,4.5,0,0,0-6.53,0h2.62a3.07,3.07,0,0,1,2.93,1,3.47,3.47,0,0,1-2.39,5.88.66.66,0,0,0-.65.64v5.55L233.21,195a.65.65,0,0,0,.66,1.12l8.52-5.13,6.19-3.72c.71-.42,1.47-.81,2.13-1.28.14-.1.51-.26.69-.38.44.36,2,1.24,2.37,1.49l6.11,3.67,8.89,5.35A.65.65,0,0,0,269.43,195Z"/>
      </g>
      <g>
        <path class="cls-7" d="M230.61,195.51l5-4.24s6.95,6,15.7,5a43.59,43.59,0,0,0,15.7-5l4.19,3.11s-6,9.37,1,20.82l-1.05,35.11h-39.1l-1.55-35.89S238.67,204.42,230.61,195.51Z"/>
        <polygon class="cls-12" points="272.04 221.25 271.96 221.16 265.08 228.04 258.2 221.16 251.32 228.04 244.44 221.16 237.56 228.04 230.82 221.3 231.1 227.68 237.56 234.15 244.44 227.27 251.32 234.15 258.2 227.27 265.08 234.15 271.86 227.37 272.04 221.25"/>
        <polygon class="cls-9" points="271.86 227.37 265.08 234.15 258.2 227.27 251.32 234.15 244.44 227.27 237.56 234.15 231.1 227.68 231.37 234.06 237.56 240.25 244.44 233.37 251.32 240.25 258.2 233.37 265.08 240.25 271.67 233.66 271.86 227.37"/>
        <polygon class="cls-20" points="271.67 233.66 265.08 240.25 258.2 233.37 251.32 240.25 244.44 233.37 237.56 240.25 231.37 234.06 231.65 240.44 237.56 246.35 244.44 239.47 251.32 246.35 258.2 239.47 265.08 246.35 271.48 239.95 271.67 233.66"/>
      </g>
    </g>
  </g>
  <g>
    <g>
      <g>
        <path class="cls-7" d="M340.91,207.46s-13,52.84-16,70.73c-2.91,17.63-7.47,71.09-7.47,71.09l13.87,2.13s8.42-52.07,13.86-68.6c4.14-12.57,18.67-34.62,21.68-47.27,1.57-6.57,0-27,0-27Z"/>
        <polygon class="cls-21" points="320.02 350.61 318.46 364.71 325.66 365.56 328.17 351.46 320.02 350.61"/>
        <g>
          <path class="cls-7" d="M314.2,364.52a3.56,3.56,0,0,1-2.36-.89.75.75,0,0,1,.11-.85,1,1,0,0,1,.66-.39c1.42-.23,4.13,1.71,4.25,1.8a.21.21,0,0,1,.07.21.2.2,0,0,1-.18.15A15.52,15.52,0,0,1,314.2,364.52Zm-1.14-1.75a1.61,1.61,0,0,0-.38,0,.54.54,0,0,0-.41.23c-.17.23-.13.36-.09.43.33.58,2.41.81,4,.78A8.94,8.94,0,0,0,313.06,362.77Z"/>
          <path class="cls-7" d="M316.72,364.54a.09.09,0,0,1-.08,0c-.94-.54-2.73-2.54-2.46-3.45,0-.22.24-.47.78-.47a1.47,1.47,0,0,1,1.06.45c1,1,1,3.22,1,3.33a.25.25,0,0,1-.11.17A.23.23,0,0,1,316.72,364.54ZM315.06,361l-.11,0c-.36,0-.4.14-.42.18-.11.56,1.05,2.1,2,2.81a4.65,4.65,0,0,0-.83-2.65,1.09,1.09,0,0,0-.65-.32Z"/>
          <path class="cls-11" d="M317.72,363.48l9,.94a.74.74,0,0,1,.65.65l.86,7.5a1.21,1.21,0,0,1-1.05,1.35h-.26c-3.25-.4-6.12-.88-10.16-1.3-4.78-.5-3.63.2-9.25-.31-3.38-.31-3.6-4.22-2.14-4.26,6.64-.14,7.53-2.05,10.31-4.13A3,3,0,0,1,317.72,363.48Z"/>
        </g>
        <path class="cls-18" d="M350.9,235.14c-6.94,15.34-6.16,39.73-5.69,47.58,2.25-6.76,7.46-16.24,12.27-25.52l-.72-8.38S359.25,216.66,350.9,235.14Z"/>
        <g>
          <polygon class="cls-7" points="315.77 346.26 315.65 351.51 332.47 354.08 333.67 349.15 315.77 346.26"/>
          <polygon class="cls-22" points="315.77 346.26 315.65 351.51 332.47 354.08 333.67 349.15 315.77 346.26"/>
        </g>
      </g>
      <g>
        <path class="cls-7" d="M350.54,207.85s-1.35,54.09-1.07,72.12c.28,17.88,3.32,71.44,3.32,71.44h14.07s1.6-53.63,3.2-71.44,9-41.59-3.2-71.44Z"/>
        <polygon class="cls-21" points="355.93 351.95 355.93 365.45 363.32 365.45 364.28 351.95 355.93 351.95"/>
        <g>
          <path class="cls-7" d="M351.82,365.53a3.5,3.5,0,0,1-2.43-.66.72.72,0,0,1,0-.85,1,1,0,0,1,.62-.46c1.39-.37,4.27,1.31,4.4,1.39a.2.2,0,0,1-.07.36A14.44,14.44,0,0,1,351.82,365.53Zm-1.3-1.63a1.2,1.2,0,0,0-.38.05.5.5,0,0,0-.39.27c-.15.24-.1.36,0,.43.38.54,2.47.57,4,.4A9,9,0,0,0,350.52,363.9Z"/>
          <path class="cls-7" d="M354.33,365.31a.08.08,0,0,1-.08,0c-1-.45-3-2.26-2.78-3.2,0-.22.19-.49.73-.54a1.47,1.47,0,0,1,1.1.34c1.05.88,1.25,3.12,1.26,3.23a.19.19,0,0,1-.09.17A.17.17,0,0,1,354.33,365.31Zm-2-3.38h-.11c-.35,0-.38.17-.39.22-.06.56,1.24,2,2.26,2.6a4.69,4.69,0,0,0-1.08-2.56,1.06,1.06,0,0,0-.68-.25Z"/>
          <path class="cls-11" d="M355.22,364.16l9.06.08a.73.73,0,0,1,.71.58l1.57,7.39a1.2,1.2,0,0,1-.92,1.44,1.09,1.09,0,0,1-.26,0c-3.26-.09-6.17-.29-10.23-.32-4.8,0-3.59.54-9.24.57-3.4,0-4-3.86-2.54-4,6.61-.77,7.31-2.76,9.88-5.1A2.87,2.87,0,0,1,355.22,364.16Z"/>
        </g>
        <g>
          <polygon class="cls-7" points="350.58 348.59 351.18 353.81 368.19 354.07 368.71 349.02 350.58 348.59"/>
          <polygon class="cls-22" points="350.58 348.59 351.18 353.81 368.19 354.07 368.71 349.02 350.58 348.59"/>
        </g>
      </g>
      <g>
        <path class="cls-21" d="M361,158.34l8,1.82c-.62-3.47,1-8,2.37-11.29l-9.63,5.29C361.84,156,361.79,157.39,361,158.34Z"/>
        <path class="cls-23" d="M367.5,151l-5.68,3.17a13.36,13.36,0,0,1-.08,2.45c1.89.12,5.08-.84,5.88-2.75A5.82,5.82,0,0,0,367.5,151Z"/>
        <path class="cls-21" d="M378.51,142.68c-3.37,6.62-4.65,9.49-9.6,11.48-7.45,3-14.83-2.59-13.51-10.08,1.2-6.74,6.53-16.46,14.34-16.23a10.12,10.12,0,0,1,8.77,14.83Z"/>
        <path class="cls-11" d="M366.91,139.75c-.25.55-.74.87-1.1.72s-.46-.74-.22-1.29.73-.87,1.09-.72S367.11,139.21,366.91,139.75Z"/>
        <path class="cls-11" d="M360.65,137.05c-.25.56-.73.87-1.09.72s-.46-.74-.23-1.29.74-.88,1.09-.72S360.89,136.49,360.65,137.05Z"/>
        <path class="cls-11" d="M360.57,135.86l-1.16-1S359.64,136.24,360.57,135.86Z"/>
        <path class="cls-24" d="M362.14,138.89a16.36,16.36,0,0,1-3.51,2.67,2.66,2.66,0,0,0,1.81,1.23Z"/>
        <path class="cls-11" d="M362.52,146.26a5.33,5.33,0,0,1-.85-.29.19.19,0,0,1-.1-.23h0a.18.18,0,0,1,.24-.09,4.81,4.81,0,0,0,4.31-.16.19.19,0,0,1,.25,0,.18.18,0,0,1-.05.24A4.93,4.93,0,0,1,362.52,146.26Z"/>
        <path class="cls-11" d="M370,139.59a.36.36,0,0,1-.27-.32,4.19,4.19,0,0,0-1.89-2.77.36.36,0,0,1-.12-.5.34.34,0,0,1,.47-.11h0a4.88,4.88,0,0,1,2.23,3.34.35.35,0,0,1-.33.37H370Z"/>
        <path class="cls-11" d="M360,133.35a.38.38,0,0,1-.26-.26.37.37,0,0,1,.25-.44,3.47,3.47,0,0,1,3.21.59.33.33,0,0,1,0,.47v0a.36.36,0,0,1-.5,0h0a2.82,2.82,0,0,0-2.53-.41A.38.38,0,0,1,360,133.35Z"/>
        <path class="cls-11" d="M366.82,138.62l-1.16-1S365.89,139,366.82,138.62Z"/>
        <g>
          <path class="cls-11" d="M375.69,136.76a11.09,11.09,0,0,1-10.95-4.27l4.28.68-9.61-4.27a19.46,19.46,0,0,1,7.48-3.33l-2.15-1.46S380,121,381.29,135.84c0,0,.65,3.9-1.62,6.39S375.69,136.76,375.69,136.76Z"/>
          <path class="cls-11" d="M377.25,138.17s-3.52,4.6-2.41,9.33c0,0,6-3.64,6.38-8.61C381.69,132.49,377.25,138.17,377.25,138.17Z"/>
        </g>
        <path class="cls-21" d="M378.09,148.71a5.31,5.31,0,0,1-3.69,1.71c-1.87.05-2.36-1.73-1.46-3.27.81-1.38,2.76-3.07,4.46-2.42a2.39,2.39,0,0,1,1.29,3.13A2.23,2.23,0,0,1,378.09,148.71Z"/>
        <g>
          <path class="cls-11" d="M376.78,149.74a4.27,4.27,0,0,1,.44,3.15c-.25,1-1.11,2.35-2.27,1.45-1.33-1.05-1.38-5.1.74-5.31.31,0,.31-.51,0-.48-2.65.27-2.76,5-.91,6.28a1.68,1.68,0,0,0,2.45-.7,4.66,4.66,0,0,0,0-4.63.24.24,0,0,0-.42.24Z"/>
          <g class="cls-2">
            <path class="cls-17" d="M376.78,149.74a4.27,4.27,0,0,1,.44,3.15c-.25,1-1.11,2.35-2.27,1.45-1.33-1.05-1.38-5.1.74-5.31.31,0,.31-.51,0-.48-2.65.27-2.76,5-.91,6.28a1.68,1.68,0,0,0,2.45-.7,4.66,4.66,0,0,0,0-4.63.24.24,0,0,0-.42.24Z"/>
          </g>
        </g>
      </g>
      <g>
        <path class="cls-21" d="M311.94,158.23l-5.68-5.69,1-5.48a2.89,2.89,0,0,0-1-2.69l-2.12-1.78-.24-.67a2.87,2.87,0,0,0-4.49-1.27h0a3,3,0,0,0-.69.81l-2.48,4.31a2.84,2.84,0,0,0-.25,2.28l1.4,4.49,3.91,2.31,5.33,7.64Z"/>
        <path class="cls-11" d="M348.92,161a1.46,1.46,0,0,0-2-1.05c-2.2.92-7.23,3.16-18.63,8.56-3.37,1.6-11.44-5.8-16.88-13l-7.29,6.49s13,17.33,21.33,17.51,25.06-11,25.06-11Z"/>
      </g>
      <path class="cls-25" d="M336.1,176.58a104.32,104.32,0,0,0,11.42-6.14v-2.88l-3.88-4A67.54,67.54,0,0,0,336.1,176.58Z"/>
      <path class="cls-11" d="M339.14,211.19s-1.25-20.79,1.77-36.61,3.56-17.77,21.33-13.33,18.31,3.38,15.64,12.09c-2.29,7.48-6.58,29-8.35,39.09Z"/>
      <path class="cls-11" d="M358.32,160.32l1-1.73a4.09,4.09,0,0,0,.59-2.13v-.94a.61.61,0,0,1,.86-.56,26.91,26.91,0,0,0,9.11,2.44.85.85,0,0,1,.72,1.18l-.51,1.14a3.36,3.36,0,0,0-.29,1.43l0,2A12.3,12.3,0,0,1,358.32,160.32Z"/>
      <path class="cls-25" d="M359.21,161.05s2.16,3.3,9.28,2.35C368.49,163.4,360.05,168.37,359.21,161.05Z"/>
      <path class="cls-21" d="M365.79,215.28l-5,4.44h-5.34a5.47,5.47,0,0,0-2.94.85l-1.87,1.16a4.23,4.23,0,0,0-1.26,6l.71,1.06a4.23,4.23,0,0,0,6.27.83l1.52-1.32.93-.23a5.46,5.46,0,0,0,3.69-3.14h0l6.11-4.45Z"/>
      <g>
        <path class="cls-11" d="M373.78,164.63s10.23,1.59,10.57,10,3,22.51,1,29.72S367.89,223,367.89,223l-4.29-7.49s12.51-9.28,12.51-19.6S369.39,163.18,373.78,164.63Z"/>
        <path class="cls-25" d="M374.94,185.24a71.28,71.28,0,0,1,1.17,10.66,13.43,13.43,0,0,1-.26,2.61c1.62-5.56,1.5-16.16,1.25-22.41C376.45,178.59,375.71,181.76,374.94,185.24Z"/>
      </g>
    </g>
    <g>
      <path class="cls-11" d="M326.22,175l-21.53-12.94V155.9c4.46-1,7-6.28,3.36-9.94-3.88-3.87-9.62-.78-10.06,4.16-.09,1,1.51,1,1.6,0,.32-3.52,4.52-5.85,7.24-2.94a4.27,4.27,0,0,1-2.94,7.25.81.81,0,0,0-.8.8v6.84L281.56,175a.8.8,0,0,0,.81,1.38l10.51-6.32,7.63-4.59c.87-.52,1.81-1,2.63-1.58.17-.12.62-.32.85-.47.54.45,2.41,1.53,2.92,1.84l7.54,4.53,11,6.59A.8.8,0,0,0,326.22,175Z"/>
      <path class="cls-12" d="M326.22,175l-21.53-12.94V155.9c4.46-1,7-6.28,3.36-9.94-3.88-3.87-9.62-.78-10.06,4.16-.09,1,1.51,1,1.6,0,.32-3.52,4.52-5.85,7.24-2.94a4.27,4.27,0,0,1-2.94,7.25.81.81,0,0,0-.8.8v6.84L281.56,175a.8.8,0,0,0,.81,1.38l10.51-6.32,7.63-4.59c.87-.52,1.81-1,2.63-1.58.17-.12.62-.32.85-.47.54.45,2.41,1.53,2.92,1.84l7.54,4.53,11,6.59A.8.8,0,0,0,326.22,175Z"/>
    </g>
    <g>
      <path class="cls-26" d="M292.25,167.56s10.15,7.07,25.2,0c0,0,15.32,6.53,16.12,13.73s2.53,34,2.53,34H324.51l.53,37.45H283.31l1.47-37.45H270.12s3.51-34.86,7.22-39.22S292.25,167.56,292.25,167.56Z"/>
      <path class="cls-22" d="M292.25,167.56s-1.35.5-3.27,1.33c1.89,1.91,6.36,5.21,14.91,5.47a26.53,26.53,0,0,0,16.74-5.28c-1.87-1-3.18-1.52-3.18-1.52C302.4,174.63,292.25,167.56,292.25,167.56Z"/>
      <polygon class="cls-10" points="285.02 195.64 281.18 215.15 284.79 215.28 285.48 195.64 285.02 195.64"/>
      <g>
        <polygon class="cls-7" points="268.52 213.15 267.72 217.28 284.68 217.94 284.68 213.81 268.52 213.15"/>
        <polygon class="cls-22" points="268.52 213.15 267.72 217.28 284.68 217.94 284.68 213.81 268.52 213.15"/>
      </g>
      <polygon class="cls-10" points="323.9 195.64 324.51 215.28 326.6 215.15 324.08 195.64 323.9 195.64"/>
      <g>
        <polygon class="cls-7" points="324.51 213.15 324.51 217.14 337.97 217.14 337.44 213.15 324.51 213.15"/>
        <polygon class="cls-22" points="324.51 213.15 324.51 217.14 337.97 217.14 337.44 213.15 324.51 213.15"/>
      </g>
      <polygon class="cls-22" points="324.93 244.91 283.62 244.91 283.5 248.11 324.97 248.11 324.93 244.91"/>
    </g>
    <polygon class="cls-21" points="304.13 143.32 304.13 147.97 300.08 151.91 297.91 151.39 296.93 147.61 300.01 143.78 304.13 143.32"/>
  </g>
  <g>
    <g>
      <polygon class="cls-27" points="59.59 346.66 56.72 362.28 48.16 362.28 49.81 346.66 59.59 346.66"/>
      <g>
        <path class="cls-7" d="M58.53,362.12a.23.23,0,0,1-.19-.18.25.25,0,0,1,.11-.24c.15-.08,3.48-2,5.09-1.6a1.16,1.16,0,0,1,.72.52.86.86,0,0,1,0,1c-.39.52-1.62.75-2.82.76A17,17,0,0,1,58.53,362.12Zm.73-.31c1.79.21,4.22.17,4.66-.46.06-.08.12-.21-.05-.5a.66.66,0,0,0-.45-.31,1.3,1.3,0,0,0-.44-.05A10.55,10.55,0,0,0,59.26,361.81Z"/>
        <path class="cls-7" d="M58.41,362.11a.23.23,0,0,1-.11-.2c0-.12.25-2.72,1.46-3.73a1.68,1.68,0,0,1,1.27-.4c.62.05.82.37.85.63.21,1.08-2.08,3.18-3.22,3.7a.11.11,0,0,1-.1,0A.2.2,0,0,1,58.41,362.11Zm2.47-3.9a1.2,1.2,0,0,0-.79.29,5.4,5.4,0,0,0-1.24,3c1.18-.72,2.68-2.36,2.61-3,0-.06,0-.22-.45-.25Z"/>
        <path class="cls-11" d="M57.54,360.79l-10.49.09a.85.85,0,0,0-.82.67l-1.82,8.55a1.4,1.4,0,0,0,1.07,1.67,1.54,1.54,0,0,0,.3,0c3.78-.1,7.14-.34,11.84-.38,5.56-.05,4.15.63,10.69.66,3.93,0,4.61-4.46,2.94-4.66-7.64-.9-8.46-3.19-11.43-5.9A3.37,3.37,0,0,0,57.54,360.79Z"/>
      </g>
      <polygon class="cls-10" points="48.86 355.67 57.77 356.53 58.67 351.67 50.56 349.75 49.4 350.56 48.86 355.67"/>
    </g>
    <g>
      <polygon class="cls-27" points="95.45 346.66 94.67 362.28 86.12 362.28 85.67 346.66 95.45 346.66"/>
      <g>
        <path class="cls-7" d="M96.49,362.12a.23.23,0,0,1-.08-.42c.15-.08,3.48-2,5.09-1.6a1.16,1.16,0,0,1,.72.52.86.86,0,0,1,0,1c-.39.52-1.63.75-2.82.76A17,17,0,0,1,96.49,362.12Zm.73-.31c1.79.21,4.22.17,4.66-.46.06-.08.12-.21,0-.5a.66.66,0,0,0-.45-.31,1.32,1.32,0,0,0-.44-.05A10.55,10.55,0,0,0,97.22,361.81Z"/>
        <path class="cls-7" d="M96.37,362.11a.23.23,0,0,1-.11-.2c0-.12.25-2.72,1.46-3.73a1.68,1.68,0,0,1,1.27-.4c.62.05.82.37.85.63.21,1.08-2.08,3.18-3.22,3.7a.11.11,0,0,1-.1,0A.2.2,0,0,1,96.37,362.11Zm2.47-3.9a1.2,1.2,0,0,0-.79.29,5.4,5.4,0,0,0-1.24,3c1.18-.72,2.68-2.36,2.61-3,0-.06,0-.22-.45-.25Z"/>
        <path class="cls-11" d="M95.5,360.79,85,360.88a.85.85,0,0,0-.82.67l-1.82,8.55a1.39,1.39,0,0,0,1.07,1.67,1.54,1.54,0,0,0,.3,0c3.78-.1,7.14-.34,11.84-.38,5.56-.05,4.15.63,10.68.66,3.94,0,4.62-4.46,2.95-4.66-7.65-.9-8.46-3.19-11.43-5.9A3.37,3.37,0,0,0,95.5,360.79Z"/>
      </g>
      <polygon class="cls-10" points="85.96 356.53 94.96 356.53 95.26 350.55 93.22 349.75 87.57 350.14 85.79 350.67 85.96 356.53"/>
    </g>
    <g>
      <path class="cls-11" d="M97.82,205.37S101,259.05,101,277c0,18.83-3.67,75.25-3.67,75.25H83s-.18-55.19-1.75-73.5c-1.32-15.51-9.1-61.6-9.1-61.6V205.37Z"/>
      <polygon class="cls-11" points="81.76 348.72 81.89 354.49 98.75 354.68 98.91 349.01 81.76 348.72"/>
      <path class="cls-28" d="M79.83,267c3.67-24.2,1.93-54.05,1.93-54.05L74,228.41C75.69,239,78.21,254.91,79.83,267Z"/>
      <polygon class="cls-22" points="81.76 348.72 81.89 354.49 98.75 354.68 98.91 349.01 81.76 348.72"/>
    </g>
    <g>
      <path class="cls-11" d="M83.13,205.37S75.48,262,72.64,280.82C69.94,298.7,61,352.22,61,352.22l-14.35-1.05s5.15-54.56,6-72.8c.59-13.29.26-39.38.7-53.2.35-10.85,1.05-19.8,1.05-19.8Z"/>
      <polygon class="cls-11" points="45.68 347.58 45.07 353.36 61.87 354.76 62.74 349.16 45.68 347.58"/>
      <polygon class="cls-22" points="45.68 347.58 45.07 353.36 61.87 354.76 62.74 349.16 45.68 347.58"/>
    </g>
    <path class="cls-7" d="M83.87,130.49s6.82-1.56,14,7.88c5.17,6.83,21.38,24.15,18.23,31.67-2.4,5.73-8,4.9-17.68-7.52S78.44,128.62,83.87,130.49Z"/>
    <path class="cls-9" d="M83.87,130.49s6.82-1.56,14,7.88c5.17,6.83,21.38,24.15,18.23,31.67-2.4,5.73-8,4.9-17.68-7.52S78.44,128.62,83.87,130.49Z"/>
    <g>
      <path class="cls-7" d="M108,163.6s-12,11.85-3,14.53c8.58,2.53,11-4.47,11.41-9.63C116.7,165,115.53,160.1,108,163.6Z"/>
      <path class="cls-9" d="M108,163.6s-12,11.85-3,14.53c8.58,2.53,11-4.47,11.41-9.63C116.7,165,115.53,160.1,108,163.6Z"/>
    </g>
    <path class="cls-7" d="M54.57,208.35a1.89,1.89,0,0,1-1.75-2c.38-7.4,1.64-35.35-.63-49.62-2.62-16.53-4.2-24.67,13.65-27S95,130,97.6,143.09c2.26,11.29,1.41,51.27,1.13,62.28a3.27,3.27,0,0,1-2.93,3.18C90.13,209.15,76.11,210.12,54.57,208.35Z"/>
    <path class="cls-12" d="M54.57,208.35a1.89,1.89,0,0,1-1.75-2c.38-7.4,1.64-35.35-.63-49.62-2.62-16.53-4.2-24.67,13.65-27S95,130,97.6,143.09c2.26,11.29,1.41,51.27,1.13,62.28a3.27,3.27,0,0,1-2.93,3.18C90.13,209.15,76.11,210.12,54.57,208.35Z"/>
    <path class="cls-27" d="M82.3,133.06l.89-2-1.39-2.29-2.36.24a8.5,8.5,0,0,1-.07-2.37,21.45,21.45,0,0,1,.4-2.4l-5.92-5-4.34-3.6c1,4.55,2.13,11.94.1,16.13l10.55,6,3.48-4.14A8.34,8.34,0,0,1,82.3,133.06Z"/>
    <path class="cls-7" d="M62,130.37s8.35-9.15,17.8,6.42a58.93,58.93,0,0,0-.4-7.86s3.23-2.53,5.75,1.26c1.41,2.12.34,6.08-5,8.18A178.61,178.61,0,0,0,62,130.37Z"/>
    <path class="cls-23" d="M79.77,124a22,22,0,0,0-.4,2.41c-2.22-.44-5.56-2.42-5.86-4.93a9.88,9.88,0,0,1,.34-2.42Z"/>
    <path class="cls-11" d="M87.68,101.14s6.46,3.21,4.75,5.91-4.89-1.11-4.89-1.11Z"/>
    <path class="cls-27" d="M70,104.8c-.9,7.11-1.8,11.21,1.08,15.57a9.32,9.32,0,0,0,16.42-1.47c2.7-6,3.66-16.59-2.62-20.85A9.47,9.47,0,0,0,70,104.8Z"/>
    <path class="cls-11" d="M80.22,111.24c-.11.57.11,1.1.48,1.18s.76-.32.9-.91a.93.93,0,0,0-.48-1.18C80.75,110.25,80.33,110.67,80.22,111.24Z"/>
    <path class="cls-11" d="M86.89,112.51c-.11.56.11,1.1.48,1.17s.75-.32.9-.9-.11-1.1-.48-1.18S87,111.93,86.89,112.51Z"/>
    <path class="cls-29" d="M84.28,112.43a22.19,22.19,0,0,0,1.47,4.71,3.06,3.06,0,0,1-2.48,0Z"/>
    <path class="cls-11" d="M82.42,120.8a5,5,0,0,1-3.71-1.14.17.17,0,0,1,0-.24.16.16,0,0,1,.22,0h0a4.76,4.76,0,0,0,4.09,1,.15.15,0,0,1,.19.11v0a.18.18,0,0,1-.13.2A4.49,4.49,0,0,1,82.42,120.8Z"/>
    <path class="cls-11" d="M78.74,108.84a.25.25,0,0,1-.15-.06.34.34,0,0,1-.09-.46h0a3.3,3.3,0,0,1,2.71-1.42.33.33,0,0,1,.3.36h0a.34.34,0,0,1-.36.32A2.55,2.55,0,0,0,79,108.7.31.31,0,0,1,78.74,108.84Z"/>
    <path class="cls-11" d="M90,110.31a.34.34,0,0,1-.27-.17,2.79,2.79,0,0,0-2-1.45.35.35,0,0,1-.32-.37h0a.35.35,0,0,1,.36-.32h0a3.41,3.41,0,0,1,2.57,1.8.34.34,0,0,1-.11.47A.43.43,0,0,1,90,110.31Z"/>
    <path class="cls-11" d="M68.89,96.57s-9,1.6-4,4.92c0,0-5.28,3.9,1,4.83,0,0-1.88,5.18,4.26,3.26,0,0,5.42.84,2.75-7,0,0,8.28,2.12,10.92-1.16,0,0,9,6.29,10.41.48,1.08-4.48-4.41-4.63-4.41-4.63s2.18-3.72-.4-5.17-4.92.63-4.92.63,2-3.68-1.42-3.78c-2.9-.08-4.92,3-4.92,3S66.34,89.8,68.89,96.57Z"/>
    <path class="cls-27" d="M66,110.78a7.61,7.61,0,0,0,2.77,4.35c1.81,1.32,3.17-.28,3.07-2.54-.09-2-1.14-5.18-3.13-5.6S65.54,108.61,66,110.78Z"/>
    <path class="cls-11" d="M92.36,148.77l-1.6,17.76a2,2,0,0,1-1.27,1.7,72.22,72.22,0,0,1-7,2.46,80.85,80.85,0,0,1-8.27.9,2,2,0,0,0-1.85,1.68h0a2,2,0,0,0,1.66,2.33l26,4.34a2,2,0,0,0,2.32-1.6l5.23-26.53a2,2,0,0,0-1.55-2.36L94.81,147A2,2,0,0,0,92.36,148.77Z"/>
    <g>
      <path class="cls-27" d="M78.49,178H86a2.14,2.14,0,0,0,1.15-.33l4-2.49a2.11,2.11,0,0,1,1.15-.33h1.6a1.88,1.88,0,0,0,.53-.07l2.15-.53a2.15,2.15,0,0,1,2.14.65h0a2.18,2.18,0,0,1,.37,2.37l-2.5,5.49a2.17,2.17,0,0,1-2,1.28H89.9a1.87,1.87,0,0,1-.34,0l-4.67-.72a2.1,2.1,0,0,0-.56,0l-5.85.6a2.18,2.18,0,0,1-2.38-2.49l.23-1.53A2.18,2.18,0,0,1,78.49,178Z"/>
      <g>
        <path class="cls-7" d="M58.49,131.74c-1.75,0-9.1-.52-13.65,18.38s-4.55,33.08,4,35.35,25.81,3.85,25.81,0l2.83-.21a2,2,0,0,0,1.81-1.95v-4.89a2,2,0,0,0-2-1.95l-1.58.08s0-2.1-3.9-2.28-17,2-17.2-2.25S67.24,131.74,58.49,131.74Z"/>
        <path class="cls-9" d="M58.49,131.74c-1.75,0-9.1-.52-13.65,18.38s-4.55,33.08,4,35.35,25.81,3.85,25.81,0l2.83-.21a2,2,0,0,0,1.81-1.95v-4.89a2,2,0,0,0-2-1.95l-1.58.08s0-2.1-3.9-2.28-17,2-17.2-2.25S67.24,131.74,58.49,131.74Z"/>
      </g>
    </g>
    <path class="cls-27" d="M106.75,164.59l-2.59,1.8a1.45,1.45,0,0,0-.62,1l-.78,5.25L101.49,174a1.48,1.48,0,0,0,0,2.08l.28.28a1.49,1.49,0,0,0,1.41.37l2.54-.66a1.5,1.5,0,0,0,1-.8l2.71-5.73a1.52,1.52,0,0,0,.14-.63v-2.66a1.47,1.47,0,0,0-.55-1.15l-.51-.41A1.47,1.47,0,0,0,106.75,164.59Z"/>
  </g>
</svg>
