<svg id="Capa_1" data-name="Capa 1" xmlns="http://www.w3.org/2000/svg" xmlns:xlink="http://www.w3.org/1999/xlink" width="400" height="400" viewBox="0 0 400 400">
  <defs>
    <style>
      .cls-1 {
        fill: none;
      }

      .cls-2, .cls-4 {
        fill: #8b82ca;
      }

      .cls-2 {
        opacity: 0.69;
      }

      .cls-3 {
        opacity: 0.5;
      }

      .cls-5 {
        fill: #cfccd9;
      }

      .cls-6 {
        fill: #d8d5ed;
      }

      .cls-7 {
        fill: #b2abdb;
      }

      .cls-8 {
        fill: #091320;
      }

      .cls-9 {
        fill: #ececec;
      }

      .cls-10 {
        fill: #9f99b3;
      }

      .cls-11 {
        fill: #f5f5f5;
      }

      .cls-12 {
        fill: #fafafa;
      }

      .cls-13 {
        fill: #fff;
      }

      .cls-14 {
        fill: #6f678c;
      }

      .cls-15 {
        fill: #eb9d66;
      }

      .cls-16 {
        clip-path: url(#clip-path);
      }

      .cls-17 {
        opacity: 0.3;
      }

      .cls-18 {
        fill: #ffbf9d;
      }

      .cls-19 {
        fill: #ff9a6c;
      }

      .cls-20 {
        opacity: 0.4;
      }
    </style>
    <clipPath id="clip-path">
      <path class="cls-1" d="M88.78,221.61a1.62,1.62,0,1,1-2.78,0H84.13a1.62,1.62,0,1,1-3,.82,1.53,1.53,0,0,1,.23-.82H79.47a1.62,1.62,0,1,1-2.78,0H74.82a1.62,1.62,0,1,1-3,.82,1.53,1.53,0,0,1,.23-.82H70.16a1.62,1.62,0,1,1-2.78,0H65.5a1.53,1.53,0,0,1,.23.82,1.62,1.62,0,1,1-3-.82H61.55V255H89.4V221.61Z"/>
    </clipPath>
  </defs>
  <g>
    <path class="cls-2" d="M54.68,44.67V30.79a37.28,37.28,0,0,0,0,74.56V91.47a23.4,23.4,0,0,1,0-46.8Z"/>
    <g class="cls-3">
      <path class="cls-4" d="M54.68,105.35a37.28,37.28,0,1,0,0-74.56V44.67a23.4,23.4,0,1,1,0,46.8Z"/>
    </g>
  </g>
  <g>
    <path class="cls-5" d="M200,318.06v70c103.87,0,188.08-84.21,188.08-188.08S303.87,11.92,200,11.92v70a118.06,118.06,0,0,1,0,236.12Z"/>
    <path class="cls-6" d="M200,11.92C96.13,11.92,11.92,96.13,11.92,200S96.13,388.08,200,388.08v-70a118.06,118.06,0,0,1,0-236.12Z"/>
  </g>
  <g>
    <path class="cls-5" d="M65.43,301.43V283a49.59,49.59,0,0,0,0,99.17V363.68a31.13,31.13,0,0,1,0-62.25Z"/>
    <path class="cls-7" d="M65.43,382.14a49.59,49.59,0,1,0,0-99.17v18.46a31.13,31.13,0,1,1,0,62.25Z"/>
  </g>
  <path class="cls-8" d="M349.9,365.33c0,.11-72.09.2-161,.2s-161-.09-161-.2,72.08-.2,161-.2S349.9,365.22,349.9,365.33Z"/>
  <g>
    <polygon class="cls-9" points="209.75 61.27 221.12 97.25 212.89 97.25 209.26 84.84 209.75 61.27"/>
    <rect class="cls-10" x="62.87" y="97.21" width="169.85" height="10.15"/>
    <rect class="cls-10" x="86.54" y="105.14" width="8.22" height="15.59"/>
    <rect class="cls-10" x="192.59" y="105.14" width="8.22" height="15.59"/>
    <g>
      <g>
        <path class="cls-9" d="M68.64,50.15S61,56,68.32,63.63a.66.66,0,0,0,.48.2l66.6-.39s5.69-6.38,1-13.73Z"/>
        <path class="cls-10" d="M120.68,56.21c0,.07-8.29.13-18.52.13s-18.52-.06-18.52-.13,8.29-.14,18.52-.14S120.68,56.13,120.68,56.21Z"/>
        <path class="cls-10" d="M110.32,58.62c0,.07-3.89.13-8.7.13s-8.71-.06-8.71-.13,3.9-.14,8.71-.14S110.32,58.54,110.32,58.62Z"/>
        <path class="cls-10" d="M127.49,63.23s.15-.77.36-2a28.84,28.84,0,0,0,.38-4.86,27.57,27.57,0,0,0-.48-4.85c-.23-1.23-.43-2-.39-2a1.92,1.92,0,0,1,.2.51c.11.34.24.83.38,1.44a23.71,23.71,0,0,1,.56,4.89,23.27,23.27,0,0,1-.47,4.9c-.12.61-.25,1.11-.35,1.44A1.93,1.93,0,0,1,127.49,63.23Z"/>
        <path class="cls-10" d="M132.46,49.63a2.1,2.1,0,0,1,.3.48q.13.24.3.6c.1.24.23.5.34.82a15.4,15.4,0,0,1,.63,2.21,16.05,16.05,0,0,1,.29,2.8,17.29,17.29,0,0,1-.24,2.8,14.26,14.26,0,0,1-.6,2.22c-.1.32-.23.59-.33.83a5.7,5.7,0,0,1-.29.6,2.78,2.78,0,0,1-.28.48c-.05,0,.32-.74.72-2a16.59,16.59,0,0,0,.53-2.2,18.16,18.16,0,0,0,.22-2.76,18,18,0,0,0-.26-2.76,16,16,0,0,0-.57-2.19C132.8,50.36,132.42,49.65,132.46,49.63Z"/>
        <path class="cls-10" d="M79.15,63.32a1.76,1.76,0,0,1-.31-.45,3.37,3.37,0,0,1-.31-.55,8.1,8.1,0,0,1-.36-.77,11.65,11.65,0,0,1-.65-2.1,13.92,13.92,0,0,1-.26-2.68,13.74,13.74,0,0,1,.33-2.68A11.43,11.43,0,0,1,78.3,52c.12-.29.26-.54.37-.76a5.37,5.37,0,0,1,.33-.54,2.47,2.47,0,0,1,.32-.44c.05,0-.38.67-.85,1.81a14.69,14.69,0,0,0-.64,2.07,14.85,14.85,0,0,0-.3,2.62,15.33,15.33,0,0,0,.23,2.63,11.94,11.94,0,0,0,.59,2.08C78.78,62.64,79.19,63.29,79.15,63.32Z"/>
        <path class="cls-10" d="M72,64.94a2.45,2.45,0,0,1-.35-.5,6.74,6.74,0,0,1-.34-.63,8.77,8.77,0,0,1-.41-.86,14.46,14.46,0,0,1-.76-2.35,16.19,16.19,0,0,1-.37-3,15.94,15.94,0,0,1,.24-3,12.76,12.76,0,0,1,.66-2.38c.11-.34.25-.62.36-.88a5.41,5.41,0,0,1,.32-.64,2.5,2.5,0,0,1,.32-.52c.05,0-.38.78-.83,2.1a16.89,16.89,0,0,0-.59,2.36,18.41,18.41,0,0,0-.22,3,17.66,17.66,0,0,0,.35,3,15.2,15.2,0,0,0,.7,2.33C71.54,64.18,72,64.92,72,64.94Z"/>
      </g>
      <g>
        <g>
          <path class="cls-9" d="M133,83.73V96.47H108.3V83.73Z"/>
          <path class="cls-10" d="M53.31,90.22c0,.11,0,.22,0,.33a7.3,7.3,0,0,0,7.33,6.84h73.45v-.92H116.67a6.37,6.37,0,0,1-6.37-6.37h0a6.37,6.37,0,0,1,6.37-6.37h17.44V82.37l-73.47.25A7.35,7.35,0,0,0,53.31,90.22Z"/>
          <path class="cls-10" d="M133,90.27c0,.07-5.07.13-11.32.13s-11.33-.06-11.33-.13,5.07-.14,11.33-.14S133,90.19,133,90.27Z"/>
          <path class="cls-10" d="M132.6,93.14c0,.07-4.8.14-10.71.14s-10.72-.07-10.72-.14S116,93,121.89,93,132.6,93.07,132.6,93.14Z"/>
          <path class="cls-10" d="M133,95.77c0,.07-4.31.13-9.63.13s-9.64-.06-9.64-.13,4.31-.14,9.64-.14S133,95.69,133,95.77Z"/>
          <path class="cls-10" d="M133,87.69c0,.07-5,.13-11.09.13s-11.1-.06-11.1-.13,5-.14,11.1-.14S133,87.61,133,87.69Z"/>
          <path class="cls-10" d="M132.6,85.11c0,.07-4.42.13-9.87.13s-9.87-.06-9.87-.13,4.42-.14,9.87-.14S132.6,85,132.6,85.11Z"/>
        </g>
        <path class="cls-11" d="M62.21,82.83a17.22,17.22,0,0,0-1.56,1.86,9.42,9.42,0,0,0,.13,10.92,16.16,16.16,0,0,0,1.6,1.82,3.1,3.1,0,0,1-.53-.39,8.27,8.27,0,0,1-1.22-1.32,9.31,9.31,0,0,1-.14-11.14,8.16,8.16,0,0,1,1.2-1.34A3.16,3.16,0,0,1,62.21,82.83Z"/>
        <path class="cls-11" d="M59.73,82.56a16,16,0,0,0-1.56,1.86,9.42,9.42,0,0,0,.13,10.92,17.4,17.4,0,0,0,1.6,1.82,2.69,2.69,0,0,1-.53-.39,8.71,8.71,0,0,1-1.23-1.32A9.29,9.29,0,0,1,58,84.31,8.16,8.16,0,0,1,59.21,83,2.28,2.28,0,0,1,59.73,82.56Z"/>
        <path class="cls-11" d="M109.63,82.83a17.22,17.22,0,0,0-1.56,1.86,9.46,9.46,0,0,0,.13,10.92,16.16,16.16,0,0,0,1.6,1.82,3.66,3.66,0,0,1-.53-.39,8.27,8.27,0,0,1-1.22-1.32,9.29,9.29,0,0,1-.13-11.14,7.74,7.74,0,0,1,1.19-1.34A3.16,3.16,0,0,1,109.63,82.83Z"/>
        <path class="cls-11" d="M107.15,82.56a16,16,0,0,0-1.56,1.86,9.42,9.42,0,0,0,.13,10.92,17.4,17.4,0,0,0,1.6,1.82,3.1,3.1,0,0,1-.53-.39,9.25,9.25,0,0,1-1.23-1.32,9.29,9.29,0,0,1-.13-11.14,8.16,8.16,0,0,1,1.2-1.34A2.57,2.57,0,0,1,107.15,82.56Z"/>
        <path class="cls-11" d="M70.57,92l-.07-5.18a4,4,0,0,0-.18-1.34,1.27,1.27,0,0,0-1-.83,2,2,0,0,0-2.11,1,5,5,0,0,0-.51,2.54,37.4,37.4,0,0,0,.2,4.1,4.79,4.79,0,0,0,.48,1.87,1.75,1.75,0,0,0,1.58,1,1.79,1.79,0,0,0,1.39-1.2A5.35,5.35,0,0,0,70.57,92Z"/>
        <path class="cls-11" d="M99.09,90.52c0,.07-5.31.13-11.85.13s-11.86-.06-11.86-.13,5.31-.14,11.86-.14S99.09,90.44,99.09,90.52Z"/>
      </g>
      <g>
        <g>
          <g>
            <polygon class="cls-11" points="65.65 82.32 65.51 70.24 72.09 70.24 72.32 82.32 65.65 82.32"/>
            <path class="cls-10" d="M71.7,72.39a16.49,16.49,0,0,1-3,.14,16.56,16.56,0,0,1-3.06-.14,18.35,18.35,0,0,1,3.06-.13A18.27,18.27,0,0,1,71.7,72.39Z"/>
            <path class="cls-10" d="M71.7,74.26a18.27,18.27,0,0,1-3,.13,18.35,18.35,0,0,1-3.06-.13,16.56,16.56,0,0,1,3.06-.14A16.49,16.49,0,0,1,71.7,74.26Z"/>
            <path class="cls-10" d="M71.7,76.12a16.49,16.49,0,0,1-3,.14,16.56,16.56,0,0,1-3.06-.14A18.35,18.35,0,0,1,68.65,76,18.27,18.27,0,0,1,71.7,76.12Z"/>
            <path class="cls-10" d="M71.7,78a18.27,18.27,0,0,1-3,.13A18.35,18.35,0,0,1,65.59,78a16.56,16.56,0,0,1,3.06-.14A16.49,16.49,0,0,1,71.7,78Z"/>
            <path class="cls-10" d="M71.7,79.85a16.49,16.49,0,0,1-3,.14,16.56,16.56,0,0,1-3.06-.14,18.35,18.35,0,0,1,3.06-.13A18.27,18.27,0,0,1,71.7,79.85Z"/>
          </g>
          <path class="cls-9" d="M65.16,69.92h72.89a34.31,34.31,0,0,1,0,13.06H65.48v-.89h4.43A2.08,2.08,0,0,0,72,80V72.77a2.09,2.09,0,0,0-2.09-2.09H65.16Z"/>
          <g>
            <path class="cls-12" d="M82.39,76.46h1.22a.28.28,0,0,1,.13,0,.25.25,0,0,1,.13.23.19.19,0,0,1,0,.08c0,.1,0,.21-.08.31A3.41,3.41,0,0,1,83,78.49,1.43,1.43,0,0,1,82,79h-.14a1.18,1.18,0,0,1-.83-.59A2.76,2.76,0,0,1,80.65,77a3.77,3.77,0,0,1,.14-1,3.37,3.37,0,0,1,.72-1.41,1.46,1.46,0,0,1,1.1-.58,1.06,1.06,0,0,1,.46.1,1.53,1.53,0,0,1,.71.89.27.27,0,0,1,0,.12.2.2,0,0,1,0,.13.24.24,0,0,1-.22.13h-.09a.23.23,0,0,1-.16-.17l0,0a1.3,1.3,0,0,0-.14-.29.7.7,0,0,0-.59-.34.75.75,0,0,0-.4.14,2.24,2.24,0,0,0-.66,1,3.59,3.59,0,0,0-.29,1.37A2.48,2.48,0,0,0,81.41,78a.7.7,0,0,0,.63.47.85.85,0,0,0,.59-.35A3.3,3.3,0,0,0,83.26,77h-.88a.3.3,0,0,1-.29-.29.46.46,0,0,1,0-.09A.27.27,0,0,1,82.39,76.46Z"/>
            <path class="cls-12" d="M86.53,74.09l0,.09c.05.17.33,1.68.85,4.51a.14.14,0,0,1,0,.07.33.33,0,0,1,0,.13.23.23,0,0,1-.22.13h0a.25.25,0,0,1-.2-.18l-.29-1.5h-1.5l-.72,1.51a.17.17,0,0,1,0,.05.31.31,0,0,1-.23.12A.23.23,0,0,1,84,79a.25.25,0,0,1-.12-.22.31.31,0,0,1,0-.08c0-.1.12-.27.22-.49,1-2.29,1.67-3.64,1.88-4a.27.27,0,0,1,.25-.18A.25.25,0,0,1,86.53,74.09Zm-.32,1-.81,1.7h1.14Z"/>
            <path class="cls-12" d="M90.6,79H88.4a.23.23,0,0,1-.14,0,.4.4,0,0,1-.12-.27h0c0-.09.2-1.58.6-4.49a.3.3,0,0,1,0-.1A.23.23,0,0,1,89,74a.21.21,0,0,1,.12,0,.24.24,0,0,1,.14.23q0,.3-.15,1.23c-.25,1.92-.38,2.94-.39,3h1.86a.32.32,0,0,1,.14,0,.25.25,0,0,1,.17.25.25.25,0,0,1,0,.08A.31.31,0,0,1,90.6,79Z"/>
            <path class="cls-12" d="M93.6,74.09a.46.46,0,0,1,0,.09c.06.17.34,1.68.86,4.51a.15.15,0,0,1,0,.07.31.31,0,0,1,0,.13.24.24,0,0,1-.22.13h0a.25.25,0,0,1-.2-.18l-.29-1.5h-1.5l-.72,1.51s0,0,0,.05a.31.31,0,0,1-.23.12.23.23,0,0,1-.14,0,.25.25,0,0,1-.12-.22.31.31,0,0,1,0-.08c0-.1.12-.27.22-.49,1-2.29,1.67-3.64,1.88-4a.27.27,0,0,1,.25-.18A.25.25,0,0,1,93.6,74.09Zm-.33,1-.81,1.7h1.15Z"/>
            <path class="cls-12" d="M97.1,76.68c.17.47.3.84.4,1.1.22.63.34,1,.34,1a.28.28,0,0,1,0,.13.26.26,0,0,1-.22.12.24.24,0,0,1-.22-.17l0-.11c-.12-.28-.32-.79-.59-1.55l-1.24,1.7a.3.3,0,0,1-.24.13.31.31,0,0,1-.13,0,.26.26,0,0,1-.13-.22s0,0,0-.06,0-.11.13-.21q.63-.81,1.38-1.92l-.15-.42c-.47-1.25-.7-1.9-.7-1.94a.28.28,0,0,1,0-.13A.23.23,0,0,1,95.9,74a.26.26,0,0,1,.25.14l.73,2,1.47-2a.28.28,0,0,1,.23-.12.27.27,0,0,1,.12,0,.25.25,0,0,1,.13.23.27.27,0,0,1,0,.12Z"/>
            <path class="cls-12" d="M102.54,74a.27.27,0,0,1,.12,0,.27.27,0,0,1,.14.23c-.36,2.84-.56,4.37-.6,4.6a2.82,2.82,0,0,1-.47,1.2,1.7,1.7,0,0,1-1.46.72,1.8,1.8,0,0,1-.7-.19,1.54,1.54,0,0,1-.77-.68.28.28,0,0,1,0-.13.31.31,0,0,1,0-.13.25.25,0,0,1,.43,0,1.41,1.41,0,0,0,1.12.64,1.13,1.13,0,0,0,.88-.44,2.52,2.52,0,0,0,.48-1.38,1.29,1.29,0,0,1-.32.34,1.34,1.34,0,0,1-.79.26h-.15a1.19,1.19,0,0,1-.83-.6,2.67,2.67,0,0,1-.37-1.47,7.75,7.75,0,0,1,0-.82c0-.44.14-1.07.29-1.89l0-.08a.23.23,0,0,1,.23-.18.2.2,0,0,1,.13,0,.23.23,0,0,1,.13.21,9.67,9.67,0,0,1-.12,1,14.77,14.77,0,0,0-.17,1.53,3.05,3.05,0,0,0,.19,1.19c.15.36.37.54.65.54h.09a1.19,1.19,0,0,0,.66-.53,3.1,3.1,0,0,0,.54-1.21l.34-2.5a.2.2,0,0,1,0-.11A.24.24,0,0,1,102.54,74Z"/>
          </g>
          <path class="cls-11" d="M135.31,83.15c-.07,0-.13-3-.13-6.7s.06-6.7.13-6.7.13,3,.13,6.7S135.38,83.15,135.31,83.15Z"/>
          <path class="cls-10" d="M75.67,83.15c-.08,0-.14-3-.14-6.7s.06-6.7.14-6.7.13,3,.13,6.7S75.74,83.15,75.67,83.15Z"/>
          <path class="cls-11" d="M136.59,83.15c-.08,0-.14-3-.14-6.7s.06-6.7.14-6.7.13,3,.13,6.7S136.66,83.15,136.59,83.15Z"/>
          <path class="cls-10" d="M74.47,83.15c-.07,0-.13-3-.13-6.7s.06-6.7.13-6.7.14,3,.14,6.7S74.55,83.15,74.47,83.15Z"/>
        </g>
        <g>
          <path class="cls-10" d="M117.64,72v0l7.7,6.21.07.06-.09,0-1,.27-6.51,1.71h0l-5.9-2.5L110.2,77l-.44-.19-.12,0,0,0h0l.11.05.45.18,1.67.69,5.91,2.47h0l6.51-1.72,1-.27,0,.08L117.59,72h0v0"/>
          <polygon class="cls-10" points="124.63 77.19 125.05 77.58 125.62 77.46 125.37 77.98 125.66 78.48 125.09 78.41 124.7 78.83 124.6 78.27 124.07 78.04 124.58 77.76 124.63 77.19"/>
          <polygon class="cls-10" points="117.24 79.63 117.53 79.87 117.89 79.77 117.75 80.12 117.96 80.43 117.59 80.41 117.36 80.7 117.26 80.34 116.91 80.21 117.23 80.01 117.24 79.63"/>
          <polygon class="cls-10" points="109.08 76.28 109.54 76.31 109.82 75.95 109.94 76.4 110.37 76.56 109.98 76.8 109.96 77.26 109.61 76.97 109.17 77.09 109.34 76.67 109.08 76.28"/>
          <polygon class="cls-10" points="128.09 72.06 128.54 72.09 128.83 71.73 128.94 72.17 129.37 72.33 128.98 72.57 128.97 73.03 128.61 72.74 128.17 72.86 128.34 72.44 128.09 72.06"/>
          <polygon class="cls-10" points="117.27 71.76 117.56 71.78 117.74 71.55 117.81 71.83 118.08 71.93 117.84 72.09 117.83 72.38 117.6 72.19 117.32 72.27 117.43 72 117.27 71.76"/>
          <path class="cls-10" d="M128.73,72.38s-2.49,0-5.57-.19-5.56-.26-5.56-.29,2.5.06,5.57.19S128.73,72.35,128.73,72.38Z"/>
        </g>
      </g>
      <g>
        <path class="cls-10" d="M131.53,69.81H57.61c-1-2.2-1.21-4.28,0-6.15h73.92A7.12,7.12,0,0,1,131.53,69.81Z"/>
        <rect class="cls-9" x="72.91" y="65.42" width="40.05" height="2.24"/>
        <path class="cls-10" d="M60.45,69.84s-.29-.23-.59-.74a5.5,5.5,0,0,1-.67-2.18,5.44,5.44,0,0,1,.28-2.27,2,2,0,0,1,.45-.84,7.5,7.5,0,0,1-.27.89A6.32,6.32,0,0,0,60,69C60.27,69.52,60.48,69.82,60.45,69.84Z"/>
        <path class="cls-10" d="M62.05,69.84s-.29-.23-.59-.74a5.34,5.34,0,0,1-.67-2.18,5.44,5.44,0,0,1,.28-2.27,2,2,0,0,1,.45-.84,7.5,7.5,0,0,1-.27.89A6.17,6.17,0,0,0,61.63,69C61.87,69.52,62.08,69.82,62.05,69.84Z"/>
        <path class="cls-11" d="M128.54,69.7a12.68,12.68,0,0,0,.52-3,12.42,12.42,0,0,0-.49-3,5.28,5.28,0,0,1,.76,3A5.47,5.47,0,0,1,128.54,69.7Z"/>
        <path class="cls-11" d="M127.16,69.69c-.08,0,.23-1.32.22-3s-.31-2.93-.23-2.95a6.94,6.94,0,0,1,.5,2.95A7.22,7.22,0,0,1,127.16,69.69Z"/>
      </g>
    </g>
    <g>
      <g>
        <polygon class="cls-10" points="159.02 31.69 209.75 31.69 209.75 97.88 159.37 97.88 159.02 31.69"/>
        <g>
          <rect class="cls-13" x="155.34" y="32.01" width="50.43" height="65.52" transform="translate(361.11 129.55) rotate(180)"/>
          <path class="cls-10" d="M206,31.76v66H155.09v-66Zm-.5,65.52v-65H155.59v65Z"/>
        </g>
        <g>
          <rect class="cls-13" x="160.6" y="39.12" width="38.61" height="51.33"/>
          <path class="cls-10" d="M160.52,39.11s0,.09,0,.25v.72c0,.64,0,1.58,0,2.8,0,2.44,0,6,0,10.52,0,9,0,21.85.06,37l-.12-.12h38.61l-.13.13c0-19.12,0-36.83,0-51.33l.11.11-28-.06-7.8,0h0l7.78,0,28.1-.06h.11v.11c0,14.5,0,32.21,0,51.33v.13h-.13l-38.61,0h-.12v-.11c0-15.23,0-28.07.06-37.11,0-4.51,0-8.06,0-10.5,0-1.21,0-2.14,0-2.78v-.7C160.52,39.19,160.52,39.11,160.52,39.11Z"/>
        </g>
        <path class="cls-10" d="M155.22,97.53a6.38,6.38,0,0,1,.68-1.11c.45-.66,1.08-1.57,1.81-2.55s1.42-1.86,1.93-2.48a5.34,5.34,0,0,1,.88-1,7.25,7.25,0,0,1-.74,1.07L157.92,94l-1.87,2.51A6.57,6.57,0,0,1,155.22,97.53Z"/>
        <path class="cls-10" d="M155.34,32A39.13,39.13,0,0,1,158,35.48a35.5,35.5,0,0,1,2.49,3.63,38.44,38.44,0,0,1-2.7-3.47A35,35,0,0,1,155.34,32Z"/>
        <g>
          <line class="cls-13" x1="205.77" y1="32.01" x2="199.13" y2="39.37"/>
          <path class="cls-10" d="M199.13,39.37a49.57,49.57,0,0,1,3.22-3.77c1.84-2,3.37-3.63,3.42-3.59a47.39,47.39,0,0,1-3.22,3.77A46.6,46.6,0,0,1,199.13,39.37Z"/>
        </g>
        <path class="cls-10" d="M205.77,97.53a42.24,42.24,0,0,1-3.27-3.42,43.24,43.24,0,0,1-3.07-3.6,42.24,42.24,0,0,1,3.27,3.42A43.24,43.24,0,0,1,205.77,97.53Z"/>
      </g>
      <path class="cls-10" d="M162.37,90.44S166.52,77.56,169,76.2a23.59,23.59,0,0,1,10.84-2.94c5.72-.05,8.44.37,11.8,2.68,3.87,2.66,6.49,14.37,6.49,14.37"/>
      <g>
        <path class="cls-10" d="M173.89,52.11c-3.55.16-4.42,4.93-4.18,7.65.11,1.29.51,2.69-.14,3.81-.46.79-1.37,1.26-1.76,2.1-.46,1,0,2.18.32,3.24s.49,2.41-.36,3.13a30.54,30.54,0,0,0,6.13,1.15,10.25,10.25,0,0,0,6-1.34"/>
        <g>
          <path class="cls-10" d="M171.35,61.63c-2.34-5.37.84-8.65,2.91-9.83a8.53,8.53,0,0,1,4.12-.89,15,15,0,0,1,4.18.37,7.54,7.54,0,0,1,3.62,2c1.7,1.82,2.1,4.51,1.95,7a19.52,19.52,0,0,1-2.46,8.37,2,2,0,0,1-.72.85.78.78,0,0,1-1-.18"/>
          <g>
            <g>
              <path class="cls-11" d="M179.26,80.05c2.41.16,4.52-1.91,4.77-5.62l1.29-18.88-.09,1.3a1.51,1.51,0,0,0-1.36-1.53l-7.49-.77a4.55,4.55,0,0,0-5,4.26,46,46,0,0,0,.08,8.53c.7,4.31,4,4.85,4,4.85l-.26,3.13a4.39,4.39,0,0,0,4.07,4.73Z"/>
              <g>
                <path class="cls-10" d="M172.81,61.24a.54.54,0,0,0,.53.55.52.52,0,0,0,.57-.5.54.54,0,0,0-.53-.55A.53.53,0,0,0,172.81,61.24Z"/>
                <path class="cls-10" d="M172.14,60.63c.07.07.49-.24,1.08-.24s1,.3,1.1.23,0-.17-.23-.3a1.53,1.53,0,0,0-.88-.27,1.44,1.44,0,0,0-.86.28C172.17,60.47,172.11,60.6,172.14,60.63Z"/>
              </g>
              <g>
                <path class="cls-10" d="M178.52,61.24a.55.55,0,0,0,.54.55.52.52,0,0,0,.57-.5.55.55,0,0,0-.54-.55A.53.53,0,0,0,178.52,61.24Z"/>
                <path class="cls-10" d="M178,60.73c.07.07.49-.24,1.08-.24s1,.29,1.1.22,0-.16-.23-.3a1.53,1.53,0,0,0-.88-.27,1.51,1.51,0,0,0-.86.28C178,60.56,178,60.69,178,60.73Z"/>
              </g>
              <path class="cls-10" d="M175.84,65.15a3.43,3.43,0,0,0-1-.18c-.16,0-.3,0-.33-.14a.89.89,0,0,1,.1-.46c.15-.36.3-.75.45-1.15a19.5,19.5,0,0,0,1-3,19.28,19.28,0,0,0-1.24,2.94l-.43,1.16a.93.93,0,0,0-.07.6.36.36,0,0,0,.25.22,1.29,1.29,0,0,0,.25,0A4.19,4.19,0,0,0,175.84,65.15Z"/>
              <path class="cls-9" d="M175.45,72.19a10.94,10.94,0,0,0,5.77-1.56s-1.54,3-5.85,2.6Z"/>
              <path class="cls-10" d="M176.1,66.58a1.08,1.08,0,0,1,1-.4,1,1,0,0,1,.68.36.64.64,0,0,1,0,.71.73.73,0,0,1-.78.2,2.4,2.4,0,0,1-.77-.45,1,1,0,0,1-.17-.18.2.2,0,0,1,0-.22"/>
              <path class="cls-10" d="M177.6,65.55c-.1,0-.1.64-.65,1.1s-1.24.39-1.25.48.16.13.45.14a1.64,1.64,0,0,0,1-.37,1.42,1.42,0,0,0,.5-.92C177.71,65.71,177.64,65.55,177.6,65.55Z"/>
            </g>
            <path class="cls-10" d="M177.72,59.69c.06.16.65.08,1.35.16s1.26.27,1.36.13-.06-.23-.29-.38a2.34,2.34,0,0,0-2.06-.22C177.82,59.48,177.69,59.61,177.72,59.69Z"/>
            <path class="cls-10" d="M172.35,58.91c.11.13.52,0,1,0s.91.09,1,0,0-.2-.21-.33a1.38,1.38,0,0,0-.82-.22,1.36,1.36,0,0,0-.8.28C172.37,58.7,172.31,58.84,172.35,58.91Z"/>
          </g>
        </g>
        <path class="cls-10" d="M174.74,51.54c4.18-2.35,8.66-.71,12,2.69a8.47,8.47,0,0,0,2.39,2.05c1.05.45,2.44.37,3.07,1.33.73,1.12-.25,2.69.28,3.91s2,1.46,2.61,2.54a4.12,4.12,0,0,1,0,2.83,2.85,2.85,0,0,0,.42,2.73l-9,3.41a2.36,2.36,0,0,1-1.26.14c-1.28-.26-1.37-1.44-1.25-2.42a4,4,0,0,0-.06-2.17c-.37-.79-1.3-1.22-1.62-2-.58-1.43,1-2.91.83-4.43a2.86,2.86,0,0,0-1.83-2.08,28.61,28.61,0,0,0-2.78-.8,8.35,8.35,0,0,1-4.77-4.78,2.34,2.34,0,0,1,1-2.93Z"/>
      </g>
    </g>
  </g>
  <g>
    <rect class="cls-10" x="309.43" y="35.71" width="80.86" height="84.29"/>
    <g>
      <rect class="cls-12" x="303.95" y="35.71" width="80.86" height="84.29"/>
      <path class="cls-10" d="M384.84,120H303.93V35.68h80.91ZM304,120h80.81V35.73H304Z"/>
    </g>
    <rect class="cls-13" x="314.82" y="47.04" width="59.12" height="61.63"/>
    <path class="cls-10" d="M314.82,109.08a9.27,9.27,0,0,1-1.46,1.69c-.94,1-2.27,2.35-3.76,3.81s-2.85,2.77-3.86,3.7A8.77,8.77,0,0,1,304,119.7a9.62,9.62,0,0,1,1.45-1.68c.95-1,2.28-2.35,3.77-3.82s2.86-2.78,3.87-3.71A9.07,9.07,0,0,1,314.82,109.08Z"/>
    <path class="cls-10" d="M373.94,108.93a9.1,9.1,0,0,1,1.7,1.46c1,.94,2.35,2.27,3.81,3.75s2.77,2.86,3.7,3.87a9.06,9.06,0,0,1,1.42,1.7,8.81,8.81,0,0,1-1.69-1.45c-1-.94-2.35-2.27-3.82-3.76s-2.77-2.86-3.7-3.87A9.88,9.88,0,0,1,373.94,108.93Z"/>
    <path class="cls-10" d="M373.78,47.2a10.7,10.7,0,0,1,1.46-1.7c.95-1,2.27-2.34,3.76-3.81s2.85-2.77,3.86-3.69a9.65,9.65,0,0,1,1.71-1.43,9,9,0,0,1-1.45,1.69c-.94,1-2.27,2.35-3.77,3.82s-2.86,2.78-3.87,3.71A8.71,8.71,0,0,1,373.78,47.2Z"/>
    <path class="cls-10" d="M314.66,47.35a9.1,9.1,0,0,1-1.7-1.46c-1-.94-2.34-2.27-3.81-3.75s-2.77-2.86-3.69-3.87A9.65,9.65,0,0,1,304,36.56,9.27,9.27,0,0,1,305.72,38c1,.94,2.35,2.27,3.82,3.76s2.78,2.86,3.7,3.87A9.31,9.31,0,0,1,314.66,47.35Z"/>
    <path class="cls-10" d="M373.78,108.67s0-.11,0-.3,0-.5,0-.86c0-.77,0-1.89,0-3.33,0-2.92,0-7.17-.06-12.56,0-10.79-.07-26.17-.11-44.58l.22.22-58.95,0h0l.26-.26c0,22.62,0,43.78,0,61.63l-.23-.23,42.69.12,12,.06,3.17,0,.82,0a1.23,1.23,0,0,1,.28,0h-1l-3.13,0-11.94.06-42.84.11h-.22v-.22c0-17.85,0-39,0-61.63v-.27h.27l58.95,0H374V47c-.05,18.47-.09,33.9-.11,44.73,0,5.37,0,9.6-.06,12.51,0,1.42,0,2.52,0,3.28,0,.35,0,.63,0,.83A1.45,1.45,0,0,1,373.78,108.67Z"/>
    <g>
      <g>
        <g>
          <g>
            <path class="cls-11" d="M356.62,65.84A22.17,22.17,0,0,0,334.35,63s-1.1,14.65-1,21,6.45,7.37,6.45,7.37l0,6.9,15.49.59,2.32-32.35Z"/>
            <path class="cls-10" d="M339.77,91.34A14.84,14.84,0,0,0,348.09,89s-2,4.59-8.33,4Z"/>
          </g>
          <g>
            <path class="cls-11" d="M356.78,73.17c.11,0,4.38-1.29,4.24,3.07s-4.48,3.32-4.49,3.19S356.78,73.17,356.78,73.17Z"/>
            <path class="cls-10" d="M357.92,77.82s.07.06.2.12a.73.73,0,0,0,.56,0,1.87,1.87,0,0,0,.93-1.66,2.58,2.58,0,0,0-.18-1.09.88.88,0,0,0-.55-.6.4.4,0,0,0-.46.19c-.06.12,0,.21-.06.22s-.09-.08-.05-.26a.51.51,0,0,1,.18-.26.52.52,0,0,1,.43-.1,1.07,1.07,0,0,1,.77.7,2.56,2.56,0,0,1,.22,1.22,2,2,0,0,1-1.17,1.85.8.8,0,0,1-.69-.14C357.92,77.93,357.9,77.83,357.92,77.82Z"/>
          </g>
          <g>
            <g>
              <g>
                <path class="cls-10" d="M336.44,72.85a.91.91,0,0,0,.88.92.87.87,0,0,0,.94-.82.92.92,0,0,0-.88-.92A.88.88,0,0,0,336.44,72.85Z"/>
                <path class="cls-10" d="M335.56,72c.11.12.8-.39,1.78-.39s1.7.5,1.81.38-.07-.27-.38-.5a2.42,2.42,0,0,0-1.44-.44,2.37,2.37,0,0,0-1.42.45C335.61,71.75,335.5,72,335.56,72Z"/>
              </g>
              <g>
                <path class="cls-10" d="M346.08,73.27a.91.91,0,0,0,.87.92.87.87,0,0,0,.94-.83.89.89,0,0,0-.87-.91A.86.86,0,0,0,346.08,73.27Z"/>
                <path class="cls-10" d="M345.19,72.2c.11.11.81-.4,1.78-.39s1.7.49,1.81.37-.06-.27-.38-.5a2.56,2.56,0,0,0-1.44-.44,2.39,2.39,0,0,0-1.42.46C345.24,71.93,345.14,72.14,345.19,72.2Z"/>
              </g>
              <path class="cls-10" d="M341.64,79.46a6.88,6.88,0,0,0-1.6-.28c-.25,0-.48-.08-.53-.25a1.36,1.36,0,0,1,.17-.74l.74-1.91a32.17,32.17,0,0,0,1.66-5A32.69,32.69,0,0,0,340,76.14c-.24.67-.48,1.3-.7,1.91a1.43,1.43,0,0,0-.13,1,.61.61,0,0,0,.41.36,1.76,1.76,0,0,0,.42.06A6.31,6.31,0,0,0,341.64,79.46Z"/>
            </g>
            <path class="cls-10" d="M344.94,68.36c.1.26,1.07.14,2.22.27s2.08.46,2.24.22-.1-.37-.47-.63a3.76,3.76,0,0,0-1.66-.57,3.68,3.68,0,0,0-1.74.2C345.11,68,344.9,68.23,344.94,68.36Z"/>
            <path class="cls-10" d="M335.92,69.18c.17.22.85,0,1.66,0s1.5.15,1.66-.09,0-.33-.34-.54a2.4,2.4,0,0,0-2.68.08C335.94,68.84,335.84,69.07,335.92,69.18Z"/>
          </g>
        </g>
        <path class="cls-10" d="M331.25,59a2.37,2.37,0,0,1,.86-2.11,1.68,1.68,0,0,1,2.17.17A2,2,0,0,1,336,54.71c1-.06,1.93.72,2.94,1a4.71,4.71,0,0,0,3-.35c.95-.38,1.83-.9,2.78-1.25a8.16,8.16,0,0,1,10.43,4.79,3.61,3.61,0,0,1,3.84,1.45,6,6,0,0,1,.91,4.19,13.06,13.06,0,0,1-.73,2.86c0,.08,0,.16,0,.24-.07,3.51-.46,7.63-2,7.65-2.61,0-2-4.87-2-4.87-3.2-1.24-2-6-2.81-6.76s-2.48-2.42-9.18,1a13,13,0,0,1-7.94.86l-.17,0h0l-.06,0a6,6,0,0,1-1.71-.73,3.37,3.37,0,0,1-1.42-1.57,1.85,1.85,0,0,1,.37-2A4,4,0,0,1,331.25,59Z"/>
      </g>
      <path class="cls-10" d="M341.64,84.21a3.22,3.22,0,0,0,1.13-.14,1.63,1.63,0,0,0,.84-.77,1.69,1.69,0,0,0,0-1.38,1.2,1.2,0,0,0-.18-.31c-.09-.09-.07-.08-.16-.07s-.22.09-.34.13l-.34.14-1.21.47a4.08,4.08,0,0,1-1.14.35,3.78,3.78,0,0,1,1-.59l1.17-.55.34-.15.39-.16a.55.55,0,0,1,.31,0,.56.56,0,0,1,.23.19,2,2,0,0,1,.24.39,2,2,0,0,1-.07,1.69,1.79,1.79,0,0,1-1.07.86,1.7,1.7,0,0,1-.91,0C341.73,84.3,341.64,84.23,341.64,84.21Z"/>
    </g>
  </g>
  <g>
    <g>
      <path class="cls-14" d="M249.82,277.2A10.42,10.42,0,0,1,260,268.45c21.94-.29,77.81-.79,80.8,1.59,3.74,3,5.69,4.48,5.4,9.18-.27,4.33-5,79-5,79H236.62Z"/>
      <path class="cls-8" d="M329.27,358.22a.68.68,0,0,1,0-.22c0-.16,0-.38-.06-.65q-.06-.89-.18-2.49c-.08-1.08-.17-2.4-.21-3.94s-.16-3.29-.16-5.23c0-1,0-2,0-3s0-2.16,0-3.3c0-2.28.13-4.71.24-7.27.29-5.12.78-10.74,1.56-16.6s1.84-11.41,2.93-16.42c.58-2.5,1.11-4.88,1.71-7.08.29-1.1.55-2.17.85-3.18s.57-2,.84-2.93c.52-1.87,1.08-3.53,1.55-5s.89-2.72,1.26-3.74l.84-2.35.22-.61c.05-.14.08-.2.09-.2s0,.07-.06.21l-.19.62c-.19.56-.45,1.36-.78,2.37s-.77,2.28-1.21,3.76-1,3.14-1.49,5c-.27.93-.54,1.91-.83,2.92s-.54,2.09-.82,3.19c-.59,2.2-1.11,4.58-1.68,7.07-1.07,5-2.09,10.55-2.9,16.4s-1.28,11.47-1.59,16.57c-.11,2.56-.25,5-.27,7.27,0,1.13-.06,2.23-.06,3.29s0,2.07,0,3c0,1.94.07,3.69.1,5.22s.1,2.86.16,3.95.09,1.9.12,2.49c0,.27,0,.48,0,.65A1.25,1.25,0,0,1,329.27,358.22Z"/>
    </g>
    <g>
      <path class="cls-8" d="M270.47,306s0,0,.16-.06a1.39,1.39,0,0,1,.49,0,2.24,2.24,0,0,1,1.53.9,2.53,2.53,0,0,1,.15,2.61,3.2,3.2,0,0,1-1,1.22,3.16,3.16,0,0,1-1.62.57,2.63,2.63,0,0,1-1.67-.44,2.08,2.08,0,0,1-.86-1.36,2.82,2.82,0,0,1,.8-2.5c1.17-1,2.21-1,2.19-.94l-.16,0a2.28,2.28,0,0,0-.44.15,4.61,4.61,0,0,0-1.43.93,2.65,2.65,0,0,0-.67,2.27,1.86,1.86,0,0,0,.76,1.16,2.34,2.34,0,0,0,1.46.37,2.9,2.9,0,0,0,1.45-.5,3,3,0,0,0,.94-1.1,2.29,2.29,0,0,0-.07-2.33,2.16,2.16,0,0,0-1.36-.91A4.13,4.13,0,0,0,270.47,306Z"/>
      <path class="cls-8" d="M286.87,296.54a25.47,25.47,0,0,0-2.81,0A12.86,12.86,0,0,0,273.52,304a23.7,23.7,0,0,0-1,2.62,3,3,0,0,1,.11-.75,11.52,11.52,0,0,1,.66-2A12.56,12.56,0,0,1,284,296.33a11.66,11.66,0,0,1,2.08.06A2.66,2.66,0,0,1,286.87,296.54Z"/>
      <path class="cls-8" d="M256.55,316a1.72,1.72,0,0,1,.24-.54,8.1,8.1,0,0,1,.92-1.33,9.81,9.81,0,0,1,9.65-3.28,8.38,8.38,0,0,1,1.54.48,1.78,1.78,0,0,1,.52.28c0,.06-.79-.3-2.11-.53a10.52,10.52,0,0,0-5.13.37,10.38,10.38,0,0,0-4.29,2.84C257,315.24,256.6,316,256.55,316Z"/>
      <path class="cls-8" d="M276.78,318.55a3.59,3.59,0,0,1-1.08-.77,12.27,12.27,0,0,1-2.07-2.44,12,12,0,0,1-1.36-2.91,3.78,3.78,0,0,1-.26-1.3,23.87,23.87,0,0,0,1.89,4A24.13,24.13,0,0,0,276.78,318.55Z"/>
    </g>
    <g>
      <path class="cls-8" d="M305.78,306.9s.05,0,.16-.06a1.69,1.69,0,0,1,.49,0,2.22,2.22,0,0,1,1.53.91,2.51,2.51,0,0,1,.15,2.6,3.32,3.32,0,0,1-1,1.23,3.15,3.15,0,0,1-1.62.56,2.63,2.63,0,0,1-1.67-.43,2.16,2.16,0,0,1-.87-1.36,2.89,2.89,0,0,1,.8-2.51c1.18-1,2.22-1,2.2-.94s-.06,0-.16,0l-.44.15a4.8,4.8,0,0,0-1.43.93,2.67,2.67,0,0,0-.67,2.28,1.78,1.78,0,0,0,.76,1.15,2.34,2.34,0,0,0,1.46.37,2.81,2.81,0,0,0,1.45-.5,3,3,0,0,0,.94-1.09,2.33,2.33,0,0,0-.07-2.34,2.2,2.2,0,0,0-1.36-.91C306,306.87,305.78,306.93,305.78,306.9Z"/>
      <path class="cls-8" d="M322.18,297.42c0,.07-1.08-.13-2.81,0a12.89,12.89,0,0,0-10.55,7.39,25.22,25.22,0,0,0-1,2.63,3,3,0,0,1,.11-.76,11.81,11.81,0,0,1,.66-2,12.52,12.52,0,0,1,10.74-7.52,11.88,11.88,0,0,1,2.08,0A3.2,3.2,0,0,1,322.18,297.42Z"/>
      <path class="cls-8" d="M291.85,316.84a2,2,0,0,1,.25-.54A8.1,8.1,0,0,1,293,315a9.89,9.89,0,0,1,4.36-3,10,10,0,0,1,5.29-.29,8.13,8.13,0,0,1,1.53.49,2.15,2.15,0,0,1,.53.27c0,.06-.79-.3-2.11-.53a10.24,10.24,0,0,0-9.43,3.21C292.29,316.12,291.91,316.87,291.85,316.84Z"/>
      <path class="cls-8" d="M312.09,319.44a4,4,0,0,1-1.08-.78,11.89,11.89,0,0,1-3.43-5.34,3.85,3.85,0,0,1-.26-1.31,16.9,16.9,0,0,0,4.77,7.43Z"/>
    </g>
  </g>
  <g>
    <path class="cls-15" d="M349.86,254.07c-28.15-27.81-63.19-34.44-63.19-34.44-20.84,12.42-34.9,33.27-45.6,58.31,17.95,16.61,41,32.53,60.8,34C333.11,304,349.86,254.07,349.86,254.07Z"/>
    <path class="cls-4" d="M339.83,276.15a.82.82,0,0,1-.07-.19l-.18-.58-.68-2.23c-.57-2-1.41-4.82-2.47-8.41l.13.07-13.81,4.48.09-.09a.13.13,0,0,1,0,.07c0,.05-.13.08-.17.05s-.09-.1-.09-.09a.58.58,0,0,1,0-.1V269l0-.28V267c0-.76,0-1.53,0-2.31,0-1.57,0-3.19,0-4.85s-.07-3.35-.17-5.08a43.26,43.26,0,0,0-.55-5.26l.2.13-12.55,2.91-7.65,1.78-.17,0,0-.16c-1.13-5.93-2.21-11.57-3.2-16.76l.19.11a113,113,0,0,1-20.05,3.51h-.1V241c-.53-4.32-.95-7.75-1.23-10.12-.14-1.17-.25-2.07-.32-2.7l-.07-.69a2.18,2.18,0,0,1,0-.24,1.16,1.16,0,0,1,.05.23l.1.69c.09.63.21,1.53.37,2.69.31,2.37.76,5.8,1.33,10.11l-.12-.09a116,116,0,0,0,20-3.59l.16,0,0,.16c1,5.19,2.08,10.83,3.22,16.76l-.19-.13,7.65-1.78,12.55-2.91.16,0,0,.17a42.51,42.51,0,0,1,.54,5.3c.1,1.74.14,3.44.16,5.1s0,3.28,0,4.85c0,.78,0,1.55,0,2.32,0,.38,0,.75,0,1.13v1l0,0c-.06,0-.07,0-.08,0s0,0,0,0l-.08-.05-.07,0,.16-.05,13.83-4.4.09,0,0,.1,2.39,8.43c.27,1,.47,1.72.62,2.25l.15.58A1.47,1.47,0,0,1,339.83,276.15Z"/>
    <path class="cls-12" d="M334.44,285l-.06-.14-.17-.45c-.15-.41-.35-1-.62-1.76-.55-1.55-1.34-3.81-2.34-6.67l.11.06-16.46,4.39-.15,0,0-.16c-.39-3-.83-6.27-1.31-9.7s-1-7-1.66-10.73l.2.13-12,2.8-8.15,1.89-.17,0,0-.17c-1.13-5.93-2.21-11.57-3.2-16.76l.19.12a113.79,113.79,0,0,1-20.05,3.5h-.1l0-.1c-.52-4.32-.94-7.75-1.23-10.12-.13-1.17-.24-2.07-.31-2.7,0-.29-.06-.52-.08-.69a1.08,1.08,0,0,1,0-.24,2.32,2.32,0,0,1,0,.23l.11.7c.08.62.21,1.52.36,2.68.32,2.37.77,5.8,1.33,10.11l-.11-.09a114.94,114.94,0,0,0,20-3.58l.15,0,0,.16c1,5.2,2.09,10.83,3.23,16.76l-.2-.13,8.16-1.9,12-2.79.17,0,0,.17c.66,3.72,1.16,7.32,1.64,10.75s.9,6.68,1.28,9.71l-.17-.12,16.48-4.3.08,0,0,.08c1,2.88,1.73,5.14,2.26,6.7.25.77.44,1.36.58,1.77l.14.46C334.43,284.94,334.45,285,334.44,285Z"/>
    <path class="cls-4" d="M323.43,298.69s0-.18,0-.53l.12-1.53c.12-1.36.29-3.34.52-5.86l.1.08c-4.18,1.4-10,3.34-17.06,5.67l-.15.05,0-.15c-1.35-7-2.94-15.25-4.67-24.2l.2.13-10.44,2.43L282.3,277l-.17,0,0-.17c-1.13-5.93-2.21-11.56-3.2-16.76l.19.12a112.11,112.11,0,0,1-20,3.5h-.1v-.1l-1.24-10.12c-.13-1.17-.24-2.07-.31-2.69,0-.3-.06-.53-.07-.7a2,2,0,0,1,0-.23.77.77,0,0,1,0,.23c0,.17.06.4.11.69.08.62.2,1.52.36,2.69.31,2.36.77,5.79,1.33,10.11l-.11-.09A115.24,115.24,0,0,0,279,260l.15,0,0,.16c1,5.19,2.09,10.82,3.23,16.75l-.2-.13,9.77-2.26L302.42,272l.17,0,0,.17c1.71,8.95,3.28,17.21,4.61,24.2l-.17-.1,17.09-5.57.12,0v.13c-.26,2.52-.46,4.49-.6,5.85-.07.66-.12,1.17-.16,1.53S323.43,298.69,323.43,298.69Z"/>
    <path class="cls-12" d="M300.71,311.83l0-.12-.1-.36-.36-1.41c-.31-1.25-.75-3.06-1.32-5.34s-1.21-5.1-2-8.29-1.58-6.79-2.34-10.74l.18.12-20.2,4.71-.17,0,0-.16c-.11-.56-.22-1.15-.33-1.75-1-5.24-2-10.29-2.87-15l.19.12a113.46,113.46,0,0,1-20.05,3.51h-.11V277c-.52-4.26-.93-7.69-1.22-10.08-.14-1.17-.25-2.08-.32-2.72,0-.3-.05-.54-.07-.71a2.18,2.18,0,0,1,0-.24,1.17,1.17,0,0,1,.05.24l.1.7c.09.64.22,1.55.38,2.72.31,2.38.77,5.81,1.33,10.06l-.13-.1a115.5,115.5,0,0,0,20-3.58l.16-.05,0,.17,2.89,15c.11.59.23,1.19.33,1.74l-.19-.13,20.2-4.67.15,0,0,.15c.74,3.94,1.57,7.54,2.29,10.74s1.37,6,1.89,8.3l1.24,5.36c.14.61.24,1.08.32,1.42l.08.37C300.71,311.79,300.72,311.83,300.71,311.83Z"/>
    <path class="cls-4" d="M290,309.56a5.76,5.76,0,0,1-.24-.88c-.13-.63-.32-1.45-.54-2.45-.45-2.08-1.05-5-1.72-8.29l.2.13-1.9.45c-3.72.86-7.09,1.62-9.54,2.16l-2.9.62a6.53,6.53,0,0,1-1.07.18,8,8,0,0,1,1-.31l2.88-.72c2.43-.59,5.79-1.39,9.52-2.26l1.89-.43.17,0,0,.17c.66,3.29,1.22,6.2,1.61,8.3.19,1,.34,1.83.45,2.47A5,5,0,0,1,290,309.56Z"/>
    <path class="cls-4" d="M266.56,298a4.27,4.27,0,0,1-.24-.9c-.14-.64-.32-1.47-.53-2.47-.43-2.09-1-5-1.62-8.17l-.1-.57.2.13c-3,.81-5.76,1.4-7.75,1.76-1,.18-1.8.31-2.36.38a4.66,4.66,0,0,1-.87.09,5.67,5.67,0,0,1,.85-.21l2.33-.49c2-.42,4.71-1,7.71-1.85l.18-.05,0,.18.11.57c.61,3.19,1.15,6.09,1.52,8.19l.42,2.49A5,5,0,0,1,266.56,298Z"/>
    <path class="cls-4" d="M243,279.68a6.26,6.26,0,0,1-.42-2,6.38,6.38,0,0,1-.09-2,6.26,6.26,0,0,1,.42,2A6.38,6.38,0,0,1,243,279.68Z"/>
    <path class="cls-12" d="M344.57,266.86a1,1,0,0,1,0-.15l-.09-.47-.33-1.81c-.29-1.6-.7-3.92-1.22-6.86l.11.08-9.6,1.54h-.12l0-.12c-1-5.77-2.13-12.71-3.4-20.34l.19.13-13.1,3-6.68,1.55-.16,0,0-.16c-1.41-5.77-2.73-11.23-3.72-16.27l.17.12-19.5,3-.1,0v-.1c-.38-3.12-.68-5.6-.88-7.31-.1-.83-.17-1.48-.22-1.94l-.05-.49c0-.12,0-.17,0-.17a.5.5,0,0,1,0,.16l.08.5c.06.45.15,1.1.27,1.93.23,1.71.55,4.18,1,7.3L287,230l19.48-3.09.14,0,0,.14c1,5,2.33,10.49,3.75,16.25l-.19-.12,6.67-1.55,13.11-3,.17,0,0,.16c1.25,7.63,2.39,14.59,3.34,20.36l-.15-.11,9.61-1.47h.09l0,.09,1.12,6.87c.13.79.22,1.4.29,1.82,0,.2.05.35.07.47S344.58,266.86,344.57,266.86Z"/>
    <path class="cls-8" d="M346.72,253.6l-.18.06-.53.16c-.45.16-1.15.31-2,.63a41,41,0,0,0-7.06,3.14,49.15,49.15,0,0,0-9.27,6.74,64.23,64.23,0,0,0-9.2,10.59,95,95,0,0,0-7.05,12.17c-1.91,3.88-3.44,7.47-4.68,10.5s-2.22,5.5-2.89,7.21c-.33.83-.6,1.49-.79,2l-.21.5c-.05.12-.07.17-.08.17a1.35,1.35,0,0,1,.05-.18c.05-.13.11-.31.18-.52.18-.47.42-1.14.73-2,.64-1.72,1.57-4.2,2.79-7.25s2.73-6.64,4.63-10.55a92.59,92.59,0,0,1,7.05-12.22,62.68,62.68,0,0,1,9.27-10.63,48.85,48.85,0,0,1,9.35-6.72,39.42,39.42,0,0,1,7.14-3.06c.87-.3,1.57-.43,2-.56l.53-.13C346.65,253.6,346.71,253.59,346.72,253.6Z"/>
  </g>
  <g>
    <path class="cls-9" d="M145.05,197.22l.09,1.72a1.45,1.45,0,0,1,.94-.41,1.49,1.49,0,0,1,.16,3,1.42,1.42,0,0,1-1-.31l.09,1.72a1.47,1.47,0,0,1,2.48,1,1.46,1.46,0,0,1-2.36,1.26l.09,1.72a1.5,1.5,0,0,1,.93-.41,1.49,1.49,0,0,1,.16,3,1.5,1.5,0,0,1-1-.3l.09,1.72a1.45,1.45,0,0,1,.94-.41,1.49,1.49,0,0,1,.16,3,1.46,1.46,0,0,1-1-.31l.1,1.72a1.48,1.48,0,1,1,1.09,2.56,1.42,1.42,0,0,1-1-.3l.09,1.72a1.43,1.43,0,0,1,.93-.41,1.49,1.49,0,1,1-.81,2.67l.06,1.06,45.79-1.1-2.32-26.67Z"/>
    <g>
      <g>
        <path class="cls-11" d="M144,196.12l.09,1.72a1.45,1.45,0,0,1,.94-.41,1.49,1.49,0,1,1-.82,2.67l.09,1.72a1.45,1.45,0,0,1,.94-.41,1.49,1.49,0,0,1,.16,3,1.42,1.42,0,0,1-1-.31l.09,1.72a1.42,1.42,0,0,1,.93-.4,1.48,1.48,0,0,1,.16,3,1.44,1.44,0,0,1-1-.3l.09,1.72a1.45,1.45,0,0,1,.93-.41,1.49,1.49,0,0,1,.16,3,1.45,1.45,0,0,1-1-.31l.09,1.72a1.49,1.49,0,0,1,.94-.4,1.48,1.48,0,0,1,1.55,1.4,1.49,1.49,0,0,1-1.39,1.57,1.51,1.51,0,0,1-1-.31l.1,1.72a1.48,1.48,0,1,1,1.09,2.56,1.46,1.46,0,0,1-1-.3l.05,1.06,45.79-2.45-1.33-24.92Z"/>
        <path class="cls-10" d="M190.09,198.61c0,.09-10.24.71-22.88,1.39s-22.9,1.15-22.91,1.06,10.24-.72,22.89-1.39S190.09,198.51,190.09,198.61Z"/>
        <path class="cls-10" d="M190.3,202.59c0,.09-10.24.72-22.88,1.39s-22.9,1.15-22.9,1.06,10.24-.71,22.88-1.39S190.3,202.5,190.3,202.59Z"/>
        <path class="cls-10" d="M190.52,206.58c0,.09-10.24.71-22.89,1.39s-22.89,1.15-22.9,1.06,10.24-.71,22.89-1.39S190.51,206.49,190.52,206.58Z"/>
        <path class="cls-10" d="M190.73,210.57c0,.09-10.24.71-22.88,1.39S145,213.11,144.94,213s10.24-.72,22.89-1.39S190.73,210.47,190.73,210.57Z"/>
        <path class="cls-10" d="M190.94,214.55c0,.09-10.24.72-22.88,1.39s-22.9,1.15-22.9,1.06,10.24-.71,22.88-1.39S190.94,214.46,190.94,214.55Z"/>
        <rect class="cls-4" x="150.91" y="195.77" width="0.32" height="24.96" transform="translate(-10.91 8.37) rotate(-3.06)"/>
        <path class="cls-10" d="M155.89,220.48c-.09,0-.47-5.57-.83-12.45s-.6-12.46-.51-12.47.47,5.57.84,12.45S156,220.48,155.89,220.48Z"/>
        <path class="cls-10" d="M147.74,220.92c-.09,0-.47-5.57-.84-12.45s-.59-12.47-.5-12.47.47,5.57.83,12.45S147.83,220.91,147.74,220.92Z"/>
        <path class="cls-10" d="M160.35,220.24c-.09,0-.46-5.57-.83-12.45s-.59-12.46-.5-12.47.46,5.57.83,12.45S160.44,220.24,160.35,220.24Z"/>
        <path class="cls-10" d="M164.82,220c-.1,0-.47-5.57-.84-12.45s-.59-12.46-.5-12.47.47,5.57.83,12.46S164.91,220,164.82,220Z"/>
        <path class="cls-10" d="M169.28,219.76c-.09,0-.46-5.57-.83-12.45s-.59-12.46-.5-12.46.46,5.56.83,12.45S169.37,219.76,169.28,219.76Z"/>
        <path class="cls-10" d="M173.74,219.53c-.09,0-.46-5.57-.83-12.45s-.59-12.47-.5-12.47.46,5.57.83,12.45S173.83,219.52,173.74,219.53Z"/>
        <path class="cls-10" d="M178.21,219.29c-.09,0-.47-5.57-.83-12.45s-.6-12.47-.51-12.47.47,5.57.84,12.45S178.3,219.28,178.21,219.29Z"/>
        <path class="cls-10" d="M182.67,219.05c-.09,0-.46-5.57-.83-12.45s-.59-12.47-.5-12.47.46,5.57.83,12.45S182.76,219,182.67,219.05Z"/>
        <path class="cls-10" d="M187.14,218.81c-.1,0-.47-5.57-.84-12.45s-.59-12.47-.5-12.47.47,5.57.83,12.45S187.23,218.8,187.14,218.81Z"/>
      </g>
      <path class="cls-8" d="M186.58,203.72a1.23,1.23,0,0,1-.33.05l-.93.08-3.44.23c-2.91.18-6.93.41-11.37.63s-8.46.39-11.37.48a30.78,30.78,0,0,1-4.72,0l16.08-.81,11.37-.53,3.44-.13.94,0A1.19,1.19,0,0,1,186.58,203.72Z"/>
      <path class="cls-8" d="M187.51,208.27c0,.09-7.39.51-16.5.92s-16.51.69-16.52.6,7.39-.51,16.5-.93S187.5,208.18,187.51,208.27Z"/>
      <path class="cls-8" d="M188,212.26c0,.09-7.39.5-16.5.92s-16.51.68-16.52.59,7.39-.5,16.5-.92S188,212.17,188,212.26Z"/>
      <path class="cls-10" d="M149.17,198.74a4,4,0,0,0,1.46,2.57,2.62,2.62,0,1,0,1-4.72"/>
      <g>
        <path class="cls-14" d="M149.06,198.73a2.08,2.08,0,1,0,2-2.19A2.08,2.08,0,0,0,149.06,198.73Z"/>
        <path class="cls-14" d="M147.86,198a1.24,1.24,0,0,0,1.31,1.18,1.25,1.25,0,1,0-.13-2.49A1.24,1.24,0,0,0,147.86,198Z"/>
        <path class="cls-8" d="M149,199.12c0-.05.2,0,.45-.13a1.19,1.19,0,0,0,.71-.69,1.29,1.29,0,0,0-.09-1c-.13-.24-.27-.36-.25-.4s.23,0,.44.27a1.32,1.32,0,0,1,.22,1.24,1.29,1.29,0,0,1-1,.81C149.2,199.26,149,199.15,149,199.12Z"/>
        <path class="cls-8" d="M150.07,197.13c0-.08.36,0,.71-.07s.59-.3.66-.25-.09.45-.59.57S150,197.2,150.07,197.13Z"/>
        <path class="cls-8" d="M150.39,200.29c-.09,0-.18-.38-.51-.69s-.72-.37-.71-.46.5-.19.94.22S150.48,200.31,150.39,200.29Z"/>
      </g>
      <path class="cls-10" d="M184.36,197.27a4,4,0,0,0,1.46,2.57,2.62,2.62,0,1,0,1-4.72"/>
      <g>
        <path class="cls-4" d="M188.38,196.7a2,2,0,1,1-2.11-1.9A2,2,0,0,1,188.38,196.7Z"/>
        <path class="cls-4" d="M189.45,195.84A1.21,1.21,0,1,1,187,196a1.21,1.21,0,0,1,1.14-1.27A1.19,1.19,0,0,1,189.45,195.84Z"/>
        <path class="cls-8" d="M188.46,197.07s-.16.16-.48.15a1.21,1.21,0,0,1-1-.67,1.29,1.29,0,0,1,.08-1.22c.18-.27.38-.34.4-.31s-.1.17-.19.42a1.23,1.23,0,0,0,0,1,1.15,1.15,0,0,0,.75.59C188.26,197.06,188.44,197,188.46,197.07Z"/>
        <path class="cls-8" d="M187.24,195.27c.07.06-.23.38-.72.33s-.71-.45-.63-.49.33.12.67.16S187.19,195.19,187.24,195.27Z"/>
        <path class="cls-8" d="M187.26,198.34c-.09,0-.21-.47.17-.92s.9-.41.89-.32-.36.2-.64.53S187.35,198.34,187.26,198.34Z"/>
      </g>
    </g>
  </g>
  <g>
    <polygon class="cls-10" points="110.43 256.58 147.86 261.35 147.36 247.65 110.43 256.58"/>
    <rect class="cls-14" x="110.84" y="246.4" width="36.06" height="11.97" transform="translate(21.43 -9.84) rotate(4.77)"/>
    <path class="cls-8" d="M142.29,251.5c0,.09-6-.34-13.46-.95s-13.44-1.2-13.44-1.29,6,.34,13.46,1S142.29,251.41,142.29,251.5Z"/>
    <path class="cls-8" d="M142.21,254.62c0,.09-6-.34-13.45-1s-13.45-1.2-13.44-1.29,6,.34,13.46,1S142.22,254.52,142.21,254.62Z"/>
    <polygon class="cls-9" points="122.06 244.1 135.98 245.27 135.24 245.89 136.2 246.72 135.06 247.24 136.08 248.14 121.49 246.92 122.4 246.15 121.94 245.33 122.73 244.93 122.06 244.1"/>
  </g>
  <g>
    <path class="cls-10" d="M89.21,222.52a1.62,1.62,0,1,1-3,.82,1.53,1.53,0,0,1,.23-.82H84.55a1.62,1.62,0,1,1-2.78,0H79.9a1.62,1.62,0,1,1-3,.82,1.53,1.53,0,0,1,.23-.82H75.24a1.62,1.62,0,1,1-2.78,0H70.59a1.62,1.62,0,1,1-3,.82,1.53,1.53,0,0,1,.23-.82H65.93a1.62,1.62,0,1,1-2.78,0H62V256l29.24,1.6-1.39-35Z"/>
    <g>
      <g class="cls-16">
        <path class="cls-11" d="M88.78,221.61a1.62,1.62,0,1,1-2.78,0H84.13a1.62,1.62,0,1,1-3,.82,1.53,1.53,0,0,1,.23-.82H79.47a1.62,1.62,0,1,1-2.78,0H74.82a1.62,1.62,0,1,1-3,.82,1.53,1.53,0,0,1,.23-.82H70.16a1.62,1.62,0,1,1-2.78,0H65.5a1.53,1.53,0,0,1,.23.82,1.62,1.62,0,1,1-3-.82H61.55V255H89.4V221.61Z"/>
        <path class="cls-10" d="M59.85,256.58c-.09,0-.25-8.1-.35-18.09s-.11-18.1,0-18.1.25,8.1.35,18.09S59.94,256.58,59.85,256.58Z"/>
        <path class="cls-10" d="M64.32,256.53c-.09,0-.25-8.1-.35-18.09s-.11-18.1,0-18.1.25,8.1.35,18.1S64.41,256.53,64.32,256.53Z"/>
        <path class="cls-10" d="M66.54,256.53c-.09,0-.25-8.1-.35-18.09s-.11-18.1,0-18.1.25,8.1.35,18.1S66.63,256.53,66.54,256.53Z"/>
        <path class="cls-10" d="M71.06,256.53c-.09,0-.25-8.1-.35-18.09s-.11-18.1,0-18.1.25,8.1.35,18.1S71.15,256.53,71.06,256.53Z"/>
        <path class="cls-10" d="M75.58,256.53c-.09,0-.25-8.1-.35-18.09s-.11-18.1,0-18.1.25,8.1.35,18.1S75.67,256.53,75.58,256.53Z"/>
        <path class="cls-10" d="M80.1,256.53c-.1,0-.25-8.1-.36-18.09s-.11-18.1,0-18.1.24,8.1.35,18.1S80.19,256.53,80.1,256.53Z"/>
        <path class="cls-10" d="M84.38,256.53c-.09,0-.25-8.1-.35-18.09s-.11-18.1,0-18.1.25,8.1.35,18.1S84.47,256.53,84.38,256.53Z"/>
        <path class="cls-10" d="M88.67,256.53c-.09,0-.25-8.1-.35-18.09s-.11-18.1,0-18.1.25,8.1.35,18.1S88.76,256.53,88.67,256.53Z"/>
        <path class="cls-10" d="M68.79,256.49c-.09,0-.25-8.1-.35-18.1s-.11-18.09,0-18.09.25,8.1.35,18.09S68.88,256.49,68.79,256.49Z"/>
        <path class="cls-10" d="M73.26,256.44c-.09,0-.25-8.1-.35-18.09s-.11-18.1,0-18.1.25,8.1.35,18.09S73.35,256.44,73.26,256.44Z"/>
        <path class="cls-10" d="M77.73,256.4c-.09,0-.25-8.11-.35-18.1s-.11-18.09,0-18.1.25,8.1.35,18.1S77.82,256.39,77.73,256.4Z"/>
        <path class="cls-10" d="M82.2,256.35c-.09,0-.25-8.1-.35-18.09s-.11-18.1,0-18.1.25,8.1.35,18.09S82.29,256.35,82.2,256.35Z"/>
        <path class="cls-10" d="M86.49,256.58c-.09,0-.25-8.1-.35-18.09s-.11-18.1,0-18.1.25,8.1.35,18.09S86.58,256.58,86.49,256.58Z"/>
        <path class="cls-10" d="M91.14,256.26c-.09,0-.24-8.1-.35-18.09s-.11-18.1,0-18.1.25,8.1.35,18.09S91.23,256.26,91.14,256.26Z"/>
        <path class="cls-10" d="M95.94,252c0,.09-8.1.24-18.09.34s-18.1.11-18.1,0,8.1-.25,18.09-.35S95.94,251.93,95.94,252Z"/>
        <path class="cls-10" d="M96.13,254.3c0,.09-8.1.25-18.1.35s-18.09.11-18.09,0,8.1-.24,18.09-.34S96.13,254.21,96.13,254.3Z"/>
        <path class="cls-10" d="M95.89,247.55c0,.09-8.1.24-18.09.34s-18.09.11-18.1,0,8.1-.25,18.1-.35S95.89,247.46,95.89,247.55Z"/>
        <path class="cls-10" d="M95.85,243.08c0,.09-8.1.24-18.09.34s-18.1.11-18.1,0,8.1-.25,18.09-.35S95.85,243,95.85,243.08Z"/>
        <path class="cls-10" d="M95.81,238.61c0,.09-8.1.24-18.1.34s-18.09.11-18.09,0,8.09-.25,18.09-.35S95.8,238.51,95.81,238.61Z"/>
        <path class="cls-10" d="M95.76,234.14c0,.09-8.1.24-18.09.34s-18.1.11-18.1,0,8.1-.25,18.1-.35S95.76,234,95.76,234.14Z"/>
        <path class="cls-10" d="M95.72,229.67c0,.09-8.1.24-18.1.34s-18.09.11-18.09,0,8.09-.25,18.09-.35S95.72,229.57,95.72,229.67Z"/>
        <path class="cls-10" d="M95.67,225.2c0,.09-8.1.24-18.09.34s-18.1.11-18.1,0,8.1-.25,18.1-.35S95.67,225.1,95.67,225.2Z"/>
        <path class="cls-10" d="M95.67,223.4c0,.1-8.1.25-18.09.35s-18.1.11-18.1,0,8.1-.25,18.1-.35S95.67,223.31,95.67,223.4Z"/>
        <path class="cls-10" d="M95.67,227.48c0,.09-8.1.25-18.09.35s-18.1.1-18.1,0,8.1-.25,18.1-.35S95.67,227.39,95.67,227.48Z"/>
        <path class="cls-10" d="M95.67,231.91c0,.1-8.1.25-18.09.35s-18.1.11-18.1,0,8.1-.25,18.1-.35S95.67,231.82,95.67,231.91Z"/>
        <path class="cls-10" d="M95.67,236.35c0,.09-8.1.24-18.09.34s-18.1.11-18.1,0,8.1-.25,18.1-.35S95.67,236.26,95.67,236.35Z"/>
        <path class="cls-10" d="M95.67,240.78c0,.09-8.1.25-18.09.35s-18.1.11-18.1,0,8.1-.24,18.1-.34S95.67,240.69,95.67,240.78Z"/>
        <path class="cls-10" d="M95.67,245.22c0,.09-8.1.24-18.09.34s-18.1.11-18.1,0,8.1-.25,18.1-.35S95.67,245.13,95.67,245.22Z"/>
        <path class="cls-10" d="M95.67,249.65c0,.09-8.1.25-18.09.35s-18.1.11-18.1,0,8.1-.24,18.1-.34S95.67,249.56,95.67,249.65Z"/>
        <path class="cls-1" d="M88.78,221.61a1.62,1.62,0,1,1-2.78,0H84.13a1.62,1.62,0,1,1-3,.82,1.53,1.53,0,0,1,.23-.82H79.47a1.62,1.62,0,1,1-2.78,0H74.82a1.62,1.62,0,1,1-3,.82,1.53,1.53,0,0,1,.23-.82H70.16a1.62,1.62,0,1,1-2.78,0H65.5a1.53,1.53,0,0,1,.23.82,1.62,1.62,0,1,1-3-.82H61.55V255H89.4V221.61Z"/>
      </g>
      <path class="cls-10" d="M73.56,226.45A4,4,0,0,0,75,229a2.62,2.62,0,1,0,1-4.72"/>
      <g>
        <path class="cls-4" d="M73.51,226.44a2.08,2.08,0,1,0,2-2.19A2.08,2.08,0,0,0,73.51,226.44Z"/>
        <path class="cls-4" d="M72.31,225.67a1.25,1.25,0,0,0,1.32,1.18,1.25,1.25,0,1,0-.13-2.49A1.25,1.25,0,0,0,72.31,225.67Z"/>
        <path class="cls-8" d="M73.48,226.83c0-.05.2,0,.45-.13a1.19,1.19,0,0,0,.71-.69,1.33,1.33,0,0,0-.09-1c-.13-.24-.28-.36-.25-.4s.23,0,.44.27a1.3,1.3,0,0,1,.21,1.24,1.26,1.26,0,0,1-1,.81C73.65,227,73.47,226.86,73.48,226.83Z"/>
        <path class="cls-8" d="M74.53,224.84c0-.08.35,0,.7-.07s.6-.3.67-.25-.09.45-.59.57S74.47,224.91,74.53,224.84Z"/>
        <path class="cls-8" d="M74.85,228c-.09,0-.18-.39-.51-.7s-.72-.37-.72-.46.5-.19.95.22S74.94,228,74.85,228Z"/>
      </g>
    </g>
    <path class="cls-8" d="M86.28,233.55c0,.09-4.44.17-9.93.17s-9.92-.08-9.92-.17,4.44-.16,9.92-.16S86.28,233.46,86.28,233.55Z"/>
    <path class="cls-8" d="M86.28,235.61c0,.1-4.44.17-9.93.17s-9.92-.07-9.92-.17,4.44-.16,9.92-.16S86.28,235.52,86.28,235.61Z"/>
    <path class="cls-8" d="M86.28,237.68c0,.09-4.44.16-9.93.16s-9.92-.07-9.92-.16,4.44-.17,9.92-.17S86.28,237.59,86.28,237.68Z"/>
    <path class="cls-8" d="M86.28,239.74c0,.09-4.44.17-9.93.17s-9.92-.08-9.92-.17,4.44-.16,9.92-.16S86.28,239.65,86.28,239.74Z"/>
    <path class="cls-8" d="M86.28,241.8c0,.1-4.44.17-9.93.17s-9.92-.07-9.92-.17,4.44-.16,9.92-.16S86.28,241.71,86.28,241.8Z"/>
    <path class="cls-8" d="M86.28,243.87c0,.09-4.44.16-9.93.16s-9.92-.07-9.92-.16,4.44-.17,9.92-.17S86.28,243.78,86.28,243.87Z"/>
    <path class="cls-8" d="M86.28,245.93c0,.09-4.44.17-9.93.17s-9.92-.08-9.92-.17,4.44-.16,9.92-.16S86.28,245.84,86.28,245.93Z"/>
  </g>
  <g>
    <g>
      <g>
        <path class="cls-8" d="M37.25,340.92a.67.67,0,0,1-.65-.5L14,254.34a.68.68,0,0,1,.49-.83.66.66,0,0,1,.82.48l22.59,86.08a.69.69,0,0,1-.48.83Z"/>
        <path class="cls-8" d="M31.29,343.05a.68.68,0,0,1-.66-.5L8.05,256.47a.67.67,0,0,1,.48-.83.68.68,0,0,1,.83.48L31.94,342.2a.68.68,0,0,1-.48.83Z"/>
        <polygon class="cls-8" points="10.76 252.73 9.67 251.92 67.67 173.87 120.57 184.01 120.31 185.34 68.25 175.36 10.76 252.73"/>
        <rect class="cls-8" x="-4.19" y="214.59" width="95.87" height="1.35" transform="translate(-155.29 122.32) rotate(-53.48)"/>
        <path class="cls-4" d="M66.22,177.46a3.83,3.83,0,1,0,2.4-4.87A3.84,3.84,0,0,0,66.22,177.46Z"/>
      </g>
      <g>
        <polygon class="cls-4" points="118.07 179.65 117.12 174.13 121.2 173.83 121.5 179.15 118.07 179.65"/>
        <g class="cls-17">
          <polygon points="118.07 179.65 117.12 174.13 121.2 173.83 121.5 179.15 118.07 179.65"/>
        </g>
        <polyline class="cls-4" points="114.73 179.27 110.96 199.72 101.42 226.75 155.13 219.01 133.46 195.41 124.41 177.87 114.73 179.27"/>
      </g>
    </g>
    <path class="cls-4" d="M7,255a4.26,4.26,0,1,0,4.26-4.27A4.26,4.26,0,0,0,7,255Z"/>
    <path class="cls-4" d="M20.25,358.14c0-.28,0-.56,0-.85a17,17,0,1,1,34.09,0c0,.29,0,.57,0,.85Z"/>
  </g>
  <g>
    <g>
      <path class="cls-18" d="M113.23,351.76c-.21,0-1.1.95.17,2.4s9,5.38,10.39,3-2-4-2-4Z"/>
      <path class="cls-18" d="M121.68,349.22s7.94-.88,11.18-.46a11.56,11.56,0,0,0,9.46-3.75,12.74,12.74,0,0,0,2.79-5.62l5-3.53s.55-12-7.46-10.07l-9.36.32s-18.41,3.05-21.27,5.35c0,0-3.46,3.37-4.47,4.67-.39.5-.71,5.45,2.81,7.13,0,0-2.08,2.66-.25,4.15l.86.65s-1.19,2.65-.07,3.41,10,3.44,12.46,1.69-.4-3.76-1.73-3.94"/>
      <path class="cls-19" d="M111.78,342.8a5.57,5.57,0,0,1,1,.11c.67.09,1.64.2,2.83.29.6,0,1.26.08,2,.09s1.46,0,2.27.06a4.7,4.7,0,0,1,2.43.77,2.69,2.69,0,0,1,1.18,2.45,2,2,0,0,1-.71,1.25,3.58,3.58,0,0,1-1.2.67,10.86,10.86,0,0,1-2.49.46,22.35,22.35,0,0,1-4.24-.08c-1.2-.13-2.16-.29-2.83-.4a7.93,7.93,0,0,1-1-.21,5.75,5.75,0,0,1,1,.08c.67.08,1.64.2,2.83.3a24.35,24.35,0,0,0,4.2,0,11.41,11.41,0,0,0,2.4-.46,3.49,3.49,0,0,0,1.1-.61,1.86,1.86,0,0,0,.6-1.06,2.4,2.4,0,0,0-1.06-2.14,4.42,4.42,0,0,0-2.26-.73c-.78-.07-1.54,0-2.25-.08s-1.37-.08-2-.14c-1.2-.11-2.16-.27-2.83-.39A6.42,6.42,0,0,1,111.78,342.8Z"/>
      <path class="cls-19" d="M111.14,337.06a6.42,6.42,0,0,1,1,.12c.67.08,1.63.21,2.82.31s2.61.19,4.19.19a5.47,5.47,0,0,1,2.51.37,2,2,0,0,1,1,1,2.49,2.49,0,0,1,.13,1.43,3.37,3.37,0,0,1-1.6,2.2,5.51,5.51,0,0,1-2.41.78,24.91,24.91,0,0,1-4.23-.19l-2.82-.29a5.67,5.67,0,0,1-1-.15,7.46,7.46,0,0,1,1,0l2.83.18a26.22,26.22,0,0,0,4.17.13,5.06,5.06,0,0,0,2.27-.76,3.08,3.08,0,0,0,1.46-2,1.88,1.88,0,0,0-.91-2.1,5.44,5.44,0,0,0-2.36-.36c-1.59,0-3-.12-4.21-.25s-2.16-.3-2.82-.43A6.44,6.44,0,0,1,111.14,337.06Z"/>
      <path class="cls-19" d="M115.24,337.76a8.71,8.71,0,0,1-.72-1.47,9.47,9.47,0,0,1-.77-1.44c.07-.06.64.46,1.06,1.29A2.82,2.82,0,0,1,115.24,337.76Z"/>
      <g>
        <path class="cls-18" d="M139.53,326.27l-7.51-1s-21.22-4.33-21.43-3.77-1.25.76-.47,3,13,4.29,13.58,5,.93,4.94,5.74,6.88,7.79,1.28,7.79,1.28"/>
        <path class="cls-19" d="M137.23,337.7l-.16.05-.49.06a10.59,10.59,0,0,1-1.89,0,16.21,16.21,0,0,1-2.94-.52,15.82,15.82,0,0,1-3.69-1.43,8.59,8.59,0,0,1-3.31-3.46,21,21,0,0,1-1-2.47,1.71,1.71,0,0,0-.14-.27c0-.06-.12-.1-.22-.15s-.42-.15-.64-.22c-.45-.14-.91-.26-1.38-.38-1.86-.49-3.84-1-5.86-1.55-1-.3-2-.63-3-1a9.84,9.84,0,0,1-1.49-.74,3.17,3.17,0,0,1-.69-.53,2.21,2.21,0,0,1-.26-.39,4.13,4.13,0,0,1-.14-.42,3.07,3.07,0,0,1-.1-1.73,2,2,0,0,1,.46-.75,1.23,1.23,0,0,0,.21-.29s0,0,0-.08.09-.06.12-.08l.14,0H111c1.11.07,2.15.26,3.2.42,2.07.34,4.07.71,6,1.07,3.79.72,7.2,1.41,10.06,2,.72.14,1.4.3,2,.41l1.84.26,3,.42,1.86.28.48.08.17,0h-.17l-.49-.05L137,326l-3-.37-1.84-.23c-.66-.1-1.33-.26-2-.39l-10.08-1.93c-1.9-.35-3.89-.71-6-1.05-1-.16-2.1-.35-3.15-.41h-.19s-.07,0-.06,0,0,0,0,0,0-.05,0-.07l0,0c.25.1.07,0,.12.06v0a1.94,1.94,0,0,1-.26.38,1.64,1.64,0,0,0-.4.63,2.82,2.82,0,0,0,.11,1.54,1.41,1.41,0,0,0,.33.67,2.87,2.87,0,0,0,.61.48,10.18,10.18,0,0,0,1.44.72c1,.4,2,.73,3,1,2,.59,4,1.07,5.85,1.56.47.13.93.25,1.38.39.23.08.46.15.68.25a.79.79,0,0,1,.34.24,1.3,1.3,0,0,1,.17.33,18.3,18.3,0,0,0,1,2.46,8.34,8.34,0,0,0,3.18,3.38,16.07,16.07,0,0,0,3.62,1.45,16.47,16.47,0,0,0,2.9.57,12,12,0,0,0,1.88.07l.48,0Z"/>
      </g>
      <path class="cls-19" d="M119.37,348.84a2.44,2.44,0,0,1,.78,0,7.4,7.4,0,0,1,2,.61,6.23,6.23,0,0,1,1.28.76,2.25,2.25,0,0,1,.94,1.47,1.83,1.83,0,0,1-.94,1.68,3.54,3.54,0,0,1-2,.42,38.38,38.38,0,0,1-6.93-1,20.87,20.87,0,0,1-2-.63,3,3,0,0,1-.72-.31,3.86,3.86,0,0,1,.76.19c.48.14,1.17.32,2,.52a46.27,46.27,0,0,0,6.89.92,3.37,3.37,0,0,0,1.84-.36,1.55,1.55,0,0,0,.81-1.38,2.05,2.05,0,0,0-.81-1.29,7.08,7.08,0,0,0-1.21-.76A11.35,11.35,0,0,0,119.37,348.84Z"/>
    </g>
    <path class="cls-4" d="M174.6,305.47S184,290,186.13,279.76s13-26.43,16.56-30.66,17.63-9.17,17.63-9.17l5.2-2.8,40.27-3.54s26.79,2.82,34.89,10.22,14.46,24.32,14.46,32.78,8.18,81.72,8.18,81.72l-99.23-.13,2.22-36.12s-12-8.11-15.16-15.16-1.41-3.52-1.41-3.52-11.25,23.92-15.12,26.74-49,16.65-49,16.65l-6.17-23.65Z"/>
    <path class="cls-4" d="M291.77,246.76c-1.09.34-14.53,35.06-15.48,38.22s0,23,0,23l4.42,8.21s-1.26,6-.31,8.84l-19.9,3.79s-5.05-3.47-9.79,0l-23.47,2s6.89.08,4.84,10.65c-2,10.35-3.54,12.63-3.54,12.63L311,352.25s9.16-.45,7.77-18.07S313.47,268,313.47,268,307.45,241.9,291.77,246.76Z"/>
    <path class="cls-8" d="M276.11,305.25a2.15,2.15,0,0,1-.2-.42l-.5-1.25c-.22-.55-.48-1.21-.73-2s-.59-1.67-.86-2.68-.61-2.11-.88-3.31-.55-2.49-.81-3.85a71.38,71.38,0,0,1-1-9,70.6,70.6,0,0,1,.27-9c.16-1.37.3-2.68.52-3.89.1-.61.18-1.2.3-1.76l.34-1.61c.2-1,.46-1.94.67-2.74s.4-1.49.59-2l.41-1.28a2.78,2.78,0,0,1,.17-.44,2.16,2.16,0,0,1-.1.46l-.36,1.3c-.16.56-.35,1.25-.54,2.06s-.43,1.71-.61,2.74l-.32,1.61c-.11.56-.18,1.14-.28,1.75-.21,1.21-.33,2.51-.49,3.88a76.18,76.18,0,0,0-.24,9,73,73,0,0,0,.94,8.91c.25,1.35.47,2.64.77,3.84s.56,2.3.84,3.3.56,1.9.81,2.7.47,1.46.67,2l.44,1.27A3,3,0,0,1,276.11,305.25Z"/>
    <path class="cls-8" d="M304.81,342.9s-.08-.07-.21-.24l-.56-.73c-.23-.32-.52-.71-.88-1.14s-.74-1-1.22-1.47-1-1.12-1.56-1.71-1.22-1.22-1.89-1.87a48.74,48.74,0,0,0-4.75-3.8,47.07,47.07,0,0,0-5.24-3.1c-.84-.41-1.64-.81-2.41-1.12s-1.49-.61-2.15-.85-1.28-.45-1.81-.63-1-.31-1.38-.42l-.88-.26a1.2,1.2,0,0,1-.3-.11l.32.05.89.2a14.26,14.26,0,0,1,1.4.37c.55.16,1.17.32,1.84.57s1.41.5,2.18.83,1.58.69,2.44,1.09a47,47,0,0,1,5.29,3.11,44.2,44.2,0,0,1,4.76,3.85c.68.66,1.33,1.27,1.89,1.9s1.09,1.2,1.54,1.75.84,1.06,1.19,1.51.62.84.84,1.18l.5.76A1.75,1.75,0,0,1,304.81,342.9Z"/>
    <path class="cls-8" d="M311.75,338.27c0,.05-.78-.78-2.15-1.9a20.27,20.27,0,0,0-2.55-1.78A21.44,21.44,0,0,0,300,331.9a21.62,21.62,0,0,0-3.09-.36c-1.77-.07-2.87.07-2.88,0a3.59,3.59,0,0,1,.77-.13c.25,0,.55-.07.91-.08s.76,0,1.21,0a18.94,18.94,0,0,1,3.13.29,20.33,20.33,0,0,1,7.19,2.73,19.29,19.29,0,0,1,2.54,1.86c.35.28.63.57.89.82a9,9,0,0,1,.63.66A3.11,3.11,0,0,1,311.75,338.27Z"/>
    <path class="cls-8" d="M304.13,326.66c-.05.06-1-.71-2.8-1.59a13.91,13.91,0,0,0-1.48-.65c-.53-.23-1.13-.4-1.76-.6a20.18,20.18,0,0,0-8.42-.57c-.65.11-1.26.2-1.82.35a14.89,14.89,0,0,0-1.56.44c-1.88.63-3,1.26-3,1.2a4.6,4.6,0,0,1,.75-.45,5.88,5.88,0,0,1,.91-.46,11.1,11.1,0,0,1,1.25-.51,12.75,12.75,0,0,1,1.57-.48,18,18,0,0,1,1.84-.39,19.37,19.37,0,0,1,8.56.58,17.31,17.31,0,0,1,1.77.64,14.93,14.93,0,0,1,1.49.69,13.06,13.06,0,0,1,1.17.68,8,8,0,0,1,.84.57A6,6,0,0,1,304.13,326.66Z"/>
    <path class="cls-8" d="M255.88,352.7a29.4,29.4,0,0,0,.59-3.53,23,23,0,0,0,0-3.88,28.9,28.9,0,0,0-2.42-9.17,24.63,24.63,0,0,0-1.88-3.39c-1.24-1.83-2.3-2.74-2.24-2.8a8.33,8.33,0,0,1,.73.65,7.25,7.25,0,0,1,.77.83l.46.54c.16.2.31.42.47.65a22,22,0,0,1,2,3.4,27.22,27.22,0,0,1,2.44,9.26,21.07,21.07,0,0,1,0,3.93c0,.27-.06.54-.09.79l-.14.7a8.37,8.37,0,0,1-.26,1.11A5.37,5.37,0,0,1,255.88,352.7Z"/>
    <path class="cls-8" d="M242.05,328.86a1.32,1.32,0,0,1,0-.18c0-.14,0-.32-.09-.55-.07-.5-.17-1.2-.3-2.09-.25-1.81-.59-4.45-1-7.7-.79-6.52-1.72-15.54-2.45-25.52s-1.11-19.05-1.28-25.61c-.09-3.28-.13-5.94-.14-7.77,0-.9,0-1.61,0-2.11v-.55a1.31,1.31,0,0,1,0-.19s0,.06,0,.19l0,.55c0,.5,0,1.21.07,2.11.06,1.85.14,4.5.24,7.76.23,6.56.66,15.61,1.38,25.59s1.63,19,2.35,25.52l.88,7.72q.15,1.34.24,2.1l0,.54C242.05,328.8,242.06,328.86,242.05,328.86Z"/>
    <path class="cls-8" d="M209.65,303.84a6.36,6.36,0,0,1-.43-1l-1.11-2.66c-1-2.25-2.38-5.3-4.08-8.62s-3.25-6.25-4.4-8.47c-.55-1.09-1-2-1.28-2.59a8,8,0,0,1-.43-1,6.41,6.41,0,0,1,.54.91c.36.65.82,1.51,1.38,2.54,1.16,2.15,2.78,5.11,4.48,8.43s3.1,6.4,4,8.68c.45,1.13.8,2.06,1,2.71A6.71,6.71,0,0,1,209.65,303.84Z"/>
    <path class="cls-8" d="M204.58,292.1A2.21,2.21,0,0,1,204,292c-.36-.09-.89-.25-1.52-.45a38,38,0,0,1-4.86-2,37.25,37.25,0,0,1-4.53-2.65c-.55-.38-1-.71-1.28-.94a2.17,2.17,0,0,1-.44-.39,20,20,0,0,1,1.85,1.13,52,52,0,0,0,9.33,4.63A20.83,20.83,0,0,1,204.58,292.1Z"/>
    <path class="cls-8" d="M196.06,313.79a3.27,3.27,0,0,1-.68-.41c-.43-.29-1-.69-1.83-1.17a38.85,38.85,0,0,0-6.41-3.12,38.36,38.36,0,0,0-6.87-1.85c-.9-.16-1.64-.26-2.15-.32a3.34,3.34,0,0,1-.78-.14,3.75,3.75,0,0,1,.8,0c.51,0,1.25.09,2.16.22a33,33,0,0,1,13.37,5c.77.51,1.38.94,1.78,1.26A3.74,3.74,0,0,1,196.06,313.79Z"/>
    <path class="cls-8" d="M264.74,233.64a3.34,3.34,0,0,1,0,.52c0,.37-.1.86-.17,1.47-.17,1.28-.4,3.13-.79,5.4a65.4,65.4,0,0,1-1.78,7.9,36.7,36.7,0,0,1-4,9.08,28.9,28.9,0,0,1-3.31,4.24l-.13.14-.12-.16a16.8,16.8,0,0,0-6-5,17.08,17.08,0,0,0-3.17-1.17,15,15,0,0,0-2.89-.39,12.2,12.2,0,0,0-4.12.58c-.93.33-1.41.57-1.42.54a1.79,1.79,0,0,1,.34-.19,9.21,9.21,0,0,1,1-.45,11.28,11.28,0,0,1,4.16-.68,13.9,13.9,0,0,1,2.95.35,17.14,17.14,0,0,1,3.24,1.16,16.93,16.93,0,0,1,6.16,5.06h-.24a28.26,28.26,0,0,0,3.26-4.2,37.19,37.19,0,0,0,4-9,72.19,72.19,0,0,0,1.84-7.86c.42-2.26.68-4.1.89-5.37.1-.62.17-1.1.23-1.47A4.8,4.8,0,0,1,264.74,233.64Z"/>
    <polygon class="cls-4" points="265.28 234.04 259.16 225.93 252.51 226.14 230.9 237.56 265.28 234.04"/>
    <path class="cls-8" d="M236.79,256.79a1.42,1.42,0,0,1-.36,0,7.18,7.18,0,0,1-1-.16,12.61,12.61,0,0,1-3.41-1.46,7.22,7.22,0,0,0-2.32-1,6.93,6.93,0,0,0-2.87,0,6.72,6.72,0,0,0-4.8,4.17l-.34.93,0-1c0-.25,0-.51,0-.78.08-5,.09-9.54.29-12.82.09-1.64.22-3,.36-3.87.06-.46.13-.81.18-1.05a1.8,1.8,0,0,1,.09-.36s-.06.51-.14,1.42-.19,2.23-.26,3.87c-.14,3.28-.11,7.81-.19,12.82,0,.27,0,.53,0,.78l-.32-.06a7,7,0,0,1,5.05-4.35,7.09,7.09,0,0,1,5.36,1.06,13.46,13.46,0,0,0,3.33,1.53C236.31,256.73,236.79,256.75,236.79,256.79Z"/>
    <g>
      <g>
        <path class="cls-18" d="M259.16,186.65v48.7a11.84,11.84,0,0,1-2.77,7.61h0a35.83,35.83,0,0,1-9.78,8.1l-9.83,5.53-8.12-7.26a11.81,11.81,0,0,1-3.94-8.35c-.14-3.54-.14-7.12-.14-7.12s-13.77-1-15.06-14.56c-.61-6.4-.8-19.49-.83-31.56a26.41,26.41,0,0,1,24.23-26.38l.39,0A25.23,25.23,0,0,1,259.16,186.65Z"/>
        <path class="cls-19" d="M224.54,233.67a31.73,31.73,0,0,0,17.31-6.5s-3.38,10.12-17,10Z"/>
      </g>
      <g>
        <g>
          <g>
            <path class="cls-8" d="M213.26,196.87a2,2,0,0,0,2,1.8,1.85,1.85,0,0,0,1.85-1.91,2,2,0,0,0-2-1.81A1.87,1.87,0,0,0,213.26,196.87Z"/>
            <path class="cls-8" d="M212.16,193.22c.26.24,1.64-1,3.73-1.14s3.7.75,3.91.47c.1-.12-.18-.55-.89-1a5.46,5.46,0,0,0-3.16-.69,5.18,5.18,0,0,0-2.94,1.23C212.21,192.64,212,193.12,212.16,193.22Z"/>
          </g>
          <g>
            <path class="cls-8" d="M233.13,196a2,2,0,0,0,2,1.8,1.86,1.86,0,0,0,1.85-1.91,2,2,0,0,0-2-1.81A1.88,1.88,0,0,0,233.13,196Z"/>
            <path class="cls-8" d="M232.72,191.91c.26.24,1.64-1,3.73-1.14s3.71.75,3.91.47c.1-.12-.18-.55-.89-1a5.32,5.32,0,0,0-3.15-.7,5.21,5.21,0,0,0-2.95,1.23C232.77,191.33,232.59,191.81,232.72,191.91Z"/>
          </g>
          <path class="cls-8" d="M226.42,208a13.62,13.62,0,0,0-3.44-.33c-.54,0-1-.08-1.17-.43a2.67,2.67,0,0,1,.22-1.61c.4-1.34.81-2.73,1.24-4.2,1.71-6,2.91-10.84,2.67-10.91s-1.83,4.71-3.54,10.67c-.41,1.47-.8,2.87-1.17,4.22a3.14,3.14,0,0,0-.11,2.11,1.38,1.38,0,0,0,.95.71,3.69,3.69,0,0,0,.91.05A13.52,13.52,0,0,0,226.42,208Z"/>
          <path class="cls-8" d="M232.69,209c-.34,0-.16,2.27-2,4s-4.24,1.72-4.23,2c0,.14.57.4,1.6.34a5.69,5.69,0,0,0,3.54-1.57,5,5,0,0,0,1.5-3.39C233.14,209.48,232.84,208.94,232.69,209Z"/>
        </g>
        <path class="cls-8" d="M231.5,183.77c.26.55,2.32.11,4.79.2s4.51.6,4.8.06c.12-.25-.27-.76-1.11-1.24a8.35,8.35,0,0,0-7.3-.2C231.81,183,231.39,183.51,231.5,183.77Z"/>
        <path class="cls-8" d="M212.42,187.11c.41.45,1.81-.16,3.54-.33s3.22.05,3.51-.47c.13-.25-.14-.71-.81-1.1a4.85,4.85,0,0,0-2.94-.54,4.94,4.94,0,0,0-2.75,1.18C212.4,186.39,212.24,186.9,212.42,187.11Z"/>
      </g>
      <path class="cls-8" d="M243.17,173l.08.05a10.72,10.72,0,0,1,4.55,6.58q0,.15.06.27c.85,3.84,1.08,7.79,2,11.61s.73,6.75,4.56,7.61a5.1,5.1,0,0,0,5.33-2.17,3.38,3.38,0,0,0,.34-1.81c-.05-9.42,1.84-13.08,1-22.87a8.25,8.25,0,0,0-4-6.43c-2.17-1.3-4.79-2.62-7-1.35s-4.79,5.78-6.4,7.73"/>
      <g>
        <path class="cls-18" d="M255.09,193.18c.22-.12,9.11-3.54,9.58,5.78s-9,7.87-9,7.6S255.09,193.18,255.09,193.18Z"/>
        <path class="cls-19" d="M258.33,202.89s.17.1.45.21a1.63,1.63,0,0,0,1.21,0c1-.41,1.72-2,1.68-3.7a5.42,5.42,0,0,0-.57-2.3,1.87,1.87,0,0,0-1.29-1.18.82.82,0,0,0-.93.49c-.11.27,0,.45-.09.47s-.21-.15-.16-.54a1.06,1.06,0,0,1,.34-.6,1.25,1.25,0,0,1,.89-.28,2.28,2.28,0,0,1,1.77,1.36,5.53,5.53,0,0,1,.69,2.56c0,1.88-.84,3.69-2.16,4.15a1.78,1.78,0,0,1-1.5-.17C258.36,203.11,258.3,202.9,258.33,202.89Z"/>
      </g>
      <path class="cls-8" d="M250.54,165.87c2-3.9-4.73-8.72-9.43-9.79s-10.57,1.67-15,3.56c-2.8,1.2-5.56,2.77-8.61,2.89a20.31,20.31,0,0,1-6-1,15,15,0,0,0-6-.68,5.61,5.61,0,0,0-4.63,3.5c-.62,1.95.7,4.44,2.74,4.55a4.58,4.58,0,1,0-.52,8.56c-1.41-.89-3.29.93-3,2.56s1.89,2.72,3.46,3.26c4,1.38,8.49.46,12.39-1.22s7.45-4.09,11.3-5.87,10.3-4.93,14.41-3.85c3,.79,5.36,4.16,7,3.24a5.68,5.68,0,0,0,2.59-4.42,16.36,16.36,0,0,0-.62-5.28"/>
      <path class="cls-14" d="M202.41,168.73c.08-.06.54.65,1.63,1.65a12.85,12.85,0,0,0,5.43,2.89,11.83,11.83,0,0,0,8.84-1.09c3-1.67,5.51-4.73,8.4-7.66s6.38-5.25,10-5.88a10.75,10.75,0,0,1,9.14,2.34,8.1,8.1,0,0,1,2.6,5.83,6.46,6.46,0,0,1-.25,1.74c-.14.38-.23.57-.26.56a16.83,16.83,0,0,0,.16-2.29,8,8,0,0,0-2.69-5.36,10.21,10.21,0,0,0-8.55-2c-3.4.64-6.71,2.82-9.53,5.7s-5.38,6-8.64,7.75a12.66,12.66,0,0,1-14.93-2.29,8.37,8.37,0,0,1-1.09-1.36A1.73,1.73,0,0,1,202.41,168.73Z"/>
      <path class="cls-14" d="M257.42,192.58s-.42-.23-.83-.94a6.19,6.19,0,0,1-.74-3.33c0-3,2.34-6.44,2.33-10.6a9.36,9.36,0,0,0-1.49-5.46,7.06,7.06,0,0,0-3.7-2.7,6.17,6.17,0,0,0-3.13-.17c-.74.18-1.13.39-1.17.32s.3-.35,1.06-.66a5.81,5.81,0,0,1,3.42-.12,7.53,7.53,0,0,1,4.22,2.84,9.89,9.89,0,0,1,1.71,6,16.63,16.63,0,0,1-1.31,6,18.07,18.07,0,0,0-1.29,4.63A7.29,7.29,0,0,0,257.42,192.58Z"/>
    </g>
    <rect class="cls-8" x="255.93" y="195.97" width="4.78" height="11.07" rx="2.14" transform="translate(205.79 -121.87) rotate(42.82)"/>
    <path class="cls-8" d="M315.2,278.68s0,.13,0,.37.05.62.08,1.1c.07,1,.17,2.4.3,4.26.25,3.73.62,9.19,1.09,16.1s1,15.3,1.64,24.88q.24,3.58.49,7.4c.09,1.26.14,2.56.2,3.87a18.74,18.74,0,0,1,0,2,19.3,19.3,0,0,1-.11,2c-.08.67-.16,1.34-.25,2s-.28,1.34-.43,2-.42,1.32-.63,2-.53,1.3-.87,1.92a11.51,11.51,0,0,1-6.3,5.74h-82.1l0-.21,1.79-6.38c.3-1.06.59-2.11.89-3.15a23.38,23.38,0,0,0,.73-3.14,13.71,13.71,0,0,0-.54-6.24,7.83,7.83,0,0,0-1.49-2.68,4.4,4.4,0,0,0-2.53-1.49l-1.3-.2,1.3-.11,23.47-2-.07,0a8,8,0,0,1,5.05-1.56,10.09,10.09,0,0,1,4.9,1.56l-.1,0,19.9-3.77-.09.15a8.67,8.67,0,0,1-.35-2.34,21.27,21.27,0,0,1,.07-2.27,38.21,38.21,0,0,1,.6-4.29v.07l-4.41-8.22v0c-.31-7.32-.42-13.09-.37-17,0-2,.1-3.48.2-4.5a8.94,8.94,0,0,1,.17-1.14l.09-.38-.06.38a10,10,0,0,0-.15,1.15c-.09,1-.15,2.52-.15,4.49,0,3.94.11,9.71.45,17v0l4.44,8.2v.07a35.71,35.71,0,0,0-.59,4.27,20.73,20.73,0,0,0-.06,2.24,8.45,8.45,0,0,0,.34,2.28l0,.12-.13,0L260.53,329h0l-.06,0a9.94,9.94,0,0,0-4.75-1.51A7.73,7.73,0,0,0,250.8,329l0,0h0l-23.47,2v-.31a4.68,4.68,0,0,1,2.75,1.59,8.32,8.32,0,0,1,1.55,2.79,14.07,14.07,0,0,1,.56,6.39,22.93,22.93,0,0,1-.74,3.18c-.29,1-.59,2.09-.88,3.15l-1.79,6.38-.16-.21h19.71l62.14,0h0a9.42,9.42,0,0,0,3.6-2.22,13.17,13.17,0,0,0,2.51-3.36c.34-.61.58-1.26.87-1.89s.43-1.31.62-2,.29-1.33.43-2,.17-1.34.25-2a18.77,18.77,0,0,0,.11-2,18.52,18.52,0,0,0,0-2c0-1.3-.1-2.58-.19-3.85q-.24-3.81-.47-7.41c-.61-9.57-1.14-17.95-1.58-24.88s-.77-12.37-1-16.11c-.11-1.86-.2-3.29-.26-4.26,0-.48,0-.84,0-1.1S315.2,278.68,315.2,278.68Z"/>
    <path class="cls-8" d="M297.21,244.07s-.4.25-1.13.7a25.48,25.48,0,0,0-2.94,2.11,34.43,34.43,0,0,0-7.61,9.11,74.42,74.42,0,0,0-5.08,10.81c-.55,1.39-1,2.54-1.32,3.38l-.37.92a1.55,1.55,0,0,1-.15.31,1.48,1.48,0,0,1,.09-.34c.08-.25.18-.56.31-.93.27-.82.68-2,1.22-3.43a67.84,67.84,0,0,1,5-10.89,33.06,33.06,0,0,1,7.75-9.13,22,22,0,0,1,3-2c.37-.22.67-.35.88-.46A1.17,1.17,0,0,1,297.21,244.07Z"/>
    <g class="cls-17">
      <path d="M272.35,268.32a42.1,42.1,0,0,0-3.55,19c.24,6.46,1,12.94.38,19.37s-2.87,13-7.67,17.32a6.29,6.29,0,0,0-1.54,1.72,1.75,1.75,0,0,0,.29,2.13,2.55,2.55,0,0,0,2,.21c4.6-.8,9.24-1.37,13.84-2.17,1-.17,4.3-.82,4.3-.82a17.81,17.81,0,0,1-.28-3.77c.14-1.15.59-5.07.59-5.07a6.65,6.65,0,0,0-.88-1.63,38,38,0,0,1-3.81-9.78,44.46,44.46,0,0,1-3-9.44c-2-8.32-2-16.52-.67-27.07"/>
    </g>
    <g class="cls-17">
      <path d="M222,258.84c.38,1,.75,1.91,1.13,2.86a1.16,1.16,0,0,0,.55.72c.56.22,1-.47,1.28-1a7.38,7.38,0,0,1,5.64-4c1.93-.22,3.91.34,5.82-.06a26.49,26.49,0,0,0-5.25-2.61,8.69,8.69,0,0,0-5.76-.05,5.3,5.3,0,0,0-3.48,4.34"/>
    </g>
    <g class="cls-17">
      <path d="M237.7,256.43a31.48,31.48,0,0,1,6.72.6,10.55,10.55,0,0,1,5.76,3.32c1.54,1.88,2.11,4.33,2.73,6.67.12.45.34,1,.8,1a1.16,1.16,0,0,0,.76-.3,22.26,22.26,0,0,0,7.69-11.58,50.58,50.58,0,0,0,1.76-14c-1.81,3.25-2.6,7-3.8,10.47s-3,7.06-6.08,9.09a3.06,3.06,0,0,0-.71-2.23,6.6,6.6,0,0,0-1.85-1.51,17.63,17.63,0,0,0-14.14-1.73"/>
    </g>
    <g>
      <path class="cls-18" d="M227.82,331.26H220s-17.55-6.34-21.16-5.74c-3.25.55-15.15,8.45-17.48,10a1.45,1.45,0,0,0-.57.72h0a2.55,2.55,0,0,0,1.42,3.24l.25.1-.11.36a4.43,4.43,0,0,0-.18,1.42,1.72,1.72,0,0,0,3.19.74l-.45.8a2,2,0,0,0-.25,1.06l0,.73a2,2,0,0,0,1.35,1.74h0a1.94,1.94,0,0,0,2-.53c1.51-1.66,4.77-5,7-5.36a54.18,54.18,0,0,1,7.2-.36,2.47,2.47,0,0,1,2.27,1.56h0c-1.31.1-10.43,4.85-13.66,6.55a3.46,3.46,0,0,0-1.88,2.6c-.11,1,.4,2.07,2.39,1.6,4.29-1,12-4.55,12-4.55s4-1.13,6.56.69c3.63,2.56,5.29,3.49,8.4,2.46a26.13,26.13,0,0,0,5.41-2.51L230,348S235.75,333.48,227.82,331.26Z"/>
      <path class="cls-19" d="M204.64,334.22a32.79,32.79,0,0,0-3.29-.45,17,17,0,0,0-14.19,6.05,31.46,31.46,0,0,0-1.95,2.7,3.79,3.79,0,0,1,.39-.82,15,15,0,0,1,1.38-2,16.52,16.52,0,0,1,14.38-6.14,15.38,15.38,0,0,1,2.43.41A3.72,3.72,0,0,1,204.64,334.22Z"/>
      <path class="cls-19" d="M202.78,330a14.49,14.49,0,0,0-3.43-.6,15.05,15.05,0,0,0-8,2.26,32.53,32.53,0,0,0-6.43,5.44l-1.77,1.88a4.81,4.81,0,0,1-.67.66,5.34,5.34,0,0,1,.58-.75c.38-.47.95-1.14,1.68-1.94a29.18,29.18,0,0,1,6.44-5.57,14.55,14.55,0,0,1,8.16-2.21,9.58,9.58,0,0,1,2.55.46,7,7,0,0,1,.66.26C202.71,329.91,202.79,330,202.78,330Z"/>
    </g>
  </g>
  <g>
    <path class="cls-13" d="M304.13,153.49a26,26,0,0,0-21.31,40.84L279.7,204l9.54-3.25a26,26,0,1,0,14.89-47.27Z"/>
    <g>
      <g>
        <path class="cls-8" d="M297.27,179.27a2.24,2.24,0,0,1-4.48-.13,2.24,2.24,0,1,1,4.48.13Z"/>
        <path class="cls-8" d="M306.24,179.54a2.24,2.24,0,1,1-2.18-2.31A2.24,2.24,0,0,1,306.24,179.54Z"/>
        <path class="cls-8" d="M315.21,178.69a2.24,2.24,0,1,1-3-.91A2.23,2.23,0,0,1,315.21,178.69Z"/>
      </g>
      <path class="cls-8" d="M304.92,153.32h.46l1.33.08c.29,0,.62,0,1,.07l1.17.2,1.36.24,1.52.43a24.76,24.76,0,0,1,7.32,3.45,26.24,26.24,0,0,1,11.44,20.05,28.78,28.78,0,0,1,0,3.59c-.06.6-.07,1.22-.17,1.83s-.23,1.22-.34,1.84a26.32,26.32,0,0,1-2.71,7.22,28.09,28.09,0,0,1-5,6.42,27.31,27.31,0,0,1-7,4.73,25.19,25.19,0,0,1-8.45,2.32,16.73,16.73,0,0,1-2.24.12,19,19,0,0,1-2.26,0,26.25,26.25,0,0,1-13.39-4.76l.27,0-9.28,3.41-.55.2.17-.56q1.55-5,3-9.72l0,.24A26.43,26.43,0,0,1,278,183.37a24.22,24.22,0,0,1-.18-5.75,19,19,0,0,1,.34-2.75c.09-.45.17-.89.25-1.34s.24-.86.36-1.28a26.27,26.27,0,0,1,10.68-14.61,25.11,25.11,0,0,1,6.19-3l1.39-.45,1.31-.29,1.2-.26c.38-.06.75-.09,1.1-.14.7-.06,1.31-.16,1.84-.17h2.18a.8.8,0,0,1,.27,0l-.28,0-.82,0-1.34.05c-.53,0-1.14.14-1.83.22a26.08,26.08,0,0,0-21.43,18.71c-.12.42-.26.84-.35,1.27l-.24,1.31a18.6,18.6,0,0,0-.32,2.7,23.32,23.32,0,0,0,.2,5.64A25.9,25.9,0,0,0,283,194.4l.08.11,0,.13-3,9.73-.38-.36L289,200.6l.14-.06.13.09a25.85,25.85,0,0,0,8.69,4,25.48,25.48,0,0,0,4.4.69,20.41,20.41,0,0,0,2.21,0,15.9,15.9,0,0,0,2.19-.12,24.65,24.65,0,0,0,8.27-2.26,26.94,26.94,0,0,0,6.87-4.61,27.62,27.62,0,0,0,4.88-6.27,26,26,0,0,0,2.68-7.07l.33-1.81c.11-.59.12-1.2.18-1.79a27.67,27.67,0,0,0,.05-3.52,25.91,25.91,0,0,0-11.13-19.8,24.75,24.75,0,0,0-7.2-3.51l-1.5-.45-1.35-.26-1.15-.23c-.36-.05-.69-.07-1-.1l-1.32-.14A2.87,2.87,0,0,1,304.92,153.32Z"/>
    </g>
  </g>
  <g>
    <g>
      <path class="cls-8" d="M361.53,351.94a6.36,6.36,0,0,0-4.22,2.34,4.64,4.64,0,0,0-.59,4.67,3.67,3.67,0,0,0,4.09,2,2.32,2.32,0,0,0,4.64.08,2.77,2.77,0,0,0,4.84-2c-.05-.72-.39-1.4-.48-2.13s.11-1.58.09-2.38a2,2,0,0,0-1.12-1.94"/>
      <path class="cls-8" d="M328.94,356.24A27.8,27.8,0,0,1,337,353c2.06-.54,4.26-1,6.28-.3a6.21,6.21,0,0,1,4,4.18,3.06,3.06,0,0,1-.11,2.23,3.7,3.7,0,0,1-2.51,1.55c-.75.19-1.71.24-2.13-.41a2.94,2.94,0,0,1-2.06,1.1,3,3,0,0,1-2.21-.77A2.82,2.82,0,0,1,332.9,359a3.07,3.07,0,0,1-2.71,1.34,2.51,2.51,0,0,1-2.24-1.93,2.15,2.15,0,0,1,1.5-2.44"/>
      <path class="cls-8" d="M305.17,355.84a7,7,0,0,1,2.7-7.26c2.55-1.84,4.34-4,7.66-5.95a49.3,49.3,0,0,1,8.11-3.48c6.51-2.17,10.92-2.71,13.59-4.11,2.93-1.54,6.84-4,6.84-4l33.24,2.58s4,24.55-2.05,26.94c0,0-28.17.3-30.38-.68-2.4-1.06-39-1-38.94-.8Z"/>
      <g>
        <path class="cls-8" d="M323.16,351.15a104.76,104.76,0,0,1-17.85,1.44,32.34,32.34,0,0,0-6.3.4,6.85,6.85,0,0,0-3.43,1.6,3.38,3.38,0,0,0-1,3.49,2.29,2.29,0,0,0,3.12,1.24,2.54,2.54,0,0,0,4.64.89,2.12,2.12,0,0,0,2,.64,7.86,7.86,0,0,0,2.08-.8c2.9-1.35,6-1,9.18-1,5.59,0,11.92,0,9.59,0"/>
        <path class="cls-14" d="M325.26,359.05l.47,0h0c0,.12,0,0,0,.06h-1.33l-5.09.06h-3.57c-1.29,0-2.68-.07-4.14,0a13.13,13.13,0,0,0-4.51.8,21.56,21.56,0,0,1-2.32,1,2.87,2.87,0,0,1-1.34.07,1.92,1.92,0,0,1-1.2-.69h.26a2.7,2.7,0,0,1-4.94-.95l.25.11a2.31,2.31,0,0,1-2.63-.32,2.42,2.42,0,0,1-.87-1.55,3.22,3.22,0,0,1,.22-1.74,4.51,4.51,0,0,1,2.35-2.34,10.29,10.29,0,0,1,3.1-.84,24.45,24.45,0,0,1,3-.22c4,0,7.52,0,10.5-.26s5.39-.52,7.05-.73l1.91-.24.49-.06h.18s-.06,0-.17,0l-.49.09-1.91.31c-1.65.25-4,.6-7,.83s-6.56.3-10.51.34a26,26,0,0,0-3,.22,10.62,10.62,0,0,0-3,.82,4.11,4.11,0,0,0-2.18,2.18,2.46,2.46,0,0,0,.55,2.9,2,2,0,0,0,2.24.3l.21-.13,0,.24a2.43,2.43,0,0,0,1.93,1.91,2.46,2.46,0,0,0,2.42-1.07l.12-.19.14.18a2.1,2.1,0,0,0,2.21.51,22.67,22.67,0,0,0,2.29-1,13.61,13.61,0,0,1,4.61-.8c1.48,0,2.87.05,4.16.06l3.56,0,5.09,0h1.33v.06h0Z"/>
      </g>
      <path class="cls-14" d="M369.73,357.75a1.88,1.88,0,0,1,.37.49,2.81,2.81,0,0,1,.3,1.71,2.71,2.71,0,0,1-.42,1.2,2.39,2.39,0,0,1-1.14,1,3,3,0,0,1-3.38-.72l.23,0a2.64,2.64,0,0,1-2.3,1.76,2.67,2.67,0,0,1-2.63-1.78l.19.1a4.08,4.08,0,0,1-4.47-2.52,4.78,4.78,0,0,1,.28-4,6.48,6.48,0,0,1,2.65-2.71,9.07,9.07,0,0,1,3.28-1,14.31,14.31,0,0,1,3-.05,41.09,41.09,0,0,1,4.25.66l1.15.23a2.08,2.08,0,0,1,.39.09,2,2,0,0,1-.4,0c-.27,0-.66-.08-1.16-.16-1-.15-2.45-.43-4.24-.56a11.09,11.09,0,0,0-6.1,1.12,6.3,6.3,0,0,0-2.51,2.6,4.42,4.42,0,0,0-.26,3.76,3.76,3.76,0,0,0,4.09,2.34l.14,0,.05.14a2.34,2.34,0,0,0,2.3,1.58,2.38,2.38,0,0,0,2.07-1.55l.07-.22.16.18a2.76,2.76,0,0,0,3.09.69,2.51,2.51,0,0,0,1.49-2,2.9,2.9,0,0,0-.22-1.65C369.86,357.92,369.71,357.77,369.73,357.75Z"/>
      <path class="cls-14" d="M374.7,351.39s-.38-.3-1.05-.66a5.2,5.2,0,0,0-5.54.28c-.62.42-.93.8-1,.76a2.43,2.43,0,0,1,.83-.95,5,5,0,0,1,5.8-.3C374.44,351,374.73,351.36,374.7,351.39Z"/>
      <path class="cls-14" d="M328.81,360.13a1.12,1.12,0,0,1-.24-.17,2.8,2.8,0,0,1-.55-.65,3.9,3.9,0,0,1-.35-3.05,6.2,6.2,0,0,1,3-3.46,47.91,47.91,0,0,1,5.16-2.21,17.54,17.54,0,0,0,7.49-6.55,18.74,18.74,0,0,0,1.42-2.72c.27-.67.41-1.05.43-1s0,.1-.06.29-.12.46-.25.8a15.58,15.58,0,0,1-1.34,2.79A17.22,17.22,0,0,1,336,350.9c-1.83.81-3.67,1.3-5.14,2.16a6.12,6.12,0,0,0-2.92,3.26,3.92,3.92,0,0,0,.24,2.93A4.83,4.83,0,0,0,328.81,360.13Z"/>
      <path class="cls-14" d="M342.06,359.93a3.25,3.25,0,0,0,.72.57,2.76,2.76,0,0,0,2.38,0,3.15,3.15,0,0,0,1.64-3,4.12,4.12,0,0,0-.58-2,5.26,5.26,0,0,0-1.58-1.68,7.6,7.6,0,0,0-4.27-1.29,13.49,13.49,0,0,0-3.69.57c-1,.29-1.85.58-2.42.77a5,5,0,0,1-.89.28,5.16,5.16,0,0,1,.85-.4c.55-.23,1.36-.55,2.4-.88a13.17,13.17,0,0,1,3.75-.64,7.73,7.73,0,0,1,4.46,1.32,5.55,5.55,0,0,1,1.67,1.78,4.49,4.49,0,0,1,.61,2.21,3.36,3.36,0,0,1-1.86,3.21,2.84,2.84,0,0,1-2.54-.13,2,2,0,0,1-.53-.47Q342,359.95,342.06,359.93Z"/>
      <path class="cls-14" d="M338.35,360.39a2.76,2.76,0,0,0,1.06.69,3.06,3.06,0,0,0,1.32.22,1.75,1.75,0,0,0,1.28-.85,2,2,0,0,0,.13-1.57,3.55,3.55,0,0,0-.63-1.21,10.38,10.38,0,0,1-.81-1,4.29,4.29,0,0,1,1.73,2.15,2.29,2.29,0,0,1-.13,1.82,2,2,0,0,1-1.53,1,3.05,3.05,0,0,1-1.45-.32,2.45,2.45,0,0,1-.81-.57C338.36,360.53,338.33,360.4,338.35,360.39Z"/>
      <path class="cls-14" d="M333,359.2s0,.19,0,.51a2.54,2.54,0,0,0,.35,1.26,2.23,2.23,0,0,0,1.52,1.11,2.72,2.72,0,0,0,2.23-.51,3.1,3.1,0,0,0,1.09-2.06,3.42,3.42,0,0,0-.37-1.91,6.54,6.54,0,0,0-1.15-1.44s.17.06.44.26a4,4,0,0,1,.92,1.07,3.53,3.53,0,0,1,.46,2.05,3.3,3.3,0,0,1-1.18,2.28,3,3,0,0,1-2.51.56,2.5,2.5,0,0,1-1.66-1.29,2.46,2.46,0,0,1-.27-1.39A1,1,0,0,1,333,359.2Z"/>
      <path class="cls-8" d="M346.21,336.81s7,7.74,15.75,6.76,15.43-9.44,15.43-9.44c1.34-2.13.79-4.33.37-5.95s-1.22-3.19-1.23-4.87a14.23,14.23,0,0,1,1-4.17,38.67,38.67,0,0,0,1.2-9.54c.06-1.37,0-3-1.17-3.75a2.67,2.67,0,0,0-2.46-.05,7.58,7.58,0,0,0-2,1.53,87.78,87.78,0,0,0-7.38,8.05,9.61,9.61,0,0,0-11.92,1c-3.73-1.57-5-6.8-8.78-8.13a2.75,2.75,0,0,0-2.53.18c-.93.7-1,2.05-.95,3.21.16,5.23.35,10.61,2.48,15.38a10.35,10.35,0,0,0,2,9.43"/>
      <path class="cls-14" d="M359,337.91a3.53,3.53,0,0,1,4.34-1.23,1.05,1.05,0,0,1,.48.35.52.52,0,0,1,0,.57.43.43,0,0,0-.65,0,1,1,0,0,0-.22.69,2.22,2.22,0,0,1-.09.73.87.87,0,0,1-.65.55.91.91,0,0,1-.81-.27,2.79,2.79,0,0,1-.37-.68.86.86,0,0,0-.56-.51,1.06,1.06,0,0,0-.6.13.82.82,0,0,1-.61,0c-.19-.08-.28-.38-.1-.5"/>
      <path class="cls-14" d="M362.23,338.88s0,.28.13.69a2.54,2.54,0,0,0,2.33,2c.42,0,.69,0,.7,0s-.24.19-.71.21a2.45,2.45,0,0,1-1.7-.57,2.47,2.47,0,0,1-.85-1.58C362.08,339.14,362.19,338.87,362.23,338.88Z"/>
      <path class="cls-14" d="M362.27,338.46a1.33,1.33,0,0,1,.24.86,2.6,2.6,0,0,1-2.87,2.68,1.36,1.36,0,0,1-.84-.29c0-.06.34.06.85.06a2.72,2.72,0,0,0,1.81-.7,2.78,2.78,0,0,0,.82-1.75C362.32,338.8,362.22,338.48,362.27,338.46Z"/>
      <path class="cls-14" d="M375.73,341.37a23.08,23.08,0,0,0-4.64-1.26,22.72,22.72,0,0,0-4.82.1,4.45,4.45,0,0,1,1.39-.37,12.15,12.15,0,0,1,3.47-.06,12.43,12.43,0,0,1,3.35.9A4.45,4.45,0,0,1,375.73,341.37Z"/>
      <path class="cls-14" d="M379.77,339.65c0,.05-.79-.14-2.07-.37a31.5,31.5,0,0,0-5-.49,33.18,33.18,0,0,0-5,.32c-1.29.18-2.07.35-2.09.3a2.11,2.11,0,0,1,.54-.19c.35-.1.87-.22,1.51-.34a25.5,25.5,0,0,1,5.09-.42,25.24,25.24,0,0,1,5.07.59,13.94,13.94,0,0,1,1.49.4A1.91,1.91,0,0,1,379.77,339.65Z"/>
      <path class="cls-14" d="M381.91,335.15c0,.05-1,0-2.5,0a33.57,33.57,0,0,0-6,.49,21.62,21.62,0,0,0-5.69,1.87c-1.38.69-2.15,1.27-2.18,1.22s.16-.18.51-.44a14.79,14.79,0,0,1,1.56-1,19.28,19.28,0,0,1,5.74-2,28.59,28.59,0,0,1,6.05-.41c.78,0,1.41.08,1.84.12A2.66,2.66,0,0,1,381.91,335.15Z"/>
      <path class="cls-14" d="M345.49,345.24s.12-.15.38-.37A12,12,0,0,1,347,344a17.32,17.32,0,0,1,4.19-2.08,17.85,17.85,0,0,1,4.59-.89,13.7,13.7,0,0,1,1.42,0,1.57,1.57,0,0,1,.52.07c0,.05-.74.05-1.92.17a20.85,20.85,0,0,0-4.5,1,21.2,21.2,0,0,0-4.18,1.95C346.11,344.83,345.53,345.28,345.49,345.24Z"/>
      <path class="cls-14" d="M345,341.71a2,2,0,0,1,.48-.25c.32-.14.79-.32,1.38-.52a22.69,22.69,0,0,1,9.63-1,13.81,13.81,0,0,1,1.46.22,1.88,1.88,0,0,1,.52.14c0,.05-.77-.05-2-.13a28.81,28.81,0,0,0-4.82.1,29.54,29.54,0,0,0-4.72.93A19.46,19.46,0,0,1,345,341.71Z"/>
      <path class="cls-14" d="M340.53,340.23a3,3,0,0,1,.66-.3,18,18,0,0,1,1.87-.63,27,27,0,0,1,12.92-.45,19,19,0,0,1,1.91.5,2.9,2.9,0,0,1,.68.25c0,.06-1-.23-2.63-.52a31.78,31.78,0,0,0-6.43-.46,30.87,30.87,0,0,0-6.39.91C341.52,339.93,340.55,340.28,340.53,340.23Z"/>
      <path class="cls-14" d="M357.47,331.52a2.28,2.28,0,0,1-1,.7,4.47,4.47,0,0,1-2.89.25,4.37,4.37,0,0,1-2.39-1.63,2.18,2.18,0,0,1-.52-1.08c.05,0,.23.4.7.94a4.47,4.47,0,0,0,5,1.3C357.07,331.76,357.43,331.48,357.47,331.52Z"/>
      <path class="cls-14" d="M371.61,328.47a1.65,1.65,0,0,1-.1,1.15,3.51,3.51,0,0,1-1.94,2,6.87,6.87,0,0,1-2.73.51,3.4,3.4,0,0,1-1.14-.1,4.5,4.5,0,0,1,1.13-.14,8,8,0,0,0,2.6-.57,3.58,3.58,0,0,0,1.86-1.77A8,8,0,0,0,371.61,328.47Z"/>
      <path class="cls-14" d="M347,319.11a6.73,6.73,0,0,0,1.06-1.35,3.07,3.07,0,0,0,.39-1.76,3.79,3.79,0,0,0-.8-1.72,16.8,16.8,0,0,0-3.49-3.55s-1-.76-1.46,0c-.3.51-.11,8.86,1.05,9.39S347,319.11,347,319.11Z"/>
      <path class="cls-14" d="M375.82,307.18c-1.85,1.46-2.56,4-3.95,5.87a5.73,5.73,0,0,0-.67,1.08,1.8,1.8,0,0,0-.11,1.25,2.48,2.48,0,0,0,.8,1,9.24,9.24,0,0,0,2.46,1.49s1.93.6,2.44-1.15S377.07,306.21,375.82,307.18Z"/>
      <path class="cls-8" d="M316.8,343.17c-2.24.34-7.4-.51-8.91-2.07s-1.09-4-.27-6.1a53.52,53.52,0,0,1,3.16-6A24.07,24.07,0,0,0,314,318.25a14.15,14.15,0,0,0-3.79-10.35,10.07,10.07,0,0,0-10.42-2.5c-2.9,1.12-5.14,4.47-4,7.37.7,1.81,2.46,3,3.7,4.47a9.16,9.16,0,0,1,1.83,7.74c-.66,2.92-2.73,5.34-3.51,8.22-1.18,4.4,1,9.28,4.6,12s8.45,3.58,13,3"/>
    </g>
    <path class="cls-4" d="M363.79,341.65s.27,1.7-.31,2.39a1.64,1.64,0,0,1-1,.6,1.58,1.58,0,0,1-1.47-.86,3.88,3.88,0,0,1-.41-1.75s1.51-.54,1.73-1.42A2.4,2.4,0,0,0,363.79,341.65Z"/>
    <path class="cls-14" d="M371.48,342.34a2.63,2.63,0,0,1-.49.56,11.43,11.43,0,0,1-1.57,1.28,13.06,13.06,0,0,1-6.28,2.23,12.93,12.93,0,0,1-6.56-1.2,11.61,11.61,0,0,1-1.76-1,3.11,3.11,0,0,1-.58-.48c0-.05.88.61,2.43,1.28a13.39,13.39,0,0,0,12.62-1C370.72,343.07,371.44,342.29,371.48,342.34Z"/>
    <path class="cls-14" d="M362.42,353.78c0,.05-.44.29-1,.86a4.93,4.93,0,0,0-.91,5.82c.38.73.75,1.09.71,1.13a2.51,2.51,0,0,1-.91-1,4.88,4.88,0,0,1-.64-3.23,4.94,4.94,0,0,1,1.59-2.88A2.62,2.62,0,0,1,362.42,353.78Z"/>
    <path class="cls-14" d="M368.6,354.52a6.35,6.35,0,0,0-1.23.34,3.85,3.85,0,0,0-2,2.23,5.56,5.56,0,0,0,0,3.05c.19.78.4,1.24.36,1.26a2.9,2.9,0,0,1-.58-1.2,5.18,5.18,0,0,1-.05-3.22,3.84,3.84,0,0,1,2.19-2.33A1.92,1.92,0,0,1,368.6,354.52Z"/>
    <path class="cls-14" d="M351.38,350.4s-.15.38-.52.92a10.53,10.53,0,0,1-1.7,1.89,8.35,8.35,0,0,1-2.17,1.33,2.68,2.68,0,0,1-1,.3,22,22,0,0,0,3-1.88C350.4,351.68,351.29,350.33,351.38,350.4Z"/>
    <path class="cls-14" d="M343.7,331.32l-.36.28c-.24.18-.61.42-1.09.72a36.8,36.8,0,0,1-4.25,2.26,61.46,61.46,0,0,1-6.65,2.57c-2.55.84-5.39,1.63-8.32,2.6a49,49,0,0,0-8,3.32,27.75,27.75,0,0,0-5.76,4.1,20.67,20.67,0,0,0-3.07,3.64c-.62.95-.89,1.52-.92,1.5a2,2,0,0,1,.18-.42,12.89,12.89,0,0,1,.63-1.15,19.15,19.15,0,0,1,3-3.74,26.73,26.73,0,0,1,5.77-4.19,48.21,48.21,0,0,1,8.06-3.38c2.94-1,5.78-1.75,8.33-2.57a68.19,68.19,0,0,0,6.65-2.49,44.16,44.16,0,0,0,4.27-2.16c.49-.28.87-.51,1.12-.67A2.21,2.21,0,0,1,343.7,331.32Z"/>
    <path class="cls-14" d="M347.05,337a4.63,4.63,0,0,1-1-1.12,11.78,11.78,0,0,1-1.59-3.26A11.34,11.34,0,0,1,344,329a4.36,4.36,0,0,1,.19-1.49,18.33,18.33,0,0,0,.64,5A18.64,18.64,0,0,0,347.05,337Z"/>
  </g>
  <g>
    <path class="cls-8" d="M118.07,358.5,97,305.58a6.92,6.92,0,0,1,6.4-9.54h65.67a6.92,6.92,0,0,1,6.55,4.7l18.11,53.37,21.14.1c1.72,0,3.11,2.52,3.11,4.24h0l-23.28-.27Z"/>
    <g>
      <path class="cls-4" d="M118.58,308.27a7.39,7.39,0,0,0-4.24,1.14,5.81,5.81,0,0,0-1.16.95,8.33,8.33,0,0,0-2.33,7.57c.8,3.83,3.28,4.36,4.43,4.49s9.22-2.17,9.22-2.17,2.93-2.48,1.89-5.75A8.67,8.67,0,0,0,118.58,308.27Z"/>
      <path class="cls-11" d="M114.73,321.27s.3,2.06,1.32,2.58a7.48,7.48,0,0,0,4.42.06c1.47-.37,3.66-1.22,3.92-2.35a5,5,0,0,0-.13-2.68,6.75,6.75,0,0,0-5.41-.5A7.2,7.2,0,0,0,114.73,321.27Z"/>
      <g class="cls-20">
        <path class="cls-13" d="M121.27,311.48a3.86,3.86,0,1,1-4.69-2.81A3.86,3.86,0,0,1,121.27,311.48Z"/>
      </g>
      <g class="cls-20">
        <path class="cls-13" d="M111.52,319.88a5,5,0,0,0,1.09-3.28,4.7,4.7,0,0,0-1.43-3.08,9.49,9.49,0,0,0-.42,3.91A6.93,6.93,0,0,0,111.52,319.88Z"/>
      </g>
      <g class="cls-20">
        <path class="cls-13" d="M126.62,316.09a5,5,0,0,1-2.51-2.37,4.39,4.39,0,0,1-.25-3.24,10.79,10.79,0,0,1,2.2,3.08A4.73,4.73,0,0,1,126.62,316.09Z"/>
      </g>
    </g>
    <path class="cls-11" d="M148.42,329.45a4.27,4.27,0,1,1-4.27-4.26A4.27,4.27,0,0,1,148.42,329.45Z"/>
  </g>
  <path class="cls-8" d="M399.2,358.18c0,.09-87.32.17-195,.17s-195-.08-195-.17,87.3-.17,195-.17S399.2,358.09,399.2,358.18Z"/>
  <g>
    <g>
      <path class="cls-4" d="M67.2,336.37c-6.22-3.61-9.54-12-9.79-18.84s2.61-14,8.23-17.95a18.84,18.84,0,0,1,20.45-.16,21.27,21.27,0,0,1,9.38,18.47,24.5,24.5,0,0,1-10,18.4"/>
      <path class="cls-13" d="M77.11,337a7.91,7.91,0,0,1-.11-1.57c0-1.12-.08-2.56-.12-4.28-.1-3.61-.24-8.6-.48-14.1s-.54-10.49-.76-14.09c-.11-1.72-.19-3.15-.26-4.27a8.36,8.36,0,0,1,0-1.58,9,9,0,0,1,.25,1.56c.12,1,.27,2.46.44,4.26.33,3.6.69,8.58.93,14.09s.32,10.51.31,14.13c0,1.8,0,3.27-.07,4.28A7.91,7.91,0,0,1,77.11,337Z"/>
      <path class="cls-8" d="M59.25,316c0,.16-1,.21-2.21.11s-2.18-.3-2.17-.47,1-.2,2.22-.11S59.26,315.81,59.25,316Z"/>
      <path class="cls-8" d="M59.59,309.82c-.06.15-.92-.09-1.91-.53s-1.74-.91-1.67-1.06.92.09,1.91.53S59.66,309.68,59.59,309.82Z"/>
      <path class="cls-8" d="M62.76,305.25c-.09.14-1-.31-2-1.14s-1.62-1.69-1.51-1.8.92.55,1.88,1.35S62.84,305.12,62.76,305.25Z"/>
      <path class="cls-8" d="M65.94,301c-.15.06-.61-.66-1-1.61s-.64-1.78-.49-1.84.6.65,1,1.6S66.09,300.88,65.94,301Z"/>
      <path class="cls-8" d="M70.93,297.89c-.14.07-.63-.7-1-1.76s-.36-2-.2-2,.43.8.75,1.82S71.08,297.82,70.93,297.89Z"/>
      <path class="cls-8" d="M79.27,294.44c.15.06.06.71-.21,1.46s-.6,1.32-.75,1.27-.06-.71.2-1.46S79.12,294.39,79.27,294.44Z"/>
      <path class="cls-8" d="M85.45,297.1c.11.11-.28.66-.88,1.21s-1.17.91-1.28.79.28-.66.88-1.22S85.34,297,85.45,297.1Z"/>
      <path class="cls-8" d="M90.9,300.61c.09.13-.4.62-1.08,1.08s-1.32.74-1.41.6.39-.61,1.08-1.08S90.81,300.48,90.9,300.61Z"/>
      <path class="cls-8" d="M94.76,305.85c.06.15-.7.62-1.7,1s-1.87.66-1.93.51.7-.61,1.7-1S94.7,305.7,94.76,305.85Z"/>
      <path class="cls-8" d="M96.28,311.57c0,.16-.75.38-1.73.5s-1.78.09-1.8-.07.75-.38,1.73-.5S96.26,311.41,96.28,311.57Z"/>
      <path class="cls-8" d="M97.08,318.6c-.07.15-.9-.07-1.85-.48s-1.68-.87-1.61-1,.89.07,1.84.48S97.14,318.46,97.08,318.6Z"/>
      <path class="cls-8" d="M96.38,324.64c0,.15-1.1-.1-2.19-.82s-1.74-1.57-1.63-1.67.91.51,2,1.18S96.44,324.48,96.38,324.64Z"/>
      <path class="cls-8" d="M93.23,330.14c-.09.12-.92-.37-1.72-1.23s-1.23-1.72-1.1-1.81.76.59,1.53,1.41S93.34,330,93.23,330.14Z"/>
      <path class="cls-8" d="M63.38,330.78c.08.14-.79.75-2,1.35s-2.14,1-2.21.82.79-.74,2-1.34S63.31,330.64,63.38,330.78Z"/>
      <path class="cls-8" d="M60.66,325.81c.07.15-.64.61-1.57,1s-1.73.64-1.8.5.63-.61,1.56-1S60.59,325.66,60.66,325.81Z"/>
      <path class="cls-8" d="M58.65,321.41c0,.16-.84.41-1.92.56s-2,.15-2,0,.84-.42,1.93-.57S58.63,321.25,58.65,321.41Z"/>
      <path class="cls-8" d="M65.23,319c0,.15-.79.54-1.92.67s-2-.07-2-.23.89-.23,2-.35S65.18,318.82,65.23,319Z"/>
      <path class="cls-8" d="M70.69,313.55c0,.15-.62.48-1.52.57s-1.63-.11-1.61-.27.71-.22,1.55-.31S70.64,313.39,70.69,313.55Z"/>
      <path class="cls-8" d="M71.73,309.19c0,.16-.77,0-1.61-.25s-1.48-.65-1.43-.8.77,0,1.62.25S71.79,309,71.73,309.19Z"/>
      <path class="cls-8" d="M73.74,304.79c-.12.11-.61-.22-1-.83s-.39-1.21-.24-1.25.43.41.75,1S73.85,304.68,73.74,304.79Z"/>
      <path class="cls-8" d="M71.32,322.81c0,.16-.59.45-1.4.65a5.71,5.71,0,0,1-1.18.17l-.11-.34c.21,0,.34,0,.37,0s-.06.17-.23.3l-.11-.34a5.65,5.65,0,0,1,1.12-.39C70.59,322.69,71.28,322.66,71.32,322.81Z"/>
      <path class="cls-8" d="M72.45,330.53c.06.15-.74.61-1.79,1s-1.94.62-2,.47.74-.61,1.79-1S72.39,330.38,72.45,330.53Z"/>
      <path class="cls-8" d="M66.28,327.1c0,.16-.48.47-1.19.72s-1.33.31-1.38.16.48-.47,1.19-.72S66.23,327,66.28,327.1Z"/>
      <path class="cls-8" d="M66.75,311.39c0,.16-1,.07-2-.32s-1.85-.89-1.78-1,.93.12,2,.49S66.79,311.24,66.75,311.39Z"/>
      <path class="cls-8" d="M81.68,309.69c.09.13-.44.63-1.17,1.12s-1.4.76-1.49.63.44-.64,1.17-1.12S81.59,309.55,81.68,309.69Z"/>
      <path class="cls-8" d="M82.49,317.44c0,.15-.52.4-1.23.55s-1.31.14-1.34,0,.51-.4,1.22-.55S82.46,317.28,82.49,317.44Z"/>
      <path class="cls-8" d="M83.43,326.15c-.06.15-.86-.08-1.76-.5s-1.59-.88-1.53-1,.86.07,1.77.49S83.5,326,83.43,326.15Z"/>
      <path class="cls-8" d="M81.44,334.63c-.13.11-.64-.31-1.15-.93s-.82-1.21-.7-1.31.64.32,1.15.94S81.56,334.53,81.44,334.63Z"/>
      <path class="cls-8" d="M81,304c.1.12-.24.55-.82.84s-1.13.31-1.17.16.38-.41.9-.68S80.93,303.85,81,304Z"/>
      <path class="cls-8" d="M88.34,311.8c.06.14-.62.52-1.55.64s-1.67,0-1.66-.2.72-.25,1.58-.37S88.29,311.64,88.34,311.8Z"/>
      <path class="cls-8" d="M86.89,304.78c.07.14-.6.62-1.56.92s-1.78.31-1.8.15.72-.41,1.62-.7S86.81,304.63,86.89,304.78Z"/>
      <path class="cls-8" d="M89.94,322.66a4.42,4.42,0,0,1-2.54,0,4.43,4.43,0,0,1-2.37-.9,8.16,8.16,0,0,1,2.48.33A7.88,7.88,0,0,1,89.94,322.66Z"/>
      <path class="cls-8" d="M87.22,332.86c-.09.12-.94-.38-1.78-1.23s-1.35-1.69-1.22-1.79.81.56,1.63,1.38S87.32,332.73,87.22,332.86Z"/>
      <path class="cls-13" d="M75.27,296.48a27.08,27.08,0,0,0-5.1,4,24.94,24.94,0,0,0-6.36,14.05,31.56,31.56,0,0,0,.38,8.61,66.22,66.22,0,0,0,1.62,6.91c.55,1.94,1.07,3.5,1.41,4.58a10,10,0,0,1,.49,1.7,11.21,11.21,0,0,1-.7-1.62c-.41-1.06-1-2.6-1.6-4.54a58.66,58.66,0,0,1-1.75-6.94,31,31,0,0,1-.43-8.77,24.51,24.51,0,0,1,6.64-14.27,18,18,0,0,1,3.81-3,11.63,11.63,0,0,1,1.16-.61A1.6,1.6,0,0,1,75.27,296.48Z"/>
      <path class="cls-13" d="M83.21,336.74a63.06,63.06,0,0,0,2.61-6.25,35.32,35.32,0,0,0,1.57-16.08,30.21,30.21,0,0,0-2.48-8.57A20.35,20.35,0,0,0,80.68,300a15.58,15.58,0,0,0-4.14-2.62c-1.08-.44-1.72-.55-1.71-.6a1.29,1.29,0,0,1,.47,0,8.54,8.54,0,0,1,1.32.35A14.45,14.45,0,0,1,81,299.64a19.94,19.94,0,0,1,4.44,6A29.52,29.52,0,0,1,88,314.33a34.13,34.13,0,0,1-1.75,16.29c-.33,1-.75,1.87-1.06,2.65s-.69,1.4-1,1.92A12.45,12.45,0,0,1,83.21,336.74Z"/>
    </g>
    <polygon class="cls-8" points="60.66 335.36 92.75 335.36 92.94 341.79 60.66 341.79 60.66 335.36"/>
    <polygon class="cls-8" points="63.38 338.57 65.23 358.18 88.69 358.18 90.57 338.79 63.38 338.57"/>
    <path class="cls-14" d="M92.94,341.86c0,.16-7.22.29-16.13.29s-16.14-.13-16.14-.29,7.22-.29,16.14-.29S92.94,341.7,92.94,341.86Z"/>
    <path class="cls-14" d="M89.68,347.83a4.43,4.43,0,0,1-.68,1.23A18.31,18.31,0,0,1,86.51,352l-.15.14-.15-.15a46.09,46.09,0,0,0-6.28-5.51h.35l-2.79,2.44-3.29,2.87-.19.16-.18-.15-5.36-4.51.32,0L66,350.63a7.85,7.85,0,0,1-1.08,1.19,7.53,7.53,0,0,1,.89-1.34l2.62-3.5.13-.18.18.15,5.44,4.4h-.36l3.28-2.89,2.8-2.43.17-.15.18.13a40.78,40.78,0,0,1,6.26,5.69l-.29,0A31.81,31.81,0,0,0,89.68,347.83Z"/>
  </g>
</svg>
