<svg xmlns="http://www.w3.org/2000/svg" width="376.16" height="376.16" viewBox="0 0 376.16 376.16">
  <g id="cf5_negociacion" transform="translate(-11.92 -11.92)">
    <g id="Capa_1" data-name="Capa 1">
      <g id="Grupo_90471" data-name="Grupo 90471">
        <path id="Trazado_152625" data-name="Trazado 152625" d="M54.68,44.67V30.79a37.28,37.28,0,0,0,0,74.56V91.47a23.4,23.4,0,0,1,0-46.8Z" fill="#8b82ca" opacity="0.69"/>
        <g id="Grupo_90470" data-name="Grupo 90470" opacity="0.5">
          <path id="Trazado_152626" data-name="Trazado 152626" d="M54.68,105.35a37.28,37.28,0,0,0,0-74.56V44.67a23.4,23.4,0,0,1,0,46.8Z" fill="#8b82ca"/>
        </g>
      </g>
      <g id="Grupo_90472" data-name="Grupo 90472">
        <path id="Trazado_152627" data-name="Trazado 152627" d="M200,318.06v70c103.87,0,188.08-84.21,188.08-188.08S303.87,11.92,200,11.92v70a118.06,118.06,0,0,1,0,236.12Z" fill="#cfccd9"/>
        <path id="Trazado_152628" data-name="Trazado 152628" d="M200,11.92C96.13,11.92,11.92,96.13,11.92,200S96.13,388.08,200,388.08v-70a118.06,118.06,0,1,1,0-236.12Z" fill="#d8d5ed"/>
      </g>
      <g id="Grupo_90473" data-name="Grupo 90473">
        <path id="Trazado_152629" data-name="Trazado 152629" d="M65.43,301.43V283a49.587,49.587,0,1,0,0,99.175V363.68a31.128,31.128,0,1,1,0-62.255Z" fill="#cfccd9"/>
        <path id="Trazado_152630" data-name="Trazado 152630" d="M65.43,382.14a49.587,49.587,0,1,0,0-99.175V301.43a31.128,31.128,0,1,1,0,62.255Z" fill="#b2abdb"/>
      </g>
      <g id="_5" data-name="5">
        <g id="Grupo_90490" data-name="Grupo 90490">
          <g id="Grupo_90476" data-name="Grupo 90476">
            <g id="Grupo_90474" data-name="Grupo 90474">
              <path id="Trazado_152631" data-name="Trazado 152631" d="M151.34,214c5,2.88,4.95,7.55-.06,10.45s-13.11,2.9-18.08,0-5-7.55.05-10.44S146.36,211.17,151.34,214Z" fill="#3c80d3" opacity="0.17"/>
              <path id="Trazado_152632" data-name="Trazado 152632" d="M147.71,197l-20.29.35v20.51h0c-.07,1.55.88,3.11,2.92,4.28a15.86,15.86,0,0,0,14.34,0c2-1.16,3-2.67,3-4.17h0Z" fill="#cedeea"/>
              <path id="Trazado_152633" data-name="Trazado 152633" d="M144.75,193c3.95,2.28,3.93,6,0,8.28a15.86,15.86,0,0,1-14.34,0c-3.94-2.28-3.92-6,0-8.27a15.8,15.8,0,0,1,14.34-.01Z" fill="#e1ecf4"/>
              <path id="Trazado_152634" data-name="Trazado 152634" d="M135.5,200.88,101,58C88,142.38,135.5,200.88,135.5,200.88Z" fill="#d8e4ef"/>
              <path id="Trazado_152635" data-name="Trazado 152635" d="M101,58l34.5,142.88C143.71,103,101,58,101,58Z" fill="#e7eff2"/>
            </g>
            <g id="Grupo_90475" data-name="Grupo 90475">
              <path id="Trazado_152636" data-name="Trazado 152636" d="M140.73,196.92,138.15,78.73C113.43,142.78,140.73,196.92,140.73,196.92Z" fill="#d8e4ef"/>
              <path id="Trazado_152637" data-name="Trazado 152637" d="M138.15,78.73l2.58,118.19C164,121.4,138.15,78.73,138.15,78.73Z" fill="#e7eff2"/>
            </g>
          </g>
          <g id="Grupo_90479" data-name="Grupo 90479">
            <path id="Trazado_152638" data-name="Trazado 152638" d="M346.54,320.13,364.05,310a5.62,5.62,0,0,0,0-9.74l-54.56-31.5L264.57,294.7l42.83,24.73a25.11,25.11,0,0,0,12.6,3.4h16.52a20,20,0,0,0,10.02-2.7Z" fill="#3c80d3" opacity="0.3"/>
            <g id="Grupo_90477" data-name="Grupo 90477">
              <path id="Trazado_152639" data-name="Trazado 152639" d="M322,316.57v.36c0,1.16-.84,2.36-2.48,3.28a11.79,11.79,0,0,1-5.81,1.45,10,10,0,0,1-3.56-.61h0a6.507,6.507,0,0,1-.92-.44L155.62,232c-2.64-1.52-2.32-4.2.72-6a12.23,12.23,0,0,1,5.89-1.48,9.27,9.27,0,0,1,4.48,1l143.41,82.79,10.17,5.89A2.91,2.91,0,0,1,322,316.57Z" fill="#77bef9"/>
              <path id="Trazado_152640" data-name="Trazado 152640" d="M310.32,112.71V321.12L153.83,229.5V21.28Z" fill="#6558b8"/>
              <path id="Trazado_152641" data-name="Trazado 152641" d="M322,108.54V316.93c0,1.16-.84,2.36-2.48,3.28a11.79,11.79,0,0,1-5.81,1.45,10,10,0,0,1-3.56-.61h0V111.23Z" fill="#2f237d"/>
              <path id="Trazado_152642" data-name="Trazado 152642" d="M309.18,112.57,155.62,23.9c-2.64-1.52-2.31-4.21.74-6h0c3-1.76,7.7-1.95,10.34-.43l153.57,88.66c2.64,1.53,2.31,4.22-.74,6h0C316.48,113.9,311.82,114.09,309.18,112.57Z" fill="#b2abdb"/>
            </g>
            <path id="Trazado_152643" data-name="Trazado 152643" d="M310.32,122.27,153.83,212.63v16.55a3,3,0,0,0,1.51,2.61l155,89.33Z" fill="#e9f6ff" opacity="0.2"/>
            <path id="Trazado_152644" data-name="Trazado 152644" d="M223.7,207.89l-28.11-16.23V159.39l28.11,16.23Z" fill="#e9f6ff"/>
            <path id="Trazado_152645" data-name="Trazado 152645" d="M208.4,184c-6.68-1.34-9.12,4-10,9.29l25.26,14.59V175.62l-5.39-3.11C218.17,178,216.57,185.64,208.4,184Z" fill="#96deff" opacity="0.47"/>
            <path id="Trazado_152646" data-name="Trazado 152646" d="M223.7,247.99l-28.11-16.23V199.5l28.11,16.23Z" fill="#e9f6ff"/>
            <path id="Trazado_152647" data-name="Trazado 152647" d="M208.4,224.11c-6.68-1.34-9.12,4-10,9.3L223.7,248V215.73l-5.39-3.12C218.17,218.06,216.57,225.74,208.4,224.11Z" fill="#96deff" opacity="0.47"/>
            <path id="Trazado_152648" data-name="Trazado 152648" d="M266.84,232.66l-28.12-16.23V184.16l28.12,16.24Z" fill="#e9f6ff"/>
            <path id="Trazado_152649" data-name="Trazado 152649" d="M251.54,208.78c-6.69-1.34-9.13,4-10,9.3l25.26,14.58V200.4l-5.39-3.12C261.31,202.73,259.71,210.42,251.54,208.78Z" fill="#96deff" opacity="0.47"/>
            <path id="Trazado_152650" data-name="Trazado 152650" d="M266.84,272.76l-28.12-16.23V224.27l28.12,16.23Z" fill="#e9f6ff"/>
            <path id="Trazado_152651" data-name="Trazado 152651" d="M251.54,248.88c-6.69-1.33-9.13,4.05-10,9.3l25.26,14.58V240.5l-5.39-3.11C261.31,242.84,259.71,250.52,251.54,248.88Z" fill="#96deff" opacity="0.47"/>
            <g id="Grupo_90478" data-name="Grupo 90478">
              <ellipse id="Elipse_5218" data-name="Elipse 5218" cx="10.1" cy="17.5" rx="10.1" ry="17.5" transform="translate(214.74 106.132) rotate(-30.31)" fill="#e9f6ff"/>
              <path id="Trazado_152652" data-name="Trazado 152652" d="M260.6,172.4,204,139.72a2.34,2.34,0,0,1-1.07-1.83c0-.68.48-.95,1.07-.61L260.6,170a2.33,2.33,0,0,1,1.06,1.83C261.66,172.47,261.18,172.74,260.6,172.4Z" fill="#e9f6ff"/>
              <path id="Trazado_152653" data-name="Trazado 152653" d="M209.11,138.23l-6.83-3.94v-7.83l6.83,3.94Zm8.86-2.71-6.82-3.94v7.83l6.82,3.94Zm8.87,5.12L220,136.7v7.83l6.83,3.94Zm8.86,5.12-6.82-3.94v7.83l6.82,3.94Zm8.87,5.11-6.82-3.94v7.84l6.82,3.94Zm8.87,5.12-6.83-3.94v7.84l6.83,3.94Zm8.86,5.12-6.82-3.94V165l6.82,3.94Z" fill="#e9f6ff"/>
            </g>
            <path id="Trazado_152654" data-name="Trazado 152654" d="M309.18,113a.46.46,0,0,1-.18,0L155.38,24.31a.48.48,0,0,1-.17-.64.47.47,0,0,1,.64-.17l153.57,88.66a.47.47,0,0,1-.24.87Z" fill="#d9f5ff"/>
            <path id="Trazado_152655" data-name="Trazado 152655" d="M244.71,123.31c0-7.87-5.56-17.45-12.42-21.41-.43-.25-.84-.39-1.26-.59-.8,3.47-.77,8.25,1.26,14.83,3.5,11.34-2.16,10.12-7.24,7.34a23.92,23.92,0,0,0,7.24,6.91C239.15,134.35,244.71,131.18,244.71,123.31Z" fill="#96deff" opacity="0.47"/>
          </g>
          <g id="Grupo_90480" data-name="Grupo 90480">
            <path id="Trazado_152656" data-name="Trazado 152656" d="M160.89,299.66s-.95,4-4.51,5.31.76-6,.76-6Z" fill="#ffa89c"/>
            <path id="Trazado_152657" data-name="Trazado 152657" d="M152.1,305.05a37.649,37.649,0,0,0,4.42-5c-.55,1-1,2-.43,2.09,1.76.42,4.39-2.74,5.63-3.92.39-.38.45-.53.46-.59.72,2.29.46,3.41-.24,4.19a8.44,8.44,0,0,0-1.35,3.38s-.9,1.06-1.28.32c0,0,.21-1-.23-1.33a10.639,10.639,0,0,0-1.44,2.7c-1.24,3.07-6.56,3.77-7.85,2.75C148.71,308.83,150.1,307,152.1,305.05Z" fill="#32425b"/>
            <path id="Trazado_152658" data-name="Trazado 152658" d="M149.44,308.33a8.28,8.28,0,0,1,2.58-3.15,23.46,23.46,0,0,0,4.06-4.23c-.27.63-.36,1.14,0,1.23,1,.24,2.75-1.11,4-2.3h0a19.828,19.828,0,0,1-2.91,3.05c-1.09.72-2,6.16-5.3,6.5C149.42,309.68,149.33,308.8,149.44,308.33Z" fill="#384c68"/>
            <path id="Trazado_152659" data-name="Trazado 152659" d="M158.41,217.6c4.52-.49,6.45,7.4,11,7.48-1.7,11.53-5.5,24.77-6.1,30.18-.28,2,2.39,6.32,2,12.56-.21,3.07-2.67,30.91-2.84,31-2.25,2.7-6.53,2.15-5.74,1.12.35-.47-1.2-20.24-2.74-39.6-.14-1.77-.83-10.18-1.09-12.56,0-.26-1.89-22.79,2.1-36.22C156.37,211.48,156.93,217.76,158.41,217.6Z" fill="#275689"/>
            <path id="Trazado_152660" data-name="Trazado 152660" d="M157.45,225.15a96.735,96.735,0,0,1,11.92-.08h0c-1.7,11.53-5.5,24.77-6.1,30.18-.28,2,2.39,6.32,2,12.56-.21,3.07-2.67,30.91-2.84,31a5.62,5.62,0,0,1-3.3,1.87,10.21,10.21,0,0,0,1.79-2.89c3.65-24.38.21-36.46-1.49-39.92,1.63-4.57,1.54-10.06,1.42-14.53C160.69,237.8,161.08,230,157.45,225.15Z" fill="#965f7e" opacity="0.18"/>
            <path id="Trazado_152661" data-name="Trazado 152661" d="M168,303.39s-.94,4-4.5,5.31.75-6,.75-6Z" fill="#ffa89c"/>
            <path id="Trazado_152662" data-name="Trazado 152662" d="M159.56,310.74a47.1,47.1,0,0,0,4.49-7.82c-.47,1.29-1.27,3.85-.43,4.23,1.65.74,4.41-3.55,4.41-3.55h0c.56-.87.54-1.2.54-1.2a4.12,4.12,0,0,1,.5,3.51h0a3.62,3.62,0,0,1-.71,1.19,7.14,7.14,0,0,0-1,2.8s-.68.81-1.1.52a8.7,8.7,0,0,1-.82,2.22c-1.54,2.93-5.6,4.35-6.79,3.2C157.64,314.94,158,313,159.56,310.74Z" fill="#32425b"/>
            <path id="Trazado_152663" data-name="Trazado 152663" d="M159.72,310.69a52,52,0,0,0,4-6.69c-.39,1.29-.71,2.86-.07,3.15,1.43.64,3.7-2.5,4.27-3.34a3.1,3.1,0,0,1-.57,1.15c-.74,1-2.77,3-2.87,4.77s-1.3,6-4.59,5.45C157.11,314.71,159.72,310.69,159.72,310.69Z" fill="#384c68"/>
            <path id="Trazado_152664" data-name="Trazado 152664" d="M154.11,218.62c0-4.41.85-10.66,4.87-11.73,1.16-.31,12.66,4.47,13.94,4.6,5.66.56,9.86,9.16,9.27,15.23-1.2,12.36-6,28.53-6.65,34.66-.29,2,1.33,5.86.4,13.44-.38,3.05-6.25,24.7-6.26,24.79a21.062,21.062,0,0,1-1.16,3.66c-.9,1.39-3.08,2.44-4.67,1.81s-.42-3.68-.46-4.05a118.369,118.369,0,0,0,2.25-34.4c-.14-1.76-.3-10.39-.55-12.78,0-.33-2-23.45-2-23.45C163.08,230.65,154.11,223.77,154.11,218.62Z" fill="#275689"/>
            <path id="Trazado_152665" data-name="Trazado 152665" d="M182.19,226.72c-1.2,12.36-6,28.53-6.65,34.66-.29,2,1.33,5.86.4,13.44-.38,3.05-6.25,24.7-6.26,24.79a21.062,21.062,0,0,1-1.16,3.66,4.62,4.62,0,0,1-1.77,1.51c.07-.19.14-.38.19-.56,9.18-33.7,4.81-41.55,4.09-41.53h-.77c.38-7.18,3.34-14.67,3.35-21.7,0-8.65-3.84-18.65-11.62-21.41.66-3.92,1.14-4.12,1.67-6.47,2.18-.54,4.32-.92,5.73-1.3a10,10,0,0,1,3.38-.31h.15C178.58,212.05,182.78,220.65,182.19,226.72Z" fill="#3c80d3" opacity="0.3"/>
          </g>
          <g id="Grupo_90487" data-name="Grupo 90487">
            <path id="Trazado_152666" data-name="Trazado 152666" d="M160.45,357.07V266.41l-10.54-6.42-8.82-1.51L67.9,300.74Z" fill="#e9f6ff" opacity="0.2"/>
            <path id="Trazado_152667" data-name="Trazado 152667" d="M201.52,359.53a49.82,49.82,0,0,0,25-6.69l11.64-6.72c7.16-4.13,6.25-11.41-2-16.18l-97.43-56.25c-8.26-4.77-20.87-5.29-28-1.16l-35.6,20.56c-7.16,4.13-6.25,11.41,2,16.18l82.37,47.56a20.2,20.2,0,0,0,10.09,2.7Z" fill="#3c80d3" opacity="0.3"/>
            <path id="Trazado_152668" data-name="Trazado 152668" d="M178.72,262.55v94.66l-.39.23c-4.82,2.79-12.74,2.79-17.61,0l-1.34-.78V262.55Z" fill="#2c6199"/>
            <path id="Trazado_152669" data-name="Trazado 152669" d="M160.44,266.41v90.66l-1.06-.64v.21L62.76,300.83c-2.43-1.41-3.64-3.27-3.64-5.11V205l100.26,60.8Z" fill="#3472b2"/>
            <path id="Trazado_152670" data-name="Trazado 152670" d="M178.72,262.55v26.1a23.46,23.46,0,0,1-12.2-2.67l-6.08-3.52-1.06-.61L59.12,224V205l100.26,60.8v-3.21Z" fill="#3c80d3" opacity="0.3"/>
            <path id="Trazado_152671" data-name="Trazado 152671" d="M206.85,262.62l-28.48,7.31v87.51l.36-.23h0l24.28-14c2.46-1.42,3.65-3.3,3.6-5.17Z" fill="#275689"/>
            <path id="Trazado_152672" data-name="Trazado 152672" d="M121.97,185.59v35.84l-20.03-24.95Z" fill="#3472b2"/>
            <path id="Trazado_152673" data-name="Trazado 152673" d="M128,211.79a12.08,12.08,0,0,1-1.49-1l-5.1-2.95c-6.22-3.59-6.25-9.44-.07-13,5.93-3.43,5.9-9-.07-12.45l-6.2-3.58c-6.22-3.59-16.35-3.61-22.52,0L51.87,202.24c-6.56,3.61-6.14,9.42.07,13l114.55,66.14c6.21,3.58,16.35,3.6,22.52,0l24.35-14.06a3.62,3.62,0,0,0,0-6.27Z" fill="#68b0ea"/>
            <path id="Trazado_152674" data-name="Trazado 152674" d="M47.12,205.31v3.37s1,.92,1,.87.93-2.14.93-2.2S47.12,205.31,47.12,205.31Z" fill="#68b0ea"/>
            <path id="Trazado_152675" data-name="Trazado 152675" d="M215.16,260.54v3.97l-2.42.41,1.8-4.75Z" fill="#68b0ea"/>
            <path id="Trazado_152676" data-name="Trazado 152676" d="M213.5,264.06l-24.64,14.22c-6.17,3.57-16.3,3.56-22.51,0L92.67,235.7h0L51.8,212.11c-6.21-3.59-6.25-9.43-.07-13l40.64-23.47c6.18-3.57,16.31-3.55,22.52,0l6.21,3.59c6,3.44,6,9,.06,12.44-6.17,3.57-6.14,9.41.07,13l36.19,20.91h0l21.72,12.55a.29.29,0,0,0,.13.05l.13.06.44.26,33.53,19.36a3.6,3.6,0,0,1,.13,6.2Z" fill="#9f99b3"/>
            <path id="Trazado_152677" data-name="Trazado 152677" d="M213.5,264.06l-24.64,14.22c-6.17,3.57-16.3,3.56-22.51,0L92.67,235.7l64.75-10.09h0l21.72,12.55a.29.29,0,0,0,.13.05,3.2,3.2,0,0,0,.57.32l33.53,19.36a3.6,3.6,0,0,1,.13,6.17Z" fill="#e9f6ff" opacity="0.2"/>
            <path id="Trazado_152678" data-name="Trazado 152678" d="M59.11,295.62h0c0,1.87,1.17,3.77,3.64,5.2l96.63,55.8v-.2l1.06.64V278.32L59.11,294.09Z" fill="#e9f6ff" opacity="0.09"/>
            <g id="Grupo_90481" data-name="Grupo 90481">
              <path id="Trazado_152679" data-name="Trazado 152679" d="M108.47,194.9l9.61-5.46-10.9-6.33-14.63,8.34,5.93,3.45Z" fill="#3c80d3" opacity="0.3"/>
              <path id="Trazado_152680" data-name="Trazado 152680" d="M88.6,178.85l.01,10.31,9.86,5.73-.01-10.31Z" fill="#dcedf9"/>
              <path id="Trazado_152681" data-name="Trazado 152681" d="M98.46,184.58l.01,10.31,9.93-5.73-.01-10.32Z" fill="#c0dff2"/>
              <path id="Trazado_152682" data-name="Trazado 152682" d="M88.6,178.85l9.86,5.73,9.93-5.74-9.86-5.73Z" fill="#fff"/>
            </g>
            <g id="Grupo_90482" data-name="Grupo 90482">
              <path id="Trazado_152683" data-name="Trazado 152683" d="M91.98,199.96l5.07-2.87-5.75-3.34-7.71,4.39,3.13,1.82Z" fill="#3c80d3" opacity="0.3"/>
              <path id="Trazado_152684" data-name="Trazado 152684" d="M81.51,191.5l.01,5.44,5.19,3.01v-5.43Z" fill="#dcedf9"/>
              <path id="Trazado_152685" data-name="Trazado 152685" d="M86.71,194.52v5.43l5.23-3.01V191.5Z" fill="#c0dff2"/>
              <path id="Trazado_152686" data-name="Trazado 152686" d="M81.51,191.5l5.2,3.02,5.23-3.02-5.2-3.02Z" fill="#fff"/>
            </g>
            <g id="Grupo_90483" data-name="Grupo 90483">
              <path id="Trazado_152687" data-name="Trazado 152687" d="M81.73,186.18l.01,5.14,4.91,2.86v-5.14Z" fill="#dcedf9"/>
              <path id="Trazado_152688" data-name="Trazado 152688" d="M86.65,189.04v5.14l4.95-2.86-.01-5.14Z" fill="#c0dff2"/>
              <path id="Trazado_152689" data-name="Trazado 152689" d="M81.73,186.18l4.92,2.86,4.94-2.86-4.91-2.86Z" fill="#fff"/>
            </g>
            <g id="Grupo_90485" data-name="Grupo 90485">
              <g id="Grupo_90484" data-name="Grupo 90484">
                <path id="Trazado_152690" data-name="Trazado 152690" d="M178.62,273.24l24.61-14.21-19.07-11.01-28.79,16.62,14.89,8.6Z" fill="#3c80d3" opacity="0.3"/>
                <path id="Trazado_152691" data-name="Trazado 152691" d="M178.43,249.88l16.11,9.3-24.31,14.04-16.11-9.3Z" fill="#cee6f2"/>
                <path id="Trazado_152692" data-name="Trazado 152692" d="M178.43,245.36l16.11,9.3-24.31,14.03-16.11-9.3Z" fill="#b9deed"/>
                <path id="Trazado_152693" data-name="Trazado 152693" d="M178.26,244.95l16.11,9.3-24.32,14.04-16.11-9.3Z" fill="#fff"/>
                <path id="Trazado_152694" data-name="Trazado 152694" d="M173.3,253.24l6.49,3.74L170,262.63l-6.49-3.74Z" fill="#4483c1"/>
                <path id="Trazado_152695" data-name="Trazado 152695" d="M174.71,252.41l6.48,3.75-.75.45-6.48-3.74Z" fill="#4483c1"/>
              </g>
              <path id="Trazado_152696" data-name="Trazado 152696" d="M194.54,254.66v4.52l-24.31,14.04v-4.53Z" fill="#cee6f2"/>
              <path id="Trazado_152697" data-name="Trazado 152697" d="M154.12,259.39v4.53l16.11,9.3v-4.53Z" fill="#e3f5fc"/>
            </g>
            <path id="Trazado_152698" data-name="Trazado 152698" d="M168.45,280.14a.53.53,0,0,1-.24-.06L50.67,211.82a.47.47,0,0,1-.17-.64.48.48,0,0,1,.64-.17l117.54,68.27a.46.46,0,0,1-.23.86Z" fill="#d9f5ff"/>
            <g id="Grupo_90486" data-name="Grupo 90486">
              <path id="Trazado_152699" data-name="Trazado 152699" d="M145.23,238.76l15.02-8.67-30.2-17.43-19.59,11.3,25.63,14.8Z" fill="#3c80d3" opacity="0.3"/>
              <path id="Trazado_152700" data-name="Trazado 152700" d="M136.05,238.74l-26.39-15.23v-1.09l43.5,5.36v1.08Z" fill="#275689"/>
              <path id="Trazado_152701" data-name="Trazado 152701" d="M136.05,237.66l-26.39-15.24,17.11-9.88,26.39,15.24Z" fill="#4483c1"/>
              <path id="Trazado_152702" data-name="Trazado 152702" d="M135.67,234.59l-20.77-12,9.08-5.14,20.77,12.01Z" fill="#275689"/>
              <path id="Trazado_152703" data-name="Trazado 152703" d="M136.25,237.34l-.2.32L100.3,214.64l.2-.32,26.39,15.24Z" fill="#427db7"/>
              <path id="Trazado_152704" data-name="Trazado 152704" d="M136.05,237.66l-26.39-15.24-9.36-7.78,26.39,15.23Z" fill="#275689"/>
            </g>
          </g>
          <g id="Grupo_90489" data-name="Grupo 90489">
            <path id="Trazado_152705" data-name="Trazado 152705" d="M118,190.24a5.13,5.13,0,0,0,.5,4.61c.87,1.2,2.06,1.08,2.66-.26a5.13,5.13,0,0,0-.49-4.61C119.79,188.78,118.59,188.9,118,190.24Z" fill="#a2b5db"/>
            <path id="Trazado_152706" data-name="Trazado 152706" d="M116.16,192.23a2.18,2.18,0,0,0,.69,1.7,2,2,0,0,0,1.12.57l.85.15,6.69,1.17,1.68.29a2.74,2.74,0,1,0,.95-5.39h-.32l-9.36-.52a8.931,8.931,0,0,1-1.71-.1C116.11,189.89,116.21,191.51,116.16,192.23Z" fill="#ffa89c"/>
            <path id="Trazado_152707" data-name="Trazado 152707" d="M110.54,191.48a.6.6,0,0,0,.66.19h0a3.91,3.91,0,0,1,2.12-.18h.27a8.289,8.289,0,0,1,1.2.36,7.189,7.189,0,0,1,1.11.52,1.27,1.27,0,1,0,1.34-2.15.91.91,0,0,0-.3-.14h0a9.309,9.309,0,0,0-1.6-.33,10.649,10.649,0,0,0-1.6-.06,5.67,5.67,0,0,0-3.07,1,.54.54,0,0,0-.13.79Z" fill="#ffa89c"/>
            <path id="Trazado_152708" data-name="Trazado 152708" d="M110.54,191.48a.6.6,0,0,0,.66.19h0a3.91,3.91,0,0,1,2.12-.18c-.06-.34-.36-.81-1.57-.48a7.81,7.81,0,0,0-1.21.47Z" fill="#965f7e" opacity="0.18"/>
            <path id="Trazado_152709" data-name="Trazado 152709" d="M106.27,197.25a1.37,1.37,0,0,0,.77.54,8.56,8.56,0,0,0,3.07.17,12.739,12.739,0,0,0,4.76-1.53,40.6,40.6,0,0,0,3.95-1.78,1.88,1.88,0,0,0,.88-1.6,3.38,3.38,0,0,0-.25-1.18,2.47,2.47,0,0,0-2.3-1.35,8.63,8.63,0,0,0-3.51.54,42.631,42.631,0,0,0-5.37,3.19C106.87,194.92,105.89,196.57,106.27,197.25Z" fill="#ffa89c"/>
            <path id="Trazado_152710" data-name="Trazado 152710" d="M107,197.79a8.56,8.56,0,0,0,3.07.17,12.74,12.74,0,0,0,4.76-1.53,40.6,40.6,0,0,0,3.95-1.78l6.69,1.17.32-3.11s-4,.26-6.13.34h-1a4.88,4.88,0,0,0-1.82.85c-2.26,1.34-5.93,3.81-8.72,3.8A7.221,7.221,0,0,0,107,197.79Z" fill="#965f7e" opacity="0.18"/>
            <path id="Trazado_152711" data-name="Trazado 152711" d="M121.07,194.57a5.11,5.11,0,0,0-.49-4.6,1.73,1.73,0,0,0-1.32-.82h0l20.68.46L153.51,167a5.034,5.034,0,0,1,8.64,5.17l-14.78,24.74-.35.59a4,4,0,0,1-4.21,1.86l-23.2-3.67h0C120.15,195.73,120.71,195.37,121.07,194.57Z" fill="#bc926d"/>
            <path id="Trazado_152712" data-name="Trazado 152712" d="M147,197.47a4,4,0,0,1-4.21,1.86l-23.2-3.67h0c.59.09,1.15-.27,1.51-1.07a3.93,3.93,0,0,0,.31-1.35h0s18.9,1.36,23-1.19,16.82-25.15,16.82-25.15h.88a5,5,0,0,1,.06,5.23l-14.78,24.74Z" fill="#3c80d3" opacity="0.3"/>
            <path id="Trazado_152713" data-name="Trazado 152713" d="M155,164.1a4.72,4.72,0,0,1,4.87-1.91c4.25.89,15.15,3.95,23,12.86A4.7,4.7,0,0,1,184,179c-.86,5.34-6,19.79-5.63,26.44,0,0,.22,1.67.45,3.45,0,.22.05.43.07.64.1,1.92-1.12,3.85-3.67,5.32a18.34,18.34,0,0,1-9.35,2.12h0a17.552,17.552,0,0,1-8.292-2.081c-3.288-1.909-4.338-4.609-3.158-7h0c.78-6.19,2-8.25-1.14-16a13.249,13.249,0,0,0-1.75-2.4,14.561,14.561,0,0,1-1.38-2.57C149.11,184.18,151.12,169.72,155,164.1Z" fill="#bc926d"/>
            <path id="Trazado_152714" data-name="Trazado 152714" d="M169,170.46s-6.58,3.22-9.2,7.43,0-.25,0-.25A18.5,18.5,0,0,1,162,168Z" fill="#fff"/>
            <path id="Trazado_152715" data-name="Trazado 152715" d="M149.86,185a6.52,6.52,0,0,0,.25,1.8,14.561,14.561,0,0,0,1.38,2.57,13.251,13.251,0,0,1,1.75,2.4c.16.42.32.8.46,1.19a40.751,40.751,0,0,0,5.43,3.65,27.87,27.87,0,0,1,7.29,5.89c5.91,6.76,6.38,14.55-1,14.31l.42.11h0a18.34,18.34,0,0,0,9.35-2.12c2.55-1.47,3.77-3.4,3.67-5.32a1.925,1.925,0,0,0-.08-.67c-.23-1.78-.43-3.42-.44-3.42-.36-6.65,4.77-21.1,5.63-26.44a4.91,4.91,0,0,0,0-1.53c-.41-.46-.75-.61-1.88-.71-3-.12-5.83.59-8.68,7.14-6.92,15.87-23.1,8.87-23.51.32C149.87,184.46,149.87,184.73,149.86,185Z" fill="#3c80d3" opacity="0.3"/>
            <circle id="Elipse_5219" data-name="Elipse 5219" cx="4.32" cy="4.32" r="4.32" transform="translate(156.63 157.7)" fill="#1f486d"/>
            <path id="Trazado_152716" data-name="Trazado 152716" d="M165.12,153.26a3.013,3.013,0,1,1,6,.56l.2,13.77v.31a1.59,1.59,0,0,1-.1.75,2.67,2.67,0,0,1-1.26,1.34,7.28,7.28,0,0,1-6.57,0,4.71,4.71,0,0,1-.66-.47h0A1.87,1.87,0,0,1,162,168C162,167.67,165.12,153.26,165.12,153.26Z" fill="#e29191"/>
            <path id="Trazado_152717" data-name="Trazado 152717" d="M174.74,152.09c-1.19,10.95-11.28,13.2-13.49,12.68-3.07-.72-4.89-6.93-4.45-13.84s4.83-12.27,9.79-12S175.49,145.2,174.74,152.09Z" fill="#ffa89c"/>
            <path id="Trazado_152718" data-name="Trazado 152718" d="M155.07,146.32c-.36-5.83,4.27-7.88,5.37-8.43A19,19,0,0,1,171,135.58h.18a6.739,6.739,0,0,1,.93.15,12.759,12.759,0,0,1,2.52.79c3.21,1.35,7.37,4.53,7.43,12,.09,9.9,7.53,7.3,5.63,16.08-2.38,11,4.16,6.9,3.93,13.64-.47,13.53-10,10-10,10s4.11-8.5,2.53-11.86c-2-4.13-6.44-3.26-9.69-3.23-1.48,0-8.83-3.11-4.35-10.85,1-1.74,1.83-2.58,2.12-4.57.07-.5.15-1,.24-1.52h0c.09-3.41-.84-4.89-2.85-5.81C167.82,154.44,155.13,150.58,155.07,146.32Z" fill="#134470"/>
            <path id="Trazado_152719" data-name="Trazado 152719" d="M173.46,156.53c.89-1,1.07-2.31.41-2.89s-1.92-.22-2.81.79-1.07,2.31-.41,2.89S172.57,157.54,173.46,156.53Z" fill="#ffa89c"/>
            <g id="Grupo_90488" data-name="Grupo 90488">
              <path id="Trazado_152720" data-name="Trazado 152720" d="M161.34,213.17a12.388,12.388,0,0,0-1.38.54,10.669,10.669,0,0,0-1.28.71,5.1,5.1,0,0,0-2.07,2.21.461.461,0,0,0,.8.46h0a4.08,4.08,0,0,1,1.92-1.28,8.252,8.252,0,0,1,1.2-.35,9.379,9.379,0,0,1,1.2-.2,1.053,1.053,0,1,0-.17-2.1.931.931,0,0,0-.23,0Z" fill="#ffa89c"/>
              <path id="Trazado_152721" data-name="Trazado 152721" d="M157.44,217.05h0a.46.46,0,0,1-.56.15.47.47,0,0,1-.23-.23c.17,0,.33,0,.86-.78.32-.46,1.13-.45,1.7-.39a3.94,3.94,0,0,0-1.77,1.25Z" fill="#965f7e" opacity="0.18"/>
              <path id="Trazado_152722" data-name="Trazado 152722" d="M153.36,218.26c.43-.76,3.61-.53,4.62-1.17,1.6-1,1.77-3.83,4.29-4.34,1.74-.36,3.09.39,4.57,1.95-2.44,3.17-4.62,6.3-8.91,6.29C157.14,221,152.41,220.3,153.36,218.26Z" fill="#ffa89c"/>
              <path id="Trazado_152723" data-name="Trazado 152723" d="M157.54,219.17c3.13.12,6.76-4.14,6.76-4.14l1.73.73c-2.15,2.77-4.29,5.24-8.1,5.23-.79,0-5.52-.69-4.57-2.73C153.31,218.92,154.41,219,157.54,219.17Z" fill="#965f7e" opacity="0.18"/>
            </g>
            <path id="Trazado_152724" data-name="Trazado 152724" d="M162.41,212.14h0l16.9-9.25a1.61,1.61,0,0,0,0-.54l-2.73-19-.2-1.32a8.86,8.86,0,0,1,4-6.92,4.14,4.14,0,0,1,1.26-.48c.9.13,1.33,0,2,.55a5.79,5.79,0,0,1,2.07,3.71l2.08,26.54v.37a1.69,1.69,0,0,1,0,.25,3.05,3.05,0,0,1-1.89,3.06l-21,8.69c-.14.16-.23.11-.32-.06a6.08,6.08,0,0,1-1.69-2.45C162.36,213.79,162.11,212.47,162.41,212.14Z" fill="#bc926d"/>
            <path id="Trazado_152725" data-name="Trazado 152725" d="M163.27,215.78c2.2,1.6,19.18-5.56,20.47-7.14a3.22,3.22,0,0,0-.34-4.37c.26.26,2.42,2.39,2.39,2.3-.2-.61-2.22-3-3.62-3.14,1.3.16,3.42,1.3,3.66.84.74-1.51-.68-3-1.24-15.37-.66-14.31-4.17-13.83-4.17-13.83a4.479,4.479,0,0,1,1.25-.48c.91.13,1.35,0,2,.55a5.76,5.76,0,0,1,2.06,3.71l2.08,26.55v.36h0a1.379,1.379,0,0,1,0,.22,3.05,3.05,0,0,1-1.89,3.06l-21,8.69c-.14.16-.23.11-.32-.06a5.13,5.13,0,0,1-1.43-1.92Z" fill="#3c80d3" opacity="0.3"/>
          </g>
        </g>
        <g id="Grupo_90491" data-name="Grupo 90491">
          <path id="Trazado_152726" data-name="Trazado 152726" d="M107.82,187.77v5.91l5.65,3.28-.01-5.91Z" fill="#dcedf9"/>
          <path id="Trazado_152727" data-name="Trazado 152727" d="M113.46,191.05l.01,5.91,5.68-3.28-.01-5.91Z" fill="#c0dff2"/>
          <path id="Trazado_152728" data-name="Trazado 152728" d="M107.82,187.77l5.64,3.28,5.68-3.28-5.64-3.28Z" fill="#fff"/>
          <path id="Trazado_152729" data-name="Trazado 152729" d="M107.82,187.77l5.64,3.28,5.68-3.28-5.64-3.28Z" fill="#fff"/>
        </g>
        <g id="w">
          <path id="Trazado_152730" data-name="Trazado 152730" d="M55.05,358.31c9.76,5.64,25.63,5.61,35.45-.06s9.87-14.83.11-20.47-25.63-5.6-35.45.07S45.29,352.68,55.05,358.31Z" fill="#3c80d3" opacity="0.3"/>
          <path id="Trazado_152731" data-name="Trazado 152731" d="M96.47,199.24c3.1-.75,7.49,0,4.67,3.28a15.257,15.257,0,0,1-1.87,1.23,4.71,4.71,0,0,0-1.14.85l-2.53,3h0a13.12,13.12,0,0,1-3.32,2.91l-3.41-3.06S90.29,200.72,96.47,199.24Z" fill="#ea9b9b"/>
          <path id="Trazado_152732" data-name="Trazado 152732" d="M97.51,203.37c-1.75,2.83-4.57,4.85-5.41,5a3.63,3.63,0,0,0-1.26.93l1.4,1.26a13.12,13.12,0,0,0,3.32-2.91h0l2.53-3a4.71,4.71,0,0,1,1.14-.85,15.26,15.26,0,0,0,1.87-1.23c1.19-1.37,1.09-2.3.34-2.86l-.22-.07C102.35,200.24,98.47,201.82,97.51,203.37Z" fill="#965f7e" opacity="0.18"/>
          <path id="Trazado_152733" data-name="Trazado 152733" d="M100.29,204a12.637,12.637,0,0,1-1,.94,8.45,8.45,0,0,1-1.2.83,5.58,5.58,0,0,1-1.56.63,4.13,4.13,0,0,1-2.06,0l-.37-.11a1.19,1.19,0,0,1-.84-1.64,1.63,1.63,0,0,1,1.93-.8,1.44,1.44,0,0,1,.52.28.8.8,0,0,0,.48.14,2.83,2.83,0,0,0,.92-.16,8.1,8.1,0,0,0,2-1h.06a.92.92,0,0,1,1.15.11A.65.65,0,0,1,100.29,204Z" fill="#ea9b9b"/>
          <path id="Trazado_152734" data-name="Trazado 152734" d="M53.54,195.94l12.34,29.21.34.81A6.8,6.8,0,0,0,75,229.54,6.61,6.61,0,0,0,77.31,228l17.93-17.75.13-.11a1,1,0,0,0,.14-.17,2.72,2.72,0,0,0,.53-1.78,7.49,7.49,0,0,0-2-4.65c-1.27-1.14-2.71-2.09-4.07-1.27l-.3.26L74.4,216.05l-7.26-25.66a7.41,7.41,0,0,0-9.63-3.91,7.18,7.18,0,0,0-3.97,9.46Z" fill="#efba8f"/>
          <g id="Grupo_90492" data-name="Grupo 90492">
            <path id="Trazado_152735" data-name="Trazado 152735" d="M53,255.3c1.76,0,3-.18,4.84-.33a134.423,134.423,0,0,1,16.91.16c-2.49,14.29-4.26,29.84-5.18,36.54-.42,2.43-1,9-1.74,16.71-.31,3.27-.92,23.17-1.07,30.05a3.67,3.67,0,0,0,1.76,3.51c.64.3,1.54.11,2.11.54,1.24.92-1.48,3.07-5,3.38-4.95-.18-4.79-3-4.76-3.07a4.134,4.134,0,0,0,.49-.84,3.43,3.43,0,0,0,.09-2c-1.07-3.93-3.84-17.84-6.49-33-.84-4.82-.08-9,.91-13.69.46-2.15-2.17-7.52-2.41-10.49C53.41,282.46,53.27,263.77,53,255.3Z" fill="#ffa89c"/>
            <path id="Trazado_152736" data-name="Trazado 152736" d="M57.81,255a79.5,79.5,0,0,1,8.45-.18c2.82.07,5.64.22,8.46.34-2.49,14.29-7.62,30.63-8.54,37.33-.34,2,1.62,5.84,2,11.27-.13,1.44-.27,3-.43,4.65-.31,3.27-.92,23.17-1.07,30.05a3.67,3.67,0,0,0,1.76,3.51c.64.3,1.54.11,2.11.54,1.24.92-1.48,3.07-5,3.38a7.771,7.771,0,0,1-2.91-.58,3.279,3.279,0,0,1,.83-.67A2.79,2.79,0,0,0,65,342.36c2.88-37.19-2.7-40.09-8.83-43.14-1-.5,0-5.58-.25-6.25.12-1.39-.7-3.75-1.43-6-.15-2.4-.29-4.57-.38-5.69,0-.3-.61-17-.92-26C54.81,255.27,56,255.11,57.81,255Z" fill="#965f7e" opacity="0.18"/>
            <path id="Trazado_152737" data-name="Trazado 152737" d="M61.07,342.41s.15,2.22,3.34,2.28,6.49-1.41,6.08-2.06c-.18-.27-1.5-.52-2-.67,1.24.23,2.28-.27,4.52-.76s5.3-1.2,4.89,1.44c-.36,2.35-3.64,5-7,5.9-3.16.84-5.29-.5-6.43.14s-.76,2.27-.87,2.39a1.62,1.62,0,0,1-.73.39l-.14.08h-.07a2.329,2.329,0,0,1-.74-.51A9.76,9.76,0,0,0,60,347.56C58.41,345.16,61.07,342.41,61.07,342.41Z" fill="#32425b"/>
            <path id="Trazado_152738" data-name="Trazado 152738" d="M57.49,246.37c-.17,6.4,9.86,13.13,9.83,12.82l2.28,31.62c.24,3-2,15-1.75,18.05,2.26,24.05,4.28,35.73,3.64,37.72,0,.05-1,1.6-1.08,1.78a.79.79,0,0,0-.11.29h0c-.17.59.14,1.23.94,1.72a4.92,4.92,0,0,0,2.18.64,12.4,12.4,0,0,0,1.38-.13h.3a7.37,7.37,0,0,0,1.83-.07c1.37-.75,3.81-2,2.35-2.5s-2.66-2.1-2.59-3.1c0-.15,3.28-24.74,3.64-28.55.73-7.74,1.34-13.8,1.76-16.24,1-7.59,4.44-61.22-2.58-62.1a12.28,12.28,0,0,0-4.58.25C69.92,239.8,57.63,240.88,57.49,246.37Z" fill="#ffa89c"/>
            <path id="Trazado_152739" data-name="Trazado 152739" d="M79.53,238.35c5.36.67,4.73,2.94,6,9.31,0,.92.66,5.47.55,6.32-.62,5.11,2.9,11.14,2.33,16.5-2.34,11.4-5.13,22.38-5.92,27.8-.15.8-.27,1.54-.36,2.17-.42,2.44-1,8.5-1.76,16.24-.36,3.81-3.65,28.4-3.64,28.55-.07,1,1.08,2.56,2.59,3.1s-1,1.75-2.35,2.5a.929.929,0,0,1-.35.07,6.193,6.193,0,0,1-.75,0h-.68a1.609,1.609,0,0,1-.31,0c-.46.06-.94.11-1.43.14h0a5.46,5.46,0,0,1-1-.18l-.22-.05h-.08a2.188,2.188,0,0,1,.36-.3,3.3,3.3,0,0,0,1.76-2.39c6.29-39.11-.39-45.93-4.9-46.52a2.919,2.919,0,0,1-.82-.21c.55-4.23,1.23-8.84,1.09-10.53,0-.06-.06-.79-.14-2v-.28c0-.43-2.37-32.8-2.37-32.8H67a15.076,15.076,0,0,1-1.67-1.13h0c0-1.15-.07-1.82-.07-1.82h-.17l-.2-.11-.41-.26h-.07c-.52-.36-1.26-.89-2.09-1.56.61-3.53,1.28-6.85,1.92-9.8,3.77-1.15,8.21-1.74,10.78-2.35a12.281,12.281,0,0,1,4.51-.41Z" fill="#965f7e" opacity="0.18"/>
            <path id="Trazado_152740" data-name="Trazado 152740" d="M70.41,348.36s.15,2.22,3.34,2.28,6.2-1.54,5.67-2.1c-.12-.13-.89-.5-1.28-.83,1.1.57,2.56.2,5.31,0,2.13-.17,5.22-.77,4.81,1.87-.37,2.35-5.84,5.58-9.09,5.88s-3.75-1.41-4.89-.77S73,356.9,72.88,357a1.62,1.62,0,0,1-.73.39l-.14.08h-.07a2.54,2.54,0,0,1-.74-.52c-.33-1.6-.84-1.8-1.86-3.46C67.8,351.09,70.41,348.36,70.41,348.36Z" fill="#32425b"/>
            <path id="Trazado_152741" data-name="Trazado 152741" d="M46.32,306.44a.16.16,0,0,1,0-.07l.06-.24a1.428,1.428,0,0,1,.11-.39c.04-.13.07-.26.07-.26,3.47-15.84,2.65-42.64,2.65-42.64h0c-2.08-15.16,6.17-21.78,6.17-21.78s17.61-8.31,28.68.84a3,3,0,0,1,1.55,1.5c3.18,3.64,4.27,10.15,4.26,17.37,2.08,16.2,2,36.76,1.77,45.87a7.47,7.47,0,0,1-.07,2.58c-.55,2.88-2.75,5.66-6.57,7.87-.13.07-.24.15-.37.21-8.93,4.94-23.09,4.91-31.85-.16-4-2.33-6.23-5.34-6.56-8.39a6.24,6.24,0,0,1-.06-1,6.79,6.79,0,0,1,.16-1.31Z" fill="#275689"/>
          </g>
          <path id="Trazado_152742" data-name="Trazado 152742" d="M54.22,219.22c-3.38-12.51-2.49-25.92,2-32.53A5.54,5.54,0,0,1,62,184.44c5,1.05,17.83,4.63,27.08,15.11a5.56,5.56,0,0,1,1.32,4.59c-1,6.28-7,23.27-6.62,31.09,0,0,.41,3.15.75,5.78a7.231,7.231,0,0,0,.29,1.2,4.9,4.9,0,0,1,.15,2.27v.06h0a4.73,4.73,0,0,1-2.61,3.56,10.471,10.471,0,0,1-1.26.59c-5.13,2.26-13.77,1.35-20-2.23-5.19-3-7.13-7-5.33-9.94a9.07,9.07,0,0,0,1.12-5.83,83.251,83.251,0,0,0-2.67-11.47Z" fill="#efba8f"/>
          <path id="Trazado_152743" data-name="Trazado 152743" d="M69.1,249.38c9.72-2.84,5.34-28,9.05-39.16,2.66-8,6.7-8.53,10.21-8.38a3,3,0,0,1,2,.61,5.63,5.63,0,0,1,0,1.69c-1,6.28-7,23.27-6.62,31.09,0,0,.41,3.15.75,5.78a7.23,7.23,0,0,0,.29,1.2c.06.21.07.41.11.62s.06.48.09.7a4.3,4.3,0,0,1,0,.95v.06h0a4.73,4.73,0,0,1-2.61,3.56,10.472,10.472,0,0,1-1.26.59C77.93,250.06,73.49,250.24,69.1,249.38Z" fill="#3c80d3" opacity="0.3"/>
          <path id="Trazado_152744" data-name="Trazado 152744" d="M82.85,242.17c1.28-1.81,1.66-4.22,1.87-6.62l9.62,14.63,1.52,1.21a15.729,15.729,0,0,1,2.57,2.75v.08a.54.54,0,0,1,.09.12,28.613,28.613,0,0,1,1.62,3.47,7.07,7.07,0,0,1-.2,1.63h0c-.11.53-.23,1.06-.32,1.4a7.739,7.739,0,0,1-.35,1.32v.13a.5.5,0,0,1-.16.28,2.61,2.61,0,0,1-.73.83h0l-.06.05c-.66.42-1,.44-1.27.33h-.06a.48.48,0,0,1-.21-.35v-.05l.08-2.87-.65-1.39h0a3.379,3.379,0,0,0-1.2-.68c-1.32-.61-2.2-2.38-2.64-3.22a19,19,0,0,1-.71-2.37l-9.21-8.7C82.51,244.1,82.7,242.38,82.85,242.17Z" fill="#ffa89c"/>
          <path id="Trazado_152745" data-name="Trazado 152745" d="M99.28,262.24v.13a.5.5,0,0,1-.16.28,2.61,2.61,0,0,1-.73.83h0l-.06.05c-.66.42-1,.44-1.27.33.8-.08,1-2.2.93-4.17s-3.38-4.07-3.78-5.72c-.54-2.18-11.43-16.81-11.43-16.81l-.1-4.87,11.74,17.85,1.52,1.21a15.731,15.731,0,0,1,2.57,2.75v.08a.539.539,0,0,1,.09.12,28.131,28.131,0,0,1,1.62,3.48,7.05,7.05,0,0,1-.2,1.62h0c-.11.53-.23,1.06-.32,1.4a7.741,7.741,0,0,1-.42,1.44Z" fill="#965f7e" opacity="0.18"/>
          <path id="Trazado_152746" data-name="Trazado 152746" d="M80.55,210.73l-2.5,27.57c0,.21,0,1,.31,1.23l10.32,13.74c3.12,3.3,5.73.33,6.4-1.91.3-1-.34-1.86-.89-2.78l-7.65-12.79c.25-.61,4.15-22.44,4.18-30,0-2.75-1.48-3.44-2.29-4.12s-1.25-.47-2.25-.61a4.56,4.56,0,0,0-1.4.54,9.86,9.86,0,0,0-4.44,7.68Z" fill="#efba8f"/>
          <path id="Trazado_152747" data-name="Trazado 152747" d="M86.84,233.65l-.65-.09Z" fill="#7baeff" opacity="0.15"/>
          <g id="Grupo_90493" data-name="Grupo 90493">
            <path id="Trazado_152748" data-name="Trazado 152748" d="M76.86,182.82Z" fill="#2b3b51"/>
            <path id="Trazado_152749" data-name="Trazado 152749" d="M76.8,181.78Z" fill="#2b3b51"/>
          </g>
          <path id="Trazado_152750" data-name="Trazado 152750" d="M69.14,178.74a8.31,8.31,0,0,1,7.48,0c.67.4,1.35,9,1.7,13a1.5,1.5,0,0,1,0,.37,2.62,2.62,0,0,1-1.56,2.14,8.26,8.26,0,0,1-7.47,0,2.54,2.54,0,0,1-1.52-2.31C67.89,187.94,68.37,179.19,69.14,178.74Z" fill="#ffa89c"/>
          <path id="Trazado_152751" data-name="Trazado 152751" d="M69.14,178.74a8.31,8.31,0,0,1,7.48,0c.67.4,1.35,9,1.7,13a1.5,1.5,0,0,1,0,.37,2.62,2.62,0,0,1-1.56,2.14,8.26,8.26,0,0,1-7.47,0,2.54,2.54,0,0,1-1.52-2.31C67.89,187.94,68.37,179.19,69.14,178.74Z" fill="#965f7e" opacity="0.26"/>
          <path id="Trazado_152752" data-name="Trazado 152752" d="M66.5,171.45c0,14.73,13.92,12.66,16,11.67,3-1.45,3-3.4,3.45-10.32.63-9.63-3.11-12.8-8.06-13.16S66.5,164.51,66.5,171.45Z" fill="#ffa89c"/>
          <path id="Trazado_152753" data-name="Trazado 152753" d="M66.5,171.45c0,14.73,13.92,12.66,16,11.67,3-1.45,3-3.4,3.45-10.32.63-9.63-3.11-12.8-8.06-13.16S66.5,164.51,66.5,171.45Z" fill="#965f7e" opacity="0.18"/>
          <path id="Trazado_152754" data-name="Trazado 152754" d="M59,163.54a1.24,1.24,0,0,1,.14-.18c2-3.44,5.77-6.12,11.25-6.76a5.52,5.52,0,0,1,1.24-1.06h.08c.14-.09.27-.18.44-.27l.16-.07a10.46,10.46,0,0,1,5.56-1c4.89.32,7.17,2.58,7.52,5.2a4.69,4.69,0,0,1-.57,5L84,165.76c-.42.83-1.58,2.66-.49,8-1.23-.32-2.34-3.43-2.34-3.43-.09.21-1,2.3-1.07,2.51a1.06,1.06,0,0,0-1.1.07,3.34,3.34,0,0,0,0,.43l-.49,1a1.09,1.09,0,0,0,.1.25,6.09,6.09,0,0,0,.46.55c-.19.42-.94.94-.59,1.23,14,11.52,9,22.46,9,22.46s-5.06-5.42-11.88,8.67c-6.06,12.5-20.38,2.52-21.45-6.74C52.65,188.4,55.64,168.64,59,163.54Z" fill="#826d59"/>
          <path id="Trazado_152755" data-name="Trazado 152755" d="M77.23,173.28c.36-.87,1.74-1.13,3.07-.58.14.06.2.84.29.89a6.21,6.21,0,0,0,.51,2.47,4.29,4.29,0,0,1-2.1-.21C77.66,175.3,76.87,174.15,77.23,173.28Z" fill="#ffa89c"/>
          <path id="Trazado_152756" data-name="Trazado 152756" d="M77.23,173.28c.36-.87,1.74-1.13,3.07-.58.14.06.2.84.29.89a6.21,6.21,0,0,0,.51,2.47,4.29,4.29,0,0,1-2.1-.21C77.66,175.3,76.87,174.15,77.23,173.28Z" fill="#965f7e" opacity="0.18"/>
          <path id="Trazado_152757" data-name="Trazado 152757" d="M94.6,249.26l-.41-.68-7.65-12.79a.769.769,0,0,0,0-.12c.46-1.9,4.11-22.57,4.14-29.9,0-2.75-1.48-3.44-2.29-4.12a2.751,2.751,0,0,0-.55-.35H87.7a2.479,2.479,0,0,0-.39-.1h0c1,1.48,1.76,4.48.2,10.59-3,11.56-.42,25.28-7,28.44-.44.21-.85.39-1.24.55l9.4,12.53c3.12,3.3,5.73.33,6.4-1.91a2.11,2.11,0,0,0,.07-.74,3.58,3.58,0,0,0-.54-1.4Z" fill="#3c80d3" opacity="0.3"/>
        </g>
      </g>
    </g>
  </g>
</svg>
