<svg xmlns="http://www.w3.org/2000/svg" width="400" height="400" viewBox="0 0 400 400">
  <defs>
    <style>
      .cls-1 {
        isolation: isolate;
      }

      .cls-2 {
        fill: #d8d5ed;
      }

      .cls-3 {
        fill: #b2abdb;
      }

      .cls-4 {
        fill: #9f99b3;
      }

      .cls-5 {
        fill: #efba8f;
      }

      .cls-6 {
        fill: #6f678c;
      }

      .cls-14, .cls-7 {
        fill: #3472ad;
      }

      .cls-15, .cls-21, .cls-29, .cls-31, .cls-34, .cls-42, .cls-44, .cls-7 {
        mix-blend-mode: multiply;
      }

      .cls-7 {
        opacity: 0.74;
      }

      .cls-8 {
        fill: #d4f0ff;
      }

      .cls-9 {
        fill: #fff;
      }

      .cls-10 {
        fill: #68abe5;
      }

      .cls-11 {
        fill: #cfccd9;
      }

      .cls-12 {
        fill: #c7e3ff;
      }

      .cls-13 {
        fill: #4d8bb0;
      }

      .cls-15, .cls-44 {
        fill: #3e658e;
      }

      .cls-15 {
        opacity: 0.28;
      }

      .cls-16 {
        fill: #0b0130;
      }

      .cls-17 {
        fill: #72b9ed;
      }

      .cls-18 {
        fill: #e4f1ff;
      }

      .cls-19 {
        opacity: 0.47;
      }

      .cls-20 {
        fill: #3f3466;
      }

      .cls-21 {
        fill: #3c80ce;
        opacity: 0.3;
      }

      .cls-22 {
        fill: #d7e8f4;
      }

      .cls-23 {
        fill: #bbdaed;
      }

      .cls-24 {
        fill: #f2d8c2;
      }

      .cls-25 {
        fill: #6fb6ea;
      }

      .cls-26 {
        fill: #91d9ff;
      }

      .cls-27 {
        fill: #b6e8ff;
      }

      .cls-28 {
        fill: #cdeaff;
      }

      .cls-29, .cls-31 {
        fill: #6597d6;
      }

      .cls-29, .cls-44 {
        opacity: 0.42;
      }

      .cls-30 {
        fill: #dd8c8c;
      }

      .cls-31, .cls-42 {
        opacity: 0.22;
      }

      .cls-32 {
        fill: #e0878d;
      }

      .cls-33 {
        fill: #ffa397;
      }

      .cls-34 {
        fill: #915f7e;
        opacity: 0.18;
      }

      .cls-35 {
        fill: #134470;
      }

      .cls-36 {
        fill: #2b4f7a;
      }

      .cls-37 {
        fill: #c9e1ed;
      }

      .cls-38 {
        fill: #b4d9e8;
      }

      .cls-39 {
        fill: #4480bc;
      }

      .cls-40 {
        fill: #def0f7;
      }

      .cls-41 {
        fill: #275684;
      }

      .cls-43 {
        fill: #509bd8;
      }

      .cls-45 {
        fill: #e59696;
      }

      .cls-46 {
        fill: #806d59;
      }
    </style>
  </defs>
  <g class="cls-1">
    <g id="Capa_1" data-name="Capa 1">
      <path class="cls-2" d="M200,81.94v-70C96.13,11.92,11.92,96.13,11.92,200S96.13,388.08,200,388.08v-70a118.06,118.06,0,0,1,0-236.12Z"/>
      <path class="cls-3" d="M200,388.08c103.87,0,188.08-84.21,188.08-188.08S303.87,11.92,200,11.92v70a118.06,118.06,0,0,1,0,236.12Z"/>
      <g id="_1" data-name="1">
        <g>
          <g>
            <path class="cls-4" d="M241.28,13.8V206h-.05a2.25,2.25,0,0,1-.06.62c-.62,2-4,3.44-7.52,3.11-41-3.84-83.14,4-112.6,21-19.49,11.26-32,25.71-36.4,41.06a43.55,43.55,0,0,0-.06,24l.06.23v.77a3.56,3.56,0,0,1-1.91,2.29,7.54,7.54,0,0,1-2.4.86,6.17,6.17,0,0,1-1.14.19c-3.32.33-6.48-.86-7.34-2.71a2.92,2.92,0,0,1-.14-.38,48.25,48.25,0,0,1-1.81-11.43v-1.06c0-.5,0-1,0-1.5a48.23,48.23,0,0,1,2-12.66,57.18,57.18,0,0,1,7.06-15.26V82.7l8-26.9,36-26.18L160,18.71l34.17-6.18Z"/>
            <g>
              <path class="cls-5" d="M126.9,47.35V170.59c22.84-11.77,52.13-18.46,82.36-19.05V28.3C179,28.89,149.74,35.58,126.9,47.35Z"/>
              <path class="cls-6" d="M209.26,28.3a217.72,217.72,0,0,0-37.92,4.05c17.85,13.82,27.1,31.85,4.65,63.38-25.54,35.86-49,44.93-47.16,73.91,22.55-11.17,51-17.53,80.43-18.1Z"/>
              <path class="cls-7" d="M150,58.55A123,123,0,0,0,131.4,66.2v37.34A122,122,0,0,1,150,95.89Z"/>
              <path class="cls-8" d="M206.83,72.17a.48.48,0,0,1-.47.5,208.54,208.54,0,0,0-53.64,8.67v-1a209.82,209.82,0,0,1,53.61-8.62A.47.47,0,0,1,206.83,72.17Zm-54.11-4.58a208.54,208.54,0,0,1,53.64-8.67.48.48,0,0,0,.47-.49.45.45,0,0,0-.5-.47,209.82,209.82,0,0,0-53.61,8.63Zm53.61-5.05a209.82,209.82,0,0,0-53.61,8.63v1a209,209,0,0,1,53.64-8.67.48.48,0,1,0,0-1Zm0,4.59a209.39,209.39,0,0,0-53.61,8.62v1a208.54,208.54,0,0,1,53.64-8.66.48.48,0,0,0,.47-.5A.46.46,0,0,0,206.33,67.13Z"/>
            </g>
            <path class="cls-9" d="M80.07,291.57l.27,8.37a6.17,6.17,0,0,1-1.14.19c-3.55.35-6.9-1-7.48-3.09a48.25,48.25,0,0,1-1.81-11.43V92.78l9-5.73.27-.17,3,131.19Z"/>
            <path class="cls-6" d="M84.65,104.4V296.79a3.56,3.56,0,0,1-1.91,2.29,7.54,7.54,0,0,1-2.4.86,6.17,6.17,0,0,1-1.14.19c-3.32.33-6.48-.86-7.34-2.71v-193Z"/>
            <path class="cls-10" d="M82.75,106.79c1.45-.83,2.2-2,1.85-3.28-6.65-23.69,7-48,36.44-65s71.57-24.88,112.6-21c3.55.33,6.92-1.07,7.52-3.12s-1.8-4-5.35-4.32c-45.18-4.23-91.52,4.43-124,23.17S64.39,78.68,71.71,104.76c.58,2,3.93,3.43,7.49,3.09A8.89,8.89,0,0,0,82.75,106.79Z"/>
            <path class="cls-11" d="M82.75,105.56c1.45-.83,2.2-2,1.85-3.28-6.65-23.69,7-48,36.44-65s71.57-24.88,112.6-21c3.55.33,6.92-1.06,7.52-3.12s-1.8-4-5.35-4.32c-45.18-4.23-91.52,4.43-124,23.17S64.39,77.45,71.71,103.53c.58,2,3.93,3.44,7.49,3.09A8.74,8.74,0,0,0,82.75,105.56Z"/>
          </g>
          <g>
            <path class="cls-12" d="M167.25,285.41s-2.5,2.67,3.18,7.37c2.58,2.13,4,5.49,2.73,6.52-1.57,1.25-8.23,1-9.73-2.74-1.43-3.53-1.38-6.2-3-7.3s-.58-5.14,2.34-6.13a3,3,0,0,0,.7,1.34C164.8,286.07,167.1,286.54,167.25,285.41Z"/>
            <path class="cls-13" d="M167.25,284.44s-2.5,2.67,3.18,7.37c2.58,2.13,4,5.49,2.73,6.52-1.57,1.24-8.23,1-9.73-2.74-1.43-3.53-1.38-6.2-3-7.3s-.58-5.14,2.34-6.14a3.05,3.05,0,0,0,.7,1.35C164.8,285.1,167.1,285.57,167.25,284.44Z"/>
            <path class="cls-14" d="M185.79,207.17v-.08a11.32,11.32,0,0,0-.29-3,11.11,11.11,0,0,0-21.61,5.14c.7,2.93,7.34,28.94,8.32,34.88.21,4.2-13.74,29.33-9.35,36.78.44.74,3.12,2.13,4.26,2.79,2.2,1.27,18.23-33.84,18.5-39.93C187.26,223,185.66,210.24,185.79,207.17Z"/>
            <path class="cls-15" d="M172.78,267.81c1.76-11.7,5.1-14.67,4.5-16.63-1.42-4.67-4.81-20.81-2.31-27.17s5.54-14.77,5.54-14.77l-16.77-.81q.06.4.15.81c.7,2.93,7.34,28.94,8.32,34.88h0c.21,4.2-13.74,29.33-9.35,36.78.44.74,3.12,2.13,4.26,2.79.67.38,2.62-2.6,5-7.1A53.75,53.75,0,0,1,172.78,267.81Z"/>
            <path class="cls-12" d="M168,298.45a27.82,27.82,0,0,0,6.1,10.83c2.43,2.63,1.21,5.64-1.05,6.19s-6.56,0-7.74-4.11c-2.07-7.19-3.47-7.3-3.49-11.73a2.7,2.7,0,0,0,2.12,1C165.57,300.68,168,299.75,168,298.45Z"/>
            <path class="cls-13" d="M168,297.62a27.82,27.82,0,0,0,6.1,10.82c2.43,2.64,1.21,5.64-1.05,6.19s-6.56,0-7.74-4.11c-2.07-7.19-3.47-7.29-3.49-11.72a2.71,2.71,0,0,0,2.12,1C165.57,299.84,168,298.91,168,297.62Z"/>
            <path class="cls-14" d="M177,217.58a15.34,15.34,0,0,0,4.88-7.91c1.1-4.82.06-5.41,0-6.1-.61-6.09-11.84-6.92-17.93-6.32A11.09,11.09,0,0,0,154,209.38h0c1.32,13.26,3.34,47.47,3.28,49.61-.1,3.31,2.45,37.65,2.45,37.88a2.77,2.77,0,0,0,1.64,2.3c2.21,1.28,3.6,1.27,5.82,0a2.9,2.9,0,0,0,1.67-2.22c0-.14,1-23.6,2.78-46.24C172.9,234.32,170.9,223.06,177,217.58Z"/>
            <path class="cls-15" d="M167.93,298.62h0a2.6,2.6,0,0,0-.59.14c-4.58,1.51-6.73-11.89-7.16-23.72s-2.5-37.61,0-44,2.69-20.34,11.2-22.84c5.06-1.49-2.64-4.58-12.18-9.38a11.46,11.46,0,0,0-2.34,1.93l0,0a10.85,10.85,0,0,0-1.69,2.44l-.06.13a10.24,10.24,0,0,0-.51,1.18,1.43,1.43,0,0,1-.08.22,11.05,11.05,0,0,0-.36,1.37l0,.19c-.07.4-.12.81-.15,1.22,0,.12,0,.25,0,.37a11.74,11.74,0,0,0,0,1.45h0c1.32,13.26,3.34,47.47,3.28,49.61-.1,3.31,2.45,37.65,2.45,37.88a2,2,0,0,0,.1.63,2.45,2.45,0,0,0,.31.6,3.66,3.66,0,0,0,1.23,1.07,5.06,5.06,0,0,0,3.59.89,5.79,5.79,0,0,0,1.44-.48c.25-.12.52-.26.79-.42A4.13,4.13,0,0,0,167.93,298.62Z"/>
          </g>
          <g>
            <path class="cls-16" d="M279.17,218.9v92.44h-.07c-.23,11.25-7.79,22.48-22.71,31.09-30.17,17.42-78.93,17.51-108.91.2a59.33,59.33,0,0,1-11-8.05v-90.2Z"/>
            <polygon class="cls-17" points="241.79 354.97 236.7 350.79 236.7 255.33 274.17 233.7 241.79 354.97"/>
            <polygon class="cls-10" points="279.26 333.34 241.79 354.97 241.79 259.51 279.26 237.88 279.26 333.34"/>
            <g>
              <path class="cls-18" d="M267.94,275.17a16.64,16.64,0,0,1-7.55,13c-4.17,2.4-7.54.48-7.54-4.31a16.63,16.63,0,0,1,7.54-13C264.56,268.46,267.94,270.38,267.94,275.17Z"/>
              <path class="cls-18" d="M274,290.89l-27.29,15.75c-.28.17-.51,0-.51-.29a1.13,1.13,0,0,1,.51-.88L274,289.71c.28-.16.51,0,.51.3A1.13,1.13,0,0,1,274,290.89Z"/>
              <path class="cls-18" d="M249.22,303.08l-3.29,1.9V301.2l3.29-1.9Zm4.27-6.25-3.29,1.9v3.78l3.29-1.9Zm4.27-2.46-3.29,1.9V300l3.29-1.9ZM262,291.9l-3.29,1.9v3.77l3.29-1.89Zm4.27-2.47-3.29,1.9v3.78l3.29-1.9Zm4.28-2.46-3.29,1.89v3.78l3.29-1.9Zm4.27-2.47-3.29,1.9v3.77l3.29-1.9Z"/>
            </g>
            <g class="cls-19">
              <path class="cls-8" d="M241.8,354.91a.48.48,0,0,1-.48-.48V261.89a.48.48,0,0,1,.48-.48.49.49,0,0,1,.48.48v92.54A.49.49,0,0,1,241.8,354.91Z"/>
            </g>
            <path class="cls-20" d="M208.75,355.37c-21.94,1.17-44.54-3.06-61.27-12.73a59.33,59.33,0,0,1-11-8.05v-90.2l72.28-12.91Z"/>
            <path class="cls-21" d="M208.75,274.32V231.48l-54.94,9.81-17.32,3.1h0v16.24C156.17,271.92,183.11,276.48,208.75,274.32Z"/>
            <path class="cls-3" d="M246,176.91A94.37,94.37,0,0,1,261.49,184c33.27,19.21,33.11,50.45-.38,69.78s-87.59,19.43-120.86.22A66.64,66.64,0,0,1,128,245v-3.64l5.25.61Z"/>
            <path class="cls-2" d="M246,173.27a94.37,94.37,0,0,1,15.46,7c33.27,19.21,33.11,50.45-.38,69.79s-87.59,19.42-120.86.21A66.18,66.18,0,0,1,128,241.39Z"/>
            <path class="cls-8" d="M200.33,265.12c-21.88,0-43.72-4.79-60.32-14.38a67.24,67.24,0,0,1-12.31-9,.49.49,0,0,1,0-.68.48.48,0,0,1,.68,0,65.78,65.78,0,0,0,12.13,8.87c33.08,19.1,87.09,19,120.38-.22a.48.48,0,0,1,.66.17.49.49,0,0,1-.18.66C244.51,260.25,222.39,265.12,200.33,265.12Z"/>
            <g>
              <polygon class="cls-21" points="246.46 201.54 252.57 198.07 245.64 194.05 236.34 199.35 240.11 201.54 246.46 201.54"/>
              <polygon class="cls-22" points="233.83 191.34 233.84 197.9 240.1 201.54 240.1 194.98 233.83 191.34"/>
              <polygon class="cls-23" points="240.1 194.98 240.1 201.54 246.41 197.89 246.41 191.34 240.1 194.98"/>
              <polygon class="cls-24" points="233.83 191.34 240.1 194.98 246.41 191.34 240.14 187.7 233.83 191.34"/>
            </g>
            <g>
              <polygon class="cls-22" points="233.83 184.59 233.84 191.15 240.1 194.79 240.1 188.23 233.83 184.59"/>
              <polygon class="cls-23" points="240.1 188.23 240.1 194.79 246.41 191.14 246.41 184.59 240.1 188.23"/>
              <polygon class="cls-24" points="233.83 184.59 240.1 188.23 246.41 184.59 240.14 180.95 233.83 184.59"/>
            </g>
            <g>
              <g>
                <path class="cls-21" d="M277.84,204c5.77,3.33,5.74,8.74-.06,12.09s-15.19,3.37-20.95,0-5.74-8.74.06-12.09S272.08,200.66,277.84,204Z"/>
                <path class="cls-25" d="M273.85,185.7l-23.5.4v23.76h0c-.09,1.79,1,3.6,3.38,5,4.57,2.64,12,2.63,16.6,0,2.32-1.33,3.47-3.08,3.46-4.83h0Z"/>
                <path class="cls-14" d="M259.81,216.67a18,18,0,0,0,10.56-1.88c2.32-1.33,3.47-3.08,3.46-4.83h0V185.7l-14,.24Z"/>
                <path class="cls-26" d="M270.43,181.09c4.57,2.64,4.54,6.93-.06,9.59s-12,2.67-16.6,0-4.55-6.93,0-9.59S265.86,178.45,270.43,181.09Z"/>
                <path class="cls-20" d="M269.68,181.52c4.16,2.4,4.14,6.31-.05,8.73a16.69,16.69,0,0,1-15.11,0c-4.16-2.41-4.14-6.31,0-8.73A16.71,16.71,0,0,1,269.68,181.52Z"/>
                <path class="cls-25" d="M254.56,185.06a16.71,16.71,0,0,1,15.12,0,6.51,6.51,0,0,1,2.62,2.59c1.07-2.1.24-4.45-2.62-6.1a16.71,16.71,0,0,0-15.12,0c-2.88,1.67-3.74,4-2.66,6.14A6.58,6.58,0,0,1,254.56,185.06Z"/>
              </g>
              <path class="cls-27" d="M261.8,190.61c-2.63.14-5.1-5.31-6.62-7.45-3.68-5.23-9.13-15.08-4.94-19.57,4.58-4.89,9.93-.64,11.38,8.51,1.08,6.81.39,18.51.39,18.51Z"/>
              <path class="cls-21" d="M261.59,190.25s.2-.35.49-.92c.14-3.21.41-11.78-.46-17.23a18.25,18.25,0,0,0-2.86-7.75,2.5,2.5,0,0,0-3.84.8C252.72,168.56,261.59,190.25,261.59,190.25Z"/>
              <path class="cls-27" d="M261.46,191.39c2,.11,3.81-4,4.94-5.56,2.75-3.91,6.81-11.26,3.68-14.61-3.41-3.65-7.41-.47-8.49,6.35-.81,5.08-.29,13.82-.29,13.82Z"/>
              <path class="cls-21" d="M271.09,173.59c-3.21-1-5.51,2.13-9.5,17.77,1.91-.08,3.7-4,4.81-5.53C268.61,182.68,271.62,177.31,271.09,173.59Z"/>
            </g>
          </g>
          <g>
            <path class="cls-28" d="M188,177.58S189,155,188,147.52c-.5-3.42-2.94-12.67-8.64-10.5a6.45,6.45,0,0,0-4.23,7.78L179.87,189a1.92,1.92,0,0,0,2.47,1.64c5.34-1.6,18.52-5.56,19.26-5.74,3.17-.79-3.47-4.92-1.47-7.5l-10.93,1A1,1,0,0,1,188,177.58Z"/>
            <path class="cls-29" d="M186.48,178.83c.62-5.4.52-28.29.52-28.29l-10.93,3.33,3.8,35.15a1.92,1.92,0,0,0,2.47,1.64c5.34-1.6,18.52-5.56,19.26-5.74,2.17-.54-.27-2.66-1.37-4.76C196.75,181.65,186,183.15,186.48,178.83Z"/>
            <path class="cls-30" d="M199.59,183.45s-1.77-7.19,1.78-8.11,9.66.77,9.66.77Z"/>
          </g>
          <g id="m">
            <g id="_2" data-name="2">
              <g id="man">
                <g>
                  <path class="cls-28" d="M187.06,145.53a13.46,13.46,0,0,0-5.4-8.48,4,4,0,0,0-3.89-.5A36.85,36.85,0,0,0,163,140.89c-.76.39-8.76,4.87-11.84,7.7-.54.46-3.46,3.17-3.4,5.83a16.41,16.41,0,0,0,.27,2.5c.13.5.92,5.85,1.8,10,0,0,1.2,19.66,1.7,29.86a5.17,5.17,0,0,0,.08,1.75c.44,2.23,2.13,4.39,5.09,6.1,5.12,3,12.59,3.73,18.9,2.34a21.36,21.36,0,0,0,6.12-2.28,14.65,14.65,0,0,0,1.48-1,9.2,9.2,0,0,0,3.08-3.63,6.14,6.14,0,0,0,.3-4.33c.62-9.41,1.74-26.44,1.95-33.46A69.38,69.38,0,0,0,187.06,145.53Z"/>
                  <path class="cls-31" d="M156.68,204.6a25.11,25.11,0,0,0,11.41,3c-7.53-10,1.09-37.66-6.27-45.52-4.19-4.49-7.84,1.61-7.84,1.61l-4.94-.79c.15.84.31,1.7.48,2.55.06.33.13.66.2,1l.09.47s0,.58.1,1.58l.44,1.48c0,.06-.1.15-.34.26.37,6,1.12,18.93,1.5,26.54v.06c0,.6.05,1.16.07,1.68h0C152,200.73,153.72,202.89,156.68,204.6Z"/>
                  <path class="cls-32" d="M170.49,127.75a3.73,3.73,0,0,0-7.2,1.57s.44,12.87.41,13.21a2.84,2.84,0,0,0,1.54,2.48,9,9,0,0,0,8.15.5,2.76,2.76,0,0,0,1.81-2.35C175.2,142.74,170.49,127.75,170.49,127.75Z"/>
                  <path class="cls-33" d="M161.63,123a18.86,18.86,0,0,0,2.2,9.54c.14.27.23,2.21,1.45,3.27,4.48,3.89,8.38,4.73,9.32,4.72a5.72,5.72,0,0,0,2.28-.63c2.71-2,4.9-8.81,5.29-15.76.44-7.92-3.8-14.6-9.47-14.92S161.73,115.06,161.63,123Z"/>
                  <path class="cls-34" d="M175.2,120.31c-1.81-7.28-4.49-8.67-4.49-8.67h-4.3A15.48,15.48,0,0,0,161.63,123a18.86,18.86,0,0,0,2.2,9.54c.14.27.23,2.21,1.45,3.27a24,24,0,0,0,3.4,2.49c-3.9-4.25.36-5.82.16-7.85a16.37,16.37,0,0,1,1.27-7.51C171.18,120.51,175.2,120.31,175.2,120.31Z"/>
                  <path class="cls-35" d="M169.94,122.82c1.26-1.47,8.21-.61,10.06-.81s1.92-1.18,2.06-1.35,3.28-3,2.86-3.81c-1.66-3.39-4.79-5.79-7.76-7.51-9.92-5.74-13.8.2-13.8.2l.1.06-.32.17c-.85.12-4.7,1-4.54,7.22a15.57,15.57,0,0,0,.81,6.84c4.63,13.94,4.94,8.58,5.35,5.51.58-4.3-.31-1.76,3-2,.09-.44.74-.68.92-1.11C168.59,124.46,167.93,125.16,169.94,122.82Z"/>
                  <path class="cls-33" d="M164.58,128.33c-.7-1.22-.63-2.58.17-3s2,.16,2.72,1.38.63,2.59-.17,3S165.29,129.56,164.58,128.33Z"/>
                </g>
                <path class="cls-36" d="M196.81,197.05a1.93,1.93,0,0,0-.45,2l.06.1a1.66,1.66,0,0,1,.16.21A2.27,2.27,0,0,0,198,200a6.16,6.16,0,0,0,5.18-2,2.07,2.07,0,0,0,.54-1.7,1.39,1.39,0,0,0-.1-.31,2.08,2.08,0,0,0-1.61-1A6.16,6.16,0,0,0,196.81,197.05Z"/>
              </g>
            </g>
          </g>
          <g>
            <polygon class="cls-21" points="187.83 256.46 198.71 256.17 215.53 246.8 205.26 241.17 187.83 256.46"/>
            <polygon class="cls-24" points="184.21 253.86 187.87 256.38 202.39 212.33 184.03 222.93 184.21 253.86"/>
            <polygon class="cls-22" points="187.83 256.46 206.19 245.86 202.76 212.6 184.4 223.2 187.83 256.46"/>
            <g>
              <path class="cls-26" d="M189.39,254.1a.25.25,0,0,1-.21-.12.26.26,0,0,1,.09-.33l15.82-9.13a.24.24,0,0,1,.33.09.26.26,0,0,1-.09.33l-15.82,9.13A.27.27,0,0,1,189.39,254.1Z"/>
              <path class="cls-26" d="M189.19,252.27a.27.27,0,0,1-.21-.12.25.25,0,0,1,.09-.33l15.82-9.14a.25.25,0,0,1,.33.09.25.25,0,0,1-.09.33l-15.82,9.13A.19.19,0,0,1,189.19,252.27Z"/>
              <path class="cls-26" d="M189,250.43a.25.25,0,0,1-.21-.12.26.26,0,0,1,.09-.33l15.82-9.13a.24.24,0,0,1,.33.08.25.25,0,0,1-.09.33l-15.82,9.14Z"/>
              <path class="cls-26" d="M188.79,248.59a.25.25,0,0,1-.21-.12.24.24,0,0,1,.09-.32L204.49,239a.25.25,0,0,1,.33.09.26.26,0,0,1-.09.33l-15.82,9.13A.27.27,0,0,1,188.79,248.59Z"/>
              <path class="cls-26" d="M188.59,246.76a.27.27,0,0,1-.21-.12.25.25,0,0,1,.09-.33l15.82-9.14a.26.26,0,0,1,.33.09.25.25,0,0,1-.09.33l-15.82,9.14Z"/>
              <path class="cls-26" d="M188.39,244.92a.25.25,0,0,1-.21-.12.26.26,0,0,1,.09-.33l15.82-9.13a.23.23,0,0,1,.32.08.24.24,0,0,1-.08.33l-15.82,9.14A.27.27,0,0,1,188.39,244.92Z"/>
              <path class="cls-26" d="M188.19,243.08A.25.25,0,0,1,188,243a.23.23,0,0,1,.09-.32l15.82-9.14a.23.23,0,0,1,.32.09.24.24,0,0,1-.08.33l-15.82,9.13Z"/>
              <path class="cls-26" d="M188,241.25a.27.27,0,0,1-.21-.12.24.24,0,0,1,.09-.33l15.82-9.14a.24.24,0,0,1,.24.42l-15.82,9.14Z"/>
              <path class="cls-26" d="M187.79,239.41a.24.24,0,0,1-.12-.45l15.82-9.13a.22.22,0,0,1,.32.09.23.23,0,0,1-.08.32l-15.82,9.14A.27.27,0,0,1,187.79,239.41Z"/>
              <path class="cls-26" d="M187.59,237.58a.27.27,0,0,1-.21-.12.23.23,0,0,1,.09-.33L203.28,228a.24.24,0,0,1,.25.42l-15.82,9.13A.19.19,0,0,1,187.59,237.58Z"/>
              <path class="cls-26" d="M187.39,235.74a.25.25,0,0,1-.21-.12.24.24,0,0,1,.09-.33l15.81-9.14a.25.25,0,0,1,.33.09.24.24,0,0,1-.08.33l-15.82,9.14Z"/>
              <path class="cls-26" d="M187.19,233.9a.25.25,0,0,1-.21-.12.24.24,0,0,1,.09-.33l15.81-9.13a.24.24,0,0,1,.33.09.23.23,0,0,1-.08.32l-15.82,9.14Z"/>
              <path class="cls-26" d="M187,232.07a.26.26,0,0,1-.21-.12.23.23,0,0,1,.09-.33l15.81-9.14a.24.24,0,0,1,.25.42L187.11,232A.19.19,0,0,1,187,232.07Z"/>
              <path class="cls-26" d="M186.79,230.23a.24.24,0,0,1-.12-.45l15.81-9.13a.24.24,0,0,1,.33.08.23.23,0,0,1-.09.33l-15.81,9.14A.27.27,0,0,1,186.79,230.23Z"/>
              <path class="cls-26" d="M186.59,228.39a.24.24,0,0,1-.21-.12.24.24,0,0,1,.09-.33l15.81-9.13a.24.24,0,0,1,.24.42l-15.81,9.13Z"/>
              <path class="cls-26" d="M186.39,226.56a.26.26,0,0,1-.21-.12.23.23,0,0,1,.09-.33L202.08,217a.24.24,0,0,1,.33.09.24.24,0,0,1-.09.33l-15.81,9.13A.19.19,0,0,1,186.39,226.56Z"/>
              <path class="cls-26" d="M186.19,224.72a.22.22,0,0,1-.21-.12.24.24,0,0,1,.09-.33l15.81-9.13a.24.24,0,0,1,.33.08.23.23,0,0,1-.09.33l-15.81,9.14A.27.27,0,0,1,186.19,224.72Z"/>
            </g>
          </g>
          <g>
            <g>
              <polygon class="cls-21" points="239.79 250.54 265.25 235.84 245.52 224.45 215.73 241.65 231.14 250.54 239.79 250.54"/>
              <polygon class="cls-37" points="239.59 226.38 256.26 236 231.1 250.53 214.44 240.9 239.59 226.38"/>
              <polygon class="cls-38" points="239.59 221.7 256.26 231.32 231.1 245.84 214.44 236.22 239.59 221.7"/>
              <polygon class="cls-24" points="239.41 221.27 256.08 230.9 230.92 245.42 214.26 235.8 239.41 221.27"/>
              <polygon class="cls-39" points="234.29 229.85 241 233.72 230.87 239.57 224.16 235.7 234.29 229.85"/>
              <polygon class="cls-39" points="235.74 229 242.45 232.87 241.67 233.34 234.96 229.47 235.74 229"/>
            </g>
            <polygon class="cls-37" points="256.26 231.32 256.26 236 231.1 250.53 231.1 245.84 256.26 231.32"/>
            <polygon class="cls-40" points="214.44 236.22 214.44 240.9 231.1 250.53 231.1 245.84 214.44 236.22"/>
          </g>
          <g>
            <path class="cls-33" d="M195.11,195.89s-3.9,1.1-4.9,2.55,4,2,4,2Z"/>
            <path class="cls-34" d="M194.93,196.81c-.92.27-1.81.69-2,1.31-.28,1,.82,1.31,1.47,1.41Z"/>
            <g>
              <path class="cls-14" d="M222.09,169.55l-9.35,28.87a2,2,0,0,1-1,1.5l-19.58,12.69c-.53.3-1.76-.42-1.55-1.44l8.43-29.79a2,2,0,0,1,.95-1.5l20.18-11.65C220.74,167.93,222.21,168.51,222.09,169.55Z"/>
              <path class="cls-41" d="M222.09,169.55l-8.43,29.79a2,2,0,0,1-1,1.5l-20.17,11.65c-.53.3-.95.12-.95-.41L200,182.3a2,2,0,0,1,1-1.5l20.17-11.65C221.66,168.85,222.09,169,222.09,169.55Z"/>
            </g>
            <path class="cls-33" d="M197.55,198.15c.48-.12,4.21-.65,4.62-.37,1.09.74-2.64,7.22-7.11,7-5-.25-7.51-2-7.51-2l2-4.59S191.86,199.59,197.55,198.15Z"/>
            <path class="cls-34" d="M201.65,200.25s-2.79,2.89-4.79,3.18c-1.47.21-6.33-1.15-8.79-1.88l-.52,1.22s2.48,1.75,7.51,2C197.91,204.92,200.46,202.33,201.65,200.25Z"/>
            <path class="cls-28" d="M190.8,198.13v0c.07-.78-.13-1.21-.5-1.26a3.26,3.26,0,0,0-.53-.36c-8.1-4.45-14-5-22.8-11.29-1.9-1.36-5.59-19.55-6.48-24.07,0,0-.13-.3-.14-.35a16,16,0,0,0-.89-2.32c-.21-.43-.13-.43-.17-.32a14.6,14.6,0,0,0-4.87-5.47,4.46,4.46,0,0,0-4.72-.42s0,0,0,0-.11.12-.31.28a.16.16,0,0,0-.06.05l-.18.14a6.45,6.45,0,0,0-2.2,3.56c-.36,1.43.57,5.39,1.18,7.15,2.18,6.3,8.69,28.68,11.81,30.7,8.35,5.44,22.5,7.61,27.12,9.44a.44.44,0,0,0,.18.09h0a.5.5,0,0,0,.32,0h0a2.24,2.24,0,0,0,.86-.59,9.47,9.47,0,0,0,2.2-4,3.89,3.89,0,0,0,.16-.68.15.15,0,0,1,0-.06A.29.29,0,0,0,190.8,198.13Z"/>
            <g class="cls-42">
              <path class="cls-29" d="M189.08,202.31c-7.68-1.11-22.35-9-25.26-10.56s-10.36-14.16-14.21-23.62c2.85,8.92,7.71,24.37,10.28,26,8.35,5.44,22.5,7.61,27.12,9.44a.44.44,0,0,0,.18.09h0a.5.5,0,0,0,.32,0h0a2.24,2.24,0,0,0,.86-.59A6.63,6.63,0,0,0,189.08,202.31Z"/>
            </g>
          </g>
        </g>
        <g id="man-2" data-name="man">
          <path class="cls-33" d="M321.83,269.75s1.55,5.18,1.3,6.95-3.95,8.49-6.85,6c-3.21-2.75-.64-4.42-.11-6.81a28.42,28.42,0,0,0,.44-6.12,3,3,0,0,1,1.11-2.24A2.8,2.8,0,0,1,321.83,269.75Z"/>
          <path class="cls-34" d="M316.59,271.57a19.86,19.86,0,0,1-.42,4.33c-.27,1.19-1,2.21-1.35,3.28,2.71,1.39,5.36,2.68,5.36,2.68s1.4-4.49,1.69-5.55-2.11-6.42-2.11-6.42S318.36,270.62,316.59,271.57Z"/>
          <path class="cls-43" d="M326.61,245.68l-.09-.73c-.76-5.69-1.54-11.38-2.43-17-.44-2.84-.91-5.67-1.39-8.49s-1-5.65-1.58-8.46c-.81-3.83-5.8-6.88-9.7-6.24s-5.45,4.92-4.79,8.94c.46,2.83,1,5.64,1.56,8.46s1.14,5.61,1.76,8.41c1.19,5.57,2.5,11.11,3.83,16.65.23,3.67.48,7.33.83,11,.18,2,.4,4.05.63,6.08s.49,4.06.83,6.09a3.75,3.75,0,0,0,7.37.12c.41-2,.69-4,1-6.05s.59-4,.84-6.06c.52-4,.93-8.08,1.31-12.12A2.1,2.1,0,0,0,326.61,245.68Z"/>
          <path class="cls-21" d="M321.65,383.79c-11.34,6.54-29.78,6.51-41.18-.08s-11.47-17.23-.13-23.77,29.77-6.51,41.18.07S333,377.24,321.65,383.79Z"/>
          <path class="cls-29" d="M308,220.84l.24,1.28c.57,2.81,1.14,5.61,1.76,8.41,1.19,5.57,2.5,11.11,3.83,16.65.23,3.67.48,7.33.83,11,.18,2,.4,4.05.63,6.08s.49,4.06.83,6.09a3.75,3.75,0,0,0,3,3.06,3.43,3.43,0,0,0,1.15,0c3.16-6.29,2.81-18.31,3.09-29.82.59-24.83-2.74-31-2.74-31S312.39,218,308,220.84Z"/>
          <path class="cls-18" d="M325.83,379.32c-.09-.38-.24-.78-.37-1.2-.39-1.2-3.48-3.37-4-3.72-1.27-.87-4.91,2-4.93,2-3.22,2-6.82-.93-9.22,1.06a1.56,1.56,0,0,0-.3,2.32,9,9,0,0,0,5.6,3.6c2.2.26,7.57,0,8.11,0a5.82,5.82,0,0,0,4.88-1.95A1.66,1.66,0,0,0,325.83,379.32Z"/>
          <path class="cls-43" d="M325.93,378.33c-.1-.39-.24-.79-.38-1.2-.39-1.2-3.48-3.38-4-3.73-1.26-.86-4.91,2-4.93,2-3.22,2-6.81-.94-9.22,1.06a1.55,1.55,0,0,0-.3,2.31c1.16,1.5,3.2,3.33,5.6,3.6,2.2.26,7.57,0,8.11,0a5.81,5.81,0,0,0,4.88-1.95A1.65,1.65,0,0,0,325.93,378.33Z"/>
          <path class="cls-18" d="M299.67,363.55a14.35,14.35,0,0,1-5.44-2.52,17.88,17.88,0,0,0-1.66-1.57c-.8-.68-8.6-3.47-10.11-2.71-1.94,1-2,3.49,4.05,8.28,1.58,1.26,5.81,3.81,5.81,3.81a8.62,8.62,0,0,0,5.14,1.53,1.92,1.92,0,0,0,1.77-1.56A6,6,0,0,0,299.67,363.55Z"/>
          <path class="cls-43" d="M300,362.93a14.12,14.12,0,0,1-5.43-2.53,21.09,21.09,0,0,0-1.67-1.57c-.8-.67-8.6-3.47-10.11-2.71-1.94,1-2,3.5,4.06,8.29,1.58,1.25,5.8,3.81,5.8,3.81a8.57,8.57,0,0,0,5.14,1.52,1.93,1.93,0,0,0,1.78-1.56A6,6,0,0,0,300,362.93Z"/>
          <path class="cls-20" d="M319.16,281.57c.27-3.06,2.14-18.1-14.14-18.11-6.56,0-11.45,6.17-11,12.72.23,3.21.35,6.42.53,9.64l.35,9.64c.22,6.43-.34,32.11-.84,38.51,0,0-2.09,27-2.19,27.49a2.9,2.9,0,0,0,1.32,2.79c2.11,1.72,3.66,1.86,6.15,1a2.92,2.92,0,0,0,2.15-2.2c.05-.35,5-18.67,8-33,1-5.2.28-10.45.63-12.16S318.89,284.59,319.16,281.57Z"/>
          <path class="cls-44" d="M310.1,317.91c.42-1.7,8.79-33.32,9.06-36.34s1.92-16.53-11.75-18l-.15,8.13s-6.19,43.84-6.69,51.27-1.7,34.79-6.24,42c1.6.94,3,.95,5,.23a2.92,2.92,0,0,0,2.15-2.2c.05-.35,5-18.67,8-33C310.52,324.87,309.75,319.62,310.1,317.91Z"/>
          <path class="cls-20" d="M287,261.66s25,14.66,24.3,23c-.84,9.47,1,32.31,1.5,35.85a90.56,90.56,0,0,1,6.29,16.87,239.8,239.8,0,0,1,5,36.07c.12,1.66-.47,2.8-2.45,3.46-3.29,1.11-4.7-.18-5.41-.74a2.32,2.32,0,0,1-.74-1.42c0-.22-17.61-51.2-17.61-51.2l-9.41-35C285.86,279.34,287,261.66,287,261.66Z"/>
          <path class="cls-44" d="M304.29,320c4.21,5.69,6.94,38.14,16.1,56.72.08.16.17.28.25.44a8.75,8.75,0,0,0,1-.29c2-.66,2.57-1.8,2.45-3.46a239.8,239.8,0,0,0-5-36.07,90.56,90.56,0,0,0-6.29-16.87c-.51-3.54-2.34-26.38-1.5-35.85.31-3.53-4-8.2-9.09-12.4l-8.17,3.93S300.08,314.33,304.29,320Z"/>
          <path class="cls-43" d="M321.9,230.45c-.77,9.69-1.24,38.41-1.22,39.58a6.28,6.28,0,0,1-.77,3s-2.09,4.38-10.42,6.33c-6.07,1.42-13.24.53-18.17-2.31-3.07-1.78-4.73-4.06-5-6.37a.2.2,0,0,1,0-.08c0-.17,0-.36,0-.58v0c-.43-7-2.88-34.1-2.88-34.1-1-4.09-1.95-9.4-2.1-9.91a16.47,16.47,0,0,1-.34-2.49c-.15-2.65,2.7-5.44,3.22-5.92,3-2.92,10.86-7.63,11.59-8a36.92,36.92,0,0,1,14.65-4.78c1.77.08,3-.11,3.89.4a14,14,0,0,1,6.46,8.24C321.66,217.28,322.61,221.46,321.9,230.45Z"/>
          <path class="cls-29" d="M319.91,273a6.28,6.28,0,0,0,.77-3c0-1.17.45-29.89,1.22-39.58a50.56,50.56,0,0,0-.37-13.3c-.19-1-.4-1.88-.61-2.77,0-.16-.1-.33-.15-.49l-.75-.25s6.78,36.78-23.13,44.85c-5.76,1.55-8.09,7.61-8,16.7a13.18,13.18,0,0,0,2.42,1.82c4.93,2.84,12.1,3.73,18.17,2.31C317.82,277.37,319.91,273,319.91,273Z"/>
          <path class="cls-45" d="M253.19,229a10,10,0,0,1,.9,1.09,7.45,7.45,0,0,1,.74,1.26,4.43,4.43,0,0,1,.44,1.57,3.35,3.35,0,0,1-.43,2l-.2.33a1.55,1.55,0,0,1-2,.55,1.41,1.41,0,0,1-.58-2,1.64,1.64,0,0,1,.42-.45.68.68,0,0,0,.26-.43,2.25,2.25,0,0,0,0-.89,7.07,7.07,0,0,0-.81-2.07l0-.05a.78.78,0,0,1,.34-1.08A.86.86,0,0,1,253.19,229Z"/>
          <path class="cls-45" d="M247.43,228c-3.48-.83-8.4,0-5.24,3.69a17.35,17.35,0,0,0,2.1,1.38,5.73,5.73,0,0,1,1.29.95l2.83,3.4.05,0a14.44,14.44,0,0,0,3.72,3.26L256,237.3S254.37,229.69,247.43,228Z"/>
          <path class="cls-34" d="M246.27,232.67c2,3.17,5.13,5.43,6.07,5.6a4.35,4.35,0,0,1,1.42,1l-1.58,1.41a14.44,14.44,0,0,1-3.72-3.26l-.05,0-2.83-3.4a5.73,5.73,0,0,0-1.29-.95,17.35,17.35,0,0,1-2.1-1.38c-1.34-1.54-1.22-2.58-.38-3.21l.25-.08C240.83,229.16,245.19,230.92,246.27,232.67Z"/>
          <path class="cls-43" d="M293.71,228.65l-12.45,29.46-.34.82a6.85,6.85,0,0,1-8.89,3.6,6.6,6.6,0,0,1-2.3-1.54l-18.08-17.9-.13-.12a1.22,1.22,0,0,1-.15-.17,2.75,2.75,0,0,1-.52-1.79,7.6,7.6,0,0,1,2-4.7c1.29-1.14,2.73-2.1,4.11-1.27l.3.26,15.45,13.63L280,223.05a7.47,7.47,0,0,1,9.71-3.93A7.24,7.24,0,0,1,293.71,228.65Z"/>
          <path class="cls-29" d="M289.7,219.12a7.44,7.44,0,0,0-3.55-.5c8.42,6.26-1.63,32.23-10.83,42a6.34,6.34,0,0,1-2.76,1.65,8,8,0,0,0,.83.69,6.84,6.84,0,0,0,7.53-4l.34-.82,12.45-29.46A7.24,7.24,0,0,0,289.7,219.12Z"/>
          <path class="cls-33" d="M303.27,194.85a3.73,3.73,0,0,0-7.14,1.8s-1.7,12.84-1.72,13.18a2.84,2.84,0,0,0,1.62,2.43,9,9,0,0,0,8.15.23,2.74,2.74,0,0,0,1.73-2.41C305.9,209.67,303.27,194.85,303.27,194.85Z"/>
          <path class="cls-33" d="M299.21,175.68c-5.67.3-11.44,1.78-11.95,13.45-.19,4.28.32,8.79,1.18,11.09.22.6,1.43,3.75,2,3.94,8.73,2.79,13.64-.63,16-2.57A3.68,3.68,0,0,0,308,199a1.62,1.62,0,0,1,.23-.81,15.48,15.48,0,0,0,2.08-8.75C310.15,181.53,304.9,175.36,299.21,175.68Z"/>
          <path class="cls-46" d="M312.06,184.6a11,11,0,0,0-.68-3.4c-2.36-4.22-10.59-8.79-20-4.46a18.17,18.17,0,0,0-2.68,1.53c-1.72,1.11-9.09,8,.32,8.51.42,0,6.45-.3,4.77,5.21l-.37.69c.22.63-.14,1.57,0,1.92,1.14,2.55,2.64,11.84,12.25,10.27a38.34,38.34,0,0,0,7.11-11.28C315.79,185.36,312.06,184.6,312.06,184.6Z"/>
          <path class="cls-46" d="M294.07,189.39l-1.55,1.74s1.05,4.68,3.23,7,5.77,0,5.77,0L298,188.86Z"/>
          <path class="cls-33" d="M295.62,194.49c.78-1.37.7-2.88-.19-3.39s-2.24.18-3,1.54-.7,2.88.19,3.39S294.84,195.85,295.62,194.49Z"/>
        </g>
      </g>
    </g>
  </g>
</svg>
