<svg id="Capa_1" data-name="Capa 1" xmlns="http://www.w3.org/2000/svg" xmlns:xlink="http://www.w3.org/1999/xlink" width="400" height="400" viewBox="0 0 400 400">
  <defs>
    <style>
      .cls-1, .cls-17 {
        fill: #fff;
      }

      .cls-2 {
        fill: #6558b8;
        opacity: 0.49;
      }

      .cls-3 {
        opacity: 0.44;
      }

      .cls-4 {
        fill: #d8d5ed;
      }

      .cls-5 {
        fill: #ea9632;
      }

      .cls-30, .cls-6 {
        opacity: 0.37;
      }

      .cls-30, .cls-7 {
        fill: #d9e0f3;
      }

      .cls-8 {
        fill: #5d1111;
      }

      .cls-9 {
        fill: #ffb854;
      }

      .cls-10 {
        fill: #f7a94b;
      }

      .cls-11 {
        fill: #ff8d6b;
      }

      .cls-12, .cls-15 {
        fill: #ea5f44;
      }

      .cls-13 {
        fill: #5e1212;
      }

      .cls-14 {
        fill: #3e1d15;
      }

      .cls-15 {
        opacity: 0.5;
      }

      .cls-16 {
        fill: #0f3060;
      }

      .cls-17 {
        opacity: 0.26;
      }

      .cls-18 {
        fill: #489ba1;
      }

      .cls-19 {
        fill: #2c848d;
      }

      .cls-20 {
        fill: #c4ceee;
      }

      .cls-21 {
        fill: #b1bfdd;
      }

      .cls-22, .cls-23 {
        fill: #eef1fa;
      }

      .cls-22 {
        opacity: 0.2;
      }

      .cls-24 {
        fill: #162a74;
      }

      .cls-25 {
        fill: #bfd0f7;
      }

      .cls-26 {
        mask: url(#mask);
      }

      .cls-27 {
        fill: none;
        stroke: #162a74;
        stroke-miterlimit: 10;
      }

      .cls-28 {
        fill: #f53c4e;
      }

      .cls-29 {
        fill: #e82542;
      }
    </style>
    <mask id="mask" x="141.05" y="13.88" width="187.24" height="144.68" maskUnits="userSpaceOnUse">
      <path class="cls-1" d="M258.09,148.93c29.76-.1,56.68-18.6,66.48-46.69q1-2.77,1.68-5.57c5.68-22.38-.7-47.63-16.92-64.06S267.42,9.54,245.5,16.8c-17.64,5.84-32.6,19.82-51.11,21.4-8.27.71-15.61.68-23.67,2.82a37.72,37.72,0,0,0-25,22.14c-5.44,13-5.37,26.63-3.42,40.63,0,.18.05.36.08.55a52.65,52.65,0,0,0,52.38,44.81Z"/>
    </mask>
  </defs>
  <path class="cls-2" d="M200,81.94v-70C96.13,11.92,11.92,96.13,11.92,200S96.13,388.08,200,388.08v-70a118.06,118.06,0,0,1,0-236.12Z"/>
  <g class="cls-3">
    <path class="cls-4" d="M200,388.08c103.87,0,188.08-84.21,188.08-188.08S303.87,11.92,200,11.92v70a118.06,118.06,0,0,1,0,236.12Z"/>
  </g>
  <g>
    <g>
      <path class="cls-5" d="M168,366.3l-.38,0h-.11l-.24,0-.57-.1a10.21,10.21,0,0,1-3.13-1.23c-.47-.28-.82.58-.36.86a9.71,9.71,0,0,0,4.85,1.5c.51,0,.46-1-.06-1Z"/>
      <path class="cls-5" d="M167.6,369.42a10.17,10.17,0,0,1-5-.6c-.5-.18-.65.77-.16.95a11.76,11.76,0,0,0,3.69.7,8.37,8.37,0,0,0,1.58-.08.46.46,0,0,0,.37-.51c0-.24-.21-.5-.43-.46Z"/>
      <path class="cls-5" d="M163.41,381.68l.09-.06.1-.06c.07,0-.08,0,0,0l.07,0a10.22,10.22,0,0,1,.94-.46,9.32,9.32,0,0,1,3.19-.73c.52,0,.46-1-.05-1a9.54,9.54,0,0,0-4.8,1.5c-.45.31,0,1.12.45.82Z"/>
      <path class="cls-5" d="M162.72,378.28a8.62,8.62,0,0,1,4.6-.78c.22,0,.39-.27.37-.51a.45.45,0,0,0-.42-.46,9.76,9.76,0,0,0-3.44.33,6.53,6.53,0,0,0-1.38.5c-.47.24-.21,1.16.27.92Z"/>
      <path class="cls-5" d="M167.4,373.18l-4.61,0h-.66c-.52,0-.47,1,.05,1l4.61,0h.66c.52,0,.46-1,0-1Z"/>
    </g>
    <g>
      <path class="cls-5" d="M244.83,371.53h-.49l-.24,0-.57-.08a11,11,0,0,1-3.12-1.07c-.46-.25-.83.52-.36.76a10.45,10.45,0,0,0,4.83,1.3c.52,0,.47-.86,0-.86Z"/>
      <path class="cls-5" d="M244.43,374.3a11.22,11.22,0,0,1-5-.5c-.5-.15-.66.69-.17.84a13.24,13.24,0,0,0,3.68.6,9.25,9.25,0,0,0,1.58-.08.44.44,0,0,0,.38-.46c0-.21-.21-.44-.43-.4Z"/>
      <path class="cls-5" d="M240.17,385.19l.09-.05.1-.06c.07,0-.08.05,0,0l.07,0a8.78,8.78,0,0,1,.95-.41,10.64,10.64,0,0,1,3.19-.68c.52,0,.47-.88,0-.85a10.49,10.49,0,0,0-4.8,1.36c-.45.28,0,1,.45.72Z"/>
      <path class="cls-5" d="M239.5,382.18a9.8,9.8,0,0,1,4.6-.72.42.42,0,0,0,.38-.45.44.44,0,0,0-.43-.41,11,11,0,0,0-3.43.32,7.42,7.42,0,0,0-1.38.45c-.48.21-.22,1,.26.81Z"/>
      <path class="cls-5" d="M244.2,377.64h-5.26c-.52,0-.47.86.05.86h5.26c.52,0,.47-.86-.05-.86Z"/>
    </g>
    <g>
      <g class="cls-6">
        <path class="cls-7" d="M395.4,376H380.07l.45-20.51A19,19,0,0,0,388,342.18,27,27,0,0,0,383.92,325a37,37,0,0,0-2.65-3.82l.63-28.57a5.21,5.21,0,0,0-2.23-9.84,4.94,4.94,0,0,0-2.32.6l-8.57-5.74c.24-.58.46-1.17.66-1.78a19.1,19.1,0,0,0-2.78-16.57,23.4,23.4,0,0,0-15.24-9.24,50.69,50.69,0,0,0-9.93-.3c-3.5.08-6.95-.22-9.91-2.32s-5.11-5-8.14-6.94a18.86,18.86,0,0,0-9.13-3.06c-4-.18-8.29,1.15-10.94,4.16l0-.07c-.23-.48-.49-1-.77-1.42-.05-.09-.1-.18-.16-.27-.27-.44-.56-.87-.87-1.28l-.24-.33c-.3-.39-.62-.77-1-1.14-.11-.11-.21-.23-.31-.34-.34-.35-.68-.69-1-1a22.63,22.63,0,0,0-15.36-5.83c-11.78,0-21.34,8.53-21.46,19.09,0,2.81,9.61,5.09,21.46,5.09s21.3-2.24,21.45-5l-.27,28.89a1.71,1.71,0,1,0,2,1.78A1.73,1.73,0,0,0,305.5,278l.28-30.32,14.7,2.45c0,.06,0,.12,0,.18a3.77,3.77,0,0,0,3.72,3.82,3.66,3.66,0,0,0,2.64-1.13l39.89,26.67c-1.79,3.58-4.05,6.94-5.2,10.8-3.94,13.19,9.8,20.84,17,29.08L377.32,376H360.39a.8.8,0,0,0-.79.81V378a.8.8,0,0,0,.79.81h35a.8.8,0,0,0,.79-.81v-1.14A.8.8,0,0,0,395.4,376Zm-8.28-37.89c.28,6-1.83,12.32-6.57,16l.69-31.31C384.46,327.35,386.86,332.54,387.12,338.14Zm-82-89.4c0-.41,0-.82-.07-1.23l.08,0Zm22.83,1.58v0a3.77,3.77,0,0,0-3.72-3.82,3.64,3.64,0,0,0-2.58,1.08l-17.14-3c-.1-.38-.22-.75-.34-1.12,0,0,0-.1-.05-.15-.08-.21-.16-.42-.25-.63,2.49-3.16,6.91-4.41,10.82-4.14a18.08,18.08,0,0,1,8.64,3.14c2.58,1.73,4.56,4.18,7,6.11,5.12,4.07,11.17,2.72,17.18,2.93,6.19.22,12.54,2.56,16.83,7.29a18.28,18.28,0,0,1,4.26,17.19c-.19.63-.41,1.25-.65,1.86Zm42.76,60.07c-5-4.61-10-10.76-8.52-18.16.9-4.38,3.44-8.08,5.44-12l7.71,5.15a5.32,5.32,0,0,0-.7,2.61,5.13,5.13,0,0,0,4.54,5.14l-.55,24.94C376.1,315.38,373.38,312.91,370.67,310.39Z"/>
        <path class="cls-7" d="M43.37,327.86a14.1,14.1,0,0,0-5.78-6.54l-.86-1.71a.66.66,0,0,1,.21,0,12.89,12.89,0,0,1,5.88,1.88,18.12,18.12,0,0,1,5.45,5.37.74.74,0,0,0,1.33-.27,12,12,0,0,0-2.7-10.08c-2.76-3.1-8.89-1.25-11.21-3.34-2.17-2.63,3.3-3.49,5.94-3.15a21.41,21.41,0,0,1,7,2.89.76.76,0,0,0,1.15-.82,21.29,21.29,0,0,0-3.18-7.72c-2-2.8-5.21-4.87-8.59-4.7a10.64,10.64,0,0,0-4.59,1.44,14.49,14.49,0,0,0-1.83,1.16,3.13,3.13,0,0,1-4.57-1,11.21,11.21,0,0,0-3.19-3.68,9.12,9.12,0,0,0-7.51-1.17c-4.08,1.2-6.82,5.08-8.82,8.91a7,7,0,0,0-1.1,3.91A14.05,14.05,0,0,1,18,306.45c.9.19,2,1,1.56,1.81a1.52,1.52,0,0,1-.84.58c-4,1.48-8.83,1.13-12.08,4-2.53,2.21-3.36,5.82-3,9.26a.73.73,0,0,0,1.37.31,15.77,15.77,0,0,1,11.48-7.59,4.48,4.48,0,0,1,2.46.26A2,2,0,0,1,20,317.11a2.44,2.44,0,0,1-.83,1.22A9.6,9.6,0,0,1,16,320.16c-3.32,1.2-7,2.77-9,5.85a7.56,7.56,0,0,0-.76,6.8,1,1,0,0,0,1.9-.12A15.33,15.33,0,0,1,13.9,325a5.11,5.11,0,0,1,2.49-1,2.29,2.29,0,0,1,2.26,1.21c.61,1.39-.63,2.85-1.74,3.86a25.86,25.86,0,0,0-4.53,5,9.83,9.83,0,0,0-1.66,6.47c.78,5.62,7.56,8.77,8.42,14.38a9,9,0,0,1,3.91-4.29c1.25-.69,2.67-1.05,3.87-1.83,2.53-1.63,3.73-4.9,3.62-8s-2.34-7-2.72-8.69c-.61-6,5.89,10.35,7.1,16.32a.65.65,0,0,0,1.2.21,13.42,13.42,0,0,0,1.71-8.19,18.8,18.8,0,0,0-1.77-5.78c-1.55-3.34-5.72-8.13-5.75-9.39.55-2.5,5.56,3.65,7.44,6.43,1.6,2.36,2.85,4.94,4.25,7.43a.79.79,0,0,0,1.42-.1c.13-.32.24-.66.35-1q3.52,7.83,6.66,15.84a265.92,265.92,0,0,1,9.35,28.59,5.6,5.6,0,0,1,1.54-.47,293.47,293.47,0,0,0-17-46.53A14.54,14.54,0,0,0,43.37,327.86ZM21.61,302.31c.79-.92,2.57-.64,4,.63s1.91,3.05,1.12,4-2.57.64-4-.63S20.82,303.23,21.61,302.31Zm-.81,17.86c.87-1,2.14-1.32,2.84-.69s.57,2-.3,3-2.14,1.32-2.84.69S19.93,321.18,20.8,320.17ZM16.53,334c-.88-.79-.55-2.65.73-4.14s3-2.07,3.92-1.27.55,2.65-.73,4.14S17.41,334.8,16.53,334Zm12,7.76c.26,2.32-1,4.38-2.78,4.59s-3.45-1.51-3.71-3.83,1-4.38,2.77-4.59S28.29,339.43,28.55,341.76Zm6.71-18.4c-.5.58-1.88.16-3.09-.93s-1.79-2.44-1.29-3,1.87-.15,3.08.94S35.75,322.79,35.26,323.36Z"/>
      </g>
      <g>
        <g>
          <path class="cls-8" d="M231,222.4c2.1-6,8.8-8.38,14.57-8a21.47,21.47,0,0,1,10.3,3.75c3.07,2.05,5.42,5,8.31,7.27,6.1,4.85,13.31,3.24,20.46,3.5,7.39.26,15,3,20.05,8.68,4.92,5.42,7.23,13.3,5.08,20.48-1.92,6.45-6.43,11.71-8.36,18.16-4.72,15.82,11.9,24.95,20.48,34.84,5.28,6.09,9.64,13.68,10,22,.35,7.52-2.44,15.44-8.7,19.76-.67.46,0,1.57.63,1.11,5.29-3.65,8.32-9.66,9.13-16,.91-7.22-1.21-14.34-4.88-20.46-4.14-6.9-10-12-15.79-17.42s-11.95-12.83-10.14-21.64c1.45-7.08,6.5-12.68,8.68-19.5a22.75,22.75,0,0,0-3.32-19.74c-4.25-6.08-11.05-9.76-18.15-11-3.94-.69-7.86-.45-11.83-.36-4.18.09-8.29-.26-11.82-2.77s-6.08-6-9.69-8.26a22.41,22.41,0,0,0-10.88-3.65c-6.26-.29-13.13,2.54-15.37,9-.27.78.94,1.11,1.21.34Z"/>
          <g>
            <polygon class="cls-9" points="323.49 379.83 320.21 379.75 322.55 273.37 255.78 228.73 232.54 224.86 233.06 221.54 257.29 225.72 325.87 271.57 323.49 379.83"/>
            <ellipse class="cls-8" cx="323.05" cy="273.32" rx="6.04" ry="6.19"/>
            <ellipse class="cls-8" cx="256.94" cy="228.4" rx="4.44" ry="4.55"/>
          </g>
          <g>
            <g>
              <path class="cls-9" d="M208.53,223.85c11.21,0,20.9,1.26,25.66,3.09-.09-12.62-11.5-22.83-25.57-22.83s-25.42,10.17-25.56,22.75C187.88,225.07,197.47,223.85,208.53,223.85Z"/>
              <path class="cls-10" d="M226.5,210.68c-6.4,3.72-13.23,5.44-20.48,6.7-6.07,1.06-11.41,2.1-16.25,6.17a22.48,22.48,0,0,1-3.63,2.42c5.27-1.29,13.31-2.12,22.39-2.12,11.21,0,20.9,1.26,25.66,3.09A21.84,21.84,0,0,0,226.5,210.68Z"/>
            </g>
            <path class="cls-1" d="M234.19,226.86c0,3.35-11.45,6.07-25.57,6.07s-25.56-2.72-25.56-6.07,11.44-6.06,25.56-6.06S234.19,223.51,234.19,226.86Z"/>
          </g>
          <g>
            <polygon class="cls-9" points="233.85 261.98 234.2 223.79 235.03 223.8 234.67 261.99 233.85 261.98"/>
            <path class="cls-9" d="M236.19,263.49a2,2,0,1,1-4-.21,2,2,0,0,1,2.09-1.94A2,2,0,0,1,236.19,263.49Z"/>
          </g>
          <rect class="cls-10" x="299.13" y="378.24" width="43.59" height="3.28" rx="0.79"/>
        </g>
        <g>
          <g>
            <path class="cls-11" d="M154.77,250.3a24.73,24.73,0,0,0-1.6,13.88,30.65,30.65,0,0,0,4.16,11.31,1.7,1.7,0,0,1,.37,1.18,1.58,1.58,0,0,1-.75.9c-4.45,3.06-10.06,4-15.41,3.53s-10.5-2.17-15.56-4c-.25-.09-.55-.24-.55-.51a.69.69,0,0,1,.17-.38A29.54,29.54,0,0,0,127,243.7"/>
            <path class="cls-12" d="M131.19,260.18s.6-4.2-1.67-11.18c0,0,9.91,8.76,20.41,8.76C149.93,257.76,146.58,263.06,131.19,260.18Z"/>
          </g>
          <g>
            <path class="cls-9" d="M120.39,273.41a12.59,12.59,0,0,0,6.53-9.69,2.51,2.51,0,0,1,3.32-2.07c5,1.81,15,4.53,24.09,1.6a1.87,1.87,0,0,1,2.44,2c-.34,3.68,0,9.41,5.39,10.58,0,0,13.93,4.39,17.35,6.81,0,0,1.93,26.47,5.14,40A115.38,115.38,0,0,1,187,367.26c-2.36,17.94,7,13.61,6,20.86s-61.71,4.5-90.95,1.51c0,0-1.83.4,1.39-13.22s0-82.36-4.5-89l-3.22-6.59S117.66,274.93,120.39,273.41Z"/>
            <path class="cls-9" d="M178.11,281.81s9.26,3,11.74,10.76c2.81,8.81,5.86,63.91,17,67,9.71,2.72,34.38,6,44.23,7.95a4,4,0,0,1,3.16,4.14l-.5,10a3.13,3.13,0,0,1-2.89,3c-12.69.81-65.09,3.76-68.26-2.82C179,374.35,178.11,281.81,178.11,281.81Z"/>
            <path class="cls-5" d="M107.56,310.45a7.24,7.24,0,0,1,1.62-5.19,2.39,2.39,0,0,1,2.14-1c2.29.39,1.39,14.58,1.94,19.6s.32,21.45,9.77,22.37,31.64,4.48,35.32,6.49,13.66,1.38,14.7-4.79-1.18-43.28,1.25-43.05,6.38,38.19,6.24,43.67.69,14.2,4.72,17.59-74.35,1.08-74.35,1.08Z"/>
            <path class="cls-11" d="M165.48,364.84A63.83,63.83,0,0,1,176,360.35c5-1.48,10.34-1.69,15.58-1.89a24,24,0,0,1,5,.16,16.5,16.5,0,0,1,4.3,1.49c4,1.95,7.4,4.9,10.77,7.82.35.3.71.82.41,1.16a.72.72,0,0,1-.34.19c-1.55.5-3.18-.33-4.66-1a24.73,24.73,0,0,0-12.28-2.46,17.61,17.61,0,0,0-11.3,5.17,20,20,0,0,1-2.79,2.8,8.57,8.57,0,0,1-2.79,1.21c-5,1.3-10.25,0-15.2-1.39"/>
            <path class="cls-9" d="M96.68,280.62s6.07,1.52,9.49,20.29-.21,50.52,10.07,52.28c9.42,1.6,37.24,3.58,48.86,7.61a4.18,4.18,0,0,1,2.77,4V376a4.32,4.32,0,0,1-3.89,4.35c-14.25,1.27-63.51,5.16-76.66-.36-15.42-6.48-3.21-76.87-3.21-76.87S88.24,281.65,96.68,280.62Z"/>
            <g>
              <path class="cls-5" d="M128.2,265.07c0,.24,0,.49-.08.74,0,0,0,.2,0,.1s0,.1,0,.12l-.09.47c-.07.37-.16.75-.25,1.12a21,21,0,0,1-2.64,6c-.58.89,1,1.69,1.57.8a20,20,0,0,0,3.35-9.38c.05-1-1.77-1-1.83,0Z"/>
              <path class="cls-5" d="M134,266.15a21,21,0,0,1-1.68,9.9c-.39,1,1.37,1.38,1.76.42a24.1,24.1,0,0,0,1.71-7.2,16.26,16.26,0,0,0,0-3.12.88.88,0,0,0-.91-.79c-.46,0-1,.36-.91.79Z"/>
              <path class="cls-5" d="M156.54,275.75a1.62,1.62,0,0,0-.1-.18l-.1-.2c-.07-.14.08.16,0,0l-.07-.14a17,17,0,0,1-.75-1.9,19.38,19.38,0,0,1-1-6.38c0-1-1.82-1-1.83,0a19.47,19.47,0,0,0,2.31,9.62c.52.91,2.09.11,1.57-.81Z"/>
              <path class="cls-5" d="M150.09,276.75a17.78,17.78,0,0,1-1-9.15c.05-.43-.46-.8-.92-.8a.88.88,0,0,0-.91.8,20.72,20.72,0,0,0,.24,6.8,15.39,15.39,0,0,0,.79,2.78c.4.95,2.16.54,1.76-.43Z"/>
              <path class="cls-5" d="M141.05,267c-.19,3-.37,6-.55,9.08,0,.44-.05.87-.08,1.31-.06,1,1.76,1,1.82,0,.19-3,.37-6.05.55-9.08,0-.44.05-.87.08-1.31.06-1-1.76-1-1.82,0Z"/>
            </g>
          </g>
          <g>
            <path class="cls-13" d="M124.42,219.83s-3.18,15.51,1.22,27.5a22.63,22.63,0,0,1-3.15,21.16s3-11.62-1.55-19.71-5.17-17.43-3.84-21.48S124.42,219.83,124.42,219.83Z"/>
            <path class="cls-13" d="M156.05,219.3s6.9,14.19,5.6,26.93a22.4,22.4,0,0,0,8.26,19.66s-5.79-10.47-3.36-19.48.71-18.2-1.58-21.77S156.05,219.3,156.05,219.3Z"/>
            <path class="cls-11" d="M161.09,229.76a7.19,7.19,0,0,1,1.95-3.95c.7-.72,1.79-1.29,2.65-.8a2.64,2.64,0,0,1,1,2,9.86,9.86,0,0,1-.15,4.19,5.72,5.72,0,0,1-2.37,3.34,3.1,3.1,0,0,1-2.08.49,1.94,1.94,0,0,1-1.56-1.4"/>
            <path class="cls-11" d="M123.36,237A2.64,2.64,0,0,0,122,235.5a6.41,6.41,0,0,0-2-.54,3.25,3.25,0,0,0-1.52,0,2.39,2.39,0,0,0-1.43,2.16,5.3,5.3,0,0,0,.69,2.65,9.75,9.75,0,0,0,3.52,4,4.61,4.61,0,0,0,2.23.73,2.63,2.63,0,0,0,2.12-.91"/>
            <path class="cls-11" d="M122.42,219.21c-1.81,5.43-.59,11.37.77,16.94a44,44,0,0,0,1.81,6.06c2.36,5.83,5.6,10.9,10.82,14.25a20.14,20.14,0,0,0,9.91,2.54,13.29,13.29,0,0,0,9.08-4.13,21.24,21.24,0,0,0,5.49-9.63c1.68-6.86,1.7-11.79,1.25-18.85s-1.83-15.81-6.51-21c-2.17-2.42-5-4.5-8.24-4.56"/>
            <g>
              <path class="cls-13" d="M134.4,192.64c-.48,7.14-6.37,12.54-13.17,12.07s-10.68-6.3-10.21-13.44,5-10.71,11.78-10.23S134.87,185.5,134.4,192.64Z"/>
              <path class="cls-13" d="M157,200.63c-2.73-4.57-15.41-15.53-29.47-11.83-17.26,4.55-18.31,31.09-9.25,41l.32.34c0,1.28.06,2.07.06,2.07a14.46,14.46,0,0,0,1.34-.55c3.86,4.14,2.12,2,.35-.16,8.83-4.42,12.22-18.35,12.22-18.35a38.38,38.38,0,0,1-.84,12.58A27.05,27.05,0,0,0,142.36,208C148.68,221,164,221.51,164,221.51S164.47,206.37,157,200.63Zm-38.67,28.44.25-.43c0,.26,0,.5,0,.74Z"/>
            </g>
            <g>
              <path class="cls-1" d="M142.3,244.82l6.87-2.11a5.54,5.54,0,0,1,1.92-.36.39.39,0,0,1,.26.07.51.51,0,0,1,.1.48,5.19,5.19,0,0,1-3.51,4.21,5.63,5.63,0,0,1-5.64-2.29"/>
              <path class="cls-13" d="M149.17,221.71c1.82-1.12,5.09-2.4,7-1,.9.68,1-.28.07-1-2.37-1.78-5.47-1.07-7.8.37a.91.91,0,0,0-.39,1.18.85.85,0,0,0,1.16.4Z"/>
              <path class="cls-13" d="M134.64,224.74c-2.09-.45-5.58-.59-6.91,1.36-.64.94-1,.05-.37-.88,1.68-2.47,4.84-2.82,7.51-2.23a.91.91,0,0,1,.74,1,.87.87,0,0,1-1,.76Z"/>
              <path class="cls-12" d="M145,226.43a14.6,14.6,0,0,0,2.64,6.34,13.09,13.09,0,0,0,1.06,1.28c.21.22.43.44.65.64.05.05.25.18.27.25s0,.09-.1.18a4,4,0,0,1-1.35.95,6.89,6.89,0,0,1-1.92.64c-.54.1-.37,1,.18.87a7.39,7.39,0,0,0,3.46-1.6c.34-.31.85-.73.66-1.26-.1-.28-.4-.47-.61-.67s-.47-.46-.7-.71a13.69,13.69,0,0,1-3.4-7.09c-.09-.56-.93-.38-.84.18Z"/>
              <path class="cls-14" d="M136.69,230.26a1.76,1.76,0,0,1-1.62,1.84,1.78,1.78,0,0,1-1.36-2c.07-1.07.79-1.89,1.62-1.83A1.76,1.76,0,0,1,136.69,230.26Z"/>
              <path class="cls-14" d="M155.24,227.66a1.55,1.55,0,1,1-3-.21c.08-1.07.8-1.89,1.63-1.83A1.77,1.77,0,0,1,155.24,227.66Z"/>
              <path class="cls-15" d="M138.21,240c.41,2-1.34,4-3.9,4.56s-5-.56-5.38-2.51,1.34-4,3.9-4.56S137.8,238,138.21,240Z"/>
              <path class="cls-15" d="M161.67,235.24c.41,1.95-1.18,4-3.54,4.48s-4.62-.64-5-2.59,1.18-4,3.55-4.48S161.26,233.29,161.67,235.24Z"/>
            </g>
            <g>
              <g>
                <path class="cls-16" d="M161.11,227.77c.59,6.1,3,10.84,5.41,10.6s3.87-5.38,3.29-11.47-3-10.84-5.41-10.6S160.53,221.68,161.11,227.77Z"/>
                <path class="cls-17" d="M163.86,227.5c.36,3.75,1.85,6.67,3.33,6.52s2.38-3.31,2-7.06-1.85-6.68-3.32-6.53S163.5,223.74,163.86,227.5Z"/>
              </g>
              <path class="cls-7" d="M115,226.8c-.11-.53-2.64-13.18,2.41-21.55,4.62-7.65,13.07-17.08,33-10.69.52.14,13.79,4,15.74,25l-2.25.29c-1.78-19.13-13.59-22.67-14.1-22.81-18.51-5.95-26.27,2.66-30.49,9.65-4.51,7.45-2.1,19.44-2.08,19.56Z"/>
              <g>
                <ellipse class="cls-16" cx="116" cy="234.75" rx="8.24" ry="11.81" transform="matrix(0.99, -0.16, 0.16, 0.99, -35.38, 21.1)"/>
                <path class="cls-7" d="M121.89,233.72c.93,5.56-1.46,10.63-5.34,11.31s-7.78-3.28-8.71-8.85,1.46-10.63,5.34-11.31S121,228.15,121.89,233.72Z"/>
              </g>
              <path class="cls-7" d="M163.34,220.11a4.22,4.22,0,0,1,4.89-3.54,4.63,4.63,0,0,1,3.62,2.83c1.53,3.77,2.78,14.17-2.55,17.35a2.94,2.94,0,0,1-4.06-1.23C163.84,232.92,162.06,227.84,163.34,220.11Z"/>
              <g>
                <path class="cls-7" d="M139.69,252.61C120.8,252,114.3,240.67,114,240.19l1.67-1c.06.11,6.3,10.83,24,11.43Z"/>
                <path class="cls-16" d="M147.13,251.83c0,1.76-2,3.19-4.4,3.19s-4.4-1.43-4.4-3.19,2-3.2,4.4-3.2S147.13,250.06,147.13,251.83Z"/>
              </g>
            </g>
          </g>
        </g>
        <g>
          <g>
            <path class="cls-18" d="M80.9,285.44A178.61,178.61,0,0,0,66.58,322a181.59,181.59,0,0,0-6,38.93A178.63,178.63,0,0,0,61,383.25c.07.88,1.42.89,1.35,0a178.27,178.27,0,0,1,1.14-39.18,180.13,180.13,0,0,1,9.6-37.82,174.26,174.26,0,0,1,9-20.11c.41-.79-.75-1.48-1.17-.7Z"/>
            <g>
              <path class="cls-19" d="M113.1,308.45a20.4,20.4,0,0,0-5.75-3.58c-3.78-1.66-10.86-2.54-11.81-3.6-1.37-2.55,7.43-1.16,11.07-.23,3.1.78,6.06,2,9.09,3.08a.92.92,0,0,0,1.14-1.18,16.12,16.12,0,0,0-8.22-9.5,15.55,15.55,0,0,0-10.9-.86.73.73,0,0,1-.67-1.26,14.63,14.63,0,0,1,6.4-2.93,19.73,19.73,0,0,1,8.61.39.86.86,0,0,0,.93-1.26,13.11,13.11,0,0,0-9.7-6.54c-4.63-.51-8.52,5.79-12,5.79-3.78-.58.26-5.52,2.77-7.27a24.21,24.21,0,0,1,8.11-2.93.89.89,0,0,0,.38-1.59,23,23,0,0,0-8.39-4.14c-3.76-.85-8-.15-10.79,2.6a12.83,12.83,0,0,0-2.87,4.77,20.17,20.17,0,0,0-.71,2.41,3.6,3.6,0,0,1-4.67,2.63,12.31,12.31,0,0,0-5.42-.69,10.53,10.53,0,0,0-7.28,4.8c-2.62,4.16-2.11,9.59-1,14.41A8,8,0,0,0,63.29,306a16.76,16.76,0,0,1,7.89-11.23c.91-.53,2.45-.7,2.66.35a1.81,1.81,0,0,1-.29,1.14c-2.36,4.36-6.72,7.77-7.42,12.71-.54,3.83,1.39,7.57,4.22,10.24a.84.84,0,0,0,1.4-.79A18.74,18.74,0,0,1,76,303a5.14,5.14,0,0,1,2.28-1.68,2.15,2.15,0,0,1,2.5.88,2.77,2.77,0,0,1,.18,1.69,11.64,11.64,0,0,1-1.4,4c-2,3.58-3.92,7.73-3.38,11.91a8.49,8.49,0,0,0,4.34,6.4,1.18,1.18,0,0,0,1.55-1.57,17.82,17.82,0,0,1-.76-11,6.08,6.08,0,0,1,1.37-2.81,2.58,2.58,0,0,1,2.82-.7c1.54.72,1.55,2.92,1.35,4.64a30.13,30.13,0,0,0-.22,7.76A11,11,0,0,0,90,329.4c4.79,4.2,12.9,1.67,17.75,5.81a10.5,10.5,0,0,1,.19-6.69c.57-1.55,1.51-2.95,2-4.54,1-3.35-.41-7.07-2.75-9.61S100,310.15,98.41,309c-4.89-4.64,12.64,4.3,18,8.47a.74.74,0,0,0,1.18-.73A15.07,15.07,0,0,0,113.1,308.45Zm-38-17.55c-2.14,0-3.87-1.13-3.87-2.53s1.73-2.53,3.87-2.53S79,287,79,288.37,77.28,290.9,75.14,290.9ZM85.6,307c-1.06,0-1.92-1.24-1.92-2.78s.86-2.78,1.92-2.78,1.93,1.25,1.93,2.78S86.67,307,85.6,307Zm4.57,12.34c-1.33,0-2.41-1.84-2.41-4.1s1.08-4.11,2.41-4.11,2.42,1.84,2.42,4.11S91.51,319.38,90.17,319.38Zm1.57-23.53c0-.87,1.49-1.58,3.32-1.58s3.32.71,3.32,1.58-1.48,1.58-3.32,1.58S91.74,296.72,91.74,295.85Zm8.41,20.49c1.38-1.56,4.06-1.38,6,.41s2.37,4.5,1,6.06-4,1.38-6-.41S98.78,317.9,100.15,316.34Z"/>
              <path class="cls-1" d="M78.84,283.05c6,3.29,8,10.79,10,16.9s3.79,12.56,7,18.2a25.08,25.08,0,0,0,6.57,7.62c.34.26.4.12,0-.14-5.25-4-7.78-10.55-10-16.69-1.14-3.17-2.13-6.39-3.17-9.59A65.19,65.19,0,0,0,85.9,290a17.73,17.73,0,0,0-6.72-7.56c-.38-.21-.72.38-.34.59Z"/>
            </g>
          </g>
          <g>
            <path class="cls-19" d="M27.09,283.53A170.09,170.09,0,0,1,48,321.61a340.75,340.75,0,0,1,13.3,41.61c2.1,8,4,16.11,6,24.18.21.86,1.5.49,1.3-.38-3.44-14.37-6.91-28.74-11.24-42.86a238,238,0,0,0-16.14-40.6,153.57,153.57,0,0,0-12.95-20.75c-.52-.7-1.68,0-1.15.72Z"/>
            <path class="cls-18" d="M66.78,269.1a20.37,20.37,0,0,0-6.05,3c-3.42,2.35-8,8-9.37,8.21-2.84-.22,3.09-7,5.82-9.66,2.33-2.24,5-4.12,7.47-6.14a1,1,0,0,0-.35-1.63,15.57,15.57,0,0,0-12.24,1.91,16.22,16.22,0,0,0-6.63,8.91.71.71,0,0,1-1.4-.1,15.53,15.53,0,0,1,1.09-7.1,20.72,20.72,0,0,1,5-7.2.87.87,0,0,0-.52-1.49A13,13,0,0,0,39,262.61c-2.94,3.7.1,10.47-1.8,13.5-2.54,2.94-4.38-3.23-4.45-6.34a25.78,25.78,0,0,1,2-8.56.87.87,0,0,0-1.1-1.19,22.94,22.94,0,0,0-7.94,5c-2.74,2.77-4.49,6.82-3.74,10.69a12.92,12.92,0,0,0,2.34,5.07,20.93,20.93,0,0,0,1.58,1.92,3.75,3.75,0,0,1-.38,5.45A12.84,12.84,0,0,0,22,292.4a11,11,0,0,0,0,8.87c2,4.52,6.7,7,11.25,8.71a7.5,7.5,0,0,0,4.47.62,17,17,0,0,1-4.9-12.89c.06-1.08.76-2.5,1.73-2.1a1.73,1.73,0,0,1,.77.87c2.3,4.4,2.71,10,6.38,13.29,2.84,2.55,7,2.92,10.67,1.94a.86.86,0,0,0,.12-1.63,18.29,18.29,0,0,1-10.25-12,5.34,5.34,0,0,1-.13-2.88,2.19,2.19,0,0,1,2.07-1.67,2.71,2.71,0,0,1,1.49.76,11.51,11.51,0,0,1,2.54,3.4c1.86,3.65,4.2,7.58,7.91,9.38a8.07,8.07,0,0,0,7.6-.25,1.2,1.2,0,0,0-.44-2.18,16.92,16.92,0,0,1-9.43-5.34,6.12,6.12,0,0,1-1.55-2.7,2.71,2.71,0,0,1,1-2.81c1.43-.93,3.24.25,4.53,1.37a29.17,29.17,0,0,0,6.23,4.4,10.4,10.4,0,0,0,7.39.84c6-1.83,8.38-10.19,14.4-12.11a10.09,10.09,0,0,1-5.37-3.8c-.95-1.34-1.59-2.91-2.64-4.17-2.22-2.66-6-3.49-9.36-2.86s-7.35,3.87-9.1,4.6c-6.46,1.69,10.39-8.54,16.75-10.92a.77.77,0,0,0,0-1.42A14.26,14.26,0,0,0,66.78,269.1Zm-35,23.12c-1.17,1.84-3,2.72-4.18,1.95s-1.13-2.86,0-4.7,3-2.72,4.18-2S32.94,290.38,31.78,292.22Zm18.9-.23c-.58.92-2.07,1-3.33.15s-1.8-2.25-1.22-3.17,2.06-1,3.32-.15S51.26,291.08,50.68,292Zm12.59,2.78c-.73,1.15-2.82,1.08-4.68-.15s-2.77-3.17-2-4.32,2.81-1.08,4.67.16S64,293.62,63.27,294.77ZM44.85,280.62c-.71-.47-.48-2.14.51-3.71s2.39-2.48,3.11-2,.48,2.14-.52,3.72S45.57,281.1,44.85,280.62Zm21.35,3.91c-.53-2,1.08-4.24,3.59-4.93s5,.41,5.5,2.44-1.08,4.24-3.59,4.93S66.73,286.56,66.2,284.53Z"/>
            <path class="cls-1" d="M28.83,284c5.94-3.36,13.19-1,19.26.58s12.35,3.56,18.73,3.84a24.32,24.32,0,0,0,9.81-1.51c.4-.16.32-.28-.09-.13-6.12,2.35-12.86,1-19.09-.48-3.21-.74-6.38-1.64-9.56-2.49a62.5,62.5,0,0,0-9.52-2.1,17.08,17.08,0,0,0-9.85,1.67c-.38.21-.07.83.31.62Z"/>
          </g>
          <g>
            <path class="cls-18" d="M56.29,381.3a255.11,255.11,0,0,0-15.78-42.53c-3.64-7.8-7.58-15.45-11.71-23a.68.68,0,0,0-1.19.65A346.47,346.47,0,0,1,47,357.37a227.42,227.42,0,0,1,8,24.33A4.72,4.72,0,0,1,56.29,381.3Z"/>
            <g>
              <path class="cls-18" d="M36.31,346A16.08,16.08,0,0,0,34.8,341c-1.32-2.84-4.87-6.92-4.89-8,.47-2.13,4.73,3.1,6.32,5.46,1.36,2,2.43,4.21,3.62,6.33a.67.67,0,0,0,1.21-.09,12.45,12.45,0,0,0,0-9.48,12.11,12.11,0,0,0-5.7-6,.55.55,0,0,1,.23-1,11,11,0,0,1,5,1.6,15.43,15.43,0,0,1,4.64,4.57.62.62,0,0,0,1.13-.23,10.2,10.2,0,0,0-2.3-8.58c-2.35-2.63-7.56-1.06-9.53-2.84-1.85-2.24,2.8-3,5-2.67a18.06,18.06,0,0,1,6,2.45.65.65,0,0,0,1-.7,18,18,0,0,0-2.71-6.56,8.85,8.85,0,0,0-7.3-4,9.27,9.27,0,0,0-3.91,1.22,14.57,14.57,0,0,0-1.55,1,2.66,2.66,0,0,1-3.89-.88,9.48,9.48,0,0,0-2.71-3.13,7.75,7.75,0,0,0-6.4-1c-3.47,1-5.79,4.32-7.5,7.58a6,6,0,0,0-.93,3.32,12,12,0,0,1,9.83-2.31c.76.17,1.71.85,1.32,1.55a1.26,1.26,0,0,1-.71.48c-3.42,1.26-7.52,1-10.28,3.39-2.15,1.87-2.86,4.95-2.56,7.87a.62.62,0,0,0,1.16.27,13.4,13.4,0,0,1,9.77-6.46,3.71,3.71,0,0,1,2.09.22,1.68,1.68,0,0,1,1,1.75,2.08,2.08,0,0,1-.71,1,8.35,8.35,0,0,1-2.73,1.56c-2.83,1-5.92,2.35-7.63,5a6.49,6.49,0,0,0-.65,5.79.86.86,0,0,0,1.62-.1A13,13,0,0,1,16,332.82a4.36,4.36,0,0,1,2.12-.88A1.94,1.94,0,0,1,20,333c.51,1.19-.54,2.42-1.48,3.29a21.54,21.54,0,0,0-3.85,4.24,8.31,8.31,0,0,0-1.42,5.5c.67,4.78,6.43,7.47,7.17,12.24a7.68,7.68,0,0,1,3.32-3.66C24.8,354,26,353.69,27,353a7.69,7.69,0,0,0,3.08-6.78c-.09-2.61-2-6-2.31-7.39-.52-5.08,5,8.8,6,13.88a.55.55,0,0,0,1,.18A11.5,11.5,0,0,0,36.31,346Zm-12.85-29c-1.2-1.08-1.63-2.6-1-3.38s2.2-.54,3.4.54,1.62,2.59,1,3.38S24.66,318,23.46,316.91Zm-1.9,14.35a1.89,1.89,0,0,1,.26-2.54c.74-.86,1.82-1.12,2.42-.58a1.89,1.89,0,0,1-.26,2.53C23.24,331.53,22.16,331.79,21.56,331.26Zm-3.37,9.23c-.75-.67-.47-2.25.62-3.52s2.58-1.76,3.33-1.08.47,2.25-.62,3.52S18.94,341.17,18.19,340.49Zm12.2-12.41c.42-.49,1.6-.13,2.63.8s1.52,2.07,1.1,2.56-1.6.14-2.63-.79S30,328.57,30.39,328.08Zm-5.14,15.75c1.52-.18,2.94,1.28,3.16,3.26s-.84,3.72-2.36,3.9-2.94-1.28-3.16-3.25S23.73,344,25.25,343.83Z"/>
              <path class="cls-1" d="M29.31,314.38c1.77,4.86-.69,10.11-2.52,14.53s-3.92,9-4.81,13.78a19.39,19.39,0,0,0,0,7.59c.07.33.17.27.1,0-1-4.9.71-9.85,2.43-14.41.88-2.35,1.88-4.66,2.83-7a48.21,48.21,0,0,0,2.56-7,13.69,13.69,0,0,0-.13-7.64.25.25,0,0,0-.48.16Z"/>
            </g>
          </g>
        </g>
        <g>
          <path class="cls-7" d="M224.88,375.09h42.4a1,1,0,0,1,1,1v3.31a1,1,0,0,1-1,1h-42.4a1,1,0,0,1-1-1v-3.31A1,1,0,0,1,224.88,375.09Z"/>
          <g>
            <rect class="cls-20" x="172.39" y="257.94" width="131.76" height="97.83" rx="2.33"/>
            <rect class="cls-21" x="176.3" y="257.94" width="131.76" height="97.83" rx="2.33"/>
            <polygon class="cls-22" points="194.8 355.77 273.25 257.94 298.29 257.94 258.15 355.77 194.8 355.77"/>
            <path class="cls-23" d="M250.75,302.85a5.52,5.52,0,1,1-5.52-5.66A5.59,5.59,0,0,1,250.75,302.85Z"/>
          </g>
          <polygon class="cls-20" points="233.18 339.93 226.72 355.77 238.27 355.77 233.18 339.93"/>
          <polygon class="cls-7" points="250.75 339.93 262.89 380.49 236.23 380.49 233.18 339.93 250.75 339.93"/>
        </g>
      </g>
    </g>
    <rect class="cls-24" x="34.99" y="381.52" width="338.43" height="11.11" rx="4.7"/>
  </g>
  <g>
    <path class="cls-25" d="M258.09,148.93c29.76-.1,56.68-18.6,66.48-46.69q1-2.77,1.68-5.57c5.68-22.38-.7-47.63-16.92-64.06S267.42,9.54,245.5,16.8c-17.64,5.84-28.28,22.52-46.79,24.1-8.28.71-15.24,1.21-23.3,3.35C164,47.26,154.09,57,148.77,67.53c-4.37,8.62-8.46,22.26-6.51,36.26,0,.18.05.36.08.55a52.65,52.65,0,0,0,52.38,44.81Z"/>
    <g class="cls-26">
      <g>
        <path class="cls-27" d="M251,56.7s.66-9.73,6.76-9.19S252,67.19,251,56.7Z"/>
        <g>
          <g>
            <path class="cls-13" d="M261.22,47.42s-.86,16.48,10.58,20,18,13.52,14.19,25.35c0,0-36.17,3.31-36.55-18.58S261.22,47.42,261.22,47.42Z"/>
            <g>
              <path class="cls-11" d="M237.87,71s.36,13.34-3.63,20.13c0,0,11.39,4.52,22.52-2,0,0-7.93-19.29-4-30.61"/>
              <path class="cls-12" d="M237.71,77.42a17.76,17.76,0,0,0,9-9.7l-9.47,4S237.69,75.21,237.71,77.42Z"/>
            </g>
            <g>
              <path class="cls-13" d="M225.48,34.26s-2.24,1-4,7.8,0,16.21-6.64,26c0,0,12-1.52,14.06-19.63S225.48,34.26,225.48,34.26Z"/>
              <path class="cls-11" d="M228.24,37.45s-5.89,7-5.05,14.55,3.17,17.72,9.77,22.5c0,0,3.21,2.8,16.72-7.73s4.21-26.27-2.14-29.95S232.59,32.33,228.24,37.45Z"/>
              <g>
                <path class="cls-13" d="M252.22,56.89S228.84,53.52,226.16,38s25.09-8.62,31.5-2.9S263,57.31,252.22,56.89Z"/>
                <path class="cls-13" d="M236,35.66s.64-16.44,15.18-19.4,17.36,21.68-7.25,23.17"/>
              </g>
              <g>
                <path class="cls-15" d="M240.78,59.84c.25,1.27-.94,2.58-2.66,2.93s-3.32-.41-3.58-1.68.94-2.58,2.66-2.93S240.53,58.57,240.78,59.84Z"/>
                <path class="cls-12" d="M229,55.2a10.72,10.72,0,0,1-1,5,10.5,10.5,0,0,1-.61,1.09q-.18.28-.39.57s-.16.16-.16.21,0,.06.1.12a3.13,3.13,0,0,0,1.14.49,5.19,5.19,0,0,0,1.52.18c.42,0,.41.65,0,.66a5.55,5.55,0,0,1-2.8-.65c-.31-.17-.74-.41-.68-.82a1.49,1.49,0,0,1,.36-.57c.15-.2.29-.41.42-.62a10,10,0,0,0,1.5-5.65.33.33,0,0,1,.66,0Z"/>
                <path class="cls-13" d="M233.45,50.93c1.5-.6,4.09-1.14,5.33.1.6.61.76-.09.17-.68-1.57-1.59-4-1.44-5.89-.67a.65.65,0,0,0,.39,1.25Z"/>
                <path class="cls-14" d="M236.74,54.79a1.17,1.17,0,1,1-1.21-1.37A1.3,1.3,0,0,1,236.74,54.79Z"/>
                <path class="cls-14" d="M226.23,55.93a1.17,1.17,0,1,1-1.3-1.3A1.31,1.31,0,0,1,226.23,55.93Z"/>
                <path class="cls-13" d="M225.85,52.17c-1.35-.13-3.47.08-3.78,1.5-.16.69-.59.13-.44-.55.4-1.81,2.2-2.32,3.93-2.15a.79.79,0,0,1,.68.6c.08.31-.09.63-.39.6Z"/>
                <path class="cls-1" d="M228.34,65.75l4-.55a3.45,3.45,0,0,1,1.11,0,.3.3,0,0,1,.14.06.28.28,0,0,1,0,.28,2.9,2.9,0,0,1-2.35,2,3.24,3.24,0,0,1-3-1.76"/>
              </g>
            </g>
            <g>
              <path class="cls-7" d="M265.49,52.45l-7.91-4.84a1.82,1.82,0,0,0-2.58.74L244.77,69a1.82,1.82,0,0,0,.87,2.45l8.62,4a1.81,1.81,0,0,0,2.4-.86l9.52-19.82A1.83,1.83,0,0,0,265.49,52.45Z"/>
              <circle class="cls-20" cx="258.74" cy="56.54" r="1.44"/>
            </g>
          </g>
          <g>
            <path class="cls-28" d="M237.84,86.65c2.54,1.28,7.64,2.65,14.7-1.2a4.81,4.81,0,0,1,2.67-.57c4.77.38,19.75,1.69,27.2,3.85a5.28,5.28,0,0,1,3.58,4c2.07,9.16,8.25,37.88,9.06,57.53.14,3.32-2.27,6.17-5.28,6.25l-77.23,2c-3.17.08-5.58-2.92-5.15-6.4L214,99.4a6,6,0,0,1,3.19-4.66l17.39-7.92C236,86.13,236.49,86,237.84,86.65Z"/>
            <path class="cls-29" d="M288.9,106.47c.15,8.08-1.08,16.44-2.14,23.42-1,6.39-2.74,13.42-7.53,18.08-6.76,6.58-16.46,4.53-24.92,5.42-11.27,1.19-32.06,7-40.15-4.64-4.84-7-1.93-14.59-.18-22,1.83-7.77.81-16.29-.34-24.49l-6.25,49.94c-.43,3.48,2,6.48,5.15,6.4l77.23-2c3-.08,5.42-2.93,5.28-6.25C294.5,136.87,291.44,119.23,288.9,106.47Z"/>
            <path class="cls-29" d="M258.35,125.21l1.17-22.12s6.42-2.1,7.71,4.52,4.28,16.15,7.75,22.6.49,16.4-11.62,17.28-25.09-2.28-18.78-18.24A230.39,230.39,0,0,1,255.47,105"/>
            <g>
              <path class="cls-29" d="M235,88a4.58,4.58,0,0,1-.14.53s0,.15,0,.07a.52.52,0,0,1,0,.09c0,.11-.07.22-.11.33-.1.27-.2.54-.31.8a15.06,15.06,0,0,1-2.64,4.12c-.53.59.57,1.35,1.1.76a14.46,14.46,0,0,0,3.52-6.5c.15-.74-1.22-.94-1.37-.2Z"/>
              <path class="cls-29" d="M239,89.05a15.18,15.18,0,0,1-1.45,7.29c-.32.71,1,1,1.32.35a17.4,17.4,0,0,0,1.43-5.29,11.94,11.94,0,0,0,.09-2.31.67.67,0,0,0-.68-.61c-.35,0-.73.25-.71.57Z"/>
              <path class="cls-29" d="M255.89,94l-.09-.12-.1-.14c-.07-.1.08.11,0,0l-.07-.09a14.47,14.47,0,0,1-.77-1.31,13.73,13.73,0,0,1-1.48-4.55c-.11-.75-1.48-.54-1.37.21a14.19,14.19,0,0,0,2.79,6.78c.5.61,1.59-.16,1.09-.77Z"/>
              <path class="cls-29" d="M251.17,95.49a12.84,12.84,0,0,1-1.74-6.6c0-.31-.44-.52-.78-.47a.65.65,0,0,0-.59.68,14.69,14.69,0,0,0,.94,5,10.09,10.09,0,0,0,.89,2c.41.65,1.69.15,1.28-.51Z"/>
              <path class="cls-29" d="M243.29,89.36l.6,6.71.09,1c.07.76,1.43.55,1.37-.21l-.6-6.7-.09-1c-.07-.75-1.43-.54-1.37.21Z"/>
            </g>
            <path class="cls-11" d="M257.36,138.55l.38,0a7.81,7.81,0,0,0,7.05-8.74c-1.77-14.07-5.15-42.21-4.62-47.16.7-6.64,6.69-15.45,9.11-20s-3.71-11.73-4.45-12.13-1.81.23-1.47,1.13c0,0-1.35-1.68-2,.41-.24.75-.84-.68-1.75,1.89-.32.88-.73,0-1.13,1.5s3.22,4,2.86,5.77S254.85,65.37,255,71a70.84,70.84,0,0,1-.69,11.87c-.16,1.2-3.69,31.53-5.22,47.47A7.57,7.57,0,0,0,257.36,138.55Z"/>
          </g>
        </g>
      </g>
    </g>
    <g>
      <path class="cls-1" d="M148.15,79.82a12.11,12.11,0,0,1,.85,21.63l.9,4.75-4.26-3.5a12.11,12.11,0,1,1,2.51-22.88Z"/>
      <path class="cls-24" d="M143.14,92.12V92a.55.55,0,0,1,.55-.55,4,4,0,0,0,0-8,3.92,3.92,0,0,0-3.46,2,.56.56,0,0,1-.76.19.54.54,0,0,1-.19-.76,5,5,0,0,1,4.41-2.56,5.13,5.13,0,0,1,.57,10.22v2.53a.56.56,0,0,1-1.12,0Zm0,5.73a.56.56,0,1,1,1.12,0v.53a.56.56,0,0,1-1.12,0Z"/>
    </g>
    <g>
      <path class="cls-30" d="M173.41,95.6a13.21,13.21,0,0,1,10.38,19.75,2.48,2.48,0,0,0,.11,2.68L186,121l-4.45-1.19a3.05,3.05,0,0,0-2.38.31,13.21,13.21,0,1,1-5.73-24.48Z"/>
      <g>
        <path class="cls-1" d="M171.11,93.84a13.21,13.21,0,0,1,10.38,19.75,2.5,2.5,0,0,0,.11,2.68l2.07,2.93L179.23,118a3.09,3.09,0,0,0-2.38.31,13.21,13.21,0,1,1-5.74-24.48Z"/>
        <g>
          <path class="cls-24" d="M169.74,106.86l-6.73-4a.94.94,0,0,1,.55-.17H176.7a1,1,0,0,1,.55.17c-.89.54-2.71,1.66-6.44,4A1,1,0,0,1,169.74,106.86Z"/>
          <path class="cls-24" d="M169.56,107.61a1.4,1.4,0,0,0,.71.19,1.37,1.37,0,0,0,.73-.21c3.1-1.92,5.4-3.34,6.51-4a1,1,0,0,1,.16.53v7.41a1,1,0,0,1-1,1H163.56a1,1,0,0,1-1-1v-7.41a1,1,0,0,1,.17-.54Z"/>
        </g>
      </g>
    </g>
    <g>
      <path class="cls-1" d="M189.39,55.39H158.17A1.55,1.55,0,0,0,156.62,57V75.81a1.55,1.55,0,0,0,1.55,1.56h20.28a1.55,1.55,0,0,1,1.18.54l3.21,3.73a.72.72,0,0,0,1.27-.47V78.92a1.54,1.54,0,0,1,1.55-1.55h3.73a1.55,1.55,0,0,0,1.55-1.56V57A1.55,1.55,0,0,0,189.39,55.39Z"/>
      <g>
        <path class="cls-24" d="M165,66.21a1.91,1.91,0,1,1-1.91-1.91A1.91,1.91,0,0,1,165,66.21Z"/>
        <path class="cls-24" d="M175.07,66.21a1.91,1.91,0,1,1-1.9-1.91A1.91,1.91,0,0,1,175.07,66.21Z"/>
        <path class="cls-24" d="M185.17,66.21a1.91,1.91,0,1,1-1.91-1.91A1.92,1.92,0,0,1,185.17,66.21Z"/>
      </g>
    </g>
  </g>
  <g>
    <g>
      <path class="cls-1" d="M217.49,164.18a15.48,15.48,0,0,0-12.16,23.13,2.9,2.9,0,0,1-.13,3.14l-2.42,3.43,5.2-1.39a3.58,3.58,0,0,1,2.79.36,15.47,15.47,0,1,0,6.72-28.67Z"/>
      <path class="cls-24" d="M222.82,176.05c-.18-5.65-2.73-5.85-4.36-5.23s-1.91,2.31-.86,4.53c.6,1.27,2.23,1.37,3.51,1.23a17.87,17.87,0,0,1-.59,6.87c-1.17-.48-2.8-.88-3.62.2-1.34,1.77-1.4,3.38,0,4.35,1.12.78,2.88,1.22,4.13-1.38C223.18,182.87,223.1,178.5,222.82,176.05Z"/>
    </g>
    <g>
      <path class="cls-30" d="M159.05,151.63a18.92,18.92,0,0,1,14.87,28.3,3.56,3.56,0,0,0,.16,3.84l3,4.2-6.37-1.7a4.39,4.39,0,0,0-3.4.44,18.93,18.93,0,1,1-8.22-35.08Z"/>
      <g>
        <path class="cls-1" d="M156.71,150.14a18.93,18.93,0,0,1,14.87,28.3,3.58,3.58,0,0,0,.16,3.85l3,4.2-6.37-1.71a4.35,4.35,0,0,0-3.4.45,18.93,18.93,0,1,1-8.22-35.09Z"/>
        <g>
          <path class="cls-24" d="M154.74,168.8l-9.64-5.71a1.38,1.38,0,0,1,.78-.24h18.83a1.4,1.4,0,0,1,.79.25c-1.28.78-3.88,2.37-9.22,5.68A1.47,1.47,0,0,1,154.74,168.8Z"/>
          <path class="cls-24" d="M154.48,169.87a2,2,0,0,0,1,.28,2,2,0,0,0,1.05-.3c4.43-2.75,7.73-4.78,9.32-5.74a1.34,1.34,0,0,1,.23.77V175.5a1.39,1.39,0,0,1-1.39,1.39H145.88a1.4,1.4,0,0,1-1.4-1.39V164.88a1.32,1.32,0,0,1,.25-.78Z"/>
        </g>
      </g>
    </g>
    <g>
      <path class="cls-30" d="M177.22,204.11h49.46a2.47,2.47,0,0,1,2.46,2.47v29.89a2.46,2.46,0,0,1-2.46,2.46H194.54a2.46,2.46,0,0,0-1.86.86l-5.09,5.92a1.15,1.15,0,0,1-2-.75V241.4a2.47,2.47,0,0,0-2.46-2.47h-5.9a2.46,2.46,0,0,1-2.46-2.46V206.58A2.47,2.47,0,0,1,177.22,204.11Z"/>
      <path class="cls-1" d="M175.48,202.06h49.46a2.47,2.47,0,0,1,2.46,2.47v29.89a2.46,2.46,0,0,1-2.46,2.46H192.8a2.48,2.48,0,0,0-1.87.86l-5.09,5.92a1.14,1.14,0,0,1-2-.75v-3.56a2.47,2.47,0,0,0-2.46-2.47h-5.9a2.46,2.46,0,0,1-2.47-2.46V204.53A2.47,2.47,0,0,1,175.48,202.06Z"/>
      <g>
        <circle class="cls-24" cx="186.61" cy="219.53" r="2.57"/>
        <circle class="cls-24" cx="200.21" cy="219.53" r="2.57"/>
        <circle class="cls-24" cx="213.8" cy="219.53" r="2.57"/>
      </g>
    </g>
  </g>
</svg>
