<svg xmlns="http://www.w3.org/2000/svg" width="316.329" height="325.28" viewBox="0 0 316.329 325.28">
  <g id="cf5_slide_copia_3" data-name="cf5_slide copia 3" transform="translate(-9.94 -11.92)">
    <g id="Grupo_89487" data-name="Grupo 89487" transform="translate(16.181 27.706)">
      <path id="Trazado_150114" data-name="Trazado 150114" d="M48.586,42.4V30.79a31.186,31.186,0,0,0,0,62.372V81.551a19.575,19.575,0,0,1,0-39.15Z" transform="translate(-17.4 -30.79)" fill="#8b82ca" opacity="0.69"/>
      <g id="Grupo_89486" data-name="Grupo 89486" transform="translate(31.186)" opacity="0.5">
        <path id="Trazado_150115" data-name="Trazado 150115" d="M54.68,93.162a31.186,31.186,0,1,0,0-62.372V42.4a19.575,19.575,0,0,1,0,39.15Z" transform="translate(-54.68 -30.79)" fill="#8b82ca"/>
      </g>
    </g>
    <g id="Grupo_89489" data-name="Grupo 89489" transform="translate(11.596 11.92)">
      <path id="Trazado_150116" data-name="Trazado 150116" d="M200,268.018v58.558A157.328,157.328,0,1,0,200,11.92V70.478A98.762,98.762,0,0,1,200,268Z" transform="translate(-42.664 -11.92)" fill="#6558b8" opacity="0.32"/>
      <g id="Grupo_89488" data-name="Grupo 89488" opacity="0.5">
        <path id="Trazado_150117" data-name="Trazado 150117" d="M169.256,11.92a157.336,157.336,0,1,0,0,314.673V268.035a98.762,98.762,0,0,1,0-197.524Z" transform="translate(-11.92 -11.92)" fill="#cfccd9"/>
      </g>
    </g>
    <g id="Grupo_89490" data-name="Grupo 89490" transform="translate(14.876 238.66)">
      <path id="Trazado_150118" data-name="Trazado 150118" d="M57.324,298.417V283a41.482,41.482,0,1,0,0,82.964V350.492a26.039,26.039,0,1,1,0-52.079Z" transform="translate(-15.84 -282.971)" fill="#cfccd9"/>
      <path id="Trazado_150119" data-name="Trazado 150119" d="M65.43,365.929a41.482,41.482,0,1,0,0-82.964v15.447a26.039,26.039,0,1,1,0,52.079Z" transform="translate(-23.946 -282.965)" fill="#b2abdb"/>
    </g>
    <path id="Trazado_150120" data-name="Trazado 150120" d="M180.583,81.21a99.373,99.373,0,0,0,0,198.745V274.1l-5.856-.142a93.525,93.525,0,0,1,0-186.682h5.856Z" transform="translate(-11.65 -11.326)" fill="#b2abdb"/>
    <g id="Grupo_89500" data-name="Grupo 89500" transform="translate(9.94 83.867)">
      <path id="Trazado_150121" data-name="Trazado 150121" d="M174.315,230.578a.594.594,0,0,0-.042-.837,3.5,3.5,0,0,1-1.673-3.221,2.685,2.685,0,0,1,1.305-1.815.577.577,0,0,0,.259-.535,2.51,2.51,0,0,1-1.481-2.694,2.024,2.024,0,0,1,.9-1.263s0-.092,0-.134a.586.586,0,0,0-.109-.41,8.365,8.365,0,0,1,5.3-13.217.569.569,0,0,0,.376-.837,6.617,6.617,0,0,1-.644-5.906c1.414-3.2,5.856-3.882,9.938-1.531l.176.1a.519.519,0,0,0,.753-.527c-.184-3.605.837-6.517,2.736-7.278s4.04.669,5.789,3.346a.485.485,0,0,0,.837-.067c.987-2.158,2.51-3.438,3.714-2.961.837.31,1.3,1.33,1.43,2.685a.5.5,0,0,0,.837.343c3.162-3.547,6.985-4.877,8.951-2.953,1.113,1.087,1.405,3.02.987,5.228a.519.519,0,0,0,.761.586c3-1.957,6.475-1.966,8.8.318a8.533,8.533,0,0,1,2.234,6.692.577.577,0,0,0,.36.586,9.754,9.754,0,0,1,3.6,2.275,12.071,12.071,0,0,1,2.142,14.02.577.577,0,0,0,.31.837,4.969,4.969,0,0,1,3.823,4.71,4.869,4.869,0,0,1-3.288,4.375.586.586,0,0,0-.059,1.029,4.455,4.455,0,0,1,2.577,4.417c-.31,1.916-2.259,3.162-4.576,3.087a.569.569,0,0,0-.452.837c1.012,1.765,1.33,3.438.669,4.183s-2.033.343-3.488-.795a.51.51,0,0,0-.837.468c0,1.824-.627,3.346-1.807,3.974s-2.351.184-3.455-.837a.485.485,0,0,0-.837.259c-.552,2.05-1.866,3.522-3.455,3.6a3.631,3.631,0,0,1-3.2-2.091.468.468,0,0,0-.577-.226,27.94,27.94,0,0,1-10.038,1.673,25.548,25.548,0,0,1-11.762-2.953.519.519,0,0,0-.736.418c-.519,3.145-2.978,4.183-5.755,3.564a3.589,3.589,0,0,1-2.426-1.974.653.653,0,0,0-.9-.234c-2.309,1.029-4.91-2-4.392-5.145a6.317,6.317,0,0,1,.678-1.983.77.77,0,0,0-1-.962,3.07,3.07,0,0,1-1.113-.092c-2.786-.552-4.609-3.614-4.091-6.768a5.956,5.956,0,0,1,1.949-3.363Z" transform="translate(-36.403 -112.974)" fill="#0f0140"/>
      <path id="Trazado_150122" data-name="Trazado 150122" d="M255.9,382.152H145.27c-5.086-7.7-10.465-15.543-16.338-27.162a22.586,22.586,0,0,1-2.51-14.112,18.529,18.529,0,0,1,5.463-10.315c9.386-8.131,28.886-12.866,49.649-14.623a197.169,197.169,0,0,1,38.088,0c20.771,1.723,40.263,6.492,49.657,14.623a18.529,18.529,0,0,1,5.429,10.315,22.587,22.587,0,0,1-2.51,14.112C266.367,366.609,260.98,374.447,255.9,382.152Z" transform="translate(-28.94 -133.412)" fill="#686bea"/>
      <path id="Trazado_150123" data-name="Trazado 150123" d="M168.565,280.172c-4.35-.887-14.832,13.293-15.8,18.312-2.133,11.034-1.154,13.251-2.51,21.332-1.037,6.157-3.17,8.667-7.161,25.606-1.447,6.14-1.891,16.948.694,19.1,1.238,1.029,6.149,1.439,9.537.5,7.127-1.983,20.83-34.3,17.5-65.25C170.271,294.586,174.722,281.41,168.565,280.172Z" transform="translate(-31.514 -127.709)" fill="#512618"/>
      <path id="Trazado_150124" data-name="Trazado 150124" d="M257.788,359.356c-4.041-2.568-6.893-13.644-10.791-39.142-1.255-8.223-1.74-11.887-1-17.065.343-2.418,1.673-12.205,7.278-14.054,3.689-1.2,7.529.786,8.282,1.255,8.248,5.337,8.867,17.007,8.775,39.895-.067,18.044-.5,29.212-3.505,30.617C263.049,362.611,258.348,359.716,257.788,359.356Z" transform="translate(-48.469 -129.112)" fill="#512618"/>
      <path id="Trazado_150125" data-name="Trazado 150125" d="M163.213,332.573a32.19,32.19,0,0,1-14.572-5.086,67.3,67.3,0,0,0,2.208-8.876c1.355-8.081.3-10.306,2.51-21.332,2.384-11.921,10.875-19.96,22.829-20.32,11.084-.335,18.722-6.391,33.027-3.346,5.6,1.18,15.208,7.169,25.506,9.813,6.031,1.539,10.038,2,12.548,4.6,2.66,2.786,5.755,7.06,5.5,10.766,1.581,6.634,1.748,15.894,1.673,28.626v5.814c-.2.117-.393.234-.594.335-5.5,2.92-13.117,2.275-20.186-.987-.376-2.041-.753-4.225-1.146-6.567-.226,1.322-.452,2.694-.686,4.107-1.3,11.586,3.221,18.973,6.943,27.246,4.484,9.988,8.892,14.079,5.019,17.35-8.181,6.927-17.626,4.1-43.5,2.133-17.676-1.338-31.788,1.288-27.464-7.947C180.579,352.432,169.068,342.661,163.213,332.573Z" transform="translate(-32.612 -126.504)" fill="#ed1c24"/>
      <path id="Trazado_150126" data-name="Trazado 150126" d="M225.246,250.447c.3.5,1.38,2.309,2.761,2.259s2.409-2.158,4.015-5.764c1.522-3.43,1.439-4.7,1.255-5.521a4,4,0,0,0-1.757-2.761c-1.673-.837-3.656.284-4.015.5C224.167,241.17,223.138,246.934,225.246,250.447Z" transform="translate(-44.955 -120.88)" fill="#f79556"/>
      <path id="Trazado_150127" data-name="Trazado 150127" d="M207.313,101.94H337.747a9.6,9.6,0,0,1,9.6,9.6v38.2a9.6,9.6,0,0,1-9.6,9.6H229.222l-10.95,10v-10H207.313a9.6,9.6,0,0,1-9.6-9.6v-38.2A9.6,9.6,0,0,1,207.313,101.94Z" transform="translate(-40.633 -98.582)" fill="#efba8f"/>
      <g id="Grupo_89492" data-name="Grupo 89492" transform="translate(238.832 0)">
        <circle id="Elipse_5088" data-name="Elipse 5088" cx="22.812" cy="22.812" r="22.812" transform="translate(0 32.262) rotate(-45)" fill="#686bea"/>
        <g id="Grupo_89491" data-name="Grupo 89491">
          <path id="Trazado_150128" data-name="Trazado 150128" d="M343.073,149.841l-1.263-.2a13.685,13.685,0,0,0-4.141-1.23c-3.07-.351-7.111,1.322-10.875,2.376s-5.019,1.573-7.629,1.84a11.092,11.092,0,0,0-3.681,1.021h-.075a7.254,7.254,0,0,0-1.029.594,22.829,22.829,0,0,0,35.059-2.66A39.563,39.563,0,0,0,343.073,149.841Z" transform="translate(-298.535 -106.17)" fill="#ed1c24"/>
          <path id="Trazado_150129" data-name="Trazado 150129" d="M347.443,120.44a4.961,4.961,0,0,1,.837,3.974c-1.021,5.688.527,3.873-.234,7.069-1.238,5.245-5.019,5.019-5.32,3.472s.351-6.625.887-7.236S347.443,120.44,347.443,120.44Z" transform="translate(-303.156 -101.606)" fill="#1e1735"/>
          <path id="Trazado_150130" data-name="Trazado 150130" d="M343.646,132.3s-.176,3.89-.059,5.663c.393,5.6,1.623,9.294,1.6,10.44a3.681,3.681,0,0,1-2.125,3.346c-2.735,1.824-8.365,2.384-10.105.31a4.183,4.183,0,0,1-.887-2.075c-.134-.652-1.079-4.961-.836-5.555s5.345-9.428,6.575-10.122a50.112,50.112,0,0,1,5.839-2.008Z" transform="translate(-301.284 -103.545)" fill="#ec7d40"/>
          <path id="Trazado_150131" data-name="Trazado 150131" d="M328.594,115.646a7.914,7.914,0,0,0-5.212,6.291,15.377,15.377,0,0,0-.209,4.643c.577,2.51.176,3.346.335,4.852a32.249,32.249,0,0,0,1.673,5.647c.678,1.957,1.865,4.593,3.647,5.772a4.727,4.727,0,0,0,3.731.778c2.936-.4,7.579-4.593,8.089-5.856s.485-4.517.5-5.421a43.5,43.5,0,0,1,.376-5.68c.31-1.589.778-7.763-4.1-10.156-1.046-.51-6.006-1.84-8.658-.945Z" transform="translate(-299.958 -100.761)" fill="#f79556"/>
          <path id="Trazado_150132" data-name="Trazado 150132" d="M328.184,131.739c0,.142-.452.527-1.673.443-.552-.042-1.087-.217-1.071-.494a1.062,1.062,0,0,1,.878-.77C327.138,130.843,328.2,131.463,328.184,131.739Z" transform="translate(-300.343 -103.318)" fill="#e6e6e6"/>
          <path id="Trazado_150133" data-name="Trazado 150133" d="M325.939,131.543a.837.837,0,1,0,.837-.753A.837.837,0,0,0,325.939,131.543Z" transform="translate(-300.424 -103.298)" fill="#1e1735"/>
          <path id="Trazado_150134" data-name="Trazado 150134" d="M337.96,131.494c0,.151-.443.594-1.782.586-.594,0-1.188-.159-1.188-.46a1.146,1.146,0,0,1,.9-.837C336.78,130.6,337.968,131.2,337.96,131.494Z" transform="translate(-301.904 -103.291)" fill="#e6e6e6"/>
          <path id="Trazado_150135" data-name="Trazado 150135" d="M337.245,131.322a.837.837,0,1,1-.912-.7A.837.837,0,0,1,337.245,131.322Z" transform="translate(-302.001 -103.269)" fill="#1e1735"/>
          <path id="Trazado_150136" data-name="Trazado 150136" d="M334.667,142.5a.151.151,0,0,0-.1-.243,20.713,20.713,0,0,0-3.028-.2,11.942,11.942,0,0,0-2.192.251.159.159,0,0,0-.109.217,2.744,2.744,0,0,0,2.61,1.673A3.756,3.756,0,0,0,334.667,142.5Z" transform="translate(-300.962 -105.14)" fill="#d66730"/>
          <path id="Trazado_150137" data-name="Trazado 150137" d="M328.375,128.82a3.02,3.02,0,0,1-.686.117,5.356,5.356,0,0,1-.636,0l-.3-.05a1.584,1.584,0,0,1-.309-.067,3.75,3.75,0,0,0-.577-.167h-.284a1.458,1.458,0,0,0-.268,0h-.268l-.293.059a3.533,3.533,0,0,0-.56.217l-.268.142a1.939,1.939,0,0,0-.251.184l-.084-.059a2.149,2.149,0,0,1,.418-.535,3.285,3.285,0,0,1,.535-.418l.31-.167.159-.067h.184a3.1,3.1,0,0,1,.719-.1h.686a1.59,1.59,0,0,1,.343,0,1.523,1.523,0,0,1,.318.092,2.936,2.936,0,0,1,.6.31,3.144,3.144,0,0,1,.276.218,1.975,1.975,0,0,1,.243.276Z" transform="translate(-300.041 -102.825)" fill="#1e1735"/>
          <path id="Trazado_150138" data-name="Trazado 150138" d="M333.46,128.422l.142-.159.142-.151c.1-.092.2-.167.309-.251l.335-.209.343-.167.184-.067.184-.059h2.359a2.109,2.109,0,0,1,.393.109h.1l.092.042.184.084a2.261,2.261,0,0,1,.335.209,2.942,2.942,0,0,1,.3.243c.1.092.184.184.268.276l-.059.084a3.113,3.113,0,0,0-.326-.176,2.86,2.86,0,0,0-.335-.142l-.167-.059h-.5a2.626,2.626,0,0,0-.678,0h-.51l-.176.042a1.023,1.023,0,0,0-.335.1l-.167.067-.167.059-.167.059-.167.059-.176.042h-.176l-.36.05H333.5Z" transform="translate(-301.654 -102.737)" fill="#1e1735"/>
          <path id="Trazado_150139" data-name="Trazado 150139" d="M328.419,118.062c-.678.837-.786,1.213-1.673,1.472-3.262.979-3.622,2.694-3.831,3.781-.3,1.581.6,5.981.234,5.923s-.837-.644-.786-2.459c.075-1.472-1.146-2.075-1.2-3.02a15.7,15.7,0,0,1,.836-5.672c.728-1.489,1.824-3.288,3.4-3.907s1.029-.937,2.576-1.414c1.807-.552,2.794-.2,2.953.527S329.214,117.1,328.419,118.062Z" transform="translate(-299.642 -100.308)" fill="#1e1735"/>
          <path id="Trazado_150140" data-name="Trazado 150140" d="M338.336,131.756a2.192,2.192,0,0,0-.192-.2l-.209-.184a1.908,1.908,0,0,0-.46-.284l-.117-.059h-.125a1.4,1.4,0,0,0-.251-.067,2.082,2.082,0,0,0-.51,0,1.673,1.673,0,0,0-.485.134l-.46.192a3.072,3.072,0,0,0-.435.226,2.076,2.076,0,0,0-.217.159,2.117,2.117,0,0,0-.218.184H334.6a.837.837,0,0,1,0-.326,1.358,1.358,0,0,1,.142-.293,1.422,1.422,0,0,1,.452-.468,1.464,1.464,0,0,1,.594-.243,2.752,2.752,0,0,1,.644,0,2.308,2.308,0,0,1,.627.117,2.124,2.124,0,0,1,.544.293,2.6,2.6,0,0,1,.234.192,2.374,2.374,0,0,1,.2.217,2.46,2.46,0,0,1,.326.5Z" transform="translate(-301.838 -103.252)" fill="#1e1735"/>
          <path id="Trazado_150141" data-name="Trazado 150141" d="M325,131.918a.928.928,0,0,1,0-.159v-.142a1.143,1.143,0,0,1,.134-.268,1.439,1.439,0,0,1,.427-.443,1.347,1.347,0,0,1,.586-.217,1.812,1.812,0,0,1,.3,0,1.859,1.859,0,0,1,.31,0,2.292,2.292,0,0,1,1.079.4,2.041,2.041,0,0,1,.418.385,2.3,2.3,0,0,1,.159.234,1.744,1.744,0,0,1,.117.251h-.05a1.916,1.916,0,0,0-.795-.627,1.891,1.891,0,0,0-.468-.142,2.426,2.426,0,0,0-.485-.042H326.5l-.217.067-.209.075-.209.084a3.894,3.894,0,0,0-.418.209c-.142.084-.284.184-.443.293Z" transform="translate(-300.271 -103.28)" fill="#1e1735"/>
          <path id="Trazado_150142" data-name="Trazado 150142" d="M343.57,135.183c.092.092.335.527.736.627s1,.276,1.807-.837a8.885,8.885,0,0,0,1.054-4.45s-.151-1.673-1.1-1.673-2.443,4.074-2.443,4.074Z" transform="translate(-303.307 -102.981)" fill="#f79556"/>
          <path id="Trazado_150143" data-name="Trazado 150143" d="M329.29,118.833c.46.786,1.422,1,2.819.694a3.848,3.848,0,0,1,3.221.36c1.606,1.054,1.129,2.2,3.614,4.509a4.752,4.752,0,0,1,1.782,3.756,17.059,17.059,0,0,1,0,2.434c0,.678,1.138,1.062,1.506-.1a21.654,21.654,0,0,1,.979-3.145c.326-.736.527-1.213,1.43-1.33.77-.109,1.539-2.694,1.339-4.777a6.058,6.058,0,0,0-2.9-5.136c-2.066-1.581-2.008-1.213-3.4-2.51s-5.647-2.384-7.529-.418C328.362,117.085,329.29,118.833,329.29,118.833Z" transform="translate(-300.956 -100.242)" fill="#1e1735"/>
          <path id="Trazado_150144" data-name="Trazado 150144" d="M335.437,141.961a2.665,2.665,0,0,1-.31.226c-.109.075-.217.134-.335.2a4.8,4.8,0,0,1-.694.326,5.794,5.794,0,0,1-.736.234,6.249,6.249,0,0,1-.77.151h-1.757l-.184-.05-.376-.117-.184-.075-.159-.059-.176-.092-.167-.1v-.05h2.275a5.407,5.407,0,0,0,.736,0,5.486,5.486,0,0,0,.736-.075l.728-.151a7.069,7.069,0,0,0,.711-.234l.343-.151c.109-.059.226-.117.326-.184Z" transform="translate(-301.022 -105.091)" fill="#913b1d"/>
          <circle id="Elipse_5089" data-name="Elipse 5089" cx="22.812" cy="22.812" r="22.812" transform="translate(0 32.262) rotate(-45)" fill="none"/>
        </g>
      </g>
      <g id="Grupo_89493" data-name="Grupo 89493" transform="translate(168.345 19.959)">
        <circle id="Elipse_5090" data-name="Elipse 5090" cx="2.116" cy="2.116" r="2.116" transform="translate(51.031 24.446) rotate(-85.93)" fill="#fff"/>
        <circle id="Elipse_5091" data-name="Elipse 5091" cx="2.116" cy="2.116" r="2.116" transform="translate(59.485 24.034) rotate(-76.72)" fill="#fff"/>
        <circle id="Elipse_5092" data-name="Elipse 5092" cx="2.116" cy="2.116" r="2.116" transform="translate(68.384 24.222) rotate(-80.78)" fill="#fff"/>
        <path id="Trazado_150145" data-name="Trazado 150145" d="M288.314,126.03h-48.7a2.125,2.125,0,0,1,0-4.241H288.3a2.125,2.125,0,1,1,0,4.241Z" transform="translate(-215.501 -121.785)" fill="#fff"/>
        <path id="Trazado_150146" data-name="Trazado 150146" d="M283.992,138.24H213.171a2.125,2.125,0,0,1,0-4.241h70.821a2.125,2.125,0,1,1,0,4.241Z" transform="translate(-211.179 -123.781)" fill="#fff"/>
        <path id="Trazado_150147" data-name="Trazado 150147" d="M256.094,150.36H213.171a2.125,2.125,0,0,1,0-4.241h42.923a2.125,2.125,0,1,1,0,4.241Z" transform="translate(-211.179 -125.762)" fill="#fff"/>
      </g>
      <g id="Grupo_89495" data-name="Grupo 89495" transform="translate(116.078 146.216)">
        <path id="Trazado_150154" data-name="Trazado 150154" d="M231,396.316c12.5,1.146,19.19,1.405,24.9-2.6L244.861,382.58Z" transform="translate(-162.153 -290.672)" fill="none"/>
        <path id="Trazado_150155" data-name="Trazado 150155" d="M225.888,363.62,210.83,378.8l13.987,14.112,1.932.184,14.171-14.3Z" transform="translate(-158.856 -287.573)" fill="none"/>
        <path id="Trazado_150156" data-name="Trazado 150156" d="M240.94,302.633,225.9,287.45,210.85,302.633,225.9,317.816Z" transform="translate(-158.859 -275.122)" fill="none"/>
        <rect id="Rectángulo_34688" data-name="Rectángulo 34688" width="21.374" height="21.374" transform="matrix(0.704, -0.71, 0.71, 0.704, 36.06, 43.584)" fill="none"/>
        <path id="Trazado_150157" data-name="Trazado 150157" d="M171.493,344.77l-2.853,2.878c4.091,6.09,9.2,12.331,10.038,20.269l8.031-8.106Z" transform="translate(-151.959 -284.492)" fill="none"/>
        <path id="Trazado_150158" data-name="Trazado 150158" d="M188.724,363.35l-8.483,8.365a23.833,23.833,0,0,1-2.192,11.118l8.081,8c1.523.1,3.187.151,5.019.2l12.791-12.64Z" transform="translate(-153.498 -287.529)" fill="none"/>
        <path id="Trazado_150159" data-name="Trazado 150159" d="M196.22,394.248c3.622.084,7.654.176,11.9.5,5.019.376,9.386.786,13.276,1.154L207.856,382.52Z" transform="translate(-156.468 -290.662)" fill="none"/>
        <path id="Trazado_150160" data-name="Trazado 150160" d="M152.063,325.62,151,326.674a3.4,3.4,0,0,1-.092.56,67.759,67.759,0,0,1-2.208,8.884,32.165,32.165,0,0,0,14.581,5.078c.4.7.837,1.405,1.3,2.116l2.669-2.652Z" transform="translate(-148.7 -281.361)" fill="none"/>
        <rect id="Rectángulo_34689" data-name="Rectángulo 34689" width="21.374" height="21.374" transform="matrix(0.71, -0.704, 0.704, 0.71, 35.982, 75.085)" fill="none"/>
        <path id="Trazado_150161" data-name="Trazado 150161" d="M225.923,325.62,210.74,340.661,225.923,355.7l15.183-15.041Z" transform="translate(-158.841 -281.361)" fill="none"/>
        <path id="Trazado_150162" data-name="Trazado 150162" d="M203.026,302.931,187.843,287.89,172.66,302.931l15.183,15.041Z" transform="translate(-152.617 -275.194)" fill="none"/>
        <path id="Trazado_150163" data-name="Trazado 150163" d="M255.2,373.842V373.8l-6.358,6.3,11.285,11.185.117-.1C264.09,387.912,259.682,383.822,255.2,373.842Z" transform="translate(-165.069 -289.237)" fill="none"/>
        <path id="Trazado_150164" data-name="Trazado 150164" d="M188.161,325.53,173.12,340.713,188.161,355.9l15.049-15.183Z" transform="translate(-152.692 -281.347)" fill="none"/>
        <rect id="Rectángulo_34690" data-name="Rectángulo 34690" width="21.374" height="21.374" transform="matrix(0.71, -0.704, 0.704, 0.71, 4.424, 43.23)" fill="none"/>
        <path id="Trazado_150165" data-name="Trazado 150165" d="M250,339.542c.1.552.2,1.1.293,1.673,7.077,3.254,14.7,3.9,20.194.987l.586-.335q0-2.769.042-5.814v-3.162l-7.236-7.311Z" transform="translate(-165.259 -281.355)" fill="none"/>
        <path id="Trazado_150166" data-name="Trazado 150166" d="M273.976,329.568c0-4.66-.084-8.792-.293-12.448l-6.073,6.132Z" transform="translate(-168.137 -279.972)" fill="none"/>
        <path id="Trazado_150167" data-name="Trazado 150167" d="M244.7,300.658l13.226-13.385c-2.426-1.146-5.68-1.673-9.938-2.786a83.044,83.044,0,0,1-12.757-4.668l-5.714,5.755Z" transform="translate(-161.911 -273.875)" fill="none"/>
        <path id="Trazado_150168" data-name="Trazado 150168" d="M264.033,318.269l6.558-6.492a62.115,62.115,0,0,0-1.364-10.256c.259-3.714-2.844-7.989-5.5-10.766a8.13,8.13,0,0,0-1.23-1.046L248.85,303.228Z" transform="translate(-165.071 -275.491)" fill="none"/>
        <path id="Trazado_150169" data-name="Trazado 150169" d="M245.033,306.74,229.85,321.8l15.058,15.183.2-.192a8.989,8.989,0,0,1,.109-1.146c.226-1.414.452-2.786.678-4.107l.653,3.815,13.544-13.385Z" transform="translate(-161.965 -278.275)" fill="none"/>
        <path id="Trazado_150170" data-name="Trazado 150170" d="M151.752,324.67a4.708,4.708,0,0,1-.092.678l.385-.385Z" transform="translate(-149.184 -281.206)" fill="none"/>
        <path id="Trazado_150171" data-name="Trazado 150171" d="M229.88,359.6l15.183,15.058,6.567-6.625c-3.346-7.219-7.044-13.92-6.692-23.557h0Z" transform="translate(-161.97 -284.444)" fill="none"/>
        <path id="Trazado_150172" data-name="Trazado 150172" d="M184.084,394.749l-6.734-6.809C175.276,392.683,178.212,394.181,184.084,394.749Z" transform="translate(-153.275 -291.548)" fill="none"/>
        <path id="Trazado_150173" data-name="Trazado 150173" d="M168.2,303.387,156.974,292.06a28.719,28.719,0,0,0-3.012,8.365c-1.757,8.784-1.447,11.979-1.932,17.007l1.121,1.138Z" transform="translate(-149.244 -275.876)" fill="none"/>
        <path id="Trazado_150174" data-name="Trazado 150174" d="M184.68,285.448l-7.713-7.638a22.586,22.586,0,0,0-18.747,11.511l11.41,11.31Z" transform="translate(-150.256 -273.546)" fill="none"/>
        <path id="Trazado_150175" data-name="Trazado 150175" d="M232.286,278.436c-4.852-2.167-9.06-4.183-12.088-4.852a38.714,38.714,0,0,0-4.668-.694l11.176,11.067Z" transform="translate(-159.624 -272.742)" fill="none"/>
        <path id="Trazado_150176" data-name="Trazado 150176" d="M207.111,299.547l15.183-15.058-11.611-11.712a36.182,36.182,0,0,0-7.228.293L192.07,284.355Z" transform="translate(-155.789 -272.713)" fill="none"/>
        <path id="Trazado_150177" data-name="Trazado 150177" d="M199.829,273.58c-5.73,1.071-10.733,3.012-16.639,3.43l6.617,6.692Z" transform="translate(-154.338 -272.855)" fill="none"/>
        <path id="Trazado_150178" data-name="Trazado 150178" d="M177.6,387.483c-.042.084-.084.167-.117.251l6.734,6.809c.586.05,1.188.1,1.824.134l-8.081-8C177.84,386.948,177.723,387.215,177.6,387.483Z" transform="translate(-153.404 -291.342)" fill="#efba8f"/>
        <path id="Trazado_150179" data-name="Trazado 150179" d="M239.257,357.292l-.452-.987-6.592,6.625L217.03,347.873l15.058-15.183h0c0-.5.042-1,.092-1.523l-.2.192-15.058-15.183L232.1,301.118,247.162,316.3l-13.544,13.385q.1.577.2,1.129l13.878-14,7.236,7.311v-1.8l-6.366-6.316,6.073-6.132-.05-.887-6.483,6.517-15.183-15.058,13.644-13.518a10.939,10.939,0,0,0-1.38-.778l-13.226,13.385L216.779,284.48l5.714-5.755-.661-.293-5.58,5.521-11.176-11.067-1.012-.075,11.611,11.712-15.183,15.058L185.434,284.4l11.385-11.285c-.736.1-1.464.226-2.175.36l-10.038,10.114-6.617-6.692c-.427,0-.837.05-1.3.067l-.837.042,7.713,7.638L168.5,299.822l-11.41-11.31c-.084.134-.159.268-.234.41l11.226,11.327-15.058,15.183-1.121-1.146c-.059.611-.134,1.238-.217,1.907l.293.293-.385.385c-.05.376-.109.77-.176,1.171l1.062-1.054,15.183,15.058L165,334.7q.393.6.837,1.2l2.853-2.878,15.183,15.058-8.031,8.106c0,.259.05.527.059.795l8.483-8.365,15.183,15.058-12.791,12.674,2.133.05,11.636-11.712,13.535,13.385,1.054.1L201.144,364.06,216.2,348.877l15.058,15.183-14.171,14.3.9.017,13.861-13.736L242.9,375.771c.427-.3.837-.619,1.272-.97l-11.285-11.185Zm-23.08-72.235,15.058,15.183-15.058,15.183L201.119,300.24Zm-.753,31.136-15.058,15.183-15.183-15.058,15.058-15.183Zm-31.052-30.768,15.183,15.058L184.371,315.54l-15.183-15.058Zm-15.735,45.7-15.058-15.183,15.183-15.058,15.058,15.183Zm.962.97,15.058-15.183L199.713,332.1l-15.058,15.183Zm30.576,30.885L185.116,347.8,200.3,332.74l15.058,15.183Zm.837-30.952,15.183-15.058,15.183,15.058-15.183,15.058Z" transform="translate(-149.145 -272.729)" fill="#efba8f"/>
      </g>
      <path id="Trazado_150180" data-name="Trazado 150180" d="M259.1,314.823c-1.313,8.633-2.259,8.75-3.513,18.563-.837,6.734-.243,11.076,1.255,15.56.987,2.97,1.288,6.215,5.019,8.282a8.273,8.273,0,0,0,7.771.753c.569-.226,6.023-4.266,7.78-15.811.962-6.291.569-22.587-2.761-36.381-4.183-17.208-3.472-14.43-5.019-19.575-1.5-5.019-2-13.795-7.529-15.058-1.857-.427-3.79,1.054-4.768,2.51-1.288,1.907.159,4.091.753,7.529C260.479,295.122,260.454,305.9,259.1,314.823Z" transform="translate(-50.031 -126.23)" fill="#7f4730"/>
      <g id="Grupo_89496" data-name="Grupo 89496" transform="translate(141.877 109.581)">
        <path id="Trazado_150181" data-name="Trazado 150181" d="M191.1,241.535c0,3.605-1.581,10.775-2.928,11.8a5.354,5.354,0,0,1-4.45.569c-2.376-.912-4.183-5.538-4.183-12.372s1.673-11.862,4.183-12.372c.234-.05,3.505-.878,4.818.837C190.683,232.918,191.1,237.536,191.1,241.535Z" transform="translate(-179.54 -228.919)" fill="#fff"/>
        <ellipse id="Elipse_5093" data-name="Elipse 5093" cx="4.149" cy="12.372" rx="4.149" ry="12.372" transform="translate(3.338 0.269)" fill="#686bea"/>
      </g>
      <path id="Trazado_150182" data-name="Trazado 150182" d="M200.417,258.907c-.694,2.326,1.874,16.9,2.367,18.111,1.623,3.94,6.609,7.144,11.5,7,6.793-.2,9.486-5.245,9.3-10.172a184.566,184.566,0,0,1,.594-25.824C224.476,244.485,201.722,254.407,200.417,258.907Z" transform="translate(-41.056 -122.339)" fill="#7f4730"/>
      <path id="Trazado_150183" data-name="Trazado 150183" d="M209.4,252.023c2.51-.92,2.577-2.192,5.906-.954,2.351.878,4.183,3.154,5.454,6.082a27.865,27.865,0,0,1-5.63,11.2c-1.673,1.983-4.275,5.019-8.692,5.571a12.939,12.939,0,0,1-4.283-.259c-1.046-4.492-2.6-12.49-2.091-14.221C201.407,254.943,207,252.9,209.4,252.023Z" transform="translate(-41.001 -122.875)" fill="#512618"/>
      <path id="Trazado_150184" data-name="Trazado 150184" d="M227.1,222.413a21.466,21.466,0,0,0-3.94-12.28c-5.17-7.713-10.724-9.721-12.791-10.2-7.169-1.673-13.3-1.539-19,2.777-10.407,7.88-8.759,25.23-8,30.592.736,5.17,4,20.721,12.632,27.346a9.328,9.328,0,0,0,6.45,2.317c4.342-.142,8.365-3.346,9.813-4.869,5.019-5.387,6.215-9.344,8.073-19.24C222.234,228.788,226.977,228.52,227.1,222.413Z" transform="translate(-38.195 -114.438)" fill="#7f4730"/>
      <path id="Trazado_150185" data-name="Trazado 150185" d="M207.978,264.3a.293.293,0,0,0-.234-.435,37.223,37.223,0,0,0-5.789.109,22.778,22.778,0,0,0-4.116.837.293.293,0,0,0-.167.427,5.253,5.253,0,0,0,5.228,2.7C205.686,267.632,207.359,265.264,207.978,264.3Z" transform="translate(-40.62 -125.04)" fill="#512618"/>
      <path id="Trazado_150186" data-name="Trazado 150186" d="M191.8,237.028a4.585,4.585,0,0,0-1.138-1.673,6.552,6.552,0,0,0-1.606-1.171,7.018,7.018,0,0,0-3.948-.5,9.677,9.677,0,0,0-.987.142l-.485.1-.51.159a5.855,5.855,0,0,0-1.732,1.054c-.979.837,1.673.477,2.142.41l.368-.042h.41a6.529,6.529,0,0,1,.837,0,6.688,6.688,0,0,1,.837.126c.259.075.519.134.77.234.5.159,1,.326,1.523.443l1.623.418c.56.151,1.146.3,1.807.435Z" transform="translate(-37.931 -120.102)" fill="#1e1735"/>
      <path id="Trazado_150187" data-name="Trazado 150187" d="M218.276,233.137a12,12,0,0,0-3.656-1.79,10.775,10.775,0,0,0-4.183-.36c-.36,0-.719.109-1.088.142l-1.088.243a5.5,5.5,0,0,0-1.966,1.012,5.939,5.939,0,0,0-2.217,3.723l.217.151c1.338-.611,2.376-1.2,3.438-1.673a14.859,14.859,0,0,0,1.506-.837c.251-.134.5-.284.77-.41a5.731,5.731,0,0,1,.837-.318,9.462,9.462,0,0,1,1.757-.343,10.431,10.431,0,0,1,1.849-.059,13.451,13.451,0,0,1,3.756.728Z" transform="translate(-41.674 -119.665)" fill="#1e1735"/>
      <path id="Trazado_150188" data-name="Trazado 150188" d="M213.964,241.379c0,.36-.979,1.405-3.773,1.238-1.238-.067-2.468-.5-2.451-1.23a2.51,2.51,0,0,1,1.932-2.083C211.546,239.045,213.981,240.651,213.964,241.379Z" transform="translate(-42.272 -121.031)" fill="#efba8f"/>
      <path id="Trazado_150189" data-name="Trazado 150189" d="M212.034,240.353a1.787,1.787,0,0,0-3.346,1.255A1.814,1.814,0,1,0,212.034,240.353Z" transform="translate(-42.409 -121.018)" fill="#1e1735"/>
      <path id="Trazado_150190" data-name="Trazado 150190" d="M206.87,241.751a3.99,3.99,0,0,1,1.088-.837,2.768,2.768,0,0,1,1.1-.259,11.38,11.38,0,0,1,2.443.276,20,20,0,0,0,2.786.376,5.5,5.5,0,0,0,1.548-.125,2.333,2.333,0,0,0,.753-.335,1.238,1.238,0,0,0,.494-.627,1.4,1.4,0,0,1-.661.134,3.088,3.088,0,0,1-.619-.1,12.645,12.645,0,0,1-1.246-.4,18.407,18.407,0,0,0-2.719-.77,6.082,6.082,0,0,0-3.129.134,3.061,3.061,0,0,0-1.372,1.012A2.51,2.51,0,0,0,206.87,241.751Z" transform="translate(-42.13 -120.976)" fill="#1e1735"/>
      <path id="Trazado_150191" data-name="Trazado 150191" d="M191.151,243.105c0,.335-.97,1.255-3.639,1.012-1.188-.109-1.732-.728-1.673-1.4s.251-1.573,1.28-1.673C188.9,240.88,191.193,242.436,191.151,243.105Z" transform="translate(-38.692 -121.319)" fill="#efba8f"/>
      <path id="Trazado_150192" data-name="Trazado 150192" d="M189.388,242.319a1.623,1.623,0,0,0-3.078,1.012C186.786,245.606,190.3,245.029,189.388,242.319Z" transform="translate(-38.76 -121.36)" fill="#1e1735"/>
      <path id="Trazado_150193" data-name="Trazado 150193" d="M184.92,242.849c.393-.192.728-.393,1.062-.519a2.81,2.81,0,0,1,.92-.2,4.718,4.718,0,0,1,1.765.385,13.7,13.7,0,0,0,2.208.719,3.539,3.539,0,0,0,1.364,0,1.6,1.6,0,0,0,1.1-.778,1.866,1.866,0,0,1-1.079-.117,6.7,6.7,0,0,1-.9-.468,11.635,11.635,0,0,0-2.066-1.079,4.7,4.7,0,0,0-1.322-.293,3.178,3.178,0,0,0-1.464.234,2.643,2.643,0,0,0-1.1.9A2.869,2.869,0,0,0,184.92,242.849Z" transform="translate(-38.542 -121.229)" fill="#1e1735"/>
      <path id="Trazado_150194" data-name="Trazado 150194" d="M223.088,244.69c0,11.176-6.692,21.215-14.7,21.215a11.2,11.2,0,0,1-1.589-.117.184.184,0,0,0,0-.067c0-1.113-1.464-2.016-3.271-2.016s-3.279.9-3.279,2.016,1.472,2.016,3.279,2.016a4.007,4.007,0,0,0,2.769-.945,11.711,11.711,0,0,0,2.886.3c9.16,0,16.915-9.445,16.915-21.934Z" transform="translate(-41.048 -121.916)" fill="#686bea"/>
      <path id="Trazado_150195" data-name="Trazado 150195" d="M167.585,339.986c-.51-1.882-1.1-3.723-1.573-5.555a26.845,26.845,0,0,1-.9-5.479,18.563,18.563,0,0,1,.494-5.362,41.293,41.293,0,0,1,1.849-5.262,19.809,19.809,0,0,0,1.5-5.856,18.775,18.775,0,0,0-.05-3.07,20.5,20.5,0,0,0-.527-2.961,24.4,24.4,0,0,0-2.15-5.521,25.347,25.347,0,0,0-1.523-2.51,22.585,22.585,0,0,0-1.79-2.3c.477.837.912,1.673,1.322,2.568.2.435.393.837.577,1.313s.36.887.519,1.33a28.559,28.559,0,0,1,1.43,5.446,21.971,21.971,0,0,1,.243,2.761v1.364a8.854,8.854,0,0,1-.142,1.338,15.9,15.9,0,0,1-.653,2.61c-.284.837-.636,1.673-1,2.593s-.753,1.773-1.1,2.71a21.756,21.756,0,0,0-.887,2.911,17.35,17.35,0,0,0-.243,6.124,20.311,20.311,0,0,0,1.732,5.755,34.561,34.561,0,0,0,2.886,5.053Z" transform="translate(-34.927 -130.321)" fill="#1e1735"/>
      <path id="Trazado_150196" data-name="Trazado 150196" d="M257.432,304.29a11.092,11.092,0,0,0-3.346,3.112,19.241,19.241,0,0,0-2.183,4.066,43.165,43.165,0,0,0-2.292,8.817c-.485,2.978-.795,5.956-1.029,8.943s-.393,5.973-.4,8.984a88.677,88.677,0,0,0,1.966-8.784c.527-2.945.97-5.856,1.447-8.817a75.437,75.437,0,0,1,1.8-8.625,24.14,24.14,0,0,1,1.539-4.074,16.526,16.526,0,0,1,1.1-1.891,9.723,9.723,0,0,1,.669-.878C256.913,304.834,257.181,304.583,257.432,304.29Z" transform="translate(-48.883 -131.658)" fill="#1e1735"/>
      <rect id="Rectángulo_34691" data-name="Rectángulo 34691" width="309.754" height="10.264" rx="5.132" transform="translate(309.754 253.333) rotate(180)" fill="#080120"/>
      <path id="Trazado_150197" data-name="Trazado 150197" d="M207.67,388H118.21V383.82h87.46c.611,0,2.744,2.827,2.744,2.827a.837.837,0,0,1-.719,1.389Z" transform="translate(-27.638 -144.658)" fill="#0f0140"/>
      <g id="Grupo_89497" data-name="Grupo 89497" transform="translate(23.462 172.674)">
        <path id="Trazado_150198" data-name="Trazado 150198" d="M135.5,375.011H62.142a6.9,6.9,0,0,1-6.65-5.019L38.167,308.422a3.212,3.212,0,0,1,3.087-4.082h74.193a6.977,6.977,0,0,1,6.692,5.086l17.09,60.666a3.873,3.873,0,0,1-3.731,4.919Z" transform="translate(-37.996 -304.34)" fill="#ed1c24"/>
        <path id="Trazado_150199" data-name="Trazado 150199" d="M135.471,375.326H61.856a6.835,6.835,0,0,1-6.575-5.019L38.073,309.148a2.259,2.259,0,0,1,2.183-2.878h73.615a6.834,6.834,0,0,1,6.584,5.019l17.216,61.2a2.275,2.275,0,0,1-2.2,2.836Z" transform="translate(-37.987 -304.655)" fill="#0f0140"/>
      </g>
      <g id="Grupo_89498" data-name="Grupo 89498" transform="translate(242.914 189.382)">
        <path id="Trazado_150200" data-name="Trazado 150200" d="M329.44,363.1a5.362,5.362,0,0,0-3.915-2.761,6.509,6.509,0,0,0-2.978.117v-3.129a.293.293,0,0,0-.293-.284H300.621a.293.293,0,0,0-.293.284c-.167,11.051,2.15,22.168,4.116,25.983a.569.569,0,0,0,.51.309h12.991a.586.586,0,0,0,.51-.31,26.417,26.417,0,0,0,1.74-5.019,17.072,17.072,0,0,0,9.394-8.7,7.88,7.88,0,0,0-.151-6.492Zm-1.782,5.622a15.058,15.058,0,0,1-6.86,6.968,84.571,84.571,0,0,0,1.673-12.966,4.133,4.133,0,0,1,2.694-.335,3.279,3.279,0,0,1,2.426,1.673,5.78,5.78,0,0,1,.067,4.66Z" transform="translate(-300.32 -329.663)" fill="#ed1c24"/>
        <path id="Trazado_150201" data-name="Trazado 150201" d="M309.607,335.9c1.288-3.965,5.019-4.835,4.726-8.3-.142-1.615-1.23-3.028-.9-3.254s1.4.837,1.949,1.464a12.657,12.657,0,0,1,2.284,12.046c-1.405,3.848-3.664,3.413-4.643,8.056-.477,2.25.159,4.35-.084,4.392S307.006,343.869,309.607,335.9Z" transform="translate(-301.727 -324.313)" fill="#fff"/>
      </g>
      <path id="Trazado_150202" data-name="Trazado 150202" d="M177.995,209.991c-.218-.678-.276-1.414-.443-2.158-.837-3.932,1.28-7.244,4.626-7.529a6.609,6.609,0,0,1,5.2,1.882c1.121-.661,2.627-1.916,4.183-2.058,1.723-.159,3.915-4.944,9.821-5.019,9.578-.159,9.419,5.153,11.093,5.019,3.882-.36,7.253,1.364,7.763,3.9a8.4,8.4,0,0,1,4.057,6.784,9.528,9.528,0,0,1-.837,5.019,3.112,3.112,0,0,1,2.61,2.685,3.237,3.237,0,0,1-3.078,3.346,4.039,4.039,0,0,1-.711,0,8.565,8.565,0,0,1-.636,2.075c-1.531,3.346-4.86,5.069-7.437,3.882-2.066-.945-3.02-3.48-2.51-6.157a6.868,6.868,0,0,1-4.367.678,7.529,7.529,0,0,1-5.437-4.693,2.183,2.183,0,0,1-1.765.527,2.267,2.267,0,0,1-1.631-1.33,7.353,7.353,0,0,1-9.612-1.1v.259a7.295,7.295,0,1,1-14.506,1.355,7.638,7.638,0,0,1,3.614-7.37Z" transform="translate(-36.812 -113.811)" fill="#0f0140"/>
      <path id="Trazado_150203" data-name="Trazado 150203" d="M203.94,205.81a7.371,7.371,0,0,1,.477-1.573c1.28-3,4.183-4.651,6.492-3.672a4.124,4.124,0,0,1,2.292,2.953,7.529,7.529,0,0,1,3.145.627,7.378,7.378,0,0,1,2.8,2.024c1.481-1.924,3.706-2.819,5.546-2.033,2.192.937,9.637,10.875,9.068,12.7a6.257,6.257,0,0,1,.259,5.856,7.1,7.1,0,0,1-2.317,2.978,2.309,2.309,0,0,1,.761,2.685,2.418,2.418,0,0,1-3.212,1.113,4.185,4.185,0,0,1-.468-.251,6.115,6.115,0,0,1-1.146,1.129c-2.183,1.673-5.019,1.6-6.249-.092-1.021-1.347-.745-3.346.519-4.936a5.019,5.019,0,0,1-3.1-1.1,5.571,5.571,0,0,1-1.9-5.019,1.615,1.615,0,0,1-1.347-.276,1.673,1.673,0,0,1-.594-1.447,5.479,5.479,0,0,1-5.906-4.124l-.067.176a5.429,5.429,0,1,1-9.988-4.25A5.7,5.7,0,0,1,203.94,205.81Z" transform="translate(-40.765 -114.657)" fill="#0f0140"/>
      <path id="Trazado_150204" data-name="Trazado 150204" d="M191,199.764l.1-.092c.477-.418,3.112-2.643,9.2-2.7,15.108-.142,26.318,12.816,26.318,29.756l-3.229.652c0-15.166-11.469-29.112-24.377-29.279-4.735-.059-7.027,1.012-7.981,1.673Z" transform="translate(-39.536 -114.115)" fill="#686bea"/>
      <g id="Grupo_89499" data-name="Grupo 89499" transform="translate(179.956 109.581)">
        <path id="Trazado_150205" data-name="Trazado 150205" d="M236.621,241.535c0,3.605-1.581,10.775-2.928,11.8a5.349,5.349,0,0,1-4.45.569c-2.367-.912-4.183-5.538-4.183-12.372s1.673-11.862,4.183-12.372c.234-.05,3.505-.878,4.818.837C236.2,232.918,236.621,237.536,236.621,241.535Z" transform="translate(-225.06 -228.919)" fill="#fff"/>
        <ellipse id="Elipse_5094" data-name="Elipse 5094" cx="4.149" cy="12.372" rx="4.149" ry="12.372" transform="translate(3.338 0.269)" fill="#efba8f"/>
        <ellipse id="Elipse_5095" data-name="Elipse 5095" cx="3.522" cy="10.775" rx="3.522" ry="10.775" transform="translate(4.216 1.867)" fill="#686bea"/>
      </g>
      <path id="Trazado_150206" data-name="Trazado 150206" d="M253.093,254.328c-.686-2.585-2.175-4.509-2.8-7.119a1.982,1.982,0,0,0-.678-1.213c-1.288-.979-3.99-1.272-6.96-2.794-.318-.167-2.234-1.422-2.744-1.121a1.581,1.581,0,0,0-.761,1.481,3.07,3.07,0,0,0,1.564,2.56c2.56,1.606,5.546,2.342,5.923,2.7.586.56.142,2.51.151,3.3.067,6.215,3.43,7.3,3.137,10.038a2.1,2.1,0,0,1-.954,1.673c-.878.385-1.623.117-4.4-1.046-.477-.2-6.333-2.618-7.529-.912-.418.611.075,1.673.711,2.041a41.828,41.828,0,0,0,4.233,2.091c2.635,1.113,3.187,1.305,4.241,2.091a6.349,6.349,0,0,1,1.941,1.773,11.879,11.879,0,0,0,4.911,3.3c1.907.761,4.693.661,5.99-.477s.519-2.51-.468-5.78C256.514,259.933,254.549,259.941,253.093,254.328Z" transform="translate(-47.036 -121.482)" fill="#512618"/>
      <path id="Trazado_150207" data-name="Trazado 150207" d="M239.609,258.4a4.669,4.669,0,0,0-1.506,0,6.032,6.032,0,0,0-1.924.837,26.023,26.023,0,0,0-2.359,1.28c-1.037.837-.837,1.288-1.932,2.142a3,3,0,0,1-3.43.217c-.535-.335-.243-1.129-.209-1.288.1-.468.343-.611,1.28-1.715.7-.837.945-1.171.837-1.28s-1.288.209-1.288-.837c0-.5.343-.92.837-1.5,1.79-2.008,1.958-2.568,3.212-3.43a5.38,5.38,0,0,1,1.932-.837c3.212-.837,4.969-2.125,6.425-1.673s10.708,3.279,11.36,3.647a4.183,4.183,0,0,1,1.673,2.142,133.085,133.085,0,0,0,6.132,11.971c.376.636,1.288,6-2.142,7.069a6.341,6.341,0,0,1-5.145-.837c-1.062-.736-1.564-1.631-2.568-3.43-1.773-3.162-1.79-4.885-3.212-5.571a15.224,15.224,0,0,0-2.359-.837,6.7,6.7,0,0,0-.837-.209,12.549,12.549,0,0,0-4.5.644,43.675,43.675,0,0,1-4.927,3.212c-.443.243-2.359,1.288-3.212.427a1.221,1.221,0,0,1-.217-1.071c.184-.761,1-1.1,1.673-1.5,2.033-1.154,1.673-2.024,4.074-3.647a11.536,11.536,0,0,1,2.359-1.28c3.212-1.288,5.354-.217,5.571-1.079C245.339,259.281,242.988,258.888,239.609,258.4Z" transform="translate(-45.607 -122.821)" fill="#7f4730"/>
      <path id="Trazado_150208" data-name="Trazado 150208" d="M247.8,255.98c-1.456-.544-2.928-1.021-4.409-1.464-.736-.226-1.489-.427-2.234-.627-.385-.1-.753-.192-1.171-.259a3.824,3.824,0,0,0-1.272,0,2.634,2.634,0,0,0-.627.209l-.544.259-1.029.56c-.669.385-1.338.77-2,1.171l-1,.611a4.183,4.183,0,0,0-.929.837c-.519.594-.962,1.213-1.514,1.757a15.257,15.257,0,0,0,1.773-1.5,3.656,3.656,0,0,1,.9-.619c.351-.159.7-.343,1.046-.51.694-.343,1.372-.711,2.058-1.062.343-.176.678-.36,1.021-.527l.51-.243a1.591,1.591,0,0,1,.468-.142,3.027,3.027,0,0,1,1.029,0c.343.042.728.142,1.1.217l2.259.51C244.757,255.42,246.272,255.738,247.8,255.98Z" transform="translate(-46.088 -123.369)" fill="#512618"/>
    </g>
  </g>
</svg>
