<svg id="cf5_guion_copia_3" data-name="cf5_guion copia 3" xmlns="http://www.w3.org/2000/svg" width="110" height="110" viewBox="0 0 110 110">
  <rect id="Rect치ngulo_34928" data-name="Rect치ngulo 34928" width="110" height="110" fill="none"/>
  <rect id="Rect치ngulo_34929" data-name="Rect치ngulo 34929" width="110" height="110" fill="none"/>
  <circle id="Elipse_5233" data-name="Elipse 5233" cx="50" cy="50" r="50" transform="translate(5 5)" fill="#6558b8"/>
  <g id="Grupo_90578" data-name="Grupo 90578">
    <path id="Trazado_153065" data-name="Trazado 153065" d="M96,84.26a46.67,46.67,0,0,1-9.42,9.87A49.36,49.36,0,0,1,65,104c-1.83.35-3.7.51-5.56.77a5.309,5.309,0,0,0-.65.19h-7.4l-3.78-.6A49.14,49.14,0,0,1,23.87,93.94c.62-2,1.26-4,1.86-6,.71-2.42,1.8-4.58,4.16-5.78,2.85-1.45,5.75-2.81,8.63-4.21,1.22-.6,2.42-1.22,3.63-1.83h.41a37.549,37.549,0,0,0,2.65,2.7c.92.77,1.77,1.95,3.29,1.21L50,84.68l.16,9.64v2.26a1,1,0,0,0,1.09,1.06h4.2c.78,0,1.12-.4,1.11-1.15s0-1.44,0-2.15V86.77A14.4,14.4,0,0,1,58.18,80a1.94,1.94,0,0,0,2.2-.28c2.19-2.23,4.51-4.36,6.51-6.76a22.56,22.56,0,0,0,4.67-9.43c4.8,1.87,9.6,3.73,14.39,5.62a14.43,14.43,0,0,1,7.66,7.32A29.57,29.57,0,0,1,96,84.26Z" fill="#e679b4"/>
    <path id="Trazado_153066" data-name="Trazado 153066" d="M11.9,80.08a18,18,0,0,1,5.21-8.64,21.47,21.47,0,0,1,6.39-3.39c3.85-1.57,7.74-3,11.62-4.53a25.26,25.26,0,0,0,4.7,9.53c.76,1,1.55,2,2.33,3-1.21.61-2.41,1.23-3.63,1.83-2.88,1.4-5.78,2.76-8.63,4.21-2.36,1.2-3.45,3.36-4.16,5.78-.6,2-1.24,4-1.86,6A46.64,46.64,0,0,1,13.4,82.61C12.85,81.8,12.4,80.93,11.9,80.08Z" fill="#e15ca4"/>
    <path id="Trazado_153067" data-name="Trazado 153067" d="M98.11,28.41c-.44.46-.89.91-1.34,1.37-4.61-.35-8.62-1.79-11.11-6,2.24-2.25,4.47-4.5,6.72-6.75a3.23,3.23,0,0,0,1.2-2.59,2.57,2.57,0,0,0-1.8-2.28,2.47,2.47,0,0,0-2.72.66c-1.89,1.83-3.75,3.68-5.63,5.52a13.69,13.69,0,0,0-1.88-2.12,10.17,10.17,0,0,1-3.49-4.92,18,18,0,0,1-.19-10c9.69-4,21.1,2.09,23.41,12.56a17.18,17.18,0,0,1-2.75,13.91A4.73,4.73,0,0,0,98.11,28.41Z" fill="#6eda9a"/>
    <path id="Trazado_153068" data-name="Trazado 153068" d="M85.66,23.75c2.49,4.24,6.5,5.68,11.11,6a16.38,16.38,0,0,1-9.21,5.11A17.82,17.82,0,0,1,74.79,32.6L70.9,29.38c-.3-.41-.62-.81-.91-1.22a16.83,16.83,0,0,1-3.42-11.95c.08-.77.13-1.55.19-2.32.78-1.83,1.57-3.66,2.32-5.5a8.32,8.32,0,0,0,.32-1.33,11.941,11.941,0,0,0,1.5-1.12,16.86,16.86,0,0,1,7-4.7,18,18,0,0,0,.19,10,10.17,10.17,0,0,0,3.49,4.92,13.69,13.69,0,0,1,1.88,2.12c-.24.36-.49.71-.88,1.27-.75-.83-1.23-1.4-1.74-1.94A21.911,21.911,0,0,0,79.13,16a2.62,2.62,0,0,0-3.62,0,2.41,2.41,0,0,0-.28,3.49c1.82,2,3.74,3.88,5.71,5.71a2.35,2.35,0,0,0,3.2,0C84.68,24.7,85.16,24.21,85.66,23.75Z" fill="#71c894"/>
    <path id="Trazado_153069" data-name="Trazado 153069" d="M69.4,7.06a8.319,8.319,0,0,1-.32,1.33c-.75,1.84-1.54,3.67-2.32,5.5a6.39,6.39,0,0,0-4.49-1.73,19.35,19.35,0,0,0-5.16.55,11,11,0,0,1-7.31,0c0-.05,0-.09,0-.14a2.89,2.89,0,0,0,0-.66c-.36-1.3-.78-2.59-1.09-3.9A5.69,5.69,0,0,1,51,2.25c.54-.37,1.1-.73,1.66-1.09,5.69,0,10.93,1.41,15.43,5.05a13.2,13.2,0,0,0,1.31.85Z" fill="#0253a8"/>
    <path id="Trazado_153070" data-name="Trazado 153070" d="M52.63,1.16c-.56.36-1.12.72-1.66,1.09A5.69,5.69,0,0,0,48.62,8c.31,1.31.73,2.6,1.09,3.9a2.89,2.89,0,0,1,0,.66,33.82,33.82,0,0,0-3.71-.5c-4.49-.16-7,1.36-7.91,5.49a32.67,32.67,0,0,0-.33,4.66,9.84,9.84,0,0,1-.31,2.5c-.49,1.38-1.17,2.7-1.79,4.09l-1.32-.27c-.76-3.79-1.25-7.6-.43-11.44a6.42,6.42,0,0,1,3-4.64,1.5,1.5,0,0,0,.65-.85c.33-1.31.58-2.64.85-4h0l.17-.21C41,3.59,44.73,2.22,48.87,1.51c1-.18,2.1-.22,3.15-.32h.18Z" fill="#023470"/>
    <path id="Trazado_153071" data-name="Trazado 153071" d="M52.2,1.18H52a.12.12,0,0,1,.2,0Z" fill="#0253a8"/>
    <path id="Trazado_153072" data-name="Trazado 153072" d="M38.63,7.44l-.17.21Z" fill="#fbe353"/>
    <path id="Trazado_153073" data-name="Trazado 153073" d="M65.36,59.11a2.228,2.228,0,0,1,1,.14c1.57,1.08,3.11,2.21,4.63,3.37.27.2.38.6.56.91A22.56,22.56,0,0,1,66.89,73c-2,2.4-4.32,4.53-6.51,6.76a1.94,1.94,0,0,1-2.2.28c-1-1.45-2-2.87-3-4.37a6.74,6.74,0,0,1-.54-1.82,8.42,8.42,0,0,1,1.6-1.75,20.66,20.66,0,0,0,6.81-6.47,17.68,17.68,0,0,0,2.31-6.52Z" fill="#e15ca4"/>
    <path id="Trazado_153074" data-name="Trazado 153074" d="M54.67,73.81a6.74,6.74,0,0,0,.54,1.82c.93,1.5,2,2.92,3,4.37a14.4,14.4,0,0,0-1.64,6.77c0,2.52,0,5,0,7.57H50.18c0-3.21-.11-6.42-.16-9.64.05-.08.14-.15.16-.24.55-2,1-4,1.65-6a25.709,25.709,0,0,1,1.45-3.11Zm-1.3,17.45A1.25,1.25,0,0,0,54.65,90a1.22,1.22,0,0,0-1.38-1.18A1.2,1.2,0,0,0,52,90a1.24,1.24,0,0,0,1.37,1.26Zm1.53-7.63a1.17,1.17,0,0,0-1.25-1.17,1.11,1.11,0,0,0-1.22,1.2,1.16,1.16,0,0,0,1.28,1.25c.78-.04,1.13-.51,1.19-1.28Z" fill="#dc3f94"/>
    <path id="Trazado_153075" data-name="Trazado 153075" d="M42.15,76.09c-.78-1-1.57-2-2.33-3a25.26,25.26,0,0,1-4.7-9.53,4.28,4.28,0,0,1,.71-1c1.45-1.11,2.92-2.19,4.43-3.23a2.76,2.76,0,0,1,1.07-.18,1.72,1.72,0,0,1,.17.48,12.81,12.81,0,0,0,2.17,6c1.09,1.55,2.43,2.93,3.66,4.39-.59.13-1.32.09-1.73.43a9.3,9.3,0,0,0-3,5.72Z" fill="#dc3f94"/>
    <path id="Trazado_153076" data-name="Trazado 153076" d="M42.56,76.09a9.3,9.3,0,0,1,3-5.72c.41-.34,1.14-.3,1.73-.43l1.37.86a9.84,9.84,0,0,0,1,.78A4.32,4.32,0,0,1,52,73.77a6.42,6.42,0,0,1-.52,1.84c-.93,1.5-2,2.93-3,4.39-1.52.74-2.37-.44-3.29-1.21a37.547,37.547,0,0,1-2.63-2.7Z" fill="#e15ca4"/>
    <path id="Trazado_153077" data-name="Trazado 153077" d="M50.14,94.32h6.39v2.15a1,1,0,0,1-1.11,1.15h-4.2a1,1,0,0,1-1.09-1.06Z" fill="#c5237c"/>
    <path id="Trazado_153078" data-name="Trazado 153078" d="M48.5,80c1-1.46,2.06-2.89,3-4.39a6.42,6.42,0,0,0,.5-1.84l1.23,1.53a25.71,25.71,0,0,0-1.45,3.11c-.63,2-1.1,4-1.65,6,0,.09-.11.16-.16.24Q49.23,82.34,48.5,80Z" fill="#c6257d"/>
    <path id="Trazado_153079" data-name="Trazado 153079" d="M53.24,75.3,52,73.77a4.32,4.32,0,0,0-2.26-2.19,9.84,9.84,0,0,1-1-.78,30.42,30.42,0,0,0,4-11.2,13.62,13.62,0,0,1-7-2.65c-1.17-.92-2.23-2-3.35-3-.45-.67-.87-1.36-1.35-2a21.82,21.82,0,0,1-4.22-11.4,2.16,2.16,0,0,0-.2-.55c-.12-1.81-.25-3.63-.36-5.28l-3.52-.23a21.88,21.88,0,0,1-.81-3.43c-.13-1.66.75-2.47,2.46-2.54l1.32.27c.62-1.39,1.3-2.71,1.79-4.09a9.84,9.84,0,0,0,.31-2.5,32.669,32.669,0,0,1,.33-4.66c.93-4.13,3.42-5.65,7.91-5.49a33.821,33.821,0,0,1,3.73.53c0,.05,0,.09,0,.14l-.34.62a11.69,11.69,0,0,0-1.52,3c-.38,2.36-.43,4.78-.66,7.17a8.38,8.38,0,0,1-.45,2.17,13.2,13.2,0,0,0-.93,5.68c.2,2.63.66,5.25.73,7.89a30.46,30.46,0,0,0,1.93,10.14,20.72,20.72,0,0,0,5.14,8.12c.88.82,1.88,1.83,3.21,1.39a13.88,13.88,0,0,0,3.71-1.86,42.82,42.82,0,0,0,3.7-3.32l1,5.34a17.68,17.68,0,0,1-2.28,6.48,20.66,20.66,0,0,1-6.81,6.47,8.42,8.42,0,0,0-1.6,1.75Z" fill="#fba770"/>
    <path id="Trazado_153080" data-name="Trazado 153080" d="M42.37,54c1.12,1,2.18,2.06,3.35,3a13.62,13.62,0,0,0,7,2.65,30.42,30.42,0,0,1-4,11.2l-1.37-.86c-1.23-1.46-2.57-2.84-3.66-4.39a12.81,12.81,0,0,1-2.17-6,1.72,1.72,0,0,0-.17-.48Z" fill="#f8945f"/>
    <path id="Trazado_153081" data-name="Trazado 153081" d="M32.72,34.5l3.52.23c.11,1.65.24,3.47.36,5.28-1.44.34-2.67-1-3-2.3C33.33,36.63,33,35.57,32.72,34.5Z" fill="#f8955f"/>
    <path id="Trazado_153082" data-name="Trazado 153082" d="M64.32,53.77a42.821,42.821,0,0,1-3.7,3.32A13.88,13.88,0,0,1,56.91,59c-1.33.44-2.33-.57-3.21-1.39a20.72,20.72,0,0,1-5.14-8.12A30.46,30.46,0,0,1,46.63,39.3c-.07-2.64-.53-5.26-.73-7.89a13.2,13.2,0,0,1,.93-5.68,8.38,8.38,0,0,0,.45-2.17c.23-2.39.28-4.81.66-7.17a11.69,11.69,0,0,1,1.52-3l.34-.62a11,11,0,0,0,7.31,0,19.35,19.35,0,0,1,5.16-.55,6.39,6.39,0,0,1,4.49,1.73c-.06.77-.11,1.55-.19,2.32a16.83,16.83,0,0,0,3.42,12c.29.41.61.81.91,1.22-.13,1.7-.26,3.41-.4,5.12s-.4,3.68-.61,5.52A23.37,23.37,0,0,1,64.32,53.77Z" fill="#f8bc90"/>
    <path id="Trazado_153083" data-name="Trazado 153083" d="M69.89,40q.31-2.76.61-5.52a5,5,0,0,0,3.5-.21c-.35,1.27-.65,2.55-1.06,3.8C72.46,39.6,71.7,40,69.89,40Z" fill="#f89660"/>
    <path id="Trazado_153084" data-name="Trazado 153084" d="M74,34.29a5,5,0,0,1-3.5.21c.14-1.71.27-3.42.4-5.12l3.89,3.25Z" fill="#f9a870"/>
    <path id="Trazado_153085" data-name="Trazado 153085" d="M85.66,23.75c-.5.46-1,.95-1.52,1.37a2.35,2.35,0,0,1-3.2,0c-2-1.83-3.89-3.72-5.71-5.71a2.41,2.41,0,0,1,.28-3.49,2.62,2.62,0,0,1,3.62,0c.59.52,1.14,1.09,1.68,1.66s1,1.11,1.74,1.94c.39-.56.64-.91.88-1.27,1.88-1.84,3.74-3.69,5.63-5.52a2.47,2.47,0,0,1,2.72-.66,2.57,2.57,0,0,1,1.8,2.28A3.23,3.23,0,0,1,92.38,17C90.13,19.25,87.9,21.5,85.66,23.75Z" fill="#e9f0f5"/>
    <path id="Trazado_153086" data-name="Trazado 153086" d="M37.88,100.81l-1.35,1.37c-4.6-.35-8.61-1.79-11.1-6-3.44-2.86-3.37-7-4.12-7.56a10.15,10.15,0,0,1-3.48-4.92,18,18,0,0,1-.19-10c9.69-4,21.09,2.09,23.41,12.56a17.25,17.25,0,0,1-2.75,13.91A3.375,3.375,0,0,0,37.88,100.81Z" fill="#6eda9a"/>
    <path id="Trazado_153087" data-name="Trazado 153087" d="M25.43,96.15c2.49,4.24,6.5,5.68,11.1,6a16.33,16.33,0,0,1-9.2,5.11A17.83,17.83,0,0,1,14.55,105l-3.88-3.26c-.31-.4-.62-.8-.92-1.21a16.87,16.87,0,0,1-3.41-12c.08-.77.12-1.55.19-2.32.77-1.83,1.56-3.66,2.32-5.5a16.36,16.36,0,0,1,1.81-2.45,16.89,16.89,0,0,1,7-4.7,18,18,0,0,0,.19,10,10.15,10.15,0,0,0,3.48,4.92,13.25,13.25,0,0,1,1.89,2.12C23,91.07,24.92,96.61,25.43,96.15Z" fill="#71c894"/>
    <path id="Trazado_153088" data-name="Trazado 153088" d="M53.37,91.26A1.24,1.24,0,0,1,52,90a1.2,1.2,0,0,1,1.23-1.23A1.22,1.22,0,0,1,54.65,90a1.25,1.25,0,0,1-1.28,1.26Z" fill="#e15aa4"/>
    <path id="Trazado_153089" data-name="Trazado 153089" d="M54.9,83.63c-.06.77-.41,1.24-1.19,1.28a1.16,1.16,0,0,1-1.28-1.25,1.11,1.11,0,0,1,1.22-1.2,1.17,1.17,0,0,1,1.25,1.17Z" fill="#e15ba4"/>
  </g>
  <path id="Trazado_153090" data-name="Trazado 153090" d="M28.65,98l-2.48-2.48a1.82,1.82,0,0,0-2.59,0l-1.09,1.09a13.83,13.83,0,0,1-5.84-5.84l1.09-1.09a1.84,1.84,0,0,0,0-2.59l-2.48-2.48a1.83,1.83,0,0,0-2.6,0l-2,2c-1,1-1.07,2.86-.09,5.15a21.71,21.71,0,0,0,4.55,6.38,21.58,21.58,0,0,0,6.38,4.55,7.62,7.62,0,0,0,3,.71,3,3,0,0,0,2.19-.8l2-2a1.83,1.83,0,0,0,0-2.6Zm-1.11,1.5-2,2c-.54.54-1.82.45-3.42-.24A19.8,19.8,0,0,1,16.25,97,19.8,19.8,0,0,1,12,91.13c-.69-1.61-.78-2.88-.25-3.42l2-2a.28.28,0,0,1,.38,0l2.48,2.48a.26.26,0,0,1,0,.38l-1.88,1.88L15,91a15.44,15.44,0,0,0,7.32,7.32l.49.24,1.88-1.88a.27.27,0,0,1,.19-.08.24.24,0,0,1,.19.08l2.48,2.48a.27.27,0,0,1,0,.38Z" fill="#fff"/>
  <path id="Trazado_153091" data-name="Trazado 153091" d="M34.19,78.69a9,9,0,0,0-11.36,0,6.44,6.44,0,0,0,0,10,7,7,0,0,0,.89.65,12.56,12.56,0,0,1-2,2.36,13.23,13.23,0,0,0,4.62-1.24,9.759,9.759,0,0,0,2.17.25,8.72,8.72,0,0,0,5.68-2,6.44,6.44,0,0,0,0-10Zm-5.68,10.5c-3.6,0-6.52-2.45-6.52-5.48s2.92-5.48,6.52-5.48S35,80.69,35,83.71s-2.89,5.48-6.49,5.48Z" fill="#fff"/>
  <circle id="Elipse_5234" data-name="Elipse 5234" cx="1.04" cy="1.04" r="1.04" transform="translate(27.47 82.67)" fill="#fff"/>
  <circle id="Elipse_5235" data-name="Elipse 5235" cx="1.04" cy="1.04" r="1.04" transform="translate(23.82 82.67)" fill="#fff"/>
  <circle id="Elipse_5236" data-name="Elipse 5236" cx="1.04" cy="1.04" r="1.04" transform="translate(31.13 82.67)" fill="#fff"/>
</svg>
