<svg xmlns="http://www.w3.org/2000/svg" width="376.16" height="382.644" viewBox="0 0 376.16 382.644">
  <g id="cf5_venta_telefónica_copia" data-name="cf5_venta telefónica copia" transform="translate(-11.92 -9.68)">
    <g id="Capa_1" data-name="Capa 1">
      <g id="Grupo_90538" data-name="Grupo 90538">
        <path id="Trazado_152816" data-name="Trazado 152816" d="M54.68,44.67V30.79a37.28,37.28,0,0,0,0,74.56V91.47a23.4,23.4,0,0,1,0-46.8Z" fill="#8b82ca" opacity="0.69"/>
        <g id="Grupo_90537" data-name="Grupo 90537" opacity="0.5">
          <path id="Trazado_152817" data-name="Trazado 152817" d="M54.68,105.35a37.28,37.28,0,0,0,0-74.56V44.67a23.4,23.4,0,0,1,0,46.8Z" fill="#8b82ca"/>
        </g>
      </g>
      <g id="Grupo_90539" data-name="Grupo 90539">
        <path id="Trazado_152818" data-name="Trazado 152818" d="M200,318.06v70c103.87,0,188.08-84.21,188.08-188.08S303.87,11.92,200,11.92v70a118.06,118.06,0,0,1,0,236.12Z" fill="#d8d5ed"/>
        <path id="Trazado_152819" data-name="Trazado 152819" d="M200,11.92C96.13,11.92,11.92,96.13,11.92,200S96.13,388.08,200,388.08v-70a118.06,118.06,0,1,1,0-236.12Z" fill="#d8d5ed"/>
      </g>
      <g id="Grupo_90540" data-name="Grupo 90540">
        <path id="Trazado_152820" data-name="Trazado 152820" d="M65.43,301.43V283a49.587,49.587,0,1,0,0,99.175V363.68a31.128,31.128,0,1,1,0-62.255Z" fill="#cfccd9"/>
        <path id="Trazado_152821" data-name="Trazado 152821" d="M65.43,382.14a49.587,49.587,0,1,0,0-99.175V301.43a31.128,31.128,0,1,1,0,62.255Z" fill="#b2abdb"/>
      </g>
      <g id="Grupo_90548" data-name="Grupo 90548">
        <g id="Grupo_90541" data-name="Grupo 90541">
          <path id="Rectángulo_34573" data-name="Rectángulo 34573" d="M243.56,9.68l19.76,12V49.4l-19.76-12Z" fill="#eb9d66"/>
          <g id="_1" data-name=" 1">
            <text id="_1-2" data-name="1" transform="translate(248.95 33.02)" fill="#fff" font-size="14" font-family="Roboto-Bold, Roboto" font-weight="700"><tspan x="0" y="0">1</tspan></text>
          </g>
        </g>
        <g id="Grupo_90542" data-name="Grupo 90542">
          <path id="Rectángulo_34573-2" data-name="Rectángulo 34573-2" d="M243.56,52.43l20.79,12V92.14l-20.79-12Z" fill="#eb9d66"/>
          <g id="_2" data-name=" 2">
            <text id="_2-2" data-name="2" transform="translate(248.95 75.77)" fill="#fff" font-size="14" font-family="Roboto-Bold, Roboto" font-weight="700"><tspan x="0" y="0">2</tspan></text>
          </g>
        </g>
        <g id="Grupo_90543" data-name="Grupo 90543">
          <path id="Rectángulo_34573-3" data-name="Rectángulo 34573-3" d="M243.56,95.18l20.79,12v27.71l-20.79-12Z" fill="#eb9d66"/>
          <g id="_3" data-name=" 3">
            <text id="_3-2" data-name="3" transform="translate(248.95 118.52)" fill="#fff" font-size="14" font-family="Roboto-Bold, Roboto" font-weight="700"><tspan x="0" y="0">3</tspan></text>
          </g>
        </g>
        <g id="Grupo_90544" data-name="Grupo 90544">
          <path id="Rectángulo_34573-4" data-name="Rectángulo 34573-4" d="M243.56,137.93l20.79,12v27.71l-20.79-12Z" fill="#eb9d66"/>
          <g id="_4" data-name=" 4">
            <text id="_4-2" data-name="4" transform="translate(248.95 161.27)" fill="#fff" font-size="14" font-family="Roboto-Bold, Roboto" font-weight="700"><tspan x="0" y="0">4</tspan></text>
          </g>
        </g>
        <g id="Grupo_90545" data-name="Grupo 90545">
          <path id="Rectángulo_34573-5" data-name="Rectángulo 34573-5" d="M243.56,180.68l20.79,12v27.71l-20.79-12Z" fill="#eb9d66"/>
          <g id="_5" data-name=" 5">
            <text id="_5-2" data-name="5" transform="translate(248.95 204.02)" fill="#fff" font-size="14" font-family="Roboto-Bold, Roboto" font-weight="700"><tspan x="0" y="0">5</tspan></text>
          </g>
        </g>
        <g id="Grupo_90546" data-name="Grupo 90546">
          <path id="Rectángulo_34573-6" data-name="Rectángulo 34573-6" d="M242.54,223.43l20.78,12v27.71l-20.78-12Z" fill="#eb9d66"/>
          <g id="_6" data-name=" 6">
            <text id="_6-2" data-name="6" transform="translate(248.95 246.76)" fill="#fff" font-size="14" font-family="Roboto-Bold, Roboto" font-weight="700"><tspan x="0" y="0">6</tspan></text>
          </g>
        </g>
        <g id="Grupo_90547" data-name="Grupo 90547">
          <path id="Rectángulo_34573-7" data-name="Rectángulo 34573-7" d="M243.56,266.18l19.76,12v27.71l-19.76-12Z" fill="#eb9d66"/>
          <g id="_7" data-name=" 7">
            <text id="_7-2" data-name="7" transform="translate(248.95 289.51)" fill="#fff" font-size="14" font-family="Roboto-Bold, Roboto" font-weight="700"><tspan x="0" y="0">7</tspan></text>
          </g>
        </g>
        <line id="Línea_439" data-name="Línea 439" x2="32.94" y2="19.01" transform="translate(270.64 29.13)" fill="#9f99b3" stroke="#9f99b3" stroke-linecap="round" stroke-miterlimit="10" stroke-width="4"/>
        <line id="Línea_440" data-name="Línea 440" x2="32.94" y2="19.02" transform="translate(310.38 52.07)" fill="#9f99b3" stroke="#9f99b3" stroke-linecap="round" stroke-miterlimit="10" stroke-width="4"/>
        <line id="Línea_441" data-name="Línea 441" x2="90.2" y2="52.07" transform="translate(270.64 41.55)" fill="#9f99b3" stroke="#cfccd9" stroke-linecap="round" stroke-miterlimit="10" stroke-width="4"/>
        <line id="Línea_442" data-name="Línea 442" x2="81.05" y2="46.8" transform="translate(270.64 50.4)" fill="#9f99b3" stroke="#cfccd9" stroke-linecap="round" stroke-miterlimit="10" stroke-width="4"/>
        <line id="Línea_443" data-name="Línea 443" x2="32.94" y2="19.02" transform="translate(270.64 113.66)" fill="#9f99b3" stroke="#9f99b3" stroke-linecap="round" stroke-miterlimit="10" stroke-width="4"/>
        <line id="Línea_444" data-name="Línea 444" x2="32.94" y2="19.02" transform="translate(310.38 136.61)" fill="#9f99b3" stroke="#9f99b3" stroke-linecap="round" stroke-miterlimit="10" stroke-width="4"/>
        <line id="Línea_445" data-name="Línea 445" x2="90.2" y2="52.07" transform="translate(270.64 126.09)" fill="#9f99b3" stroke="#cfccd9" stroke-linecap="round" stroke-miterlimit="10" stroke-width="4"/>
        <line id="Línea_446" data-name="Línea 446" x2="81.05" y2="46.8" transform="translate(270.64 134.94)" fill="#9f99b3" stroke="#cfccd9" stroke-linecap="round" stroke-miterlimit="10" stroke-width="4"/>
        <line id="Línea_447" data-name="Línea 447" x2="32.94" y2="19.02" transform="translate(270.64 243.52)" fill="#9f99b3" stroke="#9f99b3" stroke-linecap="round" stroke-miterlimit="10" stroke-width="4"/>
        <line id="Línea_448" data-name="Línea 448" x2="32.94" y2="19.02" transform="translate(310.38 266.46)" fill="#9f99b3" stroke="#9f99b3" stroke-linecap="round" stroke-miterlimit="10" stroke-width="4"/>
        <line id="Línea_449" data-name="Línea 449" x2="90.2" y2="52.08" transform="translate(270.64 255.94)" fill="#9f99b3" stroke="#cfccd9" stroke-linecap="round" stroke-miterlimit="10" stroke-width="4"/>
        <line id="Línea_450" data-name="Línea 450" x2="81.05" y2="46.79" transform="translate(270.64 264.8)" fill="#9f99b3" stroke="#cfccd9" stroke-linecap="round" stroke-miterlimit="10" stroke-width="4"/>
        <line id="Línea_451" data-name="Línea 451" x2="25.95" y2="14.99" transform="translate(270.64 71.87)" fill="#9f99b3" stroke="#9f99b3" stroke-linecap="round" stroke-miterlimit="10" stroke-width="4"/>
        <line id="Línea_452" data-name="Línea 452" x2="25.95" y2="14.98" transform="translate(301.95 89.95)" fill="#9f99b3" stroke="#9f99b3" stroke-linecap="round" stroke-miterlimit="10" stroke-width="4"/>
        <line id="Línea_453" data-name="Línea 453" x2="70.07" y2="40.45" transform="translate(270.64 84.3)" fill="#9f99b3" stroke="#cfccd9" stroke-linecap="round" stroke-miterlimit="10" stroke-width="4"/>
        <line id="Línea_454" data-name="Línea 454" x2="81.05" y2="46.8" transform="translate(270.64 93.15)" fill="#9f99b3" stroke="#cfccd9" stroke-linecap="round" stroke-miterlimit="10" stroke-width="4"/>
        <line id="Línea_455" data-name="Línea 455" x2="25.95" y2="14.98" transform="translate(270.64 199.76)" fill="#9f99b3" stroke="#9f99b3" stroke-linecap="round" stroke-miterlimit="10" stroke-width="4"/>
        <line id="Línea_456" data-name="Línea 456" x2="25.95" y2="14.98" transform="translate(301.95 217.83)" fill="#9f99b3" stroke="#9f99b3" stroke-linecap="round" stroke-miterlimit="10" stroke-width="4"/>
        <line id="Línea_457" data-name="Línea 457" x2="70.07" y2="40.45" transform="translate(270.64 212.18)" fill="#9f99b3" stroke="#cfccd9" stroke-linecap="round" stroke-miterlimit="10" stroke-width="4"/>
        <line id="Línea_458" data-name="Línea 458" x2="81.05" y2="46.79" transform="translate(270.64 221.04)" fill="#9f99b3" stroke="#cfccd9" stroke-linecap="round" stroke-miterlimit="10" stroke-width="4"/>
        <line id="Línea_459" data-name="Línea 459" x2="53.86" y2="31.09" transform="translate(270.64 158.29)" fill="#9f99b3" stroke="#9f99b3" stroke-linecap="round" stroke-miterlimit="10" stroke-width="4"/>
        <line id="Línea_460" data-name="Línea 460" x2="70.07" y2="40.45" transform="translate(270.64 170.71)" fill="#9f99b3" stroke="#cfccd9" stroke-linecap="round" stroke-miterlimit="10" stroke-width="4"/>
        <line id="Línea_461" data-name="Línea 461" x2="81.05" y2="46.79" transform="translate(270.64 179.57)" fill="#9f99b3" stroke="#cfccd9" stroke-linecap="round" stroke-miterlimit="10" stroke-width="4"/>
        <line id="Línea_462" data-name="Línea 462" x2="27.98" y2="16.16" transform="translate(270.64 285.61)" fill="#9f99b3" stroke="#9f99b3" stroke-linecap="round" stroke-miterlimit="10" stroke-width="4"/>
        <line id="Línea_463" data-name="Línea 463" x2="70.07" y2="40.45" transform="translate(270.64 298.04)" fill="#9f99b3" stroke="#cfccd9" stroke-linecap="round" stroke-miterlimit="10" stroke-width="4"/>
        <line id="Línea_464" data-name="Línea 464" x2="56.21" y2="32.46" transform="translate(270.64 306.89)" fill="#9f99b3" stroke="#cfccd9" stroke-linecap="round" stroke-miterlimit="10" stroke-width="4"/>
      </g>
      <g id="Grupo_90576" data-name="Grupo 90576">
        <g id="Grupo_90565" data-name="Grupo 90565">
          <g id="Grupo_90549" data-name="Grupo 90549" opacity="0.2">
            <path id="Trazado_152822" data-name="Trazado 152822" d="M268.47,349,112.25,258.78a12.22,12.22,0,0,0-11.08,0l-61.25,35.6c-3.05,1.76-3,4.64,0,6.41L196.18,391a12.23,12.23,0,0,0,11.07,0l61.26-35.6C271.55,353.62,271.53,350.74,268.47,349Z" fill="gray"/>
          </g>
          <g id="Grupo_90550" data-name="Grupo 90550">
            <path id="Trazado_152823" data-name="Trazado 152823" d="M53.94,299.27l-.25-89.8,36.8-21.24,23.87,76.17L53.94,299.27M93.43,182,49.7,207.2l.3,98.93,69.75-40.26Z" fill="#29364b"/>
            <path id="Trazado_152824" data-name="Trazado 152824" d="M109.01,262.93l5.35,1.47L90.5,188.23l-4.16,2.39Z" fill="#121929"/>
            <path id="Trazado_152825" data-name="Trazado 152825" d="M53.93,294.7l.01,4.57,60.42-34.87-5.37-1.47Z" fill="#121929"/>
            <path id="Trazado_152826" data-name="Trazado 152826" d="M44.36,204.11l5.34,3.09.28,98.93-5.34-3.09Z" fill="#121929"/>
            <path id="Trazado_152827" data-name="Trazado 152827" d="M44.36,204.11l5.34,3.09,43.73-25.24-5.35-3.09Z" fill="#121929"/>
          </g>
          <g id="Grupo_90551" data-name="Grupo 90551">
            <path id="Trazado_152828" data-name="Trazado 152828" d="M199.49,383.09l-.25-89.81L236,272.05l23.87,76.16-60.42,34.88M239,265.78,195.25,291l.28,98.94,69.75-40.26Z" fill="#29364b"/>
            <path id="Trazado_152829" data-name="Trazado 152829" d="M254.56,346.75l5.35,1.46-23.87-76.16-4.15,2.39Z" fill="#121929"/>
            <path id="Trazado_152830" data-name="Trazado 152830" d="M199.48,378.52l.01,4.57,60.42-34.87-5.37-1.47Z" fill="#121929"/>
            <path id="Trazado_152831" data-name="Trazado 152831" d="M189.91,287.93l5.34,3.09.28,98.93-5.34-3.09Z" fill="#121929"/>
            <path id="Trazado_152832" data-name="Trazado 152832" d="M189.91,287.93l5.34,3.09,43.73-25.24-5.35-3.09Z" fill="#121929"/>
          </g>
          <path id="Trazado_152833" data-name="Trazado 152833" d="M270.78,249l-2.89.46L112.25,159.63a12.22,12.22,0,0,0-11.08,0L40,195.17l-2.37-.9v4.17h0v.05h0A4,4,0,0,0,40,201.64l156.22,90.2a12.2,12.2,0,0,0,11.07,0l61.26-35.6c1.59-.93,2.34-2.16,2.25-3.38h0C270.75,252.73,270.78,249,270.78,249Z" fill="#9bbfff"/>
          <path id="Trazado_152834" data-name="Trazado 152834" d="M207.25,291.84l61.26-35.6c1.59-.93,2.34-2.16,2.25-3.38h0v-3.83l-2.89.46L246.17,237l-44.66,44.65v11.54a11.29,11.29,0,0,0,5.74-1.35Z" fill="#86abf4"/>
          <path id="Trazado_152835" data-name="Trazado 152835" d="M268.47,245.55,112.25,155.36a12.22,12.22,0,0,0-11.08,0L39.92,191c-3.05,1.76-3,4.64,0,6.41L196.14,287.6a12.23,12.23,0,0,0,11.07,0l61.3-35.6C271.55,250.2,271.53,247.32,268.47,245.55Z" fill="#c9deff"/>
          <g id="Grupo_90552" data-name="Grupo 90552">
            <path id="Trazado_152836" data-name="Trazado 152836" d="M60.92,184.74a3.21,3.21,0,0,0-2.79,0l-10.37,6a.88.88,0,0,0,0,1.66l15.28,8.82a3.14,3.14,0,0,0,2.86,0l10.37-6a.87.87,0,0,0,.06-1.62,1,1,0,0,1,.52.74l-13.09-.9,1,8.14a3.49,3.49,0,0,1-.79,0l-1-8.17-1.45-.1-.18-.84L47.25,192a.67.67,0,0,1,0-.46l14,.53-1.59-7.57a3,3,0,0,1,1.26.29m15.39,8.88h0M61,184.76h0" fill="#fff"/>
            <path id="Trazado_152837" data-name="Trazado 152837" d="M63.77,193.48l-.79-.06,1,8.17a3.49,3.49,0,0,0,.79,0l-1-8.14M61.25,192l-14-.53a.67.67,0,0,0,0,.46l14.1.53-.1-.46" fill="#ebf3ff"/>
            <path id="Trazado_152838" data-name="Trazado 152838" d="M76.27,193.6,61,184.78h0a3,3,0,0,0-1.26-.29L61.25,192l.1.46.18.84,1.45.1.79.06,13.09.9a1,1,0,0,0-.52-.74h0" fill="#ebf3ff"/>
          </g>
          <g id="Grupo_90553" data-name="Grupo 90553">
            <path id="Trazado_152839" data-name="Trazado 152839" d="M82.64,173.14a3.15,3.15,0,0,0-2.79,0l-10.37,6a.88.88,0,0,0,0,1.66l15.28,8.82a3.14,3.14,0,0,0,2.86,0l10.37-6c.77-.45.79-1.16.06-1.62a1,1,0,0,1,.52.73l-13.09-.9,1,8.14a3.49,3.49,0,0,1-.79,0l-1-8.16-1.45-.1-.18-.85L69,180.34a.68.68,0,0,1-.06-.46l14,.54-1.59-7.58a2.82,2.82,0,0,1,1.26.3M98,182h0m-15.35-8.86h0" fill="#fff"/>
            <path id="Trazado_152840" data-name="Trazado 152840" d="M85.49,181.87l-.79-.05,1,8.16a3.49,3.49,0,0,0,.79,0l-1-8.14M83,180.42l-14-.54a.68.68,0,0,0,.06.46l14.09.53-.1-.45" fill="#ebf3ff"/>
            <path id="Trazado_152841" data-name="Trazado 152841" d="M98,182l-15.28-8.82h0a2.82,2.82,0,0,0-1.26-.3L83,180.42l.1.45.18.85,1.45.1.79.05,13.09.9a1,1,0,0,0-.52-.73h0" fill="#ebf3ff"/>
          </g>
          <g id="Grupo_90554" data-name="Grupo 90554">
            <path id="Trazado_152842" data-name="Trazado 152842" d="M104.37,161.53a3.17,3.17,0,0,0-2.8,0l-10.37,6a.88.88,0,0,0,0,1.66l15.28,8.82a3.14,3.14,0,0,0,2.86,0l10.37-6c.77-.45.79-1.16.06-1.62a1,1,0,0,1,.52.73l-13.09-.9,1,8.14a3.38,3.38,0,0,1-.78,0l-1-8.16-1.45-.1-.18-.84-14.09-.54a.65.65,0,0,1-.06-.45l14.06.53-1.59-7.58a2.89,2.89,0,0,1,1.26.3m15.38,8.88h0m-15.35-8.86h0" fill="#fff"/>
            <path id="Trazado_152843" data-name="Trazado 152843" d="M107.21,170.26h-.79l1,8.16a3.38,3.38,0,0,0,.78,0l-1-8.14m-2.51-1.45-14.06-.53a.65.65,0,0,0,.06.45l14.09.54-.09-.46" fill="#ebf3ff"/>
            <path id="Trazado_152844" data-name="Trazado 152844" d="M119.71,170.39l-15.27-8.82h0a2.89,2.89,0,0,0-1.26-.3l1.59,7.58.09.46.18.84,1.45.1h.79l13.09.9a1,1,0,0,0-.52-.73h0" fill="#ebf3ff"/>
          </g>
          <g id="Grupo_90556" data-name="Grupo 90556">
            <path id="Trazado_152845" data-name="Trazado 152845" d="M238.98,252.56l-20.85-12.04-26.01,15.12,20.84,12.04Z" fill="#fff"/>
            <g id="Grupo_90555" data-name="Grupo 90555">
              <path id="Trazado_152846" data-name="Trazado 152846" d="M226.77,256.64l-16.08-9.28-.31.18,16.07,9.28.32-.18" fill="#9bbfff"/>
              <path id="Trazado_152847" data-name="Trazado 152847" d="M225.42,257.43l-16.07-9.29-.31.19,16.07,9.28.31-.18" fill="#9bbfff"/>
              <path id="Trazado_152848" data-name="Trazado 152848" d="M224.08,258.21,208,248.93l-.31.18,16.07,9.28.32-.18" fill="#9bbfff"/>
              <path id="Trazado_152849" data-name="Trazado 152849" d="M222.73,258.99l-16.07-9.28-.31.18,16.07,9.28.31-.18" fill="#9bbfff"/>
              <path id="Trazado_152850" data-name="Trazado 152850" d="M221.39,259.77l-16.07-9.28-.32.18,16.08,9.28.31-.18" fill="#9bbfff"/>
              <path id="Trazado_152851" data-name="Trazado 152851" d="M220.05,260.55l-16.08-9.28-.31.18,16.07,9.28.32-.18" fill="#9bbfff"/>
              <path id="Trazado_152852" data-name="Trazado 152852" d="M218.7,261.33l-16.07-9.28-.32.18,16.08,9.28.31-.18" fill="#9bbfff"/>
              <path id="Trazado_152853" data-name="Trazado 152853" d="M217.36,262.11l-16.08-9.28-.31.18,16.08,9.28.31-.18" fill="#9bbfff"/>
              <path id="Trazado_152854" data-name="Trazado 152854" d="M216.01,262.89l-16.07-9.28-.31.18,16.07,9.28.31-.18" fill="#9bbfff"/>
              <path id="Trazado_152855" data-name="Trazado 152855" d="M206.31,258.95l-7.68-4.43-.31.18,7.68,4.43.31-.18" fill="#9bbfff"/>
              <path id="Trazado_152856" data-name="Trazado 152856" d="M224.36,249.62l-8.84-5.11-.85.5,8.84,5.1.85-.49" fill="#ff4a4a"/>
              <path id="Trazado_152857" data-name="Trazado 152857" d="M219.16,248.34l-5.1-2.94-.6.35,5.1,2.94.6-.35" fill="#4470c2"/>
            </g>
          </g>
          <g id="Grupo_90558" data-name="Grupo 90558">
            <path id="Trazado_152858" data-name="Trazado 152858" d="M239.4,251.95l-20.84-12.03-26.02,15.12,20.85,12.03Z" fill="#fff"/>
            <g id="Grupo_90557" data-name="Grupo 90557">
              <path id="Trazado_152859" data-name="Trazado 152859" d="M227.19,256.04l-16.07-9.28-.31.18,16.07,9.28.31-.18" fill="#9bbfff"/>
              <path id="Trazado_152860" data-name="Trazado 152860" d="M225.85,256.82l-16.07-9.28-.32.18L225.54,257l.31-.18" fill="#9bbfff"/>
              <path id="Trazado_152861" data-name="Trazado 152861" d="M224.5,257.6l-16.07-9.28-.31.18,16.07,9.28.31-.18" fill="#9bbfff"/>
              <path id="Trazado_152862" data-name="Trazado 152862" d="M223.16,258.38l-16.07-9.28-.31.18,16.07,9.28.31-.18" fill="#9bbfff"/>
              <path id="Trazado_152863" data-name="Trazado 152863" d="M221.82,259.16l-16.08-9.28-.31.18,16.07,9.29.32-.19" fill="#9bbfff"/>
              <path id="Trazado_152864" data-name="Trazado 152864" d="M220.47,259.94l-16.07-9.28-.31.19,16.07,9.28.31-.19" fill="#9bbfff"/>
              <path id="Trazado_152865" data-name="Trazado 152865" d="M219.13,260.73l-16.07-9.29-.32.19,16.07,9.28.32-.18" fill="#9bbfff"/>
              <path id="Trazado_152866" data-name="Trazado 152866" d="M217.78,261.51l-16.07-9.28-.31.18,16.07,9.28.31-.18" fill="#9bbfff"/>
              <path id="Trazado_152867" data-name="Trazado 152867" d="M216.44,262.29l-16.07-9.28-.31.18,16.07,9.28.31-.18" fill="#9bbfff"/>
              <path id="Trazado_152868" data-name="Trazado 152868" d="M206.74,258.35l-7.68-4.44-.31.19,7.67,4.43.32-.18" fill="#9bbfff"/>
              <path id="Trazado_152869" data-name="Trazado 152869" d="M224.79,249.02l-8.84-5.11-.85.49,8.84,5.11.85-.49" fill="#ff4a4a"/>
              <path id="Trazado_152870" data-name="Trazado 152870" d="M219.59,247.74l-5.1-2.95-.6.35,5.1,2.95.6-.35" fill="#4470c2"/>
            </g>
          </g>
          <g id="Grupo_90560" data-name="Grupo 90560">
            <path id="Trazado_152871" data-name="Trazado 152871" d="M233.66,251.44l-20.85-12.03L186.8,254.53l20.84,12.03Z" fill="#fff"/>
            <g id="Grupo_90559" data-name="Grupo 90559">
              <path id="Trazado_152872" data-name="Trazado 152872" d="M221.45,255.53l-16.07-9.28-.32.18,16.08,9.28.31-.18" fill="#9bbfff"/>
              <path id="Trazado_152873" data-name="Trazado 152873" d="M220.1,256.31l-16.07-9.28-.31.18,16.07,9.28.31-.18" fill="#9bbfff"/>
              <path id="Trazado_152874" data-name="Trazado 152874" d="M218.76,257.09l-16.07-9.28-.32.18,16.08,9.28.31-.18" fill="#9bbfff"/>
              <path id="Trazado_152875" data-name="Trazado 152875" d="M217.42,257.87l-16.08-9.28-.31.18,16.08,9.28.31-.18" fill="#9bbfff"/>
              <path id="Trazado_152876" data-name="Trazado 152876" d="M216.07,258.65,200,249.37l-.31.18,16.07,9.28.31-.18" fill="#9bbfff"/>
              <path id="Trazado_152877" data-name="Trazado 152877" d="M214.73,259.43l-16.07-9.28-.32.18,16.08,9.28.31-.18" fill="#9bbfff"/>
              <path id="Trazado_152878" data-name="Trazado 152878" d="M213.38,260.21l-16.07-9.28-.31.19,16.07,9.27.31-.18" fill="#9bbfff"/>
              <path id="Trazado_152879" data-name="Trazado 152879" d="M212.04,261l-16.07-9.28-.31.18,16.07,9.28.31-.18" fill="#9bbfff"/>
              <path id="Trazado_152880" data-name="Trazado 152880" d="M210.69,261.78l-16.07-9.28-.31.18,16.07,9.28.31-.18" fill="#9bbfff"/>
              <path id="Trazado_152881" data-name="Trazado 152881" d="M200.99,257.83l-7.67-4.43-.32.18,7.68,4.43.31-.18" fill="#9bbfff"/>
              <path id="Trazado_152882" data-name="Trazado 152882" d="M219.05,248.5l-8.85-5.1-.85.49L218.2,249l.85-.5" fill="#ff4a4a"/>
              <path id="Trazado_152883" data-name="Trazado 152883" d="M213.85,247.22l-5.1-2.94-.6.35,5.1,2.94.6-.35" fill="#4470c2"/>
            </g>
          </g>
          <g id="Grupo_90564" data-name="Grupo 90564">
            <g id="Grupo_90561" data-name="Grupo 90561" opacity="0.3">
              <path id="Trazado_152884" data-name="Trazado 152884" d="M181.19,229.4l-24.28,14.1a1.92,1.92,0,0,1-1.94,0l-40.12-23.35a1.93,1.93,0,0,1,0-3.34l24.55-14.26a1.92,1.92,0,0,1,1.94,0l39.73,25.11C182.12,228.25,182.06,228.87,181.19,229.4Z" fill="#ccc"/>
            </g>
            <path id="Trazado_152885" data-name="Trazado 152885" d="M181.66,227.3a4.4,4.4,0,0,1-1.58-.1l-40.73-23.73a1.83,1.83,0,0,0-1.84,0l-22.43,12.14a2.52,2.52,0,0,0,0,4.09l40.06,23.13a1.85,1.85,0,0,0,1.85,0l24.43-14.2a1,1,0,0,0,.26-1.32Z" fill="#121929"/>
            <path id="Trazado_152886" data-name="Trazado 152886" d="M138.55,173.69l.59,27.72a2.06,2.06,0,0,0,1,1.78l40,23.62a2.13,2.13,0,0,0,3-2l.07-27a2,2,0,0,0-1-1.77l-40.65-24a2,2,0,0,0-3.01,1.65Z" fill="#29364b"/>
            <path id="Trazado_152887" data-name="Trazado 152887" d="M138.53,173.54l-.08,28.22a2.07,2.07,0,0,0,1,1.79l40,23.34a2,2,0,0,0,3-1.75l.08-27a2.07,2.07,0,0,0-1-1.77l-40.8-24.11a1.48,1.48,0,0,0-2.2,1.28Z" fill="#121929"/>
            <path id="Trazado_152888" data-name="Trazado 152888" d="M140.05,173.74l-.08,27.65,40.86,23.62.09-27.36Z" fill="#4470c2"/>
            <g id="Grupo_90562" data-name="Grupo 90562" opacity="0.03">
              <path id="Trazado_152889" data-name="Trazado 152889" d="M145.24,176.77l-5.2,2.41-.06,19.85,24.19-11.18Z" fill="#fff"/>
              <path id="Trazado_152890" data-name="Trazado 152890" d="M167.32,189.69l-26.44,12.22,4.88,2.83,26.41-12.21Z" fill="#fff"/>
              <path id="Trazado_152891" data-name="Trazado 152891" d="M175.33,194.38l-26.4,12.19,19.06,11.02,12.89-5.96.04-13.98Z" fill="#fff"/>
              <path id="Trazado_152892" data-name="Trazado 152892" d="M176.05,222.25l4.8-2.22.02-5.09-9.71,4.48Z" fill="#fff"/>
            </g>
            <path id="Trazado_152893" data-name="Trazado 152893" d="M181.47,227.87,156.91,242a1.85,1.85,0,0,1-1.85,0l-40-23.25a1.84,1.84,0,0,1,0-3.18l22.49-13a1.81,1.81,0,0,1,1.84,0l42.06,24.45a.45.45,0,0,1,.02.85Z" fill="#29364b"/>
            <path id="Trazado_152894" data-name="Trazado 152894" d="M147.84,228.81l-6.14,3.63a.5.5,0,0,1-.5,0l-10.74-6.2a.5.5,0,0,1,0-.86l5.88-3.32a.5.5,0,0,1,.49,0l11,6.55a.12.12,0,0,1,.01.2Z" fill="#c9deff"/>
            <g id="Grupo_90563" data-name="Grupo 90563">
              <path id="Trazado_152895" data-name="Trazado 152895" d="M138.21,206l1.38.81a.67.67,0,0,0,.6,0l.69-.41c.17-.1.17-.25,0-.35l-1.38-.8a.64.64,0,0,0-.6,0l-.68.4C138.05,205.72,138.05,205.88,138.21,206Z" fill="#c9deff"/>
              <path id="Trazado_152896" data-name="Trazado 152896" d="M140.64,207.39l1.39.82a.69.69,0,0,0,.61,0l.69-.41a.19.19,0,0,0,0-.36l-1.39-.81a.69.69,0,0,0-.61,0l-.69.41C140.48,207.14,140.47,207.3,140.64,207.39Z" fill="#c9deff"/>
              <path id="Trazado_152897" data-name="Trazado 152897" d="M143.1,208.83l1.41.82a.66.66,0,0,0,.61,0l.69-.42a.19.19,0,0,0,0-.36l-1.41-.82a.66.66,0,0,0-.61,0l-.69.41a.19.19,0,0,0,0,.37Z" fill="#c9deff"/>
              <path id="Trazado_152898" data-name="Trazado 152898" d="M145.58,210.28l1.43.84a.65.65,0,0,0,.62,0l.69-.41c.17-.11.17-.27,0-.37l-1.43-.83a.68.68,0,0,0-.62,0l-.69.42a.19.19,0,0,0,0,.35Z" fill="#c9deff"/>
              <path id="Trazado_152899" data-name="Trazado 152899" d="M148.1,211.76l1.45.84a.68.68,0,0,0,.62,0l.69-.43c.17-.1.17-.26,0-.37l-1.45-.84a.68.68,0,0,0-.62,0l-.69.42a.2.2,0,0,0,0,.38Z" fill="#c9deff"/>
              <path id="Trazado_152900" data-name="Trazado 152900" d="M150.65,213.25l1.46.85a.7.7,0,0,0,.63,0l.7-.43a.2.2,0,0,0,0-.37l-1.47-.85a.68.68,0,0,0-.62,0l-.7.42C150.47,213,150.48,213.14,150.65,213.25Z" fill="#c9deff"/>
              <path id="Trazado_152901" data-name="Trazado 152901" d="M153.23,214.75l1.48.87a.7.7,0,0,0,.63,0l.7-.43a.2.2,0,0,0,0-.38l-1.48-.86a.7.7,0,0,0-.63,0l-.7.43a.2.2,0,0,0,0,.37Z" fill="#c9deff"/>
              <path id="Trazado_152902" data-name="Trazado 152902" d="M155.84,216.28l1.5.88a.72.72,0,0,0,.64,0l.7-.44c.17-.1.16-.27,0-.38l-1.5-.87a.67.67,0,0,0-.63,0l-.7.43a.2.2,0,0,0-.01.38Z" fill="#c9deff"/>
              <path id="Trazado_152903" data-name="Trazado 152903" d="M158.49,217.83l1.52.89a.72.72,0,0,0,.64,0l.7-.44a.216.216,0,0,0,0-.39l-1.52-.88a.66.66,0,0,0-.64,0l-.7.44C158.3,217.55,158.31,217.72,158.49,217.83Z" fill="#c9deff"/>
              <path id="Trazado_152904" data-name="Trazado 152904" d="M161.17,219.4l1.53.9a.71.71,0,0,0,.65,0l.71-.44a.216.216,0,0,0,0-.39l-1.54-.89a.66.66,0,0,0-.64,0l-.7.44A.2.2,0,0,0,161.17,219.4Z" fill="#c9deff"/>
              <path id="Trazado_152905" data-name="Trazado 152905" d="M163.88,221l1.56.91a.68.68,0,0,0,.65,0l.71-.44a.223.223,0,0,0,0-.4l-1.56-.9a.68.68,0,0,0-.65,0l-.7.44C163.68,220.7,163.69,220.87,163.88,221Z" fill="#c9deff"/>
              <path id="Trazado_152906" data-name="Trazado 152906" d="M166.63,222.59l1.57.92a.7.7,0,0,0,.66,0l.71-.45a.221.221,0,0,0,0-.4l-1.58-.92a.74.74,0,0,0-.65,0l-.71.45C166.43,222.3,166.44,222.48,166.63,222.59Z" fill="#c9deff"/>
              <path id="Trazado_152907" data-name="Trazado 152907" d="M169.41,224.22l1.6.93a.7.7,0,0,0,.66,0l.71-.45c.18-.11.16-.29,0-.41l-1.6-.93a.7.7,0,0,0-.66,0l-.71.46C169.21,223.93,169.22,224.11,169.41,224.22Z" fill="#c9deff"/>
              <path id="Trazado_152908" data-name="Trazado 152908" d="M175.19,226l-1.62-.95a.7.7,0,0,0-.66,0l-.71.46c-.18.11-.16.29,0,.41l1.62.94a.67.67,0,0,0,.67,0l.71-.46C175.41,226.24,175.39,226.06,175.19,226Z" fill="#c9deff"/>
              <path id="Trazado_152909" data-name="Trazado 152909" d="M136,207.39l1.26.74a.83.83,0,0,0,.75,0l1.25-.74c.21-.13.22-.33,0-.45L138,206.2a.8.8,0,0,0-.75,0l-1.24.73C135.77,207.07,135.76,207.27,136,207.39Z" fill="#c9deff"/>
              <path id="Trazado_152910" data-name="Trazado 152910" d="M141.59,208.32l-1.28-.75a.85.85,0,0,0-.76,0l-1.25.75a.23.23,0,0,0,0,.44l1.27.76a.82.82,0,0,0,.76,0l1.25-.74C141.79,208.64,141.8,208.44,141.59,208.32Z" fill="#c9deff"/>
              <path id="Trazado_152911" data-name="Trazado 152911" d="M144,209.71l-1.29-.76a.82.82,0,0,0-.76,0l-1.25.74c-.22.13-.22.33,0,.46l1.29.76a.81.81,0,0,0,.77,0l1.25-.75C144.17,210,144.17,209.83,144,209.71Z" fill="#c9deff"/>
              <path id="Trazado_152912" data-name="Trazado 152912" d="M137.14,210.86l1.28.77a.84.84,0,0,0,.77,0l1.25-.75c.22-.13.22-.33,0-.46l-1.28-.76a.82.82,0,0,0-.76,0l-1.26.75C136.94,210.54,136.93,210.74,137.14,210.86Z" fill="#c9deff"/>
              <path id="Trazado_152913" data-name="Trazado 152913" d="M133.64,208.77l2.35,1.4a.8.8,0,0,0,.75,0l1.26-.74c.21-.13.22-.33,0-.45l-2.36-1.4a.8.8,0,0,0-.75,0l-1.25.74a.24.24,0,0,0,0,.45Z" fill="#c9deff"/>
              <path id="Trazado_152914" data-name="Trazado 152914" d="M142.83,211.82l-1.3-.77a.82.82,0,0,0-.76,0l-1.26.75c-.22.13-.22.34,0,.46l1.29.78a.84.84,0,0,0,.77,0l1.27-.76a.25.25,0,0,0-.01-.46Z" fill="#c9deff"/>
              <path id="Trazado_152915" data-name="Trazado 152915" d="M145.24,213.25l-1.32-.78a.84.84,0,0,0-.77,0l-1.26.77c-.22.13-.22.33,0,.46l1.31.78a.83.83,0,0,0,.78,0l1.27-.77a.25.25,0,0,0-.01-.46Z" fill="#c9deff"/>
              <path id="Trazado_152916" data-name="Trazado 152916" d="M147.67,214.69l-1.33-.79a.86.86,0,0,0-.78,0l-1.26.77c-.22.13-.22.34,0,.46l1.33.8a.8.8,0,0,0,.78,0l1.27-.77a.25.25,0,0,0-.01-.47Z" fill="#c9deff"/>
              <path id="Trazado_152917" data-name="Trazado 152917" d="M150.13,216.15l-1.34-.8a.83.83,0,0,0-.78,0l-1.28.77a.26.26,0,0,0,0,.48l1.34.8a.85.85,0,0,0,.79,0l1.27-.79C150.36,216.49,150.35,216.28,150.13,216.15Z" fill="#c9deff"/>
              <path id="Trazado_152918" data-name="Trazado 152918" d="M152.63,217.63l-1.37-.81a.83.83,0,0,0-.78,0l-1.28.79a.25.25,0,0,0,0,.47l1.36.82a.85.85,0,0,0,.79,0l1.28-.79a.26.26,0,0,0,0-.48Z" fill="#c9deff"/>
              <path id="Trazado_152919" data-name="Trazado 152919" d="M155.15,219.12l-1.38-.81a.82.82,0,0,0-.79,0l-1.28.79a.26.26,0,0,0,0,.48l1.37.82a.81.81,0,0,0,.8,0l1.28-.79C155.38,219.47,155.37,219.26,155.15,219.12Z" fill="#c9deff"/>
              <path id="Trazado_152920" data-name="Trazado 152920" d="M157.7,220.64l-1.39-.83a.87.87,0,0,0-.8,0l-1.28.8a.264.264,0,0,0,0,.49l1.39.83a.89.89,0,0,0,.81,0l1.28-.8a.26.26,0,0,0-.01-.49Z" fill="#c9deff"/>
              <path id="Trazado_152921" data-name="Trazado 152921" d="M156.8,222.63l1.41.84a.83.83,0,0,0,.81,0l1.29-.81a.267.267,0,0,0,0-.49l-1.41-.84a.89.89,0,0,0-.81,0l-1.29.81C156.57,222.27,156.57,222.49,156.8,222.63Z" fill="#c9deff"/>
              <path id="Trazado_152922" data-name="Trazado 152922" d="M162.93,224.22a.274.274,0,0,0,0-.5l-1.43-.85a.91.91,0,0,0-.82,0l-1.29.81a.277.277,0,0,0,0,.5l1.42.86a.88.88,0,0,0,.82,0Z" fill="#c9deff"/>
              <path id="Trazado_152923" data-name="Trazado 152923" d="M165.59,225.79a.277.277,0,0,0,0-.5l-1.45-.86a.85.85,0,0,0-.82,0l-1.29.82a.274.274,0,0,0,0,.5l1.45.87a.85.85,0,0,0,.82,0Z" fill="#c9deff"/>
              <path id="Trazado_152924" data-name="Trazado 152924" d="M164.68,227.34l1.46.88a.87.87,0,0,0,.83,0l1.3-.83a.282.282,0,0,0,0-.51l-1.47-.87a.85.85,0,0,0-.82,0l-1.3.83C164.43,227,164.44,227.2,164.68,227.34Z" fill="#c9deff"/>
              <path id="Trazado_152925" data-name="Trazado 152925" d="M135.4,212.17c-.22.13-.22.33,0,.46l1.28.77a.79.79,0,0,0,.76,0l1.27-.76c.21-.13.22-.33,0-.46l-1.28-.77a.84.84,0,0,0-.77,0Z" fill="#c9deff"/>
              <path id="Trazado_152926" data-name="Trazado 152926" d="M131.29,210.15l3,1.8a.82.82,0,0,0,.76,0l1.26-.76a.24.24,0,0,0,0-.45l-3-1.79a.8.8,0,0,0-.75,0l-1.26.74C131.1,209.83,131.09,210,131.29,210.15Z" fill="#c9deff"/>
              <path id="Trazado_152927" data-name="Trazado 152927" d="M137.75,213.59a.25.25,0,0,0,0,.47l1.3.78a.81.81,0,0,0,.77,0l1.27-.77c.22-.13.22-.34,0-.46l-1.3-.78a.81.81,0,0,0-.77,0Z" fill="#c9deff"/>
              <path id="Trazado_152928" data-name="Trazado 152928" d="M140.13,215.5l1.31.79a.83.83,0,0,0,.78,0l1.27-.77a.25.25,0,0,0,0-.47l-1.31-.79a.84.84,0,0,0-.77,0l-1.28.77a.25.25,0,0,0,0,.47Z" fill="#c9deff"/>
              <path id="Trazado_152929" data-name="Trazado 152929" d="M142.54,217l1.33.8a.8.8,0,0,0,.78,0l1.28-.78a.25.25,0,0,0,0-.47l-1.33-.8a.83.83,0,0,0-.78,0l-1.28.78a.25.25,0,0,0,0,.47Z" fill="#c9deff"/>
              <path id="Trazado_152930" data-name="Trazado 152930" d="M145,218.44l1.34.81a.82.82,0,0,0,.79,0l1.29-.79a.25.25,0,0,0,0-.47l-1.34-.81a.85.85,0,0,0-.79,0L145,218a.26.26,0,0,0,0,.44Z" fill="#c9deff"/>
              <path id="Trazado_152931" data-name="Trazado 152931" d="M147.45,219.94l1.36.82a.87.87,0,0,0,.8,0l1.28-.8a.26.26,0,0,0,0-.48l-1.37-.82a.82.82,0,0,0-.79,0l-1.28.78a.26.26,0,0,0,0,.5Z" fill="#c9deff"/>
              <path id="Trazado_152932" data-name="Trazado 152932" d="M150,221.45l1.38.83a.81.81,0,0,0,.8,0l1.29-.8a.267.267,0,0,0,0-.49l-1.38-.82a.81.81,0,0,0-.8,0L150,221a.26.26,0,0,0,0,.45Z" fill="#c9deff"/>
              <path id="Trazado_152933" data-name="Trazado 152933" d="M152.49,223l1.39.85a.83.83,0,0,0,.81,0L156,223a.27.27,0,0,0,0-.5l-1.4-.83a.81.81,0,0,0-.8,0l-1.3.8a.265.265,0,0,0-.01.53Z" fill="#c9deff"/>
              <path id="Trazado_152934" data-name="Trazado 152934" d="M155.05,224.54l1.41.85a.83.83,0,0,0,.81,0l1.3-.82a.267.267,0,0,0,0-.49l-1.41-.85a.83.83,0,0,0-.81,0L155,224A.311.311,0,0,0,155.05,224.54Z" fill="#c9deff"/>
              <path id="Trazado_152935" data-name="Trazado 152935" d="M157.64,226.11l1.43.86a.85.85,0,0,0,.82,0l1.3-.82a.27.27,0,0,0,0-.5l-1.43-.86a.85.85,0,0,0-.82,0l-1.29.81a.27.27,0,0,0-.01.51Z" fill="#c9deff"/>
              <path id="Trazado_152936" data-name="Trazado 152936" d="M162.54,228.58l1.31-.84a.282.282,0,0,0,0-.51l-1.45-.86a.88.88,0,0,0-.82,0l-1.3.83a.28.28,0,0,0,0,.51l1.45.87a.83.83,0,0,0,.81,0Z" fill="#c9deff"/>
              <path id="Trazado_152937" data-name="Trazado 152937" d="M168.52,230.05,165.07,228a.87.87,0,0,0-.83,0l-1.3.83a.28.28,0,0,0,0,.52l3.45,2.08a.87.87,0,0,0,.84,0l1.31-.85C168.78,230.43,168.76,230.2,168.52,230.05Z" fill="#c9deff"/>
              <path id="Trazado_152938" data-name="Trazado 152938" d="M134.24,214.79l1.28.79a.81.81,0,0,0,.77,0l1.28-.77a.25.25,0,0,0,0-.47l-1.29-.78a.82.82,0,0,0-.76,0l-1.28.76C134,214.46,134,214.67,134.24,214.79Z" fill="#c9deff"/>
              <path id="Trazado_152939" data-name="Trazado 152939" d="M129.92,212.63l-1.5-.92a.52.52,0,0,0-.5,0l-1.86,1.1c-.15.08-.15.22,0,.3l1.49.93a.55.55,0,0,0,.5,0l1.88-1.12C130.05,212.85,130.06,212.72,129.92,212.63Z" fill="#c9deff"/>
              <path id="Trazado_152940" data-name="Trazado 152940" d="M132.25,214.06l-1.52-.93a.55.55,0,0,0-.5,0l-1.88,1.12c-.14.08-.15.22,0,.3l1.51.94a.57.57,0,0,0,.51,0l1.88-1.13a.16.16,0,0,0,0-.3Z" fill="#c9deff"/>
              <path id="Trazado_152941" data-name="Trazado 152941" d="M134.6,215.51l-1.54-.95a.55.55,0,0,0-.5,0l-1.88,1.13a.17.17,0,0,0,0,.31l1.53.95a.55.55,0,0,0,.5,0l1.89-1.14A.162.162,0,0,0,134.6,215.51Z" fill="#c9deff"/>
              <path id="Trazado_152942" data-name="Trazado 152942" d="M137.53,217.3l-2.1-1.29a.57.57,0,0,0-.51,0L133,217.15a.17.17,0,0,0,0,.31l2.1,1.3a.52.52,0,0,0,.51,0l1.89-1.15a.17.17,0,0,0,.03-.31Z" fill="#c9deff"/>
              <path id="Trazado_152943" data-name="Trazado 152943" d="M153.11,226.87l-2.27-1.39a.55.55,0,0,0-.53,0l-1.92,1.2a.18.18,0,0,0,0,.33l2.26,1.4a.52.52,0,0,0,.54,0l1.93-1.21a.18.18,0,0,0-.01-.33Z" fill="#c9deff"/>
              <path id="Trazado_152944" data-name="Trazado 152944" d="M155.73,228.48l-1.67-1a.57.57,0,0,0-.54,0l-1.93,1.21a.18.18,0,0,0,0,.34l1.68,1a.57.57,0,0,0,.54,0l1.93-1.22a.18.18,0,0,0-.01-.33Z" fill="#c9deff"/>
              <path id="Trazado_152945" data-name="Trazado 152945" d="M157.16,230.9l-1.7-1.05a.57.57,0,0,0-.54,0l-.7.44a.18.18,0,0,0,0,.34l1.69,1.06a.57.57,0,0,0,.54,0l.71-.45a.18.18,0,0,0,0-.34Z" fill="#c9deff"/>
              <path id="Trazado_152946" data-name="Trazado 152946" d="M162.54,234.22l-1.74-1.07a.57.57,0,0,0-.55,0l-.71.46a.187.187,0,0,0,0,.34l1.73,1.08a.57.57,0,0,0,.55,0l.71-.46a.19.19,0,0,0,.01-.35Z" fill="#c9deff"/>
              <path id="Trazado_152947" data-name="Trazado 152947" d="M159.83,232.55l-1.72-1.06a.52.52,0,0,0-.54,0l-.71.45c-.15.09-.14.24,0,.34l1.72,1.06a.57.57,0,0,0,.55,0l.71-.46C160,232.8,160,232.65,159.83,232.55Z" fill="#c9deff"/>
              <path id="Trazado_152948" data-name="Trazado 152948" d="M158.25,231.4l1.72,1.06a.54.54,0,0,0,.55,0l.7-.45a.18.18,0,0,0,0-.34l-1.72-1.06a.59.59,0,0,0-.55,0l-.7.45a.18.18,0,0,0,0,.34Z" fill="#c9deff"/>
              <path id="Trazado_152949" data-name="Trazado 152949" d="M149.84,224.86l-11.48-7.05a.59.59,0,0,0-.52,0L136,219c-.14.09-.15.23,0,.31l11.45,7.11a.51.51,0,0,0,.53,0l1.92-1.19a.187.187,0,0,0-.06-.37Z" fill="#c9deff"/>
              <path id="Trazado_152950" data-name="Trazado 152950" d="M128.94,211.55,133,214a.81.81,0,0,0,.77,0l1.27-.76c.22-.13.22-.34,0-.46L131,210.34a.85.85,0,0,0-.76,0l-1.26.75C128.74,211.22,128.73,211.42,128.94,211.55Z" fill="#c9deff"/>
              <path id="Trazado_152951" data-name="Trazado 152951" d="M136.6,216.24l1.3.8a.83.83,0,0,0,.78,0l1.28-.78a.25.25,0,0,0,0-.47l-1.31-.79a.81.81,0,0,0-.77,0l-1.28.77a.25.25,0,0,0,0,.47Z" fill="#c9deff"/>
              <path id="Trazado_152952" data-name="Trazado 152952" d="M139,217.71l1.32.8a.83.83,0,0,0,.78,0l1.29-.78a.26.26,0,0,0,0-.48l-1.32-.79a.83.83,0,0,0-.78,0l-1.28.77C138.79,217.37,138.78,217.58,139,217.71Z" fill="#c9deff"/>
              <path id="Trazado_152953" data-name="Trazado 152953" d="M141.41,219.19l1.34.82a.8.8,0,0,0,.78,0l1.29-.78c.22-.14.22-.35,0-.48l-1.33-.81a.83.83,0,0,0-.78,0l-1.29.78a.26.26,0,0,0-.01.47Z" fill="#c9deff"/>
              <path id="Trazado_152954" data-name="Trazado 152954" d="M143.86,220.69l1.35.83a.87.87,0,0,0,.8,0l1.29-.8a.26.26,0,0,0,0-.48l-1.36-.82a.8.8,0,0,0-.78,0l-1.29.79a.26.26,0,0,0-.01.48Z" fill="#c9deff"/>
              <path id="Trazado_152955" data-name="Trazado 152955" d="M146.34,222.21l1.37.84a.87.87,0,0,0,.8,0l1.29-.81a.26.26,0,0,0,0-.49l-1.37-.83a.82.82,0,0,0-.79,0l-1.3.79a.26.26,0,0,0,0,.5Z" fill="#c9deff"/>
              <path id="Trazado_152956" data-name="Trazado 152956" d="M148.85,223.75l1.38.84a.86.86,0,0,0,.81,0l1.3-.81a.27.27,0,0,0,0-.5l-1.38-.84a.87.87,0,0,0-.8,0l-1.3.81a.26.26,0,0,0-.01.5Z" fill="#c9deff"/>
              <path id="Trazado_152957" data-name="Trazado 152957" d="M151.39,225.31l1.4.85a.83.83,0,0,0,.81,0l1.31-.81a.27.27,0,0,0,0-.5l-1.4-.85a.81.81,0,0,0-.8,0l-1.3.81a.27.27,0,0,0-.02.5Z" fill="#c9deff"/>
              <path id="Trazado_152958" data-name="Trazado 152958" d="M154,226.88l1.41.87a.85.85,0,0,0,.82,0l1.31-.82a.28.28,0,0,0,0-.51l-1.42-.86a.83.83,0,0,0-.81,0l-1.31.82C153.73,226.52,153.74,226.74,154,226.88Z" fill="#c9deff"/>
              <path id="Trazado_152959" data-name="Trazado 152959" d="M160.12,228l-1.44-.87a.85.85,0,0,0-.82,0l-1.31.83a.28.28,0,0,0,0,.51l1.43.88a.87.87,0,0,0,.83,0l1.31-.83C160.36,228.38,160.35,228.16,160.12,228Z" fill="#c9deff"/>
              <path id="Trazado_152960" data-name="Trazado 152960" d="M166.14,231.67l-4.81-2.92a.85.85,0,0,0-.83,0l-1.31.84a.277.277,0,0,0,0,.51L164,233a.89.89,0,0,0,.84,0l1.32-.85a.28.28,0,0,0-.02-.48Z" fill="#c9deff"/>
              <path id="Trazado_152961" data-name="Trazado 152961" d="M171,228.49l-1.49-.88a.87.87,0,0,0-.83,0l-1.3.83a.29.29,0,0,0,0,.52l1.48.88a.87.87,0,0,0,.84,0L171,229A.285.285,0,0,0,171,228.49Z" fill="#c9deff"/>
              <path id="Trazado_152962" data-name="Trazado 152962" d="M146.37,211.12l-1.31-.77a.84.84,0,0,0-.77,0l-1.26.76a.25.25,0,0,0,0,.46l1.31.77a.84.84,0,0,0,.77,0l1.26-.76a.24.24,0,0,0,0-.46Z" fill="#c9deff"/>
              <path id="Trazado_152963" data-name="Trazado 152963" d="M148.8,212.54l-1.33-.78a.84.84,0,0,0-.77,0l-1.26.76a.25.25,0,0,0,0,.46l1.32.78a.83.83,0,0,0,.78,0l1.26-.77A.244.244,0,0,0,148.8,212.54Z" fill="#c9deff"/>
              <path id="Trazado_152964" data-name="Trazado 152964" d="M151.26,214l-1.34-.78a.83.83,0,0,0-.78,0l-1.26.77c-.22.13-.22.34,0,.46l1.34.8a.83.83,0,0,0,.78,0l1.27-.77a.25.25,0,0,0-.01-.48Z" fill="#c9deff"/>
              <path id="Trazado_152965" data-name="Trazado 152965" d="M153.75,215.44l-1.36-.8a.86.86,0,0,0-.78,0l-1.27.77a.25.25,0,0,0,0,.47l1.35.81a.82.82,0,0,0,.79,0l1.27-.78C154,215.78,154,215.57,153.75,215.44Z" fill="#c9deff"/>
              <path id="Trazado_152966" data-name="Trazado 152966" d="M156.27,216.92l-1.37-.81a.85.85,0,0,0-.79,0l-1.27.79a.252.252,0,0,0,0,.47l1.37.81a.82.82,0,0,0,.79,0l1.28-.79C156.5,217.26,156.49,217.05,156.27,216.92Z" fill="#c9deff"/>
              <path id="Trazado_152967" data-name="Trazado 152967" d="M158.82,218.41l-1.39-.81a.84.84,0,0,0-.8,0l-1.27.79a.259.259,0,0,0,0,.48l1.38.82a.87.87,0,0,0,.8,0l1.28-.8C159.06,218.76,159.05,218.54,158.82,218.41Z" fill="#c9deff"/>
              <path id="Trazado_152968" data-name="Trazado 152968" d="M161.4,219.92l-1.4-.82a.86.86,0,0,0-.81,0l-1.27.79a.26.26,0,0,0,0,.49l1.41.83a.83.83,0,0,0,.81,0l1.28-.8C161.64,220.28,161.63,220.06,161.4,219.92Z" fill="#c9deff"/>
              <path id="Trazado_152969" data-name="Trazado 152969" d="M164,221.45l-1.43-.83a.83.83,0,0,0-.81,0l-1.28.8a.26.26,0,0,0,0,.49l1.43.85a.89.89,0,0,0,.81,0L164,222C164.26,221.81,164.25,221.59,164,221.45Z" fill="#c9deff"/>
              <path id="Trazado_152970" data-name="Trazado 152970" d="M164.59,224.32a.85.85,0,0,0,.82,0l1.28-.82a.274.274,0,0,0,0-.5l-1.44-.84a.83.83,0,0,0-.81,0l-1.29.81a.274.274,0,0,0,0,.5Z" fill="#c9deff"/>
              <path id="Trazado_152971" data-name="Trazado 152971" d="M169.34,224.57l-1.46-.85a.85.85,0,0,0-.82,0l-1.29.81a.285.285,0,0,0,0,.51l1.46.86a.87.87,0,0,0,.83,0l1.29-.82C169.6,224.94,169.58,224.71,169.34,224.57Z" fill="#c9deff"/>
              <path id="Trazado_152972" data-name="Trazado 152972" d="M173.6,227.06l-3.12-1.82a.53.53,0,0,0-.52,0l-1.58,1a.177.177,0,0,0,0,.32l3.1,1.84a.57.57,0,0,0,.54,0l1.58-1A.182.182,0,0,0,173.6,227.06Z" fill="#c9deff"/>
            </g>
          </g>
        </g>
        <g id="Grupo_90575" data-name="Grupo 90575">
          <path id="Trazado_152973" data-name="Trazado 152973" d="M170.82,335.75c-4.12,1.22-7.94,3.48-12.13,4.53-3.69,1.2-7.42,2.09-11.16,3.06a19.48,19.48,0,0,0-6.75,2.89c-.9.66-.74,2.06-.65,3,.15,1.64,2.33,2.45,3.64,2.89a12,12,0,0,0,5.67.59c2.57-.39,4.64-1.7,6.79-3,2-1.23,4-2.41,6.09-3.46s4.18-1.7,6.25-2.64,3.47-2.28,3.67-4.53a7.321,7.321,0,0,0,0-1.75,2.53,2.53,0,0,0-.72-1.47.46.46,0,0,0-.58-.13Z" fill="#29364b"/>
          <path id="Trazado_152974" data-name="Trazado 152974" d="M166.16,332.47a14.557,14.557,0,0,0-2,0c-1.61.11-3.2.38-4.81.54a26.239,26.239,0,0,1-5.09-.15c-.53-.05-1.07-.09-1.6-.1a12.72,12.72,0,0,0-10.75,6.4h0c-1.77.74-1.06,3.15-1.21,4.63a19.58,19.58,0,0,0-.52,3.2,2.67,2.67,0,0,0,1.36,1.91,11.14,11.14,0,0,0,9.16,1.63c2.38-.67,4.37-2.09,6.51-3.3a66.547,66.547,0,0,1,8.16-4.15,22.34,22.34,0,0,0,4.36-1.93c1.72-1.16,3.05-3.16,2.13-5.23C170.76,333.46,168.56,332.61,166.16,332.47Z" fill="#4470c2"/>
          <path id="Trazado_152975" data-name="Trazado 152975" d="M163.22,335.59a19.241,19.241,0,0,0-4.22-2.54,28.669,28.669,0,0,1-4.72-.17c-.53-.05-1.07-.09-1.6-.1a7.64,7.64,0,0,0-1.9,1.19.38.38,0,0,0-.12.21l-.16.2a3.63,3.63,0,0,0-.65,1.17,3.06,3.06,0,0,0,.56,2.65,7.19,7.19,0,0,0,1.82,2.1,3.4,3.4,0,0,0,1.2.57,1.55,1.55,0,0,0,1.23-.14.23.23,0,0,0,.07-.18,18.52,18.52,0,0,1,6.49-1.83c.86-.11,2.27-.21,2.85-1S163.8,336.06,163.22,335.59Z" fill="#1b3b8b"/>
          <path id="Trazado_152976" data-name="Trazado 152976" d="M150.53,322.76c-4.12,1.22-7.94,3.48-12.14,4.53-3.68,1.2-7.42,2.09-11.16,3.07a19.22,19.22,0,0,0-6.74,2.88c-.9.66-.75,2.06-.66,3,.15,1.64,2.34,2.44,3.64,2.88a12,12,0,0,0,5.67.59c2.57-.38,4.64-1.69,6.8-3,2-1.23,4-2.41,6.08-3.45s4.19-1.71,6.25-2.65,3.48-2.28,3.67-4.53a7.241,7.241,0,0,0,0-1.74,2.53,2.53,0,0,0-.72-1.48.57.57,0,0,0-.3-.17.66.66,0,0,0-.28,0Z" fill="#29364b"/>
          <path id="Trazado_152977" data-name="Trazado 152977" d="M145.86,319.48a14.413,14.413,0,0,0-2,0c-1.62.11-3.21.38-4.82.54a25.5,25.5,0,0,1-5.09-.15c-.53-.05-1.06-.09-1.6-.1a12.72,12.72,0,0,0-10.74,6.4h0c-1.77.74-1,3.15-1.2,4.63a17.781,17.781,0,0,0-.52,3.2,2.67,2.67,0,0,0,1.35,1.92,11.18,11.18,0,0,0,9.16,1.62c2.38-.67,4.38-2.09,6.51-3.3a67.369,67.369,0,0,1,8.17-4.15,21.683,21.683,0,0,0,4.35-1.93c1.72-1.15,3.05-3.16,2.14-5.23C150.47,320.48,148.26,319.62,145.86,319.48Z" fill="#4470c2"/>
          <path id="Trazado_152978" data-name="Trazado 152978" d="M142.72,325c.6-.76-.26-1.71-.85-2.17a18.159,18.159,0,0,0-4.78-2.77,30.454,30.454,0,0,1-3.11-.21c-.53-.05-1.06-.09-1.6-.1h-.42a7.39,7.39,0,0,0-2.52,1.43.38.38,0,0,0-.12.21l-.16.19a3.591,3.591,0,0,0-.65,1.18,3.06,3.06,0,0,0,.56,2.65,7.19,7.19,0,0,0,1.82,2.1,3.151,3.151,0,0,0,1.2.56,1.54,1.54,0,0,0,1.23-.13.29.29,0,0,0,.07-.18,18.31,18.31,0,0,1,6.49-1.83C140.73,325.89,142.15,325.78,142.72,325Z" fill="#1b3b8b"/>
          <g id="Grupo_90566" data-name="Grupo 90566" opacity="0.3">
            <path id="Trazado_152979" data-name="Trazado 152979" d="M63.48,344.78a3.12,3.12,0,0,1,2.61-.09l24.26,12.54,21.33-15.69a.57.57,0,0,1,.13-.08c.58-.34,1.93-1.53,2.71-1.31,1,.27.92,2,.45,2.6l-14.35,17.51,35.31,5c.21,0,.87-.92,1-.84.52.23.37,1.63.29,2a1.1,1.1,0,0,1-.56.68,3.06,3.06,0,0,1-1.6.33l-36.33-.65,3.75,15.84v1.16a.92.92,0,0,1-.57.92,2.39,2.39,0,0,1-.78.28,2.45,2.45,0,0,1-2.46-.73L87.4,367.89l-29.52,7.7a2.91,2.91,0,0,1-2.37-.31c-.64-.45-.87-2-.16-2.43,0,0,.69-.12.74-.14l26.12-10.78L63.32,346.28c-.54-.4-.84-2-.28-2.45.05,0,.39,1,.44.95" fill="gray"/>
          </g>
          <g id="Grupo_90567" data-name="Grupo 90567">
            <path id="Trazado_152980" data-name="Trazado 152980" d="M135.4,357.14c2.1-1.22,3.8-.23,3.81,2.17a8.33,8.33,0,0,1-3.78,6.56c-2.1,1.2-3.8.24-3.8-2.18a8.31,8.31,0,0,1,3.77-6.55" fill="#121929"/>
            <path id="Trazado_152981" data-name="Trazado 152981" d="M136.53,368.34l-3.66-2.14,5.24-9.32,3.79,2.21Z" fill="#121929"/>
            <path id="Trazado_152982" data-name="Trazado 152982" d="M139.25,359.38c2.1-1.21,3.8-.23,3.81,2.17a8.3,8.3,0,0,1-3.79,6.56c-2.09,1.21-3.79.24-3.79-2.18a8.34,8.34,0,0,1,3.77-6.55" fill="#121929"/>
            <path id="Trazado_152983" data-name="Trazado 152983" d="M139.25,359.63c2-1.15,3.59-.22,3.59,2.05a7.81,7.81,0,0,1-3.57,6.18c-2,1.14-3.57.23-3.58-2.05a7.86,7.86,0,0,1,3.56-6.18" fill="#29364b"/>
          </g>
          <g id="Grupo_90568" data-name="Grupo 90568">
            <path id="Trazado_152984" data-name="Trazado 152984" d="M99.26,375.35c2.11-1.22,3.81-.23,3.81,2.17a8.33,8.33,0,0,1-3.78,6.56c-2.09,1.21-3.79.24-3.8-2.18a8.34,8.34,0,0,1,3.77-6.55" fill="#121929"/>
            <path id="Trazado_152985" data-name="Trazado 152985" d="M100.39,386.55l-3.65-2.14,5.23-9.32,3.8,2.21Z" fill="#121929"/>
            <path id="Trazado_152986" data-name="Trazado 152986" d="M103.11,377.59c2.11-1.21,3.8-.23,3.81,2.17a8.31,8.31,0,0,1-3.78,6.56c-2.1,1.21-3.8.24-3.8-2.18a8.34,8.34,0,0,1,3.77-6.55" fill="#121929"/>
            <path id="Trazado_152987" data-name="Trazado 152987" d="M103.11,377.84c2-1.15,3.59-.22,3.6,2.05a7.86,7.86,0,0,1-3.57,6.18c-2,1.14-3.58.23-3.59-2.05a7.89,7.89,0,0,1,3.56-6.18" fill="#29364b"/>
          </g>
          <g id="Grupo_90569" data-name="Grupo 90569">
            <path id="Trazado_152988" data-name="Trazado 152988" d="M54.9,365.92c2.11-1.21,3.81-.23,3.81,2.17a8.31,8.31,0,0,1-3.78,6.56c-2.09,1.21-3.79.24-3.8-2.18a8.34,8.34,0,0,1,3.77-6.55" fill="#121929"/>
            <path id="Trazado_152989" data-name="Trazado 152989" d="M56.03,377.13l-3.66-2.15,5.24-9.31,3.79,2.2Z" fill="#121929"/>
            <path id="Trazado_152990" data-name="Trazado 152990" d="M58.75,368.17c2.1-1.22,3.8-.24,3.81,2.17a8.31,8.31,0,0,1-3.79,6.56c-2.09,1.2-3.79.23-3.79-2.18a8.31,8.31,0,0,1,3.77-6.55" fill="#121929"/>
            <path id="Trazado_152991" data-name="Trazado 152991" d="M58.75,368.41c2-1.14,3.59-.22,3.6,2a7.88,7.88,0,0,1-3.58,6.19c-2,1.14-3.57.22-3.58-2.06a7.86,7.86,0,0,1,3.56-6.18" fill="#29364b"/>
          </g>
          <g id="Grupo_90570" data-name="Grupo 90570">
            <path id="Trazado_152992" data-name="Trazado 152992" d="M61.76,337.72c2.1-1.22,3.8-.24,3.81,2.17a8.34,8.34,0,0,1-3.79,6.56c-2.09,1.2-3.79.23-3.8-2.18a8.35,8.35,0,0,1,3.78-6.55" fill="#121929"/>
            <path id="Trazado_152993" data-name="Trazado 152993" d="M62.88,348.92l-3.65-2.14,5.24-9.32,3.79,2.21Z" fill="#121929"/>
            <path id="Trazado_152994" data-name="Trazado 152994" d="M65.6,340c2.11-1.22,3.81-.23,3.82,2.17a8.36,8.36,0,0,1-3.79,6.56c-2.09,1.21-3.79.24-3.8-2.18A8.34,8.34,0,0,1,65.6,340" fill="#121929"/>
            <path id="Trazado_152995" data-name="Trazado 152995" d="M65.61,340.21c2-1.15,3.58-.22,3.59,2a7.84,7.84,0,0,1-3.57,6.19c-2,1.14-3.58.23-3.58-2.05a7.84,7.84,0,0,1,3.56-6.18" fill="#29364b"/>
          </g>
          <g id="Grupo_90571" data-name="Grupo 90571">
            <path id="Trazado_152996" data-name="Trazado 152996" d="M112.74,333c2.1-1.21,3.8-.23,3.81,2.18a8.29,8.29,0,0,1-3.79,6.55c-2.09,1.21-3.79.24-3.79-2.18a8.34,8.34,0,0,1,3.77-6.55" fill="#121929"/>
            <path id="Trazado_152997" data-name="Trazado 152997" d="M113.87,344.17l-3.66-2.15,5.24-9.31,3.79,2.21Z" fill="#121929"/>
            <path id="Trazado_152998" data-name="Trazado 152998" d="M116.59,335.21c2.1-1.22,3.8-.23,3.81,2.17a8.36,8.36,0,0,1-3.79,6.56c-2.09,1.2-3.79.24-3.8-2.18a8.32,8.32,0,0,1,3.78-6.55" fill="#121929"/>
            <path id="Trazado_152999" data-name="Trazado 152999" d="M116.59,335.45c2-1.14,3.59-.21,3.59,2.05a7.84,7.84,0,0,1-3.57,6.19c-2,1.14-3.58.22-3.58-2.06a7.85,7.85,0,0,1,3.56-6.18" fill="#29364b"/>
          </g>
          <path id="Trazado_153000" data-name="Trazado 153000" d="M63.48,337.1a3.08,3.08,0,0,1,2.61-.09l24.26,10.17,21.33-13.32.13-.09c.58-.33,1.93-1.52,2.71-1.3,1,.27.92,2,.45,2.6L100.62,350.2l35.31,7.39c.21,0,.87-.91,1-.83.52.23.37,1.63.29,2a1.09,1.09,0,0,1-.56.69,3,3,0,0,1-1.6.32l-36.33-3L102.52,375v1.16a.94.94,0,0,1-.57.92,2.639,2.639,0,0,1-.78.28,2.45,2.45,0,0,1-2.46-.73L87.4,357.84,57.88,367.91a3,3,0,0,1-2.37-.31c-.64-.45-.87-2-.16-2.43,0,0,.69-.12.74-.15l26.12-13.15L63.32,338.6c-.54-.4-.84-2-.28-2.45.05,0,.39,1,.44,1" fill="#9bbfff"/>
          <path id="Trazado_153001" data-name="Trazado 153001" d="M63.48,335.75a3.12,3.12,0,0,1,2.61-.09L90.35,343l21.33-10.43a.57.57,0,0,1,.13-.08,3.06,3.06,0,0,1,2.25-.23c1,.27,1.38.95.91,1.52l-14.35,12.25,35.31,10.23c.86.16,1.44.66,1.33,1.2a1.08,1.08,0,0,1-.56.68,2.88,2.88,0,0,1-1.6.33l-36.33-5.86,3.75,22.26a.93.93,0,0,1-.57.92,2.39,2.39,0,0,1-.78.28,2.45,2.45,0,0,1-2.46-.73L87.4,353.69,57.88,366.77a3,3,0,0,1-2.37-.32c-.64-.45-.56-1.11.15-1.52l.15-.08,26.4-17.12L63.32,337.26a.8.8,0,0,1,0-1.4l.16-.11" fill="#c9deff"/>
          <path id="Trazado_153002" data-name="Trazado 153002" d="M98,335.92v11.34h0a3.24,3.24,0,0,1-1.9,2.62,9.94,9.94,0,0,1-9,0,3.19,3.19,0,0,1-1.88-2.62v-11.1Z" fill="#9bbfff"/>
          <path id="Trazado_153003" data-name="Trazado 153003" d="M87.05,333.53a10,10,0,0,1,9.08,0c2.49,1.45,2.46,3.8,0,5.25a9.94,9.94,0,0,1-9,0c-2.5-1.45-2.51-3.8,0-5.25" fill="#c9deff"/>
          <path id="Trazado_153004" data-name="Trazado 153004" d="M97.45,325.64V336h0a3,3,0,0,1-1.75,2.41,9.11,9.11,0,0,1-8.29,0A2.92,2.92,0,0,1,85.7,336V325.86Z" fill="#86abf4"/>
          <path id="Trazado_153005" data-name="Trazado 153005" d="M87.42,323.45a9.19,9.19,0,0,1,8.33,0c2.29,1.33,2.25,3.49,0,4.82a9.11,9.11,0,0,1-8.29,0c-2.28-1.33-2.29-3.49,0-4.82" fill="#9bbfff"/>
          <path id="Trazado_153006" data-name="Trazado 153006" d="M68.48,298.83c10.74,15.79,50.36-20.48,50.36-20.48-2.74,12.46,4.17,20.61,1.81,46.18a2.12,2.12,0,0,0,.42,1.5,8.48,8.48,0,0,0,4.94,3.44c4.21.72,6.71-.76,7.79-1.67a2,2,0,0,0,.71-1.37c.48-4.79,3.14-31.83,3.52-41.6.3-7.52,1.52-23.08-10.7-25.7-8.83-1.89-38.1,9.58-38.1,9.58S56.62,281.4,68.48,298.83Z" fill="#121929"/>
          <path id="Trazado_153007" data-name="Trazado 153007" d="M143.25,293.93l-36.81-21.25c-5.83-3.37-15.17-3.5-21.24-.3l-40,21.09c-6.5,3.43-6.71,9.31-.48,12.91l40.55,23.41c6.24,3.6,16.4,3.47,22.3-.32l36.27-23.24c5.51-3.53,5.25-8.94-.58-12.3" fill="#1b3b8b"/>
          <path id="Trazado_153008" data-name="Trazado 153008" d="M44.07,294.12a11,11,0,0,1,1.12-.65l40-21.09c6.07-3.2,15.41-3.07,21.24.3l36.81,21.25a10.26,10.26,0,0,1,3.55,3.19c-3.3,3.86-10.72,5.55-14.86,7.25-7.47,3.06-14,7.82-20.71,12.28-3.29,2.21-6.54,4.72-10.45,5.63a22.72,22.72,0,0,1-12.5-.62c-6.75-2.35-12-7.89-18.06-11.5a67.4,67.4,0,0,0-11.61-5.51c-3.28-1.2-6.5-2.69-9.64-4.21-2-1-4.08-2.47-4.71-4.71A5.54,5.54,0,0,1,44.07,294.12Z" fill="#214c9e"/>
          <path id="Trazado_153009" data-name="Trazado 153009" d="M108.6,173.16c0-.87-2-4.64-2.91-6.34-.82-5.57-1.74-10.08-1.74-10.08-6.3-5.34-21.29,17.84-21.29,17.84L81,195.88c8.08,7.44,15.58,3.23,15.58,3.23.17-9.67,6.48-7.8,9.34-12,1.22-1.8,1.22-6.65.75-11.95C107.6,174.55,108.58,173.76,108.6,173.16Z" fill="#ffc597"/>
          <path id="Trazado_153010" data-name="Trazado 153010" d="M81.57,191.15c7.75,2.35,12.12-1.19,14.3-7.68,0,0,.51-.77-2.46-1.66s-4.15-10.07-1.09-9.36,2.91,4.91,4.21,5.26,2-.87,1.06-3.79,4.66-3.6,2.86-7a6.16,6.16,0,0,1,3-8.78c3.53-1.66,1.25-15.24-1.46-14.45s-3.25,3.5-4.86.38-2.89-5.49-5.31-4.11-.88,3.21-3.72,2.06-3.4-.35-4.38,1.67.66,3.2-2.6,3.48-2.2,3.16-5.29,5.87-8.65,4-8.11,13.56S74.55,189,81.57,191.15Z" fill="#29364b"/>
          <path id="Trazado_153011" data-name="Trazado 153011" d="M109.42,182.4c-.07-.37-.43-.36-.73-.37l-1.35-.06a23.321,23.321,0,0,1-3.9-.46,17.761,17.761,0,0,1-2.76-.89c-.45-.18-.88-.37-1.32-.57a5.5,5.5,0,0,0-1.22-.53.5.5,0,0,0-.59.42c-.13.57.61.83,1,1,.59.32,1.19.6,1.8.86a19.08,19.08,0,0,0,7.47,1.56,3.56,3.56,0,0,0,1.16-.22.67.67,0,0,0,.47-.62A.45.45,0,0,0,109.42,182.4Z" fill="#4470c2"/>
          <path id="Trazado_153012" data-name="Trazado 153012" d="M113.38,182.37a1.48,1.48,0,0,0-.9-1.34,2.19,2.19,0,0,0-.67-.07,12.743,12.743,0,0,0-2,.15,2.56,2.56,0,0,0-1.68.72,1.42,1.42,0,0,0,1.16,2.16,7.88,7.88,0,0,0,2.74,0,1.47,1.47,0,0,0,1.32-1.3,1.3,1.3,0,0,0,.03-.32Z" fill="#121929"/>
          <g id="Grupo_90572" data-name="Grupo 90572">
            <path id="Trazado_153013" data-name="Trazado 153013" d="M93.66,171.62c2.3-1.33,4.16-.25,4.17,2.37a9.07,9.07,0,0,1-4.14,7.17c-2.29,1.32-4.15.27-4.15-2.38a9.12,9.12,0,0,1,4.12-7.16" fill="#121929"/>
            <path id="Trazado_153014" data-name="Trazado 153014" d="M94.9,183.87l-4-2.34,5.73-10.19,4.14,2.41Z" fill="#121929"/>
            <path id="Trazado_153015" data-name="Trazado 153015" d="M97.87,174.07c2.3-1.33,4.16-.25,4.17,2.38a9.13,9.13,0,0,1-4.14,7.17c-2.29,1.32-4.15.26-4.16-2.39a9.14,9.14,0,0,1,4.13-7.16" fill="#121929"/>
            <path id="Trazado_153016" data-name="Trazado 153016" d="M97.87,174.34c2.17-1.25,3.92-.24,3.93,2.24a8.58,8.58,0,0,1-3.9,6.77c-2.16,1.24-3.91.24-3.92-2.25a8.6,8.6,0,0,1,3.89-6.76" fill="#29364b"/>
            <path id="Trazado_153017" data-name="Trazado 153017" d="M97.87,175c1.77-1.08,3.2-.21,3.21,1.92a7.43,7.43,0,0,1-3.19,5.81c-1.75,1.07-3.18.21-3.19-1.93a7.45,7.45,0,0,1,3.17-5.8" fill="none" stroke="#4470c2" stroke-miterlimit="10" stroke-width="0.2"/>
          </g>
          <path id="Trazado_153018" data-name="Trazado 153018" d="M75.51,227.82l-.67,7.1q8.41-3.46,16.8-7a74.408,74.408,0,0,0,7.52-3.51,22.579,22.579,0,0,0,3.8-2.37,6.09,6.09,0,0,0,2-4.32c.12-.85.62-2.15,1.72-2,.7.12.93,1.12,1.52,1a5,5,0,0,0,1.94-1,8.411,8.411,0,0,1,2-1.17,4.52,4.52,0,0,1,2.38-.32.86.86,0,0,1,.51.23.4.4,0,0,1,.06.52,3.83,3.83,0,0,1,1.84-.09,1.49,1.49,0,0,1,.78.37.68.68,0,0,1,.13.8,3.35,3.35,0,0,1,1.3,0,1.41,1.41,0,0,1,1,.77,2.16,2.16,0,0,1-.39,1.78,1.18,1.18,0,0,1,.76-.09.81.81,0,0,1,.5.64,1.47,1.47,0,0,1-.13.82,2.68,2.68,0,0,1-.58.9,5.651,5.651,0,0,1-.86.69c-1.28.9-2.49,1.83-3.81,2.67l-5.39,3.41c-3.79,2.4-7.79,4.63-11.41,7.26s-7.29,5-11,7.33c-5.28,3.26-10.69,6.72-16.47,9a7.13,7.13,0,0,1-2.51.7C62,252,59.58,245.4,60.43,231Z" fill="#ffc597"/>
          <path id="Trazado_153019" data-name="Trazado 153019" d="M76.54,233.41s-6,3.51-17.58,3.69c0,0,.26-28.31,7.47-34.73S77.42,213.58,76.54,233.41Z" fill="#fc3c3c"/>
          <path id="Trazado_153020" data-name="Trazado 153020" d="M147.12,269.71c-8.83-1.89-39.68,6.34-39.68,6.34l-44-5s-3.73,18.34.18,25.68,14.72,11.61,25.2,14.87c18.24,5.67,50.36-20.49,50.36-20.49s-.05.28-.08.42h0l4.12,2.38c5.83,3.36,6.09,8.77.58,12.3l-3.68,2.36h0a96.469,96.469,0,0,1,1.54,29.18,2.12,2.12,0,0,0,.3,1.32,6.72,6.72,0,0,0,4.4,3.17,12.55,12.55,0,0,0,8.73-1.62,2,2,0,0,0,1-1.63c.33-5.42,1.92-31.79,2.3-41.39C158.71,290.1,159.34,272.33,147.12,269.71Z" fill="#29364b"/>
          <path id="Trazado_153021" data-name="Trazado 153021" d="M63.47,271.07a93.249,93.249,0,0,0-1.57,13.59l21.49-11.33Z" fill="#29364b"/>
          <path id="Trazado_153022" data-name="Trazado 153022" d="M110.79,275.19l-4.35-2.51c-5.83-3.37-15.17-3.5-21.24-.3l-1.81.95,24,2.72S108.71,275.71,110.79,275.19Z" fill="#1b3b8b"/>
          <g id="Grupo_90573" data-name="Grupo 90573">
            <path id="Trazado_153023" data-name="Trazado 153023" d="M139.13,291.55h0l3.64,2.1h0c.1-1.15.41-2.25.56-3.39.09-.61.26-1.19-.21-1.69-1-1.11-3.13.1-4.17.51a120.181,120.181,0,0,0-14.12,6.74c-4.71,2.61-9.4,5.1-14.74,6.1a46.209,46.209,0,0,1-17.54.21C87,301,79,297.56,75.94,292.7c-3.85-6-3.2-19.45-3.2-19.45-.11-.41-.23-.8-.37-1.17l-8.9-1s-3.73,18.34.18,25.68,14.72,11.61,25.2,14.87c18.24,5.67,50.36-20.49,50.36-20.49S139.16,291.41,139.13,291.55Z" fill="#1c2838"/>
            <path id="Trazado_153024" data-name="Trazado 153024" d="M146.21,322.46c.07-5.72-1.31-10.95-2.37-16.24h0l-3.68,2.36h0a96.47,96.47,0,0,1,1.54,29.18,2.12,2.12,0,0,0,.3,1.32,6.72,6.72,0,0,0,4.4,3.17c.28.05.55.06.83.09a24.3,24.3,0,0,1-.35-2.7C146.48,334.16,146.15,327.93,146.21,322.46Z" fill="#1c2838"/>
          </g>
          <path id="Trazado_153025" data-name="Trazado 153025" d="M110.29,211.16s-7.07-8.93-13.68-12c0,0-4.67-.47-9-.79A13.47,13.47,0,0,1,81,195.88s-8.61,2-12.48,5c-4.07,3.14-7.95,18.51-6.36,31s.63,29.94,0,34.58c-1.2,8.88,7.29,17.14,18.43,17.93,14.63,1,30.92-2.51,30.39-9.78C109.86,258.76,110.29,211.16,110.29,211.16Z" fill="#ff4a4a"/>
          <path id="Trazado_153026" data-name="Trazado 153026" d="M117.05,246.55l.3,7.26q8.41-3.47,16.79-7a76.755,76.755,0,0,0,7.52-3.52,21.581,21.581,0,0,0,3.8-2.37,6,6,0,0,0,2-4.31c.11-.85.62-2.15,1.72-2,.7.12.93,1.11,1.52,1a4.79,4.79,0,0,0,1.93-1,8.38,8.38,0,0,1,2-1.16,4.64,4.64,0,0,1,2.38-.33,1.07,1.07,0,0,1,.52.23.43.43,0,0,1,.06.53,3.78,3.78,0,0,1,1.83-.09,1.46,1.46,0,0,1,.78.37.66.66,0,0,1,.13.8,3.35,3.35,0,0,1,1.3,0,1.37,1.37,0,0,1,1,.77,2.16,2.16,0,0,1-.38,1.78,1.12,1.12,0,0,1,.76-.09.8.8,0,0,1,.5.63,1.58,1.58,0,0,1-.13.83,3,3,0,0,1-.59.9,5.63,5.63,0,0,1-.85.68c-1.28.91-2.5,1.83-3.82,2.67l-5.39,3.42c-3.78,2.4-7.79,4.62-11.4,7.26s-7.3,5-11,7.33c-5.27,3.25-10.69,6.71-16.46,9a7.179,7.179,0,0,1-2.52.7c-6.73,0-9.55-7.37-8.7-21.82Z" fill="#ffc597"/>
          <path id="Trazado_153027" data-name="Trazado 153027" d="M119.38,247.16a48.63,48.63,0,0,1-19,5.27s-1.73-32.48,5.12-40.19S119.17,224.69,119.38,247.16Z" fill="#fc3c3c"/>
          <path id="Trazado_153028" data-name="Trazado 153028" d="M36.41,232.81a1,1,0,0,0,1.16-.09c.74,7.35,3.68,14.64,6.43,21.42,6.55,16.19,16.64,31,27.84,44.18,2.3,2.71,4.32,6.31,7.46,8.12a8.86,8.86,0,0,0,11-1.6A15.11,15.11,0,0,0,93.46,297,98.681,98.681,0,0,0,94,274.11c-.6-7,.29-14.39-2.23-21.07-2.12-5.63-6.55-10.19-11.38-13.62-5.05-3.59-10.74-6.08-16.26-8.82-4.94-2.45-9.93-5.92-15.51-6.66-3.54-.47-8.95-.58-11.86,1.9C34.69,227.64,33.72,231.16,36.41,232.81Z" fill="#2a5db0"/>
          <path id="Trazado_153029" data-name="Trazado 153029" d="M42.66,227.32l36.73,21.21c4.73,2.73,8.57,9.35,8.55,14.81L87.83,302c0,5.44-3.87,7.64-8.6,4.9L42.49,285.69c-4.73-2.73-8.56-9.37-8.55-14.8l.11-38.67c0-5.45,3.87-7.63,8.61-4.9" fill="#1b3b8b"/>
          <path id="Trazado_153030" data-name="Trazado 153030" d="M54.17,319.43l10.52,6.05L63.47,260.1a1.06,1.06,0,0,0-.52-.89l-9.5-5.54a1.06,1.06,0,0,0-1.59.91v60.87a4.58,4.58,0,0,0,2.31,3.98Z" fill="#c9deff"/>
          <path id="Trazado_153031" data-name="Trazado 153031" d="M72.13,322.21l-7.42-4.28-.61,5.17,2.94,2.38Z" fill="#86abf4"/>
          <path id="Trazado_153032" data-name="Trazado 153032" d="M72.13,322.21l-3.21,1.85c-2.31,1.34-4.19.26-4.2-2.39l-.12-61.82a1.7,1.7,0,0,0-.87-1.49l-9.19-5.19a1.2,1.2,0,0,0-1.16,0l-.88.46a1.24,1.24,0,0,1,1,.06L62.58,259a1.71,1.71,0,0,1,.85,1.48l.11,61.83c0,3.4,2.43,4.78,5.39,3.07l4.37-2.52Z" fill="#9bbfff"/>
          <g id="Grupo_90574" data-name="Grupo 90574">
            <path id="Trazado_153033" data-name="Trazado 153033" d="M118.32,323.45l-.93-.28-1.19-26.03,3.97-.48Z" fill="#86abf4"/>
            <path id="Trazado_153034" data-name="Trazado 153034" d="M118.32,323.45l-.14-27.05,7.65-3.7-1.64,27.37Z" fill="#9bbfff"/>
            <path id="Trazado_153035" data-name="Trazado 153035" d="M136.24,289.68v-2.24l-.88.29-1.15-2.55a1.2,1.2,0,0,0-.5-.5,3,3,0,0,0-2.72,0L112.55,295.4l-6.86,2.31v2.18h0a1,1,0,0,0,.57.75,2.69,2.69,0,0,0,.87.29l7.76,1.16c.63.37,5.92-2.12,11.82-5.54S136.87,290,136.24,289.68Z" fill="#9bbfff"/>
            <path id="Trazado_153036" data-name="Trazado 153036" d="M133.71,282.44a3,3,0,0,0-2.72,0l-24.74,14.38a.838.838,0,0,0,0,1.58,2.471,2.471,0,0,0,.87.28l7.76,1.17c.63.37,5.92-2.12,11.82-5.54s10.16-6.5,9.53-6.86l-2-4.5a1.2,1.2,0,0,0-.5-.5" fill="#c9deff"/>
          </g>
          <path id="Trazado_153037" data-name="Trazado 153037" d="M78.68,196.51l2.59-3.71a33.39,33.39,0,0,0,15.79,2.72l1.88,4.87S84.62,202,78.68,196.51Z" fill="#fc3c3c"/>
          <path id="Trazado_153038" data-name="Trazado 153038" d="M92,176s1.44-10.7-3.2-15.68-13.38-7.24-15.91-5.13a8.79,8.79,0,0,1,4.91-4.74s18.3-5.59,19.26,22.2Z" fill="#121929"/>
        </g>
      </g>
    </g>
  </g>
</svg>
