<svg id="Capa_1" data-name="Capa 1" xmlns="http://www.w3.org/2000/svg" width="110" height="110" viewBox="0 0 110 110">
  <defs>
    <style>
      .cls-1 {
        fill: none;
      }

      .cls-2 {
        fill: #6558b8;
      }

      .cls-3 {
        fill: #9e9e9e;
      }

      .cls-4 {
        fill: #d3aa9c;
      }

      .cls-5 {
        fill: #efc4b1;
      }

      .cls-6 {
        fill: #e2bdaf;
      }

      .cls-7 {
        fill: #c9a095;
      }

      .cls-8 {
        fill: #f9ceb7;
      }

      .cls-9 {
        fill: #ddb4a2;
      }

      .cls-10 {
        fill: #e53d3c;
      }

      .cls-11 {
        fill: #cc2d29;
      }

      .cls-12 {
        fill: #ff0;
      }

      .cls-13 {
        fill: #b2b2b2;
      }

      .cls-14 {
        fill: #6f678c;
      }

      .cls-15 {
        fill: #f3d9c3;
      }

      .cls-16 {
        fill: #2a4149;
      }

      .cls-17 {
        fill: #af7a5d;
      }

      .cls-18 {
        fill: #0f0140;
      }
    </style>
  </defs>
  <rect class="cls-1" width="110" height="110"/>
  <circle class="cls-2" cx="55" cy="55" r="50"/>
  <g>
    <g>
      <path class="cls-3" d="M37.53,86.17h0c.28,1,1,6.76,1.38,7.69.8-1.09,6.92-4.35,7.39-5.63C45.31,88.47,38.42,85.89,37.53,86.17Z"/>
      <path class="cls-3" d="M72.43,86.17h0c-.28,1-1,6.76-1.38,7.69-.8-1.09-6.92-4.35-7.39-5.63C64.65,88.47,71.53,85.89,72.43,86.17Z"/>
    </g>
    <g>
      <path class="cls-4" d="M96.71,110H55V75.45h9.53c0,.23-.06.45-.08.67-.45,4.27-.2,9.13,3,12.69a14,14,0,0,0,6.18,3.8,55.19,55.19,0,0,0,6.8,1.63c4.2.8,8.93,1.49,12.14,4.08a10.66,10.66,0,0,1,3.51,5.36,15.55,15.55,0,0,1,.6,4.33C96.7,108.67,96.69,109.34,96.71,110Z"/>
      <path class="cls-5" d="M55,75.45V110H13.29c0-.66,0-1.33,0-2a15.55,15.55,0,0,1,.6-4.33,10.66,10.66,0,0,1,3.51-5.36c3.21-2.59,7.94-3.28,12.14-4.08a55.19,55.19,0,0,0,6.8-1.63,14,14,0,0,0,6.18-3.8c3.21-3.56,3.46-8.42,3-12.69,0-.22,0-.44-.08-.67Z"/>
    </g>
    <path class="cls-6" d="M55,87.47V79.88c-3,.8-6.71-1.22-9.4-3.25a30.75,30.75,0,0,1-.05,5.91c2.41,2.21,5.1,4.14,8.15,4.76A11.57,11.57,0,0,0,55,87.47Z"/>
    <path class="cls-7" d="M55,87.47V79.88c3,.8,6.71-1.22,9.4-3.25a30.75,30.75,0,0,0,0,5.91c-2.41,2.21-5.1,4.14-8.15,4.76A11.57,11.57,0,0,1,55,87.47Z"/>
    <path class="cls-8" d="M55,27V81.72a29.06,29.06,0,0,1-11.59-7.11,36.41,36.41,0,0,1-7.35-11.14C32.79,56,31.43,47.75,31,39.65,36,31.52,45.66,27.25,55,27Z"/>
    <path class="cls-9" d="M55,27V81.72a29.06,29.06,0,0,0,11.59-7.11,36.41,36.41,0,0,0,7.35-11.14c3.27-7.47,4.63-15.72,5-23.82C74,31.52,64.34,27.25,55,27Z"/>
    <path class="cls-10" d="M53.49,65.34a5.51,5.51,0,0,0-2,1.06c-.56.43-1.86,1.79-2.78,2l.1.09c1.88,1.88,3.58,3.32,6.17,3.75V65.75A1.78,1.78,0,0,0,53.49,65.34Z"/>
    <path class="cls-11" d="M56.51,65.34a5.51,5.51,0,0,1,2,1.06c.56.43,1.86,1.79,2.78,2l-.1.09c-1.88,1.88-3.58,3.32-6.17,3.75V65.75A1.78,1.78,0,0,1,56.51,65.34Z"/>
    <path class="cls-8" d="M29.72,51.89c-.27-1.56.41-4,2.9-2.48A52.37,52.37,0,0,0,33.86,57,7.62,7.62,0,0,1,29.72,51.89Z"/>
    <path class="cls-9" d="M80.28,51.89c.27-1.56-.41-4-2.9-2.48A52.37,52.37,0,0,1,76.14,57,7.62,7.62,0,0,0,80.28,51.89Z"/>
    <path class="cls-12" d="M77.74,56.85a1,1,0,1,0-1,1A1,1,0,0,0,77.74,56.85Z"/>
    <path class="cls-13" d="M96.09,103.68a10.66,10.66,0,0,0-3.51-5.36c-3.21-2.59-7.94-3.28-12.14-4.08a55.19,55.19,0,0,1-6.8-1.63q-.52-.17-1-.36a19.67,19.67,0,0,1-5.68,4.11,24.1,24.1,0,0,1-4.81,1.69,13.61,13.61,0,0,1-4.26.62c-1,3.61-1.5,7.39-2.87,11h0c-1.37-3.57-1.88-7.35-2.87-11a13.61,13.61,0,0,1-4.26-.62,24.1,24.1,0,0,1-4.81-1.69,19.67,19.67,0,0,1-5.68-4.11q-.5.19-1,.36a55.19,55.19,0,0,1-6.8,1.63c-4.2.8-8.93,1.49-12.14,4.08a10.66,10.66,0,0,0-3.51,5.36,15.55,15.55,0,0,0-.6,4.33c0,.66,0,1.33,0,2H96.71c0-.66,0-1.33,0-2A15.55,15.55,0,0,0,96.09,103.68Z"/>
    <path class="cls-14" d="M34.93,93c-1.76.49-3.56.86-5.37,1.2-4.2.8-8.93,1.49-12.14,4.08a10.66,10.66,0,0,0-3.51,5.36,15.55,15.55,0,0,0-.6,4.33c0,.66,0,1.33,0,2H48.08C42.72,105.13,38,99.69,34.93,93Z"/>
    <path class="cls-14" d="M61.92,110H96.71c0-.66,0-1.33,0-2a15.55,15.55,0,0,0-.6-4.33,10.66,10.66,0,0,0-3.51-5.36c-3.21-2.59-7.94-3.28-12.14-4.08-1.81-.34-3.61-.71-5.37-1.2C72,99.69,67.28,105.13,61.92,110Z"/>
    <g>
      <path class="cls-15" d="M43.93,96.44c-3.49-2.14-5.21-6.2-6.4-10.27h0c-.11-.08-3.31,3.91-5,6.1l0,0c1.11,6.68,2.55,10.82,8.62,14,1,.51,2,1,3,1.43,0,0,5.19-5.79,8-9.12A19.37,19.37,0,0,1,43.93,96.44Z"/>
      <path class="cls-15" d="M77.49,92.26c-.78-1-1.86-2.37-2.82-3.56a23.29,23.29,0,0,0-2.19-2.54h0a21.64,21.64,0,0,1-3.9,8.1,10.62,10.62,0,0,1-2.5,2.17,19.37,19.37,0,0,1-8.15,2.19c2.82,3.33,8,9.12,8,9.12,1-.44,2-.92,3-1.43,6.07-3.2,7.51-7.34,8.62-14Z"/>
    </g>
    <g>
      <path class="cls-16" d="M75.55,45.21a.7.7,0,0,0-.69-.54H74a8.27,8.27,0,0,1-1.42-.09,8.85,8.85,0,0,1-1.09-.3c-.31-.1-.63-.21-1-.28a17.73,17.73,0,0,0-3.87-.39h-.33a16.57,16.57,0,0,0-7,1.34,9.22,9.22,0,0,1-3.56.85h-.23a3.61,3.61,0,0,0-.57,0,3.61,3.61,0,0,0-.57,0H54.2a9.22,9.22,0,0,1-3.56-.85,16.57,16.57,0,0,0-7-1.34h-.33a17.73,17.73,0,0,0-3.87.39c-.32.07-.64.18-1,.28a8.85,8.85,0,0,1-1.09.3,8.27,8.27,0,0,1-1.42.09h-.85a.71.71,0,0,0-.7.54v3.45a.81.81,0,0,0,.77.61h.16a6.71,6.71,0,0,1,0,.72v0c0,2.58.81,5.7,3.14,6.74a9.7,9.7,0,0,0,3.71.63h.4c3,0,5.33-.53,7-1.63a8.54,8.54,0,0,0,2.45-2.58,8.81,8.81,0,0,0,.66-1.42c.5-1.24,1-2.41,2.27-2.55,1.33.15,1.79,1.31,2.29,2.55a8.81,8.81,0,0,0,.66,1.42,8.54,8.54,0,0,0,2.45,2.58c1.65,1.1,3.93,1.63,7,1.63h.4a9.7,9.7,0,0,0,3.71-.63c2.33-1,3.15-4.16,3.14-6.74v0a6.71,6.71,0,0,1,0-.72h.16a.79.79,0,0,0,.76-.61V45.21ZM73,51.16a9.54,9.54,0,0,1-.51,2.09,3.88,3.88,0,0,1-1.23,2,4.89,4.89,0,0,1-1.91.62h0a14.09,14.09,0,0,1-3.86.1,10.34,10.34,0,0,1-3.6-.86,5.78,5.78,0,0,1-2.68-2.73,14.64,14.64,0,0,1-.94-2.47A5.64,5.64,0,0,1,58,47.76a4,4,0,0,1,1.34-1.31,2.71,2.71,0,0,1,.45-.23l.08,0A9.26,9.26,0,0,1,61,45.75,15.79,15.79,0,0,1,66.24,45c2.16.07,5.89.56,6.62,3.09A8.52,8.52,0,0,1,73,51.16ZM51.76,49.89a14.64,14.64,0,0,1-.94,2.47,5.78,5.78,0,0,1-2.68,2.73,10.34,10.34,0,0,1-3.6.86c-.62.06-1.18.08-1.7.08h0a12,12,0,0,1-2.16-.18h0a4.84,4.84,0,0,1-1.9-.62,3.88,3.88,0,0,1-1.23-2A9.68,9.68,0,0,1,37,51.16a8.52,8.52,0,0,1,.13-3.09c.73-2.53,4.46-3,6.62-3.09h.44a16,16,0,0,1,4.8.78,9.26,9.26,0,0,1,1.17.44l.08,0a2.71,2.71,0,0,1,.45.23A4,4,0,0,1,52,47.76,5.64,5.64,0,0,1,51.76,49.89Z"/>
      <g>
        <polygon class="cls-15" points="36.78 45.8 35.3 45.8 35.3 47.29 36.78 45.8"/>
        <polygon class="cls-15" points="73.22 45.8 74.7 45.8 74.7 47.29 73.22 45.8"/>
      </g>
    </g>
    <path class="cls-17" d="M80.3,21.07a24.22,24.22,0,0,0-1.94-2.64c-4.08-4.84-9.84-7.92-16.42-7.45a14.27,14.27,0,0,0-6.75,2.16.43.43,0,0,0-.28.15l-.08.1a3.43,3.43,0,0,0-.33.24c-4.17-1.77-9.19-.77-13.21,1a28.55,28.55,0,0,0-11.47,9.62,27.74,27.74,0,0,0-5.23,14c-.44,5.76,1.82,11.33,5.13,16a14.24,14.24,0,0,0,3.7,3.95.42.42,0,0,0,.42,0c-.13-.46-.25-.91-.37-1.37A7.36,7.36,0,0,1,29.91,52c-.23-1.35.26-3.36,2-2.84,0-.23-.07-.45-.1-.68a13.89,13.89,0,0,0,.48-1.55,19.93,19.93,0,0,1,.93-2.36,33.63,33.63,0,0,1,2.29-4.42,32.74,32.74,0,0,1,8.71-9.08c.27-.2.55-.39.83-.58.6-.27,1.2-.52,1.81-.75a31.67,31.67,0,0,1,5-1A20,20,0,0,0,53,31.21a27.64,27.64,0,0,0,1.83,2.9h0a89.45,89.45,0,0,0,6.21,7.3c.47.52,1,1,1.44,1.55l.47.48a60.07,60.07,0,0,0,4.43,4.18,16.28,16.28,0,0,0,3.35,2.29c.7.35,1.41.65,2.13,1l.28.36.55.78c.22.33.43.66.62,1s.25.47.36.7a9.36,9.36,0,0,1,1,3.82,7.45,7.45,0,0,1-.2,1.85A9.06,9.06,0,0,1,75,60.87a38,38,0,0,1-2.36,4.2.57.57,0,0,0,.3.85.67.67,0,0,0,.67-.11c1.52-1.26,3.28-2.17,4.75-3.51a22.13,22.13,0,0,0,3.86-4.76A28.48,28.48,0,0,0,86,45.88,38.37,38.37,0,0,0,80.3,21.07ZM71.62,50a13.51,13.51,0,0,1-3.48-2.47c-1.44-1.36-2.78-2.83-4.1-4.32l-.46-.51-1.23-1.38-.66-.75,2.44,2,.62.5a53.63,53.63,0,0,1,7.72,7.33Z"/>
    <path class="cls-12" d="M34.25,56.85a1,1,0,0,0-2,0,1,1,0,1,0,2,0Z"/>
    <g>
      <path class="cls-14" d="M78.5,58.15a34.81,34.81,0,0,1-2.36,7.1,13.47,13.47,0,0,1-5.41,5.68A32.28,32.28,0,0,1,63,74.16c-.33.09-.66.17-1,.24-.49-.92-2.27-1.45-4.3-1.21-2.3.28-4.06,1.44-3.92,2.61s2.12,1.89,4.43,1.61c2-.24,3.57-1.14,3.87-2.13.47-.11.94-.22,1.38-.34a30.66,30.66,0,0,0,8.14-3.35c4.91-2.92,6.6-7.88,8-13.14A.56.56,0,0,0,78.5,58.15Z"/>
      <path class="cls-14" d="M30,45.34a2.82,2.82,0,0,1,2,.33c1.66.88,2.45,5.37,2.7,7,.29,1.93,1.42,7.19-1.27,7.8C31,61,28.4,58,27.45,53.86S27.63,45.86,30,45.34Z"/>
      <path class="cls-14" d="M80,45.34a2.82,2.82,0,0,0-2,.33c-1.66.88-2.45,5.37-2.7,7-.29,1.93-1.42,7.19,1.27,7.8,2.33.52,5-2.45,5.92-6.63S82.37,45.86,80,45.34Z"/>
      <path class="cls-18" d="M81.79,48.21a14.15,14.15,0,0,0,.2-2,24.12,24.12,0,0,0-.46-11,22.19,22.19,0,0,0-3.11-6.93,17.18,17.18,0,0,0-3-3.62c-.54-.51-1.1-1-1.69-1.46A24.38,24.38,0,0,0,55,18.43a24.38,24.38,0,0,0-18.69,4.83c-.59.46-1.15.95-1.69,1.46a17.18,17.18,0,0,0-3,3.62,22.19,22.19,0,0,0-3.11,6.93,24.12,24.12,0,0,0-.46,11,14.15,14.15,0,0,0,.2,2c-1.4.54-2.05,3-1.45,5.64s2.4,4.78,3.95,4.43c1.81-.4,1-3.93.85-5.22a15.17,15.17,0,0,0-.88-3.45,30.53,30.53,0,0,1-.84-4.13,23.7,23.7,0,0,1,.05-5.77,22.67,22.67,0,0,1,4.51-11,24,24,0,0,1,20-8.94.7.7,0,0,0,.44.07l.15,0,.15,0a.7.7,0,0,0,.44-.07,24,24,0,0,1,20,8.94,22.67,22.67,0,0,1,4.51,11,23.7,23.7,0,0,1,0,5.77,30.53,30.53,0,0,1-.84,4.13,15.17,15.17,0,0,0-.88,3.45c-.19,1.29-1,4.82.85,5.22,1.55.35,3.32-1.63,3.95-4.43S83.19,48.75,81.79,48.21Z"/>
    </g>
  </g>
</svg>
