<svg id="Capa_1" data-name="Capa 1" xmlns="http://www.w3.org/2000/svg" width="110" height="110" viewBox="0 0 110 110">
  <defs>
    <style>
      .cls-1 {
        fill: none;
      }

      .cls-2 {
        fill: #6558b8;
      }

      .cls-3 {
        fill: #635050;
      }

      .cls-4 {
        fill: #d3aa9c;
      }

      .cls-5 {
        fill: #efc4b1;
      }

      .cls-6 {
        fill: #e2bdaf;
      }

      .cls-7 {
        fill: #c9a095;
      }

      .cls-8 {
        fill: #f9ceb7;
      }

      .cls-9 {
        fill: #ddb4a2;
      }

      .cls-10 {
        fill: #e07394;
      }

      .cls-11 {
        fill: #d35470;
      }

      .cls-12 {
        fill: #f3d9c3;
      }

      .cls-13 {
        fill: #0f0140;
      }

      .cls-14 {
        fill: #6f678c;
      }

      .cls-15 {
        fill: #d8d5ed;
      }
    </style>
  </defs>
  <rect class="cls-1" width="110" height="110"/>
  <circle class="cls-2" cx="55" cy="55" r="50"/>
  <g>
    <path class="cls-3" d="M83.39,37.37a30.34,30.34,0,0,0-.55-4.69,30.94,30.94,0,0,0-4.92-11.85c-3.24-4.3-8.1-8.7-13.61-8.83a8.93,8.93,0,0,0-4.89,1.22,4.47,4.47,0,0,0-.89,1,5,5,0,0,0-1.73,1.29.12.12,0,0,0,0,.14c1,1.48,2.6,1.68,4.2,1.79a.6.6,0,0,0,0,.32,2.21,2.21,0,0,0,.7.93c-.49-.06-1-.11-1.47-.14A3.33,3.33,0,0,0,57,22a3.29,3.29,0,0,0,2.58,3.27l0,0c.32.62,1.13.86,1.78,1.09a1.94,1.94,0,0,0,.25,2.79c1.83,1.48,4.19,2.19,6.25,3.19a22.81,22.81,0,0,1,5.39,3.45,11,11,0,0,1,2.55,3.38c0,.1,0,.2.08.3.11.5.21,1,.29,1.51,0,.26.09.52.13.78s0,.35,0,.53a45.16,45.16,0,0,1-.75,14.16c-.24,1.14-.51,2.28-.82,3.4a1.46,1.46,0,0,0-1.72.52,33.1,33.1,0,0,0-2.68,4.53l-.39.69a13.48,13.48,0,0,1-2.63,2.7c-1.42,1-1,3.68.93,3.59a2.31,2.31,0,0,0,.46,0,9.48,9.48,0,0,1-1.37,1.39s0,.07,0,.06c3.09-1.49,6.4-4.82,8.55-7.54a27.82,27.82,0,0,0,4.73-9.92C82.32,50.1,83.65,43.57,83.39,37.37Z"/>
    <path class="cls-4" d="M96.71,110H55V75.45h9.53c0,.23-.06.45-.08.67-.45,4.27-.2,9.13,3,12.69a14,14,0,0,0,6.18,3.8,55.19,55.19,0,0,0,6.8,1.63c4.2.8,8.93,1.49,12.14,4.08a10.66,10.66,0,0,1,3.51,5.36,15.55,15.55,0,0,1,.6,4.33C96.7,108.67,96.69,109.34,96.71,110Z"/>
    <path class="cls-5" d="M55,75.45V110H13.29c0-.66,0-1.33,0-2a15.55,15.55,0,0,1,.6-4.33,10.66,10.66,0,0,1,3.51-5.36c3.21-2.59,7.94-3.28,12.14-4.08a55.19,55.19,0,0,0,6.8-1.63,14,14,0,0,0,6.18-3.8c3.21-3.56,3.46-8.42,3-12.69,0-.22,0-.44-.08-.67Z"/>
    <path class="cls-6" d="M55,87.78V80.2C52,81,48.29,79,45.6,77a30.75,30.75,0,0,1-.05,5.91c2.41,2.2,5.1,4.13,8.15,4.75A9.64,9.64,0,0,0,55,87.78Z"/>
    <path class="cls-7" d="M55,87.78V80.2C58,81,61.71,79,64.4,77a30.75,30.75,0,0,0,0,5.91C62,85.06,59.35,87,56.3,87.61A9.64,9.64,0,0,1,55,87.78Z"/>
    <path class="cls-8" d="M55,27.79V82.47a29,29,0,0,1-11.59-7.11,36.41,36.41,0,0,1-7.35-11.14C32.79,56.75,31.43,48.5,31,40.4,36,32.27,45.66,28,55,27.79Z"/>
    <path class="cls-9" d="M55,27.79V82.47a29,29,0,0,0,11.59-7.11,36.41,36.41,0,0,0,7.35-11.14c3.27-7.47,4.63-15.72,5-23.82C74,32.27,64.34,28,55,27.79Z"/>
    <path class="cls-10" d="M55,65.74v6.5c-2.75.27-4.82-1.77-5.79-4.06a11.32,11.32,0,0,0,2.3-2.44,2.67,2.67,0,0,1,1.61-1A2,2,0,0,1,55,65.74Z"/>
    <path class="cls-11" d="M55,65.74v6.5c2.75.27,4.82-1.77,5.79-4.06a11.32,11.32,0,0,1-2.3-2.44,2.67,2.67,0,0,0-1.61-1A2,2,0,0,0,55,65.74Z"/>
    <path class="cls-9" d="M79.34,56c.27-1.55-.41-4-2.9-2.47a52.24,52.24,0,0,1-1.24,7.61A7.6,7.6,0,0,0,79.34,56Z"/>
    <path class="cls-9" d="M76.67,52.84a52.37,52.37,0,0,1-1.24,7.62,7.68,7.68,0,0,0,4.14-5.14C79.84,53.76,79.15,51.32,76.67,52.84Z"/>
    <path class="cls-3" d="M64.65,10.13v0a6.36,6.36,0,0,0-4.06.47,5.1,5.1,0,0,0-1.33,1.1,3.78,3.78,0,0,0-.39-.41,3.28,3.28,0,0,0-2.95-.62.06.06,0,0,0,0,.12,3,3,0,0,1,1.32.65c-3.55-1-8.63.89-11.49,1.95A29,29,0,0,0,29,28.75,38.13,38.13,0,0,0,26,40a42.5,42.5,0,0,0,.09,9.09,42.18,42.18,0,0,0,3.29,12.59,21.81,21.81,0,0,0,4.36,6l0,0a28.76,28.76,0,0,1-.94-3c.18.29.36.58.55.87a22.71,22.71,0,0,0,2.44,4,28.82,28.82,0,0,0,5,4.76l0,0c-.61-1.29-1.11-2.6-1.64-3.91C38.89,69,38,67.46,37.7,66a27,27,0,0,1,.52-13.82c-.2,1.3-.34,2.61-.43,3.91a26.86,26.86,0,0,0,2,12.24s.08,0,.07,0a38.88,38.88,0,0,1-.34-11.5A38.71,38.71,0,0,1,42.62,45a34.25,34.25,0,0,1,6.59-9.77c.4-.43.81-.84,1.23-1.24A32.15,32.15,0,0,1,54,31.84a30.06,30.06,0,0,1,6.35-2.6c1.38-.37,2.78-.65,4.15-1,.09,0,.08-.13,0-.16a12.49,12.49,0,0,0-2.58-.56A4.26,4.26,0,0,0,63,22.18l-.07-.13a3.54,3.54,0,0,0-.19-.33,3.49,3.49,0,0,0,1.67-3.8c-.31-2-1.85-3-3.67-3.27.36-.76.59-1.62,1-2.34A5.51,5.51,0,0,1,64.65,10.13Z"/>
    <path class="cls-12" d="M58.89,96.66l-1.06,0a10.28,10.28,0,0,0-2.6,0h-.44a10.28,10.28,0,0,0-2.6,0l-1.06,0a25.94,25.94,0,0,1-8.35-1.58,17.11,17.11,0,0,1-5-3,12.43,12.43,0,0,1-1.41.53,55.19,55.19,0,0,1-6.8,1.63c-4.2.8-8.93,1.49-12.14,4.08a10.66,10.66,0,0,0-3.51,5.36,15.55,15.55,0,0,0-.6,4.33c0,.66,0,1.33,0,2H96.71c0-.66,0-1.33,0-2a15.55,15.55,0,0,0-.6-4.33,10.66,10.66,0,0,0-3.51-5.36c-3.21-2.59-7.94-3.28-12.14-4.08a55.19,55.19,0,0,1-6.8-1.63c-.48-.15-1-.33-1.4-.52a17.38,17.38,0,0,1-5,3A25.94,25.94,0,0,1,58.89,96.66Z"/>
    <g>
      <path class="cls-13" d="M96.69,108a15.55,15.55,0,0,0-.6-4.33,11.12,11.12,0,0,0-1.22-2.76,10,10,0,0,0-2.29-2.6c-3.21-2.59-7.94-3.28-12.14-4.08-2-.38-4-.79-5.93-1.36h-.05A52.55,52.55,0,0,1,62.52,110H96.71C96.69,109.34,96.7,108.67,96.69,108Z"/>
      <path class="cls-13" d="M39.22,99.9l-.07-.11c-.19-.29-.37-.59-.55-.89h0c-.33-.54-.65-1.1-1-1.66l-.18-.33-.31-.6-.3-.59c-.09-.18-.18-.35-.26-.53s-.24-.5-.35-.75-.14-.28-.2-.43c-.17-.37-.33-.75-.49-1.13a59.62,59.62,0,0,1-6,1.37c-4.2.8-8.93,1.49-12.14,4.08a10.24,10.24,0,0,0-2.26,2.55,11.39,11.39,0,0,0-1.25,2.81,15.55,15.55,0,0,0-.6,4.33c0,.66,0,1.33,0,2H47.48a60,60,0,0,1-7.68-9.21C39.6,100.5,39.41,100.2,39.22,99.9Z"/>
    </g>
    <path class="cls-14" d="M35.52,92.59a17.61,17.61,0,0,0-5.06-.82A87.17,87.17,0,0,0,37.64,110h14.3C45.88,105.78,40.28,99.48,35.52,92.59Z"/>
    <path class="cls-14" d="M74.48,92.59a17.61,17.61,0,0,1,5.06-.82A87.17,87.17,0,0,1,72.36,110H58.06C64.12,105.78,69.72,99.48,74.48,92.59Z"/>
    <g>
      <path class="cls-14" d="M77.6,59.13A33.39,33.39,0,0,1,75.33,66a12.86,12.86,0,0,1-5.2,5.46,31.26,31.26,0,0,1-7.43,3.11l-1,.23c-.47-.88-2.18-1.39-4.13-1.16-2.22.26-3.91,1.39-3.78,2.51s2,1.81,4.26,1.55c1.92-.23,3.44-1.1,3.73-2l1.33-.33A29.73,29.73,0,0,0,71,72.06c4.71-2.81,6.34-7.58,7.65-12.64A.54.54,0,0,0,77.6,59.13Z"/>
      <path class="cls-14" d="M30.92,46.81a2.71,2.71,0,0,1,1.9.32c1.6.85,2.36,5.17,2.6,6.75.28,1.86,1.37,6.92-1.23,7.5C32,61.89,29.41,59,28.51,55S28.68,47.31,30.92,46.81Z"/>
      <path class="cls-14" d="M79.08,46.81a2.71,2.71,0,0,0-1.9.32c-1.6.85-2.36,5.17-2.6,6.75-.28,1.86-1.37,6.92,1.23,7.5C78,61.89,80.59,59,81.49,55S81.32,47.31,79.08,46.81Z"/>
      <path class="cls-15" d="M80.76,49.58A12.11,12.11,0,0,0,81,47.69a23.27,23.27,0,0,0-.43-10.56,21.89,21.89,0,0,0-3-6.67A16.44,16.44,0,0,0,74.6,27c-.52-.49-1-1-1.62-1.4a23.4,23.4,0,0,0-18-4.64,23.4,23.4,0,0,0-18,4.64c-.57.44-1.1.91-1.62,1.4a16.44,16.44,0,0,0-2.93,3.48,21.89,21.89,0,0,0-3,6.67,23.27,23.27,0,0,0-.43,10.56,12.11,12.11,0,0,0,.19,1.89c-1.35.51-2,2.85-1.4,5.41s2.31,4.61,3.8,4.27c1.74-.39,1-3.78.82-5a14.85,14.85,0,0,0-.85-3.32,29.72,29.72,0,0,1-.81-4,23.42,23.42,0,0,1,.05-5.55,21.85,21.85,0,0,1,4.34-10.59,23.06,23.06,0,0,1,19.25-8.59.68.68,0,0,0,.41.06l.15,0,.15,0a.68.68,0,0,0,.41-.06,23.06,23.06,0,0,1,19.25,8.59A21.85,21.85,0,0,1,79.15,41.4a23.42,23.42,0,0,1,0,5.55,29.72,29.72,0,0,1-.81,4,14.85,14.85,0,0,0-.85,3.32c-.18,1.24-.92,4.63.82,5,1.49.34,3.2-1.57,3.8-4.27S82.11,50.09,80.76,49.58Z"/>
    </g>
  </g>
</svg>
