<svg id="Capa_1" data-name="Capa 1" xmlns="http://www.w3.org/2000/svg" width="110" height="110" viewBox="0 0 110 110">
  <defs>
    <style>
      .cls-1 {
        fill: none;
      }

      .cls-2 {
        fill: #6558b8;
      }

      .cls-3 {
        fill: #091320;
      }

      .cls-4 {
        fill: #995542;
      }

      .cls-5 {
        fill: #7f4638;
      }

      .cls-6 {
        fill: #68372d;
      }

      .cls-7 {
        fill: #bc6a57;
      }

      .cls-8 {
        fill: #d8d5ed;
      }

      .cls-9 {
        fill: #f3d9c3;
      }
    </style>
  </defs>
  <rect class="cls-1" width="110" height="110"/>
  <circle class="cls-2" cx="55" cy="55" r="50"/>
  <g>
    <g>
      <path class="cls-3" d="M84.27,32a6.84,6.84,0,0,0,1.11-4.9,7.31,7.31,0,0,0-1.31-3c-.34-.51-.18-.54,0-1.21A6.61,6.61,0,0,0,84.49,21a5.63,5.63,0,0,0-1.37-3.77c-.36-.42-.92-.73-1.23-1.17a4.4,4.4,0,0,1-.42-1.22,4.9,4.9,0,0,0-4-3.44A6,6,0,0,0,72.25,8c-.39,0-1.06-1.16-1.37-1.44A7,7,0,0,0,66.77,5,11.11,11.11,0,0,0,62.18,2a8.61,8.61,0,0,0-7.16,1L54.59,3a9.48,9.48,0,0,0-4-.82c-2.48.06-5.52,1.38-6.83,3.63a9.3,9.3,0,0,0-3.5,0,5.73,5.73,0,0,0-3.44,2.58,7.14,7.14,0,0,0-5.33,1.73,6.76,6.76,0,0,0-2.16,5.52,6.56,6.56,0,0,0-3.14,3.59,6.49,6.49,0,0,0,.21,4.9,7.05,7.05,0,0,0-.71,8.12A5.9,5.9,0,0,0,24.83,37a5.31,5.31,0,0,0,1.78,2.9,2.66,2.66,0,0,0,.56.32c.08.79.17,1.57.3,2.35.4,2.48,1.52,5,4.09,5.77a1.35,1.35,0,0,0,1.23-.21,7.86,7.86,0,0,0,2.43.09,10.43,10.43,0,0,0,5.15-2.15c3.08-2.32,5.27-5.59,7.79-8.47,2.17-2.49,4.48-4.85,6.85-7.13,2.37,2.28,4.68,4.64,6.85,7.13,2.52,2.88,4.71,6.15,7.79,8.47a10.43,10.43,0,0,0,5.15,2.15,7.86,7.86,0,0,0,2.43-.09,1.35,1.35,0,0,0,1.23.21,5.2,5.2,0,0,0,3.2-2.86A5,5,0,0,0,83,43.28,6.3,6.3,0,0,0,83,40,6.83,6.83,0,0,0,84.27,32Z"/>
      <path class="cls-4" d="M55,110V74.14H41.46a29,29,0,0,1-.21,8c-.57,3.06-1.94,6.73-4.62,8.77-3.53,2.7-9.5.89-13.75,1.56a31.18,31.18,0,0,0-5.94,1.14c-6.21,1.89-12.39,7.16-13.08,13.52a15.49,15.49,0,0,0,9,2.86Z"/>
      <path class="cls-5" d="M93.08,93.62a31.18,31.18,0,0,0-5.94-1.14c-4.26-.67-10.22,1.14-13.75-1.56-2.68-2-4-5.71-4.62-8.77a29,29,0,0,1-.21-8H55V110H97a15.45,15.45,0,0,0,9.18-3C105.38,100.7,99.25,95.5,93.08,93.62Z"/>
      <path class="cls-5" d="M55,88V77.4c-4.14.95-9-.94-13.09-3.26h-.46a29,29,0,0,1-.21,8v0a28,28,0,0,0,11.68,5.51A18.31,18.31,0,0,0,55,88Z"/>
      <path class="cls-6" d="M55,77.4V88a18.31,18.31,0,0,0,2.09-.24A28,28,0,0,0,68.78,82.2v0a29,29,0,0,1-.21-8H68.1C64.06,76.46,59.15,78.35,55,77.4Z"/>
      <path class="cls-7" d="M28.78,51.27c-.54-2.24.21-5.84,4-3.88a76,76,0,0,0,2.54,10.94C31.87,56.77,29.48,54.14,28.78,51.27Z"/>
      <path class="cls-4" d="M81.24,51.27c.54-2.24-.21-5.84-4-3.88a74.74,74.74,0,0,1-2.55,10.94C78.15,56.77,80.54,54.14,81.24,51.27Z"/>
      <path class="cls-4" d="M80.83,33.9c-.48,8.58-3.75,16.79-5.71,25.24-.84,3.67-1.59,7.61-3.29,11.07a21.69,21.69,0,0,1-3.6,5.05c-1.4,1.55-2.55,3.37-4.22,4.67-2.64,2.06-5.83,1.83-9,1.86V20.41C65.47,20.7,75.22,25.35,80.83,33.9Z"/>
      <path class="cls-7" d="M29.19,33.9c.48,8.58,3.75,16.79,5.7,25.24.85,3.67,1.6,7.61,3.3,11.07a21.69,21.69,0,0,0,3.6,5.05c1.4,1.55,2.54,3.37,4.22,4.67,2.63,2.06,5.83,1.83,9,1.86V20.41C44.55,20.7,34.8,25.35,29.19,33.9Z"/>
      <path class="cls-8" d="M93.08,93.62a31.18,31.18,0,0,0-5.94-1.14c-3.53-.56-8.24.6-11.76-.54a6.77,6.77,0,0,1-1.9-1,18.26,18.26,0,0,1-5.61,3.25,29.13,29.13,0,0,1-8.78,1.56l-1.12,0a11.86,11.86,0,0,0-2.73,0h-.46a11.86,11.86,0,0,0-2.73,0l-1.12,0a29.13,29.13,0,0,1-8.78-1.56A18.14,18.14,0,0,1,36.54,91a6.77,6.77,0,0,1-1.9,1c-3.52,1.14-8.23,0-11.76.54a31.18,31.18,0,0,0-5.94,1.14c-6.21,1.89-12.39,7.16-13.08,13.52a15.49,15.49,0,0,0,9,2.86H97a15.45,15.45,0,0,0,9.18-3C105.38,100.7,99.25,95.5,93.08,93.62Z"/>
      <path class="cls-3" d="M69.21,17.87A36.81,36.81,0,0,0,58,15.49c-1-.06-2-.07-3,0s-2,0-3,0A36.94,36.94,0,0,0,40.8,17.87C33.89,20.55,26.4,25.55,27,34a20.71,20.71,0,0,0,3.88,10.84c0,.28.08.56.13.85a15.32,15.32,0,0,0,2.35,6.65c.06.08.22.11.27,0,.88-2.07.64-4.32.64-6.53,0-2.48,0-5,0-7.45a26.74,26.74,0,0,1,.31-6.81c.48-1.86,2.13-2.87,3.41-4.13,1.62-1.59,3.2-2.84,5.54-3.13,3.65-.46,6.17,1.89,9.23,3.4A29.56,29.56,0,0,0,59.53,30,28.53,28.53,0,0,0,68,30.7a18.19,18.19,0,0,0,6.12-1.58,5.84,5.84,0,0,1,1.25,2.38,26.74,26.74,0,0,1,.31,6.81c0,2.48,0,5,0,7.45,0,2.21-.24,4.46.64,6.53.05.11.21.08.27,0A15.32,15.32,0,0,0,79,45.64c0-.29.08-.57.12-.85A20.64,20.64,0,0,0,83,34C83.62,25.55,76.13,20.55,69.21,17.87Z"/>
      <path class="cls-9" d="M51.15,105.61,55,95.8a33.29,33.29,0,0,1-10.32-4.62c-1.53-1-3-2.12-4.42-3.26l-2.21-1.76c-.11-.08-1.78-1.21-1.77-1.24a18.42,18.42,0,0,1-3.24,7.34l0,0a58.2,58.2,0,0,0,15.15,11.88C49.14,104.69,50.13,105.17,51.15,105.61Z"/>
      <path class="cls-9" d="M58.87,105.61,55,95.8a33.29,33.29,0,0,0,10.32-4.62c1.53-1,3-2.12,4.42-3.26L72,86.16c.11-.08,1.78-1.21,1.77-1.24A18.28,18.28,0,0,0,77,92.26l0,0a58.2,58.2,0,0,1-15.15,11.88C60.88,104.69,59.88,105.17,58.87,105.61Z"/>
      <path class="cls-8" d="M75.67,46.41a.51.51,0,0,1-.06.48,1.06,1.06,0,0,1-.79.32c-.21,2.4-1.41,5.41-3.68,6.84A6.11,6.11,0,0,1,67.9,55a8.1,8.1,0,0,1-4-1.15,12.65,12.65,0,0,1-3.23-2.65c-1.06-1.22-2.9-3.63-3.26-6.1,0,0,0-.08,0-.12a3.79,3.79,0,0,0-.91-.73,3,3,0,0,0-.65-.26l-.09,0-.17,0-.25,0h-.69l-.23,0-.19,0-.08,0a3.27,3.27,0,0,0-.65.26,3.61,3.61,0,0,0-.91.73s0,.08,0,.12c-.36,2.47-2.2,4.88-3.26,6.1a12.65,12.65,0,0,1-3.23,2.65,8.1,8.1,0,0,1-4,1.15,6.11,6.11,0,0,1-3.24-.94c-2.27-1.43-3.47-4.44-3.68-6.84a1.06,1.06,0,0,1-.79-.32.51.51,0,0,1-.06-.48.88.88,0,0,1,.88-.6,5.86,5.86,0,0,1,.13-.75A7.2,7.2,0,0,1,40.08,40a14.8,14.8,0,0,1,4.48-.56c.54,0,1.09,0,1.61,0a11.22,11.22,0,0,1,3,.39,4.49,4.49,0,0,1,1.21-.25c1-.11,2-.18,3.1-.22.44,0,.89,0,1.39,0h.32c.5,0,1,0,1.39,0,1.09,0,2.11.11,3.1.22a4.23,4.23,0,0,1,1.2.26,10.91,10.91,0,0,1,3-.4c.52,0,1.07,0,1.61,0a14.8,14.8,0,0,1,4.48.56,7.2,7.2,0,0,1,4.74,5.06,5.86,5.86,0,0,1,.13.75A.88.88,0,0,1,75.67,46.41Zm-1.37.51a7.76,7.76,0,0,0,0-1,6.53,6.53,0,0,0-.14-.77,6.65,6.65,0,0,0-4.38-4.68A14.46,14.46,0,0,0,65.44,40c-.55,0-1.11,0-1.59,0a7.19,7.19,0,0,0-4.59,1.3,3.75,3.75,0,0,0-1.35,2.81A4.56,4.56,0,0,0,58,45c.36,2.42,2.32,4.88,3.14,5.82a9.6,9.6,0,0,0,6.8,3.61,5.47,5.47,0,0,0,2.95-.85c2.15-1.35,3.28-4.26,3.44-6.54ZM59.61,40.4l-.35,0h-.14c-1.07,0-2.15-.06-3-.07H53.84c-.81,0-1.89,0-3,.07h-.15l-.34,0a4.72,4.72,0,0,1,.7.5,4.26,4.26,0,0,1,1.51,2.8,3.51,3.51,0,0,1,.4-.27.4.4,0,0,1,.18-.16,4.07,4.07,0,0,1,1.7-.38h.24a4.1,4.1,0,0,1,1.7.38.4.4,0,0,1,.18.16,3.51,3.51,0,0,1,.4.27,4.51,4.51,0,0,1,2.21-3.3ZM52,45a4.56,4.56,0,0,0,.05-.89,3.75,3.75,0,0,0-1.35-2.81A7.19,7.19,0,0,0,46.15,40c-.48,0-1,0-1.59,0a14.46,14.46,0,0,0-4.31.53,6.65,6.65,0,0,0-4.38,4.68,5.86,5.86,0,0,0-.14.77,7.76,7.76,0,0,0,0,1v.13c.16,2.28,1.29,5.19,3.44,6.54a5.47,5.47,0,0,0,3,.85,9.6,9.6,0,0,0,6.8-3.61C49.72,49.89,51.68,47.43,52,45Z"/>
    </g>
    <g>
      <g>
        <path class="cls-9" d="M79.31,55.17a36.77,36.77,0,0,1-2.44,7.34,13.87,13.87,0,0,1-5.6,5.88,33.47,33.47,0,0,1-8,3.34l-1,.26c-.51-1-2.35-1.51-4.44-1.26-2.39.29-4.21,1.5-4.07,2.7s2.2,1.95,4.59,1.67c2.06-.25,3.69-1.18,4-2.21l1.42-.34a32.31,32.31,0,0,0,8.42-3.47c5.08-3,6.83-8.16,8.24-13.6A.58.58,0,0,0,79.31,55.17Z"/>
        <path class="cls-9" d="M29.1,41.92a3,3,0,0,1,2,.34c1.71.92,2.54,5.56,2.79,7.26.3,2,1.47,7.45-1.32,8.07-2.4.54-5.14-2.53-6.11-6.85S26.69,42.46,29.1,41.92Z"/>
        <path class="cls-9" d="M80.9,41.92a3,3,0,0,0-2.05.34c-1.71.92-2.54,5.56-2.79,7.26-.3,2-1.47,7.45,1.32,8.07,2.4.54,5.14-2.53,6.11-6.85S83.31,42.46,80.9,41.92Z"/>
      </g>
      <path class="cls-8" d="M82.71,44.9a12.59,12.59,0,0,0,.2-2,25,25,0,0,0-.46-11.35,23.64,23.64,0,0,0-3.22-7.17,17.85,17.85,0,0,0-3.15-3.74,20.92,20.92,0,0,0-1.74-1.51,25.24,25.24,0,0,0-19.34-5,25.24,25.24,0,0,0-19.34,5,20.92,20.92,0,0,0-1.74,1.51,17.85,17.85,0,0,0-3.15,3.74,23.37,23.37,0,0,0-3.21,7.17,24.9,24.9,0,0,0-.47,11.35,12.59,12.59,0,0,0,.2,2c-1.45.55-2.12,3.07-1.5,5.82s2.48,5,4.09,4.59c1.86-.42,1.08-4.06.88-5.4a15.92,15.92,0,0,0-.92-3.57A34,34,0,0,1,29,42.07a24.84,24.84,0,0,1,.06-6,23.45,23.45,0,0,1,4.66-11.39,24.86,24.86,0,0,1,20.7-9.24.74.74,0,0,0,.45.07l.16,0,.16,0a.74.74,0,0,0,.45-.07,24.86,24.86,0,0,1,20.7,9.24A23.45,23.45,0,0,1,81,36.1a24.84,24.84,0,0,1,.06,6,34,34,0,0,1-.87,4.27,15.92,15.92,0,0,0-.92,3.57c-.2,1.34-1,5,.88,5.4,1.61.36,3.44-1.69,4.09-4.59S84.16,45.45,82.71,44.9Z"/>
    </g>
  </g>
</svg>
