<svg id="Capa_1" data-name="Capa 1" xmlns="http://www.w3.org/2000/svg" width="110" height="110" viewBox="0 0 110 110">
  <defs>
    <style>
      .cls-1 {
        fill: none;
      }

      .cls-2 {
        fill: #6558b8;
      }

      .cls-3 {
        fill: #f9ceb7;
      }

      .cls-4 {
        fill: #ddb4a2;
      }

      .cls-5 {
        fill: #af7a5d;
      }

      .cls-6 {
        fill: #ff0;
      }

      .cls-7 {
        fill: #d3aa9c;
      }

      .cls-8 {
        fill: #efc4b1;
      }

      .cls-9 {
        fill: #e2bdaf;
      }

      .cls-10 {
        fill: #c9a095;
      }

      .cls-11 {
        fill: #e07394;
      }

      .cls-12 {
        fill: #d35470;
      }

      .cls-13 {
        fill: #d8d5ed;
      }

      .cls-14 {
        fill: #2a4149;
      }

      .cls-15 {
        fill: #f3d9c3;
      }

      .cls-16 {
        fill: #6f678c;
      }
    </style>
  </defs>
  <rect class="cls-1" width="110" height="110"/>
  <circle class="cls-2" cx="55" cy="55" r="50"/>
  <g>
    <path class="cls-3" d="M50.48,30.32a21.14,21.14,0,0,1,2.44,4A26.23,26.23,0,0,1,55,41.12V24.92a15.19,15.19,0,0,1-1.64,2.58A15.71,15.71,0,0,1,50.48,30.32Z"/>
    <path class="cls-4" d="M55.34,24.11c.08-.22.15-.44.22-.66l-.56,0v1.5C55.13,24.65,55.24,24.38,55.34,24.11Z"/>
    <path class="cls-4" d="M55.49,48.93A41,41,0,0,0,55,41.12V59.59C55.23,56,55.41,52.48,55.49,48.93Z"/>
    <path class="cls-5" d="M84.43,30.48A40.89,40.89,0,0,0,81.2,24.2a26.13,26.13,0,0,0-5.87-8.38l0,0A18.11,18.11,0,0,0,68,10.62a36.89,36.89,0,0,0-8.83-2.13c.45-.42.92-.84,1.4-1.23.09-.07,0-.21-.06-.24a4,4,0,0,0-3.7,1,6.35,6.35,0,0,0-.94-.86,5.22,5.22,0,0,0-2.48-.88.08.08,0,0,0-.08.14,11.32,11.32,0,0,1,1.17,1.82A36.61,36.61,0,0,0,42,10.62,18.11,18.11,0,0,0,34.7,15.8l0,0A26.13,26.13,0,0,0,28.8,24.2a40.89,40.89,0,0,0-3.23,6.28,36,36,0,0,0-2.07,21.3.08.08,0,0,0,.16,0A47.75,47.75,0,0,1,24.35,44a31.49,31.49,0,0,0,6.56,18.56s.1,0,.08,0A63.47,63.47,0,0,1,28.56,55q.29.74.6,1.44a26.58,26.58,0,0,0,4.7,7.1,24.14,24.14,0,0,0,3,2.74l.51.39c-.62-1.15-1.2-2.32-1.72-3.52-3.36-7.68-4.75-16.17-5.18-24.51,5.12-8.35,15-12.74,24.55-13,9.56.24,19.43,4.63,24.55,13-.43,8.34-1.82,16.83-5.18,24.51-.52,1.2-1.1,2.37-1.72,3.52l.51-.39a24.14,24.14,0,0,0,3-2.74,26.58,26.58,0,0,0,4.7-7.1q.31-.7.6-1.44A63.47,63.47,0,0,1,79,62.49s0,.09.08,0A31.49,31.49,0,0,0,85.65,44a47.75,47.75,0,0,1,.69,7.78.08.08,0,0,0,.16,0A36,36,0,0,0,84.43,30.48Z"/>
    <path class="cls-4" d="M77.67,49.57a55.72,55.72,0,0,1-1.32,8.06,8.06,8.06,0,0,0,4.38-5.44C81,50.55,80.29,48,77.67,49.57Z"/>
    <path class="cls-3" d="M29.27,52.19a8.06,8.06,0,0,0,4.38,5.44,55.72,55.72,0,0,1-1.32-8.06C29.71,48,29,50.55,29.27,52.19Z"/>
    <path class="cls-6" d="M33.07,56.39a1.06,1.06,0,1,0-1.06,1A1.06,1.06,0,0,0,33.07,56.39Z"/>
    <path class="cls-6" d="M79,56.39a1.06,1.06,0,1,0-1.05,1A1,1,0,0,0,79,56.39Z"/>
    <path class="cls-4" d="M65.08,73.81H64.6A21.85,21.85,0,0,0,64,76.13c0,.16,0,.31-.08.47.32-.24.63-.49.94-.74,0-.45.07-.9.11-1.34C65,74.28,65,74.05,65.08,73.81Z"/>
    <path class="cls-7" d="M99.09,110H55V73.48H65.08c0,.24-.06.47-.09.71-.47,4.5-.21,9.64,3.18,13.4a14.83,14.83,0,0,0,6.53,4,57.89,57.89,0,0,0,7.19,1.72c4.44.85,9.45,1.57,12.84,4.32a11.25,11.25,0,0,1,3.71,5.65,16.27,16.27,0,0,1,.63,4.58C99.08,108.6,99.07,109.3,99.09,110Z"/>
    <path class="cls-8" d="M55,73.48V110H10.91c0-.7,0-1.4,0-2.11a16.65,16.65,0,0,1,.63-4.58,11.25,11.25,0,0,1,3.71-5.65c3.39-2.75,8.4-3.47,12.84-4.32a57.89,57.89,0,0,0,7.19-1.72,14.83,14.83,0,0,0,6.53-4c3.39-3.76,3.65-8.9,3.18-13.4,0-.24,0-.47-.09-.71Z"/>
    <path class="cls-9" d="M55,86.51v-8c-3.19.85-7.09-1.29-9.94-3.43a32.66,32.66,0,0,1,0,6.25c2.54,2.33,5.38,4.36,8.61,5A10.48,10.48,0,0,0,55,86.51Z"/>
    <path class="cls-10" d="M55,86.51v-8c3.2.85,7.1-1.29,9.94-3.43a32.67,32.67,0,0,0,0,6.25c-2.54,2.33-5.39,4.36-8.62,5A10.48,10.48,0,0,1,55,86.51Z"/>
    <path class="cls-3" d="M55,23.42V81.23a30.5,30.5,0,0,1-12.26-7.52A38.48,38.48,0,0,1,35,61.94c-3.46-7.9-4.89-16.61-5.34-25.18C34.93,28.17,45.13,23.65,55,23.42Z"/>
    <path class="cls-4" d="M55,23.42V81.23a30.5,30.5,0,0,0,12.26-7.52A38.48,38.48,0,0,0,75,61.94c3.46-7.9,4.89-16.61,5.34-25.18C75.07,28.17,64.87,23.65,55,23.42Z"/>
    <path class="cls-11" d="M55,64.51v6.87c-2.91.29-5.1-1.87-6.12-4.29a11.9,11.9,0,0,0,2.43-2.58,2.85,2.85,0,0,1,1.7-1.1A2.11,2.11,0,0,1,55,64.51Z"/>
    <path class="cls-12" d="M55,64.51v6.87c2.91.29,5.1-1.87,6.12-4.29a11.9,11.9,0,0,1-2.43-2.58,2.85,2.85,0,0,0-1.7-1.1A2.11,2.11,0,0,0,55,64.51Z"/>
    <path class="cls-5" d="M81.63,37.36c-.15-.43-.18-.91-.29-1.36a8.19,8.19,0,0,0-.44-1.35,2.14,2.14,0,0,0-2.42-1.47,19.12,19.12,0,0,0-3.64-4.33,24,24,0,0,0-7.44-4.49C66.23,23.9,65,23.47,63.87,23c1.46-2.68,2.2-5.53.94-8.19A2.71,2.71,0,0,0,64.45,13a3,3,0,0,0-3.39-1.39,5.24,5.24,0,0,0-2.56,1.95,2.65,2.65,0,0,0-2.44.33c-.22.16-.43.34-.64.51h0l0,.06A25.28,25.28,0,0,0,51.3,19L50,19.61c-3.28,1.45-6.6,2.79-9.82,4.35a2.15,2.15,0,0,0-1.28-.26,13,13,0,0,0-10.32,8.18,2.31,2.31,0,0,0,.63,2.67,2,2,0,0,0,.59.64,1.39,1.39,0,0,0-.08.54c0,2.77,3.82,4.35,6,5a13.44,13.44,0,0,0,5.2.43A9.51,9.51,0,0,1,38,42.47s0,.05,0,.06a13.16,13.16,0,0,0,5.68-.78A42,42,0,0,0,58.21,30.49c1.15-1.34,2.62-3,3.93-4.8.67.45,1.41.83,2,1.19C69.26,29.81,75,33.27,77.7,38.71a22.93,22.93,0,0,1,1.87,6.48c.16,1,.51-1.18.56-1.24.91-1,.47-2.53.39-3.83A2.38,2.38,0,0,0,81.63,37.36Z"/>
    <path class="cls-13" d="M59.19,96,58,96a11.9,11.9,0,0,0-2.8,0h-.47A11.82,11.82,0,0,0,52,96l-1.15,0a29,29,0,0,1-9-1.65,18.61,18.61,0,0,1-5.38-3.12c-.38.16-.77.3-1.17.43a57.89,57.89,0,0,1-7.19,1.72c-4.44.85-9.45,1.57-12.84,4.32a11.25,11.25,0,0,0-3.71,5.65,16.65,16.65,0,0,0-.63,4.58c0,.71,0,1.41,0,2.11H99.09c0-.7,0-1.4,0-2.11a16.27,16.27,0,0,0-.63-4.58,11.25,11.25,0,0,0-3.71-5.65c-3.39-2.75-8.4-3.47-12.84-4.32a57.89,57.89,0,0,1-7.19-1.72c-.39-.13-.78-.27-1.16-.42a18.75,18.75,0,0,1-5.37,3.11A29,29,0,0,1,59.19,96Z"/>
    <polygon class="cls-14" points="65.25 95.99 55 95.99 44.74 95.99 51.8 105.57 51.09 110 55 110 58.91 110 58.2 105.57 65.25 95.99"/>
    <path class="cls-15" d="M43.75,108.36,55,96a33.2,33.2,0,0,1-10.56-4.89c-1.58-1-3.06-2.24-4.53-3.44l-2.27-1.86c-.11-.09-3.39,4.14-5.12,6.44l0,.05a42.64,42.64,0,0,0,4.25,8A35.62,35.62,0,0,0,43.75,108.36Z"/>
    <path class="cls-15" d="M66.27,108.36,55,96a33.2,33.2,0,0,0,10.56-4.89c1.57-1,3.06-2.24,4.53-3.44l2.26-1.86c.12-.09,3.4,4.14,5.13,6.44l0,.05a42.64,42.64,0,0,1-4.25,8A35.62,35.62,0,0,1,66.27,108.36Z"/>
    <g>
      <path class="cls-16" d="M78.9,56.8A35.81,35.81,0,0,1,76.49,64,13.69,13.69,0,0,1,71,69.8a32.78,32.78,0,0,1-7.85,3.28l-1,.25c-.5-.94-2.31-1.48-4.37-1.23-2.35.28-4.13,1.46-4,2.65s2.15,1.92,4.5,1.64c2-.24,3.63-1.16,3.94-2.17.48-.11.95-.22,1.4-.34a31.38,31.38,0,0,0,8.28-3.41c5-3,6.71-8,8.09-13.36A.56.56,0,0,0,78.9,56.8Z"/>
      <path class="cls-16" d="M29.54,43.78a2.89,2.89,0,0,1,2,.33c1.69.91,2.5,5.47,2.75,7.14.29,2,1.45,7.32-1.29,7.93-2.37.54-5.06-2.48-6-6.74S27.18,44.31,29.54,43.78Z"/>
      <path class="cls-16" d="M80.46,43.78a2.89,2.89,0,0,0-2,.33c-1.69.91-2.5,5.47-2.75,7.14-.29,2-1.45,7.32,1.29,7.93,2.37.54,5.06-2.48,6-6.74S82.82,44.31,80.46,43.78Z"/>
      <path class="cls-13" d="M82.23,46.71a12.21,12.21,0,0,0,.2-2A24.48,24.48,0,0,0,82,33.55a22.87,22.87,0,0,0-3.17-7,17.75,17.75,0,0,0-3.09-3.68A21.85,21.85,0,0,0,74,21.34a24.76,24.76,0,0,0-19-4.91,24.76,24.76,0,0,0-19,4.91,21.85,21.85,0,0,0-1.71,1.48,17.75,17.75,0,0,0-3.09,3.68,22.87,22.87,0,0,0-3.17,7,24.48,24.48,0,0,0-.45,11.16,12.21,12.21,0,0,0,.2,2c-1.43.54-2.09,3-1.48,5.72s2.44,4.86,4,4.51c1.83-.41,1.06-4,.86-5.31a15.34,15.34,0,0,0-.9-3.51,33.08,33.08,0,0,1-.85-4.19,24.52,24.52,0,0,1,0-5.87,23.12,23.12,0,0,1,4.59-11.2A24.41,24.41,0,0,1,54.4,17.78a.72.72,0,0,0,.45.06l.15,0,.15,0a.72.72,0,0,0,.45-.06,24.41,24.41,0,0,1,20.34,9.08,23.12,23.12,0,0,1,4.59,11.2,24.52,24.52,0,0,1,0,5.87,33.08,33.08,0,0,1-.85,4.19,15.34,15.34,0,0,0-.9,3.51c-.2,1.32-1,4.9.86,5.31,1.58.35,3.38-1.66,4-4.51S83.66,47.25,82.23,46.71Z"/>
    </g>
  </g>
</svg>
