<svg id="Capa_1" data-name="Capa 1" xmlns="http://www.w3.org/2000/svg" width="140" height="140" viewBox="0 0 140 140">
  <defs>
    <style>
      .cls-1 {
        fill: #8b82ca;
        stroke: #2f237d;
        stroke-miterlimit: 10;
        stroke-width: 6px;
      }

      .cls-2 {
        fill: #fff;
      }
    </style>
  </defs>
  <circle class="cls-1" cx="70" cy="70" r="60"/>
  <g>
    <path class="cls-2" d="M27.63,55A20.38,20.38,0,0,0,29,62.24a14,14,0,0,0,8.13,19.34,20.31,20.31,0,0,1-.1,2.92,43,43,0,0,1-1.34,7.3c-.35,1.25-3,8.67-3.45,9.74a10.51,10.51,0,0,1-.72,1.32,9.94,9.94,0,0,0-1.18,2.43,1.6,1.6,0,0,0,.26,1.37,1.57,1.57,0,0,0,1.24.62l28.59.08A1.58,1.58,0,0,0,62,106.23c1.42-5.08,4.26-12.51,6.47-14.46,1.12.48,2.34,1.1,3.54,1.71A28.32,28.32,0,0,0,77.83,96a4.46,4.46,0,0,0,1,.12,4.75,4.75,0,0,0,4.46-3.64A7.88,7.88,0,0,0,83.71,89c0-.31-.11-.66-.17-1a3.77,3.77,0,0,1-.13-1.38c.07-.27.12-.5.16-.71a4,4,0,0,1,.11-.47l.21-.18a1.84,1.84,0,0,0,.64-1.61c-.17-1.14-1.69-2.3-4.51-3.45,5.85-1.29,6.13-1.55,6.48-1.88,1.22-1.13.46-2.58,0-3.44-.15-.29-.32-.62-.49-1a2.23,2.23,0,0,1-.11-1.12A4.82,4.82,0,0,1,87.1,72a7.74,7.74,0,0,0,1.25-.79,4,4,0,0,0,1.77-2.52,5.55,5.55,0,0,0-1.55-3.82c-.69-.92-1.28-1.64-1.83-2.3a19.72,19.72,0,0,1-3.13-4.66,3,3,0,0,1-.17-.41c0-.29.42-.7.85-1.13A5.06,5.06,0,0,0,86,53.42a4.9,4.9,0,0,0-.31-2.18c-.21-.6-.44-1.17-.68-1.74a16.91,16.91,0,0,1-1-2.78l0-.16a38,38,0,0,0-1.12-4.35A23.69,23.69,0,0,0,78.3,34a20.75,20.75,0,0,0-11.64-6.15,70.7,70.7,0,0,0-11.11-1.72C48.38,25.74,42.26,28,35.74,33.6a21.08,21.08,0,0,0-6.91,10.81A40.61,40.61,0,0,0,27.63,55Zm3.12,13.28A10.94,10.94,0,1,1,41.69,79.22,10.93,10.93,0,0,1,30.75,68.28Zm.49-9.37A18.16,18.16,0,0,1,30.75,55a37.41,37.41,0,0,1,1.11-9.78A17.76,17.76,0,0,1,37.77,36c5.87-5,11.3-7.07,17.61-6.72A66.83,66.83,0,0,1,66,30.9,17.83,17.83,0,0,1,76,36a21.05,21.05,0,0,1,4,7.16,36.41,36.41,0,0,1,1,4l0,.16a18.56,18.56,0,0,0,1.13,3.32c.22.52.43,1,.61,1.57a2.31,2.31,0,0,1,.16.78c0,.27-.45.69-.85,1.09a4.72,4.72,0,0,0-1.76,3.3,3.86,3.86,0,0,0,.44,1.73,22.73,22.73,0,0,0,3.57,5.37c.52.63,1.09,1.31,1.7,2.12a6.46,6.46,0,0,1,1,1.56,4.69,4.69,0,0,1-.52.47,6.33,6.33,0,0,1-.89.56,4.57,4.57,0,0,0-2.76,3,5.22,5.22,0,0,0,.33,2.92c.16.36.32.69.48,1-.82.22-2.26.58-4.8,1.13a3,3,0,0,0-.43,5.67,17,17,0,0,1,2.44,1.16,5.68,5.68,0,0,0-.35,1.2c0,.18-.07.37-.13.61a6.3,6.3,0,0,0,.1,2.7c.05.26.11.52.14.78a4.83,4.83,0,0,1-.26,2.1c-.21.65-.71,1.68-1.83,1.43a27.5,27.5,0,0,1-5.13-2.24,48.91,48.91,0,0,0-4.58-2.15h0l-3-1.12c-.86-.33-1.51-.58-1.84-.69-4.52-1.56-5.44-3.28-5.41-4.46A1.57,1.57,0,0,0,57,80.66h0a1.56,1.56,0,0,0-1.56,1.53c-.07,3.23,2.47,5.74,7.53,7.49.31.1.92.33,1.74.65l.64.24c-2.85,3.62-5.14,10.56-6.06,13.66l-24.88-.07a13.18,13.18,0,0,0,.71-1.34c.58-1.28,3.25-8.92,3.6-10.17a47,47,0,0,0,1.44-7.8,24.44,24.44,0,0,0,.14-2.57c.47,0,.93.07,1.4.07A14.07,14.07,0,1,0,31.24,58.91Z"/>
    <path class="cls-2" d="M121.4,82.35a1.56,1.56,0,0,0-1.56-1.56h-2L115.09,71a1.52,1.52,0,0,0-1.53-1.13A1.55,1.55,0,0,0,112.07,71l-3.39,13.55-1.43-4.28A1.55,1.55,0,0,0,106,79.24a1.56,1.56,0,0,0-1.51.69l-1.09,1.64-2.33-10.5a1.56,1.56,0,0,0-1.53-1.22h0A1.56,1.56,0,0,0,98,71.1L95.6,83l-1-1.55a1.57,1.57,0,0,0-1.3-.69H88.58a1.56,1.56,0,0,0,0,3.12h3.85l2.67,4a1.56,1.56,0,0,0,1.6.67,1.59,1.59,0,0,0,1.23-1.23L99.6,79l1.52,6.84a1.57,1.57,0,0,0,2.83.52l1.35-2,2.12,6.35a1.56,1.56,0,0,0,1.48,1.07H109a1.58,1.58,0,0,0,1.46-1.19l3.27-13.09,1.52,5.33a1.56,1.56,0,0,0,1.5,1.13h3.13A1.56,1.56,0,0,0,121.4,82.35Z"/>
    <path class="cls-2" d="M45.14,64.18,40,70.63l-1.89-1.89A1.56,1.56,0,0,0,35.88,71L39,74.08a1.56,1.56,0,0,0,1.1.45h.09A1.54,1.54,0,0,0,41.33,74l6.25-7.81a1.56,1.56,0,1,0-2.44-2Z"/>
  </g>
</svg>
