<svg id="Capa_1" data-name="Capa 1" xmlns="http://www.w3.org/2000/svg" width="110" height="110" viewBox="0 0 110 110">
  <defs>
    <style>
      .cls-1 {
        fill: none;
      }

      .cls-2 {
        fill: #6558b8;
      }

      .cls-3 {
        fill: #d3aa9c;
      }

      .cls-4 {
        fill: #fff3c0;
      }

      .cls-5 {
        fill: #efc4b1;
      }

      .cls-6 {
        fill: #e2bdaf;
      }

      .cls-7 {
        fill: #c9a095;
      }

      .cls-8 {
        fill: #f9ceb7;
      }

      .cls-9 {
        fill: #ddb4a2;
      }

      .cls-10 {
        fill: #d37f8f;
      }

      .cls-11 {
        fill: #c45f6f;
      }

      .cls-12 {
        fill: #b2b2b2;
      }

      .cls-13 {
        fill: #6f678c;
      }

      .cls-14 {
        fill: #f3d9c3;
      }

      .cls-15 {
        fill: #d8d5ed;
      }

      .cls-16 {
        fill: #0f0140;
      }
    </style>
  </defs>
  <rect class="cls-1" width="110" height="110"/>
  <circle class="cls-2" cx="55" cy="55" r="50"/>
  <g>
    <path class="cls-3" d="M96.71,110H55V75.45h9.54c0,.23-.06.45-.08.67-.45,4.27-.2,9.13,3,12.69a14,14,0,0,0,6.17,3.8,55.63,55.63,0,0,0,6.8,1.63c4.2.8,8.94,1.49,12.15,4.08a10.64,10.64,0,0,1,3.5,5.36A15.56,15.56,0,0,1,96.7,108C96.7,108.67,96.69,109.34,96.71,110Z"/>
    <g>
      <path class="cls-4" d="M41.67,42.75c-1-1.85-2.05-3.66-3.14-5.45-.9-1.82-1.83-3.62-2.83-5.38-.82-1.48-1.45-3.05-2.36-4.48a12.61,12.61,0,0,0-1.23-1.71c.4-.59.8-1.17,1.21-1.75a9.74,9.74,0,0,0,1.89-3.3c.13-.58,0-.89-.29-1a32.44,32.44,0,0,1,3.64-2.37c.74-.42.09-1.44-.65-1.12A30.14,30.14,0,0,0,25.3,26.42a68.24,68.24,0,0,0-4.39,7.77c-.8,1.52-2.58,5.94-4.17,6.73A14.87,14.87,0,0,0,21,37.18c-.4,1-5.08,10.42-5.78,9.77a2.57,2.57,0,0,0,2.9.09,49.94,49.94,0,0,0-1.69,14.18.08.08,0,0,0,.16,0c.68-2.52,1-5.13,1.5-7.7-.39,2.15.09,4.31.31,6.45A28.68,28.68,0,0,1,18,66.14,3.47,3.47,0,0,0,20.2,64.6a57.2,57.2,0,0,0,1.42,7.78,20.69,20.69,0,0,0,.08-4.72c1.34,2.21,1.89,4.61,2.83,6.91,0-.84.35-3.83-.51-4.36,3.18,2,4.09,8.87.39,10.72a0,0,0,0,0,0,.08c3.45-.08,4.26-3.11,4.23-6.27l.36.41c1.23,1.5,2.37,3.55,1.67,5.51-.61,1.7-2.63,3.44-4.5,3.11v0a15.68,15.68,0,0,0,8.4.6,4.3,4.3,0,0,1-3.77,2.27v0C36,88.13,41.77,87,45.3,82.8A21.18,21.18,0,0,0,50,71C50.8,61.07,46.25,51.29,41.67,42.75Z"/>
      <path class="cls-4" d="M68.32,42.75c1-1.85,2.05-3.66,3.15-5.45.89-1.82,1.83-3.62,2.82-5.38.83-1.48,1.45-3.05,2.36-4.48a13.54,13.54,0,0,1,1.23-1.71L76.68,24a9.76,9.76,0,0,1-1.9-3.3c-.13-.58,0-.89.29-1a33.24,33.24,0,0,0-3.63-2.37c-.74-.42-.09-1.44.65-1.12a30,30,0,0,1,12.6,10.26,68.24,68.24,0,0,1,4.39,7.77c.8,1.52,2.58,5.94,4.18,6.73A14.61,14.61,0,0,1,89,37.18c.39,1,5.08,10.42,5.78,9.77a2.59,2.59,0,0,1-2.91.09,50,50,0,0,1,1.7,14.18.09.09,0,0,1-.17,0c-.68-2.52-1-5.13-1.49-7.7.38,2.15-.1,4.31-.31,6.45A28.67,28.67,0,0,0,92,66.14a3.47,3.47,0,0,1-2.23-1.54,55.7,55.7,0,0,1-1.42,7.78,21.28,21.28,0,0,1-.08-4.72c-1.34,2.21-1.89,4.61-2.83,6.91,0-.84-.34-3.83.51-4.36-3.18,2-4.09,8.87-.38,10.72a0,0,0,0,1,0,.08c-3.45-.08-4.26-3.11-4.23-6.27l-.36.41c-1.23,1.5-2.37,3.55-1.67,5.51.61,1.7,2.63,3.44,4.51,3.11v0a15.65,15.65,0,0,1-8.39.6,4.27,4.27,0,0,0,3.76,2.27v0C74,88.13,68.22,87,64.7,82.8A21.11,21.11,0,0,1,60,71C59.19,61.07,63.74,51.29,68.32,42.75Z"/>
    </g>
    <path class="cls-5" d="M55,75.45V110H13.3c0-.66,0-1.33,0-2a15.93,15.93,0,0,1,.6-4.33,10.66,10.66,0,0,1,3.51-5.36c3.21-2.59,8-3.28,12.14-4.08a55.35,55.35,0,0,0,6.81-1.63,14,14,0,0,0,6.17-3.8c3.21-3.56,3.46-8.42,3-12.69,0-.22,0-.44-.08-.67Z"/>
    <path class="cls-6" d="M55,87.29V79.7c-3,.8-6.71-1.22-9.4-3.25a30.74,30.74,0,0,1,0,5.91c2.4,2.21,5.09,4.14,8.15,4.76A11.39,11.39,0,0,0,55,87.29Z"/>
    <path class="cls-7" d="M55,87.29V79.7c3,.8,6.71-1.22,9.41-3.25a30,30,0,0,0,0,5.91c-2.4,2.21-5.09,4.14-8.15,4.76A11.27,11.27,0,0,1,55,87.29Z"/>
    <path class="cls-8" d="M55,26.94V81.62a28.8,28.8,0,0,1-11.6-7.11,36.26,36.26,0,0,1-7.34-11.14C32.78,55.91,31.43,47.66,31,39.56,36,31.43,45.66,27.16,55,26.94Z"/>
    <path class="cls-9" d="M55,26.94V81.62a28.83,28.83,0,0,0,11.59-7.11,36.26,36.26,0,0,0,7.34-11.14c3.28-7.46,4.63-15.71,5.06-23.81C74,31.43,64.33,27.16,55,26.94Z"/>
    <path class="cls-9" d="M80.28,51.51c.27-1.56-.42-4-2.9-2.48a51.29,51.29,0,0,1-1.25,7.62A7.67,7.67,0,0,0,80.28,51.51Z"/>
    <g>
      <path class="cls-10" d="M55,67v3.75c0,.26-2.35-.36-2.63-.47a7.66,7.66,0,0,1-3.57-3.56,3.39,3.39,0,0,0,1.51.14c.61-.07,1.23-.22,1.84-.33C52.94,66.41,54.35,66,55,67Z"/>
      <path class="cls-11" d="M55,67v3.75c0,.26,2.34-.36,2.63-.47a7.68,7.68,0,0,0,3.56-3.56,3.39,3.39,0,0,1-1.51.14c-.61-.07-1.22-.22-1.84-.33C57.05,66.41,55.64,66,55,67Z"/>
    </g>
    <path class="cls-8" d="M29.71,51.51c-.26-1.56.42-4,2.9-2.48a51.29,51.29,0,0,0,1.25,7.62A7.67,7.67,0,0,1,29.71,51.51Z"/>
    <path class="cls-12" d="M58.55,96.38l-1,0a8.55,8.55,0,0,0-2.37,0h-.4a8.47,8.47,0,0,0-2.36,0l-1,0a21.21,21.21,0,0,1-7.6-1.66,15.67,15.67,0,0,1-4.72-3.3c-.39.21-.8.41-1.21.59q-.29.15-.57.27a6.67,6.67,0,0,1-.72.23l-.29.1a55.35,55.35,0,0,1-6.81,1.63c-4.19.8-8.93,1.49-12.14,4.08a10.66,10.66,0,0,0-3.51,5.36,15.93,15.93,0,0,0-.6,4.33c0,.66,0,1.33,0,2H96.71c0-.66,0-1.33,0-2a15.56,15.56,0,0,0-.61-4.33,10.64,10.64,0,0,0-3.5-5.36c-3.21-2.59-8-3.28-12.15-4.08a55.63,55.63,0,0,1-6.8-1.63l-.32-.11a4.78,4.78,0,0,1-.67-.22,4.9,4.9,0,0,1-.52-.24c-.44-.19-.87-.39-1.28-.61a15.47,15.47,0,0,1-4.71,3.29A21.15,21.15,0,0,1,58.55,96.38Z"/>
    <polygon class="cls-13" points="63.67 96.41 55 96.41 46.32 96.41 52.29 105.71 51.69 110 55 110 58.3 110 57.7 105.71 63.67 96.41"/>
    <g>
      <path class="cls-14" d="M29.56,94.24c-4.2.8-8.94,1.49-12.15,4.08a10.7,10.7,0,0,0-3.5,5.36A15.56,15.56,0,0,0,13.3,108c0,.66,0,1.33,0,2h41c-6.6-4.51-11.61-11.18-15.74-18.29a16.23,16.23,0,0,1-2.23.9A55.19,55.19,0,0,1,29.56,94.24Z"/>
      <path class="cls-14" d="M80.44,94.24c4.19.8,8.93,1.49,12.14,4.08a10.66,10.66,0,0,1,3.51,5.36,15.93,15.93,0,0,1,.6,4.33c0,.66,0,1.33,0,2h-41c6.6-4.51,11.62-11.18,15.74-18.29a16.23,16.23,0,0,0,2.23.9A55.35,55.35,0,0,0,80.44,94.24Z"/>
    </g>
    <path class="cls-15" d="M45.48,108.83,55,96.37a26.51,26.51,0,0,1-8.93-4.9c-1.33-1.06-2.59-2.25-3.83-3.46-.64-.62-1.27-1.25-1.91-1.86-.1-.1-2.87,4.15-4.34,6.46l0,0a46.23,46.23,0,0,0,3.6,8.06A34.65,34.65,0,0,0,45.48,108.83Z"/>
    <path class="cls-15" d="M64.53,108.83,55,96.37a26.46,26.46,0,0,0,8.94-4.9c1.33-1.06,2.58-2.25,3.83-3.46.64-.62,1.27-1.25,1.91-1.86.1-.1,2.87,4.15,4.34,6.46l0,0a46.23,46.23,0,0,1-3.6,8.06A34.65,34.65,0,0,1,64.53,108.83Z"/>
    <path class="cls-4" d="M78.82,23.17c-2-5.33-7.19-8.78-12.31-10.82a41.16,41.16,0,0,0-4.59-1.53q-1-.27-2-.48c.52-.08,1.05-.12,1.58-.15,4.3-.17,7.82,1.49,11.4,3.67,0,0,.09,0,0-.08C70.22,10.55,65.4,9,61.28,9.14a16.65,16.65,0,0,0-3.44.46A5.6,5.6,0,0,0,55.9,6.32c-.13-.09-.29.09-.22.22A8.79,8.79,0,0,1,57,9.82h0a8.12,8.12,0,0,0-.7-.63,9.27,9.27,0,0,0-7-1.53,21.61,21.61,0,0,0-8,3.44,37,37,0,0,0-7.34,5.51s0,.09,0,.06c.81-.46,1.6-1,2.38-1.46,3-1.41,5.82-3.14,8.8-4.57,2-1,5-1.71,7-.57-1.14.2-2.26.45-3.37.75C41.56,12.76,33.85,17,30.91,24.29c-1.68,4.16-1.16,8.59-1.48,13a.75.75,0,0,1,.2.1,12.18,12.18,0,0,1,2.73,2.78c.58.32,1.17.6,1.75.85a21.89,21.89,0,0,0,6.28,1.78,23,23,0,0,0,14.33-3.25,18.78,18.78,0,0,0,5.42-6.3c-.19.72-.41,1.43-.63,2.12-.86,2.68-2.27,5.29-4.83,6.72v0c2.59-.89,4.52-3.32,5.86-5.63a17,17,0,0,0,1.58-3.67,16.3,16.3,0,0,0,4.15,4.3c3.55,2.76,13.6,7.24,14.32-.42A29.76,29.76,0,0,0,78.82,23.17Zm-24-13.49h0Z"/>
    <g>
      <path class="cls-13" d="M77.6,57.25a34,34,0,0,1-2.27,6.83,12.91,12.91,0,0,1-5.21,5.47,31,31,0,0,1-7.42,3.1l-1,.24c-.47-.89-2.18-1.4-4.13-1.17-2.22.27-3.91,1.39-3.78,2.51s2,1.81,4.26,1.55c1.92-.23,3.44-1.1,3.73-2l1.32-.32A29.62,29.62,0,0,0,71,70.18c4.72-2.8,6.35-7.58,7.66-12.64C78.8,56.88,77.77,56.59,77.6,57.25Z"/>
      <path class="cls-13" d="M30.91,44.93a2.73,2.73,0,0,1,1.91.32c1.59.85,2.36,5.17,2.6,6.75.27,1.86,1.37,6.92-1.23,7.51-2.23.5-4.78-2.36-5.68-6.38S28.68,45.44,30.91,44.93Z"/>
      <path class="cls-13" d="M79.08,44.93a2.71,2.71,0,0,0-1.9.32c-1.6.85-2.37,5.17-2.6,6.75-.28,1.86-1.37,6.92,1.22,7.51,2.24.5,4.78-2.36,5.69-6.38S81.32,45.44,79.08,44.93Z"/>
      <path class="cls-16" d="M80.76,47.7A13.15,13.15,0,0,0,81,45.81a23.14,23.14,0,0,0-.44-10.56,21.49,21.49,0,0,0-3-6.66,16.44,16.44,0,0,0-2.93-3.48q-.77-.73-1.62-1.41a23.45,23.45,0,0,0-18-4.64A23.48,23.48,0,0,0,37,23.7q-.85.68-1.62,1.41a16.44,16.44,0,0,0-2.93,3.48,21.49,21.49,0,0,0-3,6.66A23.28,23.28,0,0,0,29,45.81a13.15,13.15,0,0,0,.19,1.89c-1.35.51-2,2.86-1.4,5.42s2.31,4.6,3.81,4.26c1.73-.39,1-3.77.82-5A15,15,0,0,0,31.61,49a29.4,29.4,0,0,1-.81-4,22.91,22.91,0,0,1,.05-5.55,21.8,21.8,0,0,1,4.34-10.59,23.08,23.08,0,0,1,19.24-8.59.65.65,0,0,0,.42.06l.15,0,.14,0a.63.63,0,0,0,.42-.06,23.1,23.1,0,0,1,19.25,8.59,21.89,21.89,0,0,1,4.34,10.59,23.43,23.43,0,0,1,0,5.55,32.85,32.85,0,0,1-.81,4,14.45,14.45,0,0,0-.85,3.32c-.19,1.25-.92,4.63.82,5,1.49.34,3.19-1.57,3.8-4.26S82.11,48.21,80.76,47.7Z"/>
    </g>
  </g>
</svg>
