<svg id="cf5_guion_copia_2" data-name="cf5_guion copia 2" xmlns="http://www.w3.org/2000/svg" width="110" height="110" viewBox="0 0 110 110">
  <rect id="Rect치ngulo_34926" data-name="Rect치ngulo 34926" width="110" height="110" fill="none"/>
  <rect id="Rect치ngulo_34927" data-name="Rect치ngulo 34927" width="110" height="110" fill="none"/>
  <circle id="Elipse_5232" data-name="Elipse 5232" cx="50" cy="50" r="50" transform="translate(5 5)" fill="#6558b8"/>
  <g id="Grupo_90577" data-name="Grupo 90577">
    <path id="Trazado_153054" data-name="Trazado 153054" d="M109,46.18c-.17.72-.33,1.43-.49,2.15A26,26,0,0,1,105,57.07a9.445,9.445,0,0,0-.53,1,6,6,0,0,0-.56.57,25.28,25.28,0,0,1-20.1,10.05,3.52,3.52,0,0,0-2.61,1.19c-2.16,2.26-4.33,4.53-6.52,6.76a4.85,4.85,0,0,1-1.17.63A4.49,4.49,0,0,1,73,76c-.06-1.35,0-2.72,0-4.08a3.26,3.26,0,0,0-3.27-3.24H65.85a7.984,7.984,0,0,0-.59-1c-.66-.89-1.43-1.72-2-2.66a12.71,12.71,0,0,1-1.5-11.08,19.09,19.09,0,0,1,4.31-7c2-.19,1.91-6.17-.18-6.3-.69-1.08-1.41-2.14-2.06-3.25-2.31-4-3.16-8.08-1.7-12.57A19.34,19.34,0,0,1,66,18.13c7.57.17,15.15-.47,22.7.41a26,26,0,0,1,10.12,4.62,25.08,25.08,0,0,1,10,17.26,1.54,1.54,0,0,0,.19.44Z" fill="#6ed897"/>
    <path id="Trazado_153055" data-name="Trazado 153055" d="M21.62,64.66c-.43.51-.84,1-1.31,1.52a4,4,0,0,0-1,4.39c1.55,4.19,3.58,8,7.75,10.25a25.05,25.05,0,0,1,3.57,2.83,18.85,18.85,0,0,0-2.83.23c-2.94.67-5.47,2-6.19,5.24a20.43,20.43,0,0,0-.18,3.59,43,43,0,0,1-7.84-8.54A49.57,49.57,0,0,1,4.67,62.11a51.32,51.32,0,0,1,.2-15.55,3.23,3.23,0,0,1,.2-.57c1-1.53,1.88-3.11,3-4.56a14.89,14.89,0,0,1,2.31-2c1,2.37,1.9,4.76,2.89,7.12.7,1.68,1.47,3.32,2.21,5C17.4,56,18.46,60.8,21.62,64.66Z" fill="#0165c3"/>
    <path id="Trazado_153056" data-name="Trazado 153056" d="M21.39,92.71a20.43,20.43,0,0,1,.18-3.59c.72-3.26,3.25-4.57,6.19-5.24a18.849,18.849,0,0,1,2.83-.23c1.12,1.53,2.34,3,3.35,4.6A15.69,15.69,0,0,0,41,94c.55.26,1.1.53,1.68.74a4.45,4.45,0,0,0,5.08-1c.48-.48,1-.91,1.51-1.36.34.26.67.54,1,.78a11.91,11.91,0,0,0,1.94,1.26c4,1.73,8.08,3.4,12.12,5.1l6.39,2.72c-3.26.8-6.49,1.85-9.79,2.35a47.63,47.63,0,0,1-21.4-1.75A48.76,48.76,0,0,1,21.39,92.71Z" fill="#167ac9"/>
    <path id="Trazado_153057" data-name="Trazado 153057" d="M70.79,102.31,64.4,99.59a6.219,6.219,0,0,0-.25-.87A3.47,3.47,0,0,1,65.81,94a5,5,0,0,0,.7-.51,7.079,7.079,0,0,0-.73-.39l-4.24-1.76L48.46,85.9a3.23,3.23,0,0,1-1.77-3.09,2.77,2.77,0,0,1,2.06-2.64,3.78,3.78,0,0,1,2.26,0q9.195,3.72,18.34,7.59c.06,0,.1.09.14.14-2.72.89-3.17,2.92-2.61,5.53,2.21.92,4.56,1.88,6.89,2.88,1.74.74,3.46,1.51,5.19,2.27Z" fill="#01a5fa"/>
    <path id="Trazado_153058" data-name="Trazado 153058" d="M79,98.63c-1.73-.76-3.45-1.53-5.19-2.27-2.33-1-4.68-2-6.89-2.88-.56-2.61-.11-4.64,2.61-5.53q7.37,3,14.71,6.11a7.648,7.648,0,0,1,.88.5Z" fill="#33b7fa"/>
    <path id="Trazado_153059" data-name="Trazado 153059" d="M65.83,68.65c-6.32.4-12.36-.44-17.76-4.07a24.84,24.84,0,0,1-11.33-18,25.11,25.11,0,0,1,20.35-28c2.92-.52,6-.33,8.94-.46a19.34,19.34,0,0,0-3.94,6.58c-1.46,4.49-.61,8.62,1.7,12.57.65,1.11,1.37,2.17,2.06,3.25,2.3.88,1.93,6.34.18,6.3a19.09,19.09,0,0,0-4.31,7A12.71,12.71,0,0,0,63.22,65c.59.94,1.36,1.77,2,2.66A5.7,5.7,0,0,1,65.83,68.65Z" fill="#70c691"/>
    <path id="Trazado_153060" data-name="Trazado 153060" d="M26.85,46.18q3.46,8.31,6.91,16.61c.92,2.21-.12,4.29-2.3,4.6a3.31,3.31,0,0,1-3.29-1.81c-.27-.73-.53-1.46-.82-2.18l-6.18-15V48c.11-.08.26-.13.32-.24C22.81,45.63,24.68,45.4,26.85,46.18Z" fill="#32b6fa"/>
    <path id="Trazado_153061" data-name="Trazado 153061" d="M26.85,46.18c-2.17-.78-4-.55-5.32,1.61-.06.11-.21.16-.32.24-.2-.2-.48-.37-.58-.62q-3.18-7.65-6.33-15.33c-.39-2,.39-3.5,2.14-4,1.57-.45,3.09.41,3.84,2.22C22.48,35.58,24.66,40.89,26.85,46.18Z" fill="#00a5f9"/>
    <path id="Trazado_153062" data-name="Trazado 153062" d="M21.17,48.43l6.18,15c.29.72.55,1.45.82,2.18a6.6,6.6,0,0,1-6-.7,3.709,3.709,0,0,0-.55-.22C18.46,60.8,17.4,56,15.45,51.53c.44-2.47,1.91-3.59,4.33-3.29Z" fill="#00a5fa"/>
    <path id="Trazado_153063" data-name="Trazado 153063" d="M48.46,85.9l13.08,5.42,4.24,1.76a7.08,7.08,0,0,1,.73.39,5,5,0,0,1-.7.51,3.47,3.47,0,0,0-1.66,4.74,6.219,6.219,0,0,1,.25.87c-4-1.7-8.09-3.37-12.12-5.1a11.91,11.91,0,0,1-1.94-1.26,11.529,11.529,0,0,1-1-.78c-.13-.31-.25-.63-.4-.93a7.07,7.07,0,0,1-.48-5.62Z" fill="#008df9"/>
    <path id="Trazado_153064" data-name="Trazado 153064" d="M21.17,48.43l-1.39-.19c-2.42-.3-3.89.82-4.33,3.29-.74-1.66-1.51-3.3-2.21-5-1-2.36-1.93-4.75-2.89-7.12A7.25,7.25,0,0,1,12,34.05a21.48,21.48,0,0,1,2.28-2q3.16,7.66,6.33,15.33c.1.25.38.42.58.62A1.971,1.971,0,0,1,21.17,48.43Z" fill="#008df9"/>
  </g>
  <text id="_1_2_3_..." data-name="1, 2, 3, ..." transform="translate(41.39 48.28)" fill="#fff" font-size="16" font-family="Roboto-Regular, Roboto"><tspan x="0" y="0">1, 2, 3, ...</tspan></text>
</svg>
