<svg xmlns="http://www.w3.org/2000/svg" width="110" height="115" viewBox="0 0 110 115">
  <g id="cf5_guion" transform="translate(0 5)">
    <rect id="Rect치ngulo_34932" data-name="Rect치ngulo 34932" width="110" height="110" fill="none"/>
    <rect id="Rect치ngulo_34933" data-name="Rect치ngulo 34933" width="110" height="110" transform="translate(0 -5)" fill="none"/>
    <circle id="Elipse_5238" data-name="Elipse 5238" cx="50" cy="50" r="50" transform="translate(5 5)" fill="#6558b8"/>
    <g id="Grupo_90580" data-name="Grupo 90580">
      <path id="Trazado_153110" data-name="Trazado 153110" d="M98,80.54c-1.67,2.35-3.18,4.83-5,7A49.69,49.69,0,0,1,59.53,104.8a3.15,3.15,0,0,0-.64.2h-8c-1.59-.27-3.19-.52-4.77-.8a48.83,48.83,0,0,1-23.42-11c.55-1.84,1-3.73,1.69-5.5.92-2.28,2.24-4.31,4.93-4.84,4.24-.86,8.49-1.67,12.73-2.54C43.2,80,44.21,79.78,45,81a8.17,8.17,0,0,0,1.65,1.5c1.06.83,2,2.09,3.6,1.51l1.47,4.48v12.13A1.16,1.16,0,0,0,53,101.94h4.16a1.17,1.17,0,0,0,1.28-1.34q0-1.065,0-2.13V89.73A11.27,11.27,0,0,1,60.11,84c.64-.06,1.41.09,1.9-.22a20,20,0,0,0,2.8-2.34,34.27,34.27,0,0,0,6.43-8.1,18.72,18.72,0,0,0,2.56-6.7l2.43.35a70.019,70.019,0,0,0,7.16,1,15.45,15.45,0,0,1,8.93,3.55,17.39,17.39,0,0,1,5.68,9Z" fill="#f8e053"/>
      <path id="Trazado_153111" data-name="Trazado 153111" d="M12.05,80.55c1.67-5.83,5.11-10.07,11-11.94a34.34,34.34,0,0,1,5-.78c1.94-.31,3.86-.64,5.79-1l2.61-.31a2.8,2.8,0,0,0,0,.5,27.82,27.82,0,0,0,4.71,9.48c.82,1.08,1.74,2.09,2.68,3.2.63-1.41,1.09-2.64,1.7-3.8.74-1.39,1.7-2.56,3.53-2.4a34.129,34.129,0,0,1,2.81,2,22.6,22.6,0,0,1,1.88,1.91,11,11,0,0,1-.72,2.25c-.86,1.48-1.85,2.87-2.78,4.3-1.65.58-2.54-.68-3.6-1.51A8.17,8.17,0,0,1,45,81c-.82-1.18-1.83-.92-2.94-.69-4.24.87-8.49,1.68-12.73,2.54-2.69.53-4,2.56-4.93,4.84-.72,1.77-1.14,3.66-1.69,5.5A45.06,45.06,0,0,1,12.05,80.55Z" fill="#fbc133"/>
      <path id="Trazado_153112" data-name="Trazado 153112" d="M71.82,7.91a1.54,1.54,0,0,0,.16.55,19.83,19.83,0,0,1,3.66,12.88v.92l-1.2.91c-2.26-.11-2.83.44-2.84,2.69v1.71C65,28,59.71,25.84,56.08,20.1A22.09,22.09,0,0,0,53,16.89a.94.94,0,0,0,0-.16,3.133,3.133,0,0,0-.1-.6,12.25,12.25,0,0,1,.53-7.38c1.59-3.68,4.75-5.1,8.44-5.68C62.9,2.9,64,2.8,65,2.67a20.78,20.78,0,0,1,6.5,5.09l.28.17Z" fill="#0052a5"/>
      <path id="Trazado_153113" data-name="Trazado 153113" d="M65,2.67c-1.06.13-2.12.23-3.18.4-3.69.58-6.85,2-8.44,5.68a12.25,12.25,0,0,0-.53,7.38,3.133,3.133,0,0,0,.1.6A7.63,7.63,0,0,0,42.05,19a35.24,35.24,0,0,0-2.27,4.71c-.33.7-.64,1.39-1,2.09a7.89,7.89,0,0,0-.26-1.48c-.5-1.31-1.65-1.21-2.75-1.18l-1.18-.89c-.15-4,.25-7.87,2.22-11.44.6-1.09,1.32-2.13,2-3.19C40,6.6,41,5.46,42.22,4.55A21.27,21.27,0,0,1,58,.57a18.65,18.65,0,0,1,7,2.1Z" fill="#013470"/>
      <path id="Trazado_153114" data-name="Trazado 153114" d="M71.8,7.93l-.28-.17Z" fill="#01a4f9"/>
      <path id="Trazado_153115" data-name="Trazado 153115" d="M73.8,66.59a18.72,18.72,0,0,1-2.56,6.7,34.27,34.27,0,0,1-6.43,8.1A20,20,0,0,1,62,83.73c-.49.31-1.26.16-1.9.22-.87-1.28-1.73-2.57-2.63-3.83a3.8,3.8,0,0,1-.85-2.74A10.32,10.32,0,0,1,58,75.79c.85-.68,1.86-1.15,2.7-1.82a16.58,16.58,0,0,0,6.6-10.85c.14-.59.37-1.15,1.07-.64C70.17,63.82,72,65.22,73.8,66.59Z" fill="#fbc133"/>
      <path id="Trazado_153116" data-name="Trazado 153116" d="M56.63,77.38a3.8,3.8,0,0,0,.85,2.74c.9,1.26,1.76,2.55,2.63,3.83a11.27,11.27,0,0,0-1.61,5.78c-.08,2.91,0,5.83,0,8.74H51.78v-10a1,1,0,0,0,.17-.25c.54-2,1-4,1.65-6A25,25,0,0,1,55,79.06ZM56.49,93.8a4.92,4.92,0,0,0-1.31-1c-.52-.2-1.52.74-1.32,1.22a2.35,2.35,0,0,0,1.26,1.31C55.86,95.53,56.34,94.92,56.49,93.8Zm.16-6.26a1,1,0,0,0-1.09-1.14c-.86,0-1.4.49-1.36,1.28a1.11,1.11,0,0,0,1.24,1.17C56.28,88.84,56.63,88.33,56.65,87.54Z" fill="#f5a22b"/>
      <path id="Trazado_153117" data-name="Trazado 153117" d="M73.8,66.59c-1.82-1.37-3.63-2.77-5.48-4.11-.7-.51-.93.05-1.07.64a7.13,7.13,0,0,1-2.86-3.69,4.17,4.17,0,0,1,.56-.81,8.8,8.8,0,0,1,8.87-2.2c1,.28,2,.65,3.07,1h0l.18.22c2.1,2.54,1.9,6.16-.48,9l-.34.38Z" fill="#0152a5"/>
      <path id="Trazado_153118" data-name="Trazado 153118" d="M51.78,98.47h6.68v2.13a1.17,1.17,0,0,1-1.28,1.34H53.02a1.16,1.16,0,0,1-1.28-1.34C51.76,99.89,51.77,99.18,51.78,98.47Z" fill="#f3892d"/>
      <path id="Trazado_153119" data-name="Trazado 153119" d="M55,79.06a25,25,0,0,0-1.45,3.11c-.63,2-1.11,4-1.65,6a1,1,0,0,1-.17.25L50.28,84c.93-1.43,1.92-2.82,2.78-4.3a11,11,0,0,0,.72-2.25Z" fill="#f3892d"/>
      <path id="Trazado_153120" data-name="Trazado 153120" d="M76.89,57.4c-1-.33-2-.7-3.07-1A8.8,8.8,0,0,0,65,58.62a4.17,4.17,0,0,0-.56.81c-.21-1.15-.41-2.3-.62-3.46l.67-.83,2-1.72,6.08-2.48,1.2-.54A6,6,0,0,0,77.62,44c-.06-1,0-2.11,0-3.16h.2c2.58,2.77,1.94,5.35-.1,7.8a16.45,16.45,0,0,0-2.07,3,4.21,4.21,0,0,0,.41,4.52C76.38,56.59,76.63,57,76.89,57.4Z" fill="#023571"/>
      <path id="Trazado_153121" data-name="Trazado 153121" d="M77.5,23.19a4.94,4.94,0,0,1,4.7,5.23v3.45a7.33,7.33,0,0,1-1.4.39c-1,.06-2.07,0-3.1,0V30.54Z" fill="#d83f92"/>
      <path id="Trazado_153122" data-name="Trazado 153122" d="M77.5,23.19l.18,7.37v2.5c-2,1.09-2.19,1.07-3.24-.17v-.6l.05-9.12,1.2-.91Z" fill="#e275b0"/>
      <path id="Trazado_153123" data-name="Trazado 153123" d="M77.65,33.06v-.78h3.1a7.33,7.33,0,0,0,1.4-.39v3.54c0,3-1.38,4.72-4.36,5.48h-.2V40C77.63,37.65,77.64,35.35,77.65,33.06Z" fill="#c2247d"/>
      <path id="Trazado_153124" data-name="Trazado 153124" d="M77.05,57.61l-.18-.22Z" fill="#023571"/>
      <path id="Trazado_153125" data-name="Trazado 153125" d="M32.76,49.23l-2.25-.06c-.19-.36-.37-.72-.58-1.06a5,5,0,0,1-.44-4.91,14.8,14.8,0,0,1,1-1.72,2,2,0,0,0,2.05-1.75A2,2,0,0,0,30.49,38c-.15-.25-.29-.52-.45-.76-.95-1.37-1.79-2.82-1.14-4.52A15.86,15.86,0,0,1,30.5,30h8.15c.57,0,1.15.05,1.72,0,2.8-.06,5.6-.12,8.1,1.46,2.88,2.24,4.54,5.05,4.3,8.82A10,10,0,0,1,50.32,46a10.56,10.56,0,0,1-6.7,3.22,10.63,10.63,0,0,0-1.7.44A12.8,12.8,0,0,0,41.17,51a2.529,2.529,0,0,0,0,.91c-.17.9.59,2.19-.64,2.63s-1.55-1-2.23-1.58-1.5-1.64-2.3-2.42A3.88,3.88,0,0,0,32.76,49.23ZM43.21,38c-1.22,0-1.88.61-1.88,1.74a1.61,1.61,0,0,0,1.78,1.74A1.93,1.93,0,0,0,45,39.76,1.71,1.71,0,0,0,43.21,38ZM37,38c-1.11-.23-1.88.92-1.91,1.65a1.78,1.78,0,0,0,1.87,1.83A1.74,1.74,0,1,0,37,38Z" fill="#e7edf3"/>
      <path id="Trazado_153126" data-name="Trazado 153126" d="M30.5,30a15.86,15.86,0,0,0-1.6,2.67c-.65,1.7.19,3.15,1.14,4.52.16.24.3.51.45.76-1.19.23-1.65.74-1.63,1.8s.48,1.47,1.63,1.7a14.8,14.8,0,0,0-1,1.72,5,5,0,0,0,.44,4.91c.21.34.39.7.58,1.06-2.71-.11-5.47.11-8.1-.39a9.18,9.18,0,0,1-7.16-9.42,9.73,9.73,0,0,1,8.23-9.27,43.523,43.523,0,0,1,4.58-.17ZM24.4,41.47a1.62,1.62,0,0,0,1.81-1.73A1.64,1.64,0,0,0,24.33,38a1.9,1.9,0,0,0-1.78,1.62C22.57,40.58,23.47,41.69,24.4,41.47Z" fill="#cadff0"/>
      <path id="Trazado_153127" data-name="Trazado 153127" d="M36.45,66.56l-2.62.31c-2.1-1.71-3.49-6.44-.89-9.26l.21-.22h0c.47-.17,1-.3,1.41-.5a9.91,9.91,0,0,1,7-.65,21.89,21.89,0,0,1,4.28,2.4c-.29,1.81-1.5,3-2.71,4.26-.33-.56-.7-.86-1.35-.36C40,63.9,38.23,65.22,36.45,66.56Z" fill="#0152a5"/>
      <path id="Trazado_153128" data-name="Trazado 153128" d="M45.85,58.65a21.89,21.89,0,0,0-4.28-2.4,9.91,9.91,0,0,0-7,.65c-.45.2-.94.33-1.41.5a2.63,2.63,0,0,1,.24-.44c2.15-2.57,1.63-5.05-.39-7.4-.08-.1-.15-.22-.23-.33A3.88,3.88,0,0,1,36,50.54c.76.78,1.42,1.66,2.22,2.4s1,2,2.23,1.58.47-1.73.64-2.63c.06-.29-.07-.64,0-.91a12.8,12.8,0,0,1,.75-1.35l4.33,6.14Z" fill="#033572"/>
      <path id="Trazado_153129" data-name="Trazado 153129" d="M30.5,30l-2.44-.11a19.15,19.15,0,0,1,.13-2.63,4.83,4.83,0,0,1,4.55-4.07v6.75Z" fill="#d83f92"/>
      <path id="Trazado_153130" data-name="Trazado 153130" d="M32.72,30V23.25l1.89-1,1.18.89A13.071,13.071,0,0,1,36,24.53c0,1.81,0,3.63,0,5.45Z" fill="#e178b1"/>
      <path id="Trazado_153131" data-name="Trazado 153131" d="M33.15,57.39l-.21.22Z" fill="#033572"/>
      <path id="Trazado_153132" data-name="Trazado 153132" d="M46.25,55.77l-4.33-6.14a10.63,10.63,0,0,1,1.7-.44A10.56,10.56,0,0,0,50.32,46a3.62,3.62,0,0,1,.2.45,34.39,34.39,0,0,0,3.19,8,14.2,14.2,0,0,0,3.93,4.44,1.77,1.77,0,0,0,1.55.11c1.57-.92,3.06-2,4.58-3,.21,1.16.41,2.31.62,3.46a7.13,7.13,0,0,0,2.86,3.69A16.58,16.58,0,0,1,60.65,74c-.84.67-1.85,1.14-2.7,1.82a10.32,10.32,0,0,0-1.32,1.59L55,79.06l-1.24-1.64a22.6,22.6,0,0,0-1.88-1.91c-.88-.72-1.87-1.32-2.81-2v-.2a15.369,15.369,0,0,0,1.09-1.19A23.07,23.07,0,0,0,55,60.39c-.89-.25-1.74-.44-2.56-.74A22.39,22.39,0,0,1,46.25,55.77Z" fill="#f5b98d"/>
      <path id="Trazado_153133" data-name="Trazado 153133" d="M49.07,73.34v.2c-1.83-.16-2.79,1-3.53,2.4-.61,1.16-1.07,2.39-1.7,3.8-.94-1.11-1.86-2.12-2.68-3.2a27.82,27.82,0,0,1-4.71-9.48,2.8,2.8,0,0,1,0-.5c1.79-1.34,3.58-2.66,5.35-4,.65-.5,1-.2,1.35.36a14.1,14.1,0,0,0,3.29,7.83,28.18,28.18,0,0,0,2.63,2.59Z" fill="#f5a12b"/>
      <path id="Trazado_153134" data-name="Trazado 153134" d="M63.77,56c-1.52,1-3,2.06-4.58,3a1.77,1.77,0,0,1-1.55-.11,14.2,14.2,0,0,1-3.93-4.44,34.39,34.39,0,0,1-3.19-8,3.62,3.62,0,0,0-.2-.45,10,10,0,0,0,2.45-5.68c.24-3.77-1.42-6.58-4.3-8.82a14.7,14.7,0,0,1,1.34-6.59,2.93,2.93,0,0,0,.28-1,13.66,13.66,0,0,1,2.92-7,22.09,22.09,0,0,1,3.07,3.21C59.71,25.84,65,28,71.54,27.57V38.05a17.929,17.929,0,0,0,.29,2.17l-3.22,8.83-3.22,1.22c-1.43-.88-2.82-.23-4.21.11-1.2.16-2.41.3-3.61.49a2.71,2.71,0,0,0-2.32,2.76,2.61,2.61,0,0,0,2.77,2.52c1.51-.1,3-.41,4.51-.63l1.88-.38Z" fill="#f7ceaa"/>
      <path id="Trazado_153135" data-name="Trazado 153135" d="M53,16.89a13.66,13.66,0,0,0-2.92,7,2.93,2.93,0,0,1-.28,1,14.7,14.7,0,0,0-1.34,6.59C46,29.89,43.17,30,40.37,30H38.65c.06-1.39.11-2.78.17-4.17.32-.7.63-1.39,1-2.09A35.24,35.24,0,0,1,42.05,19,7.63,7.63,0,0,1,53,16.73a.94.94,0,0,1,0,.16Z" fill="#f4b98e"/>
      <path id="Trazado_153136" data-name="Trazado 153136" d="M71.59,31.68V25.86c0-2.25.58-2.8,2.84-2.69q0,4.56-.05,9.12C73.44,32.13,72.35,32.67,71.59,31.68Z" fill="#d83f92"/>
      <path id="Trazado_153137" data-name="Trazado 153137" d="M38.82,25.81c-.06,1.39-.11,2.78-.17,4.17H36V24.53a13.07,13.07,0,0,0-.19-1.38c1.1,0,2.25-.13,2.75,1.18A7.89,7.89,0,0,1,38.82,25.81Z" fill="#d83f92"/>
      <path id="Trazado_153138" data-name="Trazado 153138" d="M56.49,93.8c-.15,1.12-.63,1.73-1.37,1.53A2.35,2.35,0,0,1,53.86,94c-.2-.48.8-1.42,1.32-1.22A4.92,4.92,0,0,1,56.49,93.8Z" fill="#fbc133"/>
      <path id="Trazado_153139" data-name="Trazado 153139" d="M56.65,87.54c0,.79-.37,1.3-1.21,1.31a1.11,1.11,0,0,1-1.24-1.17,1.221,1.221,0,0,1,1.36-1.28,1,1,0,0,1,1.09,1.14Z" fill="#fbc133"/>
      <path id="Trazado_153140" data-name="Trazado 153140" d="M77.63,39.94v.91a30.276,30.276,0,0,0,0,3.16,6,6,0,0,1-3.9,6.39l-1.2.54c-1.33-.3-1.58-.74-1.57-2.72l2.16-1.12A2.31,2.31,0,0,0,74.4,45V40.29a.23.23,0,0,0,0-.2l.1-.38C75.71,38.35,76.61,38.43,77.63,39.94Z" fill="#e3e9f0"/>
      <path id="Trazado_153141" data-name="Trazado 153141" d="M61.21,50.38c1.39-.34,2.78-1,4.21-.11a3.28,3.28,0,0,1,1,3.15l-2,1.72-1.88.38A8.07,8.07,0,0,1,61,54.16C60.09,52.89,60.48,51.6,61.21,50.38Z" fill="#34b6f9"/>
      <path id="Trazado_153142" data-name="Trazado 153142" d="M66.44,53.42a3.28,3.28,0,0,0-1-3.15l3.22-1.22L71,48.22c0,2,.24,2.42,1.57,2.72Z" fill="#c8ddee"/>
      <path id="Trazado_153143" data-name="Trazado 153143" d="M74.48,39.66l-.1.38a.059.059,0,0,0-.06.06.78.78,0,0,0,.05.14v.63a3.11,3.11,0,0,1-2.51-.65,17.928,17.928,0,0,1-.29-2.17V31.68c.76,1,1.85.45,2.79.61v.6c-.06.12-.18.24-.18.35v5.91A4.515,4.515,0,0,0,74.48,39.66Z" fill="#cd3286"/>
      <path id="Trazado_153144" data-name="Trazado 153144" d="M74.48,39.66c-.08-.17-.25-.34-.25-.51V33.24c0-.11.12-.23.18-.35,1,1.24,1.29,1.26,3.24.17v6.88C76.61,38.43,75.71,38.35,74.48,39.66Z" fill="#d83f92"/>
      <path id="Trazado_153145" data-name="Trazado 153145" d="M43.21,38A1.71,1.71,0,0,1,45,39.76a1.93,1.93,0,0,1-1.89,1.71,1.61,1.61,0,0,1-1.78-1.74C41.33,38.6,42,38,43.21,38Z" fill="#fbfbfb"/>
      <path id="Trazado_153146" data-name="Trazado 153146" d="M30.49,41.48c-1.15-.23-1.61-.7-1.63-1.7s.44-1.57,1.63-1.8a2,2,0,0,1,2.05,1.75A2,2,0,0,1,30.49,41.48Z" fill="#fbfbfb"/>
      <path id="Trazado_153147" data-name="Trazado 153147" d="M37,38a1.74,1.74,0,0,1,0,3.48,1.78,1.78,0,0,1-1.87-1.83A1.648,1.648,0,0,1,37,38Z" fill="#fbfbfb"/>
      <path id="Trazado_153148" data-name="Trazado 153148" d="M24.4,41.47c-.93.22-1.83-.89-1.85-1.86A1.9,1.9,0,0,1,24.33,38a1.64,1.64,0,0,1,1.88,1.75,1.62,1.62,0,0,1-1.81,1.72Z" fill="#fbfbfb"/>
      <path id="Trazado_153149" data-name="Trazado 153149" d="M49.07,73.34a28.18,28.18,0,0,1-2.64-2.6,14.1,14.1,0,0,1-3.29-7.83c1.21-1.23,2.42-2.45,2.71-4.26.13-1,.27-1.92.4-2.88a22.39,22.39,0,0,0,6.14,3.88c.82.3,1.67.49,2.56.74a23.07,23.07,0,0,1-4.79,11.76A15.369,15.369,0,0,1,49.07,73.34Z" fill="#f5925f"/>
      <path id="Trazado_153150" data-name="Trazado 153150" d="M61.21,50.38c-.73,1.22-1.12,2.51-.23,3.78a8.07,8.07,0,0,0,1.58,1.36c-1.51.22-3,.53-4.51.63a2.61,2.61,0,0,1-2.77-2.52,2.71,2.71,0,0,1,2.32-2.76C58.8,50.68,60,50.54,61.21,50.38Z" fill="#048ef7"/>
      <path id="Trazado_153151" data-name="Trazado 153151" d="M71.86,40.22a3.11,3.11,0,0,0,2.51.65v4.08a2.31,2.31,0,0,1-1.29,2.15L71,48.22l-2.31.83Q70.24,44.64,71.86,40.22Z" fill="#053672"/>
      <path id="Trazado_153152" data-name="Trazado 153152" d="M74.37,40.24a.78.78,0,0,1-.05-.14l.06-.06A.23.23,0,0,1,74.37,40.24Z" fill="#d83f92"/>
    </g>
  </g>
</svg>
