<svg id="Capa_1" data-name="Capa 1" xmlns="http://www.w3.org/2000/svg" width="110" height="110" viewBox="0 0 110 110">
  <defs>
    <style>
      .cls-1 {
        fill: none;
      }

      .cls-2 {
        fill: #6558b8;
      }

      .cls-3 {
        fill: #fff3c0;
      }

      .cls-4 {
        fill: #efc4b1;
      }

      .cls-5 {
        fill: #d3aa9c;
      }

      .cls-6 {
        fill: #e2bdaf;
      }

      .cls-7 {
        fill: #c9a095;
      }

      .cls-8 {
        fill: #f9ceb7;
      }

      .cls-9 {
        fill: #ddb4a2;
      }

      .cls-10 {
        fill: #d8d5ed;
      }

      .cls-11 {
        fill: #6f678c;
      }

      .cls-12 {
        fill: #f3d9c3;
      }

      .cls-13 {
        fill: #0f0140;
      }

      .cls-14 {
        fill: #2a4149;
      }
    </style>
  </defs>
  <rect class="cls-1" width="110" height="110"/>
  <circle class="cls-2" cx="55" cy="55" r="50"/>
  <g>
    <path class="cls-3" d="M81.42,16.2c-2.67-4.65-8.45-8-13.9-9.84l3.21-.1c.06,0,.07-.07,0-.09a48,48,0,0,0-10.23-2,15.26,15.26,0,0,0-2.95,0c1.64-.35,3.34-.51,5-.84.08,0,.08-.14,0-.16-3.44-.66-7.57-.72-10.84.72a10,10,0,0,0-1.61.93,8.51,8.51,0,0,0-1.89,1.06,14,14,0,0,0-.94-3.15c-.15-.34-.64-.21-.74.09A14.37,14.37,0,0,0,46,6.43a3.82,3.82,0,0,0-.46-.21,7.37,7.37,0,0,0-2-.25.21.21,0,0,0-.11.38,7,7,0,0,1,1.47,1.26l0,0a8.2,8.2,0,0,0-4.59.5A25.86,25.86,0,0,0,34.18,11a18.78,18.78,0,0,0-4.35,5.33c-2.58,4.6-3,10-3,15.15,0,.43,0,.87.05,1.31a75.79,75.79,0,0,0,.61,9.76c.4,2.48,1.52,5,4.09,5.77a1.35,1.35,0,0,0,1.23-.21,7.86,7.86,0,0,0,2.43.09,10.43,10.43,0,0,0,5.15-2.15c3.08-2.32,5.27-5.59,7.79-8.47,2.17-2.49,4.48-4.85,6.85-7.13,2.37,2.28,4.68,4.64,6.85,7.13,2.52,2.88,4.71,6.15,7.79,8.47a10.43,10.43,0,0,0,5.15,2.15,7.86,7.86,0,0,0,2.43-.09,1.35,1.35,0,0,0,1.23.21c2.57-.76,3.69-3.29,4.09-5.77a75.78,75.78,0,0,0,.6-9.76C83.33,27.41,84.25,21.11,81.42,16.2Z"/>
    <path class="cls-4" d="M55,110V74.14H41.46a29,29,0,0,1-.21,8c-.57,3.06-1.94,6.73-4.62,8.77-3.53,2.7-9.5.89-13.75,1.56a31.18,31.18,0,0,0-5.94,1.14c-6.21,1.89-12.39,7.16-13.08,13.52a15.49,15.49,0,0,0,9,2.86Z"/>
    <path class="cls-5" d="M93.08,93.62a31.18,31.18,0,0,0-5.94-1.14c-4.26-.67-10.22,1.14-13.75-1.56-2.68-2-4-5.71-4.62-8.77a29,29,0,0,1-.21-8H55V110H97a15.45,15.45,0,0,0,9.18-3C105.38,100.7,99.25,95.5,93.08,93.62Z"/>
    <path class="cls-6" d="M55,88V77.4c-4.14.95-9-.94-13.09-3.26h-.46a29,29,0,0,1-.21,8v0a28,28,0,0,0,11.68,5.51A18.31,18.31,0,0,0,55,88Z"/>
    <path class="cls-7" d="M55,77.4V88a18.31,18.31,0,0,0,2.09-.24A28,28,0,0,0,68.78,82.2v0a29,29,0,0,1-.21-8H68.1C64.06,76.46,59.15,78.35,55,77.4Z"/>
    <path class="cls-8" d="M28.78,51.27c-.54-2.24.21-5.84,4-3.88a76,76,0,0,0,2.54,10.94C31.87,56.77,29.48,54.14,28.78,51.27Z"/>
    <path class="cls-9" d="M81.24,51.27c.54-2.24-.21-5.84-4-3.88a74.74,74.74,0,0,1-2.55,10.94C78.15,56.77,80.54,54.14,81.24,51.27Z"/>
    <path class="cls-9" d="M80.83,33.9c-.48,8.58-3.75,16.79-5.71,25.24-.84,3.67-1.59,7.61-3.29,11.07a21.69,21.69,0,0,1-3.6,5.05c-1.4,1.55-2.55,3.37-4.22,4.67-2.64,2.06-5.83,1.83-9,1.86V20.41C65.47,20.7,75.22,25.35,80.83,33.9Z"/>
    <path class="cls-8" d="M29.19,33.9c.48,8.58,3.75,16.79,5.7,25.24.85,3.67,1.6,7.61,3.3,11.07a21.69,21.69,0,0,0,3.6,5.05c1.4,1.55,2.54,3.37,4.22,4.67,2.63,2.06,5.83,1.83,9,1.86V20.41C44.55,20.7,34.8,25.35,29.19,33.9Z"/>
    <path class="cls-3" d="M69.21,17.87A36.81,36.81,0,0,0,58,15.49c-1-.06-2-.07-3,0s-2,0-3,0A36.94,36.94,0,0,0,40.8,17.87C33.89,20.55,26.4,25.55,27,34a20.71,20.71,0,0,0,3.88,10.84c0,.28.08.56.13.85a15.32,15.32,0,0,0,2.35,6.65c.06.08.22.11.27,0,.88-2.07.64-4.32.64-6.53,0-2.48,0-5,0-7.45a26.74,26.74,0,0,1,.31-6.81,7.27,7.27,0,0,1,3.59-4.3c1-.63,2-1.25,3.09-1.82a4.59,4.59,0,0,0,2.35,2.79.08.08,0,0,0,.11-.11,14.44,14.44,0,0,1-1-3.09c.53.63,1.08,1.22,1.6,1.76a19.65,19.65,0,0,0,12.48,6.06,20.07,20.07,0,0,0,7.38-.95s0,0,0,0a22.24,22.24,0,0,1-12.68-3.6,20.51,20.51,0,0,1-4.48-3.88v0a13.43,13.43,0,0,0,1.7.95A30.22,30.22,0,0,0,59.53,30,28.53,28.53,0,0,0,68,30.7a18.19,18.19,0,0,0,6.12-1.58,5.84,5.84,0,0,1,1.25,2.38,26.74,26.74,0,0,1,.31,6.81c0,2.48,0,5,0,7.45,0,2.21-.24,4.46.64,6.53.05.11.21.08.27,0A15.32,15.32,0,0,0,79,45.64c0-.29.08-.57.12-.85A20.64,20.64,0,0,0,83,34C83.62,25.55,76.13,20.55,69.21,17.87Z"/>
    <path class="cls-10" d="M93.08,93.62a31.18,31.18,0,0,0-5.94-1.14c-3.53-.56-8.24.6-11.76-.54a6.77,6.77,0,0,1-1.9-1,18.26,18.26,0,0,1-5.61,3.25,29.13,29.13,0,0,1-8.78,1.56l-1.12,0a11.86,11.86,0,0,0-2.73,0h-.46a11.86,11.86,0,0,0-2.73,0l-1.12,0a29.13,29.13,0,0,1-8.78-1.56A18.14,18.14,0,0,1,36.54,91a6.77,6.77,0,0,1-1.9,1c-3.52,1.14-8.23,0-11.76.54a31.18,31.18,0,0,0-5.94,1.14c-6.21,1.89-12.39,7.16-13.08,13.52a15.49,15.49,0,0,0,9,2.86H97a15.45,15.45,0,0,0,9.18-3C105.38,100.7,99.25,95.5,93.08,93.62Z"/>
    <polygon class="cls-11" points="65.02 95.83 55 95.83 44.98 95.83 51.87 105.52 51.18 110 55 110 58.82 110 58.13 105.52 65.02 95.83"/>
    <path class="cls-11" d="M34.51,92c-3.51,1.06-8.14,0-11.63.5a31.18,31.18,0,0,0-5.94,1.14c-6.21,1.89-12.39,7.16-13.08,13.52a15.49,15.49,0,0,0,9,2.86H48.23C42.56,104.88,37.63,99.12,34.51,92Z"/>
    <path class="cls-11" d="M75.49,92c3.51,1.06,8.14,0,11.63.5a31.18,31.18,0,0,1,5.94,1.14c6.21,1.89,12.39,7.16,13.08,13.52a15.49,15.49,0,0,1-9,2.86H61.77C67.44,104.88,72.37,99.12,75.49,92Z"/>
    <path class="cls-12" d="M44,107.53,55,95.8a33.29,33.29,0,0,1-10.32-4.62c-1.53-1-3-2.12-4.42-3.26l-2.21-1.76c-.11-.08-3.31,3.91-5,6.1l0,0a39.5,39.5,0,0,0,4.15,7.59A34.09,34.09,0,0,0,44,107.53Z"/>
    <path class="cls-12" d="M66,107.53,55,95.8a33.29,33.29,0,0,0,10.32-4.62c1.53-1,3-2.12,4.42-3.26L72,86.16c.11-.08,3.31,3.91,5,6.1l0,0a39.5,39.5,0,0,1-4.15,7.59A34.09,34.09,0,0,1,66,107.53Z"/>
    <g>
      <path class="cls-11" d="M80.33,55.81a37.36,37.36,0,0,1-2.55,7.65A14.43,14.43,0,0,1,72,69.59a34.9,34.9,0,0,1-8.32,3.48c-.35.1-.71.18-1.07.26-.53-1-2.45-1.56-4.63-1.3-2.49.3-4.39,1.55-4.24,2.81s2.29,2,4.78,1.74c2.14-.26,3.85-1.23,4.18-2.3l1.48-.36A33.14,33.14,0,0,0,72.9,70.3c5.29-3.14,7.12-8.5,8.59-14.16C81.68,55.39,80.52,55.07,80.33,55.81Z"/>
      <path class="cls-11" d="M28,42a3.07,3.07,0,0,1,2.13.35c1.79,1,2.65,5.8,2.92,7.57.31,2.08,1.53,7.75-1.38,8.41-2.5.56-5.35-2.64-6.37-7.15S25.51,42.57,28,42Z"/>
      <path class="cls-11" d="M82,42a3.07,3.07,0,0,0-2.13.35c-1.79,1-2.65,5.8-2.92,7.57-.31,2.08-1.53,7.75,1.38,8.41,2.5.56,5.35-2.64,6.37-7.15S84.49,42.57,82,42Z"/>
      <path class="cls-13" d="M83.87,45.11A13.72,13.72,0,0,0,84.08,43a26,26,0,0,0-.48-11.83,24.19,24.19,0,0,0-3.36-7.47A18,18,0,0,0,77,19.79c-.57-.55-1.18-1.08-1.81-1.58A26.29,26.29,0,0,0,55,13a26.29,26.29,0,0,0-20.15,5.2c-.63.5-1.24,1-1.81,1.58a18,18,0,0,0-3.28,3.9,24.19,24.19,0,0,0-3.36,7.47A26,26,0,0,0,25.92,43a13.72,13.72,0,0,0,.21,2.12c-1.51.57-2.22,3.2-1.57,6.07s2.59,5.15,4.26,4.78c1.95-.44,1.13-4.24.92-5.63a16.37,16.37,0,0,0-.95-3.72,33.43,33.43,0,0,1-.91-4.45,26.41,26.41,0,0,1,.05-6.22A24.46,24.46,0,0,1,32.8,24.08a25.83,25.83,0,0,1,21.57-9.63.79.79,0,0,0,.47.06l.16,0,.16,0a.79.79,0,0,0,.47-.06A25.83,25.83,0,0,1,77.2,24.08a24.46,24.46,0,0,1,4.87,11.86,26.41,26.41,0,0,1,.05,6.22,33.43,33.43,0,0,1-.91,4.45,16.37,16.37,0,0,0-.95,3.72c-.21,1.39-1,5.19.92,5.63,1.67.37,3.58-1.77,4.26-4.78S85.38,45.68,83.87,45.11Z"/>
    </g>
    <path class="cls-14" d="M78.14,42.5c-1.59-.26-3.16-.61-4.75-.87a34.75,34.75,0,0,0-5.19-.46,21.11,21.11,0,0,0-5,.49,20.59,20.59,0,0,0-4.61,1.76A10.23,10.23,0,0,1,55,44.63a10.23,10.23,0,0,1-3.64-1.21,20.59,20.59,0,0,0-4.61-1.76,21.11,21.11,0,0,0-5-.49,34.75,34.75,0,0,0-5.19.46c-1.59.26-3.16.61-4.75.87,0,.72,0,1.45,0,2.17.51.07,1,.19,1.51.29.65.14,1.3.3,2,.47a13.36,13.36,0,0,0,1.32,6.68,7.58,7.58,0,0,0,5,3.64,10.8,10.8,0,0,0,2.67.34,8,8,0,0,0,3.53-.76c1.71-.83,3-2.46,3.91-5a11.15,11.15,0,0,0,.7-3.36,3.23,3.23,0,0,1,.76,0,2.79,2.79,0,0,1,3.72,0,3.23,3.23,0,0,1,.76,0,11.15,11.15,0,0,0,.7,3.36c.92,2.5,2.2,4.13,3.91,5a8,8,0,0,0,3.53.76,10.8,10.8,0,0,0,2.67-.34,7.58,7.58,0,0,0,5-3.64,13.36,13.36,0,0,0,1.32-6.68c.65-.17,1.3-.33,2-.47.49-.1,1-.22,1.51-.29C78.14,44,78.14,43.22,78.14,42.5ZM51.37,50.26c-.88,2.42-2.11,4-3.74,4.78a7.71,7.71,0,0,1-3.39.73,10.57,10.57,0,0,1-2.59-.33A7.27,7.27,0,0,1,36.88,52c-1.17-2.09-1.3-4.5-1.28-7a3.68,3.68,0,0,1,2.35-2,17.1,17.1,0,0,1,9.82-.07,6.64,6.64,0,0,1,3.64,2,3.27,3.27,0,0,1,.66,1.62A10.72,10.72,0,0,1,51.37,50.26ZM73.12,52a7.27,7.27,0,0,1-4.77,3.49,10.57,10.57,0,0,1-2.59.33A7.71,7.71,0,0,1,62.37,55c-1.63-.79-2.86-2.36-3.74-4.78a10.72,10.72,0,0,1-.7-3.73,3.27,3.27,0,0,1,.66-1.62,6.64,6.64,0,0,1,3.64-2,17.1,17.1,0,0,1,9.82.07,3.68,3.68,0,0,1,2.35,2C74.42,47.45,74.29,49.86,73.12,52Z"/>
  </g>
</svg>
