<svg id="Capa_1" data-name="Capa 1" xmlns="http://www.w3.org/2000/svg" width="1240" height="770" viewBox="0 0 1240 770">
  <defs>
    <style>
      .cls-1 {
        fill: #f0bb90;
      }

      .cls-2 {
        fill: #fff;
      }

      .cls-3 {
        fill: #6558b8;
      }

      .cls-4 {
        fill: #ec7d40;
      }

      .cls-5 {
        fill: #ed1c24;
      }

      .cls-6 {
        fill: none;
      }

      .cls-7 {
        fill: #d6d0a9;
      }

      .cls-8 {
        fill: #080120;
      }

      .cls-9 {
        fill: #f79556;
      }

      .cls-10 {
        fill: #e6e6e6;
      }

      .cls-11 {
        fill: #d66730;
      }

      .cls-12 {
        fill: #a34014;
      }

      .cls-13 {
        fill: #e98033;
      }

      .cls-14 {
        fill: #d65b5b;
      }

      .cls-15 {
        fill: #a33636;
      }

      .cls-16 {
        fill: #96442a;
      }

      .cls-17 {
        fill: #512618;
      }

      .cls-18 {
        fill: #ea9a26;
      }

      .cls-19 {
        fill: #c6bd8d;
      }
    </style>
  </defs>
  <g>
    <g>
      <path class="cls-1" d="M576.17,225.64V214.17l17.75-11.81c5.24-3.49,8.79-6.6,10.56-9.25a13.19,13.19,0,0,0,2.6-7.06,8.66,8.66,0,0,0-2.49-6.32,8.52,8.52,0,0,0-6.46-2.54c-5.9,0-9.2,3.56-10.1,10.89l-.15,1.15L576,186.28l.14-.92a23.05,23.05,0,0,1,7-13.48c3.89-3.75,9-5.64,15.3-5.64,6.47,0,11.74,1.88,15.64,5.6A18.9,18.9,0,0,1,620,186.09a20.24,20.24,0,0,1-5.22,13.61c-3.12,3.57-10.18,8.51-21.52,15.07h26.57v10.87Z"/>
      <path class="cls-1" d="M647.87,225.78V213H622.8v-8.79l25.55-38.08h12v36.12h8.48V213H660.4v12.82Zm0-23.57V187.64a37.5,37.5,0,0,1,.26-4.6l.1-1.1-12.74,20.27Z"/>
      <polygon class="cls-1" points="662.81 244.06 699.6 147.81 709.86 147.81 672.86 244.06 662.81 244.06"/>
      <path class="cls-1" d="M718.5,225.2l0-1.08a73.59,73.59,0,0,1,19.6-46.66H707.07l1.07-10.79h42.05v8.58l-.21.28c-6.85,8.88-11.46,16.68-13.68,23.16s-3.6,15.09-4.07,25.53l0,1Z"/>
    </g>
    <path class="cls-1" d="M741,231.48a93.49,93.49,0,1,1-61-119.89L673.25,131l58-13.43-37.35-46.4-6.61,19.17A116,116,0,1,0,762.2,238.8Z"/>
  </g>
  <path class="cls-2" d="M326.11,589.05c-2.52-7.74-9.82-9.43-9.22-16.18.29-3.14,2.4-5.9,1.75-6.34s-2.72,1.63-3.81,2.85c-4.41,5-7.63,14.71-4.44,23.48,2.74,7.5,7.14,6.66,9,15.7.93,4.39-.31,8.48.16,8.56S331.17,604.59,326.11,589.05Z"/>
  <g>
    <g>
      <path class="cls-2" d="M637.06,406.26c0,6.73-3,20.09-5.46,22-3,2.35-7.57,1.34-8.31,1.05-4.42-1.7-7.75-10.33-7.75-23.07s3.11-22.13,7.75-23.08c.44-.09,6.54-1.64,9,1.62C636.28,390.13,637.06,398.75,637.06,406.26Z"/>
      <ellipse class="cls-3" cx="629.45" cy="406.26" rx="7.75" ry="23.08"/>
    </g>
    <path class="cls-4" d="M612.93,484.59s-12.41,2.23-18.45,19.16c-20,56-28.73,105.46-35.26,149.23-2,13.66,8.23,33.73,37.81,7.06C641.76,619.7,620,492.9,612.93,484.59Z"/>
    <path class="cls-5" d="M760,674.81H592.25c-3.57-56.87-5.76-131.21,14-182.62,2.64-6.86,1.08-8.24,27.34-14.72,24.91-6.13,29.68-12,45.7-12.46,10.05-.29,14,2,31.57,4.57,13.77,2,44.34,8.91,59,14.17,18.11,6.49,7.85,25.55,6.23,49.34C773.28,574.31,765.68,616.61,760,674.81Z"/>
    <path class="cls-5" d="M785.26,586.74c.17-.67.33-1.34.49-2,5.31-22,5.82-57.47,3-75.51-2.58-16.25-10.94-22.64-15.46-23.86a14.29,14.29,0,0,0-3.64-.46,12,12,0,0,0-7.15,2.07c-7.51,5.78-16,26.55-18.6,34.07-4.56,13.06-9.38,33.15-13.57,56.57l-.13.71.68.24c16.95,5.94,38.49,8.07,53.57,8.8l.7,0Z"/>
    <path class="cls-5" d="M593.69,503.46c6.12-17.18,18.56-19.61,19.09-19.7l.29-.06c.51.71,1,1.47,1.49,2.28,2.24,6.18,3.89,23.31,4.75,38.63,1.19,21.21,1.3,44.72.34,66-11.69-.45-30.67-1.86-47.41-6.18C578.16,553.65,585,527.78,593.69,503.46Z"/>
    <g>
      <path class="cls-6" d="M590,588.05a174.55,174.55,0,0,1-18-3.55c1.86-9.65,3.81-18.82,5.87-27.61l211.52,1.17a176.09,176.09,0,0,1-3.88,26.76c-.16.65-.32,1.32-.49,2l-.16.68-.7,0c-4.19-.2-8.89-.52-13.85-1q-.51,4-1,8.1l-179.44-1C589.93,591.72,590,589.89,590,588.05Z"/>
      <path class="cls-6" d="M590.05,633.14l174.24,1c-1.4,11.52-2.79,23.66-4.1,36.58l-168.46-.93C591,658.09,590.42,645.78,590.05,633.14Z"/>
      <path class="cls-6" d="M589.83,595.76l179.38-.4c-1.49,11.6-3.08,23.72-4.66,36.62L590,632.36C589.69,620.36,589.58,608.06,589.83,595.76Z"/>
      <path class="cls-6" d="M588.1,519.59l201.51-.45a265.86,265.86,0,0,1,0,36.61l-211.52.47C581.12,543.3,584.44,531.2,588.1,519.59Z"/>
      <path class="cls-6" d="M593.49,503.53c6.13-17.18,18.57-19.61,19.09-19.7h0a56.09,56.09,0,0,1,8-2.87l142.79.79c2.31.71,4.44,1.41,6.31,2.08a21.06,21.06,0,0,1,3.75,1.74C778,487,786,493.5,788.5,509.31c.43,2.71.79,5.8,1.06,9.18L588.8,517.38Q591.05,510.36,593.49,503.53Z"/>
      <path class="cls-6" d="M633.41,477.54c24.9-6.13,29.67-12,45.69-12.46,10-.29,14,2,31.58,4.57,10.3,1.5,30,5.75,45.44,10l-132,.29C626.75,479.22,629.82,478.43,633.41,477.54Z"/>
      <path class="cls-7" d="M624.12,479.94l132-.29c2.55.7,5,1.4,7.24,2.09L620.57,481C621.65,480.63,622.84,480.29,624.12,479.94Z"/>
      <path class="cls-7" d="M588.8,517.38l200.76,1.11c0,.22,0,.43.05.65l-201.51.45C588.33,518.85,588.56,518.11,588.8,517.38Z"/>
      <path class="cls-7" d="M578.07,556.22l211.52-.47c-.05.77-.1,1.54-.16,2.31l-211.52-1.17C578,556.66,578,556.44,578.07,556.22Z"/>
      <path class="cls-7" d="M589.88,593.56l179.44,1c0,.27-.07.54-.11.8l-179.38.4C589.85,595,589.87,594.3,589.88,593.56Z"/>
      <path class="cls-7" d="M590,632.36,764.55,632c-.09.7-.17,1.41-.26,2.12l-174.24-1C590,632.88,590,632.62,590,632.36Z"/>
      <path class="cls-7" d="M591.73,669.75l168.46.93-.09.88-168.23.37C591.82,671.21,591.78,670.48,591.73,669.75Z"/>
    </g>
    <path class="cls-8" d="M714.55,359.76c1.25,1.3,5.26,7.71,3.59,17-4.37,24.37,2.25,16.6-1,30.26-5.33,22.49-21.64,21.38-22.79,14.88s1.5-28.36,3.78-31S714.55,359.76,714.55,359.76Z"/>
    <path class="cls-4" d="M706.32,402.28s-.77,16.66-.25,24.23c1.67,24,7,39.84,6.83,44.73-.27,9.26-5.25,12-9.11,14.53-11.7,7.79-35.69,10.22-43.26,1.32-2.63-3.1-3.23-6.12-3.81-8.9S652.1,457,653,454.42s22.92-40.39,28.18-43.37S706.32,402.28,706.32,402.28Z"/>
    <path class="cls-9" d="M647.5,342.86a33.84,33.84,0,0,0-22.31,26.93c-1.07,7-1.94,15.41-.9,19.9,2.49,10.73.75,14.47,1.44,20.8s4.1,15.75,7,24.15,8,19.7,15.62,24.73,13.27,3.72,16,3.35C676.88,461,696.8,443,699,437.78s2.08-19.34,2.15-23.22.28-17.49,1.6-24.32,3.34-33.27-17.57-43.53c-4.46-2.19-25.7-7.87-37.08-4Z"/>
    <path class="cls-10" d="M644.11,400.84c0,.59-1.93,2.24-7.23,1.87-2.36-.16-4.68-.91-4.6-2.09a4.5,4.5,0,0,1,3.78-3.29C639.64,397,644.2,399.66,644.11,400.84Z"/>
    <path class="cls-8" d="M634.16,400.08a3.43,3.43,0,1,0,3.63-3.22A3.42,3.42,0,0,0,634.16,400.08Z"/>
    <path class="cls-10" d="M679.31,399.91c0,.63-1.92,2.53-7.64,2.49-2.55,0-5.08-.68-5.07-1.95s1.65-3.44,3.84-3.79C674.25,396.06,679.32,398.63,679.31,399.91Z"/>
    <path class="cls-8" d="M675.83,399.27a3.5,3.5,0,1,1-3.92-3A3.51,3.51,0,0,1,675.83,399.27Z"/>
    <path class="cls-11" d="M669.25,439.14a.66.66,0,0,0-.44-1,83.93,83.93,0,0,0-13-.88,52.6,52.6,0,0,0-9.38,1.09.66.66,0,0,0-.45.93,11.77,11.77,0,0,0,11.17,7.07C663.57,446.17,667.78,441.19,669.25,439.14Z"/>
    <path class="cls-8" d="M646.24,390.38a13.79,13.79,0,0,1-3,.48,20.25,20.25,0,0,1-2.71,0,10.67,10.67,0,0,1-2.53-.53,15.14,15.14,0,0,0-2.46-.7l-.61-.1c-.2,0-.4,0-.6-.06a7.46,7.46,0,0,0-1.15,0h-.54l-.62.11c-.41.08-.83.16-1.23.28a14.74,14.74,0,0,0-2.42.9,12.93,12.93,0,0,0-1.15.64,10.52,10.52,0,0,0-1.08.77l-.35-.26a9.81,9.81,0,0,1,1.78-2.27,13.15,13.15,0,0,1,2.32-1.79c.42-.26.86-.49,1.3-.72l.68-.3.19-.08.2-.07.2-.07.2-.06a13,13,0,0,1,3.08-.43l1.49-.06c.49,0,1,0,1.47,0a8.79,8.79,0,0,1,1.45.14,8,8,0,0,1,1.37.4,12.29,12.29,0,0,1,2.57,1.33,10.24,10.24,0,0,1,1.18.93,7.13,7.13,0,0,1,1.07,1.17Z"/>
    <path class="cls-8" d="M661.11,389.13a6.87,6.87,0,0,1,.58-.71c.2-.22.41-.42.62-.62a14.83,14.83,0,0,1,1.33-1.07,16.17,16.17,0,0,1,1.42-.9c.49-.26,1-.52,1.49-.73.25-.11.51-.21.77-.3s.53-.17.79-.24l.81-.18.83-.11c.55-.07,1.12-.09,1.68-.13l.84,0,.84-.05c.28,0,.57,0,.85,0s.56,0,.84,0l.86,0h.42l.44,0,.86.1.43.06.43.08a13.91,13.91,0,0,1,1.68.46l.41.15.41.17c.26.12.52.23.78.37a10.61,10.61,0,0,1,1.45.89,12.13,12.13,0,0,1,1.29,1.06c.4.38.78.76,1.14,1.17l-.28.34c-.46-.26-.92-.52-1.39-.74a11.67,11.67,0,0,0-1.42-.61c-.23-.09-.47-.16-.71-.24s-.48-.14-.72-.19-.48-.09-.72-.14l-.36-.05-.36,0a12.8,12.8,0,0,0-2.9.08l-.36,0-.37.06-.73.13c-.24,0-.49.1-.73.15l-.73.16a15.09,15.09,0,0,0-1.45.44l-.72.26-.71.28-.72.25-.72.23c-.24.07-.49.12-.74.18l-.75.14c-.51.08-1,.16-1.54.21s-1,.1-1.59.13-1.09,0-1.65,0a12,12,0,0,1-1.75-.15Z"/>
    <path class="cls-8" d="M648.13,355.13c-2.9,3.48-3.36,5.19-7,6.31-14,4.21-15.53,11.54-16.42,16.21-1.3,6.78,2.57,25.61,1,25.37s-3.72-2.76-3.34-10.53c.3-6.32-4.92-8.88-5.16-12.93s.45-18.09,3.54-24.31,7.82-14.09,14.56-16.73,4.44-4,11.07-6.06c7.72-2.36,11.94-.87,12.63,2.26C659.74,338.38,651.54,351,648.13,355.13Z"/>
    <path class="cls-8" d="M681.21,401.1a9.91,9.91,0,0,0-.83-.88,9.78,9.78,0,0,0-.9-.79,10,10,0,0,0-2-1.23c-.17-.09-.35-.16-.52-.23s-.35-.14-.53-.19a8.52,8.52,0,0,0-1.08-.27,7.84,7.84,0,0,0-2.16-.08,7.4,7.4,0,0,0-2.09.58l-2,.81a13.15,13.15,0,0,0-1.89,1,10.48,10.48,0,0,0-.93.65,11,11,0,0,0-.93.81l-.25-.09a3.52,3.52,0,0,1,.17-1.37,5.44,5.44,0,0,1,.57-1.28,7,7,0,0,1,2-2,6.61,6.61,0,0,1,2.56-1,12.51,12.51,0,0,1,2.74-.18,8.8,8.8,0,0,1,5,1.76,10.24,10.24,0,0,1,1,.83,9.59,9.59,0,0,1,.87.94,10,10,0,0,1,1.37,2.12Z"/>
    <path class="cls-8" d="M630.65,401.75a3.41,3.41,0,0,1,.07-.65,4.5,4.5,0,0,1,.17-.63,5.94,5.94,0,0,1,.57-1.16,6.58,6.58,0,0,1,1.83-1.89,5.64,5.64,0,0,1,2.49-.93,9.91,9.91,0,0,1,1.32-.07c.45,0,.87.05,1.29.1a10.1,10.1,0,0,1,4.65,1.72,8.31,8.31,0,0,1,1.78,1.67,7.25,7.25,0,0,1,.68,1A7.36,7.36,0,0,1,646,402l-.23.13a8.24,8.24,0,0,0-3.39-2.7,9.12,9.12,0,0,0-2-.61,9.58,9.58,0,0,0-2.07-.15,4.63,4.63,0,0,0-1,.13,5.8,5.8,0,0,0-.95.28l-.89.34-.88.35a13.53,13.53,0,0,0-1.79.89c-.61.35-1.23.77-1.9,1.24Z"/>
    <path class="cls-9" d="M697.33,417c.4.41,1.42,2.26,3.14,2.67s4.28,1.21,7.74-3.74,5-16.08,4.52-19.07c0,0-.65-7.21-4.74-7s-10.45,17.46-10.45,17.46Z"/>
    <path class="cls-8" d="M646.24,358.72c2,3.37,6.08,4.26,12.06,3s9.76-1.09,13.79,1.54c6.9,4.5,4.86,9.42,15.47,19.32,4.51,4.21,7,7.38,7.64,16.09.47,6.35-.11,7.5.2,10.42.28,2.6,4.86,4.54,6.44-.43s1.45-7.25,4.2-13.5c1.38-3.14,2.26-5.18,6.1-5.69,3.33-.45,6.59-11.51,5.75-20.44-1-11-3.63-15.24-12.43-22s-8.62-5.2-14.57-10.74-24.2-10.21-32.39-1.78C642.23,351.22,646.24,358.72,646.24,358.72Z"/>
    <path class="cls-12" d="M672.27,437.13c-.43.35-.87.67-1.33,1s-.93.58-1.41.85a25.62,25.62,0,0,1-6.16,2.41,26,26,0,0,1-3.28.62c-.28.05-.55.07-.83.1l-.83.09-.84.08-.84,0h-.84l-.84,0-.84-.09-.42-.06-.41-.07-.82-.17-.82-.2c-.54-.14-1.07-.32-1.59-.51-.26-.09-.52-.2-.78-.31l-.76-.34c-.25-.12-.5-.26-.74-.39s-.49-.28-.72-.44l.06-.19c.56,0,1.11.06,1.65.1l.81.07.4,0,.4,0,.8.07.2,0,.2,0,.39,0,.79.07.79.05.39,0,.39,0,.79.06.78.06.39,0,.39,0a23.68,23.68,0,0,0,3.15.09,25.46,25.46,0,0,0,3.15-.32,27,27,0,0,0,6.16-1.65c.5-.2,1-.41,1.47-.65a13.75,13.75,0,0,0,1.42-.76Z"/>
    <path class="cls-4" d="M731,578.62c16.87,5.89,38.24,8,53.27,8.75-5.57,22.45-15.6,55.34-24.1,67.83-8.86,13-16.11,16.32-24.08,15.52s-11.8-17.61-11.7-38.06C724.4,622.14,727,600.87,731,578.62Z"/>
    <path class="cls-9" d="M686.42,510.09s12,21.93,21,38.74,17.75,28.83,31,39.94,17.22,19.53,20.23,38.15-2.88,36.93-13.69,42.33S731.13,669,720,658.14,698.39,629,689.09,602.59,669,539.82,667.16,526.91s4.66-18.86,10-20.12C681,505.86,684,505.89,686.42,510.09Z"/>
    <path class="cls-9" d="M688.81,511.8s-6.84-30.55-8.52-35.11-2-5.72-3-6.68c-6.3-5.95-22.64-11.79-25.68-10.27s-6.24,5.84-6.69,8.88.3,4.87-.31,5.32-2.29,1.12-2.73,3.06c-.38,1.63.76,4.71-.46,5.32s-2.73.45-3.8,1.52-1.52,3.8-1.67,4.41-2.38,1.07-3.44,2.59-.51,4.4.55,7,2.74,7.45,7.45,9.58,8.36,2,9.12,3.19,17.56,24.73,28.73,24.17C683.79,534.48,692.15,529.28,688.81,511.8Z"/>
    <path class="cls-11" d="M645.46,473.89q2.68-.4,5.39-.65l1.35-.12,1.36-.09c.9-.06,1.8-.13,2.7-.16,1.8-.09,3.6.05,5.39-.13l1.35-.14c.44,0,.89-.09,1.34-.16l.68-.1.68-.1a14,14,0,0,0,1.37-.29v-.18c-.45-.16-.9-.26-1.36-.38s-.91-.19-1.36-.25-.92-.12-1.38-.17-.92-.06-1.38-.08a19.47,19.47,0,0,0-2.75.12l-2.73.39c-.9.12-1.81.26-2.71.41l-1.35.25-1.35.27c-1.78.39-3.56.82-5.3,1.38Z"/>
    <path class="cls-11" d="M642.19,482.08c1.14,0,2.28,0,3.42,0,.56,0,1.13,0,1.69,0s1.13,0,1.7,0,1.13.07,1.69.12a8.57,8.57,0,0,0,1.68,0,14.36,14.36,0,0,0,1.69-.25,9.67,9.67,0,0,0,1.71-.5v-.19a8,8,0,0,0-1.69-.62,11.41,11.41,0,0,0-1.72-.28,7.61,7.61,0,0,0-1.72,0l-1.72.24c-.57.06-1.14.13-1.7.21l-1.7.28c-1.13.2-2.25.43-3.36.71Z"/>
    <path class="cls-11" d="M636.42,488.88l3.16,0,1.57,0,1.56,0c.53,0,1,.07,1.56.12a9,9,0,0,0,1.56,0,14.84,14.84,0,0,0,1.56-.25,7.63,7.63,0,0,0,1.58-.51v-.18a6.86,6.86,0,0,0-1.56-.62,11.08,11.08,0,0,0-1.59-.29,7.14,7.14,0,0,0-1.6,0c-.53.07-1.06.17-1.59.23l-1.58.22-1.56.28c-1,.21-2.08.44-3.1.71Z"/>
    <path class="cls-11" d="M649.36,509.69a1,1,0,0,0-.06-.2l-.06-.15-.13-.3-.26-.59c-.17-.39-.36-.77-.54-1.16-.38-.77-.77-1.53-1.17-2.29s-.82-1.51-1.26-2.25-.91-1.47-1.4-2.19a22.51,22.51,0,0,0-1.62-2.16,4.63,4.63,0,0,0-1.24-1l-.24-.1-.12-.05-.08,0-.33-.1-.66-.15a14.75,14.75,0,0,0-2.64-.25,11.85,11.85,0,0,0-2.64.28l0,.21a25.09,25.09,0,0,0,2.42.94l2.36.8.57.2.28.1.07,0h0l.06,0,.16.09.2.13c.13.1.28.2.42.33a12.49,12.49,0,0,1,1.73,1.69c.54.63,1.06,1.28,1.57,1.95s1,1.34,1.52,2,1,1.38,1.48,2.08c.25.34.49.69.73,1.05l.35.52.18.27.08.13s0,.11.07.1Z"/>
    <path class="cls-8" d="M762.45,487a17,17,0,0,0-2.42,1.9,30,30,0,0,0-2.13,2.24,48.21,48.21,0,0,0-3.72,4.93,100.74,100.74,0,0,0-6.12,10.67c-.91,1.83-1.79,3.68-2.62,5.55s-1.63,3.76-2.39,5.67c-1.52,3.84-2.77,7.74-3.93,11.66a254.16,254.16,0,0,0-8.84,48c2.22-7.84,4.18-15.71,6.22-23.55s4.06-15.66,6.31-23.38c.56-1.94,1.14-3.86,1.75-5.78s1.23-3.81,1.9-5.69c1.35-3.78,2.81-7.53,4.34-11.25s3.18-7.39,5-11c.92-1.79,1.88-3.55,3-5.25A25.74,25.74,0,0,1,762.45,487Z"/>
    <path class="cls-8" d="M606.26,492.19A170.86,170.86,0,0,0,595,527a283.61,283.61,0,0,0-5.29,36.29c-1,12.18-1.41,24.4-1.3,36.6s.7,24.39,1.9,36.52c.41-12.19.64-24.34,1.12-36.48s1.1-24.24,2.11-36.31,2.4-24.11,4.42-36A273.44,273.44,0,0,1,606.26,492.19Z"/>
    <path class="cls-3" d="M695.47,406.62c0,20.85-12.41,39.58-27.43,39.58a20.7,20.7,0,0,1-2.95-.22s0-.08,0-.12c0-2.07-2.74-3.76-6.11-3.76s-6.11,1.69-6.11,3.76,2.74,3.76,6.11,3.76a7.52,7.52,0,0,0,5.18-1.77,21.32,21.32,0,0,0,5.37.57c17.09,0,31.56-17.62,31.56-40.91Z"/>
    <path class="cls-3" d="M638.46,337.38l.19-.18c.88-.78,5.8-4.94,17.1-5,28.19-.26,49.09,23.9,49.09,55.51l-6,1.21c0-28.3-21.4-54.3-45.48-54.61-8.83-.11-13.11,1.89-14.88,3.12Z"/>
    <g>
      <path class="cls-2" d="M713.14,405.6c0,6.73-2.95,20.09-5.45,22-3,2.35-7.57,1.34-8.32,1.05-4.41-1.7-7.74-10.33-7.74-23.07s3.11-22.13,7.74-23.08c.45-.09,6.55-1.64,9,1.62C712.37,389.47,713.14,398.09,713.14,405.6Z"/>
      <ellipse class="cls-7" cx="705.54" cy="405.6" rx="7.75" ry="23.08"/>
      <path class="cls-3" d="M712.6,405.6c0,11.11-3,20.11-6.58,20.11s-6.58-9-6.58-20.11,2.95-20.1,6.58-20.1S712.6,394.5,712.6,405.6Z"/>
    </g>
  </g>
  <g>
    <g>
      <g>
        <rect class="cls-2" x="204.04" y="164.01" width="81.46" height="122.68" transform="translate(489.54 450.7) rotate(180)"/>
        <rect class="cls-2" x="117.48" y="164.01" width="81.46" height="122.68" transform="translate(316.42 450.7) rotate(180)"/>
        <rect class="cls-2" x="204.04" y="291.95" width="81.46" height="122.68" transform="translate(489.54 706.58) rotate(180)"/>
        <rect class="cls-2" x="117.48" y="291.95" width="81.46" height="122.68" transform="translate(316.42 706.58) rotate(180)"/>
        <rect class="cls-2" x="204.04" y="419.88" width="81.46" height="122.68" transform="translate(489.54 962.45) rotate(180)"/>
        <rect class="cls-2" x="117.48" y="419.88" width="81.46" height="122.68" transform="translate(316.42 962.45) rotate(180)"/>
        <rect class="cls-2" x="390.49" y="164.01" width="81.46" height="122.68" transform="translate(862.45 450.7) rotate(180)"/>
        <rect class="cls-2" x="303.93" y="164.01" width="81.46" height="122.68" transform="translate(689.33 450.7) rotate(180)"/>
        <rect class="cls-2" x="390.49" y="291.95" width="81.46" height="122.68" transform="translate(862.45 706.58) rotate(180)"/>
        <rect class="cls-2" x="303.93" y="291.95" width="81.46" height="122.68" transform="translate(689.33 706.58) rotate(180)"/>
        <rect class="cls-2" x="390.49" y="419.88" width="81.46" height="122.68" transform="translate(862.45 962.45) rotate(180)"/>
        <rect class="cls-2" x="303.93" y="419.88" width="81.46" height="122.68" transform="translate(689.33 962.45) rotate(180)"/>
        <rect class="cls-2" x="204.04" y="548.64" width="81.46" height="122.68" transform="translate(489.54 1219.97) rotate(180)"/>
        <rect class="cls-2" x="117.48" y="548.64" width="81.46" height="122.68" transform="translate(316.42 1219.97) rotate(180)"/>
        <rect class="cls-2" x="390.49" y="548.64" width="81.46" height="122.68" transform="translate(862.45 1219.97) rotate(180)"/>
        <rect class="cls-2" x="303.93" y="548.64" width="81.46" height="122.68" transform="translate(689.33 1219.97) rotate(180)"/>
      </g>
      <g>
        <g>
          <circle class="cls-13" cx="294.72" cy="238.72" r="53.05" transform="translate(12.59 492.2) rotate(-80.95)"/>
          <circle class="cls-8" cx="294.72" cy="238.72" r="45.24" transform="translate(-26.39 36.88) rotate(-6.85)"/>
          <circle class="cls-2" cx="294.72" cy="238.72" r="42.63" transform="translate(-82.48 278.32) rotate(-45)"/>
        </g>
        <polygon class="cls-8" points="297.01 239.57 294.75 200.95 292.62 237.3 267.55 258.58 297.01 239.57"/>
      </g>
    </g>
    <g>
      <g>
        <rect class="cls-2" x="913.45" y="164.01" width="81.46" height="122.68" transform="translate(1908.35 450.7) rotate(180)"/>
        <rect class="cls-2" x="826.89" y="164.01" width="81.46" height="122.68" transform="translate(1735.24 450.7) rotate(180)"/>
        <rect class="cls-2" x="913.45" y="291.95" width="81.46" height="122.68" transform="translate(1908.35 706.58) rotate(180)"/>
        <rect class="cls-2" x="826.89" y="291.95" width="81.46" height="122.68" transform="translate(1735.24 706.58) rotate(180)"/>
        <rect class="cls-2" x="913.45" y="419.88" width="81.46" height="122.68" transform="translate(1908.35 962.45) rotate(180)"/>
        <rect class="cls-2" x="826.89" y="419.88" width="81.46" height="122.68" transform="translate(1735.24 962.45) rotate(180)"/>
        <rect class="cls-2" x="1099.9" y="164.01" width="81.46" height="122.68" transform="translate(2281.26 450.7) rotate(180)"/>
        <rect class="cls-2" x="1013.34" y="164.01" width="81.46" height="122.68" transform="translate(2108.14 450.7) rotate(180)"/>
        <rect class="cls-2" x="1099.9" y="291.95" width="81.46" height="122.68" transform="translate(2281.26 706.58) rotate(180)"/>
        <rect class="cls-2" x="1013.34" y="291.95" width="81.46" height="122.68" transform="translate(2108.14 706.58) rotate(180)"/>
        <rect class="cls-2" x="1099.9" y="419.88" width="81.46" height="122.68" transform="translate(2281.26 962.45) rotate(180)"/>
        <rect class="cls-2" x="1013.34" y="419.88" width="81.46" height="122.68" transform="translate(2108.14 962.45) rotate(180)"/>
        <rect class="cls-2" x="913.45" y="548.64" width="81.46" height="122.68" transform="translate(1908.35 1219.97) rotate(180)"/>
        <rect class="cls-2" x="826.89" y="548.64" width="81.46" height="122.68" transform="translate(1735.24 1219.97) rotate(180)"/>
        <rect class="cls-2" x="1099.9" y="548.64" width="81.46" height="122.68" transform="translate(2281.26 1219.97) rotate(180)"/>
        <rect class="cls-2" x="1013.34" y="548.64" width="81.46" height="122.68" transform="translate(2108.14 1219.97) rotate(180)"/>
      </g>
      <g>
        <g>
          <circle class="cls-3" cx="1004.12" cy="238.72" r="53.05" transform="translate(484.67 1130.58) rotate(-73.15)"/>
          <circle class="cls-8" cx="1004.12" cy="238.72" r="45.24" transform="translate(-21.64 124.48) rotate(-7.02)"/>
          <circle class="cls-2" cx="1004.12" cy="238.72" r="42.63" transform="translate(125.3 779.94) rotate(-45)"/>
        </g>
        <polygon class="cls-8" points="1006.41 239.57 1004.15 200.95 1002.02 237.3 976.96 258.58 1006.41 239.57"/>
      </g>
    </g>
  </g>
  <g>
    <path class="cls-1" d="M997.51,357.4H804.31a14.48,14.48,0,0,0-14.48,14.48V429.5A14.48,14.48,0,0,0,804.31,444H964.46L981,459.08V444h16.54A14.48,14.48,0,0,0,1012,429.5V371.88A14.48,14.48,0,0,0,997.51,357.4Z"/>
    <g>
      <circle class="cls-2" cx="838.09" cy="399.97" r="35.27" transform="translate(-37.35 709.77) rotate(-45)"/>
      <g>
        <path class="cls-3" d="M863.51,424.41a13.42,13.42,0,0,0-4-1.88l0,0a54.28,54.28,0,0,0-7.71-2.22c-9.31-2.3-11.1-5-17.09-5.2-3.75-.11-5.43.38-11.8,2.25-3.94,1.15-8.65,2.43-13.24,3.45a35.26,35.26,0,0,0,53.86,3.58Z"/>
        <g>
          <path class="cls-8" d="M854.18,391c-.75-4.79-1.85-11.85-7.41-16.2-2.36-1.85-8.32-5.14-12.73-4.13-.59.14-.88.57-1.69.74-1.37.28-2.25-.48-5.54,1.43-8.21,4.78-7.36,10.8-9.36,14.74-2.93,5.76-6,7.81-7.62,11.67a24.75,24.75,0,0,0-1.75,6.45c7.58,7.15,20.88,13.21,43.22,7a49.5,49.5,0,0,0,2.08-6.14A37.53,37.53,0,0,0,854.18,391Z"/>
          <path class="cls-4" d="M839.88,402.49c.1.58-.19,8.84-.09,13.26a8.48,8.48,0,0,1-7.36,8.8c-4.71.86-8.41-1.55-9-4.09-.32-1.43.89-12.68-.36-20s.46-8.17,1.13-8.17S839.88,402.49,839.88,402.49Z"/>
          <path class="cls-9" d="M847.5,380.39c2.44,4.68,2.17,12.79,1.8,14.53s-.61,1.49-.35,2.47-.09,3.75-1.47,7.1-4.43,7.72-5.86,8.58a7.21,7.21,0,0,1-5.12,1c-2.06-.33-6.72-3.15-9.38-7.51-2.08-3.43-3.62-6.24-3.65-8.46s-1.71-9.33.51-13.39,3.91-7.3,9.73-8.84C835.24,375.49,843,371.8,847.5,380.39Z"/>
          <path class="cls-8" d="M844.83,392.71a2.83,2.83,0,0,1,.68-.92,3.63,3.63,0,0,1,.94-.64,4,4,0,0,1,2.26-.22,5,5,0,0,1,.56.1l.27.07a2.46,2.46,0,0,1,.29.09,3.53,3.53,0,0,1,1,.64,9,9,0,0,1,1.28,1.68l-.09.1c-.29-.22-.53-.47-.79-.69a4.87,4.87,0,0,0-.8-.57,2.53,2.53,0,0,0-.83-.33l-.21,0h-.24a2.36,2.36,0,0,0-.46,0,3.41,3.41,0,0,0-.46,0l-.45.12a8.6,8.6,0,0,1-.87.24l-.94.21c-.32.07-.66.15-1,.21Z"/>
          <path class="cls-8" d="M830.51,390a7.66,7.66,0,0,1,2.4-1.08,7,7,0,0,1,2.74-.16l.7.12.7.17a3.36,3.36,0,0,1,1.25.7,3.81,3.81,0,0,1,1.36,2.44l-.14.1c-.85-.42-1.52-.82-2.19-1.16-.33-.17-.64-.35-1-.55l-.49-.28a4.2,4.2,0,0,0-.53-.22,6,6,0,0,0-1.13-.25,5.81,5.81,0,0,0-1.19-.08,8.65,8.65,0,0,0-2.44.4Z"/>
          <path class="cls-10" d="M833.37,394.49c0,.23.68.89,2.69.86.9,0,1.79-.24,1.78-.69a1.71,1.71,0,0,0-1.36-1.33C835.14,393.13,833.36,394.05,833.37,394.49Z"/>
          <path class="cls-8" d="M835.13,393.75a1.15,1.15,0,0,1,2.13.88A1.17,1.17,0,1,1,835.13,393.75Z"/>
          <path class="cls-10" d="M845.09,395.79c0,.21.57.86,2.24.84.75,0,1.1-.38,1.1-.82s-.11-1-.75-1.15C846.56,394.45,845.08,395.35,845.09,395.79Z"/>
          <path class="cls-8" d="M846.37,395.46a1,1,0,0,1,1.79.74A1,1,0,1,1,846.37,395.46Z"/>
          <path class="cls-8" d="M837.76,394.91a1.85,1.85,0,0,0-.28-.77.7.7,0,0,0-.51-.31,1.16,1.16,0,0,0-.33,0h-.17l-.2,0a7.67,7.67,0,0,0-.8.11c-.55.09-1.1.19-1.68.27a11.22,11.22,0,0,1-1.78.16,5.46,5.46,0,0,1,.75-.54,6.86,6.86,0,0,1,2.54-.93,4.9,4.9,0,0,1,.94-.07l.25,0,.26,0a1.79,1.79,0,0,1,.52.18,1.37,1.37,0,0,1,.46.37,1.21,1.21,0,0,1,.23.52,1.23,1.23,0,0,1,0,.51A1.32,1.32,0,0,1,837.76,394.91Z"/>
          <path class="cls-8" d="M848.73,396.16a1.41,1.41,0,0,0-.29-.64.49.49,0,0,0-.2-.16.54.54,0,0,0-.22-.05h-.27l-.14,0-.16,0-.67.11c-.45.09-.92.18-1.41.25a8.24,8.24,0,0,1-1.52.11,3.6,3.6,0,0,1,.6-.51,5.07,5.07,0,0,1,.67-.39,5.3,5.3,0,0,1,1.47-.49,3.59,3.59,0,0,1,.81-.07h.21l.23,0a2.06,2.06,0,0,1,.46.15,1.3,1.3,0,0,1,.41.33,1.07,1.07,0,0,1,.21.46,1.34,1.34,0,0,1,0,.45A1.19,1.19,0,0,1,848.73,396.16Z"/>
          <path class="cls-8" d="M833,374a2.05,2.05,0,0,1,.31.13c1,.5,1.86,2.35,2.08,4.64a10,10,0,0,1-.13,3c-.89,5-7,5.08-9,9.86-1.66,4-3.1,1.81-3.54.16-1.9-7.11-2.46-12.66,7.58-17.55A4.76,4.76,0,0,1,833,374Z"/>
          <path class="cls-8" d="M834.47,374.09c1-.42,7.4-2.52,13.73,4.46,3.54,3.9,3,9.38,2.8,11.46a3.37,3.37,0,0,1-1.43,2.62c-.35,0,2.11-5.9-10-9.66a8.72,8.72,0,0,1-4.9-3.7c-.94-1-2.24-3-1.54-4.23A2.47,2.47,0,0,1,834.47,374.09Z"/>
          <path class="cls-14" d="M835.29,407.15a.21.21,0,0,1,.16-.33,27.46,27.46,0,0,1,4.34,0,17.69,17.69,0,0,1,3.09.55.22.22,0,0,1,.13.32,3.93,3.93,0,0,1-3.85,2.12A5.37,5.37,0,0,1,835.29,407.15Z"/>
          <path class="cls-9" d="M824.56,393.43a2,2,0,0,0-2.83-.82c-1.25.65-1.4,2.5-1,4.71s1.86,4.81,3.12,5.17,1.27-.48,1.52-1.59S825.44,395.07,824.56,393.43Z"/>
          <path class="cls-8" d="M854.37,399.16c0,.29,0,.58,0,.86,0,.58-.07,1.15-.12,1.72-.1,1.15-.25,2.29-.45,3.41-.1.57-.22,1.13-.35,1.68l-.1.42-.11.42-.22.85c-.29,1.13-.61,2.23-1,3.33l-.28.81c.65-.19,1.31-.4,2-.61.37-1,.7-2,1-3.05l.24-.86.12-.43.12-.44c.15-.59.28-1.18.4-1.78.22-1.18.38-2.38.49-3.58a37.16,37.16,0,0,0-.07-7.23l-.12-.89c0-.3-.07-.6-.13-.9-.09-.59-.2-1.19-.32-1.76-.22-1.17-.48-2.33-.78-3.49A25,25,0,0,0,852,381a16.47,16.47,0,0,0-2.17-2.88,14.89,14.89,0,0,0-2.74-2.28l.64.62c.1.11.21.21.31.31l.29.33c.19.22.39.43.58.66l.53.69a17.89,17.89,0,0,1,1.75,3,28,28,0,0,1,2.07,6.58c.23,1.14.41,2.28.59,3.44.1.59.16,1.16.24,1.73,0,.28.07.57.1.85l.09.86c.07,1.15.14,2.3.12,3.45C854.38,398.59,854.38,398.87,854.37,399.16Z"/>
          <path class="cls-8" d="M830.44,371.26a7,7,0,0,0-2,.34,13.6,13.6,0,0,0-1.89.77l-.9.47a7.86,7.86,0,0,0-.89.51l-.86.55a4.5,4.5,0,0,0-.42.3l-.41.32a16.69,16.69,0,0,0-1.55,1.37,15.31,15.31,0,0,0-2.44,3.38c-.16.31-.33.62-.46.94s-.29.63-.41,1c-.25.64-.47,1.29-.69,1.92a23.82,23.82,0,0,1-1.38,3.58c0,.07-.07.14-.1.2l-.13.21-.24.42c-.16.29-.34.56-.51.83l-.26.41-.27.4c-.18.27-.36.54-.56.8-.75,1.06-1.57,2.07-2.42,3.09a39.84,39.84,0,0,0-2.51,3.22,15.22,15.22,0,0,0-1,1.85c-.08.16-.16.32-.23.48l-.2.47c-.13.31-.25.64-.37,1a24.39,24.39,0,0,0-1.09,3.75c.44.49.9,1,1.39,1.45.06-.3.12-.59.19-.89a25.24,25.24,0,0,1,1.17-3.67c.12-.3.25-.59.37-.89l.2-.44.21-.42a13.07,13.07,0,0,1,.95-1.61c.72-1,1.56-2,2.42-3.06s1.71-2.09,2.49-3.21c.2-.28.39-.57.58-.86l.27-.43.27-.43c.18-.3.36-.59.52-.89l.25-.45.13-.22.12-.24a25.1,25.1,0,0,0,1.38-3.91,25.43,25.43,0,0,1,1.3-3.65,14.94,14.94,0,0,1,2-3.21,17.43,17.43,0,0,1,1.35-1.37l.35-.33a3.57,3.57,0,0,1,.37-.31l.77-.6a7.75,7.75,0,0,1,.81-.56l.82-.54a15.75,15.75,0,0,1,1.72-.92,6.63,6.63,0,0,1,1.86-.54,8,8,0,0,1,1-.07,4.12,4.12,0,0,0,1-.11C831.78,371.43,831.13,371.26,830.44,371.26Z"/>
          <path class="cls-8" d="M833.71,386.63s8.5,4.89,16.1,1.89c5.47-2.16-1-11.81-8.17-13.57-2.65-.66-7.66.44-6.76,2.71C836.76,382.34,833.71,386.63,833.71,386.63Z"/>
        </g>
        <circle class="cls-6" cx="838.09" cy="399.97" r="35.27" transform="translate(-37.35 709.77) rotate(-45)"/>
      </g>
    </g>
    <g>
      <circle class="cls-2" cx="965.64" cy="415.68" r="3.27"/>
      <circle class="cls-2" cx="979.19" cy="415.68" r="3.27"/>
      <path class="cls-2" d="M996,415.68a3.27,3.27,0,1,1-3.27-3.27A3.27,3.27,0,0,1,996,415.68Z"/>
      <path class="cls-2" d="M995.85,387.52H920.58a3.29,3.29,0,0,1,0-6.57h75.27a3.29,3.29,0,0,1,0,6.57Z"/>
      <path class="cls-2" d="M995.85,403.3H886.36a3.28,3.28,0,1,1,0-6.56H995.85a3.28,3.28,0,0,1,0,6.56Z"/>
      <path class="cls-2" d="M952.72,419H886.36a3.28,3.28,0,1,1,0-6.56h66.36a3.28,3.28,0,0,1,0,6.56Z"/>
    </g>
  </g>
  <g>
    <path class="cls-8" d="M274.89,380a40.56,40.56,0,0,0-7.39,6.35,45.56,45.56,0,0,0-5.8,8,69.86,69.86,0,0,0-7.06,18.37c-.77,3.18-1.41,6.38-2,9.56-.29,1.58-.55,3.22-.79,4.84-.14.82-.22,1.63-.31,2.45l-.28,2.46a102.42,102.42,0,0,0,.14,19.73c.35,3.28.85,6.54,1.52,9.78q.51,2.43,1.17,4.83l.34,1.2.34,1.16c.23.78.47,1.56.71,2.34a100.38,100.38,0,0,0,7.42,18.22,66.58,66.58,0,0,0,11.69,15.87,53.26,53.26,0,0,0,16.05,11,63.42,63.42,0,0,1-14.19-12.71,73.13,73.13,0,0,1-9.93-16c-1.33-2.85-2.49-5.78-3.54-8.74s-2-6-2.82-9.05l-.63-2.31-.32-1.16-.3-1.13c-.38-1.5-.72-3-1-4.57-.61-3.06-1.07-6.17-1.39-9.29-.18-1.56-.29-3.13-.4-4.7-.05-.78-.07-1.56-.11-2.35s-.06-1.57-.07-2.35c-.11-3.14,0-6.28.19-9.42l.19-2.35c.06-.79.12-1.57.22-2.35.2-1.56.35-3.12.58-4.72.44-3.17.89-6.31,1.46-9.43a76.8,76.8,0,0,1,5.35-18.06,47,47,0,0,1,4.66-8.22l1.41-1.93c.5-.62,1-1.2,1.55-1.82l.78-.92c.27-.29.56-.56.84-.85Z"/>
    <path class="cls-8" d="M316,368.2c-2.22-.46-3-1.64-4.62-2-12.07-2.75-28.35,6.23-34.79,11.27-15.2,11.91-18.21,31.19-20.25,44.27a102.57,102.57,0,0,0,2.19,42.55c3.38,11.94,10.34,36.52,33.83,49.3,19.52,10.61,39.26,7,45.32,5.89,7.29-1.33,17.85-3.41,27.83-12.06a49.6,49.6,0,0,0,15.68-25.63c3.53-15.08.32-27.79-3.67-37.5-4.34-10.56-12.82-16.16-20.82-31.88-5.48-10.77-3.15-27.22-25.57-40.27C322.11,366.89,319.69,369,316,368.2Z"/>
    <path class="cls-3" d="M210.22,677.94H376.8c-13.17-93.81,14-89.85,27.29-122.78,8.44-20.92,13.7-48.17-4.34-50.64-16.7-2.29-38.54-7.83-54.65-12.55s-20.37-6-29.88-5.69c-15.16.43-19.67,7.35-43.24,13.16-11.12,2.74-16.52,4.28-19.52,5.62l0-.06s-14.51,4.45-20,16.77c-4.57,10.3-18,51.14-20.83,69.46-3.29,21.24-8.65,64.08-3.93,76.26A76.07,76.07,0,0,1,210.22,677.94Z"/>
    <path class="cls-8" d="M370.44,507.61a47.22,47.22,0,0,0,7.72-7.82,48.79,48.79,0,0,0,5.83-9.47,47.14,47.14,0,0,0,3.47-10.68,56.67,56.67,0,0,0,1.17-11.19,58.18,58.18,0,0,0-1.06-11.25,68.68,68.68,0,0,0-3.08-10.86c-.34-.88-.67-1.75-1-2.62l-.55-1.29c-.19-.43-.41-.87-.62-1.31a39.54,39.54,0,0,0-2.87-5c-2.14-3.18-4.56-6-6.86-8.81s-4.56-5.54-6.62-8.43c-.52-.71-1-1.44-1.51-2.18l-.75-1.1-.7-1.12c-.48-.74-1-1.49-1.39-2.26l-.67-1.15-.34-.57-.29-.55a67.18,67.18,0,0,1-3.77-9.79c-.58-1.73-1.19-3.5-1.88-5.24-.32-.88-.74-1.74-1.12-2.6s-.82-1.71-1.25-2.56a41.62,41.62,0,0,0-6.66-9.24,44.19,44.19,0,0,0-4.25-3.75l-1.11-.87a13.16,13.16,0,0,0-1.14-.82l-2.36-1.51a23.25,23.25,0,0,0-2.43-1.37l-2.46-1.3a38.77,38.77,0,0,0-5.16-2.11,18.9,18.9,0,0,0-5.53-.92c-1.88,0-3.65.46-5.47.29a11.85,11.85,0,0,0,2.73.32,26.42,26.42,0,0,1,2.69.17,17.65,17.65,0,0,1,5.08,1.48,42.59,42.59,0,0,1,4.71,2.52l2.24,1.48a21,21,0,0,1,2.19,1.54l2.11,1.62a11.76,11.76,0,0,1,1,.86l1,.89a48.18,48.18,0,0,1,3.68,3.75,41,41,0,0,1,5.53,8.78,68.62,68.62,0,0,1,3.56,10A64.32,64.32,0,0,0,356,412.16l.33.66.34.62.68,1.22c.45.82.94,1.62,1.43,2.41l.72,1.2.77,1.18c.51.78,1,1.57,1.56,2.32,2.14,3.07,4.48,6,6.82,8.79s4.65,5.51,6.6,8.36a35.49,35.49,0,0,1,2.61,4.39c.18.38.38.74.56,1.14l.54,1.21c.35.81.69,1.63,1,2.44a71.3,71.3,0,0,1,3.2,10,58.9,58.9,0,0,1,1.44,10.4,57.36,57.36,0,0,1-.45,10.55,47.91,47.91,0,0,1-2.47,10.27,53.43,53.43,0,0,1-7.74,14.08C372.85,504.88,371.67,506.26,370.44,507.61Z"/>
    <path class="cls-3" d="M402.09,505.12c-.52-.13,11.5,1.8,14.65,21.59,2.51,15.76,1.85,47.23-1.54,66.37-3.61,20.44-14.34,51.87-22.32,63.59S378,672.15,370.81,671.43s-17.83-16.64-17.74-35S370.88,552.78,379,536.18,391.73,502.56,402.09,505.12Z"/>
    <g>
      <path class="cls-6" d="M371.82,499.08C362.36,496.84,353,494.3,345,492l-.11,0L361.81,509Z"/>
      <path class="cls-6" d="M327.25,487.19a50.58,50.58,0,0,0-12.12-.91c-10.11.29-15.48,3.46-24.93,7.27l15.52,15.38Z"/>
      <path class="cls-6" d="M333.8,536.75l26.42-26.17L340,490.49c-3.89-1.12-7-2-9.64-2.63l-22.92,22.72Z"/>
      <rect class="cls-6" x="232.49" y="573.94" width="37.18" height="37.18" transform="translate(-344.32 348.32) rotate(-44.73)"/>
      <path class="cls-6" d="M278.81,536.09,305,509.67l-15.64-15.78a131.58,131.58,0,0,1-17.44,5.55c-5.26,1.29-9.23,2.32-12.28,3.18l-7,7.05Z"/>
      <path class="cls-6" d="M223.9,649.53l-16.69,16.85c.12.39.25.77.38,1.11a77.42,77.42,0,0,1,2.55,10.45h38l2-2Z"/>
      <polygon class="cls-6" points="249.32 677.94 252.03 677.94 250.69 676.58 249.32 677.94"/>
      <path class="cls-6" d="M388.64,536.09l23.05-23.28a19.81,19.81,0,0,0-6.23-6.2,13.48,13.48,0,0,0-5.8-2.09c-8.17-1.12-17.56-3-26.92-5.22l-10.27,10.37Z"/>
      <path class="cls-6" d="M256.44,503.57a39.57,39.57,0,0,0-4.07,1.49l0-.06a30.7,30.7,0,0,0-3.11,1.22l2.25,2.27Z"/>
      <polygon class="cls-6" points="278.38 649.15 251.96 675.32 254.6 677.94 302.15 677.94 304.79 675.32 278.38 649.15"/>
      <polygon class="cls-6" points="360.17 677.94 361.86 677.94 361.02 677.09 360.17 677.94"/>
      <path class="cls-6" d="M362.81,675.32l2.64,2.62h11.26q-.48-3.5-.9-6.81c5.43-1.22,10.9-5.53,17-14.46.5-.74,1-1.57,1.54-2.46l-5.11-5.06Z"/>
      <path class="cls-6" d="M394.89,653.25a137.75,137.75,0,0,0,8-17.59L390,648.35Z"/>
      <path class="cls-6" d="M362.47,620.52l26.17,26.42,16-16.18c1.8-5,3.51-10.21,5-15.4l-21.06-21.25Z"/>
      <polygon class="cls-6" points="305.59 677.94 307.43 677.94 306.5 677.01 305.59 677.94"/>
      <path class="cls-6" d="M417.86,565.58c0-.34,0-.67,0-1l-.52.53Z"/>
      <path class="cls-6" d="M390.15,592.58l20.32,20.12c2-7,3.61-13.74,4.65-19.62a215.66,215.66,0,0,0,2.64-25.49l-1.44-1.43Z"/>
      <path class="cls-6" d="M416.72,564.43,418,563.2c.51-13.8.1-27.63-1.31-36.49a38.39,38.39,0,0,0-3.4-11.18L390.55,538Z"/>
      <polygon class="cls-6" points="333.72 649.53 307.55 675.95 309.52 677.94 357.93 677.94 359.9 675.95 333.72 649.53"/>
      <rect class="cls-6" x="342.82" y="574.46" width="37.18" height="37.18" transform="translate(-312.72 426.12) rotate(-44.73)"/>
      <rect class="cls-6" x="342.43" y="518.95" width="37.18" height="37.18" transform="translate(-274.93 415.68) rotate(-45.27)"/>
      <rect class="cls-6" x="342.94" y="629.29" width="37.18" height="37.18" transform="translate(-353.16 448.73) rotate(-45.27)"/>
      <path class="cls-6" d="M277,537.94l-26.42-26.18-23.3,23.53c-.48,1.37-1,2.8-1.47,4.28l25,24.78Z"/>
      <polygon class="cls-6" points="333.8 594.23 307.39 620.41 333.8 646.58 360.22 620.41 333.8 594.23"/>
      <polygon class="cls-6" points="389.23 591.66 415.65 565.49 389.23 539.32 362.81 565.49 389.23 591.66"/>
      <path class="cls-6" d="M232.35,521.77c-.89,2-2.13,5.22-3.56,9.2l20.58-20.39-3-3C241.72,510.14,235.52,514.63,232.35,521.77Z"/>
      <polygon class="cls-6" points="333.72 591.51 359.9 565.1 333.72 538.68 307.55 565.1 333.72 591.51"/>
      <path class="cls-6" d="M206.61,632.08c-1,12.14-1.29,23.58-.15,30.84L222,647.57Z"/>
      <rect class="cls-6" x="287.91" y="519.03" width="37.18" height="37.18" transform="translate(-289.62 371.42) rotate(-44.73)"/>
      <polygon class="cls-6" points="278.38 591.66 304.79 565.49 278.38 539.32 251.96 565.49 278.38 591.66"/>
      <path class="cls-6" d="M212.86,584.24c-.56,2.57-1,4.92-1.34,7-.66,4.25-1.4,9.36-2.12,14.92l12.67-12.79Z"/>
      <rect class="cls-6" x="287.52" y="574.38" width="37.18" height="37.18" transform="translate(-330.57 393.09) rotate(-45.27)"/>
      <path class="cls-6" d="M249.37,620.41,223,594.23l-13.78,13.65c-.92,7.18-1.79,15-2.43,22.63L223,646.58Z"/>
      <polygon class="cls-6" points="278.81 594.11 252.64 620.52 278.81 646.94 304.98 620.52 278.81 594.11"/>
      <rect class="cls-6" x="232.61" y="629.8" width="37.18" height="37.18" transform="translate(-386.21 370.5) rotate(-45.27)"/>
      <rect class="cls-6" x="287.4" y="629.37" width="37.18" height="37.18" transform="translate(-367.42 403.02) rotate(-44.73)"/>
      <path class="cls-6" d="M250.07,565.1l-24.53-24.77c-4.23,12.6-9.07,28.51-12,40.77l10.32,10.41Z"/>
      <path class="cls-2" d="M228.79,531c-.49,1.35-1,2.8-1.53,4.32l23.3-23.53L277,537.94l-26.17,26.41-25-24.78-.25.76,24.53,24.77L223.9,591.51,213.58,581.1c-.26,1.07-.5,2.12-.72,3.14l9.21,9.12L209.4,606.15c-.08.57-.15,1.15-.23,1.73L223,594.23l26.42,26.18L223,646.58l-16.21-16.07c-.05.53-.09,1-.13,1.57L222,647.57l-15.49,15.35a26.56,26.56,0,0,0,.75,3.46l16.69-16.85L250.07,676l-2,2h1.22l1.37-1.36,1.34,1.36h2.57L252,675.32l26.42-26.17,26.41,26.17-2.64,2.62h3.44l.91-.93.93.93h2.09l-2-2,26.17-26.42L359.9,676l-2,2h2.24l.86-.85.83.85h3.59l-2.64-2.62,26.42-26.17,5.11,5.06c.18-.31.37-.63.55-1l-4.86-4.9,12.82-12.69c.61-1.6,1.22-3.23,1.81-4.9l-16,16.18-26.17-26.42,26.17-26.41,21.06,21.25c.26-.88.52-1.77.77-2.66l-20.32-20.12,26.17-26.42,1.44,1.43c0-.67.07-1.34.1-2l-.48-.48.52-.53.06-1.37-1.24,1.23L390.55,538l22.7-22.48a26.37,26.37,0,0,0-1.56-2.72l-23.05,23.28-26.17-26.42,10.27-10.37-.92-.22-10,9.93L344.9,491.94,340,490.49l20.27,20.09L333.8,536.75l-26.41-26.17,22.92-22.72c-1.07-.26-2.09-.48-3.06-.67l-21.53,21.74L290.2,493.55l-.86.34L305,509.67l-26.17,26.42-26.17-26.42,7-7.05c-1.2.34-2.25.66-3.18.95l-5,4.92-2.25-2.27c-.83.37-1.8.84-2.84,1.4l3,3Zm-4,61.44,26.41-26.17,26.17,26.42L251,618.83Zm26.53,82.28-26.41-26.17,26.17-26.42,26.41,26.17Zm1.32-54.17,26.17-26.41L305,620.52l-26.17,26.42Zm27.18-27.43L306,566.68l26.41,26.17-26.17,26.41Zm26.05,81.16L279.7,647.84l26.41-26.17,26.17,26.41Zm1.52-53.84,26.41-26.18,26.42,26.18L333.8,646.58Zm80.44,27.35-26.17,26.41L335.24,648l26.17-26.41Zm-26.54-28.42-26.17-26.41,26.42-26.18,26.17,26.42Zm27.94-80,26.42,26.17-26.42,26.17-26.42-26.17ZM360.9,511.25l26.41,26.17-26.17,26.42-26.41-26.17Zm-1,53.85-26.18,26.41L307.55,565.1l26.17-26.42Zm-53.27-53.77,26.17,26.42-26.42,26.17L280.21,537.5Zm-1.84,54.16-26.41,26.17L252,565.49l26.42-26.17Z"/>
    </g>
    <path class="cls-9" d="M356.8,601c4.16,5.14,11.26,11,21.95,11,5.5,0,11.52-1.55,17.89-4.61l1.7-.82a244.14,244.14,0,0,0-1.19-49c-4.63-33.65-3.86-28.23-5.82-38.34-1.91-9.87-1.18-26.74-11.48-30.2-3.45-1.15-7.43,1.3-9.59,3.88-2.83,3.39-.47,7.85,0,14.52,1.88,27.05-.24,47.63-4.55,64.4C362,586.25,360.15,587.93,356.8,601Z"/>
    <path class="cls-8" d="M354.82,595.3a5.41,5.41,0,0,0-1.68.45c-.12.08-.19.14-.17.24a.72.72,0,0,0,.13.33,3.36,3.36,0,0,0,.53.61,5.72,5.72,0,0,0,.65.55l.7.55c.46.37.93.72,1.4,1.06a55.23,55.23,0,0,0,5.84,3.71,54.61,54.61,0,0,0,12.6,5,57.6,57.6,0,0,0,6.66,1.3,38.78,38.78,0,0,0,6.7.41,20.31,20.31,0,0,0,6.47-1.16,12.51,12.51,0,0,0,2.94-1.54,8.64,8.64,0,0,0,1.3-1.12,7.16,7.16,0,0,0,.57-.65l.25-.36c.07-.12.18-.26.17-.39a1.81,1.81,0,0,1-.11.91,7.06,7.06,0,0,1-.33.87,9.89,9.89,0,0,1-1,1.61,11.56,11.56,0,0,1-2.8,2.6,18.26,18.26,0,0,1-7.13,2.66,30.87,30.87,0,0,1-7.49.25,40.38,40.38,0,0,1-7.31-1.27,38.28,38.28,0,0,1-13.26-6.47,33.19,33.19,0,0,1-5.33-5.06c-.4-.47-.77-1-1.13-1.45l-.51-.74a8.39,8.39,0,0,1-.5-.81,3.1,3.1,0,0,1-.36-.92,1.14,1.14,0,0,1,0-.55.68.68,0,0,1,.15-.26.71.71,0,0,1,.23-.14A4.81,4.81,0,0,1,354.82,595.3Z"/>
    <path class="cls-8" d="M377.46,666a12.56,12.56,0,0,1-10,3.42,14.47,14.47,0,0,1-5.37-1.76,19.66,19.66,0,0,1-4.4-3.36c-.64-.64-1.24-1.33-1.81-2s-1.1-1.42-1.62-2.13a42.93,42.93,0,0,1-2.81-4.51,46.39,46.39,0,0,1-3.92-9.82,63.11,63.11,0,0,1-1.8-20.71,103.88,103.88,0,0,1,3.51-20.26.29.29,0,0,1,.35-.2.28.28,0,0,1,.2.32c-.55,3.36-1,6.73-1.32,10.1s-.5,6.75-.51,10.11a66.64,66.64,0,0,0,2.64,19.75,45.09,45.09,0,0,0,3.87,9A46.62,46.62,0,0,0,357.1,658l.74,1,.78.93c.53.61,1.07,1.19,1.63,1.75a17.67,17.67,0,0,0,7.69,4.89,13.13,13.13,0,0,0,4.62.44A20,20,0,0,0,377.46,666Z"/>
    <path class="cls-8" d="M240.52,522c-3.45,12.46-7.66,24.69-10.45,37.43-.67,3.19-1.29,6.4-1.68,9.66-.22,1.63-.36,3.28-.46,4.93s-.11,3.32-.05,5a44.22,44.22,0,0,0,.51,5c.28,1.64.6,3.27,1,4.87.76,3.21,1.71,6.33,2.65,9.43,1.93,6.19,3.9,12.3,5.58,18.49.22.77.41,1.54.62,2.32s.4,1.55.59,2.33c.4,1.55.75,3.11,1.11,4.67.69,3.12,1.32,6.26,1.86,9.42a187.71,187.71,0,0,1,2.25,19.1c.45,6.42.56,12.87.52,19.35a142.82,142.82,0,0,0,1.44-19.4c0-3.26-.06-6.51-.25-9.77s-.51-6.5-.92-9.74-.93-6.46-1.57-9.66c-.33-1.6-.65-3.2-1-4.79-.18-.8-.37-1.59-.57-2.38s-.38-1.59-.59-2.38c-.8-3.16-1.72-6.28-2.66-9.39s-2-6.19-2.93-9.26-1.95-6.12-2.77-9.18c-.42-1.53-.76-3.07-1.07-4.61a39.82,39.82,0,0,1-.6-4.61,60.77,60.77,0,0,1,.21-9.43c.29-3.17.74-6.34,1.29-9.5,1.06-6.33,2.54-12.61,3.95-18.92l1.08-4.73c.36-1.57.7-3.16,1-4.74C239.33,528.34,240,525.17,240.52,522Z"/>
    <path class="cls-4" d="M294.66,466.91c-1.32,4.43.63,31.89,2.07,36.31,2.83,8.72,13.6,12.7,22.51,11.5,12.83-1.72,18.54-8.76,18.94-18.13.68-15.92.29-24.72,2.35-49.79C341.08,440.07,297.22,458.35,294.66,466.91Z"/>
    <g>
      <path class="cls-2" d="M282.47,438.52c0,6.25-2.74,18.65-5.07,20.45-2.82,2.18-7,1.24-7.71,1-4.1-1.57-7.19-9.59-7.19-21.42s2.89-20.53,7.19-21.42c.41-.08,6.07-1.52,8.35,1.51C281.75,423.56,282.47,431.56,282.47,438.52Z"/>
      <ellipse class="cls-3" cx="275.41" cy="438.53" rx="7.19" ry="21.42"/>
    </g>
    <path class="cls-9" d="M274.55,392.76c-6.67,12.81-5.92,35-4.9,39.7s1.67,4.08.94,6.74.27,10.26,4,19.41,12.11,21.1,16,23.46a19.78,19.78,0,0,0,14,2.78c5.64-.91,18.36-8.62,25.62-20.54,5.7-9.35,9.9-17,10-23.1s4.68-25.49-1.38-36.59-10.68-19.94-26.59-24.14C308.07,379.38,286.77,369.3,274.55,392.76Z"/>
    <path class="cls-14" d="M307.93,465.89a.6.6,0,0,0-.46-.91,75.21,75.21,0,0,0-11.83-.08,48,48,0,0,0-8.45,1.5.6.6,0,0,0-.37.87,10.72,10.72,0,0,0,10.53,5.8C303.16,472.58,306.71,467.82,307.93,465.89Z"/>
    <path class="cls-8" d="M281.27,425.49a7.38,7.38,0,0,0-1.92-2.46,10.24,10.24,0,0,0-2.62-1.67,10.83,10.83,0,0,0-6.2-.42,13.25,13.25,0,0,0-1.52.32l-.74.2c-2.07.88-.77,2.68,0,2.53l.57-.1.64-.06a9,9,0,0,1,1.27,0,10.37,10.37,0,0,1,1.25.12c.42.1.82.16,1.22.29.81.21,1.59.42,2.43.56l2.56.5c.89.18,1.81.37,2.85.51Z"/>
    <path class="cls-8" d="M321,418.78a21.47,21.47,0,0,0-6.56-3,19.13,19.13,0,0,0-7.48-.42c-.64.07-1.26.22-1.91.32s-1.27.3-1.91.47a9.52,9.52,0,0,0-3.42,1.9,10.52,10.52,0,0,0-3.73,6.69l.38.26c2.35-1.15,4.16-2.23,6-3.16a29.8,29.8,0,0,0,2.63-1.51c.44-.25.88-.52,1.34-.77a14,14,0,0,1,1.44-.59,15.08,15.08,0,0,1,3.09-.7,17.53,17.53,0,0,1,3.25-.2,22.84,22.84,0,0,1,6.68,1.1Z"/>
    <path class="cls-10" d="M313.18,430.94c0,.61-1.87,2.42-7.37,2.35-2.44,0-4.88-.67-4.86-1.9s1.61-3.29,3.71-3.62C308.34,427.21,313.2,429.72,313.18,430.94Z"/>
    <path class="cls-8" d="M308.35,429.28c-1.35-3.2-7.08-1.94-5.82,2.4S310.52,434.4,308.35,429.28Z"/>
    <path class="cls-10" d="M279.88,435.07c0,.59-1.54,2.35-6.07,2.29-2,0-3-1-3-2.22s.29-2.81,2-3.12C275.9,431.46,279.9,433.88,279.88,435.07Z"/>
    <path class="cls-8" d="M276.69,433.88c-1.14-2.69-6-1.63-4.9,2S278.52,438.2,276.69,433.88Z"/>
    <path class="cls-8" d="M301.19,432.45a4.82,4.82,0,0,1,.56-2.19,2.29,2.29,0,0,1,1.47-1.07,4.28,4.28,0,0,1,1-.12h.52l.55,0c.74.06,1.49.16,2.25.29,1.51.25,3,.55,4.6.84s3.12.58,4.77.73a16.17,16.17,0,0,0-2.09-1.3,23.17,23.17,0,0,0-7-2.34,15,15,0,0,0-2.52-.19l-.65,0-.68.09a5.3,5.3,0,0,0-1.35.43,3.5,3.5,0,0,0-1.18.92,3,3,0,0,0-.63,1.31,3.57,3.57,0,0,0,0,1.34A3.73,3.73,0,0,0,301.19,432.45Z"/>
    <path class="cls-8" d="M270.31,436.12a4,4,0,0,1,.55-1.83,1.82,1.82,0,0,1,1.21-.82,4.09,4.09,0,0,1,.8-.08h.42l.46,0c.62.07,1.25.15,1.88.26,1.28.21,2.57.45,3.89.68a35.44,35.44,0,0,0,4.09.5,11.67,11.67,0,0,0-1.75-1.18,15.35,15.35,0,0,0-1.87-.91,17.41,17.41,0,0,0-4-1.16,11.82,11.82,0,0,0-2.16-.15l-.56,0c-.19,0-.39,0-.59.08a4.35,4.35,0,0,0-1.17.39,3.14,3.14,0,0,0-1,.82,2.68,2.68,0,0,0-.54,1.16,3.22,3.22,0,0,0,0,1.16A3,3,0,0,0,270.31,436.12Z"/>
    <path class="cls-15" d="M308.74,464.52a12.4,12.4,0,0,1-1,.88c-.37.27-.74.52-1.12.77a21.48,21.48,0,0,1-2.41,1.3,23.4,23.4,0,0,1-2.56,1,24.41,24.41,0,0,1-2.68.67l-.68.12c-.23,0-.46.09-.69.12l-.68.1-.69.07-.35,0h-.35l-.69,0-.7,0-.34,0-.35,0-.69-.09-.68-.14a12.52,12.52,0,0,1-1.34-.34l-.66-.21-.65-.25c-.21-.08-.42-.19-.63-.29s-.41-.2-.61-.32l0-.16c.47,0,.92,0,1.37,0h1.34l.66,0h.66l.65,0h3.25a19,19,0,0,0,2.61-.08,22.34,22.34,0,0,0,2.58-.41,22.88,22.88,0,0,0,2.55-.69,25.7,25.7,0,0,0,2.46-1c.4-.19.79-.39,1.18-.61a10.11,10.11,0,0,0,1.13-.7Z"/>
    <path class="cls-8" d="M314.17,375.31a5.86,5.86,0,0,0-.84.36c-2.65,1.38-5.09,6.41-5.68,12.66a27.72,27.72,0,0,0,.35,8.22c2.43,13.65,19.26,13.87,24.64,26.94,4.54,11,8.47,4.93,9.68.43,5.2-19.42,6.73-34.59-20.71-48A13,13,0,0,0,314.17,375.31Z"/>
    <path class="cls-8" d="M310.39,375.27c-2.78-1.17-20.13-10.75-37.62,8.16-9.77,10.57-8.38,29.22-7.95,34.89.34,4.44,3.61,7.22,4.13,7.24.93.05-5.89-16.22,27.36-26.14a24,24,0,0,0,13.5-10c2.58-2.67,6.2-8.05,4.29-11.52C313.33,376.5,311.9,375.9,310.39,375.27Z"/>
    <path class="cls-9" d="M337.79,428.3c.95-1.78,3.7-4.86,7.77-2.26s3.84,6.87,2.87,12.95-5.11,13.23-8.59,14.23-3.49-1.34-4.18-4.38S335.36,432.82,337.79,428.3Z"/>
    <path class="cls-3" d="M336.28,438.86c0,19.35-11.52,36.74-25.46,36.74a17.86,17.86,0,0,1-2.74-.21s0-.07,0-.1c0-1.93-2.54-3.49-5.67-3.49s-5.67,1.56-5.67,3.49,2.54,3.49,5.67,3.49a6.94,6.94,0,0,0,4.8-1.65,20,20,0,0,0,5,.53c15.86,0,29.29-16.35,29.29-38Z"/>
    <path class="cls-3" d="M283.36,374.59l.18-.16c.82-.73,5.38-4.59,15.87-4.69,26.16-.24,45.57,22.19,45.57,51.53l-5.59,1.12c0-26.26-19.86-50.4-42.21-50.68-8.2-.1-12.17,1.75-13.82,2.89Z"/>
    <g>
      <path class="cls-2" d="M352.68,437.91c0,6.25-2.74,18.65-5.06,20.45-2.82,2.17-7,1.24-7.72,1-4.1-1.58-7.19-9.59-7.19-21.42s2.89-20.54,7.19-21.42c.42-.08,6.08-1.52,8.35,1.51C352,423,352.68,431,352.68,437.91Z"/>
      <ellipse class="cls-7" cx="345.63" cy="437.92" rx="7.19" ry="21.42"/>
      <ellipse class="cls-3" cx="346.07" cy="437.92" rx="6.1" ry="18.66"/>
    </g>
    <g>
      <path class="cls-11" d="M372.85,465.34c-.6-5-2.86-8.94-3.34-13.94a3.72,3.72,0,0,0-.94-2.42c-2.13-2.15-7.07-3.4-12.18-7-.55-.39-3.78-3.21-4.79-2.79a2.94,2.94,0,0,0-1.8,2.55A5.74,5.74,0,0,0,352,446.9c4.34,3.64,9.68,5.78,10.29,6.54.94,1.19-.4,4.72-.59,6.17-1.48,11.54,4.47,14.44,3.22,19.38-.25,1-.94,2.54-2.22,2.9-1.73.49-3-.19-7.88-3.08-.83-.5-11.06-6.5-13.67-3.64-.93,1-.29,3.09.79,4a79.19,79.19,0,0,0,7.31,5c4.6,2.74,5.57,3.25,7.31,5a11.93,11.93,0,0,1,3.14,3.81,22.3,22.3,0,0,0,8.25,7.4c3.34,1.92,8.53,2.46,11.23.67s1.62-4.55.64-10.83C377.73,476.62,374.15,476.13,372.85,465.34Z"/>
      <path class="cls-9" d="M349.77,467.33a8.23,8.23,0,0,0-2.78-.39,11,11,0,0,0-3.8,1.08c-4.29,1.67-3.88,1.27-4.71,1.77-2.14,1.31-1.85,2.17-4.14,3.48a5.61,5.61,0,0,1-6.41-.5c-.91-.76-.17-2.16-.06-2.44.31-.84.8-1.05,2.83-2.85,1.51-1.33,2.05-1.93,1.92-2.16s-2.44.07-2.16-1.92c.13-.94.88-1.63,2-2.56,3.85-3.26,4.3-4.26,6.86-5.52a10.27,10.27,0,0,1,3.8-1.09c6.18-.75,9.77-2.65,12.37-1.5s19,8.87,20.11,9.71a7.75,7.75,0,0,1,2.62,4.43c1.67,6.5,4.92,15.67,6.79,20.66.55,1.48,1.67,6.46,1.06,9.21-.65,2.94-2.23,5.94-5.66,6.5-5,.82-8.84-2.49-9.32-2.93-1.78-1.63-2.48-3.43-3.87-7-2.46-6.32-2.05-9.53-4.51-11.17a29.48,29.48,0,0,0-4.15-2.2,12.37,12.37,0,0,0-1.54-.62c-3.14-.87-8-.09-8.51,0-.77.15-3.17,2.13-10,4.67-.88.33-4.71,1.77-6.07,0a2.31,2.31,0,0,1-.12-2c.55-1.37,2.15-1.77,3.57-2.34,4.06-1.6,3.66-3.31,8.5-5.69a21.08,21.08,0,0,1,4.71-1.77c6.29-1.55,10,1,10.61-.54C360.19,470.39,355.93,469.05,349.77,467.33Z"/>
      <path class="cls-11" d="M364.86,463.77c-2.55-1.39-5.16-2.66-7.79-3.87-1.32-.61-2.65-1.18-4-1.75a22.18,22.18,0,0,0-2.09-.78,7.22,7.22,0,0,0-2.37-.31,5,5,0,0,0-1.22.22l-1.07.35c-.69.24-1.37.49-2.05.76-1.34.55-2.69,1.09-4,1.66l-2,.82a7.85,7.85,0,0,0-1.92,1.25c-1.12,1-2.11,2-3.27,2.86a27.78,27.78,0,0,0,3.68-2.31,6.93,6.93,0,0,1,1.82-.92c.7-.21,1.39-.44,2.08-.67,1.38-.46,2.73-1,4.09-1.44.68-.24,1.35-.49,2-.71.34-.11.67-.22,1-.31a3.61,3.61,0,0,1,.91-.15,5.71,5.71,0,0,1,1.92.22c.63.18,1.32.46,2,.7l4,1.52C359.36,461.93,362.08,462.92,364.86,463.77Z"/>
    </g>
  </g>
  <g>
    <path class="cls-13" d="M347.56,671.64H153.32v-9H340.55c1.31,0,5.87,6,5.87,6a1.82,1.82,0,0,1-1.54,3Z"/>
    <path class="cls-13" d="M241.59,671.64H125.14a13.93,13.93,0,0,1-13.41-10.15L76.83,537.41a6.47,6.47,0,0,1,6.22-8.22H201.18a14,14,0,0,1,13.53,10.24l34.4,122.29A7.81,7.81,0,0,1,241.59,671.64Z"/>
    <path class="cls-8" d="M241.11,671.64h-117a13.76,13.76,0,0,1-13.25-10L76.22,538.28a4.56,4.56,0,0,1,4.39-5.8h117a13.77,13.77,0,0,1,13.25,10l34.69,123.32A4.57,4.57,0,0,1,241.11,671.64Z"/>
  </g>
  <g>
    <path class="cls-3" d="M685.37,671.64H491.13v-9H678.36c1.31,0,5.87,6,5.87,6a1.82,1.82,0,0,1-1.54,3Z"/>
    <path class="cls-3" d="M579.41,671.64H463a13.93,13.93,0,0,1-13.41-10.15l-34.9-124.08a6.47,6.47,0,0,1,6.22-8.22H539a14,14,0,0,1,13.53,10.24l34.4,122.29A7.81,7.81,0,0,1,579.41,671.64Z"/>
    <path class="cls-8" d="M578.93,671.64H462a13.77,13.77,0,0,1-13.25-10L414,538.28a4.57,4.57,0,0,1,4.4-5.8h117a13.76,13.76,0,0,1,13.25,10l34.69,123.32A4.56,4.56,0,0,1,578.93,671.64Z"/>
  </g>
  <g>
    <path class="cls-13" d="M1024.59,639.17c.13,11.92,0,23.51-.55,35.16h131.8c-12-90.14,14.67-86.71,27.78-119.21,8.43-20.92,13.69-48.17-4.35-50.64-16.69-2.29-38.53-7.84-54.65-12.55s-20.37-6-29.88-5.69c-15.15.43-19.67,7.35-43.23,13.16-24.85,6.12-21.16,6.28-25.87,11.39-2.5,2.71-19.11,55.27-15.76,74.59C1011.59,595.22,1024.46,627.54,1024.59,639.17Z"/>
    <path class="cls-13" d="M1181.62,505.08c-.53-.13,11.5,1.8,14.64,21.59,2.51,15.76,1.85,47.22-1.53,66.37-3.62,20.44-14.35,51.87-22.32,63.58s-14.9,15.49-22.07,14.77-17.84-16.64-17.75-35,17.81-83.6,25.89-100.2S1171.25,502.51,1181.62,505.08Z"/>
    <path class="cls-13" d="M1031.94,505s-14.51,4.45-20,16.77c-4.57,10.29-18,51.14-20.83,69.46-3.29,21.23-4.88,37-3.93,50,1,13.76,1.64,47.91,43.24,24.9C1052.86,653.72,1038.63,512.82,1031.94,505Z"/>
    <g>
      <path class="cls-16" d="M970.55,558.22s-2.77-10.89-5.88-14.88-5.27-6.71-10.95-10.42-13.79-10.81-15.9-12.16c-2.62-1.68-4.45-2.16-6-.94s-1.15,3.17,0,4.76a51.63,51.63,0,0,0,6,6.28c3.18,2.84,8.61,6.5,7.2,6.07-.17-.06-1.72-.76-4.28-1.7-1.65-.61-10.62-4.13-10.62-4.13a9.27,9.27,0,0,0,.25-3.34c-.24-1.48-1.46-2.68-2.41-2.7s-1.8.33-2.79,2.08-2.48,4.72-2.48,4.72-1.19-4.81-2-8.75-1.63-5.64-3-6.57c-1.19-.81-3.27-1-3.45.25s.07,7.3.07,7.3-5-4.12-6.71-5.52c-2.15-1.79-4.94-2.11-5.9-1.31a2,2,0,0,0-.22,3c.81.9,7.63,7.95,9,9.28s10.07,10,10.07,10a8.49,8.49,0,0,0-.28,2.95c.18,2,1.84,3.72,3.07,4.79a20.33,20.33,0,0,1,2.75,2.41c.4,4,4.14,5.23,4.52,5.43s.7,2.74,12.61,10c2.27,1.39,8.1,4.2,9.79,5.82a19.8,19.8,0,0,0,8,4.35c2.58.46,3.23.17,4.63-1.22S971.05,563.3,970.55,558.22Z"/>
      <path class="cls-17" d="M929.91,531.46c-.33,1.13-.67,2.26-1,3.39l-.21.84-.18.86c-.14.57-.29,1.15-.43,1.71s-.24,1.14-.32,1.69-.14,1.08-.18,1.62a23.11,23.11,0,0,0,.07,3.4l-.12,0a6.08,6.08,0,0,1-.89-1.62l-.08-.22-.06-.22-.12-.46c0-.16,0-.32-.07-.47a2,2,0,0,1,0-.24v-.24a6.15,6.15,0,0,1,.22-1.87c.18-.59.4-1.16.59-1.72s.4-1.1.59-1.65l.29-.83c.1-.29.21-.57.32-.84.46-1.1.95-2.17,1.47-3.23Z"/>
      <path class="cls-17" d="M927.49,548.28a11.42,11.42,0,0,1,.62-2.12,7.19,7.19,0,0,1,.48-1,5.52,5.52,0,0,1,.32-.47l.33-.45c.92-1.16,1.88-2.26,2.85-3.36s2-2.17,3-3.24c.51-.53,1-1.06,1.56-1.58l.1-.1.11-.1.12-.1,0,0,0,0,.08-.06a3.37,3.37,0,0,1,.32-.19c.12,0,.23-.09.35-.12a2.29,2.29,0,0,1,.36-.07,2.17,2.17,0,0,1,.36,0,2,2,0,0,1,.36,0,2.47,2.47,0,0,1,.36.11,2,2,0,0,1,.66.39,1.79,1.79,0,0,1,.48.66,3.61,3.61,0,0,1,.19.65c0,.11,0,.21.05.32l0,.31a8.25,8.25,0,0,1-.19,2.38,8.81,8.81,0,0,1-.34,1.14c0,.09-.08.19-.12.29l-.06.14-.07.14-.14.27-.15.25c-.1.18-.21.33-.31.5l-.33.46c-.23.31-.46.61-.69.89l-.71.85-.72.83c-.24.27-.48.54-.71.82-.12.13-.23.27-.34.4a4.73,4.73,0,0,0-.28.39,3.7,3.7,0,0,0-.4.88c-.1.32-.17.67-.25,1a5.38,5.38,0,0,1-.34,1.1,4.89,4.89,0,0,1-.26.51,3.88,3.88,0,0,1-.32.47l-.13-.08a5.46,5.46,0,0,0,.29-1,6,6,0,0,0,.08-1.05,11.13,11.13,0,0,1,.06-1.13,4.22,4.22,0,0,1,.33-1.19,5.61,5.61,0,0,1,.29-.54c.1-.16.2-.33.31-.48.2-.32.42-.62.63-.92l1.28-1.77c.11-.14.21-.29.31-.43l.31-.44.29-.43c.09-.15.19-.29.27-.44a5.91,5.91,0,0,0,.45-.86,6.2,6.2,0,0,0,.34-.94,6.89,6.89,0,0,0,.3-2,2.93,2.93,0,0,0-.12-.88.59.59,0,0,0-.14-.22.91.91,0,0,0-.27-.18.85.85,0,0,0-.17-.06l-.18,0h-.19a1.13,1.13,0,0,0-.18,0l-.17,0a1.09,1.09,0,0,0-.15.08l0,0h0l0,0-.09.08-.1.08-.09.08c-.54.47-1.07,1-1.59,1.48q-1.59,1.5-3.14,3c-1,1-2.06,2.06-3,3.14-.13.13-.24.27-.36.41s-.21.27-.32.41a8.56,8.56,0,0,0-.53.93,11.52,11.52,0,0,0-.75,2Z"/>
      <path class="cls-17" d="M914.34,524.35c.21.74.4,1.48.61,2.22l.29,1.11c.1.37.2.74.29,1.1s.22.73.34,1.1a6,6,0,0,1,.24,1.1l0,.28a2.83,2.83,0,0,1,0,.29c0,.19,0,.38,0,.57s0,.38,0,.58,0,.39,0,.61l-.13.05-.21-.23-.2-.25-.32-.52c-.09-.18-.18-.36-.25-.54l-.11-.27-.1-.28a4.91,4.91,0,0,1-.23-1.14c0-.39-.05-.77-.1-1.16s-.08-.76-.11-1.14l-.09-1.16c0-.76-.08-1.53-.09-2.3Z"/>
      <path class="cls-17" d="M922.59,532.07c-.05.53-.13,1-.19,1.57s-.15,1-.23,1.55c0,.26,0,.52-.08.78a2.42,2.42,0,0,1-.18.75,3.9,3.9,0,0,1-.35.71l-.24.35c-.05.05-.09.11-.14.17l-.16.16-.13,0a2.8,2.8,0,0,1-.24-.85,4.5,4.5,0,0,1,0-.82,1.78,1.78,0,0,1,.07-.39,2.84,2.84,0,0,1,.13-.38c.1-.24.22-.48.32-.73.18-.49.39-1,.61-1.46s.44-1,.7-1.43Z"/>
    </g>
    <path class="cls-13" d="M987.29,671.15c3.67,3.47,8.21,3.79,15.84,3.18s12.87-8.19,15.36-12.65c3.52-6.32,3.89-13.83,3.53-18.7-.68-9.08-2.26-13.5-5.79-18.17a49.86,49.86,0,0,1-6.39-10.3,1.2,1.2,0,0,0-1.43-.68h0a1.2,1.2,0,0,0-.85,1.29c1,8.63-7.21,19.27-15.91,24.1-5.23,2.91-9.72,3.18-12.3.74h0a6.8,6.8,0,0,1-.75-.85,1.2,1.2,0,0,0-1.37-.43l-.14.05a1.18,1.18,0,0,0-.78,1.32c1.61,9.77,3.38,17.25,5,21.13,2.08,5,3.87,8,6,10Z"/>
    <g>
      <path class="cls-6" d="M979.25,654.55a50.06,50.06,0,0,0,2,6.49c2.08,5,3.87,8,6,10h0c3,2.8,6.5,3.54,11.76,3.41Z"/>
      <path class="cls-6" d="M1096.1,674.19,995.21,572.85c-1.86,7-3.34,13.38-4.09,18.21-1.23,8-2.23,15.13-2.94,21.69l61.17,61.44Z"/>
      <path class="cls-6" d="M1003.12,674.19a12.08,12.08,0,0,0,2.56-.49c4.78.28,10.84-1,18.55-4.57-.06,1.69-.13,3.38-.2,5.06h23.77L988,615a152.81,152.81,0,0,0-.77,26c-3.28.93-6,.55-7.84-1.15h0a6.07,6.07,0,0,1-.75-.84,1.22,1.22,0,0,0-1.37-.44l-.14.05a1.2,1.2,0,0,0-.78,1.33c.79,4.8,1.62,9,2.45,12.58l22.09,21.85C1001.57,674.31,1002.32,674.26,1003.12,674.19Z"/>
      <path class="cls-6" d="M1145.85,674.19,1006.44,536.31c-3.57,10.37-7.81,23.83-11,35.72l103.31,102.16Z"/>
      <path class="cls-6" d="M1155.82,674.19c-.14-1.09-.28-2.17-.41-3.23,5.43-1.23,10.9-5.54,17-14.47.43-.63.87-1.33,1.32-2.07L1026.9,507c-4.73,2.41-11.57,7-15,14.64-1.14,2.56-2.82,7-4.75,12.53l139.44,140.06Z"/>
      <path class="cls-6" d="M1196.25,526.53c-2-12.5-7.52-17.87-11.19-20.1a13.75,13.75,0,0,0-5.8-2.09c-2.71-.37-5.55-.82-8.48-1.35l25.81,25.92C1196.48,528.09,1196.37,527.29,1196.25,526.53Z"/>
      <path class="cls-6" d="M1194.71,592.91c.71-4,1.3-8.54,1.76-13.35l-92.64-93a52.76,52.76,0,0,0-9.1-.4c-11.53.32-16.9,4.41-29.19,8.9l122.8,123.34A219.1,219.1,0,0,0,1194.71,592.91Z"/>
      <path class="cls-6" d="M1196.79,530.62l-28.38-28.06c-14.58-2.75-31-7-43.8-10.77-9.29-2.71-14.64-4.28-19.32-5.06l91.4,90.4C1198.07,561.24,1198.14,542.86,1196.79,530.62Z"/>
      <path class="cls-6" d="M1188.13,619,1063.47,495.74c-3.4,1.18-7.32,2.37-12,3.52-11.12,2.74-16.52,4.29-19.52,5.62l0-.05a33.66,33.66,0,0,0-4.5,1.87l147.4,145.77C1179.25,644.44,1184.16,631.81,1188.13,619Z"/>
      <path class="cls-3" d="M1196.59,528.91,1170.78,503l-2.37-.43,28.38,28.06C1196.73,530,1196.66,529.46,1196.59,528.91Z"/>
      <path class="cls-3" d="M1196.69,577.13l-91.4-90.4c-.49-.08-1-.16-1.46-.22l92.64,93C1196.55,578.75,1196.62,577.94,1196.69,577.13Z"/>
      <path class="cls-3" d="M1188.34,618.35,1065.54,495c-.67.24-1.36.49-2.07.73L1188.13,619Z"/>
      <path class="cls-3" d="M1174.83,652.47,1027.43,506.7l-.53.26,146.81,147.46C1174.08,653.8,1174.45,653.16,1174.83,652.47Z"/>
      <path class="cls-3" d="M1146.64,674.19,1007.2,534.13l-.76,2.18,139.41,137.88Z"/>
      <path class="cls-3" d="M1098.74,674.19,995.43,572l-.22.82L1096.1,674.19Z"/>
      <path class="cls-3" d="M1049.35,674.19l-61.17-61.44c-.08.76-.16,1.51-.23,2.25l59.85,59.19Z"/>
      <path class="cls-3" d="M1000.84,674.35,978.75,652.5c.17.71.33,1.39.5,2L999,674.43Z"/>
    </g>
    <path class="cls-18" d="M1020,521.93c-3.45,12.47-7.66,24.7-10.44,37.44-.68,3.18-1.29,6.4-1.69,9.66-.21,1.63-.35,3.27-.46,4.93s-.1,3.32-.05,5a46.9,46.9,0,0,0,.51,5c.28,1.64.61,3.27,1,4.87.76,3.2,1.71,6.33,2.65,9.43,1.93,6.19,3.91,12.3,5.58,18.48.22.77.42,1.55.62,2.32s.4,1.56.59,2.33c.4,1.55.76,3.11,1.12,4.67q1,4.7,1.85,9.42a187.93,187.93,0,0,1,2.26,19.11c.44,6.42.55,12.87.52,19.35a144.47,144.47,0,0,0,1.43-19.41c0-3.25-.06-6.51-.25-9.76s-.51-6.5-.91-9.74-.94-6.46-1.58-9.67c-.33-1.59-.65-3.2-1-4.78-.18-.8-.36-1.59-.56-2.38s-.38-1.59-.6-2.38c-.8-3.16-1.72-6.28-2.66-9.39s-2-6.19-2.93-9.26-1.94-6.13-2.77-9.19c-.41-1.53-.76-3.06-1.06-4.6a37.78,37.78,0,0,1-.61-4.61,63.51,63.51,0,0,1,.21-9.44c.29-3.16.75-6.33,1.29-9.49,1.06-6.33,2.54-12.61,3.95-18.92l1.08-4.73c.36-1.58.7-3.16,1-4.74C1018.85,528.3,1019.5,525.12,1020,521.93Z"/>
    <path class="cls-16" d="M1074.19,466.86c-1.33,4.44.62,31.9,2.06,36.32,2.83,8.72,13.6,12.69,22.51,11.5,12.83-1.72,18.54-8.76,18.94-18.14.68-15.91.29-24.71,2.35-49.78C1120.6,440,1076.74,458.31,1074.19,466.86Z"/>
    <path class="cls-17" d="M1074.5,489.44c4.44,1.34,12.77,1.84,23.72-6.51,9.26-7.06,16.15-24.33,18.62-31.24-1.66,3.34-3.78,7-6.17,10.9-7.18,11.77-19.75,19.39-25.32,20.29a19.23,19.23,0,0,1-11.37-1.46C1074.11,484.07,1074.29,486.82,1074.5,489.44Z"/>
    <path class="cls-8" d="M1034.57,440.91a11,11,0,0,1,3.23-6.31,1.08,1.08,0,0,0-.1-1.61c-2.19-1.59-3.44-3.75-3.11-5.86a5,5,0,0,1,2.39-3.38,1.08,1.08,0,0,0,.48-1,4.51,4.51,0,0,1-2.8-4.89,3.75,3.75,0,0,1,1.64-2.35c0-.08,0-.17,0-.25a1.05,1.05,0,0,0-.21-.75c-2-2.58-3.88-6.32-3.86-9.83,0-4.69,2-7.64,5.19-9.51-1.39-2-2.47-5.35-1.18-7.78a7.08,7.08,0,0,1,7.25-3.52,10.23,10.23,0,0,1,.54-6.07c2.58-5.92,11.91-7.5,19.54-3.33l.32.18a1,1,0,0,0,1.39-1c-.4-6.6,1.4-12,5-13.47,3.39-1.41,7.52,1.09,10.82,5.95a.92.92,0,0,0,1.63-.16c1.78-4,4.59-6.4,6.85-5.58,1.5.55,2.44,2.41,2.71,4.88a.93.93,0,0,0,1.62.61c5.83-6.63,12.92-9.23,16.61-5.76,2.09,2,2.67,5.49,1.93,9.57a1,1,0,0,0,1.44,1.05c5.54-3.71,12-3.86,16.37.25,3.11,2.92,4.53,7.42,4.28,12.23a1,1,0,0,0,.68,1.06,20,20,0,0,1,7.36,3.94c7,6.54,8,17.63,3.61,25.78a1.05,1.05,0,0,0,.61,1.53C1151,416.61,1154,420,1154,424a9.08,9.08,0,0,1-6,8.16,1.07,1.07,0,0,0-.09,1.9c3.31,1.73,5.36,4.87,4.87,8-.55,3.53-4.15,5.9-8.47,5.84a1.05,1.05,0,0,0-.82,1.62c1.92,3.2,2.54,6.27,1.32,7.64s-3.77.71-6.51-1.33a1,1,0,0,0-1.47.89c0,3.34-1.11,6.21-3.3,7.36-2,1.05-4.37.44-6.44-1.35a.92.92,0,0,0-1.5.52c-1,3.78-3.42,6.53-6.38,6.74-2.35.16-4.51-1.31-6-3.74a.9.9,0,0,0-1.09-.38,53,53,0,0,1-18.62,3.45,47.51,47.51,0,0,1-21.93-5,1,1,0,0,0-1.37.79c-.9,5.81-5.47,7.74-10.64,6.77-1.84-.35-4.14-2.08-4.55-3.54a1.19,1.19,0,0,0-1.68-.4c-4.28,2-9.18-3.49-8.28-9.29a12,12,0,0,1,1.22-3.67c.31-.6-.18-2.11-1.85-1.73a5.61,5.61,0,0,1-2.09-.13C1037.12,452.27,1033.67,446.71,1034.57,440.91Z"/>
    <path class="cls-16" d="M1136.32,601c4.16,5.15,11.26,11,22,11,5.5,0,11.53-1.55,17.89-4.61l1.7-.82a244.13,244.13,0,0,0-1.19-49c-4.62-33.65-3.86-28.23-5.82-38.34-1.91-9.87-1.18-26.74-11.48-30.2-3.45-1.16-7.43,1.29-9.58,3.88-2.83,3.39-.48,7.85,0,14.52,1.87,27.05-.24,47.62-4.55,64.4C1141.53,586.21,1139.67,587.89,1136.32,601Z"/>
    <path class="cls-18" d="M1134.34,595.26a5.15,5.15,0,0,0-1.68.45c-.11.08-.19.14-.17.24a.91.91,0,0,0,.13.33,3.8,3.8,0,0,0,.53.61c.21.19.43.38.65.55l.7.55c.46.37.93.72,1.4,1.06a54.56,54.56,0,0,0,5.84,3.7,53.63,53.63,0,0,0,12.61,5,55,55,0,0,0,6.65,1.31,40.87,40.87,0,0,0,6.7.41,20.37,20.37,0,0,0,6.48-1.16,12.71,12.71,0,0,0,2.94-1.54,9.09,9.09,0,0,0,1.29-1.12,5.89,5.89,0,0,0,.57-.65,3.9,3.9,0,0,0,.25-.36c.07-.13.18-.26.17-.39a1.75,1.75,0,0,1-.1.9,7.2,7.2,0,0,1-.33.88,9.89,9.89,0,0,1-1,1.61,11.56,11.56,0,0,1-2.81,2.59,18.11,18.11,0,0,1-7.13,2.66,30.37,30.37,0,0,1-7.49.26,40.54,40.54,0,0,1-7.31-1.27,38.12,38.12,0,0,1-13.26-6.48,32.76,32.76,0,0,1-5.33-5.06c-.39-.46-.77-1-1.13-1.44l-.51-.75a8.24,8.24,0,0,1-.5-.8,3.34,3.34,0,0,1-.36-.93,1.24,1.24,0,0,1,0-.54.69.69,0,0,1,.16-.27,1,1,0,0,1,.22-.14A5,5,0,0,1,1134.34,595.26Z"/>
    <path class="cls-18" d="M1157,665.93a12.7,12.7,0,0,1-4.52,2.79,12.49,12.49,0,0,1-5.52.63,14.34,14.34,0,0,1-5.36-1.75,19.5,19.5,0,0,1-4.4-3.36c-.65-.64-1.24-1.33-1.82-2s-1.09-1.42-1.61-2.14a41.88,41.88,0,0,1-2.82-4.5,46.36,46.36,0,0,1-3.91-9.82,62.86,62.86,0,0,1-1.8-20.71,104.62,104.62,0,0,1,3.5-20.26.29.29,0,0,1,.35-.2.29.29,0,0,1,.21.32q-.83,5-1.32,10.1c-.32,3.37-.5,6.75-.51,10.11a66.31,66.31,0,0,0,2.63,19.75,45.62,45.62,0,0,0,3.88,9,42.48,42.48,0,0,0,2.67,4.11l.74,1,.78.92c.52.61,1.06,1.2,1.62,1.76a17.73,17.73,0,0,0,7.69,4.89,13.37,13.37,0,0,0,4.62.44A19.47,19.47,0,0,0,1157,665.93Z"/>
    <g>
      <path class="cls-2" d="M1064.19,438.48c0,6.24-2.74,18.64-5.06,20.43-2.82,2.18-7,1.24-7.71,1-4.1-1.58-7.19-9.59-7.19-21.41s2.89-20.53,7.19-21.41c.41-.09,6.07-1.53,8.34,1.51C1063.47,423.52,1064.19,431.52,1064.19,438.48Z"/>
      <ellipse class="cls-3" cx="1057.14" cy="438.48" rx="7.19" ry="21.41"/>
    </g>
    <path class="cls-9" d="M1117.31,428.26c1-1.78,3.71-4.87,7.78-2.26s3.84,6.86,2.86,12.95-5.11,13.22-8.59,14.23-3.49-1.34-4.17-4.38S1114.89,432.78,1117.31,428.26Z"/>
    <path class="cls-16" d="M1055.65,391.89c-6.59,12.65-5.86,34.55-4.84,39.22s1.64,4,.93,6.67.26,10.14,4,19.17,12.39,20.25,15.83,23.18c3.8,3.25,8.24,3.64,13.81,2.75s18.14-8.52,25.32-20.29c5.63-9.24,9.78-16.84,9.85-22.83s4.62-25.19-1.37-36.16-10.55-19.69-26.27-23.84C1088.77,378.67,1067.72,368.71,1055.65,391.89Z"/>
    <path class="cls-17" d="M1088.62,464.14a.58.58,0,0,0-.44-.9,76.14,76.14,0,0,0-11.7-.08,47.19,47.19,0,0,0-8.35,1.49.6.6,0,0,0-.36.86,10.61,10.61,0,0,0,10.41,5.73C1083.91,470.75,1087.42,466.06,1088.62,464.14Z"/>
    <path class="cls-8" d="M1062.92,423.88a7.25,7.25,0,0,0-1.93-2.41,10,10,0,0,0-2.6-1.62,14.2,14.2,0,0,0-7.63,0l-.73.2c-1.8.71-1,2.7,0,2.5l.56-.1.63-.06a8.79,8.79,0,0,1,1.25-.06,10,10,0,0,1,1.24.1c.41.1.82.15,1.22.28.79.19,1.57.39,2.39.52l2.54.47c.88.17,1.79.34,2.83.47Z"/>
    <path class="cls-8" d="M1102,418.28a21.19,21.19,0,0,0-6.31-3.29,18.81,18.81,0,0,0-7.35-.82c-.64,0-1.26.15-1.91.21s-1.26.23-1.9.36a9.25,9.25,0,0,0-3.48,1.69,10.31,10.31,0,0,0-4,6.39l.36.28c2.37-1,4.21-2,6.08-2.79.92-.41,1.79-.85,2.67-1.34.45-.23.9-.47,1.37-.69a11.85,11.85,0,0,1,1.45-.51,15.86,15.86,0,0,1,3.08-.52,18.32,18.32,0,0,1,3.23,0,23,23,0,0,1,6.53,1.45Z"/>
    <path class="cls-19" d="M1093.81,429.61c0,.61-1.84,2.4-7.27,2.33-2.42,0-4.83-.67-4.81-1.88s1.59-3.26,3.67-3.57C1089,425.93,1093.83,428.41,1093.81,429.61Z"/>
    <path class="cls-8" d="M1089,428c-1.33-3.16-7-1.91-5.74,2.37S1091.19,433,1089,428Z"/>
    <path class="cls-19" d="M1060.69,432.7c0,.59-1.52,2.32-6,2.26-2,0-3-1-2.93-2.19s.29-2.77,2-3.09C1056.76,429.14,1060.71,431.53,1060.69,432.7Z"/>
    <path class="cls-8" d="M1057.49,431.37a2.62,2.62,0,0,0-4.84,2C1053.7,437,1059.3,435.64,1057.49,431.37Z"/>
    <path class="cls-8" d="M1082,431.11a4.74,4.74,0,0,1,.56-2.17,2.25,2.25,0,0,1,1.45-1.05,4.84,4.84,0,0,1,1-.13h.51l.54,0c.73.06,1.47.17,2.22.29,1.49.24,3,.55,4.54.83s3.09.57,4.72.72a15.7,15.7,0,0,0-2.06-1.28,22.94,22.94,0,0,0-2.2-1,21.77,21.77,0,0,0-4.68-1.3,14.6,14.6,0,0,0-2.49-.19l-.64,0c-.22,0-.45.05-.67.09a4.84,4.84,0,0,0-1.34.42,3.67,3.67,0,0,0-1.17.91,3,3,0,0,0-.62,1.29,3.46,3.46,0,0,0,0,1.32A3.62,3.62,0,0,0,1082,431.11Z"/>
    <path class="cls-8" d="M1051.48,433.65a4.19,4.19,0,0,1,.66-1.77,1.87,1.87,0,0,1,1.26-.72,4,4,0,0,1,.78,0,3,3,0,0,1,.42,0l.45.06c.61.11,1.22.23,1.84.38,1.24.29,2.51.62,3.79.93a35,35,0,0,0,4,.76A13.28,13.28,0,0,0,1063,432a16.55,16.55,0,0,0-1.79-1,17.19,17.19,0,0,0-3.89-1.41,12.18,12.18,0,0,0-2.11-.29h-.56l-.58,0a4.65,4.65,0,0,0-1.19.31,3.12,3.12,0,0,0-1.07.74,2.54,2.54,0,0,0-.6,1.1,3,3,0,0,0-.07,1.15A3,3,0,0,0,1051.48,433.65Z"/>
    <path class="cls-8" d="M1089.43,462.79a12.15,12.15,0,0,1-1,.87c-.36.27-.73.52-1.11.76a21,21,0,0,1-2.38,1.29,22.07,22.07,0,0,1-2.53,1,21.83,21.83,0,0,1-2.65.66l-.67.13-.67.11-.68.1-.69.08-.34,0h-.34l-.69,0-.69,0-.34,0-.34,0-.68-.09-.67-.13c-.45-.09-.89-.21-1.33-.34-.22-.06-.43-.13-.65-.21l-.64-.24-.62-.29-.61-.31,0-.17c.46,0,.91,0,1.35,0h.67l.33,0h.33l.65,0h.65l.65,0H1075l.64,0h.64l.32,0h.32a18.54,18.54,0,0,0,2.58-.08,20.2,20.2,0,0,0,2.55-.41,19.79,19.79,0,0,0,2.51-.68,21.15,21.15,0,0,0,2.43-1q.6-.29,1.17-.6a10.56,10.56,0,0,0,1.12-.7Z"/>
    <g>
      <path class="cls-8" d="M1049.9,385.44a9.45,9.45,0,0,1,5.55-1.33c-.83-3.91.44-7.65,3.4-9.1,3.52-1.74,13.16,2.13,15,1.23,4.3-2.12,8.91-1.62,10.61,1.07,2.92.33,5.92,2.55,7.62,6a11.75,11.75,0,0,1,1.23,6.09,3.85,3.85,0,0,1,4.18,1.94,3.63,3.63,0,0,1,.13,2.8c1,.31,1.65.54,1.94.62l.11.18a9.43,9.43,0,1,1-16.9,8.33,10.82,10.82,0,0,1-.67-1.73,8.39,8.39,0,0,1-4.46,2.42,9.14,9.14,0,0,1-8.28-3,2.72,2.72,0,0,1-1.8,1.39,2.8,2.8,0,0,1-2.45-.82,9,9,0,0,1-11.49,3l.15.27a9.15,9.15,0,0,1-3.88,12.35C1045.46,419.29,1032.83,397,1049.9,385.44Z"/>
      <path class="cls-8" d="M1098.27,394.55l0-.1C1098.48,394.58,1098.48,394.61,1098.27,394.55Z"/>
    </g>
    <g>
      <path class="cls-8" d="M1094.33,377.76a12.68,12.68,0,0,1,5.34,2.73c2-3.69,5.58-5.81,8.94-5,4,1,6.24,5.87,5.25,11.06a12.86,12.86,0,0,1,5.89.16c4.88,1.24,8.22,4.79,7.75,8.1,2.11,2.26,3,6.07,2,10a12.26,12.26,0,0,1-3.17,5.71,4,4,0,0,1,2,4.39,3.7,3.7,0,0,1-1.8,2.32c.55.91,1,1.57,1.13,1.83,0,.07,0,.14,0,.22a9.91,9.91,0,1,1-19.19-4.88,10.31,10.31,0,0,1,.66-1.84,8.86,8.86,0,0,1-5.23-1.1,9.68,9.68,0,0,1-4.57-8.05,2.86,2.86,0,0,1-2.38-.12,3,3,0,0,1-1.4-2.33,9.36,9.36,0,0,1-4.79,0,9.48,9.48,0,0,1-6.41-5.51c0,.11,0,.21-.07.32a9.62,9.62,0,0,1-11.53,7.22c-5-1.28-8.7-6.8-6.68-11.85C1073.26,373.14,1092.35,377.26,1094.33,377.76Z"/>
      <path class="cls-8" d="M1127.26,418.65l0-.12C1127.41,418.82,1127.39,418.84,1127.26,418.65Z"/>
    </g>
    <path class="cls-16" d="M1117.7,427c1-1.77,3.66-4.82,7.69-2.24s3.79,6.79,2.83,12.8-5,13.07-8.49,14.07-3.45-1.33-4.13-4.33S1115.3,431.47,1117.7,427Z"/>
    <path class="cls-3" d="M1062.9,374.57l.18-.16c.82-.72,5.38-4.58,15.87-4.68,26.14-.24,45.54,22.18,45.54,51.51l-5.59,1.11c0-26.25-19.85-50.37-42.19-50.65-8.19-.11-12.16,1.75-13.81,2.89Z"/>
    <path class="cls-3" d="M1116.23,438.82c0,19.34-11.51,36.72-25.45,36.72a19.33,19.33,0,0,1-2.74-.21.41.41,0,0,0,0-.11c0-1.92-2.53-3.48-5.66-3.48s-5.67,1.56-5.67,3.48,2.54,3.49,5.67,3.49a7,7,0,0,0,4.8-1.64,19.81,19.81,0,0,0,5,.53c15.86,0,29.28-16.35,29.28-38Z"/>
    <g>
      <path class="cls-2" d="M1132.21,437.87c0,6.25-2.74,18.65-5.07,20.44-2.82,2.18-7,1.25-7.71,1-4.1-1.58-7.19-9.59-7.19-21.42s2.89-20.54,7.19-21.42c.41-.08,6.07-1.52,8.35,1.51C1131.49,422.9,1132.21,430.9,1132.21,437.87Z"/>
      <ellipse class="cls-7" cx="1125.15" cy="437.88" rx="7.19" ry="21.42"/>
      <ellipse class="cls-3" cx="1125.6" cy="437.88" rx="6.1" ry="18.66"/>
    </g>
    <g>
      <path class="cls-17" d="M1152.35,465.28c-.6-5-2.86-8.93-3.34-13.93a3.72,3.72,0,0,0-.94-2.42c-2.13-2.15-7.07-3.4-12.17-7-.56-.39-3.78-3.21-4.79-2.79a3,3,0,0,0-1.8,2.56,5.74,5.74,0,0,0,2.22,5.15c4.33,3.64,9.68,5.77,10.28,6.54,1,1.19-.4,4.72-.58,6.17-1.49,11.53,4.46,14.43,3.21,19.37-.25,1-.94,2.54-2.22,2.9-1.72.48-3-.2-7.88-3.09-.83-.49-11-6.49-13.66-3.63-.92,1-.29,3.09.79,4a79.68,79.68,0,0,0,7.31,5c4.6,2.75,5.57,3.25,7.31,5a12.12,12.12,0,0,1,3.14,3.8,22.19,22.19,0,0,0,8.24,7.4c3.34,1.92,8.53,2.46,11.22.68s1.62-4.55.64-10.83C1157.23,476.55,1153.65,476.07,1152.35,465.28Z"/>
      <path class="cls-16" d="M1129.28,467.27a8.23,8.23,0,0,0-2.78-.39,11,11,0,0,0-3.8,1.08c-4.28,1.67-3.88,1.27-4.71,1.77-2.13,1.31-1.84,2.17-4.13,3.47a5.62,5.62,0,0,1-6.41-.49c-.91-.76-.17-2.16-.06-2.44.31-.84.79-1,2.83-2.84,1.51-1.34,2-1.94,1.92-2.16s-2.44.06-2.16-1.93c.13-.94.88-1.62,2-2.56,3.84-3.25,4.3-4.25,6.85-5.51a10.06,10.06,0,0,1,3.8-1.09c6.18-.75,9.77-2.66,12.36-1.5s19,8.86,20.11,9.71a7.76,7.76,0,0,1,2.62,4.42c1.66,6.49,4.92,15.67,6.78,20.65.55,1.48,1.67,6.46,1.06,9.2-.65,2.94-2.22,5.94-5.66,6.51-5,.82-8.83-2.49-9.31-2.93-1.78-1.64-2.48-3.43-3.87-7-2.46-6.32-2-9.52-4.51-11.16a29,29,0,0,0-4.15-2.21c-.82-.35-1.22-.53-1.53-.62-3.15-.86-8-.09-8.51,0-.76.16-3.17,2.13-10,4.68-.89.33-4.71,1.77-6.08-.05a2.3,2.3,0,0,1-.11-2c.54-1.37,2.14-1.77,3.57-2.33,4.06-1.61,3.66-3.31,8.49-5.69a21.08,21.08,0,0,1,4.71-1.77c6.29-1.55,10,1,10.6-.54C1139.69,470.32,1135.44,469,1129.28,467.27Z"/>
      <path class="cls-17" d="M1144.36,463.72c-2.55-1.4-5.15-2.67-7.79-3.87-1.31-.62-2.64-1.18-4-1.75-.68-.28-1.33-.55-2.09-.79a7.21,7.21,0,0,0-2.37-.3,5,5,0,0,0-1.22.21l-1.06.35c-.7.25-1.38.5-2.06.77-1.34.54-2.68,1.08-4,1.65l-2,.83a7.43,7.43,0,0,0-1.93,1.24c-1.11,1-2.1,2-3.27,2.86a29.62,29.62,0,0,0,3.69-2.3,7.08,7.08,0,0,1,1.81-.93c.71-.2,1.39-.44,2.08-.67,1.38-.45,2.73-1,4.09-1.43.68-.24,1.35-.49,2-.72l1-.31a4.12,4.12,0,0,1,.91-.15,6,6,0,0,1,1.92.23c.63.17,1.31.46,2,.69l4.05,1.53C1138.86,461.87,1141.58,462.86,1144.36,463.72Z"/>
    </g>
    <path class="cls-16" d="M991.65,639.22c8.7-4.83,16.9-15.47,15.91-24.1a1.17,1.17,0,0,1,.05-.5,79.66,79.66,0,0,0-9.47-9.8c-14.19-12.5-20.62-33.09-26.07-43.66s-25.43-16-22.7-2.73,8.35,22.17,13.47,35.47c4.86,12.65,10.24,30.61,16.87,46.36C982.34,642.36,986.65,642,991.65,639.22Z"/>
  </g>
  <rect class="cls-8" x="76.63" y="671.54" width="1128.58" height="19.74" rx="9.87" transform="translate(1281.84 1362.82) rotate(180)"/>
  <g>
    <path class="cls-5" d="M1045.27,671.64H851v-9h187.22c1.31,0,5.88,6,5.88,6a1.83,1.83,0,0,1-1.55,3Z"/>
    <path class="cls-5" d="M939.3,671.64H822.84a13.93,13.93,0,0,1-13.41-10.15l-34.9-124.08a6.47,6.47,0,0,1,6.23-8.22H898.89a14,14,0,0,1,13.52,10.24l34.4,122.29A7.81,7.81,0,0,1,939.3,671.64Z"/>
    <path class="cls-8" d="M938.38,671.64h-117a13.77,13.77,0,0,1-13.26-10L773.48,538.28a4.57,4.57,0,0,1,4.4-5.8h117a13.77,13.77,0,0,1,13.26,10l34.69,123.32A4.57,4.57,0,0,1,938.38,671.64Z"/>
  </g>
  <g>
    <path class="cls-1" d="M586,357.4H409.45c-8,0-13.17,6.48-13.17,14.48V429.5c0,8,5.17,14.49,13.17,14.49H553l16.51,15.09V444H586a14.49,14.49,0,0,0,14.48-14.49V371.88A14.48,14.48,0,0,0,586,357.4Z"/>
    <g>
      <circle class="cls-2" cx="554.17" cy="417.79" r="3.27"/>
      <circle class="cls-2" cx="567.72" cy="417.79" r="3.27"/>
      <path class="cls-2" d="M584.54,417.79a3.27,3.27,0,1,1-3.27-3.27A3.28,3.28,0,0,1,584.54,417.79Z"/>
      <path class="cls-2" d="M584.38,389.63H527a3.29,3.29,0,0,1,0-6.57h57.35a3.29,3.29,0,0,1,0,6.57Z"/>
      <path class="cls-2" d="M584.38,405.41H492.81a3.28,3.28,0,0,1,0-6.56h91.57a3.28,3.28,0,1,1,0,6.56Z"/>
      <path class="cls-2" d="M541.25,421.09H492.81a3.28,3.28,0,0,1,0-6.56h48.44a3.28,3.28,0,0,1,0,6.56Z"/>
    </g>
    <g>
      <circle class="cls-2" cx="444.35" cy="402.08" r="35.19" transform="translate(-113.5 620.96) rotate(-63.56)"/>
      <g>
        <path class="cls-8" d="M447.58,372.28c10.19.19,21.68,11.27,25.18,22.17,2.6,8.06,4.53,22.94-6.56,31.62-10.5,8.21-27.47-.1-35.42-11a34.93,34.93,0,0,1-6.61-21.62c.15-3,1.12-17.82,15.17-20.7,1.3-.27,3.48-.44,4.2.29S444.73,372.23,447.58,372.28Z"/>
        <path class="cls-13" d="M453.6,420.67c-6.58-1.93-8.31-2.44-12.19-2.33-6.19.18-8,3-17.65,5.37-2.68.66-4.54,1.15-5.87,1.56a35.2,35.2,0,0,0,52.33.66C464.46,424.4,458.72,422.16,453.6,420.67Z"/>
        <path class="cls-4" d="M435.68,405.4c-.1.61.1,10.13.1,14.81,0,5.82,3.91,8.4,7.8,8.55,4.74.17,8.88-2.14,9.51-5.35.29-1.53-.11-28.8-.82-28.8S435.68,405.4,435.68,405.4Z"/>
        <path class="cls-8" d="M439.84,427.14a10.29,10.29,0,0,0,.61-1.42,3.83,3.83,0,0,0,.15-.7.71.71,0,0,0-.08-.5.52.52,0,0,0-.35-.14,3.71,3.71,0,0,0-.66,0l-.78.09a3.57,3.57,0,0,1-1,0,1.39,1.39,0,0,1-.68-.32,1.2,1.2,0,0,1-.29-.38,1.17,1.17,0,0,1-.09-.24,1.57,1.57,0,0,1,0-.23,1.72,1.72,0,0,1,.11-.72c.07-.19.14-.33.2-.46a4.79,4.79,0,0,0,.28-.63c.05-.17,0-.25,0-.26a.18.18,0,0,0,0,0l0,.07s0,0,0,0a3.41,3.41,0,0,0-.52-.1l-.77-.1a5.37,5.37,0,0,1-1-.23,2.27,2.27,0,0,1-.65-.36,1.77,1.77,0,0,1-.61-.83,2.13,2.13,0,0,1-.08-1,2.8,2.8,0,0,1,.22-.69c.15-.32.26-.57.22-.55a.51.51,0,0,0,0,.38.57.57,0,0,0,0,.14c0,.05,0,.09.05.13s.09.12.14.17,0,0,.05,0l0,0s0,0,0,0l-.18,0c-.19,0-.43,0-.77-.09l-.29-.05-.17,0-.21-.07-.11,0-.14-.07-.14-.08-.07,0-.1-.08a2.13,2.13,0,0,1-.33-.34,2.21,2.21,0,0,1-.27-.53,2,2,0,0,1-.07-.59,1.82,1.82,0,0,1,.26-.85,1.07,1.07,0,0,1,.15-.22,5,5,0,0,1,.43-.45l.25-.2.07,0s0,0,0,0,0,.1,0,.2a.65.65,0,0,0,.11.29c.07.08.1.07.06,0s-.13-.15-.25-.29a2.4,2.4,0,0,1-.42-.57,1.81,1.81,0,0,1-.1-1.56,2.14,2.14,0,0,1,.29-.52,3.43,3.43,0,0,1,.68-.69,5.78,5.78,0,0,1,1.53-.81l.18.21c-.25.5-.51,1-.7,1.42a2.54,2.54,0,0,0-.19.62.8.8,0,0,0,0,.22s0,.06.07,0,0-.06.05-.09,0,0,.1,0a1.81,1.81,0,0,1,.35.22,2,2,0,0,1,.57.61,2,2,0,0,1,.27,1.06,2.13,2.13,0,0,1-.25.94,3.45,3.45,0,0,1-.19.34l-.19.24-.31.37c-.07.08-.12.16-.1.14l0-.06a.67.67,0,0,0,.08-.17,1,1,0,0,0,.06-.31,1.1,1.1,0,0,0-.05-.4,1,1,0,0,0-.17-.35,1.34,1.34,0,0,0-.2-.21l-.06,0,0,0-.06,0-.05,0h0l.1,0c.17,0,.45.06.79.13a5,5,0,0,1,.58.17l.36.16a2.26,2.26,0,0,1,.2.13,1.37,1.37,0,0,1,.21.15,2.1,2.1,0,0,1,.67,1.07,2,2,0,0,1-.09,1.16,3.49,3.49,0,0,1-.3.57l-.21.28c0,.06,0,.08-.06.05a.64.64,0,0,0,0-.24.43.43,0,0,0-.16-.2s0,0,0,0a2.47,2.47,0,0,0,.54.19l.78.2a4.52,4.52,0,0,1,1,.37,2,2,0,0,1,.59.49,1.3,1.3,0,0,1,.25.39,1.56,1.56,0,0,1,.12.43,2.27,2.27,0,0,1-.23,1.28,7,7,0,0,1-.47.76,2.45,2.45,0,0,0-.16.24c-.05.07,0,.09-.06.05s0,0,0,0,0,0,0-.05a.46.46,0,0,0-.07-.07s0,0,0,0a2.37,2.37,0,0,0,.6.1l.79,0a4.54,4.54,0,0,1,.91.15,1.51,1.51,0,0,1,.51.25,1.18,1.18,0,0,1,.39.49,1.56,1.56,0,0,1,0,1,4.48,4.48,0,0,1-.34.8,9.85,9.85,0,0,1-.93,1.33Z"/>
        <path class="cls-8" d="M467.37,388.58c.75.11,1.5.24,2.27.42a12,12,0,0,1,1.19.34,5.49,5.49,0,0,1,1.32.62,3.15,3.15,0,0,1,.39.3l.2.22a2.27,2.27,0,0,1,.21.28,2.19,2.19,0,0,1,.27.77,2.07,2.07,0,0,1-.06.8,2.47,2.47,0,0,1-.53.93,4.9,4.9,0,0,1-.52.51c-.32.28-.63.5-.87.69l-.26.23s0,0,0,0a.73.73,0,0,0,0-.43.74.74,0,0,0-.27-.43c-.07-.06-.11-.06-.09-.05a.87.87,0,0,0,.28.08c.29.05.64.09,1,.13a6.91,6.91,0,0,1,1.29.24,3.07,3.07,0,0,1,.44.19,1.79,1.79,0,0,1,.52.44,1.52,1.52,0,0,1,.2.38,1.63,1.63,0,0,1,.08.44,1.58,1.58,0,0,1,0,.38,1.76,1.76,0,0,1-.1.3,2.85,2.85,0,0,1-.45.67c-.14.17-.27.29-.38.41s-.19.23-.23.28l0,0v0a.27.27,0,0,0,0-.09.28.28,0,0,0,0-.12.3.3,0,0,0-.1-.13s0,0,0,0a1.49,1.49,0,0,0,.34.11c.3.07.65.11,1,.19a3.47,3.47,0,0,1,.67.17,1.61,1.61,0,0,1,.45.25,1.1,1.1,0,0,1,.4.69,1.18,1.18,0,0,1-.14.71,1.86,1.86,0,0,1-.27.35,5.31,5.31,0,0,1-.49.42c-.31.23-.6.43-.82.63a1.28,1.28,0,0,0-.26.28c-.06.08-.06.1-.07.1h0v0s0,0,.07.07a1.71,1.71,0,0,0,.37.22,10.52,10.52,0,0,1,1,.5,2.33,2.33,0,0,1,.53.43,2.28,2.28,0,0,1,.21.3,2.17,2.17,0,0,1,.15.35,1.47,1.47,0,0,1,0,.75,2.21,2.21,0,0,1-.26.6,10.44,10.44,0,0,0-.53.91,1.55,1.55,0,0,0,.26,1.73c.22.26.49.52.73.81a4,4,0,0,1,.58,1,2.35,2.35,0,0,1,.08,1.14c-.11.73-.32,1.43-.49,2.13.11-.71.25-1.43.29-2.15a1.86,1.86,0,0,0-.15-1,3.49,3.49,0,0,0-.6-.84c-.24-.26-.52-.47-.8-.74a2.15,2.15,0,0,1-.6-1.06,2.22,2.22,0,0,1,.07-1.25,11,11,0,0,1,.48-1,1.33,1.33,0,0,0,.14-.41.67.67,0,0,0,0-.32,1,1,0,0,0-.54-.5,9.77,9.77,0,0,0-1-.37,2.51,2.51,0,0,1-.6-.29,1.41,1.41,0,0,1-.33-.28l-.14-.22-.09-.26a1.32,1.32,0,0,1,.15-.94,2.36,2.36,0,0,1,.43-.56c.29-.31.59-.55.84-.78a3,3,0,0,0,.31-.32s.06-.08.05-.08a.27.27,0,0,0,0,.18.38.38,0,0,0,.13.25s0,0,0,0l-.4-.06c-.32,0-.7,0-1.11-.1a3.27,3.27,0,0,1-.71-.17,1.47,1.47,0,0,1-.45-.25,1.51,1.51,0,0,1-.43-.57,2.62,2.62,0,0,1-.09-.38,2.17,2.17,0,0,1,0-.36c0-.1.05-.19.08-.29l.09-.22a4,4,0,0,1,.4-.61l.33-.42a1.63,1.63,0,0,0,.14-.24.05.05,0,0,0,0,0,.2.2,0,0,0,0,.11.55.55,0,0,0,.09.32c.14.15.12.1,0,.09a5.69,5.69,0,0,0-.86-.07c-.35,0-.72,0-1.16,0a4.1,4.1,0,0,1-.77-.15,1.93,1.93,0,0,1-.57-.31,1.54,1.54,0,0,1-.56-.88,1.68,1.68,0,0,1,.1-1,2.36,2.36,0,0,1,.29-.5,5.9,5.9,0,0,1,.5-.55c.3-.29.57-.52.78-.74a1.29,1.29,0,0,0,.23-.28c.05-.06.05-.11,0,0a.69.69,0,0,0,0,.27.73.73,0,0,0,.08.26l0,.06v0l-.05,0A3.87,3.87,0,0,0,470,392c-.28-.07-.6-.12-.93-.17-.65-.09-1.34-.15-2-.19Z"/>
        <path class="cls-9" d="M432.85,378.85a15.3,15.3,0,0,0-3.1,6.75c-.4,2.2.23,3.43-.09,7.33-1.19,14.33,2.37,19.39,6.34,23.12,2.75,2.58,5.13,2.56,6.1,2.35a16.77,16.77,0,0,0,8.77-5c4.12-4.4,5-9.83,5.45-12.84.74-4.74-.29-5.52.94-9.37,1.47-4.62.64-13.7-5-15.69C445.85,373.32,437.09,373.57,432.85,378.85Z"/>
        <path class="cls-8" d="M438.33,395.55a4.15,4.15,0,0,1-2.32-.11,4.23,4.23,0,0,1-1-.49c-.3-.2-.59-.41-.89-.57a6.46,6.46,0,0,0-.92-.44l-.47-.16-.49-.12a3.36,3.36,0,0,0-2,.3l-.07-.12a3.47,3.47,0,0,1,2.1-.87,4.9,4.9,0,0,1,1.17.09,7.87,7.87,0,0,1,1.11.3l1.06.37a5.89,5.89,0,0,1,.95.44c.3.18.59.36.88.56s.3.2.45.32.3.22.46.36Z"/>
        <path class="cls-8" d="M444.61,395.29c.19-.13.38-.22.56-.32s.37-.19.54-.28l1.07-.49a7.76,7.76,0,0,1,1.12-.38l1.21-.28a8.84,8.84,0,0,1,1.27-.2c.22,0,.43,0,.65,0l.32,0,.33,0a3.9,3.9,0,0,1,2.22,1.21l-.08.1a3.86,3.86,0,0,0-2.18-.62l-.56.06c-.19,0-.38.07-.56.12a7.6,7.6,0,0,0-1.08.36c-.36.14-.71.33-1.08.51a4.91,4.91,0,0,1-1.17.41,4.65,4.65,0,0,1-2.56-.1Z"/>
        <path class="cls-10" d="M432.67,398.63c0,.2.62.81,2.47.8.82,0,1.64-.22,1.64-.63a1.58,1.58,0,0,0-1.25-1.22C434.3,397.38,432.66,398.22,432.67,398.63Z"/>
        <path class="cls-10" d="M450.26,399.3c0,.22-.71.83-2.66.71-.86-.05-1.72-.32-1.69-.75a1.66,1.66,0,0,1,1.38-1.23C448.6,397.9,450.28,398.87,450.26,399.3Z"/>
        <path class="cls-8" d="M437.52,399.22a8.44,8.44,0,0,1-1.54-.5,12.46,12.46,0,0,0-1.33-.55,2.94,2.94,0,0,0-1.43.1,7.68,7.68,0,0,1-.8.22,1.36,1.36,0,0,1-.45,0,1.1,1.1,0,0,1-.4-.17l.05-.09a1,1,0,0,0,.72,0c.22-.1.45-.24.69-.37a4.1,4.1,0,0,1,.8-.34,3.06,3.06,0,0,1,.91-.09,4.61,4.61,0,0,1,.9.11,2.5,2.5,0,0,1,.8.35l.35.26.31.31a2.59,2.59,0,0,1,.48.72Z"/>
        <path class="cls-8" d="M445.12,399.46a3.51,3.51,0,0,1,1.53-1.32,2.77,2.77,0,0,1,1-.24,4.28,4.28,0,0,1,1.07.12,4.23,4.23,0,0,1,1,.36c.3.16.58.33.84.49a3.13,3.13,0,0,0,.81.38,1.45,1.45,0,0,0,.87-.07l0,.08a1.46,1.46,0,0,1-1,.29,3.52,3.52,0,0,1-1-.24,6.63,6.63,0,0,0-1.73-.51,5.4,5.4,0,0,0-1.63.27c-.56.14-1.13.33-1.81.47Z"/>
        <path class="cls-8" d="M435.81,398.5a1.13,1.13,0,0,1-1.06,1.2,1.12,1.12,0,0,1-1.2-1.05,1.13,1.13,0,0,1,1.05-1.21A1.15,1.15,0,0,1,435.81,398.5Z"/>
        <path class="cls-8" d="M449.12,399a1.19,1.19,0,1,1-1.28-1.1A1.19,1.19,0,0,1,449.12,399Z"/>
        <path class="cls-14" d="M445.31,411.71a.23.23,0,0,0-.14-.37,28.93,28.93,0,0,0-4.6-.51,18.92,18.92,0,0,0-3.35.24.24.24,0,0,0-.18.33,4.2,4.2,0,0,0,3.86,2.68A5.8,5.8,0,0,0,445.31,411.71Z"/>
        <path class="cls-8" d="M442.34,383.23c2.57,5.21,5.75,3.51,9.28,7.41,8,8.9,3.52,16,4.57,16.56,1.66.94,5.89-2.66,8.15-7.45,3-6.42,1.28-18.71-5.07-23.6-4.4-3.39-11.68-5.54-15.35-2.54C440.81,376.17,441.33,381.16,442.34,383.23Z"/>
        <path class="cls-8" d="M441.93,383.34c-2.55,4.41-12.2,5.19-13,12.42-.15,1.44-2.43-4.95-2.22-9,.37-7.19,11.09-15.71,15.18-13.95C445.36,374.33,444.6,378.71,441.93,383.34Z"/>
        <path class="cls-9" d="M454.76,398.05c.8-.82,2.22-1.49,3-1,.58.37,1.1,1.25,1,3.17a6.38,6.38,0,0,1-1.54,4.48c-.19.21-1.31,1.38-2.24,1.08C453.39,405.24,452.56,400.29,454.76,398.05Z"/>
        <path class="cls-8" d="M454.13,388.41c-.33.39-.65.8-1,1.24-.15.22-.3.45-.45.71a3.56,3.56,0,0,0-.38.91,1.5,1.5,0,0,0-.06.33,1.27,1.27,0,0,0,0,.2,1.81,1.81,0,0,0,0,.23,1.32,1.32,0,0,0,.21.51,1.28,1.28,0,0,0,.39.38,1.68,1.68,0,0,0,.69.23,2.91,2.91,0,0,0,.49,0l.75-.05h.24s0,0,0,0a.49.49,0,0,1-.21-.21.58.58,0,0,1-.06-.34c0-.06,0-.08,0-.06a1.34,1.34,0,0,1-.11.17c-.12.15-.29.33-.46.52a4.65,4.65,0,0,0-.54.71,1.32,1.32,0,0,0-.13.29,1.2,1.2,0,0,0-.07.46,1.74,1.74,0,0,0,.07.29,1.32,1.32,0,0,0,.16.25.81.81,0,0,0,.19.18l.18.1a1.79,1.79,0,0,0,.54.14l.38,0,.24,0h0a.1.1,0,0,1,0-.05.16.16,0,0,1,0-.07.62.62,0,0,1,0-.12s0,0,0,0a.67.67,0,0,1-.12.21c-.12.17-.27.36-.44.57a2.92,2.92,0,0,0-.26.39,1,1,0,0,0-.11.33.72.72,0,0,0,.11.53.67.67,0,0,0,.39.29,1.32,1.32,0,0,0,.3.06,3,3,0,0,0,.43,0c.26,0,.5-.05.7-.05a1,1,0,0,1,.26,0l.07,0h0a.15.15,0,0,1,0,.07.88.88,0,0,1-.08.27c-.09.22-.21.45-.3.72a1.64,1.64,0,0,0-.07.46,1.06,1.06,0,0,0,0,.25,2.34,2.34,0,0,0,.09.24,1,1,0,0,0,.33.39,1.71,1.71,0,0,0,.4.18c.26.09.49.13.68.22a1.15,1.15,0,0,1,.48.39,1.09,1.09,0,0,1,.18.6c0,.23,0,.49,0,.75a2.83,2.83,0,0,0,.14.75,1.54,1.54,0,0,0,.48.61c.39.32.81.58,1.21.86-.38-.31-.78-.61-1.12-.95a1.36,1.36,0,0,1-.38-.58,2.32,2.32,0,0,1-.07-.7c0-.23.05-.47.06-.73a1.37,1.37,0,0,0-.17-.81,1.42,1.42,0,0,0-.6-.59,6.6,6.6,0,0,0-.7-.31,1,1,0,0,1-.26-.14.41.41,0,0,1-.12-.18.69.69,0,0,1,0-.5c.08-.19.2-.38.33-.62a2.14,2.14,0,0,0,.17-.42,1.17,1.17,0,0,0,0-.29,1,1,0,0,0,0-.17.51.51,0,0,0-.07-.17.89.89,0,0,0-.5-.41,1.69,1.69,0,0,0-.47-.09,6.72,6.72,0,0,0-.77,0l-.31,0-.06,0s.05,0,.1.08a.3.3,0,0,1,.05.18s0,0,0,0a2,2,0,0,1,.17-.21c.15-.16.33-.33.52-.55a2.07,2.07,0,0,0,.28-.41,1.16,1.16,0,0,0,.11-.33.9.9,0,0,0,0-.48,1.41,1.41,0,0,0-.13-.24,1.37,1.37,0,0,0-.17-.17l-.16-.11-.16-.07a2.16,2.16,0,0,0-.47-.12l-.36-.07a.46.46,0,0,1-.17-.06h0a.12.12,0,0,1,.06.06.33.33,0,0,1,.09.2c0,.13,0,.1,0,.06a3.08,3.08,0,0,1,.41-.42c.17-.17.36-.33.56-.55a2.08,2.08,0,0,0,.32-.43,1.14,1.14,0,0,0,0-1.11,1.16,1.16,0,0,0-.49-.44,2.2,2.2,0,0,0-.37-.12,3.5,3.5,0,0,0-.5-.05l-.73,0a1.07,1.07,0,0,1-.24,0c-.06,0-.08,0,0,0a.36.36,0,0,1,.13.12.42.42,0,0,1,.08.17s0,0,0,0v0l0,0a2.55,2.55,0,0,1,.24-.42c.11-.16.25-.33.39-.51.29-.34.62-.68.95-1Z"/>
        <circle class="cls-6" cx="444.35" cy="402.08" r="35.19" transform="translate(-113.5 620.96) rotate(-63.56)"/>
      </g>
    </g>
  </g>
  <g>
    <path class="cls-1" d="M220.31,357.4H43.72a14.48,14.48,0,0,0-14.48,14.48V429.5A14.48,14.48,0,0,0,43.72,444H187.26l16.52,15.09V444h16.53a14.48,14.48,0,0,0,14.48-14.49V371.88A14.48,14.48,0,0,0,220.31,357.4Z"/>
    <g>
      <circle class="cls-2" cx="188.45" cy="416.63" r="3.27"/>
      <circle class="cls-2" cx="201.99" cy="416.63" r="3.27"/>
      <path class="cls-2" d="M218.81,416.63a3.27,3.27,0,1,1-3.27-3.26A3.26,3.26,0,0,1,218.81,416.63Z"/>
      <path class="cls-2" d="M218.65,388.47H161.31a3.28,3.28,0,0,1,0-6.56h57.34a3.28,3.28,0,1,1,0,6.56Z"/>
      <path class="cls-2" d="M218.65,404.26H127.09a3.29,3.29,0,1,1,0-6.57h91.56a3.29,3.29,0,0,1,0,6.57Z"/>
      <path class="cls-2" d="M175.52,419.93H127.09a3.28,3.28,0,1,1,0-6.56h48.43a3.28,3.28,0,1,1,0,6.56Z"/>
    </g>
    <g>
      <circle class="cls-2" cx="77.63" cy="400.92" r="35.19" transform="translate(-148.05 60.58) rotate(-22.59)"/>
      <g>
        <path class="cls-5" d="M96.56,418.52l-2-.31a20.91,20.91,0,0,0-6.38-1.89c-4.74-.55-11,2-16.78,3.65s-7.72,2.43-11.78,2.84A17.24,17.24,0,0,0,54,424.39h0l-.11.05a10,10,0,0,0-1.58.91,35.18,35.18,0,0,0,54.06-4.1A59.34,59.34,0,0,0,96.56,418.52Z"/>
        <circle class="cls-6" cx="77.63" cy="400.92" r="35.19" transform="translate(-148.05 60.58) rotate(-22.59)"/>
        <g>
          <path class="cls-8" d="M101.29,391.59a3.91,3.91,0,0,0-1.63-1.93.37.37,0,0,1-.09-.56,2.25,2.25,0,0,0,.62-2.28,1.71,1.71,0,0,0-1.11-1,.39.39,0,0,1-.24-.31,1.59,1.59,0,0,0,.59-1.92,1.31,1.31,0,0,0-.76-.68l0-.09a.36.36,0,0,1,0-.27,6.09,6.09,0,0,0,.57-3.72A3.62,3.62,0,0,0,96.66,376a2.87,2.87,0,0,0-.21-2.79,2.55,2.55,0,0,0-2.82-.63,3.65,3.65,0,0,0-.68-2.06c-1.37-1.85-4.78-1.64-7.12.42l-.1.09a.35.35,0,0,1-.57-.24c-.38-2.32-1.44-4-2.81-4.27s-2.56,1-3.33,2.94a.34.34,0,0,1-.59.07c-.94-1.24-2.12-1.84-2.85-1.38A1.94,1.94,0,0,0,75,370a.33.33,0,0,1-.52.34c-2.58-1.82-5.27-2.15-6.29-.65a3.67,3.67,0,0,0,.08,3.47.35.35,0,0,1-.42.48c-2.24-.84-4.52-.37-5.73,1.4a5.46,5.46,0,0,0-.53,4.59.36.36,0,0,1-.16.42,7.37,7.37,0,0,0-2.27,2,7.71,7.71,0,0,0,.78,9.22.37.37,0,0,1-.09.58,3,3,0,0,0,.92,5.87.38.38,0,0,1,.18.65,2.88,2.88,0,0,0-1.07,3.17,2.82,2.82,0,0,0,3.44,1.34.37.37,0,0,1,.41.5c-.42,1.26-.39,2.37.15,2.75s1.38-.06,2.18-1a.34.34,0,0,1,.59.18,2.76,2.76,0,0,0,1.74,2.29,2.08,2.08,0,0,0,2.15-1,.33.33,0,0,1,.57.06,2.88,2.88,0,0,0,2.78,1.82,2.41,2.41,0,0,0,1.8-1.78.32.32,0,0,1,.35-.22,19.18,19.18,0,0,0,6.81-.3,17.4,17.4,0,0,0,7.31-3.5.35.35,0,0,1,.54.17c.78,1.94,2.54,2.24,4.28,1.48a2.37,2.37,0,0,0,1.31-1.59.44.44,0,0,1,.56-.27c1.66.34,2.95-1.95,2.17-3.89a4,4,0,0,0-.72-1.17c-.16-.18-.11-.75.51-.75a2.09,2.09,0,0,0,.72-.21A3.73,3.73,0,0,0,101.29,391.59Z"/>
          <path class="cls-16" d="M92.15,396.88s-.27,5.75-.09,8.37c.58,8.28,2.41,13.76,2.36,15.45-.09,3.2-1.81,4.13-3.14,5-4,2.69-12.33,3.53-15,.45A6.16,6.16,0,0,1,75,423.1c-.2-1-1.6-7.34-1.29-8.21s7.92-13.95,9.73-15S92.15,396.88,92.15,396.88Z"/>
          <path class="cls-16" d="M71.83,376.35a11.7,11.7,0,0,0-7.7,9.31c-.37,2.42-.67,5.32-.31,6.87.86,3.71.25,5,.49,7.18a47.39,47.39,0,0,0,2.42,8.35c1,2.9,2.75,6.8,5.39,8.54a7,7,0,0,0,5.53,1.16c4.33-.6,11.21-6.81,12-8.62s.71-6.68.74-8a63,63,0,0,1,.55-8.4c.46-2.36,1.15-11.49-6.07-15C83.3,376.93,76,375,72,376.29Z"/>
          <path class="cls-19" d="M70.66,396.38c0,.21-.66.78-2.5.65-.81-.06-1.61-.32-1.58-.72a1.54,1.54,0,0,1,1.3-1.14C69.12,395.05,70.69,396,70.66,396.38Z"/>
          <path class="cls-8" d="M67.22,396.12A1.19,1.19,0,1,0,68.48,395,1.18,1.18,0,0,0,67.22,396.12Z"/>
          <path class="cls-19" d="M82.82,396.06c0,.22-.66.87-2.64.86-.88,0-1.75-.23-1.75-.67a1.67,1.67,0,0,1,1.33-1.31C81.07,394.73,82.82,395.62,82.82,396.06Z"/>
          <path class="cls-8" d="M81.62,395.84a1.21,1.21,0,0,1-1.05,1.35,1.21,1.21,0,0,1-.31-2.4A1.22,1.22,0,0,1,81.62,395.84Z"/>
          <path class="cls-17" d="M79.34,409.61a.22.22,0,0,0-.15-.35,28.1,28.1,0,0,0-4.48-.31,17.39,17.39,0,0,0-3.24.38.22.22,0,0,0-.16.32,4.07,4.07,0,0,0,3.86,2.44A5.56,5.56,0,0,0,79.34,409.61Z"/>
          <path class="cls-8" d="M71.4,392.77a4.38,4.38,0,0,1-1,.16,5.86,5.86,0,0,1-.94,0l-.45-.06-.43-.12a5.35,5.35,0,0,0-.84-.25l-.21,0-.21,0a2.71,2.71,0,0,0-.4,0h-.19l-.21,0-.43.1a5.21,5.21,0,0,0-.83.31l-.4.22a2.51,2.51,0,0,0-.37.27l-.12-.09a3.1,3.1,0,0,1,.61-.78,4.39,4.39,0,0,1,.8-.62l.45-.25.24-.11.06,0,.07,0,.07,0,.07,0a4.51,4.51,0,0,1,1.06-.15l.52,0h.51a2.83,2.83,0,0,1,.5.05,2.54,2.54,0,0,1,.47.14,4.42,4.42,0,0,1,.89.46,4.12,4.12,0,0,1,.41.32,3.57,3.57,0,0,1,.37.4Z"/>
          <path class="cls-8" d="M76.53,392.34l.2-.25.22-.21a3.92,3.92,0,0,1,.46-.37,3.66,3.66,0,0,1,.49-.31c.17-.09.34-.18.51-.25l.27-.11.27-.08.28-.06.29,0,.58,0,.29,0,.29,0h1.18l.29,0,.15,0,.15,0a5.5,5.5,0,0,1,.58.16l.14.05.14.06.27.13a2.8,2.8,0,0,1,.5.31,3.94,3.94,0,0,1,.45.36,5,5,0,0,1,.39.41l-.09.11-.48-.25a5.16,5.16,0,0,0-.49-.21l-.25-.09-.25-.06-.25,0H83l-.13,0a4.8,4.8,0,0,0-1,0l-.12,0-.13,0-.25,0-.25.05-.26.06-.5.15-.24.09-.25.1-.25.08-.25.08-.25.06-.26,0-.53.08-.55,0H77.2c-.2,0-.4,0-.61,0Z"/>
          <path class="cls-8" d="M83.47,396.47a2,2,0,0,0-.28-.3,2.61,2.61,0,0,0-.31-.27,3.25,3.25,0,0,0-.68-.43l-.18-.08-.19-.07c-.12,0-.24-.06-.37-.09a3.08,3.08,0,0,0-.74,0,3,3,0,0,0-.72.2l-.68.28a4.55,4.55,0,0,0-.65.35,3.15,3.15,0,0,0-.33.22,3.76,3.76,0,0,0-.32.28l-.08,0a1.31,1.31,0,0,1,0-.48,2.11,2.11,0,0,1,.2-.43,2.27,2.27,0,0,1,.68-.7,2.41,2.41,0,0,1,.88-.36,4.3,4.3,0,0,1,1-.06,2.89,2.89,0,0,1,.92.18,2.86,2.86,0,0,1,.81.43,3.37,3.37,0,0,1,.35.29,3,3,0,0,1,.3.32,3.36,3.36,0,0,1,.47.73Z"/>
          <path class="cls-8" d="M66,396.69a1.54,1.54,0,0,1,.09-.43,1.92,1.92,0,0,1,.19-.41,2.43,2.43,0,0,1,.63-.65,2,2,0,0,1,.87-.32,2.26,2.26,0,0,1,.45,0l.45,0a3.49,3.49,0,0,1,1.6.59,3.11,3.11,0,0,1,.62.58,2.9,2.9,0,0,1,.41.71l-.08,0a2.9,2.9,0,0,0-1.17-.93,3,3,0,0,0-.7-.21,3.49,3.49,0,0,0-.72-.05,2,2,0,0,0-.34,0l-.33.1-.31.12-.3.12a4,4,0,0,0-.62.31c-.21.12-.42.26-.65.42Z"/>
          <path class="cls-8" d="M80.39,408.91a3.63,3.63,0,0,1-.46.34c-.16.11-.32.2-.49.3a9.64,9.64,0,0,1-1,.48,8.28,8.28,0,0,1-1.1.35,10.74,10.74,0,0,1-1.13.22l-.29,0-.28,0-.29,0h-.87l-.29,0-.15,0-.14,0-.28-.06-.28-.07c-.19-.05-.37-.11-.56-.18l-.26-.1-.27-.12L72,410a2,2,0,0,1-.25-.14l0-.07.57,0,.28,0h.28l.27,0h.28l.27,0,.27,0h.27l.27,0,.27,0H75a8,8,0,0,0,1.09,0c.37,0,.73-.06,1.09-.11a10.4,10.4,0,0,0,1.08-.23,8.62,8.62,0,0,0,1-.35,4.46,4.46,0,0,0,.5-.22c.17-.08.34-.17.49-.26Z"/>
          <g>
            <path class="cls-8" d="M61,379.71a3.84,3.84,0,0,1,2.21-.66,3.23,3.23,0,0,1,1.17-3.76c1.38-.79,5.37.56,6.1.15,1.69-1,3.57-.86,4.32.19A4.16,4.16,0,0,1,78,377.88a4.77,4.77,0,0,1,.64,2.44,1.53,1.53,0,0,1,1.73.68,1.44,1.44,0,0,1,.12,1.13c.39.11.68.19.8.21l0,.07a3.82,3.82,0,1,1-6.65,3.76,3.55,3.55,0,0,1-.31-.69,3.4,3.4,0,0,1-1.75,1.09,3.71,3.71,0,0,1-3.42-1,1.12,1.12,0,0,1-.69.61,1.16,1.16,0,0,1-1-.28,3.64,3.64,0,0,1-4.58,1.46l.07.11a3.72,3.72,0,0,1-1.29,5.09C60,393.51,54.35,384.76,61,379.71Z"/>
            <path class="cls-8" d="M80.78,382.29l0,0C80.87,382.3,80.87,382.31,80.78,382.29Z"/>
          </g>
          <g>
            <path class="cls-8" d="M78.72,374.7a5.65,5.65,0,0,1,2.5,1c.75-1.74,2.26-2.84,3.8-2.6,1.84.29,3,2.37,2.82,4.74a5.77,5.77,0,0,1,2.65-.18c2.24.35,3.89,1.8,3.81,3.31a4.88,4.88,0,0,1,1.32,4.39,5.62,5.62,0,0,1-1.18,2.69,1.8,1.8,0,0,1,1.08,1.89,1.72,1.72,0,0,1-.71,1.12c.29.38.49.66.59.77a.31.31,0,0,0,0,.1,4.46,4.46,0,1,1-8.81-1.38,4.18,4.18,0,0,1,.22-.86,3.92,3.92,0,0,1-2.39-.27A4.34,4.34,0,0,1,82,386a1.26,1.26,0,0,1-1.07.05,1.31,1.31,0,0,1-.73-1,4.2,4.2,0,0,1-2.15.22,4.3,4.3,0,0,1-3.1-2.2c0,.05,0,.1,0,.14A4.33,4.33,0,0,1,70.09,387c-2.31-.37-4.19-2.69-3.5-5C69.07,373.51,77.81,374.56,78.72,374.7Z"/>
            <path class="cls-8" d="M95.2,391.65v-.06C95.27,391.72,95.27,391.72,95.2,391.65Z"/>
          </g>
          <path class="cls-17" d="M77.65,417.76a7.11,7.11,0,0,1-3.72-.24c.12.72.26,1.51.41,2.26a7.29,7.29,0,0,0,2.91,0c4.34-.6,10.68-5.52,12.47-10.92,0,.09-.07.19-.1.27C88.86,411,82,417.16,77.65,417.76Z"/>
          <path class="cls-16" d="M89.05,402c.13.15.49.78,1.08.93s1.48.41,2.67-1.29A13.07,13.07,0,0,0,94.36,395s-.22-2.49-1.63-2.43-3.61,6-3.61,6Z"/>
        </g>
      </g>
    </g>
  </g>
</svg>
