<svg id="Capa_1" data-name="Capa 1" xmlns="http://www.w3.org/2000/svg" width="140" height="140" viewBox="0 0 140 140">
  <defs>
    <style>
      .cls-1 {
        fill: #2f237d;
        stroke: #d8d5ed;
        stroke-miterlimit: 10;
        stroke-width: 5px;
      }

      .cls-2 {
        fill: #0052a9;
      }

      .cls-3 {
        fill: #003370;
      }

      .cls-4 {
        fill: #f5a766;
      }

      .cls-5 {
        fill: #ef6c00;
      }

      .cls-6 {
        fill: #fca870;
      }

      .cls-7 {
        fill: #f9955f;
      }

      .cls-8 {
        fill: #f9bd91;
      }

      .cls-9 {
        fill: #f78c2d;
      }

      .cls-10 {
        fill: #b35100;
      }

      .cls-11 {
        fill: #dd3f95;
      }

      .cls-12 {
        fill: #c6237c;
      }

      .cls-13 {
        fill: #e779b5;
      }

      .cls-14 {
        fill: #fc2740;
      }

      .cls-15 {
        fill: #fe465c;
      }

      .cls-16 {
        fill: #ebf1f7;
      }

      .cls-17 {
        fill: #cee3f4;
      }

      .cls-18 {
        fill: #fff;
      }

      .cls-19 {
        fill: #33bafe;
      }

      .cls-20 {
        fill: #0090fc;
      }
    </style>
  </defs>
  <circle class="cls-1" cx="70" cy="70" r="60"/>
  <path class="cls-2" d="M65.6,6.65c-12.73,1.73-13.94,9-13.95,11.6a1.43,1.43,0,0,1-.8,1.31c-6.63,3.23-3.06,18.75-3.06,18.75a5.51,5.51,0,0,1,1.88.57,12,12,0,0,1,.63-2.33,10.38,10.38,0,0,1,.85-1.7,5.21,5.21,0,0,0,.8-3.19c-.24-3.24-.12-9.62,4.15-11.54,3.63-1.63,8.07-.69,10.9.25a9,9,0,0,0,5.68,0c2.83-.94,7.27-1.88,10.9-.25C87.84,22,88,28.39,87.73,31.63a5.28,5.28,0,0,0,.8,3.22,10.27,10.27,0,0,1,.87,1.76A12.09,12.09,0,0,1,90,38.88a4.42,4.42,0,0,1,2.39-.55c.09-3.4.41-7.06.41-7.06C96.58,12.79,79.31,4.78,65.6,6.65Z"/>
  <path class="cls-3" d="M65.57,19.94a2.43,2.43,0,0,0-.14-.2c-5.27-7.37.29-12.37,1.35-13.23l-1.18.14c-12.73,1.73-13.94,9-13.95,11.6a1.43,1.43,0,0,1-.8,1.31c-6.63,3.23-3.06,18.75-3.06,18.75a5.45,5.45,0,0,1,1.88.57,12,12,0,0,1,.63-2.33,10.38,10.38,0,0,1,.85-1.7,5.21,5.21,0,0,0,.8-3.19c-.24-3.24-.12-9.62,4.15-11.54,3.06-1.38,6.71-.92,9.47-.18Z"/>
  <path class="cls-4" d="M109.27,86.29h0a16.3,16.3,0,0,0-1.51-.68C92.31,78.74,90.53,79.05,89,78.53a.48.48,0,0,1,.12.16c0,.46.24.38-.84,3.18A35.8,35.8,0,0,1,77.13,96.14a1.41,1.41,0,0,1-1.66.07c-.82-.55-2.26,4.62-2.18,6.09,0,.88,0-.17,0,11.79a.86.86,0,0,1-.87.86H67.55a.86.86,0,0,1-.87-.86c0-12,0-10.91,0-11.79v0c-.21-2.58-1.45-6.55-2.19-6.05a1.4,1.4,0,0,1-1.65-.07A35.72,35.72,0,0,1,51.75,81.87c-1.09-2.8-.79-2.72-.85-3.18a.67.67,0,0,1,.12-.16c-1.56.52-3.34.21-18.8,7.08a14.67,14.67,0,0,0-1.5.68h0c-5.79,3-8.44,8.85-9.63,14.31a58,58,0,0,0,97.8,0c-1.18-5.46-3.84-11.33-9.62-14.31Z"/>
  <path class="cls-5" d="M36.25,104.34A9.91,9.91,0,0,1,42,99l15.12-5.32s-.18-1.47-.48-3.69a32,32,0,0,1-4.89-8.16c-1.09-2.8-.79-2.72-.85-3.18a.52.52,0,0,1,.12-.16c-1.56.52-3.34.21-18.8,7.08a14.67,14.67,0,0,0-1.5.68h0c-5.79,3-8.44,8.85-9.63,14.31a58.6,58.6,0,0,0,11.12,12.84Z"/>
  <path class="cls-6" d="M55.69,74.58,56,76v0c.07.33.16.66.25,1l0,0,.09.33,0,.06c0,.12.07.23.11.35v0a20.25,20.25,0,0,0,6.75,9.33,26,26,0,0,0,3.4,2.24,2.49,2.49,0,0,1,1.14,1.32.21.21,0,0,0,.06.1,21.5,21.5,0,0,1,1.76,2.28.33.33,0,0,0,.52,0,22.57,22.57,0,0,1,1.76-2.28.27.27,0,0,0,.06-.1,2.48,2.48,0,0,1,1.15-1.32C81.74,84.63,83.6,77.56,84,74.53a22.18,22.18,0,0,1-1.48-7.74,27.57,27.57,0,0,1-3.91,3.74,14.32,14.32,0,0,1-17.54,0,27.57,27.57,0,0,1-3.91-3.74,22,22,0,0,1-1.48,7.74Z"/>
  <path class="cls-7" d="M61.07,70.53a27.57,27.57,0,0,1-3.91-3.74,22,22,0,0,1-1.48,7.74v0L56,76v0c.07.33.16.66.25,1l0,0,.09.33,0,.06c0,.12.07.23.11.35v0a20.25,20.25,0,0,0,6.75,9.33l.42.31a29.63,29.63,0,0,0,6.2-14,14.32,14.32,0,0,1-8.77-3Z"/>
  <path class="cls-8" d="M89.55,36.55a9.86,9.86,0,0,0-.89-1.78,5.14,5.14,0,0,1-.77-3.12c.25-3.54,0-9.75-4.25-11.68-3.6-1.62-8-.76-11,.25a8.87,8.87,0,0,1-5.58,0c-3-1-7.41-1.87-11-.25-1.85.83-4.85,3.46-4.25,11.7a5.1,5.1,0,0,1-.77,3.1,10,10,0,0,0-.87,1.73,11.9,11.9,0,0,0-.67,5.93l1,7.32A27.19,27.19,0,0,0,61,71.33a14.48,14.48,0,0,0,17.73,0A27.21,27.21,0,0,0,89.19,49.77l1-7.34a11.94,11.94,0,0,0-.65-5.88Z"/>
  <path class="cls-6" d="M68.66,71.33c-2.33-2.45-7.74-9.46-7.74-21.58l-.74-7.32a15.82,15.82,0,0,1,.49-5.93,11.59,11.59,0,0,1,.64-1.73,6.53,6.53,0,0,0,.57-3.1C61.44,23.43,63.66,20.8,65,20l.41-.23C62.58,19,59,18.62,56,20c-1.85.83-4.85,3.46-4.25,11.7a5.1,5.1,0,0,1-.77,3.1,10,10,0,0,0-.87,1.73,11.9,11.9,0,0,0-.67,5.93l1,7.32A27.22,27.22,0,0,0,61,71.33a14.43,14.43,0,0,0,12,2.69A9.72,9.72,0,0,1,68.66,71.33Z"/>
  <path class="cls-9" d="M70.06,93.28a19.06,19.06,0,0,0-3.43-4.08l-4.4,7.07c3.17,2,3.74,7,3.84,8.64A22.2,22.2,0,0,1,70.06,93.28Z"/>
  <path class="cls-10" d="M73.59,115.21v-9.79s.06-6.7,3.86-9.15l-4.4-7.07a22,22,0,0,0-7,16.22v9.79Z"/>
  <path class="cls-5" d="M66.77,89.14C58,84.29,56.3,77.06,56,74.29a.64.64,0,0,0-1-.44L49,78.21a1,1,0,0,0-.38,1C51,88.63,58.6,95.5,62,98.15a1.86,1.86,0,0,0,2.7-.42l3.08-4.57a2.78,2.78,0,0,0-1-4Z"/>
  <path class="cls-10" d="M63.42,86.93A19.1,19.1,0,0,1,56,74.29a.64.64,0,0,0-1-.44L49,78.21a1,1,0,0,0-.38,1c1.52,6,5.17,11,8.49,14.5,2.63-8.64,5.57-7.3,6.3-6.79Z"/>
  <path class="cls-5" d="M90.67,78.21l-5.94-4.36a.64.64,0,0,0-1,.44c-.33,2.77-2,10-10.8,14.85a2.78,2.78,0,0,0-1,4L75,97.73a1.86,1.86,0,0,0,2.7.42c3.35-2.65,11-9.52,13.32-18.93a1,1,0,0,0-.38-1Z"/>
  <circle class="cls-5" cx="70.17" cy="102.56" r="1.48"/>
  <circle class="cls-5" cx="69.84" cy="109.93" r="1.48"/>
  <path class="cls-9" d="M66,114.88v2.77a1.27,1.27,0,0,0,1.27,1.26h5a1.27,1.27,0,0,0,1.27-1.26v-2.77Z"/>
  <path class="cls-11" d="M92.6,52.36V33.59a1.58,1.58,0,0,1,.18-.76v-.1H91.24a2,2,0,0,0-2,2V51.21a2,2,0,0,0,2,2h1.54v-.1a1.64,1.64,0,0,1-.18-.76Z"/>
  <path class="cls-12" d="M92.6,43.39h-2a1.82,1.82,0,0,1-1.37-.63v8.45a2,2,0,0,0,2,2h1.54v-.1a1.64,1.64,0,0,1-.18-.76Z"/>
  <path class="cls-11" d="M95.7,32.73a1.66,1.66,0,0,1,.24.86V52.36a1.68,1.68,0,0,1-.24.86,5.83,5.83,0,0,0,5.81-5.81V38.54A5.83,5.83,0,0,0,95.7,32.73Z"/>
  <path class="cls-12" d="M100,43.39H95.94v9a1.68,1.68,0,0,1-.24.86,5.83,5.83,0,0,0,5.81-5.81V42.6a1.84,1.84,0,0,1-1.5.79Z"/>
  <path class="cls-13" d="M94.27,54.24a1.88,1.88,0,0,1-1.88-1.88V33.59a1.88,1.88,0,0,1,3.76,0V52.36A1.88,1.88,0,0,1,94.27,54.24Z"/>
  <path class="cls-11" d="M47.75,52.36V33.59a1.59,1.59,0,0,0-.19-.76v-.1h1.55a2,2,0,0,1,2,2V51.21a2,2,0,0,1-2,2H47.56v-.1a1.65,1.65,0,0,0,.19-.76Z"/>
  <path class="cls-14" d="M49.74,43.39h-2v9a1.65,1.65,0,0,1-.19.76v.1h1.55a2,2,0,0,0,2-2V42.76a1.82,1.82,0,0,1-1.37.63Z"/>
  <path class="cls-11" d="M44.64,32.73a1.66,1.66,0,0,0-.24.86V52.36a1.68,1.68,0,0,0,.24.86h0a5.83,5.83,0,0,1-5.81-5.81V38.54a5.83,5.83,0,0,1,5.81-5.81Z"/>
  <path class="cls-14" d="M44.4,43.39H40.33a1.84,1.84,0,0,1-1.5-.79v4.81a5.83,5.83,0,0,0,5.81,5.81,1.68,1.68,0,0,1-.24-.86Z"/>
  <path class="cls-13" d="M46.07,54.24A1.89,1.89,0,0,0,48,52.36V33.59a1.89,1.89,0,0,0-3.77,0V52.36A1.89,1.89,0,0,0,46.07,54.24Z"/>
  <path class="cls-11" d="M94.27,45.1a1.88,1.88,0,0,1-1.88-1.88v9.14a1.88,1.88,0,0,0,3.76,0V43.22A1.88,1.88,0,0,1,94.27,45.1Z"/>
  <path class="cls-15" d="M46.07,45.1a1.88,1.88,0,0,1-1.88-1.88v9.14a1.89,1.89,0,0,0,3.77,0V43.22A1.89,1.89,0,0,1,46.07,45.1Z"/>
  <path class="cls-16" d="M82.5,67.84A1.85,1.85,0,0,1,82,64.22a49.86,49.86,0,0,0,9.12-3.87,2.61,2.61,0,0,0,1.35-2.28V52.62a1.85,1.85,0,0,1,3.7,0v5.45a6.31,6.31,0,0,1-3.27,5.53,53.46,53.46,0,0,1-9.8,4.16,2.09,2.09,0,0,1-.55.08Z"/>
  <path class="cls-16" d="M56.36,40.63h-21A11.27,11.27,0,0,0,24,51.94,11.09,11.09,0,0,0,35.12,62.82h9.25a5.1,5.1,0,0,1,3.78,1.68L52,68.82A1.11,1.11,0,0,0,54,68.07V65a2.17,2.17,0,0,1,2.17-2.17A11.27,11.27,0,0,0,67.45,51.51,11.09,11.09,0,0,0,56.36,40.63Z"/>
  <path class="cls-17" d="M41.81,40.63H35.34A11.27,11.27,0,0,0,24,51.94,11.09,11.09,0,0,0,35.12,62.82h6.69c-4.27-5.09,0-8.82,0-8.82V49.76c-5.09-5.1,0-9.13,0-9.13Z"/>
  <g>
    <path class="cls-18" d="M34.59,49.76a2.12,2.12,0,1,0,2.12,2.12A2.13,2.13,0,0,0,34.59,49.76Z"/>
    <path class="cls-18" d="M41.81,49.76a2.12,2.12,0,1,0,2.13,2.12A2.12,2.12,0,0,0,41.81,49.76Z"/>
    <path class="cls-18" d="M49,49.76a2.12,2.12,0,1,0,2.12,2.12A2.12,2.12,0,0,0,49,49.76Z"/>
    <path class="cls-18" d="M56.27,49.76a2.12,2.12,0,1,0,2.12,2.12A2.13,2.13,0,0,0,56.27,49.76Z"/>
  </g>
  <path class="cls-17" d="M88.38,62.74a2.23,2.23,0,0,1,.34-1.18A50.14,50.14,0,0,1,82,64.22a1.85,1.85,0,0,0,.55,3.62,2.09,2.09,0,0,0,.55-.08,53.69,53.69,0,0,0,7.17-2.82,2.24,2.24,0,0,1-1.84-2.2Z"/>
  <path class="cls-19" d="M73.45,70.92a3.09,3.09,0,0,1-.29-6.16,42.1,42.1,0,0,0,6.3-1.11,3.08,3.08,0,1,1,1.54,6,46.12,46.12,0,0,1-7.26,1.28l-.29,0Z"/>
  <path class="cls-20" d="M76.28,67.07a3.38,3.38,0,0,1,1.32-3,41.16,41.16,0,0,1-4.44.68,3.09,3.09,0,0,0,.29,6.16l.29,0a44.07,44.07,0,0,0,5.36-.83,3.36,3.36,0,0,1-2.82-3Z"/>
</svg>
