<svg id="Capa_1" data-name="Capa 1" xmlns="http://www.w3.org/2000/svg" width="140" height="140" viewBox="0 0 140 140">
  <defs>
    <style>
      .cls-1 {
        fill: #2f237d;
        stroke: #d8d5ed;
        stroke-miterlimit: 10;
        stroke-width: 5px;
      }

      .cls-2 {
        fill: #f9ba8f;
      }

      .cls-3 {
        fill: #fcad6d;
      }

      .cls-4 {
        fill: #fd995b;
      }

      .cls-5 {
        fill: #4a3596;
      }

      .cls-6 {
        fill: #0f0140;
      }

      .cls-7 {
        fill: #3c58a0;
      }

      .cls-8 {
        fill: #73c3f9;
      }

      .cls-9 {
        fill: #4fabf7;
      }

      .cls-10 {
        fill: #e9efff;
      }

      .cls-11 {
        fill: #9bd8f9;
      }

      .cls-12 {
        fill: #d3dcfb;
      }

      .cls-13 {
        fill: #bec8f7;
      }

      .cls-14 {
        fill: #f05540;
      }

      .cls-15 {
        fill: #ced6e0;
      }

      .cls-16 {
        fill: #f3705a;
      }

      .cls-17 {
        fill: #e8eae9;
      }
    </style>
  </defs>
  <circle class="cls-1" cx="70" cy="70" r="60"/>
  <g>
    <path class="cls-2" d="M102.91,93.3a16.62,16.62,0,0,1-.52-5.66l.93-8.79a30.4,30.4,0,0,0-2.82-16C94.19,50,95.64,49.08,95.44,36.35a4.71,4.71,0,1,0-9.42,0c0,51.78.1,48-.22,49.5v6.78A10.37,10.37,0,0,1,75.44,103H49.65a36.64,36.64,0,0,0,15.67,12.44l.12,0c4.86,2.06,10.28,6.15,11.19,11.23l.09.37a57,57,0,0,0,33.08-15.7Z"/>
    <path class="cls-2" d="M32.16,31.8l-1.44-1.33a5.48,5.48,0,0,0-7.45,8l8.89,8.24Z"/>
    <path class="cls-3" d="M26.19,34.39a5.46,5.46,0,0,1-1.7-4.76A5.32,5.32,0,0,0,23,30.77a5.49,5.49,0,0,0,.29,7.74l8.89,8.24V39.93Z"/>
    <path class="cls-4" d="M103.34,94.42a27.74,27.74,0,0,1-34.42,22.84c3.69,2.26,7,5.56,7.71,9.44l.09.37a57,57,0,0,0,33.08-15.7Z"/>
    <path class="cls-5" d="M77.91,103.21H40.07A8.12,8.12,0,0,1,32,95.1V16.16A8.13,8.13,0,0,1,40.07,8H77.91A8.12,8.12,0,0,1,86,16.16V95.1a8.12,8.12,0,0,1-8.11,8.11Z"/>
    <path class="cls-6" d="M40.07,8A8.13,8.13,0,0,0,32,16.16V95.1a8.12,8.12,0,0,0,8.12,8.11H51.35c-2.5-2.55.42-5,.42-5C47.65,97.08,48,92.75,48,92.75V22.44c0-4.14,4.21-5.19,4.21-5.19a2.39,2.39,0,0,1,0-3.39V11.05a2.18,2.18,0,0,1-.89-3Z"/>
    <path class="cls-7" d="M53,13.86H52.2a1.41,1.41,0,0,1,0-2.81H53a1.41,1.41,0,0,1,0,2.81Z"/>
    <path class="cls-7" d="M65.58,13.86H57.8a1.41,1.41,0,1,1,0-2.81h7.78a1.41,1.41,0,0,1,0,2.81Z"/>
    <path class="cls-8" d="M77.91,13.09H72.22A1.92,1.92,0,0,0,70.3,15a2.25,2.25,0,0,1-2.24,2.24H49.92A2.25,2.25,0,0,1,47.68,15a1.92,1.92,0,0,0-1.92-1.92H40.07A3.07,3.07,0,0,0,37,16.16V95.1a3.08,3.08,0,0,0,3.07,3.07H77.91A3.07,3.07,0,0,0,81,95.1V16.16A3.06,3.06,0,0,0,77.91,13.09Z"/>
    <path class="cls-9" d="M51.77,98.17c-.59-2.52,2.33-3.11,2.33-3.11S56,78.8,54.1,77a2.44,2.44,0,0,1,0-3.61s2-16.09,0-18.11a2.27,2.27,0,0,1,0-3.61V33.5a4.08,4.08,0,0,1-1.72-5.59V22.72a3.84,3.84,0,0,1-.18-5.47H49.92A2.25,2.25,0,0,1,47.68,15a1.92,1.92,0,0,0-1.92-1.92H40.07A3.07,3.07,0,0,0,37,16.16V95.1a3.08,3.08,0,0,0,3.07,3.07Z"/>
    <path class="cls-10" d="M47.58,27.91H70.39a2.6,2.6,0,1,0,0-5.19H47.58a2.6,2.6,0,1,0,0,5.19Z"/>
    <path class="cls-11" d="M47.58,22.72h4.8v5.19h-4.8a2.6,2.6,0,1,1,0-5.19Z"/>
    <g>
      <path class="cls-10" d="M75,51.62H43a2.35,2.35,0,0,1-2.34-2.34V35.84A2.35,2.35,0,0,1,43,33.5H75a2.34,2.34,0,0,1,2.33,2.34V49.28A2.34,2.34,0,0,1,75,51.62Z"/>
      <path class="cls-10" d="M75,73.34H43A2.35,2.35,0,0,1,40.63,71V57.56A2.35,2.35,0,0,1,43,55.23H75a2.34,2.34,0,0,1,2.33,2.33V71A2.34,2.34,0,0,1,75,73.34Z"/>
      <path class="cls-10" d="M75,95.06H43a2.35,2.35,0,0,1-2.34-2.33V79.28A2.35,2.35,0,0,1,43,77H75a2.34,2.34,0,0,1,2.33,2.33V92.73A2.34,2.34,0,0,1,75,95.06Z"/>
      <path class="cls-10" d="M75,51.62H43a2.35,2.35,0,0,1-2.34-2.34V35.84A2.35,2.35,0,0,1,43,33.5H75a2.34,2.34,0,0,1,2.33,2.34V49.28A2.34,2.34,0,0,1,75,51.62Z"/>
      <path class="cls-10" d="M75,73.34H43A2.35,2.35,0,0,1,40.63,71V57.56A2.35,2.35,0,0,1,43,55.23H75a2.34,2.34,0,0,1,2.33,2.33V71A2.34,2.34,0,0,1,75,73.34Z"/>
      <path class="cls-10" d="M75,95.06H43a2.35,2.35,0,0,1-2.34-2.33V79.28A2.35,2.35,0,0,1,43,77H75a2.34,2.34,0,0,1,2.33,2.33V92.73A2.34,2.34,0,0,1,75,95.06Z"/>
    </g>
    <path class="cls-12" d="M51.76,49.28V35.84A2.35,2.35,0,0,1,54.1,33.5H43a2.35,2.35,0,0,0-2.34,2.34V49.28A2.35,2.35,0,0,0,43,51.62H54.1A2.35,2.35,0,0,1,51.76,49.28Z"/>
    <path class="cls-12" d="M51.76,71V57.56a2.35,2.35,0,0,1,2.34-2.33H43a2.35,2.35,0,0,0-2.34,2.33V71A2.35,2.35,0,0,0,43,73.34H54.1A2.35,2.35,0,0,1,51.76,71Z"/>
    <path class="cls-12" d="M51.76,92.73V79.28A2.35,2.35,0,0,1,54.1,77H43a2.35,2.35,0,0,0-2.34,2.33V92.73A2.35,2.35,0,0,0,43,95.06H54.1A2.35,2.35,0,0,1,51.76,92.73Z"/>
    <path class="cls-7" d="M57.72,41H48.36a1.75,1.75,0,0,1,0-3.5h9.36a1.75,1.75,0,0,1,0,3.5Z"/>
    <path class="cls-13" d="M69.62,47.6H48.36a1.75,1.75,0,0,1,0-3.5H69.62a1.75,1.75,0,0,1,0,3.5Z"/>
    <path class="cls-13" d="M65,41H63.71a1.75,1.75,0,0,1,0-3.5H65A1.75,1.75,0,0,1,65,41Z"/>
    <path class="cls-7" d="M57.72,62.74H48.36a1.75,1.75,0,0,1,0-3.5h9.36a1.75,1.75,0,0,1,0,3.5Z"/>
    <path class="cls-13" d="M69.62,69.33H48.36a1.75,1.75,0,0,1,0-3.5H69.62a1.75,1.75,0,0,1,0,3.5Z"/>
    <path class="cls-13" d="M65,62.74H63.71a1.75,1.75,0,0,1,0-3.5H65a1.75,1.75,0,0,1,0,3.5Z"/>
    <path class="cls-7" d="M57.72,84.46H48.36a1.75,1.75,0,0,1,0-3.5h9.36a1.75,1.75,0,1,1,0,3.5Z"/>
    <path class="cls-13" d="M69.62,91.05H48.36a1.75,1.75,0,0,1,0-3.5H69.62a1.75,1.75,0,0,1,0,3.5Z"/>
    <path class="cls-13" d="M65,84.46H63.71a1.75,1.75,0,1,1,0-3.5H65a1.75,1.75,0,0,1,0,3.5Z"/>
    <path class="cls-2" d="M40.14,60.71a4.81,4.81,0,0,1-6.79.26l-8-7.45a4.8,4.8,0,1,1,6.53-7.05l8.05,7.46A4.8,4.8,0,0,1,40.14,60.71Z"/>
    <path class="cls-3" d="M36.66,57.58l-8-7.45a4.83,4.83,0,0,1-1.38-4.75,4.8,4.8,0,0,0-1.93,8.14L33.35,61a4.81,4.81,0,0,0,6.79-.26,4.89,4.89,0,0,0,1.12-2,4.79,4.79,0,0,1-4.6-1.09Z"/>
    <path class="cls-2" d="M40.14,86.92a4.8,4.8,0,0,1-6.79.25l-8-7.45a4.8,4.8,0,1,1,6.53-7l8.05,7.46A4.81,4.81,0,0,1,40.14,86.92Z"/>
    <path class="cls-3" d="M36.66,83.79l-8-7.46a4.82,4.82,0,0,1-1.38-4.74,4.79,4.79,0,0,0-1.93,8.13l8.05,7.45a4.8,4.8,0,0,0,6.79-.25,4.93,4.93,0,0,0,1.12-2A4.81,4.81,0,0,1,36.66,83.79Z"/>
    <path class="cls-2" d="M40.14,73.81a4.8,4.8,0,0,1-6.79.26l-8-7.45a4.8,4.8,0,1,1,6.53-7.05L39.88,67A4.8,4.8,0,0,1,40.14,73.81Z"/>
    <path class="cls-3" d="M36.66,70.68l-8-7.45a4.82,4.82,0,0,1-1.38-4.74,4.79,4.79,0,0,0-1.93,8.13l8.05,7.45a4.8,4.8,0,0,0,6.79-.26,4.89,4.89,0,0,0,1.12-2A4.79,4.79,0,0,1,36.66,70.68Z"/>
    <g>
      <path class="cls-14" d="M30.72,21.22v3.35a5.75,5.75,0,1,0,11.49,0V21.22Z"/>
      <path class="cls-15" d="M42.21,21.22v3.35a5.74,5.74,0,1,0,11.48,0V21.22Z"/>
      <path class="cls-14" d="M53.69,21.22v3.35a5.75,5.75,0,1,0,11.49,0V21.22Z"/>
      <path class="cls-15" d="M65.12,21.17v3.35a5.75,5.75,0,0,0,11.49,0V21.17Z"/>
      <path class="cls-14" d="M76.61,21.17v3.35a5.74,5.74,0,0,0,11.48,0V21.17Z"/>
      <polygon class="cls-16" points="42.21 21.23 46.52 13.09 38.02 13.09 30.72 21.23 42.21 21.23"/>
      <polygon class="cls-17" points="53.7 21.23 55.13 13.09 46.52 13.09 42.21 21.23 53.7 21.23"/>
      <polygon class="cls-16" points="65.18 21.23 63.74 13.09 55.13 13.09 53.7 21.23 65.18 21.23"/>
      <polygon class="cls-17" points="76.67 21.23 72.36 13.09 63.74 13.09 65.18 21.23 76.67 21.23"/>
      <polygon class="cls-16" points="88.15 21.23 80.85 13.09 72.36 13.09 76.67 21.23 88.15 21.23"/>
    </g>
  </g>
</svg>
