<svg xmlns="http://www.w3.org/2000/svg" width="400" height="400" viewBox="0 0 400 400">
  <defs>
    <style>
      .cls-1 {
        isolation: isolate;
      }

      .cls-2 {
        fill: none;
      }

      .cls-3 {
        fill: #d8d5ed;
      }

      .cls-4 {
        fill: #cfccd9;
      }

      .cls-5 {
        fill: #ce933e;
      }

      .cls-6 {
        fill: #3a2725;
      }

      .cls-7 {
        fill: #684f4b;
      }

      .cls-8 {
        fill: #bc785b;
      }

      .cls-9 {
        fill: #a05940;
      }

      .cls-10 {
        fill: #543b39;
      }

      .cls-11 {
        fill: #422b2a;
      }

      .cls-12 {
        fill: #68403e;
      }

      .cls-13 {
        fill: #f5a766;
      }

      .cls-14 {
        fill: #562f2e;
      }

      .cls-15 {
        fill: #422020;
      }

      .cls-16 {
        fill: #543a38;
      }

      .cls-17 {
        fill: #724f4c;
      }

      .cls-18 {
        fill: #c19a97;
      }

      .cls-19 {
        fill: #f28933;
      }

      .cls-20 {
        fill: #dbba53;
      }

      .cls-21 {
        fill: #846967;
      }

      .cls-22 {
        fill: #e8c3c1;
      }

      .cls-23 {
        fill: #914c3a;
      }

      .cls-24 {
        fill: #ff8759;
      }

      .cls-25 {
        fill: #ffa87a;
      }

      .cls-26 {
        fill: #e1dcc9;
      }

      .cls-27 {
        fill: #f5efde;
      }

      .cls-28 {
        fill: #1a1113;
      }

      .cls-29 {
        fill: #2a1c20;
      }

      .cls-30 {
        fill: #422d32;
      }

      .cls-31 {
        fill: #140b0d;
      }

      .cls-32 {
        fill: #543d42;
      }

      .cls-33 {
        fill: #333;
      }

      .cls-34 {
        fill: #666;
      }

      .cls-35 {
        fill: #ccb69d;
      }

      .cls-36 {
        fill: #2d1c21;
      }

      .cls-37 {
        fill: #402930;
      }

      .cls-38 {
        fill: #68273b;
      }

      .cls-39 {
        fill: #ff7851;
      }

      .cls-40 {
        fill: #d7c9b6;
      }

      .cls-41 {
        fill: #554247;
      }

      .cls-42 {
        fill: #7b676d;
      }

      .cls-43 {
        fill: #934259;
      }

      .cls-44 {
        fill: #e94e44;
      }

      .cls-45 {
        fill: #d1be9a;
      }

      .cls-46, .cls-54 {
        fill: #504754;
      }

      .cls-47 {
        fill: #3f3743;
      }

      .cls-48 {
        fill: #38323b;
      }

      .cls-49 {
        fill: #332b38;
      }

      .cls-50 {
        fill: #272229;
      }

      .cls-51 {
        fill: #443948;
      }

      .cls-52 {
        fill: #eb3e5c;
      }

      .cls-53 {
        fill: #ab2240;
      }

      .cls-54 {
        mix-blend-mode: multiply;
        opacity: 0.46;
      }

      .cls-55 {
        fill: #e7decb;
      }

      .cls-56 {
        fill: #d7c9b1;
      }

      .cls-57 {
        fill: #403842;
      }

      .cls-58 {
        fill: #5f5664;
      }

      .cls-59 {
        fill: #302b32;
      }

      .cls-60 {
        fill: #ead7b6;
      }

      .cls-61 {
        fill: #999;
      }

      .cls-62 {
        fill: #645d69;
      }

      .cls-63 {
        fill: #f97146;
      }

      .cls-64 {
        fill: #2e2830;
      }
    </style>
  </defs>
  <g class="cls-1">
    <g id="Capa_1" data-name="Capa 1">
      <rect class="cls-2" width="400" height="400"/>
      <path class="cls-3" d="M200,81.94v-70C96.13,11.92,11.92,96.13,11.92,200S96.13,388.08,200,388.08v-70a118.06,118.06,0,0,1,0-236.12Z"/>
      <path class="cls-4" d="M200,388.08c103.87,0,188.08-84.21,188.08-188.08S303.87,11.92,200,11.92v70a118.06,118.06,0,0,1,0,236.12Z"/>
      <g>
        <g>
          <path class="cls-5" d="M221.79,169.39c-.61-1-1.12-1.88-4-.22s-2.41,2.53-1.8,3.57,1.12,1.88,4,.22S222.39,170.43,221.79,169.39Z"/>
          <polygon class="cls-6" points="243.53 220.27 218.66 172.43 220.68 171.54 245.55 219.38 243.53 220.27"/>
          <polygon class="cls-5" points="222.88 172.91 218.35 175.35 223.61 183.53 226.82 181.8 222.88 172.91"/>
          <path class="cls-7" d="M233.89,164.44c-.6-1.05-1.21-1.83-15.33,6.34s-13.75,9.09-13.14,10.14,1.21,1.82,15.33-6.35S234.5,165.48,233.89,164.44Z"/>
        </g>
        <g>
          <path class="cls-5" d="M253.22,198.49c0-3.08-.72-5.58-1.61-5.58s-1.61,1.23-1.61,5.58.72,5.57,1.61,5.57S253.22,201.57,253.22,198.49Z"/>
          <rect class="cls-6" x="231.07" y="230.97" width="14.58" height="10.43" transform="translate(-89.92 166.67) rotate(-32.78)"/>
          <rect class="cls-5" x="226.08" y="229.53" width="20.5" height="2.59" transform="translate(-87.32 164.63) rotate(-32.77)"/>
          <rect class="cls-6" x="274.09" y="182.58" width="5.93" height="2.66"/>
          <polygon class="cls-6" points="279.21 173.15 275.34 173.15 275.99 184.35 277.92 184.35 279.21 173.15"/>
          <polygon class="cls-6" points="285.24 209.64 289.62 209.64 289.62 217.85 288.13 217.85 285.24 209.64"/>
          <polygon class="cls-6" points="261.38 209.64 256.39 209.64 256.39 217.85 258.08 217.85 261.38 209.64"/>
          <polygon class="cls-6" points="240.17 248.67 230.56 248.67 230.56 259.31 237.1 259.31 240.17 248.67"/>
          <polygon class="cls-6" points="173.89 248.67 164.27 248.67 164.27 259.31 170.82 259.31 173.89 248.67"/>
          <circle class="cls-6" cx="284.68" cy="266.64" r="8.29"/>
          <rect class="cls-6" x="119.61" y="257.67" width="165.59" height="3.07"/>
          <circle class="cls-6" cx="121.3" cy="255.62" r="11.05"/>
          <path class="cls-8" d="M164.64,140.28a17.8,17.8,0,0,0-2.58-6.33c-4.32-6.58-14.56-2.36-13,5.35,2.4,12.13,5.83,29.43,7.62,38.47a7.19,7.19,0,0,0,7.33,5.77l.78,0a7.17,7.17,0,0,0,6.75-8.56Z"/>
          <path class="cls-9" d="M169.45,164.53l-.49.05-.79,0a7.18,7.18,0,0,1-7.33-5.77l-5.56-28.08A7.12,7.12,0,0,0,149,139.3c2.4,12.13,5.83,29.43,7.62,38.47a7.19,7.19,0,0,0,7.33,5.77l.78,0a7.17,7.17,0,0,0,6.75-8.56Z"/>
          <polygon class="cls-6" points="292.36 243.69 218.55 243.69 246.26 258.27 286.01 267.95 292.36 243.69"/>
          <polygon class="cls-6" points="118.81 247.09 124.58 247.09 123.21 262.38 119.61 262.38 118.81 247.09"/>
          <path class="cls-10" d="M131.79,95.27a50.16,50.16,0,0,1-23.15,15.49c-1.07,9.76-4,18.86-10.75,26.61a67.49,67.49,0,0,1,4.87,28.69l57.8,1Z"/>
          <path class="cls-11" d="M131.79,95.27c-.74.85-1.51,1.68-2.3,2.49,5.49,12.81,4.7,27.71,4.31,28s-12.43-6.74-22.06-16.07c-1,.4-2,.77-3.1,1.11,0,.19,0,.37-.07.56.59.3,1.17.62,1.76.94,17.25,9.49,27.59,31.07,29.45,32.09.2,0,.27,0,.17,0s-.1,0-.17,0c-2.3.14-23.68,3.1-40.12-5.95-.59-.32-1.18-.66-1.76-1,.58,1.42,1.08,2.85,1.56,4.29,17.47,1.35,34.94,14.32,34.94,15.46s-15.78,3.84-31.59,5.9c0,1,0,2,0,3l57.8,1Z"/>
          <path class="cls-12" d="M221.28,249.48,202.73,188a30,30,0,0,0-28.9-21.1H123.41a6.66,6.66,0,0,0,5.64,5L145.56,174l9.23,75.49Z"/>
          <path class="cls-13" d="M173.22,167.39a30,30,0,0,1,28.89,21.21l18.28,60.88h1.81l-18.55-61.8a30.05,30.05,0,0,0-28.89-21.21H124.33a5.82,5.82,0,0,0,.3.92Z"/>
          <path class="cls-14" d="M181,167.69l-57.59-.79a6.66,6.66,0,0,0,5.64,5l15.78,2.88,10,74.68,52-1C203.32,218.32,190.1,170.81,181,167.69Z"/>
          <path class="cls-15" d="M178.59,249.23c6-11,4.39-71.41-33.76-74.43l7.78,74.68Z"/>
          <rect class="cls-6" x="162.02" y="240.28" width="91.66" height="13.71"/>
          <path class="cls-6" d="M87.14,211.46c52.85-21.23,83.79,5.83,81.65,43.56H104.48Z"/>
          <polygon class="cls-14" points="268.21 235.34 167.08 235.34 167.08 249.89 251.79 249.89 268.21 235.34"/>
          <path class="cls-16" d="M292.23,184.12h-38c-3.89,0-3.89,28.43,0,28.43h38C296.78,212.55,296.78,184.12,292.23,184.12Z"/>
          <path class="cls-6" d="M293.15,196h-38c-1.47,0-2.38-4-2.74-9.07-1.92,7.15-1.32,25.64,1.82,25.64h38c2.88,0,3.94-11.4,3.17-19.76C294.84,194.74,294.1,196,293.15,196Z"/>
          <path class="cls-16" d="M288.57,202.86H257.4c-3.19,0-3.19,6,0,6h31.17C292.31,208.9,292.31,202.86,288.57,202.86Z"/>
          <polygon class="cls-12" points="247.65 202.26 244.95 202.26 240.05 243.08 248.92 243.08 247.65 202.26"/>
          <polygon class="cls-12" points="295.41 215.93 246.8 215.93 238.78 248.96 298.38 248.96 295.41 215.93"/>
          <polygon class="cls-14" points="248.11 229.54 286.13 222.53 293.38 215.93 248.11 215.93 248.11 229.54"/>
          <g>
            <path class="cls-17" d="M106.66,259.69C96,262,92.91,262.78,92.94,262.91s3.21-.42,13.83-2.71,13.74-3.08,13.71-3.22S117.27,257.4,106.66,259.69Z"/>
            <path class="cls-17" d="M135.42,253.49c-10.61,2.29-13.74,3.08-13.71,3.22s3.21-.43,13.82-2.71,13.75-3.09,13.72-3.23S146,251.2,135.42,253.49Z"/>
            <path class="cls-17" d="M123.94,271.28C126.23,281.89,127,285,127.16,285s-.43-3.21-2.71-13.83-3.09-13.74-3.22-13.71S121.65,260.67,123.94,271.28Z"/>
            <path class="cls-17" d="M117.74,242.52c2.29,10.61,3.08,13.74,3.22,13.71s-.43-3.21-2.71-13.82-3.09-13.75-3.23-13.72S115.45,231.9,117.74,242.52Z"/>
            <path class="cls-17" d="M133.32,265c9.12,5.89,11.89,7.54,12,7.42s-2.57-2-11.69-7.86-11.9-7.54-12-7.42S124.19,259.15,133.32,265Z"/>
            <path class="cls-17" d="M108.59,249.09c9.12,5.88,11.9,7.54,12,7.42s-2.58-2-11.7-7.86-11.9-7.54-12-7.42S99.47,243.2,108.59,249.09Z"/>
            <path class="cls-17" d="M129.29,244.62c5.88-9.12,7.54-11.9,7.42-12s-2,2.57-7.86,11.69-7.54,11.9-7.42,12S123.4,253.75,129.29,244.62Z"/>
            <path class="cls-17" d="M113.33,269.35c5.89-9.13,7.54-11.9,7.42-12s-2,2.57-7.85,11.7-7.54,11.9-7.42,12S107.45,278.47,113.33,269.35Z"/>
            <path class="cls-17" d="M108.7,264.77c-9,6-11.67,7.89-11.59,8s2.83-1.57,11.87-7.58,11.67-7.89,11.59-8S117.74,258.76,108.7,264.77Z"/>
            <path class="cls-17" d="M133.21,248.49c-9.05,6-11.67,7.89-11.59,8s2.83-1.57,11.87-7.58,11.67-7.89,11.59-8S142.25,242.48,133.21,248.49Z"/>
            <path class="cls-17" d="M129,269.24c6,9.05,7.89,11.67,8,11.59S135.46,278,129.45,269s-7.89-11.67-8-11.59S123,260.2,129,269.24Z"/>
            <path class="cls-17" d="M112.74,244.73c6,9.05,7.89,11.67,8,11.59s-1.57-2.83-7.58-11.87-7.89-11.67-8-11.59S106.73,235.69,112.74,244.73Z"/>
            <path class="cls-17" d="M135.46,260c10.65,2.14,13.83,2.67,13.86,2.53s-3.11-.89-13.75-3-13.83-2.67-13.86-2.53S124.82,257.86,135.46,260Z"/>
            <path class="cls-17" d="M106.62,254.19c10.64,2.15,13.83,2.67,13.86,2.53s-3.11-.89-13.76-3S92.89,251,92.86,251.15,96,252,106.62,254.19Z"/>
            <path class="cls-17" d="M124.26,242.47c2.14-10.64,2.67-13.83,2.53-13.85s-.89,3.11-3,13.75-2.67,13.83-2.53,13.86S122.11,253.12,124.26,242.47Z"/>
            <path class="cls-17" d="M118.44,271.32c2.14-10.64,2.67-13.83,2.53-13.86s-.89,3.11-3,13.76-2.67,13.83-2.53,13.85S116.29,282,118.44,271.32Z"/>
            <path class="cls-17" d="M106.66,259.69C96,262,92.91,262.78,92.94,262.91s3.21-.42,13.83-2.71,13.74-3.08,13.71-3.22S117.27,257.4,106.66,259.69Z"/>
            <path class="cls-17" d="M135.42,253.49c-10.61,2.29-13.74,3.08-13.71,3.22s3.21-.43,13.82-2.71,13.75-3.09,13.72-3.23S146,251.2,135.42,253.49Z"/>
            <path class="cls-17" d="M123.94,271.28C126.23,281.89,127,285,127.16,285s-.43-3.21-2.71-13.83-3.09-13.74-3.22-13.71S121.65,260.67,123.94,271.28Z"/>
            <path class="cls-17" d="M117.74,242.52c2.29,10.61,3.08,13.74,3.22,13.71s-.43-3.21-2.71-13.82-3.09-13.75-3.23-13.72S115.45,231.9,117.74,242.52Z"/>
            <path class="cls-17" d="M133.32,265c9.12,5.89,11.89,7.54,12,7.42s-2.57-2-11.69-7.86-11.9-7.54-12-7.42S124.19,259.15,133.32,265Z"/>
            <path class="cls-17" d="M108.59,249.09c9.12,5.88,11.9,7.54,12,7.42s-2.58-2-11.7-7.86-11.9-7.54-12-7.42S99.47,243.2,108.59,249.09Z"/>
            <path class="cls-17" d="M129.29,244.62c5.88-9.12,7.54-11.9,7.42-12s-2,2.57-7.86,11.69-7.54,11.9-7.42,12S123.4,253.75,129.29,244.62Z"/>
            <path class="cls-17" d="M113.33,269.35c5.89-9.13,7.54-11.9,7.42-12s-2,2.57-7.85,11.7-7.54,11.9-7.42,12S107.45,278.47,113.33,269.35Z"/>
            <path class="cls-17" d="M108.7,264.77c-9,6-11.67,7.89-11.59,8s2.83-1.57,11.87-7.58,11.67-7.89,11.59-8S117.74,258.76,108.7,264.77Z"/>
            <path class="cls-17" d="M133.21,248.49c-9.05,6-11.67,7.89-11.59,8s2.83-1.57,11.87-7.58,11.67-7.89,11.59-8S142.25,242.48,133.21,248.49Z"/>
            <path class="cls-17" d="M129,269.24c6,9.05,7.89,11.67,8,11.59S135.46,278,129.45,269s-7.89-11.67-8-11.59S123,260.2,129,269.24Z"/>
            <path class="cls-17" d="M112.74,244.73c6,9.05,7.89,11.67,8,11.59s-1.57-2.83-7.58-11.87-7.89-11.67-8-11.59S106.73,235.69,112.74,244.73Z"/>
            <path class="cls-17" d="M135.46,260c10.65,2.14,13.83,2.67,13.86,2.53s-3.11-.89-13.75-3-13.83-2.67-13.86-2.53S124.82,257.86,135.46,260Z"/>
            <path class="cls-17" d="M106.62,254.19c10.64,2.15,13.83,2.67,13.86,2.53s-3.11-.89-13.76-3S92.89,251,92.86,251.15,96,252,106.62,254.19Z"/>
            <path class="cls-17" d="M124.26,242.47c2.14-10.64,2.67-13.83,2.53-13.85s-.89,3.11-3,13.75-2.67,13.83-2.53,13.86S122.11,253.12,124.26,242.47Z"/>
            <path class="cls-17" d="M118.44,271.32c2.14-10.64,2.67-13.83,2.53-13.86s-.89,3.11-3,13.76-2.67,13.83-2.53,13.85S116.29,282,118.44,271.32Z"/>
          </g>
          <path class="cls-17" d="M125.32,225.68a31.45,31.45,0,1,0,26.94,35.4A31.44,31.44,0,0,0,125.32,225.68Zm22.24,34.76a26.71,26.71,0,1,1-22.91-29.82A26.58,26.58,0,0,1,147.56,260.44Z"/>
          <path class="cls-18" d="M125.69,223A34.17,34.17,0,1,0,155,261.44,34.16,34.16,0,0,0,125.69,223Zm24.16,37.76A29,29,0,1,1,125,228.36,28.89,28.89,0,0,1,149.85,260.75Z"/>
          <path class="cls-6" d="M306.67,229.6c-41.53,0-51.5,13.67-55.19,25.42H298.6Z"/>
          <g>
            <path class="cls-17" d="M274.64,268.62c-7.38,1.59-9.55,2.14-9.53,2.24s2.23-.3,9.61-1.89,9.55-2.14,9.53-2.24S282,267,274.64,268.62Z"/>
            <path class="cls-17" d="M294.64,264.31c-7.38,1.59-9.56,2.14-9.54,2.24s2.24-.3,9.62-1.89,9.55-2.15,9.53-2.24S302,262.72,294.64,264.31Z"/>
            <path class="cls-17" d="M286.66,276.67c1.59,7.38,2.14,9.56,2.24,9.54s-.3-2.23-1.89-9.61-2.14-9.56-2.24-9.54S285.07,269.3,286.66,276.67Z"/>
            <path class="cls-17" d="M282.35,256.68c1.59,7.38,2.14,9.55,2.24,9.53s-.3-2.23-1.89-9.61-2.14-9.55-2.24-9.53S280.76,249.3,282.35,256.68Z"/>
            <path class="cls-17" d="M293.18,272.34c6.34,4.09,8.27,5.24,8.32,5.15s-1.79-1.36-8.13-5.46-8.27-5.24-8.33-5.16S286.83,268.24,293.18,272.34Z"/>
            <path class="cls-17" d="M276,261.24c6.34,4.1,8.27,5.25,8.32,5.16s-1.79-1.37-8.13-5.46-8.27-5.24-8.32-5.16S269.65,257.15,276,261.24Z"/>
            <path class="cls-17" d="M290.38,258.14c4.09-6.34,5.24-8.27,5.15-8.32s-1.36,1.78-5.46,8.13-5.24,8.27-5.16,8.32S286.28,264.48,290.38,258.14Z"/>
            <path class="cls-17" d="M279.28,275.33c4.1-6.34,5.25-8.27,5.16-8.33s-1.37,1.79-5.46,8.14-5.24,8.27-5.16,8.32S275.19,281.67,279.28,275.33Z"/>
            <path class="cls-17" d="M276.06,272.15c-6.29,4.17-8.11,5.48-8.06,5.57s2-1.1,8.26-5.27,8.11-5.49,8.06-5.57S282.35,268,276.06,272.15Z"/>
            <path class="cls-17" d="M293.1,260.83c-6.29,4.18-8.11,5.48-8.06,5.57s2-1.1,8.26-5.27,8.11-5.49,8.06-5.57S299.39,256.65,293.1,260.83Z"/>
            <path class="cls-17" d="M290.19,275.26c4.17,6.29,5.48,8.11,5.57,8.06s-1.1-2-5.27-8.26S285,267,284.92,267,286,269,290.19,275.26Z"/>
            <path class="cls-17" d="M278.87,258.22c4.18,6.29,5.49,8.11,5.57,8.06s-1.09-2-5.27-8.26-5.49-8.11-5.57-8.06S274.69,251.93,278.87,258.22Z"/>
            <path class="cls-17" d="M294.67,268.84c7.4,1.49,9.61,1.86,9.63,1.76s-2.16-.62-9.56-2.11-9.61-1.86-9.63-1.77S287.27,267.34,294.67,268.84Z"/>
            <path class="cls-17" d="M274.62,264.79c7.4,1.49,9.61,1.86,9.63,1.76s-2.16-.62-9.56-2.11-9.62-1.86-9.64-1.76S267.22,263.3,274.62,264.79Z"/>
            <path class="cls-17" d="M286.88,256.65c1.49-7.4,1.86-9.62,1.76-9.64s-.62,2.17-2.11,9.57-1.86,9.61-1.77,9.63S285.38,264.05,286.88,256.65Z"/>
            <path class="cls-17" d="M282.83,276.7c1.49-7.4,1.86-9.62,1.76-9.63s-.62,2.16-2.11,9.56-1.86,9.61-1.76,9.63S281.34,284.1,282.83,276.7Z"/>
            <path class="cls-17" d="M274.64,268.62c-7.38,1.59-9.55,2.14-9.53,2.24s2.23-.3,9.61-1.89,9.55-2.14,9.53-2.24S282,267,274.64,268.62Z"/>
            <path class="cls-17" d="M294.64,264.31c-7.38,1.59-9.56,2.14-9.54,2.24s2.24-.3,9.62-1.89,9.55-2.15,9.53-2.24S302,262.72,294.64,264.31Z"/>
            <path class="cls-17" d="M286.66,276.67c1.59,7.38,2.14,9.56,2.24,9.54s-.3-2.23-1.89-9.61-2.14-9.56-2.24-9.54S285.07,269.3,286.66,276.67Z"/>
            <path class="cls-17" d="M282.35,256.68c1.59,7.38,2.14,9.55,2.24,9.53s-.3-2.23-1.89-9.61-2.14-9.55-2.24-9.53S280.76,249.3,282.35,256.68Z"/>
            <path class="cls-17" d="M293.18,272.34c6.34,4.09,8.27,5.24,8.32,5.15s-1.79-1.36-8.13-5.46-8.27-5.24-8.33-5.16S286.83,268.24,293.18,272.34Z"/>
            <path class="cls-17" d="M276,261.24c6.34,4.1,8.27,5.25,8.32,5.16s-1.79-1.37-8.13-5.46-8.27-5.24-8.32-5.16S269.65,257.15,276,261.24Z"/>
            <path class="cls-17" d="M290.38,258.14c4.09-6.34,5.24-8.27,5.15-8.32s-1.36,1.78-5.46,8.13-5.24,8.27-5.16,8.32S286.28,264.48,290.38,258.14Z"/>
            <path class="cls-17" d="M279.28,275.33c4.1-6.34,5.25-8.27,5.16-8.33s-1.37,1.79-5.46,8.14-5.24,8.27-5.16,8.32S275.19,281.67,279.28,275.33Z"/>
            <path class="cls-17" d="M276.06,272.15c-6.29,4.17-8.11,5.48-8.06,5.57s2-1.1,8.26-5.27,8.11-5.49,8.06-5.57S282.35,268,276.06,272.15Z"/>
            <path class="cls-17" d="M293.1,260.83c-6.29,4.18-8.11,5.48-8.06,5.57s2-1.1,8.26-5.27,8.11-5.49,8.06-5.57S299.39,256.65,293.1,260.83Z"/>
            <path class="cls-17" d="M290.19,275.26c4.17,6.29,5.48,8.11,5.57,8.06s-1.1-2-5.27-8.26S285,267,284.92,267,286,269,290.19,275.26Z"/>
            <path class="cls-17" d="M278.87,258.22c4.18,6.29,5.49,8.11,5.57,8.06s-1.09-2-5.27-8.26-5.49-8.11-5.57-8.06S274.69,251.93,278.87,258.22Z"/>
            <path class="cls-17" d="M294.67,268.84c7.4,1.49,9.61,1.86,9.63,1.76s-2.16-.62-9.56-2.11-9.61-1.86-9.63-1.77S287.27,267.34,294.67,268.84Z"/>
            <path class="cls-17" d="M274.62,264.79c7.4,1.49,9.61,1.86,9.63,1.76s-2.16-.62-9.56-2.11-9.62-1.86-9.64-1.76S267.22,263.3,274.62,264.79Z"/>
            <path class="cls-17" d="M286.88,256.65c1.49-7.4,1.86-9.62,1.76-9.64s-.62,2.17-2.11,9.57-1.86,9.61-1.77,9.63S285.38,264.05,286.88,256.65Z"/>
            <path class="cls-17" d="M282.83,276.7c1.49-7.4,1.86-9.62,1.76-9.63s-.62,2.16-2.11,9.56-1.86,9.61-1.76,9.63S281.34,284.1,282.83,276.7Z"/>
          </g>
          <path class="cls-17" d="M287.53,245.65a21.18,21.18,0,1,0,18.14,23.84A21.17,21.17,0,0,0,287.53,245.65Zm13.11,23.15a16.11,16.11,0,1,1-13.82-18A16,16,0,0,1,300.64,268.8Z"/>
          <path class="cls-18" d="M288,242.49a24.37,24.37,0,1,0,20.87,27.43A24.37,24.37,0,0,0,288,242.49ZM303,269.13a18.53,18.53,0,1,1-15.89-20.68A18.45,18.45,0,0,1,303,269.13Z"/>
          <path class="cls-17" d="M290.15,267.38a5.52,5.52,0,1,1-4.73-6.17A5.49,5.49,0,0,1,290.15,267.38Z"/>
          <path class="cls-17" d="M125.86,257.49a4.81,4.81,0,1,1-4.13-5.37A4.79,4.79,0,0,1,125.86,257.49Z"/>
          <rect class="cls-19" x="167.42" y="247.7" width="85.3" height="3.01"/>
          <rect class="cls-13" x="167.42" y="247.54" width="85.3" height="1.64"/>
          <path class="cls-6" d="M288.68,231.89h-1.2c0-11.85,5.29-14.34,9.73-14.34v1.21C291.55,218.76,288.68,223.17,288.68,231.89Z"/>
          <path class="cls-19" d="M309.64,229h0a2.22,2.22,0,0,0-2-3.15c-41.81-.39-54.43,14.4-58.39,24.9h3.61c4.81-9.62,16.51-21,54.73-20.48A2.22,2.22,0,0,0,309.64,229Z"/>
          <path class="cls-13" d="M308.88,227.55a2.26,2.26,0,0,1,.95.24,2.23,2.23,0,0,0-2.18-2c-41.81-.39-54.43,14.4-58.39,24.9h1.66C255.61,240.39,269.33,227.18,308.88,227.55Z"/>
          <path class="cls-19" d="M84,212.68h0a2.88,2.88,0,0,0,3.57,1.53c47.38-16.1,75.7,1,79,36.5h2.25c2.21-34.78-29.2-59.91-83.11-41.94A2.89,2.89,0,0,0,84,212.68Z"/>
          <path class="cls-13" d="M181,166.44l-79.1-1.84h0a3.09,3.09,0,0,0,3.1,3.09h76Z"/>
          <path class="cls-13" d="M161.2,166.53,132.88,95a1.54,1.54,0,0,0-2-.83h0a1.56,1.56,0,0,0-.84,2l29.55,70.74Z"/>
          <rect class="cls-20" x="254.5" y="183.39" width="1.91" height="29.8" rx="0.71"/>
          <rect class="cls-20" x="289.77" y="183.39" width="1.91" height="29.8" rx="0.78"/>
          <rect class="cls-5" x="272.2" y="190.98" width="1.91" height="35.68" transform="translate(481.97 -64.34) rotate(90)"/>
          <path class="cls-6" d="M300.84,211.66c-3.94.09-7.11,2.91-7.11,6.38s3.17,6.3,7.11,6.39Z"/>
          <path class="cls-18" d="M289,267.23a4.4,4.4,0,1,1-3.77-4.91A4.38,4.38,0,0,1,289,267.23Z"/>
          <path class="cls-18" d="M124.09,257.25a3,3,0,1,1-2.59-3.37A3,3,0,0,1,124.09,257.25Z"/>
          <g>
            <path class="cls-21" d="M266.89,186.67a1.44,1.44,0,0,0-1.53-1h-2.59c-2.38,0-2.38,2.26,0,2.26h2.59c.91,0,1.62-.58,1.53-1.24Z"/>
            <path class="cls-21" d="M286,185.65H271.62c-.91,0-1.62.57-1.53,1.24h0a1.44,1.44,0,0,0,1.53,1H286C288.75,187.91,288.75,185.65,286,185.65Z"/>
          </g>
          <path class="cls-5" d="M290.74,200.3h0a.94.94,0,0,1-.93-.94v12.89a.94.94,0,0,0,.93.94h0a.94.94,0,0,0,.94-.94V199.36A.94.94,0,0,1,290.74,200.3Z"/>
          <path class="cls-5" d="M255.56,201.32h-.21a.84.84,0,0,1-.85-.84v11.86a.85.85,0,0,0,.85.85h.21a.85.85,0,0,0,.85-.85V200.48A.84.84,0,0,1,255.56,201.32Z"/>
          <path class="cls-18" d="M300.32,210.41h0a1,1,0,0,0-1,1v13a1,1,0,0,0,1,1h0a1,1,0,0,0,1-1v-13A1,1,0,0,0,300.32,210.41Z"/>
          <path class="cls-13" d="M177.67,166.93a2.87,2.87,0,1,0,2.87-2.87A2.86,2.86,0,0,0,177.67,166.93Z"/>
          <path class="cls-14" d="M178.24,166.93a2.3,2.3,0,1,0,2.3-2.3A2.3,2.3,0,0,0,178.24,166.93Z"/>
          <polygon class="cls-20" points="280.23 168.1 274.07 167.9 274.73 175.19 279.56 175.39 280.23 168.1"/>
          <path class="cls-13" d="M85.68,208.77A2.89,2.89,0,0,0,83.75,212a3,3,0,0,1,.86-.48c52.46-17.49,83.61,5.85,83.2,39.18h1.27C171.29,215.93,139.59,190.8,85.68,208.77Z"/>
          <polygon class="cls-6" points="253.79 220.07 251.64 220.07 251.64 228.59 253.55 228.59 253.79 220.07"/>
          <polygon class="cls-6" points="256.94 220.07 254.78 220.07 254.78 228.59 256.69 228.59 256.94 220.07"/>
          <polygon class="cls-6" points="260.08 220.07 257.92 220.07 257.92 228.59 259.83 228.59 260.08 220.07"/>
          <polygon class="cls-6" points="263.22 220.07 261.06 220.07 261.06 228.59 262.98 228.59 263.22 220.07"/>
          <polygon class="cls-15" points="197.21 234.57 176.91 231.97 176.91 235.34 197.21 235.34 197.21 234.57"/>
          <g>
            <path class="cls-22" d="M260.53,266.63c1.81-13.33,14.08-23.56,27.42-21.75,11.62,1.58,20.21,12,21,23.23a24.36,24.36,0,0,0-48.45-4.75,23.46,23.46,0,0,0-.15,5.08C260.41,267.84,260.45,267.24,260.53,266.63Z"/>
            <path class="cls-22" d="M282.22,286.62c10.14,1.38,19.46-4.17,20.82-14.22a18,18,0,0,0,.07-4.14c0,.29,0,.58-.07.87a18.54,18.54,0,0,1-36.8-.84C265.39,278,272.38,285.28,282.22,286.62Z"/>
          </g>
          <g>
            <path class="cls-22" d="M87.24,254.5a34.16,34.16,0,0,1,68,3.53,34.17,34.17,0,0,0-68-5.78,33.83,33.83,0,0,0-.29,5.66A32.91,32.91,0,0,1,87.24,254.5Z"/>
            <path class="cls-22" d="M117.23,287.58A28.89,28.89,0,0,0,149.85,263a29.51,29.51,0,0,0,.23-4.95c0,.9-.11,1.79-.23,2.7a29,29,0,0,1-57.74-2.86A28.9,28.9,0,0,0,117.23,287.58Z"/>
          </g>
          <path class="cls-23" d="M333.68,291H43.13s49,4.3,158.41,4.3S333.68,291,333.68,291Z"/>
        </g>
      </g>
      <g>
        <g>
          <path class="cls-24" d="M336.14,248.4c1,.82,3.16,2.35,3.85,2.34s4.05-2.34,4.09-3.06c0-.38-.71-1.42-1.05-1.31s-2.55,1.66-2.83,1.7-1.44-1.7-1.44-1.7C337.85,245,335.23,247,336.14,248.4Z"/>
          <path class="cls-25" d="M339.47,252.06c.49-.23.6-10.37.48-11.58s-2.64-3.27-3.32-5.25l-6.33,2.59a12.67,12.67,0,0,1,3.3,6.31c-.07.86.59,6.51,1,6.92C335.57,252,339,252.3,339.47,252.06Z"/>
          <path class="cls-26" d="M328,237.52s2.51,4.32,3,4.46,7.65-4.84,7.54-5.56a43.16,43.16,0,0,0-2.19-4.83Z"/>
          <path class="cls-27" d="M331.64,241.74c1.83-1,7-4.7,6.95-5.32a9.79,9.79,0,0,0-.67-1.7,14.86,14.86,0,0,0-1.36.71c-3.15,1.84-5.39,4.55-5,6A1,1,0,0,0,331.64,241.74Z"/>
          <path class="cls-28" d="M345,202.11c-5.78,6-14.2,13.75-14.2,13.75s.89.33.16,1.11c0,0,9.64,12.42,9.48,13.24s-11.21,9.36-12,9.49-17-19.07-17.09-20.88S328,190.58,328,190.58Z"/>
          <path class="cls-29" d="M319,217.55c.55-2.52,11.62-9.67,23.34-15L328,190.58s-17.61,26.33-17.54,28.15,17,21.1,17.88,21a11.58,11.58,0,0,0,2.11-1.36C327.31,233.93,318.48,220,319,217.55Z"/>
          <g>
            <path class="cls-28" d="M330.75,215.86l1.23-1.14-4.35.68,3.5.77A.83.83,0,0,0,330.75,215.86Z"/>
            <path class="cls-28" d="M331.66,218l-.75-1a1.2,1.2,0,0,0,.25-.37l-7.28.78S327.64,217.63,331.66,218Z"/>
          </g>
          <path class="cls-25" d="M334.63,251.1c.89.89,3,2.6,3.64,2.64s4.18-2.05,4.26-2.77c.05-.37-.6-1.48-.95-1.39s-2.63,1.48-2.91,1.49-1.31-1.81-1.31-1.81C336.56,247.78,333.83,249.63,334.63,251.1Z"/>
        </g>
        <path class="cls-30" d="M387.52,260.83a3.92,3.92,0,0,1-3.95,4.11,4.31,4.31,0,0,1-4.27-4.11,3.92,3.92,0,0,1,3.95-4.11A4.31,4.31,0,0,1,387.52,260.83Z"/>
        <path class="cls-31" d="M333.05,222.75l-8.71,19.57s4.12,7.17,13.69,13.24Z"/>
        <path class="cls-31" d="M353.45,231.6,365.29,248a33.24,33.24,0,0,1-15.67,6Z"/>
        <path class="cls-32" d="M337.56,220.4l25,17.36c-.61,30.47-15.27,73.86-15.27,73.86h-3.65c-1.58-5.4-15.11-60.93-17.22-79.73Z"/>
        <path class="cls-30" d="M342.81,235.53c2.32,18.82,3.26,75,3.26,75l-.69,1.67-.62-1.76s-4.62-70.82-5.8-73.12Z"/>
        <path class="cls-30" d="M340.69,240.27c-4.32,0-8,5.13-10.46,13.35-1.79-8.79-3.21-16.62-3.78-21.73l11.11-11.49,25,17.36c-.24,12-2.67,26.06-5.52,38.64C355.1,255.92,348.24,240.27,340.69,240.27Z"/>
        <path class="cls-33" d="M331.23,313h15.44s-.2-4.27-2.25-4.69S331.23,313,331.23,313Z"/>
        <path class="cls-34" d="M356.4,313H344.68s1.6-4.27,3.29-4.69S356.4,313,356.4,313Z"/>
        <path class="cls-29" d="M365.29,248c-9.38-5-25.74-20.78-25.74-20.78l-15.14,15.18s-1.68-41.7,3.51-51.91c0,0,15.05-5.75,17.22-5.64s17.2,5.54,18.48,6.75C366.47,194.31,365.29,248,365.29,248Z"/>
        <path class="cls-28" d="M345.14,184.89c2,.1,15.13,4.79,18,6.43-4.22,1.48-10.66,1.91-17.75.89a48.85,48.85,0,0,1-12.64-3.48C337.36,187.05,343.78,184.82,345.14,184.89Z"/>
        <g>
          <path class="cls-28" d="M356.59,202.8c.64-2.32,7.35-8.86,7.25-10.85,2.57,5.08,1.45,56.09,1.45,56.09a82.53,82.53,0,0,1-11.93-8.5C354.48,223.54,353.55,213.71,356.59,202.8Z"/>
          <path class="cls-28" d="M325.1,203.75c2,23.78-.69,38.69-.69,38.69S323.5,219.75,325.1,203.75Z"/>
        </g>
        <path class="cls-26" d="M355.12,189.75a153.12,153.12,0,0,1-17.27,21.63s-5-12.27-4.84-21.43c3.77-2.69,10.39-5.43,11.87-5.33C346.14,184.69,351.25,186.58,355.12,189.75Z"/>
        <path class="cls-35" d="M344.88,184.62c1.26.07,6.37,2,10.24,5.13-.66,1-1.33,2-2,3-4.92.31-16.49.81-19-3.5C338,186.78,343.54,184.53,344.88,184.62Z"/>
        <path class="cls-36" d="M330.37,153.14c.93-.72,7.64-3,12.12-2.72a15.64,15.64,0,0,1,7.95,3s5.62.48,5.88,1a54,54,0,0,1,.5,6.71c.07,2.44-1.45,12.72-9.1,19.66l-12.83-5.83s-6.53-13.83-6.61-15.74S329.44,153.86,330.37,153.14Z"/>
        <path class="cls-37" d="M345.47,167.76c0-3.06,1-5.51,2.12-5.46s2.06,2.58,2,5.65-1,5.51-2.11,5.46S345.46,170.83,345.47,167.76Z"/>
        <path class="cls-38" d="M337.73,211.91a33.47,33.47,0,0,1-1.23-4.26l4.43-19.51h.77L341,208C339.11,210.19,337.73,211.91,337.73,211.91Z"/>
        <path class="cls-39" d="M349.34,186.24l-1.44-10.39-9.39,3.71-.68,8C341.58,188.25,345.31,189.1,349.34,186.24Z"/>
        <path class="cls-25" d="M346.67,183.47c.85-1.07,2.84-9.82,2.8-10.89-3.76.13-4-.37-2.18-16.2-.48-1.39-10.32-3.18-11.7-3a9.8,9.8,0,0,0-4.86,3.73c-.49,1.17,2.67,25.56,2.82,26.22C333.93,185,345,185.49,346.67,183.47Z"/>
        <path class="cls-37" d="M332.16,147.84c-3.33,1.28-2.71,9.91-4.65,10.79a1.49,1.49,0,0,1-2.29-1s-.84,3.76,3.64,3.2,6.81-7.76,9.42-7.68l0-.64C336.42,152.39,335.49,146.56,332.16,147.84Z"/>
        <path class="cls-37" d="M343.59,147.84c3.89,1.28,3.9,9.91,6.18,10.79s2.51-1,2.51-1,1.27,3.76-3.87,3.2S340,153,337.08,153.11l0-.64C339.13,152.39,339.71,146.56,343.59,147.84Z"/>
        <path class="cls-25" d="M349.26,169.34c1.05-1.58,2.52-2.28,3.29-1.55s.55,2.6-.5,4.18-2.51,2.28-3.28,1.56S348.22,170.93,349.26,169.34Z"/>
        <path class="cls-40" d="M351,187a49.8,49.8,0,0,1-6.94,5.05l-2.91-2.8-2.62,2.35-1.83-4,1.22-2.44c2.21,3.52,6.45,2.64,11.17-.91Z"/>
        <path class="cls-37" d="M344.21,176.81c-4.73,1.68-7.17-1.44-7.17-1.44a7.81,7.81,0,0,1-5.53,1.76c2.23-2.24,4.95-4.24,5.9-4.48C339.62,173.85,344.21,176.81,344.21,176.81Z"/>
        <g>
          <path class="cls-28" d="M337.4,219c0-1.12.55-2,1.34-2s1.46.91,1.5,2-.56,2-1.34,2S337.44,220.07,337.4,219Z"/>
          <path class="cls-41" d="M337.24,218c0-.94.47-1.7,1.13-1.7s1.22.76,1.25,1.7-.46,1.7-1.12,1.7S337.28,218.91,337.24,218Z"/>
        </g>
        <polygon class="cls-30" points="385.05 259.07 384.48 313.1 383.4 313.1 382.02 260.39 385.05 259.07"/>
        <path class="cls-25" d="M385,260.84c.39-.13,2.63.28,2.61-.06s.2-1.75.2-1.75l2.95-.32s0,3.73-.77,4.53-4.24,0-4.83-.49S384.63,261,385,260.84Z"/>
        <path class="cls-25" d="M383.25,262.67c.39-.13,2.63.28,2.61-.06s.2-1.75.2-1.75l2.95-.32s0,3.73-.77,4.53-4.24,0-4.82-.49S382.87,262.8,383.25,262.67Z"/>
        <path class="cls-24" d="M380,263.82c.12-.39.24-3.35.31-3.67a27.37,27.37,0,0,1,1.62-3.57l-3.42-2.08s-.83,3.64-.94,4.56c-.13,1.09.05,4.08.58,4.65S379.85,264.21,380,263.82Z"/>
        <path class="cls-25" d="M381.08,263c.4-.07,2.56.67,2.6.33s.46-1.69.46-1.69l3,.14s-.6,3.65-1.46,4.33-4.22-.61-4.72-1.22S380.67,263,381.08,263Z"/>
        <path class="cls-25" d="M386,250.94c1.72,2.34,4.58,6.32,4.82,7.68s-5.69,4.69-7.14,4.69-4-4.51-4.19-5.69-2.13-5.78-2.13-5.78Z"/>
        <path class="cls-24" d="M380.27,260.15c-.13-.31-1.33-2.35-1.36-2.53-.23-1.17-1.55-5.78-1.55-5.78l8.64-.9a67.9,67.9,0,0,1,4.24,6.28C387.2,255,382.09,257.13,380.27,260.15Z"/>
        <path class="cls-26" d="M384.34,246.86s2.31,3.79,2.22,4.44-8.62,5.15-9.37,4.81-2.65-4.81-2.65-4.81Z"/>
        <path class="cls-29" d="M357.19,220.08c3.1,5.33,17.26,33.57,17.91,33.93s10.18-5.51,10.42-6.15-12.31-33.52-12.82-35-8.39-20.42-9-21.24-5.91,1.79-7.43,9.58C355.39,205.64,356.43,218.77,357.19,220.08Z"/>
        <path class="cls-28" d="M379.75,251.73c-2.25,1.33-4.36,2.44-4.65,2.28-.65-.36-15.48-28.83-18.57-34.16a31.92,31.92,0,0,1-.93-5.24C362,227.41,372.5,243.44,379.75,251.73Z"/>
        <polygon class="cls-42" points="337.93 231.87 342.44 231.78 339.72 229.25 338.74 229.61 337.93 231.87"/>
        <polygon class="cls-38" points="340.89 191.75 342.51 190.53 341.63 188.59 340.45 188.46 339.75 190.26 340.89 191.75"/>
        <path class="cls-43" d="M341.53,192.79,341,208c-1.87,2.16-3.25,3.88-3.25,3.88a33.47,33.47,0,0,1-1.23-4.26L340,192.47C340.45,192.59,341,192.7,341.53,192.79Z"/>
        <path class="cls-44" d="M349.72,170.27c.69-1.05,1.66-1.51,2.16-1s.36,1.72-.32,2.76-1.66,1.5-2.17,1S349,171.31,349.72,170.27Z"/>
        <path class="cls-25" d="M349.43,171.69c.48-.58,1.15-.81,1.49-.5s.22,1-.26,1.61-1.14.81-1.48.51S349,172.28,349.43,171.69Z"/>
        <path class="cls-39" d="M338.57,177.73a2.79,2.79,0,0,0-3.07.17C334.61,178.71,340.27,178.74,338.57,177.73Z"/>
        <path class="cls-39" d="M337.27,165.05c-1,3.5-2.66,7.83-2.63,8.14s3.05-.31,3.18-.28,0-7.86,0-7.86Z"/>
        <path class="cls-37" d="M338.67,165.4c.95.67,5.27,1.39,6,1s.56-2.12.15-2.56-5.33-2.18-6.18-1.94S337.71,164.73,338.67,165.4Z"/>
        <path class="cls-37" d="M336.53,165.42c-.7.61-4.26,1.09-4.94.68a2.52,2.52,0,0,1-.54-2.53c.29-.42,4.17-1.88,4.93-1.6S337.24,164.8,336.53,165.42Z"/>
        <path class="cls-36" d="M325.33,159.18c2.64,1.54,6.31,0,8.19-3.32,1.64-3,1.38-6.36-.47-8.21,2.62,0,3.54,4.75,5.2,4.82l0,.64c-2.61-.08-4.93,7.12-9.42,7.68-2.45.3-3.31-.68-3.58-1.64Z"/>
        <path class="cls-36" d="M339.15,150.42a10.94,10.94,0,0,0,4.09,7.35c2.82,2.31,5.94,3.91,8.55,2.35a4.24,4.24,0,0,1-3.45.78c-5.14-.56-8.42-7.54-11.37-7.46l-.05-1.22C337.75,152.19,338.48,151.48,339.15,150.42Z"/>
        <path class="cls-36" d="M341.51,170.38a2.56,2.56,0,0,0-.75.12c0-.17,0-.34,0-.51-.05-1.35.27-2.45.72-2.45s.86,1.1.91,2.45a4.86,4.86,0,0,1,0,.54A2.55,2.55,0,0,0,341.51,170.38Z"/>
        <path class="cls-36" d="M334,170.38a1.87,1.87,0,0,0-.64.12c0-.17,0-.34,0-.51-.05-1.35.22-2.45.61-2.45s.74,1.1.79,2.45a4.86,4.86,0,0,1,0,.54A1.89,1.89,0,0,0,334,170.38Z"/>
      </g>
      <g>
        <g>
          <path class="cls-24" d="M74.48,292c1.78-1.33,4.43-3.86,5.52-4.56.73-.46,6.17-2.86,9.36-2.18.79.16-1.07,5.83-1.79,6.29s-5.25-.42-5.67-.3-4.63,3.36-5.24,3.6S73.83,292.53,74.48,292Z"/>
          <path class="cls-24" d="M87.61,317.77A40.51,40.51,0,0,0,93.73,315c.7-.43,2.15-5.89,2.12-6.82s-4-1.81-4.42-1-.39,4.16-.5,4.64-3.25,1.81-3.78,2.17S86.9,318,87.61,317.77Z"/>
          <path class="cls-24" d="M92.44,310.15S87.83,287.43,88,286.27s2.18-3.75,4-5.91l13.65,9.21s-4.41,5.4-5.22,8,1.15,14.55-.85,15.48S92.44,310.15,92.44,310.15Z"/>
          <path class="cls-45" d="M106.05,293.5c-4.47-.91-16.24-12.31-16.31-13.71S95,271.57,95,271.57l17.22,13.62S107.58,293.81,106.05,293.5Z"/>
          <path class="cls-46" d="M128.07,247.33c6.28.58,9.71,8.69,6.24,14.74-8.41,14.64-20.67,28.29-22.55,29.29-2.48,1.31-21.14-15.17-21.42-16.79s16.09-29.27,16.09-29.27Z"/>
          <path class="cls-47" d="M90.34,274.57c-.13-.71,3-6.46,6.47-12.67,9.13-8,22.84-16.31,27.85-11.4,5.47,5.35-2.29,22-7.88,35.77a33.27,33.27,0,0,1-5,5.09C109.28,292.67,90.62,276.19,90.34,274.57Z"/>
          <path class="cls-24" d="M92,321.33a41.18,41.18,0,0,0,6.13-2.81c.69-.42,2.15-5.88,2.12-6.82s-4-1.8-4.42-1-.39,4.15-.5,4.63-3.26,1.82-3.78,2.17S91.28,321.55,92,321.33Z"/>
          <g>
            <path class="cls-48" d="M112.43,287.9a2.27,2.27,0,0,1-3.16-1.21,2.78,2.78,0,0,1,1.82-3.2,2.27,2.27,0,0,1,3.16,1.21A2.8,2.8,0,0,1,112.43,287.9Z"/>
            <path class="cls-45" d="M112,287.66a1.57,1.57,0,0,1-2.2-.84,1.94,1.94,0,0,1,1.27-2.23,1.57,1.57,0,0,1,2.2.84A1.94,1.94,0,0,1,112,287.66Z"/>
            <ellipse class="cls-48" cx="106.82" cy="281.52" rx="2.71" ry="2.28" transform="translate(-140.37 109.59) rotate(-34.4)"/>
            <path class="cls-45" d="M107,283.49a1.58,1.58,0,0,1-2.2-.85,2,2,0,0,1,1.27-2.23,1.58,1.58,0,0,1,2.2.85A1.94,1.94,0,0,1,107,283.49Z"/>
          </g>
        </g>
        <path class="cls-24" d="M99.17,182.89c-.32-2.83-1.83-4.95-3.36-4.71s-2.51,2.71-2.18,5.55,1.82,4.94,3.36,4.71S99.49,185.73,99.17,182.89Z"/>
        <path class="cls-46" d="M93.43,200.94l20.21,49.56c5,1.31,20.21,8.79,21.63,4S115.1,205.34,93.43,200.94Z"/>
        <path class="cls-49" d="M86.3,200.2l19.12,57.45c4.86,1.34,19.21,1.66,20.75-3.16S107.61,204.73,86.3,200.2Z"/>
        <path class="cls-48" d="M102.21,263.42S52.76,279.74,53.1,296.54s20.32,83.38,20.32,83.38h7.9s32.87-69.83,35.84-93.78Z"/>
        <path class="cls-50" d="M65,344.36c-.24-35.51,24.6-64.25,35.68-61.67,5,1.16,11,13.22,11.1,24,2.76-8.21,4.77-15.44,5.41-20.57l-15-22.72S52.76,279.74,53.1,296.54c.17,9,5.93,32,11.27,51.64A27.12,27.12,0,0,0,65,344.36Z"/>
        <path class="cls-50" d="M94,280.38c-.24,27-18.49,97.65-18.49,97.65l2,3.22,1.87-3.72s16-86.24,22.56-98.14Z"/>
        <path class="cls-46" d="M53.6,307.2c16.48-6.89,47.53-38,47.53-38l15.66,25.32s7.58-22.8,3.21-44c-2.35-11.43-6.71-35.58-17.13-45.9-4.12-4.08-14.46-10.09-23.71-9.91C62.63,195,45.28,205.07,42.41,210,33.47,225.71,53.6,307.2,53.6,307.2Z"/>
        <path class="cls-51" d="M66.8,299.22a228.94,228.94,0,0,0-.43-31.7c-2.73-34.54-11.69-61.82-20-60.95a3.7,3.7,0,0,0-.86.2A13.23,13.23,0,0,0,42.41,210C33.47,225.71,53.6,307.2,53.6,307.2A70.31,70.31,0,0,0,66.8,299.22Z"/>
        <path class="cls-49" d="M62.87,248.25A71.52,71.52,0,0,0,62,237c-.82-3.74-1.71-7.22-2.66-10.4-3.17-8.58-8.17-14.13-13.8-14.13a9.17,9.17,0,0,0-4.45,1.2c-3.27,13.68,2.49,47,7.24,70C56.57,280.85,62.87,266.07,62.87,248.25Z"/>
        <path class="cls-48" d="M101.18,203.08c-9.79-9.7-21.67-12.5-32.35-9.75a39,39,0,0,0-14.92,8.24c8.87,29.72,47.17,57.72,47.17,57.72S115,234.24,101.18,203.08Z"/>
        <g>
          <path class="cls-52" d="M100.31,205c-8.7-8.61-19.36-11.09-29-8.65a36,36,0,0,0-13.5,7.3c7.66,26.36,41.79,51.19,41.79,51.19S112.37,232.6,100.31,205Z"/>
          <g>
            <path class="cls-53" d="M99.61,246c-.14-1.56-1.21-2.82-2.4-2.82s-2,1.26-1.91,2.82,1.2,2.82,2.39,2.82S99.74,247.57,99.61,246Z"/>
            <path class="cls-45" d="M99.64,245.31a2.51,2.51,0,0,0-2.12-2.49c-1,0-1.8,1.11-1.69,2.49A2.51,2.51,0,0,0,98,247.8C99,247.8,99.75,246.69,99.64,245.31Z"/>
          </g>
          <g>
            <path class="cls-53" d="M97.53,236.87c-.14-1.56-1.21-2.82-2.4-2.82s-2,1.26-1.92,2.82,1.21,2.82,2.4,2.82S97.66,238.43,97.53,236.87Z"/>
            <path class="cls-45" d="M97.56,236.17a2.51,2.51,0,0,0-2.12-2.49c-1,0-1.8,1.11-1.69,2.49a2.52,2.52,0,0,0,2.12,2.49C96.92,238.66,97.67,237.54,97.56,236.17Z"/>
          </g>
          <path class="cls-53" d="M100.31,205l-.29-.27c10.47,26.59-1.61,47.64-1.61,47.64s-26.47-19.27-38-41.87c10.78,23.65,39.49,44.9,39.49,44.9S112.37,232.6,100.31,205Z"/>
        </g>
        <path class="cls-46" d="M46.18,206.22c-8,4.31-36.46,30.47-38.88,41.06-2.09,9.16,27.92,12,32.37,11s18.53-11.2,19.61-12.18C61.88,243.71,61.61,208.29,46.18,206.22Z"/>
        <path class="cls-51" d="M23.71,249.38c-6.57-8.7,5.58-27.74,18-40.12-11.06,8.39-32.45,29-34.61,38.06-2.21,9.29,28.16,12,32.61,10.94s18.57-11.15,19.61-12.18a.74.74,0,0,0,.12-.29C46.7,254.31,29.31,256.8,23.71,249.38Z"/>
        <path class="cls-54" d="M102.47,204.73c-3.82-4.11-13.77-10.25-23-10.06-12.67.25-25.95,6.4-32.8,11.54-.27,1.17,0,2.52,1.16,2.85-1.72.62-1.42,3.4-.7,4.72,1.19,2.18,4,2.73,6.24,2.32-1.41,2.37,2.74,3.13,4.33,3.76-.32,4.1,1.43,3.73,4.91,4.22a4.26,4.26,0,0,0,4.31,4.17c-1.84,3,4.56,7.37,6.64,8.08a15.8,15.8,0,0,0,6.14.63c1.13,2.57,6.3,3.13,7.9,1-.41,2.39,3.65,3.23,4.83,1.46a3.75,3.75,0,0,0,3.83-.53c.81-.63,2.69-3.33,1.2-3.79,3.35.46,9.49-8.66,6.08-11,3.47,0,6.18-7.68,3.12-9.57a6.47,6.47,0,0,0,.56-2.61A30.6,30.6,0,0,0,102.47,204.73Z"/>
        <path class="cls-55" d="M106.62,208.9a7.65,7.65,0,0,0-.17-4.84c-.52-1.09-1.8-1.36-2.19-2.39-.88-2.32,1-5.32-2.55-5.24-.6-2.42.58-6.11-2.26-7,1-1.42,0-1.68-.45-2.73a10.84,10.84,0,0,1-.81-3.33c-.32.06-.85-.21-1.2-.15-.06-4,.29-8.64-1.36-12.21-2-4.25-5.61-8-8.67-8-1.83,0-2.92-1.77-4.87-1.57-1.08.11-1.66,1-2.58,1.12-.65.12-1.38-.31-2.05-.31-2,0-3.53,1.74-5.28,1.59-.9-.08-1.34-.63-2.33-.46-.4.07-.76.66-1.12.78-2.42.81-5,6.72-7.35,8.12s-3.2,4.71-3.19,7.51c0,1.45.66,2.84-1.3,2.26a21.3,21.3,0,0,0,0,3.19c-4.26-.35-1.78,2.8-2.87,5.18a.52.52,0,0,0-.17,0,1.23,1.23,0,0,0-1,1.55c.59,2.47,4.11,3.58,3.76,6.51-.18,1.5-1,1.41-1.68,3-.51,1.23-.51,3.25.8,3.62-1.43.64-1.11,3.35-.47,4.63a4.59,4.59,0,0,0,5.35,2.13c-1.13,2.37,2.44,3,3.82,3.62-.13,4.11,1.36,3.69,4.37,4.11.26,2.53,1.79,4.08,3.9,4.12-1.47,3.1,4.3,7.44,6.15,8.14a12.05,12.05,0,0,0,5.45.54c1.13,2.64,5.76,3.14,7,.87-.22,2.49,3.46,3.31,4.39,1.44a2.94,2.94,0,0,0,3.39-.62c.68-.67,2.17-3.51.81-4,3,.41,7.82-9.11,4.62-11.43C107.64,218.51,109.45,210.71,106.62,208.9Z"/>
        <path class="cls-56" d="M100,230.05a2.84,2.84,0,0,0,2.15-1,3.87,3.87,0,0,1-2-1.06c-1.56,1.52-5.08-.89-4-3.35-2.06,1.78-6.65-.72-7-3.92-4.42,1-6.1-.19-5.41-2.89-5.16.3-9.2-4.58-6.69-7.14-2.15-.94-3.22-3.19-2.67-5.9-3-1.72-4.62-1.93-3.16-6.09-1.23-1.2-4.67-3.41-2.75-5.36-2.12-.35-5.1-5.36-1.81-8.33-.24-1.59.3-4.51,2-4.55-1.22-.95-.57-3,.35-4.07,1.17-1.33,2-.86,2.69-2.33,1.31-2.86-1.95-5.51-1.75-8.3a1.2,1.2,0,0,1,1.48-1.18.56.56,0,0,1,.17.09,3.23,3.23,0,0,0,.59-.88c-.84-.1-1.28-.61-2.24-.44-.4.07-.76.66-1.12.78-2.42.81-5,6.72-7.35,8.12s-3.2,4.71-3.19,7.51c0,1.45.66,2.84-1.3,2.26a21.3,21.3,0,0,0,0,3.19c-4.26-.35-1.78,2.8-2.87,5.18a.52.52,0,0,0-.17,0,1.23,1.23,0,0,0-1,1.55c.59,2.47,4.11,3.58,3.76,6.51-.18,1.5-1,1.41-1.68,3-.51,1.23-.51,3.25.8,3.62-1.43.64-1.11,3.35-.47,4.63a4.59,4.59,0,0,0,5.35,2.13c-1.13,2.37,2.44,3,3.82,3.62-.13,4.11,1.36,3.69,4.37,4.11.26,2.53,1.79,4.08,3.9,4.12-1.47,3.1,4.3,7.44,6.15,8.14a12.05,12.05,0,0,0,5.45.54c1.13,2.64,5.76,3.14,7,.87-.22,2.49,3.46,3.31,4.39,1.44a2.94,2.94,0,0,0,3.39-.62C99.82,233.34,101.31,230.5,100,230.05Z"/>
        <path class="cls-25" d="M70.13,179.35c3.29,3.42,2.11,12.78,4.6,13.73s10.23-2.33,12.63-1.92,7.45,1.58,9-.07-2-16.08-2.35-18.16C90.93,154.67,56,164.64,70.13,179.35Z"/>
        <path class="cls-24" d="M50.92,294.14,48.41,297c-.63,2,3.05,7.22,4.4,7.84s4.51-.73,5.3-1.34C58.71,303.07,52,294.55,50.92,294.14Z"/>
        <g>
          <path class="cls-57" d="M32.16,330.63s-6.87-4.37-14.21-10c-8.73-6.7,1.18-29.15,10.68-26.53,5.36,1.48,16.3,8,16.3,8Z"/>
          <path class="cls-46" d="M41.19,300.18c0-.07,0-.14,0-.22-3.67-2-9.18-4.93-12.52-5.85C20.94,292,13,306.28,14.86,315.36a21.63,21.63,0,0,0,10.12.81C34.76,314.73,42,307.57,41.19,300.18Z"/>
          <path class="cls-46" d="M52,292.56c-1.46-.81-7.32,6.17-15.32,24.68s-9.5,28.55-8,29.36,4.61-8.2,12.61-26.71S53.44,293.36,52,292.56Z"/>
          <path class="cls-58" d="M52,292.56c-1.46-.81-7.32,6.17-15.32,24.68-1.33,3.07-2.47,5.91-3.46,8.51,2.36-.84,5.62-3.81,9-8.19C49.59,300.71,53.38,293.33,52,292.56Z"/>
          <path class="cls-50" d="M23.56,324.78c1.31.94,2.54,1.79,3.64,2.55,4-10.36,10.67-21.79,14-27.32-1.48-.83-3.26-1.79-5.09-2.72A96.33,96.33,0,0,0,23.56,324.78Z"/>
          <path class="cls-59" d="M36.14,297.29a92.12,92.12,0,0,0-9.56,18.49c.9-.22,1.81-.47,2.73-.79a28.56,28.56,0,0,0,4.57-2c2.78-5.3,5.54-10,7.35-12.95C39.75,299.18,38,298.22,36.14,297.29Z"/>
        </g>
        <path class="cls-24" d="M60.18,279.8c4.43,7.16,6.55,12,6.91,14.6s-7.78,9.9-10.78,9.8c-4.37-.13-9.07-16.27-9.07-16.27Z"/>
        <path class="cls-25" d="M56.42,304.2c3.07-.07,11-7.22,10.67-9.8-.27-2-1.52-5.14-4-9.61-4,2.22-6.88,8.57-6.88,16.07A27.88,27.88,0,0,0,56.42,304.2Z"/>
        <path class="cls-45" d="M55.82,271.06s5,7,5,8.47S50.8,292.35,46.12,293c-1.61.21-7.38-9.09-7.38-9.09Z"/>
        <path class="cls-60" d="M60.84,279.53a3.56,3.56,0,0,0-.38-1.1,10.82,10.82,0,0,0-5.76,2.36,13.46,13.46,0,0,0-5.05,10.54C54.6,288,60.89,280.67,60.84,279.53Z"/>
        <path class="cls-46" d="M9.76,250.21C18.25,269,36.83,289.85,39.4,291.09S58.68,275,58.79,273.33,40,244.22,40,244.22Z"/>
        <path class="cls-51" d="M41.85,280.77C31.43,270.18,23.19,253.52,22,244.43L7,248.87c1.09,6,29.8,41,32.37,42.22,1,.5,4.36-2,8-5.3A68.62,68.62,0,0,1,41.85,280.77Z"/>
        <path class="cls-33" d="M92.63,384H77.9s-.54-7.44,2.34-8.47S92.63,384,92.63,384Z"/>
        <path class="cls-61" d="M67,384H79.74s-2-7.44-4.84-8.47S67,384,67,384Z"/>
        <path class="cls-24" d="M68.72,184.59c-1.28-2.45-3.39-3.71-4.72-2.79s-1.36,3.64-.08,6.09,3.39,3.7,4.71,2.79S70,187,68.72,184.59Z"/>
        <path class="cls-44" d="M68,185.67c-.82-1.57-2.16-2.37-3-1.79s-.87,2.33,0,3.9,2.16,2.36,3,1.78S68.85,187.23,68,185.67Z"/>
        <path class="cls-24" d="M68.36,187.93c-.42-.8-1.22-1.13-1.8-.74a1.73,1.73,0,0,0-.27,2.17c.41.81,1.22,1.14,1.79.75A1.74,1.74,0,0,0,68.36,187.93Z"/>
        <path class="cls-55" d="M75,181.24a2.41,2.41,0,0,1-1.82-3.94c1-1,6-3.77,7.2-2.91s2,3.13,1.16,4.28S76.38,181.4,75,181.24Z"/>
        <path class="cls-55" d="M93.75,179.68a2.56,2.56,0,0,0,.66-4.25c-1.06-.76-5.84-2.21-6.64-1.09s-1,3.51,0,4.42S92.67,180.15,93.75,179.68Z"/>
        <polygon class="cls-62" points="101.85 279.39 97.36 279.32 98.44 274.99 101.28 275.4 101.85 279.39"/>
        <path class="cls-63" d="M85.33,182c1.43,3.1,5,9.91,4.49,10.84s-4.67-.72-5.21-1.14-.18-9.6-.18-9.6Z"/>
        <ellipse class="cls-48" cx="99.58" cy="264.11" rx="2.04" ry="3.03"/>
        <path class="cls-45" d="M101.26,263.7c0-1.17-.63-2.11-1.41-2.11s-1.42.94-1.42,2.11.63,2.11,1.42,2.11S101.26,264.86,101.26,263.7Z"/>
        <g>
          <path class="cls-51" d="M47.25,275a1.65,1.65,0,0,0-2.89.48,4.09,4.09,0,0,0,.8,4.2,1.65,1.65,0,0,0,2.89-.48A4.06,4.06,0,0,0,47.25,275Z"/>
          <path class="cls-45" d="M46.82,275.19a1.15,1.15,0,0,0-2,.33,2.83,2.83,0,0,0,.56,2.92,1.15,1.15,0,0,0,2-.33A2.83,2.83,0,0,0,46.82,275.19Z"/>
          <path class="cls-51" d="M42.22,278.39a1.65,1.65,0,0,0-2.88.48,4.06,4.06,0,0,0,.8,4.2A1.64,1.64,0,0,0,43,282.6,4.08,4.08,0,0,0,42.22,278.39Z"/>
          <path class="cls-45" d="M41.79,278.54a1.15,1.15,0,0,0-2,.33,2.85,2.85,0,0,0,.56,2.93,1.15,1.15,0,0,0,2-.33A2.85,2.85,0,0,0,41.79,278.54Z"/>
        </g>
        <polygon class="cls-51" points="64.13 270.92 75.73 266.06 75.26 271.28 64.6 275.61 64.13 270.92"/>
        <path class="cls-24" d="M74.31,170.85c8.82-5.57,16.4-1.17,16.4-1.17A23.56,23.56,0,0,0,74.31,170.85Z"/>
        <path class="cls-24" d="M75.86,168.19a12.55,12.55,0,0,1,12.59-.9A18,18,0,0,0,75.86,168.19Z"/>
        <path class="cls-64" d="M79.67,187.3a3.77,3.77,0,0,1,.83.11h0c-.08-1.62-.85-2.93-1.71-2.93s-1.48,1.31-1.4,2.93a4.91,4.91,0,0,0,.08.67A3.45,3.45,0,0,1,79.67,187.3Z"/>
        <path class="cls-64" d="M92.79,186.79a4.15,4.15,0,0,1,.8.36h0c.11-1.63-.49-3.16-1.32-3.42s-1.6.84-1.7,2.47a5.29,5.29,0,0,0,0,.69A3,3,0,0,1,92.79,186.79Z"/>
        <path class="cls-56" d="M72.81,195.36c5,4.44,11,3.71,15.39-.76,0,0-3.5,5.72-7.76,6.13C73.16,201.42,72.81,195.36,72.81,195.36Z"/>
        <path class="cls-56" d="M99.34,189.49c-1.58,5.72-6.2,7.4-11.27,5.19,0,0,5,3.63,8.19,2.36C101.73,194.87,99.34,189.49,99.34,189.49Z"/>
        <path class="cls-56" d="M86.58,200c2.31,5.49,5,.29,5.15-.55A5.61,5.61,0,0,1,86.58,200Z"/>
      </g>
    </g>
  </g>
</svg>
