<svg xmlns="http://www.w3.org/2000/svg" xmlns:xlink="http://www.w3.org/1999/xlink" width="400" height="400" viewBox="0 0 400 400">
  <defs>
    <style>
      .cls-1 {
        mask: url(#mask);
        filter: url(#luminosity-noclip-3);
      }

      .cls-13, .cls-2, .cls-22, .cls-4, .cls-42, .cls-44, .cls-51 {
        mix-blend-mode: multiply;
      }

      .cls-2 {
        fill: url(#linear-gradient);
      }

      .cls-3 {
        mask: url(#mask-2);
        filter: url(#luminosity-noclip-4);
      }

      .cls-4 {
        fill: url(#linear-gradient-2);
      }

      .cls-5 {
        isolation: isolate;
      }

      .cls-6 {
        fill: none;
      }

      .cls-7 {
        fill: #d8d5ed;
      }

      .cls-8 {
        fill: #cfccd9;
      }

      .cls-15, .cls-9 {
        fill: #6b2505;
      }

      .cls-10 {
        fill: #7d7d7d;
      }

      .cls-11, .cls-12, .cls-13 {
        fill: #f8a63f;
      }

      .cls-12, .cls-15, .cls-16, .cls-19, .cls-20, .cls-24 {
        mix-blend-mode: screen;
      }

      .cls-12, .cls-19 {
        opacity: 0.5;
      }

      .cls-14 {
        fill: #3f3466;
      }

      .cls-16 {
        fill: #915336;
      }

      .cls-17 {
        fill: #1a0901;
      }

      .cls-18 {
        fill: #cbb695;
      }

      .cls-19 {
        fill: #bfa891;
      }

      .cls-21, .cls-22 {
        fill: #9e5a3a;
      }

      .cls-22 {
        opacity: 0.35;
      }

      .cls-23, .cls-24 {
        fill: #ab6646;
      }

      .cls-25 {
        fill: #f48c58;
      }

      .cls-26 {
        fill: #5e2f0f;
      }

      .cls-27 {
        fill: #3e2ea6;
      }

      .cls-28 {
        fill: #895f42;
      }

      .cls-29 {
        fill: #ffae6c;
      }

      .cls-30 {
        fill: #ffeab6;
      }

      .cls-31 {
        fill: #c9ad5d;
      }

      .cls-32 {
        fill: #aa9048;
      }

      .cls-33 {
        fill: #efd497;
      }

      .cls-34 {
        fill: #6558b8;
      }

      .cls-35 {
        fill: #edd49d;
      }

      .cls-36 {
        fill: #7c3f15;
      }

      .cls-37 {
        fill: #c1ac67;
      }

      .cls-38 {
        fill: #edd858;
      }

      .cls-39 {
        fill: #a38b48;
      }

      .cls-40 {
        fill: #fff3d9;
      }

      .cls-41 {
        mask: url(#mask-3);
      }

      .cls-42, .cls-44 {
        opacity: 0.3;
      }

      .cls-42 {
        fill: url(#linear-gradient-3);
      }

      .cls-43 {
        mask: url(#mask-4);
      }

      .cls-44 {
        fill: url(#linear-gradient-4);
      }

      .cls-45 {
        fill: #2f237d;
      }

      .cls-46 {
        fill: #8b82ca;
      }

      .cls-47 {
        fill: #704c2c;
      }

      .cls-48 {
        fill: #f7cd79;
      }

      .cls-49 {
        fill: #ce9c42;
      }

      .cls-50 {
        fill: #6d5848;
      }

      .cls-51 {
        fill: #612800;
        opacity: 0.4;
      }

      .cls-52 {
        fill: #66320e;
      }

      .cls-53 {
        fill: #d6a07c;
      }

      .cls-54 {
        fill: #ba805a;
      }

      .cls-55 {
        fill: #8e5433;
      }

      .cls-56 {
        fill: #703c22;
      }

      .cls-57 {
        fill: #bf7d5c;
      }

      .cls-58 {
        fill: #d3b96e;
      }

      .cls-59 {
        filter: url(#luminosity-noclip-2);
      }

      .cls-60 {
        filter: url(#luminosity-noclip);
      }
    </style>
    <filter id="luminosity-noclip" x="225.86" y="-6295.64" width="62.63" height="32766" filterUnits="userSpaceOnUse" color-interpolation-filters="sRGB">
      <feFlood flood-color="#fff" result="bg"/>
      <feBlend in="SourceGraphic" in2="bg"/>
    </filter>
    <mask id="mask" x="225.86" y="-6295.64" width="62.63" height="32766" maskUnits="userSpaceOnUse">
      <g class="cls-60"/>
    </mask>
    <linearGradient id="linear-gradient" x1="237.07" y1="127.01" x2="262.42" y2="162.82" gradientUnits="userSpaceOnUse">
      <stop offset="0"/>
      <stop offset="1" stop-color="#b3b3b3"/>
    </linearGradient>
    <filter id="luminosity-noclip-2" x="224.22" y="-6295.64" width="64.92" height="32766" filterUnits="userSpaceOnUse" color-interpolation-filters="sRGB">
      <feFlood flood-color="#fff" result="bg"/>
      <feBlend in="SourceGraphic" in2="bg"/>
    </filter>
    <mask id="mask-2" x="224.22" y="-6295.64" width="64.92" height="32766" maskUnits="userSpaceOnUse">
      <g class="cls-59"/>
    </mask>
    <linearGradient id="linear-gradient-2" x1="249.17" y1="129.84" x2="262.42" y2="201.78" xlink:href="#linear-gradient"/>
    <filter id="luminosity-noclip-3" x="225.86" y="132.59" width="62.63" height="52.66" filterUnits="userSpaceOnUse" color-interpolation-filters="sRGB">
      <feFlood flood-color="#fff" result="bg"/>
      <feBlend in="SourceGraphic" in2="bg"/>
    </filter>
    <mask id="mask-3" x="225.86" y="132.59" width="62.63" height="52.66" maskUnits="userSpaceOnUse">
      <g class="cls-1">
        <path class="cls-2" d="M271,132.59s13.57,35.48,17.49,43.65c0,0-25.83,8.51-26,9s-36.63-31.72-36.63-31.72S242.21,133.24,271,132.59Z"/>
      </g>
    </mask>
    <linearGradient id="linear-gradient-3" x1="237.07" y1="127.01" x2="262.42" y2="162.82" gradientUnits="userSpaceOnUse">
      <stop offset="0" stop-color="#fff7d3"/>
      <stop offset="1" stop-color="#7f3700"/>
    </linearGradient>
    <filter id="luminosity-noclip-4" x="224.22" y="136.47" width="64.92" height="57.97" filterUnits="userSpaceOnUse" color-interpolation-filters="sRGB">
      <feFlood flood-color="#fff" result="bg"/>
      <feBlend in="SourceGraphic" in2="bg"/>
    </filter>
    <mask id="mask-4" x="224.22" y="136.47" width="64.92" height="57.97" maskUnits="userSpaceOnUse">
      <g class="cls-3">
        <path class="cls-4" d="M224.22,157.62c6-10.69,26.37-21.39,44-21.14,0,0,15,28.81,20.88,47.12-12.1,1-20.32,3.75-27.35,10.84L252,181.8C243.31,179.07,231.69,159.61,224.22,157.62Z"/>
      </g>
    </mask>
    <linearGradient id="linear-gradient-4" x1="249.17" y1="129.84" x2="262.42" y2="201.78" xlink:href="#linear-gradient-3"/>
  </defs>
  <g class="cls-5">
    <g id="Capa_1" data-name="Capa 1">
      <rect class="cls-6" width="400" height="400"/>
      <path class="cls-7" d="M200,81.94v-70C96.13,11.92,11.92,96.13,11.92,200S96.13,388.08,200,388.08v-70a118.06,118.06,0,0,1,0-236.12Z"/>
      <path class="cls-8" d="M200,388.08c103.87,0,188.08-84.21,188.08-188.08S303.87,11.92,200,11.92v70a118.06,118.06,0,0,1,0,236.12Z"/>
      <g>
        <polygon class="cls-9" points="66.07 330.94 55.18 360.28 60.41 360.28 75.97 330.94 66.07 330.94"/>
        <path class="cls-10" d="M157.88,116.68,128,183.94l-2.76-1.28L157,116.26a.5.5,0,0,1,.67-.24h0A.5.5,0,0,1,157.88,116.68Z"/>
        <path class="cls-10" d="M80.66,116.26l31.73,66.4-2.76,1.28-29.9-67.26A.5.5,0,0,1,80,116h0A.5.5,0,0,1,80.66,116.26Z"/>
        <g>
          <path class="cls-11" d="M118.81,181.78c-16.4,0-29.7,7.69-29.7,17.17H148.5C148.5,189.47,135.2,181.78,118.81,181.78Z"/>
          <path class="cls-12" d="M97.78,199h7c0-9.48,6.29-17.17,14-17.17C107.19,181.78,97.78,189.47,97.78,199Z"/>
          <path class="cls-13" d="M118.81,181.78c10.95,0,19.82,7.69,19.82,17.17h9.87C148.5,189.47,135.2,181.78,118.81,181.78Z"/>
        </g>
        <g>
          <rect class="cls-11" x="47.3" y="320.46" width="143.02" height="10.45"/>
          <rect class="cls-13" x="47.3" y="320.46" width="143.02" height="10.45"/>
        </g>
        <path class="cls-11" d="M203.6,207.5a8.09,8.09,0,0,0-7.72-7.73c-36.76-1.64-116.94-1.59-153.69,0a7.92,7.92,0,0,0-7.39,5.48,9,9,0,0,0-.79,3c-2.14,25.54-2.19,78.64,0,106.27a8.15,8.15,0,0,0,7.72,7.72c37.61,2.32,117.79,2.3,153.69,0a8,8,0,0,0,7.4-5.47,9.26,9.26,0,0,0,.78-3.05C205.74,288.23,205.79,235.12,203.6,207.5Z"/>
        <g>
          <path d="M115.67,318.49c-28.08,0-54-.6-71.17-1.66a4.55,4.55,0,0,1-4.33-4.39c-2.06-25.93-2.06-77.43,0-102a5.62,5.62,0,0,1,.48-1.83l.09-.2.06-.21a4.33,4.33,0,0,1,4.09-2.93c17.11-.74,43.13-1.16,71.39-1.16,28,0,60.28.42,76.9,1.16a4.48,4.48,0,0,1,4.28,4.39c2.05,25.94,2.05,77.43,0,102a5.93,5.93,0,0,1-.47,1.84l-.1.2-.06.21a4.44,4.44,0,0,1-4.15,2.92c-16.54,1.06-48.85,1.66-77,1.66Z"/>
          <path class="cls-14" d="M115.67,316.83c-28,0-53.95-.61-71.07-1.66a2.92,2.92,0,0,1-2.77-2.86c-2-25.87-2-77.22,0-101.76a3.83,3.83,0,0,1,.33-1.28l.13-.3.1-.32A2.67,2.67,0,0,1,45,206.91c17.09-.74,43.09-1.16,71.32-1.16,28,0,60.23.42,76.82,1.16a2.8,2.8,0,0,1,2.69,2.85c2.05,25.87,2.05,77.23,0,101.76a3.6,3.6,0,0,1-.32,1.28l-.14.31-.1.31a2.81,2.81,0,0,1-2.66,1.75c-16.5,1.05-48.77,1.66-76.89,1.66Z"/>
          <path class="cls-15" d="M42.5,313c-2-25.87-2-77.23,0-101.76a3.6,3.6,0,0,1,.32-1.28l.14-.3.1-.32a2.66,2.66,0,0,1,2.56-1.74c17.09-.74,43.09-1.16,71.32-1.16,28,0,60.22.42,76.82,1.16a2.77,2.77,0,0,1,1.45.46,2.64,2.64,0,0,0-2.12-1.13c-16.59-.74-48.84-1.16-76.82-1.16-28.23,0-54.23.42-71.32,1.16a2.67,2.67,0,0,0-2.56,1.74l-.1.32-.13.3a3.83,3.83,0,0,0-.33,1.28c-2,24.54-2,75.89,0,101.76a3,3,0,0,0,1.25,2.34A3.21,3.21,0,0,1,42.5,313Z"/>
        </g>
        <g>
          <path class="cls-16" d="M105,304.28c-18.52,0-36.51-1.15-48.12-3.08a7.64,7.64,0,0,1-6.45-6.44c-1.63-8.55-2.56-21.69-2.55-36.06s.92-27.62,2.55-36.33a7.62,7.62,0,0,1,6.44-6.44c10.63-2,27.29-3.08,45.71-3.08s36.5,1.15,48.11,3.08a7.59,7.59,0,0,1,6.45,6.43c1.63,8.55,2.57,21.7,2.56,36.06s-.92,27.62-2.56,36.34a7.6,7.6,0,0,1-6.44,6.44c-10.62,1.95-27.27,3.08-45.7,3.08Z"/>
          <path d="M108.3,307.62c-18.52,0-36.51-1.15-48.12-3.08a7.63,7.63,0,0,1-6.45-6.44c-1.63-8.55-2.56-21.69-2.55-36.06s.92-27.62,2.55-36.33a7.62,7.62,0,0,1,6.44-6.44c10.63-2,27.28-3.08,45.71-3.08s36.5,1.15,48.11,3.07a7.61,7.61,0,0,1,6.45,6.44c1.63,8.55,2.56,21.7,2.56,36.06s-.92,27.62-2.56,36.34a7.6,7.6,0,0,1-6.44,6.44c-10.62,1.95-27.28,3.08-45.7,3.08Z"/>
          <path class="cls-9" d="M106.63,306c-18.52,0-36.51-1.15-48.12-3.08a7.64,7.64,0,0,1-6.45-6.44c-1.63-8.55-2.56-21.69-2.55-36.06s.92-27.62,2.55-36.33a7.62,7.62,0,0,1,6.44-6.44c10.63-2,27.29-3.08,45.71-3.08s36.5,1.15,48.11,3.07a7.61,7.61,0,0,1,6.45,6.44c1.63,8.55,2.57,21.7,2.56,36.06s-.92,27.62-2.56,36.34a7.6,7.6,0,0,1-6.44,6.44c-10.62,1.95-27.28,3.08-45.7,3.08Z"/>
        </g>
        <g>
          <path class="cls-17" d="M106.63,304.28c-18.43,0-36.32-1.15-47.84-3.06a6,6,0,0,1-5.09-5.1c-1.61-8.45-2.53-21.48-2.52-35.75s.91-27.41,2.52-36a6,6,0,0,1,5.11-5.1c10.52-1.94,27.07-3.05,45.4-3.05s36.31,1.14,47.84,3.05a6,6,0,0,1,5.08,5.11c1.61,8.45,2.54,21.48,2.53,35.74s-.91,27.41-2.53,36a6,6,0,0,1-5.1,5.11c-10.52,1.93-27.07,3-45.4,3Z"/>
          <path class="cls-18" d="M106.59,302.43a292.23,292.23,0,0,1-45.78-3.61,5.13,5.13,0,0,1-4.42-4.45,185.72,185.72,0,0,1-3.09-34,188.6,188.6,0,0,1,3.1-34.28,5.12,5.12,0,0,1,4.44-4.45,249,249,0,0,1,43.4-3.61A293.49,293.49,0,0,1,150,221.64a5.12,5.12,0,0,1,4.41,4.45,185.68,185.68,0,0,1,3.1,34,188.82,188.82,0,0,1-3.1,34.29,5.15,5.15,0,0,1-4.44,4.45,249.23,249.23,0,0,1-43.4,3.6Z"/>
          <path class="cls-19" d="M64.34,291.22c-1.07,1.73-4,.06-4.31-1.94-3.48-21.06-4.09-56.63-.19-61.78,5.62-7.41,82.42-7.72,88.62,0C153.93,234.32,97.11,238.54,64.34,291.22Z"/>
          <path class="cls-19" d="M91.78,299.15c15.23.62,39.81,1.09,54.64-1.92a5.6,5.6,0,0,0,4.41-4.62c2.38-15.08,2.68-22.73,2.32-28a.81.81,0,0,0-1.59-.15c-3.07,11.36-4.91,14.83-13.06,22.57-6.58,6.26-32.82,9.61-46.76,11A.58.58,0,0,0,91.78,299.15Z"/>
        </g>
        <g>
          <g class="cls-20">
            <rect class="cls-9" x="166.38" y="248.95" width="25.79" height="0.78"/>
            <rect class="cls-9" x="165.75" y="236.01" width="26.02" height="0.78"/>
            <rect class="cls-9" x="166.44" y="250.8" width="25.72" height="0.78"/>
            <rect class="cls-9" x="166.52" y="254.49" width="25.71" height="0.78"/>
            <rect class="cls-9" x="166.49" y="252.64" width="25.74" height="0.78"/>
            <rect class="cls-9" x="166.52" y="256.34" width="25.71" height="0.78"/>
            <rect class="cls-9" x="165.89" y="237.86" width="26.02" height="0.78"/>
            <rect class="cls-9" x="166.02" y="239.7" width="25.88" height="0.78"/>
            <rect class="cls-9" x="166.22" y="243.4" width="25.79" height="0.78"/>
            <rect class="cls-9" x="166.14" y="241.55" width="25.82" height="0.78"/>
            <rect class="cls-9" x="166.28" y="245.25" width="25.8" height="0.78"/>
            <rect class="cls-9" x="166.34" y="247.1" width="25.8" height="0.78"/>
          </g>
          <g>
            <rect x="166.38" y="248.69" width="25.79" height="0.78"/>
            <rect x="165.75" y="235.75" width="26.02" height="0.78"/>
            <rect x="166.44" y="250.54" width="25.72" height="0.78"/>
            <rect x="166.52" y="254.23" width="25.71" height="0.78"/>
            <rect x="166.49" y="252.38" width="25.74" height="0.78"/>
            <rect x="166.52" y="256.08" width="25.71" height="0.78"/>
            <rect x="165.89" y="237.6" width="26.02" height="0.78"/>
            <rect x="166.02" y="239.44" width="25.88" height="0.78"/>
            <rect x="166.22" y="243.14" width="25.79" height="0.78"/>
            <rect x="166.14" y="241.29" width="25.82" height="0.78"/>
            <rect x="166.28" y="244.99" width="25.8" height="0.78"/>
            <rect x="166.34" y="246.84" width="25.8" height="0.78"/>
          </g>
        </g>
        <g>
          <g class="cls-20">
            <rect class="cls-9" x="166.38" y="270.88" width="25.79" height="0.78"/>
            <rect class="cls-9" x="165.75" y="283.82" width="26.02" height="0.78"/>
            <rect class="cls-9" x="166.44" y="269.04" width="25.72" height="0.78"/>
            <rect class="cls-9" x="166.52" y="265.34" width="25.71" height="0.78"/>
            <rect class="cls-9" x="166.49" y="267.19" width="25.74" height="0.78"/>
            <rect class="cls-9" x="166.52" y="263.49" width="25.71" height="0.78"/>
            <rect class="cls-9" x="165.89" y="281.98" width="26.02" height="0.78"/>
            <rect class="cls-9" x="166.02" y="280.13" width="25.88" height="0.78"/>
            <rect class="cls-9" x="166.22" y="276.43" width="25.79" height="0.78"/>
            <rect class="cls-9" x="166.14" y="278.28" width="25.82" height="0.78"/>
            <rect class="cls-9" x="166.28" y="274.58" width="25.8" height="0.78"/>
            <rect class="cls-9" x="166.34" y="272.73" width="25.8" height="0.78"/>
          </g>
          <g>
            <rect x="166.38" y="270.62" width="25.79" height="0.78"/>
            <rect x="165.75" y="283.56" width="26.02" height="0.78"/>
            <rect x="166.44" y="268.77" width="25.72" height="0.78"/>
            <rect x="166.52" y="265.08" width="25.71" height="0.78"/>
            <rect x="166.49" y="266.93" width="25.74" height="0.78"/>
            <rect x="166.52" y="263.23" width="25.71" height="0.78"/>
            <rect x="165.89" y="281.71" width="26.02" height="0.78"/>
            <rect x="166.02" y="279.87" width="25.88" height="0.78"/>
            <rect x="166.22" y="276.17" width="25.79" height="0.78"/>
            <rect x="166.14" y="278.02" width="25.82" height="0.78"/>
            <rect x="166.28" y="274.32" width="25.8" height="0.78"/>
            <rect x="166.34" y="272.47" width="25.8" height="0.78"/>
          </g>
        </g>
        <g>
          <g>
            <path class="cls-17" d="M172.44,224.28a2,2,0,1,0,2,2A2,2,0,0,0,172.44,224.28Z"/>
            <path class="cls-21" d="M172.11,224a2,2,0,1,0,2,2A2,2,0,0,0,172.11,224Z"/>
            <path class="cls-22" d="M172.11,228a2,2,0,0,0,2-2h-2Z"/>
            <path class="cls-23" d="M172.11,225a1,1,0,1,0,1,1A1,1,0,0,0,172.11,225Z"/>
          </g>
          <g>
            <circle class="cls-17" cx="180.03" cy="226.32" r="2.04"/>
            <circle class="cls-21" cx="179.7" cy="225.99" r="2.04"/>
            <path class="cls-22" d="M179.7,228a2,2,0,0,0,2-2h-2Z"/>
            <path class="cls-23" d="M179.7,225a1,1,0,1,0,1,1A1,1,0,0,0,179.7,225Z"/>
          </g>
          <g>
            <circle class="cls-17" cx="187.62" cy="226.32" r="2.04" transform="translate(-46.98 49.16) rotate(-13.28)"/>
            <circle class="cls-21" cx="187.29" cy="225.99" r="2.04" transform="translate(-46.91 49.07) rotate(-13.28)"/>
            <path class="cls-22" d="M187.29,228a2,2,0,0,0,2-2h-2Z"/>
            <path class="cls-23" d="M187.29,225a1,1,0,1,0,1,1A1,1,0,0,0,187.29,225Z"/>
          </g>
        </g>
        <g>
          <circle class="cls-17" cx="177.94" cy="296.26" r="6.17" transform="translate(-146.26 176.55) rotate(-38.74)"/>
          <circle class="cls-21" cx="177.61" cy="295.93" r="6.17" transform="translate(-146.12 176.27) rotate(-38.74)"/>
          <path class="cls-22" d="M182.71,292.47l-10.21,6.91a6.16,6.16,0,1,0,10.21-6.91Z"/>
          <g>
            <rect class="cls-23" x="169.28" y="294.78" width="16.65" height="2.29" rx="0.57" transform="translate(-135.27 150.24) rotate(-34.06)"/>
            <path class="cls-24" d="M171.21,301.16l-.64-1a.55.55,0,0,1,.15-.78l12.85-8.69a.55.55,0,0,1,.48-.07.55.55,0,0,0-.66,0l-12.85,8.68a.57.57,0,0,0-.15.79l.64,1a.56.56,0,0,0,.31.22A.53.53,0,0,1,171.21,301.16Z"/>
          </g>
        </g>
        <polygon class="cls-9" points="54.01 330.94 43.13 360.28 48.36 360.28 63.92 330.94 54.01 330.94"/>
        <polygon class="cls-9" points="170.95 330.94 181.83 360.28 176.61 360.28 161.04 330.94 170.95 330.94"/>
        <polygon class="cls-9" points="183.15 330.94 194.03 360.28 188.81 360.28 173.24 330.94 183.15 330.94"/>
      </g>
      <g>
        <path class="cls-25" d="M249.6,183.5c-.56-5.1-.37-14.81,2.05-13.5s2.8,13.44,2.8,13.44Z"/>
        <path class="cls-26" d="M255.69,191.33c1.07,6.74,11.55,8.86,15.68-1.24C278.09,173.67,254.2,181.88,255.69,191.33Z"/>
        <path class="cls-25" d="M254.45,193.79c.43,2.57,8.13,3.09,11.57-1.59,6.25-8.48-2.24-8.58-6.25-4.29C258.87,188.87,254.45,193.79,254.45,193.79Z"/>
        <path class="cls-27" d="M291.89,96.92c-6.22,9-17.41,25.13-25.13,73.14l12.69,2.49Z"/>
        <polygon class="cls-28" points="342.01 347.2 341.98 336.11 333.37 334.99 335.04 349.15 342.01 347.2"/>
        <polygon class="cls-28" points="314.35 348.75 311.92 337.93 320.13 334.95 321.62 349.13 314.35 348.75"/>
        <polygon class="cls-29" points="308.75 81.74 310.99 89.21 325.85 85.23 321.37 50.52 308.75 81.74"/>
        <path class="cls-25" d="M322,65.57S325.93,87,311,89.21l-4.17-11.45Z"/>
        <polygon class="cls-30" points="305.82 93.69 309.06 86.97 326.8 82.77 329.46 93.44 305.82 93.69"/>
        <path class="cls-26" d="M291.14,184.74s64.69,34.34,70.16,33.84c2-7.72-11.44-84.59-21.89-86.58S291.14,184.74,291.14,184.74Z"/>
        <path class="cls-31" d="M311.05,345s9.95-.5,12.94-5.47c0,0-20.3-106.18-14.41-127.76L323,213.6l8.46,126.88s9.95,4,13.43,2.49l1.25-160s-51.75-6-63.69-1.49C276.22,202.65,311.05,345,311.05,345Z"/>
        <g>
          <path class="cls-32" d="M310.07,212.87l12.92.82-17.34-5.23c-5.54,20.33,13.87,121.61,16.14,133.3a7.79,7.79,0,0,0,2.2-2.27S304.18,234.46,310.07,212.87Z"/>
          <path class="cls-32" d="M342.18,182.57l-1.52,160.55a8.35,8.35,0,0,0,4.22-.15l1.25-160Z"/>
        </g>
        <path class="cls-30" d="M281.69,185.3l64.44-.56L343.89,92.2l-27.74-2c-5.1-.87-14.8,4.36-20.53,3C295.62,93.19,272.24,112.66,281.69,185.3Z"/>
        <path class="cls-33" d="M282.22,181.31c5-36,10-71.94,23.54-88.95L294.64,95S276.11,140.33,282.22,181.31Z"/>
        <path class="cls-33" d="M338.63,172.72c-5.51,1.95-10.37,8.57-5.15,12.08l12.4.07Z"/>
        <path class="cls-33" d="M346.25,184.74C330.58,173,316,113.57,327.35,91.92l14.24,16.51Z"/>
        <path class="cls-34" d="M361.3,218.58c-2-7.46-48-104.77-32.54-130.14,2.74,3.23,6.52,2.6,13.39,0,14.92-5.6,23.59,13.57,15.42,42.3C348.12,161.79,363.6,198,361.3,218.58Z"/>
        <polygon class="cls-27" points="351.1 155.45 340.21 165.4 345.88 181.38 355.95 168.51 351.1 155.45"/>
        <path class="cls-27" d="M360.06,128c-7.46,9.7-2.8,36.2-11,31.72-5.35-2.92,1.12-48.14,1.12-48.14Z"/>
        <path class="cls-34" d="M282.07,184.24c.87-6.84-.38-76.37,24.75-92.67-10.45,2.86-9.63-1.72-15.67,2.37C275.73,112.8,276.71,168.23,282.07,184.24Z"/>
        <polygon class="cls-35" points="309.06 92.69 311.05 87.72 314.78 86.72 319.76 93.94 309.06 92.69"/>
        <polygon class="cls-36" points="282.63 189.59 343.26 190.72 343.64 186.42 282.5 187.6 282.63 189.59"/>
        <rect class="cls-37" x="288.22" y="186.33" width="1.87" height="5.04"/>
        <rect class="cls-37" x="297.18" y="185.21" width="1.87" height="5.04"/>
        <rect class="cls-37" x="317.7" y="185.58" width="1.87" height="5.04"/>
        <rect class="cls-37" x="328.53" y="185.53" width="1.87" height="5.5"/>
        <rect class="cls-37" x="336.18" y="185.49" width="1.87" height="5.5"/>
        <polygon class="cls-38" points="312.64 186.2 304.62 186.27 304.64 191.09 312.69 191.42 312.64 186.2"/>
        <path class="cls-32" d="M342.13,207.6l-7-11.82S346.69,188.91,342.13,207.6Z"/>
        <path class="cls-39" d="M284.78,206l3.47-12S278.47,189.39,284.78,206Z"/>
        <polygon class="cls-30" points="334.33 124.43 344.69 125.03 339.52 115.65 334.33 124.43"/>
        <path class="cls-40" d="M271,132.59s13.57,35.48,17.49,43.65c0,0-25.83,8.51-26,9s-36.63-31.72-36.63-31.72S242.21,133.24,271,132.59Z"/>
        <g class="cls-41">
          <path class="cls-42" d="M271,132.59s13.57,35.48,17.49,43.65c0,0-25.83,8.51-26,9s-36.63-31.72-36.63-31.72S242.21,133.24,271,132.59Z"/>
        </g>
        <path class="cls-40" d="M224.22,157.62c6-10.69,26.37-21.39,44-21.14,0,0,15,28.81,20.88,47.12-12.1,1-20.32,3.75-27.35,10.84L252,181.8C243.31,179.07,231.69,159.61,224.22,157.62Z"/>
        <g class="cls-43">
          <path class="cls-44" d="M224.22,157.62c6-10.69,26.37-21.39,44-21.14,0,0,15,28.81,20.88,47.12-12.1,1-20.32,3.75-27.35,10.84L252,181.8C243.31,179.07,231.69,159.61,224.22,157.62Z"/>
        </g>
        <path class="cls-29" d="M249.6,183.5a21,21,0,0,1,13.56-5.6c5-.25,5.28,4.39-.59,4.39s-11,4.94-11,4.94Z"/>
        <path class="cls-29" d="M251.59,187.23c-1.25-2.86,7.06-7.81,10-4s-7.74,8.68-7.74,8.68Z"/>
        <path class="cls-29" d="M253.07,190.07c2.23-1.72,7.7-5.7,10-2.07s-8.38,6.41-8.38,6.41Z"/>
        <path class="cls-25" d="M346.73,180.59c2.17,0,.09,10.87-7,6.76S346.73,180.59,346.73,180.59Z"/>
        <path class="cls-25" d="M346.29,182.54c1.63.8,4.66-3,1-4.25S342.28,180.58,346.29,182.54Z"/>
        <path class="cls-29" d="M333.09,179.81c0,3.06,5,7.7,8.48,7.93,0,0,10.56-18,20.8-20.08l-8.48-8.38C348,168.51,336.34,174.29,333.09,179.81Z"/>
        <path class="cls-25" d="M353.89,159.28c-2.59,4.07-6.3,7.47-9.93,10.47l6.36,6.2c3.57-3.88,7.84-7.44,12.05-8.29Z"/>
        <path class="cls-34" d="M356.58,93.94s28.11,42.29,27.11,50-27.61,33.59-27.61,33.59L347,163.47s18.35-19.47,18.1-22.95-24.94-30.66-20-38.87S356.58,93.94,356.58,93.94Z"/>
        <path class="cls-45" d="M346.44,162.54l3.17,5.22c3.14-3.36,20.63-24.89,20.4-28-.18-2.49-19.75-25.48-20.21-22.89-1.31,7.28,14.59,21.85,14.74,23.89C364.79,144.19,346.44,162.54,346.44,162.54Z"/>
        <path class="cls-45" d="M350.78,121.61c-5-10.73-5.3-14,.7-3.48Z"/>
        <path class="cls-45" d="M352,123.54c-9.62-6.93-11.27-10.31-.91-4.07Z"/>
        <path class="cls-45" d="M366.59,139c6.34-2.24,14-.75.56,2.42Z"/>
        <path class="cls-45" d="M366.56,139.56c4.9,1,8.95,5.88-.73,2.43Z"/>
        <polygon class="cls-46" points="332.66 124.24 332.5 127.27 345.35 128.15 346.01 124.2 332.66 124.24"/>
        <path class="cls-33" d="M308.12,183.57c-6.06-35.78,2.28-81.24,4.57-89.14-4.75,32.43-6.22,61.21-2.52,89.33Z"/>
        <polygon class="cls-47" points="309.31 94.25 311.73 89.21 313.97 88.65 316.45 94.1 311.7 96.78 309.31 94.25"/>
        <path class="cls-47" d="M313.19,94.24s-4.69,55-3.26,69l-4,10.37-3.64-10.36a509.89,509.89,0,0,1,8.84-68.6Z"/>
        <path class="cls-46" d="M286.36,109.8c2.56-9.54,5.94-17.6,10.57-17.55-1.95-.61-4.19.32-6.1,1.85C289.37,96,287.89,99.94,286.36,109.8Z"/>
        <path class="cls-46" d="M345.38,106.68c-2.86-5.34-3.17-17.22-1.24-18.78l-2.24.69C341.46,91.82,341.28,100.09,345.38,106.68Z"/>
        <path class="cls-48" d="M330.77,362.93c-1.12-5.41-.75-13.06,4.66-15.11s9.14-.19,9.14-.19,13.06,7.65,17.36,10.45-.94,4.67-.94,4.67Z"/>
        <path class="cls-48" d="M324.32,362.93c1-5.27.82-12.39-4.17-14.39a11.34,11.34,0,0,0-9.15.32s-11.42,6.62-15.37,9.34.86,4.55.86,4.55Z"/>
        <path class="cls-49" d="M316.23,361.07c.22-5.34,6.26-10.62,7.3-9.37,2.73,3.27,1,9.81,1,9.81Z"/>
        <path class="cls-49" d="M338.36,361.07c-.21-5.34-5.95-10.62-6.94-9.37-2.59,3.27-.93,9.81-.93,9.81Z"/>
        <path class="cls-50" d="M373.73,363.12c.53-4.85.16-8.05-12.42-7.28-9.05.56-9.05,7.28-9.05,7.28Z"/>
        <path class="cls-50" d="M282.44,363.12c-.56-4.85-.17-8.05,13.06-7.28,9.52.56,9.52,7.28,9.52,7.28Z"/>
        <rect class="cls-50" x="280.76" y="361.07" width="44.6" height="2.24"/>
        <rect class="cls-50" x="329.46" y="361.07" width="44.59" height="2.24"/>
        <path class="cls-25" d="M259.13,192.92c-2.61.17-5.39-2.53-4.08-4,0,0-2.87-2.46-1.89-3.93,0,0-3.67-.9-2-3.27,0,0-3.84,2.86-.24,4.58,0,0-.25,2.78,1.88,3.52,0,0-1,4.9,3.68,5.15Z"/>
        <path class="cls-51" d="M338.68,90.4c.44-.38.84-.76,1.21-1.13-5.46,1.86-8.7,2-11.13-.83-.13.22-.25.46-.37.69l-1.59-6.36-1.23.29-2.29-17.8L321,64.89l-8.81,8.28-.15.39L310.33,75,307,78.12l3.13,8.61-1,.24-2.28,4.73-.25.07.29-.2a22.8,22.8,0,0,1-7,1C308.65,98.59,324.5,102.76,338.68,90.4Z"/>
        <path class="cls-36" d="M323.61,68.25c1.68-8,1.5-29.3-1.12-34.52s-24.07-13.06-40.67,3.54l10.26,19.78Z"/>
        <path class="cls-52" d="M322.49,33.73c-.71-1.43-2.85-3.06-5.91-4.33a6.56,6.56,0,0,1,1.83,2C321,36.66,321.2,57.93,319.52,66l-28-9.94.53,1,31.53,11.2C325.29,60.22,325.11,39,322.49,33.73Z"/>
        <path class="cls-36" d="M280.25,41.56c2.17,3.92,6.69,1.78,4.29-1.79C280.46,33.71,278.62,38.61,280.25,41.56Z"/>
        <path class="cls-36" d="M281.41,47.13c4.24,1.44,6.14-3.19,2-4.21C276.27,41.19,278.22,46.06,281.41,47.13Z"/>
        <path class="cls-29" d="M283.12,47c15.49,32.84,13.62,34.72,17.73,35.82,2.8.75,18.66-2,20.71-4.66s.37-37.14-1.68-39.93C313.35,27.2,282.75,33,283.12,47Z"/>
        <path class="cls-25" d="M319.88,38.21c-5.62-9.48-29.07-6.54-35.26,3.41,6.32-5.51,19.64-9.68,23.81-4.37,8,9.82,6.33,36.23,6.09,43.79,3.38-.85,6.25-1.89,7-2.9C323.61,75.52,321.93,41,319.88,38.21Z"/>
        <path class="cls-53" d="M319.88,38.21c-1.81-3.06-5.47-4.82-9.81-5.47,9.48,12.36,4.56,31.65,3.11,33.62s-12.1-1.47-19.56,4.1c4.19,8.33,3.07,11.85,5.82,12.58s20.19-1.64,22.24-4.25S321.93,41,319.88,38.21Z"/>
        <path class="cls-36" d="M324.17,65.07l-6.71-3.73s-2.62-26.12-13.63-30.6c0,0,15.91-4.42,18.48,4.67C324.73,44,324.17,65.07,324.17,65.07Z"/>
        <path class="cls-52" d="M323,35.57c-1-4.42-6.22-5.77-10.36-5.89,8.61,10.25,8.72,27.47,7.3,33.14l3.93,2.4S326,48.86,323,35.57Z"/>
        <path class="cls-36" d="M303.59,26.76c-1.62,4.18,3.58,6.47,4.74,2.33C310.29,22,304.81,23.63,303.59,26.76Z"/>
        <path class="cls-36" d="M298.74,26.76c-1.62,4.18,3.58,6.47,4.73,2.33C305.44,22,300,23.63,298.74,26.76Z"/>
        <path class="cls-36" d="M294,28.86c-1.15,4.32,3.59,5.92,4.33,1.69C299.61,23.35,294.88,25.61,294,28.86Z"/>
        <path class="cls-36" d="M290.09,30.91c-1.15,4.33,3.59,5.92,4.33,1.69C295.69,25.4,291,27.66,290.09,30.91Z"/>
        <path class="cls-36" d="M286.17,32.59c-1.15,4.33,3.59,5.92,4.34,1.69C291.77,27.08,287,29.34,286.17,32.59Z"/>
        <path class="cls-36" d="M282,35.64c.07,4.48,5.07,4.73,4.63.45C285.85,28.82,281.91,32.28,282,35.64Z"/>
        <path class="cls-25" d="M318.59,50.29c3.79-2.85,9.11,3.89.62,8.73Z"/>
        <polygon class="cls-36" points="320.32 66.44 315.84 65.57 314.47 44.67 317.83 44.18 320.32 66.44"/>
        <path class="cls-36" d="M286.54,74.09c3.46,1.66,8.22,1.29,10.18-.48s5.24-3.6,10.79-2.4c3.22.7,6.76-4.9,6.76-4.9-4,2-10.89-1.86-15.84,0C291.52,69.15,292.1,73.61,286.54,74.09Z"/>
        <path class="cls-25" d="M296,57.69c-.11.44-.65,9.71.66,10.25,2.5.55,6.1-3,6.1-3Z"/>
        <path class="cls-29" d="M296.39,55c-1.2.44.11,11.23,1.42,11.77,2.5.55,6.1-3,6.1-3Z"/>
        <path class="cls-54" d="M298.68,74.59a18.07,18.07,0,0,1,7-1.2A6.54,6.54,0,0,1,298.68,74.59Z"/>
        <path class="cls-54" d="M302.93,82.77c-1.42-1.86,1.42-2.51,1.31-.11Z"/>
        <path class="cls-55" d="M283.82,58.47l10.57-3.41C297.58,66.9,286,68.81,283.82,58.47Z"/>
        <path class="cls-55" d="M296.11,54.49l11.34-3.91C311.46,62.35,298.48,64.71,296.11,54.49Z"/>
        <polygon class="cls-55" points="297.56 55.16 293.39 56.39 292.94 55.53 297.81 53.91 297.56 55.16"/>
        <polygon class="cls-36" points="284.89 54.1 285.7 55.73 291.75 52.95 291.1 50.5 284.89 54.1"/>
        <polygon class="cls-36" points="306.79 47.15 306.98 48.96 300.49 49.75 299.73 47.33 306.79 47.15"/>
        <path class="cls-36" d="M283.11,41.23c-1.39-1.72-5.89-3-5.92,1.69,0,0,1.76-3.54,4,.14Z"/>
        <path class="cls-36" d="M281.07,45c-.51,2.21,1.75,5.36,4.88,1.7,0,0-3.89,2.61-2.83-3.56Z"/>
        <path class="cls-36" d="M281,43.41c-2.18,1.41-2.29,5.35.87,6,0,0-2.62-2.07,1-5.56Z"/>
        <path class="cls-36" d="M281.25,42.79c-2.54-.5-5.36,2.25-3.54,4.92,0,0-.44-3.31,4.57-3.32Z"/>
        <path class="cls-56" d="M288.89,57.86l4.58,3.1S296.09,54.42,288.89,57.86Z"/>
        <path class="cls-56" d="M302.3,53.28l4.58,3.11S309.5,49.85,302.3,53.28Z"/>
        <path class="cls-57" d="M305.08,59.57c-3.2,0-5.55-2-7.68-4.16A5.79,5.79,0,0,0,305.08,59.57Z"/>
        <path class="cls-57" d="M292.12,63.93c-3.18-.34-5.33-2.57-7.26-4.87A5.79,5.79,0,0,0,292.12,63.93Z"/>
        <polygon class="cls-33" points="291.75 118.36 302.06 118.69 301.73 122.45 291.75 122.28 291.75 118.36"/>
        <path class="cls-46" d="M347.19,162.92c6.21,12.73,10.48,18.41,14.65,14.18,5.19-5.27-8.19-20.4-8.19-20.4Z"/>
        <path class="cls-27" d="M356.7,172.43c-.62-3.49,2.8-3,3.17-.94S357.26,175.6,356.7,172.43Z"/>
        <polygon class="cls-58" points="341.95 212.22 342.12 208.13 335.09 193.74 332.8 194.88 341.95 212.22"/>
        <polygon class="cls-58" points="284.96 210.53 284.12 206.75 288.17 192.16 290.48 192.84 284.96 210.53"/>
        <polygon class="cls-32" points="308.57 193.59 308.13 209.83 313.18 212.06 310.23 193.41 308.57 193.59"/>
        <path class="cls-28" d="M308.6,350.28c6.86,2.73,13,2.07,2.29-1.31Z"/>
        <path class="cls-28" d="M304.56,352.68c6,1.8,12.54.82,2.4-1.42Z"/>
        <path class="cls-28" d="M349,350.17c-6.61,2.73-12.49,2.07-2.21-1.31Z"/>
        <path class="cls-28" d="M352.86,352.57c-5.79,1.8-12.07.82-2.31-1.41Z"/>
        <path class="cls-25" d="M256.19,192.68c2.21-.9,7.6-4.66,7.11-3.27s-3.68,4.09-3.68,4.09Z"/>
        <path class="cls-25" d="M250.71,183.68c4.09,1.72,10.41-2.58,10.14-1.22-2,.73-4.82,1.22-8.18,2.94Z"/>
        <path class="cls-25" d="M252.71,187.72c3.61,1.53,10.59-3.41,8.69-1a40.63,40.63,0,0,0-7,2.55Z"/>
      </g>
    </g>
  </g>
</svg>
