<svg id="Capa_1" data-name="Capa 1" xmlns="http://www.w3.org/2000/svg" xmlns:xlink="http://www.w3.org/1999/xlink" width="700" height="340" viewBox="0 0 700 340">
  <defs>
    <style>
      .cls-1, .cls-15, .cls-7 {
        fill: none;
      }

      .cls-2 {
        fill: #fa5252;
      }

      .cls-3 {
        fill: #fa2323;
      }

      .cls-4 {
        fill: #e3e3e3;
      }

      .cls-5 {
        fill: #ffae00;
      }

      .cls-6 {
        fill: #ff6f00;
      }

      .cls-15, .cls-7 {
        stroke: #fff;
        stroke-linecap: round;
        stroke-linejoin: round;
      }

      .cls-7 {
        stroke-width: 3px;
      }

      .cls-15, .cls-35, .cls-7 {
        opacity: 0.4;
      }

      .cls-8 {
        fill: #2c83f5;
      }

      .cls-9 {
        fill: #006af5;
      }

      .cls-10 {
        fill: #004ac2;
      }

      .cls-11 {
        fill: #2c97f5;
      }

      .cls-12 {
        fill: #b5f2ff;
      }

      .cls-13 {
        fill: #28eb00;
      }

      .cls-14 {
        fill: #199400;
      }

      .cls-15 {
        stroke-width: 2px;
      }

      .cls-16 {
        fill: #64c700;
      }

      .cls-17 {
        fill: #aee300;
      }

      .cls-18 {
        fill: #a4d600;
      }

      .cls-19, .cls-24 {
        opacity: 0.6;
      }

      .cls-20 {
        fill: #fa7900;
      }

      .cls-21 {
        fill: #e63d00;
      }

      .cls-22 {
        fill: #8fc700;
      }

      .cls-23 {
        fill: #fa0;
      }

      .cls-24 {
        fill: #ed8e00;
      }

      .cls-25 {
        fill: #fff;
        opacity: 0.2;
      }

      .cls-26 {
        fill: #c21000;
      }

      .cls-27 {
        fill: #1b0e4a;
      }

      .cls-28, .cls-35 {
        fill: #ebebeb;
      }

      .cls-29 {
        opacity: 0.1;
      }

      .cls-30 {
        fill: #080120;
      }

      .cls-31 {
        fill: #0f0140;
      }

      .cls-32 {
        clip-path: url(#clip-path);
      }

      .cls-33 {
        fill: #2f9e00;
      }

      .cls-34 {
        fill: #241751;
      }

      .cls-36 {
        fill: #ff9500;
      }

      .cls-37 {
        fill: #e08300;
      }

      .cls-38 {
        fill: #ff6a00;
      }

      .cls-39 {
        clip-path: url(#clip-path-2);
      }

      .cls-40 {
        fill: #ffb44a;
      }
    </style>
    <clipPath id="clip-path">
      <path class="cls-1" d="M555,128a50.45,50.45,0,0,0,0,100.88Z"/>
    </clipPath>
    <clipPath id="clip-path-2">
      <path class="cls-1" d="M679.51,128a50.45,50.45,0,0,0,0,100.88Z"/>
    </clipPath>
  </defs>
  <g>
    <g>
      <g>
        <g>
          <polygon class="cls-2" points="217.99 139.25 139.19 139.25 140.9 124.72 216.27 124.72 217.99 139.25"/>
          <polygon class="cls-2" points="139.19 253.84 217.99 253.84 216.27 268.36 140.9 268.36 139.19 253.84"/>
        </g>
        <rect class="cls-3" x="138.74" y="130" width="79.7" height="133.09"/>
      </g>
      <g>
        <path class="cls-4" d="M219.46,122.45a2.33,2.33,0,0,1-2.39,2.27h-77a2.34,2.34,0,0,1-2.4-2.27v-3a2.34,2.34,0,0,1,2.4-2.26h77a2.33,2.33,0,0,1,2.39,2.26Z"/>
        <path class="cls-4" d="M219.46,273.61a2.33,2.33,0,0,1-2.39,2.26h-77a2.34,2.34,0,0,1-2.4-2.26v-3a2.34,2.34,0,0,1,2.4-2.27h77a2.33,2.33,0,0,1,2.39,2.27Z"/>
      </g>
    </g>
    <path class="cls-5" d="M138.74,240.09c10.83,2.45,25,1.38,40.48-3.85a118.07,118.07,0,0,0,39.22-22.33V152.29c-10.66-2.09-24.32-.9-39.22,4.13a117.64,117.64,0,0,0-40.48,23.47Z"/>
    <path class="cls-6" d="M138.74,226c8.92,4.86,23.72,5.22,40.48-.06,16-5,30.2-14.07,39.22-24V166c-9-4.24-23.23-4.34-39.22.7-16.76,5.27-31.56,14.95-40.48,25.41Z"/>
    <g>
      <line class="cls-7" x1="151.72" y1="168.95" x2="151.72" y2="256.22"/>
      <line class="cls-7" x1="151.72" y1="141.1" x2="151.72" y2="157.05"/>
    </g>
  </g>
  <g>
    <g>
      <g>
        <g>
          <polygon class="cls-8" points="100.35 139.25 21.56 139.25 23.27 124.72 98.64 124.72 100.35 139.25"/>
          <polygon class="cls-8" points="21.56 253.84 100.35 253.84 98.64 268.36 23.27 268.36 21.56 253.84"/>
        </g>
        <rect class="cls-9" x="21.1" y="130" width="79.7" height="133.09"/>
      </g>
      <g>
        <path class="cls-4" d="M101.83,122.45a2.34,2.34,0,0,1-2.4,2.27h-77a2.33,2.33,0,0,1-2.39-2.27v-3a2.33,2.33,0,0,1,2.39-2.26h77a2.34,2.34,0,0,1,2.4,2.26Z"/>
        <path class="cls-4" d="M101.83,273.61a2.34,2.34,0,0,1-2.4,2.26h-77a2.33,2.33,0,0,1-2.39-2.26v-3a2.33,2.33,0,0,1,2.39-2.27h77a2.34,2.34,0,0,1,2.4,2.27Z"/>
      </g>
    </g>
    <path class="cls-10" d="M21.1,215.67q6.16-.63,12.51-1.88A150.38,150.38,0,0,0,100.8,181V144.39c-13.94,8.51-29.1,12.31-44.46,15.37a126.17,126.17,0,0,1-35.24,2.05Z"/>
    <path class="cls-11" d="M21.1,224.55v19.94q6.16-.63,12.51-1.88c25.1-5,50.3-23.21,67.19-43.28v-9.45a150.38,150.38,0,0,1-67.19,32.79Q27.27,223.93,21.1,224.55Z"/>
    <g>
      <line class="cls-7" x1="34.09" y1="168.95" x2="34.09" y2="256.22"/>
      <line class="cls-7" x1="34.09" y1="141.1" x2="34.09" y2="157.05"/>
    </g>
  </g>
  <g>
    <g>
      <path class="cls-12" d="M316.93,55.37h-.25V37.08h-21.3V55.37h-.25s-26.76,54.53-26.76,78V256.74h0v9.5a12.56,12.56,0,0,0,25.11,0,12.55,12.55,0,0,0,25.1,0,12.56,12.56,0,0,0,25.11,0v-9.5h0V133.33C343.69,109.9,316.93,55.37,316.93,55.37Z"/>
      <path class="cls-13" d="M306,86.39a184.89,184.89,0,0,1-20.49-1.12c-6.79,16.6-13.78,36.49-13.78,48.06V266.24a9.17,9.17,0,0,0,18.32,0,3.4,3.4,0,1,1,6.79,0,9.17,9.17,0,0,0,18.32,0,3.4,3.4,0,1,1,6.79,0,9.16,9.16,0,0,0,18.31,0V133.33c0-11.57-7-31.46-13.77-48.06A184.89,184.89,0,0,1,306,86.39Z"/>
      <path class="cls-14" d="M319,54.42A1.61,1.61,0,0,1,317.41,56H294.65A1.61,1.61,0,0,1,293,54.42h0a1.61,1.61,0,0,1,1.61-1.61h22.76A1.61,1.61,0,0,1,319,54.42Z"/>
      <rect class="cls-14" x="292.16" y="30.08" width="27.74" height="16.23" rx="2.26"/>
      <rect class="cls-14" x="268.37" y="142.57" width="75.32" height="94.09"/>
      <path class="cls-15" d="M284.64,106.78c-3.83,12.64-6.84,25.28-6.84,33.81V264h0"/>
      <path class="cls-15" d="M296.93,71.67c-2.29,5.87-5.38,14.09-8.4,23"/>
    </g>
    <g>
      <g>
        <path class="cls-16" d="M324,155.85s-.75,7.31-5.59,10.65S306.42,168,306.42,168s.76-7.3,5.6-10.64S324,155.85,324,155.85Z"/>
        <path class="cls-16" d="M293.8,158.63s.56,5.41,4.15,7.89,8.84,1.09,8.84,1.09-.55-5.42-4.14-7.9S293.8,158.63,293.8,158.63Z"/>
      </g>
      <circle class="cls-17" cx="306.03" cy="185.64" r="17.92"/>
      <path class="cls-18" d="M316,170.74a22.85,22.85,0,0,1,1.54,8.27c0,12.08-9.3,21.88-20.79,21.94A17.92,17.92,0,0,0,316,170.74Z"/>
      <g class="cls-19">
        <circle class="cls-16" cx="300.18" cy="176.89" r="3.43"/>
        <circle class="cls-16" cx="295.74" cy="184.04" r="2.31"/>
        <path class="cls-16" d="M303.61,184.94a1.72,1.72,0,1,1-1.71-1.72A1.72,1.72,0,0,1,303.61,184.94Z"/>
      </g>
    </g>
    <g>
      <path class="cls-16" d="M325.31,212.42a2.07,2.07,0,0,1-2.06,2.07H288.81a2.07,2.07,0,0,1-2.06-2.07h0a2.06,2.06,0,0,1,2.06-2.06h34.44a2.06,2.06,0,0,1,2.06,2.06Z"/>
      <path class="cls-16" d="M325.31,221.84a2.07,2.07,0,0,1-2.06,2.07H288.81a2.07,2.07,0,0,1-2.06-2.07h0a2.06,2.06,0,0,1,2.06-2.06h34.44a2.06,2.06,0,0,1,2.06,2.06Z"/>
    </g>
  </g>
  <g>
    <g>
      <path class="cls-12" d="M417.84,55.37h-.25V37.08h-21.3V55.37H396s-26.75,54.53-26.75,78V256.74h0v9.5a12.55,12.55,0,0,0,25.1,0,12.56,12.56,0,0,0,25.11,0,12.56,12.56,0,0,0,25.11,0v-9.5h0V133.33C444.6,109.9,417.84,55.37,417.84,55.37Z"/>
      <path class="cls-20" d="M406.94,86.39a184.76,184.76,0,0,1-20.49-1.12c-6.79,16.6-13.78,36.49-13.78,48.06V266.24a9.17,9.17,0,0,0,18.32,0,3.4,3.4,0,1,1,6.79,0,9.17,9.17,0,0,0,18.32,0,3.4,3.4,0,1,1,6.79,0,9.16,9.16,0,0,0,18.31,0V133.33c0-11.57-7-31.46-13.77-48.06A184.89,184.89,0,0,1,406.94,86.39Z"/>
      <path class="cls-21" d="M419.93,54.42A1.61,1.61,0,0,1,418.32,56H395.56A1.61,1.61,0,0,1,394,54.42h0a1.61,1.61,0,0,1,1.61-1.61h22.76a1.61,1.61,0,0,1,1.61,1.61Z"/>
      <rect class="cls-21" x="393.07" y="30.08" width="27.74" height="16.23" rx="2.26"/>
      <rect class="cls-21" x="369.28" y="142.57" width="75.32" height="94.09"/>
      <path class="cls-15" d="M385.55,106.78c-3.83,12.64-6.84,25.28-6.84,33.81V264h0"/>
      <path class="cls-15" d="M397.83,71.67c-2.28,5.87-5.37,14.09-8.39,23"/>
    </g>
    <g>
      <path class="cls-22" d="M406,183.31s-4.92,2.24-8.85.42-5.39-7-5.39-7,4.92-2.25,8.86-.42S406,183.31,406,183.31Z"/>
      <g>
        <g>
          <circle class="cls-23" cx="406.94" cy="204.68" r="19.23" transform="translate(114.54 553.95) rotate(-76.77)"/>
          <path class="cls-24" d="M417.41,188.56a21.46,21.46,0,0,1,2.65,14.82c-2,11.24-12.09,18.85-22.55,17a17.69,17.69,0,0,1-2.55-.68,19.22,19.22,0,1,0,22.45-31.14Z"/>
        </g>
        <g>
          <circle class="cls-25" cx="400.66" cy="196.54" r="5.74"/>
          <path class="cls-25" d="M398.55,207.47a3.31,3.31,0,1,1-3.31-3.31A3.31,3.31,0,0,1,398.55,207.47Z"/>
          <path class="cls-25" d="M405.85,206.46a2.3,2.3,0,1,1-2.29-2.3A2.3,2.3,0,0,1,405.85,206.46Z"/>
        </g>
      </g>
      <path class="cls-26" d="M408.83,180a7.72,7.72,0,0,0-3.95,5.42l.4,0A6.93,6.93,0,0,1,410,181,1.81,1.81,0,0,0,408.83,180Z"/>
    </g>
    <rect class="cls-20" x="386.75" y="153.99" width="40.38" height="10.57" rx="4.53"/>
  </g>
  <g>
    <g>
      <g>
        <g>
          <path class="cls-27" d="M459.58,78.2V263.58a4.52,4.52,0,0,0,4.53,4.52h86.38a4.52,4.52,0,0,0,4.53-4.52V78.2Z"/>
          <polygon class="cls-28" points="555.02 78.2 541.42 39.87 473.18 39.87 459.58 78.2 555.02 78.2"/>
          <path class="cls-29" d="M459.58,254.46v9.12a4.52,4.52,0,0,0,4.53,4.52h86.38a4.52,4.52,0,0,0,4.53-4.52v-9.12Z"/>
        </g>
        <g>
          <line class="cls-7" x1="476.11" y1="128.47" x2="476.11" y2="244.35"/>
          <line class="cls-7" x1="476.11" y1="93.03" x2="476.11" y2="112.35"/>
        </g>
      </g>
      <g>
        <path class="cls-30" d="M533.23,58.27A12.24,12.24,0,1,1,521,46,12.24,12.24,0,0,1,533.23,58.27Z"/>
        <path class="cls-31" d="M529.88,58.27A8.89,8.89,0,1,1,521,49.38,8.89,8.89,0,0,1,529.88,58.27Z"/>
      </g>
    </g>
    <path class="cls-30" d="M555,118.32a60.15,60.15,0,0,0,0,120.28Z"/>
    <path class="cls-28" d="M555,128a50.45,50.45,0,0,0,0,100.88Z"/>
    <rect class="cls-30" x="496.91" y="96.61" width="48.18" height="14.64" rx="4.53"/>
    <g class="cls-32">
      <g>
        <path class="cls-33" d="M547.5,160.17s-7.7-1.24-11-6.58-.83-12.75-.83-12.75,7.7,1.24,11,6.58S547.5,160.17,547.5,160.17Z"/>
        <path class="cls-33" d="M548,158.54s.05-5.44,3.39-8.24,8.7-1.9,8.7-1.9-.06,5.44-3.39,8.24S548,158.54,548,158.54Z"/>
        <g>
          <g>
            <circle class="cls-34" cx="546.82" cy="200.64" r="9.92"/>
            <path class="cls-31" d="M551.14,191.75A9.86,9.86,0,0,1,539,206.69a9.89,9.89,0,1,0,12.12-14.94Z"/>
            <path class="cls-35" d="M547.33,196.75a3.18,3.18,0,1,1-3.18-3.18A3.17,3.17,0,0,1,547.33,196.75Z"/>
          </g>
          <g>
            <g>
              <path class="cls-34" d="M537.75,169a9.92,9.92,0,1,1-9.91-9.92A9.92,9.92,0,0,1,537.75,169Z"/>
              <path class="cls-31" d="M531.74,159.7a9.86,9.86,0,0,1-12.11,15,9.89,9.89,0,1,0,12.11-15Z"/>
              <path class="cls-35" d="M527.93,164.7a3.18,3.18,0,1,1-3.17-3.17A3.18,3.18,0,0,1,527.93,164.7Z"/>
            </g>
            <g>
              <circle class="cls-34" cx="547.23" cy="169" r="9.92"/>
              <path class="cls-31" d="M551.14,159.7a9.86,9.86,0,0,1-12.12,15,9.89,9.89,0,1,0,12.12-15Z"/>
              <path class="cls-35" d="M547.33,164.7a3.18,3.18,0,1,1-3.18-3.17A3.18,3.18,0,0,1,547.33,164.7Z"/>
            </g>
            <g>
              <path class="cls-31" d="M576.13,168.59a9.92,9.92,0,1,1-9.91-9.91A9.92,9.92,0,0,1,576.13,168.59Z"/>
              <path class="cls-31" d="M570.53,159.7a9.86,9.86,0,0,1-12.11,15,9.89,9.89,0,1,0,12.11-15Z"/>
              <path class="cls-35" d="M566.72,164.7a3.18,3.18,0,1,1-3.17-3.17A3.18,3.18,0,0,1,566.72,164.7Z"/>
            </g>
          </g>
          <g>
            <g>
              <circle class="cls-34" cx="537.53" cy="184.34" r="9.92"/>
              <path class="cls-31" d="M541.44,175.05a9.79,9.79,0,0,1,2.12,6,9.92,9.92,0,0,1-9.92,9.92,9.78,9.78,0,0,1-4.31-1,9.88,9.88,0,1,0,12.11-14.94Z"/>
              <path class="cls-35" d="M537.63,180.05a3.18,3.18,0,1,1-3.17-3.18A3.17,3.17,0,0,1,537.63,180.05Z"/>
            </g>
            <g>
              <circle class="cls-31" cx="556.52" cy="183.94" r="9.92"/>
              <path class="cls-31" d="M560.83,175.05a9.79,9.79,0,0,1,2.12,6A9.92,9.92,0,0,1,553,191a9.79,9.79,0,0,1-4.32-1,9.88,9.88,0,1,0,12.11-14.94Z"/>
              <path class="cls-35" d="M557,180.05a3.17,3.17,0,1,1-3.17-3.18A3.17,3.17,0,0,1,557,180.05Z"/>
            </g>
          </g>
        </g>
      </g>
    </g>
  </g>
  <g>
    <g>
      <g>
        <g>
          <path class="cls-36" d="M584.07,78.2V263.58a4.52,4.52,0,0,0,4.53,4.52H675a4.52,4.52,0,0,0,4.53-4.52V78.2Z"/>
          <polygon class="cls-28" points="679.51 78.2 665.91 39.87 597.67 39.87 584.07 78.2 679.51 78.2"/>
          <path class="cls-29" d="M584.07,254.46v9.12a4.52,4.52,0,0,0,4.53,4.52H675a4.52,4.52,0,0,0,4.53-4.52v-9.12Z"/>
        </g>
        <g>
          <line class="cls-7" x1="600.6" y1="128.47" x2="600.6" y2="244.35"/>
          <line class="cls-7" x1="600.6" y1="93.03" x2="600.6" y2="112.35"/>
        </g>
      </g>
      <g>
        <path class="cls-37" d="M657.72,58.27A12.23,12.23,0,1,1,645.49,46,12.24,12.24,0,0,1,657.72,58.27Z"/>
        <path class="cls-36" d="M654.37,58.27a8.89,8.89,0,1,1-8.88-8.89A8.88,8.88,0,0,1,654.37,58.27Z"/>
      </g>
    </g>
    <path class="cls-38" d="M679.51,118.32a60.15,60.15,0,0,0,0,120.28Z"/>
    <path class="cls-28" d="M679.51,128a50.45,50.45,0,0,0,0,100.88Z"/>
    <g class="cls-39">
      <g>
        <circle class="cls-38" cx="680.18" cy="178.04" r="34.67" transform="translate(73.32 533.11) rotate(-45)"/>
        <circle class="cls-40" cx="680.18" cy="178.04" r="30.09" transform="translate(73.32 533.11) rotate(-45)"/>
        <circle class="cls-36" cx="680.18" cy="178.04" r="25.84"/>
        <rect class="cls-40" x="679.07" y="149.79" width="2.21" height="56.5"/>
        <rect class="cls-40" x="651.93" y="176.94" width="56.5" height="2.21"/>
        <rect class="cls-40" x="679.07" y="149.79" width="2.21" height="56.5" transform="translate(73.32 533.11) rotate(-45)"/>
        <rect class="cls-40" x="651.93" y="176.94" width="56.5" height="2.21" transform="translate(73.32 533.11) rotate(-45)"/>
      </g>
    </g>
  </g>
</svg>
