<svg id="Capa_1" data-name="Capa 1" xmlns="http://www.w3.org/2000/svg" xmlns:xlink="http://www.w3.org/1999/xlink" width="300" height="300" viewBox="0 0 300 300">
  <defs>
    <style>
      .cls-1 {
        fill: none;
      }

      .cls-2 {
        fill: #0f0140;
        opacity: 0.19;
      }

      .cls-3 {
        fill: #c8ddf5;
      }

      .cls-4 {
        fill: #abbdd2;
      }

      .cls-5 {
        fill: #d5e9ff;
      }

      .cls-6 {
        fill: #ffa497;
      }

      .cls-7 {
        fill: #f45763;
      }

      .cls-8 {
        fill: #4371d6;
      }

      .cls-9 {
        fill: #154dca;
      }

      .cls-10 {
        fill: #091320;
      }

      .cls-11 {
        fill: #38295c;
      }

      .cls-12 {
        fill: #d16452;
      }

      .cls-13 {
        fill: #994234;
      }

      .cls-14 {
        fill: #fff;
      }

      .cls-15 {
        fill: #471052;
      }

      .cls-16 {
        fill: #d25e5a;
      }

      .cls-17 {
        fill: #ffa7a4;
      }

      .cls-18 {
        fill: #6558b8;
      }

      .cls-19 {
        fill: #070e18;
      }

      .cls-20 {
        fill: #3a424d;
      }

      .cls-21 {
        fill: #8375d4;
      }

      .cls-22 {
        fill: #a04f58;
      }

      .cls-23 {
        fill: #713349;
      }

      .cls-24 {
        clip-path: url(#clip-path);
      }

      .cls-25 {
        fill: #ffc5c7;
      }

      .cls-26 {
        fill: #d5edff;
      }

      .cls-27 {
        fill: #ff8a8b;
      }

      .cls-28 {
        fill: #050233;
      }

      .cls-29 {
        fill: #211e87;
      }

      .cls-30 {
        fill: #00b0f9;
      }

      .cls-31 {
        fill: #e21926;
      }

      .cls-32 {
        fill: #ff8384;
      }

      .cls-33 {
        font-size: 11.08px;
        fill: #d5c8da;
        font-family: BebasKai, Bebas Kai;
        letter-spacing: 0.01em;
      }

      .cls-34 {
        letter-spacing: 0em;
      }

      .cls-35 {
        letter-spacing: 0.03em;
      }

      .cls-36 {
        letter-spacing: 0em;
      }

      .cls-37 {
        fill: #ef8633;
        stroke: #f2a466;
        stroke-miterlimit: 10;
      }
    </style>
    <clipPath id="clip-path">
      <path class="cls-1" d="M99,60.57a38.91,38.91,0,0,1-77.82,0c0-21.49,17.42-46.47,38.91-46.47S99,39.08,99,60.57Z"/>
    </clipPath>
  </defs>
  <path class="cls-2" d="M150,57.54V2.7a147.3,147.3,0,0,0,0,294.6V242.46a92.46,92.46,0,0,1,0-184.92Z"/>
  <g>
    <g>
      <path class="cls-3" d="M295.09,246.62c-22.38,1.9-37.46,43.85-93.4,18.63,0,0,6.14-18.31,33.66-29.72S295.09,246.62,295.09,246.62Z"/>
      <path class="cls-4" d="M209.33,262.11a157.18,157.18,0,0,1,18.08-7.93c1.54-.59,3.1-1.12,4.67-1.64s3.13-1,4.71-1.51,3.17-.91,4.76-1.34c.8-.22,1.6-.44,2.4-.64l2.41-.58,2.41-.56,2.43-.47,2.44-.48c.81-.16,1.63-.28,2.44-.4,1.64-.24,3.27-.52,4.92-.68s3.28-.4,4.93-.46a83.19,83.19,0,0,1,19.76.72,134.36,134.36,0,0,0-19.58,1l-1.22.14-1.21.19-2.42.35c-1.61.21-3.21.53-4.82.82-.8.16-1.6.27-2.4.44l-2.4.49-2.39.5-2.38.57-2.38.55c-.8.19-1.59.4-2.38.6l-2.37.61c-.79.2-1.57.45-2.36.66-1.57.43-3.15.85-4.71,1.34s-3.14.92-4.69,1.42C221.73,257.79,215.54,259.94,209.33,262.11Z"/>
    </g>
    <g>
      <path class="cls-5" d="M297.83,175.24c-27.31,19.52-14.67,84.93-105.79,95.22,0,0-6.08-28.21,20.56-63.88S297.83,175.24,297.83,175.24Z"/>
      <path class="cls-3" d="M198.1,262.58A153.14,153.14,0,0,1,212.5,238a173.27,173.27,0,0,1,18.39-21.84,152,152,0,0,1,21.9-18.37,98.67,98.67,0,0,1,25.4-12.88,158,158,0,0,0-23.57,15.38A227.26,227.26,0,0,0,233.69,219,279.85,279.85,0,0,0,215,239.9C209.05,247.19,203.5,254.79,198.1,262.58Z"/>
    </g>
    <g>
      <path class="cls-3" d="M3.29,240.79c22.19,3.47,34.28,46.38,91.86,25.17,0,0-4.84-18.7-31.49-32S3.29,240.79,3.29,240.79Z"/>
      <path class="cls-4" d="M87.75,262.29c-6-2.61-12.07-5.19-18.16-7.57-1.52-.61-3.06-1.16-4.59-1.75s-3.06-1.12-4.6-1.66c-.78-.27-1.54-.57-2.31-.82l-2.32-.78c-.78-.26-1.55-.53-2.33-.77l-2.34-.71-2.33-.74-2.35-.66-2.36-.67c-.78-.22-1.58-.39-2.37-.6-1.57-.4-3.15-.84-4.75-1.16l-2.38-.52-1.2-.27-1.2-.23A133,133,0,0,0,12.7,241a82.77,82.77,0,0,1,19.76.66c1.64.18,3.26.53,4.89.82s3.24.66,4.85,1c.81.18,1.62.36,2.42.57l2.39.64,2.39.65,2.37.73,2.36.74c.79.26,1.56.54,2.35.81,1.55.54,3.12,1.06,4.65,1.68s3.08,1.19,4.6,1.83,3,1.27,4.54,2A156.36,156.36,0,0,1,87.75,262.29Z"/>
    </g>
    <g>
      <path class="cls-5" d="M18,172.24c24.58,20.33,8.23,81.52,93.95,97.38,0,0,7.66-26.35-15.22-62S18,172.24,18,172.24Z"/>
      <path class="cls-3" d="M106.77,261.74c-4.64-7.73-9.41-15.29-14.53-22.6S81.67,224.8,75.86,218.08A220.39,220.39,0,0,0,57.29,199,153,153,0,0,0,36,182.75a92.48,92.48,0,0,1,23.27,13.86,142.59,142.59,0,0,1,19.57,18.88,162.88,162.88,0,0,1,16,22A144.31,144.31,0,0,1,106.77,261.74Z"/>
    </g>
  </g>
  <g>
    <g>
      <path class="cls-6" d="M162.63,229.19c-3.08,3.66-5.87,9.72-7.6,10.68s-4.65,1.3-7.41,10.18,11.17,7.66,11.17,7.66A20.52,20.52,0,0,0,167.15,246l6-5.29Z"/>
      <path class="cls-7" d="M151.86,256.74a22.4,22.4,0,0,0,8.33-5.51c3.84-4,4.33-11.26,4.33-11.26l1.84,3.43,3.68-3.93,1.77-.17,1.3,1.44-6,5.29a20.52,20.52,0,0,1-8.36,11.68,22.32,22.32,0,0,1-7.09-.63C151.79,256.87,151.86,256.74,151.86,256.74Z"/>
      <path class="cls-8" d="M183.51,197.39c-4.27,3.12-6.81,5.38-8.93,9.62s-15.42,19.49-16.27,20.85,7.48,15.78,14.13,19.32c0,0,10.06-11.6,15.86-16s3.81-19.94,1.13-25.18A40.89,40.89,0,0,0,183.51,197.39Z"/>
      <path class="cls-9" d="M183.36,225.46V216.8s1.12-.45,2,2.47a7.87,7.87,0,0,1,.17,3.46l6.47-4.87c.27,5.45-.6,11-3.7,13.34-5.8,4.38-15.86,16-15.86,16a21,21,0,0,1-5.29-4.5C171.24,238.6,179,230.73,183.36,225.46Z"/>
      <path class="cls-6" d="M142,254.29c-1.11.35-1.93.88-1.93,2.27a11.26,11.26,0,0,0,.77,4.47c.53.87,3.26,1.39,3.26,1.39s-.18-5.76-.76-6.82A2.67,2.67,0,0,0,142,254.29Z"/>
      <path class="cls-7" d="M140.84,261a3.69,3.69,0,0,1-.37-1,1.87,1.87,0,0,0,1.51.66l2.08.65c0,.64,0,1.08,0,1.08S141.37,261.9,140.84,261Z"/>
      <path class="cls-6" d="M144.64,252.18a2.85,2.85,0,0,0-2.69,2.55c0,1.4-.48,5.29,0,5.92a11.54,11.54,0,0,0,3.66,2.55c.81.14,2.2-.1,2-.53S144.64,252.18,144.64,252.18Z"/>
      <path class="cls-7" d="M141.75,259.6c1,1.15,3.63,1,3.63,1a11.17,11.17,0,0,1,1.29,1.62c.08.24.55.55.62.79a3.62,3.62,0,0,1-1.68.14,11.39,11.39,0,0,1-3.63-2.51l-.23-1.09Z"/>
      <path class="cls-6" d="M149.69,249.88c-4.13.24-4.9.62-5.05,2.3s0,6.59.48,7.84a9.93,9.93,0,0,0,1.49,3,2.64,2.64,0,0,0,1.69.68s2.26-3.32,2.35-6.11A42.68,42.68,0,0,0,149.69,249.88Z"/>
      <path class="cls-7" d="M147.31,261a25,25,0,0,0,.74-6.19c0-1.43,1.35,6.07.75,8.12-.29.52-.5.83-.5.83a2.64,2.64,0,0,1-1.69-.68,9.93,9.93,0,0,1-1.49-3c0-.08-.06-.18-.09-.29A2.46,2.46,0,0,0,147.31,261Z"/>
      <path class="cls-6" d="M158.73,258.34c-.26,2.3-3.27,3.13-3.6,4.28s-.1,2.21-.68,2.5-3-1.06-2.88-2.6a3,3,0,0,1-2,1.54c-1.4.24-1.73-.78-1.49-2.31a19.45,19.45,0,0,0,.14-4.18c0-1.83-.48-3.51.34-5.53s1.92-3.8,4.13-3.46,3.56,3.12,4.77,4.08S159,255.79,158.73,258.34Z"/>
      <path class="cls-7" d="M151.57,262.52c.13-2.92.29-5.31.29-5.78s-.16-3.58.95-3.76c.16,0,2.59,1.5,2.64,2.54s0,2.9-.76,3.43A34,34,0,0,0,151.57,262.52Z"/>
    </g>
    <g>
      <path class="cls-8" d="M251.79,203.62c-4.38-5.56-5.89-6.13-10.42-8.77s-21.68-9.33-25.22-10.18-17.79,5.8-22.47,7.92-10.63,4.21-11.65,6.28c-3.39,6.92,3.33,16.72,3.37,37.28,0,10.76,2.47,35,2.47,35s53.88.1,54.64-1,2.64-39.79,3.58-47.71S251.79,203.62,251.79,203.62Z"/>
      <path class="cls-9" d="M182.23,209.7a14.83,14.83,0,0,1-1.07-3.92,14.57,14.57,0,0,1-.08-4.07,15,15,0,0,1,1.07,3.93A14.49,14.49,0,0,1,182.23,209.7Z"/>
      <path class="cls-9" d="M202.38,201.61c-2.08-.78-7,.57-7.91.88s.53-3.54,1.06-4a2.8,2.8,0,0,1,3-1.09,6.33,6.33,0,0,1,3.23,3A9.66,9.66,0,0,0,202.38,201.61Z"/>
      <path class="cls-9" d="M219.73,204.82c-.75,0-5.08-2-6.11-2.52s-5.74-.73-8.89.16c0,0,6.07-4.11,9.6-4.07s4.88,1.31,5.17,2.44A23.72,23.72,0,0,1,219.73,204.82Z"/>
      <path class="cls-9" d="M196.56,262.45c.58-.57,35.77.57,36.48-3.11S234.23,249,234.23,249c-4.23,2.26-10.38,1.32-10.38,1.32,4.1-1.34,10-8.07,10.32-10.05.87-6.1-2.39-22.92-2.39-22.92l2.39-4.8L237,211a38.84,38.84,0,0,1,9.83,7.49,37.78,37.78,0,0,0-.7,3.92c-.89,7.47-2.62,42.25-3.44,47.15-10.9.4-30.66,1.13-43.88,1.58-6.41,0-10.9,0-10.9,0s-.08-3.19-.27-7.75C191.28,263.15,196.21,262.8,196.56,262.45Z"/>
      <path class="cls-8" d="M203.71,202.63c3.8-.46,9.9-3.75,12.3-2.62s3,4,3.47,4.53,2.61-2,2.61-8.06.19-12.31-4.29-13.15-16.07,3.53-18.4,5.3a11,11,0,0,0-4,5.28c-.64,1.72-2.34,8.65-1.56,8.72s3-4.45,4.6-4.6S202.68,202.75,203.71,202.63Z"/>
      <path class="cls-9" d="M201.55,197.19c-1-2.3-2-4.32-2-5.91s.39-2.68,2.15-3.18,2.51.46,2.62,2.86S201.55,197.19,201.55,197.19Z"/>
      <path class="cls-9" d="M215.41,192.9c3.7-3.35,4.12-7.1,3.77-7.88s-1.88-1.34-1.88-1.34-.6,2.44-.24,3S215.41,192.9,215.41,192.9Z"/>
      <path class="cls-9" d="M209.53,201a12.66,12.66,0,0,1,5.79-1.52,2.85,2.85,0,0,1,1.62.54,14,14,0,0,1,1.08,1.12,10.93,10.93,0,0,1,1.6,2.6c.08.19.27.42.2.35s-.2,0-.14,0a.77.77,0,0,0,.16-.16,8.17,8.17,0,0,0,.7-1.18,9.87,9.87,0,0,0,.89-2.67,43,43,0,0,0,.66-5.83,22.42,22.42,0,0,1,.11,6,9.61,9.61,0,0,1-.81,3,7.42,7.42,0,0,1-.79,1.37,1.53,1.53,0,0,1-.36.36,1,1,0,0,1-.34.16.82.82,0,0,1-.49-.06,1.18,1.18,0,0,1-.47-.43c-.08-.13-.15-.25-.21-.37a11.13,11.13,0,0,0-1.44-2.45c-.28-.35-.64-.77-.91-1.05a2.22,2.22,0,0,0-1.13-.43,10.11,10.11,0,0,0-2.84.13A26.36,26.36,0,0,0,209.53,201Z"/>
      <path class="cls-9" d="M200.82,199.74c-.44-.33-.88-.66-1.33-.94a3.59,3.59,0,0,0-.67-.35,1.25,1.25,0,0,0-.29-.06h-.08s0,0-.06,0a7.83,7.83,0,0,0-2.13,2.2c-.3.41-.57.9-1,1.36a3.67,3.67,0,0,1-.66.64l-.23.15a1.2,1.2,0,0,1-.35.1.69.69,0,0,1-.71-.49,2.31,2.31,0,0,1,0-1c.05-.29.12-.56.19-.83a10.44,10.44,0,0,1,.59-1.56l-.11,1.64a6.94,6.94,0,0,0,0,.79,1.56,1.56,0,0,0,.1.64.16.16,0,0,0-.11-.05s0,0,0,0l.1-.09a2.77,2.77,0,0,0,.46-.54c.3-.39.55-.86.88-1.34a6.62,6.62,0,0,1,2.55-2.29,1.14,1.14,0,0,1,.3-.12,1.19,1.19,0,0,1,.33,0,1.67,1.67,0,0,1,.49.19,3.72,3.72,0,0,1,.68.55A6.81,6.81,0,0,1,200.82,199.74Z"/>
      <path class="cls-6" d="M201,183.37c0,1.5.07,3,.22,4.47.38,3.65,0,8.46.3,9.35s2.23,4.52,2.23,4.52,3.39-1.55,4.81-3.25,3.25-1.78,5.73-4.29,4.15-6.47,3.6-9.78c-.07-.43-.5-4.66-.6-9s-4.7-7.71-9.08-7.71-7,6.51-7.15,10.89C201,180.32,201,182,201,183.37Z"/>
      <path class="cls-7" d="M217.32,175.34c.1,4.39.53,8.62.6,9a8.82,8.82,0,0,1-.09,3.19c-1,.18-13.45.48-16.69-1-.07-1.06-.1-2.12-.11-3.19,0-1.36,0-3.05.06-4.85a16.46,16.46,0,0,1,1.46-6.06l10.27-3.64A7.85,7.85,0,0,1,217.32,175.34Z"/>
    </g>
    <g>
      <path class="cls-10" d="M193.34,157.09a8.67,8.67,0,0,0-9.12,8.91c0,3.43,1.1,8.92,9.12,8.92,4,0,6.72-4,6.72-8.92S197.35,157.09,193.34,157.09Z"/>
      <path class="cls-11" d="M193.05,159.27a6.55,6.55,0,0,0-6.89,6.73c0,2.59.83,6.74,6.89,6.74,3,0,5.07-3,5.07-6.74S196.07,159.27,193.05,159.27Z"/>
      <path class="cls-6" d="M185,160.1c.39,2.32,1.54,3.21,2.06,6.35s-.86,7.68,1.18,11.65,5.35,9.18,7.26,9.4,17.21-2.36,22.37-12.63c1.48-2.94,4.64-14.49,1.93-21.54s-7.11-13.52-17.3-13.72S182.89,147.78,185,160.1Z"/>
      <path class="cls-7" d="M193.49,172.8a1.77,1.77,0,0,0,1.41-.55,1.45,1.45,0,0,0,.26-1.11,3.26,3.26,0,0,1-2.75.6C192.29,172.47,192.85,172.79,193.49,172.8Z"/>
      <path class="cls-12" d="M211.5,160.1a6.75,6.75,0,0,0-2-3.81,29.58,29.58,0,0,0-6.9-1.91,40.36,40.36,0,0,1-6.1-1.18,8.4,8.4,0,0,0,2.57,3.45s-7.2-.36-9.47-2.49c0,0,.44,1.75.88,2.93,0,0-3.53-.36-4.63-1.76a23.79,23.79,0,0,0-.88,4.77s-4.23-5.8-3.16-10.4,2.55-6.36,2.55-6.36a23.67,23.67,0,0,1-4.7,0s3.92-3.43,6.85-5.68,11.75-2.35,11.75-2.35a13.67,13.67,0,0,1,.1-6.07s3.77,5.53,7.76,7.22a33.06,33.06,0,0,0,7.69,2.61c4.23,1.07,8.25,3.78,9.94,6.05s3.52,4.63,4.62,5a9.67,9.67,0,0,1-4-1.47,14.91,14.91,0,0,1-.71,11.45c-2.91,6.44-10.21,4.54-11.63,3.11A2.76,2.76,0,0,1,211.5,160.1Z"/>
      <path class="cls-13" d="M212.07,163.21a2.76,2.76,0,0,1-.57-3.11,6.79,6.79,0,0,0-1.42-3.18,43,43,0,0,0-1.25-19.32,21.79,21.79,0,0,0,3.34,1.06,35.67,35.67,0,0,1,4.42,9.59c1.28,4.27,1.9,8.87.71,13.16a14.24,14.24,0,0,1-1.32,3.18A6.93,6.93,0,0,1,212.07,163.21Z"/>
      <path class="cls-10" d="M214.06,157.71s.51-16.11-7.94-21.25a11,11,0,0,1,10.28,5.8,26.58,26.58,0,0,1,3.4,15.28C219.71,160.68,214.06,157.71,214.06,157.71Z"/>
      <path class="cls-10" d="M216.64,157.09a8.66,8.66,0,0,1,9.11,8.91c0,3.43-1.09,8.92-9.11,8.92-4,0-6.72-4-6.72-8.92S212.63,157.09,216.64,157.09Z"/>
      <path class="cls-11" d="M213.06,166c0-4.37,2.89-7.91,6.45-7.91s6.24,3.54,6.24,7.91-2.68,7.92-6.24,7.92S213.06,170.38,213.06,166Z"/>
      <ellipse class="cls-10" cx="220.36" cy="166" rx="4.39" ry="5.39"/>
      <g>
        <path class="cls-7" d="M199.82,174.92c-1.79,1-7.64,1.32-8,1.26s.42,4.39,1.85,4.56,4.3-.22,5.5-1.37S199.82,174.92,199.82,174.92Z"/>
        <path class="cls-14" d="M199.45,176.22l-.28-1a31.83,31.83,0,0,1-7,1,8.43,8.43,0,0,0,.51,1.79s0,.06,0,0A8.74,8.74,0,0,0,199.45,176.22Z"/>
      </g>
      <path class="cls-15" d="M199,164.29c0-.81.4-1.47.9-1.47s.89.66.89,1.47-.4,1.47-.89,1.47S199,165.1,199,164.29Z"/>
      <path class="cls-15" d="M188.81,165c0-.81.34-1.47.77-1.47s.77.66.77,1.47-.35,1.47-.77,1.47S188.81,165.79,188.81,165Z"/>
      <path class="cls-15" d="M204,158.57a9.43,9.43,0,0,0-1.95-.77,9.1,9.1,0,0,0-2.09-.31,5,5,0,0,0-2.14.21,4,4,0,0,0-1.78,1.24l.06.09c.73-.08,1.34-.26,2-.35s1.23-.32,1.89-.38a11.5,11.5,0,0,1,4,.36Z"/>
      <path class="cls-15" d="M186.23,160.46a4.13,4.13,0,0,1,1-.24,8.51,8.51,0,0,1,1-.06,4.61,4.61,0,0,0,1,0,1.87,1.87,0,0,0,.5-.14,1.77,1.77,0,0,0,.54-.26v-.1a1.88,1.88,0,0,0-1.05-.51,2.4,2.4,0,0,0-1.09.17,5.42,5.42,0,0,0-1,.39,3.59,3.59,0,0,0-.9.64Z"/>
    </g>
    <g>
      <path class="cls-10" d="M196.56,265.94c0,.22-.31.55-1.09.55H171c-2.83,0-3.49-1.12-2.64-2.53s4.43-4.53,13.29-6.69,13.52,2.9,15,5.18A3.59,3.59,0,0,1,196.56,265.94Z"/>
      <path class="cls-11" d="M168.1,264.38c.49,1.63,19.2.78,19.2.78s-1.9-2.56-4-2.64-3.12.66-5.94,1.14-.72-1.14-.72-1.14a9.46,9.46,0,0,1-2.8-1.07s4.64-1.37,6.58-1.69a45.4,45.4,0,0,1,7.53,0c.45.08,2.73-1.25,5.49-.58a12.14,12.14,0,0,1,3.11,3.27,3.59,3.59,0,0,1,0,3.49c0,.22-.31.55-1.09.55H171C168.41,266.49,167.62,265.59,168.1,264.38Z"/>
      <path class="cls-6" d="M248.14,250.6s-17.44,2.7-26.89,4.39c-9,1.6-16.69,2.3-18.88,1.87a115.14,115.14,0,0,1-12.09-4.17c-2.41-1-7.22-1.55-9.69-.78s-4.5,1.63-5.49,1.63-.81,1.6.51,1.93a10.12,10.12,0,0,0,2.5.29s-4.47,2.45-5.28,2.68.15,1.7,1.24,1.61c0,0-.95.56-.62,1.13s2.68.56,2.68.56-2.87,1.42-.47,2,5.28-2.12,6.46-2.35,3.91-.1,5.23.89,7,5.56,14.71,2.83c0,0,52.47,2.13,57.71,2.13s8.39-4.63,6.71-13.54a67.65,67.65,0,0,0-4.93-15.55l-18.1,1.27Z"/>
      <g>
        <path class="cls-7" d="M182.24,254.34a7.92,7.92,0,0,1,1.07-.19Z"/>
        <path class="cls-7" d="M178.11,255.76a10.12,10.12,0,0,1-2.5-.29,1.58,1.58,0,0,1-.84-.51,7,7,0,0,0,4.27,0c.62-.15,2.16-.43,3.2-.62A24.85,24.85,0,0,0,178.11,255.76Z"/>
      </g>
      <g>
        <path class="cls-7" d="M178.34,257.88l.27-.11Z"/>
        <path class="cls-7" d="M172.84,259.49s.54.48,1.63,0c.9-.39,3.11-1.3,3.87-1.61-1,.44-3.58,1.91-4.27,2.17A1.53,1.53,0,0,1,172.84,259.49Z"/>
      </g>
      <path class="cls-7" d="M175.55,261.22a37.36,37.36,0,0,0,3.5-1.73,7.18,7.18,0,0,1,2.33-.54,5.27,5.27,0,0,0-1.41.54c-1,.51-3.84,2.25-3.84,2.25a8.65,8.65,0,0,1-2.28-.29A6.52,6.52,0,0,0,175.55,261.22Z"/>
      <path class="cls-7" d="M190.47,262.38c1.49.92,5.87,2.12,8.49,1.63a4,4,0,0,0,3.18-2.69l.73,2.36s36.39,1,43.79.7,18.73-.49,20.22-4.89c-.41,5.1-3.17,7.73-7.11,7.73-5.24,0-57.71-2.13-57.71-2.13-7.73,2.73-13.39-1.84-14.71-2.83a7.79,7.79,0,0,0-4.51-1h0C184.85,260.58,189,261.46,190.47,262.38Z"/>
      <path class="cls-7" d="M248.14,250.6s6.82-.92,8.18-1.07l-1-4.24L246.66,247Z"/>
      <path class="cls-8" d="M266.36,238.73a1.75,1.75,0,0,1-.42,1.9c-3.16,3.1-7.32,7.31-11.6,8-4.67.71-12.45,1-12.87,0s-2-13.57-4.81-19.94S232,219,231.29,215.36s5.65-12.3,8.48-13,9.33-1.13,12,1.27,4.67,11.6,7.78,18.53C262.08,227.74,265.24,235.82,266.36,238.73Z"/>
      <path class="cls-9" d="M248.86,202.22a40.84,40.84,0,0,0-5.19,0,23.65,23.65,0,0,0-2.53.33c-.42.07-.83.17-1.24.26a6.52,6.52,0,0,0-1.1.45,8.06,8.06,0,0,0-2,1.47,18,18,0,0,0-1.69,1.9,43.15,43.15,0,0,0-2.85,4.33,19.39,19.39,0,0,1,2.22-4.78,10.83,10.83,0,0,1,3.81-3.8,6.59,6.59,0,0,1,1.32-.52c.44-.09.88-.19,1.32-.25a17.09,17.09,0,0,1,2.67-.16A19,19,0,0,1,248.86,202.22Z"/>
      <path class="cls-9" d="M262.83,241.33c0-2.26-4.8-23-9-34.52h0c1.79,3.95,3.47,10.25,5.75,15.34,2.51,5.59,5.67,13.67,6.79,16.58a1.75,1.75,0,0,1-.42,1.9c-1.21,1.19-2.57,2.54-4,3.79A4.24,4.24,0,0,0,262.83,241.33Z"/>
    </g>
  </g>
  <g>
    <g>
      <path class="cls-16" d="M35.36,218a3.29,3.29,0,0,0,.39,2,14.4,14.4,0,0,1,1.78,7.38c-.05,1.69-.4,3.42.06,5,.79,2.8,3.75,4.54,4.7,7.29.85,2.44.06,5.51,1.82,7.4a1.63,1.63,0,0,0,1.7.59,2,2,0,0,0,.73-.61c2-2.28,4.17-5,3.55-8-.59-2.8-3.47-4.69-4-7.5-.44-2.29.73-4.94-.58-6.87-.37-.53-.89-.94-1.28-1.45-1.56-2-1-5.2-2.78-7a4.15,4.15,0,0,0-2.13-1.09A3.29,3.29,0,0,0,35.36,218Z"/>
      <g>
        <path class="cls-17" d="M46.79,253.55c.12-1.49.17-3,.23-4.48s-.15-3-.28-4.48-.29-3-.56-4.47a18.67,18.67,0,0,0-1.24-4.36c-1.08-2.74-2-5.6-2.84-8.44l-1.28-4.27c-.53-1.4-1-2.8-1.54-4.21.22,1.48.55,2.94.85,4.41l1.29,4.28c.89,2.85,1.75,5.7,2.86,8.5a18.17,18.17,0,0,1,1.2,4.22c.26,1.45.43,2.92.55,4.4s.21,3,.27,4.45Z"/>
        <path class="cls-17" d="M38.91,223.3a3.66,3.66,0,0,0,.9.9c.18.11.38.19.57.29a1.9,1.9,0,0,1,.52.35l.07.07.06-.1c.14-.21.32-.42.45-.64s.27-.44.39-.67a5,5,0,0,0,.48-1.49l0,0a5.26,5.26,0,0,0-.89,1.28c-.12.24-.21.48-.31.72s-.15.5-.23.75l.13,0a2.16,2.16,0,0,1-.5-.39,3.92,3.92,0,0,0-.45-.46,3.19,3.19,0,0,0-1.12-.6Z"/>
        <path class="cls-17" d="M39.27,228.4c.26.21.52.44.8.63a7.73,7.73,0,0,0,.86.54c.31.14.63.26.93.43a5.36,5.36,0,0,1,.83.58l.1.08.09-.12A15.18,15.18,0,0,0,44,228.85a10.61,10.61,0,0,0,.79-1.86l0,0a11,11,0,0,0-1.19,1.63,15,15,0,0,0-.88,1.8l.18,0a7,7,0,0,1-.89-.49c-.28-.19-.53-.43-.8-.64a7.81,7.81,0,0,0-.88-.52,4.39,4.39,0,0,0-1-.36Z"/>
        <path class="cls-17" d="M41.09,235.13a4.2,4.2,0,0,0,.91.69,3.7,3.7,0,0,0,1,.41,2.69,2.69,0,0,1,1,.48c.3.23.59.48.89.68l.22.15.17-.26a6.61,6.61,0,0,0,.65-1.16,6.18,6.18,0,0,0,.42-1.3l0,0a6.14,6.14,0,0,0-.87,1.05,6.65,6.65,0,0,0-.64,1.17l.39-.1a6,6,0,0,0-1.06-.42,3.44,3.44,0,0,1-1-.55,3.09,3.09,0,0,0-1-.58,3.7,3.7,0,0,0-1.11-.28Z"/>
      </g>
    </g>
    <g>
      <path class="cls-18" d="M49.16,253.84c1.17-.19,5.54-1.59,5.24-2.73-1.31-4.9-2.62-10.46,1.92-12.86,2.18-1.15,4.92-1.74,6.17-3.88s.34-5-.81-7.26-2.54-4.7-2-7.2,3-4.54,3.38-7.18c.54-3.59-3-6.49-6.31-7.9a5.84,5.84,0,0,0-3.6-.59,4.37,4.37,0,0,0-2.2,1.41c-2.35,2.64-2.26,6.62-1.72,10.11s1.36,7.19.05,10.47c-.94,2.34-2.94,4.53-2.41,7,.22,1,.83,1.84,1.07,2.82.63,2.64-1.57,5-2.57,7.54a9.24,9.24,0,0,0,2.05,9.69,2,2,0,0,0,1.78.58Z"/>
      <g>
        <path class="cls-17" d="M48.75,253.9c.27-1.94.54-3.88.89-5.8.08-.48.18-.95.26-1.43s.11-1,.19-1.45c.15-1,.31-1.92.49-2.87a37.65,37.65,0,0,1,1.47-5.59,11.17,11.17,0,0,1,1.22-2.53,3.46,3.46,0,0,1,.88-.94,4.56,4.56,0,0,0,1.18-1.1,4.82,4.82,0,0,0,.86-3,15.4,15.4,0,0,0-.44-3c-.45-1.92-1-3.78-1.33-5.68a13.13,13.13,0,0,1,.11-5.62c.16-.44.28-.89.42-1.34a9.26,9.26,0,0,1,.56-1.3,13.19,13.19,0,0,1,1.63-2.4,11.24,11.24,0,0,0-2.08,2.11,10.7,10.7,0,0,0-.82,1.28,5,5,0,0,0-.56,1.42,13.82,13.82,0,0,0-.14,6c.33,2,.9,3.85,1.34,5.73a14.48,14.48,0,0,1,.42,2.8,4,4,0,0,1-.68,2.5,3.72,3.72,0,0,1-1,.89,4.27,4.27,0,0,0-1.12,1.17,12.29,12.29,0,0,0-1.33,2.73,38.67,38.67,0,0,0-1.5,5.73c-.19,1-.35,1.94-.5,2.91-.06.49-.15,1-.21,1.46s-.07,1-.11,1.47C48.79,250,48.72,251.94,48.75,253.9Z"/>
        <path class="cls-17" d="M56.5,215.64a2.77,2.77,0,0,0-.88.52,3.15,3.15,0,0,0-.69.72,4.26,4.26,0,0,1-.58.81,7.89,7.89,0,0,1-.76.65l.34,0c-.12-.25-.26-.48-.39-.73s-.27-.47-.43-.69-.33-.44-.49-.66-.36-.42-.51-.65h-.06a2.19,2.19,0,0,0,.18.85,4.89,4.89,0,0,0,.35.77,4.7,4.7,0,0,0,.46.7,6.54,6.54,0,0,0,.53.65l.21.23.13-.21a5.88,5.88,0,0,1,.57-.81,3.6,3.6,0,0,1,.77-.63,3.82,3.82,0,0,0,.7-.69,7.14,7.14,0,0,0,.59-.82Z"/>
        <path class="cls-17" d="M52.26,223.06a4.86,4.86,0,0,0,.52.92,6.45,6.45,0,0,0,.67.8c.25.24.54.45.81.67a4.64,4.64,0,0,1,.71.76l.07.09.1-.08a8.23,8.23,0,0,0,.91-.84c.26-.3.54-.58.79-.9s.48-.63.7-1,.42-.68.65-1l0-.05a4,4,0,0,0-1,.73,9.94,9.94,0,0,0-.83.89c-.25.3-.47.64-.71,1s-.42.7-.64,1l.16,0a4.26,4.26,0,0,1-.72-.75c-.2-.28-.38-.59-.6-.86a9.88,9.88,0,0,0-.71-.74,7.59,7.59,0,0,0-.81-.67Z"/>
        <path class="cls-17" d="M60.06,228.79c-.37.43-.75.83-1.14,1.21s-.81.71-1.22,1.08a4.1,4.1,0,0,1-1.43.83,5,5,0,0,1-1.64.18l.25.17a11.2,11.2,0,0,0-.39-1.32,7.59,7.59,0,0,0-.57-1.27,6.33,6.33,0,0,0-.8-1.14,3.16,3.16,0,0,0-1.14-.82l0,0a4.43,4.43,0,0,1,.82,1,12.81,12.81,0,0,1,.61,1.16l.55,1.21c.18.4.34.82.49,1.23l.08.2.17,0a9.55,9.55,0,0,0,1.66-.48,14.5,14.5,0,0,0,1.6-.65,4.61,4.61,0,0,0,2.18-2.62Z"/>
        <path class="cls-17" d="M49.51,233.17a3.33,3.33,0,0,0-.23,1.36,4.56,4.56,0,0,0,.26,1.37,4.9,4.9,0,0,0,.7,1.19l.81,1.09.06.07.1-.06a11.06,11.06,0,0,1,1.42-.81c.48-.25,1-.47,1.47-.68s1-.43,1.5-.62,1-.38,1.55-.57v-.06a7.71,7.71,0,0,0-3.3.67,9.65,9.65,0,0,0-1.47.82A10.29,10.29,0,0,0,51.06,238h.16a3.8,3.8,0,0,1-.76-1.07,9.93,9.93,0,0,1-.42-1.23,9.68,9.68,0,0,1-.47-2.54Z"/>
      </g>
    </g>
    <g>
      <path class="cls-10" d="M41.23,266.49H53.72A2.51,2.51,0,0,0,56,264.13l2-15.35a2.66,2.66,0,0,0-2.31-3.2H39.26a2.66,2.66,0,0,0-2.32,3.2l2,15.35A2.5,2.5,0,0,0,41.23,266.49Z"/>
      <path class="cls-11" d="M39.26,245.58h8.4a2.67,2.67,0,0,0-2.32,3.2l2,15.35a2.5,2.5,0,0,0,2.32,2.36H41.23a2.5,2.5,0,0,1-2.31-2.36l-2-15.35A2.66,2.66,0,0,1,39.26,245.58Z"/>
    </g>
  </g>
  <g>
    <g>
      <path class="cls-19" d="M153.08,262.27H100.86a1,1,0,0,0-1,1v2.31a.94.94,0,0,0,1,.95h52.22Z"/>
      <path class="cls-10" d="M166.52,265.18v.94a.37.37,0,0,1-.37.37H153a.74.74,0,0,1-.74-.74V263a.75.75,0,0,1,.83-.74l13.11,2.55A.37.37,0,0,1,166.52,265.18Z"/>
    </g>
    <g>
      <g>
        <path class="cls-20" d="M61.82,173.52h97.6a4.69,4.69,0,0,1,4.4,3.09l21.35,59.28c.89,3.06-1.35,5.35-4.94,5.73-.55.06-3.17-1.11-7.29-3.05H85.69a4.68,4.68,0,0,1-4.41-3.1L62,181.93l-5.12-2.68S55.67,173.52,61.82,173.52Z"/>
        <path class="cls-10" d="M156.36,176.57H58.76a2,2,0,0,0-1.88,2.68l21.34,59.28a4.68,4.68,0,0,0,4.41,3.09h97.6a2,2,0,0,0,1.88-2.67l-21.34-59.28A4.68,4.68,0,0,0,156.36,176.57Z"/>
        <polygon class="cls-19" points="134.33 241.63 130 225.56 113.58 241.63 134.33 241.63"/>
        <path class="cls-10" d="M110.56,197.39a4,4,0,0,0,4.2,3.72,3.16,3.16,0,0,0,3.24-3.72,4.47,4.47,0,0,0-4.2-3.72A3.18,3.18,0,0,0,110.56,197.39Z"/>
        <g>
          <polygon class="cls-19" points="156.43 231.76 155.18 228.28 156.76 228.28 158.01 231.76 156.43 231.76"/>
          <polygon class="cls-19" points="153.11 231.76 151.86 228.28 153.43 228.28 154.69 231.76 153.11 231.76"/>
          <polygon class="cls-19" points="149.79 231.76 148.53 228.28 150.11 228.28 151.37 231.76 149.79 231.76"/>
          <polygon class="cls-19" points="146.47 231.76 145.21 228.28 146.79 228.28 148.04 231.76 146.47 231.76"/>
        </g>
        <g>
          <polygon class="cls-19" points="99.28 231.76 98.03 228.28 99.6 228.28 100.86 231.76 99.28 231.76"/>
          <polygon class="cls-19" points="95.96 231.76 94.7 228.28 96.28 228.28 97.54 231.76 95.96 231.76"/>
          <polygon class="cls-19" points="92.64 231.76 91.38 228.28 92.96 228.28 94.21 231.76 92.64 231.76"/>
          <polygon class="cls-19" points="89.31 231.76 88.06 228.28 89.64 228.28 90.89 231.76 89.31 231.76"/>
        </g>
      </g>
      <g>
        <path class="cls-11" d="M101.37,260.76c1-2.77,12.64-40.45,12.64-40.45h15l1,5.25s-10.06,32.43-11,35.2l-.21.64h0c-.88,2.71,1.45,2.69,4.06,2.69h26.44v2.4H105.22C99.93,266.49,100.41,263.53,101.37,260.76Z"/>
        <path class="cls-10" d="M129,220.31S117.33,258,116.36,260.76s-1.44,5.73,3.86,5.73H102.61c-5.3,0-4.82-3-3.86-5.73s12.65-40.45,12.65-40.45Z"/>
        <path class="cls-21" d="M125.33,220.31c-1.16-.06-2.32-.08-3.48-.12s-2.32-.05-3.49-.07-2.32-.06-3.48-.06l-3.48,0h-.2l-.06.19c-.48,1.52-1,3-1.42,4.56l-1.39,4.58c-.89,3.06-1.79,6.12-2.61,9.2,1.08-3,2.07-6,3.07-9.06l1.44-4.56c.49-1.51,1-3,1.42-4.56l-.25.18,3.48,0c1.16,0,2.32,0,3.48-.05s2.33,0,3.49-.07S124.17,220.36,125.33,220.31Z"/>
      </g>
    </g>
  </g>
  <g>
    <path class="cls-22" d="M23.2,275.74H281.7a4.62,4.62,0,0,0,4.62-4.62h0a4.62,4.62,0,0,0-4.62-4.63H23.2a4.63,4.63,0,0,0-4.63,4.63h0A4.62,4.62,0,0,0,23.2,275.74Z"/>
    <path class="cls-23" d="M23.2,275.74H281.7a4.62,4.62,0,0,0,4.62-4.62H18.57A4.62,4.62,0,0,0,23.2,275.74Z"/>
  </g>
  <g>
    <circle class="cls-8" cx="60.11" cy="60.57" r="38.91" transform="translate(-12.56 105.29) rotate(-76.83)"/>
    <g class="cls-24">
      <g>
        <g>
          <path class="cls-25" d="M114.82,91.62c.74,3.71-2.7,7-3.77,7.63s-8.3,3.51-12.64,3.61-10.06-9.07-7.72-10.11,18.31-2.16,20.06-2.16A12.52,12.52,0,0,1,114.82,91.62Z"/>
          <path class="cls-14" d="M103.45,89.66c-1.9,11.14-6.4,19.8-7.8,20s-14.88-4.48-18.6-6.18,1.14-27.84,3.45-27.38,7.39,5.48,11.58,7.89S103.45,89.66,103.45,89.66Z"/>
          <path class="cls-26" d="M81.24,94.29c1.3,2.23,12,7.88,17.91,9.94-1.46,3.29-2.83,5.31-3.5,5.38-1.2.14-11.26-3.25-16.46-5.29A79.79,79.79,0,0,1,81.24,94.29Z"/>
          <path class="cls-25" d="M114.84,91.1c.1,4.42-3.88,5.06-8.64,3.92s-12.54-11.86-16-16.7S80.27,64.83,78.94,64.06s-4.4-1.18-7-5.54S72.74,45,74,44s11.85,2.53,13.09,4.36S86.19,60,86.57,61.2,96,72.54,99.92,75,114.76,87.91,114.84,91.1Z"/>
          <path class="cls-27" d="M79.42,51.24c-1.25-.62-1.55-3.43-.77-2.93s2.16.48,4,.46a15.84,15.84,0,0,0,2.62-.19,16.19,16.19,0,0,1,.18,2.22S80.67,51.86,79.42,51.24Z"/>
          <path class="cls-27" d="M71.15,51.88l1.34-2.47,7.3,7a46.59,46.59,0,0,1,4.44-3.31l.65,1.14a23.46,23.46,0,0,0-2.24,7.26s-1.12,1.24-1.74,1.34c0,0,7.81,12.37,12.83,18.46s8.41,11.28,10.77,13c-4.75-2.74-11.23-11.67-14.31-16-3.46-4.85-9.92-13.49-11.25-14.26s-4.4-1.18-7-5.54C70.87,56.79,70.8,54.31,71.15,51.88Z"/>
          <path class="cls-28" d="M86.35,52.59c-.09.72-7.35,7-8.1,7.73-.06.06-.63.14-.78,0-1.94-1.69-10.36-17-10.51-17.55s5.45-5.78,7.16-7.19a1.53,1.53,0,0,1,1.35.16C77.19,38.29,86.47,51.66,86.35,52.59Z"/>
          <path class="cls-29" d="M85.57,52.59c-.09.72-7.35,7-8.1,7.73s-11.13-17-11.29-17.55,6.09-5.69,7.79-7.1a.49.49,0,0,1,.72.07C76.41,38.29,85.69,51.66,85.57,52.59Z"/>
          <path class="cls-30" d="M84.35,51.55c-.08.68-6.87,6.56-7.58,7.24S66.36,42.93,66.21,42.37,71.9,37,73.5,35.72a.46.46,0,0,1,.67.07C75.78,38.18,84.46,50.68,84.35,51.55Z"/>
          <path class="cls-25" d="M80,42.93a8,8,0,0,1-2.63-3.75c-.13-.77-.05-1.47.55-1.62s2.47,2.27,3.4,3,2.05,2.22,1.59,3.22-2.52.62-2.74.47S80,42.93,80,42.93Z"/>
          <path class="cls-27" d="M77.58,37.76c-.36.88,2,4.41,4,5.43l-.76.86L80,43.87a6.15,6.15,0,0,1,0-.94,8,8,0,0,1-2.63-3.75A1.71,1.71,0,0,1,77.58,37.76Z"/>
          <path class="cls-25" d="M82.61,46.49c-1.93-1-3.45-.91-4.5-1.34s-1.25-2-.53-2.32,5.07.43,6.2.93,1.66,2.82,1.66,2.82Z"/>
          <path class="cls-27" d="M81.76,45.29a2.54,2.54,0,0,0,1.47,0c0,.43.37.64.83,1.25l-1.45,0c-1.93-1-3.45-.91-4.5-1.34a1.57,1.57,0,0,1-.89-1.09C77.69,45,80.67,45.08,81.76,45.29Z"/>
          <path class="cls-25" d="M87.07,48.31C86,49.74,81,49.12,80,49s-1.66-.8-1.56-1.45c.21-1.31,6.9-1.08,7.45-.87S87.07,48.31,87.07,48.31Z"/>
          <path class="cls-27" d="M78.44,47.83c.69.69,2.35,1.08,4.16,1.23a19.75,19.75,0,0,0,2.69,0A21.44,21.44,0,0,1,80,49,1.68,1.68,0,0,1,78.44,47.83Z"/>
        </g>
        <g>
          <path class="cls-14" d="M63.39,68.31c10.74,5.47,12.5,5.26,17.11,7.74s3.24,28.56,3,32.58-1.4,20-.79,24.34,3,20.42,4.06,22.89,3.07,6.66,0,9.13-9.72,4.18-24.05,3.25-29.77-9.75-30.45-11,6.85-24,7.16-28.31A58.16,58.16,0,0,1,41,119.36c.45-2-4.1-11.45-4.83-17.48s-7.28-22.67-6-25.72,12.66-6.45,20.43-10.32A10.47,10.47,0,0,1,63.39,68.31Z"/>
          <path class="cls-26" d="M74,75.08A29.93,29.93,0,0,1,63.88,89.86a45.34,45.34,0,0,1-16.49-7.62,69,69,0,0,0,17.34,9.47A25.46,25.46,0,0,0,74,75.08Z"/>
          <path class="cls-25" d="M71.84,72.31c-2.06-.88-4.71-2.09-8.45-4a10.47,10.47,0,0,0-12.87-2.47c-2.7,1.34-5.83,2.63-8.83,3.86a38.87,38.87,0,0,0,20.79,17A27.37,27.37,0,0,0,71.84,72.31Z"/>
          <path class="cls-26" d="M32.17,157.26c-.69-1.24,6.85-24,7.16-28.31A58.16,58.16,0,0,1,41,119.36c.45-2-4.1-11.45-4.83-17.48a32.39,32.39,0,0,0-.84-4l4.84-3.61c2.84,7.92,4.61,21.84,7.3,25.25s9.4,4.79,9.4,4.79-6.62,1.55-9.51.93c0,0-3.08,12.22-3.12,18.25s.53,15.16.6,16.4c0,.46-.08,2.07-.22,3.91C37.65,161.07,32.55,158,32.17,157.26Z"/>
          <path class="cls-25" d="M51.74,54.85c-.11,6.45-.54,10.89-2,12.12,0,0,2.46,10.71,12.28,9.8,3.32-.31,3-5.88,1.34-8.46l1-7.91Z"/>
          <path class="cls-27" d="M50.52,65.84h0c.84-2,1.13-5.84,1.22-11L64.38,60.4l-.64,5.07h0C61.5,66.48,50.52,65.84,50.52,65.84Z"/>
        </g>
        <g>
          <path class="cls-25" d="M16.93,107.05c-2.17,3-5.09,10.42-4,13.82S25.3,139.43,30.46,145.1s6.32,6.6,7.22,8.46,5.29,9.51,6.44,10.67a5.84,5.84,0,0,0,3.23,1.32,5.49,5.49,0,0,0,4.53,1.39,17,17,0,0,0,4.64,2.24s.68,1.32,1.37,1.43,1.56-1.27.29-4.06-3.34-3.94-3.68-5.72a35.94,35.94,0,0,0-1.94-5.41s3.61,3.71,5.84,3.94,2.52-1.08,1.3-2.17a28.47,28.47,0,0,1-4.28-4.79,8.5,8.5,0,0,0-6.13-3.87c-2.84-.38-4.83-.69-5.56-1.24s-4.44-5.8-7-11.47S32,122.9,25.52,116.54l2.84-5Z"/>
          <path class="cls-27" d="M56.43,168.83a11.92,11.92,0,0,0-2.67-4.1l-.44-.43c-.13-.14-.36-.31-.41-.39-.22-.28-.41-.65-.63-1-.4-.69-.8-1.4-1.25-2.08a15.61,15.61,0,0,0,.83,2.32,6.23,6.23,0,0,0,.57,1.12c.19.25.31.3.45.47l.42.42c.55.57,1.08,1.18,1.61,1.77S55.94,168.17,56.43,168.83Z"/>
          <path class="cls-27" d="M51.76,166.4c-.43-.83-.93-1.55-1.39-2.31s-.89-1.5-1.32-2.33a4.81,4.81,0,0,0,.79,2.68A6,6,0,0,0,51.76,166.4Z"/>
          <path class="cls-27" d="M49.49,166.73a5,5,0,0,1-2.14-1.18,5.84,5.84,0,0,1-3.23-1.32,30.84,30.84,0,0,1-2.58-3.84s1.32,1.44,2.25,2.6a3.14,3.14,0,0,0,3.2,1.09l-.25-1.5S48,166,49.49,166.73Z"/>
          <path class="cls-27" d="M12.89,117.09c.06,1.41.08,2.53,2.17,6.24,2.36,4.16,16.52,21.73,19.61,25s3,3.45,4.82,8.58c-.82-1.45-1.51-2.71-1.81-3.33-.9-1.86-2.07-2.79-7.22-8.46S14,124.27,12.94,120.87A8.45,8.45,0,0,1,12.89,117.09Z"/>
          <path class="cls-27" d="M24,113,22.84,115a6.5,6.5,0,0,1,2.68,1.59l2.25-3.81Z"/>
          <path class="cls-14" d="M37.56,102.54c3-5.81,4.14-15.25,1.47-20.22s-7.71-6.76-8.94-6.16-4.58,8.35-7.73,11.92-11.72,13.62-12,14.46,6.2,7.67,18.36,12.67C30.18,115.81,37.56,102.54,37.56,102.54Z"/>
          <path class="cls-26" d="M28.54,107.05l-1.94,4s9.56-9.58,13.52-16.72a28.56,28.56,0,0,1-2.56,8.23s-7.38,13.27-8.82,12.67A61.33,61.33,0,0,1,23,112.52Z"/>
        </g>
        <g>
          <path class="cls-11" d="M65.11,55.43a44.15,44.15,0,0,1-.8-8.11c-.12-2-.22-3.89-2.07-5.11a6.78,6.78,0,0,0-4.63-.86c-4.27.54-5.19,4.7-4.86,8.63a28.89,28.89,0,0,0,2.6,8.68,6.62,6.62,0,0,1-4.65-2.19A9.4,9.4,0,0,0,53.16,61c-4.55-.08-8.77-3.06-11.18-7a23.83,23.83,0,0,1-2.91-13.58,27,27,0,0,1,5.5-15.48A19.89,19.89,0,0,1,73,22.65a20.51,20.51,0,0,1,5.85,9.69,32.3,32.3,0,0,1,.26,15,51.63,51.63,0,0,0-.83,5.86c-.06.64-.83,8-.39,8-2.87.17-6.17-.41-8.12-2.6.88,1.5,1.63,3,2.5,4.47C68.69,62.49,66,59.11,65.11,55.43Z"/>
          <path class="cls-25" d="M50.2,45.38c-1.28-.75-2.83-1.17-4,0-1.75,1.78.74,10.06,4.52,8,0,0,5.48,7.66,9.5,9.83s6.88,1.08,8.38-.47,6.64-7.89,7.56-14.61c.33-2.4,0-7.12,0-8.13.23-3.09,1.4-5.63-1-8.06A14.16,14.16,0,0,0,65.8,28a15.15,15.15,0,0,0-11.66,5.1C50.94,36.69,50.39,40.79,50.2,45.38Z"/>
          <path class="cls-27" d="M46.81,47.68c.32-1.51,1.62-1.81,2.58-.75s1.15,4.51.9,5-1.95.47-2.27-.57.66-1.71,1.62-1.4a3.59,3.59,0,0,0-.52-2.51c-.77-1-1.59-.61-1.78-.35A7.7,7.7,0,0,1,46.81,47.68Z"/>
          <g>
            <path class="cls-15" d="M57.27,41c.37-.34.76-.66,1.16-1a7.9,7.9,0,0,1,1.32-.78,4.22,4.22,0,0,1,1.45-.49,3.1,3.1,0,0,1,1.48.2V39l-.71.23-.69.18c-.44.13-.9.17-1.35.32a10,10,0,0,0-1.32.56c-.44.21-.86.47-1.29.72Z"/>
            <path class="cls-15" d="M74.38,39.24a5,5,0,0,0-1.31-.48,7.12,7.12,0,0,0-1.38-.16c-.47,0-.94.09-1.4.08a14.13,14.13,0,0,1-1.44,0l0-.07A3.61,3.61,0,0,1,70.27,38a4.25,4.25,0,0,1,1.51.06,6.2,6.2,0,0,1,1.42.38,4.88,4.88,0,0,1,1.22.75Z"/>
            <path class="cls-15" d="M61.87,43.7c0-.66-.35-1.16-.74-1.12s-.69.6-.67,1.25S60.8,45,61.19,45,61.88,44.35,61.87,43.7Z"/>
            <path class="cls-15" d="M72.2,42.87c0-.65-.29-1.16-.61-1.13S71,42.33,71,43s.29,1.16.61,1.13S72.21,43.52,72.2,42.87Z"/>
            <path class="cls-27" d="M65.1,50.05a2.91,2.91,0,0,0,3.19,0,1.46,1.46,0,0,1-.83,1.18A2,2,0,0,1,66,51.12C65.53,50.91,65.39,50.46,65.1,50.05Z"/>
            <g>
              <path class="cls-31" d="M61.52,53.89a88,88,0,0,0,9-.6c-.66,2.19-2.41,4.34-4.86,4.35C63.49,57.64,62,55.83,61.52,53.89Z"/>
              <path class="cls-32" d="M63.5,56.92a3.89,3.89,0,0,1,2.08,0,3.32,3.32,0,0,1,2.8-.27,4.31,4.31,0,0,1-2.69,1A3.71,3.71,0,0,1,63.5,56.92Z"/>
              <path class="cls-14" d="M69.09,55.12a10.57,10.57,0,0,1-6.63-.26c0-.32,0-.65-.06-1,2.13,0,5.58-.31,7.43-.51A6.47,6.47,0,0,1,69.09,55.12Z"/>
            </g>
          </g>
          <path class="cls-11" d="M52.36,38.27A30.17,30.17,0,0,0,62.62,36a11.54,11.54,0,0,0,.73-4.26A12.26,12.26,0,0,1,64.85,37L71,36.64a12.52,12.52,0,0,0,.55-5A21.18,21.18,0,0,1,72.84,37c1.24-.44,2.81.2,4.1.44,1.6-3.57,1.49-10-1.89-12.74S66,21.36,62,21.94C53.41,23.18,46.67,30.3,47.2,39.18a20.72,20.72,0,0,0,6.48,13.37A20.53,20.53,0,0,1,52.36,38.27Z"/>
        </g>
      </g>
    </g>
  </g>
  <g>
    <circle class="cls-18" cx="116.43" cy="122.66" r="22.63" transform="translate(-31.57 204.49) rotate(-75.43)"/>
    <g>
      <rect class="cls-5" x="103.41" y="113.8" width="26.04" height="17.72" rx="3.43" transform="translate(232.86 245.32) rotate(180)"/>
      <path class="cls-3" d="M105.27,131.52h22.32a1.86,1.86,0,0,0,1.86-1.86l-13-8.19-13,8.19A1.86,1.86,0,0,0,105.27,131.52Z"/>
      <path class="cls-8" d="M105.27,113.8h22.32a1.86,1.86,0,0,1,1.86,1.86l-13,8.18-13-8.18A1.86,1.86,0,0,1,105.27,113.8Z"/>
    </g>
  </g>
  <g>
    <circle class="cls-18" cx="276.85" cy="155.22" r="22.63" transform="translate(-27.89 66.49) rotate(-13.04)"/>
    <g>
      <g>
        <path class="cls-5" d="M283.19,150.79h-2.27a8.17,8.17,0,0,0-1-2.49l1.61-1.61a.56.56,0,0,0,0-.79l-1.79-1.79a.56.56,0,0,0-.79,0l-1.61,1.61a8.12,8.12,0,0,0-2.5-1v-2.27a.57.57,0,0,0-.56-.57h-2.53a.57.57,0,0,0-.56.57v2.27a8,8,0,0,0-2.49,1l-1.61-1.61a.57.57,0,0,0-.8,0l-1.79,1.79a.56.56,0,0,0,0,.79l1.61,1.61a8.15,8.15,0,0,0-1,2.49h-2.28a.57.57,0,0,0-.56.57v2.53a.56.56,0,0,0,.56.56H265a7.94,7.94,0,0,0,1,2.49l-1.61,1.61a.57.57,0,0,0,0,.8l1.79,1.79a.57.57,0,0,0,.8,0l1.61-1.61a7.94,7.94,0,0,0,2.49,1v2.28a.56.56,0,0,0,.56.56h2.53a.56.56,0,0,0,.56-.56v-2.28a8.1,8.1,0,0,0,2.5-1l1.61,1.61a.56.56,0,0,0,.79,0l1.79-1.79a.57.57,0,0,0,0-.8l-1.61-1.61a8,8,0,0,0,1-2.49h2.27a.56.56,0,0,0,.56-.56v-2.53A.57.57,0,0,0,283.19,150.79ZM273,156.11a3.49,3.49,0,1,1,3.49-3.49A3.49,3.49,0,0,1,273,156.11Z"/>
        <path class="cls-8" d="M273,147.76a4.86,4.86,0,1,0,4.86,4.86A4.86,4.86,0,0,0,273,147.76Zm0,7.83a3,3,0,1,1,3-3A3,3,0,0,1,273,155.59Z"/>
      </g>
      <g>
        <path class="cls-5" d="M292.91,160.76h-1.16a4.21,4.21,0,0,0-.53-1.27l.82-.83a.28.28,0,0,0,0-.4l-.91-.92a.3.3,0,0,0-.41,0l-.82.83a3.9,3.9,0,0,0-1.28-.53v-1.16a.28.28,0,0,0-.28-.29H287a.29.29,0,0,0-.28.29v1.16a3.9,3.9,0,0,0-1.28.53l-.82-.83a.3.3,0,0,0-.41,0l-.91.92a.28.28,0,0,0,0,.4l.82.83a4.21,4.21,0,0,0-.53,1.27h-1.16a.29.29,0,0,0-.29.29v1.29a.29.29,0,0,0,.29.29h1.16a4.32,4.32,0,0,0,.53,1.27l-.82.82a.3.3,0,0,0,0,.41l.91.91a.28.28,0,0,0,.41,0l.82-.82a4.38,4.38,0,0,0,1.28.53v1.16a.29.29,0,0,0,.28.29h1.3a.28.28,0,0,0,.28-.29v-1.16a4.38,4.38,0,0,0,1.28-.53l.82.82a.28.28,0,0,0,.41,0l.91-.91a.3.3,0,0,0,0-.41l-.82-.82a4.32,4.32,0,0,0,.53-1.27h1.16a.29.29,0,0,0,.29-.29v-1.29A.29.29,0,0,0,292.91,160.76Zm-5.22,2.72a1.79,1.79,0,1,1,1.78-1.79A1.79,1.79,0,0,1,287.69,163.48Z"/>
        <path class="cls-8" d="M287.69,159.21a2.49,2.49,0,1,0,2.48,2.48A2.48,2.48,0,0,0,287.69,159.21Zm0,4a1.52,1.52,0,1,1,1.52-1.52A1.52,1.52,0,0,1,287.69,163.21Z"/>
      </g>
    </g>
  </g>
  <g>
    <circle class="cls-18" cx="174.77" cy="91.13" r="22.63" transform="translate(-21.38 71.79) rotate(-21.91)"/>
    <g>
      <rect class="cls-14" x="161.75" y="80.49" width="26.04" height="22.26" rx="3.3" transform="translate(349.54 183.25) rotate(180)"/>
      <path class="cls-8" d="M161.75,85.15h26V82.28A1.79,1.79,0,0,0,186,80.49H163.54a1.79,1.79,0,0,0-1.79,1.79Z"/>
      <g>
        <g>
          <path class="cls-14" d="M181.57,81.49h0a.52.52,0,0,0,.52-.53V80a.52.52,0,0,0-.52-.53h0A.53.53,0,0,0,181,80V81A.53.53,0,0,0,181.57,81.49Z"/>
          <path class="cls-14" d="M183.08,81.49h0a.52.52,0,0,0,.52-.53V80a.52.52,0,0,0-.52-.53h0a.53.53,0,0,0-.53.53V81A.53.53,0,0,0,183.08,81.49Z"/>
        </g>
        <g>
          <path class="cls-14" d="M166.46,81.49h0A.53.53,0,0,0,167,81V80a.53.53,0,0,0-.53-.53h0a.53.53,0,0,0-.53.53V81A.53.53,0,0,0,166.46,81.49Z"/>
          <path class="cls-14" d="M168,81.49h0a.53.53,0,0,0,.53-.53V80a.53.53,0,0,0-.53-.53h0a.53.53,0,0,0-.53.53V81A.53.53,0,0,0,168,81.49Z"/>
        </g>
      </g>
      <g>
        <rect class="cls-5" x="175.98" y="87.92" width="2.26" height="2.26" rx="0.79"/>
        <rect class="cls-5" x="170.61" y="87.92" width="2.26" height="2.26" rx="0.79"/>
        <rect class="cls-5" x="165.25" y="87.92" width="2.26" height="2.26" rx="0.79"/>
        <rect class="cls-5" x="181.35" y="92.55" width="2.26" height="2.26" rx="0.79"/>
        <rect class="cls-5" x="175.98" y="92.55" width="2.26" height="2.26" rx="0.79"/>
        <rect class="cls-5" x="170.61" y="92.55" width="2.26" height="2.26" rx="0.79"/>
        <rect class="cls-5" x="165.25" y="92.55" width="2.26" height="2.26" rx="0.79"/>
        <rect class="cls-5" x="181.35" y="97.17" width="2.26" height="2.26" rx="0.79"/>
        <rect class="cls-5" x="175.98" y="97.17" width="2.26" height="2.26" rx="0.79"/>
        <rect class="cls-5" x="170.61" y="97.17" width="2.26" height="2.26" rx="0.79"/>
      </g>
    </g>
  </g>
  <g>
    <circle class="cls-18" cx="239.54" cy="102.76" r="22.63" transform="translate(-2.5 199.48) rotate(-45)"/>
    <g>
      <circle class="cls-14" cx="239.54" cy="102.76" r="15.5" transform="translate(-2.5 199.48) rotate(-45)"/>
      <path class="cls-8" d="M239.54,87.26a15.5,15.5,0,1,0,15.5,15.5A15.5,15.5,0,0,0,239.54,87.26Zm1.3,28.7v-2.11a.71.71,0,0,0-.71-.72H239a.71.71,0,0,0-.71.72V116a13.26,13.26,0,0,1-11.9-11.9h2.11a.72.72,0,0,0,.72-.72v-1.17a.71.71,0,0,0-.72-.71h-2.11a13.28,13.28,0,0,1,11.9-11.91v2.12a.71.71,0,0,0,.71.71h1.18a.71.71,0,0,0,.71-.71V89.55a13.3,13.3,0,0,1,11.91,11.91h-2.12a.71.71,0,0,0-.71.71v1.17a.71.71,0,0,0,.71.72h2.12A13.28,13.28,0,0,1,240.84,116Z"/>
      <text class="cls-33" transform="translate(231.78 106.45)">2<tspan class="cls-34" x="4.38" y="0">4</tspan><tspan class="cls-35" x="8.96" y="0">/</tspan><tspan class="cls-36" x="13.42" y="0">7</tspan></text>
    </g>
  </g>
  <polygon class="cls-37" points="102.92 12.24 105.76 17.98 112.1 18.91 107.51 23.38 108.59 29.69 102.92 26.71 97.25 29.69 98.34 23.38 93.75 18.91 100.09 17.98 102.92 12.24"/>
  <polygon class="cls-37" points="126.46 12.24 129.3 17.98 135.64 18.91 131.05 23.38 132.13 29.69 126.46 26.71 120.79 29.69 121.88 23.38 117.29 18.91 123.63 17.98 126.46 12.24"/>
  <polygon class="cls-37" points="150 12.24 152.84 17.98 159.18 18.91 154.59 23.38 155.67 29.69 150 26.71 144.33 29.69 145.41 23.38 140.82 18.91 147.16 17.98 150 12.24"/>
  <polygon class="cls-37" points="173.54 12.24 176.37 17.98 182.71 18.91 178.13 23.38 179.21 29.69 173.54 26.71 167.87 29.69 168.95 23.38 164.36 18.91 170.7 17.98 173.54 12.24"/>
  <polygon class="cls-37" points="197.08 12.24 199.91 17.98 206.25 18.91 201.66 23.38 202.75 29.69 197.08 26.71 191.41 29.69 192.49 23.38 187.9 18.91 194.24 17.98 197.08 12.24"/>
</svg>
