<svg id="Capa_1" data-name="Capa 1" xmlns="http://www.w3.org/2000/svg" width="300" height="300" viewBox="0 0 300 300">
  <defs>
    <style>
      .cls-1 {
        fill: #0f0140;
        opacity: 0.19;
      }

      .cls-2 {
        fill: #ff8b2e;
      }

      .cls-3 {
        fill: #fdfefd;
      }

      .cls-10, .cls-11, .cls-23, .cls-24, .cls-29, .cls-35, .cls-36, .cls-4, .cls-5 {
        fill: none;
        stroke-miterlimit: 10;
      }

      .cls-4, .cls-5 {
        stroke: #212b3b;
      }

      .cls-11, .cls-23, .cls-24, .cls-4 {
        stroke-width: 2px;
      }

      .cls-6 {
        fill: #212b3b;
      }

      .cls-7 {
        fill: #fff;
      }

      .cls-8 {
        fill: #0a4494;
      }

      .cls-9 {
        fill: #ffd6d0;
      }

      .cls-10 {
        stroke: #cc8f8d;
      }

      .cls-10, .cls-11, .cls-23, .cls-24, .cls-35, .cls-36 {
        stroke-linecap: round;
      }

      .cls-11 {
        stroke: #ffd6d0;
      }

      .cls-12 {
        fill: #3e2ea6;
      }

      .cls-13 {
        fill: #6b2e40;
      }

      .cls-14 {
        fill: #fac8bf;
      }

      .cls-15 {
        fill: #eda19f;
      }

      .cls-16 {
        fill: #6558b8;
      }

      .cls-17 {
        fill: #8b82ca;
      }

      .cls-18 {
        fill: #bf4753;
      }

      .cls-19 {
        fill: #0387d9;
      }

      .cls-20 {
        fill: #904b57;
      }

      .cls-21 {
        fill: #bd7d81;
      }

      .cls-22 {
        fill: #75c0e0;
      }

      .cls-23 {
        stroke: #904b57;
      }

      .cls-24, .cls-35 {
        stroke: #b35267;
      }

      .cls-25 {
        fill: #363857;
      }

      .cls-26 {
        fill: #b35267;
      }

      .cls-27 {
        fill: #ffedef;
      }

      .cls-28 {
        fill: #e6919d;
      }

      .cls-29 {
        stroke: #363857;
      }

      .cls-30 {
        fill: #091320;
      }

      .cls-31 {
        opacity: 0.95;
      }

      .cls-32 {
        fill: #12252b;
      }

      .cls-33 {
        fill: #597375;
      }

      .cls-34 {
        fill: #324b4f;
      }

      .cls-36 {
        stroke: #eb6e6a;
      }
    </style>
  </defs>
  <path class="cls-1" d="M150,57.54V2.7a147.3,147.3,0,0,0,0,294.6V242.46a92.46,92.46,0,0,1,0-184.92Z"/>
  <g>
    <g>
      <g>
        <circle class="cls-2" cx="99.14" cy="75.46" r="22.93"/>
        <circle class="cls-3" cx="99.14" cy="75.46" r="19.66"/>
      </g>
      <g>
        <g>
          <g>
            <line class="cls-4" x1="99.15" y1="56.79" x2="99.12" y2="59.4"/>
            <line class="cls-4" x1="99.16" y1="91.52" x2="99.14" y2="94.13"/>
          </g>
          <g>
            <line class="cls-4" x1="80.47" y1="75.46" x2="83.08" y2="75.47"/>
            <line class="cls-4" x1="115.2" y1="75.44" x2="117.81" y2="75.47"/>
          </g>
        </g>
        <g>
          <g>
            <line class="cls-5" x1="85.95" y1="62.25" x2="87.77" y2="64.11"/>
            <line class="cls-5" x1="110.52" y1="86.81" x2="112.34" y2="88.66"/>
          </g>
          <g>
            <line class="cls-5" x1="85.93" y1="88.66" x2="87.8" y2="86.83"/>
            <line class="cls-5" x1="110.49" y1="64.09" x2="112.34" y2="62.27"/>
          </g>
        </g>
        <circle class="cls-6" cx="99.14" cy="75.46" r="1.57"/>
      </g>
    </g>
    <g>
      <g>
        <path class="cls-7" d="M213.86,108V97.23a8.54,8.54,0,0,1,8.54-8.54h43.3a8.54,8.54,0,0,1,8.54,8.54V108a8.54,8.54,0,0,1-8.54,8.54H222.4A8.54,8.54,0,0,1,213.86,108Z"/>
        <polygon class="cls-7" points="240.16 112.13 238.21 130.64 255.64 112.42 240.16 112.13"/>
      </g>
      <g>
        <ellipse class="cls-8" cx="226.81" cy="103.83" rx="3.21" ry="3.03"/>
        <ellipse class="cls-8" cx="244.28" cy="103.83" rx="3.21" ry="3.03"/>
        <ellipse class="cls-8" cx="261.28" cy="103.83" rx="3.21" ry="3.03"/>
      </g>
    </g>
  </g>
  <g>
    <g>
      <g>
        <path class="cls-9" d="M218.74,253.4c2.71-14.46,6.47-28.88,12.69-42.56s15-26.64,26.79-37.06c4.46-3.94,10.56-7.75,16.37-6.1s8.06,8.06,7.56,13.59c-.87,9.64-7.36,18.26-14.15,26C253.62,223.57,237,238.19,218.74,253.4Z"/>
        <g>
          <path class="cls-10" d="M275.61,173.11a473.44,473.44,0,0,0-55.77,78.36"/>
          <g>
            <path class="cls-10" d="M266.5,170.09a41.51,41.51,0,0,1,2.63,10.62,27.36,27.36,0,0,1,11.77.72"/>
            <path class="cls-10" d="M249.26,185.13a26,26,0,0,1,5.63,13,34.63,34.63,0,0,1,18.06,1"/>
            <path class="cls-10" d="M235.59,207.22a24.13,24.13,0,0,1,4,11.73,63.11,63.11,0,0,1,17-1.07"/>
            <path class="cls-10" d="M227.13,227.88a16.55,16.55,0,0,1,2.66,6.38A48.29,48.29,0,0,1,239,231.6"/>
          </g>
        </g>
      </g>
      <g>
        <path class="cls-9" d="M214.5,256.64C228,243.94,241.73,231,259.26,222.3c4.49-2.23,9.4-4.21,14.56-4.35s10.59,2,12.18,6-.94,8.32-4.77,11.12-8.74,4.33-13.52,5.78C250.3,246.1,232.89,251.38,214.5,256.64Z"/>
        <g>
          <path class="cls-10" d="M282.27,225.12A182,182,0,0,0,217,255.05"/>
          <path class="cls-10" d="M273.5,220.35a20,20,0,0,1-1.23,7.28,10.93,10.93,0,0,1,5.44,6.16"/>
          <path class="cls-10" d="M259.41,224.45a32.28,32.28,0,0,1-2,8.39,16.84,16.84,0,0,1,5.79,6.62"/>
          <path class="cls-10" d="M243,232.9a17.4,17.4,0,0,1,0,6.63,11.53,11.53,0,0,1,6.95,4.17"/>
          <path class="cls-10" d="M230.3,243.17a7.34,7.34,0,0,1-.55,3.76,10.61,10.61,0,0,1,6.52,2.61"/>
        </g>
      </g>
      <g>
        <path class="cls-9" d="M216.73,256.64q17.94-46,32.83-93.82c2.28-7.28,4.42-15.91,1.18-22.45-3.37-6.82-11.46-7.67-17.06-3.66s-9.1,11.52-11.6,19C210.93,189.29,214.84,227.17,216.73,256.64Z"/>
        <g>
          <path class="cls-10" d="M242.94,139.06c-14.47,27.23-21.19,67.23-25.38,116.85"/>
          <g>
            <path class="cls-10" d="M223.35,160.68a34.12,34.12,0,0,1,7.18,10.85,34.76,34.76,0,0,1,15.23-5.5"/>
            <path class="cls-10" d="M216.78,185.88a47.32,47.32,0,0,1,8.61,9.73,36.14,36.14,0,0,1,13.46-8.14"/>
            <path class="cls-10" d="M216.61,211.39a20,20,0,0,1,4.79,5.3,32.68,32.68,0,0,1,9.13-5.91"/>
            <path class="cls-10" d="M231.36,142.35a17.57,17.57,0,0,1,5.36,11,15.75,15.75,0,0,1,13-2.18"/>
          </g>
        </g>
      </g>
    </g>
    <g>
      <g>
        <g>
          <path class="cls-11" d="M137.07,145.8a292.92,292.92,0,0,1,26.13,85.8"/>
          <g>
            <path class="cls-9" d="M137.37,146.92a17.24,17.24,0,0,1-12.48-11c-.55-1.63-.67-3.76.81-4.79s3.56-.25,5,.75C135.72,135.36,138.76,141.25,137.37,146.92Z"/>
            <path class="cls-9" d="M139.86,151.25a32.08,32.08,0,0,1,.19-16.28,6.42,6.42,0,0,1,.91-2.13,2.52,2.52,0,0,1,1.95-1.12,2.46,2.46,0,0,1,1.94,1.12,5.3,5.3,0,0,1,.78,2.16,16.7,16.7,0,0,1-1.07,8.63A23.9,23.9,0,0,1,139.86,151.25Z"/>
            <path class="cls-9" d="M143.91,159.55a30.47,30.47,0,0,1,2.79-14.81,13.25,13.25,0,0,1,3.69-5,3.09,3.09,0,0,1,3.08-.7,2.46,2.46,0,0,1,1.25,2.14,6.53,6.53,0,0,1-.54,2.53A47.1,47.1,0,0,1,143.91,159.55Z"/>
            <path class="cls-9" d="M147.16,167.28a16.13,16.13,0,0,1,8.27-15.13c1.16-.62,2.63-1.07,3.73-.35a2.79,2.79,0,0,1,1.05,2.77,7,7,0,0,1-1.3,2.82A25.9,25.9,0,0,1,147.16,167.28Z"/>
            <path class="cls-9" d="M150.06,176.89a19.27,19.27,0,0,1,10.32-15.66,3.06,3.06,0,0,1,3-.28,2.73,2.73,0,0,1,.85,2.73,12.29,12.29,0,0,1-3.25,6C158,173.05,154.53,175.88,150.06,176.89Z"/>
            <path class="cls-9" d="M153.18,184.79a21.07,21.07,0,0,1,12.22-14,4,4,0,0,1,3.09-.28,2.78,2.78,0,0,1,1.45,2.62,5.8,5.8,0,0,1-1.06,2.95,19,19,0,0,1-7.14,6.34C158.91,183.92,155.85,185,153.18,184.79Z"/>
            <path class="cls-9" d="M140.32,153.93a18.65,18.65,0,0,0-13.56-8.29,3.92,3.92,0,0,0-2.23.26,2.86,2.86,0,0,0-.88,3.77c.85,1.65,2.75,2.44,4.53,3A35.68,35.68,0,0,0,140.32,153.93Z"/>
            <path class="cls-9" d="M145,162.53a14.21,14.21,0,0,0-13.65-6.77,6.14,6.14,0,0,0-3.58,1.42,3.06,3.06,0,0,0-.79,3.55c.71,1.28,2.37,1.61,3.83,1.76A69.55,69.55,0,0,0,145,162.53Z"/>
            <path class="cls-9" d="M148.43,172.22a17.52,17.52,0,0,0-15.35-5.74,5.71,5.71,0,0,0-2.65.91,2.52,2.52,0,0,0-1.07,2.46,2.57,2.57,0,0,0,1.64,1.68,7.78,7.78,0,0,0,2.4.39C138.26,172.15,143.12,172.39,148.43,172.22Z"/>
            <path class="cls-9" d="M152.05,182.39a19,19,0,0,0-7.49-6.43,11.88,11.88,0,0,0-9.68-.2,3,3,0,0,0-1.92,2,2.36,2.36,0,0,0,1.3,2.31,7,7,0,0,0,2.72.68Z"/>
            <path class="cls-9" d="M154.38,190.51A18.41,18.41,0,0,0,140.62,184a6.48,6.48,0,0,0-4,1,2.91,2.91,0,0,0-1,3.64c.71,1.19,2.3,1.44,3.68,1.56A107.77,107.77,0,0,0,154.38,190.51Z"/>
            <path class="cls-9" d="M156,197.16c-3.63-3.35-9.08-3.9-14-3.18a6.21,6.21,0,0,0-3.5,1.37,2.43,2.43,0,0,0-.21,3.4,3.6,3.6,0,0,0,2.69.49A99.87,99.87,0,0,0,156,197.16Z"/>
            <path class="cls-9" d="M158.34,205.18a10.35,10.35,0,0,0-7-3.42,20.28,20.28,0,0,0-7.9,1.11,6.6,6.6,0,0,0-2.74,1.42,2.6,2.6,0,0,0-.71,2.82c.63,1.35,2.46,1.5,3.94,1.37C148.09,208.13,152.22,207,158.34,205.18Z"/>
            <path class="cls-9" d="M160.25,213.71c-4.94-2.69-11-4-16.24-1.94-1.31.5-2.72,1.49-2.63,2.89a2.49,2.49,0,0,0,1.51,2,6.29,6.29,0,0,0,2.55.43C149.86,217.07,154.18,215.87,160.25,213.71Z"/>
            <path class="cls-9" d="M161.13,221.37a18.77,18.77,0,0,0-13.3-1.19,6.6,6.6,0,0,0-3.29,1.83,2.92,2.92,0,0,0-.34,3.52c.79,1.06,2.3,1.18,3.62,1.15C151.62,226.57,155.38,225.84,161.13,221.37Z"/>
            <path class="cls-9" d="M155.91,193.55a15.65,15.65,0,0,1,9.61-11.05,7.07,7.07,0,0,1,3.87-.5,3.41,3.41,0,0,1,2.71,2.56,3.49,3.49,0,0,1-1,2.83,9,9,0,0,1-2.53,1.78A40.74,40.74,0,0,1,155.91,193.55Z"/>
            <path class="cls-9" d="M157.73,203a18.84,18.84,0,0,1,12.9-12.57,2.75,2.75,0,0,1,2.27.11c.91.64.79,2,.34,3.06-1.11,2.53-3.47,4.29-5.91,5.59A58.45,58.45,0,0,1,157.73,203Z"/>
            <path class="cls-9" d="M159.32,209.94a12.85,12.85,0,0,1,5.16-5.85,19.14,19.14,0,0,1,7.44-2.54,6.5,6.5,0,0,1,2.88.09,2.35,2.35,0,0,1,1,4.14,6.6,6.6,0,0,1-2,1.18C169.61,208.62,165.17,209.23,159.32,209.94Z"/>
            <path class="cls-9" d="M161.15,218.33c3.28-5.09,8.64-9.23,14.69-9.47,1.53-.06,3.37.36,3.86,1.81a2.68,2.68,0,0,1-.79,2.64,6.32,6.32,0,0,1-2.53,1.38C171.24,216.39,165.27,216.22,161.15,218.33Z"/>
          </g>
        </g>
        <g>
          <path class="cls-11" d="M19.32,232.86a225.63,225.63,0,0,1,107.37,18.4"/>
          <g>
            <path class="cls-9" d="M25.51,232.26a13.71,13.71,0,0,0-15.91.5,5.17,5.17,0,0,0-1.54,1.78,2.35,2.35,0,0,0,.06,2.27c.63.95,2,1.09,3.13,1A26,26,0,0,0,25.51,232.26Z"/>
            <path class="cls-9" d="M34.61,232.24a15.74,15.74,0,0,0-9.69,6.94,6.2,6.2,0,0,0-1,2.42,2.5,2.5,0,0,0,3.36,2.85A5.9,5.9,0,0,0,29.59,243C33.18,239.64,35,234.29,34.61,232.24Z"/>
            <path class="cls-9" d="M48.41,232.86A17.84,17.84,0,0,0,35.48,245.1c-.36,1.22-.44,2.81.63,3.5s2.64-.18,3.64-1.12A29.62,29.62,0,0,0,48.41,232.86Z"/>
            <path class="cls-9" d="M60.27,233.3c-5.56,2.17-9.87,6.76-13.18,11.73A7.5,7.5,0,0,0,45.74,248a2.48,2.48,0,0,0,3.86,2.68,7.42,7.42,0,0,0,2-2A62.44,62.44,0,0,0,60.27,233.3Z"/>
            <path class="cls-9" d="M68.32,234.53a15.09,15.09,0,0,0-9.71,11.88,5.69,5.69,0,0,0,.09,2.5,2.62,2.62,0,0,0,1.63,1.79,2.77,2.77,0,0,0,2.8-1,8.15,8.15,0,0,0,1.38-2.8A128.75,128.75,0,0,0,68.32,234.53Z"/>
            <path class="cls-9" d="M75.61,235.38a36.73,36.73,0,0,0-4.75,7.13,12.27,12.27,0,0,0-1,8.34c.24.81.71,1.69,1.53,1.82a2.27,2.27,0,0,0,1.89-.93,14,14,0,0,0,3.41-7.06A15.73,15.73,0,0,0,75.61,235.38Z"/>
            <path class="cls-9" d="M88.3,237.86a11.38,11.38,0,0,0-5,4.55,26.86,26.86,0,0,0-2.68,6.31,7.35,7.35,0,0,0-.47,2.7,2.41,2.41,0,0,0,4.31,1.6A6.77,6.77,0,0,0,86,250.14,77.42,77.42,0,0,0,88.3,237.86Z"/>
            <path class="cls-9" d="M30.29,231.63a15.37,15.37,0,0,1-9.19-7.88,2.61,2.61,0,0,1-.37-1.52,2.19,2.19,0,0,1,1.91-1.66,5,5,0,0,1,4.48,1.81,12.08,12.08,0,0,1,2.26,4.48A15.05,15.05,0,0,1,30.29,231.63Z"/>
            <path class="cls-9" d="M42,232.63a19.31,19.31,0,0,1-7.52-8,6.51,6.51,0,0,1-.76-2.38,2.44,2.44,0,0,1,3.49-2.57,6,6,0,0,1,2.19,1.65C41.72,223.89,43.12,227.24,42,232.63Z"/>
            <path class="cls-9" d="M54.5,232.88a14.18,14.18,0,0,1-6.8-12.8,2,2,0,0,1,.81-1.78,1.42,1.42,0,0,1,1.46.23,3.79,3.79,0,0,1,1,1.22A27.1,27.1,0,0,1,54.5,232.88Z"/>
            <path class="cls-9" d="M65.61,233.76a12.35,12.35,0,0,1-6-10.19c0-1.36.31-2.92,1.51-3.55a2.79,2.79,0,0,1,2.73.26,6.07,6.07,0,0,1,1.87,2.15C67.75,225.9,68.42,230.13,65.61,233.76Z"/>
            <path class="cls-9" d="M74.59,235.73a7.45,7.45,0,0,1-3.45-4.81,19.18,19.18,0,0,1-.3-6,7.91,7.91,0,0,1,.78-3.47,2.85,2.85,0,0,1,3-1.53c1.23.3,1.91,1.61,2.29,2.81A13.68,13.68,0,0,1,74.59,235.73Z"/>
            <path class="cls-9" d="M84.59,237.36a13.3,13.3,0,0,1-.42-14c.49-.83,1.26-1.69,2.22-1.59s1.46,1,1.82,1.78A11.43,11.43,0,0,1,84.59,237.36Z"/>
          </g>
        </g>
      </g>
      <g>
        <g>
          <path class="cls-12" d="M173.81,186.86l-3.22-11s-8.66,3.74-11.41,9.49c-6.23,13-10.15,38.36-12.68,41.89S112.9,235,112.9,235l3.18,16s38-2.74,43.1-7.24c6.89-6.08,15.2-32.54,15.2-32.54Z"/>
          <g>
            <path class="cls-13" d="M194.41,121.09c1.08-4.49,5.93-7.54,10.53-7.16s8.67,3.75,10.52,8a19,19,0,0,1,.16,13.56c-1,3-2.61,6.13-1.47,9,.84,2.17,3,3.51,5.14,4.46s4.43,1.67,6.16,3.23,2.69,4.31,1.4,6.25c-1.86,2.81-7,2.28-8.18,5.44-.6,1.61.24,3.39.14,5.11a6.2,6.2,0,0,1-3.69,4.94,15.26,15.26,0,0,1-6.32,1.18c-3.8.09-7.76-.23-11.05-2.12s-5.7-5.73-4.91-9.45c.64-3,3.29-5.86,2.36-8.83-.66-2.15-2.92-3.31-4.53-4.87-3.42-3.32-4-8.78-2.58-13.34S192.71,128.15,194.41,121.09Z"/>
            <g>
              <g>
                <g>
                  <path class="cls-14" d="M199.1,168c-5.42,8.37-15,17.78-18.43,17.33-2.83-.38-5.72-4.35-5.72-11.35a4.63,4.63,0,0,0,1.17-.67,6.47,6.47,0,0,0,2-2.72,4.48,4.48,0,0,0,.27-.88,6.52,6.52,0,0,0-1.3-5.54l-.18-.21a99.45,99.45,0,0,1,13.72-10,21,21,0,0,0,1.75,7.46c.24.51.49,1,.77,1.47A12.06,12.06,0,0,0,199.1,168Z"/>
                  <path class="cls-15" d="M192.39,161.31c-3.36,4.67-9.18,12.05-16.28,11.94a6.41,6.41,0,0,0,2-2.72,4.75,4.75,0,0,0,.27-.88,6.52,6.52,0,0,0-1.3-5.54c-.07-.07-.12-.14-.19-.2a98.7,98.7,0,0,1,13.73-10A21,21,0,0,0,192.39,161.31Z"/>
                </g>
                <path class="cls-16" d="M197.11,166.64s-7.74,16.46-17,16.91c-5.27.25-4.39-11.12-4.39-11.12s-8.8,4.13-11.34,7.28c-2.93,3.63-6.54,25.69-6.23,31.46.56,10.4,6,17.19,6,22.84s-4.1,19.22-4.1,19.22l55.93-.15a146.24,146.24,0,0,1-3.53-24.8c-.58-12.77,5.93-41.3,3.58-49.34C214.43,173.29,197.11,166.64,197.11,166.64Z"/>
              </g>
              <g>
                <g>
                  <path class="cls-17" d="M179.93,183.57s12.13-4.67,16.7-17.59c0,0,6.63,1.91,7.06,3,.71,1.83-2.41,15-6.34,16.93C194,187.61,179.93,183.57,179.93,183.57Z"/>
                  <path class="cls-17" d="M179.93,183.56s-4-5.72-2.43-12.48a19,19,0,0,0-5.44,2.94c-2.79,2.53-7.64,12.5-6.29,13.49C166.71,188.18,179.93,183.56,179.93,183.56Z"/>
                </g>
                <g>
                  <circle class="cls-18" cx="179.18" cy="189.25" r="1.67"/>
                  <circle class="cls-18" cx="177.99" cy="199.54" r="1.67"/>
                </g>
              </g>
            </g>
            <g>
              <g>
                <ellipse class="cls-19" cx="159.9" cy="147.45" rx="7.22" ry="10.33" transform="translate(-23.04 29.79) rotate(-9.93)"/>
                <g>
                  <path class="cls-14" d="M200.24,143.61c1.76-14-6.3-26.51-18-28s-24.35,8.48-24.35,22.56c0,19,7.57,31.1,18.91,28.89C187.69,164.91,198.49,157.57,200.24,143.61Z"/>
                  <path class="cls-15" d="M198.06,141.82a12.8,12.8,0,0,1-9.05-6.5,6.18,6.18,0,0,1-2.29,5.89,2.47,2.47,0,0,1-2.35.57,2.67,2.67,0,0,1-1.26-1.42,10.45,10.45,0,0,1-.79-6.72,13.29,13.29,0,0,1-9.48,7.63,3.44,3.44,0,0,1-3.23-.62,2.66,2.66,0,0,1-.37-2.67,7.64,7.64,0,0,1,1.57-2.34,19.15,19.15,0,0,1-13.46,3.27,25.66,25.66,0,0,1,11.11-15.82c5.64-3.44,13-4.15,19-1.27s10.06,9.5,9.42,16.09"/>
                </g>
                <g>
                  <path class="cls-20" d="M198.65,150.07a46.59,46.59,0,0,0-2.15-7.75,27.26,27.26,0,0,1-8.14-10.5,3.1,3.1,0,0,0,0,.43c-.08,3.23-2.37,9.39-3.37,8.75-1.65-1-1.39-12.23-2.09-18.35a18.39,18.39,0,0,1-1.84,11,13,13,0,0,1-8.73,6.68,1.52,1.52,0,0,1-1.4-.24c-.42-.46-.21-1.17,0-1.73,1.86-4.4,3.73-8.78,5.56-13.17-1.45,3.39-3.13,6.7-6,8.89-3.2,2.48-7.47,3.57-12.22,3.52a27.21,27.21,0,0,0,0,7.54,21.9,21.9,0,0,1-2.37-7.09,23.45,23.45,0,0,1,27.89-26.62,23.07,23.07,0,0,1,5.33.94,22.73,22.73,0,0,1,14.8,13.71A23.28,23.28,0,0,1,198.65,150.07Z"/>
                  <path class="cls-21" d="M189.1,112.4a34.31,34.31,0,0,0-20.92,5c-7,4.52-12,12.42-12.29,20.68a23.45,23.45,0,0,1,27.89-26.61A22.88,22.88,0,0,1,189.1,112.4Z"/>
                </g>
                <g>
                  <path class="cls-8" d="M195.84,141s1.31-15-7.36-21.93c-10.49-8.33-24.62-2.52-24.62-2.52s-.85-2,7.84-4.7c4.26-1.33,14.59-2.62,21.69,4,8.48,7.86,8,21.63,8,21.63Z"/>
                  <g>
                    <path class="cls-19" d="M192,145.91c.74-5.66,4.55-9.83,8.5-9.31s6.56,5.53,5.82,11.19-4.55,9.82-8.51,9.3S191.25,151.56,192,145.91Z"/>
                    <path class="cls-22" d="M197.12,146.58c.67-5.05,3.29-8.86,5.85-8.53s4.11,4.7,3.45,9.75-3.28,8.87-5.85,8.53S196.46,151.63,197.12,146.58Z"/>
                  </g>
                </g>
                <g>
                  <path class="cls-23" d="M183.58,143a7.21,7.21,0,0,0-7.84-1.62"/>
                  <path class="cls-23" d="M166.83,141.68a5.28,5.28,0,0,0-7,.44"/>
                  <path class="cls-24" d="M168.84,148.12a19,19,0,0,0,.58,5.51"/>
                  <ellipse class="cls-25" cx="178.58" cy="148.11" rx="1.08" ry="1.65"/>
                  <ellipse class="cls-25" cx="163.32" cy="148.11" rx="1.08" ry="1.65"/>
                  <g>
                    <path class="cls-26" d="M177.58,160.7a4.12,4.12,0,0,1-4.38-1,7.29,7.29,0,0,1-1.72-3l.27-.08,8.08-2.39a8.18,8.18,0,0,1,.38,1.09,4.77,4.77,0,0,1,.16.82A3.74,3.74,0,0,1,177.58,160.7Z"/>
                    <path class="cls-27" d="M180.21,155.34a47.51,47.51,0,0,1-7.31,2,1.8,1.8,0,0,1-1.14-.71l8.08-2.39A7.47,7.47,0,0,1,180.21,155.34Z"/>
                    <path class="cls-28" d="M177.58,160.7a4.12,4.12,0,0,1-4.38-1,10.47,10.47,0,0,1,7.17-3.58A3.74,3.74,0,0,1,177.58,160.7Z"/>
                  </g>
                </g>
              </g>
              <g>
                <path class="cls-29" d="M170.7,168.61a12.09,12.09,0,0,1-7.38-3,10.14,10.14,0,0,1-3.65-8.11"/>
                <ellipse class="cls-25" cx="172.01" cy="168.61" rx="3.35" ry="2.04"/>
              </g>
            </g>
          </g>
        </g>
        <g>
          <polygon class="cls-30" points="15.91 259.32 15.91 263.3 231.85 263.76 279.58 253.49 279.58 249.65 15.91 259.32"/>
          <polygon class="cls-7" points="93.87 249.72 279.58 249.65 231.51 259.4 15.91 259.32 93.87 249.72"/>
        </g>
        <g>
          <g class="cls-31">
            <g>
              <path class="cls-32" d="M114.12,250.76c-4,.49-8.56.81-13.33,1s-9.45.25-14.32.25a17,17,0,0,1,7.36-9.79,14.61,14.61,0,0,1,3.56-1.53,14,14,0,0,1,8.48.24A14.09,14.09,0,0,1,114.12,250.76Z"/>
              <path class="cls-33" d="M100.79,251.73c-4.62.18-9.45.25-14.32.25a17,17,0,0,1,7.36-9.79,14.61,14.61,0,0,1,3.56-1.53,8.81,8.81,0,0,1,3.17,4.91A16.37,16.37,0,0,1,100.79,251.73Z"/>
            </g>
            <path class="cls-14" d="M116.39,247.11a13.15,13.15,0,0,1-7.38,1.2c-1,1.36-6.28,5.77-7.62,4.6-1-.9,2.74-4.59,3.5-6a7.43,7.43,0,0,0,1-3.36c-1.28-1.54-3.84-3-5.49-2.6-2.57.65-5.72,4.4-8.93,7.12a4.26,4.26,0,0,1-1.43.92,1.34,1.34,0,0,1-1.51-.42c-.63-.85-.11-2.15.44-3.06a41.6,41.6,0,0,1,11.1-12.19,45,45,0,0,1,14,4.21A24.53,24.53,0,0,1,116.39,247.11Z"/>
          </g>
          <g>
            <g>
              <polygon class="cls-30" points="106.89 250.26 106.89 253.24 192.53 253.24 211.46 249.53 211.46 247.65 106.89 250.26"/>
              <polygon class="cls-34" points="137.81 247.67 211.46 247.65 192.4 250.28 106.89 250.26 137.81 247.67"/>
            </g>
            <g>
              <g>
                <path class="cls-18" d="M206.77,231.2s-5.89,5.83-.11,15.36a7.36,7.36,0,0,0,5.55-7C212.5,235.77,206.77,231.2,206.77,231.2Z"/>
                <g>
                  <g>
                    <path class="cls-14" d="M210.25,240.81c-.2.35-2.66.69-4.44.86-.45,0-2.17,0-2.48,0,.28,2-.79,3.38-1.92,3.65a4.3,4.3,0,0,1-3.72-1.31c-1.35,1-2.64,1.29-3.88.65a5.74,5.74,0,0,1-2.48-4.36,7.75,7.75,0,0,0-.34,2.92c.23.84,3.25,5,1.07,5.67-1,.32-4.31-3.24-4.69-4.8a12.48,12.48,0,0,1,.65-7.22c-1.89,2.28-2.57,3.41-2.77,4.37-.52,2.46-.11,6.84-1.84,6.69-2.07,0-2.46-6.24-1.61-8.92.6-1.93,4.46-8,6.53-8.53,1.92-.47,12.33,0,14.29.24,1,.15,1.95.25,2.84.33,2.46.22,4.4.2,4.51.29C211.18,232.63,210.78,239.77,210.25,240.81Z"/>
                    <path class="cls-15" d="M210.25,240.81c-.2.35-2.66.69-4.44.86a12.15,12.15,0,0,0,.86-3.2,13.2,13.2,0,0,0-1.21-7.41c2.45.21,4.39.2,4.5.29C211.18,232.63,210.78,239.77,210.25,240.81Z"/>
                  </g>
                  <g>
                    <path class="cls-35" d="M195.05,236.51a13.16,13.16,0,0,0,2.35,7"/>
                    <g>
                      <path class="cls-35" d="M203.1,241.58a3.71,3.71,0,0,1-1.31-.8"/>
                      <path class="cls-35" d="M201.75,239.59a4.19,4.19,0,0,1-.4,2.41"/>
                    </g>
                  </g>
                </g>
              </g>
              <g>
                <path class="cls-16" d="M221.92,183.4c-1.64-3.75-6.61-7.22-11.26-9.79l-.46.26a32.9,32.9,0,0,0-6.87,6.41c-.09.1-.17.21-.25.31,1.29,8.46,2.91,19.22,3.5,23.22,1.23,8.36,10.49,24.51,10.37,26.2s-10.37.81-10.37.81c4.09,5.69,3.15,11.74-.07,15.58,0,0,26.53,1.52,29.72-2.66S224.3,188.88,221.92,183.4Z"/>
                <g>
                  <path class="cls-36" d="M210.81,179.88a58,58,0,0,0,1.64,39.82"/>
                  <path class="cls-36" d="M201.7,201.87a29.26,29.26,0,0,0,9.63,15"/>
                </g>
                <path class="cls-36" d="M207.17,230.74a18.32,18.32,0,0,0,4.61.45"/>
                <path class="cls-36" d="M214.38,246.69c-2.85,0-4.68-.08-7.46-.23"/>
              </g>
            </g>
          </g>
        </g>
        <g>
          <g>
            <polygon class="cls-30" points="36.4 240.23 32.98 162.19 139.97 162.19 143.39 240.23 36.4 240.23"/>
            <polygon class="cls-34" points="139.72 240.23 136.3 162.19 139.97 162.19 143.39 240.23 139.72 240.23"/>
          </g>
          <g>
            <g>
              <polygon class="cls-32" points="67.22 255.7 77.21 213.79 96.6 213.79 86.62 255.7 67.22 255.7"/>
              <polygon class="cls-34" points="85.37 255.7 95.35 213.79 96.6 213.79 86.62 255.7 85.37 255.7"/>
            </g>
            <g>
              <rect class="cls-32" x="58.03" y="251.32" width="39.54" height="4.38"/>
              <rect class="cls-34" x="95.02" y="251.32" width="2.55" height="4.38"/>
            </g>
          </g>
        </g>
      </g>
    </g>
  </g>
</svg>
