<svg id="Capa_1" data-name="Capa 1" xmlns="http://www.w3.org/2000/svg" width="400" height="400" viewBox="0 0 400 400">
  <defs>
    <style>
      .cls-1 {
        fill: #b2abdb;
      }

      .cls-2 {
        fill: #0f0140;
        opacity: 0.19;
      }

      .cls-3 {
        opacity: 0.44;
      }

      .cls-4 {
        fill: #d8d5ed;
      }

      .cls-5 {
        fill: #f2d8c2;
      }

      .cls-6 {
        fill: #ed9f80;
      }

      .cls-7 {
        fill: #3b2645;
      }

      .cls-8 {
        fill: #d8805c;
      }

      .cls-9 {
        fill: #3f3466;
      }

      .cls-10, .cls-26 {
        fill: #8b82ca;
      }

      .cls-11 {
        fill: #6f678c;
      }

      .cls-12 {
        fill: #e88d6c;
      }

      .cls-13 {
        fill: #e56c00;
      }

      .cls-14 {
        fill: #db6c29;
      }

      .cls-15 {
        fill: #b0bbdb;
      }

      .cls-16 {
        fill: #ead1b2;
      }

      .cls-17, .cls-24 {
        font-size: 16px;
        font-family: Roboto-Regular, Roboto;
      }

      .cls-17 {
        fill: #091320;
      }

      .cls-18, .cls-19, .cls-20, .cls-21, .cls-22, .cls-23 {
        fill: none;
        stroke: #3e2ea6;
        stroke-linecap: round;
        stroke-miterlimit: 10;
      }

      .cls-18 {
        stroke-width: 2px;
      }

      .cls-19 {
        stroke-width: 3px;
      }

      .cls-20 {
        stroke-width: 4px;
      }

      .cls-21 {
        stroke-width: 5px;
      }

      .cls-22 {
        stroke-width: 6px;
      }

      .cls-23 {
        stroke-width: 7px;
      }

      .cls-24 {
        fill: #2f237d;
      }

      .cls-25 {
        letter-spacing: -0.01em;
      }

      .cls-26 {
        isolation: isolate;
        opacity: 0.18;
      }

      .cls-27 {
        opacity: 0.31;
      }

      .cls-28 {
        fill: #6558b8;
      }
    </style>
  </defs>
  <g>
    <g>
      <circle class="cls-1" cx="195.99" cy="197.3" r="104.1"/>
      <path class="cls-2" d="M196,79.24v-70C92.11,9.22,7.91,93.42,7.91,197.3S92.11,385.38,196,385.38v-70a118.06,118.06,0,0,1,0-236.12Z"/>
      <g class="cls-3">
        <path class="cls-4" d="M196,385.38c103.87,0,188.08-84.21,188.08-188.08S299.86,9.22,196,9.22v70a118.06,118.06,0,0,1,0,236.12Z"/>
      </g>
      <path class="cls-5" d="M200,136.72A60.59,60.59,0,0,0,148.42,229c-.42,5.08-2.95,17-17,23.23,0,0,18.33,3.74,29.06-9.13A60.58,60.58,0,1,0,200,136.72Z"/>
    </g>
    <g>
      <path class="cls-6" d="M109.16,297s.29,1.9.56,4.66a13.37,13.37,0,0,1-9.34,0s2.63,4.6,9.72,5.71c.21,5.66-.21,11.86-2.72,13.57-4.93,3.36-22.38-1.79-22.38-1.79l-9.17,22.36-31.21-15s8.17-11.65,7.06-16.13S39.13,299,36.23,293s-6.66-18.93-2.46-28.38c14.32-32.22,55.93-24,64.44-10.74s4.66,15.46,6.91,20.6,9.41,15,11.37,17.41S109.16,297,109.16,297Z"/>
      <path class="cls-7" d="M97.21,283.38s-1.77,1.26-2.4-2.31c-.57-3.2,1-3.15,1-3.15s1.36-.37,1.89,2.42S97.21,283.38,97.21,283.38Z"/>
      <path class="cls-7" d="M100,272.26c-2.15-.87-4.64-.19-6.77.5-2,.63-4.79,1.51-5.6,3.57a.38.38,0,0,0,.34.54c1.91.06,3.67-1.35,5.46-1.93,2.1-.67,4.45-.54,6.45-1.44C100.37,273.29,100.64,272.51,100,272.26Z"/>
      <path class="cls-8" d="M64.91,290.61a7.46,7.46,0,0,0-3.71-2.44.27.27,0,0,0-.25.44c1,.89,2.08,1.56,3,2.53a2.86,2.86,0,0,0-1.87.87.31.31,0,0,0,.3.52,10.76,10.76,0,0,1,1.38-.24,6.34,6.34,0,0,0,1.07-.05q.28.4.54.84a3.24,3.24,0,0,0,.93,1.23.34.34,0,0,0,.5-.2C67,292.83,65.72,291.48,64.91,290.61Z"/>
      <path class="cls-5" d="M59.47,299.74q-.09-.28-.21-.57a19.79,19.79,0,0,0-2-3.29,15.79,15.79,0,0,1-2.92-8.26A8.79,8.79,0,0,1,58.11,280c3.44-2.12,7.26-.1,9.88,2.33,1.18,1.1,1.5,3.78,3.21,4.09,5.24.93,1.07-7.71.44-9.16a14,14,0,0,1-1.56-5.66c.06-3.74,3.08-6.78,6.28-8.71s6.84-3.24,9.59-5.78c1.53-1.42,2.74-3.17,4.33-4.52a15,15,0,0,0,3-2.68c2.2-3.22-3.21-6.09-5.61-7.38A30,30,0,0,0,77,239.39,65.67,65.67,0,0,0,54.35,241a40.71,40.71,0,0,0-18.51,9.39c-4.43,4.11-6.57,10.19-7.91,16-2.69,11.74-.2,25.08,9.06,33.35,2.35,2.09,5.16,3.79,7.24,6.17,1.8,2.08,2.66,7.47,6,7.19a6.72,6.72,0,0,0,2.72-1,14.44,14.44,0,0,0,5.63-5.36A9,9,0,0,0,59.47,299.74Z"/>
      <path class="cls-9" d="M33.66,336.33l14.13-14.75S63.84,333.23,78,336.33c0,0,1.2,5.95,2.75,14.22S36,344.09,33.66,336.33Z"/>
      <path class="cls-10" d="M97.11,249.28c-15.87,6.51-24.38,10.48-41,28.62-5.42,5.91-10.5,16-16.63,20.83-3.64,2.86-5.78,1.28-7.31-1.52a40.13,40.13,0,0,0,6.18-6.32,1.67,1.67,0,0,0,.42-.89,1.75,1.75,0,0,0-.39-1c-1-1.61-2.17-3.19-3.38-4.71.41.49-3.71,4.28-5.57,6.15l-.06-.16c-3.83-9.38-7.92-18.28-5.12-28.64,2.23-8.27,8.2-15,14.69-20.64,7.48-6.43,16.52-12,26.38-12C78.35,229.1,89.43,238.75,97.11,249.28Z"/>
      <path class="cls-11" d="M58.73,275.17S82,226.85,103.61,226.23s-6.65,26-6.65,26S77.23,255.33,58.73,275.17Z"/>
      <path class="cls-12" d="M85,319.19l-1.69,4.11c-2-1.13-6-4.43-8.06-13.23C75.48,310.45,79,316.38,85,319.19Z"/>
    </g>
    <g>
      <path class="cls-6" d="M281.75,296.14a4.26,4.26,0,0,1-.94,3.41c-.22.26,1.43,2.61,1.41,2.94,0,.09-2.39,2.24-1.65,2.46,4.14,1.23-1.43,11.32,2,14.45,4.18,3.76,20.95-1.69,22.84-2.32l.14-.05a9.09,9.09,0,0,1,.43,1l8.79,21.39,31.2-15s-8.17-11.66-7-16.12,12.54-11.48,15.44-17.49,6.65-18.92,2.46-28.39c-14.33-32.21-55.94-23.93-64.44-10.73s-4.09,21.95-6.33,27.08-7,8.15-9.63,10.92C274.43,291.82,281.75,296.14,281.75,296.14Z"/>
      <path class="cls-7" d="M291.54,284.25s1.77,1.25,2.4-2.31c.56-3.2-.95-3.15-.95-3.15s-1.37-.38-1.89,2.42S291.54,284.25,291.54,284.25Z"/>
      <path class="cls-5" d="M290.61,272.7c2.14-.87,4.63-.19,6.77.5,2,.64,4.79,1.52,5.59,3.57a.38.38,0,0,1-.33.54c-1.91.06-3.68-1.35-5.47-1.92-2.1-.68-4.45-.55-6.44-1.45C290.26,273.74,290,273,290.61,272.7Z"/>
      <path class="cls-8" d="M325.72,288.44a7.46,7.46,0,0,1,3.71-2.44c.24-.05.46.24.25.43-1,.89-2.07,1.57-3,2.54a2.8,2.8,0,0,1,1.87.87.31.31,0,0,1-.3.52,10.92,10.92,0,0,0-1.37-.24,6.29,6.29,0,0,1-1.07-.05,9.23,9.23,0,0,0-.54.84,3.27,3.27,0,0,1-.94,1.23.34.34,0,0,1-.49-.21C323.69,290.66,324.91,289.31,325.72,288.44Z"/>
      <path class="cls-13" d="M344.78,322.61l10.8,7.93S338.36,348,312.42,350a2.51,2.51,0,0,1-2.53-3.35l3.69-10.26S330.89,332.52,344.78,322.61Z"/>
      <path class="cls-5" d="M294.38,243.29c-9.18,13.18,10.3,21.55,17.62,28.76a32.67,32.67,0,0,1,5.35,6.92,8.38,8.38,0,0,0,1.62,2.27,2.44,2.44,0,0,0,2.59.51,4,4,0,0,0,1.37-1.52c1.64-2.4,4.41-4.22,7.32-4,3.74.28,6.6,4,6.75,7.78s-1.9,7.32-4.64,9.9c-1.3,1.22-2.84,2.4-3.28,4.13a5.11,5.11,0,0,0,1.47,4.58,12.55,12.55,0,0,0,4.25,2.61,1.07,1.07,0,0,1,.54.39c.31.56-1.57,3.27-1.85,4a4.1,4.1,0,0,0,0,3.75,6.55,6.55,0,0,0,7.42,3.46c-2.06,4.12-2.41,8.52,1.4,11.13,1.64,1.13,9.81,5.67,11.81,3.71-3.79,3.73-2.33,11.21,2.58,13.24a6.7,6.7,0,0,1,2.84,1.5,4.19,4.19,0,0,1,.68,2.89,11,11,0,0,1-3,6.48c-1.15,1.23-2.67,2.4-2.79,4.08a1.23,1.23,0,0,0,.11.69c.33.56,1.14.47,1.78.43a11.06,11.06,0,0,1,5.13,1.35,10.18,10.18,0,0,0,5.16,1.2c3.2-.4,3.14-2.8,3.12-5.25,0-5.52-.84-11.87-5.45-14.91a2.68,2.68,0,0,0,3.18-1.26,6.46,6.46,0,0,0,.68-3.61c-.19-4.73-2.73-10.07-7.41-10.74,1.85.26,1.86-4.67,1.71-5.54a7.54,7.54,0,0,0-3.56-5.44c-1.82-1-4-1.58-5.38-3.11a5.85,5.85,0,0,0,1.58-9.19c-.71-.77-1.68-1.46-1.74-2.5a3.25,3.25,0,0,1,.65-1.82c3.11-5.18,6.88-10,8.62-15.76,1.87-6.24,1.34-11.74,1.34-18.07-1.9-12-9.93-23.1-21.09-28-7-3-15.13-4.3-22.7-4.4C311.72,233.82,299.59,235.81,294.38,243.29Z"/>
      <path class="cls-14" d="M286.77,303s-4.5-1.86-6-3.41c0,0-1.23,1.34-.23,2.44,0,0-1.23,2.09,0,3S286.77,303,286.77,303Z"/>
      <path class="cls-5" d="M285.59,244.58c-4.06,3.09-7,8.24-6,13.24.57,2.79,2.31,5.42,1.95,8.24a12.19,12.19,0,0,1-2.37,5,10.06,10.06,0,0,0-2.12,5.07C277,278,278.35,280,280.2,280c-.39-1.9-.74-4.07.42-5.62a19.38,19.38,0,0,1,2.4-2.11c2.59-2.51,2-6.7,2.09-10.31a4.26,4.26,0,0,1,.69-2.53c1-1.24,2.83-1.19,4.41-1.19a23.48,23.48,0,0,0,15.86-6.22,23.09,23.09,0,0,0,5.9-8.82,5.45,5.45,0,0,0-5.92-7.49,18.08,18.08,0,0,0-6.21,1.77C295.13,239.49,289.69,241.46,285.59,244.58Z"/>
      <path class="cls-15" d="M361.38,343.29a5.31,5.31,0,0,1,4.85.51.65.65,0,0,1,.25.33l0,.08a.56.56,0,0,1,0,.22c0,.06,0,.12,0,.19a.91.91,0,0,1-.63.83c-.76.26-1.45-.05-2.22,0a3.46,3.46,0,0,0-2.42,1.61c-.93,1.07-2.7.91-2.79-.74C358.41,344.82,360.17,343.73,361.38,343.29Z"/>
      <path class="cls-16" d="M344.78,250.91c7.84,4.35,12.92,15.17,10,23.92-.11.35-.73.32-.68-.09,1.14-9.36-1.64-17.84-9.44-23.56A.16.16,0,1,1,344.78,250.91Z"/>
      <path class="cls-16" d="M342.85,257c-.08-.11.08-.28.2-.19,6.73,5,7.22,14.43,6.05,22-1.45,9.36-4.86,19.48.42,28.3.15.25-.21.44-.37.22-4.86-6.38-3.8-14.65-2.38-22,1-5.05,2.17-10.19,1.7-15.37S345.67,261.06,342.85,257Z"/>
      <path class="cls-16" d="M318.67,248.52c8,.95,15.1,7.16,18.19,14.35.07.17-.16.32-.25.15-4.16-7.19-10.3-11.28-18-13.81C318.22,249.09,318.25,248.47,318.67,248.52Z"/>
      <path class="cls-16" d="M318.32,253.54a17.28,17.28,0,0,1,10.85,8c.12.21-.18.46-.34.27a29.08,29.08,0,0,0-10.8-7.63C317.63,254,317.93,253.46,318.32,253.54Z"/>
      <path class="cls-16" d="M352.7,317.57c3.42-1.22,5.36,4.09,5.27,6.59a.43.43,0,0,1-.84.11c-.5-1.32-.54-2.76-1.29-4a5.15,5.15,0,0,0-3.14-2.16A.28.28,0,0,1,352.7,317.57Z"/>
      <path class="cls-16" d="M346.88,318.39a.39.39,0,0,1,.71.3c-1.67,5.15,4.9,9.14,8.38,11.71a.3.3,0,0,1-.3.51C351.71,329.09,343.82,323.6,346.88,318.39Z"/>
      <path class="cls-16" d="M361.29,331.58c-.13-.24.15-.57.4-.4,2.26,1.58,2.74,5.59,1.11,7.74a.29.29,0,0,1-.53-.22,7.2,7.2,0,0,0-1-7.12Z"/>
      <path class="cls-16" d="M339.78,308.75a.32.32,0,0,1,.6,0c.35,1.13.22,2.38.94,3.38a2,2,0,0,0,2.73.58c.2-.12.39.11.3.3-.61,1.27-2.39,1.06-3.35.32A4.55,4.55,0,0,1,339.78,308.75Z"/>
      <path class="cls-12" d="M305.59,317a9.09,9.09,0,0,1,.43,1l1.24,3c2.11-1.58,5.25-5.08,7-12.55A25.74,25.74,0,0,1,305.59,317Z"/>
    </g>
    <text class="cls-17" transform="translate(162.19 200.79)">Bla, bla, bla, <tspan x="0" y="19.2">bla, bla, bla, </tspan></text>
    <g>
      <path class="cls-18" d="M136,343.5c6.49-8.22,10.86-23.57,10.86-41.16s-4.37-32.95-10.86-41.17"/>
      <path class="cls-19" d="M157.8,343.5c6.5-8.22,10.87-23.57,10.87-41.16s-4.37-32.95-10.87-41.17"/>
      <path class="cls-20" d="M179.64,343.5c6.49-8.22,10.86-23.57,10.86-41.16s-4.37-32.95-10.86-41.17"/>
      <path class="cls-21" d="M201.47,343.5c6.5-8.22,10.87-23.57,10.87-41.16s-4.37-32.95-10.87-41.17"/>
      <path class="cls-22" d="M223.31,343.5c6.49-8.22,10.87-23.57,10.87-41.16s-4.38-32.95-10.87-41.17"/>
      <path class="cls-23" d="M245.14,343.5c6.5-8.22,10.87-23.57,10.87-41.16s-4.37-32.95-10.87-41.17"/>
    </g>
    <text class="cls-24" transform="translate(169.74 119.08)">Mensaje</text>
    <text class="cls-24" transform="translate(174.73 167.51)">Código</text>
    <text class="cls-24" transform="translate(38.93 374.55)">Emisor</text>
    <text class="cls-24" transform="translate(285.54 374.55)">Recep<tspan class="cls-25" x="44.16" y="0">t</tspan><tspan x="49.23" y="0">or</tspan></text>
    <text class="cls-24" transform="translate(174.93 374.55)">Canal</text>
  </g>
  <g>
    <g id="Grupo_89699" data-name="Grupo 89699">
      <path id="Trazado_150570" data-name="Trazado 150570" class="cls-26" d="M256,102.88V95.55a19.7,19.7,0,0,0-19.7,19.69h0a19.7,19.7,0,0,0,19.7,19.7h0v-7.33a12.37,12.37,0,0,1,0-24.73Z"/>
      <g id="Grupo_89698" data-name="Grupo 89698" class="cls-27">
        <path id="Trazado_150571" data-name="Trazado 150571" class="cls-28" d="M256,134.94a19.7,19.7,0,0,0,19.7-19.7h0A19.7,19.7,0,0,0,256,95.55h0v7.33a12.37,12.37,0,1,1,0,24.73Z"/>
      </g>
    </g>
    <g id="Grupo_89700" data-name="Grupo 89700">
      <path id="Trazado_150572" data-name="Trazado 150572" class="cls-10" d="M243.29,115.24A12.72,12.72,0,0,0,256,128h0V102.53A12.72,12.72,0,0,0,243.29,115.24Z"/>
      <path id="Trazado_150573" data-name="Trazado 150573" class="cls-9" d="M268.73,115.24A12.73,12.73,0,0,0,256,102.52h0V128A12.72,12.72,0,0,0,268.73,115.24Z"/>
    </g>
  </g>
  <g>
    <g id="Grupo_89699-2" data-name="Grupo 89699">
      <path id="Trazado_150570-2" data-name="Trazado 150570" class="cls-26" d="M256,150.81v-7.33a19.71,19.71,0,0,0-19.7,19.7h0a19.71,19.71,0,0,0,19.7,19.7h0v-7.34a12.37,12.37,0,0,1,0-24.73Z"/>
      <g id="Grupo_89698-2" data-name="Grupo 89698" class="cls-27">
        <path id="Trazado_150571-2" data-name="Trazado 150571" class="cls-28" d="M256,182.88a19.7,19.7,0,0,0,19.7-19.7h0a19.7,19.7,0,0,0-19.7-19.7h0v7.33a12.37,12.37,0,1,1,0,24.73Z"/>
      </g>
    </g>
    <g id="Grupo_89700-2" data-name="Grupo 89700">
      <path id="Trazado_150572-2" data-name="Trazado 150572" class="cls-10" d="M243.29,163.18A12.73,12.73,0,0,0,256,175.9h0V150.46A12.73,12.73,0,0,0,243.29,163.18Z"/>
      <path id="Trazado_150573-2" data-name="Trazado 150573" class="cls-9" d="M268.73,163.18A12.72,12.72,0,0,0,256,150.46h0v25.43A12.72,12.72,0,0,0,268.73,163.18Z"/>
    </g>
  </g>
  <g>
    <g id="Grupo_89699-3" data-name="Grupo 89699">
      <path id="Trazado_150570-3" data-name="Trazado 150570" class="cls-26" d="M110.2,358.51v-7.34a19.7,19.7,0,0,0-19.7,19.7h0a19.7,19.7,0,0,0,19.7,19.7h0v-7.34a12.36,12.36,0,1,1,0-24.72Z"/>
      <g id="Grupo_89698-3" data-name="Grupo 89698" class="cls-27">
        <path id="Trazado_150571-3" data-name="Trazado 150571" class="cls-28" d="M110.2,390.57a19.7,19.7,0,0,0,19.7-19.7h0a19.7,19.7,0,0,0-19.7-19.7h0v7.34a12.36,12.36,0,0,1,0,24.72Z"/>
      </g>
    </g>
    <g id="Grupo_89700-3" data-name="Grupo 89700">
      <path id="Trazado_150572-3" data-name="Trazado 150572" class="cls-10" d="M97.48,370.87a12.73,12.73,0,0,0,12.72,12.72h0V358.15A12.73,12.73,0,0,0,97.48,370.87Z"/>
      <path id="Trazado_150573-3" data-name="Trazado 150573" class="cls-9" d="M122.92,370.87a12.72,12.72,0,0,0-12.72-12.72h0v25.43A12.72,12.72,0,0,0,122.92,370.87Z"/>
    </g>
  </g>
  <g>
    <g id="Grupo_89699-4" data-name="Grupo 89699">
      <path id="Trazado_150570-4" data-name="Trazado 150570" class="cls-26" d="M237.9,358.51v-7.34a19.7,19.7,0,0,0-19.7,19.7h0a19.7,19.7,0,0,0,19.7,19.7h0v-7.34a12.36,12.36,0,1,1,0-24.72Z"/>
      <g id="Grupo_89698-4" data-name="Grupo 89698" class="cls-27">
        <path id="Trazado_150571-4" data-name="Trazado 150571" class="cls-28" d="M237.9,390.57a19.69,19.69,0,0,0,19.69-19.7h0a19.69,19.69,0,0,0-19.69-19.7h0v7.34a12.36,12.36,0,0,1,0,24.72Z"/>
      </g>
    </g>
    <g id="Grupo_89700-4" data-name="Grupo 89700">
      <path id="Trazado_150572-4" data-name="Trazado 150572" class="cls-10" d="M225.18,370.87a12.73,12.73,0,0,0,12.72,12.72h0V358.15A12.73,12.73,0,0,0,225.18,370.87Z"/>
      <path id="Trazado_150573-4" data-name="Trazado 150573" class="cls-9" d="M250.62,370.87a12.72,12.72,0,0,0-12.72-12.72h0v25.43A12.72,12.72,0,0,0,250.62,370.87Z"/>
    </g>
  </g>
  <g>
    <g id="Grupo_89699-5" data-name="Grupo 89699">
      <path id="Trazado_150570-5" data-name="Trazado 150570" class="cls-26" d="M369.68,358.51v-7.34a19.7,19.7,0,0,0-19.7,19.7h0a19.7,19.7,0,0,0,19.7,19.7h0v-7.34a12.36,12.36,0,1,1,0-24.72Z"/>
      <g id="Grupo_89698-5" data-name="Grupo 89698" class="cls-27">
        <path id="Trazado_150571-5" data-name="Trazado 150571" class="cls-28" d="M369.68,390.57a19.69,19.69,0,0,0,19.69-19.7h0a19.69,19.69,0,0,0-19.69-19.7h0v7.34a12.36,12.36,0,0,1,0,24.72Z"/>
      </g>
    </g>
    <g id="Grupo_89700-5" data-name="Grupo 89700">
      <path id="Trazado_150572-5" data-name="Trazado 150572" class="cls-10" d="M357,370.87a12.73,12.73,0,0,0,12.72,12.72h0V358.15A12.73,12.73,0,0,0,357,370.87Z"/>
      <path id="Trazado_150573-5" data-name="Trazado 150573" class="cls-9" d="M382.4,370.87a12.72,12.72,0,0,0-12.72-12.72h0v25.43A12.72,12.72,0,0,0,382.4,370.87Z"/>
    </g>
  </g>
</svg>
