<svg xmlns="http://www.w3.org/2000/svg" width="1240" height="321" viewBox="0 0 1240 321">
  <g id="Grupo_90603" data-name="Grupo 90603" transform="translate(-8581 12280)">
    <path id="Trazado_153227" data-name="Trazado 153227" d="M0,0H1240V321H0Z" transform="translate(8581 -12280)" fill="#e8e6fa"/>
    <path id="Trazado_153229" data-name="Trazado 153229" d="M-2095.418,298.691a85.43,85.43,0,0,0,84.884-85.428,85.43,85.43,0,0,0-84.884-85.428V77.453a135.812,135.812,0,0,1,135.266,135.81,135.812,135.812,0,0,1-135.266,135.81Z" transform="translate(7725.582 -11908.782) rotate(180)" fill="#8a7cbf" opacity="0.46"/>
    <path id="Trazado_153228" data-name="Trazado 153228" d="M-2095.418,479.8a155.366,155.366,0,0,0,154.372-155.362A155.367,155.367,0,0,0-2095.418,169.08V77.453c135.953.537,246,110.91,246,246.99s-110.047,246.452-246,246.989Z" transform="translate(8534.568 -14054.418) rotate(-90)" fill="#fff"/>
  </g>
</svg>
