<svg xmlns="http://www.w3.org/2000/svg" width="1328" height="533" viewBox="0 0 1328 533">
  <g id="Grupo_90603" data-name="Grupo 90603" transform="translate(-6546 851.678)">
    <path id="Trazado_153230" data-name="Trazado 153230" d="M0,0H1328V533H0Z" transform="translate(6546 -851.678)" fill="#def1ff"/>
    <path id="Trazado_153232" data-name="Trazado 153232" d="M-2095.418,370.876a113.3,113.3,0,0,0,112.579-113.3,113.3,113.3,0,0,0-112.579-113.3V77.453a180.125,180.125,0,0,1,179.4,180.122,180.125,180.125,0,0,1-179.4,180.122Z" transform="translate(5778.582 -343.161) rotate(180)" fill="#beb9db" opacity="0.19"/>
    <path id="Trazado_153231" data-name="Trazado 153231" d="M-2095.418,370.876a113.3,113.3,0,0,0,112.579-113.3,113.3,113.3,0,0,0-112.579-113.3V77.453a180.125,180.125,0,0,1,179.4,180.122,180.125,180.125,0,0,1-179.4,180.122Z" transform="translate(6552.303 -2414.096) rotate(-90)" fill="#fff" opacity="0.65"/>
  </g>
</svg>
