<svg id="Capa_1" data-name="Capa 1" xmlns="http://www.w3.org/2000/svg" width="400" height="400" viewBox="0 0 400 400">
  <defs>
    <style>
      .cls-1 {
        fill: #9f99b3;
      }

      .cls-2 {
        opacity: 0.2;
      }

      .cls-3 {
        fill: #3e2ea6;
      }

      .cls-4 {
        fill: #5c65ab;
      }

      .cls-5 {
        fill: #d5cea8;
      }

      .cls-6 {
        fill: #e42629;
      }

      .cls-7 {
        fill: #346f2e;
      }

      .cls-8 {
        fill: #d3aa00;
      }

      .cls-9 {
        fill: #f0bb90;
      }

      .cls-10 {
        fill: #fff;
      }

      .cls-11 {
        fill: #af794b;
      }

      .cls-12 {
        fill: #0f0140;
      }

      .cls-13 {
        fill: #ec7d40;
      }

      .cls-14 {
        fill: #f29557;
      }

      .cls-15 {
        fill: #d5662e;
      }

      .cls-16 {
        fill: none;
      }

      .cls-17 {
        fill: #d75b5c;
      }

      .cls-18 {
        fill: #e7e6e6;
      }

      .cls-19 {
        fill: #a33737;
      }
    </style>
  </defs>
  <path class="cls-1" d="M200,81.94v-70C96.13,11.92,11.92,96.13,11.92,200S96.13,388.08,200,388.08v-70a118.06,118.06,0,0,1,0-236.12Z"/>
  <g class="cls-2">
    <path class="cls-3" d="M200,388.08c103.87,0,188.08-84.21,188.08-188.08S303.87,11.92,200,11.92v70a118.06,118.06,0,0,1,0,236.12Z"/>
  </g>
  <g>
    <g>
      <circle class="cls-4" cx="140.75" cy="110.64" r="25.74"/>
      <circle class="cls-5" cx="140.75" cy="110.64" r="21.86"/>
      <path class="cls-6" d="M129.27,120a1,1,0,0,1-.57-1.74l11.08-8.07V92.91a1,1,0,0,1,1.93,0v17.73a1,1,0,0,1-.4.78l-11.48,8.35A.92.92,0,0,1,129.27,120Z"/>
    </g>
    <g>
      <path class="cls-7" d="M289.81,215.71s.53-3.31-3.1-5.81-9-2-13.22.08-11.28,7.82-12.88,13.26-2.09,10.95-2.67,13.2a3.25,3.25,0,0,1,2.57-1.5c2.62-.43,10.67.74,17.23.61s10.74,0,16-2.82,7.49-5.93,6.69-10-4.77-7-7.35-7.6S289.81,215.71,289.81,215.71Z"/>
      <path class="cls-8" d="M302,236.61c-1.73-3.71-4.92-4.27-8-4.86s.41-1.95-2.77-4.17-4-2.76-8.55-2.06-6.38,2-6.38,2c-.68.5-8.77,4.22-8,18a6.29,6.29,0,0,1,1.7-1.77,11.58,11.58,0,0,1,4.19-1.41c1.89.07,1.45,1.19,0,2a54.14,54.14,0,0,0-5.65,4.31c.48,6.82,1.08,10.92.55,12-.11.23-.31.36-.18.37s.11-.13.37-.44a9.1,9.1,0,0,1,2.25-2c2.12-1.28,6.84-1.14,12.39-2.38s9.57-.55,14.61-5A12.87,12.87,0,0,0,302,236.61Z"/>
      <path class="cls-8" d="M336.75,186.57q-4.14,26.63-8.55,53.22c-1.49,8.87-3,17.73-4.6,26.57q-1.2,6.64-2.5,13.26l-.67,3.31-.34,1.66-.38,1.65-.75,3.31-.93,3.33-2.08-.72.94-3.15.81-3.24.4-1.63.37-1.64.74-3.28c1-4.37,1.88-8.77,2.76-13.17q2.67-13.2,5.14-26.45Q332.09,213.13,336.75,186.57Z"/>
      <path class="cls-8" d="M292,218.72a89.52,89.52,0,0,1,5.28,8.83c1.61,3,3.09,6.14,4.47,9.29a158,158,0,0,1,6.95,19.42,189.21,189.21,0,0,1,4.51,20.15c.57,3.39,1.06,6.81,1.44,10.24s.64,6.88.95,10.26l-2.19.18c-.21-3.46-.34-6.86-.62-10.26s-.63-6.8-1.09-10.19-1-6.77-1.66-10.13-1.41-6.69-2.28-10A156,156,0,0,0,301.25,237c-1.3-3.17-2.7-6.3-4.23-9.36A89.5,89.5,0,0,0,292,218.72Z"/>
      <path class="cls-8" d="M378.88,245.14a27.42,27.42,0,0,0-5.15,1.16q-2.52.8-5,1.83a82.83,82.83,0,0,0-9.4,4.76l-2.26,1.35-2.22,1.42-1.11.72-1.08.75-2.17,1.5c-1.41,1-2.77,2.13-4.11,3.26s-2.67,2.29-4,3.46c-5.25,4.68-10.34,9.55-15.4,14.45s-10.06,9.88-15,14.88l-2.31-2.37q7.77-7.21,15.67-14.27c5.28-4.69,10.59-9.35,16.07-13.83,1.36-1.13,2.75-2.23,4.15-3.31s2.83-2.15,4.31-3.14c3-1.92,6-3.82,9.1-5.48a83,83,0,0,1,9.61-4.48c1.65-.64,3.33-1.19,5-1.67A27.91,27.91,0,0,1,378.88,245.14Z"/>
      <path class="cls-7" d="M383.45,203.71a27.39,27.39,0,0,0-4.65,2.5,51.56,51.56,0,0,0-4.27,3.1,83.1,83.1,0,0,0-7.77,7.12l-1.82,1.91-1.75,2c-.29.33-.59.65-.87,1l-.84,1-1.69,2c-1.07,1.37-2.09,2.8-3.07,4.25s-2,2.92-2.9,4.41c-3.79,5.92-7.39,12-10.94,18.07s-20,36.87-23.39,43l-2.86-1.65c3.7-6,20.39-36.67,24.2-42.63s7.68-11.86,11.74-17.65q1.51-2.18,3.11-4.31c1.06-1.42,2.14-2.82,3.31-4.18,2.34-2.65,4.71-5.28,7.27-7.73a84.05,84.05,0,0,1,8.06-6.9c1.41-1.06,2.88-2.05,4.39-3A28.25,28.25,0,0,1,383.45,203.71Z"/>
      <g>
        <path class="cls-7" d="M309.35,302.34l0-.24C308.62,301.94,308.29,302,309.35,302.34Z"/>
        <path class="cls-7" d="M317,175.25h-.21c1.13,9.33,2,18.7,2.59,28.07.77,12.09,1.15,24.22.83,36.31-.16,6.05-.5,12.08-1.1,18.09a147.73,147.73,0,0,1-2.77,17.82c-.36,1.45-.69,2.9-1.07,4.37l-1.16,4.4-2.32,8.79-.29,1.07-.26-.06-1,4.43-.51,2.22-.26,1.11-.05.23h0l0,.06,0,.13,0,0h0l0,.15c-.9.23,6.19,1.92,3.36.84l0-.07,0-.08h0l0-.11h0v0l.07-.28,0-.14.26-1,.57-2.2,1.14-4.4-.15,0,.26-1.06L317,285l1-4.43c.35-1.48.66-3,1-4.49a153.69,153.69,0,0,0,2.36-18.19c.46-6.09.64-12.18.65-18.27,0-12.17-.67-24.31-1.76-36.41C319.45,193.89,318.38,184.55,317,175.25Z"/>
        <path class="cls-7" d="M312.71,303.18c.08,0,.08-.06,0-.11l0,.1Z"/>
      </g>
      <path class="cls-8" d="M315.6,225.13c.27-.18,1-3.18,4.17-3.53s5.15-.92,8.55,2.48,6.88,7.52,5.84,13.33c-.34,1.9-2.36,10.45-4.27,16.2s-.61,7.4-1.92,5.74-18.19-.59-22.6-15.83c-1.33-4.57-1-15,3.4-17.4S315.6,225.13,315.6,225.13Z"/>
      <path class="cls-7" d="M339.71,237.23s1.5-3,5.91-2.91,8.43,3.66,10.68,7.78S360.9,255,359,260.38s-3.84,10.69-5.53,12.28.66-.84-1.22-2.72-9.09-5.62-14.34-9.56-8.72-6.28-11.34-11.62-2.63-9.19.37-12,8-2.91,10.41-1.88S339.71,237.23,339.71,237.23Z"/>
      <path class="cls-7" d="M307.21,248.37c.11-.53,1.82-2.33-1.39-2.86s-5-.34-7.73,1.54a20.87,20.87,0,0,0-7.42,7.91c-1.89,3.8-2.62,7.28-2.18,8.86s.44-1.5,1.52-2.29,6.26.88,9.55-.12,8.47-3.19,9.67-6.58,2.51-5.4.37-6A12,12,0,0,0,307.21,248.37Z"/>
      <path class="cls-9" d="M322.05,253.76c0-.41-.92-2,1.52-1.85s3.73.63,5.39,2.49a15.62,15.62,0,0,1,4,7.1c.72,3.11.64,5.79,0,6.87s-.06-1.17-.71-1.94-4.73-.47-7-1.78-5.63-3.83-5.92-6.52-.88-4.39.78-4.42A9.32,9.32,0,0,1,322.05,253.76Z"/>
      <path class="cls-7" d="M370.23,211.43c-.39.47-2.72,2.48.24,4.74s4.88,3.05,8.65,2.61,7.82-1.18,11.78-4,6.59-6,7-7.8-1.25,1.29-2.77,1.5-5.87-4.26-9.74-5-10.29-1.34-13.33,1.44-5.45,4.11-3.58,5.83S370.23,211.43,370.23,211.43Z"/>
      <path class="cls-8" d="M365.13,229.53a12,12,0,0,0-.63-3.46c-1.85-1.65-5.76-2.44-8.1-3.37s-2.61-1.79-.62-2.24,5.11,1.25,7.31,2.79c-.83-1.35-1.95-2.91-3.44-5-3.91-5.55-6.13-4.66-9.55-4.59s-3.06,4.18-3.61,4.39-.54.26-2.67-1.24c-4.59-3.22-9.39,2.26-9.66,9.8-.19,5.19,2.6,9,4.11,11s7.74,5.07,11.85,6.16,8.71,1.31,10.49,1.78,1.3,1.44,1.23-.47S365.34,233.57,365.13,229.53Z"/>
      <path class="cls-7" d="M280.74,200.39c2.23,3.47,4.24,7.09,6.16,10.74s3.71,7.38,5.4,11.16a216.14,216.14,0,0,1,8.78,23.21A199.21,199.21,0,0,1,307,269.65c.18,1,.37,2.05.53,3.07l.47,3.08.94,6.12.94,6.12.48,3,.24,1.53.12.76.12.68-3.61.65,0-.15v-.11l0-.2,0-.39-.09-.77-.15-1.55-.31-3.08-.6-6.16c-.21-2.06-.39-4.12-.61-6.16l-.36-3.05c-.12-1-.28-2-.42-3A197.07,197.07,0,0,0,299.51,246a212.62,212.62,0,0,0-8-23.35c-1.55-3.81-3.23-7.58-5-11.3S282.85,203.93,280.74,200.39Z"/>
      <path class="cls-9" d="M318,224.87c-2-2.52-2.91-6.78-4.51-10.38a62.39,62.39,0,0,0-7.76,1c-1.58.47-2.66,0-1.4-1.35a11.32,11.32,0,0,1,3.88-1.91,9.06,9.06,0,0,1,4.33.57c-2.18-3-6.83-4.28-11.35-5.31-5-1.14-8.62,1.56-11.23,3.83s.35,5.4.35,5.66a1.76,1.76,0,0,1,.17,1c-.09.43-2,.61-5.22,1.74s-1.92,5.4-1.75,9.49,3.31,6.54,7.67,9.67,9.4.78,14.89-.26,8.8-7.4,11.85-8.88,3-.79,3.65-1.48S320.13,227.57,318,224.87Z"/>
      <path class="cls-9" d="M380.58,205.87c-1.09-4-.36-6.57-1.68-11.1a19.67,19.67,0,0,0-3.7-6.3l-.57-.16c-3.25-.89-7.76-.72-11.23-.25s-4.26-.37-2.22-2.23,7.37-1.92,11-1.5a24.56,24.56,0,0,1-1.62-2.92c-2.7-5.77-7.82-6.5-11.83-7.67s-8,.95-13.07,1.24-5.7.07-10.08,2.41-.22,8.69.07,8.76c0,0,.44.81-.29,1.17s-3.58-.22-6.35.44-2.63,2.34-3.43,6.35,2.26,5,3.72,8.25,1.46,2,7.23,5.63,11.9,3.87,18.4,4,8.25-2.77,14.31-3.87,7.67-.87,9.57,0,1.82,2.92,2.48,3.8S381.68,209.88,380.58,205.87Z"/>
      <path class="cls-10" d="M376.45,191.76a11.44,11.44,0,0,0-3.9-2c-2.1-.53-6.33-.86-7.65.12s-.23,1.91,1.44,2.05a69.26,69.26,0,0,1,8.67,1.18C376.61,193.6,377.71,193.14,376.45,191.76Z"/>
      <path class="cls-7" d="M374.53,204c-.68-.46-1.44-.88-2.16-1.3l-2.21-1.25q-2.22-1.23-4.46-2.41-4.47-2.4-9-4.62-2.28-1.09-4.59-2.12c-1.54-.69-3.08-1.36-4.62-2s-3.09-1.32-4.66-1.9l-1.19-.41c-.4-.11-.8-.25-1.2-.35a11.33,11.33,0,0,0-2.46-.44V187a14.16,14.16,0,0,1,5.09.57,47.55,47.55,0,0,1,4.85,1.62,90.1,90.1,0,0,1,9.19,4.4c3,1.57,6,3.22,8.9,4.92q2.19,1.28,4.35,2.61l2.16,1.34c.71.46,1.43.89,2.12,1.41Z"/>
      <path class="cls-7" d="M317.79,228.73c-.58-.11-1.17-.29-1.74-.44l-1.74-.51c-1.16-.34-2.31-.7-3.46-1.06q-3.45-1.08-6.86-2.29c-1.14-.41-2.26-.84-3.38-1.28l-3.35-1.34c-1.11-.44-2.21-.91-3.29-1.42l-.8-.4-.79-.43a8.72,8.72,0,0,1-1.45-1l-.06,0a10.23,10.23,0,0,0,2.84,2.31,32,32,0,0,0,3.25,1.66,64,64,0,0,0,6.83,2.48q3.45,1.11,6.95,2.07c1.16.32,2.33.63,3.51.92l1.76.43c.59.13,1.16.28,1.78.37Z"/>
      <path class="cls-8" d="M291.4,259.19c.28-.27.59-.52.89-.77l.92-.75,1.85-1.46q1.88-1.45,3.79-2.84c.63-.45,1.28-.9,1.94-1.33s1.31-.87,2-1.31,1.31-.85,2-1.24l.51-.28.53-.26a5.28,5.28,0,0,1,1.09-.4v-.05a6.57,6.57,0,0,0-2.29.67,20.31,20.31,0,0,0-2.11,1.13A43.6,43.6,0,0,0,298.6,253q-1.87,1.46-3.7,3c-.6.51-1.2,1-1.79,1.54l-.89.79c-.29.27-.58.52-.86.82Z"/>
      <path class="cls-8" d="M328.76,170.86c-2-3.35-4-4-7.91-4.1s-6.6,5-6.6,5a.8.8,0,0,1-.75-.28c-.28-.38.75-4.75-2.05-7.54s-8-3-14.51-.93-6.88,5.86-11,14c-3.12,6.17-1.65,9.37,0,12.88a7.45,7.45,0,0,1,2.9-5.18c3.59-3,9.66-6.79,13.12-6.2s3.2,2-.85,3.92-9,4.83-11.88,8c-.82.91-1.49,1.73-2,2.44.05.16.11.32.16.49,1.68,5.3,3.91,7.16,7.91,9.86s5.77,4.09,6.32,6.7,1-1.4,3.82-4.19,13.86-6.7,19.07-9.58,6.7-9.68,7.53-13.68S330.71,174.2,328.76,170.86Z"/>
      <path class="cls-5" d="M290.65,194a11.24,11.24,0,0,1,1.18-4.12,6.58,6.58,0,0,1,4.46-3.19c1.58-.29,1.52,1.11.51,2.4s-3.51,3.31-4.22,4.78S290.8,195.83,290.65,194Z"/>
      <path class="cls-8" d="M370.75,246.86a.92.92,0,0,0,.84-.68,7,7,0,0,0,.13-2.19c-.13-1.6.94-2.67,4.34-2.74s5.06-.4,9.4,6,6.33,8.67,6.4,15.2-.33,8.14-.67,6.54.07-2-2.07-3.67-11,1.55-16.07-2.8c-3.56-3.08-4.73-4.27-5.53-7.4s-2.34-6-.4-7.21A7.83,7.83,0,0,1,370.75,246.86Z"/>
      <path class="cls-8" d="M289.27,206.4c-1.9-2.85-4.31-4.25-6.09-4.06s-1.33-1.2-1.33-1.2c-.31-.57,1.78-3.61-1-6s-5.07-3-9.57-1.84-3.29.77-9.06,3.17-5.77,2.28-7.1,5.58c-.17.42-.32.82-.46,1.18a12.06,12.06,0,0,1,1.14-.58c2.09-.91,7.49-3,11-.84,2.26,1.4,1.56,2.4-1.83,2.42s-7.72.47-10.71,1.76l-.72.32a32,32,0,0,1-1.32,3.15,20.83,20.83,0,0,0-2,10.4c.25,4.18-.76,6.08.51,6.27s-.47-.94.95-2c3.51-2.52,1.77-4.82,8.11-3.49s10,3.11,14.64,1.59,9.06-2.35,11-5.07S291.17,209.25,289.27,206.4Z"/>
      <path class="cls-7" d="M280.5,213.27a8.19,8.19,0,0,1-.09,3.07,3.94,3.94,0,0,1-2,2.9c-1,.48-1.25-.51-.77-1.58a24.41,24.41,0,0,0,1.56-4C279.42,212.55,280.08,212,280.5,213.27Z"/>
      <path class="cls-9" d="M301.58,203.83c.14-.69.36-1.4.55-2.1l.62-2.09c.42-1.39.86-2.78,1.31-4.16q1.32-4.15,2.8-8.25c.5-1.36,1-2.72,1.57-4.06s1.08-2.68,1.63-4,1.11-2.67,1.74-4l.48-1c.18-.31.34-.63.53-.94a10.21,10.21,0,0,1,1.26-1.75l-.06-.07a12.11,12.11,0,0,0-2.8,3.41,38.91,38.91,0,0,0-2,3.9,76.37,76.37,0,0,0-3,8.21c-.91,2.77-1.75,5.56-2.54,8.37-.39,1.4-.77,2.81-1.13,4.22l-.53,2.11c-.16.72-.35,1.41-.46,2.15Z"/>
      <path class="cls-9" d="M251.54,219.32c.54-.45,1.15-.87,1.74-1.3l1.78-1.25c1.2-.82,2.4-1.64,3.62-2.44q3.61-2.43,7.33-4.71c1.24-.76,2.49-1.49,3.75-2.2s2.52-1.43,3.78-2.14,2.53-1.39,3.83-2l1-.45c.33-.14.66-.29,1-.41a9.81,9.81,0,0,1,2.07-.59v-.09a12.23,12.23,0,0,0-4.3.92,39.1,39.1,0,0,0-4,1.8A80.12,80.12,0,0,0,265.6,209q-3.64,2.4-7.19,5c-1.18.86-2.35,1.72-3.51,2.6l-1.74,1.33c-.57.46-1.14.88-1.69,1.39Z"/>
      <path class="cls-5" d="M321.08,179a3,3,0,0,0-.89-2.43c-1.14-1.35-1.56-1.37-2.9-1.36s-1.06,1.15,0,2,1.4.87,2.22,2S321.25,180.53,321.08,179Z"/>
      <path class="cls-10" d="M381.14,245.67a2.54,2.54,0,0,0-2.09-.55,2.36,2.36,0,0,0-2.31,1.34c-.62.93.29,1.28,1.39,1a8.44,8.44,0,0,1,2.4-.59C381.66,246.82,382.26,246.27,381.14,245.67Z"/>
      <path class="cls-9" d="M387.49,261.93c-.28-.36-.6-.7-.91-1.05l-.94-1-1.92-2q-1.94-2-3.94-3.95-1-1-2-1.89c-.68-.63-1.38-1.24-2.07-1.86s-1.39-1.22-2.11-1.79l-.55-.41-.57-.39a6.74,6.74,0,0,0-1.21-.66v0a7.68,7.68,0,0,1,2.57,1.17,26.34,26.34,0,0,1,2.26,1.67,49.24,49.24,0,0,1,4.05,3.86c1.31,1.34,2.57,2.71,3.82,4.09.62.7,1.23,1.4,1.83,2.11l.9,1.07c.3.36.6.71.87,1.1Z"/>
      <path class="cls-7" d="M359.21,241c-.17-.5-.41-1-.63-1.5L357.9,238c-.46-1-.93-2-1.41-3-1-2-1.94-3.92-3-5.85q-.76-1.44-1.59-2.85c-.54-1-1.1-1.89-1.64-2.83s-1.12-1.87-1.72-2.77l-.47-.66c-.16-.22-.32-.44-.49-.65a7.29,7.29,0,0,0-1.12-1.17l0-.06A9.14,9.14,0,0,1,349,220.4a28.12,28.12,0,0,1,1.92,2.7,58.87,58.87,0,0,1,3.14,5.79c1,2,1.89,4,2.78,6q.66,1.52,1.29,3l.61,1.52c.2.52.41,1,.58,1.55Z"/>
      <g>
        <path class="cls-11" d="M299.94,285.58a.77.77,0,0,0-.77.76c0,.47,0,.94,0,1.41,0,12.51,2.26,23.76,5.86,31.48a.79.79,0,0,0,.71.44h20.18a.79.79,0,0,0,.71-.44c3.6-7.72,5.86-19,5.86-31.48,0-.47,0-.94,0-1.41a.77.77,0,0,0-.77-.76Z"/>
        <path class="cls-12" d="M332.3,293.94H302.63l29.24,4.92C332.05,297.25,332.19,295.61,332.3,293.94Z"/>
      </g>
    </g>
    <path class="cls-12" d="M63.73,218a28.42,28.42,0,0,1-4.56-4.61,28.93,28.93,0,0,1-3.43-5.58,27.81,27.81,0,0,1-2.05-6.3,33.82,33.82,0,0,1-.68-6.6,34.38,34.38,0,0,1,.62-6.63,40.58,40.58,0,0,1,1.81-6.4c.2-.51.4-1,.61-1.54l.33-.76c.1-.26.24-.52.36-.78a24.74,24.74,0,0,1,1.69-3,65.59,65.59,0,0,1,4-5.19c1.37-1.64,2.69-3.27,3.9-5,.31-.42.6-.85.89-1.28l.44-.65.42-.66c.28-.44.56-.88.81-1.34l.4-.67.2-.34.17-.33a38.94,38.94,0,0,0,2.22-5.77c.35-1,.7-2.06,1.11-3.09.19-.51.44-1,.66-1.53s.49-1,.74-1.51a24.54,24.54,0,0,1,3.93-5.45,27.61,27.61,0,0,1,2.5-2.21l.66-.51a5.42,5.42,0,0,1,.67-.48l1.39-.89a12.53,12.53,0,0,1,1.43-.81l1.45-.76a21.81,21.81,0,0,1,3-1.25,11.3,11.3,0,0,1,3.26-.54c1.11,0,2.15.27,3.23.17a6.69,6.69,0,0,1-1.61.19,13.85,13.85,0,0,0-1.59.1,10.38,10.38,0,0,0-3,.87A24.75,24.75,0,0,0,87,138.45l-1.32.87a14.82,14.82,0,0,0-1.29.9l-1.24,1a4.9,4.9,0,0,0-.6.51l-.57.52a28.25,28.25,0,0,0-2.17,2.21,23.9,23.9,0,0,0-3.26,5.18,40.77,40.77,0,0,0-2.1,5.87,37.92,37.92,0,0,1-2.22,6.29l-.19.39-.2.36-.4.72c-.27.49-.55,1-.84,1.43l-.43.7-.45.7c-.31.46-.61.92-.93,1.37-1.26,1.8-2.64,3.52-4,5.18s-2.75,3.25-3.9,4.92a22,22,0,0,0-1.53,2.59c-.11.23-.23.44-.33.68l-.32.71c-.21.48-.41,1-.61,1.44a41.4,41.4,0,0,0-1.88,5.91,35.32,35.32,0,0,0-.86,6.14,34,34,0,0,0,.27,6.21,28.19,28.19,0,0,0,1.46,6.06,31.44,31.44,0,0,0,4.56,8.3C62.31,216.42,63,217.23,63.73,218Z"/>
    <path class="cls-12" d="M120.06,142.82a23.77,23.77,0,0,1,4.35,3.74,26.83,26.83,0,0,1,3.42,4.69A41.21,41.21,0,0,1,132,162.08c.46,1.88.83,3.77,1.17,5.64.17.93.32,1.9.47,2.86.08.48.13,1,.18,1.44l.16,1.45a60.26,60.26,0,0,1-.08,11.63c-.2,1.93-.5,3.86-.89,5.77-.2.95-.43,1.9-.7,2.85l-.2.7-.2.69c-.13.46-.27.91-.41,1.37a59.45,59.45,0,0,1-4.38,10.75,39.32,39.32,0,0,1-6.89,9.35,31.42,31.42,0,0,1-9.46,6.49,37.48,37.48,0,0,0,8.36-7.5,43.07,43.07,0,0,0,5.86-9.41c.78-1.68,1.46-3.41,2.09-5.16s1.16-3.53,1.66-5.33l.37-1.36.19-.69.17-.66c.23-.89.43-1.79.6-2.69q.54-2.72.82-5.48c.1-.92.17-1.85.24-2.77l.06-1.39c0-.46,0-.92,0-1.39.06-1.85,0-3.7-.11-5.55l-.11-1.38c0-.47-.07-.93-.13-1.39-.12-.92-.21-1.83-.35-2.78-.25-1.87-.52-3.72-.85-5.56a45.67,45.67,0,0,0-3.16-10.65,27.92,27.92,0,0,0-2.75-4.84l-.83-1.14c-.29-.37-.61-.71-.91-1.07l-.46-.54c-.16-.17-.33-.34-.5-.5Z"/>
    <path class="cls-12" d="M95.84,135.85c1.31-.27,1.78-1,2.72-1.19,7.12-1.62,16.71,3.67,20.51,6.65,9,7,10.74,18.38,11.94,26.09a60.29,60.29,0,0,1-1.3,25.09c-2,7-6.09,21.53-19.94,29.06-11.5,6.26-23.14,4.13-26.71,3.47-4.3-.78-10.53-2-16.41-7.11a29.21,29.21,0,0,1-9.24-15.11,35.45,35.45,0,0,1,2.16-22.1c2.56-6.23,7.56-9.53,12.27-18.8,3.23-6.35,1.86-16.05,15.08-23.74C92.22,135.08,93.64,136.3,95.84,135.85Z"/>
    <path class="cls-6" d="M59,324.79h79.45c-.73-9.76-.94-19.28-.83-29.17.08-6.86,7.66-25.91,8.67-31.72,2-11.39-7.82-42.37-9.29-44-2.78-3-.6-3.11-15.25-6.72-13.89-3.42-16.56-7.5-25.49-7.75-5.6-.16-8.11.57-17.61,3.35s-22.38,6.05-32.22,7.4c-10.64,1.45-7.53,17.52-2.56,29.85C52,266.19,68.93,262.94,59,324.79Z"/>
    <path class="cls-6" d="M133.3,216.49s8.56,2.63,11.78,9.89c2.69,6.07,10.61,30.15,12.28,40.95,1.94,12.52,5.1,37.77,2.32,44.95s-29.94,7.29-31.06,0C124.17,283.26,130.16,220.19,133.3,216.49Z"/>
    <path class="cls-6" d="M45.11,216.6c.32-.08-6.75,1.11-8.7,13.38-1.56,9.77-1.15,29.26,1,41.13,2.24,12.66,8.89,32.14,13.83,39.4s9.23,9.6,13.68,9.15,11-10.31,11-21.71-11-51.82-16-62.1S51.53,215,45.11,216.6Z"/>
    <path class="cls-13" d="M180.94,247.32c.11-.13,4-3.37,4.16-7.95.09-3.23-.57-7.42-.47-9.26s1.76-3.85,2-5.06a1.84,1.84,0,0,0-1.58-2.18c-.74,0-1.81.22-3.43,2.61s-2.55,8-1.75,11.16S180.94,247.32,180.94,247.32Z"/>
    <g>
      <path class="cls-12" d="M154.55,250.82h18.91a2.2,2.2,0,0,0,2.12-1.6L186.47,211a2.11,2.11,0,0,0-1.89-2.42H165.45a2.2,2.2,0,0,0-2.12,1.6l-10.61,37.43A2.4,2.4,0,0,0,154.55,250.82Z"/>
      <path class="cls-4" d="M154.86,250.88h18.68a2.21,2.21,0,0,0,2.12-1.61l10.8-38.17a.73.73,0,0,0-.71-.92H167.07a2.2,2.2,0,0,0-2.12,1.6L154.15,250A.73.73,0,0,0,154.86,250.88Z"/>
    </g>
    <path class="cls-14" d="M173.38,247.8A1.72,1.72,0,0,1,172,247c-.52-.84-10.61-10.67-11.72-12.16s-1.6-3.14-.72-4.2c.51-.61,1.72-.37,2.52,0s-.95-1.09-1.19-2.25c-.92-4.44,3.66-2.12,3.66-2.12s-1.66-1.59-.7-3.26c.39-.68,1.34-1.24,3.33-.43,3,1.23,2.2,1.56,1.63.33-.46-1,0-2.15,2.11-1.8s7.84,4.54,9.17,5.67,6.91,11.08,3.65,12.49c-.86.37-1.44.24-1.26,1.3.14.83-.4,2.53-1.55,2.44-1.7-.13-1.2.95-1.92,1.88a2.32,2.32,0,0,1-3,.65c-1.16-.67-.51,1.09-1.47,1.83A1.76,1.76,0,0,1,173.38,247.8Z"/>
    <path class="cls-14" d="M178.45,263.22c-2.4,1.4-3.87,1.19-6-1.08s-2.9-2.27-3-7.08-1.66-12.33-.38-13.86,14.85-7.57,15.52-5.28a11.22,11.22,0,0,1,0,7c-.84,1.95-4,16.14-4.6,18S179.44,262.63,178.45,263.22Z"/>
    <g>
      <path class="cls-15" d="M180.58,234.6a16.39,16.39,0,0,1-1.43-1.46c-.44-.5-.86-1-1.27-1.55l-.59-.81-.28-.42-.12-.19-.13-.18a4.1,4.1,0,0,0-.59-.66l-.09-.07-.1-.08-.19-.16-.39-.31-1.58-1.24-1.56-1.26c-1-.84-2.08-1.69-3.1-2.54l.06-.09c1.13.71,2.25,1.45,3.37,2.18l1.67,1.11,1.66,1.12.85.56a5.78,5.78,0,0,1,.84.73l.18.22.17.21.29.41c.19.27.38.55.55.84.36.56.69,1.14,1,1.73a19.3,19.3,0,0,1,.86,1.84Z"/>
      <path class="cls-15" d="M178.16,238.32a20.77,20.77,0,0,1-1.67-1.57c-.54-.54-1.05-1.1-1.55-1.66l-.37-.43-.37-.42-.35-.41,0-.05,0,0,0,0,0,0-.2-.17c-.59-.47-1.18-1-1.78-1.42l-1.79-1.39-1.79-1.41-1.78-1.42-.89-.7-.88-.72.06-.09,1,.61.95.63,1.91,1.24,1.89,1.26,1.89,1.27,1.9,1.25.25.18a.19.19,0,0,1,.07.06l.08.06.07.07.05,0a5.31,5.31,0,0,1,.4.44l.37.45.35.45c.46.61.89,1.24,1.3,1.88a19.53,19.53,0,0,1,1.14,2Z"/>
      <path class="cls-15" d="M173.91,242a19.73,19.73,0,0,1-1.49-1.39c-.46-.48-.91-1-1.35-1.49s-.84-1-1.22-1.57l-.26-.36-.06-.06-.09-.08-.18-.17-.74-.67-1.51-1.3-1.51-1.32c-1-.88-2-1.76-3-2.66l.07-.09c1.11.76,2.2,1.53,3.29,2.31l1.62,1.17,1.62,1.19.81.6.21.15.1.08.13.1.21.22c.06.07.12.13.17.2a18.74,18.74,0,0,1,1.23,1.59c.38.55.75,1.11,1.09,1.68a16.21,16.21,0,0,1,1,1.8Z"/>
    </g>
    <path class="cls-6" d="M151.76,319.15a4.6,4.6,0,0,1-2.23-.59c-4.59-2.44-9.85-12.27-7.71-20.83a22.53,22.53,0,0,1,8.33-13.08l1.16-1c.71-.65,1.63-1.53,2.61-2.5a.52.52,0,0,1,.67-.05h0a.52.52,0,0,1,.18.64c-2.43,5.61-1.73,15.19,1.56,20.41.89,1.41,2.39,3.1,4.47,3.1,1.71,0,3.56-1.12,5.48-3.33l.11-.12.34.24a.53.53,0,0,1,.17.68,64.11,64.11,0,0,1-6.45,10C156.87,317.17,154.19,319.15,151.76,319.15Z"/>
    <g>
      <polygon class="cls-16" points="87.19 324.75 94.36 324.75 90.74 321.17 87.19 324.75"/>
      <polygon class="cls-16" points="110.94 300.78 91.52 320.38 95.85 324.75 126.03 324.75 130.36 320.38 110.94 300.78"/>
      <polygon class="cls-16" points="127.64 324.75 134.69 324.75 131.2 321.23 127.64 324.75"/>
      <path class="cls-16" d="M69.87,300.49,55,315.21A15.64,15.64,0,0,0,60,318.85c-.27,1.9-.56,3.87-.89,5.9H84.59l4.88-4.83Z"/>
      <rect class="cls-16" x="117.69" y="245.07" width="27.59" height="27.59" transform="translate(-144.11 167.51) rotate(-44.73)"/>
      <path class="cls-16" d="M49.61,280.43l-7.79,7.86c2.88,9.06,6.46,17.83,9.43,22.19a38.07,38.07,0,0,0,3.27,4.2l14.69-14.84Z"/>
      <polygon class="cls-16" points="70.19 259.65 50.77 279.25 70.19 298.86 89.61 279.25 70.19 259.65"/>
      <polygon class="cls-16" points="111 259.75 91.4 279.17 111 298.59 130.6 279.17 111 259.75"/>
      <rect class="cls-16" x="117.78" y="285.76" width="27.59" height="27.59" transform="translate(-173.83 182.2) rotate(-45.27)"/>
      <polygon class="cls-16" points="130.36 238.13 110.94 218.52 91.52 238.13 110.94 257.73 130.36 238.13"/>
      <rect class="cls-16" x="76.57" y="285.82" width="27.59" height="27.59" transform="translate(-184.7 150.37) rotate(-44.73)"/>
      <path class="cls-16" d="M36.92,267.85c.15,1.12.32,2.2.5,3.23a134.31,134.31,0,0,0,3.77,15.17l7.15-7.08Z"/>
      <rect class="cls-16" x="76.65" y="245.01" width="27.59" height="27.59" transform="translate(-157.06 140.91) rotate(-45.27)"/>
      <polygon class="cls-16" points="89.47 238.42 69.87 219 50.27 238.42 69.87 257.84 89.47 238.42"/>
      <path class="cls-16" d="M156.38,262.05c-.41-1.77-.89-3.69-1.43-5.69l-2.14,2.16Z"/>
      <path class="cls-16" d="M152.13,257.84l2.54-2.52c-3.07-11.27-7.62-24.66-9.53-29a2.59,2.59,0,0,0-.14-.29l-12.47,12.36Z"/>
      <path class="cls-16" d="M116.47,211.67c-8-2.56-11.43-5.13-17-6L111,217.09Z"/>
      <path class="cls-16" d="M131.29,237.19,144,224.32c-3.74-5.73-10.68-7.86-10.68-7.86s0,0,0,0c-1.77-.78-5-1.69-11.51-3.31-1.61-.4-3.06-.8-4.4-1.21l-5.74,5.8Z"/>
      <path class="cls-16" d="M138.07,317.31a42.42,42.42,0,0,0,10,.13,8.2,8.2,0,0,0,1.56,1.09,4.6,4.6,0,0,0,2.23.59c2.43,0,5.11-2,8.69-6.42.56-.7,1.13-1.45,1.68-2.23l-10.06-10-19.6,19.43,4.88,4.83h1.12Q138.25,321,138.07,317.31Z"/>
      <path class="cls-16" d="M69.13,258.58,49.71,239l-14,13.9c.16,4.13.46,8.26.88,12l13,13.1Z"/>
      <path class="cls-16" d="M132.27,279.26l19.42,19.6,8.53-8.62c-.7-8.33-1.89-17.05-2.8-22.94-.11-.7-.24-1.46-.4-2.27l-5.33-5.38Z"/>
      <path class="cls-16" d="M162.61,309.88a75,75,0,0,0,4.35-7.2.55.55,0,0,0-.17-.69l-.34-.24-.11.12c-1.92,2.22-3.77,3.34-5.48,3.34h-.07a120.73,120.73,0,0,0-.4-12.89l-7.67,7.59Z"/>
      <path class="cls-16" d="M37.25,226.4a29.74,29.74,0,0,0-.78,3.54,126.59,126.59,0,0,0-.85,21.55l13.24-13.36Z"/>
      <path class="cls-16" d="M68.83,218l-5.21-5.16c-5.92,1.42-11.94,2.66-17.11,3.37a7.43,7.43,0,0,0-4.65,2.27,15.9,15.9,0,0,0-4.41,7.27l12,11.85Z"/>
      <path class="cls-16" d="M77.62,209.1c-3.59,1-7.61,2.13-11.73,3.15l4.3,4.35Z"/>
      <path class="cls-16" d="M90.65,237.25l19.6-19.42-12.19-12.3c-.55-.05-1.12-.09-1.72-.11-5.17-.14-7.71.47-15.54,2.75l-9.57,9.48Z"/>
      <path class="cls-5" d="M152.13,300.49l10.06,10,.42-.59-9.89-10,7.67-7.59c0-.69-.11-1.38-.17-2.07l-8.53,8.62-19.42-19.6,19.42-19.61L157,265c-.18-.93-.4-1.93-.64-3l-3.57-3.53,2.14-2.16c-.09-.35-.18-.69-.28-1l-2.54,2.52-19.6-19.42L145,226.06a16.16,16.16,0,0,0-1-1.74l-12.75,12.87-19.6-19.42,5.74-5.8-1-.3L111,217.09,99.5,205.7c-.46-.07-.94-.13-1.44-.17l12.19,12.3-19.6,19.42-19.42-19.6,9.57-9.48-2.07.61-1.11.32-7.43,7.5-4.3-4.35-2.27.56L68.83,218l-19.42,19.6-12-11.85c-.07.22-.14.45-.2.68l11.61,11.73L35.62,251.49c0,.46,0,.93.05,1.39l14-13.9,19.42,19.6L49.52,278l-13-13.1c.11,1,.23,2,.37,3l11.42,11.32-7.15,7.08.63,2,7.79-7.86,19.6,19.41L54.52,314.68c.17.18.33.36.5.53l14.85-14.72,19.6,19.43-4.88,4.83h2.6l3.55-3.58,3.62,3.58h1.49l-4.33-4.37,19.42-19.6,19.42,19.6L126,324.75h1.61l3.56-3.52,3.49,3.52h2.72l-4.88-4.83Zm-20.55-61.13L151,259l-19.6,19.42L112,258.78Zm-20.64-20.84,19.42,19.61-19.42,19.6-19.42-19.6Zm-1,40.2-19.42,19.6L70.94,258.9l19.42-19.6Zm-59.69-20.3L69.87,219l19.6,19.42-19.6,19.42Zm.5,40.84,19.42-19.61,19.42,19.61-19.42,19.6Zm39.5,39.86-19.42-19.6,19.6-19.42,19.42,19.6Zm1.13-39.95L111,259.75l19.6,19.42L111,298.59Zm20.67,20.48L131.49,280l19.6,19.42-19.42,19.61Z"/>
    </g>
    <g>
      <path class="cls-4" d="M120.47,319.67H224.63v-4.83H124.24c-.71,0-3.15,3.24-3.15,3.24a1,1,0,0,0,.82,1.59Z"/>
      <path class="cls-6" d="M177.29,319.67h62.45a7.47,7.47,0,0,0,7.19-5.45l18.71-66.53a3.46,3.46,0,0,0-3.34-4.4H199a7.54,7.54,0,0,0-7.25,5.49l-18.44,65.57A4.18,4.18,0,0,0,177.29,319.67Z"/>
      <path class="cls-12" d="M177.55,319.67h62.71a7.39,7.39,0,0,0,7.11-5.38L266,248.16a2.45,2.45,0,0,0-2.36-3.11H200.9a7.37,7.37,0,0,0-7.1,5.39l-18.61,66.12A2.46,2.46,0,0,0,177.55,319.67Z"/>
    </g>
    <path class="cls-14" d="M172.83,254.37a9.73,9.73,0,0,0-3.33,5,75.74,75.74,0,0,1-5.69,12c-2,3.11-6.08,7.5-9.11,10.52-2.35,5.63-1.63,15.07,1.63,20.23.89,1.41,2.39,3.1,4.47,3.1,1.71,0,3.56-1.12,5.48-3.33l.06-.07c2.12-4,4.12-8.41,6.17-13.15,3.91-9.11,7.06-24,7-28.14C179.48,257,178.12,250.6,172.83,254.37Z"/>
    <path class="cls-12" d="M76,299.34l-.13-1.21-.18-1.19c-.13-.79-.26-1.59-.43-2.37s-.33-1.58-.49-2.36-.35-1.57-.55-2.35c-.74-3.13-1.55-6.24-2.38-9.35-1.67-6.21-3.42-12.4-5.19-18.58s-3.57-12.37-5.44-18.52c-.47-1.54-.94-3.08-1.43-4.6-.25-.76-.51-1.52-.77-2.28l-.78-2.29c-1.05-3-2.15-6.06-3.47-9a67,67,0,0,1,4.46,8.62c.65,1.49,1.29,3,1.89,4.47s1.17,3,1.72,4.55C65,249,67,255.12,68.74,261.33s3.39,12.47,4.76,18.79c.67,3.16,1.29,6.34,1.77,9.54.23,1.6.45,3.21.59,4.82.08.81.13,1.62.17,2.43l0,1.21C76,298.53,76,298.93,76,299.34Z"/>
    <path class="cls-12" d="M82.73,300.41c-.12.31-.26.63-.4.94s-.29.61-.44.92c-.3.61-.63,1.21-1,1.81-.68,1.18-1.4,2.34-2.16,3.47A53.13,53.13,0,0,1,73.68,314c-.47.5-1,1-1.44,1.48l-.75.71-.78.68a20.36,20.36,0,0,1-3.43,2.42c-.3.18-.63.32-1,.48l-.51.2-.25.09-.26.08a4.75,4.75,0,0,1-.54.14l-.54.1-.58,0h-.29l-.27,0a7.72,7.72,0,0,1-2-.62c-.31-.15-.62-.3-.92-.47s-.58-.36-.86-.56a17.7,17.7,0,0,0,1.94.56,8.56,8.56,0,0,0,1.93.2h.45l.43-.1.44-.14c.15-.05.29-.13.43-.18l.21-.1.21-.11.42-.22c.27-.17.55-.33.81-.52a26.16,26.16,0,0,0,3-2.48l.71-.69c.24-.23.48-.46.71-.7l.69-.71.68-.73c1.82-1.94,3.56-4,5.28-6,.86-1,1.71-2.07,2.56-3.12L81.47,302Z"/>
    <path class="cls-12" d="M52.86,309.09a23.21,23.21,0,0,1-1.58-4.77c-.18-.82-.31-1.65-.42-2.49,0-.42-.1-.84-.13-1.27l0-.63,0-.64a25.69,25.69,0,0,1,.35-5.1,44.52,44.52,0,0,1,1.14-4.93c.11-.41.26-.8.39-1.21l.2-.6.23-.6c.3-.79.64-1.58,1-2.35l.58-1.14c.2-.37.42-.74.63-1.11a25.11,25.11,0,0,1,1.39-2.13,35.44,35.44,0,0,1,3.22-3.88,45.32,45.32,0,0,1,3.68-3.39c-.95,1.38-1.92,2.71-2.85,4.07S58.8,279.64,58,281a37.63,37.63,0,0,0-2.15,4.31c-.3.74-.61,1.48-.87,2.24l-.2.56-.19.58c-.12.38-.25.76-.35,1.15L53.9,291l-.3,1.18c-.11.38-.2.78-.3,1.18s-.19.79-.27,1.18a34,34,0,0,0-.67,4.74A43.51,43.51,0,0,0,52.86,309.09Z"/>
    <path class="cls-12" d="M140.32,226.5c2,7.35,4.51,14.56,6.16,22.07.4,1.88.76,3.77,1,5.69q.18,1.44.27,2.91c.06,1,.06,2,0,2.94a26.49,26.49,0,0,1-.3,3c-.17,1-.36,1.93-.59,2.87-.45,1.89-1,3.73-1.56,5.56-1.14,3.65-2.31,7.25-3.29,10.9-.13.45-.25.91-.37,1.37s-.24.91-.35,1.37c-.23.91-.44,1.83-.65,2.75q-.61,2.76-1.1,5.56c-.62,3.72-1.08,7.48-1.33,11.26s-.32,7.59-.3,11.41a85.72,85.72,0,0,1-.85-11.44q0-2.88.15-5.76c.11-1.92.3-3.83.54-5.74s.55-3.81.93-5.7c.19-.94.38-1.89.6-2.82q.15-.71.33-1.41c.12-.46.23-.93.35-1.4.47-1.86,1-3.7,1.57-5.53s1.15-3.65,1.73-5.46,1.14-3.61,1.63-5.42c.25-.9.45-1.8.63-2.71a22.73,22.73,0,0,0,.35-2.72,37,37,0,0,0-.12-5.56c-.17-1.87-.44-3.74-.76-5.6-.62-3.73-1.5-7.43-2.33-11.15l-.64-2.79c-.21-.93-.41-1.86-.61-2.79C141,230.25,140.64,228.38,140.32,226.5Z"/>
    <path class="cls-13" d="M81.48,177c-.56.07-.77,14.14.53,23.62,2.17,15.67,5.84,17.62,9.12,20,4,2.89,8.51,2.31,11.7,1.54s6.8-3.09,7-7.2-1-11.44-1.68-14.4-7-11.94-11.18-15.85C95,182.74,87.06,176.36,81.48,177Z"/>
    <path class="cls-14" d="M120.25,150.32c3.94,7.56,3.5,20.62,2.89,23.41s-1,2.4-.55,4-.16,6.05-2.37,11.44-7.14,12.44-9.45,13.83a11.53,11.53,0,0,1-8.23,1.64c-3.33-.53-10.83-5.08-15.11-12.1-3.36-5.52-5.84-10-5.88-13.62s-2.76-15,.82-21.58S88.66,145.56,98,143.09C100.49,142.44,113.05,136.49,120.25,150.32Z"/>
    <path class="cls-17" d="M100.58,193.43a.34.34,0,0,1,.27-.53,45,45,0,0,1,7-.05,27.86,27.86,0,0,1,5,.89.35.35,0,0,1,.21.51,6.33,6.33,0,0,1-6.21,3.42C103.39,197.38,101.3,194.58,100.58,193.43Z"/>
    <path class="cls-12" d="M115.92,169.93a4.47,4.47,0,0,1,1.14-1.44,6.24,6.24,0,0,1,1.56-1,6.42,6.42,0,0,1,3.66-.2,6.71,6.71,0,0,1,.89.19l.44.12.46.18a5.43,5.43,0,0,1,1.52,1.08,14.74,14.74,0,0,1,2,2.8l-.15.15c-.45-.38-.81-.79-1.22-1.16a8.74,8.74,0,0,0-1.25-1,3.92,3.92,0,0,0-1.32-.58l-.34-.07-.38,0a6.12,6.12,0,0,0-.74,0,6.14,6.14,0,0,0-1.47.23c-.47.11-.94.23-1.43.31l-1.51.28c-.53.1-1.07.2-1.69.28Z"/>
    <path class="cls-12" d="M92.88,165.67a12.35,12.35,0,0,1,3.87-1.75,11,11,0,0,1,4.41-.25c.38,0,.75.13,1.13.18l1.12.28a5.82,5.82,0,0,1,2,1.12,6.2,6.2,0,0,1,2.2,3.95l-.23.15c-1.38-.68-2.45-1.32-3.53-1.86-.54-.28-1-.57-1.55-.89l-.79-.46a7.2,7.2,0,0,0-.85-.35,9.83,9.83,0,0,0-1.82-.41,11.07,11.07,0,0,0-1.92-.12,13.82,13.82,0,0,0-3.93.65Z"/>
    <path class="cls-18" d="M97.48,172.83c0,.36,1.1,1.43,4.34,1.39,1.45,0,2.88-.4,2.87-1.12A2.75,2.75,0,0,0,102.5,171C100.34,170.63,97.47,172.11,97.48,172.83Z"/>
    <path class="cls-12" d="M100.33,171.85a1.86,1.86,0,0,1,3.43,1.42C103,175.82,99.05,174.87,100.33,171.85Z"/>
    <path class="cls-18" d="M116.57,175.57c0,.35.91,1.38,3.59,1.35,1.18,0,1.75-.61,1.74-1.31s-.17-1.65-1.19-1.84C118.92,173.44,116.56,174.87,116.57,175.57Z"/>
    <path class="cls-12" d="M118.63,174.93a1.56,1.56,0,0,1,2.89,1.19A1.59,1.59,0,1,1,118.63,174.93Z"/>
    <path class="cls-12" d="M104.55,173.72a2.77,2.77,0,0,0-.33-1.29,1.35,1.35,0,0,0-.86-.63,3.42,3.42,0,0,0-.57-.07h-.31l-.32,0c-.44,0-.88.1-1.33.17-.89.15-1.79.33-2.71.5s-1.84.34-2.81.43a8.73,8.73,0,0,1,1.23-.77,14.17,14.17,0,0,1,1.31-.6,13.72,13.72,0,0,1,2.79-.78,10.34,10.34,0,0,1,1.49-.11l.38,0,.4,0a3,3,0,0,1,.8.26,1.91,1.91,0,0,1,.69.54,1.85,1.85,0,0,1,.38.77,2.33,2.33,0,0,1,0,.79A2.08,2.08,0,0,1,104.55,173.72Z"/>
    <path class="cls-12" d="M122.4,176.25a2.46,2.46,0,0,0-.33-1.08,1.07,1.07,0,0,0-.72-.48,1.71,1.71,0,0,0-.46-.05h-.25l-.27,0q-.56.06-1.11.15l-2.3.4a20.43,20.43,0,0,1-2.4.3,7.18,7.18,0,0,1,1-.7,8.57,8.57,0,0,1,1.1-.53,10.23,10.23,0,0,1,2.37-.69,6.78,6.78,0,0,1,1.28-.08h.33l.34,0a2.73,2.73,0,0,1,.7.23,2,2,0,0,1,.6.48,1.63,1.63,0,0,1,.32.68,1.77,1.77,0,0,1,0,.69A1.8,1.8,0,0,1,122.4,176.25Z"/>
    <path class="cls-19" d="M100.1,192.63a5.89,5.89,0,0,0,.61.51l.67.46a12,12,0,0,0,1.41.77c.49.22,1,.42,1.51.59a14.57,14.57,0,0,0,1.58.39l.4.07.41.07.4.06.41,0,.21,0h1l.2,0,.21,0,.4-.06.4-.08a7.79,7.79,0,0,0,.8-.2,2.43,2.43,0,0,0,.38-.13l.38-.14.38-.17.36-.19,0-.1c-.28,0-.55,0-.81,0h-3.87a13.21,13.21,0,0,1-1.54,0,13,13,0,0,1-1.52-.24,13.71,13.71,0,0,1-3-1c-.24-.11-.47-.23-.7-.35s-.45-.27-.67-.42Z"/>
    <path class="cls-12" d="M96.9,140a3.62,3.62,0,0,1,.5.21c1.56.81,3,3.78,3.34,7.46a16.64,16.64,0,0,1-.2,4.85c-1.44,8.05-11.36,8.18-14.53,15.88-2.68,6.51-5,2.91-5.7.25-3.07-11.45-4-20.39,12.2-28.27A7.63,7.63,0,0,1,96.9,140Z"/>
    <path class="cls-12" d="M99.13,140c1.64-.69,11.86-4.17,22.17,7,5.77,6.23,5,15.06,4.69,18.4a5.52,5.52,0,0,1-2.26,4.26c-.55,0,3.3-9.55-16.3-15.4a14.16,14.16,0,0,1-8-5.88c-1.52-1.58-3.65-4.75-2.53-6.79A4,4,0,0,1,99.13,140Z"/>
    <path class="cls-14" d="M83,171.28c-.57-1.05-2.19-2.87-4.59-1.34s-2.26,4.05-1.69,7.64,3,7.8,5.07,8.39,2-.79,2.46-2.58S84.41,173.94,83,171.28Z"/>
    <g>
      <path class="cls-14" d="M89.28,231.19s3.54-15.8,4.4-18.16,1-3,1.57-3.46c3.26-3.07,11.72-6.09,13.29-5.31a7.49,7.49,0,0,1,3.46,4.6c.24,1.57-.16,2.52.16,2.75a2.67,2.67,0,0,1,1.41,1.58c.2.85-.39,2.44.24,2.75s1.41.24,2,.79a5.55,5.55,0,0,1,.87,2.28c.08.31,1.23.55,1.78,1.34s.26,2.28-.29,3.61-1.41,3.85-3.85,4.95-4.32,1-4.72,1.66-9.08,12.79-14.86,12.5C91.87,242.92,87.55,240.24,89.28,231.19Z"/>
      <path class="cls-15" d="M111.7,211.58q-1.4-.21-2.79-.33l-.7-.06-.7-.05c-.46,0-.93-.07-1.4-.08-.93-.05-1.86,0-2.79-.07l-.69-.07-.7-.08-.35-.06-.35-.05a6.44,6.44,0,0,1-.71-.15v-.09c.23-.08.46-.14.7-.2s.47-.1.71-.13l.71-.09.71,0a9.58,9.58,0,0,1,1.42.07l1.41.2,1.41.21.7.13.69.14a28.23,28.23,0,0,1,2.74.71Z"/>
      <path class="cls-15" d="M113.39,215.82h-1.77l-.87,0-.88,0a8.48,8.48,0,0,0-.87.06,5.16,5.16,0,0,1-.88,0,6.53,6.53,0,0,1-.87-.13,4.37,4.37,0,0,1-.88-.26v-.09a3.73,3.73,0,0,1,.88-.32,6.61,6.61,0,0,1,.89-.15,4.42,4.42,0,0,1,.89,0l.88.12.89.12.87.14c.59.11,1.17.22,1.74.37Z"/>
      <path class="cls-15" d="M116.38,219.34h-1.64l-.81,0h-.81c-.27,0-.54,0-.81.06a3.57,3.57,0,0,1-.8,0,7.58,7.58,0,0,1-.81-.13,3.88,3.88,0,0,1-.82-.26V219a3.47,3.47,0,0,1,.81-.31,3.82,3.82,0,0,1,.82-.15,3.22,3.22,0,0,1,.82,0c.28,0,.55.09.83.12l.81.11.81.15c.54.11,1.08.22,1.61.36Z"/>
      <path class="cls-15" d="M109.68,230.1a.41.41,0,0,1,0-.1l0-.08.07-.15.13-.31.29-.6c.19-.4.39-.79.6-1.19s.43-.78.65-1.16.47-.76.73-1.13a10.55,10.55,0,0,1,.84-1.12,2.14,2.14,0,0,1,.64-.51l.12-.06.06,0h0l.17,0a2.21,2.21,0,0,1,.35-.08,7,7,0,0,1,1.36-.13,5.8,5.8,0,0,1,1.37.14v.11a13.08,13.08,0,0,1-1.26.49l-1.21.41-.3.1-.14,0,0,0h0l0,0-.09,0-.1.07-.22.17a6.62,6.62,0,0,0-.89.87q-.42.5-.81,1c-.27.34-.53.69-.79,1.05s-.51.71-.77,1.07l-.37.54-.19.27-.09.14,0,.07s0,.06,0,0Z"/>
      <path class="cls-14" d="M96.35,229.49c-2.09-.5-3.69-.48-5,1.77,0,0-6.42,11.7-11.23,20.68a77.2,77.2,0,0,1-14.42,19.49.45.45,0,0,1,0,.19,25.1,25.1,0,0,0,1.9,22.55c2.49,3.88,5.85,6.11,9.21,6.11h0A9.19,9.19,0,0,0,82,298.53l.14-.07A115.66,115.66,0,0,0,90,280.65c5-14.11,10.75-33.52,11.71-40.41S99.18,230.16,96.35,229.49Z"/>
    </g>
    <rect class="cls-12" x="35.3" y="319.62" width="345.7" height="10.58" rx="5.29"/>
    <path class="cls-4" d="M290.31,298.21a5.6,5.6,0,0,0-4.09-2.88,6.85,6.85,0,0,0-3.11.12c0-1.08,0-2.17,0-3.26a.3.3,0,0,0-.3-.3H260.19a.31.31,0,0,0-.3.3c-.17,11.55,2.25,23.17,4.3,27.16a.6.6,0,0,0,.53.32h13.59a.6.6,0,0,0,.52-.32,27.5,27.5,0,0,0,1.82-5.26,17.9,17.9,0,0,0,9.83-9.09A8.31,8.31,0,0,0,290.31,298.21Zm-1.87,5.91a15.68,15.68,0,0,1-7.16,7.29A90.58,90.58,0,0,0,283,297.86a4.29,4.29,0,0,1,2.81-.35,3.39,3.39,0,0,1,2.53,1.75A6,6,0,0,1,288.44,304.12Z"/>
    <path class="cls-10" d="M280.77,275.38c1.35-4.15,5.26-5.05,4.94-8.67-.15-1.68-1.28-3.16-.94-3.4s1.46.87,2.05,1.53a13.26,13.26,0,0,1,2.38,12.59c-1.47,4-3.83,3.57-4.85,8.41-.5,2.36.17,4.55-.09,4.6S278.06,283.72,280.77,275.38Z"/>
  </g>
</svg>
