<svg id="Capa_1" data-name="Capa 1" xmlns="http://www.w3.org/2000/svg" width="140" height="140" viewBox="0 0 140 140">
  <defs>
    <style>
      .cls-1 {
        fill: #fff;
        stroke: #8b82ca;
        stroke-miterlimit: 10;
        stroke-width: 6px;
      }

      .cls-2 {
        fill: #0f0140;
      }
    </style>
  </defs>
  <circle class="cls-1" cx="70" cy="70" r="60"/>
  <path class="cls-2" d="M53.39,99a6.28,6.28,0,0,1-4.49-1.85L47.78,96a6.3,6.3,0,0,1,0-9l19-18.33L48.32,50.55a6.31,6.31,0,0,1-.08-8.93l1.14-1.15a6.31,6.31,0,0,1,9,0l4,4L63,43.26a6.3,6.3,0,0,1,1.17-1.64l1.13-1.15a6.31,6.31,0,0,1,9,0L97.78,64.4a6.3,6.3,0,0,1,1.8,4.42,6.23,6.23,0,0,1-1.81,4.41L90.6,80.51a1.43,1.43,0,0,1-1,.42,1.41,1.41,0,0,1-1-.41,1.48,1.48,0,0,1-.43-1,1.43,1.43,0,0,1,.42-1l7.17-7.27a3.46,3.46,0,0,0,0-4.81L72.28,42.5a3.43,3.43,0,0,0-4.91,0l-1.13,1.15a3.43,3.43,0,0,0-.48,4.21l.06.1L82.2,64.39a6.33,6.33,0,0,1,0,8.84L66.46,88.66l-.07.12a1.22,1.22,0,0,1-.24.3,3.45,3.45,0,0,0,0,4.89l1.12,1.12a3.44,3.44,0,0,0,4.88,0L80,87.18a1.4,1.4,0,0,1,1-.43,1.42,1.42,0,0,1,1,.42,1.48,1.48,0,0,1,.43,1,1.42,1.42,0,0,1-.42,1l-7.84,7.88A6.28,6.28,0,0,1,69.7,99h0a6.26,6.26,0,0,1-4.46-1.85L64.09,96a6.22,6.22,0,0,1-1.3-1.87l-.58-1.31-4.35,4.26A6.3,6.3,0,0,1,53.39,99Zm.48-57.51a3.37,3.37,0,0,0-2.44,1l-1.14,1.15a3.43,3.43,0,0,0,0,4.86L69.92,67.69a1.38,1.38,0,0,1,.43,1,1.45,1.45,0,0,1-.44,1L49.84,89.09a3.44,3.44,0,0,0,0,4.88l1.12,1.12a3.44,3.44,0,0,0,4.88,0L80.14,71.22a3.46,3.46,0,0,0,0-4.8L64.61,50.8l-.1-.06a1,1,0,0,1-.25-.2,5.59,5.59,0,0,1-.61-.68l0-.06-7.27-7.29a3.4,3.4,0,0,0-2.46-1Z"/>
</svg>
