<svg id="Capa_1" data-name="Capa 1" xmlns="http://www.w3.org/2000/svg" width="606.79" height="500" viewBox="0 0 606.79 500">
  <defs>
    <style>
      .cls-1 {
        fill: #fff;
      }

      .cls-2 {
        fill: #6558b8;
      }

      .cls-3 {
        fill: #ed1c24;
      }

      .cls-4 {
        fill: none;
      }

      .cls-5 {
        fill: #fccc44;
      }

      .cls-6 {
        fill: #0f0140;
      }

      .cls-7 {
        fill: #346e00;
      }

      .cls-8 {
        fill: #9fbc50;
      }

      .cls-9 {
        fill: #7ca417;
      }

      .cls-10 {
        fill: #bc7e55;
      }

      .cls-11 {
        fill: #282444;
      }

      .cls-12 {
        fill: #ec7d40;
      }

      .cls-13 {
        fill: #f79556;
      }

      .cls-14 {
        fill: #d66730;
      }

      .cls-15 {
        fill: #d6d0a9;
      }

      .cls-16 {
        fill: #e6e6e6;
      }

      .cls-17 {
        fill: #a34014;
      }
    </style>
  </defs>
  <g>
    <g>
      <path class="cls-1" d="M384.05,97.21A22.8,22.8,0,1,0,415.76,103,22.8,22.8,0,0,0,384.05,97.21Zm20.43,29.6a13.17,13.17,0,1,1,3.36-18.32A13.17,13.17,0,0,1,404.48,126.81Z"/>
      <path class="cls-2" d="M384.05,97.21l0,0,5.46,7.93,0,0a13,13,0,0,1,7.18-2.31l-.26-9.62A22.65,22.65,0,0,0,384.05,97.21Z"/>
      <path class="cls-3" d="M397.42,129.13a13.16,13.16,0,0,1-10.56-21.56l-7.36-6.21a22.79,22.79,0,0,0,18.18,37.39Z"/>
      <path class="cls-4" d="M407.84,108.49a13.18,13.18,0,0,1-9.42,20.58l.76,9.59a22.79,22.79,0,0,0,1.13-45.24L399.05,103A13.15,13.15,0,0,1,407.84,108.49Z"/>
      <path class="cls-4" d="M400.88,93.51l-.57-.09h0l-.67,5.08-.59,4.46.64.12h0c.22,0,.42.09.63.15h0c.21.06.41.11.61.18h0l.58.2,0,0,.56.22.05,0,.53.24.07,0,.5.26.09,0,.47.28.1.06.44.28.12.09c.14.09.27.19.4.29l.14.1.37.3.14.12.35.31.15.14.33.33.15.15.31.34.14.16.32.39s.08.09.11.14.28.37.41.56a13.18,13.18,0,0,1-.47,15.61c-.14.17-.27.34-.42.5a11.56,11.56,0,0,1-.91,1,13.84,13.84,0,0,1-1.56,1.26l-.51.33a.41.41,0,0,1-.11.07l-.5.29-.09,0a4.16,4.16,0,0,1-.47.24l-.09,0-.52.23-.12.06-.53.21h0a5.52,5.52,0,0,1-.53.18l-.13,0-.53.16-.11,0-.48.11-.1,0-.54.09-.13,0-.55.07h0l.76,9.59h0a21,21,0,0,0,2.09-.29h0l.67-.14h0c.46-.1.92-.22,1.38-.35h0l.64-.2.09,0,.59-.2.06,0c.43-.16.86-.33,1.28-.51l.13-.06.49-.22.16-.08.52-.25.09-.05.6-.32.13-.07.46-.27.19-.11.41-.26.18-.11.57-.38a23.25,23.25,0,0,0,1.85-1.42,22.81,22.81,0,0,0,7.63-21.42c-.13-.73-.3-1.45-.5-2.17-.15-.54-.33-1.07-.52-1.6a23,23,0,0,0-2.65-5.1l-.35-.49a.91.91,0,0,1-.11-.16l-.25-.32-.14-.18-.23-.28-.15-.19-.23-.27-.16-.19-.23-.26-.16-.18-.24-.25-.17-.17-.24-.25-.17-.17-.25-.24-.17-.16-.26-.23-.17-.16-.26-.23-.17-.14-.28-.23-.17-.13-.29-.24-.16-.12-.31-.23-.15-.1-.33-.24-.13-.09-.36-.24-.12-.07c-.12-.09-.25-.17-.38-.25l-.1,0-.42-.26-.06,0-.49-.28h0a23.06,23.06,0,0,0-7-2.43Z"/>
      <path class="cls-5" d="M415.3,102.38h0l-.25-.32-.14-.18-.23-.28-.15-.19,0-.05a2,2,0,0,0-.19-.22h0l-.16-.18-.23-.26-.16-.18-.07-.07-.17-.18-.17-.17-.24-.25-.09-.09-.08-.08-.25-.24-.17-.16-.26-.23-.09-.09-.08-.07-.12-.1-.14-.13-.12-.09-.05,0-.1-.08-.18-.15-.17-.13-.29-.24-.11-.08-.05,0-.31-.23-.15-.1-.33-.24-.13-.09,0,0-.32-.22-.06,0-.06,0c-.12-.09-.25-.17-.38-.25l-.1,0-.42-.26,0,0h0l-.49-.28h0l-.74-.38-.15-.08-.74-.34-.13-.06-.71-.29-.09,0-.77-.28-.17-.06-.77-.25-.1,0-.73-.21-.14,0-.79-.19-.17,0-.81-.16h0l-.57-.09h0L400,95.79l-.12.91-.59,6.3.4.08h0c.21,0,.42.09.63.15h0c.21.06.41.11.61.18h0l.58.2h0l0,0h0l.56.22h0l.05,0,.53.24h0l.07,0h0l.49.26h0l.09,0,.47.28.1.06h0l.44.28.12.09c.14.09.27.19.4.29l.14.1.37.3h0l.14.11h0l.35.31.15.14.33.33.15.15h0l.3.34h0l.14.15.32.39s.08.09.11.14.28.37.41.56h0l.33.51.1.17c.08.12.15.24.22.37l.1.19c.07.12.13.24.19.37l.09.18.2.44a.61.61,0,0,1,.05.12,5.25,5.25,0,0,1,.22.55l.06.16c0,.14.1.27.14.41l.06.2c0,.13.08.25.11.38a1.6,1.6,0,0,1,0,.21c0,.13.07.27.1.41s0,.11,0,.16c0,.2.07.39.1.58s0,.08,0,.12l.06.46c0,.07,0,.14,0,.2l0,.39c0,.07,0,.14,0,.21s0,.27,0,.41v.18c0,.19,0,.39,0,.58h0l0,.58a1.11,1.11,0,0,0,0,.19c0,.13,0,.26-.05.4a1.5,1.5,0,0,1,0,.2c0,.13,0,.26-.07.39l0,.19c0,.16-.06.31-.1.46a.36.36,0,0,1,0,.11c0,.19-.09.38-.14.56s0,.11-.05.16-.08.27-.13.4l-.06.2c0,.12-.09.24-.14.36a1.07,1.07,0,0,1-.07.19c-.05.14-.11.27-.16.4l-.07.14c-.08.18-.16.36-.25.53s0,.07-.05.1-.15.28-.23.42l-.1.17a3.79,3.79,0,0,1-.2.34,1.74,1.74,0,0,0-.11.18l-.23.34-.11.15-.35.48-.24.29-.18.21c-.17.2-.35.39-.53.58l-.38.37-.44.4-.14.11c-.11.1-.23.19-.35.28l-.14.11c-.16.12-.32.25-.49.36l-.51.33a.41.41,0,0,1-.11.07h0l-.5.29h0l-.09,0h0a4.16,4.16,0,0,1-.47.24l-.09,0-.52.23-.12.06-.53.21h0a5.52,5.52,0,0,1-.53.18h0l-.11,0,2.17,9.39h.05l.26-.07h0l.64-.2.06,0h0l.53-.18.06,0h.07c.42-.15.85-.32,1.27-.5h0l.13-.06.49-.22.16-.08.09,0,.43-.21.07,0h0l.06,0,.54-.29.06,0,.07,0,.37-.21.09-.06.08,0,.11-.07.41-.26.1-.06.08,0,.57-.38c.33-.23.65-.46,1-.71s.59-.46.88-.71l.52-.46.15-.13.38-.36a1.85,1.85,0,0,1,.14-.14l.48-.48,0,0c.15-.15.3-.31.44-.47l.13-.15.34-.39.12-.14L415,130,415,130l.35-.48a.83.83,0,0,0,.12-.16l.3-.42.1-.15c.13-.18.25-.37.37-.56l.06-.09.29-.48.1-.18c.09-.14.17-.29.25-.44l.09-.15.3-.59.06-.11.24-.49c0-.06.05-.13.08-.19l.21-.47.06-.14c.09-.21.17-.41.25-.62a.69.69,0,0,0,.05-.13c.07-.17.13-.33.19-.5l.06-.19c.06-.16.11-.33.17-.5l0-.13c.07-.21.13-.42.19-.63,0,0,0-.11,0-.16s.09-.33.13-.49,0-.13.05-.2l.12-.53,0-.12.12-.65,0-.16c0-.17.06-.33.08-.5l0-.2c0-.18.05-.37.07-.55s0-.07,0-.11l.06-.66s0-.11,0-.17,0-.33,0-.5a1.34,1.34,0,0,0,0-.2c0-.2,0-.39,0-.59v-.07c0-.23,0-.45,0-.67v-.18c0-.17,0-.33,0-.5a1.41,1.41,0,0,0,0-.2c0-.2,0-.41,0-.61v0l-.06-.66,0-.19-.06-.5,0-.19c0-.22-.07-.44-.11-.66-.13-.73-.3-1.45-.5-2.17-.07-.24-.14-.47-.22-.71l-.06-.18c-.08-.24-.15-.47-.24-.7h0c-.07-.2-.15-.39-.22-.59a1.54,1.54,0,0,1-.08-.19l-.18-.42-.09-.21c-.06-.13-.13-.27-.19-.41l-.09-.19c-.09-.19-.19-.39-.29-.58h0c-.1-.2-.2-.39-.31-.58l-.1-.18-.24-.4-.12-.2-.24-.4a1.74,1.74,0,0,1-.11-.18c-.13-.18-.25-.37-.38-.56l-.35-.49Z"/>
    </g>
    <g>
      <polygon class="cls-6" points="486.03 232.31 410.49 232.31 410.49 165.31 412.04 165.31 412.04 230.75 486.03 230.75 486.03 232.31"/>
      <rect class="cls-2" x="415.16" y="167.32" width="11.48" height="59.9"/>
      <rect class="cls-6" x="428.94" y="185.5" width="11.48" height="41.72"/>
      <rect class="cls-2" x="442.72" y="175.55" width="11.48" height="51.67"/>
      <rect class="cls-3" x="456.5" y="198.71" width="11.48" height="28.52"/>
      <rect class="cls-5" x="470.28" y="192.39" width="11.48" height="34.83"/>
    </g>
    <g>
      <path class="cls-2" d="M367.42,248.93V228.84h0a19.84,19.84,0,1,0,19.83,20.09Z"/>
      <path class="cls-3" d="M379.77,230.77a19.75,19.75,0,0,0-11-3.34v20.09h.2Z"/>
      <path class="cls-5" d="M379.79,230.78l-6.9,10.68L369,247.52h19.59v-.25A19.81,19.81,0,0,0,379.79,230.78Z"/>
    </g>
    <g>
      <g>
        <path class="cls-7" d="M469.71,292.37s1.16-8.48,4.72-14.16c1.65-2.63,2.7-4.77,2.84-6.15.07-.67.15-1.2.17-.43.05,2.46-2.39,6.53-1.44,11.16,1.18,5.69,1.44,13.3-.14,15.31S469.71,292.37,469.71,292.37Z"/>
        <path class="cls-8" d="M478.68,307.68c.92-1.46,3.24-8.2,13.73-14.11s13-10.11,12.59-13.55.72-2.53.77.76c.08,5.92-10.31,18.51-12,25.38s-5.54,31.29-10.11,34.91S474.48,314.36,478.68,307.68Z"/>
        <path class="cls-7" d="M443.81,335.87c-.14-1.14,1.57-16.59-4.58-24.32s-10.44-9.87-14.88-19.75c-3-6.74-3.39-10-4-11.64-.28-.75-1.52-1.37-1.29-1.38s.18.13,1.64.87c4.44,2.24,15.73,8.48,19.82,17.3,5.44,11.74,13.16,27.48,13.16,29.62s5.3,18.75,5.3,18.75Z"/>
        <path class="cls-8" d="M458.11,344.88c-.78-1.56-7.24-9.39-12.14-24.67s-10-14.29-6.85-34.45,6.84-20.17,5.47-26.63.11-3.22.79.78a47.51,47.51,0,0,0,8.81,20.36c5.09,7.05,7.84,9.6,11.16,18.41S475.73,329,468.09,338,458.11,344.88,458.11,344.88Z"/>
        <path class="cls-9" d="M461.5,369.88s-7.63-25.18-5.15-41,8.65-45.78,8.4-54-1.67-11-.76-10.3c.76.61-.17,3.86,3.62,13.54,4.58,11.69,13.74,22.71,15.07,33.2s2.29,16.6-.76,28.43-6.3,23.65-10.68,33.57S461.5,369.88,461.5,369.88Z"/>
        <path class="cls-8" d="M464.46,364a31.12,31.12,0,0,0-12-24.81c-13-10.11-14.5-12-14.5-12s3.62,2.68,5,8.78.19,7.63,4,16.6,8.77,7.06,8.58,14.5,1.15,7.44,3.44,7.63S464.46,371.22,464.46,364Z"/>
        <path class="cls-9" d="M442,329.72c-8.61-8.61-4.47-10.37-7.33-15.74s-6.72-8.58-9.3-11.52-2.22-5.58-1.07.57-.29,9.31,3.29,14.46,6.44,6.15,11.16,10.44,8.37,7,8.37,7S445.91,333.66,442,329.72Z"/>
        <path class="cls-7" d="M489,313.16s2.86-7.16,8-11.59c3.88-3.35,5.81-5.47,6.71-7.23a5.77,5.77,0,0,0,.53-1.6c.14-.72,0-1.06.16-1,.5.09-.49,1.81-.68,5.14-.28,5,2,8.3-1.28,15.89s-4.3,14.59-11.88,19.17-9.44,6.44-9,5.15S489,313.16,489,313.16Z"/>
        <path class="cls-8" d="M478.1,339.2c11.06-8.65,17.14-11.83,17.14-11.83a59.91,59.91,0,0,1-7.79,11.79c-6.55,7.65-9.73,3.82-9,29.39s-5.34,5.53-5.34,6.1S461.8,352,478.1,339.2Z"/>
      </g>
      <g>
        <path class="cls-10" d="M445.45,363.27a1,1,0,0,0-1,1c0,.61,0,1.22,0,1.83,0,16.35,3,31,7.66,41.11a1,1,0,0,0,.92.58h26.35a1,1,0,0,0,.92-.58c4.7-10.08,7.66-24.76,7.66-41.11,0-.61,0-1.22,0-1.83a1,1,0,0,0-1-1Z"/>
        <path class="cls-6" d="M487.69,374.18H449l38.18,6.43Q487.48,377.46,487.69,374.18Z"/>
      </g>
    </g>
    <g>
      <path class="cls-3" d="M440.24,378a7.74,7.74,0,0,0-5.67-4,9.49,9.49,0,0,0-4.32.17q.06-2.26,0-4.53a.42.42,0,0,0-.42-.41H398.47a.41.41,0,0,0-.42.41c-.24,16,3.12,32.14,6,37.67a.83.83,0,0,0,.73.45h18.84a.81.81,0,0,0,.73-.45,37.1,37.1,0,0,0,2.52-7.29c4-1.43,10.63-5.6,13.63-12.61A11.45,11.45,0,0,0,440.24,378Zm-2.6,8.19c-2.13,5-6.62,8.42-9.93,10.11a125,125,0,0,0,2.41-18.79,5.89,5.89,0,0,1,3.9-.49,4.75,4.75,0,0,1,3.52,2.43A8.34,8.34,0,0,1,437.64,386.22Z"/>
      <path class="cls-1" d="M409.33,345c1.88-5.75,7.3-7,6.85-12-.2-2.33-1.78-4.39-1.29-4.71s2,1.21,2.83,2.12a18.34,18.34,0,0,1,3.3,17.45c-2,5.59-5.31,5-6.72,11.68-.69,3.26.23,6.31-.12,6.37S405.57,356.54,409.33,345Z"/>
    </g>
    <path class="cls-1" d="M270,219.56a75.11,75.11,0,1,0-53-21.91l-3.09,16.47,15.39-6.55A74.74,74.74,0,0,0,270,219.56Z"/>
    <g>
      <g>
        <path class="cls-5" d="M270.11,103.44h-1.63A33.23,33.23,0,0,0,239.65,151c2.93,7.27,10.94,15,12.25,23.5a62.48,62.48,0,0,0,1.47,7.49,5.86,5.86,0,0,0,5.63,4.22h20.59a5.87,5.87,0,0,0,5.64-4.22,62.93,62.93,0,0,0,1.46-7.49C288,166,296,158.29,298.94,151a33.23,33.23,0,0,0-28.83-47.58Z"/>
        <path class="cls-11" d="M259.29,186.21v17.71a2.33,2.33,0,0,0,.72,1.68l5,4.84a2.35,2.35,0,0,0,1.62.66h5.27a2.35,2.35,0,0,0,1.62-.66l5-4.84a2.33,2.33,0,0,0,.72-1.68V186.21Z"/>
        <path class="cls-11" d="M279.39,191.81l-20.19,1.44a1,1,0,0,1-1-1v-5.95h22.23v4.51A1,1,0,0,1,279.39,191.81Z"/>
        <path class="cls-1" d="M279.56,195.29l-20.89,1.46a.79.79,0,0,1-.84-.73h0a.79.79,0,0,1,.73-.84l20.89-1.46a.79.79,0,0,1,.84.73h0A.79.79,0,0,1,279.56,195.29Z"/>
        <path class="cls-1" d="M279.56,198.37l-20.89,1.46a.79.79,0,0,1-.84-.73h0a.79.79,0,0,1,.73-.84l20.89-1.46a.79.79,0,0,1,.84.73h0A.79.79,0,0,1,279.56,198.37Z"/>
        <path class="cls-1" d="M279.56,201.45l-20.89,1.46a.79.79,0,0,1-.84-.73h0a.79.79,0,0,1,.73-.84l20.89-1.46a.79.79,0,0,1,.84.73h0A.79.79,0,0,1,279.56,201.45Z"/>
        <g>
          <path class="cls-1" d="M273.38,186.08l-.09-3.18-.08-3.17-.07-3.18c0-1.06-.06-2.13,0-3.2A34.43,34.43,0,0,1,274,167c.24-1.05.53-2.09.87-3.11.16-.51.35-1,.54-1.52l.29-.75.31-.74c.8-2,1.57-3.93,2.36-5.9s1.62-3.92,2.49-5.85,1.78-3.85,2.72-5.75,1.89-3.8,2.93-5.66a.08.08,0,0,1,.11,0,.09.09,0,0,1,0,.09c-.63,2-1.34,4-2.07,6s-1.5,4-2.29,5.94-1.62,3.91-2.5,5.84-1.78,3.85-2.64,5.78l-.33.73-.31.72c-.2.48-.39,1-.57,1.45-.36,1-.67,2-.94,3a32.92,32.92,0,0,0-1.07,6.17c-.08,1.05-.1,2.09-.13,3.16l-.07,3.18-.08,3.17-.09,3.18a.07.07,0,0,1-.08.08A.08.08,0,0,1,273.38,186.08Z"/>
          <path class="cls-1" d="M252.12,137.69l1.33,2.89,1.32,2.89,2.64,5.78,2.62,5.8,2.6,5.8.32.72.33.75q.32.74.6,1.5c.38,1,.72,2,1,3.09a27.86,27.86,0,0,1,1,6.42c0,.27,0,.54,0,.81v1.61l0,.8c0,1.06-.08,2.12-.14,3.18-.11,2.11-.25,4.23-.47,6.35a.08.08,0,0,1-.09.07.07.07,0,0,1-.07-.07c-.23-2.12-.37-4.24-.47-6.35q-.09-1.59-.15-3.18l0-.8v-.39l0-.39c0-.52-.05-1-.09-1.55a43.73,43.73,0,0,0-.92-6.14q-.35-1.51-.81-3-.24-.75-.51-1.47l-.29-.73-.3-.74-2.4-5.88-2.38-5.9-2.36-5.9-1.19-2.95-1.16-3a.07.07,0,0,1,0-.1A.08.08,0,0,1,252.12,137.69Z"/>
        </g>
        <path class="cls-1" d="M252.16,135.72a8.41,8.41,0,0,1,.47-1.17,4.19,4.19,0,0,1,.71-1.06,1.43,1.43,0,0,1,.55-.38.87.87,0,0,1,.69,0,1.58,1.58,0,0,1,.54.41,3.39,3.39,0,0,1,.38.53,8.12,8.12,0,0,1,1,5,4.89,4.89,0,0,1-.14.64,2,2,0,0,1-.31.64.71.71,0,0,1-.37.26.61.61,0,0,1-.27,0,1,1,0,0,1-.21-.11,1.21,1.21,0,0,1-.27-.29c-.06-.1-.12-.2-.17-.3a6.65,6.65,0,0,1-.56-2.55,9.71,9.71,0,0,1,.25-2.57,6.86,6.86,0,0,1,.39-1.24,4.2,4.2,0,0,1,.68-1.17,2.08,2.08,0,0,1,.57-.47,1.22,1.22,0,0,1,.38-.13,1.24,1.24,0,0,1,.43,0,1.51,1.51,0,0,1,.69.35,2.88,2.88,0,0,1,.47.53A7,7,0,0,1,259.2,135a9.08,9.08,0,0,1,.31,2.6,3.44,3.44,0,0,1-.09.69c0,.06,0,.12-.06.19a1.29,1.29,0,0,1-.12.23.58.58,0,0,1-.16.14.45.45,0,0,1-.31.06.5.5,0,0,1-.22-.11.38.38,0,0,1-.11-.11,1.17,1.17,0,0,1-.2-.35c-.05-.11-.09-.21-.13-.32s-.14-.42-.19-.64a8.49,8.49,0,0,1-.17-2.61,8.19,8.19,0,0,1,.21-1.3,5.85,5.85,0,0,1,.45-1.25,4.13,4.13,0,0,1,.37-.59,2.19,2.19,0,0,1,.54-.51,1.49,1.49,0,0,1,.75-.25,1.66,1.66,0,0,1,.77.15,2.85,2.85,0,0,1,.6.4,4.25,4.25,0,0,1,.47.48,7.74,7.74,0,0,1,.75,1.08,9.75,9.75,0,0,1,.95,2.41,10.52,10.52,0,0,1,.35,2.55,6.32,6.32,0,0,1-.09,1.3,2.94,2.94,0,0,1-.16.65,1.66,1.66,0,0,1-.16.33.84.84,0,0,1-.27.3.6.6,0,0,1-.23.1.7.7,0,0,1-.25,0,.89.89,0,0,1-.36-.2,2.32,2.32,0,0,1-.43-.54,5,5,0,0,1-.52-1.21,6.94,6.94,0,0,1-.21-2.56,9.32,9.32,0,0,1,.59-2.49,7.25,7.25,0,0,1,.59-1.14,3.34,3.34,0,0,1,.88-1,1.67,1.67,0,0,1,.62-.28,1,1,0,0,1,.35,0,1.22,1.22,0,0,1,.34.1,2.19,2.19,0,0,1,.89,1,9.47,9.47,0,0,1,1,2.35,8.73,8.73,0,0,1,.22,1.26,4.7,4.7,0,0,1,0,.65,1.88,1.88,0,0,1-.05.33,1.22,1.22,0,0,1-.07.17.36.36,0,0,1-.16.17.25.25,0,0,1-.15,0,.43.43,0,0,1-.12-.05.55.55,0,0,1-.13-.14,1.52,1.52,0,0,1-.17-.3,4.84,4.84,0,0,1-.22-.6,7.8,7.8,0,0,1-.29-1.25,5.52,5.52,0,0,1,.2-2.55,2.82,2.82,0,0,1,.68-1.12,1.75,1.75,0,0,1,1.22-.56,1.85,1.85,0,0,1,1.25.49,2.15,2.15,0,0,1,.45.5,3,3,0,0,1,.31.59,5.1,5.1,0,0,1,.3,1.27,8.33,8.33,0,0,1-.16,2.57,5,5,0,0,1-.19.63,2.44,2.44,0,0,1-.32.62.73.73,0,0,1-.37.27.51.51,0,0,1-.3,0,.64.64,0,0,1-.2-.14,1.15,1.15,0,0,1-.22-.32,1.66,1.66,0,0,1-.13-.32,4,4,0,0,1-.22-1.32,5.52,5.52,0,0,1,.59-2.55,4,4,0,0,1,.79-1.1,2.22,2.22,0,0,1,1.26-.65,1.85,1.85,0,0,1,.74,0,2,2,0,0,1,.34.13,2.17,2.17,0,0,1,.33.19,3.09,3.09,0,0,1,.85,1.11,9.81,9.81,0,0,1,.74,2.5,13.72,13.72,0,0,1,.2,2.57c0,.21,0,.43,0,.65a4.74,4.74,0,0,1-.13.7c0,.06-.05.12-.08.19a.69.69,0,0,1-.18.23.43.43,0,0,1-.2.12.46.46,0,0,1-.26,0,.67.67,0,0,1-.3-.18,2,2,0,0,1-.25-.33,2.41,2.41,0,0,1-.15-.33,4.94,4.94,0,0,1-.28-1.33,9.57,9.57,0,0,1,0-1.31,11.79,11.79,0,0,1,.42-2.57,6.18,6.18,0,0,1,.48-1.25,3.07,3.07,0,0,1,.4-.59,1.63,1.63,0,0,1,.3-.28,1.17,1.17,0,0,1,.44-.18.94.94,0,0,1,.5,0,1.37,1.37,0,0,1,.4.21,2.77,2.77,0,0,1,.49.56,5.07,5.07,0,0,1,.92,2.53,4,4,0,0,1,0,.69,3.15,3.15,0,0,1-.11.72c0,.06-.05.12-.08.2a.84.84,0,0,1-.17.25.48.48,0,0,1-.13.09.45.45,0,0,1-.23.06.49.49,0,0,1-.25-.07.51.51,0,0,1-.13-.12.64.64,0,0,1-.1-.16.93.93,0,0,1,0-.13,1.54,1.54,0,0,1-.07-.39c0-.12,0-.23,0-.34a11.38,11.38,0,0,1,.07-1.31,10,10,0,0,1,.21-1.3,6.11,6.11,0,0,1,.21-.65,2.44,2.44,0,0,1,.37-.66,1.19,1.19,0,0,1,.35-.31,1,1,0,0,1,.56-.11,1.14,1.14,0,0,1,.46.18,1.69,1.69,0,0,1,.32.25,4.3,4.3,0,0,1,.44.56,5.82,5.82,0,0,1,.34.58,6.74,6.74,0,0,1,.72,2.56,10.43,10.43,0,0,1-.08,2.62,8.59,8.59,0,0,1-.3,1.29,4.78,4.78,0,0,1-.26.64,1.94,1.94,0,0,1-.22.34.83.83,0,0,1-.19.18.76.76,0,0,1-.18.09.64.64,0,0,1-.28,0,.76.76,0,0,1-.24-.11l-.13-.14a1,1,0,0,1-.12-.23,2.47,2.47,0,0,1-.11-.36,3.49,3.49,0,0,1-.07-.71,5.89,5.89,0,0,1,.13-1.33,9.2,9.2,0,0,1,.84-2.48,4.93,4.93,0,0,1,.75-1.13,1.72,1.72,0,0,1,.65-.46.87.87,0,0,1,.51,0,1,1,0,0,1,.44.25,1.79,1.79,0,0,1,.25.33q.09.18.15.33a6.37,6.37,0,0,1,.23.61,8.08,8.08,0,0,1,.31,1.29,4.89,4.89,0,0,1,0,.66,2.92,2.92,0,0,1-.06.71.63.63,0,0,1-.08.23.46.46,0,0,1-.14.18.46.46,0,0,1-.22.08.48.48,0,0,1-.23-.06.59.59,0,0,1-.16-.17l-.05-.11c0-.07,0-.14-.07-.2s-.05-.22-.07-.35,0-.24,0-.35a6.36,6.36,0,0,1,.15-1.32,7.1,7.1,0,0,1,.36-1.25,4.06,4.06,0,0,1,.64-1.19,1.53,1.53,0,0,1,.57-.49,1.08,1.08,0,0,1,.41-.11,1.16,1.16,0,0,1,.42.05,1.72,1.72,0,0,1,.63.43,4.06,4.06,0,0,1,.42.53,7.6,7.6,0,0,1,.6,1.17,6.51,6.51,0,0,1,.51,2.54,4.9,4.9,0,0,1-.2,1.31,3.7,3.7,0,0,1-.26.62,1.8,1.8,0,0,1-.47.53.88.88,0,0,1-.35.17.75.75,0,0,1-.42,0,1.08,1.08,0,0,1-.53-.5,1.87,1.87,0,0,1-.15-.32,2.09,2.09,0,0,1-.08-.34,2.5,2.5,0,0,1,0-.67,4.78,4.78,0,0,1,.36-1.24,6.41,6.41,0,0,1,.62-1.12,5.63,5.63,0,0,1,.85-1,3,3,0,0,1,1.11-.66,1.43,1.43,0,0,1,.65,0,1.49,1.49,0,0,1,.61.25,2.71,2.71,0,0,1,.76,1l-.07,0a2.47,2.47,0,0,0-.76-.95,1.29,1.29,0,0,0-.56-.22,1.64,1.64,0,0,0-.58.06,2.74,2.74,0,0,0-1,.65,5.54,5.54,0,0,0-.79.95,6.23,6.23,0,0,0-.56,1.09,4.47,4.47,0,0,0-.31,1.18,1.68,1.68,0,0,0,.21,1.11.89.89,0,0,0,.36.34.45.45,0,0,0,.42-.1,1.28,1.28,0,0,0,.33-.42,2.11,2.11,0,0,0,.22-.54,4.32,4.32,0,0,0,.15-1.19,6.14,6.14,0,0,0-.53-2.34,6.84,6.84,0,0,0-.59-1.06,2.65,2.65,0,0,0-.36-.44,1,1,0,0,0-.41-.28.48.48,0,0,0-.39,0,1,1,0,0,0-.36.33,3.88,3.88,0,0,0-.54,1,7.75,7.75,0,0,0-.31,1.17,5.31,5.31,0,0,0-.12,1.18,1.89,1.89,0,0,0,.08.54l0,.11,0,0s0,0-.06-.05a.34.34,0,0,0-.15,0,.23.23,0,0,0-.15.06l-.05,0a.29.29,0,0,0,0-.08,2.28,2.28,0,0,0,0-.54,5.7,5.7,0,0,0-.06-.58,6.56,6.56,0,0,0-.29-1.16c-.07-.19-.14-.38-.22-.56s-.08-.18-.12-.25a.84.84,0,0,0-.13-.17c-.05,0-.08-.06-.1-.06a.12.12,0,0,0-.1,0,1.18,1.18,0,0,0-.36.28,4.73,4.73,0,0,0-.62,1,9.58,9.58,0,0,0-.74,2.29,5.86,5.86,0,0,0-.11,1.17,3.19,3.19,0,0,0,.06.55c0,.08.05.16.07.23a.14.14,0,0,0,0,0l0,0-.09,0h-.12l0,0,0,0a1.17,1.17,0,0,0,.12-.2,3.52,3.52,0,0,0,.21-.52,8.67,8.67,0,0,0,.26-1.17,9.19,9.19,0,0,0,.06-2.4,6.13,6.13,0,0,0-.63-2.26,4.44,4.44,0,0,0-.63-.93.72.72,0,0,0-.29-.2l-.05,0a.44.44,0,0,0-.12.1,1.81,1.81,0,0,0-.23.44,3.2,3.2,0,0,0-.17.55,7.65,7.65,0,0,0-.2,1.18,9.82,9.82,0,0,0-.07,1.21c0,.1,0,.19,0,.28a1.07,1.07,0,0,0,0,.23v0l0,0a.22.22,0,0,0-.07-.07.42.42,0,0,0-.17,0,.46.46,0,0,0-.16,0l-.06,0s0,0,0,0a.62.62,0,0,0,0-.1,2,2,0,0,0,.09-.52,3.62,3.62,0,0,0,0-.57,4.4,4.4,0,0,0-.76-2.15,1.68,1.68,0,0,0-.33-.39.53.53,0,0,0-.16-.09.14.14,0,0,0-.11,0,.58.58,0,0,0-.3.2,2.2,2.2,0,0,0-.3.45,5.5,5.5,0,0,0-.43,1.09,10.86,10.86,0,0,0-.41,2.4,9.59,9.59,0,0,0,0,1.2,4,4,0,0,0,.22,1.13,1.33,1.33,0,0,0,.11.24.79.79,0,0,0,.12.18h0a.21.21,0,0,0-.11,0l-.07,0s0,0,0,0a.69.69,0,0,1,0-.1,2.73,2.73,0,0,0,.1-.54c0-.2,0-.4,0-.6a14.41,14.41,0,0,0-.16-2.45,8.6,8.6,0,0,0-.66-2.32,2.44,2.44,0,0,0-.64-.9,1.78,1.78,0,0,0-.46-.22,1.23,1.23,0,0,0-.5,0,1.69,1.69,0,0,0-.94.49,3.56,3.56,0,0,0-.7.92,5.12,5.12,0,0,0-.58,2.3,3.75,3.75,0,0,0,.17,1.16,1.37,1.37,0,0,0,.23.47l.05,0h0a.35.35,0,0,0,.13-.1,2.06,2.06,0,0,0,.26-.49,5.58,5.58,0,0,0,.18-.58,8,8,0,0,0,.2-1.21,7.11,7.11,0,0,0,0-1.22,4.28,4.28,0,0,0-.25-1.18,2.36,2.36,0,0,0-.64-1,1.61,1.61,0,0,0-1-.43,1.51,1.51,0,0,0-1,.45,2.76,2.76,0,0,0-.62,1,5.12,5.12,0,0,0-.2,2.43,7.14,7.14,0,0,0,.26,1.2,5,5,0,0,0,.21.58,1.48,1.48,0,0,0,.14.25l.08.09h0a.17.17,0,0,0,0-.06s0-.08,0-.12a1.35,1.35,0,0,0,.05-.29,4.14,4.14,0,0,0,0-.61,7.24,7.24,0,0,0-.21-1.22,9.16,9.16,0,0,0-.95-2.29,3.65,3.65,0,0,0-.34-.5,1.4,1.4,0,0,0-.45-.36.79.79,0,0,0-.26-.08H264a1.3,1.3,0,0,0-.52.24,3.3,3.3,0,0,0-.8.9,7.47,7.47,0,0,0-.54,1.1,8,8,0,0,0-.53,2.41,6.55,6.55,0,0,0,.24,2.42,4.53,4.53,0,0,0,.51,1.09,1.74,1.74,0,0,0,.35.44.47.47,0,0,0,.18.1.13.13,0,0,0,.12,0,.9.9,0,0,0,.25-.41,3.63,3.63,0,0,0,.13-.57,7,7,0,0,0,.06-1.21,10.36,10.36,0,0,0-.39-2.42,9.48,9.48,0,0,0-.94-2.25,7.47,7.47,0,0,0-.7-1,2.66,2.66,0,0,0-.86-.7.84.84,0,0,0-.88.07,2.1,2.1,0,0,0-.66.84,6.34,6.34,0,0,0-.58,2.3,7.65,7.65,0,0,0,.16,2.39,4,4,0,0,0,.16.57c0,.09.07.18.11.27l.05.12.05.07h0a.14.14,0,0,0-.09,0,.27.27,0,0,0-.16,0l0,0,0-.05a.36.36,0,0,0,0-.11,3.06,3.06,0,0,0,.07-.56,7.71,7.71,0,0,0-.27-2.38,6.5,6.5,0,0,0-1-2.18,1.89,1.89,0,0,0-.36-.42.79.79,0,0,0-.41-.22.6.6,0,0,0-.41.06,1.49,1.49,0,0,0-.4.33,3.94,3.94,0,0,0-.59,1,6.36,6.36,0,0,0-.38,1.14,9.45,9.45,0,0,0-.28,2.43,6.2,6.2,0,0,0,.47,2.35,1.23,1.23,0,0,0,.28.43l.07,0h0a.23.23,0,0,0,.13-.1,1.54,1.54,0,0,0,.24-.48,4.07,4.07,0,0,0,.14-.58,7.47,7.47,0,0,0-.05-2.45,7.35,7.35,0,0,0-.8-2.32,2.93,2.93,0,0,0-.34-.5,1.3,1.3,0,0,0-.44-.37.7.7,0,0,0-.53,0,1.28,1.28,0,0,0-.49.31,4.46,4.46,0,0,0-.72,1,8.33,8.33,0,0,0-.52,1.14Z"/>
      </g>
      <g>
        <path class="cls-5" d="M270,96.41a22.19,22.19,0,0,1-1-4.65,36.29,36.29,0,0,1-.29-4.65,38.13,38.13,0,0,1,.28-4.64,22.22,22.22,0,0,1,1-4.65,22.19,22.19,0,0,1,1,4.65,34.5,34.5,0,0,1,.28,4.64,38.18,38.18,0,0,1-.28,4.65A22.84,22.84,0,0,1,270,96.41Z"/>
        <path class="cls-5" d="M313.76,140.2a22.84,22.84,0,0,1,4.65-1,38,38,0,0,1,4.64-.29,36.29,36.29,0,0,1,4.65.29,22.19,22.19,0,0,1,4.65,1,22.87,22.87,0,0,1-4.65,1,38.18,38.18,0,0,1-4.65.28,36.13,36.13,0,0,1-4.64-.29A22.19,22.19,0,0,1,313.76,140.2Z"/>
        <path class="cls-5" d="M207.59,140.2a22.75,22.75,0,0,1,4.64-1,38.19,38.19,0,0,1,4.65-.29,36.29,36.29,0,0,1,4.65.29,22,22,0,0,1,4.64,1,22.63,22.63,0,0,1-4.64,1,38.18,38.18,0,0,1-4.65.28,36.29,36.29,0,0,1-4.65-.29A22.1,22.1,0,0,1,207.59,140.2Z"/>
        <g>
          <line class="cls-5" x1="300.93" y1="171.17" x2="314.08" y2="184.31"/>
          <path class="cls-5" d="M300.93,171.17a22,22,0,0,1,4,2.55,38.29,38.29,0,0,1,6.57,6.57,22.54,22.54,0,0,1,2.56,4,22,22,0,0,1-4-2.55,38,38,0,0,1-3.49-3.09,36.75,36.75,0,0,1-3.08-3.49A22.82,22.82,0,0,1,300.93,171.17Z"/>
        </g>
        <g>
          <line class="cls-5" x1="225.86" y1="96.09" x2="239" y2="109.24"/>
          <path class="cls-5" d="M225.86,96.09a22.82,22.82,0,0,1,4,2.56,37.88,37.88,0,0,1,6.58,6.57,22,22,0,0,1,2.55,4,22.54,22.54,0,0,1-4-2.56,39.27,39.27,0,0,1-6.57-6.57A22,22,0,0,1,225.86,96.09Z"/>
        </g>
        <g>
          <line class="cls-5" x1="239" y1="171.17" x2="225.86" y2="184.31"/>
          <path class="cls-5" d="M239,171.17a22.22,22.22,0,0,0-4,2.55,35.5,35.5,0,0,0-3.49,3.09,36.57,36.57,0,0,0-3.09,3.48,22,22,0,0,0-2.55,4,22.3,22.3,0,0,0,4-2.55,36.57,36.57,0,0,0,3.48-3.09,34.15,34.15,0,0,0,3.08-3.49A22.82,22.82,0,0,0,239,171.17Z"/>
        </g>
        <g>
          <line class="cls-5" x1="314.08" y1="96.09" x2="300.93" y2="109.24"/>
          <path class="cls-5" d="M314.08,96.09a22.54,22.54,0,0,0-4,2.56,39.39,39.39,0,0,0-3.49,3.08,38,38,0,0,0-3.08,3.49,22.54,22.54,0,0,0-2.56,4,22.54,22.54,0,0,0,4-2.56,38.29,38.29,0,0,0,6.57-6.57A22.54,22.54,0,0,0,314.08,96.09Z"/>
        </g>
      </g>
    </g>
    <path class="cls-1" d="M448.26,255.43a56.62,56.62,0,1,1,40-16.58A56.29,56.29,0,0,1,448.26,255.43Zm0-111.14a54.52,54.52,0,1,0,54.52,54.52A54.58,54.58,0,0,0,448.26,144.29Z"/>
    <path class="cls-1" d="M147.22,142.44A32.8,32.8,0,1,1,180,109.65,32.83,32.83,0,0,1,147.22,142.44Zm0-63.48a30.69,30.69,0,1,0,30.68,30.69A30.73,30.73,0,0,0,147.22,79Z"/>
    <path class="cls-1" d="M397,151.07A35.1,35.1,0,1,1,432.1,116,35.13,35.13,0,0,1,397,151.07ZM397,83a33,33,0,1,0,33,33A33,33,0,0,0,397,83Z"/>
    <path class="cls-1" d="M69,250.48a39.13,39.13,0,1,1,39.12-39.13A39.18,39.18,0,0,1,69,250.48Zm0-76.15a37,37,0,1,0,37,37A37.06,37.06,0,0,0,69,174.33Z"/>
    <path class="cls-1" d="M368.06,279a31,31,0,1,1,31-31A31,31,0,0,1,368.06,279Zm0-59.9A28.9,28.9,0,1,0,397,248,28.92,28.92,0,0,0,368.06,219.08Z"/>
    <path class="cls-1" d="M231.25,278.93a25.9,25.9,0,1,1,25.9-25.9A25.93,25.93,0,0,1,231.25,278.93Zm0-49.69A23.79,23.79,0,1,0,255.05,253,23.82,23.82,0,0,0,231.25,229.24Z"/>
    <rect class="cls-1" x="363.96" y="146.44" width="2.63" height="59.53" transform="translate(87.82 472) rotate(-72.58)"/>
    <rect class="cls-1" x="339.53" y="124.14" width="23.7" height="2.63" transform="translate(-17.92 72.29) rotate(-11.46)"/>
    <rect class="cls-1" x="333.33" y="190.02" width="2.63" height="40.44" transform="translate(-50.75 297.76) rotate(-44.93)"/>
    <rect class="cls-1" x="189.27" y="106.7" width="2.63" height="27.98" transform="translate(14.4 261.57) rotate(-70.99)"/>
    <rect class="cls-1" x="229.58" y="214.9" width="30.21" height="2.63" transform="translate(-46.93 363.11) rotate(-68.2)"/>
    <rect class="cls-1" x="103.34" y="182.96" width="113.36" height="2.63" transform="translate(-46.83 54.76) rotate(-16.98)"/>
    <g>
      <path class="cls-12" d="M193.85,266.32s9.23,1.67,13.72,14.25c14.84,41.63,21.37,78.43,26.22,111,1.52,10.15-6.12,25.08-28.11,5.24C172.41,366.8,188.6,272.5,193.85,266.32Z"/>
      <g>
        <path class="cls-13" d="M227.82,343.76c12.34-12.31,17.07-31.61,21.49-41.65s22.47-16.19,20.72-3.8-6.42,20.87-10.36,33.39-8.08,30.48-13.69,45.88c-6.46,17.72-15.78,29.95-23.52,27S197.4,374.09,227.82,343.76Z"/>
        <g>
          <path class="cls-13" d="M250.53,299.32s1.93-10.17,4.56-14a35.67,35.67,0,0,1,9.48-10.2c5-3.74,12.07-10.73,13.93-12.1,2.31-1.69,4-2.24,5.51-1.21s1.23,2.85.29,4.38a47.7,47.7,0,0,1-5.18,6.12c-2.76,2.8-7.55,6.46-6.27,6,.15-.06,1.54-.8,3.84-1.81,1.48-.65,9.53-4.4,9.53-4.4a8.67,8.67,0,0,1-.42-3.06,2.9,2.9,0,0,1,2.06-2.62c.87-.08,1.68.21,2.69,1.76s2.54,4.19,2.54,4.19.83-4.49,1.31-8.16,1.18-5.27,2.39-6.21c1-.81,2.94-1.11,3.18,0s.35,6.72.35,6.72,4.4-4.08,5.86-5.45c1.88-1.78,4.42-2.23,5.35-1.55a1.83,1.83,0,0,1,.37,2.71c-.69.87-6.56,7.75-7.71,9.05s-8.69,9.74-8.69,9.74a7.84,7.84,0,0,1,.42,2.7c-.05,1.86-1.47,3.52-2.54,4.58a19,19,0,0,0-2.4,2.38c-.14,3.68-3.51,5-3.84,5.25s-.49,2.55-11,9.94c-2,1.41-7.21,4.33-8.67,5.91a18.48,18.48,0,0,1-7.08,4.46c-2.34.57-2.95.34-4.32-.86S250.37,304,250.53,299.32Z"/>
          <path class="cls-14" d="M286.38,272.39c.37,1,.75,2,1.09,3.06.09.25.17.51.24.76l.22.78c.16.53.33,1.05.49,1.56a14.94,14.94,0,0,1,.39,1.53c.1.5.19,1,.26,1.48a21,21,0,0,1,.13,3.13l.12,0a5.39,5.39,0,0,0,.71-1.54l.07-.21a1.55,1.55,0,0,0,0-.21c0-.14.06-.28.08-.43s0-.29,0-.43v-.44a5.18,5.18,0,0,0-.31-1.71c-.19-.54-.43-1-.64-1.55s-.43-1-.63-1.49l-.32-.74c-.11-.26-.22-.51-.34-.76-.48-1-1-1.94-1.54-2.88Z"/>
          <path class="cls-14" d="M289.57,287.73a10.2,10.2,0,0,0-.68-1.92,8.13,8.13,0,0,0-.51-.91c-.1-.14-.21-.28-.32-.41l-.33-.39c-.91-1-1.86-2-2.81-2.93s-1.93-1.88-2.92-2.81c-.5-.46-1-.91-1.52-1.36l-.1-.09-.11-.08-.11-.09,0,0,0,0-.07,0a1.82,1.82,0,0,0-.31-.16c-.11,0-.21-.07-.32-.09a2.15,2.15,0,0,0-.34,0,1.83,1.83,0,0,0-.33,0,1.91,1.91,0,0,0-.33.06,1.73,1.73,0,0,0-.32.11,1.88,1.88,0,0,0-.58.4,1.64,1.64,0,0,0-.41.64,3.56,3.56,0,0,0-.14.61l0,.29c0,.09,0,.19,0,.28a8,8,0,0,0,.31,2.19,9.81,9.81,0,0,0,.38,1c0,.08.09.17.13.26l.07.12.07.13c0,.08.09.16.14.24l.15.22c.1.15.21.29.32.44s.21.28.33.41.45.53.68.78l.71.74.7.72c.24.23.47.47.7.71s.22.23.34.35.2.22.28.35a3.23,3.23,0,0,1,.42.78c.1.28.19.6.28.93a5.59,5.59,0,0,0,.37,1,3.52,3.52,0,0,0,.28.46,4.12,4.12,0,0,0,.32.41l.11-.08a5.39,5.39,0,0,1-.32-.93,5.05,5.05,0,0,1-.14-1,10.07,10.07,0,0,0-.12-1,3.89,3.89,0,0,0-.37-1.07c-.09-.17-.2-.33-.3-.49l-.3-.42c-.21-.28-.43-.54-.64-.81l-1.28-1.55c-.11-.12-.21-.25-.31-.38l-.31-.38-.29-.39-.28-.38a6.78,6.78,0,0,1-.82-1.61,6.61,6.61,0,0,1-.39-1.78,2.66,2.66,0,0,1,.06-.82.57.57,0,0,1,.12-.21.66.66,0,0,1,.24-.18.67.67,0,0,1,.15-.06.47.47,0,0,1,.16,0,1.11,1.11,0,0,1,.17,0,.88.88,0,0,1,.17,0,.76.76,0,0,1,.16,0l.14.07h.06l0,0,.09.07.09.06.1.07c.51.4,1,.84,1.54,1.27,1,.86,2.05,1.74,3.06,2.63s2,1.78,3,2.71l.35.36c.12.12.21.24.32.36a7.88,7.88,0,0,1,.54.83,11,11,0,0,1,.81,1.82Z"/>
          <path class="cls-14" d="M300.3,265c-.15.69-.29,1.39-.43,2.08l-.21,1c-.06.34-.13.69-.2,1s-.16.68-.25,1a6.12,6.12,0,0,0-.16,1v.53c0,.17,0,.35,0,.52s0,.36,0,.54a5.52,5.52,0,0,0,.07.55l.12,0,.18-.22.17-.24a4.74,4.74,0,0,0,.26-.5,4.55,4.55,0,0,0,.21-.51c0-.08.05-.17.08-.25l.07-.27a4.67,4.67,0,0,0,.15-1.05c0-.36,0-.72,0-1.07s0-.71,0-1.07V267.1c0-.71,0-1.42-.05-2.13Z"/>
          <path class="cls-14" d="M293.15,272.53c.08.49.18,1,.27,1.44s.19.94.3,1.41c0,.24.08.48.11.72a2.81,2.81,0,0,0,.21.68,6.88,6.88,0,0,0,.37.63,3.15,3.15,0,0,0,.24.3l.14.15a1.07,1.07,0,0,0,.16.14l.11,0a2.39,2.39,0,0,0,.17-.8,3.09,3.09,0,0,0,0-.75,1.35,1.35,0,0,0-.08-.36,3.45,3.45,0,0,0-.14-.34c-.11-.22-.24-.43-.34-.65-.2-.45-.41-.88-.64-1.32s-.46-.85-.72-1.27Z"/>
        </g>
      </g>
      <path class="cls-2" d="M84.5,407.79H209.23c2.65-42.3,4.28-97.58-10.42-135.81-2-5.1-.81-6.13-20.34-11-18.52-4.56-22.07-8.93-34-9.27-7.47-.21-10.42,1.51-23.48,3.4-10.24,1.49-33,6.63-43.87,10.54-13.47,4.82-5.84,19-4.63,36.69C74.6,333,80.25,364.51,84.5,407.79Z"/>
      <path class="cls-2" d="M65.69,342.29l-.36-1.48c-3.95-16.37-4.33-42.73-2.2-56.15,1.92-12.08,8.14-16.84,11.5-17.74a10.32,10.32,0,0,1,2.71-.35,9,9,0,0,1,5.32,1.54c5.58,4.3,11.87,19.75,13.82,25.33,3.4,9.72,7,24.66,10.1,42.08l.09.53-.5.17c-12.6,4.42-28.62,6-39.84,6.55l-.52,0Z"/>
      <path class="cls-2" d="M208.16,280.36c-4.56-12.78-13.81-14.58-14.2-14.65l-.22,0c-.37.53-.74,1.09-1.11,1.69-1.66,4.6-2.89,17.33-3.53,28.73-.88,15.77-1,33.26-.25,49.08,8.69-.34,22.81-1.39,35.26-4.6C219.71,317.68,214.61,298.45,208.16,280.36Z"/>
      <g>
        <path class="cls-4" d="M210.87,343.26a129.09,129.09,0,0,0,13.38-2.63c-1.38-7.18-2.82-14-4.36-20.54L62.59,321a130.21,130.21,0,0,0,2.89,19.9c.11.49.23,1,.36,1.48l.12.51.52,0c3.12-.15,6.61-.38,10.3-.73.25,2,.51,4,.77,6L211,347.37Z"/>
        <path class="cls-4" d="M210.86,376.79l-129.57.72c1,8.57,2.07,17.6,3,27.21l125.28-.7C210.13,395.35,210.59,386.2,210.86,376.79Z"/>
        <path class="cls-4" d="M211,349l-133.39-.29c1.1,8.62,2.29,17.63,3.46,27.22l129.79.29C211.13,367.29,211.22,358.15,211,349Z"/>
        <path class="cls-4" d="M212.31,292.35,62.46,292a195.92,195.92,0,0,0,0,27.22l157.3.35C217.5,310,215,301,212.31,292.35Z"/>
        <path class="cls-4" d="M208.31,280.41c-4.56-12.78-13.81-14.58-14.2-14.65h0a40.79,40.79,0,0,0-5.93-2.14L82,264.21c-1.72.53-3.3,1-4.69,1.54a15.39,15.39,0,0,0-2.79,1.3c-3.42,1.09-9.35,5.91-11.22,17.66-.32,2-.58,4.31-.79,6.83l149.3-.83C210.68,287.23,209.51,283.8,208.31,280.41Z"/>
        <path class="cls-4" d="M178.62,261.09c-18.52-4.57-22.07-8.94-34-9.27-7.47-.22-10.42,1.5-23.48,3.4a333.42,333.42,0,0,0-33.8,7.43l98.16.22C183.57,262.33,181.29,261.74,178.62,261.09Z"/>
        <path class="cls-15" d="M185.52,262.87l-98.16-.22c-1.9.52-3.7,1-5.38,1.56l106.19-.59C187.36,263.38,186.48,263.13,185.52,262.87Z"/>
        <path class="cls-15" d="M211.79,290.71l-149.3.83,0,.48,149.85.33C212.14,291.8,212,291.26,211.79,290.71Z"/>
        <path class="cls-15" d="M219.77,319.59l-157.3-.35.12,1.72,157.3-.87Z"/>
        <path class="cls-15" d="M211,347.37l-133.44.73c0,.2,0,.4.08.61L211,349Z"/>
        <path class="cls-15" d="M210.88,376.22l-129.79-.29c.07.53.13,1.05.2,1.58l129.57-.72C210.87,376.6,210.87,376.41,210.88,376.22Z"/>
        <path class="cls-15" d="M209.61,404l-125.28.7c0,.21,0,.43.07.65l125.11.28C209.54,405.11,209.58,404.57,209.61,404Z"/>
      </g>
      <path class="cls-6" d="M118.28,173.5c-.93,1-3.91,5.73-2.67,12.66,3.25,18.13-1.68,12.35.73,22.5,4,16.72,16.09,15.91,16.95,11.07s-1.11-21.09-2.81-23S118.28,173.5,118.28,173.5Z"/>
      <path class="cls-12" d="M124.39,205.11s.58,12.4.19,18c-1.24,17.83-5.18,29.63-5.07,33.27.19,6.88,3.9,8.9,6.77,10.81,8.7,5.79,26.54,7.59,32.17,1a13.29,13.29,0,0,0,2.83-6.61c.44-2.06,3.44-15.8,2.77-17.68s-17-30-21-32.26S124.39,205.11,124.39,205.11Z"/>
      <path class="cls-13" d="M168.14,160.92a25.19,25.19,0,0,1,16.59,20c.8,5.22,1.44,11.46.67,14.81-1.85,8-.56,10.76-1.07,15.46s-3.05,11.71-5.2,18-5.93,14.65-11.61,18.39a15,15,0,0,1-11.9,2.49c-9.33-1.28-24.14-14.64-25.77-18.54s-1.54-14.39-1.59-17.27-.21-13-1.19-18.09-2.49-24.74,13.06-32.37c3.32-1.63,19.12-5.85,27.58-3Z"/>
      <path class="cls-16" d="M170.66,204.05c0,.44,1.43,1.66,5.38,1.39,1.75-.12,3.48-.68,3.42-1.56a3.37,3.37,0,0,0-2.82-2.45C174,201.17,170.6,203.17,170.66,204.05Z"/>
      <path class="cls-6" d="M178.06,203.48a2.55,2.55,0,1,1-2.7-2.39A2.55,2.55,0,0,1,178.06,203.48Z"/>
      <path class="cls-16" d="M144.48,203.35c0,.47,1.43,1.88,5.69,1.85,1.89,0,3.78-.5,3.77-1.44a3.61,3.61,0,0,0-2.86-2.82C148.24,200.49,144.47,202.4,144.48,203.35Z"/>
      <path class="cls-6" d="M147.07,202.88a2.61,2.61,0,1,0,2.92-2.25A2.61,2.61,0,0,0,147.07,202.88Z"/>
      <path class="cls-14" d="M152,232.53a.49.49,0,0,1,.32-.77,62.64,62.64,0,0,1,9.66-.65,38.1,38.1,0,0,1,7,.81.48.48,0,0,1,.34.68,8.77,8.77,0,0,1-8.3,5.27C156.19,237.75,153.06,234.05,152,232.53Z"/>
      <path class="cls-6" d="M169.08,196.26a9.51,9.51,0,0,0,2.2.36,13.56,13.56,0,0,0,2,0,6,6,0,0,0,.95-.14,7.51,7.51,0,0,0,.93-.25,10.13,10.13,0,0,1,1.82-.52,3.5,3.5,0,0,1,.45-.07,3.64,3.64,0,0,1,.45-.05,5,5,0,0,1,.86,0h.4l.46.08c.31.06.62.12.92.21a10.75,10.75,0,0,1,1.79.67c.29.15.58.3.86.48a6.76,6.76,0,0,1,.8.57l.26-.19a7,7,0,0,0-1.32-1.69,10.12,10.12,0,0,0-1.72-1.33c-.32-.2-.64-.37-1-.54l-.51-.22-.14-.06-.15-.05-.15,0-.14-.05a9.86,9.86,0,0,0-2.29-.32l-1.11-.05c-.37,0-.74,0-1.1,0a6.24,6.24,0,0,0-2.1.4,9.91,9.91,0,0,0-1.91,1,8,8,0,0,0-.87.69,5.58,5.58,0,0,0-.8.87Z"/>
      <path class="cls-6" d="M158,195.34a5.83,5.83,0,0,0-.43-.53l-.46-.46a10.5,10.5,0,0,0-1-.8,11.79,11.79,0,0,0-1.06-.67c-.36-.19-.73-.38-1.11-.54l-.57-.23-.59-.17c-.2-.05-.4-.1-.6-.13l-.62-.09c-.41-.05-.83-.06-1.25-.09-.2,0-.42,0-.62,0l-.63,0c-.21,0-.42,0-.63,0s-.41,0-.63,0l-.63,0h-.32l-.32,0-.64.07c-.1,0-.21,0-.32,0l-.32.06c-.42.1-.84.2-1.25.34l-.31.12-.3.12c-.19.09-.39.17-.58.28a7.42,7.42,0,0,0-1.08.66,10.61,10.61,0,0,0-1,.79c-.29.28-.58.56-.85.86l.21.26c.35-.2.69-.39,1-.55a8.15,8.15,0,0,1,1.05-.46l.53-.17a5.18,5.18,0,0,1,.53-.14c.18-.05.36-.07.54-.11l.27,0,.27,0a9.67,9.67,0,0,1,2.15.06l.27,0,.28.05.54.09.54.11.55.12c.36.1.72.2,1.07.33l.54.2.53.2.53.19.54.17.55.13.56.11c.37.06.75.12,1.14.16s.78.07,1.18.09.81,0,1.23,0a12,12,0,0,0,1.3-.11Z"/>
      <path class="cls-6" d="M167.67,170.05c2.15,2.59,2.5,3.86,5.25,4.69,10.39,3.13,11.54,8.59,12.2,12.06,1,5-1.9,19-.72,18.87s2.77-2.06,2.48-7.83c-.23-4.7,3.66-6.61,3.84-9.62s-.34-13.45-2.64-18.08-5.81-10.48-10.83-12.44-3.29-3-8.23-4.51c-5.74-1.76-8.88-.64-9.39,1.68C159,157.6,165.13,167,167.67,170.05Z"/>
      <path class="cls-6" d="M143.07,204.23c.19-.22.4-.44.61-.65s.44-.4.67-.58a7.65,7.65,0,0,1,1.47-.92l.39-.17.4-.14a5.51,5.51,0,0,1,.8-.2,5.37,5.37,0,0,1,1.6-.06,5.26,5.26,0,0,1,1.55.43l1.46.6a9.51,9.51,0,0,1,1.41.74,7.18,7.18,0,0,1,.69.48q.34.27.69.6l.19-.06a3,3,0,0,0-.12-1,3.66,3.66,0,0,0-.44-.94,4.93,4.93,0,0,0-3.35-2.26,9.26,9.26,0,0,0-2-.14,6.69,6.69,0,0,0-2,.38,7,7,0,0,0-1.75.93,8.67,8.67,0,0,0-.74.62,7.18,7.18,0,0,0-.65.7,7.69,7.69,0,0,0-1,1.57Z"/>
      <path class="cls-6" d="M180.67,204.72a2.63,2.63,0,0,0,0-.49,4,4,0,0,0-.13-.46,4.56,4.56,0,0,0-.42-.86,4.8,4.8,0,0,0-1.36-1.41,4.29,4.29,0,0,0-1.86-.69,6.44,6.44,0,0,0-1-.05c-.33,0-.65,0-1,.07a7.38,7.38,0,0,0-3.45,1.28,6,6,0,0,0-1.33,1.24,5.33,5.33,0,0,0-.5.74,5.79,5.79,0,0,0-.39.79l.18.09a6.18,6.18,0,0,1,2.52-2,7.59,7.59,0,0,1,3.05-.56,4.53,4.53,0,0,1,.74.09,5.68,5.68,0,0,1,.7.22l.66.25.66.26a11.71,11.71,0,0,1,1.33.66c.45.26.91.57,1.41.92Z"/>
      <path class="cls-13" d="M131.08,216.08c-.3.31-1.06,1.69-2.33,2s-3.18.9-5.76-2.78-3.72-12-3.36-14.18c0,0,.48-5.36,3.52-5.23s7.78,13,7.78,13Z"/>
      <path class="cls-6" d="M169.08,172.72c-1.47,2.51-4.53,3.17-9,2.23s-7.26-.82-10.26,1.14c-5.13,3.35-3.61,7-11.5,14.37-3.36,3.13-5.2,5.48-5.68,12-.35,4.72.08,5.58-.15,7.76-.21,1.93-3.62,3.37-4.79-.33s-1.08-5.39-3.12-10c-1-2.34-1.69-3.86-4.54-4.24-2.48-.33-4.91-8.56-4.28-15.2.77-8.15,2.7-11.33,9.25-16.36s6.41-3.87,10.83-8,18-7.6,24.09-1.33C172.06,167.15,169.08,172.72,169.08,172.72Z"/>
      <path class="cls-17" d="M149.72,231c.32.26.65.5,1,.73s.69.43,1,.63a18,18,0,0,0,2.22,1,21.62,21.62,0,0,0,2.36.76,19.81,19.81,0,0,0,2.44.46l.61.07c.21,0,.42.06.62.07l.63.05c.2,0,.41,0,.62,0l.31,0h.32l.62,0,.62-.07.31,0,.31-.05.61-.12.61-.16c.4-.1.79-.24,1.18-.38a4.12,4.12,0,0,0,.58-.23l.57-.25c.19-.09.37-.19.55-.29l.54-.32,0-.15c-.42,0-.82,0-1.23.08l-.6.05-.3,0-.3,0-.59.05-.15,0H165l-.3,0-.59,0-.58,0-.29,0-.3,0-.58,0-.58,0-.29,0-.29,0a17.83,17.83,0,0,1-4.69-.17A20.42,20.42,0,0,1,152,232a11.64,11.64,0,0,1-1.09-.48,9.56,9.56,0,0,1-1.05-.56Z"/>
      <path class="cls-12" d="M106.07,336.26c-12.54,4.37-28.43,5.95-39.62,6.5,4.15,16.69,11.61,41.16,17.93,50.44,6.59,9.68,12,12.14,17.91,11.54s8.77-13.09,8.7-28.3C111,368.62,109,352.8,106.07,336.26Z"/>
      <path class="cls-13" d="M139.2,285.29s-8.94,16.3-15.64,28.81-13.19,21.44-23,29.7-12.81,14.52-15,28.37,2.14,27.46,10.18,31.48,10.27-.22,18.53-8.26,16.08-21.66,23-41.32,15-46.67,16.31-56.27-3.47-14-7.4-15C143.22,282.14,141,282.17,139.2,285.29Z"/>
      <path class="cls-13" d="M137.42,286.56s5.09-22.72,6.33-26.11,1.5-4.25,2.26-5c4.69-4.42,16.84-8.77,19.1-7.63a10.67,10.67,0,0,1,5,6.6c.34,2.26-.23,3.62.22,4a3.78,3.78,0,0,1,2,2.27c.28,1.22-.57,3.5.34,4s2,.34,2.82,1.13,1.13,2.82,1.25,3.27,1.77.8,2.56,1.93.38,3.27-.42,5.2-2,5.53-5.53,7.12-6.22,1.47-6.79,2.37-13.05,18.39-21.36,18C141.15,303.43,134.93,299.56,137.42,286.56Z"/>
      <path class="cls-14" d="M169.66,258.37c-1.33-.2-2.67-.36-4-.48l-1-.09-1-.07q-1-.08-2-.12c-1.34-.07-2.69,0-4-.1l-1-.1c-.34,0-.67-.07-1-.12l-.5-.07-.51-.08c-.33-.06-.67-.12-1-.21v-.14c.33-.11.67-.19,1-.28s.67-.14,1-.19.68-.09,1-.12l1-.06a14,14,0,0,1,2,.09l2,.29c.67.08,1.34.19,2,.3l1,.19,1,.2c1.33.29,2.65.61,3.94,1Z"/>
      <path class="cls-14" d="M172.09,264.46l-2.54,0-1.27,0c-.42,0-.84,0-1.25,0s-.84.05-1.26.09a7.45,7.45,0,0,1-1.25,0,11,11,0,0,1-1.26-.19,7,7,0,0,1-1.27-.37v-.14a6.4,6.4,0,0,1,1.26-.46,9.23,9.23,0,0,1,1.28-.21,5.49,5.49,0,0,1,1.28,0l1.27.17,1.27.16c.42.06.85.13,1.26.21.84.15,1.68.32,2.5.53Z"/>
      <path class="cls-14" d="M176.38,269.52l-2.35,0-1.17,0-1.16,0c-.39,0-.78.05-1.16.09a6.42,6.42,0,0,1-1.16,0c-.38-.05-.77-.1-1.16-.19a6.21,6.21,0,0,1-1.18-.38V269a4.92,4.92,0,0,1,1.16-.46,7,7,0,0,1,1.18-.22,5.26,5.26,0,0,1,1.19,0c.39.06.79.13,1.18.17l1.18.17c.39.06.77.13,1.16.21.78.15,1.54.32,2.31.52Z"/>
      <path class="cls-14" d="M166.76,285a1,1,0,0,1,0-.15l0-.11.09-.22.19-.44c.13-.29.27-.57.41-.86.28-.58.57-1.14.86-1.71s.62-1.12.94-1.67.68-1.09,1-1.63a16.77,16.77,0,0,1,1.2-1.61,3.56,3.56,0,0,1,.92-.73l.18-.08.09,0,.06,0,.24-.07.5-.11a10.75,10.75,0,0,1,2-.18,8.7,8.7,0,0,1,2,.2l0,.16c-.61.27-1.21.49-1.8.7L174,277l-.42.14-.21.07-.05,0h0l0,0-.12.07-.15.09a3.4,3.4,0,0,0-.31.25,9.47,9.47,0,0,0-1.29,1.25c-.4.47-.79,1-1.17,1.46s-.76,1-1.13,1.51-.74,1-1.1,1.54l-.54.78-.26.39-.13.2-.06.1s0,.08-.05.07Z"/>
      <path class="cls-6" d="M82.66,268.11a13.45,13.45,0,0,1,1.8,1.41c.55.53,1.08,1.09,1.58,1.67a36.15,36.15,0,0,1,2.76,3.66,73.63,73.63,0,0,1,4.55,7.94q1,2,2,4.13c.62,1.39,1.21,2.8,1.77,4.21,1.13,2.86,2.06,5.76,2.93,8.68a181.08,181.08,0,0,1,4.14,17.71,178.47,178.47,0,0,1,2.43,18c-1.65-5.83-3.11-11.69-4.63-17.51s-3-11.65-4.69-17.4c-.41-1.44-.85-2.87-1.3-4.29s-.91-2.83-1.41-4.23q-1.51-4.21-3.23-8.37c-1.15-2.76-2.37-5.5-3.72-8.16-.68-1.33-1.4-2.64-2.19-3.9A19.61,19.61,0,0,0,82.66,268.11Z"/>
      <path class="cls-6" d="M198.81,272a128,128,0,0,1,8.35,25.91,213.79,213.79,0,0,1,3.93,27c.76,9.06,1,18.14,1,27.21s-.53,18.14-1.42,27.16c-.31-9.06-.48-18.1-.84-27.12s-.81-18-1.57-27-1.78-17.93-3.28-26.8A201.93,201.93,0,0,0,198.81,272Z"/>
    </g>
    <g>
      <path class="cls-2" d="M78.23,216.43l6.14-.79A22.8,22.8,0,0,0,81.08,204l-5.7,2.42-1.58-2,3.75-4.86a22.83,22.83,0,0,0-10.41-5.9l-2.32,5.73L62.29,199l-.84-6.12A22.87,22.87,0,0,0,49.9,196l2.45,5.63-2,1.59-4.93-3.74A22.84,22.84,0,0,0,39.33,210l5.76,2.27-.28,2.31-6.14.79A22.8,22.8,0,0,0,42,227.09l5.7-2.42,1.59,2-3.76,4.86a22.81,22.81,0,0,0,10.42,5.9l2.31-5.73,2.54.32.84,6.12A22.87,22.87,0,0,0,73.13,235l-2.45-5.63,2-1.59,4.93,3.74a22.75,22.75,0,0,0,6-10.52l-5.76-2.27ZM60.15,226.56h0a11.12,11.12,0,1,1,2.75-22.07h0a11.12,11.12,0,1,1-2.74,22.07Z"/>
      <path class="cls-6" d="M95.06,200.9l4.53-1.6A17.75,17.75,0,0,0,95.2,191l-3.94,2.76-1.54-1.28,2.06-4.31a17.72,17.72,0,0,0-8.87-2.78l-.82,4.73-2,.17-1.63-4.51A17.82,17.82,0,0,0,70.23,190L73,193.9l-1.28,1.54-4.36-2a17.72,17.72,0,0,0-2.88,9l4.75.78.15,1.8-4.53,1.6a17.67,17.67,0,0,0,4.4,8.34l3.93-2.76,1.54,1.29-2.06,4.3a17.78,17.78,0,0,0,8.87,2.78l.82-4.73,2-.17L86,220.12a17.74,17.74,0,0,0,8.24-4.28L91.44,212l1.29-1.54,4.35,2a17.63,17.63,0,0,0,2.88-9l-4.74-.78ZM83,211.53h0a8.64,8.64,0,1,1-1.52-17.2h0A8.63,8.63,0,1,1,83,211.53Z"/>
    </g>
    <g>
      <g>
        <circle class="cls-3" cx="236.16" cy="246.2" r="6.5" transform="translate(-44.69 439.87) rotate(-80.78)"/>
        <path class="cls-3" d="M246.82,264.05a.81.81,0,0,0,.81-.88,11.51,11.51,0,0,0-22.95,0,.82.82,0,0,0,.81.88Z"/>
      </g>
      <g>
        <circle class="cls-6" cx="226.35" cy="248.5" r="6.5"/>
        <path class="cls-6" d="M237,266.36a.83.83,0,0,0,.81-.89,11.51,11.51,0,0,0-23,0,.81.81,0,0,0,.81.89Z"/>
      </g>
    </g>
    <path class="cls-4" d="M143.93,97.33l2-.17.8-4.6c-.21.18-.41.37-.61.56a10.9,10.9,0,0,0-2.39,3.59Z"/>
    <path class="cls-4" d="M153.56,99.52l1.54,1.29L159,98a17.82,17.82,0,0,1,4.35,8.12,10.93,10.93,0,0,0-16.53-13.73,17.81,17.81,0,0,1,8.76,2.78Z"/>
    <path class="cls-4" d="M159.06,109.79l.86.15a11.22,11.22,0,0,0,3.29-3.47L158.9,108Z"/>
    <g>
      <circle class="cls-1" cx="154.83" cy="100.36" r="10.45" transform="translate(16.15 222.07) rotate(-74.22)"/>
      <rect class="cls-6" x="142.42" y="106.71" width="3.04" height="9.75" transform="translate(122.5 -69.28) rotate(45.46)"/>
      <path class="cls-2" d="M127.13,128h0c-1.07-1.08-1.41-2.67-.49-3.57l14-12.37a.4.4,0,0,1,.56,0l2.22,2.27a.4.4,0,0,1,0,.56l-12.78,13.67C129.76,129.45,128.17,129,127.13,128Z"/>
      <path class="cls-6" d="M164.51,91.17a13.48,13.48,0,1,0-.26,19.06A13.48,13.48,0,0,0,164.51,91.17Zm-17,16.56a10.27,10.27,0,1,1,14.52.2A10.26,10.26,0,0,1,147.49,107.73Z"/>
    </g>
    <g>
      <path class="cls-3" d="M189.1,407.79H336.77v-6.86H194.44c-1,0-4.47,4.6-4.47,4.6a1.38,1.38,0,0,0,1.17,2.25S189.09,407.79,189.1,407.79Z"/>
      <path class="cls-3" d="M269.66,407.79H358.2a10.59,10.59,0,0,0,10.19-7.73l26.54-94.33a4.92,4.92,0,0,0-4.73-6.25H300.39a10.68,10.68,0,0,0-10.28,7.79l-26.16,93A5.94,5.94,0,0,0,269.66,407.79Z"/>
      <path class="cls-6" d="M270,407.79h88.91A10.47,10.47,0,0,0,369,400.15l26.37-93.75a3.46,3.46,0,0,0-3.34-4.41H303.14a10.47,10.47,0,0,0-10.08,7.63l-26.37,93.75A3.47,3.47,0,0,0,270,407.79Z"/>
    </g>
    <rect class="cls-6" x="48.17" y="407.31" width="479.46" height="14.68" rx="7.34"/>
  </g>
</svg>
