<svg xmlns="http://www.w3.org/2000/svg" xmlns:xlink="http://www.w3.org/1999/xlink" width="1240" height="856.3" viewBox="0 0 1240 856.3">
  <defs>
    <style>
      .cls-1 {
        fill: #ec9e66;
      }

      .cls-2 {
        isolation: isolate;
      }

      .cls-3 {
        fill: url(#linear-gradient);
      }

      .cls-20, .cls-22, .cls-31, .cls-4 {
        fill: #fff;
      }

      .cls-5 {
        clip-path: url(#clip-path);
      }

      .cls-6 {
        fill: #8b82ca;
      }

      .cls-7 {
        fill: #3e2ea6;
      }

      .cls-8 {
        fill: url(#linear-gradient-2);
      }

      .cls-9 {
        clip-path: url(#clip-path-2);
      }

      .cls-10 {
        fill: #2f237d;
      }

      .cls-11 {
        fill: #1f1753;
      }

      .cls-12 {
        fill: url(#linear-gradient-3);
      }

      .cls-13 {
        clip-path: url(#clip-path-3);
      }

      .cls-14 {
        fill: #6558b8;
      }

      .cls-15 {
        fill: #3f3466;
      }

      .cls-16 {
        fill: url(#linear-gradient-4);
      }

      .cls-17 {
        clip-path: url(#clip-path-4);
      }

      .cls-18 {
        fill: none;
        stroke: #9f99b3;
        stroke-linecap: round;
        stroke-miterlimit: 10;
        stroke-width: 9px;
      }

      .cls-19 {
        fill: #9f99b3;
      }

      .cls-20 {
        font-size: 15px;
      }

      .cls-20, .cls-22 {
        font-family: Roboto-Regular, Roboto;
      }

      .cls-21 {
        letter-spacing: -0.01em;
      }

      .cls-22 {
        font-size: 14px;
      }

      .cls-23 {
        letter-spacing: -0.01em;
      }

      .cls-24 {
        letter-spacing: -0.06em;
      }

      .cls-25 {
        letter-spacing: -0.01em;
      }

      .cls-26 {
        letter-spacing: -0.02em;
      }

      .cls-27 {
        letter-spacing: 0.02em;
      }

      .cls-28, .cls-30 {
        opacity: 0.3;
      }

      .cls-29 {
        fill: #da97b8;
      }

      .cls-30 {
        fill: #f3d9c3;
      }

      .cls-31 {
        opacity: 0.8;
      }

      .cls-32 {
        fill: #0b1238;
      }

      .cls-33 {
        fill: #f5b29c;
      }

      .cls-34 {
        fill: #fa7071;
      }

      .cls-35 {
        fill: #ecb49f;
        mix-blend-mode: multiply;
      }

      .cls-36 {
        fill: #8ba3ff;
      }

      .cls-37 {
        fill: #bfd4f8;
      }

      .cls-38 {
        fill: #d6f0fe;
      }

      .cls-39 {
        fill: #acc7e9;
      }
    </style>
    <linearGradient id="linear-gradient" x1="543.63" y1="260.54" x2="703.84" y2="100.33" gradientTransform="translate(310.11 -388.6) rotate(45)" gradientUnits="userSpaceOnUse">
      <stop offset="0" stop-color="#fff"/>
      <stop offset="1" stop-color="#d2d6d7"/>
    </linearGradient>
    <clipPath id="clip-path">
      <circle class="cls-1" cx="625.38" cy="178.79" r="93.03"/>
    </clipPath>
    <linearGradient id="linear-gradient-2" x1="271.89" y1="546.97" x2="432.11" y2="386.76" gradientTransform="translate(433.06 -112.56) rotate(45)" xlink:href="#linear-gradient"/>
    <clipPath id="clip-path-2">
      <circle class="cls-1" cx="353.64" cy="465.22" r="93.03"/>
    </clipPath>
    <linearGradient id="linear-gradient-3" x1="808.31" y1="546.97" x2="968.53" y2="386.76" gradientTransform="translate(590.17 -491.87) rotate(45)" xlink:href="#linear-gradient"/>
    <clipPath id="clip-path-3">
      <circle class="cls-1" cx="890.07" cy="465.22" r="93.03"/>
    </clipPath>
    <linearGradient id="linear-gradient-4" x1="546.34" y1="796.94" x2="706.55" y2="636.72" gradientTransform="translate(690.19 -233.41) rotate(45)" xlink:href="#linear-gradient"/>
    <clipPath id="clip-path-4">
      <circle class="cls-1" cx="628.09" cy="715.18" r="93.03"/>
    </clipPath>
  </defs>
  <g class="cls-2">
    <g id="Capa_1" data-name="Capa 1">
      <g>
        <g>
          <circle class="cls-3" cx="624.13" cy="180.04" r="120.66" transform="translate(55.5 494.06) rotate(-45)"/>
          <path class="cls-4" d="M624.13,59.38A120.3,120.3,0,0,0,537.53,96,120.65,120.65,0,0,1,708.14,266.64a120.65,120.65,0,0,0-84-207.26Z"/>
        </g>
        <g>
          <g>
            <circle class="cls-1" cx="625.38" cy="178.79" r="93.03"/>
            <g class="cls-5">
              <circle class="cls-6" cx="625.38" cy="178.79" r="93.03"/>
            </g>
          </g>
          <path class="cls-7" d="M689.9,245.8A93,93,0,1,1,558.37,114.26,93,93,0,0,0,689.9,245.8Z"/>
        </g>
      </g>
      <g>
        <g>
          <circle class="cls-8" cx="352.4" cy="466.47" r="120.66" transform="translate(-226.63 385.81) rotate(-45)"/>
          <path class="cls-4" d="M352.4,345.81a120.32,120.32,0,0,0-86.61,36.65A120.65,120.65,0,0,1,436.4,553.07a120.65,120.65,0,0,0-84-207.26Z"/>
        </g>
        <g>
          <g>
            <circle class="cls-1" cx="353.64" cy="465.22" r="93.03"/>
            <g class="cls-9">
              <circle class="cls-10" cx="353.64" cy="465.22" r="93.03"/>
            </g>
          </g>
          <path class="cls-11" d="M418.16,532.23A93,93,0,1,1,286.63,400.69,93,93,0,0,0,418.16,532.23Z"/>
        </g>
      </g>
      <g>
        <g>
          <circle class="cls-12" cx="888.82" cy="466.47" r="120.66" transform="translate(-69.51 765.12) rotate(-45)"/>
          <path class="cls-4" d="M888.82,345.81a120.32,120.32,0,0,0-86.61,36.65A120.65,120.65,0,0,1,972.82,553.07a120.65,120.65,0,0,0-84-207.26Z"/>
        </g>
        <g>
          <g>
            <circle class="cls-1" cx="890.07" cy="465.22" r="93.03"/>
            <g class="cls-13">
              <circle class="cls-14" cx="890.07" cy="465.22" r="93.03"/>
            </g>
          </g>
          <path class="cls-15" d="M954.58,532.23A93,93,0,1,1,823.06,400.69,93,93,0,0,0,954.58,532.23Z"/>
        </g>
      </g>
      <g>
        <g>
          <circle class="cls-16" cx="626.84" cy="716.43" r="120.66" transform="translate(-322.99 653.08) rotate(-45)"/>
          <path class="cls-4" d="M626.84,595.77a120.27,120.27,0,0,0-86.6,36.66A120.65,120.65,0,0,1,710.85,803a120.65,120.65,0,0,0-84-207.27Z"/>
        </g>
        <g>
          <g>
            <circle class="cls-1" cx="628.09" cy="715.18" r="93.03"/>
            <g class="cls-17">
              <circle class="cls-7" cx="628.09" cy="715.18" r="93.03"/>
            </g>
          </g>
          <path class="cls-10" d="M692.61,782.2A93,93,0,1,1,561.08,650.66,93,93,0,0,0,692.61,782.2Z"/>
        </g>
      </g>
      <g>
        <g>
          <path class="cls-18" d="M467.63,213.79A295.45,295.45,0,0,0,359.45,334.37"/>
          <polygon class="cls-19" points="452.58 199.44 492.96 199.54 472.69 234.47 452.58 199.44"/>
        </g>
        <g>
          <path class="cls-18" d="M874.82,308.9A295.39,295.39,0,0,0,750.06,197"/>
          <polygon class="cls-19" points="889.31 293.99 888.82 334.37 854.09 313.76 889.31 293.99"/>
        </g>
        <g>
          <path class="cls-18" d="M373.45,617A295.54,295.54,0,0,0,493,726.31"/>
          <polygon class="cls-19" points="358.95 631.86 359.45 591.48 394.17 612.1 358.95 631.86"/>
        </g>
        <g>
          <path class="cls-18" d="M775.68,715.12A295.5,295.5,0,0,0,888.82,591.48"/>
          <polygon class="cls-19" points="790.44 729.75 750.06 728.87 771.01 694.34 790.44 729.75"/>
        </g>
      </g>
      <text class="cls-20" transform="translate(589.47 134.67)">Escuchar al <tspan x="-10.39" y="18">cliente, p</tspan><tspan class="cls-21" x="48.88" y="18">r</tspan><tspan x="53.82" y="18">estar </tspan><tspan x="-18.3" y="36">atención a lo que </tspan><tspan x="-5.95" y="54">exp</tspan><tspan class="cls-21" x="17.85" y="54">r</tspan><tspan x="22.78" y="54">esa y por </tspan><tspan x="-10.44" y="72">ende, entender </tspan><tspan x="-17.18" y="90">sus necesidades</tspan></text>
      <text class="cls-22" transform="translate(588.33 661.16)">Comp<tspan class="cls-21" x="37.22" y="0">r</tspan><tspan x="41.83" y="0">ender </tspan><tspan x="-18" y="16.8">a su p</tspan><tspan class="cls-23" x="19.34" y="16.8">r</tspan><tspan x="23.94" y="16.8">ospec</tspan><tspan class="cls-23" x="61.75" y="16.8">t</tspan><tspan x="66.18" y="16.8">o, es </tspan><tspan x="-31.14" y="33.6">deci</tspan><tspan class="cls-24" x="-5.11" y="33.6">r</tspan><tspan x="-1.21" y="33.6">, entender que las </tspan><tspan class="cls-25" x="-10.22" y="50.4">v</tspan><tspan x="-3.53" y="50.4">entas al ser un </tspan><tspan x="-11.93" y="67.2">p</tspan><tspan class="cls-23" x="-4.08" y="67.2">r</tspan><tspan x="0.52" y="67.2">oceso social y </tspan><tspan x="-15.38" y="84">humano, </tspan><tspan class="cls-21" x="41.86" y="84">r</tspan><tspan x="46.47" y="84">equie</tspan><tspan class="cls-21" x="80.37" y="84">r</tspan><tspan x="84.98" y="84">e </tspan><tspan x="-17.43" y="100.8">gene</tspan><tspan class="cls-26" x="12.98" y="100.8">r</tspan><tspan x="17.45" y="100.8">ar confianza </tspan><tspan x="-13.39" y="117.6">ent</tspan><tspan class="cls-21" x="6.32" y="117.6">r</tspan><tspan x="10.93" y="117.6">e las pa</tspan><tspan class="cls-27" x="58.98" y="117.6">r</tspan><tspan x="64.06" y="117.6">tes .</tspan></text>
      <text class="cls-20" transform="translate(871.41 405.81)">En la <tspan x="-32.94" y="18">medida en que </tspan><tspan x="-35.97" y="36">sea posible, dar </tspan><tspan x="-40.05" y="54">a</tspan><tspan class="cls-21" x="-31.89" y="54">r</tspan><tspan x="-26.96" y="54">gumen</tspan><tspan class="cls-23" x="19.1" y="54">t</tspan><tspan x="23.85" y="54">os muy </tspan><tspan x="-55.87" y="72">cla</tspan><tspan class="cls-23" x="-36.21" y="72">r</tspan><tspan x="-31.29" y="72">os y concisos que </tspan><tspan x="-52.38" y="90">permitan anticiparse </tspan><tspan x="-17.82" y="108">a posibles </tspan><tspan x="-19.34" y="126">p</tspan><tspan class="cls-21" x="-10.93" y="126">r</tspan><tspan x="-5.99" y="126">eguntas.</tspan></text>
      <text class="cls-20" transform="translate(305.84 446.27)">Dar <tspan class="cls-21" x="26.78" y="0">r</tspan><tspan x="31.72" y="0">espuesta a </tspan><tspan x="1.92" y="18">las inquietudes </tspan><tspan x="-6.74" y="36">que se p</tspan><tspan class="cls-21" x="49.53" y="36">r</tspan><tspan x="54.46" y="36">esenten.</tspan></text>
      <g class="cls-28">
        <path class="cls-29" d="M597.75,374.78a19.91,19.91,0,1,1-19.91-19.91A19.92,19.92,0,0,1,597.75,374.78Z"/>
      </g>
      <path class="cls-30" d="M751.81,387.46a130.64,130.64,0,1,1-172.94-65A130.65,130.65,0,0,1,751.81,387.46Z"/>
      <g class="cls-28">
        <path class="cls-4" d="M568.71,411.72a14.47,14.47,0,1,1-14.47-14.47A14.47,14.47,0,0,1,568.71,411.72Z"/>
      </g>
      <g>
        <path class="cls-4" d="M577.07,378.49l-.1,0a.38.38,0,0,1-.26-.19l-7-11.41a.4.4,0,0,1-.05-.32l.11-.48a.42.42,0,0,1,.52-.31.42.42,0,0,1,.31.51l-.07.3,6.66,10.9,10.9-6.66.07-.3a.43.43,0,0,1,.52-.32.43.43,0,0,1,.31.52l-.11.47a.49.49,0,0,1-.19.26l-11.41,7A.48.48,0,0,1,577.07,378.49Z"/>
        <path class="cls-4" d="M585.91,382.87h-.1l-18.7-4.5a.43.43,0,0,1-.31-.52l2.87-11.93a.46.46,0,0,1,.19-.26.43.43,0,0,1,.33,0l18.69,4.5a.44.44,0,0,1,.32.51l-2.88,11.94a.46.46,0,0,1-.19.26A.43.43,0,0,1,585.91,382.87Zm-18.18-5.24,17.86,4.3,2.67-11.1-17.86-4.3Z"/>
      </g>
      <path class="cls-31" d="M729.59,357.64h-73a4.23,4.23,0,0,0-4.23,4.23v37.65a4.23,4.23,0,0,0,4.23,4.24h24.82l-26,36.19L693,403.76h36.57a4.24,4.24,0,0,0,4.24-4.24V361.87A4.23,4.23,0,0,0,729.59,357.64Z"/>
      <path class="cls-32" d="M594.25,407c-2.59,1.22-4.92,2-6.12,5-1.08,2.68.46,4.31.48,7,0,6.35-5.78,12.51-9.67,17-5.25,6-8.68,14.25-8.39,22.45.23,6.28,4,11.28,5.55,17,1.42,5.32,3.29,10,7.93,13.51,3.86,2.91,9.37,4.92,13.93,6.39,7.51,2.42,12.24,1.72,17.85-3.43,6.41-5.89,10-3.27,17.45-2.91,3.76.17,7.76-.05,10.71-2.7,4.53-4.07,4.75-12,3.39-17.53-1.58-6.41-3-13.35-7.68-18.33-1.25-1.33-3.93-2.27-4.62-4.11-1.46-3.87,3.41-10.72,3.48-15.17a37.92,37.92,0,0,0-3.38-14.7A26.57,26.57,0,0,0,613,400.87a18.22,18.22,0,0,0-8.06,1.13Z"/>
      <path class="cls-33" d="M601.51,429.07c-2.13,3.86.85,12.61-.9,16.63-1.47,3.37-3.37,7.54-6.33,9.79S587.45,458.67,584,460c-1.93.77-3.56,2-5.42,2.85-2.15,1-3.93,3.28-5.21,5.23a9.35,9.35,0,0,0-1.16,3.3,33.6,33.6,0,0,0-.8,7.27A35.18,35.18,0,0,0,573.35,491a88.64,88.64,0,0,1,4.47,18c.26,2,.62,4,.7,6,.15,3.39-.12,6.76.2,10.13.79,8.46.78,17,.87,25.55,0,4.43,7.2,3.5,10,3.49a63.54,63.54,0,0,0,8.73-.12c1.64-.24,3.24-.72,4.87-1.07a57,57,0,0,1,7-.84c3.3-.29,6.38-1.26,9.72-1,2.24.19,5.12,2.58,7.35,1.57.73-.33,1.11-1.12,1.81-1.51,1.15-.66,2.72-.51,4-.44,1.46.07,1.45,0,1.45-1.55,0-7,.38-14.1.39-21.17a63.74,63.74,0,0,1,1.18-11.85c.38-2,.5-4.07,1-6.09.48-2.18,1.16-4.31,1.74-6.46,1.42-5.18,4.9-10,5.07-15.47.09-2.66.95-5.12,1.34-7.74a31.66,31.66,0,0,0-.1-9.62c-.79-4.88-2.43-7.36-6.83-9.39-4.16-1.92-9.42-1.87-12.8-5.31a24.77,24.77,0,0,1-6-10.75c-1.21-4.09.7-14.59-2.33-16.87-1.54-1.13-12.56-1.69-14.28-.76A3.46,3.46,0,0,0,601.51,429.07Z"/>
      <path class="cls-34" d="M593.7,461a8,8,0,0,0,.78,1.36,7.22,7.22,0,0,0,1.22,1c.9.69,1.73,1.47,2.65,2.14,2.16,1.55,4,1.85,6.61,2.4a23.68,23.68,0,0,0,6.82.52,14.42,14.42,0,0,0,7.5-2.59,25.39,25.39,0,0,0,6-6.07,15.06,15.06,0,0,0,1.39-2.71c1,1.47,10,3.34,12.71,4.14,1.43.43,2.85,1,4.25,1.46,1.2.44,2.09.54,2.8,1.67a8.24,8.24,0,0,1,1.05,3.32,24.45,24.45,0,0,1-.33,7.19c-.51,3.17-1.33,6.4-1.59,9.57-.29,3.55-1.62,6.89-2.29,10.36-.81,4.13-1.32,8.35-1.88,12.52a129.86,129.86,0,0,0-.75,17.31v.7c0,7.77.45,15.57-.36,23.32-.26,2.46-.2,7.23-3.47,7.68a17.68,17.68,0,0,0-3.46.36,46.13,46.13,0,0,1-5.23,1.36,22.66,22.66,0,0,1-2.74.22c-.84,0-1.79,0-2.59,0a32.37,32.37,0,0,0-3.14.84c-1.07.22-2.14.42-3.21.59a29.13,29.13,0,0,1-4.67,0,43.72,43.72,0,0,0-5.08.61c-5,.59-10,1.25-15,.22-2.47-.5-5-.77-7.48-1.41a19.81,19.81,0,0,1-3.81-1.34,24.28,24.28,0,0,0-2.79-.85c-.9-.33-1.09-.55-1.1-1.33,0-1.42.18-2.88.12-4.35-.12-3.21.1-6.49-.17-9.69q-.57-6.59-1.36-13.15c-.49-4.09-1.22-8.07-1.41-12.21-.29-6.33-1.32-12.59-1.83-18.9A131.46,131.46,0,0,0,570,483.75c-.36-1.93-1-3.81-1.19-5.78a19.84,19.84,0,0,0-1.22-4.91,6.17,6.17,0,0,1,1.85-7.13c5.72-4.5,11.06-5.62,18-7.87.93-.3,2.43-1.06,3.24-.39s1.58,1.55,2.37,2.32A3.76,3.76,0,0,1,593.7,461Z"/>
      <path class="cls-35" d="M619.57,445.55l-.09-.25c-1.21-4.09.7-14.59-2.33-16.87-1.54-1.13-12.56-1.69-14.28-.76a3.36,3.36,0,0,0-1.32,1.35c.24,2.79.42,5.51-.41,7.28-.07.17-.17.33-.26.5.22,2.8.52,5.66.07,7.77,1.83,2.49,6.79,6.94,10.2,7C614.05,451.58,618,447.92,619.57,445.55Z"/>
      <path class="cls-33" d="M623.34,439.61a46.37,46.37,0,0,0,5.42-10.72c3.57-10,2.76-20.93-4.19-29.55-3.06-3.8-6-6.59-11.15-7.08a19.21,19.21,0,0,0-13.59,3.55c-9,6.31-12,16.06-9.75,26.42a56.76,56.76,0,0,0,4.38,12.53c2.06,4.19,8.35,10.95,13.12,12.3C614.36,449,619.62,444.87,623.34,439.61Z"/>
      <path class="cls-33" d="M664.37,554.07l-2.47.59c-6.47,1.55-15.43,1.56-21.59-.8-3.2-1.23-6.36-2.57-9.56-3.8-2.45-.93-5-1.53-7.47-2.4-2.07-.74-3.88-1.87-6-2.59-1.08-.38-2.48.3-3.55,0-.81-.21-2.41-.31-2.83-1a7.72,7.72,0,0,1-.42-4.52,19.29,19.29,0,0,1,8.07-1.67c5.57-.1,10.84,1,16.43.91,6.45-.1,12.91-1.07,19.36-.85,4.62.15,9.66-.81,13.15,3,3.25,3.56,7.29,8.13,1.37,11.43A19.71,19.71,0,0,1,664.37,554.07Z"/>
      <path class="cls-32" d="M628.21,426.34a24.09,24.09,0,0,0-2.32-11.27c-1.41-3.47-1.9-4.3-5.06-7.15-7.52,5.2-14.33,6.29-23.37,8.26-3.88.85-7.72,1.89-11.62,0-2.75-1.3-4.32-4-5.84-6.36,6.92,2.32,7.83-1.26,9.71-6.24,4.39-11.62,21.94-18.23,32.57-8.77,5.31,4.72,9.69,10.69,10.47,17.51.74,6.54,2,14.31-4.62,18.53C628.18,428.63,628.19,428.63,628.21,426.34Z"/>
      <path class="cls-32" d="M598.84,409.37c-.55,5.08-2.13,9.49-6,12.83A40.27,40.27,0,0,1,589.5,425c-1.26.88-1.44.86-2-.44a9.1,9.1,0,0,1,1.42-9.19,7.14,7.14,0,0,0,1.56-2.35c.48-1.2,1-2.4,1.4-3.63Z"/>
      <path class="cls-4" d="M602.72,433.38s6.1,5.85,16.09-.48c0,0-1.1,7.92-8.17,7.92S602.72,433.38,602.72,433.38Z"/>
      <path class="cls-36" d="M590.47,416.05s-4.76.52-5.12,8.69,7.47,7.3,7.47,7.3S593.45,416.42,590.47,416.05Z"/>
      <path class="cls-36" d="M629.81,416.38s4.76.52,5.12,8.69-7.47,7.3-7.47,7.3S626.83,416.75,629.81,416.38Z"/>
      <path class="cls-36" d="M630.62,425.61l-.88-.11c0-.14,1.72-14.86-5.38-23.1-3.06-3.55-7.33-5.42-12.71-5.56-6-.17-10.94,1.56-14.58,5.11-6.9,6.71-7,17.81-7,17.92h-.88c0-.47.08-11.59,7.24-18.56,3.82-3.72,8.95-5.52,15.23-5.35,5.63.14,10.12,2.12,13.35,5.86C632.39,410.37,630.7,425,630.62,425.61Z"/>
      <path class="cls-32" d="M602.21,420.33c-2.1-1-2.41,2.19-1.91,3.45a1.18,1.18,0,0,0,1.43.81.64.64,0,0,0,.24-.1C603.94,424.43,603.68,421.05,602.21,420.33Z"/>
      <path class="cls-32" d="M619.76,419.91c-2-1.12-2.36,2.4-1.86,3.79a1.16,1.16,0,0,0,1.4.89,1.28,1.28,0,0,0,.24-.11C621.46,424.41,621.21,420.7,619.76,419.91Z"/>
      <path class="cls-35" d="M611.47,431.53a6.36,6.36,0,0,0-2-1.62c.85-2.61,1.92-5.3,1.82-8.07,0-.75-1.19-.75-1.16,0,.1,2.81-1.1,5.56-1.93,8.2a.58.58,0,0,0,.27.66,6,6,0,0,1,2.22,1.66C611.13,432.94,612,432.11,611.47,431.53Z"/>
      <path class="cls-32" d="M624.49,418.35c-1-3.4-5.76-3.81-8.27-2a.22.22,0,0,0,.22.39c2.18-1.08,5.92-.56,6.89,1.91C623.61,419.38,624.72,419.11,624.49,418.35Z"/>
      <path class="cls-32" d="M604.84,416.66c-.71-1.67-2.33-2.11-4-1.76-1.37.28-3.33,1.5-3.45,3a.5.5,0,0,0,.84.35c.9-.88,1.37-1.73,2.63-2.19a3.6,3.6,0,0,1,3.69.81C604.7,417.06,604.92,416.86,604.84,416.66Z"/>
      <path class="cls-34" d="M571.62,487.91c0,2.79-.61,5.55-.68,8.34a46.15,46.15,0,0,0,.8,8.45,14.33,14.33,0,0,0,2.29,6c1.31,2,2.16,4,4.2,5.43Z"/>
      <path class="cls-34" d="M640.63,491.51c.85,2.2,1.86,4.35,2.5,6.63a57.69,57.69,0,0,1,1.59,9.52,19.34,19.34,0,0,1-1.56,9.12c-.65,1.67-1.45,3.28-2.26,4.88-.65,1.29-1.27,3.21-2.5,4.06Z"/>
      <path class="cls-34" d="M666,498c.62,2.55,1.15,5.14,1.58,7.8,1.21,7.37,1.52,12.74,3.62,19.92.72,2.49,1.29,6.9,1.82,9.41,1.3,6.11,1.73,13.59-3.6,17.08a34.14,34.14,0,0,1-7.16,3.29c-2,.69-5.44,1.47-7.22-.07.44.38,1,0,1.36-.32a11.21,11.21,0,0,0,2.05-3.26,8.84,8.84,0,0,0,.7-3.81c0-3.11-1.66-5.61-3.66-7.83a6.38,6.38,0,0,0-2.12-1.75c-1-.43-2.21-.13-3.24-.39.16-1.62-.25-3,.33-4.66.85-2.38,1.73-4.44,1.58-7a27.85,27.85,0,0,0-1.78-8.11,114.23,114.23,0,0,0-5.46-12.23c-2.66-5.23-3.4-11.13-6.49-16.24a23.84,23.84,0,0,1-3-11c-.36-6.57,1.75-17.58,10.74-14.84,11.17,3.41,13.64,12.88,16.8,22.94C664.08,490.66,665.14,494.31,666,498Z"/>
      <path class="cls-34" d="M582.29,525.35c0-2.7,0-5.41,0-8.11-.12-5.84-.85-11.53-1.35-17.33-.33-3.83,0-7.73-.58-11.55a65.72,65.72,0,0,0-2.3-10.2c-.65-2.13-2-4.65-1.87-6.85.09-1.94,1.27-5.14-.24-6.79-.71-.78-2.08-.45-3-.32-4.48.6-6.79,5.42-8.71,8.92a22.43,22.43,0,0,0-2.37,9.62c-.27,4.79,1.4,8.92,1.9,13.56,1.15,10.58-1.33,20.68-1.89,31.14-.41,7.61.72,14.78,4.77,21.35a7.49,7.49,0,0,0,5.68,3.9c4.61.42,11.12-2.13,10.41-7.55C581.81,538.61,582.25,531.94,582.29,525.35Z"/>
      <path class="cls-33" d="M565.55,547.3c-2.59-11.31.81-25.32,3.81-36.16,2.27-8.22,5-16.34,6.6-24.72.81-4.14,1.65-8.15,2.77-12.19.76-2.73.56-5.48,1.21-8.25.54-2.24,2.16-.62,3.31.44,3.78,3.46,2.7,8.73,3.21,13.26.7,6.41.24,12.67.48,19.12.38,10.13,1.31,20.25,1.26,30.39,0,9.23,1.79,15.9-5.86,22-5.87,4.71-12.88,8.09-16-1.12C566,549.2,565.77,548.26,565.55,547.3Z"/>
      <polygon class="cls-37" points="535.03 571.66 562.69 550.2 563.46 550.29 629.78 557.95 602.12 579.41 535.03 571.66"/>
      <path class="cls-33" d="M588.6,463.91c-.14,3.64-3,20.64-7.7,11.3-4-8-4.84-18.49-6.17-27.28-.8-5.32,4.12-19,5.36-17.55,1.07,1.26-.62,5.39-1,6.7-.68,2.46-3.2,7.57-1.3,10,.29-1.68,1.09-3.34,1.52-5a19.87,19.87,0,0,1,1.45-3.18c.23-.49,2.9-7.34,3.34-6.87,1.72,1.85.19,5.68-.41,7.69-.89,3-2.35,6-2.23,9.25,1.56-2.79,1.95-6.27,3.72-9,.49-.77,1.63-2.38,2.46-1.57s-.24,3-.52,3.93a64.54,64.54,0,0,0-2.46,8c-.46,2.56.74,4.38,2.08,6.36A11.48,11.48,0,0,1,588.6,463.91Z"/>
      <path class="cls-36" d="M604.93,439.56c-11.56-.74-13.79-9.14-13.81-9.23l.85-.21c.09.32,2.12,7.86,13,8.56Z"/>
      <path class="cls-36" d="M607.93,439.53c-.11,1-1.32,1.72-2.71,1.57s-2.43-1.1-2.32-2.11,1.32-1.72,2.71-1.57S608,438.51,607.93,439.53Z"/>
      <g>
        <path class="cls-33" d="M633.67,543.54c.79-2,1.79-3.43-1.69-4.53-2.93-.94-6.77-1-9.8-1a38.2,38.2,0,0,0-9.52.81c-3.39.85-6.1,2.54-9,4a25.77,25.77,0,0,0-5.9,3.6c-.66.62-1.47,1.13-2.12,1.77s-1.32,1.5-2,2.26a14,14,0,0,0-2.61,4c-.26.73-.06,2.32,1.09,1.23a14.69,14.69,0,0,0,1.7-1.93,4,4,0,0,1,.44-.58c-1.74,1.38-2.61,2.81-2.13,4.81.14.59.6,1.94,1.59,1.09a3.39,3.39,0,0,0,.76-2.14,6,6,0,0,0-.22,1.84c0,.45.12,1.62.71,1.88.92.42,2-1.83,2.25-2.31a2.72,2.72,0,0,0,.81,2.09c1.1.78,1.89-.67,2.22-1.33a11.64,11.64,0,0,1,4.32-5c.67-.38,1.47-.57,2.19-.89a20.49,20.49,0,0,0,2.32-1.23l1.88-1.09a21.57,21.57,0,0,1,2.84-1.14,11.68,11.68,0,0,0,5.82-3.72,4.56,4.56,0,0,1,3.15-.73c1.28,0,2.6-.09,3.86,0a48.84,48.84,0,0,0,6.67-.79C633.43,544.17,633.55,543.85,633.67,543.54Z"/>
        <g>
          <path class="cls-35" d="M604.83,549.66a27.78,27.78,0,0,0-4,4.07c-1.53,1.8-3.58,3.88-4.3,5.92a8.87,8.87,0,0,0,.71-1.29,3.25,3.25,0,0,0,.1.88c1.54-1.83,2.64-3.85,4.3-5.65A25,25,0,0,0,604.83,549.66Z"/>
          <path class="cls-35" d="M598,553l2.42-2.8c.4-.47,2.35-2.21,2.23-2.81-2.08,1.28-3.74,3.93-5,5.26-1.51,1.6-3.92,3.58-4.12,5.54l.22,1a1.1,1.1,0,0,0,.2-.23,3.62,3.62,0,0,1,.14-1.07,7.8,7.8,0,0,1,1.08-1.89C596,554.88,597.09,554,598,553Z"/>
          <path class="cls-35" d="M592.2,556.9a12.09,12.09,0,0,1,1.43-3.29,19.91,19.91,0,0,1,2.78-2.9c.93-.85,3.76-3.56,4.24-4.52-.59.54-1.91,1.95-2.4,2.34a26.75,26.75,0,0,0-2.3,2c-.85.84-1.32,1.79-2.08,2.67a10.47,10.47,0,0,0-1.77,2.5l0,0,.2-.21a3.37,3.37,0,0,0-.25.8Z"/>
        </g>
      </g>
      <path class="cls-4" d="M591.61,457.06s7.7,9.94,17.64,9.69,16.21-10.7,16.21-10.7l4.07,2.17s-4.38,13.5-20.53,13.25a23.77,23.77,0,0,1-21.62-13.41Z"/>
      <polygon class="cls-38" points="601.62 579.35 527.21 570.76 517.42 516.91 587.68 525.03 591.82 525.51 601.62 579.35"/>
      <polygon class="cls-39" points="599.73 579.13 525.33 570.54 515.53 516.7 589.94 525.29 599.73 579.13"/>
      <path class="cls-33" d="M575.79,452.92c-1-2.39-1.14-5.25-1.6-7.78a40.39,40.39,0,0,1-.55-7.37c0-1.59,0-5.53,1.9-6.3,1,.83.66,4.1.66,5.29,0,1.89,0,3.76-.14,5.65-.32,3.59,1,6,2.46,9.27Z"/>
    </g>
  </g>
</svg>
