<svg id="Capa_1" data-name="Capa 1" xmlns="http://www.w3.org/2000/svg" width="140" height="140" viewBox="0 0 140 140">
  <defs>
    <style>
      .cls-1 {
        fill: #8b82ca;
        stroke: #2f237d;
        stroke-miterlimit: 10;
        stroke-width: 6px;
      }

      .cls-2 {
        fill: #fff;
      }
    </style>
  </defs>
  <circle class="cls-1" cx="70" cy="70" r="60"/>
  <path class="cls-2" d="M105.88,39H98.16a1.22,1.22,0,1,0,0,2.43h7.72a2.75,2.75,0,0,1,2.74,2.75V62.73a2.74,2.74,0,0,1-2.74,2.74H77.43a1.22,1.22,0,0,0-.86.36l-7,7V66.69a1.22,1.22,0,0,0-1.22-1.22H66a2.74,2.74,0,0,1-2.74-2.74V44.16A2.75,2.75,0,0,1,66,41.41H94.11a1.22,1.22,0,0,0,0-2.43H66a5.18,5.18,0,0,0-5.17,5.18V62.73A5.18,5.18,0,0,0,66,67.9h1.11v7.87A1.21,1.21,0,0,0,68.34,77a1.18,1.18,0,0,0,.86-.36l8.73-8.73h27.95a5.18,5.18,0,0,0,5.18-5.17V44.16A5.18,5.18,0,0,0,105.88,39Z"/>
  <path class="cls-2" d="M79.27,81.23a3.36,3.36,0,0,0-2.37-1,3.33,3.33,0,0,0-2.37,1l-7.44,7.44a43.14,43.14,0,0,1-8.42-5.45,1.22,1.22,0,1,0-1.57,1.86,47.73,47.73,0,0,0,9.66,6.16A1.23,1.23,0,0,0,68.18,91l4-4,13.19,13.19c-4.26,3.66-10.29,4.93-17.15,3.59-7.7-1.52-15.86-6.26-23-13.36s-11.84-15.26-13.36-23c-1.35-6.85-.07-12.88,3.59-17.14L48.68,63.52l-4,4a1.2,1.2,0,0,0-.22,1.42,45.18,45.18,0,0,0,9.27,13,1.22,1.22,0,0,0,1.73-1.73A41.07,41.07,0,0,1,47,68.61l7.44-7.44a3.33,3.33,0,0,0,1-2.37,3.36,3.36,0,0,0-1-2.37L42.54,44.5a3.36,3.36,0,0,0-4.74,0l-3.21,3.21c-4.88,4.88-6.68,12.07-5.08,20.23s6.59,16.78,14,24.22,16,12.42,24.21,14a28.85,28.85,0,0,0,5.66.58A20.13,20.13,0,0,0,88,101.11l3.2-3.21a3.33,3.33,0,0,0,0-4.74Zm-39.75-35a.88.88,0,0,1,.65-.27.89.89,0,0,1,.65.27L52.75,58.16a.91.91,0,0,1,0,1.29L50.4,61.8,37.17,48.57Zm49.95,50-2.34,2.34L73.9,85.3,76.25,83a.91.91,0,0,1,1.29,0L89.47,94.88A.92.92,0,0,1,89.47,96.18Z"/>
  <path class="cls-2" d="M91.08,58.19a2.42,2.42,0,0,0-.76-1.82A6.75,6.75,0,0,0,87.77,55a8.16,8.16,0,0,1-3.65-2A4.42,4.42,0,0,1,83,49.92a4.51,4.51,0,0,1,1.13-3.16,4.76,4.76,0,0,1,3.08-1.47V42.72h1.75V45.3A4.53,4.53,0,0,1,92,47a6,6,0,0,1,1.1,3.79H90.94a4.09,4.09,0,0,0-.79-2.64,2.57,2.57,0,0,0-2.12-1,2.93,2.93,0,0,0-2.14.72,2.66,2.66,0,0,0-.74,2,2.45,2.45,0,0,0,.78,1.91,7.16,7.16,0,0,0,2.57,1.29,10.69,10.69,0,0,1,2.8,1.29A4.44,4.44,0,0,1,92.78,56a4.83,4.83,0,0,1,.47,2.18,4.33,4.33,0,0,1-1.19,3.19,5.21,5.21,0,0,1-3.34,1.43V65H87V62.79a5,5,0,0,1-3.42-1.55,5.24,5.24,0,0,1-1.24-3.68h2.17a3.47,3.47,0,0,0,.86,2.51,3.22,3.22,0,0,0,2.43.88,3.68,3.68,0,0,0,2.42-.74A2.49,2.49,0,0,0,91.08,58.19Z"/>
</svg>
