<svg id="Capa_1" data-name="Capa 1" xmlns="http://www.w3.org/2000/svg" width="400" height="400" viewBox="0 0 400 400">
  <defs>
    <style>
      .cls-1 {
        fill: #cfccd9;
      }

      .cls-2 {
        fill: #b2abdb;
      }

      .cls-3 {
        fill: #3f3466;
      }

      .cls-4 {
        fill: #091320;
      }

      .cls-5 {
        fill: #ececec;
      }

      .cls-6 {
        fill: #d8d5ed;
      }

      .cls-7 {
        fill: #fff;
      }

      .cls-8 {
        fill: #f5f5f5;
      }

      .cls-9 {
        opacity: 0.3;
      }

      .cls-10 {
        fill: #ae7461;
      }

      .cls-11 {
        fill: #6f4439;
      }

      .cls-12 {
        opacity: 0.6;
      }

      .cls-13 {
        fill: #eb9d66;
      }
    </style>
  </defs>
  <path class="cls-1" d="M200,81.94v-70C96.13,11.92,11.92,96.13,11.92,200S96.13,388.08,200,388.08v-70a118.06,118.06,0,0,1,0-236.12Z"/>
  <path class="cls-2" d="M200,388.08c103.87,0,188.08-84.21,188.08-188.08S303.87,11.92,200,11.92v70a118.06,118.06,0,0,1,0,236.12Z"/>
  <g>
    <g>
      <path class="cls-3" d="M299.47,87.71h0c-1.1.91-2.47.93-3.07,0L282.79,67.44a2.67,2.67,0,0,1,.89-3.29h0c1.09-.92,2.47-.93,3.07,0l13.61,20.31A2.67,2.67,0,0,1,299.47,87.71Z"/>
      <path class="cls-4" d="M297.73,88.91a1.87,1.87,0,0,1-.34,0A2,2,0,0,1,296,88L282.37,67.71a3.44,3.44,0,0,1,3.4-4.73,1.94,1.94,0,0,1,1.39.86l13.62,20.31c.75,1.11.31,2.85-1,3.94h0A3.25,3.25,0,0,1,297.73,88.91Zm-12.3-25a2.3,2.3,0,0,0-1.43.59,2.19,2.19,0,0,0-.8,2.62l13.62,20.31a1,1,0,0,0,.71.42,2.19,2.19,0,0,0,1.62-.57h0a2.19,2.19,0,0,0,.8-2.62L286.33,64.39a1,1,0,0,0-.71-.42Z"/>
    </g>
    <g>
      <path class="cls-3" d="M316.35,113.44h0c-1.1.92-2.47.93-3.07,0L299.66,93.17a2.66,2.66,0,0,1,.9-3.29h0c1.09-.91,2.47-.93,3.07,0l13.61,20.31C317.84,111.05,317.44,112.52,316.35,113.44Z"/>
      <path class="cls-4" d="M314.6,114.64a2,2,0,0,1-.34,0,2,2,0,0,1-1.4-.85L299.25,93.45a3.45,3.45,0,0,1,3.39-4.74,2,2,0,0,1,1.4.86l13.61,20.31a3.11,3.11,0,0,1-1,3.94A3.28,3.28,0,0,1,314.6,114.64Zm-12.3-25a2.26,2.26,0,0,0-1.42.59,2.19,2.19,0,0,0-.8,2.62l13.61,20.31a1,1,0,0,0,.71.42,2.16,2.16,0,0,0,1.62-.56h0a2.2,2.2,0,0,0,.8-2.63L303.21,90.12a1,1,0,0,0-.71-.42Z"/>
    </g>
    <g>
      <path class="cls-3" d="M355.61,200.47l-56,28.79c-6.48,3.25-14.31.79-18.8-5.89l-77.39-115.3c-4.88-8.76-4.41-19.52,4.81-25.78l54.14-27.55c5.21-2.87,11.68-.91,15.26,4.63l83.29,120C365.65,186.36,364.6,197,355.61,200.47Z"/>
      <path class="cls-4" d="M355.61,200.47l1.16-.57a13.62,13.62,0,0,0,3.07-2.15,12.39,12.39,0,0,0,3.13-5.17,15.79,15.79,0,0,0-1.92-12.74c-.94-1.47-2-3-3.12-4.53l-7.14-10.25-17.39-25L288.13,75l-6.47-9.3-3.29-4.74-1.66-2.37a13.83,13.83,0,0,0-2-2.07,11.75,11.75,0,0,0-5.1-2.57,10.3,10.3,0,0,0-5.71.39,26,26,0,0,0-2.68,1.27l-2.68,1.36-5.41,2.76L208.31,82.53l0,0-1.16.87a17.57,17.57,0,0,0-4.49,5.23,16.52,16.52,0,0,0-2,6.5A22.46,22.46,0,0,0,203.6,108v0l49,73.09,21.15,31.56q2.49,3.69,4.87,7.26c1.61,2.35,3,4.81,5,6.63A17.31,17.31,0,0,0,287,228.8a15.67,15.67,0,0,0,3.67,1.37,15.05,15.05,0,0,0,3.83.3,14,14,0,0,0,3.66-.78,33.86,33.86,0,0,0,3.33-1.59l3.23-1.65,6.19-3.17,11.32-5.8,18.07-9.23,11.39-5.8,3-1.49,1-.49s-.33.19-1,.53l-2.93,1.54-11.35,5.88-18,9.31L311,223.56l-6.19,3.18-3.21,1.66a34.94,34.94,0,0,1-3.37,1.62,14.74,14.74,0,0,1-3.76.81,15.26,15.26,0,0,1-3.92-.3,16.41,16.41,0,0,1-3.78-1.4,17.67,17.67,0,0,1-3.36-2.38,19.88,19.88,0,0,1-2.74-3.17l-2.37-3.52-4.88-7.25-21.19-31.54-49.08-73.05h0a23,23,0,0,1-3-13.14,17.3,17.3,0,0,1,2.06-6.71A18.18,18.18,0,0,1,206.85,83l1.19-.9h0l44.84-22.81,5.41-2.75L261,55.13a27.33,27.33,0,0,1,2.73-1.29,10.69,10.69,0,0,1,6-.4,12.19,12.19,0,0,1,5.32,2.67,14.38,14.38,0,0,1,2.05,2.15l1.67,2.4,3.29,4.73,6.46,9.31c17,24.54,32.31,46.62,45.17,65.17l17.33,25,7.11,10.27c1.08,1.58,2.16,3.06,3.1,4.54a15.78,15.78,0,0,1,2,4.6,15.18,15.18,0,0,1-.11,8.31,12.43,12.43,0,0,1-3.21,5.2,13.35,13.35,0,0,1-3.12,2.13C356,200.3,355.61,200.47,355.61,200.47Z"/>
    </g>
    <g>
      <path class="cls-5" d="M356.67,193.21l-55.26,27.5c-6.24,3.11-13.82.68-18-4.74l-76.9-114.69c-4.4-7.84-2.63-16.93,3.58-20.33l54.43-29.84c5-2.74,12.54.37,16.51,7.24l78.82,119C363.5,182.88,361.83,190.57,356.67,193.21Z"/>
      <path class="cls-4" d="M295.48,222.59a16,16,0,0,1-12.5-6.32L206.05,101.56a18.06,18.06,0,0,1-1.92-13.65,12.06,12.06,0,0,1,5.68-7.4l54.43-29.83c5.39-3,13.11.37,17.19,7.42L360.23,177a12.54,12.54,0,0,1,1.67,10.08,10.15,10.15,0,0,1-5,6.54h0l-55.26,27.5A13.7,13.7,0,0,1,295.48,222.59Zm-27-172a7.82,7.82,0,0,0-3.79.93L210.29,81.39a11.06,11.06,0,0,0-5.2,6.8A17,17,0,0,0,206.9,101l76.89,114.65c4.29,5.52,11.61,7.45,17.39,4.58l55.26-27.51a9.11,9.11,0,0,0,4.49-5.9,11.51,11.51,0,0,0-1.53-9.26l-78.82-119C277.71,53.68,272.82,50.62,268.51,50.62Z"/>
    </g>
    <path class="cls-6" d="M232.45,97.36h7.14a6.56,6.56,0,0,1,6.56,6.56v9.58a6.57,6.57,0,0,1-6.57,6.57h-7.14a6.56,6.56,0,0,1-6.56-6.56v-9.58a6.56,6.56,0,0,1,6.56-6.56Z" transform="translate(-22.24 137.45) rotate(-31.08)"/>
    <path class="cls-6" d="M275.08,72.7h7.14a6.57,6.57,0,0,1,6.57,6.57v9.58a6.56,6.56,0,0,1-6.56,6.56h-7.14a6.57,6.57,0,0,1-6.57-6.57V79.27a6.57,6.57,0,0,1,6.57-6.57Z" transform="translate(-3.39 155.92) rotate(-31.08)"/>
    <path class="cls-6" d="M254.23,85.39h7.14A6.56,6.56,0,0,1,267.93,92v9.58a6.57,6.57,0,0,1-6.57,6.57h-7.14a6.57,6.57,0,0,1-6.57-6.57V92a6.57,6.57,0,0,1,6.57-6.57Z" transform="translate(-12.94 146.97) rotate(-31.08)"/>
    <rect class="cls-6" x="240.93" y="121.28" width="20.27" height="22.71" rx="6.57" transform="translate(-32.43 148.65) rotate(-31.08)"/>
    <path class="cls-6" d="M290.13,96.62h7.14a6.56,6.56,0,0,1,6.56,6.56v9.58a6.56,6.56,0,0,1-6.56,6.56h-7.14a6.57,6.57,0,0,1-6.57-6.57v-9.58a6.56,6.56,0,0,1,6.56-6.56Z" transform="translate(-13.58 167.12) rotate(-31.08)"/>
    <rect class="cls-6" x="262.71" y="109.31" width="20.27" height="22.71" rx="6.57" transform="translate(-23.12 158.18) rotate(-31.08)"/>
    <path class="cls-6" d="M262.67,145h7.14a6.57,6.57,0,0,1,6.57,6.57v9.58a6.56,6.56,0,0,1-6.56,6.56h-7.14a6.56,6.56,0,0,1-6.56-6.56v-9.58a6.57,6.57,0,0,1,6.57-6.57Z" transform="translate(-42.5 159.89) rotate(-31.08)"/>
    <path class="cls-6" d="M305.3,120.34h7.14A6.57,6.57,0,0,1,319,126.9v9.58a6.56,6.56,0,0,1-6.56,6.56H305.3a6.57,6.57,0,0,1-6.57-6.57V126.9a6.56,6.56,0,0,1,6.56-6.56Z" transform="translate(-23.65 178.36) rotate(-31.08)"/>
    <path class="cls-6" d="M284.45,133h7.14a6.57,6.57,0,0,1,6.57,6.57v9.58a6.57,6.57,0,0,1-6.57,6.57h-7.14a6.56,6.56,0,0,1-6.56-6.56v-9.58a6.57,6.57,0,0,1,6.57-6.57Z" transform="translate(-33.19 169.41) rotate(-31.08)"/>
    <path class="cls-6" d="M277.84,168.72H285a6.57,6.57,0,0,1,6.57,6.57v9.58a6.56,6.56,0,0,1-6.56,6.56h-7.14a6.56,6.56,0,0,1-6.56-6.56v-9.58A6.57,6.57,0,0,1,277.84,168.72Z" transform="translate(-52.56 171.12) rotate(-31.08)"/>
    <path class="cls-6" d="M320.47,144.06h7.14a6.57,6.57,0,0,1,6.57,6.57v9.58a6.57,6.57,0,0,1-6.57,6.57h-7.14a6.56,6.56,0,0,1-6.56-6.56v-9.58A6.57,6.57,0,0,1,320.47,144.06Z" transform="translate(-33.71 189.59) rotate(-31.08)"/>
    <path class="cls-6" d="M299.62,156.75h7.14a6.56,6.56,0,0,1,6.56,6.56v9.58a6.57,6.57,0,0,1-6.57,6.57h-7.14a6.57,6.57,0,0,1-6.57-6.57v-9.58A6.57,6.57,0,0,1,299.62,156.75Z" transform="translate(-43.26 180.65) rotate(-31.08)"/>
    <rect class="cls-6" x="285.92" y="192.64" width="20.27" height="22.71" rx="6.57" transform="translate(-62.81 182.12) rotate(-31.08)"/>
    <path class="cls-6" d="M335.12,168h7.14a6.57,6.57,0,0,1,6.57,6.57v9.58a6.56,6.56,0,0,1-6.56,6.56h-7.14a6.57,6.57,0,0,1-6.57-6.57v-9.58A6.56,6.56,0,0,1,335.12,168Z" transform="translate(-43.96 200.59) rotate(-31.08)"/>
    <rect class="cls-6" x="307.7" y="180.67" width="20.27" height="22.71" rx="6.57" transform="translate(-53.5 191.65) rotate(-31.08)"/>
    <path class="cls-3" d="M217.41,77s6.28,7.41,13.39,3.77,23.77-13.32,23.77-13.32,6.4-2.45,3.1-12.52Z"/>
    <g>
      <path class="cls-3" d="M229.76,146.51h0a2.31,2.31,0,0,1-3.47-.56l-18.56-27.77a3,3,0,0,1,.51-3.87h0a2.32,2.32,0,0,1,3.47.57l18.56,27.77A3,3,0,0,1,229.76,146.51Z"/>
      <path class="cls-4" d="M228.28,147.56l-.4,0a2.9,2.9,0,0,1-2-1.31l-18.56-27.76a3.5,3.5,0,0,1,.61-4.53,2.77,2.77,0,0,1,2.19-.64,3,3,0,0,1,2,1.31l18.56,27.77a3.5,3.5,0,0,1-.61,4.53A2.82,2.82,0,0,1,228.28,147.56Zm-18.56-33.29a1.76,1.76,0,0,0-1.16.43,2.46,2.46,0,0,0-.42,3.2l18.56,27.77a1.94,1.94,0,0,0,1.33.87,1.76,1.76,0,0,0,1.41-.41,2.47,2.47,0,0,0,.41-3.21L211.3,115.16a2,2,0,0,0-1.33-.88Z"/>
    </g>
    <path class="cls-7" d="M292.89,183c-.14,0-.26-15.5-.26-34.62s.12-34.62.26-34.62.26,15.49.26,34.62S293,183,292.89,183Z"/>
    <path class="cls-7" d="M284.78,169.74c-.15,0-.26-9.48-.26-21.18s.11-21.18.26-21.18.26,9.48.26,21.18S284.92,169.74,284.78,169.74Z"/>
    <path class="cls-7" d="M299.59,166.4c-.14,0-.26-4.74-.26-10.59s.12-10.59.26-10.59a105.69,105.69,0,0,1,.26,10.59A105.69,105.69,0,0,1,299.59,166.4Z"/>
  </g>
  <path class="cls-4" d="M220.79,129c.08.12-.74.82-1.83,1.56a5.64,5.64,0,0,1-2.13,1.13c-.08-.11.74-.81,1.83-1.56A5.74,5.74,0,0,1,220.79,129Z"/>
  <g>
    <path class="cls-4" d="M205.49,135.3c.12.08-4.1,7.21-9.43,15.93s-9.76,15.73-9.88,15.65,4.1-7.2,9.43-15.92S205.37,135.23,205.49,135.3Z"/>
    <circle class="cls-4" cx="205.49" cy="135.49" r="1.56"/>
    <g>
      <path class="cls-5" d="M213.45,171H187.17a7.77,7.77,0,0,1-7.78-7.77h0a7.78,7.78,0,0,1,7.78-7.78h26.28a7.78,7.78,0,0,1,7.78,7.78h0A7.77,7.77,0,0,1,213.45,171Z"/>
      <path class="cls-4" d="M213.45,171s.36,0,1-.12a7.82,7.82,0,0,0,5.83-4.29,7.6,7.6,0,0,0-4.86-10.65,15.21,15.21,0,0,0-4.1-.26h-4.43l-19.74,0a7.58,7.58,0,0,0-4.65,1.61,7.53,7.53,0,0,0,4.4,13.44c1.42,0,2.83,0,4.17,0l7.51,0,10.87.08,2.95,0,.77,0,.26,0-.26,0-.77,0-2.95.05-10.87.08-7.51,0c-1.35,0-2.74,0-4.19,0a8,8,0,0,1-4.28-1.39,8.14,8.14,0,0,1-2.94-3.71,8,8,0,0,1,7.49-10.93l19.74,0h6.56a8,8,0,0,1,7.48,5.35,7.87,7.87,0,0,1-3.64,9.51,7.15,7.15,0,0,1-2.82.89A4.83,4.83,0,0,1,213.45,171Z"/>
    </g>
  </g>
  <g>
    <path class="cls-4" d="M324.42,112.93c0-.14,8.09,1.79,18,4.31s17.91,4.67,17.87,4.81-8.09-1.79-18-4.31S324.38,113.06,324.42,112.93Z"/>
    <path class="cls-4" d="M323.43,114.15a1.56,1.56,0,1,0,0-2.21A1.56,1.56,0,0,0,323.43,114.15Z"/>
    <g>
      <path class="cls-8" d="M353.77,129.83h26.28a7.78,7.78,0,0,0,7.78-7.78h0a7.78,7.78,0,0,0-7.78-7.78H353.77a7.78,7.78,0,0,0-7.78,7.78h0A7.78,7.78,0,0,0,353.77,129.83Z"/>
      <path class="cls-4" d="M353.77,129.83a5.75,5.75,0,0,1-1,0,7.31,7.31,0,0,1-2.83-.89,7.81,7.81,0,0,1-3.24-3.38,7.93,7.93,0,0,1,5-11.19,8,8,0,0,1,2.09-.3h6.55l19.74,0a8,8,0,0,1,.27,16c-1.45,0-2.84,0-4.19,0l-7.51,0-10.86-.08-3-.05-.77,0-.26,0a.9.9,0,0,1,.26,0l.77,0,3-.05,10.86-.08,7.51,0c1.34,0,2.75,0,4.17,0a7.5,7.5,0,0,0,6.77-4.83,7.53,7.53,0,0,0-2.37-8.61,7.59,7.59,0,0,0-4.65-1.62l-19.74,0h-4.43a15.65,15.65,0,0,0-4.1.26,7.64,7.64,0,0,0-1.77,14,7.42,7.42,0,0,0,2.74,1C353.41,129.8,353.77,129.8,353.77,129.83Z"/>
    </g>
  </g>
  <g>
    <path class="cls-4" d="M325.07,227.75c.12-.08,3.1,4.58,6.66,10.39s6.34,10.59,6.21,10.67-3.1-4.58-6.66-10.4S325,227.82,325.07,227.75Z"/>
    <path class="cls-4" d="M323.51,227.94a1.56,1.56,0,1,0,1.56-1.57A1.56,1.56,0,0,0,323.51,227.94Z"/>
    <g>
      <path class="cls-8" d="M334.41,251.32h26.28a7.78,7.78,0,0,0,7.78-7.78h0a7.78,7.78,0,0,0-7.78-7.78H334.41a7.78,7.78,0,0,0-7.78,7.78h0A7.78,7.78,0,0,0,334.41,251.32Z"/>
      <path class="cls-4" d="M334.41,251.32a5.75,5.75,0,0,1-1,0,7.31,7.31,0,0,1-2.83-.89,7.84,7.84,0,0,1-3.24-3.37,8,8,0,0,1,7.09-11.5H341l19.74,0a8,8,0,0,1,.27,16c-1.45,0-2.84,0-4.19,0l-7.51,0-10.86-.08-3,0-.77,0a.9.9,0,0,1-.26,0l.26,0,.77,0,3-.05,10.86-.08,7.51,0c1.35,0,2.75,0,4.17,0a7.5,7.5,0,0,0,6.77-4.83,7.53,7.53,0,0,0-2.37-8.61,7.59,7.59,0,0,0-4.65-1.62L341,236h-4.43a15.65,15.65,0,0,0-4.1.26,7.61,7.61,0,0,0-4.85,10.66,7.65,7.65,0,0,0,3.08,3.32,7.42,7.42,0,0,0,2.74,1C334.05,251.29,334.41,251.29,334.41,251.32Z"/>
    </g>
  </g>
  <g>
    <path class="cls-4" d="M223.1,64.5c-.11.09-4.15-4.86-9-11.06s-8.71-11.3-8.6-11.39,4.15,4.86,9,11.07S223.21,64.41,223.1,64.5Z"/>
    <path class="cls-4" d="M223.41,66a1.56,1.56,0,1,1,1-2A1.56,1.56,0,0,1,223.41,66Z"/>
    <g>
      <path class="cls-8" d="M209,49.83H182.69a7.78,7.78,0,0,1-7.78-7.78h0a7.78,7.78,0,0,1,7.78-7.78H209a7.78,7.78,0,0,1,7.78,7.78h0A7.78,7.78,0,0,1,209,49.83Z"/>
      <path class="cls-4" d="M209,49.83s.35,0,1-.13a7.42,7.42,0,0,0,2.74-1,7.71,7.71,0,0,0,3.08-3.32A7.61,7.61,0,0,0,211,34.76a15.65,15.65,0,0,0-4.1-.26h-4.44l-19.73,0a7.53,7.53,0,0,0-7,10.23,7.71,7.71,0,0,0,2.75,3.5,7.56,7.56,0,0,0,4,1.33c1.43,0,2.83,0,4.18,0l7.5,0,10.87.08,3,.05.77,0,.26,0a.9.9,0,0,1-.26,0l-.77,0-3,0L194.12,50l-7.5,0c-1.35,0-2.74,0-4.19,0a8,8,0,0,1,.27-16l19.73,0H209a8.43,8.43,0,0,1,2.09.29,8,8,0,0,1,5.4,5.06,7.92,7.92,0,0,1-3.64,9.52,7.54,7.54,0,0,1-2.83.89A5.72,5.72,0,0,1,209,49.83Z"/>
    </g>
  </g>
  <g>
    <g class="cls-9">
      <path d="M315.32,219.4l-8.59,4.29a1.63,1.63,0,0,1-2.18-.73h0a1.63,1.63,0,0,1,.73-2.19l8.58-4.28a1.62,1.62,0,0,1,2.19.73h0A1.63,1.63,0,0,1,315.32,219.4Z"/>
    </g>
    <path class="cls-4" d="M315.32,219.4a2.26,2.26,0,0,0,.68-.86,1.55,1.55,0,0,0-.07-1.22,1.47,1.47,0,0,0-1.29-.82,1.79,1.79,0,0,0-.9.27l-1,.52-2.22,1.14L305.4,221a1.38,1.38,0,0,0-.43,2.12,1.4,1.4,0,0,0,1,.49,1.56,1.56,0,0,0,.56-.12l.59-.29,4.21-2,2.86-1.33a4.87,4.87,0,0,1,1.08-.43,5.37,5.37,0,0,1-1,.61l-2.78,1.48-4.16,2.14-.61.3a1.76,1.76,0,0,1-.76.17,1.88,1.88,0,0,1-1.44-.64,1.88,1.88,0,0,1,.58-2.92L310.3,218l2.24-1.1,1-.49a2.09,2.09,0,0,1,1.09-.28,1.81,1.81,0,0,1,1.55,1.07,1.71,1.71,0,0,1,0,1.41C315.82,219.34,315.3,219.42,315.32,219.4Z"/>
  </g>
  <g>
    <g class="cls-9">
      <path d="M350.85,201.37l-8.59,4.29a1.63,1.63,0,0,1-2.18-.73h0a1.63,1.63,0,0,1,.73-2.19l8.58-4.28a1.63,1.63,0,0,1,2.19.73h0A1.63,1.63,0,0,1,350.85,201.37Z"/>
    </g>
    <path class="cls-4" d="M350.85,201.37a2.26,2.26,0,0,0,.68-.86,1.59,1.59,0,0,0-.06-1.22,1.5,1.5,0,0,0-1.3-.82,1.79,1.79,0,0,0-.9.27l-1,.52L346,200.4,340.93,203a1.38,1.38,0,0,0,1.18,2.49l.59-.29,4.21-2,2.86-1.33a4.87,4.87,0,0,1,1.08-.43,4.94,4.94,0,0,1-1,.61l-2.78,1.48-4.16,2.14-.61.3a1.93,1.93,0,0,1-.76.18,1.89,1.89,0,0,1-1.87-2.23,1.92,1.92,0,0,1,1-1.34l5.14-2.54,2.24-1.09,1-.5a2.09,2.09,0,0,1,1.09-.28,1.81,1.81,0,0,1,1.55,1.07,1.74,1.74,0,0,1,0,1.42C351.35,201.31,350.83,201.39,350.85,201.37Z"/>
  </g>
  <g>
    <g class="cls-9">
      <path d="M320.68,216.74h0a1.62,1.62,0,0,1-2.18-.73h0a1.62,1.62,0,0,1,.73-2.18h0a1.62,1.62,0,0,1,2.18.73h0A1.62,1.62,0,0,1,320.68,216.74Z"/>
    </g>
    <path class="cls-4" d="M320.68,216.74c-.06-.07.56-.34.69-1.19a1.43,1.43,0,0,0-.46-1.27,1.42,1.42,0,0,0-1.57-.22,1.4,1.4,0,0,0-.76,1.38,1.44,1.44,0,0,0,.74,1.14,2.38,2.38,0,0,0,1.36.16s-.09.14-.35.23a1.61,1.61,0,0,1-1.17-.06,1.77,1.77,0,0,1-1.06-1.41,1.85,1.85,0,0,1,3.14-1.57,1.82,1.82,0,0,1,.5,1.69,1.66,1.66,0,0,1-.66,1C320.85,216.75,320.7,216.77,320.68,216.74Z"/>
  </g>
  <g>
    <path class="cls-4" d="M277,112.65a3.15,3.15,0,0,1,.4-.5l1.24-1.39,4.61-5L298.6,89.2l21.78-23.26a3,3,0,0,1-.37.53c-.25.35-.67.81-1.19,1.43-1.06,1.22-2.61,3-4.55,5.09C310.4,77.27,305,83.12,299,89.56S287.51,101.79,283.54,106c-2,2-3.57,3.72-4.73,4.93l-1.31,1.32A2.33,2.33,0,0,1,277,112.65Z"/>
    <path class="cls-4" d="M278,113.88a1.56,1.56,0,1,0-2.15-.5A1.56,1.56,0,0,0,278,113.88Z"/>
    <g>
      <path class="cls-5" d="M319.16,69.55h26.28a7.78,7.78,0,0,0,7.78-7.78h0A7.78,7.78,0,0,0,345.44,54H319.16a7.78,7.78,0,0,0-7.78,7.78h0A7.78,7.78,0,0,0,319.16,69.55Z"/>
      <path class="cls-4" d="M319.16,69.55a5.85,5.85,0,0,1-1,0,7.41,7.41,0,0,1-2.83-.89,7.84,7.84,0,0,1-3.24-3.37,7.93,7.93,0,0,1,5-11.2,8.12,8.12,0,0,1,2.09-.3h6.56l19.74,0a8.13,8.13,0,0,1,5,1.73,8,8,0,0,1,2.79,4.28,7.87,7.87,0,0,1-.28,4.92,8,8,0,0,1-7.22,5.11c-1.45,0-2.83,0-4.18,0l-7.51,0-10.87-.09-2.95-.05-.77,0a.9.9,0,0,1-.26,0l.26,0,.77,0,2.95,0L334,69.37l7.51,0c1.34,0,2.75,0,4.17,0a7.53,7.53,0,0,0-.25-15.06l-19.74,0h-4.43a15.62,15.62,0,0,0-4.1.26,7.61,7.61,0,0,0-4.86,10.66,7.77,7.77,0,0,0,3.08,3.32,7.45,7.45,0,0,0,2.75,1C318.8,69.52,319.16,69.52,319.16,69.55Z"/>
    </g>
  </g>
  <path class="cls-7" d="M275.28,192c-.12.08-13.17-19.53-29.15-43.79s-28.84-44-28.72-44.07,13.17,19.52,29.15,43.79S275.4,191.88,275.28,192Z"/>
  <path class="cls-7" d="M213.24,85.13a16.83,16.83,0,0,0-1.09,5.48,16.84,16.84,0,0,0,1.27,5.44,3.78,3.78,0,0,1-.91-1.43,10.3,10.3,0,0,1-.13-8A3.87,3.87,0,0,1,213.24,85.13Z"/>
  <path class="cls-7" d="M257,68.11c.08.13-5.47,3.7-12.4,8s-12.6,7.66-12.68,7.54,5.48-3.69,12.41-8S257,68,257,68.11Z"/>
  <path class="cls-7" d="M350.52,189.05a1.86,1.86,0,0,1-.49.31l-1.45.81L343.19,193c-4.57,2.39-10.89,5.66-17.91,9.22s-13.39,6.73-18,9-7.6,3.53-7.65,3.29a13,13,0,0,0,2-.91l5.47-2.71,18-9.1,18-9.08,5.47-2.71,1.5-.72A3.11,3.11,0,0,1,350.52,189.05Z"/>
  <g>
    <path class="cls-4" d="M159.71,231.45a1.52,1.52,0,1,1-1.51-1.51A1.52,1.52,0,0,1,159.71,231.45Z"/>
    <path class="cls-4" d="M259.06,231.85c0,.15-21,.26-46.94.26s-46.94-.11-46.94-.26,21-.26,46.94-.26S259.06,231.71,259.06,231.85Z"/>
    <path class="cls-4" d="M191.51,239c0,.14-5.9.26-13.17.26s-13.16-.12-13.16-.26,5.89-.26,13.16-.26S191.51,238.87,191.51,239Z"/>
    <circle class="cls-4" cx="158.2" cy="266.16" r="1.51"/>
    <path class="cls-4" d="M259.06,266.56c0,.15-21,.26-46.94.26s-46.94-.11-46.94-.26,21-.26,46.94-.26S259.06,266.42,259.06,266.56Z"/>
    <path class="cls-4" d="M255.77,273.72c0,.14-20.28.26-45.3.26s-45.29-.12-45.29-.26,20.27-.26,45.29-.26S255.77,273.57,255.77,273.72Z"/>
    <circle class="cls-4" cx="158.2" cy="297.49" r="1.51"/>
    <path class="cls-4" d="M259.06,297.89c0,.14-21,.26-46.94.26s-46.94-.12-46.94-.26,21-.26,46.94-.26S259.06,297.75,259.06,297.89Z"/>
    <path class="cls-4" d="M255.77,305.05c0,.14-20.28.26-45.3.26s-45.29-.12-45.29-.26,20.27-.26,45.29-.26S255.77,304.9,255.77,305.05Z"/>
    <circle class="cls-4" cx="158.2" cy="329.36" r="1.51"/>
    <path class="cls-4" d="M259.06,329.76c0,.15-21,.26-46.94.26s-46.94-.11-46.94-.26,21-.26,46.94-.26S259.06,329.62,259.06,329.76Z"/>
    <path class="cls-4" d="M205.53,336.92c0,.14-9,.26-20.18.26s-20.17-.12-20.17-.26,9-.26,20.17-.26S205.53,336.78,205.53,336.92Z"/>
  </g>
  <g>
    <g>
      <g>
        <path class="cls-4" d="M79.49,57.43a75.79,75.79,0,0,1-4.16-12.36,26.44,26.44,0,0,1,.13-12.93c.19-.63,1.86-4.91,2.52-4.89.47,0-.47,4-.2,4.35A22.38,22.38,0,0,1,81.2,44.45a59.32,59.32,0,0,1-1.71,13"/>
        <path class="cls-10" d="M105.54,79.81c-.18-3.07-.32-5.5-.29-5.5S115.7,72.51,115.66,62c0-5.06-.91-15.48-1.82-24.9A19.52,19.52,0,0,0,94.09,19.49l-1,0C82.18,20.32,76.79,30,77.9,40.89L80.59,79l8,8.3a9.86,9.86,0,0,0,16.94-7.5Z"/>
        <path class="cls-11" d="M105.25,74.31A25.38,25.38,0,0,1,91.54,70.5S95,78.06,105.43,77Z"/>
        <path class="cls-4" d="M111.36,45.61a1.49,1.49,0,0,1-1.42,1.53,1.42,1.42,0,0,1-1.56-1.32,1.49,1.49,0,0,1,1.41-1.53A1.43,1.43,0,0,1,111.36,45.61Z"/>
        <path class="cls-4" d="M111.67,41.51c-.18.2-1.33-.62-2.94-.59s-2.78.85-3,.66.1-.44.61-.83a4.1,4.1,0,0,1,2.36-.77,3.94,3.94,0,0,1,2.34.72C111.59,41.07,111.76,41.42,111.67,41.51Z"/>
        <path class="cls-4" d="M97,46.37a1.49,1.49,0,0,1-1.42,1.53A1.43,1.43,0,0,1,94,46.58,1.51,1.51,0,0,1,95.44,45,1.45,1.45,0,0,1,97,46.37Z"/>
        <path class="cls-4" d="M96.69,42.32c-.19.2-1.33-.62-2.94-.59s-2.78.85-3,.66.1-.44.61-.83a4.18,4.18,0,0,1,2.36-.77,3.94,3.94,0,0,1,2.34.72C96.6,41.88,96.78,42.23,96.69,42.32Z"/>
        <path class="cls-4" d="M101.88,54.69a10.67,10.67,0,0,1,2.61-.51c.41,0,.8-.14.86-.42a2,2,0,0,0-.29-1.21c-.4-1-.82-2-1.27-3.11-1.76-4.43-3-8.08-2.86-8.15s1.75,3.47,3.51,7.9c.43,1.09.83,2.13,1.22,3.13a2.39,2.39,0,0,1,.24,1.61,1.06,1.06,0,0,1-.67.61,3.25,3.25,0,0,1-.7.11A10,10,0,0,1,101.88,54.69Z"/>
        <path class="cls-4" d="M96.46,36.9c-.22.41-1.78,0-3.68-.11s-3.49.22-3.68-.21c-.08-.2.24-.57.92-.89a6,6,0,0,1,2.83-.53,6.08,6.08,0,0,1,2.77.77C96.27,36.31,96.56,36.7,96.46,36.9Z"/>
        <path class="cls-4" d="M111.1,35.88c-.28.37-1.39,0-2.73,0s-2.46.28-2.72-.1c-.12-.18,0-.55.54-.9a3.93,3.93,0,0,1,4.39.06C111.06,35.33,111.22,35.7,111.1,35.88Z"/>
        <path class="cls-10" d="M78.89,48.63c-.18-.07-7.24-2-6.89,5.15s7.46,5.34,7.46,5.13S78.89,48.63,78.89,48.63Z"/>
        <path class="cls-11" d="M77.14,56.3s-.12.1-.32.2a1.22,1.22,0,0,1-.93.07,3.1,3.1,0,0,1-1.57-2.7,4.11,4.11,0,0,1,.27-1.81,1.44,1.44,0,0,1,.89-1,.64.64,0,0,1,.75.31c.11.19.07.34.11.35s.14-.13.07-.42a.79.79,0,0,0-.3-.44.91.91,0,0,0-.7-.14,1.74,1.74,0,0,0-1.25,1.17,4.13,4.13,0,0,0-.33,2c.11,1.45.91,2.76,2,3a1.35,1.35,0,0,0,1.14-.25C77.14,56.48,77.17,56.32,77.14,56.3Z"/>
        <path class="cls-4" d="M108.53,25.53c1.12-.7-2.57-4.26-5.49-5.38C98.63,18.44,92,17.61,88.09,19c-4.7,1.63-8.53,4.23-10.68,8.71a28.24,28.24,0,0,0-2.34,14.56,8.57,8.57,0,0,0,1.26,4.31c1.09,1.53,3.06,2.41,3.1,4.6a3,3,0,0,0,.87,2.14c1.39,1.32,2.92-.08,3.58-1.43,1.41-2.9,1.4-6.25,1.35-9.47a20.84,20.84,0,0,0-.84-6.78c-.42-1.17-1-2.27-1.4-3.46a4.33,4.33,0,0,1,.31-3.61,4.36,4.36,0,0,1,.55-.62,7.48,7.48,0,0,1,7.32-1.83c4.11,1.2,11.11,2.93,12.83,1.46a10.89,10.89,0,0,0,3-3.43Z"/>
      </g>
      <path class="cls-4" d="M104.29,59.37c0,.12-.24.38-.83.57a4.17,4.17,0,0,1-2.39-.06,4.12,4.12,0,0,1-2-1.33c-.38-.49-.46-.88-.35-.94s1.12.88,2.64,1.33S104.19,59.11,104.29,59.37Z"/>
    </g>
    <g>
      <g>
        <path class="cls-10" d="M175.14,112.29l4.57-2.23a31.37,31.37,0,0,1,1.68-5.52A43.5,43.5,0,0,1,186.65,99c.25-.12,2.67-7.11,4-7a2.25,2.25,0,0,1,2.19,2.84c-.22,1.86-2.93,5.76-2,6.29a6,6,0,0,0,2.27.64s.19-2.13,1.28-2.91,2.5.23,2.5.23l.12.9,1-1.13s.83-4.32,2.65-4.46a7.33,7.33,0,0,1,1.58-2.55,1.56,1.56,0,0,1,2.46.49h0l-2.43,9.82-8.08,10.63s-4.06,2-5.08,2.56-5.58,4.36-7.66,5.27-4.48,2.21-4.48,2.21Z"/>
        <path class="cls-11" d="M187.42,108.26a5.56,5.56,0,0,0-1.71,0,7.91,7.91,0,0,0-4,1.25,4.92,4.92,0,0,0-1.54,1.76,8,8,0,0,0-.65,1.76,4.78,4.78,0,0,0-.24,1.7,9.49,9.49,0,0,0,.55-1.61,6.08,6.08,0,0,1,2.15-3.24,8.75,8.75,0,0,1,3.74-1.29A7.24,7.24,0,0,0,187.42,108.26Z"/>
        <path class="cls-11" d="M197.79,104a7.13,7.13,0,0,0,.39-2.67,9.33,9.33,0,0,0-.07-2.7,7.22,7.22,0,0,0-.39,2.68A8.88,8.88,0,0,0,197.79,104Z"/>
        <path class="cls-11" d="M191,101.38c.06-.1-.47-.5-1.25-.66s-1.42,0-1.4.11.6.19,1.31.34S190.93,101.5,191,101.38Z"/>
      </g>
      <path class="cls-11" d="M201.28,102.29a9,9,0,0,1,0-2.09c.08-1.3.21-3.13.39-5.22l.16.25c-.33-.11-.73-.31-1-.37a1.24,1.24,0,0,0-.94.2,2.72,2.72,0,0,0-1,1.43,9.47,9.47,0,0,0-.44,1.7c-.17,1.13-.25,2.17-.34,3a16.85,16.85,0,0,1-.33,2.81,13.27,13.27,0,0,1,0-2.83c0-.87.08-1.91.22-3.07a9.53,9.53,0,0,1,.44-1.81,3.23,3.23,0,0,1,1.19-1.7,1.75,1.75,0,0,1,1.32-.27,10.57,10.57,0,0,1,1.11.41l.17.07V95c-.21,2.1-.41,3.92-.57,5.21A10.65,10.65,0,0,1,201.28,102.29Z"/>
      <path class="cls-11" d="M190.24,111.45s0-.14,0-.41a5.84,5.84,0,0,1,.29-1.13,14.24,14.24,0,0,1,2.05-3.63l0,.09c.46-1.88-.34-4.48,1.12-7a2.18,2.18,0,0,1,1.65-.91,3.13,3.13,0,0,1,1.72.44l.13.07v.15c-.1,2.71-.21,5-.31,6.71a4.14,4.14,0,0,1-.44,1.92,1.71,1.71,0,0,1-.37.61,3,3,0,0,1,.22-.67,4.82,4.82,0,0,0,.28-1.88c0-1.67,0-4,.11-6.7l.12.22a2.7,2.7,0,0,0-1.43-.36,1.68,1.68,0,0,0-1.27.72,4,4,0,0,0-.63,1.67,16,16,0,0,0-.22,1.78c-.05.59,0,1.13-.05,1.71a10.38,10.38,0,0,1-.21,1.62v0l0,0a15.77,15.77,0,0,0-2.16,3.44C190.36,110.89,190.3,111.46,190.24,111.45Z"/>
    </g>
    <g>
      <path class="cls-4" d="M103.64,350.86l-1.06,19.23s19.2,7.53,19.35,11.11l-37.37-.71.41-30Z"/>
      <path class="cls-6" d="M91.06,368.26A1.52,1.52,0,0,0,90,370a1.47,1.47,0,0,0,1.7,1.09,1.61,1.61,0,0,0,1.14-1.83,1.53,1.53,0,0,0-1.89-.94"/>
      <path class="cls-3" d="M84.56,380.49l.16-3,35.77,1.8s1.65.76,1.44,1.93Z"/>
      <path class="cls-7" d="M103.19,369.91c0,.19-.92.25-1.83.82s-1.4,1.33-1.57,1.25.13-1.12,1.24-1.79S103.23,369.75,103.19,369.91Z"/>
      <path class="cls-7" d="M107.08,371.61c0,.18-.76.47-1.39,1.23s-.83,1.58-1,1.56-.28-1,.53-2S107.08,371.43,107.08,371.61Z"/>
      <path class="cls-7" d="M109.22,376.34c-.17,0-.41-.88.08-1.87s1.35-1.37,1.42-1.22-.46.68-.85,1.5S109.4,376.33,109.22,376.34Z"/>
      <path class="cls-7" d="M102.94,365.5c-.07.17-.91-.1-1.94-.05s-1.84.36-1.94.2.7-.79,1.92-.83S103,365.36,102.94,365.5Z"/>
    </g>
    <g>
      <path class="cls-4" d="M58.39,349l-2,23.22L60.06,391a2.39,2.39,0,0,1-2,2.83h0a2.38,2.38,0,0,1-2.05-.75c-3.33-3.64-15.52-17.06-15.28-18.75.28-2,.51-24.63.51-24.63Z"/>
      <path class="cls-3" d="M58,393.84,40.79,372.77l-.06,1a3.56,3.56,0,0,0,.7,2.38c1.37,1.83,5.25,6.8,14.47,16.94a2.38,2.38,0,0,0,2.12.76Z"/>
      <g class="cls-12">
        <path class="cls-7" d="M46.05,365.58a1.45,1.45,0,0,1,.27,1.91,1.39,1.39,0,0,1-1.89.28,1.52,1.52,0,0,1-.28-2,1.45,1.45,0,0,1,2-.08"/>
      </g>
      <path class="cls-7" d="M53.36,383.33a7.36,7.36,0,0,1,2.15-1.68,7.72,7.72,0,0,1,2.71-.34c0-.05-.26-.25-.8-.36a3.67,3.67,0,0,0-2.1.23,3.73,3.73,0,0,0-1.66,1.33C53.36,383,53.3,383.31,53.36,383.33Z"/>
      <path class="cls-7" d="M54.81,386.55a19.68,19.68,0,0,1,2.13-.86,18,18,0,0,1,2.29-.15,2.65,2.65,0,0,0-2.41-.35C55.43,385.5,54.7,386.48,54.81,386.55Z"/>
      <path class="cls-7" d="M50.53,379.14a23.76,23.76,0,0,1,3.19-1.56,23.08,23.08,0,0,1,3.5-.58,5.3,5.3,0,0,0-3.66.09A5.29,5.29,0,0,0,50.53,379.14Z"/>
      <path class="cls-7" d="M50.55,372c.06.15,1.38-.31,3.05-.26s3,.53,3,.39a4.66,4.66,0,0,0-3-.9A4.65,4.65,0,0,0,50.55,372Z"/>
      <path class="cls-7" d="M51,365.2a11.79,11.79,0,0,1,3.16-.36,11.59,11.59,0,0,1,3,1c0-.05-.2-.36-.71-.7a5.17,5.17,0,0,0-2.28-.79,5.1,5.1,0,0,0-2.38.33C51.24,364.89,50.94,365.15,51,365.2Z"/>
      <path class="cls-7" d="M54.18,363.54a1.9,1.9,0,0,0,.09-.88,6,6,0,0,0-.55-2.35A2.68,2.68,0,0,0,52.64,359a1,1,0,0,0-1.09.14,1.57,1.57,0,0,0-.44,1,3.38,3.38,0,0,0,2.75,3.3,3.9,3.9,0,0,0,4-1.8A1.32,1.32,0,0,0,58,360.5a.94.94,0,0,0-.95-.56,3.3,3.3,0,0,0-1.58.7,6.79,6.79,0,0,0-1.71,1.7,2.31,2.31,0,0,0-.41.78,11,11,0,0,1,2.32-2.18,3,3,0,0,1,1.39-.57.49.49,0,0,1,.52.3.92.92,0,0,1-.13.73A3.49,3.49,0,0,1,54,362.92a2.94,2.94,0,0,1-2.38-2.77,1.12,1.12,0,0,1,.28-.73.51.51,0,0,1,.6-.09,2.44,2.44,0,0,1,.93,1.14A9,9,0,0,1,54.18,363.54Z"/>
    </g>
    <g>
      <path class="cls-3" d="M122.15,189.31a82.78,82.78,0,0,1,1.8,24.34c-.39,5.17-17.85,148.26-17.85,148.26H82.54l6.62-134.49-1.93.42S74.37,285.2,73.32,294.49c-.95,8.34-11.8,69-11.8,69L40,363.72l6.88-80.21,8-77,3-22.41Z"/>
      <path class="cls-4" d="M85.44,213.7a4.64,4.64,0,0,0,1,.56,11.06,11.06,0,0,0,2.92,1,6.28,6.28,0,0,0,2.17,0,4.52,4.52,0,0,0,2.27-1.09,5.36,5.36,0,0,0,1.37-2.41c.28-.92.44-1.87.64-2.84.75-3.88,1.26-7.42,1.55-10,.15-1.29.25-2.33.3-3.05a4.06,4.06,0,0,0,0-1.13,5.15,5.15,0,0,0-.22,1.1c-.12.82-.28,1.83-.46,3-.38,2.55-.94,6.08-1.69,10-.38,1.91-.64,3.86-1.84,5a4.88,4.88,0,0,1-4.07,1.06,13.47,13.47,0,0,1-2.89-.85A6,6,0,0,0,85.44,213.7Z"/>
      <path class="cls-4" d="M92.54,195.46s-.15-.12-.49-.14a2.13,2.13,0,0,0-1.31.43,2.32,2.32,0,0,0-1,1.82,2.34,2.34,0,0,0,4,1.49,2.38,2.38,0,0,0,.45-2,2,2,0,0,0-.72-1.18c-.26-.21-.45-.23-.45-.21a2.63,2.63,0,0,1,.82,1.46,2.08,2.08,0,0,1-.44,1.65,1.91,1.91,0,0,1-3.18-1.19A2.08,2.08,0,0,1,91,196,2.81,2.81,0,0,1,92.54,195.46Z"/>
      <path class="cls-4" d="M55.19,205.17a3.09,3.09,0,0,0,.81.12,15.12,15.12,0,0,0,2.21,0,21.49,21.49,0,0,0,13.23-5.58,13.72,13.72,0,0,0,1.52-1.6c.33-.4.5-.64.47-.66s-.82.81-2.23,2a23.73,23.73,0,0,1-13,5.48C56.35,205.14,55.2,205.08,55.19,205.17Z"/>
      <path class="cls-4" d="M112.48,195.9a10.38,10.38,0,0,0,1.09,2.4,26.42,26.42,0,0,0,3.64,5.07,24.39,24.39,0,0,0,4.62,3.95,8.63,8.63,0,0,0,2.17,1.15,22.54,22.54,0,0,0-2-1.45,31.43,31.43,0,0,1-4.47-4,33.26,33.26,0,0,1-3.69-4.9A24.2,24.2,0,0,0,112.48,195.9Z"/>
    </g>
    <g>
      <g>
        <path class="cls-8" d="M67.33,126.68l-9,8.69,2.91-16.62L42.93,113s-4.86,22.81-5.71,28.2c-1.51,9.68.35,23.44,9.37,24.41,9.76,1,17.13-8.58,21.81-14.9,3.61-4.85,9.43-13.34,9.43-13.34l-10.5-10.65"/>
        <path class="cls-8" d="M141.47,122.56c-.15-.55-9.18-25.14-12.07-30.52C126,85.6,118.62,83,114.12,82.67c-.58,0-2.69-.09-4.53,0-12.39.53-48,3.38-48,3.38s-13.48,3.39-16.21,15.59C41.94,116.93,39.19,132,39.19,132l24.13,5.21,2.83-7.14,45.34,10.11,11.07-16.37Z"/>
        <g>
          <path class="cls-8" d="M58.66,160.61l.63-21.8-.9-51.37L77.2,79.15,79.3,71l22,10.38,4.6-5.08,2.05,5.54,4.69,1.76,9.46,18.66L127.41,117s-1.7,63.81-3.06,74.08c0,0-4.41,1.64-15.32,1.9-22.11.53-52.22-.87-52.22-.87l-.31-1a19.25,19.25,0,0,1-.75-8.36l2.91-22.17"/>
          <path class="cls-4" d="M109,191.07a1.11,1.11,0,0,0,0-.26c0-.22,0-.47.06-.78,0-.74.1-1.75.17-3,.12-2.67.28-6.44.49-11.07.35-9.34.79-22.26.64-36.55-.08-7.14-.32-14-1-20.12s-1.77-11.65-2.72-16.23-1.86-8.25-2.48-10.79c-.31-1.23-.55-2.2-.73-2.92q-.12-.45-.21-.75a1.1,1.1,0,0,0-.09-.26,1.23,1.23,0,0,0,0,.27l.15.77.62,2.94c.55,2.56,1.38,6.25,2.29,10.83s1.92,10.06,2.6,16.2.87,12.93,1,20.07c.15,14.26-.23,27.18-.47,36.53-.13,4.63-.23,8.4-.31,11.07,0,1.26,0,2.27-.06,3v.78A.8.8,0,0,0,109,191.07Z"/>
          <path class="cls-4" d="M94.82,110.7a12.32,12.32,0,0,0-1.28,0l-3.71.22-13.54.93-.25,0,0,.26c.46,6.2,1,13.62,1.63,21.64V134l.11.08c.64.46,1.32.93,2,1.38a38.26,38.26,0,0,0,3.8,2.21A11.38,11.38,0,0,0,87.77,139a8.2,8.2,0,0,0,4.09-.95,18,18,0,0,0,3.31-2.21c.5-.41,1-.83,1.43-1.26a2.79,2.79,0,0,0,.65-.78,4.42,4.42,0,0,0,.36-.91,13.78,13.78,0,0,0,.33-3.57,53.15,53.15,0,0,0-.57-6.32c-.56-3.83-1.23-6.89-1.7-9-.24-1-.45-1.87-.6-2.42a4.39,4.39,0,0,0-.25-.83,4.17,4.17,0,0,0,.13.86c.12.62.28,1.43.48,2.44.4,2.12,1,5.19,1.5,9a53.6,53.6,0,0,1,.49,6.27,13.62,13.62,0,0,1-.34,3.41,2.65,2.65,0,0,1-.86,1.42c-.45.42-.93.83-1.41,1.23a17.5,17.5,0,0,1-3.21,2.12,7.7,7.7,0,0,1-3.8.88,10.88,10.88,0,0,1-3.88-1.28,39.36,39.36,0,0,1-3.74-2.17c-.7-.45-1.38-.91-2-1.36l.13.23c-.64-8-1.24-15.43-1.74-21.63l-.24.27,13.37-1.17,3.76-.36,1-.11Z"/>
          <path class="cls-8" d="M88.06,75.11C81.76,71.75,79.3,71,79.3,71L77.36,79.6,101,91.46l.27-10S94.24,78.41,88.06,75.11Z"/>
          <polyline class="cls-8" points="105.85 76.34 101.25 81.42 103.71 92.04 107.81 82.44"/>
          <path class="cls-4" d="M76.46,117.76c0,.17,4.4,0,9.81-.45S96,116.4,96,116.23s-4.41,0-9.81.45S76.44,117.59,76.46,117.76Z"/>
          <g class="cls-9">
            <path d="M97,133.7c-1,1.74-2,4.13-3.48,5.56a8.52,8.52,0,0,1-5.35,2.67,8.81,8.81,0,0,1-5.07-1.51A13.44,13.44,0,0,1,78,133.78c-.15-.19,3.51,2.25,5.5,3.31a9,9,0,0,0,5.64,1.21c2.94-.24,5.59-2.67,7.82-4.6"/>
          </g>
          <g class="cls-9">
            <polygon points="101.21 82.48 102.82 94.77 79.71 80.48 100.98 91.46 101.21 82.48"/>
          </g>
        </g>
        <path class="cls-13" d="M105.34,94.32a345.08,345.08,0,0,1,7.83,51.12c.9,11.94,1.57,27.77,1.57,27.77l-5.32,6.59-8.17-7.22s.36-33.62-.07-44.88c-.35-9.26,1.11-32.88,1.11-32.88Z"/>
        <path class="cls-4" d="M64,109.28a6.26,6.26,0,0,0-.21,1c-.13.68-.29,1.56-.48,2.63-.39,2.28-.91,5.32-1.49,8.68s-1.1,6.47-1.43,8.7c-.16,1.12-.29,2-.37,2.65a4.66,4.66,0,0,0-.09,1,6.7,6.7,0,0,0,.21-1c.13-.68.29-1.57.48-2.63l1.52-8.68c.58-3.39,1.07-6.47,1.4-8.7.15-1.08.27-2,.37-2.65A4.66,4.66,0,0,0,64,109.28Z"/>
        <path class="cls-4" d="M57,88.87s.64.57,1.59,1.55a19.19,19.19,0,0,1,3.12,4.27,19.61,19.61,0,0,1,1.84,5c.29,1.33.36,2.17.41,2.17s0-.21,0-.6a12,12,0,0,0-.2-1.62A17.22,17.22,0,0,0,62,94.53a17.67,17.67,0,0,0-3.25-4.28,12.69,12.69,0,0,0-1.24-1A2.21,2.21,0,0,0,57,88.87Z"/>
        <polygon class="cls-13" points="101.18 86.16 103.17 84.98 105.25 88.74 105.34 94.33 102.29 94.82 101.03 91.55 101.18 86.16"/>
        <path class="cls-4" d="M101,81.33s.45.78,1.19,2a52.82,52.82,0,0,1,2.66,5l.22.48.15.31.15-.31a38.66,38.66,0,0,0,1.95-5c.21-.64.35-1.17.44-1.53a2.21,2.21,0,0,0,.11-.58,21.08,21.08,0,0,0-.76,2,52,52,0,0,1-2,4.88h.29c-.07-.15-.15-.31-.22-.48a43.55,43.55,0,0,0-2.76-5c-.4-.61-.74-1.09-1-1.41A2.15,2.15,0,0,0,101,81.33Z"/>
        <path class="cls-4" d="M77.2,79.15a1.11,1.11,0,0,0,.32.19l1,.5L82,81.65c3,1.53,7,3.71,11.45,6.1,2.72,1.45,5.3,2.79,7.54,3.91l.2.1v-.23c0-2.9,0-5.35.07-7.12,0-.84,0-1.51,0-2a3.35,3.35,0,0,0,0-.72,3.36,3.36,0,0,0-.06.71c0,.51,0,1.18-.07,2,0,1.77-.12,4.22-.19,7.13l.21-.13c-2.23-1.14-4.8-2.49-7.52-3.94-4.47-2.39-8.52-4.54-11.49-6-1.49-.74-2.7-1.32-3.54-1.72-.4-.17-.72-.32-1-.44A2.55,2.55,0,0,0,77.2,79.15Z"/>
        <path class="cls-4" d="M102.82,95.47c.05.07.58-.18,1.19-.56s1.06-.75,1-.83-.58.17-1.19.56S102.77,95.39,102.82,95.47Z"/>
        <path class="cls-4" d="M102.32,93.77a14.63,14.63,0,0,0,1.42-2.83,15.4,15.4,0,0,0,1.13-3,14.72,14.72,0,0,0-1.42,2.82A15.62,15.62,0,0,0,102.32,93.77Z"/>
      </g>
      <g class="cls-9">
        <path d="M75.83,144.08s-4.69,5.36-7.47,8.84c-2.29,2.86-6.48,5.89-9.91,8.78l-.69,5.81c2.76-.55,6.48-3.74,8.35-5.84a41.42,41.42,0,0,0,5.21-6.76c2.51-4.5,6-8.82,6.85-13.9Z"/>
      </g>
    </g>
    <g>
      <path class="cls-8" d="M112.12,83s11-1.93,17.34,7.89,24.31,34.31,24.31,34.31l22.58-14.88,9.56,11.35s-16.51,22.77-27.35,27.56-22.5-8.37-22.5-8.37l-14.38-16.7Z"/>
      <path class="cls-4" d="M58.11,161.9a3.16,3.16,0,0,1,.46-.35c.31-.23.79-.52,1.37-1a50,50,0,0,0,4.7-4.09A137.76,137.76,0,0,0,78.38,140.3l0,.24-3-7.39c-1.27-3.09-2.5-6.09-3.66-8.9l.4.1-21.52,18.2a2.13,2.13,0,0,1,.36-.42c.25-.25.63-.62,1.14-1.08,1-.93,2.51-2.26,4.4-3.91,3.77-3.31,9.11-7.91,15.29-13.18l.27-.22.13.32c1.16,2.8,2.39,5.8,3.67,8.89,1,2.55,2.07,5,3,7.4l.06.13-.09.12a128.11,128.11,0,0,1-13.92,16.13,44.26,44.26,0,0,1-4.83,4c-.59.42-1.1.69-1.42.9A2.65,2.65,0,0,1,58.11,161.9Z"/>
      <path class="cls-4" d="M128.36,98.77a2.9,2.9,0,0,1,0,.54c0,.41,0,.93,0,1.55,0,1.35,0,3.3,0,5.71-.09,4.81-.38,11.46-.79,18.79s-.76,14-.94,18.78c-.09,2.35-.16,4.27-.21,5.69,0,.63,0,1.14-.07,1.55a1.88,1.88,0,0,1-.06.54,2.77,2.77,0,0,1,0-.54c0-.41,0-.92,0-1.55,0-1.35,0-3.29,0-5.7.09-4.82.38-11.46.79-18.8s.76-14,.94-18.78c.09-2.34.16-4.27.21-5.69,0-.62.05-1.14.07-1.55A2,2,0,0,1,128.36,98.77Z"/>
      <path class="cls-4" d="M154.24,138.15c-.15,0-.11-3-.3-6.63s-.5-6.61-.35-6.63a27.7,27.7,0,0,1,.87,6.6A27.33,27.33,0,0,1,154.24,138.15Z"/>
      <path class="cls-4" d="M176.59,110.14s.21.24.61.73l1.8,2.19,7,8.55.05,0-.05.06c-2.32,3.13-5.18,6.79-8.64,10.82a113.89,113.89,0,0,1-12.55,12.8l-2,1.55c-.67.51-1.41,1-2.13,1.45a15.21,15.21,0,0,1-4.88,2.14c-3.62.8-7.52-.3-10.91-2.2a35.81,35.81,0,0,1-9.33-7.73L127,130.87l.35-.13c-.27,9.08-.59,18.71-1,28.82q-.33,7.59-.68,15.53c-.29,5.29-.5,10.69-1.1,16.19v.15l-.14,0a42.79,42.79,0,0,1-7.82,1.55c-2.66.31-5.37.48-8.1.55-5.46.13-11,.12-16.71.05-11.34-.17-23.06-.6-35-1.26h-.17l0-.16a20,20,0,0,1-1.36-7.4c0-1.29.27-2.54.42-3.8l.51-3.81c.67-5.1,1.36-10.29,2-15.52l.42.24a21.28,21.28,0,0,1-4.47,2.68,16.18,16.18,0,0,1-6.56,1.4,10,10,0,0,1-3.33-.51,8.23,8.23,0,0,1-2.87-1.79A14.07,14.07,0,0,1,38,158a29,29,0,0,1-1.34-6.42,38.41,38.41,0,0,1,.82-12.85q1.24-6.27,2.46-12.42t2.43-12.19c.86-4,1.91-7.94,2.64-11.87a17.19,17.19,0,0,1,5.7-10.34,29.65,29.65,0,0,1,10.07-5.86h0L77.1,78.94l-.13.15c.73-2.78,1.43-5.46,2.11-8.11l.07-.23.21.07c4.08,1.43,7.63,3.59,11.25,5.36l10.73,5-.24,0,4.73-5.34.24-.26.11.33,1.92,5.73-.1-.12c.55.29,1.06.54,1.55.82l-.11,0a35.1,35.1,0,0,1,9.92.88,17.06,17.06,0,0,1,8.12,4.78,22.6,22.6,0,0,1,2.74,3.65c.81,1.25,1.65,2.46,2.46,3.66l4.81,6.92c6.26,8.89,11.8,16.53,16.37,22.82l-.16,0,17.05-11.16,4.37-2.85,1.47-.94s-.5.35-1.48,1l-4.35,2.91-16.93,11.23-.09.06-.06-.09c-4.6-6.27-10.17-13.89-16.46-22.77q-2.34-3.35-4.82-6.91c-.82-1.2-1.65-2.41-2.47-3.66a23,23,0,0,0-2.71-3.59,16.84,16.84,0,0,0-8-4.67,35.29,35.29,0,0,0-9.8-.84h-.06l-.05,0c-.48-.27-1-.51-1.53-.8l-.07,0,0-.07-1.93-5.73.35.07-4.73,5.35-.1.12-.15-.07-10.74-5c-3.63-1.78-7.22-3.94-11.17-5.32l.27-.16c-.68,2.65-1.38,5.33-2.1,8.11l0,.11-.1,0L60.92,86.5l-.09-.21c.11.45,0,.13,0,.23h-.06l-.07,0-.17.06-.33.12-.67.25c-.43.19-.88.37-1.31.57-.86.4-1.71.84-2.54,1.32A27.23,27.23,0,0,0,51,92.27a16.7,16.7,0,0,0-5.54,10.07c-.73,4-1.79,7.89-2.64,11.88s-1.6,8.08-2.42,12.18S38.8,134.64,38,138.81a38,38,0,0,0-.8,12.72,28.24,28.24,0,0,0,1.31,6.3,13.44,13.44,0,0,0,3.26,5.47A7.59,7.59,0,0,0,44.42,165a9.6,9.6,0,0,0,3.17.48,15.68,15.68,0,0,0,6.34-1.36,20.48,20.48,0,0,0,4.36-2.61l.5-.38-.09.62c-.69,5.23-1.37,10.42-2.05,15.52-.17,1.28-.34,2.54-.5,3.81s-.39,2.52-.42,3.75A19.65,19.65,0,0,0,57.05,192l-.23-.17c12,.66,23.69,1.09,35,1.27,5.66.07,11.23.09,16.69,0q4.08-.09,8.06-.54a42.15,42.15,0,0,0,7.7-1.51l-.15.19c.6-5.46.81-10.87,1.11-16.15s.47-10.47.7-15.52c.41-10.12.75-19.75,1-28.82l0-.51.33.39,8.52,9.7a35.82,35.82,0,0,0,9.21,7.67c3.34,1.88,7.16,3,10.68,2.18a14.82,14.82,0,0,0,4.78-2.08c.71-.49,1.44-.93,2.11-1.44l2-1.53a113.85,113.85,0,0,0,12.56-12.72c3.47-4,6.34-7.66,8.68-10.78v.11L179,113.14l-1.78-2.23C176.79,110.41,176.59,110.14,176.59,110.14Z"/>
    </g>
    <g>
      <path class="cls-4" d="M131,108.53,123.47,137a3.55,3.55,0,0,1-3.49,2.64l-39-.77a3.53,3.53,0,0,1-3.39-4.26l5.74-27.23a3.53,3.53,0,0,1,3.46-2.81h41.09A3.19,3.19,0,0,1,131,108.53Z"/>
      <g>
        <g>
          <path class="cls-10" d="M70.56,126.27l1.85-1.73s1.23-4.08,2-4.85a8.68,8.68,0,0,1,2.85-1.35l4.65-4.27-.84,3.81,6.75,0A1.9,1.9,0,0,1,89.65,119a.72.72,0,0,1,.06.37,2.46,2.46,0,0,1-1.35,1.77l-1,.45s1.42.42,1.59,1.66a2.11,2.11,0,0,1-1.4,2.28,1.86,1.86,0,0,1,.7,2.73s1.55,1.83.65,3.07-6,3.32-6,3.32l-2.84,1.28a4.79,4.79,0,0,1-2.13.12l-1.1.16-1.19,1S68.89,133.5,70.56,126.27Z"/>
          <path class="cls-11" d="M77.83,123.35a5.42,5.42,0,0,0,1.54,0,27.66,27.66,0,0,0,3.66-.5,27.09,27.09,0,0,0,3.57-1,5.3,5.3,0,0,0,1.41-.61c0-.11-2.25.62-5.06,1.18S77.83,123.23,77.83,123.35Z"/>
          <path class="cls-11" d="M76,128.67a45.1,45.1,0,0,0,5.85-1.37,45.78,45.78,0,0,0,5.75-1.76,43.19,43.19,0,0,0-5.85,1.37A43.28,43.28,0,0,0,76,128.67Z"/>
          <path class="cls-11" d="M76.52,132.65a7.45,7.45,0,0,0,1.88-.25,28.58,28.58,0,0,0,4.37-1.25,30.38,30.38,0,0,0,4.14-1.9,8.2,8.2,0,0,0,1.58-1,11,11,0,0,0-1.71.78c-1,.51-2.5,1.16-4.15,1.78s-3.18,1.06-4.3,1.35A10.77,10.77,0,0,0,76.52,132.65Z"/>
          <path class="cls-11" d="M75.26,127.5c.11,0-.1-.79.06-1.71s.59-1.55.5-1.63-.73.53-.9,1.57A2,2,0,0,0,75.26,127.5Z"/>
          <path class="cls-11" d="M75.19,122.6c.08-.08-.27-.5-.33-1.13s.19-1.1.09-1.17-.17,0-.3.27a1.62,1.62,0,0,0,.19,1.83C75,122.59,75.16,122.64,75.19,122.6Z"/>
          <path class="cls-11" d="M75.64,132.41c.09-.08-.17-.5-.33-1.06s-.18-1.06-.29-1.08-.3.53-.1,1.19S75.57,132.49,75.64,132.41Z"/>
        </g>
        <path class="cls-11" d="M86.08,117.87a25.08,25.08,0,0,1-4,.32,25,25,0,0,1-4,.23,11.07,11.07,0,0,1,3.92-.75A10.85,10.85,0,0,1,86.08,117.87Z"/>
      </g>
    </g>
  </g>
</svg>
