<svg id="Capa_1" data-name="Capa 1" xmlns="http://www.w3.org/2000/svg" xmlns:xlink="http://www.w3.org/1999/xlink" width="400" height="400" viewBox="0 0 400 400">
  <defs>
    <style>
      .cls-1, .cls-2, .cls-7 {
        fill: #8b82ca;
      }

      .cls-1, .cls-10, .cls-11, .cls-15, .cls-16, .cls-17, .cls-18, .cls-2, .cls-3, .cls-4, .cls-6 {
        stroke: #1a2e35;
      }

      .cls-1, .cls-10, .cls-11, .cls-6 {
        stroke-linecap: round;
        stroke-linejoin: round;
      }

      .cls-15, .cls-16, .cls-17, .cls-18, .cls-2, .cls-23, .cls-3, .cls-4 {
        stroke-miterlimit: 10;
      }

      .cls-20, .cls-3 {
        fill: #ed8433;
      }

      .cls-12, .cls-4, .cls-6 {
        fill: #091320;
      }

      .cls-5 {
        fill: #cfccd9;
      }

      .cls-8 {
        clip-path: url(#clip-path);
      }

      .cls-11, .cls-13, .cls-18, .cls-9 {
        fill: #fff;
      }

      .cls-9 {
        opacity: 0.2;
      }

      .cls-10, .cls-15, .cls-23 {
        fill: none;
      }

      .cls-14 {
        opacity: 0.3;
      }

      .cls-16 {
        fill: #f7ddc7;
      }

      .cls-17 {
        fill: #636363;
      }

      .cls-19 {
        clip-path: url(#clip-path-2);
      }

      .cls-21 {
        clip-path: url(#clip-path-3);
      }

      .cls-22 {
        clip-path: url(#clip-path-4);
      }

      .cls-23 {
        stroke: #787878;
      }

      .cls-24 {
        fill: #6558b8;
      }
    </style>
    <clipPath id="clip-path">
      <path class="cls-1" d="M141.11,356.54,61.54,377C56,378.2,51.4,374,51.4,367.6v-255c0-6.39,4.58-10.6,10.14-9.43l79.57,18.34c4.08.86,7.34,5.89,7.34,11.25v212.5C148.45,350.65,145.19,355.68,141.11,356.54Z"/>
    </clipPath>
    <clipPath id="clip-path-2">
      <path class="cls-2" d="M287.81,179.76s-17.65,3.56-21.83,6-6.19,11.91-9.75,18.41-10.52,9.91-13.46,14.55-2.48,13.47,2.17,15.48,5.88,2,9.44-.78,9.59-9,9.59-9,2.79,4.8,3.72,5.88l.93,1.08a50.7,50.7,0,0,0-6.81,15.79c-2.48,9.75-7.43,21.82-3.25,39.31s12.22,32.65,15,45a170.32,170.32,0,0,1,3.87,28.63c.46,7.28-.93,14.8.31,16.65s8.47,4.59,11.72,2.58,2.67-2.89,3.29-5.36,4.33-24.7,4.33-24.7,3.07,8.22,5.23,12.87,4.34,7.42,7.89,6.65,5.11-3.25,5.11-5.73,1.74-22.15-2.13-32.36-7.9-14.55-8.67-18.42a14.31,14.31,0,0,1,3.4-11.6c2.64-2.79,13.47-16.72,14.71-27.86s-2-21.05-4.18-26.93-6.66-8.36-3.87-17.49,7.74-23.21,8.82-31.11-1.24-10.36-7.12-13.15S298.64,177.44,287.81,179.76Z"/>
    </clipPath>
    <clipPath id="clip-path-3">
      <path class="cls-3" d="M323.4,197.4c1.08-7.89-1.24-10.36-7.12-13.15s-17.64-6.81-28.47-4.49c0,0-17.65,3.56-21.83,6s-6.19,11.91-9.75,18.41-10.52,9.91-13.46,14.55-2.48,13.47,2.17,15.48,5.88,2,9.44-.78,9.59-9,9.59-9,2.79,4.8,3.72,5.88l.93,1.08a50.7,50.7,0,0,0-6.81,15.79c-.41,1.59-.88,3.25-1.37,5,5.76,2.54,21.23,8.39,36.81,5.7,11.81-2.05,18.86-5.44,22.62-7.81-.49-1.52-1-2.91-1.42-4.11-2.17-5.88-6.66-8.36-3.87-17.49S322.32,205.3,323.4,197.4Z"/>
    </clipPath>
    <clipPath id="clip-path-4">
      <path class="cls-4" d="M287.19,131.48s-7.9.46-9.29,7.11,6.35,15,9.91,20.12-.31,10.06-3.41,16.1-3.4,15.63,6.66,20.27,21.2,1.86,26.46-6,3.87-15.79.93-21.36-4.95-6-3.72-11,.78-10.37-2.32-17S297.25,129.15,287.19,131.48Z"/>
    </clipPath>
  </defs>
  <path class="cls-5" d="M200,386.27c103.87,0,188.08-84.21,188.08-188.09S303.87,10.1,200,10.1v70a118.07,118.07,0,0,1,0,236.13Z"/>
  <g>
    <path class="cls-6" d="M137,356.54,60.18,377.67c-5.56,1.18-12.94-3.68-12.94-10.07v-255c0-6.39,4.32-11.12,12.52-9.42L137,121.54c4.08.86,7.34,5.89,7.34,11.25v212.5C144.3,350.65,141,355.68,137,356.54Z"/>
    <g>
      <path class="cls-7" d="M141.11,356.54,61.54,377C56,378.2,51.4,374,51.4,367.6v-255c0-6.39,4.58-10.6,10.14-9.43l79.57,18.34c4.08.86,7.34,5.89,7.34,11.25v212.5C148.45,350.65,145.19,355.68,141.11,356.54Z"/>
      <g class="cls-8">
        <path class="cls-9" d="M62.09,103.32c-5.86-1.24-10.69,3.21-10.69,10V367a10.38,10.38,0,0,0,3.88,8.57l65.43-259.85Z"/>
        <path class="cls-10" d="M112.49,357.45c0-2.42-1.58-4.07-3.55-3.69s-3.58,2.66-3.58,5.1,1.61,4.09,3.58,3.68S112.49,359.86,112.49,357.45Z"/>
      </g>
      <path class="cls-10" d="M141.11,356.54,61.54,377C56,378.2,51.4,374,51.4,367.6v-255c0-6.39,4.58-10.6,10.14-9.43l79.57,18.34c4.08.86,7.34,5.89,7.34,11.25v212.5C148.45,350.65,145.19,355.68,141.11,356.54Z"/>
    </g>
    <polygon class="cls-11" points="144.48 341.96 56.96 361.72 56.96 120.86 144.48 138.11 144.48 341.96"/>
    <path class="cls-12" d="M105.86,293.65a192.3,192.3,0,0,0-30.14,63.84L136,343.87A124.28,124.28,0,0,1,144.48,310V253.17A232.28,232.28,0,0,0,105.86,293.65Z"/>
    <path class="cls-12" d="M57,120.86V266.93c12.29-18.8,30.42-38.17,54.4-66.09,19.18-22.31,28.57-38.45,33.12-49.39V138.11Z"/>
    <g>
      <g>
        <polygon class="cls-13" points="141.67 144.71 134.72 143.53 134.72 138.49 141.67 139.72 141.67 144.71"/>
        <polygon class="cls-12" points="139.54 143.48 135.33 142.86 135.33 139.45 139.54 140.11 139.54 143.48"/>
        <polygon class="cls-13" points="142.62 143.48 141.66 143.31 141.66 141.12 142.62 141.29 142.62 143.48"/>
      </g>
      <g>
        <polygon class="cls-13" points="61.2 125.89 59.49 125.59 59.49 128.91 61.2 129.2 61.2 125.89"/>
        <polygon class="cls-13" points="63.85 125.19 62.16 124.89 62.16 129.37 63.85 129.65 63.85 125.19"/>
        <polygon class="cls-13" points="66.48 124.3 64.81 124 64.81 129.82 66.48 130.1 66.48 124.3"/>
      </g>
    </g>
  </g>
  <g>
    <ellipse class="cls-14" cx="361.75" cy="364.58" rx="28.59" ry="7.61"/>
    <g>
      <g>
        <g>
          <path class="cls-7" d="M342.16,342.61s-21.1-37.06-16.24-46.48,17.32,7.54,17.32,7.54-10.82-34.55-4.87-49.62,16.23,0,16.77,10.67-2.16,28.9-2.16,28.9,4.32-37.69,14.6-26.38-13,49-13,49,15.69-8.79,15.15,2.51-18.94,21.36-18.94,21.36"/>
          <path class="cls-15" d="M342.34,335.7s-19.53-18.21-10-26.38,14.52,8.79,14.52,8.79-10.51-52.13,6.51-54,4.51,45.22,4.51,45.22,14.52-20.1,13.52-3.77-22.54,30.15-22.54,30.15"/>
        </g>
        <line class="cls-15" x1="351.93" y1="332.39" x2="338.73" y2="318.09"/>
        <line class="cls-15" x1="349.18" y1="333.49" x2="352.75" y2="291.69"/>
        <line class="cls-15" x1="348.63" y1="330.46" x2="360.45" y2="314.79"/>
      </g>
      <path class="cls-12" d="M365.73,327.55h-36.5l2.41,28.5a15.89,15.89,0,0,0,15.84,14.55h0a15.89,15.89,0,0,0,15.83-14.55Z"/>
    </g>
  </g>
  <g>
    <ellipse class="cls-14" cx="299.72" cy="379.84" rx="43.9" ry="11.68"/>
    <g>
      <path class="cls-16" d="M275.52,165.82s-4.82,2.29-5.3,3.5-1.45,3.73-1.45,3.73-5.66.37-7.11,1.09-2.41,1.81-2.29,4.58,2.05,9.52,1.21,10.85a134.71,134.71,0,0,1-10.25,14.7c-5.9,7.35-7.47,8.68-8.55,14.22s-1.33,8.56-.12,10,4.09.12,8.43-3.38,6.39-1.2,11.33-11,5.55-20.49,7.6-22.54,6.14-5.18,6.87-7.59,1.68-6.87,3.37-8.31,2.29-3.5.6-3.26a4.65,4.65,0,0,0-3.61,2.41,17.6,17.6,0,0,1-2.9,3.26s-.24-4.22-.12-5.07,4.22-5.18,4.83-5.06,2.77.48,2.29-.72S277.33,165,275.52,165.82Z"/>
      <path class="cls-17" d="M323.09,193.69s-.62,24.45-2,30.8-2.17,7.43-4.49,8.35a17.54,17.54,0,0,1-6,.93c-.78,0,.92-9.75,4.33-19.81S323.09,193.69,323.09,193.69Z"/>
      <path class="cls-16" d="M254.05,238.27a6,6,0,0,0,3.87.25c1.8-.64,5-3.42,6.64-4.77s6.33-.13,6.52-.06,2.77-1,.19-6.33-6.9-4.45-9.93-2.45-7.55,7.36-8.84,8.32a12.1,12.1,0,0,1-3.29,1.55S252.63,237.3,254.05,238.27Z"/>
      <g>
        <path class="cls-4" d="M277.68,373.78s-7.23,1.61-10.87,1.21-5.66.46-6.13,2.25.58,3.94,7.06,6.59,15.6,5.15,18.44,4.86,4.1-.58,4.85-4.16a68,68,0,0,0,.81-10S281.78,376.26,277.68,373.78Z"/>
        <path class="cls-18" d="M291,384.62a15.63,15.63,0,0,1-3.45,1.53c-3.18,1-6.53-.06-16.18-2.89-7.55-2.22-10-4.86-10.72-5.9-.39,1.77.74,3.87,7.08,6.47s15.6,5.15,18.44,4.86S290.26,388.11,291,384.62Z"/>
      </g>
      <g>
        <path class="cls-4" d="M303.53,363.67s-3.81-.23-4.68.87.75,4.45,3.47,6.64,4.39,2.66,5.32,4.92,5.49,2.37,7.4,1.27,1.62-4,1.15-6.82-1.21-6.42-1.21-6.42-5,2.14-7.17,1A17.62,17.62,0,0,0,303.53,363.67Z"/>
        <path class="cls-18" d="M308.56,374.83c-1.38-2.43-3.18-2.78-6.07-5.15a10.42,10.42,0,0,1-3.24-5.47,1.47,1.47,0,0,0-.4.33c-.87,1.09.75,4.45,3.47,6.64s4.39,2.66,5.32,4.92,5.49,2.37,7.4,1.27c1.34-.78,1.59-2.44,1.46-4.35a20.46,20.46,0,0,1-1.17,1.75C313.88,376.68,310,377.25,308.56,374.83Z"/>
      </g>
      <g>
        <g>
          <path class="cls-7" d="M287.81,179.76s-17.65,3.56-21.83,6-6.19,11.91-9.75,18.41-10.52,9.91-13.46,14.55-2.48,13.47,2.17,15.48,5.88,2,9.44-.78,9.59-9,9.59-9,2.79,4.8,3.72,5.88l.93,1.08a50.7,50.7,0,0,0-6.81,15.79c-2.48,9.75-7.43,21.82-3.25,39.31s12.22,32.65,15,45a170.32,170.32,0,0,1,3.87,28.63c.46,7.28-.93,14.8.31,16.65s8.47,4.59,11.72,2.58,2.67-2.89,3.29-5.36,4.33-24.7,4.33-24.7,3.07,8.22,5.23,12.87,4.34,7.42,7.89,6.65,5.11-3.25,5.11-5.73,1.74-22.15-2.13-32.36-7.9-14.55-8.67-18.42a14.31,14.31,0,0,1,3.4-11.6c2.64-2.79,13.47-16.72,14.71-27.86s-2-21.05-4.18-26.93-6.66-8.36-3.87-17.49,7.74-23.21,8.82-31.11-1.24-10.36-7.12-13.15S298.64,177.44,287.81,179.76Z"/>
          <g class="cls-19">
            <path class="cls-14" d="M316.28,184.25c-5.88-2.79-17.64-6.81-28.47-4.49l-.64.13-2.73,3.73S268,188,268,194.77s3.87,9.21.48,13.08c-2.9,3.32-20,16.56-25.46,24.87a5.15,5.15,0,0,0,1.95,1.52c4.64,2,5.88,2,9.44-.78s9.59-9,9.59-9,2.79,4.8,3.72,5.88l.93,1.08s-.59.82-1.45,2.33c.88,1.3,4.85,7.65,2.25,12.85-2.91,5.81-5.33,33.44.49,54.76s13.57,40.22,12.6,52.34c-.64,8-1.29,19.49-2.49,24.79,2.75,1.37,7.12,2.36,9.45.92,3.25-2,2.67-2.89,3.29-5.36s4.33-24.7,4.33-24.7l.18.33c1-3,2.68-8.84,2.68-12.94,0,0,7.87,13.9,7.38,24.08a54.42,54.42,0,0,0,.18,7.89,4.61,4.61,0,0,0,2.7.16c3.56-.77,5.11-3.25,5.11-5.73s1.74-22.15-2.13-32.36-7.9-14.55-8.67-18.42a14.31,14.31,0,0,1,3.4-11.6c2.64-2.79,13.47-16.72,14.71-27.86s-2-21.05-4.18-26.93-6.66-8.36-3.87-17.49,7.74-23.21,8.82-31.11S322.16,187,316.28,184.25Z"/>
          </g>
          <path class="cls-15" d="M287.81,179.76s-17.65,3.56-21.83,6-6.19,11.91-9.75,18.41-10.52,9.91-13.46,14.55-2.48,13.47,2.17,15.48,5.88,2,9.44-.78,9.59-9,9.59-9,2.79,4.8,3.72,5.88l.93,1.08a50.7,50.7,0,0,0-6.81,15.79c-2.48,9.75-7.43,21.82-3.25,39.31s12.22,32.65,15,45a170.32,170.32,0,0,1,3.87,28.63c.46,7.28-.93,14.8.31,16.65s8.47,4.59,11.72,2.58,2.67-2.89,3.29-5.36,4.33-24.7,4.33-24.7,3.07,8.22,5.23,12.87,4.34,7.42,7.89,6.65,5.11-3.25,5.11-5.73,1.74-22.15-2.13-32.36-7.9-14.55-8.67-18.42a14.31,14.31,0,0,1,3.4-11.6c2.64-2.79,13.47-16.72,14.71-27.86s-2-21.05-4.18-26.93-6.66-8.36-3.87-17.49,7.74-23.21,8.82-31.11-1.24-10.36-7.12-13.15S298.64,177.44,287.81,179.76Z"/>
        </g>
        <path class="cls-15" d="M307.28,279.59l-7.16,2.49s-6.08,15-6.23,22.74,7,17.91,6.07,29.13-2.87,15.43-2.87,15.43"/>
        <g>
          <path class="cls-15" d="M282.1,375.73a7,7,0,0,1-.81,2.27"/>
          <path class="cls-15" d="M267,290c.29,1.82.63,3.62,1,5.38,4.08,17.32,8.16,29.21,11.89,43.48,2.37,9,3.1,24.59,2.8,31.28"/>
          <path class="cls-15" d="M266.69,256.36a146.65,146.65,0,0,0-.43,27.52"/>
        </g>
      </g>
      <g>
        <path class="cls-20" d="M323.4,197.4c1.08-7.89-1.24-10.36-7.12-13.15s-17.64-6.81-28.47-4.49c0,0-17.65,3.56-21.83,6s-6.19,11.91-9.75,18.41-10.52,9.91-13.46,14.55-2.48,13.47,2.17,15.48,5.88,2,9.44-.78,9.59-9,9.59-9,2.79,4.8,3.72,5.88l.93,1.08a50.7,50.7,0,0,0-6.81,15.79c-.41,1.59-.88,3.25-1.37,5,5.76,2.54,21.23,8.39,36.81,5.7,11.81-2.05,18.86-5.44,22.62-7.81-.49-1.52-1-2.91-1.42-4.11-2.17-5.88-6.66-8.36-3.87-17.49S322.32,205.3,323.4,197.4Z"/>
        <g class="cls-21">
          <path class="cls-14" d="M316.28,184.25c-5.88-2.79-17.64-6.81-28.47-4.49l-.64.13-2.73,3.73S268,188,268,194.77s3.87,9.21.48,13.08c-2.9,3.32-20,16.56-25.46,24.87a5.15,5.15,0,0,0,1.95,1.52c4.64,2,5.88,2,9.44-.78s9.59-9,9.59-9,2.79,4.8,3.72,5.88l.93,1.08s-.59.82-1.45,2.33c.88,1.3,4.85,7.65,2.25,12.85-2.91,5.81-5.33,33.44.49,54.76s13.57,40.22,12.6,52.34a133.73,133.73,0,0,1-2.49,19c2.75,1.36,7.12,2.36,9.45.92,3.25-2,2.67-2.89,3.29-5.37s4.33-18.88,4.33-18.88l.18.33c1-3,2.68-8.84,2.68-12.94,0,0,11.15,17.44,10.66,27.62a54.25,54.25,0,0,0,.18,7.88,4.63,4.63,0,0,0,2.71.17c3.56-.77,5.1-3.25,5.1-5.73s-1.54-25.69-5.41-35.9-7.9-14.55-8.67-18.42a14.31,14.31,0,0,1,3.4-11.6c2.64-2.79,13.47-16.72,14.71-27.86s-2-21.05-4.18-26.93-6.66-8.36-3.87-17.49,7.74-23.21,8.82-31.11S322.16,187,316.28,184.25Z"/>
          <polyline class="cls-15" points="276.35 211.95 263.97 224.49 276.97 215.98"/>
          <path class="cls-15" d="M306.22,207.93s-5.57,15.32-11.6,21.36"/>
          <path class="cls-15" d="M307.46,212.73s-8.36,15.63-12.84,20.89"/>
        </g>
        <path class="cls-15" d="M323.4,197.4c1.08-7.89-1.24-10.36-7.12-13.15s-17.64-6.81-28.47-4.49c0,0-17.65,3.56-21.83,6s-6.19,11.91-9.75,18.41-10.52,9.91-13.46,14.55-2.48,13.47,2.17,15.48,5.88,2,9.44-.78,9.59-9,9.59-9,2.79,4.8,3.72,5.88l.93,1.08a50.7,50.7,0,0,0-6.81,15.79c-.41,1.59-.88,3.25-1.37,5,5.76,2.54,21.23,8.39,36.81,5.7,11.81-2.05,18.86-5.44,22.62-7.81-.49-1.52-1-2.91-1.42-4.11-2.17-5.88-6.66-8.36-3.87-17.49S322.32,205.3,323.4,197.4Z"/>
      </g>
      <g>
        <path class="cls-18" d="M243.53,233.17s-1.42-.65-1.29.52,2.26,2.7,3.23,3.41a3.12,3.12,0,0,0,2.32.46C248.24,237.56,243.53,233.17,243.53,233.17Z"/>
        <path class="cls-18" d="M245.79,233.69s-2.13-2.13-2.45-1.36,1,2.52,2.64,4.19a4.31,4.31,0,0,0,4.33,1.42c.77-.32-1.29-2.32-2.13-3.16A5.07,5.07,0,0,0,245.79,233.69Z"/>
        <path class="cls-18" d="M248,233.3s-2.9-3.23-3.22-2.45.77,2.77,2.32,4.51,2.71,2.71,3.68,2.78a6.69,6.69,0,0,0,2.51-.71Z"/>
        <path class="cls-18" d="M256.08,238.42a10.15,10.15,0,0,1-4-.62c-1.86-.78-4.34-4.18-5-5.73s.93-3.25,2.32-1.08,5.42,4.95,5.42,4.95"/>
      </g>
      <g>
        <g>
          <path class="cls-16" d="M280.38,144.48a37,37,0,0,1-1.71,5c-.92,2-4,.62-4.79,3.4s.62,4,.62,4.49-.31,9.91,1.7,13,8.36,1.39,8.36,1.39-.16,8.52.15,9.6,2.63,2.32,7.58,2.32,7.9-3.71,7.9-8.2-2.94-9.91-1.24-17.18,4.49-11.61-.31-16.1S282.54,139.68,280.38,144.48Z"/>
          <path class="cls-12" d="M279.89,151.46c-.11.81-.44,1.44-.73,1.4s-.43-.74-.31-1.55.44-1.44.73-1.39S280,150.65,279.89,151.46Z"/>
          <path class="cls-15" d="M275.38,160.58s1.41,1.41,3.28-.31"/>
        </g>
        <g>
          <path class="cls-12" d="M287.19,131.48s-7.9.46-9.29,7.11,6.35,15,9.91,20.12-.31,10.06-3.41,16.1-3.4,15.63,6.66,20.27,21.2,1.86,26.46-6,3.87-15.79.93-21.36-4.95-6-3.72-11,.78-10.37-2.32-17S297.25,129.15,287.19,131.48Z"/>
          <g class="cls-22">
            <path class="cls-23" d="M287.19,131.48s-8.08,8.53-1.29,17.73,16.48,15,16,27.63S288.81,187,294.14,202"/>
            <path class="cls-23" d="M298.5,128.38s-2.42,15,2.91,21.32S316,170.05,313,179.75s-7.27,15-1.46,17"/>
            <path class="cls-23" d="M311.58,136.13a16.26,16.26,0,0,0-.48,15c3.88,8.24,10.18,20.84,8.72,30.53s-5.81,15-5.81,15"/>
          </g>
          <path class="cls-15" d="M287.19,131.48s-7.9.46-9.29,7.11,6.35,15,9.91,20.12-.31,10.06-3.41,16.1-3.4,15.63,6.66,20.27,21.2,1.86,26.46-6,3.87-15.79.93-21.36-4.95-6-3.72-11,.78-10.37-2.32-17S297.25,129.15,287.19,131.48Z"/>
        </g>
      </g>
    </g>
  </g>
  <g>
    <line class="cls-15" x1="126.22" y1="91.24" x2="120.42" y2="111.99"/>
    <line class="cls-15" x1="175.12" y1="132.46" x2="152.07" y2="143.63"/>
    <line class="cls-15" x1="182.8" y1="192.53" x2="154.16" y2="196.02"/>
    <line class="cls-15" x1="152.76" y1="263.78" x2="166.04" y2="269.37"/>
    <g>
      <g>
        <g>
          <path class="cls-24" d="M132.27,63.77V62.16a1.83,1.83,0,0,0-1.83-1.82H118.12a1.83,1.83,0,0,0-1.82,1.82v1.61h-2.51a1.6,1.6,0,0,0-1.6,1.6V83.62a1.6,1.6,0,0,0,1.6,1.6h28.74a1.6,1.6,0,0,0,1.6-1.6V65.37a1.6,1.6,0,0,0-1.6-1.6Z"/>
          <path class="cls-24" d="M142.53,85.73H113.79a2.12,2.12,0,0,1-2.11-2.11V65.37a2.12,2.12,0,0,1,2.11-2.11h2v-1.1a2.34,2.34,0,0,1,2.34-2.33h12.31a2.34,2.34,0,0,1,2.34,2.33v1.1h9.75a2.11,2.11,0,0,1,2.11,2.11V83.62A2.11,2.11,0,0,1,142.53,85.73ZM113.79,64.28a1.09,1.09,0,0,0-1.09,1.09V83.62a1.09,1.09,0,0,0,1.09,1.09h28.74a1.09,1.09,0,0,0,1.09-1.09V65.37a1.09,1.09,0,0,0-1.09-1.09H131.76V62.16a1.32,1.32,0,0,0-1.32-1.31H118.13a1.32,1.32,0,0,0-1.32,1.31v2.12Z"/>
        </g>
        <g>
          <circle class="cls-12" cx="126.79" cy="73.81" r="8.21" transform="translate(-13.52 30.96) rotate(-13.22)"/>
          <path class="cls-13" d="M126.79,82.53a8.72,8.72,0,1,1,8.73-8.72A8.73,8.73,0,0,1,126.79,82.53Zm0-16.42a7.7,7.7,0,1,0,7.71,7.7A7.71,7.71,0,0,0,126.79,66.11Z"/>
        </g>
        <circle class="cls-13" cx="138.66" cy="67.65" r="2.51"/>
      </g>
      <g>
        <line class="cls-15" x1="150.45" y1="64.43" x2="172.07" y2="64.43"/>
        <line class="cls-15" x1="150.45" y1="68.81" x2="172.07" y2="68.81"/>
        <line class="cls-15" x1="150.45" y1="73.2" x2="172.07" y2="73.2"/>
        <line class="cls-15" x1="150.45" y1="77.59" x2="172.07" y2="77.59"/>
      </g>
    </g>
    <g>
      <g>
        <g>
          <path class="cls-24" d="M192.7,101.9h-2.11V98.55h-7.17v3.35h-2.1a2.13,2.13,0,0,0-2.14,2.13V129.7a2.13,2.13,0,0,0,2.14,2.13H192.7a2.13,2.13,0,0,0,2.13-2.13V104A2.13,2.13,0,0,0,192.7,101.9Z"/>
          <path class="cls-24" d="M192.7,132.34H181.32a2.65,2.65,0,0,1-2.65-2.64V104a2.65,2.65,0,0,1,2.65-2.64h1.59V98h8.19v3.35h1.6a2.64,2.64,0,0,1,2.64,2.64V129.7A2.64,2.64,0,0,1,192.7,132.34Zm-11.38-29.93a1.63,1.63,0,0,0-1.63,1.62V129.7a1.63,1.63,0,0,0,1.63,1.62H192.7a1.63,1.63,0,0,0,1.62-1.62V104a1.63,1.63,0,0,0-1.62-1.62h-2.62V99.06h-6.15v3.35Z"/>
        </g>
        <g>
          <rect class="cls-12" x="180.88" y="105.14" width="12.26" height="23.46" rx="2.09"/>
          <path class="cls-13" d="M191,129.1h-8a2.64,2.64,0,0,1-2.64-2.64V107.27a2.65,2.65,0,0,1,2.64-2.65h8a2.65,2.65,0,0,1,2.64,2.65v19.19A2.64,2.64,0,0,1,191,129.1Zm-8-23.45a1.61,1.61,0,0,0-1.62,1.62v19.19a1.61,1.61,0,0,0,1.62,1.62h8a1.62,1.62,0,0,0,1.62-1.62V107.27a1.62,1.62,0,0,0-1.62-1.62Z"/>
        </g>
        <rect class="cls-13" x="180.7" y="109.54" width="12.55" height="1.02"/>
        <rect class="cls-13" x="180.7" y="113.89" width="12.55" height="1.02"/>
        <rect class="cls-13" x="180.7" y="118.23" width="12.55" height="1.02"/>
        <rect class="cls-13" x="180.7" y="122.58" width="12.55" height="1.02"/>
        <polygon class="cls-13" points="184.32 107.4 182.88 114.87 186.26 114.87 184.57 121.1 186.98 121.1 185.53 126.71 191.57 118.3 188.67 118.3 191.32 112.69 186.98 112.69 187.94 107.4 184.32 107.4"/>
      </g>
      <g>
        <line class="cls-15" x1="203.72" y1="110.49" x2="225.34" y2="110.49"/>
        <line class="cls-15" x1="203.72" y1="114.88" x2="225.34" y2="114.88"/>
        <line class="cls-15" x1="203.72" y1="119.26" x2="225.34" y2="119.26"/>
        <line class="cls-15" x1="203.72" y1="123.65" x2="225.34" y2="123.65"/>
      </g>
    </g>
    <g>
      <g>
        <path class="cls-24" d="M206.28,175.89l.26-.46a13.05,13.05,0,0,0-.94-1c-5.58-2.54-11.1-.78-13,0-.21.2-.4.41-.59.63l.3.61C192.33,175.62,199.61,172.08,206.28,175.89Z"/>
        <path class="cls-24" d="M209.55,181a18.2,18.2,0,0,0-.82-2.07,14.59,14.59,0,0,0-8.95-3.21c-4.24,0-8.41,2.19-10.47,3.47-.24.53-.45,1.08-.65,1.65.69-.49,6-4.1,11.12-4.1A14,14,0,0,1,209.55,181Z"/>
        <path class="cls-24" d="M190,195c0-.06-2.58-5.56.72-10.76a10.89,10.89,0,0,1,7.4-5,8.87,8.87,0,0,1,6.37.9,21.37,21.37,0,0,1,4,4.32,19.46,19.46,0,0,0,2.12,2.47c0-.55-.07-1.09-.13-1.62-.38-.44-.77-.94-1.18-1.48a22.73,22.73,0,0,0-4.24-4.51c-1.28-1-4-1.66-7.16-1.09a11.9,11.9,0,0,0-8.08,5.47,12.8,12.8,0,0,0-.78,11.75Z"/>
        <path class="cls-24" d="M209.43,188.13a16.6,16.6,0,0,1-1.16-1.75c-1.49-2.42-3.33-5.44-8.74-5.44a7.5,7.5,0,0,0-6,2.52c-2.06,2.39-2.4,5.86-2,8.31a6.07,6.07,0,0,1-2,5.54c.15.31.31.61.48.91a7.14,7.14,0,0,0,2.57-6.6,9.65,9.65,0,0,1,1.79-7.49,6.52,6.52,0,0,1,5.2-2.17c4.84,0,6.38,2.52,7.86,4.95a19.38,19.38,0,0,0,1.24,1.86,6.47,6.47,0,0,0,1.91,1.66c0-.37.08-.75.1-1.14A5.61,5.61,0,0,1,209.43,188.13Z"/>
        <path class="cls-24" d="M205.67,188.21c-.27-.52-.49-1-.71-1.3-1-1.45-3.24-4.84-7.87-2.93-3.65,1.5-3.3,5.32-3,8.7.09,1,.17,1.9.17,2.77a6.24,6.24,0,0,1-2.89,4.88c.21.27.44.53.67.78a7.13,7.13,0,0,0,3.24-5.66c0-.92-.09-1.91-.17-2.87-.31-3.31-.59-6.44,2.36-7.66,3.86-1.59,5.59,1,6.63,2.56.19.29.4.71.65,1.19a14.06,14.06,0,0,0,4.93,6c.11-.34.2-.69.29-1A13.41,13.41,0,0,1,205.67,188.21Z"/>
        <path class="cls-24" d="M204.89,192.59a6,6,0,0,1-1.19-2.1,7.49,7.49,0,0,0-2.35-3.44,2.49,2.49,0,0,0-2.83-.33c-1.48.8-2.42,3-2.25,5.27.22,2.83,6.51,7.84,9.15,9.83.24-.23.48-.48.72-.73-3.07-2.31-8.68-7-8.85-9.18-.14-1.85.59-3.69,1.71-4.29a1.49,1.49,0,0,1,1.72.23,6.48,6.48,0,0,1,2,3,6.86,6.86,0,0,0,1.42,2.43,46.83,46.83,0,0,0,4.65,3.64q.23-.47.42-1A44.15,44.15,0,0,1,204.89,192.59Z"/>
        <path class="cls-24" d="M199.27,189.73c.22,3.51,5.79,8.59,7.75,10.28.21-.27.4-.55.59-.84-2.51-2.16-7.14-6.71-7.32-9.5Z"/>
        <path class="cls-24" d="M200.65,199.75c-.75-.87-1.34-1.57-2.37-1.57-1.56,0-4,2.64-5.1,4a9.65,9.65,0,0,0,.81.62c1.41-1.68,3.38-3.61,4.29-3.61.54,0,.9.39,1.6,1.21a14.16,14.16,0,0,0,3.35,3,11,11,0,0,0,1-.6A13.06,13.06,0,0,1,200.65,199.75Z"/>
        <path class="cls-24" d="M201.47,204.15c-.74-1.1-1.95-2.73-2.81-3-1-.26-2,1.35-2.54,2.75a9.32,9.32,0,0,0,1,.3c.48-1.09,1-2,1.3-2.06a7.29,7.29,0,0,1,2,2.2A7.69,7.69,0,0,0,201.47,204.15Z"/>
      </g>
      <g>
        <line class="cls-15" x1="216.57" y1="182.56" x2="238.19" y2="182.56"/>
        <line class="cls-15" x1="216.57" y1="186.95" x2="238.19" y2="186.95"/>
        <line class="cls-15" x1="216.57" y1="191.34" x2="238.19" y2="191.34"/>
        <line class="cls-15" x1="216.57" y1="195.72" x2="238.19" y2="195.72"/>
      </g>
    </g>
    <g>
      <g>
        <g>
          <rect class="cls-24" x="169.08" y="272.2" width="21.63" height="21.63" rx="1.79"/>
          <path class="cls-12" d="M189,294.3H170.77a2.17,2.17,0,0,1-2.17-2.17V273.89a2.18,2.18,0,0,1,2.17-2.17H189a2.17,2.17,0,0,1,2.17,2.17v18.24A2.17,2.17,0,0,1,189,294.3Zm-18.24-21.63a1.22,1.22,0,0,0-1.22,1.22v18.24a1.22,1.22,0,0,0,1.22,1.22H189a1.22,1.22,0,0,0,1.22-1.22V273.89a1.22,1.22,0,0,0-1.22-1.22Z"/>
        </g>
        <g>
          <rect class="cls-24" x="173.74" y="276.86" width="12.3" height="12.3"/>
          <path class="cls-13" d="M186.52,289.64H173.27V276.39h13.25Zm-12.3-.95h11.35V277.34H174.22Z"/>
        </g>
        <g>
          <rect class="cls-12" x="172.42" y="263.51" width="0.95" height="6.64"/>
          <rect class="cls-12" x="175.81" y="263.51" width="0.95" height="6.64"/>
          <rect class="cls-12" x="179.2" y="263.51" width="0.95" height="6.64"/>
          <rect class="cls-12" x="182.6" y="263.51" width="0.95" height="6.64"/>
          <rect class="cls-12" x="185.99" y="263.51" width="0.95" height="6.64"/>
        </g>
        <g>
          <rect class="cls-12" x="172.42" y="295.35" width="0.95" height="6.64"/>
          <rect class="cls-12" x="175.81" y="295.35" width="0.95" height="6.64"/>
          <rect class="cls-12" x="179.2" y="295.35" width="0.95" height="6.64"/>
          <rect class="cls-12" x="182.6" y="295.35" width="0.95" height="6.64"/>
          <rect class="cls-12" x="185.99" y="295.35" width="0.95" height="6.64"/>
        </g>
        <g>
          <rect class="cls-12" x="192.28" y="275.49" width="6.64" height="0.95"/>
          <rect class="cls-12" x="192.28" y="278.88" width="6.64" height="0.95"/>
          <rect class="cls-12" x="192.28" y="282.27" width="6.64" height="0.95"/>
          <rect class="cls-12" x="192.28" y="285.67" width="6.64" height="0.95"/>
          <rect class="cls-12" x="192.28" y="289.06" width="6.64" height="0.95"/>
        </g>
        <g>
          <rect class="cls-12" x="160.44" y="275.49" width="6.64" height="0.95"/>
          <rect class="cls-12" x="160.44" y="278.88" width="6.64" height="0.95"/>
          <rect class="cls-12" x="160.44" y="282.27" width="6.64" height="0.95"/>
          <rect class="cls-12" x="160.44" y="285.67" width="6.64" height="0.95"/>
          <rect class="cls-12" x="160.44" y="289.06" width="6.64" height="0.95"/>
        </g>
      </g>
      <g>
        <line class="cls-15" x1="204.97" y1="276.57" x2="226.6" y2="276.57"/>
        <line class="cls-15" x1="204.97" y1="280.96" x2="226.6" y2="280.96"/>
        <line class="cls-15" x1="204.97" y1="285.34" x2="226.6" y2="285.34"/>
        <line class="cls-15" x1="204.97" y1="289.73" x2="226.6" y2="289.73"/>
      </g>
    </g>
  </g>
</svg>
