<svg id="Capa_1" data-name="Capa 1" xmlns="http://www.w3.org/2000/svg" width="400" height="400" viewBox="0 0 400 400">
  <defs>
    <style>
      .cls-1 {
        fill: #9f99b3;
      }

      .cls-2 {
        opacity: 0.2;
      }

      .cls-3 {
        fill: #3e2ea6;
      }

      .cls-4 {
        fill: #ececec;
      }

      .cls-5 {
        fill: #fff;
      }

      .cls-6 {
        fill: #e1e1e1;
      }

      .cls-7 {
        fill: #fafafa;
      }

      .cls-8 {
        fill: #f5f5f5;
      }

      .cls-9 {
        fill: #091320;
      }

      .cls-10 {
        fill: #783600;
      }

      .cls-11 {
        fill: #375a64;
      }

      .cls-12 {
        fill: #b66955;
      }

      .cls-13 {
        fill: #8e3823;
      }

      .cls-14 {
        fill: #6558b8;
      }

      .cls-15 {
        opacity: 0.3;
      }

      .cls-16 {
        fill: #f1bc91;
      }

      .cls-17 {
        fill: #ffd2be;
      }

      .cls-18 {
        fill: #e09074;
      }

      .cls-19 {
        opacity: 0.78;
      }
    </style>
  </defs>
  <path class="cls-1" d="M200,81.94v-70C96.13,11.92,11.92,96.13,11.92,200S96.13,388.08,200,388.08v-70a118.06,118.06,0,0,1,0-236.12Z"/>
  <g class="cls-2">
    <path class="cls-3" d="M200,388.08c103.87,0,188.08-84.21,188.08-188.08S303.87,11.92,200,11.92v70a118.06,118.06,0,0,1,0,236.12Z"/>
  </g>
  <g>
    <rect class="cls-4" x="18.45" y="237.49" width="54.34" height="54.34" rx="6.37" transform="translate(-54.39 15.41) rotate(-12.08)"/>
    <g>
      <path class="cls-5" d="M64.84,269.79a3.26,3.26,0,0,0-.32-1.15c0-.11-.09-.22-.15-.37a9.62,9.62,0,0,0-4.14-3.9,20.56,20.56,0,0,0-5-1.91l-.21-.06a.34.34,0,0,0-.36.15l-3.37,5.77L39,260.38l3.37-6.22a.39.39,0,0,0,0-.26.35.35,0,0,0-.17-.19l-2.84-1.36c-.47-.21-.76-.35-1-.41a2,2,0,0,0-.27-.15l-.17-.08a4.31,4.31,0,0,0-.63-.28,8.75,8.75,0,0,0-8.44,1.4,8,8,0,0,0-3,6.43,5.63,5.63,0,0,0,1.83,3.91,10.16,10.16,0,0,0,1.79,1.32l18.83,12.06L49,277c.54.35,1.1.71,1.72,1a10.64,10.64,0,0,0,2.81,1,10.19,10.19,0,0,0,2,.21,9.79,9.79,0,0,0,4-.83A9.1,9.1,0,0,0,64,274.2a6.93,6.93,0,0,0,.59-1.4l.08-.25a4.35,4.35,0,0,0,.26-1.25l.06-.81ZM41.27,254.24l-3.54,6.22a.33.33,0,0,0,.1.43l13.62,8.94a.31.31,0,0,0,.25,0,.3.3,0,0,0,.2-.15l3.52-5.94a20.46,20.46,0,0,1,4.2,1.69,8.64,8.64,0,0,1,3.59,3.32c0,.12.09.24.14.36a2.33,2.33,0,0,1,.22.81l.1.57-.06.68a3,3,0,0,1-.21.93l-.08.27a5.46,5.46,0,0,1-.5,1.19A7.87,7.87,0,0,1,59,277.2a8.67,8.67,0,0,1-5.24.54,9.55,9.55,0,0,1-2.49-.87,18,18,0,0,1-1.61-1l-.7-.45L30.11,263.51a10.14,10.14,0,0,1-1.64-1.17A4.49,4.49,0,0,1,27,259.22a7.11,7.11,0,0,1,2.57-5.6A7.91,7.91,0,0,1,34,251.81h.57a8.15,8.15,0,0,1,3.3.65,1.77,1.77,0,0,0,.28.11c.17.11.45.26.86.48Z"/>
      <path class="cls-5" d="M47.07,256.13a24.3,24.3,0,0,0,3.79-.6c.72,3.63,1,4,1.25,4h.11c.3-.06.54-.12-.24-4.25,4.22-.91,4.18-1.16,4.12-1.46h0a.35.35,0,0,0-.14-.22c-.25-.16-1.67,0-4.2.55-.48-2.45-.86-3.79-1.1-4a.43.43,0,0,0-.25,0,.35.35,0,0,0-.22.15c-.17.24,0,1.63.45,4.1-3.87.84-4,1.12-4.09,1.22a.42.42,0,0,0,0,.29C46.58,256,46.62,256.13,47.07,256.13Z"/>
    </g>
  </g>
  <g>
    <rect class="cls-6" x="288.18" y="53.16" width="94.14" height="155.83"/>
    <rect class="cls-4" x="285.05" y="53.16" width="94.14" height="155.83"/>
    <rect class="cls-7" x="289.06" y="56.32" width="86.12" height="149.51"/>
    <g>
      <rect class="cls-4" x="305.45" y="75.75" width="52.96" height="110.65"/>
      <path class="cls-6" d="M305.45,147.24c-.12-10.33,9.18-20.42,19.41-21.87,4.88-.69,10.07.28,14.63-1.59,8.14-3.33,10.73-14.15,18.92-17.36l.38,80H305.45Z"/>
    </g>
  </g>
  <g>
    <g>
      <polygon class="cls-6" points="380.7 370.71 377.9 399.41 363.09 399.41 360.17 370.71 380.7 370.71"/>
      <rect class="cls-4" x="358.42" y="368.61" width="24.5" height="2.1" transform="translate(741.34 739.32) rotate(180)"/>
      <polygon class="cls-4" points="378.25 364.99 380.7 369.08 361.22 369.08 362.16 364.99 378.25 364.99"/>
      <polygon class="cls-8" points="379.76 380.37 378.76 390.61 362.19 390.61 361.15 380.37 379.76 380.37"/>
    </g>
    <g>
      <path class="cls-7" d="M368.33,388.37a4.67,4.67,0,0,1,.77-2.53c.41-.64.91-1.2,1.31-1.75a5.12,5.12,0,0,0,.86-1.62,2.9,2.9,0,0,0,.13-.71l.12.06a2.62,2.62,0,0,1,1.08,1.7,4.85,4.85,0,0,1-.1,2,4.32,4.32,0,0,1-1.07,2.17,3,3,0,0,1-2.59.81A2.35,2.35,0,0,1,368.33,388.37Z"/>
      <path class="cls-7" d="M367.08,386.12a8.39,8.39,0,0,1,.52-2.68,2.94,2.94,0,0,1,2-1.82,2.21,2.21,0,0,1,1.42.07,2.84,2.84,0,0,1-.17.72,5.54,5.54,0,0,1-.87,1.51c-.41.54-.92,1.09-1.35,1.76a4.7,4.7,0,0,0-.76,2.12c0,.15,0,.3,0,.45a1.53,1.53,0,0,1-.56-.57A2.66,2.66,0,0,1,367.08,386.12Z"/>
    </g>
  </g>
  <g>
    <path class="cls-8" d="M247.13,355.18c13.37-13.39,13.3-33.81,9.53-51.51-.63-2.95-.86-6.14-2.74-8.5s-5.49-3.55-7.93-1.82c-2,1.43-2.53,4.17-3.38,6.51a17.63,17.63,0,0,1-5.79,7.9c-1.72,1.32-3.95,2.34-6,1.64-2.82-1-3.75-4.45-4.26-7.41q-1.41-8.26-2.84-16.54a27.71,27.71,0,0,0-2.45-8.62c-1.42-2.64-3.92-4.88-6.87-5.17s-6.14,2-6.22,4.95a27.62,27.62,0,0,0,.58,3.7c.13,1.24-.2,2.7-1.3,3.25s-2.45-.07-3.49-.78c-3.58-2.44-6.34-5.92-8.95-9.39s-5.19-7.06-8.54-9.82-7.63-4.66-11.91-4.15-8.32,3.93-8.65,8.28,2.86,8.15,6.1,11.05a67.21,67.21,0,0,0,16.07,10.65,5.53,5.53,0,0,1,2.74,2.06c1,1.85-.53,4.14-2.36,5.14-2.07,1.12-4.5,1.32-6.76,2s-4.57,2.15-5.05,4.48c-.68,3.23,2.41,5.95,5.27,7.58a57.29,57.29,0,0,0,18.44,6.68c2.32.41,4.73.7,6.76,1.91s3.55,3.68,2.86,5.95-3.28,3.43-5.64,3.41-4.61-.89-6.92-1.32c-4.34-.81-9.53.4-11.51,4.38a9.46,9.46,0,0,0,.48,8.44,21.79,21.79,0,0,0,5.78,6.51,57.72,57.72,0,0,0,27.3,12.73c10,1.59,18.89.92,27.65-4.17"/>
    <path class="cls-6" d="M240.54,344.84A268.55,268.55,0,0,0,225,318.2l-4.44-6.78c-1.47-2.22-2.92-4.42-4.47-6.48a133.61,133.61,0,0,0-9.61-11.36C203.2,290.12,200,287,197,284s-5.87-5.62-8.59-8A107.33,107.33,0,0,0,174.83,266c-1.7-1.06-3-1.83-4-2.35l-1-.58-.36-.18a1.59,1.59,0,0,0,.34.23l1,.63c.9.55,2.22,1.35,3.89,2.44a111,111,0,0,1,13.46,10.17c2.69,2.35,5.53,5,8.52,8s6.16,6.13,9.38,9.59a137.63,137.63,0,0,1,9.54,11.34c1.54,2.05,3,4.24,4.44,6.46l4.44,6.77a273.56,273.56,0,0,1,15.6,26.57"/>
    <path class="cls-6" d="M215.88,304.94a5.59,5.59,0,0,0,.06-1.31c0-.84,0-2.06-.07-3.57-.1-3-.39-7.18-.73-11.77s-.56-8.74-.62-11.75c0-1.51-.05-2.72-.05-3.57a5.94,5.94,0,0,0-.07-1.31,5.82,5.82,0,0,0-.15,1.31c-.06.84-.11,2.06-.12,3.57,0,3,.12,7.2.46,11.79s.65,8.62.89,11.75c.1,1.41.18,2.6.25,3.56A5.65,5.65,0,0,0,215.88,304.94Z"/>
    <path class="cls-6" d="M176.62,304.61a7.53,7.53,0,0,0,1.55-.09c1-.08,2.42-.22,4.19-.33,3.55-.24,8.46-.41,13.89-.35s10.34.33,13.88.63c1.78.13,3.21.28,4.2.37a7.2,7.2,0,0,0,1.55.1,10.57,10.57,0,0,0-1.52-.31c-1-.16-2.42-.37-4.19-.56-3.55-.4-8.47-.73-13.92-.79a136.22,136.22,0,0,0-13.92.52c-1.78.16-3.21.35-4.19.51A8.07,8.07,0,0,0,176.62,304.61Z"/>
    <path class="cls-6" d="M240,344.22a2,2,0,0,0,.18-.51l.4-1.49c.35-1.3.8-3.18,1.33-5.52,1.06-4.68,2.31-11.19,3.61-18.4s2.48-13.71,3.44-18.41l1.15-5.56c.13-.6.23-1.1.31-1.51a2.15,2.15,0,0,0,.07-.54,2,2,0,0,0-.18.51c-.11.41-.24.9-.41,1.49-.34,1.3-.79,3.19-1.32,5.53-1.06,4.68-2.32,11.19-3.61,18.39s-2.48,13.72-3.44,18.41c-.48,2.28-.87,4.16-1.15,5.56-.13.6-.23,1.1-.31,1.51A2.15,2.15,0,0,0,240,344.22Z"/>
    <path class="cls-6" d="M186.56,336.94a2,2,0,0,0,.54.12l1.55.23,5.72.79c4.83.66,11.49,1.66,18.85,2.78s14,2.05,18.87,2.61c2.43.29,4.39.5,5.75.62l1.56.12a1.77,1.77,0,0,0,.55,0,2,2,0,0,0-.54-.12l-1.55-.23-5.72-.79c-4.83-.66-11.49-1.66-18.85-2.78s-14-2.05-18.87-2.62c-2.42-.28-4.38-.49-5.74-.61l-1.57-.12A1.77,1.77,0,0,0,186.56,336.94Z"/>
  </g>
  <path class="cls-9" d="M392.61,399.41c0,.12-87,.22-194.38.22s-194.4-.1-194.4-.22,87-.23,194.4-.23S392.61,399.29,392.61,399.41Z"/>
  <g>
    <g>
      <path class="cls-10" d="M109.54,323.13c4.06-2.1,8.84-2.37,13.35-1.63,2.42.4,5,1.13,6.59,2.95s2,5,.07,6.58a6.37,6.37,0,0,1-4.16,1.06c-3.53,0-7.44-.67-10.26,1.46-1.61,1.21-2.68,3.22-4.6,3.82a4.54,4.54,0,0,1-5-2.23,7.73,7.73,0,0,1-.57-5.73A8.75,8.75,0,0,1,109.54,323.13Z"/>
      <path class="cls-10" d="M100.24,305.17c2.48,3.54,7.31,2.37,9.54.21s3.19-5.31,4-8.3c2-6.83,4-14,2.48-21a11.58,11.58,0,0,0-2.67-5.7,6.07,6.07,0,0,0-5.77-1.92c-2.43.64-4,3-5,5.29a50.08,50.08,0,0,0-4.94,21.45c0,3.45.4,7.08,2.35,9.93"/>
      <path class="cls-10" d="M93.42,310.26c2.69-3.2,3.21-7.87,2-11.88a22.92,22.92,0,0,0-7-10.2,37.91,37.91,0,0,0-12.59-7.43,13.47,13.47,0,0,0-5.66-1,6,6,0,0,0-4.76,2.87c-1.32,2.53,0,5.6,1.32,8.1A95.33,95.33,0,0,0,75,303.36c2.47,3.19,5.31,6.34,9.09,7.79s7.71,1.27,9.71-1.35"/>
      <path class="cls-9" d="M100.07,358.66a7.46,7.46,0,0,0,.22-1.61c.12-1.17.26-2.65.43-4.4s.48-4,1-6.45a48.56,48.56,0,0,1,2.35-7.61,27.92,27.92,0,0,1,3.88-6.89,14.57,14.57,0,0,1,4.92-4.09,13.53,13.53,0,0,1,4.14-1.28,7.4,7.4,0,0,0,1.6-.24,8.22,8.22,0,0,0-1.63,0,12.52,12.52,0,0,0-4.32,1.12,14.51,14.51,0,0,0-5.18,4.12,27.17,27.17,0,0,0-4,7,46.37,46.37,0,0,0-2.33,7.74,54.84,54.84,0,0,0-.86,6.53c-.14,1.87-.19,3.38-.21,4.42A6.88,6.88,0,0,0,100.07,358.66Z"/>
      <path class="cls-9" d="M100.37,355.28a3.39,3.39,0,0,0,0-.75c0-.56,0-1.27,0-2.14,0-1.85,0-4.54.09-7.86.17-6.63.74-13.76,1.84-23.83,1-9.46,2.45-20.47,3.93-27.63.32-1.63.63-3.09.94-4.37s.53-2.4.76-3.29.37-1.54.5-2.08a2.56,2.56,0,0,0,.13-.74,3.1,3.1,0,0,0-.26.7c-.16.54-.36,1.22-.62,2s-.55,2-.88,3.27-.68,2.74-1,4.36a240.42,240.42,0,0,0-4.13,25.64c-1.1,10.09-1.6,19.27-1.65,25.92,0,3.32,0,6,.12,7.87,0,.87.1,1.57.13,2.13A3.79,3.79,0,0,0,100.37,355.28Z"/>
      <path class="cls-9" d="M100.42,337.57a16.53,16.53,0,0,0,0-2.23c-.08-1.44-.28-3.51-.68-6a80.09,80.09,0,0,0-2-8.82A72.49,72.49,0,0,0,94.06,310a55.58,55.58,0,0,0-10.82-16.86,27.92,27.92,0,0,0-2.55-2.37c-.39-.33-.74-.66-1.09-.92l-1-.68a13.8,13.8,0,0,0-1.88-1.2,63.74,63.74,0,0,1,6.17,5.49,58.73,58.73,0,0,1,10.55,16.8,82.91,82.91,0,0,1,3.71,10.34,87.26,87.26,0,0,1,2.09,8.73c.46,2.51.73,4.57.89,6A14.33,14.33,0,0,0,100.42,337.57Z"/>
    </g>
    <polygon class="cls-9" points="83.3 368.81 85.08 393.11 116.3 393.11 118.08 368.81 83.3 368.81"/>
    <rect class="cls-9" x="80.28" y="359.22" width="41.52" height="9.58"/>
    <polygon class="cls-11" points="80.28 392.18 80.28 394.84 82.24 394.84 121.12 394.84 121.12 392.18 80.28 392.18"/>
    <polygon class="cls-11" points="84.15 399.51 82.24 394.84 119.63 394.84 117.4 399.51 84.15 399.51"/>
    <path class="cls-6" d="M117.5,376.75s0,.08-.15.22l-.46.62-1.82,2.33-.08.1-.08-.1-4.47-6.19h.26L106.3,380l-.14.2L106,380c-1.62-1.94-3.38-4-5.22-6.21h.31l-.29.36L96.13,380l-.15.2-.15-.2c-1.58-2.25-3.06-4.34-4.4-6.23h.26l-5.43,6.18-.09.11-.08-.13-1.69-2.85L84,376.3a1.13,1.13,0,0,1-.13-.27,1.47,1.47,0,0,1,.18.24c.13.19.29.43.48.73.44.68,1,1.62,1.78,2.8H86.1l5.34-6.25.13-.16.13.17,4.44,6.2h-.3l4.65-5.86.29-.36.15-.18.15.18,5.21,6.22H106l4.45-6.2.13-.18.13.18,4.37,6.25h-.16l1.89-2.26.51-.59C117.43,376.81,117.49,376.74,117.5,376.75Z"/>
    <path class="cls-11" d="M118.51,368.64c0,.11-7.82.2-17.47.2s-17.48-.09-17.48-.2,7.82-.19,17.48-.19S118.51,368.54,118.51,368.64Z"/>
    <path class="cls-9" d="M120.09,395.1c0,.11-8.5.2-19,.2s-19-.09-19-.2,8.51-.19,19-.19S120.09,395,120.09,395.1Z"/>
  </g>
  <g>
    <g>
      <path class="cls-12" d="M350.53,209.89c-.68-2.93,2.77-13,.54-13.25-2.83-.28-3.31,11.2-3.42,12.23s-1.59.88-1.44,0c.2-1.33,2.09-14.32-.78-14.35-1.58,0-1.65,2.87-1.65,2.87s-1.07,12.8-2.42,12.74-.39-7.35-.25-10.06-1.17-4.09-2.13-3c-1.41,1.64-1.4,8.24-1.57,10.84s-.88,10.07-3.56,6.33-6.12-5.62-7.39-5.49-1.5,1.95-.27,2.67a17.08,17.08,0,0,1,3.35,3.2,16,16,0,0,1,1.94,3.17,14.29,14.29,0,0,1,1.4,4.53,8.93,8.93,0,0,0,3.95,6.15L336.68,249,336,259.12l16,5.54-2.1-36.19c.79-6.95,3.85-15.75,5-19.82,1.78-6.51.94-6.79.15-6.82C353.27,201.75,351.19,212.74,350.53,209.89Z"/>
      <path class="cls-13" d="M348.48,218.71a14.85,14.85,0,0,0-2,.33,7.36,7.36,0,0,0-4.68,3.93l-.1.21-.16-.16a11.21,11.21,0,0,0-3-2.22c-.85-.42-1.39-.59-1.38-.63a4.32,4.32,0,0,1,1.46.44,9.85,9.85,0,0,1,3.17,2.17l-.26.05a7.4,7.4,0,0,1,.81-1.33,7.48,7.48,0,0,1,2.05-1.84,7,7,0,0,1,2.06-.85,6.08,6.08,0,0,1,1.47-.17A1.71,1.71,0,0,1,348.48,218.71Z"/>
      <path class="cls-13" d="M347.69,228.32a11.84,11.84,0,0,1-6.94.22c0-.1,1.57.15,3.48.08S347.67,228.22,347.69,228.32Z"/>
    </g>
    <g>
      <path class="cls-9" d="M251.16,174.81A12,12,0,0,1,261,164a15.67,15.67,0,0,0,4-.75,23.8,23.8,0,0,0,2.81-1.89,8,8,0,0,1,9.91,1.34c2.29,2.53,2.88-1.26,8,1.33,4.28,2.14,2.38,5.68,2.38,5.68a9.19,9.19,0,0,1,9.62,6.61c.68,2.61.37,5.86,2.56,7.44,1.06.76,2.46.9,3.55,1.62,2,1.34,2.29,4.19,2,6.6s-.82,5,.22,7.18c1.72,3.59,7.08,4.68,8,8.54.44,1.83-.17,4.1,1.21,5.37a6.36,6.36,0,0,0,2,1,8.39,8.39,0,0,1,1.38,14.84c-.72.46-1.58.9-1.81,1.72s.4,1.81.89,2.62a8.07,8.07,0,0,1-10.7,11.26,12.58,12.58,0,0,1-7,6.4,7.61,7.61,0,0,1-4.39.43,8.82,8.82,0,0,1-3.15-1.65c-4.55-3.42-11-8.69-11.76-14.33"/>
      <path class="cls-12" d="M251.06,183.59l-.21-4,24.1-5.36c7.45-1,15.77,6.22,16.47,13.71.79,8.31,1.41,18.5.62,24.75-1.6,12.57-11.13,14.45-11.13,14.45l.33,12.42-27.64,1.2Z"/>
      <path class="cls-9" d="M286.89,197a1.62,1.62,0,0,1-1.5,1.67,1.54,1.54,0,0,1-1.7-1.4,1.61,1.61,0,0,1,1.5-1.66A1.54,1.54,0,0,1,286.89,197Z"/>
      <path class="cls-9" d="M288.94,193.29c-.19.21-1.43-.65-3.16-.59s-3,1-3.15.76.09-.48.63-.9a4.45,4.45,0,0,1,2.52-.86,4.2,4.2,0,0,1,2.52.73C288.85,192.82,289,193.19,288.94,193.29Z"/>
      <path class="cls-9" d="M270.78,197.79a1.62,1.62,0,0,1-1.5,1.67,1.54,1.54,0,0,1-1.7-1.4,1.62,1.62,0,0,1,1.5-1.67A1.54,1.54,0,0,1,270.78,197.79Z"/>
      <path class="cls-9" d="M272,194.14c-.19.21-1.44-.65-3.16-.59s-3,1-3.16.75.1-.47.64-.89a4.37,4.37,0,0,1,2.52-.86,4.2,4.2,0,0,1,2.52.73C271.89,193.67,272.08,194,272,194.14Z"/>
      <path class="cls-9" d="M278.65,206.74a11.71,11.71,0,0,1,2.79-.59c.44-.06.85-.16.92-.46a2.28,2.28,0,0,0-.34-1.3c-.45-1-.91-2.16-1.41-3.32-1.95-4.72-3.39-8.61-3.2-8.68s1.94,3.68,3.9,8.41l1.35,3.33a2.56,2.56,0,0,1,.28,1.73,1.09,1.09,0,0,1-.7.66,2.81,2.81,0,0,1-.75.13A10.94,10.94,0,0,1,278.65,206.74Z"/>
      <path class="cls-13" d="M280.9,227.14a33.13,33.13,0,0,1-17.31-4s4.5,8.62,17.4,7.08Z"/>
      <path class="cls-13" d="M278.05,210.92a3.12,3.12,0,0,0-2.82-1.07A2.83,2.83,0,0,0,273.3,211a1.78,1.78,0,0,0-.07,2.06,2.08,2.08,0,0,0,2.28.5,6.63,6.63,0,0,0,2.16-1.38,2,2,0,0,0,.48-.53.57.57,0,0,0,0-.64"/>
      <path class="cls-9" d="M273.61,208.09c.28,0,.34,1.85,2,3.13s3.64,1,3.66,1.27-.43.38-1.28.43a4.63,4.63,0,0,1-3-1,4,4,0,0,1-1.55-2.62C273.29,208.56,273.48,208.09,273.61,208.09Z"/>
      <path class="cls-9" d="M272.23,187.36c-.16.48-1.89.31-3.91.61s-3.63.91-3.92.5c-.12-.2.15-.65.8-1.12a6.45,6.45,0,0,1,2.88-1.11,6.64,6.64,0,0,1,3.07.26C271.91,186.78,272.29,187.14,272.23,187.36Z"/>
      <path class="cls-9" d="M288.15,188.32c-.29.4-1.49,0-2.92.05s-2.63.35-2.92-.05c-.13-.2.05-.6.57-1a4,4,0,0,1,2.35-.71,4.11,4.11,0,0,1,2.36.71C288.1,187.72,288.28,188.12,288.15,188.32Z"/>
      <path class="cls-9" d="M293.54,172.56c-1.69,4.5-5.72,11.32-10.47,12.13a14.13,14.13,0,0,1-12.95-4.75c-.55,3.59-4.41,5.68-8,6.44a14.24,14.24,0,0,1-7.61-.14,7.56,7.56,0,0,1-5.08-5.34c-.51-2.52,2.79-8.93,5.3-9.53"/>
      <path class="cls-9" d="M259.21,239.07a9.86,9.86,0,0,1-6.57,9.24A7,7,0,0,1,239.35,252a8.25,8.25,0,0,0-1.17-2.29c-1.33-1.46-3.69-1-5.6-1.46-3.46-.85-5.22-4.88-5.09-8.44a8.67,8.67,0,0,0-.05-2.1c-.31-1.4-1.5-2.4-2.41-3.51-3.74-4.57-2.82-11.66.62-16.46,1.14-1.6,2.61-3.29,2.36-5.25a10.67,10.67,0,0,0-1.29-3,8.91,8.91,0,0,1,1.71-9.88,2.93,2.93,0,0,0,.94-1.31,3,3,0,0,0-.08-1,10.42,10.42,0,0,1,8-11.74,2.55,2.55,0,0,0,.9-.28c.78-.47.72-1.58.76-2.48.11-2.39,1.63-7,3.33-8.64,4.72-4.66,9.85-1.51,11.71,0,0,0,4.67,16.84,4.23,20.07s-2.21,11.32-1,14.86,3.23,10.81,2,14.16S259.21,239.07,259.21,239.07Z"/>
    </g>
    <g>
      <g>
        <path class="cls-14" d="M289.53,379.29s36.49,10.1,38,10.61c2.2.78,1.83,8.83-1.59,8.71-1.62-.06-28,1-31.38.77s-13.4-4.17-13.4-4.17Z"/>
        <path class="cls-9" d="M304.73,393.21c.18,0,.43-1.9,1.61-3.92s2.69-3.21,2.58-3.36a8.13,8.13,0,0,0-4.19,7.28Z"/>
        <path class="cls-9" d="M300.92,391.49c.18,0,.55-1.7,1.53-3.6s2.11-3.25,2-3.37a6.9,6.9,0,0,0-2.53,3.09A7,7,0,0,0,300.92,391.49Z"/>
        <path class="cls-9" d="M297.36,390.53c.18,0,0-1.83.85-3.86a23.21,23.21,0,0,1,2-3.41c-.08-.14-1.71,1-2.56,3.19S297.21,390.58,297.36,390.53Z"/>
        <path class="cls-9" d="M298,385.82a6.41,6.41,0,0,0,.39-2.72,12.72,12.72,0,0,0-.37-3,11.78,11.78,0,0,0-.54-1.69,2,2,0,0,0-.58-.89,1,1,0,0,0-1.26.06,1.59,1.59,0,0,0-.48,1,6.31,6.31,0,0,0-.05,1,8.51,8.51,0,0,0,.22,1.79,10.72,10.72,0,0,0,1.13,2.79,7.45,7.45,0,0,0,1.64,2.2c.08-.06-.53-.91-1.26-2.4a12.18,12.18,0,0,1-1-2.71,8.22,8.22,0,0,1-.17-1.67c0-.56,0-1.26.33-1.53a.35.35,0,0,1,.49,0,1.57,1.57,0,0,1,.4.64,13.32,13.32,0,0,1,.55,1.61,13.78,13.78,0,0,1,.48,2.85C298.07,384.77,297.9,385.8,298,385.82Z"/>
        <path class="cls-9" d="M298,385.44a5.29,5.29,0,0,0-2.36-.38,10.73,10.73,0,0,0-2.59.32,5.79,5.79,0,0,0-1.49.55,1.54,1.54,0,0,0-.82,1.67,1.81,1.81,0,0,0,1.31,1.3,3.37,3.37,0,0,0,1.64,0,6.33,6.33,0,0,0,2.37-1.17,6.6,6.6,0,0,0,1.7-1.67,14.6,14.6,0,0,0-2,1.32,6.51,6.51,0,0,1-2.24,1,2.93,2.93,0,0,1-1.35,0,1.24,1.24,0,0,1-.89-.87,1,1,0,0,1,.54-1,5.63,5.63,0,0,1,1.33-.51,11.92,11.92,0,0,1,2.46-.43C297.05,385.4,297.94,385.54,298,385.44Z"/>
        <path class="cls-9" d="M310.34,393.6c.18,0,0-1.58.72-3.29s1.9-2.72,1.78-2.86-1.58.72-2.35,2.63S310.19,393.67,310.34,393.6Z"/>
        <path class="cls-9" d="M284.87,395.29a7.64,7.64,0,0,0,1.41.66,30.75,30.75,0,0,0,4.06,1.26,57.85,57.85,0,0,0,13.94,1.32c5.47-.06,10.4-.31,14-.45l4.23-.23a7.55,7.55,0,0,0,1.55-.16,7.41,7.41,0,0,0-1.56-.07l-4.23,0-14,.27a65.24,65.24,0,0,1-13.84-1.13C287,396.07,284.91,395.17,284.87,395.29Z"/>
        <path class="cls-9" d="M283.79,396.12c0,.08,1-.5,2.74-1.24a12.76,12.76,0,0,1,6.9-1.15,11,11,0,0,1,6,3.55,20.48,20.48,0,0,0,2.11,2.15,11.93,11.93,0,0,0-1.79-2.44,15,15,0,0,0-2.42-2.26,8.54,8.54,0,0,0-3.77-1.6,12.07,12.07,0,0,0-7.19,1.36A9.78,9.78,0,0,0,283.79,396.12Z"/>
        <g class="cls-15">
          <path d="M289.53,379.29s36.49,10.1,38,10.61c2.2.78,1.83,8.83-1.59,8.71-1.62-.06-28,1-31.38.77s-13.4-4.17-13.4-4.17Z"/>
        </g>
      </g>
      <g>
        <g>
          <path class="cls-9" d="M249,337.36l-7.88,16.2S199,340.74,188.35,341.33,169,346.18,167,354.8s-2.35,20.51,10,28.77S251,396.39,251,396.39H275.3l39.81-52.49-6.42-5.2Z"/>
          <path class="cls-11" d="M262.22,372.89a5.87,5.87,0,0,1-.79,0c-.53,0-1.3,0-2.29-.18a47.39,47.39,0,0,1-8.26-1.7,79.41,79.41,0,0,1-11.64-4.55c-4.26-2-8.8-4.49-13.58-7.05a141.29,141.29,0,0,0-13.75-6.6,62,62,0,0,0-11.9-3.55,41.27,41.27,0,0,0-8.34-.73c-1,0-1.75.08-2.28.09a4.9,4.9,0,0,1-.8,0,4.22,4.22,0,0,1,.79-.12c.53,0,1.29-.18,2.29-.19a39.15,39.15,0,0,1,8.41.57,60,60,0,0,1,12,3.47,134.19,134.19,0,0,1,13.82,6.58c4.78,2.57,9.31,5.05,13.54,7.08A83.47,83.47,0,0,0,251,370.63a51.69,51.69,0,0,0,8.18,1.86c1,.17,1.75.2,2.26.28A4,4,0,0,1,262.22,372.89Z"/>
          <path class="cls-9" d="M291,392.1c7.82-3.07,50.85-16.76,66.09-34.37a16.88,16.88,0,0,0,4.17-14.61c-2.13-11.74-12.93-19.56-24.13-15.13-1.59.63-5.25,2.05-6.78,2.88-4.18,2.24-71.87,45.17-71.87,45.17s11.8,23,11.5,23.88Z"/>
          <path class="cls-11" d="M312.2,341.07a.82.82,0,0,1-.18.14l-.57.39L309.24,343l-8.17,5.21-27.07,17-14.71,9.17.1-.31,7.71,18.56c.92,2.24,1.65,4,2.17,5.32.23.59.41,1.06.56,1.42a2.09,2.09,0,0,1,.16.5,2.72,2.72,0,0,1-.24-.47l-.63-1.39-2.29-5.27c-1.95-4.57-4.69-11-7.89-18.48l-.08-.19L259,374l14.68-9.2,27.15-16.88,8.27-5.07,2.26-1.35.59-.34C312.13,341.09,312.2,341.06,312.2,341.07Z"/>
          <path class="cls-11" d="M252.75,361.36a6.63,6.63,0,0,1-2-.75,27.8,27.8,0,0,1-4.42-2.64,28.18,28.18,0,0,1-3.86-3.42,6.77,6.77,0,0,1-1.32-1.68c.12-.11,2.28,2.33,5.49,4.67S252.82,361.21,252.75,361.36Z"/>
          <path class="cls-11" d="M276.18,342.28a16.47,16.47,0,0,1,.11,2.7c0,1.66.09,3.95.31,6.47s.58,4.78.85,6.42a16.93,16.93,0,0,1,.39,2.67,11.62,11.62,0,0,1-.75-2.6,50.15,50.15,0,0,1-1-6.45,50.68,50.68,0,0,1-.17-6.52A13.23,13.23,0,0,1,276.18,342.28Z"/>
          <path class="cls-11" d="M281.22,341.73s.2-.05.53.07a2.47,2.47,0,0,1,1.12.94,2.57,2.57,0,0,1,.31,2.17,2.35,2.35,0,0,1-2.18,1.54,2.3,2.3,0,0,1-2.31-1.35,2.43,2.43,0,0,1,.3-2.17,2.13,2.13,0,0,1,1.18-.88c.35-.08.54,0,.54,0a2.48,2.48,0,0,0-1.4,1.08,2.11,2.11,0,0,0-.17,1.79,1.85,1.85,0,0,0,1.84,1,1.9,1.9,0,0,0,1.74-1.17,2.26,2.26,0,0,0-.18-1.82A3.08,3.08,0,0,0,281.22,341.73Z"/>
          <path class="cls-11" d="M260.4,340a2.49,2.49,0,0,1,.37.8,7.12,7.12,0,0,1,.35,2.38,8.61,8.61,0,0,1-.78,3.5,7.83,7.83,0,0,1-7,4.7,8.41,8.41,0,0,1-3.53-.59,7.43,7.43,0,0,1-2.07-1.22c-.43-.38-.62-.63-.6-.65a12.93,12.93,0,0,0,2.8,1.52,8.74,8.74,0,0,0,3.38.46,7.62,7.62,0,0,0,6.58-4.43,8.86,8.86,0,0,0,.85-3.3A13.32,13.32,0,0,0,260.4,340Z"/>
          <path class="cls-11" d="M300.55,348a2.8,2.8,0,0,1-1.6-.23,6,6,0,0,1-4-6.18,2.81,2.81,0,0,1,.43-1.55c.08,0-.07.61-.06,1.56a6.35,6.35,0,0,0,3.8,5.83C300,347.86,300.56,348,300.55,348Z"/>
        </g>
        <path class="cls-11" d="M321.6,380.22l.26-.14.77-.37,3-1.44c2.59-1.26,6.33-3.07,10.85-5.51a82.94,82.94,0,0,0,15-10,44.07,44.07,0,0,0,7.17-7.8,17.31,17.31,0,0,0,2.59-10.83,16.82,16.82,0,0,0-1.42-5.54,15.39,15.39,0,0,0-1.39-2.44,20.2,20.2,0,0,0-1.77-2.13,45.53,45.53,0,0,0-4-3.63,12.31,12.31,0,0,0-4.39-2.63,16.9,16.9,0,0,0-4.87-.54,24.66,24.66,0,0,0-4.62.52,28.19,28.19,0,0,0-7.81,2.94l-10.65,5.91-2.9,1.59-.76.41-.26.13.25-.16.74-.44,2.87-1.65c2.5-1.42,6.1-3.51,10.6-6a28.23,28.23,0,0,1,7.86-3,25.09,25.09,0,0,1,4.67-.53,16.34,16.34,0,0,1,5,.54,12.43,12.43,0,0,1,4.51,2.67,49.28,49.28,0,0,1,4.07,3.65,20.93,20.93,0,0,1,1.8,2.17,15.41,15.41,0,0,1,1.43,2.5,17.89,17.89,0,0,1-1.2,16.69,44.55,44.55,0,0,1-7.24,7.86A81.51,81.51,0,0,1,336.58,373c-4.54,2.42-8.31,4.2-10.91,5.42l-3,1.38-.79.35Z"/>
      </g>
      <g>
        <g>
          <path class="cls-14" d="M261.33,379.51s-36.62,9.65-38.09,10.15c-2.2.75-1.93,8.81,1.49,8.72,1.62,0,28,1.33,31.36,1.17s12.36-3.61,12.36-3.61Z"/>
          <path class="cls-9" d="M246,393.25c-.18,0-.41-1.91-1.56-3.94s-2.66-3.24-2.54-3.39,1.87.91,3.07,3.09A6.55,6.55,0,0,1,246,393.25Z"/>
          <path class="cls-9" d="M249.79,391.57c-.18,0-.53-1.7-1.48-3.62s-2.08-3.26-1.95-3.39,1.52,1.1,2.5,3.13A6.92,6.92,0,0,1,249.79,391.57Z"/>
          <path class="cls-9" d="M253.37,390.66c-.19,0,0-1.83-.81-3.87s-2.07-3.3-1.94-3.43,1.69,1,2.51,3.22A5.56,5.56,0,0,1,253.37,390.66Z"/>
          <path class="cls-9" d="M252.78,385.94a6.35,6.35,0,0,1-.36-2.72,12.3,12.3,0,0,1,.41-3,11.93,11.93,0,0,1,.56-1.69,2,2,0,0,1,.6-.89,1,1,0,0,1,1.25.08,1.62,1.62,0,0,1,.47,1,7.87,7.87,0,0,1,0,1,8.49,8.49,0,0,1-.25,1.79,10.54,10.54,0,0,1-1.16,2.77,7.55,7.55,0,0,1-1.66,2.18c-.09-.06.53-.9,1.28-2.38a11.57,11.57,0,0,0,1-2.7,8.21,8.21,0,0,0,.2-1.67c0-.56,0-1.26-.32-1.53a.35.35,0,0,0-.48,0,1.6,1.6,0,0,0-.41.63,13.5,13.5,0,0,0-.57,1.61,14.86,14.86,0,0,0-.52,2.84C252.72,384.89,252.88,385.93,252.78,385.94Z"/>
          <path class="cls-9" d="M252.83,385.57a5,5,0,0,1,2.36-.35,10.29,10.29,0,0,1,2.58.35,5.84,5.84,0,0,1,1.49.56,1.54,1.54,0,0,1,.8,1.68,1.81,1.81,0,0,1-1.33,1.29,3.35,3.35,0,0,1-1.64,0,6.17,6.17,0,0,1-2.35-1.19,6.52,6.52,0,0,1-1.68-1.69,15.82,15.82,0,0,1,1.93,1.34,6.31,6.31,0,0,0,2.22,1,2.72,2.72,0,0,0,1.36,0,1.23,1.23,0,0,0,.9-.85,1,1,0,0,0-.53-1,5.44,5.44,0,0,0-1.32-.53,12.07,12.07,0,0,0-2.45-.46C253.74,385.53,252.84,385.67,252.83,385.57Z"/>
          <path class="cls-9" d="M240.35,393.57c-.18,0,0-1.58-.68-3.3s-1.87-2.74-1.75-2.88,1.57.74,2.32,2.66S240.49,393.64,240.35,393.57Z"/>
          <path class="cls-9" d="M265.79,395.57a7.25,7.25,0,0,1-1.42.65,32,32,0,0,1-4.08,1.21,58.52,58.52,0,0,1-14,1.15c-5.46-.13-10.39-.44-14-.63l-4.23-.28a7.15,7.15,0,0,1-1.54-.18,7.5,7.5,0,0,1,1.55-.05l4.24.08,14,.44a64.73,64.73,0,0,0,13.84-1C263.7,396.33,265.75,395.46,265.79,395.57Z"/>
          <path class="cls-9" d="M266.86,396.42c-.05.08-1-.52-2.72-1.28a12.75,12.75,0,0,0-6.89-1.23,10.89,10.89,0,0,0-6,3.48,23,23,0,0,1-2.13,2.12,11,11,0,0,1,1.81-2.42,14.78,14.78,0,0,1,2.45-2.23,8.62,8.62,0,0,1,3.79-1.55,12,12,0,0,1,7.17,1.45A9.47,9.47,0,0,1,266.86,396.42Z"/>
        </g>
        <path class="cls-9" d="M230.23,397.54a13.91,13.91,0,0,1,.55-1.37,6.94,6.94,0,0,0,.31-3.43,6.87,6.87,0,0,0-1.44-3.12c-.56-.7-1-1.05-1-1.11s.57.2,1.24.87a6.34,6.34,0,0,1,1.66,3.28,6.21,6.21,0,0,1-.48,3.64C230.7,397.16,230.27,397.58,230.23,397.54Z"/>
      </g>
    </g>
    <g>
      <g>
        <path class="cls-16" d="M259.65,237.28l-18.83,5.28,6.12,58.57s-3.52,20.92-3.52,26.41a10.92,10.92,0,0,0,5.56,9.82l60.14,1.82,3.08-2.66a8.71,8.71,0,0,0,2-6.71L303,240.43l-20.94-4.54Z"/>
        <path class="cls-9" d="M247,301.06a2.41,2.41,0,0,1-.11-.44l-.25-1.28c-.22-1.16-.51-2.77-.87-4.73-.71-4-1.67-9.54-2.73-15.62s-2-11.59-2.63-15.63c-.32-2-.57-3.59-.76-4.75-.08-.53-.14-1-.19-1.29a2.23,2.23,0,0,1,0-.46,2.4,2.4,0,0,1,.11.45c.06.32.15.75.25,1.28.22,1.16.51,2.76.87,4.72.71,4,1.67,9.54,2.73,15.62s2,11.6,2.63,15.64c.32,2,.58,3.58.76,4.74.08.54.14,1,.19,1.3A2.16,2.16,0,0,1,247,301.06Z"/>
        <path class="cls-9" d="M284.74,237a8.1,8.1,0,0,1-.87.69c-.29.2-.67.42-1.1.69a15.83,15.83,0,0,1-1.54.76,20.32,20.32,0,0,1-4.27,1.34,31.58,31.58,0,0,1-5.45.56,53.08,53.08,0,0,1-5.47-.17,31.12,31.12,0,0,1-4.43-.58,12.93,12.93,0,0,1-2.86-.95q-.48-.24-.72-.39c-.16-.1-.24-.16-.23-.17s.35.16,1,.43a15,15,0,0,0,2.85.84,33.13,33.13,0,0,0,4.41.5c1.67.11,3.51.19,5.43.14a33.05,33.05,0,0,0,5.4-.53,21.88,21.88,0,0,0,4.23-1.24A25.76,25.76,0,0,0,284.74,237Z"/>
        <path class="cls-9" d="M304.18,327.29l-.41.09-1.18.17c-.51.07-1.14.15-1.88.21s-1.57.17-2.5.21c-1.85.13-4.07.19-6.52.16s-5.16-.22-8-.55-5.48-.82-7.88-1.35-4.53-1.12-6.3-1.69c-.89-.26-1.68-.55-2.38-.79s-1.29-.46-1.77-.66l-1.11-.44a1.73,1.73,0,0,1-.38-.18,2.43,2.43,0,0,1,.4.11l1.13.39c.49.17,1.09.38,1.79.59s1.5.5,2.39.74c1.77.54,3.91,1.09,6.3,1.62s5.05,1,7.85,1.31,5.5.5,7.94.58,4.66,0,6.51-.08c.92,0,1.76-.11,2.49-.16s1.37-.11,1.88-.16l1.19-.1A1.66,1.66,0,0,1,304.18,327.29Z"/>
        <path class="cls-9" d="M311.16,277.07a3.78,3.78,0,0,1-.29-.81c-.16-.53-.38-1.3-.64-2.26-.52-1.91-1.19-4.57-1.85-7.52s-1.18-5.64-1.52-7.59c-.17-1-.29-1.77-.37-2.32a4.54,4.54,0,0,1-.09-.86,3.5,3.5,0,0,1,.22.83c.13.61.29,1.38.49,2.3.4,1.94,1,4.62,1.61,7.57s1.29,5.6,1.75,7.53l.53,2.28A4.15,4.15,0,0,1,311.16,277.07Z"/>
      </g>
      <g>
        <g class="cls-15">
          <path d="M266.22,239.94c.75,2.62,0,6.44.42,8.78a125,125,0,0,1,1.51,28.39,3.58,3.58,0,0,0,.1,1.53,4.16,4.16,0,0,0,.76,1.19,12.51,12.51,0,0,1,2,9,37.15,37.15,0,0,1-2.72,9c-.07-2.53.06-6.31.26-8.84,0-.5.3-.18.31-.68.09-3-.42-5.85-2.55-8a6.2,6.2,0,0,1-1.2-1.36,4.46,4.46,0,0,1-.42-1.62q-1.95-15.88-2.67-31.89a2.54,2.54,0,0,1,.34-1.74,4.63,4.63,0,0,1,1.18-.8c.81-.54,1.32-1.49,2.2-1.91"/>
        </g>
        <path class="cls-16" d="M240.82,242.56s-17.19,4.05-13,29.81A158.78,158.78,0,0,0,238.06,309c2.81,6.63,9.19,11.19,16.34,10.25,3.12-.41,6.21.09,8.3-1.17,3.17-1.91,4.55-8.36,5.15-15.31.4-4.74.23-9.67.86-13.72,1-6.6-2-9.71-5.88-10.48l-15.19-3-.88,8Z"/>
        <path class="cls-9" d="M252.93,293.84s.28.31.87.75a6.06,6.06,0,0,0,2.84,1.12,9.34,9.34,0,0,0,4.5-.64,14.23,14.23,0,0,0,4.86-2.8,8.57,8.57,0,0,0,2.52-4.86,8.37,8.37,0,0,0-.54-4.48,11.56,11.56,0,0,0-2.42-3.49,2.94,2.94,0,0,1,.95.7,8.11,8.11,0,0,1,1.86,2.62,8.47,8.47,0,0,1,.7,4.74,8.94,8.94,0,0,1-2.65,5.21,14.43,14.43,0,0,1-5.09,2.89,9.6,9.6,0,0,1-4.76.54,5.8,5.8,0,0,1-2.92-1.37C253.08,294.25,252.9,293.85,252.93,293.84Z"/>
        <path class="cls-9" d="M237.13,306.7c.06,0,.33.81,1,2.2a19.69,19.69,0,0,0,3.92,5.26,18.52,18.52,0,0,0,8.41,4.65,18.81,18.81,0,0,0,11.64-.81c1.95-.79,2.65-2.95,3.4-4.76a32.25,32.25,0,0,0,1.45-5.57c.61-3.64.76-7,1-9.78s.36-5,.48-6.63c.07-.73.12-1.32.17-1.8a2.73,2.73,0,0,1,.09-.63,2.58,2.58,0,0,1,0,.63c0,.49,0,1.08-.05,1.81-.07,1.66-.17,3.9-.3,6.64a89.42,89.42,0,0,1-.84,9.85,31.5,31.5,0,0,1-1.45,5.69,20.47,20.47,0,0,1-1.28,2.85,5.12,5.12,0,0,1-2.41,2.25,19.16,19.16,0,0,1-12,.8A18.87,18.87,0,0,1,238,309a13,13,0,0,1-.66-1.69A2.93,2.93,0,0,1,237.13,306.7Z"/>
        <path class="cls-9" d="M242.86,295.53a16.29,16.29,0,0,1,0-3.1c.1-1.91.28-4.54.52-7.44.12-1.45.22-2.82.37-4.1a6.49,6.49,0,0,1,1.17-3.23,3.47,3.47,0,0,1,1.95-1.27c.55-.11.86,0,.85,0s-.3,0-.79.2a3.39,3.39,0,0,0-1.66,1.3c-1.13,1.49-1,4.24-1.29,7.12s-.48,5.53-.69,7.42A16,16,0,0,1,242.86,295.53Z"/>
        <path class="cls-9" d="M248.23,268.16c-.16-.82-.4-2-.71-3.45-.62-2.9-1.52-6.91-2.55-11.32a63.17,63.17,0,0,0-1.63-6.2,14.36,14.36,0,0,0-2.52-4.63l-.33.27a14.83,14.83,0,0,1,2.32,4.54c.62,1.84,1.05,3.95,1.57,6.16,1,4.41,2,8.4,2.72,11.28.37,1.44.67,2.6.9,3.4a5.44,5.44,0,0,0,.4,1.23A5.21,5.21,0,0,0,248.23,268.16Z"/>
        <g class="cls-15">
          <path d="M248.38,273.7a6.74,6.74,0,0,0-3.86,1.31,12.84,12.84,0,0,0-5.12,7.24,15,15,0,0,0,.4,8.91c.31.89.92,1.9,1.86,1.86,1.1,0,1.55-1.43,1.7-2.52.43-3,.85-6.07,1.28-9.11a8.55,8.55,0,0,1,.8-3A2.87,2.87,0,0,1,248,276.8c.09-1.08.19-2.17.28-3.25"/>
        </g>
      </g>
      <g>
        <path class="cls-16" d="M350.7,287.56a25.53,25.53,0,0,0,3.55-11.93,40,40,0,0,0-1.69-13.11l-18.26-5.66-.12,6.1Z"/>
        <path class="cls-16" d="M334.18,263,303,240.43V242l3.37,35.08S332.15,288.6,339,290.3a13.6,13.6,0,0,0,11.73-2.74Z"/>
        <path class="cls-9" d="M343.42,280a2.54,2.54,0,0,1-.71-.38,12.5,12.5,0,0,1-1.71-1.33,19.29,19.29,0,0,1-4.16-5.81,38.55,38.55,0,0,1-2.38-6.74c-.23-.88-.4-1.6-.5-2.1a2.56,2.56,0,0,1-.12-.79,23.82,23.82,0,0,1,.93,2.8,47.65,47.65,0,0,0,2.47,6.63,21.35,21.35,0,0,0,4,5.78C342.49,279.34,343.46,279.93,343.42,280Z"/>
        <path class="cls-9" d="M352.47,266.94a3,3,0,0,1-.81,0,18.19,18.19,0,0,1-2.18-.24,26.56,26.56,0,0,1-13-6,19.3,19.3,0,0,1-1.59-1.51c-.35-.38-.54-.6-.51-.63s.86.76,2.3,1.9a31.4,31.4,0,0,0,6.08,3.75,30.85,30.85,0,0,0,6.79,2.23C351.33,266.76,352.47,266.86,352.47,266.94Z"/>
        <path class="cls-9" d="M335.55,277.07a6.78,6.78,0,0,1-1-1.94,18.38,18.38,0,0,1-1-5.11,38,38,0,0,1,0-5.2,9.81,9.81,0,0,1,.27-2.14,11.16,11.16,0,0,1,.05,2.16c0,1.32-.05,3.15.09,5.15a22.33,22.33,0,0,0,.89,5C335.27,276.29,335.62,277,335.55,277.07Z"/>
      </g>
      <path class="cls-9" d="M302.56,253.9a4,4,0,0,1,.33,1c.18.62.42,1.52.71,2.64.57,2.24,1.3,5.35,2,8.8s1.29,6.6,1.67,8.88c.19,1.15.33,2.07.41,2.71a4.46,4.46,0,0,1,.08,1,4.53,4.53,0,0,1-.25-1c-.15-.72-.34-1.62-.55-2.68-.48-2.36-1.11-5.44-1.8-8.84s-1.39-6.47-1.9-8.83c-.23-1.05-.42-1.95-.57-2.67A4.52,4.52,0,0,1,302.56,253.9Z"/>
    </g>
    <g>
      <path class="cls-12" d="M247.45,278.67l3.81-42.23,12.65,5,1.63,43s-4.05,6.13-10.89,3.62A11.1,11.1,0,0,1,247.45,278.67Z"/>
      <polygon class="cls-9" points="249.91 199.45 273.56 220.25 269.28 235.78 267.56 236.29 246.88 215.13 248.19 199.96 249.91 199.45"/>
      <polygon class="cls-11" points="248.19 199.96 271.84 220.76 267.56 236.29 245.17 215.64 248.19 199.96"/>
      <path class="cls-12" d="M264.45,242.79a9.21,9.21,0,0,0,2.37-5.82c-.05-3.18-.93-10.84-.93-10.84s4.11-8.65,4-9.8-.29-1.13-1.76-.67-6.06,8.35-6.06,8.35l-1.49-5.85s3.81-6.14,4.11-7,.81-1.56-.15-1.64-8.11,6.85-8.11,6.85l.58,6.41s-.14.51-1.17-.39-.77-8.54-.77-8.54,2.44-4.53,2.38-5.18.44-1.37,0-2.49-1.88.17-1.88.17l-4.75,6.23-1.69-6.16s.07-1.31-1.64-1.33l.66,20,4.33,15.37Z"/>
      <path class="cls-13" d="M265.54,284.39s0-.25-.07-.75-.06-1.26-.11-2.2c-.09-2-.22-4.79-.38-8.38-.28-7.28-.7-17.66-1.2-30.23v-.12l.1-.09a8.21,8.21,0,0,0,2.29-3.23,9.43,9.43,0,0,0,.48-4.16c-.15-2.92-.51-6-.92-9.07v-.09l0-.07q1.17-2.48,2.3-5.08c.38-.87.75-1.75,1.09-2.65.17-.44.33-.9.47-1.35l.08-.33c0-.1,0-.17,0-.28a2,2,0,0,0-.12-.6c0-.14-.61,0-1,.15a1.25,1.25,0,0,0-.55.28,3.91,3.91,0,0,0-.51.49,22.42,22.42,0,0,0-1.8,2.35c-1.14,1.66-2.21,3.4-3.26,5.17l-.37.63-.18-.71c-.47-1.85-1-3.84-1.5-5.84l0-.13.07-.11,1.93-3.16c.73-1.24,1.54-2.52,2.14-3.74.12-.35.29-.7.37-1s0-.23,0-.21a.42.42,0,0,0-.29-.06,1.94,1.94,0,0,0-.34.18c-.14.07-.29.19-.43.28s-.56.42-.84.64c-2.19,1.8-4.24,3.75-6.24,5.66l.09-.24c.19,2.16.38,4.3.57,6.4v.06l0,.05a.53.53,0,0,1-.57.35,1,1,0,0,1-.41-.13,3.28,3.28,0,0,1-.58-.4,2.37,2.37,0,0,1-.62-1.31,17.32,17.32,0,0,1-.29-2.55c-.09-1.69-.08-3.35,0-5v-.07l0-.06a42.12,42.12,0,0,0,2.29-4.76,1.17,1.17,0,0,0,.06-.24,2.13,2.13,0,0,1,0-.35c0-.25.08-.46.11-.67a2.23,2.23,0,0,0,0-1.15c-.13-.42-.26-.59-.58-.53a2.32,2.32,0,0,0-1,.54l0,0-4.76,6.21-.31.4-.13-.49L249,206.48v-.07a1,1,0,0,0-.43-.84,1.85,1.85,0,0,0-1-.25l.23-.23c.23,8.12.43,14.86.58,20v0c.95,3.67,1.68,6.51,2.19,8.47l.54,2.19c.12.49.16.75.16.75s-.09-.24-.23-.73-.35-1.24-.62-2.17c-.54-1.95-1.31-4.78-2.32-8.43v0c-.19-5.11-.44-11.84-.75-20v-.24h.24a2.16,2.16,0,0,1,1.23.32,1.47,1.47,0,0,1,.64,1.24v-.07l1.71,6.15-.44-.09,4.74-6.23v0h0a2.69,2.69,0,0,1,1.23-.68.91.91,0,0,1,.82.22,1.49,1.49,0,0,1,.37.68,2.82,2.82,0,0,1,.06,1.41c0,.22-.09.43-.11.62a3,3,0,0,0,0,.3,1.76,1.76,0,0,1-.08.4,42.53,42.53,0,0,1-2.32,4.87l0-.12c0,1.61,0,3.26.05,4.92a16.82,16.82,0,0,0,.28,2.47,1.89,1.89,0,0,0,.42,1,3.12,3.12,0,0,0,.47.33.59.59,0,0,0,.2.07h0a.14.14,0,0,0,0,.06v0h0l0,0h0l-.15-.06v.12c-.2-2.1-.39-4.23-.59-6.4v-.14l.1-.1c2-1.92,4.06-3.87,6.28-5.7q.42-.35.87-.66c.16-.11.3-.22.47-.32a1.55,1.55,0,0,1,.64-.25,1,1,0,0,1,.72.22.8.8,0,0,1,.15.81c-.12.4-.27.7-.39,1-.67,1.38-1.44,2.57-2.19,3.85L261,218.31l0-.23,1.49,5.84-.55-.07c1.06-1.79,2.13-3.53,3.29-5.21a23.81,23.81,0,0,1,1.86-2.41,3.72,3.72,0,0,1,.57-.55,2,2,0,0,1,.75-.39c.24-.07.48-.14.75-.2a1.73,1.73,0,0,1,.47,0,.72.72,0,0,1,.5.36,2.33,2.33,0,0,1,.15,1.28l-.1.37c-.14.49-.31.95-.48,1.4-.35.91-.73,1.8-1.11,2.67-.76,1.74-1.54,3.44-2.32,5.09l0-.16c.4,3.13.75,6.17.9,9.13a10.1,10.1,0,0,1-.53,4.37,8.76,8.76,0,0,1-2.47,3.44l.1-.2c.41,12.56.75,22.95,1,30.22.1,3.6.18,6.43.23,8.4,0,.94,0,1.67,0,2.2S265.54,284.39,265.54,284.39Z"/>
      <path class="cls-13" d="M251.77,223.42A25.77,25.77,0,0,1,251,218c-.24-3-.3-5.5-.13-5.51s.49,2.44.73,5.47S251.94,223.41,251.77,223.42Z"/>
    </g>
  </g>
  <g>
    <path class="cls-7" d="M219.78,230.51,206.27,203.2a100.36,100.36,0,1,0-20.66,29.42l0,0Z"/>
    <path class="cls-9" d="M219.78,230.51l-34.19,2.26h-.18l.09-.16,0-.05.15.12a103.72,103.72,0,0,1-7.86,7c-1.43,1.2-3,2.3-4.59,3.49s-3.3,2.29-5.09,3.37a98.91,98.91,0,0,1-25.07,11.18,101.06,101.06,0,0,1-31.8,3.87A99.8,99.8,0,0,1,76,253.7a101.06,101.06,0,0,1-32.75-22.44,100.32,100.32,0,0,1-27.72-81.41c.16-1.95.54-3.88.83-5.82s.77-3.86,1.17-5.8A105.2,105.2,0,0,1,21,126.83a98,98,0,0,1,11-21.5,104.11,104.11,0,0,1,7.54-9.87l2.08-2.28,1-1.14L43.73,91l2.18-2.18,2.26-2.06A98,98,0,0,1,68,72.81c1.73-1,3.55-1.8,5.34-2.66s3.65-1.56,5.46-2.34,3.69-1.38,5.56-2,3.73-1.19,5.63-1.62A103.14,103.14,0,0,1,112.72,61a100.35,100.35,0,0,1,95.45,62.46,104.39,104.39,0,0,1,5,16c.26,1.33.52,2.64.78,3.94s.4,2.61.61,3.9c.09.64.18,1.29.28,1.92s.13,1.28.2,1.92c.14,1.27.24,2.53.31,3.78a100.44,100.44,0,0,1-5.15,38.71c-1.21,3.49-2.53,6.68-3.86,9.6v-.08c8.7,17.72,13.13,26.75,13.43,27.35l-13.59-27.26,0,0v-.05c1.32-2.91,2.63-6.11,3.82-9.59A99.78,99.78,0,0,0,215.07,155c-.08-1.25-.17-2.5-.32-3.77-.07-.63-.14-1.27-.2-1.91s-.19-1.28-.29-1.92c-.2-1.28-.33-2.59-.61-3.88s-.52-2.61-.78-3.93a103.49,103.49,0,0,0-5-15.95,98.81,98.81,0,0,0-19.7-30.65,99.95,99.95,0,0,0-75.43-31.5,102.75,102.75,0,0,0-22.67,3.21c-1.89.43-3.73,1.07-5.6,1.62s-3.69,1.31-5.54,2-3.65,1.48-5.43,2.33-3.6,1.67-5.33,2.65A98.06,98.06,0,0,0,48.47,87L46.21,89.1l-2.16,2.16L43,92.35l-1,1.13-2.07,2.28A102.57,102.57,0,0,0,26.21,116a101.42,101.42,0,0,0-4.78,11A104.93,104.93,0,0,0,18,138.33c-.4,1.93-.85,3.84-1.17,5.77s-.67,3.86-.83,5.8A100,100,0,0,0,143,257.44a98.79,98.79,0,0,0,25-11.1c1.79-1.07,3.44-2.25,5.08-3.35s3.16-2.28,4.59-3.48a103.58,103.58,0,0,0,7.86-7l.52-.49-.36.61,0,.05-.09-.15Z"/>
  </g>
  <path class="cls-11" d="M63.75,247.52,167,247.35s-24.68,16.36-54.33,14.43C86.9,260.1,63.75,247.52,63.75,247.52Z"/>
  <g>
    <g>
      <path class="cls-7" d="M109,178.27l5.89,21.53,21.51-29-5.06,76.15H100.58l-9,.43s1.32-12,1.87-18.77a75.59,75.59,0,0,1,2.73-16C100.81,197.66,109,178.27,109,178.27Z"/>
      <path class="cls-9" d="M115.89,212c.07.09-3.4,2.89-7.75,6.24s-7.94,6-8,5.89,3.39-2.9,7.75-6.25S115.81,211.87,115.89,212Z"/>
    </g>
    <g>
      <polygon class="cls-14" points="169.34 167.77 152.62 159.72 146.06 151.92 136.78 161.57 112.18 246.71 154.37 246.71 159.78 232.1 169.34 175.69 169.34 167.77"/>
      <path class="cls-14" d="M94.08,247.94,93,229.87l51-8.63s8.71-42.06,14.07-49c5-6.36,11.41-4.15,11.41-4.15s5.81,4,4.42,19.24c-.73,8-3.65,35.67-4.71,45.68a15.81,15.81,0,0,1-2.32,6.75h0a16,16,0,0,1-13.56,7.53Z"/>
      <path class="cls-9" d="M152.24,231.73c-.08,0-.15-.8-.52-2a12.22,12.22,0,0,0-2.36-4.39,12.36,12.36,0,0,0-3.93-3.07c-1.15-.57-1.94-.78-1.92-.85a5.39,5.39,0,0,1,2.06.57,11.25,11.25,0,0,1,4.14,3.06,11.4,11.4,0,0,1,2.32,4.59A5.69,5.69,0,0,1,152.24,231.73Z"/>
      <g class="cls-2">
        <path d="M151.31,161a80.83,80.83,0,0,1-3,15.7l-3.83-1.13a10,10,0,0,1,1.14,7.92,29.65,29.65,0,0,1-3.31,7.52l-19,34.17,19.17-43.53-.5-8,3.69-.79Z"/>
      </g>
      <g class="cls-2">
        <path d="M143.75,220.73a10.19,10.19,0,0,1,10.42,7.55,2.6,2.6,0,0,1,0,1.63,1.07,1.07,0,0,1-1.33.68,1.7,1.7,0,0,1-.75-1,15.42,15.42,0,0,0-8.86-8.26"/>
      </g>
      <path class="cls-9" d="M123.39,224.71a3.59,3.59,0,0,1,.26-.69c.2-.49.47-1.15.82-2l3.1-7.21c2.68-6.1,6.34-14.46,10.39-23.69,1.48-3.36,2.92-6.6,4.26-9.64v.1c-.17-2.86-.33-5.56-.48-8.05v-.17l.16,0,3.7-.77-.13.09,4.6-9.29q.81-1.62,1.29-2.55l.35-.66a1,1,0,0,1,.13-.22s0,.09-.09.25l-.3.68-1.2,2.58-4.46,9.37,0,.07-.09,0-3.69.81.15-.2c.17,2.49.34,5.18.53,8v0l0,.05-4.25,9.65c-4.1,9.21-7.8,17.56-10.51,23.64l-3.23,7.15-.9,1.93A4.9,4.9,0,0,1,123.39,224.71Z"/>
      <path class="cls-9" d="M94.05,247.34a1,1,0,0,1,0-.3l-.07-.88c-.06-.81-.14-1.94-.25-3.4-.2-3-.48-7.24-.83-12.49v-.15l.15,0,36.86-6.78,13.59-2.46-.17.16c3-11.36,5.58-21.21,7.44-28.25.93-3.49,1.68-6.28,2.21-8.23.25-.93.46-1.66.6-2.19.07-.23.13-.42.17-.57s.06-.19.07-.18,0,.06,0,.19l-.13.58-.54,2.21c-.49,2-1.2,4.76-2.08,8.26-1.82,7-4.36,16.92-7.29,28.29l0,.13-.14,0-13.59,2.49-36.88,6.65.13-.17c.29,5.25.52,9.52.68,12.5.07,1.46.12,2.6.16,3.41,0,.36,0,.66,0,.88A2.25,2.25,0,0,1,94.05,247.34Z"/>
    </g>
    <path class="cls-9" d="M166.77,166.35c0,.09-.85.21-2.15.7a13.77,13.77,0,0,0-7.7,7.21c-.57,1.26-.75,2.12-.83,2.1s0-.22.06-.61a8.87,8.87,0,0,1,.48-1.62,12.71,12.71,0,0,1,7.88-7.38,9.07,9.07,0,0,1,1.64-.37C166.55,166.33,166.77,166.32,166.77,166.35Z"/>
    <g>
      <path class="cls-17" d="M70.43,147.2c1.51-2.79.84-14,3.17-13.63,3,.51.22,12.32,0,13.4s1.37,1.34,1.48.36c.17-1.41,1.9-15.15,4.82-14.38,1.62.43.88,3.39.88,3.39S78.31,149.66,79.7,150s2.46-7.36,3.08-10.16,2.34-3.83,3-2.42c1,2.07-.89,8.78-1.45,11.48s-1.94,10.48,1.84,7.44,7.81-4,9.06-3.52,1,2.42-.47,2.8a17.93,17.93,0,0,0-4.31,2.31,16.93,16.93,0,0,0-2.86,2.69,14.9,14.9,0,0,0-2.71,4.21A9.4,9.4,0,0,1,79.14,170h0l-2.21,10.5-14.29-3.06,3.18-11.11c1.16-7.3.52-17.11.53-21.57,0-7.12,1-7.17,1.77-7C69.93,138.14,69,149.91,70.43,147.2Z"/>
      <path class="cls-18" d="M70,156.75a14.7,14.7,0,0,1,1.9.88,8.07,8.07,0,0,1,3.22,3.81,7.14,7.14,0,0,1,.43,1.51l0,.24.2-.12a11.88,11.88,0,0,1,3.71-1.4c1-.19,1.58-.21,1.57-.26a4.68,4.68,0,0,0-1.61,0,10.63,10.63,0,0,0-3.83,1.32l.25.12a7.81,7.81,0,0,0-.45-1.58,7.94,7.94,0,0,0-1.57-2.45,7.64,7.64,0,0,0-1.85-1.45,6.11,6.11,0,0,0-1.46-.58C70.23,156.75,70,156.72,70,156.75Z"/>
      <path class="cls-18" d="M68.13,166.74a9.29,9.29,0,0,0,3.33,1.61,9.37,9.37,0,0,0,3.66.57c0-.1-1.63-.29-3.55-.9S68.18,166.65,68.13,166.74Z"/>
    </g>
    <polygon class="cls-17" points="119.87 156.4 108.95 178.26 114.84 199.8 130.52 183.24 145.98 154.52 119.87 156.4"/>
    <g>
      <path class="cls-14" d="M109.59,158.45S94.07,164,94.07,165h0c-2.74,2.15-11.87,24.22-14.77,28.4L71,205.63h0l7-27.18-15.32-4.51S49.56,205.56,48,212.59a25.89,25.89,0,0,0,.24,12.61l.09-.07A14.58,14.58,0,0,0,54,232.85c6.49,4.16,12.56,5,18.76.36,3.52-2.6,7.54-5.73,11.22-8.66l1,22.82h8.46c0-1.28-.26-16.92-.26-16.92a88.13,88.13,0,0,0,2.57-11.28c.77-5.39,13.37-40.71,13.37-40.71l9.79-18.84.22-7Z"/>
      <path class="cls-9" d="M84.81,247.18a5.16,5.16,0,0,1-.07-.71l-.13-2.05c-.09-1.82-.22-4.39-.39-7.57-.29-6.45-.69-15.34-1.14-25.3v-.06c.18-.94.37-2,.57-3,2-10.47,3.91-19.94,5.26-26.85.69-3.4,1.25-6.17,1.65-8.13.19-.92.35-1.66.47-2.2l.13-.57c0-.13,0-.19.06-.19s0,.07,0,.2l-.09.58c-.09.54-.22,1.28-.38,2.22-.37,2-.88,4.74-1.51,8.15L84.1,208.62c-.2,1-.39,2-.57,3v-.05c.39,10,.74,18.86,1,25.31.1,3.18.19,5.75.25,7.57,0,.86,0,1.55,0,2.05A4,4,0,0,1,84.81,247.18Z"/>
      <path class="cls-9" d="M93.49,226.92a3.53,3.53,0,0,1,.08-.72c.07-.5.18-1.18.31-2,.29-1.81.71-4.36,1.21-7.48,1.08-6.35,2.56-15,4.19-24.65,1.1-6.29,2.13-12.18,3-17.2v-.05l5.23-11.86,1.49-3.32c.17-.35.31-.64.41-.87a2.18,2.18,0,0,1,.16-.29,1.1,1.1,0,0,1-.1.32l-.35.89-1.4,3.36c-1.25,2.92-3,7-5.09,11.93l0,0c-.86,5-1.87,10.93-2.94,17.22-1.69,9.59-3.21,18.28-4.32,24.62l-1.36,7.46c-.17.84-.3,1.52-.39,2A6.26,6.26,0,0,1,93.49,226.92Z"/>
      <path class="cls-9" d="M63.75,224.38c-.06,0,.61-1,1.54-2.61a47.64,47.64,0,0,0,3.11-6.58,55.32,55.32,0,0,0,2.14-7c.43-1.82.63-3,.7-2.95a3,3,0,0,1,0,.82c0,.52-.17,1.27-.34,2.2a42.33,42.33,0,0,1-2,7.06,38.42,38.42,0,0,1-3.26,6.59,21.09,21.09,0,0,1-1.27,1.83C64,224.18,63.78,224.4,63.75,224.38Z"/>
      <g class="cls-2">
        <path d="M64.92,223.12a1,1,0,0,0-.65,1.34,1.4,1.4,0,0,0,1.48.67,3,3,0,0,0,1.51-.82,10.25,10.25,0,0,0,2.63-4.6c1.32-4.15,1.38-8.58,1.43-12.94A53.25,53.25,0,0,1,65,222.88"/>
      </g>
      <g class="cls-2">
        <path d="M83.77,225.15a23,23,0,0,1-3.13-14c.47-6.63,3.69-12.7,6.1-18.9-1.39,6.52-2.18,13-3.43,19.26,0,0,.67,9.31.68,13.45"/>
      </g>
      <g class="cls-2">
        <path d="M94.48,221c.67-9.92,1.35-19.88,3.1-29.67a94.77,94.77,0,0,1,10-28.64c-1.25,3.93-5.1,12.19-5.1,12.19s-5.57,29.32-8,44.1"/>
      </g>
    </g>
    <g>
      <path class="cls-17" d="M93.22,232.41l1.39,15.39-7.26,0-6.44-.1a45.19,45.19,0,0,1-7.38.2.7.7,0,0,1-.34-.08,6.17,6.17,0,0,1-1.12-.27h0c-.66-.24-1.33-.67-1.23-1.39.32-2.21,1.63-2.38,1.63-2.38l.66-.05.05-.19c-1,0-1.84,0-2.28-.07-.21,0-.33-.05-.34-.08S68,243,68.15,241.68c.32-2.21,1.63-2.38,1.63-2.38l2.12-.15a23.4,23.4,0,0,1-2.36-.07c-.2,0-.33-.05-.34-.08s-2.58-.3-2.38-1.66c.32-2.21,1.63-2.39,1.63-2.39l1.75-.12c-.83,0-1.52,0-1.91-.07-.2,0-.33,0-.34-.08s-2.58-.3-2.38-1.67c.32-2.2,1.63-2.38,1.63-2.38s4.06-.29,6.84-.4c0,0,3.16-2.85,4.4-2.72,1.86.19,12.67,4.19,12.67,4.19Z"/>
      <g>
        <path class="cls-18" d="M79.58,243.28a14.07,14.07,0,0,1-3.6.35,13.76,13.76,0,0,1-3.57-.12,15.14,15.14,0,0,1,3.61-.34A14,14,0,0,1,79.58,243.28Z"/>
        <path class="cls-18" d="M79.61,238.92a28.68,28.68,0,0,1-5.13.41,28.5,28.5,0,0,1-5.14-.05,28.68,28.68,0,0,1,5.13-.41A28.5,28.5,0,0,1,79.61,238.92Z"/>
        <g class="cls-19">
          <path class="cls-18" d="M79.24,234.48a28,28,0,0,1-5.12.42,28.4,28.4,0,0,1-5.14-.05,27.91,27.91,0,0,1,5.12-.42A28.45,28.45,0,0,1,79.24,234.48Z"/>
        </g>
      </g>
      <path class="cls-18" d="M72.88,230.31a6.4,6.4,0,0,0,1.63.13l3.94.13,3.94.14a8.26,8.26,0,0,0,1.64,0,6.35,6.35,0,0,0-1.63-.25c-1-.11-2.39-.2-3.94-.26s-2.94-.05-3.95,0A7.32,7.32,0,0,0,72.88,230.31Z"/>
    </g>
    <g>
      <path class="cls-9" d="M153.12,104.91c1.82-4.44,7.6-6.46,12.11-4.81s7.53,6.28,8.07,11.05a9.93,9.93,0,0,1-1.38,6.8,9.18,9.18,0,0,1-6.31,3.55,12.58,12.58,0,0,1-13.3-17.44"/>
      <path class="cls-11" d="M171.47,105.5a1.77,1.77,0,0,1-.32.59,11.23,11.23,0,0,1-1.16,1.42,12.88,12.88,0,0,1-11.07,3.8,10.63,10.63,0,0,1-1.78-.41,2.24,2.24,0,0,1-.62-.26c0-.08.93.21,2.44.35a13.75,13.75,0,0,0,10.8-3.71C170.87,106.24,171.41,105.46,171.47,105.5Z"/>
      <path class="cls-11" d="M173.39,110.57s-.16.19-.5.47a16.69,16.69,0,0,1-1.49,1.08,17.16,17.16,0,0,1-5.62,2.36,13.71,13.71,0,0,1-3.37.26,11.86,11.86,0,0,1-2.73-.45,10.5,10.5,0,0,1-1.73-.64c-.39-.19-.6-.31-.59-.34s.91.33,2.4.68a13.92,13.92,0,0,0,2.66.34,15.06,15.06,0,0,0,3.26-.29,19.58,19.58,0,0,0,5.55-2.19A23.74,23.74,0,0,1,173.39,110.57Z"/>
      <path class="cls-9" d="M106.5,118.18c-10.67-23.47,14.71-35.26,28.56-31.35,13,3.68,18.57,10.15,20.71,18.86s2,18.14-1.37,26.44c-1.68,4.09-4.72,8.24-9.11,8.75"/>
      <path class="cls-17" d="M119.25,176.18c-.19-11.21-.32-26.61-.32-26.55s-9.64-1.6-11.64-14.17c-1-6.26-.68-16.51-.15-24.89.48-7.55,5.48-16.81,13-16l23.48,5.93a4.42,4.42,0,0,1,3.95,4.49h0L146,153.53"/>
      <path class="cls-9" d="M112.9,119.5a1.6,1.6,0,0,0,1.53,1.64,1.54,1.54,0,0,0,1.67-1.43,1.62,1.62,0,0,0-1.53-1.64A1.55,1.55,0,0,0,112.9,119.5Z"/>
      <path class="cls-9" d="M130.29,119.5a1.61,1.61,0,0,0,1.53,1.64,1.54,1.54,0,0,0,1.67-1.43,1.62,1.62,0,0,0-1.53-1.64A1.55,1.55,0,0,0,130.29,119.5Z"/>
      <path class="cls-9" d="M119.88,128.41a11.13,11.13,0,0,0-2.82-.51c-.44-.05-.86-.14-.93-.44a2.22,2.22,0,0,1,.29-1.31c.42-1.08.86-2.2,1.31-3.38,1.82-4.8,3.14-8.75,3-8.82s-1.83,3.76-3.65,8.56l-1.26,3.4a2.64,2.64,0,0,0-.23,1.74,1.14,1.14,0,0,0,.73.65,3.24,3.24,0,0,0,.76.1A11.62,11.62,0,0,0,119.88,128.41Z"/>
      <path class="cls-18" d="M118.91,149.68a32,32,0,0,0,16.84-4.49s-4.26,8.75-16.84,7.57Z"/>
      <path class="cls-17" d="M145.16,120.85c.19-.09,6.73-3,6.81,4.54s-7.5,6-7.51,5.84S145.16,120.85,145.16,120.85Z"/>
      <path class="cls-18" d="M146.73,128.35s.13.09.35.19a1.3,1.3,0,0,0,1,0c.8-.3,1.45-1.57,1.48-2.93a4.34,4.34,0,0,0-.39-1.87,1.54,1.54,0,0,0-1-1,.68.68,0,0,0-.77.37c-.1.21,0,.36-.09.38s-.16-.13-.1-.44a.83.83,0,0,1,.29-.48,1,1,0,0,1,.72-.19,1.85,1.85,0,0,1,1.39,1.15,4.41,4.41,0,0,1,.47,2.09c0,1.52-.79,3-1.88,3.27a1.4,1.4,0,0,1-1.2-.18C146.74,128.53,146.7,128.37,146.73,128.35Z"/>
      <g>
        <path class="cls-18" d="M120.4,133.24a7.17,7.17,0,0,0,.93,1.83,2.41,2.41,0,0,0,1.73,1,2.19,2.19,0,0,0,1.85-1,3.51,3.51,0,0,0,.52-2.1c0-.66-.34-1.45-1-1.53a1.75,1.75,0,0,0-.8.17L120.17,133"/>
        <path class="cls-9" d="M121.78,136.11a5,5,0,0,0,1.85-.23,2.65,2.65,0,0,0,1.39-1.27,2.79,2.79,0,0,0,0-2.27,2.54,2.54,0,0,0-.3-.51c-.14-.15-.12-.14-.27-.12s-.37.15-.55.22l-.57.23c-.74.3-1.41.56-2,.77a6.06,6.06,0,0,1-1.88.57,6.16,6.16,0,0,1,1.71-1c.54-.26,1.2-.57,1.93-.89l.56-.25a4.94,4.94,0,0,1,.63-.27.9.9,0,0,1,.51,0,.86.86,0,0,1,.38.3,2.61,2.61,0,0,1,.39.66,3.25,3.25,0,0,1-.1,2.77,3,3,0,0,1-1.76,1.42,2.89,2.89,0,0,1-1.5.06C121.93,136.26,121.77,136.14,121.78,136.11Z"/>
      </g>
      <path class="cls-11" d="M153.61,115.69c-.77,0-7,.75-6.5,12.31.45,10.8,8,8.42,10.45,4.36C159.85,128.51,161.17,116.22,153.61,115.69Z"/>
      <path class="cls-11" d="M157.45,117.06a1.3,1.3,0,0,1,0-.31c0-.22,0-.51,0-.88,0-.8-.06-1.91-.1-3.29,0-2.84-.13-6.78-.22-11.34l.14.14H154l.14-.15c0,.86.05,1.77.08,2.69.1,4.33.2,8.37.29,11.76v.1l-.1,0a5.84,5.84,0,0,0-3.3,2.12,8,8,0,0,0-1.32,2.79,12.76,12.76,0,0,0-.34,2c0,.23,0,.4,0,.52a.76.76,0,0,1,0,.19s0-.07,0-.19a4.55,4.55,0,0,1,0-.53,9.93,9.93,0,0,1,.28-2,7.72,7.72,0,0,1,1.29-2.88,6,6,0,0,1,3.41-2.24l-.1.12c-.09-3.38-.21-7.42-.33-11.76,0-.92-.05-1.82-.07-2.68v-.15h3.49v.14c.05,4.55.09,8.5.12,11.34,0,1.38,0,2.49,0,3.29v.88A1.09,1.09,0,0,1,157.45,117.06Z"/>
      <path class="cls-11" d="M153.61,101.24a24.87,24.87,0,0,0-11-11.37,46.81,46.81,0,0,0-9.28-3.44s4.52-1.07,11.84,2.18c3.32,1.48,6.67,3.41,8.89,6.3,1.4,1.83,3.16,5.41,3.16,6.33Z"/>
      <path class="cls-9" d="M152.78,135.58a.63.63,0,0,1-.22-.06,2.69,2.69,0,0,1-.58-.3,5.22,5.22,0,0,1-1.63-1.74,8.47,8.47,0,0,1-1-3.39,24.9,24.9,0,0,1,0-4.32,27.61,27.61,0,0,1,.71-4.26,12.5,12.5,0,0,1,1.25-3.3,4.91,4.91,0,0,1,1.64-1.73,3.07,3.07,0,0,1,.58-.29c.14-.06.21-.07.22-.06a8.38,8.38,0,0,0-.74.44,5.44,5.44,0,0,0-1.53,1.74,12.93,12.93,0,0,0-1.16,3.27,28.43,28.43,0,0,0-.68,4.22,26.54,26.54,0,0,0,0,4.27,8.35,8.35,0,0,0,.91,3.31,5.26,5.26,0,0,0,1.52,1.75C152.49,135.45,152.79,135.56,152.78,135.58Z"/>
      <g>
        <rect class="cls-11" x="120.7" y="134.39" width="9" height="3.39" rx="1.7" transform="translate(-23.86 26.66) rotate(-11.1)"/>
        <path class="cls-11" d="M128.82,134.71l26.43-8.29a1.26,1.26,0,0,1,1.56.81h0a1.26,1.26,0,0,1-.86,1.59l-27,7.3Z"/>
        <path class="cls-9" d="M148.35,131.07a5.85,5.85,0,0,1,.88-.31l2.42-.73c1-.32,2.25-.65,3.57-1.08a2.43,2.43,0,0,0,.87-.53,1.35,1.35,0,0,0,.37-.92.8.8,0,0,0-.55-.76,2,2,0,0,0-1.1,0l-7.92,2.55-2.42.74a6.17,6.17,0,0,1-.89.24,5.67,5.67,0,0,1,.86-.35l2.38-.83c2-.69,4.8-1.64,7.92-2.63a2.28,2.28,0,0,1,1.27,0,1.09,1.09,0,0,1,.73,1,1.54,1.54,0,0,1-.46,1.12,2.63,2.63,0,0,1-1,.59c-1.37.43-2.59.73-3.62,1l-2.44.65A5.13,5.13,0,0,1,148.35,131.07Z"/>
      </g>
      <path class="cls-18" d="M134.49,115.81c-.2.32-2-.67-4.26-.26s-3.62,1.91-3.92,1.67,0-.65.6-1.33a5.41,5.41,0,0,1,3.09-1.67,5.51,5.51,0,0,1,3.47.53C134.26,115.19,134.59,115.67,134.49,115.81Z"/>
      <path class="cls-9" d="M134.23,116.09a9.46,9.46,0,0,1-1.24-.31,7,7,0,0,0-3,0,7.1,7.1,0,0,0-2.69,1.29c-.61.48-.92.86-1,.81s.19-.48.78-1a6,6,0,0,1,6-1.34A2.45,2.45,0,0,1,134.23,116.09Z"/>
      <path class="cls-9" d="M135.39,111c-.18.6-2.1.55-4.39.66s-4.21.25-4.43-.34c-.1-.29.29-.73,1.08-1.13a8.68,8.68,0,0,1,6.59-.24C135.05,110.33,135.47,110.74,135.39,111Z"/>
      <path class="cls-18" d="M116.44,117.14c-.17.09-.51-.23-1.06-.6a5.51,5.51,0,0,0-2.29-.93c-2-.32-3.51.58-3.74.26-.1-.13.17-.58.86-1a4.66,4.66,0,0,1,3.09-.58,4.22,4.22,0,0,1,2.75,1.58C116.54,116.53,116.59,117.06,116.44,117.14Z"/>
      <path class="cls-9" d="M116.65,118.07c-.06,0-.35-.39-1-.93a6.07,6.07,0,0,0-5.88-1.28c-.78.24-1.22.51-1.26.45s.36-.42,1.15-.75a5.74,5.74,0,0,1,3.32-.28,5.6,5.6,0,0,1,2.89,1.63C116.5,117.54,116.7,118.05,116.65,118.07Z"/>
      <path class="cls-9" d="M117.43,111.79c-.11.62-1.94.79-4.12.82s-4-.14-4.14-.76,1.71-1.47,4.12-1.49S117.55,111.19,117.43,111.79Z"/>
      <path class="cls-9" d="M137.73,94a24.83,24.83,0,0,0-3.44,6.49,8.38,8.38,0,0,0,.74,7.09c1.32,1.95,3.59,3,5.66,4.1s4.18,2.67,4.69,5c.16.72-.14,3.23.4,3.73a1.83,1.83,0,0,0,2.6-.57,13,13,0,0,0,.94-4.61l.13-9.4c0-2.66,0-5.41-1.14-7.8-1.61-3.34-4.94-4.41-9.81-4.18"/>
      <path class="cls-9" d="M106.86,112.82a17.73,17.73,0,0,1,3.57-8.78,13,13,0,0,1,8-4.82c3.17-.48,6.37.4,9.58.58s6.85-.6,8.52-3.34a2.41,2.41,0,0,0,.1-2.79,2.85,2.85,0,0,0-.94-.62A24.06,24.06,0,0,0,122,90.84a18.94,18.94,0,0,0-12,6.71,15.6,15.6,0,0,0-3,13.26"/>
      <path class="cls-11" d="M104.94,108.1a2.77,2.77,0,0,1-.15-.41,7.21,7.21,0,0,1-.25-1.23,10.54,10.54,0,0,1,.43-4.57,12.14,12.14,0,0,1,3.78-5.64,15.78,15.78,0,0,1,7.58-3.41,21.44,21.44,0,0,1,8.33.38,28.17,28.17,0,0,1,3.49,1c1.07.39,2,.83,2.95,1.07a12.4,12.4,0,0,0,4.47.4A3.2,3.2,0,0,0,137,95s-.08.14-.29.33a2.68,2.68,0,0,1-1.13.56,12,12,0,0,1-4.59-.26c-1-.23-1.94-.66-3-1a30,30,0,0,0-3.45-1,21.43,21.43,0,0,0-8.16-.34,15.6,15.6,0,0,0-7.4,3.29,12.06,12.06,0,0,0-3.74,5.42,11.06,11.06,0,0,0-.56,4.45C104.81,107.51,105,108.08,104.94,108.1Z"/>
      <path class="cls-11" d="M118.85,88.32a2.37,2.37,0,0,1,.79-.16,11.33,11.33,0,0,1,2.2,0,12.77,12.77,0,0,1,6.69,2.68c1.12.89,2.05,1.85,3,2.51a8,8,0,0,0,2.91,1.18,6.64,6.64,0,0,0,2.12.14c.5-.06.76-.19.78-.16a1.45,1.45,0,0,1-.75.33,5.75,5.75,0,0,1-2.21,0,8,8,0,0,1-3.08-1.14c-1-.68-2-1.65-3.08-2.51a13.28,13.28,0,0,0-6.44-2.71C120,88.23,118.86,88.4,118.85,88.32Z"/>
      <path class="cls-11" d="M156.92,111.41s-.17-.3-.53-.78a5.42,5.42,0,0,0-2-1.54,8.49,8.49,0,0,0-3.68-.74,29.84,29.84,0,0,0-4.65.64,16.73,16.73,0,0,1-4.76.36,13.09,13.09,0,0,1-3.79-.91,12,12,0,0,1-2.32-1.25,3.13,3.13,0,0,1-.74-.61,25.4,25.4,0,0,0,3.17,1.56,13.42,13.42,0,0,0,3.72.8,17.22,17.22,0,0,0,4.64-.39,26.45,26.45,0,0,1,4.73-.61,8.55,8.55,0,0,1,3.82.86,5.2,5.2,0,0,1,2,1.72,5,5,0,0,1,.33.64C156.91,111.32,156.94,111.4,156.92,111.41Z"/>
      <path class="cls-11" d="M155.56,105.37s-.17-.3-.54-.76a4.91,4.91,0,0,0-2-1.41,7.34,7.34,0,0,0-3.63-.39c-1.4.14-2.9.56-4.53.86a9.58,9.58,0,0,1-4.68-.07,7.58,7.58,0,0,1-3.26-2,6.91,6.91,0,0,1-1.43-2.14,3.8,3.8,0,0,1-.23-.67c0-.15-.06-.23,0-.24a9.93,9.93,0,0,0,1.92,2.83,7.58,7.58,0,0,0,3.16,1.84,9.51,9.51,0,0,0,4.48,0c1.6-.3,3.13-.71,4.57-.83a7.61,7.61,0,0,1,3.8.5,4.78,4.78,0,0,1,2,1.61A1.88,1.88,0,0,1,155.56,105.37Z"/>
      <path class="cls-9" d="M123.25,191.58l.16-.13.48-.38a19.73,19.73,0,0,0,1.75-1.6,30.13,30.13,0,0,0,2.48-2.87c.91-1.18,1.87-2.58,2.93-4.15,2.13-3.15,4.61-7,7.24-11.38,1.32-2.2,2.68-4.55,4.05-7l1-1.88a11.34,11.34,0,0,1,1.18-1.88,4,4,0,0,1,1.83-1.32,2.16,2.16,0,0,1,1.16-.13,1,1,0,0,1,.55.3,1.28,1.28,0,0,1,.3.56v.09a2.31,2.31,0,0,1-.41.71,1.16,1.16,0,0,1-.76.36,2.41,2.41,0,0,1-1.49-.52,2.53,2.53,0,0,1-1-2.94,2.25,2.25,0,0,1,1.1-1.25,2.49,2.49,0,0,1,1.63-.22,1.74,1.74,0,0,1,1.33,1,.88.88,0,0,1-.2.91,1.55,1.55,0,0,1-.77.42,2.29,2.29,0,0,1-2.53-1.15,2.06,2.06,0,0,1-.15-1.48,2.44,2.44,0,0,1,.77-1.25,2,2,0,0,1,1.34-.52,1.58,1.58,0,0,1,1.27.66,1,1,0,0,1,.16.77,1,1,0,0,1-.42.65,1.52,1.52,0,0,1-1.4.17,1.72,1.72,0,0,1-.94-1,3.57,3.57,0,0,1-.21-1.37,4.74,4.74,0,0,1,.67-2.59,2,2,0,0,1,1.08-.82,1.77,1.77,0,0,1,1.31.24,1.3,1.3,0,0,1,.65,1.16,1.19,1.19,0,0,1-.86,1,1.41,1.41,0,0,1-1.27-.21,1.77,1.77,0,0,1-.63-1.11,2.64,2.64,0,0,1,.1-1.25,6,6,0,0,1,.43-1.13,2.14,2.14,0,0,1,.81-.9,2.71,2.71,0,0,1,1.12-.38,1.19,1.19,0,0,1,.61.08,1.34,1.34,0,0,1,.45.4,1.44,1.44,0,0,1,.25.55.82.82,0,0,1-.07.63,1,1,0,0,1-1.07.42,1.86,1.86,0,0,1-1-.51,2.91,2.91,0,0,1-.84-1.94,3.13,3.13,0,0,1,.52-2,2.4,2.4,0,0,1,.74-.68,2,2,0,0,1,.93-.26,1.39,1.39,0,0,1,.92.27,1,1,0,0,1,.39.88,1.42,1.42,0,0,1-1.24,1.2,1.5,1.5,0,0,1-1.41-.8,2.53,2.53,0,0,1-.35-1.53,9.37,9.37,0,0,1,.93-2.63c.35-.78.66-1.49.94-2.13.57-1.28,1-2.27,1.31-3l.35-.76c.08-.17.13-.26.13-.26s0,.1-.1.27l-.32.78-1.26,3-.92,2.15a9,9,0,0,0-.9,2.59,2.34,2.34,0,0,0,.34,1.42,1.32,1.32,0,0,0,1.24.7,1.24,1.24,0,0,0,1.07-1,.85.85,0,0,0-.32-.7,1.19,1.19,0,0,0-.79-.22,1.81,1.81,0,0,0-.84.24,2.05,2.05,0,0,0-.66.62,2.87,2.87,0,0,0-.48,1.84,2.65,2.65,0,0,0,.78,1.78,1.6,1.6,0,0,0,.86.45.77.77,0,0,0,.82-.3.89.89,0,0,0-.16-.9,1.05,1.05,0,0,0-.37-.33.92.92,0,0,0-.48-.06,2.14,2.14,0,0,0-1.73,1.15,6.64,6.64,0,0,0-.4,1.08,2.31,2.31,0,0,0-.1,1.13,1.53,1.53,0,0,0,.54.94,1.11,1.11,0,0,0,1,.16.91.91,0,0,0,.67-.76,1,1,0,0,0-.53-.9,1.41,1.41,0,0,0-1.09-.2,1.7,1.7,0,0,0-.92.7,4.5,4.5,0,0,0-.62,2.43,3.33,3.33,0,0,0,.19,1.26,1.49,1.49,0,0,0,.78.88,1.31,1.31,0,0,0,1.14-.14.72.72,0,0,0,.18-1,1.29,1.29,0,0,0-1-.54,1.71,1.71,0,0,0-1.14.45A1.91,1.91,0,0,0,147.8,158a1.32,1.32,0,0,0,.64-.34.56.56,0,0,0,.12-.6,1.43,1.43,0,0,0-1.11-.84,2.08,2.08,0,0,0-2.4,1.28,2.23,2.23,0,0,0,.85,2.6,2.15,2.15,0,0,0,1.31.47,1.13,1.13,0,0,0,.92-.88v.09a.86.86,0,0,0-.64-.66,2,2,0,0,0-1,.12,3.85,3.85,0,0,0-1.7,1.23,12,12,0,0,0-1.16,1.83c-.35.64-.69,1.27-1,1.89-1.38,2.48-2.74,4.83-4.07,7-2.65,4.41-5.15,8.22-7.3,11.35-1.07,1.57-2,3-3,4.14a28.31,28.31,0,0,1-2.52,2.86A15.26,15.26,0,0,1,123.25,191.58Z"/>
    </g>
  </g>
</svg>
