<svg xmlns="http://www.w3.org/2000/svg" width="1240" height="627" viewBox="0 0 1240 627">
  <g id="Grupo_88855" data-name="Grupo 88855" transform="translate(-180 -1144.204)">
    <rect id="Rectángulo_34134" data-name="Rectángulo 34134" width="1239" height="627" transform="translate(181 1144.204)" fill="#eeedfb"/>
    <path id="Trazado_144295" data-name="Trazado 144295" d="M0,331.11A127.857,127.857,0,0,0,127.039,203.257,127.857,127.857,0,0,0,0,75.4V0C111.881.442,202.442,91.272,202.442,203.257S111.881,406.071,0,406.514Z" transform="translate(1419.432 1577.529) rotate(180)" fill="#e8e6fa"/>
    <path id="Trazado_144296" data-name="Trazado 144296" d="M-2095.418,411.671a129.057,129.057,0,0,0,128.232-129.053,129.057,129.057,0,0,0-128.232-129.053V77.453c112.931.446,204.343,92.129,204.343,205.165s-91.411,204.718-204.343,205.164Z" transform="translate(2275.418 1233.858)" fill="#e8e6fa"/>
  </g>
</svg>
