<svg id="Capa_1" data-name="Capa 1" xmlns="http://www.w3.org/2000/svg" width="920" height="300" viewBox="0 0 920 300">
  <defs>
    <style>
      .cls-1 {
        fill: #b2abdb;
      }

      .cls-2 {
        fill: #8b82ca;
        opacity: 0.18;
      }

      .cls-3 {
        opacity: 0.31;
      }

      .cls-4 {
        fill: #6558b8;
      }

      .cls-5 {
        fill: #3f3466;
      }

      .cls-6 {
        fill: #0b0130;
      }

      .cls-7 {
        font-size: 18px;
        fill: #091320;
        font-family: Roboto-Bold, Roboto;
        font-weight: 700;
      }

      .cls-8 {
        letter-spacing: -0.01em;
      }

      .cls-9 {
        letter-spacing: -0.01em;
      }

      .cls-10 {
        letter-spacing: -0.01em;
      }
    </style>
  </defs>
  <rect class="cls-1" x="76.95" y="119.55" width="766.1" height="60.89" rx="30.45"/>
  <g>
    <g>
      <path class="cls-2" d="M460,78.2V35.62a114.38,114.38,0,0,0,0,228.76V221.8a71.8,71.8,0,0,1,0-143.6Z"/>
      <g class="cls-3">
        <path class="cls-4" d="M460,264.38a114.38,114.38,0,0,0,0-228.76V78.2a71.8,71.8,0,0,1,0,143.6Z"/>
      </g>
    </g>
    <g>
      <path class="cls-4" d="M386.15,150A73.85,73.85,0,0,0,460,223.85V76.15A73.85,73.85,0,0,0,386.15,150Z"/>
      <path class="cls-5" d="M533.85,150A73.85,73.85,0,0,0,460,76.15v147.7A73.85,73.85,0,0,0,533.85,150Z"/>
    </g>
    <g>
      <path class="cls-6" d="M447.67,97.68a6.53,6.53,0,0,0,.73,0,4.24,4.24,0,0,1,.91,3.2,14.79,14.79,0,0,1-.71,3.09c-.13.45-.27.91-.4,1.38a7.82,7.82,0,0,0,.09,5.24.87.87,0,0,0,.8.53.85.85,0,0,0,.35-.08.87.87,0,0,0,.45-1.16,6.21,6.21,0,0,1,0-4.09c.12-.43.26-.88.39-1.31a16.82,16.82,0,0,0,.78-3.45A6.06,6.06,0,0,0,450,96.84a4.05,4.05,0,0,0,.63-.77,6.71,6.71,0,0,0,1-2.47.88.88,0,0,0-1.73-.33,5.25,5.25,0,0,1-.75,1.83,2.36,2.36,0,0,1-.64.68.82.82,0,0,0-.41.12,3.62,3.62,0,0,1-.48,0,3.43,3.43,0,0,1-2.41-.56.88.88,0,0,0-1.28,1.2,4.78,4.78,0,0,0,3.65,1.12Z"/>
      <path class="cls-6" d="M431.83,125.34a.86.86,0,0,0,.46-.14.87.87,0,0,0,.28-1.21,3.75,3.75,0,0,1-.28-3.37,8.77,8.77,0,0,1,.5-1c.16-.29.33-.58.48-.9a6.68,6.68,0,0,0-.23-6.06.88.88,0,1,0-1.53.86,4.92,4.92,0,0,1,.17,4.45,8.46,8.46,0,0,1-.42.77,11.43,11.43,0,0,0-.59,1.16,5.52,5.52,0,0,0,.41,5A.89.89,0,0,0,431.83,125.34Z"/>
      <path class="cls-6" d="M447.71,124.92a4,4,0,0,1-.06,2.53.88.88,0,0,0,.53,1.13.79.79,0,0,0,.3,0,.86.86,0,0,0,.82-.58,5.84,5.84,0,0,0,.1-3.65c-.14-.43-.32-.83-.49-1.22s-.23-.52-.32-.77a5.93,5.93,0,0,1,1.29-6,.88.88,0,1,0-1.25-1.23,7.61,7.61,0,0,0-1.69,7.83c.11.31.24.6.37.88A10.34,10.34,0,0,1,447.71,124.92Z"/>
      <path class="cls-6" d="M421.5,131.39c.18.14.37.27.56.39a4.28,4.28,0,0,0,.13,4.24.86.86,0,0,0,.74.42.92.92,0,0,0,.47-.14.89.89,0,0,0,.28-1.21,2.52,2.52,0,0,1,.05-2.67,4.44,4.44,0,0,0,1.31,0,8.33,8.33,0,0,0,1.49-.39,9.85,9.85,0,0,1,1-.27,4.85,4.85,0,0,1,4.45,1.68,6.12,6.12,0,0,1,.39.5l0,.05a7.47,7.47,0,0,1-2.56,3.06.88.88,0,0,0,.49,1.61.83.83,0,0,0,.5-.16,9.2,9.2,0,0,0,2.51-2.58,8.28,8.28,0,0,1,.32,2.42.88.88,0,0,0,.87.89h0a.87.87,0,0,0,.88-.87,9.05,9.05,0,0,0-2.05-6.07,6.55,6.55,0,0,0-6.13-2.25,9.65,9.65,0,0,0-1.15.32,6.37,6.37,0,0,1-1.17.31,3.07,3.07,0,0,1-3.31-2.7,7,7,0,0,1,.8-3c.13-.31.26-.63.38-1,.82-2.14.66-4-.43-5.23A.88.88,0,0,0,421,120c.88,1,.35,2.71.08,3.42-.11.29-.23.58-.36.89a8.21,8.21,0,0,0-.93,3.83A4.66,4.66,0,0,0,421.5,131.39Z"/>
      <path class="cls-6" d="M444.7,148a.93.93,0,0,0,.4.09.88.88,0,0,0,.78-.48,4.24,4.24,0,0,1,1.55-1.81,5,5,0,0,1,.9-.37,12.13,12.13,0,0,0,2.57,6.37.93.93,0,0,0,.67.3.89.89,0,0,0,.57-.22.88.88,0,0,0,.09-1.24,10,10,0,0,1-2.15-5.9,3.14,3.14,0,0,0,.31-.18,6.05,6.05,0,0,0,2.16-3.52.88.88,0,0,0-1.7-.46,4.18,4.18,0,0,1-1.45,2.52,5.07,5.07,0,0,1-1.33.56,7.48,7.48,0,0,0-1.52.62,5.82,5.82,0,0,0-2.24,2.54A.88.88,0,0,0,444.7,148Z"/>
      <path class="cls-6" d="M414.91,150.57a3.72,3.72,0,0,0-.63-1.19l-.19-.27a4.33,4.33,0,0,1-.61-2.49,10.33,10.33,0,0,1,.25-1.83,5,5,0,0,0,3.34-.19.88.88,0,0,0-.7-1.62,3.19,3.19,0,0,1-2.55,0h0a.89.89,0,0,0-.48-.32h-.06a3.3,3.3,0,0,1-1.15-1.58.88.88,0,0,0-1.67.55,5.08,5.08,0,0,0,1.66,2.35,13.23,13.23,0,0,0-.38,2.61,6,6,0,0,0,.89,3.51l.23.33a2.24,2.24,0,0,1,.36.61.88.88,0,0,0,.85.65.83.83,0,0,0,.22,0A.88.88,0,0,0,414.91,150.57Z"/>
      <path class="cls-6" d="M416.09,167a.91.91,0,0,0,.55-.2.87.87,0,0,0,.14-1.23c-.83-1-.88-2.61-.85-4.25a3.31,3.31,0,0,1,.78-2.63c.11-.14.22-.29.32-.44a7.64,7.64,0,0,0,1.18-5.6.88.88,0,0,0-1.73.31,5.91,5.91,0,0,1-.91,4.31l-.27.38a6.41,6.41,0,0,0-.76,1.23,6.25,6.25,0,0,0-.37,2.41c0,2,0,3.88,1.23,5.37A.88.88,0,0,0,416.09,167Z"/>
      <path class="cls-6" d="M426.21,180.07l.33.43c1.13,1.42,3.69,3.52,6.1,3.6v0a12.29,12.29,0,0,0,1.82,4.72.87.87,0,0,0,.76.43.88.88,0,0,0,.44-.12A.87.87,0,0,0,436,188a11,11,0,0,1-1.59-4,4.16,4.16,0,0,1,1.13-3.57.87.87,0,0,0,.08-1.24.88.88,0,0,0-1.24-.07,5.36,5.36,0,0,0-1.69,3.3c-1.53-.09-3.62-1.51-4.75-2.94-.11-.13-.21-.27-.32-.41-.78-1-1.76-2.3-3.33-2.42a4.78,4.78,0,0,0-1.34.12,4.72,4.72,0,0,1-.83.09.79.79,0,0,0-.35-.13,2.61,2.61,0,0,1-.45-.83,4.47,4.47,0,0,0-.72-1.28l-.12-.13a1,1,0,0,0-.08-.22,5,5,0,0,1-.39-3.72,5.07,5.07,0,0,1,2.21-2.91.85.85,0,0,0,.79-.38.87.87,0,0,0-.23-1.22,1.22,1.22,0,0,0-1.36,0,6.78,6.78,0,0,0-3.2,7.32,2.7,2.7,0,0,1-1.47-.7.88.88,0,0,0-1.23-.21.89.89,0,0,0-.2,1.23,4.08,4.08,0,0,0,2.46,1.38,3.09,3.09,0,0,1,1.49.68,3.2,3.2,0,0,1,.43.81,4.29,4.29,0,0,0,.72,1.27,9.25,9.25,0,0,0-1,6.73.89.89,0,0,0,.86.67l.21,0a.88.88,0,0,0,.64-1.07,7.4,7.4,0,0,1,.87-5.55,4.9,4.9,0,0,0,1.24-.11,3.78,3.78,0,0,1,.89-.1C424.92,178.39,425.55,179.21,426.21,180.07Z"/>
      <path class="cls-6" d="M446.83,194.84a3.84,3.84,0,0,1-.89-.58,5.75,5.75,0,0,0-1.18-.78,3.3,3.3,0,0,0-3.05.23,6.08,6.08,0,0,0-.53.39,1.84,1.84,0,0,1-.56.37.89.89,0,0,0-.6,1.09.88.88,0,0,0,1.09.6,3.3,3.3,0,0,0,1.17-.69l.37-.28a1.57,1.57,0,0,1,1.4-.1,4.42,4.42,0,0,1,.8.55,5.11,5.11,0,0,0,1.39.85l.24.07a5.76,5.76,0,0,0,2.17,3.61.9.9,0,0,0,.47.13.88.88,0,0,0,.47-1.62,4.57,4.57,0,0,1-1.36-2.15,5.26,5.26,0,0,0,1.81-.92c.36-.28.69-.57,1-.86a8.53,8.53,0,0,1,1.38-1.1.88.88,0,1,0-.88-1.52,10.16,10.16,0,0,0-1.68,1.31c-.31.28-.59.54-.89.77A2.65,2.65,0,0,1,446.83,194.84Z"/>
      <path class="cls-6" d="M448.21,172.43a23.19,23.19,0,0,1-1.87-2,11.28,11.28,0,0,1-2-3.86c-.09-.31-.16-.63-.24-1l0-.14h.3A5.16,5.16,0,0,0,448,164a.88.88,0,0,0-1.21-1.27,3.41,3.41,0,0,1-3.2.8,5.8,5.8,0,0,0-.51-1c-1.33-2.06-3.78-2.78-6.16-3.33l-6.57-1.52a28.5,28.5,0,0,1-3.51-1,25.41,25.41,0,0,1-1.1-5.94.87.87,0,0,0-.93-.82.88.88,0,0,0-.82.94,26.58,26.58,0,0,0,.84,5.16l-.38,0a8.05,8.05,0,0,0-1,0c-.24,0-.47,0-.68,0a1.05,1.05,0,0,1-.75-.29.88.88,0,1,0-1.47,1,2.63,2.63,0,0,0,2.1,1.08,6.35,6.35,0,0,0,.87,0,6.08,6.08,0,0,1,.74,0,5.91,5.91,0,0,1,1.52.45l.4.15a29.65,29.65,0,0,0,3.75,1l4.73,1.09a20.75,20.75,0,0,0-2.23,4.9,8.37,8.37,0,0,0,.52,6.31,12.59,12.59,0,0,0,1.49,2,13.81,13.81,0,0,1,.88,1.07c.23.3.44.63.66,1a8.27,8.27,0,0,0,5.37,4.1,10.27,10.27,0,0,1,3.08,1.57,4.64,4.64,0,0,1,1.6,2.86.87.87,0,0,0,.87.75H447a.87.87,0,0,0,.75-1,6.54,6.54,0,0,0-2.2-4,12,12,0,0,0-3.6-1.86,9.4,9.4,0,0,1-3.3-1.77,9.54,9.54,0,0,1-1.21-1.64l-.2-.31c.61-.74,1.19-1.52,1.73-2.32a.88.88,0,0,0-1.45-1c-.43.63-.88,1.25-1.36,1.84-.14-.16-.27-.32-.41-.47a11,11,0,0,1-1.29-1.7,6.83,6.83,0,0,1-.35-5,21.45,21.45,0,0,1,2.32-5l.05,0c2.12.49,4.11,1.05,5.08,2.56a7.64,7.64,0,0,1,.86,2.45c.09.34.17.7.27,1.05a12.74,12.74,0,0,0,2.27,4.46,26,26,0,0,0,2,2.18,10.88,10.88,0,0,1,3.06,4.19.88.88,0,0,0,.84.62.78.78,0,0,0,.26,0,.88.88,0,0,0,.58-1.1A12.39,12.39,0,0,0,448.21,172.43Z"/>
      <path class="cls-6" d="M444.88,202.06a5.63,5.63,0,0,1-5.62-1.54,11.12,11.12,0,0,1-1.11-1.51c-.22-.33-.44-.68-.69-1a5.39,5.39,0,0,0-3-2.24l-.08,0a8.15,8.15,0,0,1-.62-3.31.88.88,0,0,0-1.76,0,10,10,0,0,0,.47,3.25,3.94,3.94,0,0,1-1.49-.13,4.19,4.19,0,0,1-1.52-1.26c-1.92-2.11-3.52-4.05-3.72-6.35a.86.86,0,0,0-.95-.8.88.88,0,0,0-.8,1c.27,3.08,2.52,5.57,4.16,7.38a4.6,4.6,0,0,0,4.47,2,5.38,5.38,0,0,1,1.41.06,3.77,3.77,0,0,1,2,1.58c.22.3.43.61.64.94a14.54,14.54,0,0,0,1.28,1.73,7.35,7.35,0,0,0,5.39,2.33,7.16,7.16,0,0,0,2-.3.88.88,0,0,0-.52-1.68Z"/>
      <path class="cls-6" d="M429.83,98.12a7,7,0,0,0-5.29,6l0,.32a3.26,3.26,0,0,1-.1.69.58.58,0,0,1-.16.28.88.88,0,0,0,.24,1.72.73.73,0,0,0,.25,0,2.07,2.07,0,0,0,1.35-1.44,4.39,4.39,0,0,0,.17-1.08l0-.28a5.28,5.28,0,0,1,3.93-4.44.88.88,0,0,0-.39-1.72Z"/>
      <path class="cls-6" d="M442.14,91.05a4.27,4.27,0,0,0-3.59,1.48,7.51,7.51,0,0,0-1.26,2.69c-.08.28-.17.55-.26.81s-.68,1.72-1.62,1.86a.88.88,0,0,0,.14,1.75h.13c1.3-.2,2.39-1.3,3-3,.1-.3.19-.6.28-.89a6.15,6.15,0,0,1,.93-2.07A2.49,2.49,0,0,1,442,92.8a.88.88,0,0,0,1-.79A.9.9,0,0,0,442.14,91.05Z"/>
      <path class="cls-6" d="M458.56,166.76a11.75,11.75,0,0,0,.13-4.19,6,6,0,0,0-1.71-3.28,2.79,2.79,0,0,0,.44-.4,4.81,4.81,0,0,0,1-2.51,25.9,25.9,0,0,0-1.53-13.93c-.39-1-.84-1.91-1.27-2.82s-.91-1.92-1.3-2.91a4.22,4.22,0,0,0,2.43-2.54,15.24,15.24,0,0,0,.77-5.86c0-.68,0-1.38,0-2,0-1.11.21-2.25.37-3.36a23,23,0,0,0,.28-6.27,11.77,11.77,0,0,0-1.78-4.75c3.86-8.4,2.87-19.52-5.56-24-2.57-1.38-5.57-1.18-8.41-.87-7.5.84-9.95,4.8-11.27,6.94a7,7,0,0,1-.67,1l-.47,0c-2.14.09-7.85.34-11.08,4.89a12.23,12.23,0,0,0-2,11,13.61,13.61,0,0,0-3.54,1.71c-4.49,3-6.46,8.3-5.48,14.53a5.16,5.16,0,0,0-1.54.84c-1.51,1.21-2.28,3.29-2.27,6.17a9.56,9.56,0,0,0,.55,3.52C402,142.82,403,150.45,407,155.7a.93.93,0,0,0-.13.34,24.75,24.75,0,0,0,1.34,13,14.83,14.83,0,0,0,1.21,2.46A26.75,26.75,0,0,0,411.26,185a9.85,9.85,0,0,0,2.68,4,5.22,5.22,0,0,0,3.68,1.18,10.06,10.06,0,0,0,8,10.1,18.13,18.13,0,0,0,4.74,4.5,32.11,32.11,0,0,0,7.3,3.27,24.43,24.43,0,0,0,7.79,1.66,10.63,10.63,0,0,0,3.88-.69,13.23,13.23,0,0,0,5.05-3.82c1.44-1.65,3.68-4.89,2.56-8.17,0-.12.09-.24.13-.36a13.28,13.28,0,0,0,.48-4.11,20,20,0,0,0-.15-2.82,11,11,0,0,0-1.65-4.31.87.87,0,0,0,0-.48A12.76,12.76,0,0,0,457,180.7c.6-3.3,1-6.5-.15-9.41.11-.15.22-.32.32-.49A12,12,0,0,0,458.56,166.76ZM414.43,114c3.62-2.44,8.49-2.75,11.6-.73a2.22,2.22,0,0,1,.63,1.3,4.74,4.74,0,0,1-.76,3.55.87.87,0,0,0,.22,1.22.88.88,0,0,0,1.22-.23,6.4,6.4,0,0,0,1-4.88,4.61,4.61,0,0,0-.54-1.49,1.72,1.72,0,0,0-.07-.21c-.71-1.36,0-3.09.86-4.13a13,13,0,0,1,4.33-2.8l2.66-1.27a4.93,4.93,0,0,1,1.47-.53,2,2,0,0,1,1.45.45,1.93,1.93,0,0,1,.76,1.32,5,5,0,0,1-.83,2.62,11,11,0,0,0-.83,1.84,6.25,6.25,0,0,0,1.29,6,7.7,7.7,0,0,0-3.54,7.45,7.39,7.39,0,0,0,3.11,4.79l.35.2a6.94,6.94,0,0,0-1.34,3.67c-.12,1.71.08,4,1.67,5.42.18.16.38.31.57.45s.2.36.3.54.19.33.27.49a7.8,7.8,0,0,1,.46,3.51.88.88,0,0,0,.86.9h0a.88.88,0,0,0,.87-.86,11.15,11.15,0,0,0-.3-3.48,6.88,6.88,0,0,0,1.4.15,6.07,6.07,0,0,0,3.29-.9.88.88,0,0,0-1-1.44,4.78,4.78,0,0,1-4.8-.13.89.89,0,0,0-.47-.32l-.3-.24c-1.1-1-1.14-2.9-1.07-4a4.91,4.91,0,0,1,1.9-3.62.88.88,0,0,0-.76-1.55,1.42,1.42,0,0,1-1-.3,5.65,5.65,0,0,1-2.32-3.62,6,6,0,0,1,3.41-6,.87.87,0,0,0,.5-1.14.93.93,0,0,0-.28-.37.85.85,0,0,0-.27-.56,4.51,4.51,0,0,1-1.17-4.53A10.86,10.86,0,0,1,440,109a7.13,7.13,0,0,0,1-3.23h.06a4,4,0,0,0,3.35-1.93,5.34,5.34,0,0,0,.33-4.47.88.88,0,1,0-1.66.57,3.64,3.64,0,0,1-.18,3,2.1,2.1,0,0,1-2.28,1l-.14,0a3.9,3.9,0,0,0-.91-1,3.78,3.78,0,0,0-2.76-.83,6.42,6.42,0,0,0-2,.69L432.2,104a14.71,14.71,0,0,0-4.89,3.23,6.4,6.4,0,0,0-1.6,3.87,12.06,12.06,0,0,0-7-.69,10.31,10.31,0,0,1,1.68-9.61c2.74-3.85,7.82-4.07,9.73-4.15a3.87,3.87,0,0,0,.89-.09c.7-.19,1.11-.84,1.67-1.75,1.24-2,3.32-5.37,10-6.11,2.68-.3,5.26-.47,7.39.67,7.24,3.88,8.25,13.37,5.17,20.9l-.51-.53a.88.88,0,0,0-1.25,0,.89.89,0,0,0,0,1.25,9.71,9.71,0,0,1,1.08,1.22.84.84,0,0,0,.33.48,10.1,10.1,0,0,1,1.58,4.15,21,21,0,0,1-.29,5.78c-.16,1.14-.32,2.33-.38,3.51,0,.72,0,1.44,0,2.14a13.51,13.51,0,0,1-.64,5.19c-.31.75-.9,1.56-1.63,1.6s-1.46-.64-2.3-2.15a.88.88,0,0,0-1.54.86,6,6,0,0,0,2.78,2.87,39.46,39.46,0,0,0,1.6,3.69c.42.89.86,1.81,1.23,2.73a24.3,24.3,0,0,1,1.43,13,3.5,3.5,0,0,1-.58,1.64c-.47.53-1.38.71-2.71.55-5.11-.63-10-3.77-15.06-9.62l-.35-.41a17.27,17.27,0,0,0-3.44-3.33,14.16,14.16,0,0,0-7.31-1.88h-.37a8.28,8.28,0,0,1-2.93-.42c-1.69-.69-2.66-2.55-3.17-4-.25-.69-.45-1.4-.66-2.14a20,20,0,0,0-1.26-3.63,11.23,11.23,0,0,0-5.71-5.39,8.33,8.33,0,0,0-3.43-.65C408.51,119.3,412.12,115.59,414.43,114Zm42.4,52.43a10.21,10.21,0,0,1-1.14,3.45,4.13,4.13,0,0,1-2.48,2,.88.88,0,0,0,.19,1.73l.2,0a5.39,5.39,0,0,0,1.91-.9c.66,2.31.28,5-.21,7.69a10,10,0,0,1-1.33,4,2.84,2.84,0,0,1-3,1.27.88.88,0,1,0-.61,1.65,3.55,3.55,0,0,0,1.23.22,4.62,4.62,0,0,0,2.79-1,9.18,9.18,0,0,1,1.27,3.43,17.29,17.29,0,0,1,.13,2.55,11.94,11.94,0,0,1-.4,3.58,4,4,0,0,1-1.77,2.37.88.88,0,0,0-1,1.36,1.11,1.11,0,0,0,.92.46,1.63,1.63,0,0,0,.69-.17,4.92,4.92,0,0,0,1.21-.85A9.26,9.26,0,0,1,453,204a11.53,11.53,0,0,1-4.37,3.34c-3.28,1.28-7.12.16-10.46-1a30.77,30.77,0,0,1-6.91-3.08,16.51,16.51,0,0,1-4.24-4,.88.88,0,0,0-.37-.53,16.35,16.35,0,0,1-1.83-3.55.88.88,0,0,0-1.12-.53.89.89,0,0,0-.53,1.13,17.5,17.5,0,0,0,.94,2.12,8.27,8.27,0,0,1-4.67-8.79.87.87,0,0,0-.34-.84.88.88,0,0,0-.91-.09,3.09,3.09,0,0,1-3.17-.59,8.29,8.29,0,0,1-2.17-3.28A25.14,25.14,0,0,1,411,173.53a6.78,6.78,0,0,0,1.95,1.3.84.84,0,0,0,.35.07.87.87,0,0,0,.8-.53.88.88,0,0,0-.45-1.16c-1.56-.67-2.85-2.28-3.82-4.78a22.86,22.86,0,0,1-1.39-11l.27.27c.92.93,1.88,1.88,1.84,2.93a.88.88,0,0,0,.85.91h0a.88.88,0,0,0,.88-.84c.07-1.82-1.28-3.16-2.36-4.25l-.29-.28c-4.25-4.32-5.84-11.67-3.81-16.73a4.11,4.11,0,0,0,3.13,1.34.88.88,0,0,0,.83-.93.87.87,0,0,0-.92-.83,2.68,2.68,0,0,1-2.3-1.52,7.23,7.23,0,0,1-.64-3.36c0-2.32.53-3.93,1.61-4.79,1.38-1.1,3.44-.84,4.92-.23a9.5,9.5,0,0,1,4.81,4.54,18.92,18.92,0,0,1,1.15,3.33c.21.74.42,1.51.69,2.26.91,2.55,2.35,4.29,4.16,5a9.91,9.91,0,0,0,3.55.55h.36a12.53,12.53,0,0,1,6.4,1.59,15.25,15.25,0,0,1,3.07,3l.36.42c5.32,6.19,10.61,9.53,16.17,10.22a10.12,10.12,0,0,0,1.06.06,6.81,6.81,0,0,0,.93-.06,1.34,1.34,0,0,0,.21.2,4,4,0,0,1,1.59,2.66A10.19,10.19,0,0,1,456.83,166.45Z"/>
    </g>
    <g>
      <path class="cls-1" d="M472.63,98.23a4.72,4.72,0,0,1-.73,0,4.27,4.27,0,0,0-.92,3.21,15.51,15.51,0,0,0,.71,3.08c.14.45.28.91.4,1.38a7.8,7.8,0,0,1-.08,5.25.88.88,0,0,1-.8.52.92.92,0,0,1-.36-.07.89.89,0,0,1-.45-1.16,6.08,6.08,0,0,0,0-4.09c-.11-.44-.25-.89-.38-1.32a16.82,16.82,0,0,1-.78-3.45,6.12,6.12,0,0,1,1-4.15,4.35,4.35,0,0,1-.62-.76,6.78,6.78,0,0,1-1-2.47.88.88,0,1,1,1.73-.34,4.89,4.89,0,0,0,.75,1.83,2.23,2.23,0,0,0,.64.68.9.9,0,0,1,.41.13h.47a3.45,3.45,0,0,0,2.42-.56.88.88,0,0,1,1.28,1.2,4.74,4.74,0,0,1-3.65,1.12Z"/>
      <path class="cls-1" d="M488.47,125.89a.9.9,0,0,1-.47-.13.88.88,0,0,1-.27-1.22,3.75,3.75,0,0,0,.28-3.37,8.77,8.77,0,0,0-.5-1,9.54,9.54,0,0,1-.49-.9,6.71,6.71,0,0,1,.24-6.06.88.88,0,0,1,1.53.86,4.89,4.89,0,0,0-.17,4.45,7.19,7.19,0,0,0,.41.77,9.73,9.73,0,0,1,.6,1.16,5.58,5.58,0,0,1-.41,5A.91.91,0,0,1,488.47,125.89Z"/>
      <path class="cls-1" d="M472.58,125.47a4.09,4.09,0,0,0,.07,2.54.88.88,0,0,1-.53,1.12.79.79,0,0,1-.3.05.88.88,0,0,1-.83-.58,5.81,5.81,0,0,1-.09-3.64,10.5,10.5,0,0,1,.49-1.23c.11-.27.23-.52.32-.77a5.91,5.91,0,0,0-1.3-6,.88.88,0,0,1,1.26-1.24,7.61,7.61,0,0,1,1.69,7.83c-.11.31-.24.6-.37.89A9.45,9.45,0,0,0,472.58,125.47Z"/>
      <path class="cls-1" d="M498.8,131.94a5.12,5.12,0,0,1-.56.39,4.3,4.3,0,0,1-.13,4.25.87.87,0,0,1-1.21.27.88.88,0,0,1-.28-1.21,2.52,2.52,0,0,0-.05-2.67,4.13,4.13,0,0,1-1.31,0,8.33,8.33,0,0,1-1.49-.38c-.33-.11-.65-.21-.95-.28a4.88,4.88,0,0,0-4.45,1.68,6.12,6.12,0,0,0-.39.5l0,.05a7.42,7.42,0,0,0,2.56,3.07.88.88,0,0,1-.5,1.6.82.82,0,0,1-.49-.16,8.94,8.94,0,0,1-2.51-2.58,8.3,8.3,0,0,0-.32,2.43.89.89,0,0,1-.87.89h0A.87.87,0,0,1,485,139a9.06,9.06,0,0,1,2.05-6.08,6.57,6.57,0,0,1,6.13-2.25,11.78,11.78,0,0,1,1.14.32,6.46,6.46,0,0,0,1.18.31,3.07,3.07,0,0,0,3.31-2.7,7.06,7.06,0,0,0-.8-3q-.19-.47-.39-1c-.81-2.14-.65-4,.44-5.23a.88.88,0,1,1,1.29,1.2c-.88,1-.35,2.7-.08,3.41q.17.44.36.9a8.26,8.26,0,0,1,.93,3.82A4.66,4.66,0,0,1,498.8,131.94Z"/>
      <path class="cls-1" d="M475.6,148.56a1,1,0,0,1-.4.09.86.86,0,0,1-.78-.48,4.14,4.14,0,0,0-1.55-1.8,4.59,4.59,0,0,0-.9-.38,12,12,0,0,1-2.58,6.37.85.85,0,0,1-.66.3.88.88,0,0,1-.66-1.46,10.08,10.08,0,0,0,2.14-5.9l-.3-.18a6.06,6.06,0,0,1-2.16-3.51.88.88,0,0,1,1.7-.47,4.18,4.18,0,0,0,1.45,2.52,5.07,5.07,0,0,0,1.33.56,7.4,7.4,0,0,1,1.51.62,5.83,5.83,0,0,1,2.25,2.54A.89.89,0,0,1,475.6,148.56Z"/>
      <path class="cls-1" d="M505.39,151.12a3.72,3.72,0,0,1,.63-1.19l.19-.27a4.31,4.31,0,0,0,.6-2.49,9.46,9.46,0,0,0-.24-1.83,5,5,0,0,1-3.34-.19.89.89,0,0,1-.46-1.16.88.88,0,0,1,1.16-.45,3.23,3.23,0,0,0,2.55,0h0a.8.8,0,0,1,.48-.31H507a3.28,3.28,0,0,0,1.15-1.57.87.87,0,0,1,1.1-.57.89.89,0,0,1,.57,1.11,5,5,0,0,1-1.66,2.35,13.34,13.34,0,0,1,.38,2.61,6,6,0,0,1-.89,3.51l-.23.33a2.13,2.13,0,0,0-.36.61.88.88,0,0,1-.85.65.82.82,0,0,1-.22,0A.88.88,0,0,1,505.39,151.12Z"/>
      <path class="cls-1" d="M504.21,167.56a.94.94,0,0,1-.55-.19.89.89,0,0,1-.14-1.24c.83-1,.88-2.6.85-4.25a4.92,4.92,0,0,0-.23-1.75,4.73,4.73,0,0,0-.56-.88c-.1-.14-.21-.28-.31-.43a7.67,7.67,0,0,1-1.18-5.61.88.88,0,1,1,1.73.32,5.85,5.85,0,0,0,.91,4.3l.27.39a6.51,6.51,0,0,1,.76,1.22,6.25,6.25,0,0,1,.37,2.41c0,2,0,3.88-1.23,5.38A.91.91,0,0,1,504.21,167.56Z"/>
      <path class="cls-1" d="M494.09,180.63l-.33.43c-1.13,1.42-3.69,3.51-6.11,3.6v0a12.22,12.22,0,0,1-1.82,4.72.87.87,0,0,1-.76.43.88.88,0,0,1-.76-1.32,10.81,10.81,0,0,0,1.6-4,4.11,4.11,0,0,0-1.14-3.56.88.88,0,0,1-.07-1.24.87.87,0,0,1,1.24-.08,5.41,5.41,0,0,1,1.69,3.3c1.53-.09,3.61-1.51,4.75-2.94l.32-.4c.78-1,1.76-2.3,3.32-2.43a5.22,5.22,0,0,1,1.35.12,3.31,3.31,0,0,0,.83.09.93.93,0,0,1,.35-.13,2.66,2.66,0,0,0,.45-.82,4.51,4.51,0,0,1,.72-1.29l.12-.13a.9.9,0,0,1,.08-.21,5,5,0,0,0-1.82-6.64.87.87,0,0,1-.56-1.6,1.21,1.21,0,0,1,1.35,0,6.76,6.76,0,0,1,3.21,7.32,2.7,2.7,0,0,0,1.47-.7.88.88,0,0,1,1.43,1,4.09,4.09,0,0,1-2.46,1.39,3.13,3.13,0,0,0-1.49.67,3.28,3.28,0,0,0-.43.82,4.56,4.56,0,0,1-.72,1.27,9.24,9.24,0,0,1,1,6.73.89.89,0,0,1-.86.67l-.21,0a.87.87,0,0,1-.64-1.06,7.39,7.39,0,0,0-.87-5.55,5.38,5.38,0,0,1-1.24-.12,3.81,3.81,0,0,0-.9-.1C495.38,179,494.75,179.76,494.09,180.63Z"/>
      <path class="cls-1" d="M473.47,195.39a3.54,3.54,0,0,0,.89-.58,4.91,4.91,0,0,1,1.18-.77,3.25,3.25,0,0,1,3,.22,5.05,5.05,0,0,1,.54.4,1.85,1.85,0,0,0,.56.36.88.88,0,0,1,.59,1.09.86.86,0,0,1-1.08.6A3.2,3.2,0,0,1,478,196a3.81,3.81,0,0,0-.37-.27,1.52,1.52,0,0,0-1.39-.11,4.42,4.42,0,0,0-.8.55,4.89,4.89,0,0,1-1.39.86l-.24.07a5.8,5.8,0,0,1-2.17,3.6.92.92,0,0,1-.47.14.91.91,0,0,1-.75-.41.89.89,0,0,1,.28-1.22,4.57,4.57,0,0,0,1.36-2.15,5.18,5.18,0,0,1-1.81-.92c-.36-.27-.69-.57-1-.86a8.45,8.45,0,0,0-1.38-1.09.89.89,0,0,1-.32-1.21.87.87,0,0,1,1.2-.31,10.05,10.05,0,0,1,1.68,1.31c.3.27.59.53.89.76A2.57,2.57,0,0,0,473.47,195.39Z"/>
      <path class="cls-1" d="M472.09,173a23.19,23.19,0,0,0,1.87-2,11.19,11.19,0,0,0,2-3.86c.09-.31.16-.63.24-1l0-.14h-.31a5.2,5.2,0,0,1-3.56-1.41.87.87,0,0,1,0-1.24.88.88,0,0,1,1.24,0,3.44,3.44,0,0,0,3.2.81,5.89,5.89,0,0,1,.51-1c1.33-2.06,3.77-2.77,6.16-3.33l6.57-1.51a30.39,30.39,0,0,0,3.51-1,25.59,25.59,0,0,0,1.09-5.94.88.88,0,1,1,1.76.11,27.46,27.46,0,0,1-.84,5.17,2.32,2.32,0,0,1,.38-.06,7.91,7.91,0,0,1,1,0,5.29,5.29,0,0,0,.69,0,1,1,0,0,0,.75-.29.88.88,0,0,1,1.47,1,2.63,2.63,0,0,1-2.1,1.09,8.41,8.41,0,0,1-.87,0,6.08,6.08,0,0,0-.74,0,5.91,5.91,0,0,0-1.52.45l-.4.16a31,31,0,0,1-3.76,1l-4.72,1.09a21.15,21.15,0,0,1,2.23,4.9,8.37,8.37,0,0,1-.52,6.31,11.27,11.27,0,0,1-1.5,2c-.31.37-.61.71-.87,1.07s-.44.63-.66,1a10.6,10.6,0,0,1-1.46,1.94,10.87,10.87,0,0,1-3.91,2.17,10.43,10.43,0,0,0-3.09,1.56,4.68,4.68,0,0,0-1.59,2.86.88.88,0,0,1-.87.76h-.13a.88.88,0,0,1-.74-1,6.47,6.47,0,0,1,2.2-4,11.74,11.74,0,0,1,3.59-1.87,9.23,9.23,0,0,0,3.3-1.77,9,9,0,0,0,1.22-1.63c.06-.11.13-.21.2-.32-.61-.74-1.2-1.52-1.74-2.31a.88.88,0,1,1,1.46-1c.42.62.88,1.24,1.36,1.84l.41-.48a10.75,10.75,0,0,0,1.28-1.69,6.82,6.82,0,0,0,.36-5,21.38,21.38,0,0,0-2.32-4.94h-.05c-2.12.49-4.11,1-5.09,2.56a8.12,8.12,0,0,0-.86,2.46c-.08.34-.16.69-.26,1a13,13,0,0,1-2.27,4.47,26,26,0,0,1-2,2.17,10.88,10.88,0,0,0-3.06,4.19.88.88,0,0,1-.84.62.75.75,0,0,1-.26,0,.86.86,0,0,1-.58-1.09A12.35,12.35,0,0,1,472.09,173Z"/>
      <path class="cls-1" d="M475.41,202.61a5.66,5.66,0,0,0,5.63-1.53,13,13,0,0,0,1.11-1.52c.22-.33.44-.67.69-1a5.4,5.4,0,0,1,3-2.24l.08,0a8.14,8.14,0,0,0,.62-3.3.88.88,0,1,1,1.76-.05,10.19,10.19,0,0,1-.47,3.25,4.18,4.18,0,0,0,1.49-.12,4.4,4.4,0,0,0,1.52-1.26c1.92-2.12,3.51-4.05,3.71-6.36a.88.88,0,0,1,1.76.15c-.27,3.09-2.52,5.57-4.16,7.39a4.61,4.61,0,0,1-4.47,2,4.94,4.94,0,0,0-1.41.07,3.74,3.74,0,0,0-2,1.58q-.31.43-.63.93a13.62,13.62,0,0,1-1.29,1.73,7.34,7.34,0,0,1-5.39,2.33,6.81,6.81,0,0,1-2-.3.88.88,0,0,1,.51-1.68Z"/>
      <path class="cls-1" d="M490.47,98.68a7,7,0,0,1,5.29,6l0,.32a4.15,4.15,0,0,0,.09.69.58.58,0,0,0,.17.28.88.88,0,0,1-.24,1.72,1,1,0,0,1-.25,0,2.11,2.11,0,0,1-1.36-1.45,5.62,5.62,0,0,1-.17-1.07,2.46,2.46,0,0,0,0-.28,5.28,5.28,0,0,0-3.93-4.45.88.88,0,1,1,.39-1.71Z"/>
      <path class="cls-1" d="M478.16,91.61a4.22,4.22,0,0,1,3.59,1.48A7.39,7.39,0,0,1,483,95.77c.08.28.17.55.26.81s.68,1.72,1.61,1.86a.88.88,0,0,1-.13,1.75h-.13a4.14,4.14,0,0,1-3-3c-.1-.29-.2-.59-.29-.88a5.79,5.79,0,0,0-.92-2.07,2.45,2.45,0,0,0-2.08-.86.9.9,0,0,1-1-.8A.88.88,0,0,1,478.16,91.61Z"/>
      <path class="cls-1" d="M463.1,171.36c.1.17.21.33.32.49-1.17,2.9-.75,6.1-.15,9.4a13.1,13.1,0,0,0,1.28,4.2.84.84,0,0,0,0,.47,10.86,10.86,0,0,0-1.65,4.31,18.61,18.61,0,0,0-.15,2.82,13.28,13.28,0,0,0,.48,4.11c0,.12.08.24.13.36-1.12,3.29,1.11,6.53,2.56,8.17a13.15,13.15,0,0,0,5.05,3.82,10.43,10.43,0,0,0,3.88.69,24.41,24.41,0,0,0,7.79-1.65,33,33,0,0,0,7.3-3.27,18.29,18.29,0,0,0,4.74-4.5,10.08,10.08,0,0,0,8-10.11,5.17,5.17,0,0,0,3.68-1.18,10,10,0,0,0,2.68-4,26.86,26.86,0,0,0,1.89-13.44,14.83,14.83,0,0,0,1.21-2.46,24.75,24.75,0,0,0,1.34-13,.79.79,0,0,0-.14-.34c4-5.25,5-12.88,2.25-18.07a9.75,9.75,0,0,0,.55-3.52c0-2.88-.76-4.95-2.27-6.17a5,5,0,0,0-1.54-.83c1-6.24-1-11.5-5.48-14.54a13.74,13.74,0,0,0-3.54-1.7,12.24,12.24,0,0,0-2-11.06c-3.23-4.55-8.94-4.8-11.09-4.89l-.46,0a7,7,0,0,1-.67-1c-1.32-2.13-3.78-6.1-11.27-6.93-2.85-.32-5.84-.52-8.42.86-8.42,4.52-9.41,15.65-5.56,24a11.89,11.89,0,0,0-1.77,4.76,22.93,22.93,0,0,0,.28,6.26c.16,1.11.32,2.25.37,3.36,0,.67,0,1.37,0,2.05a15.13,15.13,0,0,0,.77,5.87,4.28,4.28,0,0,0,2.42,2.54c-.38,1-.84,1.95-1.29,2.9s-.88,1.86-1.27,2.83a26,26,0,0,0-1.54,13.92,4.91,4.91,0,0,0,1,2.51,3.24,3.24,0,0,0,.43.4,6,6,0,0,0-1.7,3.29,11.71,11.71,0,0,0,.13,4.18A11.87,11.87,0,0,0,463.1,171.36Zm47.5-44a8.49,8.49,0,0,0-3.43.65,11.24,11.24,0,0,0-5.71,5.39A20,20,0,0,0,500.2,137c-.21.74-.41,1.45-.66,2.14-.51,1.44-1.48,3.3-3.17,4a8.8,8.8,0,0,1-2.93.42h-.37a14.07,14.07,0,0,0-7.31,1.88,16.45,16.45,0,0,0-3.44,3.32l-.35.41c-5,5.85-10,9-15.06,9.62-1.33.17-2.24,0-2.71-.55a3.32,3.32,0,0,1-.58-1.63,24.23,24.23,0,0,1,1.43-13c.37-.91.81-1.84,1.23-2.73.56-1.18,1.14-2.41,1.6-3.69a6,6,0,0,0,2.78-2.87.89.89,0,0,0-.35-1.2.88.88,0,0,0-1.19.35c-.84,1.5-1.57,2.19-2.3,2.14s-1.32-.85-1.63-1.59a13.59,13.59,0,0,1-.64-5.2c0-.7,0-1.42,0-2.14-.06-1.18-.23-2.37-.39-3.51a21,21,0,0,1-.28-5.78,10.19,10.19,0,0,1,1.57-4.15.86.86,0,0,0,.34-.48,11.35,11.35,0,0,1,1.08-1.22.87.87,0,0,0,0-1.24.88.88,0,0,0-1.24,0c-.18.17-.35.35-.51.53-3.08-7.53-2.07-17,5.17-20.9,2.13-1.14,4.71-1,7.39-.67,6.64.74,8.72,4.1,10,6.11.56.91,1,1.56,1.67,1.76a4.79,4.79,0,0,0,.89.08c1.91.08,7,.3,9.73,4.15A10.34,10.34,0,0,1,501.6,111a12.23,12.23,0,0,0-7,.69,6.4,6.4,0,0,0-1.6-3.87,14.78,14.78,0,0,0-4.89-3.22l-2.66-1.27a6.51,6.51,0,0,0-2-.7,3.78,3.78,0,0,0-2.76.83,3.94,3.94,0,0,0-.91,1,.32.32,0,0,0-.14,0,2.11,2.11,0,0,1-2.28-1,3.61,3.61,0,0,1-.18-3,.88.88,0,1,0-1.66-.57,5.34,5.34,0,0,0,.33,4.47,4,4,0,0,0,3.34,1.93h.07a7.17,7.17,0,0,0,1,3.23,10.12,10.12,0,0,1,.71,1.56,4.52,4.52,0,0,1-1.16,4.53.83.83,0,0,0-.27.57.77.77,0,0,0-.29.37.89.89,0,0,0,.5,1.14,6,6,0,0,1,3.42,6,5.65,5.65,0,0,1-2.32,3.62,1.38,1.38,0,0,1-1,.3.88.88,0,0,0-.75,1.56,4.89,4.89,0,0,1,1.9,3.62c.07,1.07,0,3-1.07,4l-.3.24a.89.89,0,0,0-.47.32,4.8,4.8,0,0,1-4.81.13.88.88,0,0,0-1,1.44,6.07,6.07,0,0,0,3.29.9,6.24,6.24,0,0,0,1.4-.15,11.5,11.5,0,0,0-.31,3.48.88.88,0,0,0,.88.86h0a.87.87,0,0,0,.86-.89,7.83,7.83,0,0,1,.46-3.52c.08-.16.17-.32.27-.49s.2-.35.3-.54.38-.28.57-.45c1.59-1.37,1.78-3.71,1.67-5.42a6.87,6.87,0,0,0-1.35-3.67,2.43,2.43,0,0,0,.35-.2,7.41,7.41,0,0,0,3.12-4.79,7.67,7.67,0,0,0-3.54-7.44,6.27,6.27,0,0,0,1.29-6,12.16,12.16,0,0,0-.83-1.83,5.13,5.13,0,0,1-.84-2.63,2,2,0,0,1,.77-1.31,2,2,0,0,1,1.45-.46,5.22,5.22,0,0,1,1.47.53l2.66,1.27a13.14,13.14,0,0,1,4.33,2.8c.91,1,1.57,2.77.86,4.13a.86.86,0,0,0-.07.21,4.86,4.86,0,0,0-.55,1.49,6.47,6.47,0,0,0,1,4.89.88.88,0,0,0,1.23.22.87.87,0,0,0,.22-1.22,4.69,4.69,0,0,1-.76-3.55,2.16,2.16,0,0,1,.63-1.3c3.11-2,8-1.71,11.6.74C508.18,116.14,511.79,119.85,510.6,127.36Zm-47.26,36.09a4,4,0,0,1,1.59-2.67.8.8,0,0,0,.21-.2,6.74,6.74,0,0,0,.92.07,10.27,10.27,0,0,0,1.07-.07c5.56-.68,10.85-4,16.17-10.22l.36-.42a15.14,15.14,0,0,1,3.06-3,12.6,12.6,0,0,1,6.41-1.6h.36a9.72,9.72,0,0,0,3.55-.55c1.81-.74,3.25-2.48,4.16-5,.27-.75.48-1.52.69-2.26a19.2,19.2,0,0,1,1.15-3.33,9.46,9.46,0,0,1,4.81-4.54c1.47-.61,3.54-.87,4.92.23,1.07.87,1.62,2.48,1.61,4.79a7.3,7.3,0,0,1-.64,3.37,2.69,2.69,0,0,1-2.3,1.51.88.88,0,0,0-.09,1.76,4.11,4.11,0,0,0,3.13-1.34c2,5.07.44,12.42-3.82,16.73l-.28.29c-1.08,1.08-2.43,2.43-2.36,4.24a.89.89,0,0,0,.88.85h0a.9.9,0,0,0,.85-.91c0-1.05.91-2,1.84-2.94l.27-.27a23,23,0,0,1-1.39,11c-1,2.5-2.26,4.11-3.82,4.79a.88.88,0,0,0,.35,1.68.84.84,0,0,0,.35-.07,6.78,6.78,0,0,0,1.95-1.3,25.11,25.11,0,0,1-1.91,10.76,8.51,8.51,0,0,1-2.17,3.29,3.13,3.13,0,0,1-3.17.59.86.86,0,0,0-.91.08.88.88,0,0,0-.35.84,8.35,8.35,0,0,1-1.48,6.16,8.47,8.47,0,0,1-3.18,2.64,18.36,18.36,0,0,0,.94-2.13.88.88,0,0,0-.53-1.12.86.86,0,0,0-1.12.52,16.12,16.12,0,0,1-1.83,3.55.84.84,0,0,0-.37.53,16.34,16.34,0,0,1-4.24,4,30.52,30.52,0,0,1-6.91,3.08c-3.34,1.15-7.18,2.27-10.46,1a11.5,11.5,0,0,1-4.37-3.33,9.23,9.23,0,0,1-2.41-4.74,4.7,4.7,0,0,0,1.21.84,1.49,1.49,0,0,0,.69.17,1.11,1.11,0,0,0,.92-.46.87.87,0,0,0-1-1.35,4.1,4.1,0,0,1-1.78-2.37,12,12,0,0,1-.39-3.59,16,16,0,0,1,.13-2.55,9.25,9.25,0,0,1,1.27-3.43,4.62,4.62,0,0,0,2.79,1,3.55,3.55,0,0,0,1.23-.22.88.88,0,0,0-.61-1.65,2.84,2.84,0,0,1-3-1.27,10,10,0,0,1-1.33-4c-.5-2.73-.87-5.38-.21-7.69a5,5,0,0,0,1.91.9.62.62,0,0,0,.19,0,.88.88,0,0,0,.2-1.73,4.13,4.13,0,0,1-2.48-2,12.76,12.76,0,0,1-1.27-7Z"/>
    </g>
  </g>
  <text class="cls-7" transform="translate(115.12 151.95)">Hemis<tspan class="cls-8" x="52.06" y="0">f</tspan><tspan x="58.3" y="0">erio I</tspan><tspan class="cls-9" x="99.27" y="0">z</tspan><tspan x="108.29" y="0">quie</tspan><tspan class="cls-10" x="143.03" y="0">r</tspan><tspan x="149.43" y="0">do</tspan></text>
  <text class="cls-7" transform="translate(621.85 151.95)">Hemis<tspan class="cls-8" x="52.06" y="0">f</tspan><tspan x="58.3" y="0">erio De</tspan><tspan class="cls-10" x="115.45" y="0">r</tspan><tspan x="121.85" y="0">echo</tspan></text>
</svg>
