<svg xmlns="http://www.w3.org/2000/svg" width="400" height="400" viewBox="0 0 400 400">
  <defs>
    <style>
      .cls-1 {
        isolation: isolate;
      }

      .cls-2, .cls-4 {
        fill: #8b82ca;
      }

      .cls-2 {
        opacity: 0.69;
      }

      .cls-3 {
        opacity: 0.5;
      }

      .cls-5 {
        fill: #d8d5ed;
      }

      .cls-6 {
        opacity: 0.31;
      }

      .cls-7 {
        fill: #6558b8;
      }

      .cls-8 {
        fill: #cfccd9;
      }

      .cls-9 {
        fill: #b2abdb;
      }

      .cls-10 {
        fill: #6f678c;
      }

      .cls-11 {
        fill: #0f0140;
      }

      .cls-12 {
        fill: #9f99b3;
      }

      .cls-13 {
        fill: #091320;
      }

      .cls-14, .cls-19, .cls-20 {
        fill: #f2d8c2;
      }

      .cls-15, .cls-23 {
        fill: #0b0130;
      }

      .cls-16 {
        fill: #891827;
      }

      .cls-17 {
        fill: #ef7d6e;
      }

      .cls-18, .cls-25 {
        fill: #c65552;
      }

      .cls-19 {
        mix-blend-mode: overlay;
        opacity: 0.37;
      }

      .cls-20 {
        opacity: 0.43;
      }

      .cls-21 {
        fill: #4f0f23;
      }

      .cls-22 {
        fill: #3b1f1f;
      }

      .cls-23 {
        opacity: 0.51;
      }

      .cls-24, .cls-26, .cls-30 {
        fill: none;
        stroke-miterlimit: 10;
      }

      .cls-24 {
        stroke: #5b101d;
        stroke-width: 1.01px;
      }

      .cls-25 {
        opacity: 0.48;
      }

      .cls-26 {
        stroke: #380a17;
        stroke-width: 0.96px;
      }

      .cls-27 {
        fill: #b4d1ed;
        opacity: 0.38;
      }

      .cls-28 {
        fill: #2f2f35;
      }

      .cls-29 {
        fill: #5a5a66;
      }

      .cls-30 {
        stroke: #fff;
        stroke-linecap: round;
        stroke-width: 7.18px;
        opacity: 0.62;
      }

      .cls-31 {
        fill: #473d59;
      }
    </style>
  </defs>
  <g class="cls-1">
    <g id="Capa_1" data-name="Capa 1">
      <g>
        <path class="cls-2" d="M333.13,309.15V295.27a37.29,37.29,0,0,0,0,74.57V356a23.41,23.41,0,0,1,0-46.81Z"/>
        <g class="cls-3">
          <path class="cls-4" d="M333.13,369.84a37.29,37.29,0,1,0,0-74.57v13.88a23.41,23.41,0,1,1,0,46.81Z"/>
        </g>
      </g>
      <path class="cls-5" d="M200,81.94v-70C96.13,11.92,11.92,96.13,11.92,200S96.13,388.08,200,388.08v-70a118.06,118.06,0,0,1,0-236.12Z"/>
      <g class="cls-6">
        <path class="cls-7" d="M200,388.08c103.87,0,188.08-84.21,188.08-188.08S303.87,11.92,200,11.92v70a118.06,118.06,0,0,1,0,236.12Z"/>
      </g>
      <g>
        <path class="cls-8" d="M65.43,301.43V283a49.59,49.59,0,0,0,0,99.17V363.68a31.13,31.13,0,0,1,0-62.25Z"/>
        <path class="cls-9" d="M65.43,382.14a49.59,49.59,0,1,0,0-99.17v18.46a31.13,31.13,0,1,1,0,62.25Z"/>
      </g>
      <path class="cls-9" d="M200,257.43a57.43,57.43,0,1,0,0-114.86V146l3.38.08a54.06,54.06,0,0,1,0,107.9H200Z"/>
      <g>
        <g>
          <rect class="cls-10" x="358.54" y="229.68" width="8.74" height="21.73"/>
          <polygon class="cls-10" points="353.04 208 345.28 208 338.58 195.03 350.08 195.03 353.04 208"/>
          <path class="cls-10" d="M368.68,206.08c0-2.83-2.75-4.3-6.13-4.3A10.78,10.78,0,0,0,353,208l-16.28-8.14c4.66-8.78,13.9-14.81,28.53-14.81,14.36,0,25.06,6,25.06,17.46,0,14-14.63,16.47-14.63,23.51H356.88C356.88,215,368.68,211.66,368.68,206.08Zm-14.46,34.39c0-6.13,4.94-10.79,12.08-10.79s12.07,4.66,12.07,10.79-4.94,11-12.07,11S354.22,246.51,354.22,240.47Z"/>
          <path class="cls-11" d="M360.92,206.08c0-2.83-2.74-4.3-6.13-4.3a10.78,10.78,0,0,0-9.51,6.22L329,199.86c4.67-8.78,13.9-14.81,28.54-14.81,14.36,0,25.06,6,25.06,17.46C382.6,216.51,368,219,368,226H349.12C349.12,215,360.92,211.66,360.92,206.08Zm-14.45,34.39c0-6.13,4.94-10.79,12.07-10.79s12.08,4.66,12.08,10.79-4.94,11-12.08,11S346.47,246.51,346.47,240.47Z"/>
        </g>
        <g>
          <rect class="cls-10" x="25.38" y="176.96" width="4.87" height="12.12"/>
          <polygon class="cls-10" points="22.31 164.87 17.98 164.87 14.24 157.63 20.66 157.63 22.31 164.87"/>
          <path class="cls-10" d="M31,163.8c0-1.59-1.53-2.4-3.42-2.4a6,6,0,0,0-5.3,3.47l-9.08-4.54c2.6-4.9,7.75-8.27,15.91-8.27s14,3.37,14,9.75c0,7.8-8.16,9.18-8.16,13.1H24.45C24.45,168.74,31,166.91,31,163.8ZM23,183c0-3.41,2.75-6,6.73-6s6.73,2.6,6.73,6-2.75,6.13-6.73,6.13S23,186.34,23,183Z"/>
          <path class="cls-11" d="M26.7,163.8c0-1.59-1.53-2.4-3.41-2.4A6,6,0,0,0,18,164.87L8.9,160.33c2.6-4.9,7.75-8.27,15.92-8.27,8,0,14,3.37,14,9.75,0,7.8-8.16,9.18-8.16,13.1H20.12C20.12,168.74,26.7,166.91,26.7,163.8ZM18.64,183c0-3.41,2.76-6,6.74-6s6.73,2.6,6.73,6-2.75,6.13-6.73,6.13S18.64,186.34,18.64,183Z"/>
        </g>
        <g>
          <rect class="cls-12" x="59.9" y="74.2" width="9.7" height="24.11"/>
          <polygon class="cls-12" points="53.79 50.15 45.19 50.15 37.75 35.75 50.51 35.75 53.79 50.15"/>
          <path class="cls-12" d="M71.15,48c0-3.15-3.05-4.77-6.8-4.77a11.94,11.94,0,0,0-10.56,6.9l-18.06-9c5.17-9.74,15.42-16.44,31.66-16.44,15.93,0,27.81,6.7,27.81,19.39C95.2,59.59,79,62.32,79,70.14H58.06C58.06,57.86,71.15,54.21,71.15,48Zm-16,38.15c0-6.79,5.48-12,13.4-12s13.39,5.18,13.39,12S76.42,98.35,68.51,98.35,55.11,92.87,55.11,86.17Z"/>
          <path class="cls-4" d="M62.54,48c0-3.15-3-4.77-6.8-4.77a11.94,11.94,0,0,0-10.55,6.9l-18.07-9c5.18-9.74,15.43-16.44,31.67-16.44,15.93,0,27.8,6.7,27.8,19.39,0,15.53-16.23,18.26-16.23,26.08H49.45C49.45,57.86,62.54,54.21,62.54,48Zm-16,38.15c0-6.79,5.48-12,13.39-12s13.4,5.18,13.4,12S67.82,98.35,59.9,98.35,46.51,92.87,46.51,86.17Z"/>
        </g>
        <g>
          <rect class="cls-12" x="265.46" y="302.36" width="4.64" height="11.55"/>
          <polygon class="cls-12" points="262.53 290.85 258.41 290.85 254.85 283.96 260.96 283.96 262.53 290.85"/>
          <path class="cls-12" d="M270.84,289.83c0-1.51-1.46-2.29-3.25-2.29a5.74,5.74,0,0,0-5.06,3.31l-8.65-4.33c2.48-4.66,7.39-7.87,15.16-7.87s13.32,3.21,13.32,9.28c0,7.44-7.78,8.75-7.78,12.49h-10C264.57,294.54,270.84,292.79,270.84,289.83Zm-7.68,18.27c0-3.26,2.63-5.74,6.42-5.74s6.41,2.48,6.41,5.74-2.62,5.83-6.41,5.83S263.16,311.3,263.16,308.1Z"/>
          <path class="cls-4" d="M266.72,289.83c0-1.51-1.46-2.29-3.25-2.29a5.74,5.74,0,0,0-5.06,3.31l-8.65-4.33c2.48-4.66,7.39-7.87,15.16-7.87s13.32,3.21,13.32,9.28c0,7.44-7.78,8.75-7.78,12.49h-10C260.45,294.54,266.72,292.79,266.72,289.83ZM259,308.1c0-3.26,2.63-5.74,6.42-5.74s6.41,2.48,6.41,5.74-2.62,5.83-6.41,5.83S259,311.3,259,308.1Z"/>
        </g>
        <g>
          <rect class="cls-12" x="59.46" y="349.22" width="5.2" height="12.94"/>
          <polygon class="cls-12" points="56.18 336.31 51.56 336.31 47.57 328.59 54.42 328.59 56.18 336.31"/>
          <path class="cls-12" d="M65.49,335.17c0-1.69-1.63-2.56-3.65-2.56a6.42,6.42,0,0,0-5.66,3.7l-9.7-4.84c2.78-5.23,8.28-8.83,17-8.83,8.55,0,14.92,3.6,14.92,10.41,0,8.33-8.71,9.8-8.71,14H58.47C58.47,340.45,65.49,338.49,65.49,335.17Zm-8.6,20.48c0-3.65,2.94-6.43,7.19-6.43s7.19,2.78,7.19,6.43-2.94,6.54-7.19,6.54S56.89,359.24,56.89,355.65Z"/>
          <path class="cls-4" d="M60.87,335.17c0-1.69-1.63-2.56-3.64-2.56a6.42,6.42,0,0,0-5.67,3.7l-9.69-4.84c2.77-5.23,8.27-8.83,17-8.83,8.55,0,14.92,3.6,14.92,10.41,0,8.33-8.71,9.8-8.71,14H53.85C53.85,340.45,60.87,338.49,60.87,335.17Zm-8.6,20.48c0-3.65,2.94-6.43,7.19-6.43s7.19,2.78,7.19,6.43-2.94,6.54-7.19,6.54S52.27,359.24,52.27,355.65Z"/>
        </g>
        <g>
          <polygon class="cls-13" points="146.07 375.45 149.55 375.45 149.55 321.6 96.69 327.23 98.68 400 146.07 400 146.07 375.45"/>
          <polygon class="cls-13" points="153.03 375.45 149.55 375.45 149.55 321.6 202.41 327.23 200.41 400 153.03 400 153.03 375.45"/>
          <path class="cls-11" d="M149.55,131.7,89.38,154.37l7.31,172.86s21.93,7.87,52.86,7.87,52.86-7.87,52.86-7.87l7.31-172.86Z"/>
          <path class="cls-14" d="M149.55,131.7l-21,7.92v2a20.8,20.8,0,0,0,20.81,20.81h.42a20.81,20.81,0,0,0,20.81-20.81v-2Z"/>
          <path class="cls-15" d="M99.78,183.4s23.76,67.35,51.74,84.64,21.41-5.06-10.31-40.49S94.3,169.37,99.78,183.4Z"/>
          <path class="cls-16" d="M131.86,64.48c-3.48,11.85-1.58,24.7-1.58,24.7l3.92,3.15,15.28-29.88,15.28,29.88,3.92-3.15s1.89-12.85-1.59-24.7C161.93,46.88,137,46.88,131.86,64.48Z"/>
          <polygon class="cls-13" points="138.72 169.69 169.19 258.13 200.09 253.09 138.72 169.69"/>
          <path class="cls-17" d="M160.27,54.68c-.48-.34-1-.65-1.48-.94V65h1.48Z"/>
          <path class="cls-18" d="M149.38,154.37h.33a16.14,16.14,0,0,0,16.15-16.14V108.38H133.24v29.85A16.14,16.14,0,0,0,149.38,154.37Z"/>
          <circle class="cls-18" cx="168.68" cy="93.91" r="6.19" transform="translate(38.42 236.4) rotate(-76.67)"/>
          <path class="cls-17" d="M168.68,87.71h0a6.19,6.19,0,0,0,5,9.78h0a6.2,6.2,0,0,0-5-9.78Z"/>
          <circle class="cls-18" cx="130.49" cy="93.91" r="6.19" transform="translate(-18.73 34.07) rotate(-13.89)"/>
          <path class="cls-17" d="M130.49,87.71h0a6.2,6.2,0,0,1-5.05,9.78h0a6.19,6.19,0,0,1,5.05-9.78Z"/>
          <path class="cls-17" d="M149.71,57.87h-.33A16.14,16.14,0,0,0,133.24,74v34.37a17.79,17.79,0,0,0,6.22,13.51l2.4,2.06a11.82,11.82,0,0,0,15.38,0l2.4-2.06a17.82,17.82,0,0,0,6.22-13.51V74A16.15,16.15,0,0,0,149.71,57.87Z"/>
          <path class="cls-16" d="M165.57,87.39c0,5.77-4.08,13.08-6.48,13.08-2.19-5.48-9.17-5.22-9.54-5.21S142.2,95,140,100.47c-2.39,0-6.48-7.31-6.48-13.08,0-.6-.1-.94-.28-1.08v22.07a17.79,17.79,0,0,0,6.23,13.51l2.4,2.06a11.83,11.83,0,0,0,7.57,2.83h.21a11.83,11.83,0,0,0,7.57-2.83l2.4-2.06a17.77,17.77,0,0,0,6.24-13.51V86.31C165.68,86.45,165.57,86.79,165.57,87.39Z"/>
          <path class="cls-19" d="M145.79,124l-2.4-2.06a17.81,17.81,0,0,1-6.21-13.51V74a16.13,16.13,0,0,1,14.34-16,15.57,15.57,0,0,0-1.81-.11h-.33A16.14,16.14,0,0,0,133.24,74v34.37a17.79,17.79,0,0,0,6.22,13.51l2.4,2.06a11.79,11.79,0,0,0,9.66,2.67A11.72,11.72,0,0,1,145.79,124Z"/>
          <g>
            <path class="cls-20" d="M152.06,79.38s3.84-3.18,13.2-2.56c3.52,1.41,5,1.89,4.26,5.73s-1.57,7.87-7.86,8.13-9-4.23-9.6-8.94A4.72,4.72,0,0,1,152.06,79.38Z"/>
            <path class="cls-20" d="M147,79.38s-3.83-3.18-13.2-2.56c-3.51,1.41-5,1.89-4.26,5.73s1.57,7.87,7.87,8.13,8.95-4.23,9.59-8.94A4.58,4.58,0,0,0,147,79.38Z"/>
            <g>
              <g>
                <path class="cls-21" d="M152.07,78.14a17.8,17.8,0,0,1-5,0c-9.32-3.44-20.32-1.47-20.32-1.47V80l2,1.1s.44,7.47,4.28,9.17,9.5,1.1,11.36-1,2.25-2.25,3.74-7A2.17,2.17,0,0,1,149.55,81,2.2,2.2,0,0,1,151,82.21c1.48,4.78,1.87,4.89,3.73,7s7.52,2.74,11.36,1,4.28-9.17,4.28-9.17l2-1.09V76.67S161.39,74.7,152.07,78.14Zm-7.63,9c-1.64,3-5.7,3.57-9.55,2.64s-5.15-6.42-4.06-9.5,6.26-2.52,9.72-2.3,4.72,1.81,4.72,1.81C146.47,80.89,146.09,84.08,144.44,87.09Zm19.76,2.64c-3.84.93-7.9.38-9.55-2.63s-2-6.21-.82-7.36c0,0,1.26-1.59,4.72-1.81s8.62-.77,9.71,2.3S168,88.8,164.2,89.73Z"/>
                <path class="cls-22" d="M127.7,76.67Z"/>
              </g>
              <path class="cls-14" d="M168.47,78.23a1.38,1.38,0,0,1,2.1,0A1.51,1.51,0,0,1,168.47,78.23Z"/>
              <path class="cls-14" d="M130.62,78.23a1.38,1.38,0,0,0-2.1,0A1.51,1.51,0,0,0,130.62,78.23Z"/>
            </g>
          </g>
          <ellipse class="cls-14" cx="149.48" cy="100.47" rx="3.73" ry="1.41"/>
          <path class="cls-16" d="M154.13,68.93v0a2.06,2.06,0,0,0,1.14,1.84l7.13,3.5s-.62-5.76-5.58-7.33A2.06,2.06,0,0,0,154.13,68.93Z"/>
          <path class="cls-16" d="M145,68.93v0a2.06,2.06,0,0,1-1.15,1.84l-7.12,3.5s.61-5.76,5.58-7.33A2.06,2.06,0,0,1,145,68.93Z"/>
          <rect class="cls-23" x="147.91" y="92.6" width="3.6" height="2.76"/>
          <polyline class="cls-24" points="151.51 83.72 151.51 92.6 147.91 92.6"/>
          <path class="cls-16" d="M160.27,81.46c0,1.23-.66,2.23-1.48,2.23s-1.47-1-1.47-2.23.66-2.22,1.47-2.22S160.27,80.23,160.27,81.46Z"/>
          <path class="cls-16" d="M138.83,81.46c0,1.23.66,2.23,1.47,2.23s1.48-1,1.48-2.23-.66-2.22-1.48-2.22S138.83,80.23,138.83,81.46Z"/>
          <path class="cls-18" d="M183.8,258.82c0,.46,0,.91,0,1.37a21.33,21.33,0,0,0,24.27,1.54l.38-.23a21.32,21.32,0,0,0,10.29-19,21.29,21.29,0,0,0-35,16.31Z"/>
          <path class="cls-15" d="M209.72,154.37l-34.85,88.17L216,253.8l14-59.69c3.57-15.21-3.36-31.16-17.22-38.36A29.45,29.45,0,0,0,209.72,154.37Z"/>
          <path class="cls-14" d="M188,209.22,220.4,235l7.46-31.77c-10.27-8-23.44-12.87-31.41-15.31Z"/>
          <path class="cls-18" d="M192.38,198.24l-17.51,44.3L216,253.8l9.32-39.73C216.32,205.83,201.66,200.79,192.38,198.24Z"/>
          <path class="cls-18" d="M89.38,154.37s-12.37.44-18.56,36.88-9.66,65.11-9.66,65.11l33.59,24.92Z"/>
          <path class="cls-15" d="M92.05,217.43l-2.67-63.06s-12.37.44-18.56,36.88c-1.39,8.2-2.81,17.27-4.17,26.4Z"/>
          <path class="cls-17" d="M61.16,256.36l-2.36,18.5a19,19,0,0,0,21.59,21.23l138.41-20s0-27.7-60-22.25Z"/>
          <path class="cls-18" d="M165.63,253.31c5.65,8.91,20.16,24,53.17,22.74C218.8,276.05,218.79,250.5,165.63,253.31Z"/>
          <path class="cls-25" d="M63.13,275.16a20.6,20.6,0,0,0-4.4.47,19,19,0,0,0,21.66,20.46l3.85-.56A21.13,21.13,0,0,0,63.13,275.16Z"/>
          <path class="cls-14" d="M66.65,217.65l25.4-.22-.43-10.14-23.54.93C67.6,211.33,67.12,214.48,66.65,217.65Z"/>
          <polygon class="cls-13" points="90.33 176.99 93.66 255.51 88.95 255.51 90.33 176.99"/>
          <polygon class="cls-13" points="204.48 278.13 95.67 303.04 95.28 293.93 204.48 278.13"/>
          <path class="cls-16" d="M138.83,61.56s-13.16-2-12.13-16h22.78a9.31,9.31,0,0,1,9.31,9.32v6.72Z"/>
          <path class="cls-19" d="M133.53,45.52H126.7c-1,14,12.13,16,12.13,16h6.82S132.5,59.57,133.53,45.52Z"/>
          <path class="cls-19" d="M147.54,254.1l-86.38,2.26-2,15.45C94.14,275.35,137.16,258.45,147.54,254.1Z"/>
          <line class="cls-26" x1="133.24" y1="146.5" x2="88.95" y2="161.25"/>
          <line class="cls-26" x1="169.52" y1="148.17" x2="207.35" y2="160.36"/>
          <path class="cls-21" d="M134.36,105.67s8.29,9.71,13.55,7.31a51.12,51.12,0,0,0,9.41-5.71l-5.8,17.11-17.71-12.3Z"/>
          <g>
            <g>
              <path class="cls-17" d="M152.13,114.94l3.22-6a3.78,3.78,0,0,1,4.87-1.64l.05,0a3.77,3.77,0,0,1,2.21,3.44v28.05L216,232.68a21.32,21.32,0,0,1-7.5,28.82l-.38.23a21.32,21.32,0,0,1-30.31-9.16l-52.3-110.89a17.87,17.87,0,0,1,.13-15.51l4.12-8.38-5.13-9a4.52,4.52,0,0,1,1-5.68l0,0a4.52,4.52,0,0,1,6,.11L145.56,116A4.22,4.22,0,0,0,152.13,114.94Z"/>
              <path class="cls-19" d="M136.7,141.83c-9.06-15.73-7.77-22-7.15-23.61l-3.91,8a17.87,17.87,0,0,0-.13,15.51l52.3,110.89a21.26,21.26,0,0,0,14.68,11.72c-.37-.08-1.29-26.27-1.56-29-2.05-20.91-9.88-37.6-22.65-54C158,168.18,145,156.32,136.7,141.83Z"/>
            </g>
            <path class="cls-25" d="M204.93,243.17a21.12,21.12,0,0,0-20.77,17.25c.24.19.49.37.74.55h0a21.29,21.29,0,0,0,23.21.76l.38-.23a21.25,21.25,0,0,0,9.78-13.58A21,21,0,0,0,204.93,243.17Z"/>
          </g>
        </g>
      </g>
      <g>
        <circle class="cls-27" cx="289.82" cy="125.31" r="48.52" transform="translate(21.85 292.31) rotate(-55.31)"/>
        <rect class="cls-28" x="316.13" y="67.97" width="34.45" height="15.85" transform="translate(56.71 276.79) rotate(-48.81)"/>
        <path class="cls-29" d="M255,165.61a53.45,53.45,0,1,0-5-75.42A53.45,53.45,0,0,0,255,165.61Zm65.47-74.82a46.06,46.06,0,1,1-65,4.33A46.06,46.06,0,0,1,320.48,90.79Z"/>
        <path class="cls-30" d="M266.48,153.5a35.73,35.73,0,0,1,16.87-62"/>
        <path class="cls-4" d="M392.29,8l.19.17a12.14,12.14,0,0,1,1.14,17.14L349.5,75.7a12.16,12.16,0,0,1-17.15,1.14l-.19-.16A12.16,12.16,0,0,1,331,59.53L375.14,9.11A12.16,12.16,0,0,1,392.29,8Z"/>
        <path class="cls-31" d="M384.38,17.19,340.26,67.62a12.14,12.14,0,0,1-11.57,3.89,12.12,12.12,0,0,0,3.47,5.17l.19.16A12.16,12.16,0,0,0,349.5,75.7l44.12-50.43a12.14,12.14,0,0,0-1.14-17.14L392.29,8a12.06,12.06,0,0,0-5.58-2.75A12.12,12.12,0,0,1,384.38,17.19Z"/>
        <path class="cls-14" d="M282,76.6a49.8,49.8,0,1,0,57.33,40.9A49.82,49.82,0,0,0,282,76.6Zm38.52,14.19a46.06,46.06,0,1,1-65,4.33A46.06,46.06,0,0,1,320.48,90.79Z"/>
      </g>
      <g id="_8" data-name="8">
        <path class="cls-11" d="M288.3,85.36c-23.9,0-30.91,18.07-32.81,25.84-1.18,4.82.64,7.1,1.85,8.61.65.82.77,1,.72,1.26-.47,1.89-1.79,3.92-3.76,7-4.24,6.56-7.65,11.12,3.32,13.72a32.33,32.33,0,0,1-.9,5.32,1.63,1.63,0,0,0,.76,2.09c.51.25.84.45,1.65.91-3.63,4.14,1.45,3.06,1.45,7.37,0,5,2.79,6.76,5.41,6.76a124.69,124.69,0,0,0,17.31-1.37c7.31-1.27,9.71-9.69,11.83-17.11a1.62,1.62,0,0,0-3.12-.89c-1.95,6.82-4,13.88-9.26,14.8A121.23,121.23,0,0,1,266,161c-1.44,0-2.17-1.19-2.17-3.52a7.75,7.75,0,0,0-2.2-5.29,8.15,8.15,0,0,1,1.22-1.12,1.62,1.62,0,0,0-.41-2.81,1.64,1.64,0,0,0-.57-.4,15,15,0,0,1-1.73-.91,39.17,39.17,0,0,0,.69-4.63c3,.19,2.49-3.54.27-3.22-1.68,0-7-1.45-7.62-2.68-.05-2.13,7-10.59,7.75-14.58.93-4-4.05-3.82-2.58-9.81,2.14-8.73,8.83-23.38,29.66-23.38,23.54,0,36.24,13.59,36.24,26.37,0,16.13-11.21,23.66-16,26.15a1.61,1.61,0,0,0-.88,1.44c0,7.35,1.95,16.58,4.63,21.95a1.62,1.62,0,0,0,2.9-1.45c-2.37-4.74-4.12-12.81-4.28-19.54A32.14,32.14,0,0,0,327.79,115C327.79,100.61,314,85.36,288.3,85.36Z"/>
        <path class="cls-11" d="M293.68,103.1a4.08,4.08,0,0,1-4.85-.28l-.9-.81a.94.94,0,0,0-1.5.36l-.36.93a4.21,4.21,0,0,1-6.19,2l-.87-.53a.94.94,0,0,0-1.42.75c-.07,1.25,0,2.76-1.47,4.07a1.63,1.63,0,0,0,1,2.91c1.35,0,2.75-2.21,3.22-3.5a7.44,7.44,0,0,0,7.8-2.79c3.91,1.93,9.05-.12,7.79-2.46A1.62,1.62,0,0,0,293.68,103.1Z"/>
        <path class="cls-11" d="M307,125.83h-7.42a1.63,1.63,0,0,0,0,3.25H307a5,5,0,0,0,4.7-6.52,7.44,7.44,0,0,0,.38-13.68,7.45,7.45,0,0,0-8.84-9.27,7.45,7.45,0,0,0-10.51-3.55,7.43,7.43,0,0,0-12.61.79,7.44,7.44,0,0,0-9.31,8.37c-8,3.17-4.86,14.89,2.87,14.89h1.37c1.41,0,3.42,0,4.84,0a7,7,0,0,0,6.64,4.73h1.69a7.34,7.34,0,0,0,7.15,9,4,4,0,0,1,3.95,3.46l.73,5.41a1.63,1.63,0,0,0,3.22-.44l-.74-5.41a7.25,7.25,0,0,0-7.16-6.26,4.09,4.09,0,0,1-3.46-6.29c2.22-2.41,1.09-1.91,15.09-1.91a1.71,1.71,0,1,1,0,3.42Zm-17.08-4.23h-3.22a3.91,3.91,0,0,1-3.94-3.41,3.8,3.8,0,0,1,3.77-4.17c.25,0,11.83,0,12.08,0a4.06,4.06,0,0,1,1.63,1.73c1.09,2.18,5.49.16,1.22-3.67,3.71-5.07-1.41-6.24-1.88-3.65a4.15,4.15,0,0,1-1.32,2.35H286.54a7,7,0,0,0-7,6.09h-5.89c-3,0-5.8-4.21-3.45-7.26a4.47,4.47,0,0,1,3-1.65l.72-.09a.94.94,0,0,0,.74-1.31l-.38-.84a4.19,4.19,0,0,1,5.91-5.33l.79.45a.94.94,0,0,0,1.38-.59c1.4-5.68,7.06-4.79,8.25-1.19l.36,1.09a.94.94,0,0,0,1.57.35,5.85,5.85,0,0,1,2.52-1.95,4.2,4.2,0,0,1,5.46,3.42l.14,1a.93.93,0,0,0,1.37.7l.87-.47a4.19,4.19,0,0,1,5.56,5.88l-.55.89a.93.93,0,0,0,.65,1.41l.85.13a4.18,4.18,0,0,1,0,8.31,5.32,5.32,0,0,0-2.93-.63C295.34,119.16,292.77,118.45,289.93,121.6Z"/>
      </g>
    </g>
  </g>
</svg>
