<?xml version="1.0" encoding="utf-8"?>
<!-- Generator: Adobe Illustrator 25.4.1, SVG Export Plug-In . SVG Version: 6.00 Build 0)  -->
<svg version="1.1" id="Capa_1" xmlns="http://www.w3.org/2000/svg" xmlns:xlink="http://www.w3.org/1999/xlink" x="0px" y="0px"
	 viewBox="0 0 920 300" style="enable-background:new 0 0 920 300;" xml:space="preserve">
<style type="text/css">
	.st0{fill:#B2ABDB;}
	.st1{opacity:0.18;fill:#8B82CA;enable-background:new    ;}
	.st2{opacity:0.31;}
	.st3{fill:#6558B8;}
	.st4{fill:#3F3466;}
	.st5{fill:#0B0130;}
	.st6{enable-background:new    ;}
	.st7{fill:#091320;}
</style>
<path class="st0" d="M107.4,119.6h705.2c16.8,0,30.5,13.6,30.5,30.4l0,0c0,16.8-13.6,30.4-30.5,30.4H107.4
	c-16.8,0-30.4-13.6-30.4-30.4l0,0C76.9,133.2,90.6,119.6,107.4,119.6z"/>
<g>
	<g>
		<path class="st1" d="M460,78.2V35.6c-63.2,0-114.4,51.2-114.4,114.4S396.8,264.4,460,264.4v-42.6c-39.7,0-71.8-32.1-71.8-71.8
			S420.3,78.2,460,78.2z"/>
		<g class="st2">
			<path class="st3" d="M460,264.4c63.2,0,114.4-51.2,114.4-114.4c0-63.2-51.2-114.3-114.4-114.4v42.6c39.7,0,71.8,32.1,71.8,71.8
				s-32.1,71.8-71.8,71.8V264.4z"/>
		</g>
	</g>
	<g>
		<path class="st3" d="M386.1,150c0,40.8,33.1,73.9,73.9,73.9l0,0V76.2C419.2,76.2,386.1,109.2,386.1,150L386.1,150z"/>
		<path class="st4" d="M533.8,150c0-40.8-33.1-73.8-73.8-73.8v147.7C500.8,223.8,533.8,190.8,533.8,150z"/>
	</g>
	<g>
		<path class="st5" d="M447.7,97.7c0.2,0,0.5,0,0.7,0c0.7,0.9,1.1,2.1,0.9,3.2c-0.1,1.1-0.4,2.1-0.7,3.1c-0.1,0.4-0.3,0.9-0.4,1.4
			c-0.6,1.7-0.5,3.6,0.1,5.2c0.1,0.3,0.5,0.5,0.8,0.5c0.1,0,0.2,0,0.4-0.1c0.4-0.2,0.6-0.7,0.5-1.1c0,0,0,0,0,0
			c-0.5-1.3-0.5-2.8,0-4.1c0.1-0.4,0.3-0.9,0.4-1.3c0.4-1.1,0.6-2.3,0.8-3.4c0.2-1.5-0.2-3-1.1-4.2c0.2-0.2,0.5-0.5,0.6-0.8
			c0.5-0.7,0.8-1.6,1-2.5c0.1-0.5-0.2-0.9-0.7-1s-0.9,0.2-1,0.7l0,0c-0.1,0.7-0.4,1.3-0.8,1.8c-0.2,0.3-0.4,0.5-0.6,0.7
			c-0.1,0-0.3,0-0.4,0.1c-0.2,0-0.3,0-0.5,0c-0.8,0.1-1.7-0.1-2.4-0.6c-0.4-0.3-0.9-0.3-1.2,0.1c-0.3,0.3-0.3,0.8,0,1.1
			C444.9,97.4,446.3,97.8,447.7,97.7L447.7,97.7z"/>
		<path class="st5" d="M431.8,125.3c0.2,0,0.3-0.1,0.5-0.1c0.4-0.3,0.5-0.8,0.3-1.2c0,0,0,0,0,0c-0.6-1-0.7-2.3-0.3-3.4
			c0.1-0.3,0.3-0.7,0.5-1c0.2-0.3,0.3-0.6,0.5-0.9c0.9-1.9,0.8-4.2-0.2-6.1c-0.2-0.4-0.7-0.6-1.2-0.4s-0.6,0.7-0.4,1.2
			c0,0,0,0.1,0.1,0.1c0.8,1.4,0.8,3,0.2,4.4c-0.1,0.3-0.3,0.5-0.4,0.8c-0.2,0.4-0.4,0.8-0.6,1.2c-0.7,1.6-0.5,3.5,0.4,5
			C431.2,125.2,431.5,125.3,431.8,125.3z"/>
		<path class="st5" d="M447.7,124.9c0.3,0.8,0.2,1.7-0.1,2.5c-0.2,0.5,0.1,1,0.5,1.1c0,0,0,0,0,0c0.1,0,0.2,0,0.3,0
			c0.4,0,0.7-0.2,0.8-0.6c0.4-1.2,0.5-2.5,0.1-3.7c-0.1-0.4-0.3-0.8-0.5-1.2s-0.2-0.5-0.3-0.8c-0.7-2.1-0.2-4.4,1.3-6
			c0.4-0.3,0.4-0.9,0.1-1.2c-0.3-0.4-0.9-0.4-1.2-0.1c0,0-0.1,0.1-0.1,0.1c-2,2.1-2.7,5.1-1.7,7.8c0.1,0.3,0.2,0.6,0.4,0.9
			C447.5,124.2,447.6,124.6,447.7,124.9z"/>
		<path class="st5" d="M421.5,131.4c0.2,0.1,0.4,0.3,0.6,0.4c-0.7,1.3-0.7,2.9,0.1,4.2c0.2,0.3,0.4,0.4,0.7,0.4
			c0.2,0,0.3-0.1,0.5-0.1c0.4-0.3,0.5-0.8,0.3-1.2c-0.5-0.8-0.5-1.9,0-2.7c0.4,0.1,0.9,0.1,1.3,0c0.5-0.1,1-0.2,1.5-0.4
			c0.3-0.1,0.7-0.2,1-0.3c1.7-0.3,3.4,0.4,4.5,1.7c0.1,0.2,0.3,0.3,0.4,0.5v0.1c-0.6,1.2-1.4,2.3-2.6,3.1c-0.4,0.3-0.5,0.8-0.2,1.2
			c0.2,0.2,0.4,0.4,0.7,0.4c0.2,0,0.4-0.1,0.5-0.2c1-0.7,1.9-1.6,2.5-2.6c0.2,0.8,0.3,1.6,0.3,2.4c0,0.5,0.4,0.9,0.9,0.9
			c0,0,0,0,0,0l0,0c0.5,0,0.9-0.4,0.9-0.9c0,0,0,0,0,0c0.1-2.2-0.6-4.4-2-6.1c-1.5-1.8-3.8-2.6-6.1-2.2c-0.4,0.1-0.8,0.2-1.1,0.3
			c-0.4,0.1-0.8,0.2-1.2,0.3c-1.7,0.1-3.1-1.1-3.3-2.7c0-1,0.3-2.1,0.8-3c0.1-0.3,0.3-0.6,0.4-1c0.8-2.1,0.7-4-0.4-5.2
			c-0.3-0.4-0.9-0.4-1.3,0c-0.4,0.3-0.4,0.9,0,1.3c0.9,1,0.4,2.7,0.1,3.4c-0.1,0.3-0.2,0.6-0.4,0.9c-0.6,1.2-0.9,2.5-0.9,3.8
			C419.9,129.4,420.5,130.6,421.5,131.4z"/>
		<path class="st5" d="M444.7,148c0.1,0.1,0.3,0.1,0.4,0.1c0.3,0,0.6-0.2,0.8-0.5c0.3-0.7,0.9-1.4,1.5-1.8c0.3-0.2,0.6-0.3,0.9-0.4
			c0.2,2.3,1.1,4.5,2.6,6.4c0.2,0.2,0.4,0.3,0.7,0.3c0.2,0,0.4-0.1,0.6-0.2c0.4-0.3,0.4-0.9,0.1-1.2c-1.3-1.7-2.1-3.8-2.1-5.9
			c0.1-0.1,0.2-0.1,0.3-0.2c1.1-0.9,1.9-2.1,2.2-3.5c0.1-0.5-0.2-1-0.6-1.1c-0.5-0.1-1,0.2-1.1,0.6c-0.2,1-0.7,1.9-1.5,2.5
			c-0.4,0.2-0.9,0.4-1.3,0.6c-0.5,0.2-1,0.4-1.5,0.6c-1,0.6-1.8,1.5-2.2,2.5C444.1,147.3,444.3,147.8,444.7,148z"/>
		<path class="st5" d="M414.9,150.6c-0.1-0.4-0.3-0.8-0.6-1.2l-0.2-0.3c-0.5-0.7-0.7-1.6-0.6-2.5c0-0.6,0.1-1.2,0.2-1.8
			c1.1,0.3,2.3,0.3,3.3-0.2c0.4-0.2,0.7-0.7,0.5-1.2s-0.7-0.7-1.2-0.5l0,0c-0.8,0.4-1.7,0.4-2.5,0l0,0c-0.1-0.2-0.3-0.3-0.5-0.3
			h-0.1c-0.5-0.4-0.9-0.9-1.1-1.6c-0.2-0.5-0.7-0.7-1.1-0.5c-0.4,0.2-0.7,0.6-0.5,1.1c0.3,0.9,0.9,1.7,1.7,2.4
			c-0.2,0.9-0.3,1.7-0.4,2.6c-0.1,1.2,0.2,2.5,0.9,3.5l0.2,0.3c0.2,0.2,0.3,0.4,0.4,0.6c0.1,0.4,0.5,0.7,0.9,0.6c0.1,0,0.1,0,0.2,0
			C414.8,151.6,415,151.1,414.9,150.6C414.9,150.6,414.9,150.6,414.9,150.6z"/>
		<path class="st5" d="M416.1,167c0.2,0,0.4-0.1,0.5-0.2c0.4-0.3,0.4-0.8,0.1-1.2c0,0,0,0,0,0c-0.8-1-0.9-2.6-0.9-4.2
			c-0.1-0.9,0.2-1.9,0.8-2.6c0.1-0.1,0.2-0.3,0.3-0.4c1.1-1.6,1.5-3.7,1.2-5.6c-0.1-0.5-0.6-0.8-1.1-0.7c-0.4,0.1-0.7,0.5-0.7,1
			c0.3,1.5-0.1,3-0.9,4.3l-0.3,0.4c-0.3,0.4-0.6,0.8-0.8,1.2c-0.3,0.8-0.4,1.6-0.4,2.4c0,2,0,3.9,1.2,5.4
			C415.6,166.9,415.8,167,416.1,167z"/>
		<path class="st5" d="M426.2,180.1l0.3,0.4c1.1,1.4,3.7,3.5,6.1,3.6l0,0c0.3,1.7,0.9,3.3,1.8,4.7c0.2,0.3,0.4,0.4,0.8,0.4
			c0.2,0,0.3,0,0.4-0.1c0.4-0.2,0.5-0.7,0.3-1.1c-0.8-1.2-1.3-2.6-1.6-4c-0.2-1.3,0.2-2.6,1.1-3.6c0.4-0.3,0.4-0.9,0.1-1.2
			c0,0,0,0,0,0c-0.3-0.4-0.9-0.4-1.2-0.1c-0.9,0.9-1.5,2-1.7,3.3c-1.5-0.1-3.6-1.5-4.8-2.9c-0.1-0.1-0.2-0.3-0.3-0.4
			c-0.8-1-1.8-2.3-3.3-2.4c-0.5,0-0.9,0-1.3,0.1c-0.3,0.1-0.6,0.1-0.8,0.1c-0.1-0.1-0.2-0.1-0.4-0.1c-0.2-0.2-0.4-0.5-0.5-0.8
			c-0.2-0.5-0.4-0.9-0.7-1.3l-0.1-0.1c0-0.1,0-0.2-0.1-0.2c-0.6-1.1-0.7-2.5-0.4-3.7c0.3-1.2,1.1-2.2,2.2-2.9c0.3,0,0.6-0.1,0.8-0.4
			c0.3-0.4,0.2-0.9-0.2-1.2c0,0,0,0,0,0c-0.4-0.3-0.9-0.3-1.4,0c-2.5,1.5-3.8,4.4-3.2,7.3c-0.6-0.1-1.1-0.3-1.5-0.7
			c-0.3-0.4-0.8-0.5-1.2-0.2c0,0,0,0,0,0c-0.4,0.3-0.5,0.8-0.2,1.2c0.6,0.7,1.5,1.2,2.5,1.4c0.5,0.1,1.1,0.3,1.5,0.7
			c0.2,0.2,0.3,0.5,0.4,0.8c0.2,0.5,0.4,0.9,0.7,1.3c-1.2,2-1.5,4.4-1,6.7c0.1,0.4,0.5,0.7,0.9,0.7h0.2c0.5-0.1,0.8-0.6,0.6-1.1
			c0,0,0,0,0,0c-0.5-1.9-0.1-3.9,0.9-5.6c0.4,0,0.8,0,1.2-0.1c0.3-0.1,0.6-0.1,0.9-0.1C424.9,178.4,425.5,179.2,426.2,180.1z"/>
		<path class="st5" d="M446.8,194.8c-0.3-0.2-0.6-0.3-0.9-0.6c-0.4-0.3-0.8-0.6-1.2-0.8c-1-0.4-2.1-0.3-3,0.2
			c-0.2,0.1-0.4,0.3-0.5,0.4c-0.2,0.2-0.4,0.3-0.6,0.4c-0.5,0.1-0.7,0.6-0.6,1.1c0.1,0.5,0.6,0.7,1.1,0.6c0.4-0.1,0.8-0.4,1.2-0.7
			l0.4-0.3c0.4-0.3,0.9-0.3,1.4-0.1c0.3,0.2,0.6,0.3,0.8,0.6c0.4,0.4,0.9,0.6,1.4,0.9l0.2,0.1c0.2,1.4,1,2.7,2.2,3.6
			c0.1,0.1,0.3,0.1,0.5,0.1c0.5,0,0.9-0.4,0.9-0.9c0-0.3-0.2-0.6-0.4-0.7c-0.6-0.6-1.1-1.3-1.4-2.1c0.7-0.2,1.3-0.5,1.8-0.9
			c0.4-0.3,0.7-0.6,1-0.9c0.4-0.4,0.9-0.8,1.4-1.1c0.4-0.2,0.6-0.7,0.4-1.2c-0.2-0.4-0.7-0.6-1.2-0.4c0,0-0.1,0-0.1,0.1
			c-0.6,0.4-1.2,0.8-1.7,1.3c-0.3,0.3-0.6,0.5-0.9,0.8C448.4,194.7,447.6,195,446.8,194.8z"/>
		<path class="st5" d="M448.2,172.4c-0.7-0.6-1.3-1.3-1.9-2c-0.9-1.1-1.6-2.5-2-3.9c-0.1-0.3-0.2-0.6-0.2-1v-0.1h0.3
			c1.3,0,2.6-0.5,3.6-1.4c0.3-0.4,0.3-0.9-0.1-1.2c-0.3-0.3-0.8-0.3-1.1,0c-0.9,0.8-2.1,1.1-3.2,0.8c-0.1-0.3-0.3-0.7-0.5-1
			c-1.3-2.1-3.8-2.8-6.2-3.3l-6.6-1.5c-1.2-0.3-2.4-0.6-3.5-1c-0.6-1.9-1-3.9-1.1-5.9c0-0.5-0.4-0.8-0.9-0.8c0,0,0,0,0,0
			c-0.5,0-0.9,0.5-0.8,0.9c0,0,0,0,0,0c0.1,1.7,0.4,3.5,0.8,5.2h-0.4c-0.3,0-0.7,0-1,0c-0.2,0-0.5,0-0.7,0c-0.3,0-0.5-0.1-0.8-0.3
			c-0.3-0.4-0.8-0.5-1.2-0.2c-0.4,0.3-0.5,0.8-0.2,1.2c0.5,0.7,1.3,1.1,2.1,1.1c0.3,0,0.6,0,0.9,0c0.2,0,0.5,0,0.7,0
			c0.5,0.1,1,0.2,1.5,0.4l0.4,0.1c1.2,0.4,2.5,0.7,3.8,1l4.7,1.1c-1,1.5-1.7,3.2-2.2,4.9c-0.7,2.1-0.5,4.4,0.5,6.3
			c0.4,0.7,0.9,1.4,1.5,2c0.3,0.3,0.6,0.7,0.9,1.1c0.2,0.3,0.4,0.6,0.7,1c1.1,2.1,3.1,3.6,5.4,4.1c1.1,0.3,2.1,0.9,3.1,1.6
			c0.9,0.7,1.4,1.7,1.6,2.9c0.1,0.4,0.4,0.8,0.9,0.8h0.1c0.5-0.1,0.8-0.5,0.8-1c0,0,0,0,0,0c-0.2-1.6-1-3-2.2-4
			c-1.1-0.8-2.3-1.4-3.6-1.9c-1.2-0.4-2.3-1-3.3-1.8c-0.5-0.5-0.9-1.1-1.2-1.6l-0.2-0.3c0.6-0.7,1.2-1.5,1.7-2.3
			c0.3-0.4,0.2-0.9-0.2-1.2s-0.9-0.2-1.2,0.2c-0.4,0.6-0.9,1.2-1.4,1.8c-0.1-0.2-0.3-0.3-0.4-0.5c-0.5-0.5-0.9-1.1-1.3-1.7
			c-0.7-1.6-0.9-3.3-0.4-5c0.6-1.8,1.3-3.4,2.3-5h0c2.1,0.5,4.1,1.1,5.1,2.6c0.4,0.8,0.7,1.6,0.9,2.4c0.1,0.3,0.2,0.7,0.3,1.1
			c0.5,1.6,1.2,3.1,2.3,4.5c0.6,0.8,1.3,1.5,2,2.2c1.3,1.1,2.4,2.6,3.1,4.2c0.1,0.4,0.5,0.6,0.8,0.6c0.1,0,0.2,0,0.3,0
			c0.5-0.1,0.7-0.6,0.6-1.1C450.9,175.4,449.7,173.7,448.2,172.4z"/>
		<path class="st5" d="M444.9,202.1c-2,0.6-4.2,0-5.6-1.5c-0.4-0.5-0.8-1-1.1-1.5c-0.2-0.3-0.4-0.7-0.7-1c-0.7-1.1-1.8-1.9-3-2.2
			h-0.1c-0.4-1-0.6-2.2-0.6-3.3c0-0.5-0.4-0.9-0.9-0.9s-0.9,0.4-0.9,0.9c0,1.1,0.1,2.2,0.5,3.2c-0.5,0.1-1,0-1.5-0.1
			c-0.6-0.3-1.1-0.7-1.5-1.3c-1.9-2.1-3.5-4.1-3.7-6.4c0-0.5-0.4-0.8-0.9-0.8c0,0,0,0,0,0c-0.5,0-0.8,0.5-0.8,0.9c0,0,0,0,0,0.1
			c0.3,3.1,2.5,5.6,4.2,7.4c1,1.5,2.7,2.2,4.5,2c0.5,0,0.9,0,1.4,0.1c0.8,0.3,1.5,0.8,2,1.6c0.2,0.3,0.4,0.6,0.6,0.9
			c0.4,0.6,0.8,1.2,1.3,1.7c1.4,1.5,3.3,2.3,5.4,2.3c0.7,0,1.4-0.1,2-0.3c0.5-0.2,0.7-0.7,0.5-1.1c-0.2-0.4-0.6-0.7-1.1-0.6
			L444.9,202.1z"/>
		<path class="st5" d="M429.8,98.1c-2.8,0.7-5,3.1-5.3,6v0.3c0,0.2,0,0.5-0.1,0.7c0,0.1-0.1,0.2-0.2,0.3c-0.5,0.1-0.7,0.6-0.6,1.1
			c0.1,0.4,0.4,0.6,0.8,0.6c0.1,0,0.2,0,0.2,0c0.7-0.2,1.2-0.8,1.4-1.4c0.1-0.4,0.2-0.7,0.2-1.1v-0.3c0.3-2.1,1.8-3.9,3.9-4.4
			c0.5-0.1,0.8-0.6,0.7-1.1C430.8,98.4,430.3,98.1,429.8,98.1L429.8,98.1z"/>
		<path class="st5" d="M442.1,91.1c-1.4-0.1-2.7,0.4-3.6,1.5c-0.6,0.8-1,1.7-1.3,2.7c-0.1,0.3-0.2,0.6-0.3,0.8s-0.7,1.7-1.6,1.9
			c-0.5,0.1-0.8,0.5-0.7,1c0.1,0.4,0.4,0.8,0.9,0.7h0.1c1.3-0.2,2.4-1.3,3-3c0.1-0.3,0.2-0.6,0.3-0.9c0.2-0.7,0.5-1.4,0.9-2.1
			c0.5-0.6,1.3-0.9,2.1-0.9c0.5,0.1,0.9-0.3,1-0.7c0,0,0,0,0,0C443,91.5,442.7,91.1,442.1,91.1C442.2,91.1,442.1,91.1,442.1,91.1z"
			/>
		<path class="st5" d="M458.6,166.8c0.3-1.4,0.3-2.8,0.1-4.2c-0.2-1.2-0.8-2.4-1.7-3.3c0.2-0.1,0.3-0.3,0.4-0.4
			c0.6-0.7,0.9-1.6,1-2.5c0.8-4.7,0.3-9.5-1.5-13.9c-0.4-1-0.8-1.9-1.3-2.8s-0.9-1.9-1.3-2.9c1.1-0.5,2-1.4,2.4-2.5
			c0.6-1.9,0.9-3.9,0.8-5.9c0-0.7,0-1.4,0-2c0-1.1,0.2-2.2,0.4-3.4c0.4-2.1,0.5-4.2,0.3-6.3c-0.2-1.7-0.8-3.3-1.8-4.8
			c3.9-8.4,2.9-19.5-5.6-24c-2.6-1.4-5.6-1.2-8.4-0.9c-7.5,0.8-10,4.8-11.3,6.9c-0.2,0.4-0.4,0.7-0.7,1H430
			c-2.1,0.1-7.9,0.3-11.1,4.9c-2.4,3.1-3.1,7.2-2,11c-1.3,0.4-2.4,1-3.5,1.7c-4.5,3-6.5,8.3-5.5,14.5c-0.6,0.2-1.1,0.5-1.5,0.8
			c-1.5,1.2-2.3,3.3-2.3,6.2c0,1.2,0.1,2.4,0.5,3.5c-2.6,5.1-1.6,12.8,2.4,18c-0.1,0.1-0.1,0.2-0.1,0.3c-0.7,4.4-0.3,8.9,1.3,13
			c0.3,0.9,0.7,1.7,1.2,2.5c-0.6,4.6,0.1,9.2,1.8,13.5c0.5,1.5,1.5,2.9,2.7,4c1,0.8,2.3,1.3,3.7,1.2c-0.1,4.9,3.2,9.1,8,10.1
			c1.3,1.8,2.9,3.3,4.7,4.5c2.3,1.4,4.7,2.5,7.3,3.3c2.5,1,5.1,1.5,7.8,1.7c1.3,0,2.6-0.2,3.9-0.7c2-0.8,3.7-2.2,5-3.8
			c1.4-1.6,3.7-4.9,2.6-8.2c0-0.1,0.1-0.2,0.1-0.4c0.4-1.3,0.5-2.7,0.5-4.1c0-0.9,0-1.9-0.1-2.8c-0.2-1.5-0.8-3-1.6-4.3
			c0-0.2,0-0.3,0-0.5c0.7-1.3,1.1-2.8,1.2-4.2c0.6-3.3,1-6.5-0.1-9.4c0.1-0.1,0.2-0.3,0.3-0.5C457.9,169.5,458.3,168.2,458.6,166.8z
			 M414.4,114c3.6-2.4,8.5-2.8,11.6-0.7c0.3,0.4,0.6,0.8,0.6,1.3c0.2,1.2,0,2.5-0.8,3.6c-0.3,0.4-0.2,0.9,0.2,1.2c0,0,0,0,0,0
			c0.4,0.3,0.9,0.2,1.2-0.2c1-1.4,1.3-3.2,1-4.9c-0.1-0.5-0.3-1-0.5-1.5c0-0.1,0-0.1-0.1-0.2c-0.7-1.4,0-3.1,0.9-4.1
			c1.2-1.2,2.7-2.2,4.3-2.8l2.7-1.3c0.5-0.3,1-0.4,1.5-0.5c0.5,0,1,0.1,1.5,0.4c0.4,0.3,0.7,0.8,0.8,1.3c0,0.9-0.3,1.8-0.8,2.6
			c-0.3,0.6-0.6,1.2-0.8,1.8c-0.6,2.1-0.2,4.4,1.3,6c-2.5,1.6-3.9,4.5-3.5,7.4c0.4,1.9,1.5,3.7,3.1,4.8l0.4,0.2
			c-0.8,1.1-1.3,2.3-1.3,3.7c-0.1,1.7,0.1,4,1.7,5.4c0.2,0.2,0.4,0.3,0.6,0.4s0.2,0.4,0.3,0.5s0.2,0.3,0.3,0.5
			c0.4,1.1,0.6,2.3,0.5,3.5c0,0.5,0.4,0.9,0.9,0.9c0,0,0,0,0,0l0,0c0.5,0,0.9-0.4,0.9-0.9c0.1-1.2,0-2.3-0.3-3.5
			c0.5,0.1,0.9,0.1,1.4,0.1c1.2,0,2.3-0.3,3.3-0.9c0.4-0.3,0.4-0.9,0.1-1.2c-0.3-0.3-0.7-0.4-1.1-0.2c-1.5,0.8-3.3,0.8-4.8-0.1
			c-0.1-0.2-0.3-0.3-0.5-0.3l-0.3-0.2c-1.1-1-1.1-2.9-1.1-4c0.1-1.4,0.8-2.7,1.9-3.6c0.4-0.3,0.5-0.8,0.2-1.2
			c-0.2-0.3-0.6-0.4-0.9-0.3c-0.4,0-0.7-0.1-1-0.3c-1.2-0.9-2.1-2.2-2.3-3.6c-0.2-2.5,1.1-4.9,3.4-6c0.4-0.2,0.7-0.7,0.5-1.1
			c0,0,0,0,0,0c-0.1-0.1-0.2-0.3-0.3-0.4c0-0.2-0.1-0.4-0.3-0.6c-1.2-1.2-1.7-2.9-1.2-4.5c0.2-0.5,0.5-1,0.8-1.5
			c0.6-1,0.9-2.1,1-3.2h0.1c1.4,0,2.6-0.8,3.4-1.9c0.8-1.4,0.9-3,0.3-4.5c-0.1-0.5-0.6-0.8-1.1-0.6s-0.8,0.6-0.6,1.1
			c0,0,0,0.1,0,0.1c0.4,1,0.3,2.1-0.2,3c-0.5,0.8-1.4,1.2-2.3,1h-0.1c-0.2-0.4-0.6-0.7-0.9-1c-0.8-0.6-1.8-0.9-2.8-0.8
			c-0.7,0.1-1.4,0.4-2,0.7l-2.6,1.2c-1.8,0.7-3.5,1.8-4.9,3.2c-1,1.1-1.5,2.4-1.6,3.9c-2.2-0.9-4.6-1.2-7-0.7
			c-1.1-3.3-0.5-6.9,1.7-9.6c2.7-3.8,7.8-4.1,9.7-4.2c0.3,0,0.6,0,0.9-0.1c0.7-0.2,1.1-0.8,1.7-1.8c1.2-2,3.3-5.4,10-6.1
			c2.7-0.3,5.3-0.5,7.4,0.7c7.2,3.9,8.2,13.4,5.2,20.9l-0.5-0.5c-0.3-0.3-0.9-0.3-1.2,0c0,0,0,0,0,0c-0.3,0.3-0.3,0.9,0,1.2
			c0.4,0.4,0.8,0.8,1.1,1.2c0,0.2,0.2,0.4,0.3,0.5c0.8,1.2,1.4,2.7,1.6,4.2c0.2,1.9,0.1,3.9-0.3,5.8c-0.2,1.1-0.3,2.3-0.4,3.5
			c0,0.7,0,1.4,0,2.1c0.1,1.8-0.1,3.5-0.6,5.2c-0.3,0.8-0.9,1.6-1.6,1.6s-1.5-0.6-2.3-2.1c-0.2-0.4-0.8-0.6-1.2-0.3
			c-0.4,0.2-0.6,0.8-0.3,1.2c0.6,1.2,1.6,2.3,2.8,2.9c0.5,1.3,1,2.5,1.6,3.7c0.4,0.9,0.9,1.8,1.2,2.7c1.7,4.1,2.2,8.6,1.4,13
			c-0.1,0.6-0.3,1.2-0.6,1.6c-0.5,0.5-1.4,0.7-2.7,0.6c-5.1-0.6-10-3.8-15.1-9.6l-0.4-0.4c-1-1.3-2.1-2.4-3.4-3.3
			c-2.2-1.3-4.7-1.9-7.3-1.9h-0.4c-1,0-2-0.1-2.9-0.4c-1.7-0.7-2.7-2.6-3.2-4c-0.2-0.7-0.5-1.4-0.7-2.1c-0.3-1.2-0.7-2.5-1.3-3.6
			c-1.2-2.4-3.2-4.3-5.7-5.4c-1.1-0.5-2.3-0.7-3.4-0.7C408.5,119.3,412.1,115.6,414.4,114z M456.8,166.4c-0.2,1.2-0.6,2.4-1.1,3.4
			c-0.5,1-1.4,1.7-2.5,2c-0.5,0.1-0.7,0.6-0.6,1.1c0.1,0.4,0.4,0.6,0.8,0.7h0.2c0.7-0.2,1.3-0.5,1.9-0.9c0.7,2.3,0.3,5-0.2,7.7
			c-0.2,1.4-0.6,2.8-1.3,4c-0.6,1-1.8,1.5-3,1.3c-0.5-0.2-1,0-1.1,0.5c-0.2,0.5,0,1,0.5,1.1c0,0,0,0,0.1,0c0.4,0.1,0.8,0.2,1.2,0.2
			c1,0,2-0.4,2.8-1c0.6,1,1.1,2.2,1.3,3.4c0.1,0.8,0.1,1.7,0.1,2.6c0,1.2-0.1,2.4-0.4,3.6c-0.3,1-0.9,1.8-1.8,2.4
			c-0.5-0.2-1,0.1-1.1,0.5c-0.1,0.3-0.1,0.6,0.1,0.8c0.2,0.3,0.6,0.5,0.9,0.5c0.2,0,0.5-0.1,0.7-0.2c0.4-0.2,0.9-0.5,1.2-0.9
			c-0.3,1.8-1.2,3.4-2.4,4.7c-1.2,1.4-2.7,2.6-4.4,3.3c-3.3,1.3-7.1,0.2-10.5-1c-2.4-0.7-4.7-1.8-6.9-3.1c-1.6-1.1-3.1-2.4-4.2-4
			c-0.1-0.2-0.2-0.4-0.4-0.5c-0.8-1.1-1.4-2.3-1.8-3.6c-0.2-0.5-0.7-0.7-1.1-0.5c-0.5,0.2-0.7,0.7-0.5,1.1c0.3,0.7,0.6,1.4,0.9,2.1
			c-3.3-1.6-5.2-5.1-4.7-8.8c0.1-0.3-0.1-0.6-0.3-0.8c-0.3-0.2-0.6-0.2-0.9-0.1c-1.1,0.4-2.3,0.2-3.2-0.6c-1-0.9-1.7-2-2.2-3.3
			c-1.4-3.4-2-7.1-1.9-10.8c0.6,0.5,1.2,1,2,1.3c0.1,0,0.2,0.1,0.4,0.1c0.3,0,0.7-0.2,0.8-0.5c0.2-0.4,0-1-0.5-1.2
			c-1.6-0.7-2.9-2.3-3.8-4.8c-1.4-3.5-1.8-7.3-1.4-11l0.3,0.3c0.9,0.9,1.9,1.9,1.8,2.9c0,0.5,0.4,0.9,0.8,0.9c0,0,0,0,0,0l0,0
			c0.5,0,0.9-0.4,0.9-0.8c0.1-1.8-1.3-3.2-2.4-4.2l-0.3-0.3c-4.2-4.3-5.8-11.7-3.8-16.7c0.8,0.9,1.9,1.4,3.1,1.3
			c0.5,0,0.9-0.4,0.8-0.9c0,0,0,0,0,0c0-0.5-0.4-0.9-0.9-0.8c0,0,0,0,0,0c-1,0-1.9-0.6-2.3-1.5c-0.5-1.1-0.7-2.2-0.6-3.4
			c0-2.3,0.5-3.9,1.6-4.8c1.4-1.1,3.4-0.8,4.9-0.2c2.1,0.9,3.8,2.5,4.8,4.5c0.5,1.1,0.9,2.2,1.1,3.3c0.2,0.7,0.4,1.5,0.7,2.3
			c0.9,2.6,2.4,4.3,4.2,5c1.1,0.4,2.3,0.6,3.5,0.6h0.4c2.2-0.1,4.4,0.5,6.4,1.6c1.2,0.9,2.2,1.9,3.1,3l0.4,0.4
			c5.3,6.2,10.6,9.5,16.2,10.2c0.4,0,0.7,0.1,1.1,0.1c0.3,0,0.6,0,0.9-0.1c0.1,0.1,0.1,0.1,0.2,0.2c0.9,0.6,1.4,1.6,1.6,2.7
			C457.1,164.1,457.1,165.3,456.8,166.4L456.8,166.4z"/>
	</g>
	<g>
		<path class="st0" d="M472.6,98.2c-0.2,0-0.5,0-0.7,0c-0.7,0.9-1.1,2.1-0.9,3.2c0.1,1,0.4,2.1,0.7,3.1c0.1,0.4,0.3,0.9,0.4,1.4
			c0.6,1.7,0.6,3.6-0.1,5.2c-0.1,0.3-0.5,0.5-0.8,0.5c-0.1,0-0.2,0-0.4-0.1c-0.4-0.2-0.6-0.7-0.5-1.2c0.5-1.3,0.5-2.8,0-4.1
			c-0.1-0.4-0.2-0.9-0.4-1.3c-0.4-1.1-0.6-2.3-0.8-3.4c-0.2-1.5,0.2-2.9,1-4.2c-0.2-0.2-0.4-0.5-0.6-0.8c-0.5-0.7-0.8-1.6-1-2.5
			c-0.1-0.5,0.2-0.9,0.7-1s0.9,0.2,1,0.7l0,0c0.1,0.7,0.4,1.3,0.8,1.8c0.2,0.3,0.4,0.5,0.6,0.7c0.1,0,0.3,0.1,0.4,0.1h0.5
			c0.8,0.1,1.7-0.1,2.4-0.6c0.4-0.3,0.9-0.3,1.2,0.1c0.3,0.3,0.3,0.8,0,1.1C475.3,98,474,98.4,472.6,98.2L472.6,98.2z"/>
		<path class="st0" d="M488.5,125.9c-0.2,0-0.3,0-0.5-0.1c-0.4-0.3-0.5-0.8-0.3-1.2c0,0,0,0,0,0c0.6-1,0.7-2.3,0.3-3.4
			c-0.1-0.3-0.3-0.7-0.5-1c-0.2-0.3-0.3-0.6-0.5-0.9c-0.9-1.9-0.8-4.2,0.2-6.1c0.3-0.4,0.8-0.5,1.2-0.2c0.4,0.2,0.5,0.7,0.3,1.1
			c-0.8,1.4-0.8,3-0.2,4.4c0.1,0.3,0.3,0.5,0.4,0.8c0.2,0.4,0.4,0.8,0.6,1.2c0.7,1.6,0.5,3.5-0.4,5
			C489.1,125.7,488.8,125.9,488.5,125.9z"/>
		<path class="st0" d="M472.6,125.5c-0.2,0.8-0.2,1.7,0.1,2.5c0.2,0.5-0.1,1-0.5,1.1c-0.1,0-0.2,0.1-0.3,0.1c-0.4,0-0.7-0.2-0.8-0.6
			c-0.4-1.2-0.5-2.4-0.1-3.6c0.1-0.4,0.3-0.8,0.5-1.2c0.1-0.3,0.2-0.5,0.3-0.8c0.7-2.1,0.2-4.4-1.3-6c-0.3-0.3-0.3-0.9,0-1.2
			c0.3-0.3,0.9-0.3,1.2,0l0,0c2,2.1,2.7,5.1,1.7,7.8c-0.1,0.3-0.2,0.6-0.4,0.9C472.8,124.8,472.7,125.1,472.6,125.5z"/>
		<path class="st0" d="M498.8,131.9c-0.2,0.1-0.4,0.3-0.6,0.4c0.7,1.3,0.7,3-0.1,4.2c-0.3,0.4-0.8,0.5-1.2,0.3c0,0,0,0,0,0
			c-0.4-0.3-0.5-0.8-0.3-1.2c0.5-0.8,0.5-1.9,0-2.7c-0.4,0.1-0.9,0.1-1.3,0c-0.5-0.1-1-0.2-1.5-0.4c-0.3-0.1-0.6-0.2-1-0.3
			c-1.7-0.2-3.4,0.4-4.5,1.7c-0.1,0.2-0.3,0.3-0.4,0.5v0.1c0.6,1.2,1.4,2.3,2.6,3.1c0.4,0.3,0.5,0.8,0.2,1.2
			c-0.2,0.2-0.4,0.4-0.7,0.4c-0.2,0-0.3-0.1-0.5-0.2c-1-0.7-1.9-1.6-2.5-2.6c-0.2,0.8-0.3,1.6-0.3,2.4c0,0.5-0.4,0.9-0.9,0.9l0,0
			c-0.4,0-0.8-0.3-0.8-0.8c-0.1-2.2,0.6-4.4,2-6.1c1.5-1.8,3.8-2.6,6.1-2.2c0.4,0.1,0.8,0.2,1.1,0.3c0.4,0.1,0.8,0.2,1.2,0.3
			c1.7,0.1,3.1-1.1,3.3-2.7c0-1-0.3-2.1-0.8-3c-0.1-0.3-0.3-0.6-0.4-1c-0.8-2.1-0.6-4,0.4-5.2c0.3-0.4,0.9-0.4,1.2,0s0.4,0.9,0,1.2
			c-0.9,1-0.4,2.7-0.1,3.4c0.1,0.3,0.2,0.6,0.4,0.9c0.6,1.2,0.9,2.5,0.9,3.8C500.4,130,499.8,131.1,498.8,131.9z"/>
		<path class="st0" d="M475.6,148.6c-0.1,0.1-0.3,0.1-0.4,0.1c-0.3,0-0.6-0.2-0.8-0.5c-0.3-0.7-0.9-1.4-1.5-1.8
			c-0.3-0.2-0.6-0.3-0.9-0.4c-0.2,2.3-1.1,4.5-2.6,6.4c-0.2,0.2-0.4,0.3-0.7,0.3c-0.5,0-0.9-0.4-0.9-0.9c0-0.2,0.1-0.4,0.2-0.6
			c1.3-1.7,2.1-3.8,2.1-5.9l-0.3-0.2c-1.1-0.9-1.9-2.1-2.2-3.5c-0.1-0.5,0.1-1,0.6-1.1c0.5-0.1,1,0.1,1.1,0.6c0.2,1,0.7,1.9,1.5,2.5
			c0.4,0.2,0.9,0.4,1.3,0.6c0.5,0.2,1,0.4,1.5,0.6c1,0.6,1.8,1.5,2.2,2.5C476.2,147.8,476,148.3,475.6,148.6z"/>
		<path class="st0" d="M505.4,151.1c0.1-0.4,0.3-0.8,0.6-1.2l0.2-0.3c0.4-0.8,0.7-1.6,0.6-2.5c0-0.6-0.1-1.2-0.2-1.8
			c-1.1,0.3-2.3,0.3-3.3-0.2c-0.4-0.2-0.6-0.7-0.5-1.2c0.2-0.4,0.7-0.6,1.2-0.4c0.8,0.3,1.7,0.3,2.5,0l0,0c0.1-0.2,0.3-0.3,0.5-0.3
			h0c0.5-0.4,0.9-0.9,1.1-1.6c0.1-0.5,0.6-0.7,1.1-0.6c0,0,0,0,0,0c0.5,0.2,0.7,0.6,0.6,1.1c-0.3,0.9-0.9,1.7-1.7,2.4
			c0.2,0.9,0.3,1.7,0.4,2.6c0.1,1.2-0.2,2.5-0.9,3.5l-0.2,0.3c-0.2,0.2-0.3,0.4-0.4,0.6c-0.1,0.4-0.5,0.7-0.9,0.6
			c-0.1,0-0.1,0-0.2,0C505.5,152.1,505.2,151.6,505.4,151.1C505.4,151.2,505.4,151.1,505.4,151.1z"/>
		<path class="st0" d="M504.2,167.6c-0.2,0-0.4-0.1-0.5-0.2c-0.4-0.3-0.4-0.9-0.1-1.2c0.8-1,0.9-2.6,0.9-4.2c0-0.6,0-1.2-0.2-1.8
			c-0.2-0.3-0.3-0.6-0.6-0.9c-0.1-0.1-0.2-0.3-0.3-0.4c-1.1-1.6-1.5-3.7-1.2-5.6c0.1-0.5,0.5-0.8,1-0.7c0.5,0.1,0.8,0.5,0.7,1
			c0,0,0,0,0,0c-0.3,1.5,0.1,3,0.9,4.3l0.3,0.4c0.3,0.4,0.6,0.8,0.8,1.2c0.3,0.8,0.4,1.6,0.4,2.4c0,2,0,3.9-1.2,5.4
			C504.7,167.4,504.5,167.6,504.2,167.6z"/>
		<path class="st0" d="M494.1,180.6l-0.3,0.4c-1.1,1.4-3.7,3.5-6.1,3.6l0,0c-0.3,1.7-0.9,3.3-1.8,4.7c-0.2,0.3-0.4,0.4-0.8,0.4
			c-0.5,0-0.9-0.4-0.9-0.9c0-0.2,0-0.3,0.1-0.4c0.8-1.2,1.3-2.6,1.6-4c0.2-1.3-0.2-2.6-1.1-3.6c-0.4-0.3-0.4-0.9-0.1-1.2
			c0.3-0.4,0.9-0.4,1.2-0.1c0,0,0,0,0,0c0.9,0.9,1.5,2,1.7,3.3c1.5-0.1,3.6-1.5,4.8-2.9l0.3-0.4c0.8-1,1.8-2.3,3.3-2.4
			c0.5,0,0.9,0,1.4,0.1c0.3,0.1,0.6,0.1,0.8,0.1c0.1-0.1,0.2-0.1,0.4-0.1c0.2-0.2,0.3-0.5,0.5-0.8c0.2-0.5,0.4-0.9,0.7-1.3l0.1-0.1
			c0-0.1,0-0.1,0.1-0.2c1.3-2.3,0.5-5.3-1.8-6.6c-0.5,0.1-0.9-0.3-1-0.8c0-0.3,0.1-0.7,0.4-0.8c0.4-0.3,0.9-0.3,1.4,0
			c2.6,1.5,3.9,4.4,3.2,7.3c0.6-0.1,1.1-0.3,1.5-0.7c0.3-0.4,0.9-0.4,1.2-0.1c0.3,0.3,0.4,0.7,0.2,1.1c-0.6,0.7-1.5,1.2-2.5,1.4
			c-0.5,0.1-1.1,0.3-1.5,0.7c-0.2,0.3-0.3,0.5-0.4,0.8c-0.2,0.5-0.4,0.9-0.7,1.3c1.2,2,1.5,4.4,1,6.7c-0.1,0.4-0.5,0.7-0.9,0.7h-0.2
			c-0.5-0.1-0.8-0.6-0.6-1c0,0,0,0,0,0c0.5-1.9,0.1-3.9-0.9-5.6c-0.4,0-0.8,0-1.2-0.1c-0.3-0.1-0.6-0.1-0.9-0.1
			C495.4,179,494.8,179.8,494.1,180.6z"/>
		<path class="st0" d="M473.5,195.4c0.3-0.1,0.6-0.3,0.9-0.6c0.4-0.3,0.8-0.6,1.2-0.8c1-0.4,2.1-0.3,3,0.2c0.2,0.1,0.4,0.3,0.5,0.4
			c0.2,0.2,0.4,0.3,0.6,0.4c0.5,0.1,0.7,0.6,0.6,1.1c-0.1,0.5-0.6,0.7-1.1,0.6c0,0,0,0,0,0c-0.4-0.2-0.8-0.4-1.2-0.7
			c-0.1-0.1-0.2-0.2-0.4-0.3c-0.4-0.3-0.9-0.3-1.4-0.1c-0.3,0.2-0.6,0.3-0.8,0.6c-0.4,0.4-0.9,0.7-1.4,0.9l-0.2,0.1
			c-0.2,1.4-1,2.7-2.2,3.6c-0.1,0.1-0.3,0.1-0.5,0.1c-0.3,0-0.6-0.2-0.8-0.4c-0.3-0.4-0.1-1,0.3-1.2c0.6-0.6,1.1-1.3,1.4-2.1
			c-0.7-0.2-1.3-0.5-1.8-0.9c-0.4-0.3-0.7-0.6-1-0.9c-0.4-0.4-0.9-0.8-1.4-1.1c-0.4-0.2-0.6-0.8-0.3-1.2c0.2-0.4,0.8-0.6,1.2-0.3
			c0,0,0,0,0,0c0.6,0.4,1.2,0.8,1.7,1.3c0.3,0.3,0.6,0.5,0.9,0.8C471.9,195.3,472.7,195.5,473.5,195.4z"/>
		<path class="st0" d="M472.1,173c0.7-0.6,1.3-1.3,1.9-2c0.9-1.1,1.6-2.5,2-3.9c0.1-0.3,0.2-0.6,0.2-1V166h-0.3
			c-1.3,0-2.6-0.5-3.6-1.4c-0.3-0.3-0.3-0.9,0-1.2c0,0,0,0,0,0c0.3-0.3,0.9-0.3,1.2,0c0.9,0.8,2.1,1.1,3.2,0.8
			c0.1-0.3,0.3-0.7,0.5-1c1.3-2.1,3.8-2.8,6.2-3.3l6.6-1.5c1.2-0.3,2.4-0.6,3.5-1c0.6-1.9,1-3.9,1.1-5.9c0-0.5,0.4-0.9,0.9-0.8
			c0.5,0,0.9,0.4,0.8,0.9l0,0c-0.1,1.7-0.4,3.5-0.8,5.2c0.1,0,0.3-0.1,0.4-0.1c0.3,0,0.7,0,1,0c0.2,0,0.5,0,0.7,0
			c0.3,0,0.6-0.1,0.8-0.3c0.3-0.4,0.8-0.5,1.2-0.2c0.4,0.3,0.5,0.8,0.2,1.2l0,0c-0.5,0.7-1.3,1.1-2.1,1.1c-0.3,0-0.6,0-0.9,0
			c-0.2,0-0.5,0-0.7,0c-0.5,0.1-1,0.2-1.5,0.4l-0.4,0.2c-1.2,0.4-2.5,0.7-3.8,1l-4.7,1.1c0.9,1.5,1.7,3.2,2.2,4.9
			c0.7,2.1,0.5,4.4-0.5,6.3c-0.4,0.7-0.9,1.4-1.5,2c-0.3,0.4-0.6,0.7-0.9,1.1s-0.4,0.6-0.7,1c-0.4,0.7-0.9,1.4-1.5,1.9
			c-1.1,1-2.5,1.7-3.9,2.2c-1.1,0.3-2.2,0.9-3.1,1.6c-0.9,0.7-1.4,1.7-1.6,2.9c-0.1,0.4-0.4,0.8-0.9,0.8h-0.1
			c-0.5-0.1-0.8-0.5-0.7-1c0.2-1.6,1-3,2.2-4c1.1-0.8,2.3-1.5,3.6-1.9c1.2-0.4,2.3-1,3.3-1.8c0.5-0.5,0.9-1,1.2-1.6
			c0.1-0.1,0.1-0.2,0.2-0.3c-0.6-0.7-1.2-1.5-1.7-2.3c-0.3-0.4-0.2-1,0.2-1.2c0.4-0.3,1-0.2,1.2,0.2c0.4,0.6,0.9,1.2,1.4,1.8
			l0.4-0.5c0.5-0.5,0.9-1.1,1.3-1.7c0.8-1.6,0.9-3.3,0.4-5c-0.6-1.7-1.3-3.4-2.3-4.9h0c-2.1,0.5-4.1,1-5.1,2.6
			c-0.4,0.8-0.7,1.6-0.9,2.5c-0.1,0.3-0.2,0.7-0.3,1c-0.5,1.6-1.2,3.1-2.3,4.5c-0.6,0.8-1.3,1.5-2,2.2c-1.3,1.1-2.4,2.6-3.1,4.2
			c-0.1,0.4-0.5,0.6-0.8,0.6c-0.1,0-0.2,0-0.3,0c-0.5-0.1-0.7-0.6-0.6-1.1c0,0,0,0,0,0C469.4,176,470.6,174.3,472.1,173z"/>
		<path class="st0" d="M475.4,202.6c2,0.6,4.2,0,5.6-1.5c0.4-0.5,0.8-1,1.1-1.5c0.2-0.3,0.4-0.7,0.7-1c0.7-1.1,1.8-1.9,3-2.2h0.1
			c0.4-1,0.6-2.2,0.6-3.3c0-0.5,0.4-0.9,0.9-0.9c0.5,0,0.9,0.4,0.9,0.9c0,1.1-0.1,2.2-0.5,3.2c0.5,0,1,0,1.5-0.1
			c0.6-0.3,1.1-0.7,1.5-1.3c1.9-2.1,3.5-4.1,3.7-6.4c0-0.5,0.5-0.8,1-0.8c0.5,0,0.8,0.5,0.8,1l0,0c-0.3,3.1-2.5,5.6-4.2,7.4
			c-1,1.5-2.7,2.2-4.5,2c-0.5,0-0.9,0-1.4,0.1c-0.8,0.3-1.5,0.8-2,1.6c-0.2,0.3-0.4,0.6-0.6,0.9c-0.4,0.6-0.8,1.2-1.3,1.7
			c-1.4,1.5-3.3,2.3-5.4,2.3c-0.7,0-1.4-0.1-2-0.3c-0.5-0.2-0.7-0.7-0.5-1.1C474.6,202.8,475,202.6,475.4,202.6L475.4,202.6z"/>
		<path class="st0" d="M490.5,98.7c2.8,0.7,5,3.1,5.3,6v0.3c0,0.2,0,0.5,0.1,0.7c0,0.1,0.1,0.2,0.2,0.3c0.5,0.1,0.7,0.6,0.6,1.1
			c-0.1,0.4-0.4,0.6-0.8,0.6c-0.1,0-0.2,0-0.2,0c-0.7-0.2-1.2-0.8-1.4-1.4c-0.1-0.4-0.1-0.7-0.2-1.1c0-0.1,0-0.2,0-0.3
			c-0.3-2.1-1.8-3.9-3.9-4.4c-0.5-0.1-0.8-0.5-0.7-1c0.1-0.5,0.5-0.8,1-0.7C490.4,98.7,490.4,98.7,490.5,98.7L490.5,98.7z"/>
		<path class="st0" d="M478.2,91.6c1.4-0.1,2.7,0.4,3.6,1.5c0.6,0.8,1,1.7,1.2,2.7c0.1,0.3,0.2,0.6,0.3,0.8s0.7,1.7,1.6,1.9
			c0.5,0.1,0.8,0.5,0.7,1c-0.1,0.4-0.4,0.7-0.9,0.7h-0.1c-1.5-0.4-2.6-1.5-3-3c-0.1-0.3-0.2-0.6-0.3-0.9c-0.2-0.7-0.5-1.4-0.9-2.1
			c-0.5-0.6-1.3-0.9-2.1-0.9c-0.5,0.1-0.9-0.3-1-0.8c0,0,0,0,0,0C477.3,92.1,477.6,91.7,478.2,91.6
			C478.1,91.6,478.1,91.6,478.2,91.6z"/>
		<path class="st0" d="M463.1,171.4c0.1,0.2,0.2,0.3,0.3,0.5c-1.2,2.9-0.8,6.1-0.1,9.4c0.2,1.5,0.6,2.9,1.3,4.2c0,0.2,0,0.3,0,0.5
			c-0.9,1.3-1.4,2.8-1.6,4.3c-0.1,0.9-0.2,1.9-0.1,2.8c-0.1,1.4,0.1,2.8,0.5,4.1c0,0.1,0.1,0.2,0.1,0.4c-1.1,3.3,1.1,6.5,2.6,8.2
			c1.3,1.7,3.1,3,5,3.8c1.2,0.5,2.6,0.7,3.9,0.7c2.7-0.1,5.3-0.7,7.8-1.6c2.6-0.8,5-1.9,7.3-3.3c1.8-1.2,3.4-2.7,4.7-4.5
			c4.8-1,8.1-5.3,8-10.1c1.3,0.1,2.7-0.3,3.7-1.2c1.2-1.1,2.1-2.5,2.7-4c1.8-4.2,2.4-8.9,1.9-13.4c0.5-0.8,0.9-1.6,1.2-2.5
			c1.6-4.1,2.1-8.6,1.3-13c0-0.1-0.1-0.2-0.1-0.3c4-5.2,5-12.9,2.2-18.1c0.4-1.1,0.6-2.3,0.5-3.5c0-2.9-0.8-4.9-2.3-6.2
			c-0.5-0.4-1-0.6-1.5-0.8c1-6.2-1-11.5-5.5-14.5c-1.1-0.7-2.3-1.3-3.5-1.7c1.2-3.8,0.4-7.9-2-11.1c-3.2-4.6-8.9-4.8-11.1-4.9h-0.5
			c-0.3-0.3-0.5-0.6-0.7-1c-1.3-2.1-3.8-6.1-11.3-6.9c-2.9-0.3-5.8-0.5-8.4,0.9c-8.4,4.5-9.4,15.7-5.6,24c-0.9,1.4-1.5,3.1-1.8,4.8
			c-0.2,2.1-0.1,4.2,0.3,6.3c0.2,1.1,0.3,2.2,0.4,3.4c0,0.7,0,1.4,0,2.1c-0.1,2,0.1,4,0.8,5.9c0.4,1.2,1.3,2.1,2.4,2.5
			c-0.4,1-0.8,1.9-1.3,2.9s-0.9,1.9-1.3,2.8c-1.8,4.4-2.3,9.2-1.5,13.9c0.1,0.9,0.4,1.8,1,2.5c0.1,0.1,0.3,0.3,0.4,0.4
			c-0.9,0.9-1.5,2-1.7,3.3c-0.2,1.4-0.2,2.8,0.1,4.2C461.9,168.7,462.4,170.1,463.1,171.4z M510.6,127.4c-1.2,0-2.3,0.2-3.4,0.6
			c-2.5,1.1-4.5,3-5.7,5.4c-0.5,1.2-1,2.4-1.3,3.6c-0.2,0.7-0.4,1.4-0.7,2.1c-0.5,1.4-1.5,3.3-3.2,4c-0.9,0.3-1.9,0.4-2.9,0.4h-0.4
			c-2.6-0.1-5.1,0.6-7.3,1.9c-1.3,0.9-2.5,2.1-3.4,3.3l-0.4,0.4c-5,5.9-10,9-15.1,9.6c-1.3,0.2-2.2,0-2.7-0.6
			c-0.3-0.5-0.5-1-0.6-1.6c-0.7-4.4-0.2-8.9,1.4-13c0.4-0.9,0.8-1.8,1.2-2.7c0.6-1.2,1.1-2.4,1.6-3.7c1.2-0.6,2.2-1.6,2.8-2.9
			c0.2-0.4,0.1-1-0.4-1.2c-0.4-0.2-1-0.1-1.2,0.4c-0.8,1.5-1.6,2.2-2.3,2.1s-1.3-0.9-1.6-1.6c-0.5-1.7-0.8-3.4-0.6-5.2
			c0-0.7,0-1.4,0-2.1c-0.1-1.2-0.2-2.4-0.4-3.5c-0.4-1.9-0.5-3.8-0.3-5.8c0.2-1.5,0.7-2.9,1.6-4.2c0.2-0.1,0.3-0.3,0.3-0.5
			c0.3-0.4,0.7-0.8,1.1-1.2c0.3-0.3,0.3-0.9,0-1.2c0,0,0,0,0,0c-0.3-0.3-0.9-0.3-1.2,0c-0.2,0.2-0.4,0.3-0.5,0.5
			c-3.1-7.5-2.1-17,5.2-20.9c2.1-1.1,4.7-1,7.4-0.7c6.6,0.7,8.7,4.1,10,6.1c0.6,0.9,1,1.6,1.7,1.8c0.3,0.1,0.6,0.1,0.9,0.1
			c1.9,0.1,7,0.3,9.7,4.2c2.1,2.7,2.7,6.4,1.6,9.6c-2.4-0.5-4.8-0.2-7,0.7c-0.1-1.4-0.6-2.8-1.6-3.9c-1.4-1.4-3.1-2.5-4.9-3.2
			l-2.7-1.3c-0.6-0.3-1.3-0.6-2-0.7c-1-0.1-2,0.2-2.8,0.8c-0.4,0.3-0.7,0.6-0.9,1c0,0-0.1,0-0.1,0c-0.9,0.2-1.8-0.2-2.3-1
			c-0.5-0.9-0.6-2-0.2-3c0.2-0.4,0-1-0.5-1.2c-0.4-0.2-1,0-1.2,0.5c0,0,0,0.1,0,0.1c-0.6,1.5-0.4,3.1,0.3,4.5c0.7,1.2,2,1.9,3.3,1.9
			h0.1c0.1,1.1,0.4,2.2,1,3.2c0.3,0.5,0.5,1,0.7,1.6c0.5,1.6,0,3.4-1.2,4.5c-0.2,0.1-0.3,0.4-0.3,0.6c-0.1,0.1-0.2,0.2-0.3,0.4
			c-0.2,0.5,0.1,1,0.5,1.1c2.3,1.1,3.7,3.5,3.4,6c-0.3,1.5-1.1,2.8-2.3,3.6c-0.3,0.2-0.6,0.3-1,0.3c-0.5-0.1-1,0.1-1.1,0.6
			c-0.1,0.4,0,0.7,0.3,0.9c1.1,0.9,1.8,2.2,1.9,3.6c0.1,1.1,0,3-1.1,4l-0.3,0.2c-0.2,0.1-0.4,0.2-0.5,0.3c-1.5,0.9-3.3,1-4.8,0.1
			c-0.4-0.2-1-0.1-1.2,0.3c-0.2,0.4-0.1,0.8,0.2,1.1c1,0.6,2.1,0.9,3.3,0.9c0.5,0,0.9,0,1.4-0.1c-0.3,1.1-0.4,2.3-0.3,3.5
			c0,0.5,0.4,0.9,0.9,0.9l0,0c0.5,0,0.9-0.4,0.9-0.9c0,0,0,0,0,0c-0.1-1.2,0-2.4,0.5-3.5c0.1-0.2,0.2-0.3,0.3-0.5s0.2-0.4,0.3-0.5
			s0.4-0.3,0.6-0.4c1.6-1.4,1.8-3.7,1.7-5.4c-0.1-1.3-0.6-2.6-1.4-3.7c0.1-0.1,0.2-0.1,0.4-0.2c1.6-1.1,2.8-2.8,3.1-4.8
			c0.4-3-1-5.9-3.5-7.4c1.4-1.6,1.9-3.9,1.3-6c-0.2-0.6-0.5-1.2-0.8-1.8c-0.5-0.8-0.8-1.7-0.8-2.6c0.1-0.5,0.4-1,0.8-1.3
			c0.4-0.3,0.9-0.5,1.5-0.5c0.5,0.1,1,0.3,1.5,0.5l2.7,1.3c1.6,0.6,3.1,1.6,4.3,2.8c0.9,1,1.6,2.8,0.9,4.1c0,0.1-0.1,0.1-0.1,0.2
			c-0.3,0.5-0.4,1-0.5,1.5c-0.3,1.7,0,3.5,1,4.9c0.3,0.4,0.8,0.5,1.2,0.2c0,0,0,0,0,0c0.4-0.3,0.5-0.8,0.2-1.2c0,0,0,0,0,0
			c-0.7-1-1-2.3-0.8-3.6c0.1-0.5,0.3-1,0.6-1.3c3.1-2,8-1.7,11.6,0.7C508.2,116.1,511.8,119.8,510.6,127.4z M463.3,163.4
			c0.1-1.1,0.7-2,1.6-2.7c0.1-0.1,0.2-0.1,0.2-0.2c0.3,0,0.6,0.1,0.9,0.1c0.4,0,0.7,0,1.1-0.1c5.6-0.7,10.9-4,16.2-10.2l0.4-0.4
			c0.9-1.1,1.9-2.2,3.1-3c2-1.1,4.2-1.6,6.4-1.6h0.4c1.2,0,2.4-0.1,3.5-0.6c1.8-0.7,3.2-2.5,4.2-5c0.3-0.8,0.5-1.5,0.7-2.3
			c0.3-1.1,0.7-2.3,1.1-3.3c1-2,2.7-3.7,4.8-4.5c1.5-0.6,3.5-0.9,4.9,0.2c1.1,0.9,1.6,2.5,1.6,4.8c0.1,1.2-0.2,2.3-0.6,3.4
			c-0.4,0.9-1.3,1.5-2.3,1.5c-0.5,0-0.9,0.3-0.9,0.8c0,0.5,0.3,0.9,0.8,0.9c1.2,0,2.3-0.5,3.1-1.3c2,5.1,0.4,12.4-3.8,16.7l-0.3,0.3
			c-1.1,1.1-2.4,2.4-2.4,4.2c0,0.5,0.4,0.8,0.9,0.9l0,0c0.5,0,0.9-0.4,0.9-0.9c0-1.1,0.9-2,1.8-2.9l0.3-0.3c0.4,3.7,0,7.5-1.4,11
			c-1,2.5-2.3,4.1-3.8,4.8c-0.4,0.2-0.6,0.7-0.4,1.2c0.1,0.3,0.4,0.5,0.8,0.5c0.1,0,0.2,0,0.4-0.1c0.7-0.3,1.4-0.8,2-1.3
			c0.2,3.7-0.5,7.4-1.9,10.8c-0.5,1.3-1.2,2.4-2.2,3.3c-0.9,0.8-2.1,1-3.2,0.6c-0.3-0.1-0.6-0.1-0.9,0.1c-0.3,0.2-0.4,0.5-0.4,0.8
			c0.3,2.2-0.2,4.4-1.5,6.2c-0.8,1.1-1.9,2-3.2,2.6c0.4-0.7,0.7-1.4,0.9-2.1c0.2-0.5-0.1-1-0.5-1.1c-0.4-0.2-0.9,0.1-1.1,0.5
			c0,0,0,0,0,0c-0.5,1.3-1.1,2.4-1.8,3.6c-0.2,0.1-0.3,0.3-0.4,0.5c-1.2,1.6-2.6,2.9-4.2,4c-2.2,1.3-4.5,2.3-6.9,3.1
			c-3.3,1.1-7.2,2.3-10.5,1c-1.7-0.7-3.2-1.9-4.4-3.3c-1.3-1.3-2.1-3-2.4-4.7c0.4,0.3,0.8,0.6,1.2,0.8c0.2,0.1,0.4,0.2,0.7,0.2
			c0.4,0,0.7-0.2,0.9-0.5c0.3-0.4,0.2-0.9-0.1-1.2c-0.2-0.2-0.6-0.2-0.9-0.1c-0.9-0.5-1.5-1.4-1.8-2.4c-0.3-1.2-0.4-2.4-0.4-3.6
			c0-0.9,0-1.7,0.1-2.6c0.2-1.2,0.6-2.4,1.3-3.4c0.8,0.6,1.8,1,2.8,1c0.4,0,0.8-0.1,1.2-0.2c0.5-0.2,0.7-0.7,0.5-1.1
			c-0.2-0.4-0.7-0.7-1.1-0.5c-1.2,0.2-2.4-0.3-3-1.3c-0.7-1.2-1.2-2.6-1.3-4c-0.5-2.7-0.9-5.4-0.2-7.7c0.6,0.4,1.2,0.7,1.9,0.9
			c0.1,0,0.1,0,0.2,0c0.5,0,0.9-0.4,0.9-0.9c0-0.4-0.3-0.7-0.7-0.8c-1.1-0.3-2-1-2.5-2C463.5,168.2,463.1,165.8,463.3,163.4
			L463.3,163.4z"/>
	</g>
</g>
<g class="st6">
	<path class="st7" d="M126.7,152H124v-5.5h-5.1v5.5h-2.6v-12.8h2.6v5.2h5.1v-5.2h2.6V152z"/>
	<path class="st7" d="M133.2,152.1c-1.4,0-2.5-0.4-3.4-1.3s-1.3-2-1.3-3.4v-0.2c0-1,0.2-1.8,0.6-2.6s0.9-1.3,1.6-1.7
		s1.4-0.6,2.3-0.6c1.3,0,2.3,0.4,3.1,1.2s1.1,2,1.1,3.5v1H131c0.1,0.6,0.3,1.1,0.7,1.5s0.9,0.6,1.6,0.6c1,0,1.7-0.4,2.3-1.1l1.2,1.4
		c-0.4,0.5-0.9,1-1.5,1.3C134.7,152,134,152.1,133.2,152.1z M132.9,144.3c-0.5,0-0.9,0.2-1.2,0.5c-0.3,0.3-0.5,0.8-0.6,1.5h3.5v-0.2
		c0-0.6-0.2-1-0.5-1.3C133.9,144.5,133.4,144.3,132.9,144.3z"/>
	<path class="st7" d="M140.9,142.4l0.1,1.1c0.7-0.8,1.6-1.2,2.7-1.2c1.2,0,2.1,0.5,2.5,1.5c0.7-1,1.6-1.5,2.9-1.5
		c1,0,1.8,0.3,2.3,0.9c0.5,0.6,0.8,1.5,0.8,2.7v6.1h-2.5v-6.1c0-0.5-0.1-0.9-0.3-1.2c-0.2-0.2-0.6-0.4-1.1-0.4
		c-0.8,0-1.3,0.4-1.6,1.1l0,6.5h-2.5v-6.1c0-0.6-0.1-1-0.3-1.2c-0.2-0.2-0.6-0.4-1.1-0.4c-0.7,0-1.2,0.3-1.6,0.9v6.7h-2.5v-9.5
		H140.9z"/>
	<path class="st7" d="M154.1,140c0-0.4,0.1-0.7,0.4-0.9s0.6-0.4,1-0.4c0.4,0,0.8,0.1,1,0.4s0.4,0.6,0.4,0.9c0,0.4-0.1,0.7-0.4,0.9
		s-0.6,0.4-1,0.4s-0.8-0.1-1-0.4S154.1,140.4,154.1,140z M156.8,152h-2.5v-9.5h2.5V152z"/>
	<path class="st7" d="M164,149.3c0-0.3-0.2-0.6-0.5-0.7s-0.8-0.3-1.5-0.5c-2.3-0.5-3.4-1.4-3.4-2.9c0-0.8,0.4-1.5,1.1-2.1
		c0.7-0.6,1.6-0.8,2.7-0.8c1.2,0,2.2,0.3,2.9,0.9s1.1,1.3,1.1,2.2H164c0-0.4-0.1-0.7-0.4-0.9c-0.2-0.2-0.6-0.4-1.1-0.4
		c-0.4,0-0.8,0.1-1,0.3s-0.4,0.4-0.4,0.7c0,0.3,0.1,0.5,0.4,0.7c0.3,0.2,0.7,0.3,1.3,0.4s1.2,0.3,1.6,0.4c1.3,0.5,2,1.3,2,2.6
		c0,0.9-0.4,1.6-1.1,2.1c-0.7,0.5-1.7,0.8-2.9,0.8c-0.8,0-1.5-0.1-2.1-0.4c-0.6-0.3-1.1-0.7-1.5-1.2c-0.4-0.5-0.5-1-0.5-1.6h2.4
		c0,0.5,0.2,0.8,0.5,1s0.7,0.4,1.2,0.4c0.5,0,0.9-0.1,1.1-0.3C163.9,149.9,164,149.6,164,149.3z"/>
</g>
<g class="st6">
	<path class="st7" d="M168.9,152v-7.6h-1.4v-1.9h1.4v-0.8c0-1.1,0.3-1.9,0.9-2.5c0.6-0.6,1.5-0.9,2.6-0.9c0.4,0,0.8,0.1,1.3,0.2l0,2
		c-0.2-0.1-0.5-0.1-0.8-0.1c-1,0-1.4,0.5-1.4,1.4v0.8h1.9v1.9h-1.9v7.6H168.9z"/>
</g>
<g class="st6">
	<path class="st7" d="M178.8,152.1c-1.4,0-2.5-0.4-3.4-1.3s-1.3-2-1.3-3.4v-0.2c0-1,0.2-1.8,0.6-2.6s0.9-1.3,1.6-1.7
		s1.4-0.6,2.3-0.6c1.3,0,2.3,0.4,3.1,1.2s1.1,2,1.1,3.5v1h-6.1c0.1,0.6,0.3,1.1,0.7,1.5s0.9,0.6,1.6,0.6c1,0,1.7-0.4,2.3-1.1
		l1.2,1.4c-0.4,0.5-0.9,1-1.5,1.3C180.3,152,179.6,152.1,178.8,152.1z M178.5,144.3c-0.5,0-0.9,0.2-1.2,0.5
		c-0.3,0.3-0.5,0.8-0.6,1.5h3.5v-0.2c0-0.6-0.2-1-0.5-1.3C179.4,144.5,179,144.3,178.5,144.3z"/>
	<path class="st7" d="M189.5,144.8c-0.3,0-0.7-0.1-0.9-0.1c-1,0-1.6,0.3-1.9,1v6.2h-2.5v-9.5h2.4l0.1,1.1c0.5-0.9,1.2-1.3,2.1-1.3
		c0.3,0,0.5,0,0.8,0.1L189.5,144.8z"/>
	<path class="st7" d="M190.7,140c0-0.4,0.1-0.7,0.4-0.9s0.6-0.4,1-0.4c0.4,0,0.8,0.1,1,0.4s0.4,0.6,0.4,0.9c0,0.4-0.1,0.7-0.4,0.9
		s-0.6,0.4-1,0.4s-0.8-0.1-1-0.4S190.7,140.4,190.7,140z M193.4,152h-2.5v-9.5h2.5V152z"/>
	<path class="st7" d="M195.1,147.1c0-0.9,0.2-1.8,0.5-2.5s0.9-1.3,1.6-1.7s1.5-0.6,2.4-0.6c1.3,0,2.3,0.4,3.1,1.2s1.3,1.9,1.4,3.2
		l0,0.7c0,1.5-0.4,2.6-1.2,3.5s-1.9,1.3-3.3,1.3s-2.5-0.4-3.3-1.3s-1.2-2.1-1.2-3.6V147.1z M197.6,147.3c0,0.9,0.2,1.6,0.5,2.1
		c0.3,0.5,0.8,0.7,1.5,0.7c0.6,0,1.1-0.2,1.4-0.7c0.3-0.5,0.5-1.2,0.5-2.3c0-0.9-0.2-1.6-0.5-2.1s-0.8-0.7-1.5-0.7
		c-0.6,0-1.1,0.2-1.4,0.7C197.8,145.5,197.6,146.3,197.6,147.3z"/>
	<path class="st7" d="M213.1,152h-2.6v-12.8h2.6V152z"/>
</g>
<g class="st6">
	<path class="st7" d="M218.3,149.9h4.6v2H215v-1.5l4.5-5.9h-4.3v-2h7.6v1.5L218.3,149.9z"/>
</g>
<g class="st6">
	<path class="st7" d="M224,147.1c0-1.5,0.3-2.7,1-3.5s1.6-1.3,2.7-1.3c1,0,1.8,0.4,2.4,1.2l0.2-1h2.2v13.2H230v-4.5
		c-0.6,0.7-1.4,1-2.3,1c-1.1,0-2-0.4-2.7-1.3S224,148.7,224,147.1z M226.5,147.3c0,0.9,0.2,1.6,0.5,2.1s0.8,0.7,1.3,0.7
		c0.8,0,1.3-0.3,1.7-0.9v-3.9c-0.3-0.6-0.9-0.9-1.6-0.9c-0.6,0-1,0.2-1.4,0.7S226.5,146.3,226.5,147.3z"/>
	<path class="st7" d="M240.2,151c-0.6,0.8-1.5,1.1-2.6,1.1c-1,0-1.8-0.3-2.3-0.9s-0.8-1.4-0.8-2.6v-6.2h2.5v6.2c0,1,0.5,1.5,1.4,1.5
		c0.9,0,1.5-0.3,1.8-0.9v-6.7h2.5v9.5h-2.4L240.2,151z"/>
	<path class="st7" d="M244.6,140c0-0.4,0.1-0.7,0.4-0.9s0.6-0.4,1-0.4c0.4,0,0.8,0.1,1,0.4s0.4,0.6,0.4,0.9c0,0.4-0.1,0.7-0.4,0.9
		s-0.6,0.4-1,0.4s-0.8-0.1-1-0.4S244.6,140.4,244.6,140z M247.3,152h-2.5v-9.5h2.5V152z"/>
	<path class="st7" d="M253.8,152.1c-1.4,0-2.5-0.4-3.4-1.3s-1.3-2-1.3-3.4v-0.2c0-1,0.2-1.8,0.6-2.6s0.9-1.3,1.6-1.7
		s1.4-0.6,2.3-0.6c1.3,0,2.3,0.4,3.1,1.2s1.1,2,1.1,3.5v1h-6.1c0.1,0.6,0.3,1.1,0.7,1.5s0.9,0.6,1.6,0.6c1,0,1.7-0.4,2.3-1.1
		l1.2,1.4c-0.4,0.5-0.9,1-1.5,1.3C255.3,152,254.6,152.1,253.8,152.1z M253.5,144.3c-0.5,0-0.9,0.2-1.2,0.5
		c-0.3,0.3-0.5,0.8-0.6,1.5h3.5v-0.2c0-0.6-0.2-1-0.5-1.3C254.4,144.5,254,144.3,253.5,144.3z"/>
</g>
<g class="st6">
	<path class="st7" d="M264.5,144.8c-0.3,0-0.7-0.1-0.9-0.1c-1,0-1.6,0.3-1.9,1v6.2h-2.5v-9.5h2.4l0.1,1.1c0.5-0.9,1.2-1.3,2.1-1.3
		c0.3,0,0.5,0,0.8,0.1L264.5,144.8z"/>
</g>
<g class="st6">
	<path class="st7" d="M265.1,147.1c0-1.5,0.3-2.7,1-3.5s1.6-1.3,2.7-1.3c0.9,0,1.7,0.3,2.3,1v-4.9h2.5V152h-2.3l-0.1-1
		c-0.6,0.8-1.4,1.2-2.4,1.2c-1.1,0-2-0.4-2.7-1.3S265.1,148.7,265.1,147.1z M267.7,147.3c0,0.9,0.2,1.6,0.5,2.1
		c0.3,0.5,0.8,0.7,1.4,0.7c0.8,0,1.3-0.3,1.7-1v-3.8c-0.3-0.7-0.9-1-1.6-1C268.3,144.3,267.7,145.3,267.7,147.3z"/>
	<path class="st7" d="M275.3,147.1c0-0.9,0.2-1.8,0.5-2.5s0.9-1.3,1.6-1.7s1.5-0.6,2.4-0.6c1.3,0,2.3,0.4,3.1,1.2s1.3,1.9,1.4,3.2
		l0,0.7c0,1.5-0.4,2.6-1.2,3.5s-1.9,1.3-3.3,1.3s-2.5-0.4-3.3-1.3s-1.2-2.1-1.2-3.6V147.1z M277.8,147.3c0,0.9,0.2,1.6,0.5,2.1
		c0.3,0.5,0.8,0.7,1.5,0.7c0.6,0,1.1-0.2,1.4-0.7c0.3-0.5,0.5-1.2,0.5-2.3c0-0.9-0.2-1.6-0.5-2.1s-0.8-0.7-1.5-0.7
		c-0.6,0-1.1,0.2-1.4,0.7C278,145.5,277.8,146.3,277.8,147.3z"/>
</g>
<g class="st6">
	<path class="st7" d="M633.4,152h-2.6v-5.5h-5.1v5.5H623v-12.8h2.6v5.2h5.1v-5.2h2.6V152z"/>
	<path class="st7" d="M639.9,152.1c-1.4,0-2.5-0.4-3.4-1.3s-1.3-2-1.3-3.4v-0.2c0-1,0.2-1.8,0.6-2.6s0.9-1.3,1.6-1.7
		s1.4-0.6,2.3-0.6c1.3,0,2.3,0.4,3.1,1.2s1.1,2,1.1,3.5v1h-6.1c0.1,0.6,0.3,1.1,0.7,1.5s0.9,0.6,1.6,0.6c1,0,1.7-0.4,2.3-1.1
		l1.2,1.4c-0.4,0.5-0.9,1-1.5,1.3C641.4,152,640.7,152.1,639.9,152.1z M639.6,144.3c-0.5,0-0.9,0.2-1.2,0.5
		c-0.3,0.3-0.5,0.8-0.6,1.5h3.5v-0.2c0-0.6-0.2-1-0.5-1.3C640.6,144.5,640.2,144.3,639.6,144.3z"/>
	<path class="st7" d="M647.7,142.4l0.1,1.1c0.7-0.8,1.6-1.2,2.7-1.2c1.2,0,2.1,0.5,2.5,1.5c0.7-1,1.6-1.5,2.9-1.5
		c1,0,1.8,0.3,2.3,0.9c0.5,0.6,0.8,1.5,0.8,2.7v6.1h-2.5v-6.1c0-0.5-0.1-0.9-0.3-1.2c-0.2-0.2-0.6-0.4-1.1-0.4
		c-0.8,0-1.3,0.4-1.6,1.1l0,6.5h-2.5v-6.1c0-0.6-0.1-1-0.3-1.2c-0.2-0.2-0.6-0.4-1.1-0.4c-0.7,0-1.2,0.3-1.6,0.9v6.7h-2.5v-9.5
		H647.7z"/>
	<path class="st7" d="M660.8,140c0-0.4,0.1-0.7,0.4-0.9s0.6-0.4,1-0.4c0.4,0,0.8,0.1,1,0.4s0.4,0.6,0.4,0.9c0,0.4-0.1,0.7-0.4,0.9
		s-0.6,0.4-1,0.4s-0.8-0.1-1-0.4S660.8,140.4,660.8,140z M663.5,152H661v-9.5h2.5V152z"/>
	<path class="st7" d="M670.8,149.3c0-0.3-0.2-0.6-0.5-0.7s-0.8-0.3-1.5-0.5c-2.3-0.5-3.4-1.4-3.4-2.9c0-0.8,0.4-1.5,1.1-2.1
		c0.7-0.6,1.6-0.8,2.7-0.8c1.2,0,2.2,0.3,2.9,0.9s1.1,1.3,1.1,2.2h-2.5c0-0.4-0.1-0.7-0.4-0.9c-0.2-0.2-0.6-0.4-1.1-0.4
		c-0.4,0-0.8,0.1-1,0.3s-0.4,0.4-0.4,0.7c0,0.3,0.1,0.5,0.4,0.7c0.3,0.2,0.7,0.3,1.3,0.4s1.2,0.3,1.6,0.4c1.3,0.5,2,1.3,2,2.6
		c0,0.9-0.4,1.6-1.1,2.1c-0.7,0.5-1.7,0.8-2.9,0.8c-0.8,0-1.5-0.1-2.1-0.4c-0.6-0.3-1.1-0.7-1.5-1.2c-0.4-0.5-0.5-1-0.5-1.6h2.4
		c0,0.5,0.2,0.8,0.5,1s0.7,0.4,1.2,0.4c0.5,0,0.9-0.1,1.1-0.3C670.7,149.9,670.8,149.6,670.8,149.3z"/>
</g>
<g class="st6">
	<path class="st7" d="M675.6,152v-7.6h-1.4v-1.9h1.4v-0.8c0-1.1,0.3-1.9,0.9-2.5c0.6-0.6,1.5-0.9,2.6-0.9c0.4,0,0.8,0.1,1.3,0.2l0,2
		c-0.2-0.1-0.5-0.1-0.8-0.1c-1,0-1.4,0.5-1.4,1.4v0.8h1.9v1.9h-1.9v7.6H675.6z"/>
</g>
<g class="st6">
	<path class="st7" d="M685.5,152.1c-1.4,0-2.5-0.4-3.4-1.3s-1.3-2-1.3-3.4v-0.2c0-1,0.2-1.8,0.6-2.6s0.9-1.3,1.6-1.7
		s1.4-0.6,2.3-0.6c1.3,0,2.3,0.4,3.1,1.2s1.1,2,1.1,3.5v1h-6.1c0.1,0.6,0.3,1.1,0.7,1.5s0.9,0.6,1.6,0.6c1,0,1.7-0.4,2.3-1.1
		l1.2,1.4c-0.4,0.5-0.9,1-1.5,1.3C687,152,686.3,152.1,685.5,152.1z M685.2,144.3c-0.5,0-0.9,0.2-1.2,0.5c-0.3,0.3-0.5,0.8-0.6,1.5
		h3.5v-0.2c0-0.6-0.2-1-0.5-1.3C686.2,144.5,685.8,144.3,685.2,144.3z"/>
	<path class="st7" d="M696.2,144.8c-0.3,0-0.7-0.1-0.9-0.1c-1,0-1.6,0.3-1.9,1v6.2h-2.5v-9.5h2.4l0.1,1.1c0.5-0.9,1.2-1.3,2.1-1.3
		c0.3,0,0.5,0,0.8,0.1L696.2,144.8z"/>
	<path class="st7" d="M697.4,140c0-0.4,0.1-0.7,0.4-0.9s0.6-0.4,1-0.4c0.4,0,0.8,0.1,1,0.4s0.4,0.6,0.4,0.9c0,0.4-0.1,0.7-0.4,0.9
		s-0.6,0.4-1,0.4s-0.8-0.1-1-0.4S697.4,140.4,697.4,140z M700.1,152h-2.5v-9.5h2.5V152z"/>
	<path class="st7" d="M701.8,147.1c0-0.9,0.2-1.8,0.5-2.5s0.9-1.3,1.6-1.7s1.5-0.6,2.4-0.6c1.3,0,2.3,0.4,3.1,1.2s1.3,1.9,1.4,3.2
		l0,0.7c0,1.5-0.4,2.6-1.2,3.5s-1.9,1.3-3.3,1.3s-2.5-0.4-3.3-1.3s-1.2-2.1-1.2-3.6V147.1z M704.3,147.3c0,0.9,0.2,1.6,0.5,2.1
		c0.3,0.5,0.8,0.7,1.5,0.7c0.6,0,1.1-0.2,1.4-0.7c0.3-0.5,0.5-1.2,0.5-2.3c0-0.9-0.2-1.6-0.5-2.1s-0.8-0.7-1.5-0.7
		c-0.6,0-1.1,0.2-1.4,0.7C704.5,145.5,704.3,146.3,704.3,147.3z"/>
	<path class="st7" d="M717,152v-12.8h3.9c1.1,0,2.1,0.3,3,0.8c0.9,0.5,1.6,1.2,2.1,2.2c0.5,0.9,0.7,2,0.7,3.2v0.6
		c0,1.2-0.2,2.2-0.7,3.2s-1.2,1.6-2.1,2.2s-1.9,0.8-3,0.8H717z M719.7,141.3v8.5h1.3c1,0,1.8-0.3,2.4-1s0.8-1.6,0.8-2.9v-0.7
		c0-1.3-0.3-2.3-0.8-3s-1.3-1-2.4-1H719.7z"/>
	<path class="st7" d="M732.9,152.1c-1.4,0-2.5-0.4-3.4-1.3s-1.3-2-1.3-3.4v-0.2c0-1,0.2-1.8,0.6-2.6s0.9-1.3,1.6-1.7
		s1.4-0.6,2.3-0.6c1.3,0,2.3,0.4,3.1,1.2s1.1,2,1.1,3.5v1h-6.1c0.1,0.6,0.3,1.1,0.7,1.5s0.9,0.6,1.6,0.6c1,0,1.7-0.4,2.3-1.1
		l1.2,1.4c-0.4,0.5-0.9,1-1.5,1.3C734.4,152,733.7,152.1,732.9,152.1z M732.6,144.3c-0.5,0-0.9,0.2-1.2,0.5
		c-0.3,0.3-0.5,0.8-0.6,1.5h3.5v-0.2c0-0.6-0.2-1-0.5-1.3C733.6,144.5,733.2,144.3,732.6,144.3z"/>
</g>
<g class="st6">
	<path class="st7" d="M743.6,144.8c-0.3,0-0.7-0.1-0.9-0.1c-1,0-1.6,0.3-1.9,1v6.2h-2.5v-9.5h2.4l0.1,1.1c0.5-0.9,1.2-1.3,2.1-1.3
		c0.3,0,0.5,0,0.8,0.1L743.6,144.8z"/>
</g>
<g class="st6">
	<path class="st7" d="M749.1,152.1c-1.4,0-2.5-0.4-3.4-1.3s-1.3-2-1.3-3.4v-0.2c0-1,0.2-1.8,0.6-2.6s0.9-1.3,1.6-1.7
		s1.4-0.6,2.3-0.6c1.3,0,2.3,0.4,3.1,1.2s1.1,2,1.1,3.5v1h-6.1c0.1,0.6,0.3,1.1,0.7,1.5s0.9,0.6,1.6,0.6c1,0,1.7-0.4,2.3-1.1
		l1.2,1.4c-0.4,0.5-0.9,1-1.5,1.3C750.6,152,749.8,152.1,749.1,152.1z M748.8,144.3c-0.5,0-0.9,0.2-1.2,0.5
		c-0.3,0.3-0.5,0.8-0.6,1.5h3.5v-0.2c0-0.6-0.2-1-0.5-1.3C749.7,144.5,749.3,144.3,748.8,144.3z"/>
	<path class="st7" d="M758.4,150.1c0.5,0,0.8-0.1,1.1-0.4s0.4-0.6,0.5-1h2.4c0,0.6-0.2,1.2-0.5,1.8c-0.3,0.5-0.8,1-1.4,1.2
		c-0.6,0.3-1.3,0.4-2,0.4c-1.4,0-2.4-0.4-3.2-1.3c-0.8-0.9-1.2-2.1-1.2-3.6v-0.2c0-1.5,0.4-2.6,1.2-3.5s1.8-1.3,3.2-1.3
		c1.2,0,2.1,0.3,2.9,1c0.7,0.7,1.1,1.6,1.1,2.7H760c0-0.5-0.2-0.9-0.5-1.2s-0.7-0.5-1.2-0.5c-0.6,0-1,0.2-1.3,0.6
		c-0.3,0.4-0.5,1.1-0.5,2.1v0.3c0,1,0.1,1.7,0.4,2.1S757.8,150.1,758.4,150.1z"/>
	<path class="st7" d="M766.3,143.5c0.7-0.8,1.5-1.2,2.5-1.2c2.1,0,3.1,1.2,3.1,3.6v6.1h-2.5v-6c0-0.5-0.1-1-0.4-1.2
		c-0.2-0.3-0.6-0.4-1.2-0.4c-0.7,0-1.3,0.3-1.6,0.9v6.8h-2.5v-13.5h2.5V143.5z"/>
	<path class="st7" d="M773.5,147.1c0-0.9,0.2-1.8,0.5-2.5s0.9-1.3,1.6-1.7s1.5-0.6,2.4-0.6c1.3,0,2.3,0.4,3.1,1.2s1.3,1.9,1.4,3.2
		l0,0.7c0,1.5-0.4,2.6-1.2,3.5s-1.9,1.3-3.3,1.3s-2.5-0.4-3.3-1.3s-1.2-2.1-1.2-3.6V147.1z M776,147.3c0,0.9,0.2,1.6,0.5,2.1
		c0.3,0.5,0.8,0.7,1.5,0.7c0.6,0,1.1-0.2,1.4-0.7c0.3-0.5,0.5-1.2,0.5-2.3c0-0.9-0.2-1.6-0.5-2.1s-0.8-0.7-1.5-0.7
		c-0.6,0-1.1,0.2-1.4,0.7C776.2,145.5,776,146.3,776,147.3z"/>
</g>
</svg>
