<svg xmlns="http://www.w3.org/2000/svg" width="906.716" height="531.033" viewBox="0 0 906.716 531.033">
  <g id="Grupo_90606" data-name="Grupo 90606" transform="translate(-1110.511 5024.936)">
    <path id="Trazado_153315" data-name="Trazado 153315" d="M15.742-5.865a6.8,6.8,0,0,1-2.165,4.526A7.094,7.094,0,0,1,8.734.254a6.514,6.514,0,0,1-5.25-2.349A9.449,9.449,0,0,1,1.511-8.379v-1.777a10.532,10.532,0,0,1,.92-4.532,6.875,6.875,0,0,1,2.609-3,7.264,7.264,0,0,1,3.91-1.047,6.679,6.679,0,0,1,4.723,1.644,6.882,6.882,0,0,1,2.069,4.551h-2.45a5.311,5.311,0,0,0-1.377-3.209,4.168,4.168,0,0,0-2.964-.993,4.361,4.361,0,0,0-3.663,1.728A7.933,7.933,0,0,0,3.961-10.1v1.792a8.154,8.154,0,0,0,1.257,4.79A4.061,4.061,0,0,0,8.734-1.739a4.691,4.691,0,0,0,3.117-.92,5.108,5.108,0,0,0,1.441-3.206ZM24.4.254a6,6,0,0,1-4.545-1.834A6.809,6.809,0,0,1,18.1-6.487v-.432a8.243,8.243,0,0,1,.781-3.65,6.091,6.091,0,0,1,2.184-2.514,5.49,5.49,0,0,1,3.041-.908,5.144,5.144,0,0,1,4.164,1.765,7.64,7.64,0,0,1,1.485,5.053V-6.2H20.452a4.883,4.883,0,0,0,1.187,3.282,3.731,3.731,0,0,0,2.888,1.25,4.091,4.091,0,0,0,2.107-.508,5.3,5.3,0,0,0,1.511-1.346L29.58-2.4A5.768,5.768,0,0,1,24.4.254Zm-.292-12.314a3.133,3.133,0,0,0-2.387,1.035,5.029,5.029,0,0,0-1.193,2.9h6.881V-8.3a4.473,4.473,0,0,0-.965-2.774A2.949,2.949,0,0,0,24.108-12.061Z" transform="translate(1109 -4872.699)" fill="#091320"/>
    <path id="Trazado_153316" data-name="Trazado 153316" d="M8.093-11.182a6.768,6.768,0,0,0-1.111-.085A2.976,2.976,0,0,0,3.967-9.375V0H1.709V-13.208h2.2l.037,1.526a3.516,3.516,0,0,1,3.149-1.77,2.307,2.307,0,0,1,1,.171Z" transform="translate(1141.635 -4873.699)" fill="#091320"/>
    <path id="Trazado_153317" data-name="Trazado 153317" d="M7.19.244A5.771,5.771,0,0,1,2.82-1.52,6.547,6.547,0,0,1,1.135-6.238v-.415a7.926,7.926,0,0,1,.751-3.51,5.856,5.856,0,0,1,2.1-2.417,5.279,5.279,0,0,1,2.924-.873,4.947,4.947,0,0,1,4,1.7A7.346,7.346,0,0,1,12.341-6.9v.94H3.394A4.7,4.7,0,0,0,4.535-2.8,3.588,3.588,0,0,0,7.312-1.6a3.933,3.933,0,0,0,2.026-.488,5.091,5.091,0,0,0,1.453-1.294L12.17-2.307A5.546,5.546,0,0,1,7.19.244ZM6.909-11.6a3.012,3.012,0,0,0-2.295.995A4.836,4.836,0,0,0,3.467-7.812h6.616v-.171a4.3,4.3,0,0,0-.928-2.667A2.836,2.836,0,0,0,6.909-11.6ZM26.135-6.458a7.853,7.853,0,0,1-1.392,4.865A4.446,4.446,0,0,1,21.008.244a4.6,4.6,0,0,1-3.87-1.77L17.029,0H14.954V-18.75h2.258v6.995a4.578,4.578,0,0,1,3.772-1.7,4.474,4.474,0,0,1,3.778,1.819,8.089,8.089,0,0,1,1.373,4.98Zm-2.258-.256a6.1,6.1,0,0,0-.891-3.564,2.95,2.95,0,0,0-2.563-1.257,3.316,3.316,0,0,0-3.21,2.075v5.713a3.408,3.408,0,0,0,3.235,2.075A2.934,2.934,0,0,0,22.974-2.93,6.489,6.489,0,0,0,23.877-6.714Z" transform="translate(1150.74 -4873.699)" fill="#091320"/>
    <path id="Trazado_153321" data-name="Trazado 153321" d="M8.093-11.182a6.768,6.768,0,0,0-1.111-.085A2.976,2.976,0,0,0,3.967-9.375V0H1.709V-13.208h2.2l.037,1.526a3.516,3.516,0,0,1,3.149-1.77,2.307,2.307,0,0,1,1,.171Z" transform="translate(1180.887 -4873.699)" fill="#091320"/>
    <path id="Trazado_153322" data-name="Trazado 153322" d="M1.111-6.726a7.8,7.8,0,0,1,.763-3.491A5.691,5.691,0,0,1,4-12.61,5.782,5.782,0,0,1,7.1-13.452a5.57,5.57,0,0,1,4.364,1.868,7.186,7.186,0,0,1,1.666,4.968v.159A7.869,7.869,0,0,1,12.4-3,5.608,5.608,0,0,1,10.284-.61,5.848,5.848,0,0,1,7.129.244,5.556,5.556,0,0,1,2.777-1.624,7.149,7.149,0,0,1,1.111-6.567Zm2.271.269A5.651,5.651,0,0,0,4.4-2.93,3.262,3.262,0,0,0,7.129-1.6,3.242,3.242,0,0,0,9.863-2.948a6.179,6.179,0,0,0,1.013-3.778,5.641,5.641,0,0,0-1.031-3.522A3.279,3.279,0,0,0,7.1-11.6a3.243,3.243,0,0,0-2.7,1.331A6.133,6.133,0,0,0,3.381-6.458Z" transform="translate(1189.974 -4873.699)" fill="#091320"/>
    <path id="Trazado_153318" data-name="Trazado 153318" d="M4.329,0H1.98V-19.5H4.329Zm6.31,0H8.277V-13.736h2.361Zm.025-19.487h2.844l-3.4,3.732-1.892-.006Zm6.056,5.751.063,1.523a5.073,5.073,0,0,1,4.075-1.777,3.927,3.927,0,0,1,3.923,2.209,5.2,5.2,0,0,1,1.784-1.6,5.268,5.268,0,0,1,2.6-.609q4.52,0,4.6,4.786V0H31.408V-9.064a3.154,3.154,0,0,0-.673-2.2,2.963,2.963,0,0,0-2.26-.73,3.114,3.114,0,0,0-2.171.781,3.167,3.167,0,0,0-1,2.1V0H22.94V-9q0-3-2.933-3a3.142,3.142,0,0,0-3.161,1.968V0H14.5V-13.736ZM48.928-6.716A8.167,8.167,0,0,1,47.48-1.657,4.624,4.624,0,0,1,43.6.254a4.789,4.789,0,0,1-4.024-1.841L39.457,0H37.3V-19.5h2.349v7.274A4.761,4.761,0,0,1,43.57-13.99,4.652,4.652,0,0,1,47.5-12.1a8.413,8.413,0,0,1,1.428,5.18Zm-2.349-.267a6.347,6.347,0,0,0-.927-3.707A3.068,3.068,0,0,0,42.986-12a3.448,3.448,0,0,0-3.339,2.158V-3.9a3.544,3.544,0,0,0,3.364,2.158A3.051,3.051,0,0,0,45.64-3.047,6.749,6.749,0,0,0,46.579-6.982ZM54.438,0H52.089V-13.736h2.349ZM51.9-17.38a1.4,1.4,0,0,1,.349-.965,1.311,1.311,0,0,1,1.035-.394,1.331,1.331,0,0,1,1.041.394,1.387,1.387,0,0,1,.355.965,1.342,1.342,0,0,1-.355.952,1.355,1.355,0,0,1-1.041.381,1.334,1.334,0,0,1-1.035-.381A1.356,1.356,0,0,1,51.9-17.38ZM63.705-1.663a3.383,3.383,0,0,0,2.2-.762,2.68,2.68,0,0,0,1.041-1.9h2.222a4.259,4.259,0,0,1-.812,2.247,5.351,5.351,0,0,1-2,1.7,5.769,5.769,0,0,1-2.647.635,5.659,5.659,0,0,1-4.462-1.873,7.458,7.458,0,0,1-1.657-5.123v-.394a8.27,8.27,0,0,1,.736-3.567,5.608,5.608,0,0,1,2.114-2.425,6,6,0,0,1,3.256-.863,5.509,5.509,0,0,1,3.84,1.384,4.945,4.945,0,0,1,1.631,3.593H66.942a3.237,3.237,0,0,0-1.009-2.19,3.14,3.14,0,0,0-2.241-.857,3.287,3.287,0,0,0-2.774,1.289,6.052,6.052,0,0,0-.984,3.726V-6.6a5.931,5.931,0,0,0,.978,3.656A3.3,3.3,0,0,0,63.705-1.663ZM71.183-7a8.113,8.113,0,0,1,.793-3.631,5.919,5.919,0,0,1,2.209-2.488,6.013,6.013,0,0,1,3.231-.876,5.793,5.793,0,0,1,4.539,1.942,7.473,7.473,0,0,1,1.733,5.167v.165a8.184,8.184,0,0,1-.768,3.6,5.832,5.832,0,0,1-2.2,2.482,6.082,6.082,0,0,1-3.282.889,5.778,5.778,0,0,1-4.526-1.942A7.435,7.435,0,0,1,71.183-6.83Zm2.361.279A5.877,5.877,0,0,0,74.6-3.047a3.393,3.393,0,0,0,2.837,1.384,3.372,3.372,0,0,0,2.844-1.4A6.426,6.426,0,0,0,81.339-7a5.866,5.866,0,0,0-1.073-3.663,3.41,3.41,0,0,0-2.85-1.4,3.373,3.373,0,0,0-2.806,1.384A6.378,6.378,0,0,0,73.544-6.716Z" transform="translate(1115.513 -4839.528)" fill="#091320"/>
    <path id="Trazado_153339" data-name="Trazado 153339" d="M15.742-5.865a6.8,6.8,0,0,1-2.165,4.526A7.094,7.094,0,0,1,8.734.254a6.514,6.514,0,0,1-5.25-2.349A9.449,9.449,0,0,1,1.511-8.379v-1.777a10.532,10.532,0,0,1,.92-4.532,6.875,6.875,0,0,1,2.609-3,7.264,7.264,0,0,1,3.91-1.047,6.679,6.679,0,0,1,4.723,1.644,6.882,6.882,0,0,1,2.069,4.551h-2.45a5.311,5.311,0,0,0-1.377-3.209,4.168,4.168,0,0,0-2.964-.993,4.361,4.361,0,0,0-3.663,1.728A7.933,7.933,0,0,0,3.961-10.1v1.792a8.154,8.154,0,0,0,1.257,4.79A4.061,4.061,0,0,0,8.734-1.739a4.691,4.691,0,0,0,3.117-.92,5.108,5.108,0,0,0,1.441-3.206ZM24.4.254a6,6,0,0,1-4.545-1.834A6.809,6.809,0,0,1,18.1-6.487v-.432a8.243,8.243,0,0,1,.781-3.65,6.091,6.091,0,0,1,2.184-2.514,5.49,5.49,0,0,1,3.041-.908,5.144,5.144,0,0,1,4.164,1.765,7.64,7.64,0,0,1,1.485,5.053V-6.2H20.452a4.883,4.883,0,0,0,1.187,3.282,3.731,3.731,0,0,0,2.888,1.25,4.091,4.091,0,0,0,2.107-.508,5.3,5.3,0,0,0,1.511-1.346L29.58-2.4A5.768,5.768,0,0,1,24.4.254Zm-.292-12.314a3.133,3.133,0,0,0-2.387,1.035,5.029,5.029,0,0,0-1.193,2.9h6.881V-8.3a4.473,4.473,0,0,0-.965-2.774A2.949,2.949,0,0,0,24.108-12.061Zm15.006.432a7.038,7.038,0,0,0-1.155-.089A3.1,3.1,0,0,0,34.823-9.75V0H32.475V-13.736H34.76l.038,1.587a3.657,3.657,0,0,1,3.275-1.841,2.4,2.4,0,0,1,1.041.178ZM46.713.254a6,6,0,0,1-4.545-1.834,6.809,6.809,0,0,1-1.752-4.907v-.432a8.243,8.243,0,0,1,.781-3.65,6.091,6.091,0,0,1,2.184-2.514,5.49,5.49,0,0,1,3.041-.908,5.144,5.144,0,0,1,4.164,1.765A7.64,7.64,0,0,1,52.07-7.173V-6.2H42.764a4.883,4.883,0,0,0,1.187,3.282,3.731,3.731,0,0,0,2.888,1.25,4.091,4.091,0,0,0,2.107-.508,5.3,5.3,0,0,0,1.511-1.346L51.892-2.4A5.768,5.768,0,0,1,46.713.254Zm-.292-12.314a3.133,3.133,0,0,0-2.387,1.035,5.029,5.029,0,0,0-1.193,2.9h6.881V-8.3a4.473,4.473,0,0,0-.965-2.774A2.949,2.949,0,0,0,46.421-12.061Zm20,5.345a8.167,8.167,0,0,1-1.447,5.059A4.624,4.624,0,0,1,61.084.254a4.789,4.789,0,0,1-4.024-1.841L56.945,0H54.787V-19.5h2.349v7.274a4.761,4.761,0,0,1,3.923-1.765A4.652,4.652,0,0,1,64.988-12.1a8.413,8.413,0,0,1,1.428,5.18Zm-2.349-.267a6.347,6.347,0,0,0-.927-3.707A3.068,3.068,0,0,0,60.474-12a3.448,3.448,0,0,0-3.339,2.158V-3.9A3.544,3.544,0,0,0,60.5-1.739a3.051,3.051,0,0,0,2.628-1.308A6.749,6.749,0,0,0,64.067-6.982Zm11.946-4.646a7.038,7.038,0,0,0-1.155-.089A3.1,3.1,0,0,0,71.722-9.75V0H69.374V-13.736h2.285l.038,1.587a3.657,3.657,0,0,1,3.275-1.841,2.4,2.4,0,0,1,1.041.178ZM77.036-7a8.113,8.113,0,0,1,.793-3.631,5.919,5.919,0,0,1,2.209-2.488,6.013,6.013,0,0,1,3.231-.876,5.793,5.793,0,0,1,4.539,1.942,7.473,7.473,0,0,1,1.733,5.167v.165a8.184,8.184,0,0,1-.768,3.6,5.832,5.832,0,0,1-2.2,2.482,6.082,6.082,0,0,1-3.282.889,5.778,5.778,0,0,1-4.526-1.942A7.435,7.435,0,0,1,77.036-6.83Zm2.361.279a5.877,5.877,0,0,0,1.06,3.669,3.393,3.393,0,0,0,2.837,1.384,3.372,3.372,0,0,0,2.844-1.4A6.426,6.426,0,0,0,87.192-7a5.866,5.866,0,0,0-1.073-3.663,3.41,3.41,0,0,0-2.85-1.4,3.373,3.373,0,0,0-2.806,1.384A6.378,6.378,0,0,0,79.4-6.716ZM8.417,19.371a7.038,7.038,0,0,0-1.155-.089A3.1,3.1,0,0,0,4.126,21.25V31H1.777V17.264H4.063L4.1,18.851A3.657,3.657,0,0,1,7.376,17.01a2.4,2.4,0,0,1,1.041.178Zm7.6,11.883a6,6,0,0,1-4.545-1.834,6.809,6.809,0,0,1-1.752-4.907v-.432a8.243,8.243,0,0,1,.781-3.65,6.091,6.091,0,0,1,2.184-2.514,5.49,5.49,0,0,1,3.041-.908,5.144,5.144,0,0,1,4.164,1.765,7.64,7.64,0,0,1,1.485,5.053V24.8H12.067a4.883,4.883,0,0,0,1.187,3.282,3.731,3.731,0,0,0,2.888,1.25,4.091,4.091,0,0,0,2.107-.508,5.3,5.3,0,0,0,1.511-1.346L21.2,28.6A5.768,5.768,0,0,1,16.015,31.254Zm-.292-12.314a3.133,3.133,0,0,0-2.387,1.035,5.029,5.029,0,0,0-1.193,2.9h6.881V22.7a4.473,4.473,0,0,0-.965-2.774A2.949,2.949,0,0,0,15.723,18.939Zm19.97,5.345a8.225,8.225,0,0,1-1.435,5.053,4.6,4.6,0,0,1-3.885,1.917,5.038,5.038,0,0,1-3.936-1.587v6.614H24.09V17.264h2.146l.114,1.523a4.838,4.838,0,0,1,3.986-1.777,4.684,4.684,0,0,1,3.917,1.866,8.315,8.315,0,0,1,1.441,5.192Zm-2.349-.267a6.069,6.069,0,0,0-.99-3.669A3.19,3.19,0,0,0,29.637,19a3.453,3.453,0,0,0-3.2,1.892v6.563a3.459,3.459,0,0,0,3.225,1.879A3.175,3.175,0,0,0,32.348,28,6.625,6.625,0,0,0,33.344,24.018Zm8.519-10.08v3.326h2.564v1.815H41.863v8.529a1.907,1.907,0,0,0,.343,1.239,1.443,1.443,0,0,0,1.168.413,5.686,5.686,0,0,0,1.117-.152V31a6.849,6.849,0,0,1-1.8.252,2.925,2.925,0,0,1-2.374-.952,4.09,4.09,0,0,1-.8-2.7V19.079h-2.5V17.264h2.5V13.938ZM49.721,31H47.373V17.264h2.349ZM47.182,13.62a1.4,1.4,0,0,1,.349-.965,1.311,1.311,0,0,1,1.035-.394,1.331,1.331,0,0,1,1.041.394,1.387,1.387,0,0,1,.355.965,1.342,1.342,0,0,1-.355.952,1.355,1.355,0,0,1-1.041.381,1.334,1.334,0,0,1-1.035-.381A1.356,1.356,0,0,1,47.182,13.62ZM56.031,31H53.682V11.5h2.349Zm6.31,0H59.992V17.264h2.349ZM59.8,13.62a1.4,1.4,0,0,1,.349-.965,1.311,1.311,0,0,1,1.035-.394,1.331,1.331,0,0,1,1.041.394,1.387,1.387,0,0,1,.355.965,1.342,1.342,0,0,1-.355.952,1.355,1.355,0,0,1-1.041.381,1.334,1.334,0,0,1-1.035-.381A1.356,1.356,0,0,1,59.8,13.62ZM74.579,31a4.934,4.934,0,0,1-.33-1.447,5.24,5.24,0,0,1-3.91,1.7A4.849,4.849,0,0,1,67.006,30.1a3.717,3.717,0,0,1-1.3-2.914,3.883,3.883,0,0,1,1.631-3.333,7.691,7.691,0,0,1,4.589-1.187h2.285V21.593a2.638,2.638,0,0,0-.736-1.961A2.959,2.959,0,0,0,71.3,18.9a3.425,3.425,0,0,0-2.107.635,1.87,1.87,0,0,0-.851,1.536H65.984a3.241,3.241,0,0,1,.73-1.987,4.982,4.982,0,0,1,1.98-1.517,6.663,6.663,0,0,1,2.749-.559,5.43,5.43,0,0,1,3.72,1.187,4.282,4.282,0,0,1,1.4,3.269v6.322a7.73,7.73,0,0,0,.482,3.009V31Zm-3.9-1.79a4.128,4.128,0,0,0,2.095-.571,3.456,3.456,0,0,0,1.435-1.485V24.335H72.37q-4.316,0-4.316,2.526a2.138,2.138,0,0,0,.736,1.727A2.83,2.83,0,0,0,70.681,29.21ZM82.463,17.264l.076,1.727a5.006,5.006,0,0,1,4.113-1.98q4.354,0,4.393,4.913V31H88.7V21.91a3.162,3.162,0,0,0-.679-2.2A2.722,2.722,0,0,0,85.941,19a3.39,3.39,0,0,0-2.006.609,4.138,4.138,0,0,0-1.346,1.6V31H80.241V17.264ZM93.965,24a8.113,8.113,0,0,1,.793-3.631,5.919,5.919,0,0,1,2.209-2.488,6.013,6.013,0,0,1,3.231-.876,5.793,5.793,0,0,1,4.539,1.942,7.473,7.473,0,0,1,1.733,5.167v.165a8.184,8.184,0,0,1-.768,3.6,5.832,5.832,0,0,1-2.2,2.482,6.082,6.082,0,0,1-3.282.889A5.778,5.778,0,0,1,95.7,29.312a7.435,7.435,0,0,1-1.733-5.142Zm2.361.279a5.877,5.877,0,0,0,1.06,3.669,3.592,3.592,0,0,0,5.681-.019A6.426,6.426,0,0,0,104.121,24a5.866,5.866,0,0,0-1.073-3.663,3.41,3.41,0,0,0-2.85-1.4,3.373,3.373,0,0,0-2.806,1.384A6.378,6.378,0,0,0,96.326,24.284Z" transform="translate(1910.757 -4737.875)" fill="#091320"/>
    <path id="Trazado_153319" data-name="Trazado 153319" d="M15.742-5.865a6.8,6.8,0,0,1-2.165,4.526A7.094,7.094,0,0,1,8.734.254a6.514,6.514,0,0,1-5.25-2.349A9.449,9.449,0,0,1,1.511-8.379v-1.777a10.532,10.532,0,0,1,.92-4.532,6.875,6.875,0,0,1,2.609-3,7.264,7.264,0,0,1,3.91-1.047,6.679,6.679,0,0,1,4.723,1.644,6.882,6.882,0,0,1,2.069,4.551h-2.45a5.311,5.311,0,0,0-1.377-3.209,4.168,4.168,0,0,0-2.964-.993,4.361,4.361,0,0,0-3.663,1.728A7.933,7.933,0,0,0,3.961-10.1v1.792a8.154,8.154,0,0,0,1.257,4.79A4.061,4.061,0,0,0,8.734-1.739a4.691,4.691,0,0,0,3.117-.92,5.108,5.108,0,0,0,1.441-3.206ZM24.4.254a6,6,0,0,1-4.545-1.834A6.809,6.809,0,0,1,18.1-6.487v-.432a8.243,8.243,0,0,1,.781-3.65,6.091,6.091,0,0,1,2.184-2.514,5.49,5.49,0,0,1,3.041-.908,5.144,5.144,0,0,1,4.164,1.765,7.64,7.64,0,0,1,1.485,5.053V-6.2H20.452a4.883,4.883,0,0,0,1.187,3.282,3.731,3.731,0,0,0,2.888,1.25,4.091,4.091,0,0,0,2.107-.508,5.3,5.3,0,0,0,1.511-1.346L29.58-2.4A5.768,5.768,0,0,1,24.4.254Zm-.292-12.314a3.133,3.133,0,0,0-2.387,1.035,5.029,5.029,0,0,0-1.193,2.9h6.881V-8.3a4.473,4.473,0,0,0-.965-2.774A2.949,2.949,0,0,0,24.108-12.061Z" transform="translate(1177.483 -5003.359)" fill="#091320"/>
    <path id="Trazado_153323" data-name="Trazado 153323" d="M8.093-11.182a6.768,6.768,0,0,0-1.111-.085A2.976,2.976,0,0,0,3.967-9.375V0H1.709V-13.208h2.2l.037,1.526a3.516,3.516,0,0,1,3.149-1.77,2.307,2.307,0,0,1,1,.171Z" transform="translate(1210.118 -5004.359)" fill="#091320"/>
    <path id="Trazado_153324" data-name="Trazado 153324" d="M7.19.244A5.771,5.771,0,0,1,2.82-1.52,6.547,6.547,0,0,1,1.135-6.238v-.415a7.926,7.926,0,0,1,.751-3.51,5.856,5.856,0,0,1,2.1-2.417,5.279,5.279,0,0,1,2.924-.873,4.947,4.947,0,0,1,4,1.7A7.346,7.346,0,0,1,12.341-6.9v.94H3.394A4.7,4.7,0,0,0,4.535-2.8,3.588,3.588,0,0,0,7.312-1.6a3.933,3.933,0,0,0,2.026-.488,5.091,5.091,0,0,0,1.453-1.294L12.17-2.307A5.546,5.546,0,0,1,7.19.244ZM6.909-11.6a3.012,3.012,0,0,0-2.295.995A4.836,4.836,0,0,0,3.467-7.812h6.616v-.171a4.3,4.3,0,0,0-.928-2.667A2.836,2.836,0,0,0,6.909-11.6ZM26.135-6.458a7.853,7.853,0,0,1-1.392,4.865A4.446,4.446,0,0,1,21.008.244a4.6,4.6,0,0,1-3.87-1.77L17.029,0H14.954V-18.75h2.258v6.995a4.578,4.578,0,0,1,3.772-1.7,4.474,4.474,0,0,1,3.778,1.819,8.089,8.089,0,0,1,1.373,4.98Zm-2.258-.256a6.1,6.1,0,0,0-.891-3.564,2.95,2.95,0,0,0-2.563-1.257,3.316,3.316,0,0,0-3.21,2.075v5.713a3.408,3.408,0,0,0,3.235,2.075A2.934,2.934,0,0,0,22.974-2.93,6.489,6.489,0,0,0,23.877-6.714Z" transform="translate(1219.223 -5004.359)" fill="#091320"/>
    <path id="Trazado_153327" data-name="Trazado 153327" d="M8.093-11.182a6.768,6.768,0,0,0-1.111-.085A2.976,2.976,0,0,0,3.967-9.375V0H1.709V-13.208h2.2l.037,1.526a3.516,3.516,0,0,1,3.149-1.77,2.307,2.307,0,0,1,1,.171Z" transform="translate(1249.37 -5004.359)" fill="#091320"/>
    <path id="Trazado_153328" data-name="Trazado 153328" d="M1.111-6.726a7.8,7.8,0,0,1,.763-3.491A5.691,5.691,0,0,1,4-12.61,5.782,5.782,0,0,1,7.1-13.452a5.57,5.57,0,0,1,4.364,1.868,7.186,7.186,0,0,1,1.666,4.968v.159A7.869,7.869,0,0,1,12.4-3,5.608,5.608,0,0,1,10.284-.61,5.848,5.848,0,0,1,7.129.244,5.556,5.556,0,0,1,2.777-1.624,7.149,7.149,0,0,1,1.111-6.567Zm2.271.269A5.651,5.651,0,0,0,4.4-2.93,3.262,3.262,0,0,0,7.129-1.6,3.242,3.242,0,0,0,9.863-2.948a6.179,6.179,0,0,0,1.013-3.778,5.641,5.641,0,0,0-1.031-3.522A3.279,3.279,0,0,0,7.1-11.6a3.243,3.243,0,0,0-2.7,1.331A6.133,6.133,0,0,0,3.381-6.458Z" transform="translate(1258.457 -5004.359)" fill="#091320"/>
    <path id="Trazado_153320" data-name="Trazado 153320" d="M4-13.736l.076,1.727a5.006,5.006,0,0,1,4.113-1.98q4.354,0,4.393,4.913V0H10.232V-9.09a3.162,3.162,0,0,0-.679-2.2A2.722,2.722,0,0,0,7.478-12a3.39,3.39,0,0,0-2.006.609,4.138,4.138,0,0,0-1.346,1.6V0H1.777V-13.736ZM21.823.254a6,6,0,0,1-4.545-1.834,6.809,6.809,0,0,1-1.752-4.907v-.432a8.243,8.243,0,0,1,.781-3.65,6.091,6.091,0,0,1,2.184-2.514,5.49,5.49,0,0,1,3.041-.908A5.144,5.144,0,0,1,25.7-12.226a7.64,7.64,0,0,1,1.485,5.053V-6.2H17.875a4.883,4.883,0,0,0,1.187,3.282,3.731,3.731,0,0,0,2.888,1.25,4.091,4.091,0,0,0,2.107-.508,5.3,5.3,0,0,0,1.511-1.346L27-2.4A5.768,5.768,0,0,1,21.823.254Zm-.292-12.314a3.133,3.133,0,0,0-2.387,1.035,5.029,5.029,0,0,0-1.193,2.9h6.881V-8.3a4.473,4.473,0,0,0-.965-2.774A2.949,2.949,0,0,0,21.531-12.061ZM29.275-7a8.113,8.113,0,0,1,.793-3.631,5.919,5.919,0,0,1,2.209-2.488,6.013,6.013,0,0,1,3.231-.876,5.793,5.793,0,0,1,4.539,1.942A7.473,7.473,0,0,1,41.78-6.881v.165a8.184,8.184,0,0,1-.768,3.6,5.832,5.832,0,0,1-2.2,2.482,6.082,6.082,0,0,1-3.282.889,5.778,5.778,0,0,1-4.526-1.942A7.435,7.435,0,0,1,29.275-6.83Zm2.361.279A5.877,5.877,0,0,0,32.7-3.047a3.393,3.393,0,0,0,2.837,1.384,3.372,3.372,0,0,0,2.844-1.4A6.426,6.426,0,0,0,39.432-7a5.866,5.866,0,0,0-1.073-3.663,3.41,3.41,0,0,0-2.85-1.4A3.373,3.373,0,0,0,32.7-10.677,6.378,6.378,0,0,0,31.637-6.716Zm18.6,5.053a3.383,3.383,0,0,0,2.2-.762,2.68,2.68,0,0,0,1.041-1.9h2.222a4.259,4.259,0,0,1-.812,2.247,5.351,5.351,0,0,1-2,1.7,5.769,5.769,0,0,1-2.647.635,5.659,5.659,0,0,1-4.462-1.873,7.458,7.458,0,0,1-1.657-5.123v-.394a8.27,8.27,0,0,1,.736-3.567,5.608,5.608,0,0,1,2.114-2.425,6,6,0,0,1,3.256-.863,5.509,5.509,0,0,1,3.84,1.384,4.945,4.945,0,0,1,1.631,3.593H53.473a3.237,3.237,0,0,0-1.009-2.19,3.14,3.14,0,0,0-2.241-.857,3.287,3.287,0,0,0-2.774,1.289,6.052,6.052,0,0,0-.984,3.726V-6.6a5.931,5.931,0,0,0,.978,3.656A3.3,3.3,0,0,0,50.235-1.663ZM57.713-7a8.113,8.113,0,0,1,.793-3.631,5.919,5.919,0,0,1,2.209-2.488,6.013,6.013,0,0,1,3.231-.876,5.793,5.793,0,0,1,4.539,1.942,7.473,7.473,0,0,1,1.733,5.167v.165a8.184,8.184,0,0,1-.768,3.6,5.832,5.832,0,0,1-2.2,2.482,6.082,6.082,0,0,1-3.282.889,5.778,5.778,0,0,1-4.526-1.942A7.435,7.435,0,0,1,57.713-6.83Zm2.361.279a5.877,5.877,0,0,0,1.06,3.669,3.393,3.393,0,0,0,2.837,1.384,3.372,3.372,0,0,0,2.844-1.4A6.426,6.426,0,0,0,67.869-7,5.866,5.866,0,0,0,66.8-10.658a3.41,3.41,0,0,0-2.85-1.4,3.373,3.373,0,0,0-2.806,1.384A6.378,6.378,0,0,0,60.074-6.716ZM65.013-19.5h2.844l-3.4,3.732-1.892-.006Z" transform="translate(1155.912 -4971.189)" fill="#091320"/>
    <path id="Trazado_153325" data-name="Trazado 153325" d="M8.093-11.182a6.768,6.768,0,0,0-1.111-.085A2.976,2.976,0,0,0,3.967-9.375V0H1.709V-13.208h2.2l.037,1.526a3.516,3.516,0,0,1,3.149-1.77,2.307,2.307,0,0,1,1,.171Z" transform="translate(1226.807 -4971.189)" fill="#091320"/>
    <path id="Trazado_153326" data-name="Trazado 153326" d="M4.964-17.062v3.326H7.528v1.815H4.964v8.529a1.907,1.907,0,0,0,.343,1.239,1.443,1.443,0,0,0,1.168.413,5.686,5.686,0,0,0,1.117-.152V0a6.849,6.849,0,0,1-1.8.252A2.925,2.925,0,0,1,3.415-.7a4.09,4.09,0,0,1-.8-2.7v-8.519H.114v-1.815h2.5v-3.326ZM15.971.254a6,6,0,0,1-4.545-1.834A6.809,6.809,0,0,1,9.674-6.487v-.432a8.243,8.243,0,0,1,.781-3.65,6.091,6.091,0,0,1,2.184-2.514,5.49,5.49,0,0,1,3.041-.908,5.144,5.144,0,0,1,4.164,1.765,7.64,7.64,0,0,1,1.485,5.053V-6.2H12.022a4.883,4.883,0,0,0,1.187,3.282A3.731,3.731,0,0,0,16.1-1.663a4.091,4.091,0,0,0,2.107-.508,5.3,5.3,0,0,0,1.511-1.346L21.15-2.4A5.768,5.768,0,0,1,15.971.254Zm-.292-12.314a3.133,3.133,0,0,0-2.387,1.035,5.029,5.029,0,0,0-1.193,2.9h6.881V-8.3a4.473,4.473,0,0,0-.965-2.774A2.949,2.949,0,0,0,15.679-12.061ZM28.653-8.722,31.7-13.736h2.742L29.948-6.944,34.582,0H31.865L28.691-5.142,25.518,0H22.788l4.634-6.944-4.494-6.792h2.717Z" transform="translate(1236.845 -4970.189)" fill="#091320"/>
    <path id="Trazado_153192" data-name="Trazado 153192" d="M540.229,582.8c-1.987-49.7,5.926-94.553,23.7-132.544,9.968-21.284,23.824-40.7,37.23-59.5,16-22.459,32.514-45.558,42.6-72.059,19.453-51.155,12.3-112.5-18.658-160.117-25.31-38.958-62.834-69.105-108.5-87.262a262.481,262.481,0,0,0-68.345-16.862,266.745,266.745,0,0,0-70.833,1.728c-46.37,7.273-88.282,25.275-121.193,51.881a197.053,197.053,0,0,0-43.191,48.374A186.083,186.083,0,0,0,188.207,219.2l-.225,1.14c-1.728,8.638-3.87,19.246-.121,27.832a41.893,41.893,0,0,0,3.939,6.738c2.712,4.008,5.079,7.463,4.44,13.389-.795,7.342-4.388,14.288-7.843,21.008-.587,1.14-1.175,2.263-1.728,3.455-2.678,5.338-5.6,10.832-8.431,16.136-8.275,15.549-16.844,31.685-21.941,48.287-4.976,16.205-1.728,26.346,10,31.1a41.238,41.238,0,0,0,13.735,2.108c9.226.363,16.533.656,16.81,12.387a124.51,124.51,0,0,1-1.728,27.642,13.959,13.959,0,0,0-.276,3.662c.363,3.645,3.455,6.738,6.738,8.638-7.705,5.269-4.06,12.093-.829,18.054a31.84,31.84,0,0,1,3.594,8.431,38.475,38.475,0,0,1-.225,11.126,61.827,61.827,0,0,0-.536,7.049v2.54c0,9.968,0,22.373,7.239,29.646,16.551,16.6,36.487,11.42,55.785,6.409,15.117-3.939,30.752-8.016,45.022-1.866,17.777,7.653,23.876,33.2,25.172,58.739" transform="translate(1153.832 -5076.802)" fill="#d8d5ed" stroke="#6f678c" stroke-miterlimit="10" stroke-width="2"/>
    <path id="Trazado_153193" data-name="Trazado 153193" d="M304.68,390.532a135.684,135.684,0,1,0,0-271.367v8.059l8,.19a127.689,127.689,0,0,1,0,254.877h-8Z" transform="translate(1263.437 -5028.569)" fill="#b2abdb"/>
    <path id="Trazado_153194" data-name="Trazado 153194" d="M599.493,184.358a30.219,30.219,0,0,1-1.348,3.11c2.108.639,4.215,1.382,6.289,2.125a11.972,11.972,0,0,1,7.083,6.634l.432.847a69.559,69.559,0,0,1,5.183,13.458c3.317,11.782,4.544,24.429,5.753,36.678v.622a107.9,107.9,0,0,1-2.3,36.747,60.269,60.269,0,0,1-1.728,5.788c-2,5.943-4.267,12.681-8.534,17.449-6.5,7.221-16.827,10.9-30.665,10.9a143.4,143.4,0,0,1-23.167-2.54c-2.3-.363-4.682-.76-7.031-1.106a98.639,98.639,0,0,0-12.473-1.987c-2-.242-4.077-.484-6.064-.777-1.278-.19-2.574-.363-3.87-.518a45.817,45.817,0,0,1-13.165-2.989,8.482,8.482,0,0,1-4.958-4.336l-1.59-4.423-4.025,2.4c-.76.449-1.5.864-2.211,1.209s-1.624.708-2.4,1a34.431,34.431,0,0,1-12.214,1.849c-2.263,0-4.509-.1-6.911-.225h-1.728c-3.455-.155-6.824-.242-10.21-.242a215.389,215.389,0,0,0-28.437,1.9c-9.606,1.261-19.781,3.092-30.233,5.442-5.183,1.158-10.366,2.591-15.462,3.974a228.031,228.031,0,0,1-23.7,5.563,108.673,108.673,0,0,1-15.341,1.4c-3.283,0-7.17,0-9.934-2a6.738,6.738,0,0,1-2.4-3.542c-6.1,5.684-17.725,9.778-25.482,9.778a45.488,45.488,0,0,1-16.654-3.041c-8.327-3.352-14.719-7.774-19-13.147-9.416-11.834-11.852-29.853-6.375-47.009,0,0,1.728-5.511,2.522-7.861a80.454,80.454,0,0,1-28.074,5.943c-19.315,0-41.048-3.041-48.944-14.512-2.8-4.077-5.511-10-3.784-16.378l1.555-4.077-4.233-1.054a12.318,12.318,0,0,1-8.223-6.392c-4.872-9.07-2.661-25.914,1.728-38.474l.5-.518v-.9c10.642-29.56,22.286-44.642,34.553-44.918l6.392-.1a18.123,18.123,0,0,1,0-11.972c2.661-7.723,19-18.261,47.061-33.24,2.056-1.088,4.25-2.332,6.582-3.645,10.158-5.77,22.77-12.905,33.654-12.905a19.556,19.556,0,0,1,9,1.918l1.728.881h.466c.881,0,1.037-.173,2.522-1.883.708-.829,2.039-2.367,2.28-2.609a17.275,17.275,0,0,1,3.455-2.263c5.183-2.833,11.091-3.455,17.276-4.215,1.106-.138,2.229-.259,3.334-.415,8.1-1.037,16.343-1.728,24.48-2.125,4.475-.207,8.966-.311,13.372-.311,3.939,0,7.9,0,11.782.242,1.728,0,3.7,0,5.788.1,10.711,0,26.83.225,31.374,7.947l2.09,3.455,1.728-1.14a21.317,21.317,0,0,1,4.44-2.522,17.949,17.949,0,0,1,6.029-.967,46.542,46.542,0,0,1,13.717,2.7A174.813,174.813,0,0,1,487.3,79.819c2.056.916,4.008,1.728,5.7,2.471a234.077,234.077,0,0,1,47.855,26.536c1.088.777,2.263,1.589,3.3,2.3,6.047,4.094,11.748,7.982,12.093,14.374l.294,5.045,4.8-1.607a3.041,3.041,0,0,1,1.106-.19c3.974,0,8.915,6.029,13.251,11.679.916,1.209,1.728,2.332,2.574,3.265s2,2.332,3.179,3.68a154.184,154.184,0,0,1,12.353,15.549,41.462,41.462,0,0,1,6.289,12.854A14.2,14.2,0,0,1,599.493,184.358Z" transform="translate(1174.661 -5069.203)" fill="#ffb790"/>
    <path id="Trazado_153195" data-name="Trazado 153195" d="M428.336,230.577a50.361,50.361,0,0,0,3.455-27.124,58.1,58.1,0,0,0-2.263-9.191h0c.121.4.276.777.432,1.157a13.579,13.579,0,0,0,2.488,3.974,12.371,12.371,0,0,0,1.071,1.054c9,8.051,26.968,4.285,30.406-7.947,6.79-24.066-35.105-45.989-51.829-53.919a168.858,168.858,0,0,0-95.175-14.6c-26.675,3.835-62.385,15.842-68.1,46.37a25.016,25.016,0,0,0,3.455,18.3c4.267,6.444,10.141,8.137,17.276,9.537a22.079,22.079,0,0,1,12.214,6.047,20.092,20.092,0,0,1,3.9,6.392,27.245,27.245,0,0,1,1.175,15.359,19.268,19.268,0,0,1-.536,2.021c-33.5.518-66.358-25.085-58.739-66.254,7.688-41.463,68.967-69.105,131.559-64.6,64.613,4.6,120.934,39.01,125.357,76.845C489.995,221.265,452.937,246.16,428.336,230.577Z" transform="translate(1206.52 -5044.936)" fill="#f07d7d"/>
    <path id="Trazado_153196" data-name="Trazado 153196" d="M390.431,300.68c-10.849,0-20.973-4.768-29.266-13.821-13.337-14.512-20.732-38.474-18.8-61.037,1.469-17.432,8.344-31.685,19.367-40.167a28.178,28.178,0,0,1,17.708-6.064c10,0,21.664,4.665,35.658,14.287l1,.674a95.694,95.694,0,0,0,20.732,10.158c2.92,1.14,5.943,2.315,8.932,3.628,10.59,4.665,20.732,9.381,28.212,15.739a25.034,25.034,0,0,1,7.774,11.2l.138.5.19.708v.121a.7.7,0,0,0,.086.4,17.83,17.83,0,0,1,.311,2.177c.449,5.459-2.971,10.884-10.746,17.069a149.948,149.948,0,0,1-13.527,9.226c-3.455,2.16-6.669,4.181-9.174,6.1l-.95.743c-4.043,3.075-8.189,6.254-12.335,9.208a128.134,128.134,0,0,1-22.96,13.7,70.985,70.985,0,0,1-13.165,4.405A41.2,41.2,0,0,1,390.431,300.68Z" transform="translate(1290.638 -4984.603)" fill="#efd5bf"/>
    <path id="Trazado_153197" data-name="Trazado 153197" d="M269.154,186.846c-4.129-1.728-8.811-2.315-11.972-5.839-8.811-9.813-2.039-23.012,6.116-30.942a57.685,57.685,0,0,1,16.5-10.936c35.848-16.343,86.554-10.366,119.932,10.02,6.358,3.853,8.189,9.692,11.869,16.309,6.271,11.247,7.964,29.128,25.413,28.713,7.636-.173,15.549-4.768,17.725-12.508,6.79-24.066-35.105-45.989-51.829-53.919a168.858,168.858,0,0,0-95.175-14.6c-26.675,3.835-62.385,15.842-68.1,46.37a25.016,25.016,0,0,0,3.455,18.3c4.267,6.444,10.141,8.137,17.276,9.536a27.644,27.644,0,0,1,7.688,2.609Z" transform="translate(1215.76 -5034.099)" fill="#80caff"/>
    <path id="Trazado_153198" data-name="Trazado 153198" d="M258.821,158.475a16.36,16.36,0,0,1,4.526,3.455,20.1,20.1,0,0,1,3.9,6.392,27.245,27.245,0,0,1,1.175,15.359,19.275,19.275,0,0,1-.536,2.021,28.4,28.4,0,0,1-4.06,7.878,36.021,36.021,0,0,1-6.081,5.839c-1.728,1.486-7.636,6.479-5.459,9.122,1.33,1.728,5.839,1.037,7.55.363.726-.276,5.183-1.728,5.338-2.281-.19.5-.4.985-.6,1.486a165.844,165.844,0,0,0-6.219,17.138v.294a1.728,1.728,0,0,0,.76,1.589,1.624,1.624,0,0,0,.777.276,1.728,1.728,0,0,0,1.227-.38l.415-.311a156.851,156.851,0,0,1,20.9-14.3c7.066-4.043,14.944-8.845,23.254-9.519,5.338-.449,14.927-1.728,19.142,2.764,3.248,3.455,5.183,7.619,7.843,11.592a31.443,31.443,0,0,0,4.837,6.012c2.471,2.954,0,6.824-3.455,7.878-4.475.57-8.88.415-12.715,2.16a12.56,12.56,0,0,0-4.25,3.023c-6.53,6.755-8.293,15.359-7.9,23.807v.674a.844.844,0,0,0,0,.207,44.449,44.449,0,0,0,1.866,7.809,61.6,61.6,0,0,0,3.283,8.517c.587,1.278,1.175,2.626,1.728,4.2.415,1.019.76,1.866,1.106,2.643v.1c.225.518.432.967.639,1.417s.518,1.106.777,1.624.4.795.587,1.192l.622,1.192h0v.259l.138.225c.121.225.242.466.38.691v.1l.156.294h0l.5.847c.19.328.38.622.57.916s.536.847.795,1.244c.449.691.881,1.313,1.33,1.9a11.057,11.057,0,0,0,.674.9c.225.311.484.622.743.933l.415.518.5.57a5.749,5.749,0,0,0,.432.484h0c.242.276.466.536.726.795l.708.743a.708.708,0,0,1,.173.155,10.368,10.368,0,0,0,.777.726h0l.19.19.726.639a21.354,21.354,0,0,0,2.229,1.728l.9.639h0l.155.1.985.639.173.121h.121l.518.328c.812.466,1.624.9,2.488,1.313l.812.38a20.732,20.732,0,0,0,6.686,1.123,16.81,16.81,0,0,0,6.772-1.348c.294-.138,1.728-.916,2.056-1.14l6.1-3.766-3.766,6.116a77.554,77.554,0,0,0-6.634,16.326c-1.123,6.738,1.123,13.665,7.031,21.785,16.533,19.159,28,38.509,35.071,59.171,2.574,7.878,5.183,15.756,7.74,23.565H429.51c-1.849-7.964-3.887-16.343-6.15-25.293-2.453-9.727-4.958-19.315-6.911-26.571-.95-3.593-1.434-7.584-2.229-11.23-1.123-5.183-1.728-9.208-2.626-13.907-.466-1.814-.95-3.611-1.417-5.442-1.123-4.233-2.229-8.517-3.317-12.8-1.728-7.014-3.455-13.977-4.8-20.956-4.164-20.248-7.221-40.5-11.368-61.227-.553-2.643-1.158-5.269-1.814-7.861a126.812,126.812,0,0,0-7.982-23.219c-1.123-2.384-2.332-4.751-3.68-7.1a33.777,33.777,0,0,0-7.17-8.414,70.113,70.113,0,0,0-13.113-8.638,66.757,66.757,0,0,0-31.944-5.027c-11.834,1.088-24.031,5.926-34.691,11.04a171.59,171.59,0,0,0-27.746,17.173c.95-2.7,2.229-5.3,3.283-7.947s3.576-5.995,3.835-8.725c.311-3.455-3.645-3.179-5.77-2.142a12.664,12.664,0,0,1-5.062,1.987.95.95,0,0,1-.536-.121c-.4-.346,0-.967.466-1.3a39.063,39.063,0,0,0,7.17-7.256,22.46,22.46,0,0,0,3.213-6.029c.415-1.158.622-2.54,1.123-3.732a4.613,4.613,0,0,1,1.365-1.918c2.246-1.728,5.045-4.181,4.976-7.291s-3.231-5.926-5.788-7.394c-2.28-1.313-2.367-5.01-3.611-7.118a17.432,17.432,0,0,0-7.982-6.634Z" transform="translate(1224.971 -5002.618)" fill="#ff9380"/>
    <path id="Trazado_153334" data-name="Trazado 153334" d="M24.671,0C38.3,0,49.341,16.908,49.341,37.766S38.3,75.532,24.671,75.532,0,58.623,0,37.766,11.045,0,24.671,0Z" transform="translate(1526.243 -4823.41) rotate(-84.6)" fill="#e170e8"/>
    <path id="Trazado_153199" data-name="Trazado 153199" d="M398.9,190.209a46.664,46.664,0,0,1-.518,4.924,55.283,55.283,0,0,1-3.455,12.3,67.654,67.654,0,0,1-8.638,15.048,81.9,81.9,0,0,1-8.793,9.986c-.6.587-1.227,1.175-1.866,1.728a3.28,3.28,0,0,1-.363.328,62.191,62.191,0,0,1-8.638,6.513A97.662,97.662,0,0,1,340.036,252.4c-8.9,2.4-20.092,4.8-29.214,2.125a17.086,17.086,0,0,1-4.526-2.073c-5.822-3.887-6.461-10.625,2.626-13.976a45.483,45.483,0,0,1,8.638-2.073c3.144-.5,6.323-.881,9.416-1.607,9.813-2.315,19.885-4.613,28.713-9.277a48.943,48.943,0,0,0,5.373-3.265,51.241,51.241,0,0,0,14.357-15.169l.432-.76a44.918,44.918,0,0,0,5.183-13.51,36.06,36.06,0,0,0,.622-3.749c4.682-38.906-47.648-62.488-83.03-47.285a47.822,47.822,0,0,0-9.018,5.027,42.463,42.463,0,0,0-5.6,4.768,45.78,45.78,0,0,0-5.494,6.807c-.95,1.434-2.453,6.1-4.336,6.5-3.714.812-.518-7.532-.1-8.638,5.857-16.05,21.889-24.584,38.975-26.9,34.881-4.751,72.2,10.158,82.926,41.809a58.1,58.1,0,0,1,2.263,9.191A45.432,45.432,0,0,1,398.9,190.209Z" transform="translate(1239.95 -5021.792)" fill="#8058e3"/>
    <path id="Trazado_153200" data-name="Trazado 153200" d="M194.56,165.931a63.527,63.527,0,0,0,5.269-11.316,61.194,61.194,0,0,0,2.47-11.281,38.974,38.974,0,0,1,3.922-13.078,18.814,18.814,0,0,1,4.751-5.632,10.953,10.953,0,0,1,6.738-2.453,17.5,17.5,0,0,0-3.455,5.183,28.2,28.2,0,0,0-1.728,5.442c-.777,3.611-.95,7.567-1.728,11.921a40.218,40.218,0,0,1-1.728,6.72,25.066,25.066,0,0,1-3.455,6.41A20.731,20.731,0,0,1,194.56,165.931Z" transform="translate(1183.311 -5026.382)" fill="#f0a384"/>
    <path id="Trazado_153201" data-name="Trazado 153201" d="M202.034,156.79a28.9,28.9,0,0,0,10.366,8.966,72.1,72.1,0,0,0,12.093,5.269,88.752,88.752,0,0,0,12.974,3.334,49.067,49.067,0,0,0,14.028.76,16.776,16.776,0,0,1-6.53,4.354,27.641,27.641,0,0,1-7.722,1.728,37.7,37.7,0,0,1-15.549-1.918,35.589,35.589,0,0,1-13.545-8.154,23.582,23.582,0,0,1-4.734-6.582A14.062,14.062,0,0,1,202.034,156.79Z" transform="translate(1188.69 -5001.192)" fill="#f0a384"/>
    <path id="Trazado_153202" data-name="Trazado 153202" d="M228.485,197.346a76.619,76.619,0,0,1-9.968-27.746,47.268,47.268,0,0,1,5.511-30.251,42.38,42.38,0,0,1,4.785-6.409c1.728-1.883,3.455-3.593,5.183-5.183a48.378,48.378,0,0,0,4.388-4.872,20.731,20.731,0,0,0,2.92-5.183,11.351,11.351,0,0,0,.639-5.477,11.108,11.108,0,0,0-2.47-5.183c-2.661-3.455-6.911-5.874-11.022-8.483a31.408,31.408,0,0,1,14.011,5.373,15.03,15.03,0,0,1,5.027,6.91,16.361,16.361,0,0,1,.484,8.776,31.1,31.1,0,0,1-7.878,14.011A68.428,68.428,0,0,0,231.63,144.1a49.825,49.825,0,0,0-6.185,25.293C225.306,178.29,227.034,187.688,228.485,197.346Z" transform="translate(1200.35 -5043.562)" fill="#f0a384"/>
    <path id="Trazado_153203" data-name="Trazado 153203" d="M232.1,126.627a29.232,29.232,0,0,1,6.911-6.029,66.24,66.24,0,0,1,7.567-4.077c2.488-1.227,4.889-2.246,7.083-3.455a35.47,35.47,0,0,0,6.012-4.043,16.567,16.567,0,0,0,4.06-5.183,20.213,20.213,0,0,0,1.59-6.686c.259-2.54.4-5.287.864-8.137A18.486,18.486,0,0,1,269.279,81c.138,5.718,1.935,10.366,2.332,16.326a22.063,22.063,0,0,1-1.279,9.329,21.681,21.681,0,0,1-5.425,8.068,49.686,49.686,0,0,1-14.979,9.087,49.877,49.877,0,0,0-12.992,7.291Z" transform="translate(1210.626 -5056.339)" fill="#f0a384"/>
    <path id="Trazado_153204" data-name="Trazado 153204" d="M267.2,71.38a13.234,13.234,0,0,1,5.632,5.546,17.674,17.674,0,0,1,1.054,14.668,13.1,13.1,0,0,1-4.751,6.271,38.216,38.216,0,0,1-2.108-6.911,49.471,49.471,0,0,1-.829-6.1,48.611,48.611,0,0,1,0-6.15,36.468,36.468,0,0,1,1-7.325Z" transform="translate(1235.368 -5063.339)" fill="#f0a384"/>
    <path id="Trazado_153205" data-name="Trazado 153205" d="M208.59,105.593a14.391,14.391,0,0,1,6.375-.19,16.188,16.188,0,0,1,5.1,1.952,15.755,15.755,0,0,1,4.129,3.559,14.063,14.063,0,0,1,2.833,5.736,14.132,14.132,0,0,1-6.375.19,15.652,15.652,0,0,1-9.208-5.528A14.219,14.219,0,0,1,208.59,105.593Z" transform="translate(1193.519 -5038.778)" fill="#f0a384"/>
    <path id="Trazado_153206" data-name="Trazado 153206" d="M258.852,103c.536,1.209.864,1.313,2,1.728a13.562,13.562,0,0,0,5.045,0,45.159,45.159,0,0,0,6.254-1.468c2.16-.622,4.285-1.365,6.686-2.16a155.779,155.779,0,0,1,28.938-5.667c4.837-.57,9.657-.9,14.46-1.209l7.17-.432a53.938,53.938,0,0,0,6.53-.76,32.342,32.342,0,0,0,11.972-4.492,22.891,22.891,0,0,0,8.638-10.366,19,19,0,0,1-5.287,14.08,29.369,29.369,0,0,1-13.51,8.172,44.623,44.623,0,0,1-7.6,1.555l-7.1.881c-4.716.6-9.4,1.278-14.046,1.952a200.613,200.613,0,0,0-27.158,5.891c-2.142.674-4.544,1.486-6.911,2.16a55.047,55.047,0,0,1-7.757,1.538,21.163,21.163,0,0,1-9.156-.76,11.368,11.368,0,0,1-7.532-8.172Z" transform="translate(1224.007 -5058.398)" fill="#f0a384"/>
    <path id="Trazado_153207" data-name="Trazado 153207" d="M338.92,70a5.857,5.857,0,0,1,2.816,3.455,10.124,10.124,0,0,1,.363,4.526,16.448,16.448,0,0,1-3.213,7.567,44.681,44.681,0,0,1-4.25,4.716,18.261,18.261,0,0,0-4.215,5.183,6.358,6.358,0,0,1-2.16-3.87,11.16,11.16,0,0,1,.173-4.423,19.107,19.107,0,0,1,3.455-6.91c1.261-1.728,2.557-3.144,3.784-4.578A12.664,12.664,0,0,0,338.92,70Z" transform="translate(1280.49 -5064.343)" fill="#f0a384"/>
    <path id="Trazado_153208" data-name="Trazado 153208" d="M397.6,162a60.461,60.461,0,0,0-3.939,10.5,47.112,47.112,0,0,0-1.607,9.778,30.9,30.9,0,0,0,.847,9.433,30.148,30.148,0,0,0,4.7,9.744,14.806,14.806,0,0,1-10.884-6.7,20.853,20.853,0,0,1-3.455-12.94A24.187,24.187,0,0,1,387.44,169.5,18.054,18.054,0,0,1,397.6,162Z" transform="translate(1320.58 -4997.401)" fill="#f0a384"/>
    <path id="Trazado_153209" data-name="Trazado 153209" d="M326.26,99.788a13.3,13.3,0,0,1,9.156-.674,48.719,48.719,0,0,1,8.414,3.041,43.605,43.605,0,0,0,7.239,2.626,22.459,22.459,0,0,0,6.911.726,14.581,14.581,0,0,0,11.126-5.649,17.068,17.068,0,0,0,2.54-6.772,46.846,46.846,0,0,1,2.16-8.535c.726,2.9,1.607,5.563,2.16,8.638a17.777,17.777,0,0,1-.708,9.847,19,19,0,0,1-16.792,11.316,24.723,24.723,0,0,1-9.917-1.572,32,32,0,0,1-8.189-4.6c-2.332-1.728-4.44-3.455-6.634-5.045A17.829,17.829,0,0,0,326.26,99.788Z" transform="translate(1279.139 -5053.756)" fill="#f0a384"/>
    <path id="Trazado_153210" data-name="Trazado 153210" d="M351.518,95.574a26.71,26.71,0,0,0,10.366,3.075,54.871,54.871,0,0,0,11.765-.173c8.016-.9,16.274-2.9,24.55-3.006-8.137,1.555-15.549,4.889-23.669,7.291a58.739,58.739,0,0,1-12.733,2.471,35,35,0,0,1-13.717-1.589Z" transform="translate(1295.016 -5045.81)" fill="#f0a384"/>
    <path id="Trazado_153211" data-name="Trazado 153211" d="M408.326,101.92a10.539,10.539,0,0,1-.484,9.416,13.236,13.236,0,0,1-3.179,3.974,18.591,18.591,0,0,1-4.043,2.54,49.752,49.752,0,0,1-7.083,2.4,23.443,23.443,0,0,0-3.162,1.175,9.83,9.83,0,0,0-3.283,2.315,6.271,6.271,0,0,1-.138-4.941,11.558,11.558,0,0,1,2.678-4.25,24.047,24.047,0,0,1,7.291-4.647,36.434,36.434,0,0,0,5.563-2.885A30.789,30.789,0,0,0,408.326,101.92Z" transform="translate(1322.982 -5041.117)" fill="#f0a384"/>
    <path id="Trazado_153212" data-name="Trazado 153212" d="M439.273,135.527a21.129,21.129,0,0,0-14.08,11.316,28.592,28.592,0,0,0-2.021,17.017,35.384,35.384,0,0,0,.916,4.388c.38,1.5.933,3.162,1.33,5.045a18.449,18.449,0,0,1,.415,6.358,11.8,11.8,0,0,1-2.92,6.479,14.546,14.546,0,0,1-11.247,4.578,27.314,27.314,0,0,1-10.366-2.747,56.835,56.835,0,0,0,9.847-1.538,10.677,10.677,0,0,0,6.306-4.509,5.476,5.476,0,0,0,.674-2.868,14.586,14.586,0,0,0-.76-3.663l-1.589-4.7a39.614,39.614,0,0,1-1.279-5.494,29.076,29.076,0,0,1,4.924-22.1,22.1,22.1,0,0,1,9.07-6.911A16.067,16.067,0,0,1,439.273,135.527Z" transform="translate(1333.74 -5017.125)" fill="#f0a384"/>
    <path id="Trazado_153213" data-name="Trazado 153213" d="M419.543,161.131a5.321,5.321,0,0,0,.812,4.44,20.9,20.9,0,0,0,4.924,4.716,26.415,26.415,0,0,1,5.908,5.649,9.329,9.329,0,0,1,1.728,7.671,8.241,8.241,0,0,0-3.455-6.2,23.238,23.238,0,0,0-6.461-3.3,26.362,26.362,0,0,1-7.584-4.06,13.2,13.2,0,0,1-4.734-9.416Z" transform="translate(1340.566 -4998.398)" fill="#f0a384"/>
    <path id="Trazado_153214" data-name="Trazado 153214" d="M449.733,211.451a11.368,11.368,0,0,1-4.474,6.686,14.149,14.149,0,0,1-8.327,2.937,15.444,15.444,0,0,1-8.914-2.833,17.708,17.708,0,0,1-5.84-7.153c-2.4-5.338-2.66-10.089-4.2-13.579a14.5,14.5,0,0,0-3.455-4.976c-1.59-1.624-3.594-3.144-5.494-4.924a23.979,23.979,0,0,1,7.722,1.227A15.22,15.22,0,0,1,423.8,193.8a25.794,25.794,0,0,1,3.9,7.308c.916,2.35,1.589,4.526,2.436,6.271a12.456,12.456,0,0,0,2.989,4.3,10.746,10.746,0,0,0,4.44,2.54,11.886,11.886,0,0,0,5.8,0,15.34,15.34,0,0,0,6.358-2.764Z" transform="translate(1339.365 -4978.767)" fill="#f0a384"/>
    <path id="Trazado_153215" data-name="Trazado 153215" d="M366,130.777c1.952-.691,3.714-1.158,5.321-1.728a32.15,32.15,0,0,0,4.354-1.952,19.884,19.884,0,0,0,6.081-5.442c.449-.536.795-1.175,1.227-1.728a11.824,11.824,0,0,0,1.14-1.952,42.37,42.37,0,0,0,2.16-4.423,35.087,35.087,0,0,1,2.661-5.079,11.885,11.885,0,0,1,4.371-4.164c-.847,3.87-.415,7.031-.674,10.8A23.842,23.842,0,0,1,391.621,121a19,19,0,0,1-2.781,5.788,16.689,16.689,0,0,1-11.091,7.049A15.445,15.445,0,0,1,366,130.777Z" transform="translate(1308.055 -5039.378)" fill="#f0a384"/>
    <path id="Trazado_153216" data-name="Trazado 153216" d="M374.527,116.956a12.543,12.543,0,0,1,7.792-2.764,23.824,23.824,0,0,1,6.634.829,46.508,46.508,0,0,1,11.16,4.665,58.744,58.744,0,0,1,9.623,6.807,33.068,33.068,0,0,1,7.722,9.295,14.393,14.393,0,0,1,1.123,3.058,22.843,22.843,0,0,1,.536,3.006,25.754,25.754,0,0,1,0,5.995,29.783,29.783,0,0,1-3.628,11.074c-1.849,3.352-4.008,6.375-5.7,9.64a15.41,15.41,0,0,0-2.039,10.608,16,16,0,0,1,1.019-11.074c1.4-3.455,3.283-6.79,4.7-10.141a27.209,27.209,0,0,0,2.315-10.366,22.167,22.167,0,0,0-.5-5.183,19.874,19.874,0,0,0-.691-2.453,9.55,9.55,0,0,0-1-2.073,27.987,27.987,0,0,0-7.273-7.118,51.831,51.831,0,0,0-9.174-5.183,39.735,39.735,0,0,0-9.744-3.058,16.5,16.5,0,0,0-4.475-.138,3.835,3.835,0,0,0-2.488,1.071,4.457,4.457,0,0,1-7.221-5.183,5.184,5.184,0,0,1,.726-.777Z" transform="translate(1312.831 -5032.19)" fill="#f0a384"/>
    <path id="Trazado_153217" data-name="Trazado 153217" d="M276.138,221.1c-.795-2.557-1.244-4.44-1.624-6.237a39.15,39.15,0,0,1-.691-5.045,32.649,32.649,0,0,1,0-5.183,33.91,33.91,0,0,1,1.106-6.461,10.867,10.867,0,0,1,5.511,4.561,13.682,13.682,0,0,1,2.09,6.513,13.82,13.82,0,0,1-1.3,6.79A9.951,9.951,0,0,1,276.138,221.1Z" transform="translate(1240.91 -4971.083)" fill="#f0a384"/>
    <path id="Trazado_153218" data-name="Trazado 153218" d="M409.41,169.359a46.647,46.647,0,0,0-2.833-11.61,55.906,55.906,0,0,0-12.905-19.695,67.187,67.187,0,0,0-19.246-13.285,74.06,74.06,0,0,0-10.832-4.094c-1.849-.536-3.7-1.037-5.563-1.417s-3.732-.76-5.615-1.088-3.749-.518-5.615-.777-3.749-.363-5.632-.484c-3.749-.259-7.446-.38-11.23-.346a122.887,122.887,0,0,0-44.055,8.984,98.908,98.908,0,0,0-20.369,10.78,57.013,57.013,0,0,0-9.277,8.12,35.954,35.954,0,0,0-4.025,5.338,34.124,34.124,0,0,0-3.092,6.271,30.216,30.216,0,0,0-1.589,14.65,27.97,27.97,0,0,0,6.651,14.236,32.2,32.2,0,0,0,5.926,5.183,37.389,37.389,0,0,0,6.72,3.455,66.88,66.88,0,0,0,7.256,2.661c8.413,9.26,21.993,15.445,39.01,17.052,28.039,2.643,52.157-10.038,53.885-28.35.777-8.1-2.989-15.946-9.848-22.459l20.732-20.991a57.961,57.961,0,0,1,7.273,5.356,45.367,45.367,0,0,1,11.333,14.927,36.138,36.138,0,0,1,2.868,8.863,31.227,31.227,0,0,1,.5,4.544v5.027a76.31,76.31,0,0,1-3.4,20.04,58.962,58.962,0,0,1-9.07,17.795,56.319,56.319,0,0,1-6.772,7.446,63.723,63.723,0,0,1-8.068,6.15,73.3,73.3,0,0,1-9.087,4.768,77.217,77.217,0,0,1-9.778,3.455c-6.686,1.918-23.841,2.937-30.855,3.455a1.348,1.348,0,0,0-1.227,1.348,1.365,1.365,0,0,0,1.365,1.313,149.3,149.3,0,0,0,31.7-2.263,81.647,81.647,0,0,0,10.521-2.989,77,77,0,0,0,10.072-4.509,68.933,68.933,0,0,0,9.295-6.185,64.966,64.966,0,0,0,8.068-7.809,66.531,66.531,0,0,0,11.437-19.332,85.95,85.95,0,0,0,5.183-21.82c.19-1.883.328-3.7.432-5.632A39.6,39.6,0,0,0,409.41,169.359Zm-54.351-36.695L343.432,153.6a69.556,69.556,0,0,0-9.45-3.593l5.857-19.522a98.876,98.876,0,0,1,15.22,2.177Zm-24.93-2.488h5.77L330.285,148.9a73.833,73.833,0,0,0-8.534-1.555l2.3-16.879c2.021-.138,4.06-.259,6.081-.294Zm-31.287,17.777-2.332-11.541c3.213-1.14,6.5-2.108,9.813-2.937L306.012,147a67.636,67.636,0,0,0-7.17.95Zm-30.976,6.41a29.544,29.544,0,0,1,2.92-3.231c.363-.363.743-.691,1.14-1.037l4.906,6.911a36.019,36.019,0,0,0-4.716,4.233L266,157.058a20.885,20.885,0,0,1,1.866-2.7Zm17.985-2.488a47.572,47.572,0,0,0-5.839,3.023l-5.183-7.239a64.47,64.47,0,0,1,7.273-4.786Zm3.559-1.4-3.853-9.416c1.831-.916,3.7-1.728,5.615-2.591l1.728-.691,2.229,10.988a58.753,58.753,0,0,0-5.719,1.693Zm-25.016,10.642.1-.38,5.183,3.455a23.722,23.722,0,0,0-3.282,6.582,10,10,0,0,1-2-9.675Zm45.454-14.3.328-14.236h.121c1.451-.311,2.9-.587,4.371-.847l5.459-.743-2.177,16.05a80.065,80.065,0,0,0-8.1-.242ZM354.23,160.15a52.95,52.95,0,0,0-7.377-4.82l12.093-21.613a85.435,85.435,0,0,1,10.02,3.455c1.9.777,3.732,1.728,5.528,2.609Z" transform="translate(1221.644 -5030.467)" fill="#4588ff"/>
    <path id="Trazado_153219" data-name="Trazado 153219" d="M434.4,234.981c-7.964-.138-15.946-.121-23.91,0a30.716,30.716,0,0,0,5.615-3.593,47.269,47.269,0,0,0,10.366-12.093.419.419,0,1,0-.708-.449A46.976,46.976,0,0,1,415.312,230.4a28.608,28.608,0,0,1-6.669,3.853,20.729,20.729,0,0,1-2.28.743l-7.515.1-17.743.363-5.736.121c.726-.622,1.434-1.261,2.09-1.935a75.605,75.605,0,0,0,9.087-11.748c.743-1.14,1.469-2.28,2.194-3.455a20.351,20.351,0,0,1,2.781-1.831,31.878,31.878,0,0,1,5.77-2.367,41.2,41.2,0,0,1,6.15-1.4,28.452,28.452,0,0,1,6.289-.311.426.426,0,0,0,.086-.847,29.372,29.372,0,0,0-6.513,0,43.191,43.191,0,0,0-6.427,1.106,33.51,33.51,0,0,0-5.891,2.039,193.726,193.726,0,0,1,11.42-17.1.4.4,0,0,0,0-.553.415.415,0,0,0-.6,0,117.58,117.58,0,0,0-9.433,11.091c-.311.432-.622.864-.95,1.278.1-.691.19-1.4.225-2.09a36.832,36.832,0,0,0-1.728-13.389.421.421,0,0,0-.812.225,48.774,48.774,0,0,1,.9,6.513,32.634,32.634,0,0,1,0,6.5,25.1,25.1,0,0,1-1.451,6.22v.1q-2.3,3.162-4.665,6.237a74.981,74.981,0,0,1-9.277,10.556,24.7,24.7,0,0,1-5.408,3.749,18.158,18.158,0,0,1-9.07,1.123,35.5,35.5,0,0,1-9.312-1.555A19.524,19.524,0,0,1,347,232.009a13.6,13.6,0,0,1-6.34-11.938c-.259-9.709,6.911-13.545,6.911-23.548a27.054,27.054,0,0,0-3.265-13.614,81.9,81.9,0,0,1-8.794,9.986c-.6.587-1.227,1.175-1.866,1.728a3.29,3.29,0,0,1-.363.328c0,5.667-3.455,15.013-2.8,20.593,1.019,9.329,6.582,15.169,15.773,19.712a20.906,20.906,0,0,0,3.179,1.244,29.222,29.222,0,0,0,4.008.916c.967.155,2.453.4,2.764,1.3a1.831,1.831,0,0,1-.259,1.572,6.62,6.62,0,0,1-1.469,1.313,19.353,19.353,0,0,0-1.848,1.728A21.5,21.5,0,0,0,349.7,247.3c-3.352,5.788-4.423,12.612-4.751,19.211a194.066,194.066,0,0,0,.467,22.632c.1,1.555.225,3.092.363,4.63,1.434,6.91,3.006,13.942,4.8,20.956,1.088,4.285,2.194,8.638,3.317,12.8-.933-6.634-1.9-13.268-2.7-19.92a267.784,267.784,0,0,1-2.384-41.618c.225-6.582.881-14.339,5.563-19.453a16.793,16.793,0,0,1,7.256-5.079,11.472,11.472,0,0,1,7.636.4,25.377,25.377,0,0,1,5.649,3.455,73.555,73.555,0,0,1,9.9,10.038c1.624,1.9,3.213,3.835,4.8,5.788a3.905,3.905,0,0,0,.19.38,23.669,23.669,0,0,1,1.728,6.185,37.173,37.173,0,0,1,.363,6.513,55.941,55.941,0,0,1-.622,6.548.415.415,0,0,0,.311.484.449.449,0,0,0,.518-.311,41.155,41.155,0,0,0,1.123-6.651,34.319,34.319,0,0,0-.121-6.79c-.121-.916-.294-1.831-.5-2.73A142.09,142.09,0,0,0,403.875,277.2a.449.449,0,0,0,.587,0,.415.415,0,0,0,0-.6,174.065,174.065,0,0,1-12.767-16.81l.225.1a32.3,32.3,0,0,0,6.271,1.883,42.621,42.621,0,0,0,6.461.812,29.374,29.374,0,0,0,6.5-.328.42.42,0,1,0-.138-.829,29.369,29.369,0,0,1-6.289,0,41.748,41.748,0,0,1-6.219-1.054,32.012,32.012,0,0,1-5.926-2.039,19.483,19.483,0,0,1-3.179-1.883L387.2,253.4a78.5,78.5,0,0,0-9.606-11.3c-.812-.743-1.728-1.468-2.591-2.16l6.289-.4L399,238.332l6.237-.449a25.733,25.733,0,0,1,3.144.864,37.572,37.572,0,0,1,6.755,3.179,48.548,48.548,0,0,1,6.168,4.285,34.984,34.984,0,0,1,5.338,5.183.4.4,0,0,0,.57.086.415.415,0,0,0,.1-.587,35.638,35.638,0,0,0-5.287-5.649,50.846,50.846,0,0,0-6.168-4.63,41.3,41.3,0,0,0-5.926-3.144l24.463-1.728a.381.381,0,1,0,0-.76Z" transform="translate(1282.153 -4982.186)" fill="#ff9380"/>
    <path id="Trazado_153220" data-name="Trazado 153220" d="M291.433,186.945a8.5,8.5,0,0,0-7.878,7.964,6.72,6.72,0,0,0,5.027,6.911c3.645.795,7.049-2.211,8.811-5.183a6.392,6.392,0,0,0,.57-6.323,7.083,7.083,0,0,0-4.855-3.352,7.894,7.894,0,0,0-1.676-.017Z" transform="translate(1248.057 -4979.276)" fill="#8058e3"/>
    <path id="Trazado_153329" data-name="Trazado 153329" d="M0,0H170.569" transform="translate(1268.702 -4864.701)" fill="none" stroke="#3e2ea6" stroke-width="1"/>
    <path id="Trazado_153330" data-name="Trazado 153330" d="M6.5,0A6.5,6.5,0,1,1,0,6.5,6.5,6.5,0,0,1,6.5,0Z" transform="translate(1262.534 -4871.197)" fill="#3e2ea6"/>
    <path id="Trazado_153333" data-name="Trazado 153333" d="M6.5,0A6.5,6.5,0,1,1,0,6.5,6.5,6.5,0,0,1,6.5,0Z" transform="translate(1432.446 -4871.197)" fill="#3e2ea6"/>
    <path id="Trazado_153332" data-name="Trazado 153332" d="M0,0H204.067" transform="translate(1336.684 -4991.958)" fill="none" stroke="#3e2ea6" stroke-width="1"/>
    <path id="Trazado_153331" data-name="Trazado 153331" d="M6.5,0A6.5,6.5,0,1,1,0,6.5,6.5,6.5,0,0,1,6.5,0Z" transform="translate(1330.516 -4998.454)" fill="#3e2ea6"/>
    <path id="Trazado_153335" data-name="Trazado 153335" d="M6.5,0A6.5,6.5,0,1,1,0,6.5,6.5,6.5,0,0,1,6.5,0Z" transform="translate(1533.927 -4998.454)" fill="#3e2ea6"/>
    <path id="Trazado_153336" data-name="Trazado 153336" d="M0,0H153.154" transform="translate(1723.914 -4726.992)" fill="none" stroke="#3e2ea6" stroke-width="1"/>
    <path id="Trazado_153337" data-name="Trazado 153337" d="M6.5,0A6.5,6.5,0,1,1,0,6.5,6.5,6.5,0,0,1,6.5,0Z" transform="translate(1717.747 -4733.488)" fill="#3e2ea6"/>
    <path id="Trazado_153338" data-name="Trazado 153338" d="M6.5,0A6.5,6.5,0,1,1,0,6.5,6.5,6.5,0,0,1,6.5,0Z" transform="translate(1870.245 -4733.488)" fill="#3e2ea6"/>
    <path id="Trazado_150570" data-name="Trazado 150570" d="M181.477,65.164V52.5A34.017,34.017,0,0,0,147.46,86.534h0a34,34,0,0,0,34.017,34.017h0V107.888a21.371,21.371,0,0,1,0-42.724Z" transform="translate(1149.039 -5077.076)" fill="#8880c7" opacity="0.18"/>
    <g id="Grupo_89698" data-name="Grupo 89698" transform="translate(1330.516 -5024.576)" opacity="0.31">
      <path id="Trazado_150571" data-name="Trazado 150571" d="M167.15,120.551a34.017,34.017,0,0,0,34.034-34.017h0A34.034,34.034,0,0,0,167.15,52.5h0V65.164a21.371,21.371,0,1,1,0,42.724Z" transform="translate(-167.15 -52.5)" fill="#6558b5"/>
    </g>
    <path id="Trazado_153221" data-name="Trazado 153221" d="M198.381,81.455A21.975,21.975,0,0,0,176.405,59.48h0a21.975,21.975,0,0,0,0,43.951h0a21.958,21.958,0,0,0,21.975-21.975Z" transform="translate(1154.111 -5071.998)" fill="#3f3466"/>
    <path id="Trazado_150570-2" data-name="Trazado 150570" d="M141.387,137.5V124.84a34.034,34.034,0,0,0-34.017,34.017h0a34.034,34.034,0,0,0,34.017,34.034h0V180.228a21.371,21.371,0,0,1,0-42.724Z" transform="translate(1119.869 -5024.439)" fill="#8880c7" opacity="0.18"/>
    <g id="Grupo_89698-2" data-name="Grupo 89698" transform="translate(1261.256 -4899.599)" opacity="0.31">
      <path id="Trazado_150571-2" data-name="Trazado 150571" d="M127.06,192.891a34.034,34.034,0,0,0,34.034-34.034h0A34.034,34.034,0,0,0,127.06,124.84h0V137.5a21.371,21.371,0,1,1,0,42.724Z" transform="translate(-127.06 -124.84)" fill="#6558b5"/>
    </g>
    <path id="Trazado_153222" data-name="Trazado 153222" d="M158.55,153.789a21.975,21.975,0,0,0-21.975-21.975h0a21.975,21.975,0,1,0,0,43.934h0A21.958,21.958,0,0,0,158.55,153.789Z" transform="translate(1124.681 -5019.371)" fill="#3f3466"/>
    <path id="Trazado_150570-3" data-name="Trazado 150570" d="M493.184,217.473V204.81a34.034,34.034,0,0,0-34.034,34.017h0a34.034,34.034,0,0,0,34.034,34.034h0V260.2a21.371,21.371,0,1,1,0-42.724Z" transform="translate(1375.834 -4966.251)" fill="#8880c7" opacity="0.18"/>
    <g id="Grupo_89698-3" data-name="Grupo 89698" transform="translate(1869.018 -4761.424)" opacity="0.31">
      <path id="Trazado_150571-3" data-name="Trazado 150571" d="M478.85,272.854a34.017,34.017,0,0,0,34.017-34.017h0A34.017,34.017,0,0,0,478.85,204.82h0v12.664a21.371,21.371,0,0,1,0,42.724Z" transform="translate(-478.85 -204.82)" fill="#6558b5"/>
    </g>
    <path id="Trazado_153223" data-name="Trazado 153223" d="M510.34,233.759a21.993,21.993,0,0,0-21.975-21.975h0a21.975,21.975,0,1,0,0,43.934h0A21.993,21.993,0,0,0,510.34,233.759Z" transform="translate(1380.653 -4961.183)" fill="#3f3466"/>
  </g>
</svg>
