<svg id="Capa_1" data-name="Capa 1" xmlns="http://www.w3.org/2000/svg" width="1240" height="770" viewBox="0 0 1240 770">
  <defs>
    <style>
      .cls-1 {
        fill: #6558b8;
      }

      .cls-2 {
        fill: #d8d5ed;
      }

      .cls-3, .cls-7 {
        font-size: 18px;
      }

      .cls-29, .cls-3, .cls-35 {
        fill: #091320;
      }

      .cls-29, .cls-3, .cls-7 {
        font-family: Roboto-Bold, Roboto;
        font-weight: 700;
      }

      .cls-4 {
        letter-spacing: -0.01em;
      }

      .cls-5 {
        letter-spacing: -0.01em;
      }

      .cls-32, .cls-6 {
        letter-spacing: -0.01em;
      }

      .cls-39, .cls-42, .cls-7 {
        fill: #fff;
      }

      .cls-10, .cls-8 {
        fill: #8b82ca;
      }

      .cls-8 {
        opacity: 0.18;
      }

      .cls-9 {
        opacity: 0.31;
      }

      .cls-11 {
        fill: #3f3466;
      }

      .cls-12, .cls-40 {
        fill: #3e2ea6;
      }

      .cls-13 {
        fill: #05dbf2;
      }

      .cls-14 {
        fill: #ea6890;
      }

      .cls-15 {
        fill: #ef8633;
      }

      .cls-16 {
        fill: #f6c196;
      }

      .cls-17 {
        fill: #83f29e;
      }

      .cls-18 {
        fill: #f26da0;
      }

      .cls-19 {
        fill: #f2a466;
      }

      .cls-20 {
        opacity: 0.5;
      }

      .cls-21 {
        fill: #9fffd8;
      }

      .cls-22 {
        fill: #dfff7d;
      }

      .cls-23 {
        fill: #91e0e2;
      }

      .cls-24 {
        fill: #6f55ad;
      }

      .cls-25 {
        fill: #8fefdf;
      }

      .cls-26 {
        fill: #ffc050;
      }

      .cls-27 {
        fill: #ff6470;
      }

      .cls-28 {
        fill: #9bf1fa;
      }

      .cls-29, .cls-35 {
        font-size: 16px;
      }

      .cls-30 {
        letter-spacing: -0.02em;
      }

      .cls-31, .cls-32, .cls-35 {
        font-family: Roboto-Regular, Roboto;
      }

      .cls-31, .cls-32 {
        font-weight: 400;
      }

      .cls-33 {
        letter-spacing: 0.02em;
      }

      .cls-34 {
        letter-spacing: -0.02em;
      }

      .cls-36 {
        letter-spacing: -0.01em;
      }

      .cls-37 {
        letter-spacing: -0.01em;
      }

      .cls-38 {
        letter-spacing: -0.01em;
      }

      .cls-39, .cls-40, .cls-41 {
        fill-rule: evenodd;
      }

      .cls-41, .cls-44 {
        fill: #b2abdb;
      }

      .cls-43 {
        fill: none;
        stroke: #b2abdb;
        stroke-miterlimit: 10;
      }
    </style>
  </defs>
  <rect class="cls-1" x="791.14" y="41.16" width="383.05" height="60.89" rx="30.45"/>
  <rect class="cls-2" x="76.95" y="41.16" width="383.05" height="60.89" rx="30.45"/>
  <text class="cls-3" transform="translate(115.12 73.56)">Hemis<tspan class="cls-4" x="52.06" y="0">f</tspan><tspan x="58.3" y="0">erio I</tspan><tspan class="cls-5" x="99.27" y="0">z</tspan><tspan x="108.29" y="0">quie</tspan><tspan class="cls-6" x="143.03" y="0">r</tspan><tspan x="149.43" y="0">do</tspan></text>
  <text class="cls-7" transform="translate(953 73.56)">Hemis<tspan class="cls-4" x="52.06" y="0">f</tspan><tspan x="58.3" y="0">erio De</tspan><tspan class="cls-6" x="115.45" y="0">r</tspan><tspan x="121.85" y="0">echo</tspan></text>
  <g>
    <g>
      <path class="cls-8" d="M620,236.81V126.74c-163.29,0-295.67,132.38-295.67,295.67S456.71,718.08,620,718.08V608c-102.5,0-185.6-83.09-185.6-185.59S517.5,236.81,620,236.81Z"/>
      <g class="cls-9">
        <path class="cls-1" d="M620,718.08c163.29,0,295.67-132.38,295.67-295.67S783.29,126.74,620,126.74V236.81c102.5,0,185.6,83.1,185.6,185.6S722.5,608,620,608Z"/>
      </g>
    </g>
    <g>
      <path class="cls-10" d="M429.09,422.41c0,105.43,85.48,190.9,190.91,190.9V231.5C514.57,231.5,429.09,317,429.09,422.41Z"/>
      <path class="cls-11" d="M810.91,422.41C810.91,317,725.43,231.5,620,231.5V613.31C725.43,613.31,810.91,527.84,810.91,422.41Z"/>
    </g>
    <g>
      <path class="cls-12" d="M612.6,520.2v-183S617,267.49,592.34,259c-12.48-4.32-26,6.29-27.21,17.46-12.22-3.07-32.35,13.51-35.78,32.55-26.07,1.64-45.11,32.58-37.78,59.82-18.73,10-28.76,34.15-23.37,55.12-15.9,17.12-13,55.78,6.62,65.78-9.63,20.53,15.36,58.8,43.26,52.14C541.05,599.55,614.22,547.92,612.6,520.2Z"/>
      <g>
        <polygon class="cls-13" points="596.97 334.89 596.97 327.64 589.72 327.64 596.97 334.89"/>
        <polygon class="cls-13" points="588.57 328.79 588.57 336.04 595.82 336.04 588.57 328.79"/>
      </g>
      <g>
        <path class="cls-13" d="M476.11,441a7.82,7.82,0,0,0-8.3,0l1.68,1.68a5.51,5.51,0,0,1,4.94,0Z"/>
        <g>
          <path class="cls-13" d="M467,450.06a5.54,5.54,0,0,1,0-4.94l-1.69-1.69a7.83,7.83,0,0,0,0,8.31Z"/>
          <path class="cls-13" d="M474.43,452.52a5.51,5.51,0,0,1-4.94,0l-1.68,1.68a7.8,7.8,0,0,0,8.3,0Z"/>
        </g>
        <path class="cls-13" d="M469.59,445.21a3.36,3.36,0,1,0,4.75,0A3.34,3.34,0,0,0,469.59,445.21Z"/>
      </g>
      <rect class="cls-14" x="494.42" y="428.15" width="10.54" height="1.06" transform="translate(-156.76 478.92) rotate(-45)"/>
      <rect class="cls-14" x="498.67" y="432.4" width="10.54" height="1.06" transform="translate(-158.52 483.16) rotate(-45)"/>
      <rect class="cls-14" x="502.78" y="436.51" width="10.54" height="1.06" transform="translate(-160.22 487.27) rotate(-45)"/>
      <polygon class="cls-15" points="552.38 548.67 516.9 513.19 517.65 512.44 552.38 547.17 588.63 510.92 487.28 409.56 590.43 306.41 590.43 272.13 591.49 272.13 591.49 306.85 488.77 409.56 590.13 510.92 552.38 548.67"/>
      <g>
        <polygon class="cls-16" points="486.9 416.28 493.25 409.93 486.9 403.58 486.9 416.28"/>
        <polygon class="cls-16" points="484.89 403.58 478.54 409.93 484.89 416.28 484.89 403.58"/>
      </g>
      <polygon class="cls-15" points="562.5 484.31 561.75 483.57 595.03 450.29 595.03 350.78 596.08 350.78 596.08 450.73 562.5 484.31"/>
      <polygon class="cls-14" points="578.44 468.43 577.38 468.43 577.38 391.46 568.38 382.38 568.38 353 561.75 346.33 562.5 345.58 569.43 352.57 569.43 381.95 578.44 391.02 578.44 468.43"/>
      <polygon class="cls-17" points="595.18 450.88 586.53 442.23 586.53 374.18 587.59 374.18 587.59 441.8 595.93 450.14 595.18 450.88"/>
      <path class="cls-13" d="M593.42,450.05a2.23,2.23,0,1,0,2.23-2.23A2.23,2.23,0,0,0,593.42,450.05Z"/>
      <path class="cls-18" d="M579.49,495a2.23,2.23,0,1,0,2.23-2.23A2.23,2.23,0,0,0,579.49,495Z"/>
      <path class="cls-18" d="M573.55,550.52a2.23,2.23,0,1,0,2.23-2.23A2.23,2.23,0,0,0,573.55,550.52Z"/>
      <path class="cls-13" d="M585,374.74a2.23,2.23,0,1,0,2.23-2.23A2.23,2.23,0,0,0,585,374.74Z"/>
      <path class="cls-16" d="M576.43,378.64a2.23,2.23,0,1,0,2.23-2.23A2.23,2.23,0,0,0,576.43,378.64Z"/>
      <path class="cls-18" d="M531.86,412.49a2.23,2.23,0,1,0,2.22-2.23A2.21,2.21,0,0,0,531.86,412.49Z"/>
      <path class="cls-18" d="M541.05,386.72a2.23,2.23,0,1,0,2.23-2.23A2.23,2.23,0,0,0,541.05,386.72Z"/>
      <g>
        <path class="cls-18" d="M489.58,399.9a1.33,1.33,0,1,0,1.33-1.32A1.33,1.33,0,0,0,489.58,399.9Z"/>
        <path class="cls-16" d="M492.69,396.79a1.33,1.33,0,1,0,2.65,0,1.33,1.33,0,0,0-2.65,0Z"/>
        <path class="cls-18" d="M495.8,393.68a1.33,1.33,0,1,0,2.65,0,1.33,1.33,0,0,0-2.65,0Z"/>
        <path class="cls-13" d="M498.91,390.57a1.33,1.33,0,1,0,2.65,0,1.33,1.33,0,0,0-2.65,0Z"/>
        <path class="cls-16" d="M502,387.46a1.32,1.32,0,1,0,1.32-1.32A1.32,1.32,0,0,0,502,387.46Z"/>
        <path class="cls-18" d="M505.14,384.35a1.32,1.32,0,1,0,1.32-1.32A1.32,1.32,0,0,0,505.14,384.35Z"/>
        <path class="cls-18" d="M508.25,381.24a1.32,1.32,0,1,0,1.32-1.32A1.32,1.32,0,0,0,508.25,381.24Z"/>
      </g>
      <g>
        <path class="cls-18" d="M486.29,483.5a1.33,1.33,0,1,0,1.32,1.32A1.33,1.33,0,0,0,486.29,483.5Z"/>
        <path class="cls-16" d="M489.4,486.61a1.33,1.33,0,1,0,1.32,1.32A1.33,1.33,0,0,0,489.4,486.61Z"/>
        <path class="cls-18" d="M492.51,489.72a1.33,1.33,0,1,0,1.32,1.32A1.33,1.33,0,0,0,492.51,489.72Z"/>
        <path class="cls-13" d="M495.62,492.83a1.33,1.33,0,1,0,1.32,1.32A1.32,1.32,0,0,0,495.62,492.83Z"/>
        <path class="cls-16" d="M498.73,495.94a1.33,1.33,0,1,0,1.32,1.32A1.32,1.32,0,0,0,498.73,495.94Z"/>
        <path class="cls-18" d="M501.84,499.05a1.33,1.33,0,1,0,1.32,1.33A1.32,1.32,0,0,0,501.84,499.05Z"/>
        <path class="cls-18" d="M505,502.16a1.33,1.33,0,1,0,1.32,1.33A1.33,1.33,0,0,0,505,502.16Z"/>
      </g>
      <path class="cls-13" d="M514.86,380a2.23,2.23,0,1,0,2.23-2.23A2.23,2.23,0,0,0,514.86,380Z"/>
      <path class="cls-18" d="M560.36,346.37a2.23,2.23,0,1,0,2.23-2.23A2.23,2.23,0,0,0,560.36,346.37Z"/>
      <polygon class="cls-14" points="594.44 349.08 582.24 349.08 568.62 335.46 596.98 307.11 596.98 285.88 598.03 285.88 598.03 307.55 570.12 335.46 582.68 348.03 594.44 348.03 594.44 349.08"/>
      <polygon class="cls-15" points="596.39 341.98 586 341.98 578.23 334.21 595.67 316.77 596.42 317.52 579.73 334.21 586.44 340.92 596.39 340.92 596.39 341.98"/>
      <path class="cls-18" d="M595.42,286.85a2.23,2.23,0,1,0,2.22-2.23A2.22,2.22,0,0,0,595.42,286.85Z"/>
      <polygon class="cls-15" points="579 378.73 577.94 378.73 577.94 353.79 561.29 337.14 562.04 336.39 579 353.35 579 378.73"/>
      <g>
        <polygon class="cls-16" points="588.13 366.05 588.13 367.35 588.98 368.21 588.99 365.19 585.96 365.19 586.82 366.05 588.13 366.05"/>
        <polygon class="cls-16" points="587.64 367.83 586.34 367.83 586.34 366.53 585.49 365.67 585.48 368.69 588.5 368.69 587.64 367.83"/>
      </g>
      <g>
        <polygon class="cls-16" points="594.55 467.21 592.61 467.21 591.32 468.49 595.84 468.5 595.84 463.99 594.56 465.27 594.55 467.21"/>
        <polygon class="cls-16" points="591.9 466.49 591.9 464.55 593.84 464.55 595.13 463.27 590.62 463.27 590.61 467.78 591.9 466.49"/>
      </g>
      <g>
        <polygon class="cls-16" points="586.96 528.97 586.03 528.05 584.82 528.05 586.96 530.19 589.1 528.05 587.88 528.05 586.96 528.97"/>
        <polygon class="cls-16" points="586.04 527.37 586.96 526.45 587.88 527.37 589.1 527.38 586.96 525.24 584.82 527.37 586.04 527.37"/>
      </g>
      <g>
        <polygon class="cls-16" points="588.13 360.57 588.13 361.87 588.98 362.74 588.99 359.71 585.96 359.71 586.82 360.57 588.13 360.57"/>
        <polygon class="cls-16" points="587.64 362.35 586.34 362.35 586.34 361.05 585.49 360.19 585.48 363.21 588.5 363.21 587.64 362.35"/>
      </g>
      <g>
        <polygon class="cls-18" points="588.13 355.09 588.13 356.39 588.98 357.26 588.99 354.23 585.96 354.23 586.82 355.09 588.13 355.09"/>
        <polygon class="cls-18" points="587.64 356.87 586.34 356.87 586.34 355.57 585.49 354.71 585.48 357.73 588.5 357.73 587.64 356.87"/>
      </g>
      <rect class="cls-15" x="578.66" y="366.41" width="7.24" height="1.06"/>
      <rect class="cls-14" x="586.76" y="348.18" width="1.06" height="6.13"/>
      <rect class="cls-15" x="588.5" y="360.93" width="7.06" height="1.06"/>
      <polygon class="cls-19" points="517.93 506.88 517.18 506.13 566.89 456.42 566.89 398.92 541.65 373.68 505.49 409.84 517.23 421.58 516.49 422.33 503.99 409.84 541.65 372.18 567.95 398.48 567.95 456.86 517.93 506.88"/>
      <polygon class="cls-17" points="578.61 514.26 512.6 448.25 469.64 448.25 469.64 447.2 513.04 447.2 579.36 513.51 578.61 514.26"/>
      <polygon class="cls-17" points="555.47 511.51 517.63 473.27 517.74 454.36 489.54 454.2 489.42 476.3 508.99 496.07 513.32 491.78 499.96 478.28 500.04 464.13 501.1 464.14 501.02 477.85 514.82 491.79 508.98 497.57 488.36 476.73 488.49 453.14 518.8 453.3 518.69 472.84 556.22 510.77 555.47 511.51"/>
      <polygon class="cls-15" points="583.39 504.37 582.65 503.62 592.94 493.33 592.94 467.23 594 467.23 594 493.77 583.39 504.37"/>
      <polygon class="cls-14" points="581.53 495.46 574.13 488.06 574.13 471.4 575.19 471.4 575.19 487.62 582.28 494.71 581.53 495.46"/>
      <rect class="cls-15" x="583.88" y="461.31" width="1.06" height="24.58"/>
      <polygon class="cls-14" points="576.57 550.75 575.82 550 596.7 529.13 596.7 512.63 597.75 512.63 597.75 529.57 576.57 550.75"/>
      <polygon class="cls-15" points="560.75 540.22 560.75 539.17 575.29 539.12 586.11 528.24 586.86 528.98 575.74 540.18 560.75 540.22"/>
      <polygon class="cls-14" points="545.69 466.76 544.95 466.02 558.07 452.89 558.07 401.8 542.95 386.68 543.7 385.93 559.13 401.36 559.13 453.33 545.69 466.76"/>
      <polygon class="cls-14" points="551.79 459.89 550.73 459.89 550.73 410.15 543.74 403.16 534.09 412.81 533.34 412.07 543.74 401.66 551.79 409.71 551.79 459.89"/>
      <rect class="cls-15" x="507.21" y="404.9" width="33.22" height="1.06" transform="translate(-133.26 489.15) rotate(-45)"/>
      <polygon class="cls-15" points="537.32 449.88 530.32 442.65 531.08 441.91 537.32 448.36 542.93 442.57 542.93 417.74 520.26 441.15 519.5 440.41 543.99 415.13 543.99 443 537.32 449.88"/>
      <polygon class="cls-17" points="562.1 382.7 538.42 359.03 539.17 358.28 561.04 380.15 561.04 357.76 557.98 354.7 554.98 357.7 554.23 356.96 557.98 353.2 562.1 357.32 562.1 382.7"/>
      <g class="cls-20">
        <polygon class="cls-21" points="518.56 369.18 520.6 367.15 517.95 364.5 515.91 366.54 518.56 369.18"/>
        <polygon class="cls-21" points="522.16 365.58 524.2 363.55 521.54 360.91 519.51 362.94 522.16 365.58"/>
        <polygon class="cls-21" points="525.76 361.99 527.79 359.95 525.14 357.31 523.11 359.34 525.76 361.99"/>
        <polygon class="cls-21" points="529.36 358.39 531.39 356.35 528.74 353.71 526.71 355.74 529.36 358.39"/>
        <rect class="cls-21" x="531.21" y="350.58" width="2.87" height="3.74" transform="translate(-93.24 479.71) rotate(-44.99)"/>
        <polygon class="cls-21" points="536.55 351.19 538.59 349.16 535.94 346.51 533.9 348.55 536.55 351.19"/>
      </g>
      <g class="cls-20">
        <polygon class="cls-21" points="510.49 361.1 512.52 359.07 509.87 356.43 507.84 358.46 510.49 361.1"/>
        <polygon class="cls-21" points="514.08 357.5 516.12 355.47 513.47 352.83 511.43 354.86 514.08 357.5"/>
        <polygon class="cls-21" points="517.68 353.91 519.72 351.87 517.06 349.23 515.03 351.26 517.68 353.91"/>
        <polygon class="cls-21" points="521.28 350.31 523.31 348.27 520.66 345.63 518.63 347.67 521.28 350.31"/>
        <rect class="cls-21" x="523.13" y="342.5" width="2.87" height="3.74" transform="translate(-89.89 471.68) rotate(-44.99)"/>
        <rect class="cls-21" x="526.73" y="338.9" width="2.88" height="3.74" transform="translate(-86.25 473.36) rotate(-45.01)"/>
      </g>
      <rect class="cls-13" x="550.76" y="322.93" width="11.93" height="3.88" transform="translate(-66.66 488.81) rotate(-45)"/>
      <rect class="cls-18" x="545.43" y="319.13" width="3.87" height="4.17" transform="translate(-66.8 481.15) rotate(-45)"/>
      <rect class="cls-16" x="566.51" y="298.05" width="3.87" height="4.17" transform="translate(-45.71 489.92) rotate(-45.01)"/>
      <rect class="cls-16" x="536.24" y="328.32" width="3.87" height="4.17" transform="translate(-75.99 477.38) rotate(-45.01)"/>
      <rect class="cls-13" x="548.18" y="355.55" width="7.47" height="8.01" transform="translate(-92.59 495.58) rotate(-45)"/>
      <rect class="cls-22" x="515.5" y="419.26" width="7.47" height="8.01" transform="translate(-147.21 491.12) rotate(-45)"/>
      <rect class="cls-18" x="562.09" y="311.6" width="11.93" height="3.88" transform="translate(-55.32 493.51) rotate(-45)"/>
      <rect class="cls-17" x="498.95" y="437.41" width="1.06" height="10.54"/>
      <polygon class="cls-15" points="491.45 438.04 483.62 430.21 504.92 408.91 505.67 409.66 485.12 430.21 492.2 437.29 491.45 438.04"/>
      <rect class="cls-18" x="576.33" y="423.91" width="3.34" height="6.96"/>
      <rect class="cls-18" x="572.48" y="468.06" width="6.96" height="3.34" transform="translate(-163.46 544.77) rotate(-44.99)"/>
      <rect class="cls-16" x="532.88" y="486.12" width="3.34" height="6.96" transform="translate(-189.63 521.47) rotate(-45.01)"/>
      <polygon class="cls-15" points="528.98 495.36 509.6 475.99 509.6 462.49 510.66 462.49 510.66 475.55 529.72 494.62 528.98 495.36"/>
      <rect class="cls-13" x="495.36" y="458.22" width="17.83" height="6.5"/>
      <rect class="cls-17" x="549.9" y="515.42" width="25.8" height="1.06" transform="translate(-199.99 549.08) rotate(-45)"/>
      <rect class="cls-23" x="539.64" y="505.74" width="9.59" height="1.06" transform="translate(-198.53 533.26) rotate(-45)"/>
      <g>
        <g>
          <path class="cls-16" d="M512.63,504.61a5.63,5.63,0,0,0-4.22,4.22h1.72a4,4,0,0,1,2.5-2.52Z"/>
          <path class="cls-16" d="M515.14,504.61v1.7a4,4,0,0,1,2.51,2.52h1.71A5.63,5.63,0,0,0,515.14,504.61Z"/>
        </g>
        <g>
          <path class="cls-16" d="M512.63,513.84a4,4,0,0,1-2.5-2.51h-1.72a5.63,5.63,0,0,0,4.22,4.22Z"/>
          <path class="cls-16" d="M517.65,511.33a4,4,0,0,1-2.51,2.51v1.71a5.63,5.63,0,0,0,4.22-4.22Z"/>
        </g>
      </g>
      <g>
        <g>
          <g>
            <path class="cls-16" d="M556.53,541.44a7.83,7.83,0,0,0-8.31,0l1.69,1.68a5.54,5.54,0,0,1,4.94,0Z"/>
            <path class="cls-16" d="M559,543.9l-1.69,1.69a5.49,5.49,0,0,1,0,4.93l1.69,1.69A7.86,7.86,0,0,0,559,543.9Z"/>
          </g>
          <g>
            <path class="cls-16" d="M547.44,550.53a5.54,5.54,0,0,1,0-4.94l-1.68-1.69a7.83,7.83,0,0,0,0,8.31Z"/>
            <path class="cls-16" d="M554.84,553a5.49,5.49,0,0,1-4.93,0l-1.69,1.68a7.81,7.81,0,0,0,8.31,0Z"/>
          </g>
        </g>
        <path class="cls-16" d="M550,545.68a3.36,3.36,0,1,0,4.75,0A3.36,3.36,0,0,0,550,545.68Z"/>
      </g>
      <g>
        <g>
          <g>
            <path class="cls-16" d="M597.6,270.57a7,7,0,0,0-5.26-5.26v2.13a5,5,0,0,1,3.13,3.13Z"/>
            <path class="cls-16" d="M597.6,273.7h-2.13a5,5,0,0,1-3.13,3.12V279A7,7,0,0,0,597.6,273.7Z"/>
          </g>
          <g>
            <path class="cls-16" d="M586.08,270.57a5,5,0,0,1,3.13-3.13v-2.13a7,7,0,0,0-5.26,5.26Z"/>
            <path class="cls-16" d="M589.21,276.82a5,5,0,0,1-3.13-3.12H584a7,7,0,0,0,5.26,5.26Z"/>
          </g>
        </g>
        <path class="cls-16" d="M590.77,269.12a3,3,0,1,0,3,3A3,3,0,0,0,590.77,269.12Z"/>
      </g>
      <g>
        <g>
          <path class="cls-22" d="M528.6,437.14a3.34,3.34,0,0,0-2.51,2.5h1a2.37,2.37,0,0,1,1.49-1.49Z"/>
          <path class="cls-22" d="M530.09,437.14v1a2.4,2.4,0,0,1,1.49,1.49h1A3.32,3.32,0,0,0,530.09,437.14Z"/>
        </g>
        <g>
          <path class="cls-22" d="M528.6,442.62a2.35,2.35,0,0,1-1.49-1.49h-1a3.35,3.35,0,0,0,2.51,2.51Z"/>
          <path class="cls-22" d="M531.58,441.13a2.37,2.37,0,0,1-1.49,1.49v1a3.34,3.34,0,0,0,2.5-2.51Z"/>
        </g>
      </g>
      <polygon class="cls-17" points="516.9 380.59 506.69 370.38 513.28 363.78 514.03 364.53 508.18 370.38 517.65 379.85 516.9 380.59"/>
      <g class="cls-20">
        <rect class="cls-21" x="552.08" y="519.56" width="3.74" height="2.21" transform="translate(-205.91 544.25) rotate(-45)"/>
        <rect class="cls-21" x="549.32" y="516.79" width="3.74" height="2.21" transform="translate(-204.76 541.56) rotate(-45.01)"/>
        <rect class="cls-21" x="546.55" y="514.02" width="3.74" height="2.21" transform="translate(-203.62 538.68) rotate(-45)"/>
        <rect class="cls-21" x="543.78" y="511.26" width="3.74" height="2.21" transform="translate(-202.48 535.85) rotate(-45)"/>
        <rect class="cls-21" x="541.02" y="508.49" width="3.74" height="2.21" transform="translate(-201.33 533.06) rotate(-44.99)"/>
        <rect class="cls-21" x="538.25" y="505.73" width="3.74" height="2.21" transform="translate(-200.19 530.37) rotate(-45)"/>
      </g>
      <g class="cls-20">
        <rect class="cls-21" x="544.93" y="526.71" width="3.74" height="2.21" transform="translate(-213.06 541.31) rotate(-45)"/>
        <rect class="cls-21" x="542.17" y="523.94" width="3.74" height="2.21" transform="translate(-211.92 538.6) rotate(-45.01)"/>
        <rect class="cls-21" x="539.4" y="521.17" width="3.74" height="2.21" transform="translate(-210.77 535.7) rotate(-45)"/>
        <rect class="cls-21" x="536.63" y="518.41" width="3.74" height="2.21" transform="translate(-209.63 532.89) rotate(-45)"/>
        <rect class="cls-21" x="533.87" y="515.64" width="3.74" height="2.21" transform="translate(-208.48 530.11) rotate(-45)"/>
        <rect class="cls-21" x="531.1" y="512.88" width="3.74" height="2.21" transform="translate(-207.34 527.41) rotate(-45)"/>
      </g>
      <rect class="cls-13" x="537.85" y="500.19" width="10.67" height="33.42" transform="translate(-206.41 535.48) rotate(-45)"/>
      <rect class="cls-13" x="506.99" y="348.05" width="32.83" height="10.67" transform="translate(-96.58 473.61) rotate(-45)"/>
      <g>
        <polygon class="cls-18" points="593.5 517.12 599.85 510.77 593.5 504.43 593.5 517.12"/>
        <polygon class="cls-18" points="591.49 504.43 585.14 510.78 591.49 517.13 591.49 504.43"/>
      </g>
      <g>
        <g>
          <polygon class="cls-24" points="527.85 353.51 527.84 348.96 523.3 348.96 527.85 353.51"/>
          <polygon class="cls-24" points="519.29 352.96 519.3 357.51 523.84 357.51 519.29 352.96"/>
        </g>
        <rect class="cls-24" x="520.24" y="352.1" width="6.71" height="2.21" transform="translate(-96.4 473.69) rotate(-45)"/>
      </g>
      <g>
        <g>
          <polygon class="cls-24" points="542.8 520.75 547.34 520.75 547.35 516.2 542.8 520.75"/>
          <polygon class="cls-24" points="543.34 512.2 538.8 512.2 538.79 516.75 543.34 512.2"/>
        </g>
        <rect class="cls-24" x="541.99" y="513.14" width="2.21" height="6.71" transform="translate(-206.15 535.56) rotate(-45.02)"/>
      </g>
      <g>
        <g>
          <polygon class="cls-16" points="502.62 459.25 500.36 461.52 502.62 463.79 502.62 459.25"/>
          <polygon class="cls-16" points="506.62 463.79 508.88 461.52 506.62 459.25 506.62 463.79"/>
        </g>
        <rect class="cls-16" x="502.23" y="460.74" width="4.74" height="1.56"/>
      </g>
      <polygon class="cls-18" points="508.12 442.13 494.25 428.25 480.38 442.13 508.12 442.13"/>
      <path class="cls-18" d="M543,466.48a2.23,2.23,0,1,0,2.23-2.23A2.23,2.23,0,0,0,543,466.48Z"/>
      <path class="cls-16" d="M532.83,394a2.23,2.23,0,1,0,2.23-2.23A2.23,2.23,0,0,0,532.83,394Z"/>
      <path class="cls-16" d="M582.09,485.7a2.23,2.23,0,1,0,2.23-2.22A2.23,2.23,0,0,0,582.09,485.7Z"/>
      <path class="cls-16" d="M509.94,535.29a2.23,2.23,0,1,0,2.23-2.23A2.23,2.23,0,0,0,509.94,535.29Z"/>
      <path class="cls-16" d="M484.59,518.85a2.23,2.23,0,1,0,2.23-2.23A2.23,2.23,0,0,0,484.59,518.85Z"/>
      <g>
        <polygon class="cls-16" points="593.07 352.62 598.97 352.62 598.97 346.72 593.07 352.62"/>
        <polygon class="cls-16" points="598.04 345.79 592.14 345.79 592.14 351.69 598.04 345.79"/>
      </g>
      <path class="cls-16" d="M594,341.59a2.23,2.23,0,1,0,2.23-2.23A2.23,2.23,0,0,0,594,341.59Z"/>
      <path class="cls-13" d="M594,317.08a2.23,2.23,0,1,0,2.23-2.23A2.22,2.22,0,0,0,594,317.08Z"/>
      <path class="cls-13" d="M512.12,328.22a2.23,2.23,0,1,0,2.23-2.23A2.23,2.23,0,0,0,512.12,328.22Z"/>
      <polygon class="cls-15" points="504.26 519.71 487.19 519.71 487.19 518.65 503.83 518.65 509.66 512.82 510.41 513.56 504.26 519.71"/>
      <polygon class="cls-15" points="512.51 535.2 511.45 535.2 511.45 525.23 520.8 515.88 521.55 516.63 512.51 525.66 512.51 535.2"/>
      <polygon class="cls-17" points="489.95 502.91 481.51 494.47 481.51 470.77 488.35 463.93 489.1 464.67 482.57 471.2 482.57 494.03 490.7 502.16 489.95 502.91"/>
      <polygon class="cls-17" points="504.05 353.06 496.47 345.49 513.98 327.98 514.73 328.73 497.97 345.49 504.05 351.57 526.89 328.73 538.36 340.2 534.09 344.47 533.34 343.72 536.87 340.2 526.89 330.22 504.05 353.06"/>
      <rect class="cls-17" x="560.9" y="324.55" width="1.06" height="9.85" transform="translate(-68.53 493.49) rotate(-45)"/>
      <polygon class="cls-14" points="547.74 321.58 546.99 320.84 561.27 306.56 568.91 314.19 568.16 314.94 561.27 308.05 547.74 321.58"/>
      <polygon class="cls-14" points="572.39 310.07 571.64 309.32 583.64 297.33 596.95 297.33 596.95 298.38 584.07 298.38 572.39 310.07"/>
      <polygon class="cls-15" points="538.41 329.29 537.35 329.29 537.35 314.06 552.16 299.25 569.01 299.25 583.67 313.92 582.92 314.66 568.57 300.31 552.6 300.31 538.41 314.5 538.41 329.29"/>
      <path class="cls-13" d="M576,513.31a2.23,2.23,0,1,0,2.22-2.23A2.21,2.21,0,0,0,576,513.31Z"/>
      <path class="cls-13" d="M488.51,502.16a2.23,2.23,0,1,0,2.23-2.23A2.23,2.23,0,0,0,488.51,502.16Z"/>
      <path class="cls-13" d="M553.49,511.15a2.23,2.23,0,1,0,2.23-2.23A2.23,2.23,0,0,0,553.49,511.15Z"/>
    </g>
    <g>
      <path class="cls-15" d="M627.92,520.62v-183s-4.75-69.65,19.68-78.32c12.37-4.38,25.86,6.15,27.11,17.31,12.11-3.13,32.18,13.33,35.68,32.35,25.88,1.5,45,32.34,37.83,59.63,18.64,9.88,28.73,34,23.49,55,15.88,17,13.21,55.71-6.21,65.81,9.67,20.48-14.92,58.89-42.65,52.38C700.37,599.57,626.47,548.35,627.92,520.62Z"/>
      <path class="cls-25" d="M683.46,559.29c-17.43-.61-33-14-32.44-30.83.71-20.33,23.33-19.13,23.83-33.38.69-19.82-21.31-27.09-20.78-42.35.47-13.39,8-20.91,16-25.27-6.52,7.35-8.85,23-.21,32.39,37.1,31.52,17.41,58,2.46,65.62-11.65,6-10.88,23.07,10.06,23.81,20.45.71,27.58-16,27.6-24C714.75,534.94,713.31,560.33,683.46,559.29Z"/>
      <path class="cls-26" d="M682.06,463.18c-11.47-8.47-13.71-17-12.11-25.08,3.06-15.38,19.9-26.53,35.3-23.47,8.53,1.69,16,9.93,14.54,17.49-1.66,8.33-12.31,10.22-20.94,8.51-7.72-1.54-13.65-7.22-12.47-13.17C687.47,422,665.85,446.71,682.06,463.18Z"/>
      <path class="cls-27" d="M643,424.78c-7.55,31.63-10,47-1.8,70.08,1.25,3.25,5.84,7.09,9.43,7.09,7.18,0,11.63-7.1,11.63-14C662.29,474,638.32,462.43,643,424.78Z"/>
      <path class="cls-16" d="M644.35,533.13c-5.17-6.59-5-12.73-4.61-18,.55-7.07,3.79-9.9,7.39-9.64A5.61,5.61,0,0,1,650.9,511C650.47,516.94,637.7,523.45,644.35,533.13Z"/>
      <path class="cls-27" d="M751.87,435.25c2-5.12,5.58-7.06,8.68-8.56,4.2-2,6.89-1.11,7.93,1a3.68,3.68,0,0,1-1.87,4C763.1,433.38,755.17,428.27,751.87,435.25Z"/>
      <path class="cls-16" d="M705,485.81c7.83-7.76,8-15.19,7.76-21.52-.34-8.56-4.81-12.11-10-11.94-1.24,0-5.88,2.42-5.74,6.46C697.26,466,715.14,474.38,705,485.81Z"/>
      <path class="cls-26" d="M682.51,536.67a6,6,0,1,0-6,6.19A6.1,6.1,0,0,0,682.51,536.67Z"/>
      <path class="cls-26" d="M654.13,412.36c.52-3.74-1.24-7.09-3.94-7.47s-5.31,2.35-5.84,6.1,1.24,7.1,3.94,7.47S653.6,416.11,654.13,412.36Z"/>
      <path class="cls-26" d="M739.17,491c.53-3.74-1.23-7.09-3.93-7.47s-5.32,2.35-5.84,6.1,1.23,7.09,3.93,7.47S738.64,494.78,739.17,491Z"/>
      <path class="cls-25" d="M667.3,328.35c.53-3.75-1.24-7.1-3.94-7.47s-5.31,2.35-5.84,6.1,1.24,7.09,3.94,7.47S666.77,332.1,667.3,328.35Z"/>
      <path class="cls-25" d="M701.35,505.43c-2-1-4.12-.64-4.83.77s.3,3.35,2.25,4.34,4.13.65,4.84-.76S703.31,506.42,701.35,505.43Z"/>
      <path class="cls-25" d="M710,507.94a1.65,1.65,0,1,0-.7,2.27A1.67,1.67,0,0,0,710,507.94Z"/>
      <path class="cls-25" d="M713.36,512.81a1.65,1.65,0,1,0-2.72,1.87,1.65,1.65,0,1,0,2.72-1.87Z"/>
      <path class="cls-25" d="M651.39,358.26c.47-3.36-1.21-6.37-3.76-6.73s-5,2.07-5.47,5.43,1.22,6.37,3.76,6.73S650.92,361.61,651.39,358.26Z"/>
      <path class="cls-26" d="M715.62,350.19c-.85-3.19-3.76-5.19-6.49-4.47s-4.27,3.91-3.42,7.1,3.76,5.2,6.49,4.47S716.47,353.39,715.62,350.19Z"/>
      <path class="cls-25" d="M734.28,398.08a5.21,5.21,0,1,0-7.12,2A5.25,5.25,0,0,0,734.28,398.08Z"/>
      <path class="cls-26" d="M747.38,462.35A3.93,3.93,0,1,0,742,463.9,4,4,0,0,0,747.38,462.35Z"/>
      <path class="cls-16" d="M644,401.83a2.56,2.56,0,1,0-2.92,2.63A2.8,2.8,0,0,0,644,401.83Z"/>
      <path class="cls-27" d="M716.31,340.69a2.56,2.56,0,1,0-2.92,2.63A2.79,2.79,0,0,0,716.31,340.69Z"/>
      <path class="cls-16" d="M644,347.19a2.56,2.56,0,1,0-2.92,2.63A2.79,2.79,0,0,0,644,347.19Z"/>
      <path class="cls-27" d="M673.5,314.07a2.67,2.67,0,0,0-.62-3.75,2.75,2.75,0,0,0-3.77.78,2.67,2.67,0,0,0,.62,3.75A2.75,2.75,0,0,0,673.5,314.07Z"/>
      <path class="cls-16" d="M673.41,339a2.56,2.56,0,1,0-2.92,2.62A2.79,2.79,0,0,0,673.41,339Z"/>
      <path class="cls-27" d="M680.29,344.88a2.53,2.53,0,1,0-2.84,2.06A2.48,2.48,0,0,0,680.29,344.88Z"/>
      <path class="cls-25" d="M726.89,370a2.56,2.56,0,1,0-2.92,2.63A2.79,2.79,0,0,0,726.89,370Z"/>
      <path class="cls-26" d="M722.71,332.47a2.56,2.56,0,1,0-2.91,2.63A2.79,2.79,0,0,0,722.71,332.47Z"/>
      <path class="cls-25" d="M731.94,331.37a1.92,1.92,0,1,0-2.19,2A2.1,2.1,0,0,0,731.94,331.37Z"/>
      <path class="cls-26" d="M681.24,309a2,2,0,0,0-.23-2.87,2.08,2.08,0,0,0-2.89.42,2,2,0,0,0,.24,2.87A2.08,2.08,0,0,0,681.24,309Z"/>
      <path class="cls-27" d="M679.36,302.46a2,2,0,0,0-.31-2.86,2.09,2.09,0,0,0-2.88.5,2,2,0,0,0,.31,2.86A2.09,2.09,0,0,0,679.36,302.46Z"/>
      <path class="cls-27" d="M690.3,541.88a2.82,2.82,0,1,0-2.82,2.9A2.85,2.85,0,0,0,690.3,541.88Z"/>
      <path class="cls-26" d="M724,405.38a2.81,2.81,0,1,0-2.81,2.9A2.85,2.85,0,0,0,724,405.38Z"/>
      <path class="cls-25" d="M720.71,444.48a3.7,3.7,0,1,0-3.7,3.8A3.75,3.75,0,0,0,720.71,444.48Z"/>
      <path class="cls-27" d="M714.53,409.56a2.82,2.82,0,1,0-2.81,2.9A2.86,2.86,0,0,0,714.53,409.56Z"/>
      <path class="cls-16" d="M717.88,455.25a2.82,2.82,0,1,0-2.82,2.89A2.86,2.86,0,0,0,717.88,455.25Z"/>
      <path class="cls-27" d="M718.65,463.51a2,2,0,1,0-2,2.07A2,2,0,0,0,718.65,463.51Z"/>
      <path class="cls-16" d="M724.22,469.83a2,2,0,1,0-2,2.07A2,2,0,0,0,724.22,469.83Z"/>
      <path class="cls-26" d="M687.45,440.85a2.94,2.94,0,1,0-2.94,3A3,3,0,0,0,687.45,440.85Z"/>
      <path class="cls-16" d="M649,439.93c4-16.81,25.39-26.08,42.06-30.09,10.25-2.33,15-12.44,15-22.36,0-13-9.45-19.33-17.07-19.33-8.44,0-13.86,8.74-23.21,8.74-6.27,0-8.54-4.43-8.54-10.14,0-15.63,13.54-16.06-4.47-29.06-6.21-4.48-1.12-19.5,9.24-23.78-9.77,0-17.81,10.89-18.62,23.5,0,10.15,12.07,10.31,12.07,19.21,0,8.18-11.9,18.79-11.9,30.11,0,6.29,5.41,15.1,11.78,15.1,9.5,0,15.53-23.76,33.29-23.76,4.69,0,7.76,7.57,7.76,12.53,0,18.69-24.68,9.3-37.86,24.35C655.14,418.9,649.69,428.69,649,439.93Z"/>
      <path class="cls-27" d="M665.92,400.9c5.36-3.9,13-15.15,20.18-14.58,2.94.24,4.38,3.28,3.93,5.88-1.67,9.54-10.85,3.86-21.21,7.3A18.08,18.08,0,0,0,665.92,400.9Z"/>
      <path class="cls-28" d="M723.27,378.1c-8.72,4.18-5.15,18.42-21.37,30.79,2.58-1.19,10-6.27,12-7.89,9.21-7.45,9.88-15,14.75-16.32,3.34-.91,9.22,1.33,11.37,5.67,2.9,5.86-3.53,16.7.36,25.47,2.74,6.19,11.24,9,18,6.49C783.78,412.79,752.88,363.89,723.27,378.1Z"/>
      <path class="cls-25" d="M731.45,337.6c-4.71,0-9.76,4.39-9.76,14.11,0,13.41,14,12.18,14,19.35,0,4.13-4,8.45-7.29,10.64l-6.31,2.6c16.55-2,22.79-19.38,22.79-28.55C744.91,345,738.18,337.6,731.45,337.6Z"/>
      <path class="cls-27" d="M737,431c4.56,0,9.44,3.64,9.44,11.71,0,11.15-13.57,10.12-13.57,16.08,0,3.43,3.87,7,7.05,8.84l6.1,2.16c-16-1.66-22-16.1-22-23.72C724,437.09,730.53,431,737,431Z"/>
      <path class="cls-26" d="M704.1,367.78c3.36,4.43,3.69,13.15,6.24,13.15,1,0,5.65-2.55,5.65-6.44a4.71,4.71,0,0,0,0-.53C715.28,369.08,708.34,368.59,704.1,367.78Z"/>
      <path class="cls-26" d="M734,403.1c-.43,8.21-3,14.26,3.16,21.6.91,1.08-8.78.91-11.91-4.11a5.38,5.38,0,0,1-.39-.7C721.71,413.08,729.59,407.29,734,403.1Z"/>
      <path class="cls-27" d="M688.93,305.14c-3.79-4.45-5.3-9.59-16.21-11.91-1.88-.4,7.5-5.67,13.59-3a6.24,6.24,0,0,1,.73.37C692.85,294.05,690,301.08,688.93,305.14Z"/>
      <path class="cls-25" d="M703.19,449.23c-6,1.57-10.65,4.26-12.07,11.78-.19,1-6.2-5.32-4.66-10.5a6.93,6.93,0,0,1,.26-.72C689.88,443.14,698.8,446,703.19,449.23Z"/>
      <path class="cls-27" d="M764.94,434.85c-8-.64-14.3,10.11-14.74,15.67-.76,9.48,9.09,8.83,8.45,16.91-.3,3.66-4,7.8-13.5,7-15.23-1.22-20.72-11.11-23.76-15,1,9.93,22.94,16.58,21.7,32.1-.41,5.19-5.14,11.74-12.61,11.15-20.7-1.65-14,19.31-4.68,27.17,9,7.55,31.16-.76,33.86-22.69,1.42-11.5-4.73-16.66-4.19-23.36.16-2,2.08-3.35,3.67-3.75a26.93,26.93,0,0,0,19.11-23.32C779,447.71,773.67,435.55,764.94,434.85Z"/>
      <path class="cls-27" d="M674.79,284.47c-9.49-8.21-8.26-17.85-17.73-18.82-7.19-.74-16.29,4.51-17.91,20.34-1.82,17.79,5.71,23.72,10.21,24.18,5.62.57,14.25-6.17,15.22-12.42a26.37,26.37,0,0,1-.32-6.15c.57-5.54,4.19-6.11,10.09-5.51,2.2.23,4.37.64,6.57.87C686.43,287.52,676.78,286,674.79,284.47Z"/>
      <path class="cls-26" d="M694.06,289.62c8.18,7.77,12.69,18.18,14,29,1.07,9,1,11.92-.83,15-3.42,5.34-7.92,11.08-14.65,11.87-11.11,1.32-15.82-9.67-17.07-20.24-2.14-18.1,22.62-10.88,20.32-30.36A14.37,14.37,0,0,0,694.06,289.62Z"/>
      <path class="cls-25" d="M670.44,363c3.22,4.46,27.12-8.11,34.18-4.08C689.56,348.87,660.86,349.69,670.44,363Z"/>
      <path class="cls-16" d="M697.43,491.18c.54,8.41,6,13.4,11.16,12.33,3.12-.64,15.52-11.64,10.81-21.43-8.18-17-26.44-6.22-35.35-17.36,1.84,4.35,5,6.5,8.35,9.61S696.78,481.14,697.43,491.18Z"/>
      <path class="cls-25" d="M689.86,501.29c-3,5.2-3.37,10.28-3.48,14.84-.21,9,4.26,13,9.73,13.21,1.31,0,6.37-2.16,6.5-6.41.1-3.3-7.05-6.95-8.53-9.48C691.44,509,689.85,505,689.86,501.29Z"/>
    </g>
  </g>
  <text class="cls-29" transform="translate(70.08 222.83)"><tspan class="cls-30">V</tspan><tspan x="10.12" y="0">erbal:</tspan><tspan class="cls-31" x="50.95" y="0" xml:space="preserve"> codificación y </tspan><tspan class="cls-31"><tspan x="0" y="19.2">decodificación del habla, </tspan><tspan x="0" y="38.4">matemática, notación musical.</tspan></tspan></text>
  <text class="cls-29" transform="translate(70.08 454.68)">Racional: <tspan class="cls-31" x="70.7" y="0">inte</tspan><tspan class="cls-32" x="97.12" y="0">r</tspan><tspan class="cls-31" x="102.38" y="0">esado en </tspan><tspan class="cls-31"><tspan x="0" y="19.2">pa</tspan><tspan class="cls-33" x="17.68" y="19.2">r</tspan><tspan x="23.48" y="19.2">tes componentes, </tspan><tspan x="0" y="38.4">detecta ca</tspan><tspan class="cls-34" x="74.55" y="38.4">r</tspan><tspan x="79.65" y="38.4">acterísticas.</tspan></tspan></text>
  <text class="cls-35" transform="translate(70.08 563.33)"><tspan class="cls-36">P</tspan><tspan x="9.99" y="0">ensamien</tspan><tspan class="cls-37" x="79.46" y="0">t</tspan><tspan x="84.53" y="0">o occidental.</tspan></text>
  <text class="cls-35" transform="translate(70.08 316.74)">Secuencial, tempo<tspan class="cls-34" x="130.24" y="0">r</tspan><tspan x="135.34" y="0">al, </tspan><tspan x="0" y="19.2">digital.</tspan></text>
  <text class="cls-35" transform="translate(70.08 387)">Lógico, analítico.</text>
  <text class="cls-29" transform="translate(959.73 222.83)">No <tspan class="cls-36" x="24.33" y="0">v</tspan><tspan x="32.31" y="0">erbal: </tspan><tspan class="cls-31" x="77.13" y="0">visio- espacial, musical.</tspan></text>
  <text class="cls-35" transform="translate(965.14 539.84)">Intuiti<tspan class="cls-38" x="40.22" y="0">v</tspan><tspan x="47.85" y="0">o. Inte</tspan><tspan class="cls-6" x="92.03" y="0">r</tspan><tspan x="97.3" y="0">esado en conjun</tspan><tspan class="cls-37" x="213.9" y="0">t</tspan><tspan x="218.97" y="0">os, </tspan><tspan x="-8.64" y="19.2">integ</tspan><tspan class="cls-34" x="26.75" y="19.2">r</tspan><tspan x="31.85" y="19.2">a pa</tspan><tspan class="cls-33" x="62.2" y="19.2">r</tspan><tspan x="68" y="19.2">tes y componentes y las </tspan><tspan x="94.68" y="38.4">o</tspan><tspan class="cls-6" x="103.8" y="38.4">r</tspan><tspan x="109.07" y="38.4">ganiza en un </tspan><tspan class="cls-37" x="202.93" y="38.4">t</tspan><tspan x="208" y="38.4">odo.</tspan></text>
  <text class="cls-35" transform="translate(1049.26 641.94)"><tspan class="cls-36">P</tspan><tspan x="9.99" y="0">ensamien</tspan><tspan class="cls-37" x="79.46" y="0">t</tspan><tspan x="84.53" y="0">o oriental.</tspan></text>
  <text class="cls-35" transform="translate(976.9 316.75)">Simultáneo, espacial, analógico.</text>
  <text class="cls-35" transform="translate(985.92 436.62)">Gestálico, sintético, <tspan class="cls-6" x="142.3" y="0">r</tspan><tspan x="147.56" y="0">elaciones, </tspan><tspan x="23.34" y="19.2">constructi</tspan><tspan class="cls-38" x="94.87" y="19.2">v</tspan><tspan x="102.5" y="19.2">o, busca pautas.</tspan></text>
  <g>
    <g>
      <path class="cls-39" d="M756.87,193.05a28,28,0,1,1-28,28A28,28,0,0,1,756.87,193.05Z"/>
      <path class="cls-40" d="M756.87,192.13a28.92,28.92,0,1,1-20.46,8.47,28.81,28.81,0,0,1,20.46-8.47ZM776,201.91A27.08,27.08,0,1,0,784,221.06,27,27,0,0,0,776,201.91Z"/>
    </g>
    <path class="cls-10" d="M753.18,224.14a4.74,4.74,0,1,0-3.35,8.1,4.7,4.7,0,0,0,3.35-1.39A4.75,4.75,0,0,0,753.18,224.14Zm-.84,5.87a3.56,3.56,0,1,1,0-5A3.57,3.57,0,0,1,752.34,230Z"/>
    <path class="cls-10" d="M747,234.93l-4.87-4.88a1.4,1.4,0,0,0-2,0l0,0a1.4,1.4,0,0,0,0,2l4.88,4.87a1.38,1.38,0,0,0,2,0l0,0a1.34,1.34,0,0,0,.41-1A1.39,1.39,0,0,0,747,234.93Zm-.84,1.12,0,0a.19.19,0,0,1-.28,0L741,231.2a.19.19,0,0,1,0-.28l0,0a.19.19,0,0,1,.28,0l4.87,4.87a.19.19,0,0,1,0,.28Z"/>
    <path class="cls-10" d="M751.9,225.42a2.94,2.94,0,1,0,0,4.15A2.92,2.92,0,0,0,751.9,225.42Zm-.84,3.31a1.73,1.73,0,0,1-1.23.51,1.7,1.7,0,0,1-1.23-.51,1.75,1.75,0,0,1,0-2.47,1.7,1.7,0,0,1,1.23-.51,1.75,1.75,0,0,1,1.23,3Z"/>
    <path class="cls-10" d="M776,208.27l-1.11-1.12.51-.42a.56.56,0,0,0,.21-.43.58.58,0,0,0-.17-.45l-1.28-1.27v0l-.06-.05-2.66-2.66a.58.58,0,0,0-.45-.17.61.61,0,0,0-.43.21l-.42.51-1.07-1.07a.6.6,0,0,0-.84,0l-1.74,1.75a.58.58,0,0,0,0,.84l1.3,1.3-2.05,2.47-10.21,9.43a8.06,8.06,0,0,0-2-.58.61.61,0,0,0-.68.51.59.59,0,0,0,.5.67,6.2,6.2,0,0,1,1.2.3l-1.26,1.17a.57.57,0,0,0-.19.42.64.64,0,0,0,.17.44l3.83,3.83a.63.63,0,0,0,.43.17h0a.62.62,0,0,0,.43-.18l1.23-1.31a5.87,5.87,0,0,1-1.24,6.32,6.74,6.74,0,0,1-2.19,1.52,3.16,3.16,0,0,0-1.89,2.52,8.41,8.41,0,0,1-2.43,5,7.46,7.46,0,0,1-5.37,2.28h0a8.86,8.86,0,0,1-6.23-2.78c-3.39-3.44-3.57-8.41-.4-11.56a8.4,8.4,0,0,1,5-2.42,3.19,3.19,0,0,0,2.52-1.89,6.66,6.66,0,0,1,1.42-2.1,6,6,0,0,1,2.79-1.61.6.6,0,0,0,.44-.72.59.59,0,0,0-.72-.43,7,7,0,0,0-3.35,1.92,8,8,0,0,0-1.68,2.46,2,2,0,0,1-1.56,1.19,9.55,9.55,0,0,0-5.67,2.75,8.69,8.69,0,0,0-2.62,6.64,10.11,10.11,0,0,0,3,6.6,10,10,0,0,0,7.08,3.14h0a8.61,8.61,0,0,0,6.21-2.63,9.64,9.64,0,0,0,2.78-5.68,2,2,0,0,1,1.17-1.57,7.75,7.75,0,0,0,2.58-1.78,7.09,7.09,0,0,0,1.28-8.09l9.52-10.05,2.46-2.06,1.35,1.35a.59.59,0,0,0,.42.18.58.58,0,0,0,.42-.18l1.74-1.74A.58.58,0,0,0,776,208.27Zm-3.75-3.92.6.59-4.68,4.31-.15-.15Zm-4.51-.86.9-.9.72.72-.81,1Zm2.89.16h0l.42-.5.36.36-4.23,4.75-.21-.21Zm-13.12,18.94-3-3,11.6-10.72,1.54,1.55,0,0,.06.06.6.59Zm11.72-12.28-.22-.22,4.68-4.3.45.44Zm4.61-.72-.85-.85,1-.82.77.77Z"/>
    <path class="cls-10" d="M774.52,222.79a.57.57,0,0,0-.5-.12l-8.31,1.76a.6.6,0,0,0-.47.58v2.49a.6.6,0,0,0,1.19,0v-2l7.12-1.52v6a3.51,3.51,0,0,0-1.77-.47,2.42,2.42,0,1,0,0,4.73,2.77,2.77,0,0,0,2.93-2.15.47.47,0,0,0,0-.17v-8.7A.58.58,0,0,0,774.52,222.79Zm-2.74,10.29c-.95,0-1.75-.54-1.75-1.18s.8-1.17,1.75-1.17,1.76.54,1.76,1.17S772.73,233.08,771.78,233.08Z"/>
    <path class="cls-10" d="M766.43,229.83a.6.6,0,0,0-1.19,0v2.76a3.36,3.36,0,0,0-1.75-.47,2.42,2.42,0,1,0,2.94,2.36h0v-4.65Zm-2.94,5.83c-1,0-1.76-.54-1.76-1.18s.81-1.17,1.76-1.17,1.75.54,1.75,1.17S764.44,235.66,763.49,235.66Z"/>
    <path class="cls-10" d="M752.56,202.3a.59.59,0,0,0-.48-.13l-3.77.66a.6.6,0,0,0,.21,1.18l3.07-.54v6.06a3.44,3.44,0,0,0-1.77-.48,2.42,2.42,0,1,0,0,4.73,2.77,2.77,0,0,0,2.93-2.14.51.51,0,0,0,0-.17v-8.71A.61.61,0,0,0,752.56,202.3Zm-2.74,10.29c-1,0-1.75-.54-1.75-1.17s.8-1.18,1.75-1.18,1.75.54,1.75,1.18S750.77,212.59,749.82,212.59Z"/>
    <path class="cls-10" d="M746,204.07a.58.58,0,0,0-.7-.46l-1.59.33a.6.6,0,0,0-.47.59v7.57a3.47,3.47,0,0,0-1.76-.47,2.42,2.42,0,1,0,3,2.37h0v-9l1.11-.24A.58.58,0,0,0,746,204.07Zm-4.52,11.1c-.95,0-1.75-.54-1.75-1.17s.8-1.18,1.75-1.18,1.76.54,1.76,1.18S742.47,215.17,741.52,215.17Z"/>
  </g>
  <g>
    <g>
      <path class="cls-39" d="M836.12,287.29a28,28,0,1,1-28,28A28,28,0,0,1,836.12,287.29Z"/>
      <path class="cls-40" d="M836.12,286.37a28.92,28.92,0,1,1-20.46,8.47,28.81,28.81,0,0,1,20.46-8.47Zm19.15,9.77a27.09,27.09,0,1,0,7.93,19.15A27.07,27.07,0,0,0,855.27,296.14Z"/>
    </g>
    <g>
      <path class="cls-10" d="M819.91,328.08a3.42,3.42,0,0,0,3.42,3.42H848.9a3.42,3.42,0,0,0,3.42-3.42V302.51a3.42,3.42,0,0,0-3.42-3.42H823.33a3.42,3.42,0,0,0-3.42,3.42Zm29,1.8H823.33a1.81,1.81,0,0,1-1.8-1.8v-4.27l6.15-6.14,5.25,5.25a.81.81,0,0,0,1.15,0l9.48-9.49,7.14,7.14v7.51A1.81,1.81,0,0,1,848.9,329.88Zm-25.57-29.17H848.9a1.81,1.81,0,0,1,1.8,1.8v15.77l-6.57-6.57a.81.81,0,0,0-1.15,0l-9.48,9.49-5.25-5.26a.83.83,0,0,0-1.15,0l-5.57,5.57v-19A1.81,1.81,0,0,1,823.33,300.71Z"/>
      <path class="cls-10" d="M830,312.08a4.13,4.13,0,1,0-4.13-4.13A4.14,4.14,0,0,0,830,312.08Zm0-6.63a2.5,2.5,0,1,1-2.51,2.5A2.5,2.5,0,0,1,830,305.45Z"/>
    </g>
  </g>
  <g>
    <g>
      <path class="cls-39" d="M852.32,415.87a28,28,0,1,1-28,28A28,28,0,0,1,852.32,415.87Z"/>
      <path class="cls-40" d="M852.32,415a28.94,28.94,0,1,1-20.45,8.47A28.83,28.83,0,0,1,852.32,415Zm19.15,9.78a27.08,27.08,0,1,0,7.93,19.15A27,27,0,0,0,871.47,424.73Z"/>
    </g>
    <g id="relationship">
      <path class="cls-10" d="M864.14,429.53l-9.26-3.27a.63.63,0,0,0-.19,0h-8.87a.63.63,0,0,0-.19,0l-6.31,2.1v-.95a.59.59,0,0,0-.59-.59h-3.55a.59.59,0,0,0-.59.59v13a.59.59,0,0,0,.59.59h3.55a.59.59,0,0,0,.59-.59v-1.18h3.55l.16,0,9.2-2.71a1.79,1.79,0,0,0,1.27-1.7v-.3a1.77,1.77,0,0,0-1.77-1.77h-4.81l3.19-1.77h4.49l8.45,2.48a1.77,1.77,0,0,0,2.27-1.7v-.54a1.77,1.77,0,0,0-1.18-1.67Zm-26,10.29h-2.37V428h2.37Zm26-8.08a.58.58,0,0,1-.59.59l-.17,0-8.53-2.51a.45.45,0,0,0-.16,0H850a.6.6,0,0,0-.29.08l-5.32,2.95a.59.59,0,0,0-.22.81.57.57,0,0,0,.51.3h7.09a.58.58,0,0,1,.59.59v.3a.58.58,0,0,1-.42.56l-9.12,2.69h-3.46v-8.44l6.59-2.2h8.67l9.17,3.23a.61.61,0,0,1,.39.56Z"/>
      <path class="cls-10" d="M869.46,446.91h-3.55a.6.6,0,0,0-.59.59v1.19h-3.54a.33.33,0,0,0-.17,0l-9.2,2.71a1.77,1.77,0,0,0-1.27,1.7v.29a1.78,1.78,0,0,0,1.77,1.78h4.81L854.53,457H850l-8.45-2.49a1.81,1.81,0,0,0-1.56.28,1.77,1.77,0,0,0-.71,1.42v.54a1.77,1.77,0,0,0,1.18,1.67l9.26,3.27a.45.45,0,0,0,.2,0h8.86a.58.58,0,0,0,.19,0l6.31-2.11v.95a.6.6,0,0,0,.59.6h3.55a.59.59,0,0,0,.59-.6v-13a.59.59,0,0,0-.59-.59Zm-4.14,11.4-6.59,2.19h-8.67l-9.16-3.23a.59.59,0,0,1-.4-.56v-.54a.6.6,0,0,1,.59-.59.51.51,0,0,1,.17,0l8.53,2.51.17,0h4.73a.46.46,0,0,0,.28-.08l5.32-2.95a.59.59,0,0,0,.23-.81.61.61,0,0,0-.52-.3h-7.09a.59.59,0,0,1-.59-.59v-.29a.61.61,0,0,1,.43-.57l9.11-2.68h3.46Zm3.55,1.6h-2.36V448.09h2.36Z"/>
      <path class="cls-10" d="M855.28,438.64a3.4,3.4,0,0,1-5.91,0,3.55,3.55,0,0,0-3.55,3.54v.6c0,4.45,6,7.49,6.24,7.61a.55.55,0,0,0,.53,0c.25-.12,6.23-3.16,6.23-7.61v-.6A3.55,3.55,0,0,0,855.28,438.64Zm2.36,4.14c0,3.24-4.21,5.8-5.32,6.42-1.11-.62-5.32-3.18-5.32-6.42v-.6a2.37,2.37,0,0,1,2.37-2.36c1.41,0,2.36,1.19,2.36,3a.59.59,0,1,0,1.18,0c0-1.77,1-3,2.37-3a2.36,2.36,0,0,1,2.36,2.36Z"/>
      <path class="cls-10" d="M860,443.37h1.19v1.18H860Z"/>
      <path class="cls-10" d="M862.37,443.37h3.54v1.18h-3.54Z"/>
      <path class="cls-10" d="M857.33,438.11l.84-.84.83.84-.83.83Z"/>
      <path class="cls-10" d="M859,436.44l2.51-2.51.84.84-2.51,2.5Z"/>
      <path class="cls-10" d="M843.46,443.37h1.18v1.18h-1.18Z"/>
      <path class="cls-10" d="M838.73,443.37h3.54v1.18h-3.54Z"/>
      <path class="cls-10" d="M845.63,449.81l.84-.84.83.84-.83.83Z"/>
      <path class="cls-10" d="M842.29,453.15l2.5-2.51.84.84-2.51,2.5Z"/>
    </g>
  </g>
  <g>
    <g>
      <path class="cls-39" d="M821,522.11a28,28,0,1,1-28,28A28,28,0,0,1,821,522.11Z"/>
      <path class="cls-40" d="M821,521.19a28.92,28.92,0,1,1-20.46,8.47A28.83,28.83,0,0,1,821,521.19ZM840.18,531a27.09,27.09,0,1,0,7.93,19.15A27,27,0,0,0,840.18,531Z"/>
    </g>
    <g>
      <path class="cls-10" d="M837.63,536.35a11.75,11.75,0,0,0-4.24-6.09c-4-3.13-7.73-4.43-12.1-4.21a47.68,47.68,0,0,0-6.85,1,12.9,12.9,0,0,0-7.1,3.44,13.26,13.26,0,0,0-2.84,4.63,16.68,16.68,0,0,0-.64,2.3l-.06.26a9.06,9.06,0,0,1-.6,1.6c-.15.33-.3.66-.42,1a2.46,2.46,0,0,0-.2,1.19,2.68,2.68,0,0,0,1,1.58c.35.32.57.54.58.75a1.3,1.3,0,0,1-.13.3,27.4,27.4,0,0,1-3.1,5,2.94,2.94,0,0,0-.93,2.09,2.18,2.18,0,0,0,1,1.32,6.79,6.79,0,0,0,.74.43c.31.15.82.41.86.6a1.32,1.32,0,0,1-.08.71c-.11.22-.22.41-.31.58-.26.46-.7,1.23,0,1.78.15.14.41.34.65.52a1.85,1.85,0,0,0-.22,1,1,1,0,0,0,.41.69c.16.11.33.21.5.31.42.23.58.34.63.56a1.92,1.92,0,0,1-.07.86c0,.19-.08.38-.11.56a4.1,4.1,0,0,0,.24,1.9,2.63,2.63,0,0,0,3.09,1.88,59.33,59.33,0,0,0,6-1.79c1.59.94,2.6,3.79,2.86,4.85a.71.71,0,0,0,.69.54h17.91a.69.69,0,0,0,.57-.28.68.68,0,0,0,.11-.63,4.88,4.88,0,0,0-.8-1.38,5.24,5.24,0,0,1-.51-.78,13.47,13.47,0,0,1-.8-2,23.9,23.9,0,0,1-.83-4.19,12,12,0,0,1,.92-6.22,16.11,16.11,0,0,1,1.93-3c.42-.57.87-1.17,1.26-1.8a10.93,10.93,0,0,0,1.74-5.82A21.46,21.46,0,0,0,837.63,536.35Zm-.68,6a9.52,9.52,0,0,1-1.51,5.08c-.37.59-.8,1.16-1.21,1.72a17.27,17.27,0,0,0-2.09,3.31,13.51,13.51,0,0,0-1,7,24.84,24.84,0,0,0,.89,4.43,14.76,14.76,0,0,0,.88,2.23,7.06,7.06,0,0,0,.64,1l0,0H817.41a11.35,11.35,0,0,0-2.5-4.53l.52-.18c.53-.19.93-.33,1.14-.39,3-1,4.55-2.34,4.51-4.11a.7.7,0,0,0-.72-.69.71.71,0,0,0-.7.73c0,.73-.58,1.79-3.52,2.72-.21.06-.62.21-1.17.4l-1.82.63h0a58.31,58.31,0,0,1-6.08,1.84,1.25,1.25,0,0,1-1.46-.95,2.68,2.68,0,0,1-.17-1.25c0-.15.05-.29.08-.44a3.09,3.09,0,0,0,.07-1.51,2.37,2.37,0,0,0-1.31-1.46l-.15-.08a3.23,3.23,0,0,1,.27-.44.72.72,0,0,0,.15-.53.77.77,0,0,0-.28-.48c-.18-.12-.58-.43-.87-.66,0-.07.08-.14.11-.2s.24-.42.36-.67a2.71,2.71,0,0,0,.19-1.59c-.17-.86-1-1.29-1.6-1.6a3.12,3.12,0,0,1-.59-.34,2.72,2.72,0,0,1-.42-.34c0-.1.11-.36.66-1a28.94,28.94,0,0,0,3.24-5.26,2,2,0,0,0,.27-1,2.45,2.45,0,0,0-1-1.77c-.28-.27-.55-.51-.58-.73a1.25,1.25,0,0,1,.11-.5c.12-.31.25-.61.39-.91a10.4,10.4,0,0,0,.69-1.86l.06-.26a16,16,0,0,1,.59-2.13,12,12,0,0,1,2.54-4.15,11.57,11.57,0,0,1,6.35-3,45,45,0,0,1,6.64-.95c4-.21,7.45,1,11.16,3.91a10.18,10.18,0,0,1,3.74,5.36A19.7,19.7,0,0,1,837,542.35Z"/>
      <path class="cls-10" d="M821.48,533.18a.75.75,0,0,0,.75-.76v-3.69a.75.75,0,0,0-.75-.75.76.76,0,0,0-.76.75v3.69A.76.76,0,0,0,821.48,533.18Z"/>
      <path class="cls-10" d="M817.23,534.29a.76.76,0,0,0,.76-.76.86.86,0,0,0-.1-.38l-1.43-2.47a.75.75,0,0,0-1.31.75l1.43,2.48A.75.75,0,0,0,817.23,534.29Z"/>
      <path class="cls-10" d="M814.47,536.11,812,534.68a.75.75,0,0,0-1,.27.77.77,0,0,0,.27,1h0l2.46,1.43a.76.76,0,1,0,.76-1.31Z"/>
      <path class="cls-10" d="M828,530.4a.76.76,0,0,0-1,.28l-1.42,2.47a.76.76,0,0,0,.26,1,.77.77,0,0,0,1-.26v0l1.42-2.48A.75.75,0,0,0,828,530.4Z"/>
      <path class="cls-10" d="M829.34,537.52a.69.69,0,0,0,.37-.1l2.47-1.43a.75.75,0,0,0,.28-1,.76.76,0,0,0-1-.28h0L829,536.11a.76.76,0,0,0-.28,1A.77.77,0,0,0,829.34,537.52Z"/>
      <path class="cls-10" d="M833,540.58h-3.68a.76.76,0,0,0-.75.76.75.75,0,0,0,.75.75H833a.75.75,0,0,0,.75-.75A.76.76,0,0,0,833,540.58Z"/>
      <path class="cls-10" d="M813.7,540.58H810a.76.76,0,0,0-.76.76.75.75,0,0,0,.76.75h3.67a.75.75,0,0,0,.76-.75A.76.76,0,0,0,813.7,540.58Z"/>
      <path class="cls-10" d="M821.48,534.05a6,6,0,0,0-5.94,6c0,2.33,1.12,3.58,2.41,5l.26.3a2,2,0,0,1,.63,1.85.72.72,0,0,0,0,.71.73.73,0,0,0,.65.35h3.89a.76.76,0,0,0,.76-.76.67.67,0,0,0-.07-.31,2,2,0,0,1,.63-1.84l.27-.3c1.29-1.45,2.41-2.7,2.41-5A6,6,0,0,0,821.48,534.05Zm2.4,10-.27.3a3.84,3.84,0,0,0-1.05,2.4H820.4a3.91,3.91,0,0,0-1.06-2.4l-.26-.3c-1.22-1.37-2-2.28-2-4a4.43,4.43,0,1,1,8.86,0C825.91,541.76,825.1,542.67,823.88,544Z"/>
      <path class="cls-10" d="M823.31,548.47h-3.67a.76.76,0,0,0,0,1.51h3.67a.76.76,0,1,0,0-1.51Z"/>
      <path class="cls-10" d="M822.67,550.2h-2.49a.74.74,0,0,0-.75.75.75.75,0,0,0,.75.76h2.49a.76.76,0,0,0,.75-.76A.75.75,0,0,0,822.67,550.2Z"/>
    </g>
  </g>
  <g>
    <g>
      <path class="cls-39" d="M718.65,614.1a28,28,0,1,1-28,28A28,28,0,0,1,718.65,614.1Z"/>
      <path class="cls-40" d="M718.65,613.17a29,29,0,1,1-20.45,8.48,28.84,28.84,0,0,1,20.45-8.48ZM737.8,623a27.09,27.09,0,1,0,7.93,19.15A27,27,0,0,0,737.8,623Z"/>
    </g>
    <g id="relationship-2" data-name="relationship">
      <path class="cls-10" d="M730.47,627.76l-9.26-3.27a.63.63,0,0,0-.19,0h-8.87a.63.63,0,0,0-.19,0l-6.31,2.1v-1a.58.58,0,0,0-.59-.59h-3.55a.59.59,0,0,0-.59.59v13a.59.59,0,0,0,.59.59h3.55a.58.58,0,0,0,.59-.59v-1.18h3.55a.45.45,0,0,0,.16,0l9.2-2.7a1.78,1.78,0,0,0,1.27-1.7v-.3a1.77,1.77,0,0,0-1.77-1.77h-4.81l3.19-1.78h4.49l8.45,2.49a1.77,1.77,0,0,0,1.56-.28,1.74,1.74,0,0,0,.71-1.42v-.54a1.77,1.77,0,0,0-1.18-1.67Zm-26,10.29H702.1V626.23h2.37Zm26-8.08a.58.58,0,0,1-.59.59l-.16,0L721.18,628a.45.45,0,0,0-.16,0h-4.73a.6.6,0,0,0-.29.08L710.68,631a.6.6,0,0,0-.22.81.59.59,0,0,0,.51.3h7.09a.58.58,0,0,1,.59.59v.3a.58.58,0,0,1-.42.56l-9.12,2.69h-3.46v-8.44l6.6-2.2h8.67l9.16,3.23a.6.6,0,0,1,.39.56Z"/>
      <path class="cls-10" d="M735.79,645.14h-3.55a.6.6,0,0,0-.59.59v1.18h-3.54a.51.51,0,0,0-.17,0l-9.2,2.7a1.79,1.79,0,0,0-1.27,1.71v.29a1.77,1.77,0,0,0,1.77,1.77h4.81l-3.19,1.78h-4.49l-8.44-2.49a1.8,1.8,0,0,0-1.57.28,1.77,1.77,0,0,0-.71,1.42v.54a1.77,1.77,0,0,0,1.18,1.67l9.26,3.27a.71.71,0,0,0,.2,0h8.86l.19,0,6.31-2.11v1a.59.59,0,0,0,.59.59h3.55a.58.58,0,0,0,.59-.59v-13a.59.59,0,0,0-.59-.59Zm-4.14,11.4-6.59,2.19h-8.67l-9.16-3.23a.59.59,0,0,1-.4-.56v-.54a.6.6,0,0,1,.59-.59l.17,0,8.53,2.52.17,0H721a.6.6,0,0,0,.29-.08l5.31-2.95a.59.59,0,0,0,.23-.81.61.61,0,0,0-.52-.3h-7.09a.59.59,0,0,1-.59-.59v-.29a.59.59,0,0,1,.43-.57l9.11-2.68h3.46Zm3.55,1.6h-2.36V646.32h2.36Z"/>
      <path class="cls-10" d="M721.61,636.87a3.4,3.4,0,0,1-5.91,0,3.54,3.54,0,0,0-3.55,3.54V641c0,4.45,6,7.5,6.24,7.62a.55.55,0,0,0,.53,0c.25-.12,6.23-3.17,6.23-7.62v-.59A3.53,3.53,0,0,0,721.61,636.87ZM724,641c0,3.25-4.21,5.81-5.32,6.43-1.11-.62-5.32-3.18-5.32-6.43v-.59a2.37,2.37,0,0,1,2.37-2.36c1.41,0,2.36,1.19,2.36,3a.59.59,0,0,0,.59.59.58.58,0,0,0,.59-.59c0-1.76,1-3,2.37-3a2.36,2.36,0,0,1,2.36,2.36Z"/>
      <path class="cls-10" d="M726.33,641.59h1.19v1.19h-1.19Z"/>
      <path class="cls-10" d="M728.7,641.59h3.54v1.19H728.7Z"/>
      <path class="cls-10" d="M723.66,636.34l.84-.84.83.84-.83.83Z"/>
      <path class="cls-10" d="M725.33,634.67l2.51-2.51.84.83-2.51,2.51Z"/>
      <path class="cls-10" d="M709.79,641.59H711v1.19h-1.18Z"/>
      <path class="cls-10" d="M705.06,641.59h3.55v1.19h-3.55Z"/>
      <path class="cls-10" d="M712,648l.84-.84.83.84-.83.83Z"/>
      <path class="cls-10" d="M708.62,651.38l2.51-2.51.83.84-2.51,2.5Z"/>
    </g>
  </g>
  <g>
    <g>
      <circle class="cls-12" cx="486.29" cy="221.06" r="28"/>
      <path class="cls-41" d="M486.29,192.13a28.92,28.92,0,1,1-20.46,8.47,28.79,28.79,0,0,1,20.46-8.47Zm19.15,9.78a27.08,27.08,0,1,0,7.93,19.15A27,27,0,0,0,505.44,201.91Z"/>
    </g>
    <path class="cls-39" d="M467.47,222.83h1.36l1.6-2.29,1.6,2.29h1.27l-2.22-3.17,2.31-3.23H472l-1.62,2.31-1.58-2.31h-1.36l2.28,3.19-2.28,3.21Zm6.75-3.77h2v2h1v-2h2v-1h-2v-2h-1v2h-2v1Zm5.79-2.63,1.48,5c.37,1.27,1.14,1.41,1.57,1.41L482,226.08h.73l.9-1.23,2.65-8.42h-1.21l-1.68,5.33a.61.61,0,0,1-.75-.47l-1.43-4.86Zm6.75,3.93h5.14v-1h-5.14v1Zm0-2.53h5.14v-1h-5.14v1Zm5.65,5h1.36l1.61-2.29,1.6,2.29h1.26L496,219.66l2.31-3.23H497l-1.63,2.31-1.58-2.31h-1.36l2.29,3.19-2.29,3.21Zm6.43-6.4,1.49,5c.37,1.27,1.14,1.41,1.57,1.41l-1.07,3.25h.73l.89-1.23,2.66-8.42H503.9l-1.68,5.33a.6.6,0,0,1-.75-.47L500,216.43Z"/>
    <g>
      <path class="cls-39" d="M473.88,205.59a11.14,11.14,0,0,0,2,6.46H477a12.28,12.28,0,0,1-2-6.46,13.76,13.76,0,0,1,2-6.43h-1.13a13.1,13.1,0,0,0-2,6.43Zm3.59,3.93h1.36l1.61-2.29,1.6,2.29h1.26l-2.21-3.17,2.31-3.23H482l-1.63,2.31-1.58-2.31h-1.36l2.29,3.2-2.29,3.2Zm6.75-3.77h2v2h1v-2h2v-1h-2v-2h-1v2h-2v1Zm5.79-2.63,1.48,5c.38,1.27,1.15,1.41,1.57,1.41L492,212.77h.73l.9-1.23,2.66-8.42h-1.21l-1.68,5.33a.59.59,0,0,1-.75-.47l-1.44-4.86Zm6.74,8.93h1.14a11.14,11.14,0,0,0,2-6.46,13.1,13.1,0,0,0-2-6.43h-1.14a13.76,13.76,0,0,1,2,6.43A12.28,12.28,0,0,1,496.75,212.05Z"/>
      <path class="cls-39" d="M475.12,236.49a11.14,11.14,0,0,0,2,6.46h1.14a12.28,12.28,0,0,1-2-6.46,13.76,13.76,0,0,1,2-6.43h-1.14a13.1,13.1,0,0,0-2,6.43ZM490,243h1.14a11.14,11.14,0,0,0,2-6.46,13.1,13.1,0,0,0-2-6.43H490a13.76,13.76,0,0,1,2,6.43,12.28,12.28,0,0,1-2,6.46ZM478.67,235h1.13v5.39h1.1V235h1.7v-1h-1.7v-1.09c0-.61,0-1,.76-1h1.39v-.7a5,5,0,0,0-1.66-.29c-1.45,0-1.59,1.11-1.59,1.88V234l-1.13.2v.8Zm4.88,5.39h1.36l1.6-2.29,1.6,2.29h1.27l-2.21-3.17,2.31-3.22h-1.37l-1.62,2.3-1.58-2.3h-1.36l2.28,3.19-2.28,3.2Zm10.92-6.82,1.74.06-.06-.93-1.68.33v.54Zm.79,1.82.5.17.69-1.58-.9-.22-.29,1.63Zm.74-3.65.52-.2.88,1.43-.86.38-.54-1.61Zm.36,2.95.51-.78L498.2,235l-.29.43-1.55-.74Zm.54-1.18.6.71,1.11-1.17-.27-.46Z"/>
    </g>
  </g>
  <g>
    <g>
      <circle class="cls-12" cx="412.91" cy="317.63" r="28"/>
      <path class="cls-41" d="M412.91,288.7a28.92,28.92,0,1,1-20.46,8.47,28.87,28.87,0,0,1,20.46-8.47Zm19.15,9.78A27.09,27.09,0,1,0,440,317.63,27,27,0,0,0,432.06,298.48Z"/>
    </g>
    <g>
      <path class="cls-42" d="M420.45,312.62H405.37a2.51,2.51,0,0,0-2.51,2.51v1.59H397a2.84,2.84,0,0,0-2.83,2.84v7.53a2.84,2.84,0,0,0,2.83,2.84h1.92l-.82.81a.73.73,0,0,0,1,1l2.07-2.07a.74.74,0,0,0,0-1l-2.07-2.07a.73.73,0,1,0-1,1l.82.81H397a1.37,1.37,0,0,1-1.37-1.37v-7.53a1.38,1.38,0,0,1,1.37-1.38h5.85v1.47a2.52,2.52,0,0,0,2.51,2.51h15.08a2.52,2.52,0,0,0,2.51-2.51v-4.52a2.51,2.51,0,0,0-2.51-2.51Zm1,7a1,1,0,0,1-1,1H405.37a1,1,0,0,1-1-1v-4.52a1,1,0,0,1,1-1.05h15.08a1,1,0,0,1,1,1.05Z"/>
      <path class="cls-42" d="M420.45,324.45H405.37a2.51,2.51,0,0,0-2.51,2.5v4.52a2.51,2.51,0,0,0,2.51,2.51h4.2a.73.73,0,0,0,0-1.46h-4.2a1,1,0,0,1-1-1V327a1,1,0,0,1,1-1h15.08a1,1,0,0,1,1,1v4.52a1,1,0,0,1-1,1H416a.73.73,0,0,0,0,1.46h4.44a2.51,2.51,0,0,0,2.51-2.51V327a2.51,2.51,0,0,0-2.51-2.5Z"/>
      <path class="cls-42" d="M428.81,304.91H423V303.3a2.52,2.52,0,0,0-2.51-2.51H405.37a2.52,2.52,0,0,0-2.51,2.51v1.61h-6.09a1.14,1.14,0,0,1-1.13-1.13v-2.26a.73.73,0,1,0-1.46,0v2.26a2.59,2.59,0,0,0,2.59,2.59h6.09v1.45a2.52,2.52,0,0,0,2.51,2.51h15.08a2.52,2.52,0,0,0,2.51-2.51v-1.45h5.85a1.37,1.37,0,0,1,1.37,1.38v7.53a1.37,1.37,0,0,1-1.37,1.38H426.9l.81-.82a.73.73,0,0,0-1-1l-2.07,2.07a.72.72,0,0,0-.21.52.69.69,0,0,0,.21.51l2.07,2.07a.73.73,0,1,0,1-1l-.81-.81h1.91a2.84,2.84,0,0,0,2.84-2.84v-7.53a2.84,2.84,0,0,0-2.84-2.84Zm-7.32,2.91a1,1,0,0,1-1,1H405.37a1,1,0,0,1-1-1V303.3a1,1,0,0,1,1-1h15.08a1,1,0,0,1,1,1Z"/>
      <path class="cls-42" d="M413.51,333a.73.73,0,1,0-.27.89.73.73,0,0,0,.27-.89Z"/>
      <path class="cls-42" d="M418.37,304.83H407.61a.73.73,0,0,0,0,1.46h10.76a.73.73,0,0,0,0-1.46Z"/>
      <path class="cls-42" d="M418.37,316.72H407.61a.73.73,0,0,0,0,1.46h10.76a.73.73,0,0,0,0-1.46Z"/>
      <path class="cls-42" d="M419.1,329.34a.73.73,0,0,0-.73-.73H407.61a.73.73,0,0,0,0,1.46h10.76A.72.72,0,0,0,419.1,329.34Z"/>
    </g>
  </g>
  <g>
    <g>
      <circle class="cls-12" cx="381.31" cy="443.88" r="28"/>
      <path class="cls-41" d="M381.31,415a28.92,28.92,0,1,1-20.46,8.47A28.81,28.81,0,0,1,381.31,415Zm19.14,9.78a27.05,27.05,0,1,0,7.94,19.15A27,27,0,0,0,400.45,424.73Z"/>
    </g>
    <g id="Page-1">
      <g id="_007---Autism" data-name="007---Autism">
        <path id="Shape" class="cls-42" d="M363.47,448.41a3.61,3.61,0,0,0,.6.35c.25.13.67.35.7.5a1,1,0,0,1-.06.59c-.09.18-.18.34-.26.48-.21.37-.57,1,0,1.44a5.89,5.89,0,0,0,.54.44,1.45,1.45,0,0,0-.19.84.81.81,0,0,0,.34.57c.13.09.27.17.41.25.34.19.47.28.52.47a1.61,1.61,0,0,1-.06.69c0,.16-.07.31-.09.47a3.59,3.59,0,0,0,.19,1.56,2.19,2.19,0,0,0,2.06,1.59,2.61,2.61,0,0,0,.48,0,46.74,46.74,0,0,0,4.9-1.47c1.31.77,2.13,3.11,2.35,4a.58.58,0,0,0,.56.44l14.59,0a.6.6,0,0,0,.47-.23.57.57,0,0,0,.08-.52,4.51,4.51,0,0,0-.58-1.11,5,5,0,0,1-.38-.63,11.83,11.83,0,0,1-.66-1.65,19,19,0,0,1-.68-3.44,9.67,9.67,0,0,1,.37-4h1.45a1.74,1.74,0,0,0,1.74-1.74v-7.56a.58.58,0,0,0-.58-.58h-2.34a2.83,2.83,0,0,0,0-.29,2,2,0,0,0-4.07,0,2.83,2.83,0,0,0,0,.29h-1.76v-1.76a2.19,2.19,0,0,0,.95-.09,2,2,0,0,0-.95-3.94v-2.35a.58.58,0,0,0-.58-.58H376a1.74,1.74,0,0,0-1.74,1.75v15.11a1.74,1.74,0,0,0,1.74,1.74h12.44a11.13,11.13,0,0,0-.31,4.14,21.45,21.45,0,0,0,.73,3.65,13.55,13.55,0,0,0,.73,1.82,6.59,6.59,0,0,0,.45.76l0,.05-13.18,0a9.14,9.14,0,0,0-2-3.71l.52-.18.83-.29c2.49-.79,3.74-1.92,3.7-3.37a.57.57,0,0,0-.59-.57.59.59,0,0,0-.57.6c0,.59-.47,1.47-2.89,2.23l-.86.3-1.59.55h0a46.35,46.35,0,0,1-5,1.51,1,1,0,0,1-1.19-.78,2.14,2.14,0,0,1-.14-1,2.2,2.2,0,0,1,.07-.37,2.56,2.56,0,0,0,.05-1.23,1.9,1.9,0,0,0-1.08-1.19l-.12-.07a2.21,2.21,0,0,1,.23-.36.62.62,0,0,0,.12-.44.61.61,0,0,0-.23-.39l-.71-.54a1.19,1.19,0,0,1,.08-.16c.09-.16.2-.34.3-.56a2.23,2.23,0,0,0,.16-1.3c-.14-.71-.82-1.06-1.32-1.31a2.87,2.87,0,0,1-.48-.28,2.3,2.3,0,0,1-.34-.28c0-.09.09-.3.53-.84A23.71,23.71,0,0,0,367,442a1.8,1.8,0,0,0,.22-.79,2,2,0,0,0-.85-1.45c-.23-.22-.46-.42-.48-.61a.93.93,0,0,1,.09-.4c.09-.25.2-.49.31-.73a8.65,8.65,0,0,0,.57-1.54l.06-.24a14.06,14.06,0,0,1,.47-1.72,10.1,10.1,0,0,1,2.09-3.41,9.57,9.57,0,0,1,5.21-2.47,36.89,36.89,0,0,1,5.45-.79,12.46,12.46,0,0,1,7.48,2v.56a.6.6,0,0,0,.32.52.58.58,0,0,0,.61-.05.9.9,0,0,1,1.2.15.85.85,0,0,1,.17.75.86.86,0,0,1-1.37.49.58.58,0,0,0-.61-.05.6.6,0,0,0-.32.52v2.61a1.16,1.16,0,0,0,1.17,1.16h2.61a.58.58,0,0,0,.52-.32.59.59,0,0,0,0-.61.87.87,0,0,1,1.28-1.16.86.86,0,0,1,.11,1.16.59.59,0,0,0-.05.61.57.57,0,0,0,.52.32h3.19a.58.58,0,0,0,.58-.58v-7.55a1.74,1.74,0,0,0-1.74-1.75h-7.56a.58.58,0,0,0-.58.58v1.25a13.74,13.74,0,0,0-7.54-1.81,38,38,0,0,0-5.62.81,10.59,10.59,0,0,0-5.83,2.81,11.16,11.16,0,0,0-2.33,3.81,14.44,14.44,0,0,0-.51,1.85l-.06.25a7.79,7.79,0,0,1-.5,1.32c-.11.27-.24.53-.34.81a1.89,1.89,0,0,0-.15,1,2.19,2.19,0,0,0,.84,1.3c.29.26.47.44.48.6a1.09,1.09,0,0,1-.1.25,23.1,23.1,0,0,1-2.54,4.14,2.34,2.34,0,0,0-.77,1.7A1.72,1.72,0,0,0,363.47,448.41Zm11.93-15.33a.58.58,0,0,1,.58-.58h7v2.61a.59.59,0,0,0,.33.52.57.57,0,0,0,.6-.05.9.9,0,0,1,1.21.15.88.88,0,0,1,.16.75.86.86,0,0,1-.55.62.92.92,0,0,1-.82-.13.58.58,0,0,0-.61-.05.6.6,0,0,0-.32.52v2.61h-1.76a2,2,0,0,0-.09-.95,2,2,0,0,0-1.46-1.32,2,2,0,0,0-1.73.39,2,2,0,0,0-.77,1.59,2.83,2.83,0,0,0,0,.29H375.4Zm0,15.11v-7H378a.57.57,0,0,0,.52-.32.58.58,0,0,0,0-.61.88.88,0,0,1,.15-1.2.9.9,0,0,1,.76-.17.88.88,0,0,1,.61.56.87.87,0,0,1-.13.82.57.57,0,0,0-.05.6.58.58,0,0,0,.52.32H383V443a2,2,0,1,0,0,4v1.77h-7A.58.58,0,0,1,375.4,448.19Zm8.39-2.56a.59.59,0,0,0-.61.06.87.87,0,1,1,0-1.4.57.57,0,0,0,.61.06.58.58,0,0,0,.32-.52v-2.62h2.62a.58.58,0,0,0,.52-.32.57.57,0,0,0-.06-.61.87.87,0,0,1,1.29-1.16.86.86,0,0,1,.11,1.16.61.61,0,0,0-.06.61.58.58,0,0,0,.52.32h2.62v7a.58.58,0,0,1-.58.58h-7v-2.62A.59.59,0,0,0,383.79,445.63Zm5-17.78h7a.58.58,0,0,1,.58.58v7h-1.76a2.83,2.83,0,0,0,0-.29,2,2,0,0,0-4.07,0,2.83,2.83,0,0,0,0,.29h-1.76v-1.76a2.19,2.19,0,0,0,1-.09,2,2,0,0,0-1-3.94Z"/>
        <path id="Shape-2" data-name="Shape" class="cls-42" d="M369.1,437l.06-.25a12.82,12.82,0,0,1,.39-1.44,7.63,7.63,0,0,1,1.6-2.61,4.68,4.68,0,0,1,1.58-1.06.62.62,0,0,0,.36-.48.6.6,0,0,0-.24-.54.6.6,0,0,0-.59-.05,6.09,6.09,0,0,0-1.95,1.33,8.65,8.65,0,0,0-1.85,3,14,14,0,0,0-.43,1.57l-.06.26a.57.57,0,0,0,.07.44.59.59,0,0,0,.37.25l.13,0A.58.58,0,0,0,369.1,437Z"/>
        <circle id="Oval" class="cls-42" cx="367.84" cy="438.89" r="0.58"/>
      </g>
    </g>
  </g>
  <g>
    <g>
      <circle class="cls-12" cx="412.1" cy="547.28" r="28"/>
      <path class="cls-41" d="M412.1,518.35a28.92,28.92,0,1,1-20.45,8.47,28.86,28.86,0,0,1,20.45-8.47Zm19.15,9.78a27.06,27.06,0,1,0,7.94,19.15A27,27,0,0,0,431.25,528.13Z"/>
    </g>
    <g>
      <path class="cls-42" d="M428.67,536.35a11.81,11.81,0,0,0-4.24-6.09c-4-3.13-7.73-4.43-12.1-4.21a48,48,0,0,0-6.86,1,12.9,12.9,0,0,0-7.09,3.44,13.44,13.44,0,0,0-2.85,4.63,20.07,20.07,0,0,0-.64,2.3l-.06.26a9.06,9.06,0,0,1-.6,1.6c-.14.33-.29.66-.42,1a2.45,2.45,0,0,0-.19,1.19,2.68,2.68,0,0,0,1,1.58c.34.32.57.54.57.75a1.25,1.25,0,0,1-.12.3,27.4,27.4,0,0,1-3.1,5,3,3,0,0,0-.94,2.09,2.23,2.23,0,0,0,1,1.32,6.79,6.79,0,0,0,.74.43c.31.15.82.41.85.6a1.23,1.23,0,0,1-.07.71c-.11.22-.22.41-.31.58-.26.46-.7,1.23,0,1.78.15.14.41.34.65.52a1.86,1.86,0,0,0-.23,1,1,1,0,0,0,.42.69c.16.11.33.21.5.31.41.23.58.34.63.56a2.07,2.07,0,0,1-.07.86,4,4,0,0,0-.11.56,4.1,4.1,0,0,0,.24,1.9,2.62,2.62,0,0,0,3.08,1.88,58.74,58.74,0,0,0,6-1.79c1.59.94,2.6,3.79,2.86,4.85a.71.71,0,0,0,.69.54h17.91a.71.71,0,0,0,.57-.28.74.74,0,0,0,.11-.63,4.88,4.88,0,0,0-.8-1.38,5.24,5.24,0,0,1-.51-.78,13.47,13.47,0,0,1-.8-2,23,23,0,0,1-.84-4.19,12,12,0,0,1,.93-6.22,16.06,16.06,0,0,1,1.92-3c.43-.57.87-1.17,1.27-1.8a10.93,10.93,0,0,0,1.74-5.82A21.46,21.46,0,0,0,428.67,536.35Zm-.68,6a9.52,9.52,0,0,1-1.51,5.08c-.38.59-.8,1.16-1.21,1.72a17.27,17.27,0,0,0-2.09,3.31,13.4,13.4,0,0,0-1,7,24.84,24.84,0,0,0,.89,4.43,14.72,14.72,0,0,0,.87,2.23,7.13,7.13,0,0,0,.65,1,.05.05,0,0,1,0,0H408.45a11.48,11.48,0,0,0-2.5-4.53l.52-.18,1.13-.39c3-1,4.56-2.34,4.52-4.11a.71.71,0,0,0-1.42,0c0,.73-.58,1.79-3.52,2.72-.21.06-.63.21-1.18.4l-1.81.63h0a58.31,58.31,0,0,1-6.08,1.84,1.25,1.25,0,0,1-1.46-.95,2.69,2.69,0,0,1-.18-1.25c0-.15.06-.29.09-.44a3.22,3.22,0,0,0,.07-1.51,2.37,2.37,0,0,0-1.31-1.46l-.15-.08a2,2,0,0,1,.27-.44.67.67,0,0,0,.14-.53.69.69,0,0,0-.28-.48c-.17-.12-.57-.43-.86-.66a1.28,1.28,0,0,1,.11-.2l.36-.67a2.71,2.71,0,0,0,.19-1.59c-.17-.86-1-1.29-1.61-1.6a3.38,3.38,0,0,1-.58-.34,2.72,2.72,0,0,1-.42-.34c0-.1.11-.36.66-1a28.34,28.34,0,0,0,3.23-5.26,2,2,0,0,0,.28-1,2.45,2.45,0,0,0-1-1.77c-.28-.27-.55-.51-.58-.73a1.25,1.25,0,0,1,.11-.5c.12-.31.25-.61.39-.91a9.65,9.65,0,0,0,.68-1.86l.06-.26a17.7,17.7,0,0,1,.59-2.13,12.17,12.17,0,0,1,2.54-4.15,11.6,11.6,0,0,1,6.35-3,45.13,45.13,0,0,1,6.65-.95c4-.21,7.45,1,11.16,3.91a10.18,10.18,0,0,1,3.74,5.36A19.7,19.7,0,0,1,428,542.35Z"/>
      <path class="cls-42" d="M425,537.48H423.5a9.19,9.19,0,0,0-.66-1.59l1-1a.73.73,0,0,0,.08-.91,10.28,10.28,0,0,0-2.51-2.5.7.7,0,0,0-.91.08l-1,1a8.88,8.88,0,0,0-1.59-.66v-1.47a.71.71,0,0,0-.59-.69,10,10,0,0,0-3.54,0,.71.71,0,0,0-.59.69v1.47a9.29,9.29,0,0,0-1.6.66l-1-1a.69.69,0,0,0-.9-.08,10.11,10.11,0,0,0-2.51,2.5.71.71,0,0,0,.08.91l1,1a7.85,7.85,0,0,0-.66,1.59h-1.47a.72.72,0,0,0-.7.59,10.08,10.08,0,0,0,0,3.55.72.72,0,0,0,.7.58h1.47a7.94,7.94,0,0,0,.66,1.6l-1,1a.7.7,0,0,0-.08.9,10,10,0,0,0,2.51,2.51.7.7,0,0,0,.9-.08l1-1a7.94,7.94,0,0,0,1.6.66v1.47a.72.72,0,0,0,.59.7,10,10,0,0,0,3.54,0,.72.72,0,0,0,.59-.7v-1.47a7.62,7.62,0,0,0,1.59-.66l1,1a.71.71,0,0,0,.91.08,10.15,10.15,0,0,0,2.51-2.51.71.71,0,0,0-.08-.9l-1-1a8.56,8.56,0,0,0,.66-1.6H425a.71.71,0,0,0,.69-.58,10.08,10.08,0,0,0,0-3.55A.71.71,0,0,0,425,537.48Zm-.62,3.3H423a.71.71,0,0,0-.69.56,6.69,6.69,0,0,1-.91,2.19.7.7,0,0,0,.1.88l1,1a8.37,8.37,0,0,1-1.33,1.33l-1-1a.71.71,0,0,0-.89-.1,6.69,6.69,0,0,1-2.19.91.71.71,0,0,0-.55.69v1.41a9.84,9.84,0,0,1-1.88,0v-1.41a.71.71,0,0,0-.56-.69,6.69,6.69,0,0,1-2.19-.91.7.7,0,0,0-.88.1l-1,1a8.37,8.37,0,0,1-1.33-1.33l1-1a.7.7,0,0,0,.1-.88,6.69,6.69,0,0,1-.91-2.19.71.71,0,0,0-.69-.56h-1.41a9.84,9.84,0,0,1,0-1.88h1.41a.71.71,0,0,0,.69-.55,6.69,6.69,0,0,1,.91-2.19.7.7,0,0,0-.1-.88l-1-1A8.8,8.8,0,0,1,410,533l1,1a.71.71,0,0,0,.88.09,6.69,6.69,0,0,1,2.19-.91.71.71,0,0,0,.56-.69V531a8.44,8.44,0,0,1,1.88,0v1.4a.71.71,0,0,0,.55.69,6.69,6.69,0,0,1,2.19.91.72.72,0,0,0,.89-.09l1-1a8.8,8.8,0,0,1,1.33,1.33l-1,1a.7.7,0,0,0-.1.88,6.69,6.69,0,0,1,.91,2.19.71.71,0,0,0,.69.55h1.4A8.44,8.44,0,0,1,424.35,540.78Z"/>
      <path class="cls-42" d="M406,546.57h-.8a2.85,2.85,0,0,0-.31-.72l.58-.57a.72.72,0,0,0,0-1,.7.7,0,0,0-1,0l-.58.57a2.39,2.39,0,0,0-.72-.3v-.81a.71.71,0,0,0-1.42,0v.81a2.5,2.5,0,0,0-.72.3l-.57-.57a.73.73,0,0,0-.69-.19.74.74,0,0,0-.5.5.73.73,0,0,0,.19.69l.57.57a3.23,3.23,0,0,0-.3.72h-.81a.71.71,0,0,0,0,1.42h.81a3,3,0,0,0,.3.72l-.57.57a.73.73,0,0,0-.19.69.74.74,0,0,0,.5.5.7.7,0,0,0,.69-.18l.57-.58a2.5,2.5,0,0,0,.72.3v.81a.71.71,0,0,0,1.42,0V550a2.39,2.39,0,0,0,.72-.3l.58.58a.72.72,0,0,0,1,0,.73.73,0,0,0,0-1l-.58-.57a2.7,2.7,0,0,0,.31-.72h.8a.71.71,0,0,0,0-1.42Zm-3.54,2.13a1.42,1.42,0,1,1,1.42-1.42A1.42,1.42,0,0,1,402.44,548.7Z"/>
      <path class="cls-42" d="M398.73,539.49a3,3,0,0,0,.17.41l-.38.38a.71.71,0,0,0,.32,1.19.72.72,0,0,0,.68-.19l.39-.38a2.09,2.09,0,0,0,.41.17v.54a.71.71,0,1,0,1.41,0v-.54a1.86,1.86,0,0,0,.41-.17l.39.38a.71.71,0,0,0,1-1l-.38-.38a3,3,0,0,0,.17-.41h.54a.71.71,0,0,0,0-1.42h-.54a3,3,0,0,0-.17-.41l.38-.38a.71.71,0,0,0-.32-1.19.74.74,0,0,0-.68.18l-.39.39a1.86,1.86,0,0,0-.41-.17V536a.71.71,0,1,0-1.41,0v.54a2.09,2.09,0,0,0-.41.17l-.39-.39a.71.71,0,0,0-1,1l.38.38a3,3,0,0,0-.17.41h-.54a.71.71,0,0,0,0,1.42Zm2-1.67a1,1,0,0,1,1.11.46,1,1,0,0,1-.15,1.2,1,1,0,0,1-1.7-.7A1,1,0,0,1,400.77,537.82Z"/>
      <path class="cls-42" d="M415.55,535.24a4.61,4.61,0,1,0,4.6,4.6A4.61,4.61,0,0,0,415.55,535.24Zm0,7.79a3.19,3.19,0,1,1,3.19-3.19A3.19,3.19,0,0,1,415.55,543Z"/>
    </g>
  </g>
  <g>
    <line class="cls-43" x1="305.16" y1="217.81" x2="445.64" y2="217.81"/>
    <circle class="cls-44" cx="305.34" cy="217.81" r="3.76"/>
    <path class="cls-44" d="M445.45,221.57a3.76,3.76,0,1,0-3.76-3.76A3.77,3.77,0,0,0,445.45,221.57Z"/>
  </g>
  <g>
    <line class="cls-43" x1="242.67" y1="312.75" x2="377.14" y2="312.75"/>
    <circle class="cls-44" cx="242.85" cy="312.75" r="3.76"/>
    <circle class="cls-44" cx="376.95" cy="312.75" r="3.76"/>
  </g>
  <g>
    <line class="cls-43" x1="254.36" y1="447.2" x2="348.8" y2="447.2"/>
    <circle class="cls-44" cx="254.55" cy="447.2" r="3.76"/>
    <circle class="cls-44" cx="348.62" cy="447.2" r="3.76"/>
  </g>
  <g>
    <line class="cls-43" x1="254.36" y1="559.5" x2="371.83" y2="559.5"/>
    <circle class="cls-44" cx="254.55" cy="559.5" r="3.76"/>
    <circle class="cls-44" cx="371.64" cy="559.5" r="3.76"/>
  </g>
  <g>
    <line class="cls-43" x1="811.19" y1="217.81" x2="935.75" y2="217.81"/>
    <circle class="cls-44" cx="811.38" cy="217.81" r="3.76"/>
    <circle class="cls-44" cx="935.56" cy="217.81" r="3.76"/>
  </g>
  <g>
    <line class="cls-43" x1="880.02" y1="311.11" x2="966.31" y2="311.11"/>
    <circle class="cls-44" cx="880.21" cy="311.11" r="3.76"/>
    <circle class="cls-44" cx="966.13" cy="311.11" r="3.76"/>
  </g>
  <g>
    <line class="cls-43" x1="891.8" y1="441.21" x2="978.09" y2="441.21"/>
    <circle class="cls-44" cx="891.99" cy="441.21" r="3.76"/>
    <circle class="cls-44" cx="977.9" cy="441.21" r="3.76"/>
  </g>
  <g>
    <line class="cls-43" x1="858.26" y1="549.61" x2="944.55" y2="549.61"/>
    <circle class="cls-44" cx="858.45" cy="549.61" r="3.76"/>
    <circle class="cls-44" cx="944.36" cy="549.61" r="3.76"/>
  </g>
  <g>
    <line class="cls-43" x1="761.97" y1="639.23" x2="1038.69" y2="639.23"/>
    <circle class="cls-44" cx="762.16" cy="639.23" r="3.76"/>
    <circle class="cls-44" cx="1038.5" cy="639.23" r="3.76"/>
  </g>
</svg>
