<svg id="Capa_1" data-name="Capa 1" xmlns="http://www.w3.org/2000/svg" width="600" height="400" viewBox="0 0 600 400">
  <defs>
    <style>
      .cls-1 {
        font-size: 16px;
        fill: #091320;
        font-family: Roboto-Regular, Roboto;
      }

      .cls-2 {
        letter-spacing: -0.01em;
      }

      .cls-3 {
        letter-spacing: -0.01em;
      }

      .cls-4 {
        letter-spacing: 0.02em;
      }

      .cls-5 {
        fill: #d8d5ed;
        stroke: #6f678c;
        stroke-width: 2px;
      }

      .cls-16, .cls-5 {
        stroke-miterlimit: 10;
      }

      .cls-6 {
        fill: #b2abdb;
      }

      .cls-7 {
        fill: #ffc19a;
      }

      .cls-8 {
        fill: #fa7d7d;
      }

      .cls-9 {
        fill: #f9dfc9;
      }

      .cls-10 {
        fill: #83d4ff;
      }

      .cls-11 {
        fill: #ff9d80;
      }

      .cls-12 {
        fill: #eb70f2;
      }

      .cls-13 {
        fill: #8a58ed;
      }

      .cls-14 {
        fill: #faad8e;
      }

      .cls-15 {
        fill: #4592ff;
      }

      .cls-16 {
        fill: none;
        stroke: #3e2ea6;
      }

      .cls-17 {
        fill: #3e2ea6;
      }
    </style>
  </defs>
  <text class="cls-1" transform="translate(68.47 140.94)">Ce<tspan class="cls-2" x="18.89" y="0">r</tspan><tspan x="24.16" y="0">eb</tspan><tspan class="cls-3" x="41.61" y="0">r</tspan><tspan x="46.87" y="0">o</tspan><tspan x="3.77" y="19.2">límbico</tspan></text>
  <text class="cls-1" transform="translate(496.79 218.98)">Ce<tspan class="cls-2" x="18.89" y="0">r</tspan><tspan x="24.16" y="0">eb</tspan><tspan class="cls-3" x="41.61" y="0">r</tspan><tspan x="46.87" y="0">o</tspan><tspan class="cls-2" x="0" y="19.2">r</tspan><tspan x="5.27" y="19.2">eptiliano</tspan></text>
  <text class="cls-1" transform="translate(127.32 65.31)">Ce<tspan class="cls-2" x="18.89" y="0">r</tspan><tspan x="24.16" y="0">eb</tspan><tspan class="cls-3" x="41.61" y="0">r</tspan><tspan x="46.87" y="0">o</tspan><tspan x="-15.38" y="19.2">neocó</tspan><tspan class="cls-4" x="28.55" y="19.2">r</tspan><tspan x="34.36" y="19.2">tex</tspan></text>
  <g>
    <path class="cls-5" d="M377.58,359.61c-1.15-28.77,3.43-54.73,13.72-76.72,5.77-12.32,13.79-23.56,21.55-34.44,9.26-13,18.82-26.37,24.66-41.71,11.26-29.61,7.12-65.12-10.8-92.68-14.65-22.55-36.37-40-62.8-50.51a151.93,151.93,0,0,0-39.56-9.76,154.4,154.4,0,0,0-41,1C256.51,59,232.25,69.42,213.2,84.82a114.06,114.06,0,0,0-25,28,107.71,107.71,0,0,0-14.38,36.33l-.13.66c-1,5-2.24,11.14-.07,16.11a24.25,24.25,0,0,0,2.28,3.9c1.57,2.32,2.94,4.32,2.57,7.75-.46,4.25-2.54,8.27-4.54,12.16-.34.66-.68,1.31-1,2-1.55,3.09-3.24,6.27-4.88,9.34-4.79,9-9.75,18.34-12.7,27.95-2.88,9.38-1,15.25,5.79,18a23.87,23.87,0,0,0,7.95,1.22c5.34.21,9.57.38,9.73,7.17a72.07,72.07,0,0,1-1,16,8.08,8.08,0,0,0-.16,2.12c.21,2.11,2,3.9,3.9,5-4.46,3.05-2.35,7-.48,10.45a18.43,18.43,0,0,1,2.08,4.88,22.27,22.27,0,0,1-.13,6.44,35.79,35.79,0,0,0-.31,4.08v1.47c0,5.77,0,12.95,4.19,17.16,9.58,9.61,21.12,6.61,32.29,3.71,8.75-2.28,17.8-4.64,26.06-1.08,10.29,4.43,13.82,19.22,14.57,34"/>
    <path class="cls-6" d="M304.68,276.24a78.54,78.54,0,0,0,0-157.07v4.66l4.63.11a73.91,73.91,0,0,1,0,147.53h-4.63Z"/>
    <path class="cls-7" d="M423.94,133.38a17.49,17.49,0,0,1-.78,1.8c1.22.37,2.44.8,3.64,1.23a6.93,6.93,0,0,1,4.1,3.84l.25.49a40.26,40.26,0,0,1,3,7.79c1.92,6.82,2.63,14.14,3.33,21.23l0,.36a62.46,62.46,0,0,1-1.33,21.27c-.28,1.13-.61,2.26-1,3.35-1.16,3.44-2.47,7.34-4.94,10.1-3.76,4.18-9.74,6.31-17.75,6.31a83,83,0,0,1-13.41-1.47c-1.33-.21-2.71-.44-4.07-.64a57.09,57.09,0,0,0-7.22-1.15c-1.16-.14-2.36-.28-3.51-.45-.74-.11-1.49-.21-2.24-.3a26.52,26.52,0,0,1-7.62-1.73,4.91,4.91,0,0,1-2.87-2.51l-.92-2.56-2.33,1.39c-.44.26-.87.5-1.28.7s-.94.41-1.39.58a19.93,19.93,0,0,1-7.07,1.07c-1.31,0-2.61-.06-4-.13l-1,0c-2-.09-3.95-.14-5.91-.14a124.68,124.68,0,0,0-16.46,1.1c-5.56.73-11.45,1.79-17.5,3.15-3,.67-6,1.5-8.95,2.3a132,132,0,0,1-13.72,3.22,62.9,62.9,0,0,1-8.88.81c-1.9,0-4.15,0-5.75-1.16a3.9,3.9,0,0,1-1.39-2.05c-3.53,3.29-10.26,5.66-14.75,5.66a26.33,26.33,0,0,1-9.64-1.76c-4.82-1.94-8.52-4.5-11-7.61-5.45-6.85-6.86-17.28-3.69-27.21,0,0,1-3.19,1.46-4.55a46.57,46.57,0,0,1-16.25,3.44c-11.18,0-23.76-1.76-28.33-8.4-1.62-2.36-3.19-5.79-2.19-9.48l.9-2.36-2.45-.61a7.13,7.13,0,0,1-4.76-3.7c-2.82-5.25-1.54-15,1-22.27l.29-.3v-.52c6.16-17.11,12.9-25.84,20-26l3.7-.06a10.49,10.49,0,0,1,0-6.93c1.54-4.47,11-10.57,27.24-19.24,1.19-.63,2.46-1.35,3.81-2.11,5.88-3.34,13.18-7.47,19.48-7.47A11.32,11.32,0,0,1,265,70.81l1,.51h.27c.51,0,.6-.1,1.46-1.09.41-.48,1.18-1.37,1.32-1.51a10,10,0,0,1,2-1.31c3-1.64,6.42-2,10-2.44.64-.08,1.29-.15,1.93-.24,4.69-.6,9.46-1,14.17-1.23,2.59-.12,5.19-.18,7.74-.18,2.28,0,4.57,0,6.82.14,1,0,2.14,0,3.35.06,6.2,0,15.53.13,18.16,4.6l1.21,2,1-.66A12.34,12.34,0,0,1,338,68a10.39,10.39,0,0,1,3.49-.56A26.94,26.94,0,0,1,349.43,69,101.19,101.19,0,0,1,359,72.87c1.19.53,2.32,1,3.3,1.43A135.49,135.49,0,0,1,390,89.66c.63.45,1.31.92,1.91,1.33,3.5,2.37,6.8,4.62,7,8.32l.17,2.92,2.78-.93a1.76,1.76,0,0,1,.64-.11c2.3,0,5.16,3.49,7.67,6.76.53.7,1,1.35,1.49,1.89s1.16,1.35,1.84,2.13a89.25,89.25,0,0,1,7.15,9,24,24,0,0,1,3.64,7.44A8.22,8.22,0,0,1,423.94,133.38Z"/>
    <path class="cls-8" d="M343.31,174.18a29.15,29.15,0,0,0,2-15.7,33.63,33.63,0,0,0-1.31-5.32h0c.07.23.16.45.25.67a7.86,7.86,0,0,0,1.44,2.3,7.15,7.15,0,0,0,.62.61c5.21,4.66,15.61,2.48,17.6-4.6,3.93-13.93-20.32-26.62-30-31.21a97.74,97.74,0,0,0-55.09-8.45c-15.44,2.22-36.11,9.17-39.42,26.84a14.48,14.48,0,0,0,2,10.59c2.47,3.73,5.87,4.71,10,5.52a12.78,12.78,0,0,1,7.07,3.5,11.63,11.63,0,0,1,2.26,3.7,15.77,15.77,0,0,1,.68,8.89,11.16,11.16,0,0,1-.31,1.17c-19.39.3-38.41-14.52-34-38.35,4.45-24,39.92-40,76.15-37.39,37.4,2.66,70,22.58,72.56,44.48C379,168.79,357.55,183.2,343.31,174.18Z"/>
    <path class="cls-9" d="M370.06,249.68c-6.28,0-12.14-2.76-16.94-8-7.72-8.4-12-22.27-10.88-35.33.85-10.09,4.83-18.34,11.21-23.25a16.31,16.31,0,0,1,10.25-3.51c5.79,0,12.54,2.7,20.64,8.27l.58.39a55.39,55.39,0,0,0,12,5.88c1.69.66,3.44,1.34,5.17,2.1,6.13,2.7,12,5.43,16.33,9.11a14.49,14.49,0,0,1,4.5,6.48l.08.29.11.41,0,.07c0,.07,0,.15.05.23a10.32,10.32,0,0,1,.18,1.26c.26,3.16-1.72,6.3-6.22,9.88a86.81,86.81,0,0,1-7.83,5.34c-2,1.25-3.86,2.42-5.31,3.53l-.55.43c-2.34,1.78-4.74,3.62-7.14,5.33A74.17,74.17,0,0,1,383,246.52a41.09,41.09,0,0,1-7.62,2.55A23.85,23.85,0,0,1,370.06,249.68Z"/>
    <path class="cls-10" d="M256.52,155.14c-2.39-1-5.1-1.34-6.93-3.38-5.1-5.68-1.18-13.32,3.54-17.91a33.39,33.39,0,0,1,9.55-6.33c20.75-9.46,50.1-6,69.42,5.8,3.68,2.23,4.74,5.61,6.87,9.44,3.63,6.51,4.61,16.86,14.71,16.62,4.42-.1,9-2.76,10.26-7.24,3.93-13.93-20.32-26.62-30-31.21a97.74,97.74,0,0,0-55.09-8.45c-15.44,2.22-36.11,9.17-39.42,26.84a14.48,14.48,0,0,0,2,10.59c2.47,3.73,5.87,4.71,10,5.52a16,16,0,0,1,4.45,1.51Z"/>
    <path class="cls-11" d="M255.87,156.94a9.47,9.47,0,0,1,2.62,2,11.63,11.63,0,0,1,2.26,3.7,15.77,15.77,0,0,1,.68,8.89,11.16,11.16,0,0,1-.31,1.17,16.44,16.44,0,0,1-2.35,4.56,20.85,20.85,0,0,1-3.52,3.38c-1,.86-4.42,3.75-3.16,5.28.77,1,3.38.6,4.37.21.42-.16,3-1,3.09-1.32-.11.29-.23.57-.35.86a96,96,0,0,0-3.6,9.92l0,.17a1,1,0,0,0,.44.92.94.94,0,0,0,.45.16,1,1,0,0,0,.71-.22l.24-.18a90.79,90.79,0,0,1,12.1-8.28c4.09-2.34,8.65-5.12,13.46-5.51,3.09-.26,8.64-1,11.08,1.6,1.88,2,3,4.41,4.54,6.71a18.2,18.2,0,0,0,2.8,3.48c1.43,1.71,0,3.95-2,4.56-2.59.33-5.14.24-7.36,1.25A7.27,7.27,0,0,0,289.6,202c-3.78,3.91-4.8,8.89-4.57,13.78l0,.39a.49.49,0,0,0,0,.12,25.73,25.73,0,0,0,1.08,4.52,35.66,35.66,0,0,0,1.9,4.93c.34.74.68,1.52,1,2.43.24.59.44,1.08.64,1.53l0,.06c.13.3.25.56.37.82s.3.64.45.94.23.46.34.69l.36.69,0,0,0,0s0,.05,0,.08l0,.07.08.13c.07.13.14.27.22.4l0,.06.09.17,0,0,.29.49c.11.19.22.36.33.53s.31.49.46.72c.26.4.51.76.77,1.1a6.41,6.41,0,0,0,.39.52c.13.18.28.36.43.54l.24.3.29.33a3.33,3.33,0,0,0,.25.28l0,0c.14.16.27.31.42.46l.41.43a.41.41,0,0,1,.1.09,6,6,0,0,0,.45.42l0,0,.11.11.42.37c.41.36.84.7,1.29,1l.52.37,0,0,0,0,.09.06.57.37.1.07.07,0,.3.19c.47.27.94.52,1.44.76l.47.22a12,12,0,0,0,3.87.65,9.73,9.73,0,0,0,3.92-.78c.17-.08,1-.53,1.19-.66l3.53-2.18-2.18,3.54a44.89,44.89,0,0,0-3.84,9.45c-.65,3.9.65,7.91,4.07,12.61,9.57,11.09,16.21,22.29,20.3,34.25,1.49,4.56,3,9.12,4.48,13.64h17.56c-1.07-4.61-2.25-9.46-3.56-14.64-1.42-5.63-2.87-11.18-4-15.38-.55-2.08-.83-4.39-1.29-6.5-.65-3-1-5.33-1.52-8.05-.27-1.05-.55-2.09-.82-3.15-.65-2.45-1.29-4.93-1.92-7.41-1-4.06-2-8.09-2.78-12.13-2.41-11.72-4.18-23.44-6.58-35.44-.32-1.53-.67-3.05-1.05-4.55a73.4,73.4,0,0,0-4.62-13.44c-.65-1.38-1.35-2.75-2.13-4.11a19.55,19.55,0,0,0-4.15-4.87,40.58,40.58,0,0,0-7.59-5,38.64,38.64,0,0,0-18.49-2.91c-6.85.63-13.91,3.43-20.08,6.39a99.32,99.32,0,0,0-16.06,9.94c.55-1.56,1.29-3.07,1.9-4.6s2.07-3.47,2.22-5.05c.18-2-2.11-1.84-3.34-1.24a7.33,7.33,0,0,1-2.93,1.15.55.55,0,0,1-.31-.07c-.23-.2,0-.56.27-.75a22.61,22.61,0,0,0,4.15-4.2,13,13,0,0,0,1.86-3.49c.24-.67.36-1.47.65-2.16a2.67,2.67,0,0,1,.79-1.11c1.3-1,2.92-2.42,2.88-4.22s-1.87-3.43-3.35-4.28c-1.32-.76-1.37-2.9-2.09-4.12a10.09,10.09,0,0,0-4.62-3.84Z"/>
    <ellipse class="cls-12" cx="303.53" cy="156.77" rx="14.28" ry="21.86" transform="translate(118.91 444.21) rotate(-84.6)"/>
    <path class="cls-13" d="M345.62,164.21a27,27,0,0,1-.3,2.85,32,32,0,0,1-2,7.12,39.16,39.16,0,0,1-5,8.71,47.41,47.41,0,0,1-5.09,5.78c-.35.34-.71.68-1.08,1a1.9,1.9,0,0,1-.21.19,36,36,0,0,1-5,3.77,56.53,56.53,0,0,1-15.39,6.58c-5.15,1.39-11.63,2.78-16.91,1.23a9.89,9.89,0,0,1-2.62-1.2c-3.37-2.25-3.74-6.15,1.52-8.09a26.33,26.33,0,0,1,5-1.2c1.82-.29,3.66-.51,5.45-.93,5.68-1.34,11.51-2.67,16.62-5.37a28.33,28.33,0,0,0,3.11-1.89,29.66,29.66,0,0,0,8.31-8.78l.25-.44a26,26,0,0,0,3-7.82,20.88,20.88,0,0,0,.36-2.17c2.71-22.52-27.58-36.17-48.06-27.37a27.68,27.68,0,0,0-5.22,2.91,24.58,24.58,0,0,0-3.24,2.76,26.5,26.5,0,0,0-3.18,3.94c-.55.83-1.42,3.53-2.51,3.76-2.15.47-.3-4.36-.06-5,3.39-9.29,12.67-14.23,22.56-15.57,20.19-2.75,41.79,5.88,48,24.2a33.63,33.63,0,0,1,1.31,5.32A26.3,26.3,0,0,1,345.62,164.21Z"/>
    <g>
      <path class="cls-14" d="M194.56,147.5a36.77,36.77,0,0,0,3.05-6.55,35.42,35.42,0,0,0,1.43-6.53,22.56,22.56,0,0,1,2.27-7.57,10.89,10.89,0,0,1,2.75-3.26,6.34,6.34,0,0,1,3.9-1.42,10.13,10.13,0,0,0-2,3,16.32,16.32,0,0,0-1,3.15c-.45,2.09-.55,4.38-1,6.9a23.28,23.28,0,0,1-1,3.89,14.51,14.51,0,0,1-2,3.71A12,12,0,0,1,194.56,147.5Z"/>
      <path class="cls-14" d="M202,156.79a16.73,16.73,0,0,0,6,5.19,41.73,41.73,0,0,0,7,3.05,51.37,51.37,0,0,0,7.51,1.93,28.4,28.4,0,0,0,8.12.44,9.71,9.71,0,0,1-3.78,2.52,16,16,0,0,1-4.47,1,21.82,21.82,0,0,1-9-1.11,20.53,20.53,0,0,1-7.84-4.72,13.65,13.65,0,0,1-2.74-3.81A8.14,8.14,0,0,1,202,156.79Z"/>
      <path class="cls-14" d="M224.06,155.74a44.35,44.35,0,0,1-5.77-16.06,27.36,27.36,0,0,1,3.19-17.51,24.53,24.53,0,0,1,2.77-3.71c1-1.09,2-2.08,3-3a28,28,0,0,0,2.54-2.82,12,12,0,0,0,1.69-3,6.57,6.57,0,0,0,.37-3.17,6.43,6.43,0,0,0-1.43-3c-1.54-2-4-3.4-6.38-4.91a18.18,18.18,0,0,1,8.11,3.11,8.7,8.7,0,0,1,2.91,4,9.47,9.47,0,0,1,.28,5.08,18,18,0,0,1-4.56,8.11,39.61,39.61,0,0,0-4.9,6.06,28.84,28.84,0,0,0-3.58,14.64C222.22,144.71,223.22,150.15,224.06,155.74Z"/>
      <path class="cls-14" d="M232.1,107.41a16.92,16.92,0,0,1,4-3.49,38.34,38.34,0,0,1,4.38-2.36c1.44-.71,2.83-1.3,4.1-2a20.53,20.53,0,0,0,3.48-2.34,9.59,9.59,0,0,0,2.35-3,11.7,11.7,0,0,0,.92-3.87c.15-1.47.23-3.06.5-4.71A10.7,10.7,0,0,1,253.62,81c.08,3.31,1.12,6,1.35,9.45a12.77,12.77,0,0,1-.74,5.4,12.55,12.55,0,0,1-3.14,4.67,28.76,28.76,0,0,1-8.67,5.26A28.87,28.87,0,0,0,234.9,110Z"/>
      <path class="cls-14" d="M266.74,71.38A7.66,7.66,0,0,1,270,74.59a10.23,10.23,0,0,1,.61,8.49,7.58,7.58,0,0,1-2.75,3.63,22,22,0,0,1-1.22-4.06,26.82,26.82,0,0,1-.49-7.08A21.11,21.11,0,0,1,266.74,71.38Z"/>
      <path class="cls-14" d="M208.59,105.4a8.33,8.33,0,0,1,3.69-.11,9.37,9.37,0,0,1,2.95,1.13,9.12,9.12,0,0,1,2.39,2.06,8.14,8.14,0,0,1,1.64,3.32,8.18,8.18,0,0,1-3.69.11,9.06,9.06,0,0,1-5.33-3.2A8.23,8.23,0,0,1,208.59,105.4Z"/>
      <path class="cls-14" d="M255.33,92.54c.31.7.5.76,1.16,1a7.85,7.85,0,0,0,2.92,0,26.14,26.14,0,0,0,3.62-.85c1.25-.36,2.48-.79,3.87-1.25a90.17,90.17,0,0,1,16.75-3.28c2.8-.33,5.59-.52,8.37-.7l4.15-.25a31.22,31.22,0,0,0,3.78-.44,18.72,18.72,0,0,0,6.93-2.6,13.25,13.25,0,0,0,5-6,11,11,0,0,1-3.06,8.15A17,17,0,0,1,301,91.05a25.83,25.83,0,0,1-4.4.9l-4.11.51c-2.73.35-5.44.74-8.13,1.13A116.12,116.12,0,0,0,268.64,97c-1.24.39-2.63.86-4,1.25a30.5,30.5,0,0,1-4.49.89,12.25,12.25,0,0,1-5.3-.44,6.58,6.58,0,0,1-4.36-4.73Z"/>
      <path class="cls-14" d="M334.37,70A3.39,3.39,0,0,1,336,72a5.86,5.86,0,0,1,.21,2.62A9.52,9.52,0,0,1,334.35,79a25.86,25.86,0,0,1-2.46,2.73,10.57,10.57,0,0,0-2.44,3,3.68,3.68,0,0,1-1.25-2.24,6.46,6.46,0,0,1,.1-2.56,11.06,11.06,0,0,1,2-4c.73-1,1.48-1.82,2.19-2.65A7.33,7.33,0,0,0,334.37,70Z"/>
      <path class="cls-14" d="M391.54,162a35,35,0,0,0-2.28,6.08,27.27,27.27,0,0,0-.93,5.66,17.89,17.89,0,0,0,.49,5.46,17.45,17.45,0,0,0,2.72,5.64,8.57,8.57,0,0,1-6.3-3.88,12.07,12.07,0,0,1-2-7.49,14,14,0,0,1,2.42-7.13A10.45,10.45,0,0,1,391.54,162Z"/>
      <path class="cls-14" d="M326.26,93.37a7.7,7.7,0,0,1,5.3-.39,28.2,28.2,0,0,1,4.87,1.76,25.24,25.24,0,0,0,4.19,1.52,13,13,0,0,0,4,.42,8.45,8.45,0,0,0,6.44-3.28,9.78,9.78,0,0,0,1.47-3.91,27.12,27.12,0,0,1,1.25-4.94c.42,1.68.93,3.22,1.25,5a10.29,10.29,0,0,1-.41,5.7,11,11,0,0,1-9.72,6.55,14.31,14.31,0,0,1-5.74-.91,18.52,18.52,0,0,1-4.74-2.66c-1.35-1-2.57-2-3.84-2.92A10.32,10.32,0,0,0,326.26,93.37Z"/>
      <path class="cls-14" d="M350.07,95.53a15.46,15.46,0,0,0,6,1.78,31.76,31.76,0,0,0,6.81-.1c4.64-.52,9.42-1.68,14.21-1.74-4.71.9-9,2.83-13.7,4.22a34,34,0,0,1-7.37,1.43,20.07,20.07,0,0,1-7.94-.92Z"/>
      <path class="cls-14" d="M399.14,101.92a6.1,6.1,0,0,1-.28,5.45,7.78,7.78,0,0,1-1.84,2.3,10.76,10.76,0,0,1-2.34,1.47,28.8,28.8,0,0,1-4.1,1.39,13.57,13.57,0,0,0-1.83.68,5.69,5.69,0,0,0-1.9,1.34,3.63,3.63,0,0,1-.08-2.86,6.69,6.69,0,0,1,1.55-2.46,14.12,14.12,0,0,1,4.22-2.69,21.09,21.09,0,0,0,3.22-1.67A17.51,17.51,0,0,0,399.14,101.92Z"/>
      <path class="cls-14" d="M423.28,135.26a12.23,12.23,0,0,0-8.15,6.55,16.55,16.55,0,0,0-1.17,9.85,20.47,20.47,0,0,0,.53,2.54c.22.87.54,1.83.77,2.92a10.68,10.68,0,0,1,.24,3.68,6.83,6.83,0,0,1-1.69,3.75,8.42,8.42,0,0,1-6.51,2.65,15.81,15.81,0,0,1-6-1.59,32.9,32.9,0,0,0,5.7-.89,6.18,6.18,0,0,0,3.65-2.61,3.17,3.17,0,0,0,.39-1.66,8.6,8.6,0,0,0-.44-2.13l-.92-2.71a22.93,22.93,0,0,1-.74-3.18,16.83,16.83,0,0,1,2.85-12.79,12.79,12.79,0,0,1,5.25-4A9.3,9.3,0,0,1,423.28,135.26Z"/>
      <path class="cls-14" d="M415.81,160.92a3.08,3.08,0,0,0,.47,2.57,12.1,12.1,0,0,0,2.85,2.73,15.29,15.29,0,0,1,3.42,3.27,5.4,5.4,0,0,1,1,4.44,4.77,4.77,0,0,0-2-3.59,13.45,13.45,0,0,0-3.74-1.91,15.26,15.26,0,0,1-4.39-2.35,7.64,7.64,0,0,1-2.74-5.45Z"/>
      <path class="cls-14" d="M432.59,201.41a6.58,6.58,0,0,1-2.59,3.87,8.19,8.19,0,0,1-4.82,1.7,8.94,8.94,0,0,1-5.16-1.64,10.25,10.25,0,0,1-3.38-4.14c-1.39-3.09-1.54-5.84-2.43-7.86a8.39,8.39,0,0,0-2-2.88c-.92-.94-2.08-1.82-3.18-2.85a13.88,13.88,0,0,1,4.47.71,8.81,8.81,0,0,1,4.08,2.87,14.93,14.93,0,0,1,2.26,4.23c.53,1.36.92,2.62,1.41,3.63a7.21,7.21,0,0,0,1.73,2.49,6.22,6.22,0,0,0,2.57,1.47,7,7,0,0,0,3.36,0A8.88,8.88,0,0,0,432.59,201.41Z"/>
      <path class="cls-14" d="M366,119.63c1.13-.4,2.15-.67,3.08-1a18.61,18.61,0,0,0,2.52-1.13,11.51,11.51,0,0,0,3.52-3.15c.26-.31.46-.68.71-1s.46-.73.66-1.13a24.53,24.53,0,0,0,1.25-2.56,20.31,20.31,0,0,1,1.54-2.94,6.88,6.88,0,0,1,2.53-2.41c-.49,2.24-.24,4.07-.39,6.25a13.8,13.8,0,0,1-.59,3.41,11,11,0,0,1-1.61,3.35,9.66,9.66,0,0,1-6.42,4.08A8.94,8.94,0,0,1,366,119.63Z"/>
      <path class="cls-14" d="M373.7,115.79a7.26,7.26,0,0,1,4.51-1.6,13.79,13.79,0,0,1,3.84.48,26.92,26.92,0,0,1,6.46,2.7,34,34,0,0,1,5.57,3.94,19.14,19.14,0,0,1,4.47,5.38,8.33,8.33,0,0,1,.65,1.77,13.23,13.23,0,0,1,.31,1.74,14.91,14.91,0,0,1,0,3.47,17.24,17.24,0,0,1-2.1,6.41c-1.07,1.94-2.32,3.69-3.3,5.58a8.92,8.92,0,0,0-1.18,6.14,9.26,9.26,0,0,1,.59-6.41c.81-2,1.9-3.93,2.72-5.87a15.75,15.75,0,0,0,1.34-6,12.83,12.83,0,0,0-.29-3,11.5,11.5,0,0,0-.4-1.42,5.53,5.53,0,0,0-.58-1.2,16.2,16.2,0,0,0-4.21-4.12,30,30,0,0,0-5.31-3,23,23,0,0,0-5.64-1.77,9.56,9.56,0,0,0-2.59-.08,2.22,2.22,0,0,0-1.44.62,2.58,2.58,0,0,1-4.18-3,3,3,0,0,1,.42-.45Z"/>
      <path class="cls-14" d="M275.12,211.44c-.46-1.48-.72-2.57-.94-3.61a22.66,22.66,0,0,1-.4-2.92,18.9,18.9,0,0,1,0-3,19.63,19.63,0,0,1,.64-3.74,6.29,6.29,0,0,1,3.19,2.64,7.92,7.92,0,0,1,1.21,3.77,8,8,0,0,1-.75,3.93A5.76,5.76,0,0,1,275.12,211.44Z"/>
    </g>
    <path class="cls-15" d="M341.11,147.12a27,27,0,0,0-1.64-6.72A32.36,32.36,0,0,0,332,129a38.89,38.89,0,0,0-11.14-7.69,42.87,42.87,0,0,0-6.27-2.37c-1.07-.31-2.14-.6-3.22-.82s-2.16-.44-3.25-.63-2.17-.3-3.25-.45-2.17-.21-3.26-.28c-2.17-.15-4.31-.22-6.5-.2a71.13,71.13,0,0,0-25.5,5.2A57.25,57.25,0,0,0,257.82,128a33,33,0,0,0-5.37,4.7,20.81,20.81,0,0,0-2.33,3.09,19.75,19.75,0,0,0-1.79,3.63,17.49,17.49,0,0,0-.92,8.48,16.19,16.19,0,0,0,3.85,8.24,18.64,18.64,0,0,0,3.43,3,21.64,21.64,0,0,0,3.89,2,38.71,38.71,0,0,0,4.2,1.54c4.87,5.36,12.73,8.94,22.58,9.87,16.23,1.53,30.19-5.81,31.19-16.41.45-4.69-1.73-9.23-5.7-13l12-12.15a33.55,33.55,0,0,1,4.21,3.1,26.26,26.26,0,0,1,6.56,8.64,20.92,20.92,0,0,1,1.66,5.13,18.08,18.08,0,0,1,.29,2.63c0,.93,0,1.94,0,2.91A44.17,44.17,0,0,1,333.6,165a34.13,34.13,0,0,1-5.25,10.3,32.6,32.6,0,0,1-3.92,4.31,36.89,36.89,0,0,1-4.67,3.56,42.43,42.43,0,0,1-5.26,2.76,44.7,44.7,0,0,1-5.66,2c-3.87,1.11-13.8,1.7-17.86,2a.78.78,0,0,0-.71.78.79.79,0,0,0,.79.76,86.42,86.42,0,0,0,18.35-1.31,47.26,47.26,0,0,0,6.09-1.73,44.57,44.57,0,0,0,5.83-2.61,39.9,39.9,0,0,0,5.38-3.58,37.61,37.61,0,0,0,4.67-4.52A38.51,38.51,0,0,0,338,166.53a49.75,49.75,0,0,0,3-12.63c.11-1.09.19-2.14.25-3.26A22.93,22.93,0,0,0,341.11,147.12Zm-31.46-21.24L302.92,138a40.26,40.26,0,0,0-5.47-2.08l3.39-11.3A57.23,57.23,0,0,1,309.65,125.88Zm-14.43-1.44c1.12,0,2.23,0,3.34,0l-3.25,10.84a42.74,42.74,0,0,0-4.94-.9l1.33-9.77C292.87,124.53,294.05,124.46,295.22,124.44Zm-18.11,10.29-1.35-6.68c1.86-.66,3.76-1.22,5.68-1.7l-.18,7.83A39.15,39.15,0,0,0,277.11,134.73Zm-17.93,3.71a17.1,17.1,0,0,1,1.69-1.87c.21-.21.43-.4.66-.6l2.84,4a20.85,20.85,0,0,0-2.73,2.45L258.1,140A12.09,12.09,0,0,1,259.18,138.44ZM269.59,137a27.54,27.54,0,0,0-3.38,1.75l-3-4.19a37.32,37.32,0,0,1,4.21-2.77Zm2.06-.81-2.23-5.45c1.06-.53,2.14-1,3.25-1.5l1-.4,1.29,6.36A34,34,0,0,0,271.65,136.18Zm-14.48,6.16.06-.22,3,2a13.73,13.73,0,0,0-1.9,3.81A5.79,5.79,0,0,1,257.17,142.34Zm26.31-8.28.19-8.24h.07c.84-.18,1.68-.34,2.53-.49l3.16-.43-1.26,9.29A46.34,46.34,0,0,0,283.48,134.06Zm25.69,7.72A30.65,30.65,0,0,0,304.9,139l7-12.51a49.45,49.45,0,0,1,5.8,2c1.1.45,2.16,1,3.2,1.51Z"/>
    <path class="cls-11" d="M390.6,213.05c-4.61-.08-9.23-.07-13.84,0a17.78,17.78,0,0,0,3.25-2.08,27.36,27.36,0,0,0,6-7,.25.25,0,0,0-.07-.34.25.25,0,0,0-.34.08,27.19,27.19,0,0,1-6.05,6.69,16.56,16.56,0,0,1-3.86,2.23,12,12,0,0,1-1.32.43l-4.35.06-10.27.21-3.32.07c.42-.36.83-.73,1.21-1.12a43.76,43.76,0,0,0,5.26-6.8c.43-.66.85-1.32,1.27-2a11.78,11.78,0,0,1,1.61-1.06,18.45,18.45,0,0,1,3.34-1.37,23.85,23.85,0,0,1,3.56-.81,16.47,16.47,0,0,1,3.64-.18.24.24,0,0,0,.26-.21.24.24,0,0,0-.21-.28,17,17,0,0,0-3.77,0,25,25,0,0,0-3.72.64,19.4,19.4,0,0,0-3.41,1.18,112.12,112.12,0,0,1,6.61-9.9.23.23,0,0,0,0-.32.24.24,0,0,0-.35,0,68.06,68.06,0,0,0-5.46,6.42c-.18.25-.36.5-.55.74.06-.4.11-.81.13-1.21a21.32,21.32,0,0,0-1-7.75.24.24,0,0,0-.47.13,28.24,28.24,0,0,1,.52,3.77,18.89,18.89,0,0,1,0,3.76,14.53,14.53,0,0,1-.84,3.6l0,.06q-1.33,1.83-2.7,3.61a43.4,43.4,0,0,1-5.37,6.11,14.3,14.3,0,0,1-3.13,2.17,10.51,10.51,0,0,1-5.25.65,20.55,20.55,0,0,1-5.39-.9,11.3,11.3,0,0,1-2.21-1,7.87,7.87,0,0,1-3.67-6.91c-.15-5.62,4-7.84,4-13.63a15.66,15.66,0,0,0-1.89-7.88,47.41,47.41,0,0,1-5.09,5.78c-.35.34-.71.68-1.08,1a1.9,1.9,0,0,1-.21.19c0,3.28-2,8.69-1.62,11.92.59,5.4,3.81,8.78,9.13,11.41a12.1,12.1,0,0,0,1.84.72,16.92,16.92,0,0,0,2.32.53c.56.09,1.42.23,1.6.75a1.06,1.06,0,0,1-.15.91,3.83,3.83,0,0,1-.85.76,11.21,11.21,0,0,0-1.07,1,12.44,12.44,0,0,0-1.7,2.3c-1.94,3.35-2.56,7.3-2.75,11.12a112.33,112.33,0,0,0,.27,13.1c.06.9.13,1.79.21,2.68.83,4,1.74,8.07,2.78,12.13.63,2.48,1.27,5,1.92,7.41-.54-3.84-1.1-7.68-1.56-11.53A155,155,0,0,1,341.06,231c.13-3.81.51-8.3,3.22-11.26a9.72,9.72,0,0,1,4.2-2.94,6.64,6.64,0,0,1,4.42.23,14.69,14.69,0,0,1,3.27,2,42.58,42.58,0,0,1,5.73,5.81c.94,1.1,1.86,2.22,2.78,3.35a2.26,2.26,0,0,0,.11.22,13.7,13.7,0,0,1,1,3.58,21.51,21.51,0,0,1,.21,3.77,32.38,32.38,0,0,1-.36,3.79.24.24,0,0,0,.18.28.26.26,0,0,0,.3-.18,23.82,23.82,0,0,0,.65-3.85,19.87,19.87,0,0,0-.07-3.93c-.07-.53-.17-1.06-.29-1.58a82.24,82.24,0,0,0,6.52,7.2.26.26,0,0,0,.34,0,.24.24,0,0,0,0-.35,100.77,100.77,0,0,1-7.39-9.73l.13.06a18.7,18.7,0,0,0,3.63,1.09,24.67,24.67,0,0,0,3.74.47,17,17,0,0,0,3.76-.19.24.24,0,0,0,.2-.27.24.24,0,0,0-.28-.21,17,17,0,0,1-3.64,0,24.17,24.17,0,0,1-3.6-.61,18.53,18.53,0,0,1-3.43-1.18,11.28,11.28,0,0,1-1.84-1.09l-1.27-1.77a45.44,45.44,0,0,0-5.56-6.54c-.47-.43-1-.85-1.5-1.25l3.64-.23,10.25-.7,3.61-.26a14.9,14.9,0,0,1,1.82.5,21.75,21.75,0,0,1,3.91,1.84,28.1,28.1,0,0,1,3.57,2.48,20.25,20.25,0,0,1,3.09,3,.23.23,0,0,0,.33.05.24.24,0,0,0,.06-.34,20.63,20.63,0,0,0-3.06-3.27,29.43,29.43,0,0,0-3.57-2.68,23.91,23.91,0,0,0-3.43-1.82l14.16-1a.24.24,0,0,0,.23-.24A.24.24,0,0,0,390.6,213.05Z"/>
    <path class="cls-13" d="M288.11,186.93a4.92,4.92,0,0,0-4.56,4.61,3.89,3.89,0,0,0,2.91,4c2.11.46,4.08-1.28,5.1-3a3.7,3.7,0,0,0,.33-3.66,4.1,4.1,0,0,0-2.81-1.94A4.57,4.57,0,0,0,288.11,186.93Z"/>
  </g>
  <g>
    <line class="cls-16" x1="141.46" y1="145.04" x2="230.1" y2="145.04"/>
    <circle class="cls-17" cx="141.65" cy="145.04" r="3.76"/>
    <circle class="cls-17" cx="229.91" cy="145.04" r="3.76"/>
  </g>
  <g>
    <line class="cls-16" x1="200.2" y1="71.38" x2="288.84" y2="71.38"/>
    <path class="cls-17" d="M200.38,75.14a3.76,3.76,0,1,1,3.76-3.76A3.76,3.76,0,0,1,200.38,75.14Z"/>
    <circle class="cls-17" cx="288.65" cy="71.38" r="3.76"/>
  </g>
  <g>
    <line class="cls-16" x1="394.86" y1="224.75" x2="483.51" y2="224.75"/>
    <circle class="cls-17" cx="395.05" cy="224.75" r="3.76"/>
    <circle class="cls-17" cx="483.32" cy="224.75" r="3.76"/>
  </g>
</svg>
