<svg xmlns="http://www.w3.org/2000/svg" width="1328" height="826" viewBox="0 0 1328 826">
  <g id="Grupo_90604" data-name="Grupo 90604" transform="translate(-8606 -1865.322)">
    <rect id="Rectángulo_34935" data-name="Rectángulo 34935" width="1328" height="826" transform="translate(8606 1865.322)" fill="#def1ff"/>
    <path id="Trazado_153233" data-name="Trazado 153233" d="M-2095.418,481.185a155.9,155.9,0,0,0,154.9-155.895,155.9,155.9,0,0,0-154.9-155.9V77.453c136.42.539,246.844,111.291,246.844,247.837S-1959,572.588-2095.418,573.127Z" transform="translate(7838.582 2716.049) rotate(180)" fill="#fff" opacity="0.5"/>
    <path id="Trazado_153234" data-name="Trazado 153234" d="M-2095.418,601.164c111.092-.7,200.935-90.966,200.935-202.223s-89.843-201.526-200.935-202.224V77.453c176.961.7,320.2,144.364,320.2,321.488s-143.24,320.789-320.2,321.488Z" transform="translate(10701.418 1822.866)" fill="#fff"/>
  </g>
</svg>
