<svg id="Capa_1" data-name="Capa 1" xmlns="http://www.w3.org/2000/svg" width="140" height="140" viewBox="0 0 140 140">
  <defs>
    <style>
      .cls-1 {
        fill: #fff;
        stroke: #2f237d;
        stroke-miterlimit: 10;
        stroke-width: 6px;
      }

      .cls-2 {
        fill: #0f0140;
      }
    </style>
  </defs>
  <circle class="cls-1" cx="70" cy="70" r="60"/>
  <g>
    <circle class="cls-2" cx="86.79" cy="51.62" r="1.29"/>
    <circle class="cls-2" cx="91.94" cy="51.62" r="1.29"/>
    <circle class="cls-2" cx="81.64" cy="51.62" r="1.29"/>
    <path class="cls-2" d="M115.72,77.75a12.48,12.48,0,0,1-6.71-6.5A29.73,29.73,0,1,0,57.55,46.13a1.29,1.29,0,0,0,2.54.46A27.15,27.15,0,1,1,106.57,70.1a1.28,1.28,0,0,0-.27,1.33,15,15,0,0,0,5.5,7.1,12.22,12.22,0,0,1-1.72.12,12.42,12.42,0,0,1-8.45-3.31,1.28,1.28,0,0,0-1.51-.18,26.85,26.85,0,0,1-8.41,3,1.29,1.29,0,1,0,.46,2.54,29.44,29.44,0,0,0,8.41-2.9,15,15,0,0,0,15.14,2.29,1.29,1.29,0,0,0,0-2.38Z"/>
    <path class="cls-2" d="M61.15,79.15a3.66,3.66,0,0,0-3.07-5.65h-3a1.29,1.29,0,0,0-1.29,1.29v10.3a1.3,1.3,0,0,0,1.29,1.29l3.52,0a4.05,4.05,0,0,0,2.54-7.21Zm-4.77-3.07h1.7a1.08,1.08,0,1,1,0,2.16h-1.7Zm2.23,7.71H56.38v-3h2.23a1.49,1.49,0,0,1,0,3Z"/>
    <path class="cls-2" d="M47.39,74.48l0,0a1.51,1.51,0,0,0-2.81,0v0L40.68,84.63a1.29,1.29,0,0,0,.74,1.66,1.3,1.3,0,0,0,1.67-.74l.64-1.7H48.2l.65,1.7a1.29,1.29,0,1,0,2.4-.92Zm-2.67,6.79L46,78l1.25,3.27Z"/>
    <path class="cls-2" d="M75.66,82.65a1.29,1.29,0,0,0-1.82.16,2.65,2.65,0,0,1-.29.29,2.81,2.81,0,0,1-2,.7,3.86,3.86,0,0,1,0-7.72,3.75,3.75,0,0,1,2.16.66,1.29,1.29,0,1,0,1.44-2.14,6.44,6.44,0,1,0-3.6,11.78A5.46,5.46,0,0,0,75.27,85a7.4,7.4,0,0,0,.55-.57,1.29,1.29,0,0,0-.16-1.81Z"/>
    <path class="cls-2" d="M58.36,50.21A29.73,29.73,0,0,0,36.14,99.69a12.43,12.43,0,0,1-6.71,6.49,1.29,1.29,0,0,0,0,2.39,15.07,15.07,0,0,0,15.14-2.29A29.73,29.73,0,1,0,58.36,50.21Zm0,56.88A27.2,27.2,0,0,1,45,103.6a1.32,1.32,0,0,0-.63-.17,1.29,1.29,0,0,0-.88.35,12.42,12.42,0,0,1-8.45,3.31,12.22,12.22,0,0,1-1.72-.12,15.06,15.06,0,0,0,5.5-7.1,1.28,1.28,0,0,0-.27-1.33,27.15,27.15,0,1,1,19.78,8.55Z"/>
  </g>
</svg>
