<svg id="Capa_1" data-name="Capa 1" xmlns="http://www.w3.org/2000/svg" width="140" height="140" viewBox="0 0 140 140">
  <defs>
    <style>
      .cls-1 {
        fill: #fff;
        stroke: #2f237d;
        stroke-miterlimit: 10;
        stroke-width: 6px;
      }

      .cls-2 {
        fill: #0f0140;
      }
    </style>
  </defs>
  <circle class="cls-1" cx="70" cy="70" r="60"/>
  <path class="cls-2" d="M42.93,107.73a1,1,0,0,1-1-1V86.38a1.05,1.05,0,1,1,2.1,0v20.3A1,1,0,0,1,42.93,107.73Z"/>
  <path class="cls-2" d="M55.1,50.87a1.07,1.07,0,0,1-.74-.3,2.79,2.79,0,0,0-3.92,0,1.06,1.06,0,0,1-.72.29,1.07,1.07,0,0,1-.74-.3,1.05,1.05,0,0,1-.32-.74,1.07,1.07,0,0,1,.3-.75,4.89,4.89,0,0,1,6.9,0,1,1,0,0,1,0,1.46A1.07,1.07,0,0,1,55.1,50.87Z"/>
  <path class="cls-2" d="M65.92,50.87a1.06,1.06,0,0,1-.73-.3,2.79,2.79,0,0,0-3.92,0,1.05,1.05,0,0,1-1.46,0,1,1,0,0,1-.32-.73,1,1,0,0,1,.3-.75,4.86,4.86,0,0,1,6.89,0,1,1,0,0,1,0,1.46A1.07,1.07,0,0,1,65.92,50.87Z"/>
  <path class="cls-2" d="M68.6,38.71a14.11,14.11,0,0,1-9.94-4.14,1.06,1.06,0,0,1,0-1.46,1,1,0,0,1,.76-.32,1.05,1.05,0,0,1,.73.29,12,12,0,0,0,8.46,3.52,1.06,1.06,0,1,1,0,2.11Z"/>
  <path class="cls-2" d="M33.46,107.73a1.06,1.06,0,0,1-1.06-1V79.61A11.92,11.92,0,0,1,44.28,67.73H50V66.19l-.14-.09a14.56,14.56,0,0,1-6.63-12.21V50.62l-.1-.09a11.78,11.78,0,0,1-4-8.82A14.63,14.63,0,0,1,53.76,27.12h8.12a14.52,14.52,0,0,1,9.68,3.68,1.08,1.08,0,0,1,.35.73,1.06,1.06,0,0,1-.27.76,1,1,0,0,1-.79.35,1,1,0,0,1-.7-.27,12.42,12.42,0,0,0-8.25-3.14H53.76A12.52,12.52,0,0,0,41.28,41.71a9.69,9.69,0,0,0,1.39,5l.56.92V45.77A10.26,10.26,0,0,1,44,41.83a1.07,1.07,0,0,1,.94-.58,1,1,0,0,1,.33.06A1.06,1.06,0,0,1,46,42.64a8.17,8.17,0,0,0-.62,3.13v8.12a12.48,12.48,0,0,0,25,0V44.12H65.71a15.07,15.07,0,0,1-12.37-6.53l-.11-.15-.76.11A8.24,8.24,0,0,0,49,38.89a1,1,0,0,1-.56.16,1.05,1.05,0,0,1-.61-1.91,10.34,10.34,0,0,1,4.36-1.68l1.43-.21h.15a1,1,0,0,1,.9.52,13,13,0,0,0,11,6.25h5.64a1.06,1.06,0,0,1,1.06,1.06v4.56l.55-.92a9.61,9.61,0,0,0,1.4-5,12.23,12.23,0,0,0-1.19-5.32.27.27,0,0,1,0-.11,1.06,1.06,0,0,1,0-.8,1.08,1.08,0,0,1,.57-.58,1.15,1.15,0,0,1,.41-.08,1.07,1.07,0,0,1,1,.65,14.38,14.38,0,0,1,1.41,6.24,11.86,11.86,0,0,1-4,8.83l-.1.08v3.27A14.55,14.55,0,0,1,65.78,66.1l-.14.09v1.54h5.71a11.89,11.89,0,0,1,7.87,3l.31.27.16-.38A8.29,8.29,0,0,1,81.44,68a1,1,0,0,1,.72-.31,1.1,1.1,0,0,1,.82.36l9.15,10.46h5.24V76.9a1,1,0,0,1,1-1.05h8.12a1.06,1.06,0,1,1,0,2.11H99.48v20.9h7.06a1.05,1.05,0,1,1,0,2.1H98.42a1,1,0,0,1-1-1V98.29l-.32,0a9.19,9.19,0,0,0-4.76,1.76,11.34,11.34,0,0,1-6.73,2.25H80.83a1.06,1.06,0,1,1,0-2.11h4.73A9.16,9.16,0,0,0,91,98.39a11.24,11.24,0,0,1,6.07-2.22l.28,0V80.66H91.65a1.08,1.08,0,0,1-.79-.35l-8.67-9.92-.21.35a6.28,6.28,0,0,0,0,6.48l1.1,1.85a1,1,0,0,1,.15.54,1,1,0,0,1-1,1H72.71a1.66,1.66,0,1,0,0,3.31h2.7a1.06,1.06,0,1,1,0,2.11h-2.7a1.65,1.65,0,1,0,0,3.3h2.7a1.06,1.06,0,1,1,0,2.11h-2.7a1.66,1.66,0,0,0-1.66,1.65,1.64,1.64,0,0,0,1.19,1.56l.09,0,.09,0a1.59,1.59,0,0,1,.3-.06h2.69a1.06,1.06,0,1,1,0,2.11H73.16l-.07,0a1,1,0,0,1-.44.11,1.67,1.67,0,0,0-1.51,1.55,1.65,1.65,0,0,0,.41,1.2,1.62,1.62,0,0,0,1.14.55h2.72a1.07,1.07,0,0,1,1.06,1.06,1.11,1.11,0,0,1-1.09,1H72.71a3.79,3.79,0,0,1-2.51-1A3.77,3.77,0,0,1,69.89,96l.18-.2-.18-.2a3.75,3.75,0,0,1,0-5l.18-.2-.18-.2a3.74,3.74,0,0,1,0-5l.18-.2-.18-.2a3.75,3.75,0,0,1,.14-5.16,3.78,3.78,0,0,1,2.66-1.11H80.3l-.25-.44a8.44,8.44,0,0,1-1-4.43v-.11l-.07-.09a9.64,9.64,0,0,0-7.57-3.65h-.69L65.55,81.39a1.09,1.09,0,0,1-.14.23,1.05,1.05,0,0,1-.82.4,1,1,0,0,1-.66-.24l-2.12-1.69-.19.21a4.81,4.81,0,0,1-.82.74l-.14.1,2.26,15.91a1,1,0,0,1-.14.7l-4.06,6.76a1,1,0,0,1-.36.36,1,1,0,0,1-.54.15,1,1,0,0,1-.9-.51l-4.06-6.76a1,1,0,0,1-.14-.7l.4-2.81a1.06,1.06,0,0,1,1-.91h.16a1.06,1.06,0,0,1,.69.42,1,1,0,0,1,.2.78L54.86,97l3,4.94,3-4.94-2.14-15-.3,0a4.55,4.55,0,0,1-.52,0,4.38,4.38,0,0,1-.52,0l-.3,0-1,7.25a1.05,1.05,0,0,1-1,.9h-.15a1.06,1.06,0,0,1-.89-1.19L55,81.14l-.15-.1A5.27,5.27,0,0,1,54,80.3l-.19-.21-2.12,1.69a.79.79,0,0,1-.23.14.94.94,0,0,1-.43.1,1.06,1.06,0,0,1-1-.63L45,69.83h-.67a9.81,9.81,0,0,0-9.77,9.78v27.07A1,1,0,0,1,33.46,107.73Zm22-29,.23.23a2.9,2.9,0,0,0,4.22,0l.23-.23L57.82,76.9Zm10.16-8.64a1,1,0,0,1-.4.83L59.5,75.55l4.68,3.74,4.2-9.46H65.64ZM51.46,79.29l4.67-3.74L50.39,71a1,1,0,0,1-.39-.83v-.3H47.26Zm.65-9.66,5.71,4.57,5.71-4.57V67.31l-.41.16a14.41,14.41,0,0,1-10.6,0l-.41-.16Z"/>
  <path class="cls-2" d="M93.11,39.53l-.18,0a1,1,0,0,1-.85-1.21l.54-3.18-2.3-2.25a1.15,1.15,0,0,1-.31-.61,1.06,1.06,0,0,1,.89-1.19l3.2-.46,1.42-2.9a1.05,1.05,0,0,1,1.89,0l1.42,2.89,3.2.47a1,1,0,0,1,.6.31,1,1,0,0,1,.3.75,1.09,1.09,0,0,1-.32.74l-2.31,2.25.54,3.18a1,1,0,0,1,0,.18,1.05,1.05,0,0,1-1.06,1.05,1.07,1.07,0,0,1-.49-.12l-2.85-1.5-2.86,1.5a1,1,0,0,1-.49.12ZM95.73,32a1.05,1.05,0,0,1-.79.58l-1.63.23L94.49,34a1.07,1.07,0,0,1,.3.94l-.28,1.62L96,35.78a1.06,1.06,0,0,1,1,0l1.46.77-.28-1.62a1.07,1.07,0,0,1,.3-.94l1.18-1.14L98,32.61a1.05,1.05,0,0,1-.79-.58l-.73-1.47Z"/>
  <path class="cls-2" d="M99.8,54.54a1,1,0,0,1-.48-.12l-2.86-1.51L93.6,54.42a1.14,1.14,0,0,1-.48.12h0l-.18,0a1,1,0,0,1-.86-1.22l.54-3.17-2.3-2.26a1.12,1.12,0,0,1-.31-.6,1,1,0,0,1,.2-.78,1,1,0,0,1,.69-.41l3.2-.47,1.42-2.89a1,1,0,0,1,.48-.48,1.07,1.07,0,0,1,.46-.11,1.06,1.06,0,0,1,1,.59l1.42,2.89,3.2.47a1,1,0,0,1,.58,1.79l-2.31,2.26.54,3.17a1,1,0,0,1-.1.67A1.05,1.05,0,0,1,99.8,54.54ZM95.73,47a1.05,1.05,0,0,1-.79.58l-1.63.23L94.49,49a1,1,0,0,1,.3.93l-.28,1.63L96,50.79a1.06,1.06,0,0,1,1,0l1.46.77-.28-1.63a1,1,0,0,1,.3-.93l1.18-1.15L98,47.62a1.05,1.05,0,0,1-.79-.58l-.73-1.47Z"/>
  <path class="cls-2" d="M99.8,69.54a1,1,0,0,1-.48-.12l-2.86-1.5-2.86,1.5a1,1,0,0,1-.48.12h-.18a1.05,1.05,0,0,1-.86-1.22l.54-3.18-2.3-2.25a1.08,1.08,0,0,1-.3-.59,1.06,1.06,0,0,1,.89-1.2l3.19-.46,1.42-2.89a1,1,0,0,1,.48-.48,1,1,0,0,1,.46-.11,1,1,0,0,1,1,.59l1.42,2.89,3.2.46a1.11,1.11,0,0,1,.59.3,1.07,1.07,0,0,1,0,1.49l-2.31,2.25.54,3.18a1,1,0,0,1-1,1.23Zm-4.07-7.49a1.05,1.05,0,0,1-.79.58l-1.63.23L94.49,64a1,1,0,0,1,.3.93l-.28,1.62L96,65.8a1.06,1.06,0,0,1,1,0l1.46.76-.28-1.62a1,1,0,0,1,.3-.93l1.18-1.15L98,62.63a1.05,1.05,0,0,1-.79-.58l-.73-1.48Z"/>
</svg>
