<svg id="Capa_1" data-name="Capa 1" xmlns="http://www.w3.org/2000/svg" width="140" height="140" viewBox="0 0 140 140">
  <defs>
    <style>
      .cls-1 {
        fill: #fff;
        stroke: #2f237d;
        stroke-miterlimit: 10;
        stroke-width: 6px;
      }

      .cls-2 {
        fill: #0f0140;
      }
    </style>
  </defs>
  <circle class="cls-1" cx="70" cy="70" r="60"/>
  <g>
    <path class="cls-2" d="M71.31,42.19A5.23,5.23,0,1,0,66.07,37,5.23,5.23,0,0,0,71.31,42.19Zm0-7.85A2.62,2.62,0,1,1,68.69,37,2.62,2.62,0,0,1,71.31,34.34Z"/>
    <path class="cls-2" d="M88.52,81.39l-3.76-2-2.05-3.76a1.32,1.32,0,0,0-1.78-.52,1.3,1.3,0,0,0-.52.52l-2,3.76-3.75,2a1.31,1.31,0,0,0,0,2.3l3.75,2,2,3.75a1.31,1.31,0,0,0,2.3,0l2.05-3.75,3.76-2A1.32,1.32,0,0,0,89,81.91,1.3,1.3,0,0,0,88.52,81.39Zm-5.35,2.24a1.3,1.3,0,0,0-.52.52l-1.09,2-1.09-2a1.3,1.3,0,0,0-.52-.52l-2-1.09,2-1.09a1.3,1.3,0,0,0,.52-.52l1.09-2,1.09,2a1.3,1.3,0,0,0,.52.52l2,1.09Z"/>
    <path class="cls-2" d="M28.81,43.86l3.76,2,2,3.76a1.3,1.3,0,0,0,2.29,0L39,45.91l3.75-2a1.31,1.31,0,0,0,0-2.3L39,39.51l-2.06-3.75a1.3,1.3,0,0,0-2.29,0l-2,3.75-3.76,2.05a1.31,1.31,0,0,0,0,2.3Zm5.35-2.24a1.3,1.3,0,0,0,.52-.52l1.09-2,1.09,2a1.3,1.3,0,0,0,.52.52l2,1.09-2,1.09a1.3,1.3,0,0,0-.52.52l-1.09,2-1.09-2a1.3,1.3,0,0,0-.52-.52l-2-1.09Z"/>
    <path class="cls-2" d="M103.86,39a1.31,1.31,0,0,0-1.15-.68H94.86V31.4a6.23,6.23,0,0,0-6.22-6.22H51.35a6.22,6.22,0,0,0-6.21,6.22V65.19L28.45,84.52a1.27,1.27,0,0,0-.32.85v23.55h2.62V85.86L54.18,58.72a5.3,5.3,0,0,1,.34.86A5.91,5.91,0,0,1,53.25,65l-.07.1-10.46,17a1.29,1.29,0,0,0,.09,1.5L48,90.11a1.31,1.31,0,0,0,1.84.21l.11-.1c.08-.08,7.19-7.09,13.7-5.63L50.76,97.53a1.2,1.2,0,0,0-.38,1c0,.29.07,4.29-6.94,6.49a1.3,1.3,0,0,0-.92,1.25v2.61h2.62v-1.68c6.72-2.42,7.71-6.6,7.84-8.23l4.48-4.48H88.64A6.23,6.23,0,0,0,94.8,89.2a14.17,14.17,0,0,0,1.37,1.91v17.81h2.61V90.6a1.28,1.28,0,0,0-.38-.92,14.41,14.41,0,0,1-3.54-9.54,14.61,14.61,0,0,1,3.54-9.55,1.3,1.3,0,0,0,.33-1.3L94.86,56.4c0-2.59.66-8.92,3.1-11l4.8,16.8a1.19,1.19,0,0,0,.17.36l2.62,3.93L107.72,65l-2.5-3.76L100,43.14a1.3,1.3,0,0,0-1.57-.91,6,6,0,0,0-3.61,2.82V40.88h7.07l7.32,13.42-.11,54.62h2.62L111.87,54a1.26,1.26,0,0,0-.16-.63ZM45.43,82.66l4.63-7.53L54.3,76v7.9a29.09,29.09,0,0,0-2.62,1.6V80.14H49.07V87.2Zm46.81,5.65a3.6,3.6,0,0,1-3.6,3.6H60.07L67,85a1.31,1.31,0,0,0,0-1.85,1.2,1.2,0,0,0-.34-.25,12,12,0,0,0-9.74-.18V74.9a1.31,1.31,0,0,0-1.06-1.28l-4.34-.87,3.86-6.27c3.59-4.84,1.47-9.19-.16-10.82a1.31,1.31,0,0,0-1.85,0l-.06.07-5.55,6.43V31.4a3.6,3.6,0,0,1,3.59-3.6H88.64a3.6,3.6,0,0,1,3.6,3.6Zm3.77-19A18.27,18.27,0,0,0,94.86,71V65.5Z"/>
    <path class="cls-2" d="M62.15,60.51H75.91l-.47,2.62H60.84v2.61h15.7a1.3,1.3,0,0,0,1.29-1.08L81.6,43.3l5.67-1.13-.52-2.57-6.54,1.31a1.3,1.3,0,0,0-1,1.06l-.73,4.15H58.22a1.3,1.3,0,0,0-1.3,1.31,1.4,1.4,0,0,0,.06.41l3.93,11.78A1.31,1.31,0,0,0,62.15,60.51ZM78,48.73l-1.61,9.16H63.09L60,48.73Z"/>
    <path class="cls-2" d="M63.46,67.05A3.93,3.93,0,1,0,67.38,71,3.93,3.93,0,0,0,63.46,67.05Zm0,5.24A1.31,1.31,0,1,1,64.77,71,1.31,1.31,0,0,1,63.46,72.29Z"/>
    <path class="cls-2" d="M79.16,71a3.93,3.93,0,1,0-3.93,3.92A3.93,3.93,0,0,0,79.16,71Zm-5.23,0a1.31,1.31,0,1,1,1.3,1.31A1.31,1.31,0,0,1,73.93,71Z"/>
    <path class="cls-2" d="M63.5,50.34,66,49.7l1.31,5.24-2.54.63Z"/>
    <path class="cls-2" d="M68.69,50h2.62v5.24H68.69Z"/>
    <path class="cls-2" d="M72.67,55,74,49.74l2.54.64-1.31,5.23Z"/>
    <path class="cls-2" d="M51.68,30.42H54.3V33H51.68Z"/>
    <path class="cls-2" d="M55.61,30.42h2.61V33H55.61Z"/>
    <path class="cls-2" d="M101.4,30.42H104V33H101.4Z"/>
    <path class="cls-2" d="M37.29,57.89h2.62v2.62H37.29Z"/>
    <path class="cls-2" d="M73.93,98.45h2.61v2.62H73.93Z"/>
  </g>
</svg>
