<svg id="Capa_1" data-name="Capa 1" xmlns="http://www.w3.org/2000/svg" width="140" height="140" viewBox="0 0 140 140">
  <defs>
    <style>
      .cls-1 {
        fill: #8b82ca;
        stroke: #2f237d;
        stroke-miterlimit: 10;
        stroke-width: 6px;
      }

      .cls-2 {
        fill: #fff;
      }
    </style>
  </defs>
  <circle class="cls-1" cx="70" cy="70" r="60"/>
  <path class="cls-2" d="M22,94.06a1.45,1.45,0,0,0,1.45-1.46V89.7a1.45,1.45,0,1,0-2.9,0v2.9A1.45,1.45,0,0,0,22,94.06Z"/>
  <path class="cls-2" d="M27.84,94.06V88.24a1.46,1.46,0,0,0-2.91,0v5.82a1.46,1.46,0,0,0,2.91,0Z"/>
  <path class="cls-2" d="M45.29,94.06V88.24a1.46,1.46,0,0,0-2.91,0v5.82a1.46,1.46,0,0,0,2.91,0Z"/>
  <path class="cls-2" d="M33.66,97V85.33a1.46,1.46,0,0,0-2.91,0V97a1.46,1.46,0,0,0,2.91,0Z"/>
  <path class="cls-2" d="M39.47,97V85.33a1.46,1.46,0,0,0-2.91,0V97a1.46,1.46,0,0,0,2.91,0Z"/>
  <path class="cls-2" d="M51.11,99.88V82.42a1.46,1.46,0,0,0-2.91,0V99.88a1.46,1.46,0,0,0,2.91,0Z"/>
  <path class="cls-2" d="M56.93,102.79V79.51a1.46,1.46,0,0,0-2.91,0v23.28a1.46,1.46,0,0,0,2.91,0Z"/>
  <path class="cls-2" d="M62.74,111.51V70.79a1.46,1.46,0,1,0-2.91,0v40.72a1.46,1.46,0,1,0,2.91,0Z"/>
  <path class="cls-2" d="M106.38,88.24a1.46,1.46,0,0,0-1.46,1.46v2.9a1.46,1.46,0,1,0,2.91,0V89.7A1.45,1.45,0,0,0,106.38,88.24Z"/>
  <path class="cls-2" d="M103.47,94.06V88.24a1.46,1.46,0,0,0-2.91,0v5.82a1.46,1.46,0,0,0,2.91,0Z"/>
  <path class="cls-2" d="M86,94.06V88.24a1.45,1.45,0,0,0-2.9,0v5.82a1.45,1.45,0,0,0,2.9,0Z"/>
  <path class="cls-2" d="M97.65,97V85.33a1.46,1.46,0,0,0-2.91,0V97a1.46,1.46,0,0,0,2.91,0Z"/>
  <path class="cls-2" d="M91.83,97V85.33a1.46,1.46,0,0,0-2.91,0V97a1.46,1.46,0,0,0,2.91,0Z"/>
  <path class="cls-2" d="M80.2,99.88V82.42a1.46,1.46,0,0,0-2.91,0V99.88a1.46,1.46,0,0,0,2.91,0Z"/>
  <path class="cls-2" d="M74.38,102.79V79.51a1.46,1.46,0,0,0-2.91,0v23.28a1.46,1.46,0,0,0,2.91,0Z"/>
  <path class="cls-2" d="M68.56,111.51V70.79a1.46,1.46,0,1,0-2.91,0v40.72a1.46,1.46,0,1,0,2.91,0Z"/>
  <path class="cls-2" d="M99.1,25.7H70a8.74,8.74,0,0,0-8.73,8.73V54.79A8.74,8.74,0,0,0,70,63.52h2.53l-1.07,8.54a1.46,1.46,0,0,0,2.3,1.36l13.62-9.9H99.1a8.74,8.74,0,0,0,8.73-8.73V34.43A8.74,8.74,0,0,0,99.1,25.7Zm5.82,29.09a5.83,5.83,0,0,1-5.82,5.82H90.35a1.45,1.45,0,0,0-.25-.86,1.47,1.47,0,0,0-.95-.58,1.43,1.43,0,0,0-1.08.26L74.79,69.09l1-8.3a1.46,1.46,0,0,0-.56-1.36,1.43,1.43,0,0,0-1.45-.18,1.45,1.45,0,0,0-.87,1.18l0,.18H70a5.83,5.83,0,0,1-5.82-5.82V34.43A5.82,5.82,0,0,1,70,28.61H99.1a5.82,5.82,0,0,1,5.82,5.82Z"/>
  <path class="cls-2" d="M72.92,40.24a4.37,4.37,0,1,0,4.37,4.37A4.37,4.37,0,0,0,72.92,40.24Zm0,5.82a1.46,1.46,0,1,1,1.46-1.45A1.45,1.45,0,0,1,72.92,46.06Z"/>
  <path class="cls-2" d="M84.56,40.24a4.37,4.37,0,1,0,4.36,4.37A4.37,4.37,0,0,0,84.56,40.24Zm0,5.82A1.46,1.46,0,1,1,86,44.61,1.45,1.45,0,0,1,84.56,46.06Z"/>
  <path class="cls-2" d="M96.2,40.24a4.37,4.37,0,1,0,4.36,4.37A4.37,4.37,0,0,0,96.2,40.24Zm0,5.82a1.46,1.46,0,1,1,1.45-1.45A1.45,1.45,0,0,1,96.2,46.06Z"/>
</svg>
