<svg id="Capa_1" data-name="Capa 1" xmlns="http://www.w3.org/2000/svg" width="140" height="140" viewBox="0 0 140 140">
  <defs>
    <style>
      .cls-1 {
        fill: #fff;
        stroke: #2f237d;
        stroke-miterlimit: 10;
        stroke-width: 6px;
      }

      .cls-2 {
        fill: #0f0140;
      }
    </style>
  </defs>
  <circle class="cls-1" cx="70" cy="70" r="60"/>
  <g id="Page-1">
    <g id="_096---Listening" data-name="096---Listening">
      <path id="Shape" class="cls-2" d="M59.71,33.32c-12.14,0-22,10.69-22,23.9a17.76,17.76,0,0,0,2.44,8.7A27,27,0,0,1,42,69.83a2.48,2.48,0,0,1-.82,2.75,6.13,6.13,0,0,0,.41,9.83,2.28,2.28,0,0,1,1,1.82V94.46c0,6.74,4.93,12.22,11,12.22s11-5.48,11-12.22a17.19,17.19,0,0,1,6-13.11A31,31,0,0,0,81.72,57.16c0-13.15-9.88-23.84-22-23.84ZM69,79.49a19.63,19.63,0,0,0-6.85,15c0,5.39-3.84,9.78-8.56,9.78S45,99.85,45,94.46V84.23a4.73,4.73,0,0,0-2-3.8,3.7,3.7,0,0,1-1.67-3.09,3.6,3.6,0,0,1,1.4-2.88A4.9,4.9,0,0,0,44.31,69a28.54,28.54,0,0,0-2.06-4.28,15.41,15.41,0,0,1-2.11-7.55c0-11.8,8.78-21.4,19.57-21.4s19.56,9.6,19.56,21.4A28.61,28.61,0,0,1,69,79.49Z"/>
      <path id="Shape-2" data-name="Shape" class="cls-2" d="M59.71,39.43c-6.82,0-12.63,4.83-14.89,11.59a.56.56,0,0,1,0,.12,19.58,19.58,0,0,0-1,6.08c0,1.46,0,6,2.8,8.76a1.22,1.22,0,0,0,1.73-1.73,7.44,7.44,0,0,1-1.85-4c.19,0,.39,0,.59,0,5.62,0,10.18,5.13,10.18,11.44,0,.59,0,1.14-.07,1.68a24.1,24.1,0,0,1-1.94,1.84,14.57,14.57,0,0,0-5.33,11.94,1.23,1.23,0,0,0,2.45,0,12.14,12.14,0,0,1,4.46-10.07A16.77,16.77,0,0,0,63.37,63.1c0-7.65-5.76-13.89-12.84-13.89a11.64,11.64,0,0,0-2.42.26,13.24,13.24,0,0,1,11.6-7.59c7.41,0,13.45,6.88,13.45,15.33a22.32,22.32,0,0,1-7.88,17.33l-.56.47c-2.43,2-7.49,6.24-8.68,16.87a1.22,1.22,0,0,0,1.09,1.34h.13a1.21,1.21,0,0,0,1.21-1.08c1.08-9.65,5.46-13.3,7.81-15.26.22-.18.42-.34.6-.5A24.63,24.63,0,0,0,75.6,57.21c0-9.8-7.13-17.78-15.89-17.78ZM50.53,51.66c5.74,0,10.4,5.13,10.4,11.44a15.74,15.74,0,0,1-1.35,6.73c-.82-6.8-6.1-12.06-12.49-12.06-.29,0-.56,0-.83,0v-.6A17.19,17.19,0,0,1,47,52.38,9.38,9.38,0,0,1,50.53,51.66Z"/>
      <path id="Shape-3" data-name="Shape" class="cls-2" d="M98.84,61.44a14.39,14.39,0,0,1,4.53-10.15,1.23,1.23,0,0,0,.38-1.21,1.23,1.23,0,0,0-2.12-.5,16.8,16.8,0,0,0-5.24,11.86,16.8,16.8,0,0,0,5.24,11.86,1.23,1.23,0,0,0,2.12-.5,1.23,1.23,0,0,0-.38-1.21A14.39,14.39,0,0,1,98.84,61.44Z"/>
      <path id="Shape-4" data-name="Shape" class="cls-2" d="M107,54.41a1.27,1.27,0,0,0-.89-.3,1.18,1.18,0,0,0-.84.4,10.1,10.1,0,0,0,0,13.86,1.23,1.23,0,0,0,1.16.38,1.23,1.23,0,0,0,.67-2,7.64,7.64,0,0,1,0-10.6,1.23,1.23,0,0,0,.3-.88,1.24,1.24,0,0,0-.4-.85Z"/>
      <path id="Shape-5" data-name="Shape" class="cls-2" d="M110.75,58.18a1.21,1.21,0,0,0-1.73-.09,4.26,4.26,0,0,0,0,6.7,1.23,1.23,0,0,0,1.21.28,1.25,1.25,0,0,0,.83-.92,1.23,1.23,0,0,0-.4-1.17,1.86,1.86,0,0,1,0-3.08,1.22,1.22,0,0,0,.09-1.72Z"/>
      <path id="Shape-6" data-name="Shape" class="cls-2" d="M92.72,61.44c0-5.38,2.41-10.58,7-15A1.22,1.22,0,1,0,98,44.67c-5,4.91-7.7,10.71-7.7,16.77S92.94,73.3,98,78.21a1.21,1.21,0,0,0,1.73,0,1.23,1.23,0,0,0,0-1.73C95.13,72,92.72,66.82,92.72,61.44Z"/>
      <path id="Shape-7" data-name="Shape" class="cls-2" d="M86.61,61.44c0-6.72,2.84-13.19,8.21-18.71a1.23,1.23,0,0,0-.57-2,1.22,1.22,0,0,0-1.18.33c-5.83,6-8.91,13-8.91,20.42s3.08,14.43,8.91,20.42a1.22,1.22,0,0,0,1.75-1.71C89.45,74.63,86.61,68.16,86.61,61.44Z"/>
    </g>
  </g>
</svg>
