<svg id="Capa_1" data-name="Capa 1" xmlns="http://www.w3.org/2000/svg" width="300" height="300" viewBox="0 0 300 300">
  <defs>
    <style>
      .cls-1 {
        fill: #0f0140;
        opacity: 0.19;
      }

      .cls-2 {
        fill: #ececec;
      }

      .cls-3 {
        fill: #fafafa;
      }

      .cls-4 {
        fill: #e1e1e1;
      }

      .cls-5 {
        fill: #091320;
      }

      .cls-6 {
        fill: #fff;
      }

      .cls-7 {
        fill: #375a64;
      }

      .cls-8 {
        fill: #6558b8;
      }

      .cls-9 {
        fill: #ffbf9d;
      }

      .cls-10 {
        fill: #ff9a6c;
      }

      .cls-11 {
        opacity: 0.4;
      }

      .cls-12, .cls-13 {
        opacity: 0.3;
      }
    </style>
  </defs>
  <path class="cls-1" d="M146.56,241.88l-.43,54.84a147.3,147.3,0,1,0,2.3-294.59L148,57a92.46,92.46,0,1,1-1.45,184.91Z"/>
  <g>
    <g>
      <rect class="cls-2" x="248.57" y="262.12" width="20.61" height="26.01" transform="translate(515.59 552.27) rotate(-179.55)"/>
      <polygon class="cls-3" points="261.22 262.96 260.85 288.15 257.6 288.12 258.3 262.94 261.22 262.96"/>
      <polygon class="cls-4" points="236.84 262.77 248.66 262.87 269.27 263.03 248.64 265.74 248.47 288.05 236.65 287.96 236.84 262.77"/>
      <polygon class="cls-3" points="243.28 262.82 242.81 288.01 239.3 287.98 239.87 262.8 243.28 262.82"/>
      <g>
        <path class="cls-4" d="M252.63,255.16c0,.16-.34.32-1,.48a15.52,15.52,0,0,1-2.73.36,15.9,15.9,0,0,1-1.94,0c-.35,0-.72-.06-1.1-.12a9.74,9.74,0,0,1-1.2-.26,3.07,3.07,0,0,1-.74-.32,2.32,2.32,0,0,1-.79-.73,2.16,2.16,0,0,1-.33-1.14,3.58,3.58,0,0,1,.09-.87,16.21,16.21,0,0,1,.79-2.61,6.8,6.8,0,0,1,.76-1.33,5.6,5.6,0,0,1,.51-.6,3.83,3.83,0,0,1,.68-.56,2.93,2.93,0,0,1,.94-.37,2.36,2.36,0,0,1,1.06,0,3.37,3.37,0,0,1,1.41.78,11.11,11.11,0,0,1,2.71,3.32,8.05,8.05,0,0,1,.91,2.71c.08.67,0,1.05-.15,1.09-.33.08-.81-1.25-2.13-2.92a13.39,13.39,0,0,0-2.64-2.53,1.59,1.59,0,0,0-.6-.31.19.19,0,0,0-.11,0,.68.68,0,0,0-.18.1,1.3,1.3,0,0,0-.26.23c-.1.1-.2.24-.3.36a5.21,5.21,0,0,0-.49.91,15.88,15.88,0,0,0-.71,2.21,1.73,1.73,0,0,0-.06.32v0H245c-.07,0-.09,0,0,0l.07-.05h0l.06.05a1.18,1.18,0,0,0,.3.15,7.6,7.6,0,0,0,.91.28c.32.09.64.16,1,.22.62.12,1.21.21,1.75.29,1.1.14,2,.24,2.65.36S252.63,255,252.63,255.16Z"/>
        <path class="cls-2" d="M252.21,255.35c-.06-.33,1.48-.81,3.89-1.52a33.19,33.19,0,0,0,4-1.45,4.05,4.05,0,0,0,.88-.49.44.44,0,0,0,.13-.14s0,.09,0,.05a2.81,2.81,0,0,0-.15-.36l-.3-.62a9.88,9.88,0,0,0-.62-1.12,4.58,4.58,0,0,0-.74-.87,4.35,4.35,0,0,0-.41-.34,2.81,2.81,0,0,0-.38-.2,1,1,0,0,0-.6-.06,2,2,0,0,0-.73.43,16,16,0,0,0-2.82,3.06c-1.38,2-1.74,3.5-2.09,3.45-.15,0-.26-.44-.21-1.2a9,9,0,0,1,.89-3.07,13.49,13.49,0,0,1,2.83-3.84,3.94,3.94,0,0,1,1.46-.92,3.1,3.1,0,0,1,2,0,4.29,4.29,0,0,1,.86.42,5.06,5.06,0,0,1,.69.53,6.33,6.33,0,0,1,1.13,1.31,12.3,12.3,0,0,1,.77,1.4l.3.66a3.46,3.46,0,0,1,.3.94,2.09,2.09,0,0,1-.23,1.37,2.63,2.63,0,0,1-.76.84,5.81,5.81,0,0,1-1.41.71,21.68,21.68,0,0,1-4.51,1.08C253.85,255.74,252.26,255.65,252.21,255.35Z"/>
      </g>
      <rect class="cls-4" x="233.13" y="254.25" width="30.29" height="8.61" transform="translate(494.51 519.05) rotate(-179.55)"/>
      <rect class="cls-2" x="244.26" y="254.33" width="27.38" height="8.61" transform="translate(513.88 519.28) rotate(-179.55)"/>
      <polygon class="cls-3" points="263.27 254.37 263.08 263.02 259.89 262.95 260.11 254.35 263.27 254.37"/>
      <polygon class="cls-3" points="240.59 254.24 240.28 262.81 236.77 262.78 236.96 254.17 240.59 254.24"/>
    </g>
    <g>
      <rect class="cls-2" x="271.33" y="273.43" width="11.68" height="14.74" transform="translate(552.14 563.75) rotate(-179.55)"/>
      <polygon class="cls-3" points="278.5 273.91 278.29 288.18 276.45 288.16 276.84 273.89 278.5 273.91"/>
      <polygon class="cls-4" points="264.69 273.8 271.39 273.85 283.06 273.94 271.37 275.48 271.27 288.12 264.58 288.07 264.69 273.8"/>
      <polygon class="cls-3" points="268.33 273.83 268.07 288.1 266.08 288.08 266.4 273.81 268.33 273.83"/>
      <g>
        <path class="cls-4" d="M273.64,269.48c0,.22-.77.49-2.11.6a8,8,0,0,1-2.45-.21,1.64,1.64,0,0,1-.94-.65,1.39,1.39,0,0,1-.22-.72A2.45,2.45,0,0,1,268,268a9,9,0,0,1,.45-1.51,4.75,4.75,0,0,1,.45-.78,2.65,2.65,0,0,1,.72-.69,1.62,1.62,0,0,1,1.25-.22,2.07,2.07,0,0,1,.86.48,6.43,6.43,0,0,1,1.54,1.94c.63,1.27.54,2.18.33,2.21s-.54-.68-1.3-1.59a8.07,8.07,0,0,0-1.49-1.38.65.65,0,0,0-.29-.14h0v0l-.05,0a1.42,1.42,0,0,0-.27.3,2.71,2.71,0,0,0-.26.48,9.86,9.86,0,0,0-.4,1.23l0,.14h-.11l-.09,0s-.05,0,0,0a.41.41,0,0,0,.11-.1l0,0h0a.37.37,0,0,0,.13.07,10.56,10.56,0,0,0,2,.47C272.81,269.11,273.63,269.25,273.64,269.48Z"/>
        <path class="cls-4" d="M273.39,269.59c0-.25.83-.58,2.17-1a22.88,22.88,0,0,0,2.25-.86,2.06,2.06,0,0,0,.45-.26s0-.05,0,0a.49.49,0,0,0,0,.17l-.23-.48a4.91,4.91,0,0,0-.34-.61,2.5,2.5,0,0,0-.38-.45,1.26,1.26,0,0,0-.37-.26.33.33,0,0,0-.2,0,1.1,1.1,0,0,0-.34.19,9.38,9.38,0,0,0-1.59,1.66c-.8,1.06-1.07,1.9-1.33,1.87s-.41-1,.24-2.5a7.43,7.43,0,0,1,1.61-2.26,2.45,2.45,0,0,1,.9-.57,2,2,0,0,1,1.3,0,2.61,2.61,0,0,1,.53.26,3.43,3.43,0,0,1,.43.32,4.19,4.19,0,0,1,.68.79,8.52,8.52,0,0,1,.45.82l.17.38a2.39,2.39,0,0,1,.19.59,1.43,1.43,0,0,1-.16.92,1.7,1.7,0,0,1-.5.55,3.16,3.16,0,0,1-.85.42,11.05,11.05,0,0,1-2.6.58C274.34,269.94,273.43,269.82,273.39,269.59Z"/>
      </g>
      <rect class="cls-4" x="262.58" y="268.97" width="17.16" height="4.88" transform="translate(540.2 544.93) rotate(-179.55)"/>
      <rect class="cls-2" x="268.89" y="269.01" width="15.51" height="4.88" transform="translate(551.17 545.06) rotate(-179.55)"/>
      <polygon class="cls-3" points="279.67 269.04 279.56 273.94 277.75 273.9 277.87 269.02 279.67 269.04"/>
      <polygon class="cls-3" points="266.81 268.96 266.63 273.82 264.64 273.8 264.75 268.92 266.81 268.96"/>
    </g>
  </g>
  <path class="cls-5" d="M305.33,288.21c0,.1-66.28.18-148,.18s-148-.08-148-.18,66.26-.17,148-.17S305.33,288.12,305.33,288.21Z"/>
  <g>
    <g>
      <g>
        <rect class="cls-5" x="131.68" y="18.61" width="154.16" height="221.23" rx="7.76"/>
        <rect class="cls-6" x="136.25" y="33.9" width="144.44" height="184.76"/>
        <path class="cls-7" d="M214.62,228.73a5.92,5.92,0,1,1-5.91-5.92A5.92,5.92,0,0,1,214.62,228.73Z"/>
        <rect class="cls-7" x="185.59" y="24.98" width="46.43" height="2.44" rx="1.22"/>
      </g>
      <path class="cls-4" d="M274.54,193.09h0a1.73,1.73,0,0,1-1.73-1.73l.07-131.17a1.73,1.73,0,0,1,1.73-1.74h0a1.74,1.74,0,0,1,1.74,1.74l-.07,131.17A1.73,1.73,0,0,1,274.54,193.09Z"/>
      <path class="cls-5" d="M238.73,49c0,.1-13.4.17-29.93.16s-29.93-.09-29.93-.19,13.4-.17,29.93-.16S238.73,48.92,238.73,49Z"/>
      <path class="cls-5" d="M150.29,52.34h.19l.54,0,2-.05-.06.06c0-.44,0-.92,0-1.43,0-.27,0-.52,0-.83a.78.78,0,0,1,.67-.62c.32,0,.6,0,.95,0a.77.77,0,0,1,.65.77c0,.67,0,1.37,0,2.09l-.11-.1,2.5,0-.11.11c0-1,0-2,0-3.11v-.79a.82.82,0,0,0-.35-.58L156,46.73l-1.05-1-.51-.5c-.18-.17-.31-.34-.51-.38a.65.65,0,0,0-.56.11c-.15.12-.31.3-.46.45l-.9.9c-.56.58-1.15,1.12-1.58,1.62a1.83,1.83,0,0,0-.12.93v.87c0,.54,0,1,0,1.42s0,.65,0,.9,0,.33,0,.33a.87.87,0,0,1,0-.3l0-.89,0-1.42c0-.29,0-.59,0-.9v-.49a1,1,0,0,1,.14-.53c.46-.57,1-1.06,1.58-1.67l.89-.91c.16-.15.29-.31.48-.47a.83.83,0,0,1,.73-.15,1.38,1.38,0,0,1,.61.43l.51.5,1,1,1.09,1.07a1,1,0,0,1,.42.73v.8c0,1.06,0,2.1,0,3.1v.11h-.11l-2.5,0H155v-.1c0-.73,0-1.43,0-2.09a.6.6,0,0,0-.49-.6h-.9a.59.59,0,0,0-.53.47c0,.25,0,.54,0,.8v1.49H153l-2,0h-.52C150.34,52.35,150.28,52.35,150.29,52.34Z"/>
    </g>
    <g>
      <path class="cls-5" d="M264.59,45.67a.08.08,0,0,0-.07,0l-5.88,0h-2.23l0-.34-.09-.66a.11.11,0,0,0-.1-.09h-1.63c-.13,0-.22,0-.22.11s.09.1.22.11l1.49,0,.83,6.44a.1.1,0,0,0,.1.08l4.8,0h1.8c.16,0,.23,0,.23-.11s-.07-.1-.23-.11L257.14,51,257,49.88l6.77.09h0a.11.11,0,0,0,.1-.08l.5-2.69.26-1.45A.08.08,0,0,0,264.59,45.67Zm-8.15.14,7.85.11-.69,3.76-4.82,0H257Z"/>
      <path class="cls-5" d="M258.76,52.8a.76.76,0,0,0-.27-.45.79.79,0,0,0-.76-.13.81.81,0,0,0-.54.76.8.8,0,0,0,.53.76.65.65,0,0,0,.27,0,.8.8,0,0,0,.49-.17.7.7,0,0,0,.28-.44,1.81,1.81,0,0,0,0-.38Zm-.94.68a.52.52,0,0,1,0-1,.39.39,0,0,1,.18,0,.51.51,0,0,1,.32.11.61.61,0,0,1,.21.3.89.89,0,0,1,0,.11v0a.89.89,0,0,1,0,.11.58.58,0,0,1-.22.29A.52.52,0,0,1,257.82,53.48Z"/>
      <path class="cls-5" d="M263.07,52.84a.74.74,0,0,0-.27-.45.81.81,0,1,0-.77,1.39.86.86,0,0,0,.27,0,.8.8,0,0,0,.49-.17.82.82,0,0,0,.28-.45.59.59,0,0,0,0-.19A.51.51,0,0,0,263.07,52.84Zm-.95.67a.53.53,0,0,1,0-1,.63.63,0,0,1,.19,0,.61.61,0,0,1,.32.1.58.58,0,0,1,.2.3.35.35,0,0,1,0,.12h0v0a1,1,0,0,1,0,.11.55.55,0,0,1-.21.3A.54.54,0,0,1,262.12,53.51Z"/>
    </g>
    <g>
      <path class="cls-5" d="M173.12,198.85c0,1-.69,1.53-1.83,1.53h-1.2v1.41h-.47v-4.47h1.67C172.43,197.32,173.12,197.89,173.12,198.85Zm-.47,0c0-.71-.48-1.12-1.37-1.12h-1.19V200h1.19C172.17,200,172.65,199.55,172.65,198.85Z"/>
      <path class="cls-5" d="M177.14,198.43v3.36h-.44v-.61a1.32,1.32,0,0,1-1.21.64,1.3,1.3,0,0,1-1.41-1.44v-1.95h.45v1.91a1,1,0,0,0,1,1.08,1.09,1.09,0,0,0,1.14-1.22v-1.77Z"/>
      <path class="cls-5" d="M180.1,198.41v.44H180a1.09,1.09,0,0,0-1.14,1.24v1.71h-.45v-3.36h.44v.66A1.25,1.25,0,0,1,180.1,198.41Z"/>
      <path class="cls-5" d="M180.55,200.11a1.65,1.65,0,0,1,1.73-1.7,1.47,1.47,0,0,1,1.32.66l-.34.23a1.16,1.16,0,0,0-1-.49,1.31,1.31,0,0,0,0,2.61,1.14,1.14,0,0,0,1-.49l.34.23a1.48,1.48,0,0,1-1.32.67A1.66,1.66,0,0,1,180.55,200.11Z"/>
      <path class="cls-5" d="M187.53,199.85v2h-.46v-1.91a.94.94,0,0,0-1-1.07,1.1,1.1,0,0,0-1.18,1.21v1.77h-.45v-4.74h.45v2a1.42,1.42,0,0,1,1.26-.61A1.28,1.28,0,0,1,187.53,199.85Z"/>
      <path class="cls-5" d="M191.3,199.72v2.08h-.44v-.52a1.26,1.26,0,0,1-1.15.55c-.76,0-1.23-.4-1.23-1s.33-.95,1.3-.95h1.07v-.2c0-.58-.33-.89-1-.89a1.65,1.65,0,0,0-1.11.4l-.21-.34a2.13,2.13,0,0,1,1.37-.46A1.2,1.2,0,0,1,191.3,199.72Zm-.45,1.07v-.55h-1.06c-.65,0-.86.26-.86.6s.31.63.85.63A1.08,1.08,0,0,0,190.85,200.79Z"/>
      <path class="cls-5" d="M192.07,201.42l.2-.36a2,2,0,0,0,1.2.38c.63,0,.9-.22.9-.55,0-.88-2.18-.19-2.18-1.52,0-.55.47-1,1.33-1a2.31,2.31,0,0,1,1.19.31l-.2.36a1.77,1.77,0,0,0-1-.28c-.61,0-.88.23-.88.55,0,.91,2.18.23,2.18,1.52,0,.58-.51,1-1.39,1A2.27,2.27,0,0,1,192.07,201.42Z"/>
      <path class="cls-5" d="M198.58,200.26h-2.81a1.24,1.24,0,0,0,1.32,1.17,1.3,1.3,0,0,0,1-.44l.26.3a1.69,1.69,0,0,1-1.3.55,1.66,1.66,0,0,1-1.76-1.72,1.62,1.62,0,0,1,1.64-1.7,1.59,1.59,0,0,1,1.63,1.7S198.58,200.21,198.58,200.26Zm-2.81-.34h2.39a1.2,1.2,0,0,0-2.39,0Z"/>
      <path class="cls-5" d="M206.13,198.45l-1.28,3.36h-.43l-1.06-2.76-1.06,2.76h-.43l-1.26-3.37h.44l1,2.85,1.08-2.85h.39l1.07,2.85,1.07-2.85Z"/>
      <path class="cls-5" d="M209.24,199.73v2.08h-.43v-.52a1.28,1.28,0,0,1-1.16.55c-.76,0-1.22-.4-1.22-1s.33-1,1.29-1h1.07v-.2c0-.58-.32-.89-.95-.89a1.73,1.73,0,0,0-1.12.39l-.2-.33a2.11,2.11,0,0,1,1.36-.46A1.2,1.2,0,0,1,209.24,199.73Zm-.45,1.07v-.55h-1c-.66,0-.87.26-.87.6s.32.63.85.63A1.08,1.08,0,0,0,208.79,200.8Z"/>
      <path class="cls-5" d="M210,201.43l.21-.36a2,2,0,0,0,1.19.38c.64,0,.9-.22.9-.55,0-.88-2.18-.19-2.18-1.52,0-.55.48-1,1.33-1a2.38,2.38,0,0,1,1.19.32l-.2.36a1.82,1.82,0,0,0-1-.29c-.61,0-.87.24-.87.56,0,.91,2.18.22,2.17,1.52,0,.58-.51,1-1.38,1A2.28,2.28,0,0,1,210,201.43Z"/>
      <path class="cls-5" d="M214.81,201.43l.2-.36a2.06,2.06,0,0,0,1.2.38c.64,0,.9-.22.9-.55,0-.88-2.18-.19-2.18-1.51,0-.55.48-1,1.33-1a2.28,2.28,0,0,1,1.19.31l-.2.37a1.67,1.67,0,0,0-1-.29c-.61,0-.87.23-.87.55,0,.91,2.17.23,2.17,1.52,0,.58-.51,1-1.38,1A2.21,2.21,0,0,1,214.81,201.43Z"/>
      <path class="cls-5" d="M221.43,198.46v3.36H221v-.62a1.35,1.35,0,0,1-1.21.65,1.3,1.3,0,0,1-1.42-1.45v-2h.45v1.91a.94.94,0,0,0,1,1.08,1.09,1.09,0,0,0,1.15-1.22v-1.76Z"/>
      <path class="cls-5" d="M222.36,200.14a1.66,1.66,0,0,1,1.74-1.71,1.47,1.47,0,0,1,1.31.67l-.34.23a1.13,1.13,0,0,0-1-.5,1.31,1.31,0,0,0,0,2.62,1.16,1.16,0,0,0,1-.49l.34.23a1.49,1.49,0,0,1-1.32.66A1.66,1.66,0,0,1,222.36,200.14Z"/>
      <path class="cls-5" d="M225.9,200.14a1.66,1.66,0,0,1,1.74-1.71,1.47,1.47,0,0,1,1.31.67l-.34.23a1.13,1.13,0,0,0-1-.5,1.31,1.31,0,0,0,0,2.62,1.14,1.14,0,0,0,1-.49l.34.23a1.49,1.49,0,0,1-1.32.66A1.66,1.66,0,0,1,225.9,200.14Z"/>
      <path class="cls-5" d="M232.71,200.28H229.9a1.24,1.24,0,0,0,1.32,1.17,1.34,1.34,0,0,0,1-.44l.25.29a1.63,1.63,0,0,1-1.29.55,1.66,1.66,0,0,1-1.77-1.71,1.64,1.64,0,1,1,3.28,0S232.71,200.23,232.71,200.28Zm-2.81-.34h2.38a1.17,1.17,0,0,0-1.19-1.11A1.16,1.16,0,0,0,229.9,199.94Z"/>
      <path class="cls-5" d="M233.18,201.44l.2-.36a2,2,0,0,0,1.19.38c.64,0,.91-.22.91-.55,0-.88-2.18-.19-2.18-1.52,0-.54.47-.95,1.33-.95a2.33,2.33,0,0,1,1.19.31l-.2.37a1.71,1.71,0,0,0-1-.29c-.61,0-.88.23-.88.55,0,.91,2.18.23,2.18,1.52,0,.58-.51,1-1.39,1A2.2,2.2,0,0,1,233.18,201.44Z"/>
      <path class="cls-5" d="M236.3,201.44l.21-.36a2,2,0,0,0,1.19.38c.64,0,.9-.22.9-.55,0-.87-2.18-.18-2.18-1.51,0-.55.48-1,1.33-1a2.28,2.28,0,0,1,1.19.31l-.2.37a1.67,1.67,0,0,0-1-.29c-.6,0-.87.23-.87.55,0,.91,2.18.23,2.17,1.52,0,.58-.51,1-1.38,1A2.23,2.23,0,0,1,236.3,201.44Z"/>
      <path class="cls-5" d="M240.41,198.07v.4h1v.38h-1v3H240v-3h-.6v-.38h.6v-.42a.93.93,0,0,1,1-1,1,1,0,0,1,.67.22l-.16.33a.72.72,0,0,0-.49-.16A.55.55,0,0,0,240.41,198.07Z"/>
      <path class="cls-5" d="M245.09,198.47v3.36h-.44v-.61a1.34,1.34,0,0,1-1.21.64,1.3,1.3,0,0,1-1.41-1.44v-1.95h.45v1.9c0,.72.37,1.08,1,1.08a1.09,1.09,0,0,0,1.14-1.22v-1.76Z"/>
      <path class="cls-5" d="M246.36,197.09h.46v4.74h-.45Z"/>
    </g>
    <g>
      <path class="cls-8" d="M180.3,186.26h-2.42v-1.14h6.18v1.14h-2.41v6.14H180.3Z"/>
      <path class="cls-8" d="M190.42,189.22v3.18h-1.3v-3c0-1-.49-1.46-1.32-1.46a1.47,1.47,0,0,0-1.55,1.67v2.81H185v-7.72h1.3v2.81a2.47,2.47,0,0,1,1.85-.71A2.17,2.17,0,0,1,190.42,189.22Z"/>
      <path class="cls-8" d="M196.71,189.14v3.26h-1.22v-.68a2,2,0,0,1-1.75.75c-1.27,0-2.07-.7-2.07-1.66s.63-1.66,2.31-1.66h1.43v-.08c0-.76-.45-1.21-1.38-1.21a2.69,2.69,0,0,0-1.68.56l-.51-.95a3.87,3.87,0,0,1,2.35-.69C195.79,186.78,196.71,187.54,196.71,189.14Zm-1.3,1.52V190h-1.34c-.88,0-1.12.33-1.12.73s.4.77,1.06.77A1.41,1.41,0,0,0,195.41,190.66Z"/>
      <path class="cls-8" d="M203.84,189.22v3.18h-1.3v-3c0-1-.49-1.46-1.32-1.46a1.48,1.48,0,0,0-1.55,1.67v2.81h-1.3v-5.55h1.24v.71a2.41,2.41,0,0,1,1.91-.78A2.17,2.17,0,0,1,203.84,189.22Z"/>
      <path class="cls-8" d="M207.76,190l-1,.91v1.47h-1.3v-7.72h1.3v4.66l2.69-2.49H211l-2.32,2.32,2.54,3.23h-1.58Z"/>
      <path class="cls-8" d="M220.16,186.85l-2.6,6a2.14,2.14,0,0,1-2.14,1.64,2.23,2.23,0,0,1-1.48-.51l.52-.95a1.39,1.39,0,0,0,.95.38c.46,0,.73-.21,1-.77l.09-.21-2.42-5.57h1.35l1.75,4.1,1.76-4.1Z"/>
      <path class="cls-8" d="M220.36,189.62a3,3,0,1,1,2.95,2.85A2.8,2.8,0,0,1,220.36,189.62Zm4.6,0a1.65,1.65,0,1,0-1.65,1.74A1.61,1.61,0,0,0,225,189.62Z"/>
      <path class="cls-8" d="M232.89,186.85v5.55h-1.24v-.71a2.25,2.25,0,0,1-1.78.78,2.19,2.19,0,0,1-2.39-2.45v-3.17h1.29v3c0,1,.48,1.49,1.3,1.49a1.47,1.47,0,0,0,1.52-1.68v-2.8Z"/>
      <path class="cls-8" d="M234.35,191.66a.81.81,0,0,1,.85-.8.79.79,0,0,1,.82.8.81.81,0,0,1-.82.81A.82.82,0,0,1,234.35,191.66Zm.08-6.54H236L235.7,190h-1Z"/>
    </g>
  </g>
  <g>
    <g>
      <g>
        <g>
          <g>
            <g>
              <path class="cls-9" d="M225.44,76.23l-2,27.8a8.67,8.67,0,0,1-8.65,8.06h0a8.67,8.67,0,0,1-8.65-9.24c.18-2.64.33-4.81.33-4.81s-6.73-1.05-6.81-7.77c0-3.89.62-12.71,1.2-19.47a8.83,8.83,0,0,1,8.79-8.07h4.07A12.45,12.45,0,0,1,225.44,76.23Z"/>
              <path class="cls-10" d="M206.51,98a16.24,16.24,0,0,0,8.76-2.59s-2.16,4.9-8.88,4.29Z"/>
            </g>
            <g>
              <g>
                <path class="cls-5" d="M202.16,77.23c.12.13.85-.41,1.88-.41s1.79.52,1.91.39-.07-.28-.4-.52a2.67,2.67,0,0,0-1.53-.47,2.51,2.51,0,0,0-1.49.48C202.21,77,202.1,77.17,202.16,77.23Z"/>
                <g>
                  <path class="cls-5" d="M211.38,80.1a1,1,0,0,0,.92,1,.91.91,0,0,0,1-.87,1,1,0,0,0-.92-1A.91.91,0,0,0,211.38,80.1Z"/>
                  <path class="cls-5" d="M202.15,80.1a1,1,0,0,0,.92,1,.92.92,0,0,0,1-.87,1,1,0,0,0-.92-1A.91.91,0,0,0,202.15,80.1Z"/>
                  <path class="cls-5" d="M212.15,77.37c.12.12.84-.41,1.88-.41s1.79.52,1.9.39-.06-.28-.4-.52a2.61,2.61,0,0,0-1.52-.47,2.54,2.54,0,0,0-1.5.48C212.2,77.09,212.09,77.31,212.15,77.37Z"/>
                </g>
                <path class="cls-5" d="M208.47,85.41a6.79,6.79,0,0,0-1.68-.3c-.27,0-.52-.08-.56-.26a1.34,1.34,0,0,1,.18-.78c.25-.64.5-1.31.78-2a34.66,34.66,0,0,0,1.75-5.26,34.46,34.46,0,0,0-2.17,5.1l-.75,2a1.54,1.54,0,0,0-.14,1,.68.68,0,0,0,.44.39,2,2,0,0,0,.45.06A6.4,6.4,0,0,0,208.47,85.41Z"/>
                <path class="cls-5" d="M211.51,86.13c-.17,0-.17,1.11-1.13,1.91s-2.15.67-2.16.83.26.22.77.23a2.74,2.74,0,0,0,1.8-.63,2.43,2.43,0,0,0,.88-1.6C211.71,86.4,211.59,86.12,211.51,86.13Z"/>
              </g>
              <path class="cls-5" d="M212.21,73.62c.1.28,1.14.15,2.35.29s2.19.48,2.35.23-.09-.39-.49-.66a3.94,3.94,0,0,0-1.75-.61,3.9,3.9,0,0,0-1.83.22C212.39,73.27,212.17,73.49,212.21,73.62Z"/>
              <path class="cls-5" d="M202,74.11c.18.23.89,0,1.75,0s1.58.16,1.75-.09,0-.35-.36-.58a2.4,2.4,0,0,0-1.42-.38,2.45,2.45,0,0,0-1.4.47C202,73.75,201.92,74,202,74.11Z"/>
            </g>
            <g>
              <path class="cls-9" d="M223.17,81.28c.12,0,4.62-1.37,4.48,3.23s-4.74,3.51-4.74,3.38S223.17,81.28,223.17,81.28Z"/>
              <path class="cls-10" d="M224.37,86.19s.08.06.21.12a.79.79,0,0,0,.6,0,2,2,0,0,0,1-1.75,2.72,2.72,0,0,0-.18-1.16.91.91,0,0,0-.59-.63.4.4,0,0,0-.48.2c-.06.13,0,.22-.06.23s-.1-.08-.05-.27a.49.49,0,0,1,.19-.28.59.59,0,0,1,.44-.11,1.14,1.14,0,0,1,.82.74,2.71,2.71,0,0,1,.23,1.29,2.06,2.06,0,0,1-1.23,2,.86.86,0,0,1-.73-.14C224.37,86.3,224.35,86.2,224.37,86.19Z"/>
            </g>
          </g>
          <path class="cls-5" d="M225.73,81.13a2.39,2.39,0,0,0-2.21,1.13c-.3.66-.37,1.4-.67,2.06a1.63,1.63,0,0,1-1.67,1.09,1.42,1.42,0,0,1-1-1,3.93,3.93,0,0,1,0-1.49c.28-2.15.73-4.28.81-6.44a11.1,11.1,0,0,0-1.35-6.26,6.07,6.07,0,0,0-5.39-3c-1.42.11-2.74.86-4.16,1.06a5.65,5.65,0,0,1-4.67-1.56c-.15-.15-.87-.63-.87-.63a2.65,2.65,0,0,1,.49-1.42c2.81-2.61,7.89-3.33,11.61-2.4a13.45,13.45,0,0,1,8.82,7.06c1.6,3.48,1.12,8.34.24,11.87"/>
        </g>
        <path class="cls-5" d="M200.16,69.59A4.37,4.37,0,0,0,203.82,72a11.94,11.94,0,0,0,4.49-.65,34.42,34.42,0,0,1,6.91-1c.23,0,.5,0,.62-.19s-.09-.56-.33-.75c-2-1.57-6.85-2.54-9.4-2.64a7.47,7.47,0,0,0-6.6,3.13"/>
        <path class="cls-8" d="M200.82,69.77a8.64,8.64,0,0,1,5-2.27c5.82-.5,15.37,1.29,20.38,11.32a23.19,23.19,0,0,0,1-5.33c0-1.37-.82-9.52-9.2-12.08C218.05,61.41,205.42,56.59,200.82,69.77Z"/>
        <g class="cls-11">
          <path d="M200.82,69.77a8.22,8.22,0,0,1,5.62-2.55c5.2-.23,15,2.15,19.77,11.6a23.19,23.19,0,0,0,1-5.33c0-1.37-.82-9.52-9.2-12.08C218.05,61.41,205.42,56.59,200.82,69.77Z"/>
        </g>
        <path class="cls-8" d="M225.42,77.39c-2.51-4.23-6.27-7.14-10.33-9.67a64.89,64.89,0,0,0-15.39-6.27,10.12,10.12,0,0,0-4.25-.45,3.86,3.86,0,0,0-3.16,2.58c-.44,1.75,2.66,4.44,4.11,5.5a49.58,49.58,0,0,0,4.42,2.6s0-3.24,5.14-3.9C213,66.89,225.64,77.57,225.42,77.39Z"/>
      </g>
      <path class="cls-6" d="M216,64.76a24.53,24.53,0,0,0-4.71-1.86,25.16,25.16,0,0,0-5-.51,5,5,0,0,1,1.5-.2,13.76,13.76,0,0,1,3.63.37,13.58,13.58,0,0,1,3.39,1.33A4.73,4.73,0,0,1,216,64.76Z"/>
    </g>
    <path class="cls-5" d="M250.76,174.41c0,.1-17.2.18-38.42.18s-38.44-.08-38.44-.18,17.21-.17,38.44-.17S250.76,174.31,250.76,174.41Z"/>
    <g>
      <g>
        <path class="cls-9" d="M179.46,119.42l-9.9,4.47-15.35-12.51-4.68,7.4s8.74,10.12,12,13.55,5.4,5.27,8,4.95,17.13-7.2,17.13-7.2S183.17,119.85,179.46,119.42Z"/>
        <g>
          <g>
            <path class="cls-9" d="M137.39,105.07s1.93,1.44,3.19,1.35,6-.11,6.4-.09,5,2.56,5,2.56l3.42,3.29-5.36,7.44s-.88-1-1.49-.94a68.26,68.26,0,0,1-9.07-.93c-1.11-.37-2.52-.59-2.89-1.28s-.46-1.16.56-2a1.67,1.67,0,0,1-.37-2.35s-1.54-1.12-1-2.16c0,0-.87-.36-1-.91a5.92,5.92,0,0,1,.06-1.72l2.2-.69S136.39,105.83,137.39,105.07Z"/>
            <path class="cls-10" d="M136.53,106.75s.11,0,.29-.09a2.86,2.86,0,0,1,.82-.17,2,2,0,0,1,1.19.46,1.39,1.39,0,0,1,.46,1.51,1.1,1.1,0,0,1-.6.65,4,4,0,0,1-.72.2l-1.18.25a3.27,3.27,0,0,1-1.11.13,4,4,0,0,1,1-.37l1.17-.32c.44-.11.93-.22,1.06-.65a1.09,1.09,0,0,0-.34-1.15,1.89,1.89,0,0,0-1-.46,5.61,5.61,0,0,0-.79.05C136.64,106.8,136.53,106.78,136.53,106.75Z"/>
            <path class="cls-10" d="M139.29,108.68a1.72,1.72,0,0,1,.51-.14,7.72,7.72,0,0,1,1.45-.16,3.7,3.7,0,0,1,2.12.54,1.84,1.84,0,0,1,.81,1.1,1.29,1.29,0,0,1-.55,1.37,3.49,3.49,0,0,1-1.4.28l-1.26.1-2.13.15a10.83,10.83,0,0,1-2,0,12.94,12.94,0,0,1,2-.29l2.13-.22,1.25-.12a3.32,3.32,0,0,0,1.25-.25.91.91,0,0,0,.39-1,1.48,1.48,0,0,0-.65-.9,3.72,3.72,0,0,0-1.94-.57C140.05,108.6,139.29,108.75,139.29,108.68Z"/>
            <path class="cls-10" d="M143.83,111.38s.14,0,.28.2a1.12,1.12,0,0,1,.13,1,1.64,1.64,0,0,1-1,1,5.4,5.4,0,0,1-1.67.23c-2.31.1-4.15.56-4.17.46a11.35,11.35,0,0,1,4.15-.81,6.19,6.19,0,0,0,1.58-.18,1.38,1.38,0,0,0,.91-.75,1,1,0,0,0,0-.8C143.91,111.47,143.81,111.4,143.83,111.38Z"/>
            <path class="cls-10" d="M151.46,112.67a2.47,2.47,0,0,1-1,.38,7.16,7.16,0,0,1-2.52.11,7,7,0,0,1-2.39-.77c-.56-.31-.86-.58-.84-.62a14.28,14.28,0,0,0,3.28,1A14.11,14.11,0,0,0,151.46,112.67Z"/>
            <path class="cls-10" d="M143.8,109.24c0-.09.52.08,1.11,0s1-.33,1.08-.25-.34.52-1,.59S143.74,109.31,143.8,109.24Z"/>
            <path class="cls-10" d="M143.27,116.58a3.4,3.4,0,0,1,2.93-2.74,14.9,14.9,0,0,0-1.68,1.15A13.43,13.43,0,0,0,143.27,116.58Z"/>
          </g>
          <polygon class="cls-8" points="127.32 135.91 156.52 135.91 161.93 178.61 121.62 178.61 127.32 135.91"/>
          <polygon class="cls-8" points="156.52 135.91 159.89 135.91 169.85 178.61 161.93 178.61 156.52 135.91"/>
          <polygon class="cls-12" points="156.52 135.91 159.89 135.91 169.85 178.61 161.93 178.61 156.52 135.91"/>
        </g>
        <path class="cls-10" d="M140.21,113.71s.09,0,.24,0a.9.9,0,0,1,.51.4,1.1,1.1,0,0,1,.09,1,1.68,1.68,0,0,1-.79.86,3.26,3.26,0,0,1-1.48.29l.13-.09c-.39.74-.84,1.06-.88,1s.31-.44.61-1.14l0-.08h.09a3.54,3.54,0,0,0,1.34-.3,1.45,1.45,0,0,0,.65-.67.84.84,0,0,0,0-.73C140.55,113.8,140.2,113.76,140.21,113.71Z"/>
        <path class="cls-8" d="M134.74,137.78a4.65,4.65,0,0,1,.06-.87c.07-.56.18-1.36.34-2.34.32-2,.85-4.67,1.48-7.65s1.21-5.67,1.59-7.62l.44-2.32a4.49,4.49,0,0,1,.2-.84,4.59,4.59,0,0,1-.06.86c-.07.56-.18,1.36-.34,2.34-.32,2-.85,4.68-1.48,7.65s-1.2,5.67-1.58,7.62l-.45,2.32A5.13,5.13,0,0,1,134.74,137.78Z"/>
        <path class="cls-8" d="M150.15,138.2a5.47,5.47,0,0,1-.32-1c-.2-.7-.45-1.61-.76-2.71-.62-2.29-1.46-5.46-2.36-9s-1.7-6.69-2.26-9c-.26-1.11-.48-2-.65-2.74a7.25,7.25,0,0,1-.19-1,5.47,5.47,0,0,1,.32,1c.2.7.45,1.61.76,2.71.62,2.29,1.46,5.46,2.36,9s1.7,6.69,2.26,9c.26,1.11.48,2,.65,2.74A5.73,5.73,0,0,1,150.15,138.2Z"/>
        <path class="cls-5" d="M169.85,178.61a8.84,8.84,0,0,1-1.4-1c-.84-.64-2-1.54-3.24-2.56l-.63-.52.25,0c-.78,1.18-1.49,2.22-2,3a6.51,6.51,0,0,1-.89,1.15,6.52,6.52,0,0,1,.7-1.27c.47-.77,1.14-1.83,1.92-3l.1-.17.15.13.63.51c1.25,1,2.37,2,3.17,2.64A8,8,0,0,1,169.85,178.61Z"/>
        <path class="cls-5" d="M158.29,135.91c.1,0,1.61,8.59,3.37,19.22s3.13,19.26,3,19.28-1.61-8.59-3.37-19.22S158.19,135.93,158.29,135.91Z"/>
        <path class="cls-6" d="M158.22,148a6.29,6.29,0,0,1-.68.65,12.12,12.12,0,0,1-2.23,1.51,13.23,13.23,0,0,1-4,1.39,12,12,0,0,1-5.62-.33,7,7,0,0,1-2.82-1.72,5.29,5.29,0,0,1-1.54-3.23,4.19,4.19,0,0,1,1.45-3.51,3.41,3.41,0,0,1,1.9-.79,3.91,3.91,0,0,1,2.06.43,4.93,4.93,0,0,1,1.65,1.37,5.79,5.79,0,0,1,.94,2,9.7,9.7,0,0,1,0,4.45,15,15,0,0,1-4.58,8,13.81,13.81,0,0,1-4,2.57,10,10,0,0,1-4.55.78A7.78,7.78,0,0,1,132,160a5.94,5.94,0,0,1-2.22-3.64,5.52,5.52,0,0,1,.78-4,3.77,3.77,0,0,1,3.33-1.8,2.49,2.49,0,0,1,1.65.89,3.55,3.55,0,0,1,.74,1.63,5.83,5.83,0,0,1-.38,3.28,8.77,8.77,0,0,1-3.75,4.17,13.15,13.15,0,0,1-4,1.45,21.38,21.38,0,0,1-2.67.34l-.7,0h-.24a.92.92,0,0,1,.24,0l.69-.06a23.66,23.66,0,0,0,2.65-.4,13.15,13.15,0,0,0,3.94-1.49,8.61,8.61,0,0,0,3.61-4.09,5.64,5.64,0,0,0,.35-3.14,3.29,3.29,0,0,0-.7-1.5,2.16,2.16,0,0,0-1.46-.78,3.46,3.46,0,0,0-3,1.68,5.22,5.22,0,0,0-.72,3.75,5.55,5.55,0,0,0,2.11,3.42,7.31,7.31,0,0,0,4,1.53,11.36,11.36,0,0,0,8.28-3.26,14.75,14.75,0,0,0,4.49-7.85,9.61,9.61,0,0,0,0-4.3,5.37,5.37,0,0,0-.88-1.87,4.61,4.61,0,0,0-1.54-1.28,3.5,3.5,0,0,0-1.89-.4A2.94,2.94,0,0,0,143,143a3.89,3.89,0,0,0-1.36,3.25,5.08,5.08,0,0,0,1.44,3.06,6.67,6.67,0,0,0,2.71,1.67,11.62,11.62,0,0,0,5.51.37,13.37,13.37,0,0,0,6.24-2.76c.25-.18.42-.34.54-.44Z"/>
      </g>
      <g>
        <path class="cls-7" d="M199.54,106.34h-5.27c-1.69.6-15.36,12.22-15.36,12.22l7.73,12.14,10-5.86Z"/>
        <path class="cls-7" d="M194.27,106.34l11.63-4.41s1.7,3.56,6.88,2.8,11.28-4.41,11.28-4.41,8.91,5.09,11.55,7.21-2.13,46.59-2.13,46.59l-1.18,13.33s.93.68.93,3,.08,3.82.08,3.82H187.25s-1.12-5.35-.27-7.47a27.49,27.49,0,0,1,2.24-4.25L190,142l.25-18.34Z"/>
        <path class="cls-7" d="M235.61,107.53s3.71,1,4.81,6.56.91,26.56.91,26.56l-20.76-4.49s2.81-8.84,2.81-9.44,5.72-14.83,5.92-15.13S235.61,107.53,235.61,107.53Z"/>
        <path class="cls-5" d="M189.85,115c.1,0,.23,3.68.3,8.22s0,8.22-.06,8.22-.23-3.68-.29-8.22S189.75,115,189.85,115Z"/>
      </g>
      <path class="cls-5" d="M226,117a2.34,2.34,0,0,1-.08.73c-.07.47-.19,1.14-.35,2-.33,1.65-.83,3.93-1.49,6.42s-1.33,4.72-1.86,6.32c-.27.8-.49,1.45-.66,1.89a3.32,3.32,0,0,1-.29.67,2.37,2.37,0,0,1,.16-.71c.15-.53.33-1.17.55-1.92.47-1.62,1.11-3.85,1.77-6.34s1.19-4.74,1.58-6.38c.18-.76.33-1.41.46-1.94A3.23,3.23,0,0,1,226,117Z"/>
      <path class="cls-5" d="M224,116.53a24.48,24.48,0,0,1-.05,4.23,26.83,26.83,0,0,1-.39,4.22,24.61,24.61,0,0,1,0-4.24A26.6,26.6,0,0,1,224,116.53Z"/>
      <path class="cls-6" d="M218.86,123.48a30.06,30.06,0,0,1-4.46.17,29.86,29.86,0,0,1-4.45-.17,27.56,27.56,0,0,1,4.45-.18A27.74,27.74,0,0,1,218.86,123.48Z"/>
      <g>
        <path class="cls-9" d="M195.07,153.69l23-2.76,3.62-14.54,12.85,2.79s-5.08,20.18-10.32,22.13S193,160,193,160Z"/>
        <path class="cls-9" d="M194.14,153.53a27.28,27.28,0,0,0-3.83-1.3c-1.06-.15-2.32.08-2.64.59l-6.19,3.6s-4.58-.44-5,.59c0,0-2.92-.83-3.39-.24,0,0-1.46.47-1.23,1.15s5.53,2.52,5.53,2.52l7.26.75a17.71,17.71,0,0,1,3.91-1.62,20.62,20.62,0,0,1,3.29.26c-.09,0,4.24.49,4.24.49a6.82,6.82,0,0,0,1.24-3.55c.35-2.6,0-3.16,0-3.16Z"/>
        <path class="cls-10" d="M191.07,156.84s-.2,0-.45-.17-.48-.62-.88-.89a2.36,2.36,0,0,0-.8-.24,1.89,1.89,0,0,1-1-.44,1.77,1.77,0,0,1-.53-1.09,1.53,1.53,0,0,1,.39-1.24,2.51,2.51,0,0,1,2.31-.64,4,4,0,0,1,1.73.89,7,7,0,0,1,.91.91c.2.23.3.37.28.38s-.5-.45-1.34-1.1a4.07,4.07,0,0,0-1.65-.76,2.23,2.23,0,0,0-2,.55,1.41,1.41,0,0,0,.12,1.87c.44.46,1.2.33,1.7.7a7.07,7.07,0,0,1,.83,1C190.91,156.78,191.08,156.81,191.07,156.84Z"/>
        <path class="cls-10" d="M187.24,155.64c0,.06-.35,0-.84.26a13.11,13.11,0,0,1-2,.94,5.65,5.65,0,0,1-2.21-.17,8,8,0,0,1-.88-.13,1.47,1.47,0,0,1,.91-.12,7.46,7.46,0,0,0,2.1.08c.77-.2,1.42-.68,2-.83A1.23,1.23,0,0,1,187.24,155.64Z"/>
        <path class="cls-10" d="M187.39,158.53s-.13.13-.42.28a6.33,6.33,0,0,1-1.27.48,12.19,12.19,0,0,1-4.46.26c-.87-.11-1.69-.24-2.43-.35a7.72,7.72,0,0,1-2-.44,1.28,1.28,0,0,1-.6-.57,1,1,0,0,1-.08-.62c.07-.35.29-.43.29-.41s-.14.13-.16.43a1,1,0,0,0,.65.94,8.82,8.82,0,0,0,1.92.35l2.42.32a13.76,13.76,0,0,0,4.37-.15C186.74,158.81,187.36,158.48,187.39,158.53Z"/>
        <path class="cls-10" d="M221.85,156.81a25,25,0,0,0-1.49-2.87,24.86,24.86,0,0,0-2.11-2.45,7.46,7.46,0,0,1,3.6,5.32Z"/>
      </g>
    </g>
  </g>
  <g>
    <g>
      <polygon class="cls-9" points="50.59 236.18 49.71 281.04 60.57 282.21 68.04 236.53 62.17 229.15 50.59 236.18"/>
      <g>
        <path class="cls-8" d="M61.91,280v.73s12.36,5.13,12.47,7.49l-24.66-.41v-8.21A15.24,15.24,0,0,0,61.91,280Z"/>
        <path class="cls-5" d="M49.71,287.8l.11-2L73.42,287s1.09.49,1,1.26Z"/>
      </g>
    </g>
    <g>
      <g>
        <path class="cls-5" d="M46.09,99.09a5.4,5.4,0,0,0-3.39-4.78l-2.28,1.3a5.5,5.5,0,0,0-2.74,6.66,6.49,6.49,0,0,0-2.08,8.9c-1.47.68-2.1,2.48-2.08,4.11s.55,3.21.7,4.83c.11,1.25,0,2.52.23,3.75a3.81,3.81,0,0,0,2.06,3,3.33,3.33,0,0,0,3.58-1,6.87,6.87,0,0,0,1.51-3.6c.61-3.75-.19-7.68.76-11.36a37.7,37.7,0,0,1,2.37-5.74A12.34,12.34,0,0,0,46.09,99.09Z"/>
        <g>
          <path class="cls-5" d="M45,98.83a7.25,7.25,0,0,1-6.06-11.16,1.92,1.92,0,0,1,.83-.79c.76-.31,1.56.32,2.15.89l4.25,4.14"/>
          <path class="cls-5" d="M45.12,93.52c-3.19-1.51-5.7-5.09-6.63-8.5s.14-10.31,1.06-13.72c1.12-4.15,2.84,1.19,4.25,1.62a2.78,2.78,0,0,1,1.69,1.9,8.23,8.23,0,0,1,.19,2.62q-.28,8-.56,16.08"/>
          <path class="cls-5" d="M53.29,59.66c5.34-2.87,9.62-1.18,11.7.45a13,13,0,0,1,4.11,6.64c.76,2.54,1.1,5.18,1.72,7.75a31.23,31.23,0,0,1,.82,4.5c.31,2.2.21,6.13-.92,8a13.1,13.1,0,0,1-4,4.66,2.65,2.65,0,0,1-2.13.63,2.61,2.61,0,0,1-1.22-1.11,103.06,103.06,0,0,1-13.49-27"/>
          <g>
            <path class="cls-9" d="M47.34,65.82l9.25-3.72,2.42.27c5.45,0,9.24,6,9.29,10.39.06,4.9,0,10.89-.81,14.51-1.53,7.27-7.2,7.92-7.2,7.92s.07,2,.12,4.42a7.69,7.69,0,0,1-7.85,7.88h0A7.7,7.7,0,0,1,45,99.82l-.12-31.5A2.59,2.59,0,0,1,47.34,65.82Z"/>
            <g>
              <path class="cls-5" d="M65.94,77.61a.94.94,0,0,1-1,.91.9.9,0,0,1-.93-.9.94.94,0,0,1,1-.9A.9.9,0,0,1,65.94,77.61Z"/>
              <path class="cls-5" d="M66.37,75.26c-.12.12-.81-.44-1.82-.49s-1.78.42-1.88.29.08-.27.41-.49a2.62,2.62,0,0,1,1.52-.39,2.55,2.55,0,0,1,1.44.55C66.34,75,66.43,75.21,66.37,75.26Z"/>
              <path class="cls-5" d="M60.19,83.18A6.76,6.76,0,0,1,61.85,83c.26,0,.51,0,.56-.23a1.32,1.32,0,0,0-.14-.77l-.66-2a34.56,34.56,0,0,1-1.46-5.23A32.9,32.9,0,0,1,62,79.83l.63,2a1.52,1.52,0,0,1,.08,1,.61.61,0,0,1-.44.35,1.41,1.41,0,0,1-.44,0A6.2,6.2,0,0,1,60.19,83.18Z"/>
              <path class="cls-10" d="M60.29,95.19a18.7,18.7,0,0,1-9.69-3.11S53,97.29,60.34,97Z"/>
              <path class="cls-10" d="M59.55,85.37a1.88,1.88,0,0,0-1.63-.86,1.45,1.45,0,0,0-1.19.57,1.28,1.28,0,0,0-.08,1.37A1.33,1.33,0,0,0,58,87a3.23,3.23,0,0,0,1.33-.73,1,1,0,0,0,.3-.31A.81.81,0,0,0,59.55,85.37Z"/>
              <path class="cls-5" d="M57.18,83.73c.16,0,.11,1.1,1,1.93s2.08.76,2.08.91-.27.2-.77.19a2.71,2.71,0,0,1-1.73-.7A2.37,2.37,0,0,1,57,84.45C57,84,57.1,83.72,57.18,83.73Z"/>
              <path class="cls-5" d="M66.22,72.44c-.19.22-.87-.06-1.71-.11s-1.55.08-1.7-.17,0-.35.37-.55a2.46,2.46,0,0,1,1.42-.31,2.4,2.4,0,0,1,1.34.54C66.22,72.09,66.31,72.33,66.22,72.44Z"/>
              <path class="cls-5" d="M54.76,77.56a1,1,0,0,0,.9,1,.9.9,0,0,0,1-.84.94.94,0,0,0-.89-1A.91.91,0,0,0,54.76,77.56Z"/>
              <path class="cls-5" d="M52.87,75.15c.11.12.83-.4,1.85-.38s1.75.53,1.86.41-.06-.28-.38-.52a2.56,2.56,0,0,0-1.49-.48,2.44,2.44,0,0,0-1.47.45C52.92,74.87,52.81,75.09,52.87,75.15Z"/>
              <path class="cls-5" d="M53.31,71.93c.18.24.88,0,1.72,0s1.54.17,1.71-.07,0-.35-.34-.57a2.52,2.52,0,0,0-2.77,0C53.33,71.59,53.23,71.82,53.31,71.93Z"/>
            </g>
            <path class="cls-5" d="M55.52,61.32a9,9,0,0,0-7.93.9,10.38,10.38,0,0,0-3.73,6.4c-.46,2.48.16,6.16.81,8.6,3.8-4.88,7.7-10.52,11.36-15.5Z"/>
            <path class="cls-5" d="M57.32,59.1C70.16,57.29,69,76.72,69,76.72h0c-1.29-7.16-11.25-14.65-11.25-14.65l-2-.34Z"/>
            <g>
              <path class="cls-9" d="M45.7,80.71c0-.55-.54-1.87-1.08-2-1.42-.29-4-.31-4.23,3.35-.29,5,4.79,4.25,4.81,4.1S45.61,82.59,45.7,80.71Z"/>
              <path class="cls-10" d="M44.44,84.21s-.09.05-.24.11a.86.86,0,0,1-.65,0,2.18,2.18,0,0,1-.89-2A2.94,2.94,0,0,1,43,81.08a1,1,0,0,1,.69-.64.45.45,0,0,1,.5.27c.06.15,0,.24,0,.25s.11-.07.08-.28a.58.58,0,0,0-.18-.33.67.67,0,0,0-.47-.15,1.22,1.22,0,0,0-1,.72,3.08,3.08,0,0,0-.38,1.38,2.27,2.27,0,0,0,1.15,2.23.92.92,0,0,0,.8-.09C44.43,84.33,44.46,84.22,44.44,84.21Z"/>
            </g>
          </g>
          <path class="cls-5" d="M39.83,68.76a18,18,0,0,1,6.87-8.33,12.15,12.15,0,0,1,5.36-2.27A6.14,6.14,0,0,1,57.42,60l.36.37c-2.21,4.89-3.77,9-6.61,13.6-1,1.67-1.5,7.38-1.75,9.33-.86,6.69-4.52,9.55-4.52,9.55C37,92.82,38.55,72.18,39.83,68.76Z"/>
        </g>
        <path class="cls-7" d="M43.7,92a2.2,2.2,0,0,1-1-.32,6.48,6.48,0,0,1-2-1.5,6.75,6.75,0,0,1-1.31-2.12,2.23,2.23,0,0,1-.22-1A12.67,12.67,0,0,0,41,90,12.36,12.36,0,0,0,43.7,92Z"/>
        <path class="cls-7" d="M42.75,98.53a3,3,0,0,1-2.07-.76A3.07,3.07,0,0,1,39.37,96a19.14,19.14,0,0,0,1.52,1.49A18.56,18.56,0,0,0,42.75,98.53Z"/>
        <path class="cls-7" d="M39.41,104.67c-.08.06-.53-.45-1-1.13s-.82-1.27-.74-1.33.54.45,1,1.13S39.49,104.61,39.41,104.67Z"/>
        <path class="cls-7" d="M36.84,112.23c-.08.07-.43-.22-.79-.63s-.6-.8-.53-.87.43.22.79.64S36.91,112.17,36.84,112.23Z"/>
      </g>
      <path class="cls-7" d="M38.36,80.07a6.55,6.55,0,0,1,1-.55c.31-.17.69-.37,1.11-.64s.92-.53,1.44-.89a34.64,34.64,0,0,0,7.32-6.46,36.56,36.56,0,0,0,3.16-4.36,33.4,33.4,0,0,0,2-3.9c.27-.57.46-1.1.65-1.56s.34-.87.45-1.2a5,5,0,0,1,.4-1,6.71,6.71,0,0,1-.27,1.06,11.77,11.77,0,0,1-.39,1.22c-.18.48-.35,1-.61,1.6a32.75,32.75,0,0,1-2,4,35.34,35.34,0,0,1-3.17,4.43,36.55,36.55,0,0,1-3.86,3.83,30.11,30.11,0,0,1-3.6,2.6c-.53.36-1,.62-1.47.86s-.83.44-1.15.59A6.49,6.49,0,0,1,38.36,80.07Z"/>
      <path class="cls-7" d="M50.72,74.08s-.11.19-.36.48-.64.69-1.14,1.17A25.15,25.15,0,0,1,44.91,79,24.24,24.24,0,0,1,40,81.17c-.65.21-1.19.36-1.57.44a2.18,2.18,0,0,1-.59.09,21.1,21.1,0,0,1,2.08-.76,29.07,29.07,0,0,0,9.14-5.4C50.09,74.65,50.68,74,50.72,74.08Z"/>
      <path class="cls-7" d="M69.37,80.46a9.1,9.1,0,0,1,.21-1.09,18.45,18.45,0,0,0,.33-3,17.42,17.42,0,0,0-9.53-16.22A18.31,18.31,0,0,0,57.6,59a7.68,7.68,0,0,1-1.06-.36.92.92,0,0,1,.29,0,7.66,7.66,0,0,1,.81.19,15.35,15.35,0,0,1,2.85,1.08,17.18,17.18,0,0,1,9.67,16.45,16.43,16.43,0,0,1-.45,3c-.08.35-.18.61-.23.79S69.38,80.47,69.37,80.46Z"/>
    </g>
    <g>
      <path class="cls-10" d="M128.93,125.9a1.61,1.61,0,0,0-.22,1.56,2.49,2.49,0,0,0,1,1,9,9,0,0,0,1.65-2.36"/>
      <path class="cls-10" d="M126,125.05a1.61,1.61,0,0,0-.6,1.45,2.59,2.59,0,0,0,.71,1.24,9,9,0,0,0,2.19-1.88"/>
      <path class="cls-9" d="M59.73,102.88s22.11,17.4,26.09,18,22.64-1.69,30.29-1.93l1.08,6.42s-21.13,7.17-28.81,7.46S76.29,131,76.29,131L61.93,116.3Z"/>
      <path class="cls-9" d="M115.62,119s9.87-1.41,11.4-.64a57.52,57.52,0,0,1,6,4.49s1.46,4.13.54,4.33-1.88-1.34-1.88-1.34l-1.25-2.3-5.51-1.34-9.15.8Z"/>
      <path class="cls-9" d="M117.19,125.34c.14.17,3.67,1.88,5.46,1.83s3.85-1.45,5.39-1.24,4.75.46,5.14-.09a1.21,1.21,0,0,0,0-1.69c-.52-.5-3.11-1-5-1.49a7.62,7.62,0,0,1-2.77-1.28l-10.87,1.2-.61,3.39Z"/>
      <path class="cls-10" d="M121.89,121.27a1.83,1.83,0,0,1,.57,0,9,9,0,0,1,1.54.18,44.42,44.42,0,0,1,4.85,1.54,15.55,15.55,0,0,0,2.69.64,2.21,2.21,0,0,1,1.2.46,1.27,1.27,0,0,1,.4,1.08,1.12,1.12,0,0,1-.45.82,1.27,1.27,0,0,1-.65.25c-.39,0-.58-.12-.56-.13a2.25,2.25,0,0,0,.54,0,1,1,0,0,0,.88-1,1.07,1.07,0,0,0-.35-.84,2,2,0,0,0-1.06-.36,14.5,14.5,0,0,1-2.75-.62c-1.89-.64-3.54-1.34-4.79-1.63S121.89,121.34,121.89,121.27Z"/>
      <path class="cls-10" d="M129,123.32a4.57,4.57,0,0,1-2.75-2.17c.08-.07.62.5,1.37,1.09S129.05,123.22,129,123.32Z"/>
    </g>
    <g>
      <path class="cls-9" d="M40.69,234.7l-20,8.92,2.41,10.7s25.2-7.51,33.46-9.18,21.6-3.79,25.37-11.78Z"/>
      <g>
        <path class="cls-8" d="M25,254.52l-.7.18s-1.6,13.14-3.82,13.86L14.31,245l7.83-2.18A15.08,15.08,0,0,0,25,254.52Z"/>
        <path class="cls-5" d="M14.31,245l1.91-.41,5.19,22.76s-.18,1.17-.95,1.24Z"/>
      </g>
      <path class="cls-10" d="M81.79,233.66a3.28,3.28,0,0,1-.22.57,6.4,6.4,0,0,1-1,1.43,22.4,22.4,0,0,1-4.94,3.94,23.24,23.24,0,0,1-4,1.86,44.81,44.81,0,0,1-4.83,1.35c-3.41.86-7.16,1.84-11.09,2.88L35.63,251l-6.12,1.56-1.67.4a2.38,2.38,0,0,1-.59.11,4.74,4.74,0,0,1,.57-.18l1.66-.46,6.09-1.67c5.14-1.4,12.25-3.34,20.12-5.42,3.93-1,7.68-2,11.1-2.85a42.89,42.89,0,0,0,4.82-1.32,23.28,23.28,0,0,0,8.9-5.61A7.5,7.5,0,0,0,81.79,233.66Z"/>
    </g>
    <g>
      <path class="cls-5" d="M50,147.74l.46,3.95s-6.94,13.11-6.94,20.15-3.2,63-3.2,63,37.63,2.14,41.61-1.53l4-3.68L99.33,226l-21-76.64v-4.1Z"/>
      <path class="cls-7" d="M75.71,166.73s0,.05,0,.15l.07.46c.06.43.15,1,.25,1.77.22,1.56.53,3.78.91,6.5.79,5.49,2,13.07,3.47,21.39s3.07,15.83,4.26,21.25c.6,2.68,1.09,4.86,1.43,6.41l.39,1.74.09.46c0,.1,0,.15,0,.16s0-.05,0-.15l-.13-.45L86,224.69c-.38-1.5-.91-3.69-1.54-6.39-1.25-5.4-2.86-12.9-4.37-21.24s-2.64-15.91-3.36-21.41c-.36-2.75-.63-5-.8-6.53-.08-.74-.14-1.34-.19-1.77l0-.47Q75.7,166.73,75.71,166.73Z"/>
      <path class="cls-7" d="M48.68,173.74a2.36,2.36,0,0,1,.16.44c.09.33.22.76.38,1.29l1.39,4.75c1.18,4,2.9,9.5,5,15.51s4.2,11.38,5.76,15.24l1.88,4.58c.2.51.37.93.5,1.24a1.66,1.66,0,0,1,.15.45,3.14,3.14,0,0,1-.21-.42c-.15-.31-.34-.71-.57-1.22-.49-1.06-1.16-2.61-2-4.53-1.63-3.85-3.76-9.21-5.87-15.23s-3.78-11.54-4.91-15.56c-.56-2-1-3.64-1.28-4.77-.13-.54-.24-1-.32-1.31A2.65,2.65,0,0,1,48.68,173.74Z"/>
      <path class="cls-7" d="M79.61,151.23a8.29,8.29,0,0,1-1.13.14c-.73.07-1.79.14-3.09.22-2.61.16-6.22.3-10.22.32s-7.6-.1-10.21-.24c-1.31-.06-2.37-.13-3.09-.19a7.34,7.34,0,0,1-1.13-.13,5.79,5.79,0,0,1,1.13,0l3.1.09c2.61.07,6.22.14,10.2.13s7.6-.12,10.21-.22l3.09-.11A8.34,8.34,0,0,1,79.61,151.23Z"/>
    </g>
    <g>
      <path class="cls-8" d="M60.34,100.07c-.19-.43,13.35,10.36,15,15.61s2,20.42,2,20.42l1,9.73-27,1.91-.72-1.91-2-5.42-2.78-8.19s-6.66-10.34-8-14.8c-1.65-5.53,1.08-11.2,1.08-11.2L45,99.33Z"/>
      <path class="cls-8" d="M45,99.82s-1.5-2.78-.57-4c.73-1,13.74.25,16.39.81,1.56.33,0,3.8,0,3.8Z"/>
      <g class="cls-13">
        <path d="M52.81,112.93c1.13,2.93-.47,12-.71,14.21a37,37,0,0,1-1.5,6.36,3.59,3.59,0,0,0,0,2.94c.89,1.38,3.17,1,4.28,2.19a10.65,10.65,0,0,1-6.65.77,1.8,1.8,0,0,1-1.06-.51,1.91,1.91,0,0,1-.32-.85,25.31,25.31,0,0,1-.31-9.69c.61-3.19,3.66-10.86,6.22-12.86"/>
      </g>
      <path class="cls-5" d="M53.29,117a8.91,8.91,0,0,1-1.3,3.12,8.55,8.55,0,0,1-2.15,2.61c-.07-.07.9-1.21,1.85-2.79S53.19,116.91,53.29,117Z"/>
      <path class="cls-5" d="M60.84,100.11s-.21.09-.62.17-1,.2-1.72.29a31.91,31.91,0,0,1-5.74.23,33,33,0,0,1-5.7-.8c-.72-.17-1.29-.33-1.68-.46a2.62,2.62,0,0,1-.6-.23,23.52,23.52,0,0,1,2.33.45,40.83,40.83,0,0,0,5.66.69,42.07,42.07,0,0,0,5.71-.12C59.93,100.2,60.83,100.06,60.84,100.11Z"/>
      <path class="cls-5" d="M70.36,126.23c-.06,0,.18-.74.36-1.94a15.08,15.08,0,0,0-.07-4.72,14.66,14.66,0,0,0-1.56-4.46c-.58-1.07-1.06-1.66-1-1.7s.15.12.38.38a8.66,8.66,0,0,1,.84,1.2A13.18,13.18,0,0,1,71,124.33a9.24,9.24,0,0,1-.38,1.41A1.54,1.54,0,0,1,70.36,126.23Z"/>
      <g class="cls-13">
        <path d="M52.45,100.57a45.8,45.8,0,0,1-6.7-.95,17.76,17.76,0,0,0,10.34,2.07,5.43,5.43,0,0,0,3.53-1.52C57.63,101,54.58,100.76,52.45,100.57Z"/>
      </g>
      <g class="cls-13">
        <path d="M67.7,129.33a11.9,11.9,0,0,0,3.16-9.66,13.35,13.35,0,0,1,.5,3.51,6,6,0,0,1-1,3.88,4.8,4.8,0,0,1-2.71,2.27"/>
      </g>
    </g>
    <g>
      <path class="cls-9" d="M48.87,107a6.71,6.71,0,0,0-9.59.9c-.1.12-.19.25-.28.38-1.4,2.11-5.27,34.87-3.73,38.8s3.78,3.64,3.78,3.64,10.14-.11,17.43-1.79S71.9,144.5,71.9,144.5l-1.35-7.93s-17.85,2.36-22.76,1.8h0l1.88-16s4.26-5.2,3-10A11,11,0,0,0,48.87,107Z"/>
      <g>
        <path class="cls-9" d="M76.18,131.69l4-2.69,2.89-2.43a3.3,3.3,0,0,1-.54,2.56c-.9,1.36-2.41,3.39-2.41,3.39Z"/>
        <path class="cls-10" d="M82.16,130.07s.22-.31.5-.89a3.85,3.85,0,0,0,.26-2.57l.24.07-2.86,2.45h0l-.21.15L77.54,131a22.26,22.26,0,0,1-2.11,1.3,15.83,15.83,0,0,1-2,1.06,12.5,12.5,0,0,1,1.9-1.27c.61-.35,1.3-.83,2.06-1.36l2.51-1.7.22-.15h0l2.9-2.41.19-.16,0,.23a3.88,3.88,0,0,1-.39,2.74,3.21,3.21,0,0,1-.46.63C82.24,130,82.17,130.08,82.16,130.07Z"/>
      </g>
      <path class="cls-5" d="M74.73,138.46c.14-.27,10.67-12,13.27-14.91a1.12,1.12,0,0,1,1.34-.25h0a1.12,1.12,0,0,1,.33,1.75l-13.49,15Z"/>
      <g>
        <path class="cls-9" d="M86,133.32c.43-.58-.22-1.73-.81-2s-3,1-3,1l-.87.08s-4.62-.94-4.78-.87a15.55,15.55,0,0,0-3.34,2A6,6,0,0,0,72,134.94a5.05,5.05,0,0,1-3.24,1.91l2,8s4.3-1,4.63-1,3.93-.29,4.4-.37a11.92,11.92,0,0,0,4.06-1.86c1.54-1.15.82-2.12.82-2.12,1.6-1.09.36-2.16.36-2.16l.44-.77a1.38,1.38,0,0,0-.67-1.89A11.28,11.28,0,0,0,86,133.32Z"/>
        <path class="cls-10" d="M82.75,135.8c0-.09.48-.32,1-.67s1-.7,1.07-.64-.29.54-.9.91S82.77,135.88,82.75,135.8Z"/>
        <path class="cls-10" d="M84.1,138c-.06-.07.11-.3.37-.51s.51-.33.57-.26-.11.29-.37.51S84.16,138,84.1,138Z"/>
        <path class="cls-10" d="M83.62,139.74c0-.1.26-.19.58-.31s.58-.23.63-.15-.16.31-.52.45S83.63,139.82,83.62,139.74Z"/>
      </g>
      <path class="cls-10" d="M82.16,132.28a9,9,0,0,1-2.44.34,15.32,15.32,0,0,1-2.45.13,6.29,6.29,0,0,1,2.42-.48A8.71,8.71,0,0,1,82.16,132.28Z"/>
      <path class="cls-10" d="M48,138.23a12.72,12.72,0,0,1-1.79,2.3,12.27,12.27,0,0,1-2.06,2.07,12,12,0,0,1,1.8-2.31A12.09,12.09,0,0,1,48,138.23Z"/>
      <path class="cls-5" d="M52.55,116.56s.05-.36.11-1a8.33,8.33,0,0,0-.13-2.69,9.85,9.85,0,0,0-5.48-6.61,6.37,6.37,0,0,0-4.73-.31,5.29,5.29,0,0,0-3.07,2.35,8.75,8.75,0,0,0-1,2.52,7.36,7.36,0,0,1-.24,1,.86.86,0,0,1,0-.26c0-.17,0-.42.1-.74a8.4,8.4,0,0,1,.88-2.62,5.29,5.29,0,0,1,1.24-1.48,6.08,6.08,0,0,1,1.95-1,6.7,6.7,0,0,1,5,.29,10,10,0,0,1,5.59,6.89,8.19,8.19,0,0,1,0,2.76,5.31,5.31,0,0,1-.16.73A.9.9,0,0,1,52.55,116.56Z"/>
    </g>
  </g>
  <g>
    <g>
      <path class="cls-3" d="M102.41,84.8H74.85a2,2,0,0,0-2,2v26.71a2.05,2.05,0,0,0,2,2H85l4,5.62,3.44-5.62h10a2.05,2.05,0,0,0,2-2V86.84A2,2,0,0,0,102.41,84.8Z"/>
      <path class="cls-5" d="M102.41,84.8a1.64,1.64,0,0,1,.81.13,2.09,2.09,0,0,1,.81.6,2.14,2.14,0,0,1,.48,1.29c0,2.1,0,5.12,0,8.93s0,8.43,0,13.65v4a2.2,2.2,0,0,1-.95,1.92,2,2,0,0,1-1.07.38c-.38,0-.72,0-1.09,0H92.4l.14-.07L89.1,121.3l-.13.23-.15-.22-4-5.61.14.07H77.88c-1.11,0-2.17,0-3.3,0a2.23,2.23,0,0,1-1.49-.85,2.39,2.39,0,0,1-.46-1.63V107c0-4.14,0-8.15,0-12,0-1.91,0-3.76,0-5.57,0-.91,0-1.8,0-2.68a2.17,2.17,0,0,1,1.62-2,5.21,5.21,0,0,1,1.29-.08h8.17l13.66.06,3.71,0,1,0a2.06,2.06,0,0,1,.33,0h-.33l-1,0-3.71,0-13.66.06H75.57a4.89,4.89,0,0,0-1.22.07A1.92,1.92,0,0,0,73,86.76v2.66c0,1.81,0,3.66,0,5.57,0,3.81,0,7.82,0,12v6.33a2,2,0,0,0,.4,1.41,1.85,1.85,0,0,0,1.25.72c1,0,2.17,0,3.26,0h7.21l0,.07,4,5.62h-.29l3.45-5.62,0-.08h9.18c.36,0,.73,0,1.07,0a1.8,1.8,0,0,0,.92-.33,1.92,1.92,0,0,0,.83-1.67v-4c0-5.22,0-9.83,0-13.65s0-6.83.05-8.92a2.11,2.11,0,0,0-.43-1.25,2.16,2.16,0,0,0-.78-.6A2.58,2.58,0,0,0,102.41,84.8Z"/>
    </g>
    <g>
      <g>
        <g>
          <path class="cls-5" d="M93.24,104.28h-.73l-2,0-6.73,0h0v0c0-.36-.1-.73-.16-1.12-.45-3.26-.85-6.17-1.12-8.07l0,0H80.22c-.11,0-.17,0-.17,0h.64l1.79,0h0v0c.28,1.9.7,4.81,1.17,8.07,0,.38.1.76.15,1.11l-.06,0h9.27C93.18,104.27,93.24,104.27,93.24,104.28Z"/>
          <path class="cls-5" d="M83.71,104.47a.11.11,0,0,1-.1-.1l-1.27-9.11-2.13,0c-.19,0-.27,0-.28-.13s.1-.13.28-.14h.48l1.83,0a.12.12,0,0,1,.12.1l1.3,9.07,9.12,0c.22,0,.3,0,.3.13h0c0,.12-.08.12-.3.13h-.54l-2,0-6.78,0Z"/>
        </g>
        <g>
          <path class="cls-5" d="M83.51,102.33h.72l2,0,7,0-.06,0c.21-1.18.43-2.45.66-3.77l.34-2,.07.07H83.58l2.44,0,8.23,0h.07v.07l-.35,2c-.23,1.31-.45,2.58-.66,3.76v0h-.05l-7,0H83.51Z"/>
          <path class="cls-5" d="M83.51,102.45a.12.12,0,0,1-.13-.12c0-.12.13-.12.17-.13h.68l2,0,6.83,0L94,96.76l-11.28,0c-.06,0-.18,0-.18-.13s.12-.12.18-.12l.83,0,4.15,0,6.59,0a.11.11,0,0,1,.09,0,.1.1,0,0,1,0,.1l-1,5.86a.12.12,0,0,1-.12.1l-9.74,0Z"/>
        </g>
        <g>
          <path class="cls-5" d="M86.15,106.85s0-.08-.05-.22a.91.91,0,0,0-1.78.23.9.9,0,0,0,.58.83.93.93,0,0,0,1.2-.61c0-.14,0-.23.05-.23a.51.51,0,0,1,0,.24,1,1,0,0,1-.34.55,1,1,0,0,1-1,.16,1,1,0,0,1-.66-.94,1,1,0,0,1,.66-1,1,1,0,0,1,.94.16.84.84,0,0,1,.34.55C86.17,106.77,86.16,106.86,86.15,106.85Z"/>
          <path class="cls-5" d="M85,108l-.22-.06a1.13,1.13,0,0,1-.75-1,1.14,1.14,0,0,1,.75-1.06,1.09,1.09,0,0,1,1.06.17,1.08,1.08,0,0,1,.38.62.72.72,0,0,1,0,.26,1,1,0,0,1,0,.26,1.15,1.15,0,0,1-.39.63A1.1,1.1,0,0,1,85,108Zm.28-1.88a.89.89,0,0,0-.38,0,.78.78,0,0,0-.5.72.78.78,0,0,0,1.24.61A.84.84,0,0,0,86,107l0-.16v0l0-.17a.87.87,0,0,0-.3-.42A.85.85,0,0,0,85.32,106.09Z"/>
        </g>
        <g>
          <path class="cls-5" d="M92.24,106.85s0-.09,0-.23a1,1,0,0,0-.35-.49.9.9,0,0,0-1.43.72.9.9,0,0,0,.58.83.89.89,0,0,0,.85-.12.92.92,0,0,0,.35-.49c0-.14,0-.22,0-.22s0,.08,0,.23a.84.84,0,0,1-.34.55,1,1,0,0,1-.94.16,1,1,0,0,1,0-1.89,1,1,0,0,1,.94.16.91.91,0,0,1,.34.55A.45.45,0,0,1,92.24,106.85Z"/>
          <path class="cls-5" d="M91.13,108l-.22,0a1.15,1.15,0,0,1-.75-1.06A1.12,1.12,0,0,1,92,106a1.06,1.06,0,0,1,.38.63,1,1,0,0,1,0,.26.94.94,0,0,1,0,.25,1.06,1.06,0,0,1-.38.63A1.1,1.1,0,0,1,91.13,108Zm.28-1.87a.74.74,0,0,0-.38,0,.78.78,0,0,0-.5.72.79.79,0,0,0,.5.72.82.82,0,0,0,.74-.1.93.93,0,0,0,.3-.43c0-.07,0-.13,0-.17v-.05s0-.09,0-.16a.84.84,0,0,0-.3-.43A.74.74,0,0,0,91.41,106.09Z"/>
        </g>
      </g>
      <path class="cls-8" d="M97.71,97.55a3.17,3.17,0,1,1-3.17-3.17A3.17,3.17,0,0,1,97.71,97.55Z"/>
      <polygon class="cls-6" points="92.72 97.62 93.2 97.15 94.11 97.96 95.91 96.23 96.35 96.71 94.05 98.88 92.72 97.62"/>
    </g>
  </g>
</svg>
