<svg id="Capa_1" data-name="Capa 1" xmlns="http://www.w3.org/2000/svg" width="140" height="140" viewBox="0 0 140 140">
  <defs>
    <style>
      .cls-1 {
        fill: #2f237d;
        stroke: #d8d5ed;
        stroke-miterlimit: 10;
        stroke-width: 5px;
      }

      .cls-2 {
        fill: #ef6c00;
      }

      .cls-3 {
        fill: #b35100;
      }

      .cls-4 {
        fill: #fcad6d;
      }

      .cls-5 {
        fill: #fd995b;
      }

      .cls-6 {
        fill: #ff7186;
      }

      .cls-7 {
        fill: #a05838;
      }

      .cls-8 {
        fill: #f9ba8f;
      }

      .cls-9 {
        fill: #e9efff;
      }

      .cls-10 {
        fill: #bec8f7;
      }

      .cls-11 {
        fill: #ffdd40;
      }

      .cls-12 {
        fill: #ffb332;
      }

      .cls-13 {
        fill: #a3b3ef;
      }

      .cls-14 {
        fill: #783600;
      }

      .cls-15 {
        fill: #f28933;
      }

      .cls-16 {
        fill: #49d88b;
      }

      .cls-17 {
        fill: #38c674;
      }

      .cls-18 {
        fill: #24b55e;
      }

      .cls-19 {
        fill: #73c3f9;
      }

      .cls-20 {
        fill: #4fabf7;
      }

      .cls-21 {
        fill: #2e8be6;
      }

      .cls-22 {
        fill: #ff9100;
      }

      .cls-23 {
        fill: #823c26;
      }

      .cls-24 {
        fill: #b76c4e;
      }
    </style>
  </defs>
  <circle class="cls-1" cx="70" cy="70" r="60"/>
  <g>
    <path class="cls-2" d="M40.62,103.52v10.81h59.67V103.52a16.6,16.6,0,0,1,4.25-11.1l7.46-8.3a15.63,15.63,0,0,0-5.85-3.27l-16.6-6.31C86.86,80.06,79.33,84,70.45,84s-16.41-4-19.1-9.5L34.76,80.85a15.55,15.55,0,0,0-5.85,3.27l7.45,8.3a16.61,16.61,0,0,1,4.26,11.1Z"/>
    <path class="cls-3" d="M38.42,95.28c5.65-4.16,16.46-8.58,19.74-9.88a2.38,2.38,0,0,0,1.33-1.31,16.07,16.07,0,0,1,.93-1.9c-4.22-1.69-7.49-4.4-9.07-7.65L34.76,80.85a15.55,15.55,0,0,0-5.85,3.27l7.45,8.3A16,16,0,0,1,38.42,95.28Z"/>
    <path class="cls-4" d="M70.45,84c8.88,0,16.41-4,19.1-9.5a47.24,47.24,0,0,0-5-1.44c-2.19-2.19-2.74-6.33-2.84-9.23a24.33,24.33,0,0,1-3.48,3.33,12.77,12.77,0,0,1-15.63,0,24.33,24.33,0,0,1-3.48-3.33c-.1,2.9-.66,7-2.84,9.23a46.73,46.73,0,0,0-5,1.44C54,80.06,61.57,84,70.45,84Z"/>
    <path class="cls-5" d="M62.64,67.2a24.33,24.33,0,0,1-3.48-3.33c-.1,2.9-.66,7-2.84,9.23a46.73,46.73,0,0,0-5,1.44c1.58,3.25,4.85,6,9.07,7.65,1.88-3.24,4-3.65,5.26-3.54a2.38,2.38,0,0,0,2.08-.9,14.47,14.47,0,0,0,2.67-7.88,12.69,12.69,0,0,1-7.79-2.67Z"/>
    <path class="cls-6" d="M72.12,98.23H68.79a2.43,2.43,0,0,1-2.43-2.43V82.94h8.18V95.8a2.42,2.42,0,0,1-2.42,2.43Z"/>
    <path class="cls-7" d="M50.09,35.87c.23,1.73.5,2.9.5,2.9a4.78,4.78,0,0,1,1.68.51,9.09,9.09,0,0,1,.37-1.54,5.61,5.61,0,0,1-2.55-1.87Z"/>
    <path class="cls-7" d="M87.89,37.94a10.44,10.44,0,0,1,.32,1.34,4,4,0,0,1,2.12-.49c0-.81.07-1.64.11-2.41a5.7,5.7,0,0,1-2.55,1.56Z"/>
    <path class="cls-4" d="M91.83,38.9c-.89-.81-2.65-.4-3.41.1a10.39,10.39,0,0,1,0,3.15l-.89,6.54c0,.52,0,1,0,1.55,2.19.66,3.28-1.31,3.46-2.66a10.08,10.08,0,0,1,.39-1.71c.58-1.82,2.68-4.94.47-7Z"/>
    <path class="cls-5" d="M90.11,44.66a3.43,3.43,0,0,1-1.92-.59l-.63,4.62c0,.52,0,1,0,1.55,2.19.66,3.28-1.31,3.46-2.66a10.08,10.08,0,0,1,.39-1.71c.17-.53.47-1.17.75-1.86A3.44,3.44,0,0,1,90.11,44.66Z"/>
    <path class="cls-4" d="M49.08,38.9c.88-.81,2.64-.4,3.4.1a11.08,11.08,0,0,0,0,3.15l.9,6.54c0,.52,0,1,0,1.55-2.19.66-3.28-1.31-3.46-2.66a10.08,10.08,0,0,0-.39-1.71C49,44.05,46.86,40.93,49.08,38.9Z"/>
    <path class="cls-5" d="M52.71,44.07a3.38,3.38,0,0,1-1.92.59,3.43,3.43,0,0,1-2-.65c.28.69.58,1.33.75,1.86a10.08,10.08,0,0,1,.39,1.71c.18,1.35,1.27,3.32,3.46,2.66,0-.51,0-1,0-1.55Z"/>
    <path class="cls-8" d="M81.34,36.76c-12.51-3.92-21.46,0-25.62.89a5.6,5.6,0,0,1-3.16-.22,11,11,0,0,0-.39,4.75l.9,6.51A24.34,24.34,0,0,0,62.47,68a13,13,0,0,0,16,0,24.35,24.35,0,0,0,9.4-19.3l.89-6.54a10.79,10.79,0,0,0-.37-4.68C86.56,38.2,84.89,37.87,81.34,36.76Z"/>
    <path class="cls-4" d="M74.9,67.83a26.63,26.63,0,0,1-9.4-20.67l-.89-7a12.46,12.46,0,0,1,.29-4.73c-4.07.62-7.18,1.74-9.18,2.18a5.6,5.6,0,0,1-3.16-.22,11,11,0,0,0-.39,4.75l.9,6.51A24.34,24.34,0,0,0,62.47,68a13,13,0,0,0,14.3,1.1,12,12,0,0,1-1.87-1.29Z"/>
    <path class="cls-9" d="M66.76,78.9c-5.81-2.48-8.36-5.56-9.48-7.65l-3.1,9.57a34.22,34.22,0,0,0,9,6.61,2.82,2.82,0,0,0,3.8-1.2l1.44-2.77a3.31,3.31,0,0,0-1.61-4.56Z"/>
    <path class="cls-10" d="M57.28,71.25l-3.1,9.57A32.63,32.63,0,0,0,59,84.9a2.35,2.35,0,0,0,.54-.81c2.06-5,4.72-5.57,6.19-5.44a3.65,3.65,0,0,0,.47,0C60.77,76.2,58.36,73.27,57.28,71.25Z"/>
    <path class="cls-9" d="M83.63,71.25c-1.12,2.09-3.68,5.17-9.48,7.65a3.3,3.3,0,0,0-1.61,4.56L74,86.23a2.81,2.81,0,0,0,3.79,1.2,34.06,34.06,0,0,0,9-6.61Z"/>
    <path class="cls-9" d="M111.68,83.84,104,92.42a16.61,16.61,0,0,0-4.26,11.1V120A58.12,58.12,0,0,0,119,101.58C118.66,96.13,117.11,88.42,111.68,83.84Z"/>
    <path class="cls-10" d="M100.59,98.23a16.57,16.57,0,0,0-.87,5.29V120a57.46,57.46,0,0,0,8-5.65c-1.22-11.8-7.08-16.13-7.11-16.15Z"/>
    <path class="cls-9" d="M29.23,83.84c-5.43,4.58-7,12.29-7.35,17.74A58.21,58.21,0,0,0,41.18,120V103.52a16.6,16.6,0,0,0-4.25-11.1Z"/>
    <path class="cls-10" d="M36.93,92.42l-7.7-8.58c-5.43,4.58-7,12.29-7.35,17.74a58.08,58.08,0,0,0,13,14.18V99.67c0-1.39,1.57-3,3.91-4.68A16.18,16.18,0,0,0,36.93,92.42Z"/>
    <path class="cls-11" d="M58.74,68.49,44,114.08H36.64l13-37a17.78,17.78,0,0,1,4.59-7.18,11.23,11.23,0,0,1,3.62-2.35.72.72,0,0,1,.86.95Z"/>
    <path class="cls-12" d="M44,114.08l6.78-20.91c-5,2.53-6.18-1.62-6.18-1.62l-7.93,22.53Z"/>
    <path class="cls-11" d="M82.17,68.49l14.76,45.59h7.34l-13-37a17.67,17.67,0,0,0-4.59-7.18A11,11,0,0,0,83,67.54a.71.71,0,0,0-.85.95Z"/>
    <path class="cls-12" d="M96.93,114.08,90.16,93.17c5,2.53,6.17-1.62,6.17-1.62l7.94,22.53Z"/>
    <path class="cls-9" d="M68.06,102.43H57.91a1.85,1.85,0,0,0-1.13.41v-1.2c0-1.08.62-2,1.39-2h9.64c.76,0,1.39.89,1.39,2v1.2a1.87,1.87,0,0,0-1.14-.41Z"/>
    <path class="cls-10" d="M63.45,101.64c0-1.08.63-2,1.39-2H58.17c-.77,0-1.39.89-1.39,2v1.2a1.85,1.85,0,0,1,1.13-.41h5.54Z"/>
    <path class="cls-10" d="M68.06,102.06H57.91a2.39,2.39,0,0,0-2.39,2.39v8.35l14.92-8.61A2.4,2.4,0,0,0,68.06,102.06Z"/>
    <path class="cls-13" d="M62.24,104.45a2.39,2.39,0,0,1,2.39-2.39H57.91a2.39,2.39,0,0,0-2.39,2.39v8.35l6.72-3.88Z"/>
    <path class="cls-9" d="M55.52,113.3v-.76L70.4,104h0a2.83,2.83,0,0,1,0,.5h0v8.71l-.24.14Z"/>
    <path class="cls-10" d="M63,112.37l-.74.43v-4.14l-6.72,3.88v.76H63Z"/>
    <path class="cls-2" d="M72.41,8.3a2.65,2.65,0,1,1-3.61-1,2.65,2.65,0,0,1,3.61,1Z"/>
    <path class="cls-14" d="M58.44,29.79c0-9.3,3.21-17.18,7.62-19.76A19.67,19.67,0,0,0,49.12,29.51v4.61h9.32V29.79Z"/>
    <path class="cls-2" d="M74,9.92c4.5,2.47,7.81,10.44,7.81,19.87v4.33h10V29.51A19.68,19.68,0,0,0,74,9.92Z"/>
    <path class="cls-15" d="M81.94,34.12V29.79c0-9.29-3.19-17.16-7.6-19.83a20.39,20.39,0,0,0-2.23-.13H68.79a20.73,20.73,0,0,0-3.07.24c-4.31,2.77-7.43,10.55-7.43,19.72v4.33Z"/>
    <path class="cls-2" d="M65.45,29.11a.94.94,0,0,0,.08-1.52c-3.07-2.57-.51-9.74.53-13.23,1.15-3.85,6.57-4.5,6.69-4.52h-4a20.73,20.73,0,0,0-3.07.24c-4.31,2.77-7.43,10.55-7.43,19.72v4.33h4C61.24,32.22,63.75,30.2,65.45,29.11Z"/>
    <path class="cls-11" d="M91.79,31.31a36,36,0,0,1-11.42-1.64,34,34,0,0,0-19.88-.12l-.82.25a37,37,0,0,1-10.55,1.51,5.59,5.59,0,0,0,6.6,6.9c.93-.2,1.9-.44,2.9-.74l.9-.27a37.14,37.14,0,0,1,21.82.13,38.06,38.06,0,0,0,3.87,1,5.66,5.66,0,0,0,6.58-7Z"/>
    <path class="cls-12" d="M60.49,29.55l-.82.25a37.07,37.07,0,0,1-10.55,1.51,5.59,5.59,0,0,0,6.6,6.9c.93-.2,1.9-.44,2.9-.74l.9-.27a37,37,0,0,1,5.06-1.14.94.94,0,0,0-.32-.27c-4.61-2.27-1-5.27,1.19-6.68a.94.94,0,0,0,.42-.7A34.58,34.58,0,0,0,60.49,29.55Z"/>
    <g>
      <path class="cls-16" d="M53.13,102.43H43a1.85,1.85,0,0,0-1.14.41v-1.2c0-1.08.62-2,1.39-2h9.64c.76,0,1.39.89,1.39,2v1.2a1.87,1.87,0,0,0-1.14-.41Z"/>
      <path class="cls-17" d="M48.53,101.64c0-1.08.62-2,1.38-2H43.24c-.77,0-1.39.89-1.39,2v1.2a1.85,1.85,0,0,1,1.14-.41h5.54Z"/>
      <path class="cls-17" d="M53.13,102.06H43a2.39,2.39,0,0,0-2.4,2.39v8.35l14.92-8.61a2.39,2.39,0,0,0-2.38-2.13Z"/>
      <path class="cls-18" d="M47.31,104.45a2.39,2.39,0,0,1,2.39-2.39H43a2.39,2.39,0,0,0-2.4,2.39v8.35l6.72-3.88Z"/>
      <path class="cls-16" d="M40.59,113.3v-.76L55.47,104h0a2.83,2.83,0,0,1,.05.5h0v8.71l-.24.14Z"/>
      <path class="cls-17" d="M48.05,112.37l-.74.43v-4.14l-6.72,3.88v.76h7.46Z"/>
    </g>
    <g>
      <path class="cls-19" d="M97.92,102.43H87.77a1.85,1.85,0,0,0-1.13.41v-1.2c0-1.08.62-2,1.38-2h9.65c.76,0,1.38.89,1.38,2v1.2a1.82,1.82,0,0,0-1.13-.41Z"/>
      <path class="cls-20" d="M93.31,101.64c0-1.08.63-2,1.39-2H88c-.76,0-1.38.89-1.38,2v1.2a1.85,1.85,0,0,1,1.13-.41h5.54Z"/>
      <path class="cls-20" d="M97.92,102.06H87.77a2.39,2.39,0,0,0-2.39,2.39v8.35l14.92-8.61A2.4,2.4,0,0,0,97.92,102.06Z"/>
      <path class="cls-21" d="M92.1,104.45a2.39,2.39,0,0,1,2.39-2.39H87.77a2.39,2.39,0,0,0-2.39,2.39v8.35l6.72-3.88Z"/>
      <path class="cls-19" d="M85.38,113.3v-.76L100.26,104h0a2.83,2.83,0,0,1,0,.5h0v8.71l-.24.14Z"/>
      <path class="cls-20" d="M92.84,112.37l-.74.43v-4.14l-6.72,3.88v.76h7.46Z"/>
    </g>
    <g>
      <path class="cls-11" d="M83,102.43H72.84a1.85,1.85,0,0,0-1.13.41v-1.2c0-1.08.62-2,1.39-2h9.64c.76,0,1.39.89,1.39,2v1.2a1.87,1.87,0,0,0-1.14-.41Z"/>
      <path class="cls-12" d="M78.38,101.64c0-1.08.63-2,1.39-2H73.09c-.76,0-1.38.89-1.38,2v1.2a1.85,1.85,0,0,1,1.13-.41h5.54Z"/>
      <path class="cls-12" d="M83,102.06H72.84a2.39,2.39,0,0,0-2.39,2.39v8.35l14.92-8.61A2.4,2.4,0,0,0,83,102.06Z"/>
      <path class="cls-22" d="M77.17,104.45a2.39,2.39,0,0,1,2.39-2.39H72.84a2.39,2.39,0,0,0-2.39,2.39v8.35l6.72-3.88Z"/>
      <path class="cls-11" d="M70.45,113.3v-.76L85.33,104h0a2.83,2.83,0,0,1,0,.5h0v8.71l-.24.14Z"/>
      <path class="cls-12" d="M77.91,112.37l-.74.43v-4.14l-6.72,3.88v.76h7.46Z"/>
    </g>
    <path class="cls-7" d="M103.88,114.33H37a2.27,2.27,0,0,0-2.11,1.44,57.9,57.9,0,0,0,71.08,0A2.27,2.27,0,0,0,103.88,114.33Z"/>
    <path class="cls-23" d="M34.91,115.77a57.68,57.68,0,0,0,23.43,10.92v-5.11c0-3.6,3.9-4.63,3.9-4.63l-1.41-2.62H37a2.27,2.27,0,0,0-2.11,1.44Z"/>
    <path class="cls-24" d="M106.41,111.7H34.5A1.52,1.52,0,0,0,33,113.22v1q1.7,1.44,3.5,2.75h67.94c1.21-.87,2.37-1.79,3.51-2.75v-1a1.52,1.52,0,0,0-1.52-1.52Z"/>
    <path class="cls-7" d="M60.79,114.33a3.11,3.11,0,0,1,1.45-2.63H34.5A1.52,1.52,0,0,0,33,113.22v1q1.7,1.44,3.5,2.75H62.24a3.1,3.1,0,0,1-1.45-2.62Z"/>
  </g>
</svg>
