<svg xmlns="http://www.w3.org/2000/svg" xmlns:xlink="http://www.w3.org/1999/xlink" width="400" height="400" viewBox="0 0 400 400">
  <defs>
    <style>
      .cls-1 {
        fill: none;
      }

      .cls-2 {
        isolation: isolate;
      }

      .cls-3 {
        fill: #9f99b3;
      }

      .cls-10, .cls-4 {
        opacity: 0.2;
      }

      .cls-5 {
        fill: #3e2ea6;
      }

      .cls-11, .cls-6 {
        fill: #fff;
      }

      .cls-7 {
        fill: #f0bb90;
      }

      .cls-8 {
        fill: #0b0130;
      }

      .cls-9 {
        clip-path: url(#clip-path);
      }

      .cls-10, .cls-15 {
        fill: #00365f;
      }

      .cls-10, .cls-13 {
        mix-blend-mode: multiply;
      }

      .cls-11, .cls-16 {
        stroke: #00365f;
        stroke-linecap: round;
        stroke-linejoin: round;
        stroke-width: 1.39px;
      }

      .cls-12 {
        fill: #8dccc3;
      }

      .cls-13, .cls-16 {
        fill: #00a298;
      }

      .cls-14 {
        fill: #d1d152;
      }

      .cls-17 {
        fill: #6558b8;
      }

      .cls-18 {
        fill: #ec7d40;
      }

      .cls-19 {
        fill: #f79556;
      }

      .cls-20 {
        fill: #e6e6e6;
      }

      .cls-21 {
        fill: #d65b5b;
      }

      .cls-22 {
        fill: #f3d9c3;
      }

      .cls-23 {
        fill: #a33636;
      }

      .cls-24 {
        fill: #d6d0a9;
      }

      .cls-25 {
        fill: #d66730;
      }

      .cls-26 {
        fill: #6f678c;
      }
    </style>
    <clipPath id="clip-path">
      <path class="cls-1" d="M272.25,37.13h95.34A10.89,10.89,0,0,1,378.48,48v73.35a10.9,10.9,0,0,1-10.89,10.89H297.11l-12.42,11.35V132.26H272.25a10.9,10.9,0,0,1-10.89-10.89V48A10.89,10.89,0,0,1,272.25,37.13Z"/>
    </clipPath>
  </defs>
  <g class="cls-2">
    <g id="Capa_1" data-name="Capa 1">
      <path class="cls-3" d="M200,81.94v-70C96.13,11.92,11.92,96.13,11.92,200S96.13,388.08,200,388.08v-70a118.06,118.06,0,0,1,0-236.12Z"/>
      <g class="cls-4">
        <path class="cls-5" d="M200,388.08c103.87,0,188.08-84.21,188.08-188.08S303.87,11.92,200,11.92v70a118.06,118.06,0,0,1,0,236.12Z"/>
      </g>
      <path class="cls-6" d="M192.53,334.47c-1.51-4.65-5.9-5.67-5.54-9.72.17-1.89,1.44-3.55,1-3.82s-1.63,1-2.29,1.72a14.82,14.82,0,0,0-2.66,14.11c1.64,4.52,4.29,4,5.43,9.44.56,2.64-.19,5.1.1,5.15S195.58,343.82,192.53,334.47Z"/>
      <g>
        <g>
          <circle class="cls-7" cx="169.02" cy="133.83" r="41.81" transform="translate(13.05 282.65) rotate(-82.03)"/>
          <circle class="cls-8" cx="169.02" cy="133.83" r="35.65" transform="translate(-15.08 21.65) rotate(-7.02)"/>
          <circle class="cls-6" cx="169.02" cy="133.83" r="33.6" transform="translate(-40.48 184.69) rotate(-52.02)"/>
        </g>
        <polygon class="cls-8" points="170.83 134.49 169.04 104.06 167.37 132.71 147.61 149.47 170.83 134.49"/>
      </g>
      <path class="cls-7" d="M163.27,187.6H17.94A10.89,10.89,0,0,0,7,198.49v43.35a10.9,10.9,0,0,0,10.9,10.89H138.41l12.42,11.35V252.73h12.44a10.89,10.89,0,0,0,10.89-10.89V198.49A10.88,10.88,0,0,0,163.27,187.6Z"/>
      <path class="cls-7" d="M272.25,37.13h95.34A10.89,10.89,0,0,1,378.48,48v73.35a10.9,10.9,0,0,1-10.89,10.89H297.11l-12.42,11.35V132.26H272.25a10.9,10.9,0,0,1-10.89-10.89V48A10.89,10.89,0,0,1,272.25,37.13Z"/>
      <g class="cls-9">
        <g>
          <path class="cls-10" d="M330.3,111.78a4.19,4.19,0,0,0-4.1-4.26h-.39l.12-.4,2.84-.32a4.18,4.18,0,0,0,2.89-1.66l3.11,1a3.18,3.18,0,0,0,4-2.06l13.4-42.19a3.17,3.17,0,0,0-2.07-4l-26.43-8.4h0l-.73-.24a2.41,2.41,0,0,0-3,1.58L313,72.64l-.35,1.1c-9.4-3-13.63-.18-19.67,13.56-.69,1.45-1.49,3.28-2.25,5.38l-.24.59h0a49,49,0,0,0-2.76,12.79,13.48,13.48,0,0,0,2.49,8.84l-2.76,4.38-1.24-.78a2.15,2.15,0,0,0-3,.67l-2.5,4-1.48-.93L269,138.61c-2.06,3.29,23,19,25,15.75L304.34,138l-1.11-.7,2.5-4a2.13,2.13,0,0,0-.68-2.95l-1.26-.8,3.94-6.42c6.41,1,12.36-1.73,14.56-6,.21-.39.42-.84.63-1.33l3.13.06a4.17,4.17,0,0,0,4.25-4.1Z"/>
          <g>
            <path class="cls-11" d="M326.88,87.05c-.41,5-3.9,17.92-6.4,22.71s-9.79,7.68-17.1,5.36L296,112.78c-7.31-2.32-10.48-8.36-10.08-14.12.82-12.06,7.1-22.37,7.1-22.37C295.15,69.64,327.29,82,326.88,87.05Z"/>
            <path class="cls-11" d="M327,99.41l-3.23.36a4.18,4.18,0,0,1-4.62-3.68h0a4.18,4.18,0,0,1,3.69-4.62L326,91.1a4.18,4.18,0,0,1,4.62,3.69h0A4.18,4.18,0,0,1,327,99.41Z"/>
            <path class="cls-12" d="M327,97.78l-3.74.43a9.81,9.81,0,0,0-.58-5.12l3.74-.42A5.52,5.52,0,0,1,327,97.78Z"/>
            <path class="cls-11" d="M324.23,108.49l-3.24-.06a4.16,4.16,0,0,1-4.1-4.25h0a4.18,4.18,0,0,1,4.25-4.11l3.24.06a4.19,4.19,0,0,1,4.11,4.26h0A4.19,4.19,0,0,1,324.23,108.49Z"/>
            <path class="cls-12" d="M324.59,106.78l-3.76,0a9.76,9.76,0,0,0-.06-5.14l3.77-.05A5.54,5.54,0,0,1,324.59,106.78Z"/>
            <path class="cls-11" d="M288.65,85.88c8.51-21.41,12.53-23.71,26.78-17.82l-3.67,9.59c-3.42-1.31-4.54-.08-5.13,2.34"/>
            <rect class="cls-11" x="302.09" y="53.36" width="50.63" height="34.1" rx="6.18" transform="translate(161.16 361.12) rotate(-72.37)"/>
            <rect class="cls-11" x="302.09" y="53.36" width="50.63" height="34.1" rx="6.18" transform="translate(161.16 361.12) rotate(-72.37)"/>
            <path class="cls-13" d="M297.93,59.84h41.23a4.7,4.7,0,0,1,4.7,4.7V75.35a0,0,0,0,1,0,0H293.24a0,0,0,0,1,0,0V64.54A4.7,4.7,0,0,1,297.93,59.84Z" transform="translate(157.67 350.72) rotate(-72.37)"/>
            <g>
              <rect class="cls-11" x="317.5" y="56.03" width="11.27" height="9.64" rx="1.55" transform="translate(167.3 350.39) rotate(-72.37)"/>
              <rect class="cls-14" x="321.11" y="57.3" width="4.05" height="7.09" rx="0.84" transform="translate(167.3 350.39) rotate(-72.37)"/>
              <g>
                <rect class="cls-14" x="320.77" y="55.77" width="1.98" height="1.98" rx="0.35" transform="translate(170.23 346.22) rotate(-72.37)"/>
                <rect class="cls-14" x="323.2" y="56.54" width="1.98" height="1.98" rx="0.35" transform="translate(171.19 349.08) rotate(-72.37)"/>
                <rect class="cls-14" x="325.64" y="57.32" width="1.98" height="1.98" rx="0.35" transform="translate(172.15 351.94) rotate(-72.37)"/>
              </g>
              <g>
                <rect class="cls-14" x="318.66" y="62.4" width="1.98" height="1.98" rx="0.35" transform="translate(162.44 348.83) rotate(-72.37)"/>
                <rect class="cls-14" x="321.1" y="63.17" width="1.98" height="1.98" rx="0.35" transform="matrix(0.3, -0.95, 0.95, 0.3, 163.41, 351.69)"/>
                <rect class="cls-14" x="323.53" y="63.95" width="1.98" height="1.98" rx="0.35" transform="matrix(0.3, -0.95, 0.95, 0.3, 164.37, 354.56)"/>
              </g>
            </g>
            <rect class="cls-15" x="311.71" y="69.69" width="50.63" height="7.55" transform="translate(164.95 372.42) rotate(-72.37)"/>
            <path class="cls-11" d="M291.62,84.41c4.38-5.59,7.93-6.7,14.68-7.29l19.22-4.68c7.57-2.43,10.63,7.1,3.06,9.53L315.34,87.6c-3.93,1.41-6,5-6.85,9.08a17.31,17.31,0,0,1-6.34,10.13"/>
            <g>
              <polyline class="cls-11" points="306.2 115.26 300.24 124.96 283.89 114.68 289.12 106.38"/>
              <rect class="cls-11" x="278.14" y="116.32" width="26.53" height="9.09" rx="4.17" transform="translate(109.06 -136.58) rotate(32.16)"/>
              <path class="cls-16" d="M292.21,147c-2.07,3.28-27.11-12.46-25-15.75l10.31-16.4,25,15.75Z"/>
            </g>
            <path class="cls-11" d="M299.73,73.7s4.93,1,5.86,3.19"/>
            <path class="cls-12" d="M324,74.82l4.44-1.44c1.67.31,3.25,4.52,2,6.17L326,81A7.08,7.08,0,0,1,324,74.82Z"/>
            <g>
              <path class="cls-6" d="M326.67,49.25a6.2,6.2,0,0,0-4.72.35l.37.88a5.28,5.28,0,0,1,7.13,2.34l.82-.49A6.2,6.2,0,0,0,326.67,49.25Z"/>
              <path class="cls-6" d="M326.15,50.84a4.54,4.54,0,0,0-3.55.3L323,52a3.66,3.66,0,0,1,2.89-.28A3.61,3.61,0,0,1,328,53.67l.83-.48A4.53,4.53,0,0,0,326.15,50.84Z"/>
              <path class="cls-6" d="M325.59,52.56a2.78,2.78,0,0,0-2.28.26l.38.89a1.8,1.8,0,0,1,1.6-.24,1.77,1.77,0,0,1,1.14,1.14l.84-.49A2.77,2.77,0,0,0,325.59,52.56Z"/>
            </g>
          </g>
        </g>
      </g>
      <g>
        <circle class="cls-6" cx="43.35" cy="219.62" r="26.53"/>
        <g>
          <path class="cls-17" d="M62.47,238a9.9,9.9,0,0,0-3-1.42h0a43.55,43.55,0,0,0-5.8-1.67c-7-1.72-8.35-3.78-12.85-3.91-2.83-.08-4.09.29-8.88,1.69-3,.87-6.51,1.83-10,2.6A26.52,26.52,0,0,0,62.47,238Z"/>
          <g>
            <path class="cls-8" d="M55.45,212.86c-.56-3.6-1.39-8.91-5.57-12.18-1.78-1.39-6.26-3.86-9.58-3.11-.44.1-.66.43-1.27.56-1,.21-1.69-.36-4.17,1.08-6.17,3.59-5.53,8.12-7,11.09-2.2,4.33-4.53,5.87-5.73,8.78a18.27,18.27,0,0,0-1.31,4.84c5.7,5.38,15.7,9.94,32.5,5.28a36.15,36.15,0,0,0,1.57-4.62A28.09,28.09,0,0,0,55.45,212.86Z"/>
            <path class="cls-18" d="M44.7,221.52c.07.43-.15,6.65-.07,10a6.37,6.37,0,0,1-5.54,6.62c-3.54.65-6.32-1.17-6.75-3.08-.25-1.07.67-9.54-.27-15s.34-6.15.85-6.15S44.7,221.52,44.7,221.52Z"/>
            <path class="cls-19" d="M50.43,204.89c1.84,3.53,1.63,9.63,1.35,10.93s-.46,1.12-.26,1.86-.07,2.82-1.1,5.34-3.34,5.81-4.42,6.46a5.4,5.4,0,0,1-3.84.76c-1.56-.25-5.06-2.37-7.06-5.65-1.57-2.58-2.73-4.69-2.74-6.36s-1.29-7,.38-10.08,2.94-5.48,7.32-6.64C41.2,201.21,47.07,198.43,50.43,204.89Z"/>
            <path class="cls-8" d="M48.42,214.16a2.07,2.07,0,0,1,.51-.69,2.61,2.61,0,0,1,.71-.48,3,3,0,0,1,1.7-.17,3.1,3.1,0,0,1,.42.08l.21,0,.21.07a2.35,2.35,0,0,1,.73.47,7,7,0,0,1,1,1.27l-.07.07c-.21-.16-.39-.35-.59-.51a4.12,4.12,0,0,0-.6-.43,2.07,2.07,0,0,0-.63-.25l-.16,0h-.17c-.12,0-.24,0-.35,0s-.24,0-.35,0-.22,0-.33.09-.44.13-.66.18l-.71.15c-.24.06-.49.12-.78.17Z"/>
            <path class="cls-8" d="M37.65,212.15a6,6,0,0,1,1.8-.81,5.09,5.09,0,0,1,2.06-.12c.18,0,.35.06.53.09s.35.08.53.13a2.57,2.57,0,0,1,.94.52,2.87,2.87,0,0,1,1,1.84l-.1.07c-.65-.31-1.14-.61-1.65-.87a6.37,6.37,0,0,1-.72-.41l-.37-.21a2.83,2.83,0,0,0-.4-.17,4.77,4.77,0,0,0-.85-.19,4.45,4.45,0,0,0-.9-.05,6.1,6.1,0,0,0-1.83.3Z"/>
            <path class="cls-20" d="M39.8,215.5c0,.17.51.67,2,.65.68,0,1.35-.19,1.34-.52a1.27,1.27,0,0,0-1-1C41.13,214.47,39.79,215.16,39.8,215.5Z"/>
            <path class="cls-8" d="M41.13,214.94a.87.87,0,0,1,1.6.66A.88.88,0,1,1,41.13,214.94Z"/>
            <path class="cls-20" d="M48.61,216.47c0,.17.43.66,1.69.64.56,0,.83-.29.83-.62s-.09-.78-.57-.86C49.72,215.47,48.61,216.14,48.61,216.47Z"/>
            <path class="cls-8" d="M49.58,216.23a.73.73,0,0,1,1.35.56A.74.74,0,1,1,49.58,216.23Z"/>
            <path class="cls-8" d="M43.1,215.82a1.42,1.42,0,0,0-.21-.59.57.57,0,0,0-.38-.23,1,1,0,0,0-.25,0H42l-.6.08c-.41.07-.83.15-1.26.21a9.54,9.54,0,0,1-1.34.12,3.22,3.22,0,0,1,.56-.41,4.87,4.87,0,0,1,.6-.31,5.35,5.35,0,0,1,1.31-.39,4.17,4.17,0,0,1,.71-.05h.19l.19,0a1.59,1.59,0,0,1,.4.14,1.13,1.13,0,0,1,.34.28.9.9,0,0,1,.17.39,1,1,0,0,1,0,.39A1.22,1.22,0,0,1,43.1,215.82Z"/>
            <path class="cls-8" d="M51.35,216.75a1.06,1.06,0,0,0-.21-.48.36.36,0,0,0-.15-.11.55.55,0,0,0-.17,0h-.31l-.12,0-.5.08c-.34.07-.7.14-1.06.19a6.11,6.11,0,0,1-1.15.08,2.73,2.73,0,0,1,.46-.38,3.68,3.68,0,0,1,.5-.3,4.14,4.14,0,0,1,1.11-.37,3.83,3.83,0,0,1,.6-.05h.16l.17,0a1.12,1.12,0,0,1,.35.12,1,1,0,0,1,.31.24.83.83,0,0,1,.15.35.78.78,0,0,1,0,.34A.9.9,0,0,1,51.35,216.75Z"/>
            <path class="cls-8" d="M39.52,200.09a1.33,1.33,0,0,1,.24.09c.73.38,1.4,1.77,1.56,3.49a7.71,7.71,0,0,1-.1,2.26c-.67,3.76-5.3,3.82-6.78,7.42-1.25,3-2.33,1.36-2.67.12-1.43-5.35-1.85-9.53,5.71-13.21A3.54,3.54,0,0,1,39.52,200.09Z"/>
            <path class="cls-8" d="M40.63,200.15c.77-.31,5.56-1.9,10.32,3.36,2.67,2.93,2.24,7.05,2.11,8.62a2.52,2.52,0,0,1-1.08,2c-.25,0,1.59-4.44-7.54-7.26a6.64,6.64,0,0,1-3.69-2.79c-.7-.74-1.68-2.23-1.15-3.18A1.84,1.84,0,0,1,40.63,200.15Z"/>
            <path class="cls-21" d="M41.24,225a.17.17,0,0,1,.13-.25,21.71,21.71,0,0,1,3.26,0,14.41,14.41,0,0,1,2.32.41.16.16,0,0,1,.1.24,2.94,2.94,0,0,1-2.9,1.6A4.08,4.08,0,0,1,41.24,225Z"/>
            <path class="cls-19" d="M33.17,214.7a1.47,1.47,0,0,0-2.13-.62c-.94.49-1.05,1.88-.78,3.55s1.4,3.62,2.35,3.89,1-.37,1.14-1.2S33.83,215.94,33.17,214.7Z"/>
            <path class="cls-8" d="M55.6,219c0,.22,0,.43,0,.65,0,.43,0,.86-.09,1.29-.07.86-.19,1.72-.34,2.57-.07.42-.16.85-.26,1.26l-.07.31-.09.32-.16.64c-.22.85-.46,1.68-.73,2.51-.07.2-.14.41-.22.61l1.49-.46c.28-.76.53-1.53.75-2.3.07-.21.13-.43.19-.64l.09-.33.09-.33c.11-.44.21-.89.3-1.33.17-.9.29-1.8.37-2.7a28.26,28.26,0,0,0-.06-5.44l-.08-.67c0-.23-.06-.45-.1-.67-.07-.45-.15-.9-.24-1.33-.17-.88-.36-1.75-.59-2.63a19,19,0,0,0-2-5,12.82,12.82,0,0,0-1.63-2.17,11.56,11.56,0,0,0-2.06-1.71l.47.47.24.23.22.25c.14.16.29.32.43.49l.4.52a13.39,13.39,0,0,1,1.32,2.25,20.73,20.73,0,0,1,1.56,4.94c.17.86.31,1.72.44,2.59.07.44.12.87.18,1.3,0,.21.06.43.08.64l.06.65c.06.86.11,1.73.1,2.59C55.61,218.58,55.61,218.8,55.6,219Z"/>
            <path class="cls-8" d="M37.6,198a5,5,0,0,0-1.53.25,10.31,10.31,0,0,0-1.42.58l-.68.36c-.22.12-.45.23-.66.37l-.65.42-.32.23-.3.23a10.85,10.85,0,0,0-3,3.58c-.11.24-.24.47-.34.71s-.22.47-.31.71c-.19.48-.36,1-.52,1.45a17.71,17.71,0,0,1-1,2.69l-.07.15-.1.16-.18.32c-.12.21-.25.41-.38.62l-.2.31-.2.3-.42.6c-.57.79-1.18,1.55-1.82,2.32a29.54,29.54,0,0,0-1.89,2.43,10.47,10.47,0,0,0-.79,1.38c-.06.12-.12.25-.17.37l-.15.35c-.1.24-.2.48-.29.72a18.31,18.31,0,0,0-.81,2.83c.33.36.68.72,1,1.09.05-.23.09-.45.14-.67a19.25,19.25,0,0,1,.88-2.76c.09-.23.19-.45.29-.67l.14-.34c.05-.11.11-.21.16-.31a8.77,8.77,0,0,1,.72-1.21,26.94,26.94,0,0,1,1.82-2.3c.64-.78,1.28-1.58,1.87-2.42.15-.21.29-.43.43-.64l.21-.33.2-.33q.21-.33.39-.66l.19-.34.1-.17.09-.18a18.45,18.45,0,0,0,1-2.94,20.2,20.2,0,0,1,1-2.74,11.11,11.11,0,0,1,1.53-2.42,12.27,12.27,0,0,1,1-1l.27-.25a3,3,0,0,1,.27-.23l.58-.45a5.08,5.08,0,0,1,.61-.42l.61-.41a11.59,11.59,0,0,1,1.3-.69,4.9,4.9,0,0,1,1.4-.41c.24,0,.49,0,.74-.05a3.13,3.13,0,0,0,.75-.08C38.6,198.15,38.11,198,37.6,198Z"/>
            <path class="cls-8" d="M40.06,209.59s6.39,3.67,12.1,1.42c4.12-1.63-.77-8.89-6.14-10.21-2-.49-5.76.33-5.08,2A7.68,7.68,0,0,1,40.06,209.59Z"/>
          </g>
          <circle class="cls-1" cx="43.35" cy="219.62" r="26.53"/>
        </g>
      </g>
      <g>
        <circle class="cls-6" cx="139.3" cy="231.44" r="2.46"/>
        <path class="cls-6" d="M152,231.44a2.46,2.46,0,1,1-2.46-2.46A2.46,2.46,0,0,1,152,231.44Z"/>
        <path class="cls-6" d="M162.14,231.44a2.46,2.46,0,1,1-2.46-2.46A2.46,2.46,0,0,1,162.14,231.44Z"/>
        <path class="cls-6" d="M162,210.25H105.41a2.47,2.47,0,1,1,0-4.93H162a2.47,2.47,0,1,1,0,4.93Z"/>
        <path class="cls-6" d="M162,222.13H79.66a2.47,2.47,0,0,1,0-4.94H162a2.47,2.47,0,0,1,0,4.94Z"/>
        <path class="cls-6" d="M129.58,233.92H79.66a2.47,2.47,0,0,1,0-4.94h49.92a2.47,2.47,0,0,1,0,4.94Z"/>
      </g>
      <g>
        <path class="cls-17" d="M391.31,353.3a8,8,0,0,0-5.86-4.12,9.67,9.67,0,0,0-4.46.17q.06-2.34,0-4.68a.44.44,0,0,0-.44-.43H348.15a.43.43,0,0,0-.43.42c-.25,16.55,3.22,33.2,6.17,38.92a.84.84,0,0,0,.75.46h19.47a.83.83,0,0,0,.75-.47,38.56,38.56,0,0,0,2.61-7.53c4.09-1.48,11-5.79,14.07-13A11.81,11.81,0,0,0,391.31,353.3Zm-2.68,8.47c-2.21,5.16-6.84,8.7-10.27,10.45a128.54,128.54,0,0,0,2.5-19.42,6.12,6.12,0,0,1,4-.5,4.89,4.89,0,0,1,3.63,2.51A8.66,8.66,0,0,1,388.63,361.77Z"/>
        <path class="cls-22" d="M359.5,320.59c1.94-5.94,7.55-7.24,7.08-12.43-.21-2.41-1.84-4.53-1.34-4.87s2.09,1.25,2.93,2.19c3.38,3.82,5.86,11.3,3.41,18-2.1,5.77-5.48,5.11-6.95,12.06-.71,3.37.24,6.52-.12,6.58S355.62,332.53,359.5,320.59Z"/>
      </g>
      <g>
        <path class="cls-8" d="M230.85,155.16a31.61,31.61,0,0,0-5.77,5,35.61,35.61,0,0,0-4.53,6.22A54.31,54.31,0,0,0,215,180.69c-.6,2.49-1.1,5-1.54,7.48-.24,1.22-.43,2.51-.62,3.78-.11.63-.18,1.27-.25,1.91l-.21,1.92a80.26,80.26,0,0,0,.1,15.42c.28,2.56.67,5.11,1.19,7.64.27,1.26.57,2.52.92,3.77l.26.94.27.91c.18.6.36,1.21.55,1.82a78.23,78.23,0,0,0,5.8,14.24,52,52,0,0,0,9.13,12.39,41.53,41.53,0,0,0,12.55,8.6,49.24,49.24,0,0,1-11.09-9.93,56.74,56.74,0,0,1-7.76-12.48c-1-2.22-1.94-4.51-2.77-6.83s-1.54-4.68-2.2-7.07l-.49-1.8-.25-.91-.23-.88c-.3-1.18-.57-2.37-.8-3.57q-.71-3.6-1.08-7.26c-.14-1.22-.23-2.44-.32-3.67,0-.61-.05-1.22-.08-1.84s-.05-1.22-.06-1.84c-.08-2.45,0-4.9.15-7.36l.15-1.83c.05-.61.09-1.23.18-1.84.15-1.22.27-2.43.45-3.68.34-2.48.69-4.94,1.13-7.37a60.35,60.35,0,0,1,4.19-14.11,37.13,37.13,0,0,1,3.64-6.43l1.1-1.5c.39-.49.81-.94,1.21-1.42l.61-.72c.21-.23.44-.44.66-.67Z"/>
        <path class="cls-8" d="M263,145.92c-1.74-.36-2.36-1.29-3.61-1.57-9.43-2.15-22.15,4.86-27.18,8.8-11.88,9.3-14.23,24.37-15.83,34.59A80.15,80.15,0,0,0,218.05,221c2.64,9.33,8.08,28.53,26.43,38.51,15.25,8.3,30.67,5.47,35.41,4.61,5.69-1.05,13.95-2.67,21.74-9.43a38.79,38.79,0,0,0,12.25-20c2.76-11.78.25-21.72-2.86-29.3-3.4-8.25-10-12.62-16.27-24.91-4.28-8.42-2.46-21.27-20-31.46C267.75,144.9,265.86,146.52,263,145.92Z"/>
        <path class="cls-8" d="M305.5,254.84a37.15,37.15,0,0,0,6-6.11,38.1,38.1,0,0,0,4.55-7.4,36.67,36.67,0,0,0,2.72-8.34,45,45,0,0,0,.91-8.75,45.52,45.52,0,0,0-.83-8.79,52.63,52.63,0,0,0-2.41-8.48c-.26-.69-.52-1.37-.8-2.05l-.43-1c-.15-.33-.32-.68-.48-1a31.84,31.84,0,0,0-2.25-3.94,86.74,86.74,0,0,0-5.36-6.89c-1.81-2.16-3.56-4.32-5.17-6.58-.41-.55-.79-1.13-1.18-1.7l-.58-.86-.55-.87c-.38-.59-.75-1.17-1.09-1.77l-.52-.9-.27-.45c-.08-.14-.14-.28-.22-.43a52.59,52.59,0,0,1-2.95-7.64c-.45-1.36-.93-2.73-1.47-4.1-.25-.68-.58-1.36-.87-2s-.64-1.34-1-2a32.81,32.81,0,0,0-5.2-7.22,36.62,36.62,0,0,0-3.32-2.93l-.87-.68c-.29-.22-.58-.45-.89-.64l-1.84-1.18a21,21,0,0,0-1.9-1.07l-1.92-1a29,29,0,0,0-4-1.65,14.7,14.7,0,0,0-4.32-.72c-1.47,0-2.85.36-4.27.23a9,9,0,0,0,2.13.24,18.38,18.38,0,0,1,2.11.14,13.65,13.65,0,0,1,4,1.15,36.06,36.06,0,0,1,3.68,2l1.75,1.16a15.87,15.87,0,0,1,1.71,1.2l1.65,1.27a7.18,7.18,0,0,1,.79.67l.76.69a36.16,36.16,0,0,1,2.87,2.94,31.81,31.81,0,0,1,4.33,6.85,54.25,54.25,0,0,1,2.77,7.78,49.64,49.64,0,0,0,2.95,8.34c.08.17.16.36.25.52l.27.48.53,1c.35.64.73,1.26,1.11,1.88l.57.94.6.92c.4.61.8,1.22,1.22,1.81,1.67,2.4,3.5,4.67,5.32,6.87s3.64,4.31,5.17,6.53a27.1,27.1,0,0,1,2,3.43c.15.3.3.58.44.89l.42.95c.28.63.54,1.27.81,1.9a57.15,57.15,0,0,1,2.5,7.84,47.35,47.35,0,0,1,1.13,8.13,45.49,45.49,0,0,1-.36,8.24,37.75,37.75,0,0,1-1.93,8,39.16,39.16,0,0,1-3.65,7.51,41.22,41.22,0,0,1-2.39,3.48C307.39,252.7,306.47,253.78,305.5,254.84Z"/>
        <g>
          <path class="cls-17" d="M206.4,359.94c.11,9.49,0,18.72-.43,28H311c-9.55-71.8,11.68-69.07,22.12-94.95,6.72-16.67,10.91-38.38-3.46-40.34-13.29-1.82-30.69-6.24-43.53-10s-16.22-4.74-23.79-4.53c-12.08.34-15.68,5.86-34.44,10.48-19.8,4.88-16.85,5-20.61,9.08-2,2.15-15.21,44-12.55,59.41C196.05,324.93,206.3,350.67,206.4,359.94Z"/>
          <path class="cls-17" d="M331.48,253.13c-.42-.1,9.16,1.43,11.67,17.19,2,12.56,1.47,37.62-1.23,52.87-2.87,16.28-11.42,41.32-17.77,50.65s-11.87,12.33-17.58,11.75-14.21-13.25-14.14-27.91,14.19-66.59,20.62-79.81S323.23,251.08,331.48,253.13Z"/>
          <path class="cls-17" d="M212.27,253s-11.56,3.55-15.92,13.36c-3.64,8.2-14.33,40.73-16.59,55.33-2.62,16.91-3.89,29.47-3.13,39.85.8,10.95,1.3,38.16,34.44,19.83C228.93,371.52,217.59,259.29,212.27,253Z"/>
          <path class="cls-17" d="M176.7,385.41c2.92,2.76,6.54,3,12.61,2.53s10.26-6.52,12.24-10.08c2.8-5,3.1-11,2.81-14.89-.55-7.24-1.8-10.75-4.61-14.48a39.3,39.3,0,0,1-5.09-8.2,1,1,0,0,0-1.14-.54h0a1,1,0,0,0-.68,1c.79,6.88-5.74,15.36-12.67,19.21-4.17,2.31-7.74,2.52-9.8.58h0a5.44,5.44,0,0,1-.59-.67,1,1,0,0,0-1.1-.35l-.11,0a1,1,0,0,0-.62,1.06c1.29,7.78,2.69,13.73,4,16.82,1.65,4,3.08,6.36,4.77,8Z"/>
        </g>
        <g>
          <polygon class="cls-1" points="289.36 320.29 308.22 339.33 327.08 320.29 308.22 301.25 289.36 320.29"/>
          <rect class="cls-1" x="275.29" y="326.61" width="26.8" height="26.8" transform="translate(-156.03 305.79) rotate(-45.27)"/>
          <path class="cls-1" d="M309.31,300.15l19,18.86,15.8-15.95c.11-1.95.19-3.92.24-5.87l-16.22-16.07Z"/>
          <path class="cls-1" d="M344.42,296c.24-9.88-.12-19.45-1.13-25.82-.21-1.27-.46-2.45-.74-3.55l-13.62,13.74Z"/>
          <polygon class="cls-1" points="289.61 359.78 308.65 378.64 327.69 359.78 308.65 340.92 289.61 359.78"/>
          <polygon class="cls-1" points="249.79 360.23 268.65 379.27 287.51 360.23 268.65 341.2 249.79 360.23"/>
          <polygon class="cls-1" points="209.73 359.78 228.77 378.64 247.8 359.78 228.77 340.92 209.73 359.78"/>
          <path class="cls-1" d="M330.38,361.69c.66-1.56,1.32-3.21,2-4.91l-3.42,3.45Z"/>
          <path class="cls-1" d="M309.23,340.34l18.86,19,5.23-5.19c2.47-6.75,4.78-14.16,6.52-21l-11.58-11.69Z"/>
          <path class="cls-1" d="M340.39,330.94c.67-2.78,1.24-5.44,1.67-7.91A161.3,161.3,0,0,0,344,305.91l-14.43,14.3Z"/>
          <path class="cls-1" d="M207.86,320.21l-19-18.86-5.64,5.58a149.53,149.53,0,0,0-3.3,14.63c-.4,2.62-.77,5.13-1.11,7.55l10.05,9.95Z"/>
          <path class="cls-1" d="M246.08,242.29a109.45,109.45,0,0,1-18.1,6.15c-3.14.78-5.71,1.43-7.82,2l8.92,9Z"/>
          <path class="cls-1" d="M227.76,260.78,218,251.05a43.44,43.44,0,0,0-5.52,1.87l0,0s-11.56,3.55-15.91,13.36l-.39.9,12.8,12.68Z"/>
          <polygon class="cls-1" points="210.22 320.29 229.08 339.33 247.94 320.29 229.08 301.25 210.22 320.29"/>
          <path class="cls-1" d="M185.65,298.2c-.71,2.4-1.39,4.8-2,7.13l4.57-4.61Z"/>
          <path class="cls-1" d="M208.37,280.35l-12.51-12.63c-2.25,5.5-6.16,16.91-9.59,28.39l3.24,3.28Z"/>
          <path class="cls-1" d="M288.41,279.44l18.86-19L290.4,243.69l-3.34-.95-17.68,17.84Z"/>
          <rect class="cls-1" x="235.64" y="247.15" width="26.8" height="26.8" transform="translate(-111.25 250.73) rotate(-44.73)"/>
          <polygon class="cls-1" points="249.79 280.35 268.65 299.38 287.51 280.35 268.65 261.31 249.79 280.35"/>
          <path class="cls-1" d="M178.63,330.21c-1.09,7.93-1.79,14.82-2,21l11.49-11.38Z"/>
          <rect class="cls-1" x="195.7" y="286.72" width="26.8" height="26.8" transform="translate(-150.67 234.08) rotate(-44.73)"/>
          <polygon class="cls-1" points="209.73 280.63 228.77 299.49 247.8 280.63 228.77 261.77 209.73 280.63"/>
          <path class="cls-1" d="M268.71,259.92l17.57-17.41-.06,0c-12.84-3.75-16.23-4.74-23.8-4.53a33.87,33.87,0,0,0-12.29,2.65l-.46.45Z"/>
          <polygon class="cls-1" points="288.32 361.05 269.29 379.91 277.08 387.78 299.42 387.78 307.18 380.09 288.32 361.05"/>
          <path class="cls-1" d="M208.37,360.23l-18.86-19-13,13.08c0,2.46,0,4.8.21,7a7.14,7.14,0,0,1-5.23-.19l18,18.14Z"/>
          <polygon class="cls-1" points="249.03 361 230.18 380.03 237.99 387.78 260.22 387.78 268.07 379.86 249.03 361"/>
          <path class="cls-1" d="M328.54,360.63l-18.86,19L314,384c3.27-1.72,6.62-5,10.24-10.3a71.26,71.26,0,0,0,5.88-11.45Z"/>
          <path class="cls-1" d="M301.64,387.78h9.44q-.16-1.3-.33-2.58c.39-.09.78-.2,1.18-.33l-3.71-3.73Z"/>
          <polygon class="cls-1" points="261.35 387.78 276.06 387.78 268.71 380.49 261.35 387.78"/>
          <polygon class="cls-1" points="222.5 387.78 235.66 387.78 229.08 381.14 222.5 387.78"/>
          <path class="cls-1" d="M181.59,387.66a29.35,29.35,0,0,0,7.86.12,9.72,9.72,0,0,0,2-.39,19.53,19.53,0,0,0,4.1-.21l-6.75-6.69Z"/>
          <path class="cls-1" d="M169.53,361.37l-1.1,1.1c1.19,6.81,2.46,12,3.64,14.83,1.65,4,3.08,6.36,4.76,7.95h0a9.14,9.14,0,0,0,4.42,2.34l7.3-7.36Z"/>
          <path class="cls-1" d="M208.82,360.68l-19,18.86,7.31,7.38a43,43,0,0,0,9.18-3.17c-.05,1.34-.1,2.68-.17,4h13.44l8.13-8.06Z"/>
          <rect class="cls-1" x="235.35" y="287.04" width="26.8" height="26.8" transform="translate(-139.75 265.7) rotate(-45.27)"/>
          <path class="cls-1" d="M328.46,279.87l13.94-13.81c-2-7.08-5.54-10.4-8-11.91a10.85,10.85,0,0,0-4.62-1.66c-3.15-.43-6.53-1-10-1.69l-10.13,10Z"/>
          <path class="cls-1" d="M317.27,250.31c-7.92-1.62-16.29-3.71-23.81-5.77l14.76,14.9Z"/>
          <rect class="cls-1" x="195.79" y="326.98" width="26.8" height="26.8" transform="translate(-179.84 249.42) rotate(-45.27)"/>
          <polygon class="cls-1" points="289.61 280.63 308.65 299.49 327.69 280.63 308.65 261.77 289.61 280.63"/>
          <polygon class="cls-1" points="249.67 320.2 268.71 339.06 287.74 320.2 268.71 301.35 249.67 320.2"/>
          <rect class="cls-1" x="275.21" y="287.09" width="26.8" height="26.8" transform="translate(-127.9 290.15) rotate(-44.73)"/>
          <rect class="cls-1" x="235.27" y="326.66" width="26.8" height="26.8" transform="translate(-167.32 273.5) rotate(-44.73)"/>
          <path class="cls-6" d="M188.83,380.49l6.75,6.69c.49-.07,1-.15,1.51-.26l-7.31-7.38Z"/>
          <path class="cls-6" d="M188.56,380.23l.95-1-18-18.14a4.87,4.87,0,0,1-1-.73h0l-1,1Z"/>
          <polygon class="cls-6" points="208.82 360.68 227.68 379.72 228.77 378.64 209.73 359.78 208.82 360.68"/>
          <polygon class="cls-6" points="229.08 381.14 235.66 387.78 237.99 387.78 230.18 380.03 229.08 381.14"/>
          <polygon class="cls-6" points="189.51 341.2 208.37 360.23 209.27 359.32 190.24 340.46 189.51 341.2"/>
          <path class="cls-6" d="M188.83,339.06l-10.05-9.95-.15,1.1,9.48,9.57Z"/>
          <polygon class="cls-6" points="228.77 340.92 247.8 359.78 248.58 359.01 229.72 339.97 228.77 340.92"/>
          <polygon class="cls-6" points="268.71 380.49 276.06 387.78 277.08 387.78 269.29 379.91 268.71 380.49"/>
          <polygon class="cls-6" points="188.83 301.35 207.86 320.2 209.01 319.07 190.15 300.03 188.83 301.35"/>
          <polygon class="cls-6" points="209.09 321.43 228.13 340.29 229.08 339.33 210.22 320.29 209.09 321.43"/>
          <path class="cls-6" d="M189.51,299.39l-3.24-3.28c-.21.7-.42,1.39-.62,2.09l2.54,2.52Z"/>
          <polygon class="cls-6" points="249.03 361 268.07 379.86 268.65 379.27 249.79 360.23 249.03 361"/>
          <path class="cls-6" d="M308.22,381.14l3.71,3.73A14,14,0,0,0,314,384l-4.36-4.32Z"/>
          <polygon class="cls-6" points="229.08 301.25 247.94 320.29 248.84 319.38 229.81 300.52 229.08 301.25"/>
          <polygon class="cls-6" points="288.32 361.05 307.18 380.09 308.65 378.64 289.61 359.78 288.32 361.05"/>
          <polygon class="cls-6" points="248.75 321.11 267.61 340.15 268.71 339.06 249.67 320.2 248.75 321.11"/>
          <path class="cls-6" d="M208.9,279.81l-12.8-12.68-.24.59,12.51,12.63Z"/>
          <polygon class="cls-6" points="209.19 281.17 228.04 300.21 228.77 299.49 209.73 280.63 209.19 281.17"/>
          <polygon class="cls-6" points="268.65 341.2 287.51 360.23 288.78 358.95 269.75 340.09 268.65 341.2"/>
          <polygon class="cls-6" points="268.71 301.35 287.74 320.2 288.52 319.44 269.66 300.4 268.71 301.35"/>
          <polygon class="cls-6" points="288.6 321.06 307.64 339.92 308.22 339.33 289.36 320.29 288.6 321.06"/>
          <path class="cls-6" d="M229.08,259.44l-8.92-9-2.21.61,9.81,9.73Z"/>
          <polygon class="cls-6" points="228.77 261.77 247.8 280.63 248.95 279.5 230.09 260.46 228.77 261.77"/>
          <path class="cls-6" d="M328.54,360.63l1.62,1.6.22-.54-1.45-1.46Z"/>
          <polygon class="cls-6" points="308.65 340.92 327.69 359.78 328.09 359.38 309.23 340.34 308.65 340.92"/>
          <polygon class="cls-6" points="248.66 281.49 267.7 300.35 268.65 299.38 249.79 280.35 248.66 281.49"/>
          <path class="cls-6" d="M328.26,321.48l11.58,11.69c.19-.75.37-1.49.55-2.23l-10.84-10.73Z"/>
          <polygon class="cls-6" points="288.69 281.54 307.55 300.58 308.65 299.49 289.61 280.63 288.69 281.54"/>
          <polygon class="cls-6" points="268.65 261.31 287.51 280.35 288.41 279.44 269.38 260.58 268.65 261.31"/>
          <polygon class="cls-6" points="308.22 301.25 327.08 320.29 328.35 319.01 309.31 300.15 308.22 301.25"/>
          <polygon class="cls-6" points="249.13 241.6 267.98 260.64 268.71 259.92 249.67 241.06 249.13 241.6"/>
          <polygon class="cls-6" points="308.65 261.77 327.69 280.63 328.46 279.87 309.6 260.83 308.65 261.77"/>
          <path class="cls-6" d="M308.22,259.44l-14.76-14.9-3.06-.85,16.87,16.72Z"/>
          <path class="cls-6" d="M328.17,281.12l16.22,16.07,0-1.21-15.49-15.63Z"/>
          <path class="cls-6" d="M190.15,300l19-18.86.54-.54,19-18.86,1.32-1.31,19-18.86.54-.54.46-.45c-1.3.51-2.63,1.07-4,1.68l-17,17.15-1.32,1.34-18.86,19-.53.54-18.86,19-1.32,1.33-4.57,4.61c-.15.54-.29,1.07-.43,1.6l5.64-5.58Z"/>
          <path class="cls-6" d="M170.5,360.39a5.34,5.34,0,0,1-.59-.66,1,1,0,0,0-1.09-.35l-.11,0a1,1,0,0,0-.62,1.06c.11.68.22,1.34.34,2l1.1-1.1Z"/>
          <path class="cls-6" d="M190.24,340.46l18.85-19,1.13-1.14,18.86-19,.73-.73,18.85-19,1.13-1.14,18.86-19,.73-.73,17.68-17.84-.78-.23-17.57,17.41-.73.72L249,279.5l-1.15,1.13-19,18.86-.73.72-19,18.86-1.15,1.14-19,18.85-.72.72-11.49,11.38c0,1.06-.06,2.1-.07,3.12l13-13.08Z"/>
          <path class="cls-6" d="M189.78,379.54l19-18.86.91-.9,19-18.86.95-.95,19-18.86.91-.9,19-18.86,1-1,19-18.86.92-.91,19-18.86,1-.94,10.13-10-2.46-.49-9,9.13-1,1-18.86,19-.9.91-18.86,19-.95,1-18.86,19-.9.91-18.86,19-1,1-18.86,19-.9.91-18.86,19-.95,1-7.3,7.36.33.07,7.24-7.17Z"/>
          <path class="cls-6" d="M230.18,380,249,361l.76-.77,18.86-19,1.09-1.11,18.86-19,.76-.77,18.86-19,1.09-1.1,18.86-19,.76-.77,13.62-13.74-.15-.55-13.94,13.81-.77.76-19,18.86-1.1,1.09-19,18.86-.78.77-19,18.85-1.1,1.09-19,18.86-.78.77-19,18.86-1.1,1.08-8.13,8.06h3l6.58-6.64Z"/>
          <path class="cls-6" d="M269.29,379.91l19-18.86,1.29-1.27,19-18.86.58-.58,19-18.86,1.29-1.27L344,305.91c.07-.94.12-1.89.17-2.85L328.35,319l-1.27,1.28-18.86,19-.58.59-18.86,19-1.27,1.28-18.86,19-.58.59-7.85,7.92h1.13l7.36-7.29Z"/>
          <path class="cls-6" d="M309.68,379.66l18.86-19,.39-.4,3.42-3.45c.33-.85.65-1.71,1-2.59l-5.23,5.19-.4.4-19,18.86-1.47,1.45-7.76,7.69h2.22l6.58-6.64Z"/>
        </g>
        <path class="cls-19" d="M294.85,327.81c3.25,4,8.8,8.61,17.15,8.61a32.65,32.65,0,0,0,14-3.6l1.32-.64a191.38,191.38,0,0,0-.92-38.28c-3.62-26.3-3-22.06-4.55-30-1.49-7.71-.92-20.89-9-23.59-2.7-.91-5.81,1-7.49,3-2.21,2.65-.37,6.13,0,11.34,1.47,21.14-.19,37.21-3.55,50.32C298.92,316.28,297.47,317.59,294.85,327.81Z"/>
        <path class="cls-8" d="M293.3,323.35a4,4,0,0,0-1.31.36c-.09.06-.15.1-.13.18a.64.64,0,0,0,.1.26,3.07,3.07,0,0,0,.41.48c.16.15.33.29.51.43l.55.43,1.09.82a43.21,43.21,0,0,0,4.56,2.9,42.37,42.37,0,0,0,9.85,3.92,45.5,45.5,0,0,0,5.2,1,30.74,30.74,0,0,0,5.23.32,16,16,0,0,0,5.06-.9,9.73,9.73,0,0,0,2.3-1.21,7.6,7.6,0,0,0,1-.87,5.47,5.47,0,0,0,.45-.51,3,3,0,0,0,.2-.29c.05-.09.14-.2.13-.3a1.35,1.35,0,0,1-.09.71,5.54,5.54,0,0,1-.25.68,7.46,7.46,0,0,1-.77,1.26,9,9,0,0,1-2.19,2,14.22,14.22,0,0,1-5.57,2.08,24.44,24.44,0,0,1-5.85.2,31.61,31.61,0,0,1-5.71-1,29.73,29.73,0,0,1-10.37-5.06,25.51,25.51,0,0,1-4.16-4c-.31-.36-.6-.74-.88-1.13l-.4-.58a6.65,6.65,0,0,1-.39-.63,2.51,2.51,0,0,1-.28-.72.9.9,0,0,1,0-.43.41.41,0,0,1,.12-.2.48.48,0,0,1,.17-.12A4,4,0,0,1,293.3,323.35Z"/>
        <path class="cls-8" d="M311,378.57a10,10,0,0,1-3.53,2.18,9.76,9.76,0,0,1-4.31.49,11.06,11.06,0,0,1-4.2-1.37,15.28,15.28,0,0,1-3.43-2.62c-.51-.51-1-1-1.42-1.58s-.86-1.11-1.26-1.67a31.35,31.35,0,0,1-2.2-3.52,36.12,36.12,0,0,1-3.06-7.67,49.23,49.23,0,0,1-1.41-16.18,81.68,81.68,0,0,1,2.74-15.83.22.22,0,0,1,.27-.16.24.24,0,0,1,.17.25q-.64,3.94-1,7.89c-.24,2.64-.39,5.28-.39,7.9A51.78,51.78,0,0,0,290,362.11a36.12,36.12,0,0,0,3,7.05,33.94,33.94,0,0,0,2.09,3.21l.57.76.61.72c.41.48.84.94,1.27,1.37a14,14,0,0,0,6,3.83,10.55,10.55,0,0,0,3.61.34A15.37,15.37,0,0,0,311,378.57Z"/>
        <path class="cls-8" d="M204,266.06c-2.7,9.74-6,19.29-8.16,29.25-.53,2.49-1,5-1.32,7.55-.17,1.27-.28,2.56-.36,3.85s-.08,2.59,0,3.9a36.65,36.65,0,0,0,.4,3.92c.22,1.28.47,2.56.78,3.8.59,2.51,1.34,4.95,2.08,7.37,1.5,4.84,3,9.61,4.35,14.45.18.6.33,1.21.49,1.81s.31,1.21.46,1.82c.31,1.21.59,2.43.87,3.65.54,2.44,1,4.89,1.45,7.36a148.65,148.65,0,0,1,1.76,14.93c.35,5,.43,10,.41,15.11a112.85,112.85,0,0,0,1.12-15.16c0-2.54,0-5.09-.2-7.63s-.4-5.08-.71-7.61-.74-5.05-1.23-7.55c-.26-1.25-.51-2.5-.8-3.74-.14-.62-.28-1.24-.44-1.86s-.3-1.24-.46-1.85c-.63-2.47-1.35-4.91-2.08-7.34s-1.53-4.84-2.3-7.24-1.51-4.78-2.16-7.17c-.32-1.2-.59-2.4-.83-3.6a29.31,29.31,0,0,1-.47-3.6,48,48,0,0,1,.16-7.38c.23-2.47.58-5,1-7.41.83-4.95,2-9.86,3.08-14.79l.85-3.69c.28-1.23.55-2.47.82-3.7C203.07,271,203.57,268.56,204,266.06Z"/>
        <path class="cls-18" d="M246.3,223c-1,3.46.49,24.91,1.61,28.37,2.22,6.81,10.63,9.92,17.59,9,10-1.34,14.49-6.84,14.8-14.16.53-12.44.23-19.31,1.84-38.9C282.57,202.07,248.3,216.35,246.3,223Z"/>
        <g>
          <path class="cls-6" d="M236.77,200.86c0,4.88-2.14,14.57-4,16-2.2,1.71-5.48,1-6,.77-3.21-1.24-5.62-7.5-5.62-16.74s2.26-16.05,5.62-16.73c.32-.07,4.74-1.2,6.52,1.17C236.21,189.17,236.77,195.42,236.77,200.86Z"/>
          <ellipse class="cls-17" cx="231.26" cy="200.87" rx="5.62" ry="16.74"/>
        </g>
        <path class="cls-19" d="M230.59,165.11c-5.21,10-4.63,27.31-3.83,31s1.3,3.19.74,5.27.21,8,3.13,15.16,9.46,16.49,12.52,18.33a15.38,15.38,0,0,0,10.92,2.17c4.41-.7,14.35-6.73,20-16,4.46-7.31,7.74-13.31,7.79-18s3.66-19.92-1.08-28.59S272.46,158.8,260,155.51C256.78,154.65,240.14,146.77,230.59,165.11Z"/>
        <path class="cls-21" d="M256.66,222.24a.46.46,0,0,0-.35-.71,59.61,59.61,0,0,0-9.25-.06,37.24,37.24,0,0,0-6.6,1.17.47.47,0,0,0-.28.68,8.37,8.37,0,0,0,8.22,4.53C252.94,227.47,255.71,223.75,256.66,222.24Z"/>
        <path class="cls-8" d="M235.84,190.68a6.08,6.08,0,0,0-1.5-1.93,8.39,8.39,0,0,0-2.05-1.3,8.58,8.58,0,0,0-4.84-.33,12,12,0,0,0-1.19.25l-.58.16c-1.62.68-.6,2.09,0,2l.45-.07.5-.05a8.19,8.19,0,0,1,1,0c.33,0,.66.06,1,.09s.64.13.95.23c.63.16,1.25.33,1.9.44l2,.39c.69.14,1.41.28,2.23.4Z"/>
        <path class="cls-8" d="M266.86,185.44a16.42,16.42,0,0,0-5.12-2.32,14.85,14.85,0,0,0-5.84-.33c-.5.05-1,.17-1.5.24s-1,.24-1.49.37a7.56,7.56,0,0,0-2.67,1.49,8.13,8.13,0,0,0-2.91,5.23l.29.2c1.84-.9,3.25-1.75,4.68-2.47.71-.36,1.38-.75,2.06-1.18.34-.2.68-.41,1-.6a11.2,11.2,0,0,1,1.13-.47,12.78,12.78,0,0,1,2.41-.54,14.27,14.27,0,0,1,2.54-.16,18.22,18.22,0,0,1,5.22.86Z"/>
        <path class="cls-20" d="M260.77,194.94c0,.47-1.46,1.89-5.76,1.83-1.91,0-3.81-.52-3.8-1.48a3.66,3.66,0,0,1,2.91-2.83C257,192,260.78,194,260.77,194.94Z"/>
        <path class="cls-8" d="M257,193.63a2.47,2.47,0,0,0-4.55,1.88C253.44,198.9,258.69,197.64,257,193.63Z"/>
        <path class="cls-20" d="M234.76,198.16c0,.46-1.21,1.84-4.75,1.79-1.58,0-2.33-.81-2.32-1.73s.23-2.2,1.58-2.44C231.64,195.34,234.77,197.24,234.76,198.16Z"/>
        <path class="cls-8" d="M232.26,197.23a2.07,2.07,0,0,0-3.83,1.58C229.26,201.67,233.69,200.6,232.26,197.23Z"/>
        <path class="cls-8" d="M251.4,196.12a3.67,3.67,0,0,1,.44-1.71,1.77,1.77,0,0,1,1.14-.84,3.76,3.76,0,0,1,.76-.1h.4l.43,0c.58.05,1.17.13,1.76.23,1.18.19,2.38.43,3.59.66s2.45.45,3.73.57a12,12,0,0,0-1.63-1,17.12,17.12,0,0,0-1.74-.79,17.63,17.63,0,0,0-3.7-1,12.65,12.65,0,0,0-2-.14l-.51,0a4.51,4.51,0,0,0-.53.07,3.75,3.75,0,0,0-1.06.34,2.65,2.65,0,0,0-.92.71,2.41,2.41,0,0,0-.5,1,3,3,0,0,0,0,1A3,3,0,0,0,251.4,196.12Z"/>
        <path class="cls-8" d="M227.27,199a3.25,3.25,0,0,1,.43-1.43,1.44,1.44,0,0,1,1-.63,3.1,3.1,0,0,1,.62-.07h.33l.36,0c.48.05,1,.12,1.47.2l3,.53a27,27,0,0,0,3.19.39,8.78,8.78,0,0,0-1.36-.92,14.36,14.36,0,0,0-4.61-1.61,8.57,8.57,0,0,0-1.69-.12l-.43,0-.46.07a3.2,3.2,0,0,0-.92.3,2.5,2.5,0,0,0-.81.64,2,2,0,0,0-.41.9,2.53,2.53,0,0,0,0,.91A2.49,2.49,0,0,0,227.27,199Z"/>
        <path class="cls-23" d="M257.3,221.17a10.55,10.55,0,0,1-.81.69c-.29.21-.58.41-.88.6a16.21,16.21,0,0,1-1.88,1,18,18,0,0,1-2,.78,19.33,19.33,0,0,1-2.09.52l-.54.1-.53.09-.54.08-.54,0-.27,0H247l-.54,0-.55,0-.27,0-.27,0-.53-.07-.54-.11c-.35-.07-.7-.16-1.05-.26l-.51-.17-.5-.2a4.46,4.46,0,0,1-.5-.22l-.48-.25,0-.13c.37,0,.72,0,1.07,0h1.05l.52,0h3.56a15.45,15.45,0,0,0,2-.06,19.73,19.73,0,0,0,2-.32,17,17,0,0,0,2-.54,18.92,18.92,0,0,0,1.93-.77c.31-.15.62-.3.92-.47a10.13,10.13,0,0,0,.89-.55Z"/>
        <path class="cls-8" d="M261.55,151.47a5.08,5.08,0,0,0-.67.28c-2.07,1.08-4,5-4.43,9.9a21.75,21.75,0,0,0,.27,6.42c1.9,10.66,15,10.83,19.26,21.05,3.54,8.62,6.61,3.85,7.55.33,4.07-15.17,5.27-27-16.18-37.47A10.05,10.05,0,0,0,261.55,151.47Z"/>
        <path class="cls-8" d="M258.59,151.44c-2.17-.91-15.73-8.4-29.39,6.37-7.64,8.26-6.55,22.83-6.21,27.27.26,3.46,2.81,5.63,3.22,5.65.73,0-4.6-12.67,21.38-20.42a18.73,18.73,0,0,0,10.54-7.8c2-2.08,4.85-6.29,3.36-9A5.22,5.22,0,0,0,258.59,151.44Z"/>
        <path class="cls-19" d="M280,192.88c.75-1.4,2.9-3.81,6.08-1.77s3,5.36,2.24,10.12-4,10.33-6.71,11.11-2.73-1-3.26-3.42S278.1,196.4,280,192.88Z"/>
        <path class="cls-17" d="M278.82,201.13c0,15.11-9,28.7-19.9,28.7a15.3,15.3,0,0,1-2.14-.16.28.28,0,0,0,0-.09c0-1.5-2-2.72-4.43-2.72s-4.43,1.22-4.43,2.72,2,2.73,4.43,2.73a5.47,5.47,0,0,0,3.76-1.28,15.8,15.8,0,0,0,3.89.41c12.4,0,22.89-12.78,22.89-29.67Z"/>
        <path class="cls-17" d="M237.47,150.91l.14-.13c.64-.57,4.2-3.58,12.4-3.66,20.44-.18,35.6,17.34,35.6,40.26l-4.36.88c0-20.52-15.52-39.38-33-39.6-6.41-.08-9.51,1.37-10.8,2.26Z"/>
        <g>
          <path class="cls-6" d="M291.63,200.38c0,4.88-2.14,14.57-3.95,16-2.21,1.7-5.49,1-6,.76-3.2-1.23-5.62-7.49-5.62-16.74s2.26-16,5.62-16.73c.32-.07,4.74-1.19,6.52,1.18C291.07,188.69,291.63,194.94,291.63,200.38Z"/>
          <ellipse class="cls-24" cx="286.12" cy="200.39" rx="5.62" ry="16.74"/>
          <ellipse class="cls-17" cx="286.47" cy="200.39" rx="4.77" ry="14.58"/>
        </g>
        <g>
          <path class="cls-25" d="M307.39,221.81c-.47-3.89-2.23-7-2.61-10.89a2.92,2.92,0,0,0-.73-1.89c-1.67-1.68-5.53-2.66-9.52-5.47-.43-.3-2.95-2.51-3.74-2.18a2.3,2.3,0,0,0-1.41,2,4.47,4.47,0,0,0,1.74,4c3.38,2.85,7.56,4.52,8,5.12.74.93-.31,3.69-.45,4.82-1.17,9,3.48,11.28,2.51,15.14a3.1,3.1,0,0,1-1.74,2.27c-1.34.37-2.36-.16-6.15-2.41-.65-.39-8.64-5.08-10.68-2.84-.72.79-.23,2.41.62,3.1a60.41,60.41,0,0,0,5.71,3.88c3.59,2.15,4.35,2.55,5.71,3.89a9.37,9.37,0,0,1,2.45,3,17.34,17.34,0,0,0,6.45,5.78c2.61,1.5,6.66,1.93,8.77.53s1.26-3.56.5-8.46C311.2,230.62,308.41,230.24,307.39,221.81Z"/>
          <path class="cls-19" d="M289.36,223.37a6.43,6.43,0,0,0-2.18-.31,8.52,8.52,0,0,0-3,.85c-3.34,1.3-3,1-3.67,1.38-1.68,1-1.45,1.69-3.24,2.72a4.41,4.41,0,0,1-5-.39c-.71-.59-.13-1.69-.05-1.91.25-.66.63-.82,2.22-2.22,1.18-1.05,1.6-1.52,1.5-1.69s-1.91,0-1.69-1.5c.1-.74.69-1.27,1.55-2,3-2.55,3.36-3.33,5.35-4.32a8.26,8.26,0,0,1,3-.85c4.84-.58,7.64-2.07,9.67-1.17s14.84,6.93,15.71,7.59a6.05,6.05,0,0,1,2.05,3.45c1.3,5.08,3.85,12.25,5.3,16.15.44,1.16,1.31,5,.83,7.19-.5,2.3-1.74,4.64-4.42,5.09a9.29,9.29,0,0,1-7.28-2.29c-1.39-1.28-1.94-2.69-3-5.5-1.92-4.94-1.59-7.44-3.52-8.72a21.91,21.91,0,0,0-3.24-1.73c-.64-.27-1-.41-1.2-.48a18.46,18.46,0,0,0-6.65,0,62.17,62.17,0,0,1-7.8,3.66c-.69.26-3.68,1.38-4.74,0a1.83,1.83,0,0,1-.1-1.6c.43-1.07,1.68-1.39,2.79-1.83,3.18-1.25,2.86-2.58,6.64-4.45a16.9,16.9,0,0,1,3.68-1.38c4.92-1.21,7.81.78,8.29-.42C297.5,225.75,294.17,224.71,289.36,223.37Z"/>
          <path class="cls-25" d="M301.15,220.59c-2-1.09-4-2.08-6.09-3-1-.48-2.07-.92-3.11-1.36-.54-.22-1.05-.43-1.64-.62a5.73,5.73,0,0,0-1.85-.23,3.7,3.7,0,0,0-.95.16l-.84.28c-.54.19-1.07.38-1.6.59-1.05.43-2.1.85-3.14,1.3l-1.55.64a6.14,6.14,0,0,0-1.51,1c-.87.75-1.64,1.55-2.56,2.23a22.84,22.84,0,0,0,2.88-1.8,5.43,5.43,0,0,1,1.42-.72c.55-.16,1.09-.35,1.63-.53,1.08-.35,2.13-.75,3.2-1.12l1.58-.56.78-.24a2.93,2.93,0,0,1,.71-.12,4.78,4.78,0,0,1,1.5.18c.5.14,1,.36,1.55.54l3.17,1.19C296.85,219.15,299,219.92,301.15,220.59Z"/>
        </g>
        <g>
          <g>
            <path class="cls-18" d="M166.7,298.62s-1.71-8.27-3.91-11.38a29.19,29.19,0,0,0-7.86-8.19c-4.14-3-10-8.59-11.52-9.68-1.91-1.35-3.27-1.78-4.51-.91s-1,2.34-.18,3.57A38,38,0,0,0,143,277c2.29,2.25,6.24,5.18,5.2,4.81-.13-.05-1.27-.63-3.16-1.43-1.22-.51-7.83-3.46-7.83-3.46a6.91,6.91,0,0,0,.3-2.5,2.37,2.37,0,0,0-1.71-2.11c-.71-.05-1.37.19-2.17,1.47s-2,3.45-2,3.45-.74-3.65-1.18-6.64-1-4.28-2-5-2.41-.86-2.59.07-.2,5.48-.2,5.48-3.64-3.26-4.85-4.37c-1.56-1.42-3.64-1.76-4.39-1.19a1.5,1.5,0,0,0-.26,2.22c.57.7,5.45,6.23,6.41,7.27s7.22,7.83,7.22,7.83a6.46,6.46,0,0,0-.31,2.21,6,6,0,0,0,2.13,3.7,14.85,14.85,0,0,1,2,1.91c.16,3,2.93,4.06,3.21,4.23s.43,2.08,9.12,8c1.66,1.13,5.94,3.43,7.15,4.71a15,15,0,0,0,5.83,3.54c1.92.43,2.42.24,3.51-.76S166.89,302.46,166.7,298.62Z"/>
            <path class="cls-25" d="M137.1,277.14c-.29.83-.58,1.67-.85,2.5-.06.21-.13.42-.18.63l-.17.64c-.12.43-.25.85-.38,1.27s-.22.84-.3,1.26-.14.8-.19,1.2a16.5,16.5,0,0,0-.06,2.56l-.1,0a4.32,4.32,0,0,1-.6-1.24l-.06-.17c0-.06,0-.11,0-.17s0-.23-.07-.35,0-.24,0-.35a1.09,1.09,0,0,1,0-.18v-.18a4.37,4.37,0,0,1,.23-1.4c.15-.44.33-.86.5-1.27s.34-.81.5-1.22l.25-.62a6.65,6.65,0,0,1,.27-.61c.37-.81.78-1.6,1.21-2.37Z"/>
            <path class="cls-25" d="M134.7,289.68a8.83,8.83,0,0,1,.54-1.57,4.06,4.06,0,0,1,.4-.74c.08-.12.16-.24.25-.35l.27-.32c.72-.84,1.48-1.63,2.25-2.42s1.55-1.57,2.34-2.34c.4-.38.8-.75,1.23-1.13l.08-.07.09-.07.09-.07,0,0,0,0,.06,0a1.46,1.46,0,0,1,.25-.13,1.12,1.12,0,0,1,.26-.08,1.26,1.26,0,0,1,.27,0h.28l.26.05a1.43,1.43,0,0,1,.27.09,1.44,1.44,0,0,1,.82.83c.05.17.09.34.12.5s0,.15,0,.23,0,.16,0,.24a6.26,6.26,0,0,1-.23,1.78,6.55,6.55,0,0,1-.29.85l-.1.21-.06.1-.05.1-.12.2-.12.19-.25.36-.26.34c-.18.22-.36.43-.55.64l-.56.61-.57.6c-.19.19-.38.39-.56.59l-.27.29a2.77,2.77,0,0,0-.22.29,2.28,2.28,0,0,0-.33.64,6.48,6.48,0,0,0-.22.77,5,5,0,0,1-.3.81,2.71,2.71,0,0,1-.21.37c-.08.12-.17.23-.26.34l-.09-.06a4.17,4.17,0,0,0,.35-1.55c0-.27,0-.55.08-.85A3.25,3.25,0,0,1,140,289c.07-.14.16-.26.24-.4l.24-.34.51-.67,1-1.28.25-.32.24-.32.24-.31L143,285a6.88,6.88,0,0,0,.37-.63,5.86,5.86,0,0,0,.28-.69,5.4,5.4,0,0,0,.29-1.46,2.36,2.36,0,0,0-.06-.67.56.56,0,0,0-.09-.17.78.78,0,0,0-.2-.14l-.13-.05a.5.5,0,0,0-.13,0H143l-.13,0a.6.6,0,0,0-.11.06h-.06l-.08.06-.07.05-.08.07c-.41.33-.83.69-1.24,1.05-.83.71-1.65,1.44-2.46,2.18s-1.62,1.48-2.39,2.25l-.28.3-.25.3a6,6,0,0,0-.43.68,9,9,0,0,0-.64,1.5Z"/>
            <path class="cls-25" d="M125.65,271.26c.13.56.25,1.13.38,1.69l.19.84c0,.28.11.56.17.84s.14.56.22.83a4.91,4.91,0,0,1,.14.84v.21a1.62,1.62,0,0,1,0,.22c0,.14,0,.28,0,.43s0,.28,0,.43,0,.3,0,.46l-.09,0-.16-.18-.14-.19a4,4,0,0,1-.22-.4c-.06-.14-.12-.28-.17-.42a1.72,1.72,0,0,1-.07-.21l-.07-.21a3.58,3.58,0,0,1-.13-.86c0-.29,0-.58,0-.87s0-.58,0-.87l0-.87c0-.57,0-1.15,0-1.73Z"/>
            <path class="cls-25" d="M131.58,277.34c-.06.39-.13.78-.2,1.17s-.14.78-.22,1.16c0,.19-.06.39-.09.58a1.8,1.8,0,0,1-.16.56,3.81,3.81,0,0,1-.29.52,2.35,2.35,0,0,1-.19.25l-.11.12a1.59,1.59,0,0,1-.13.13l-.09,0a1.7,1.7,0,0,1-.15-.64,2.54,2.54,0,0,1,0-.62,1.36,1.36,0,0,1,.06-.29,2.33,2.33,0,0,1,.11-.28c.09-.18.19-.36.27-.54q.22-.54.51-1.08c.18-.35.36-.7.57-1Z"/>
          </g>
          <path class="cls-18" d="M179.76,360.17c6.7-3.33,13.22-11,12.77-17.56a.78.78,0,0,1,.06-.37,60.83,60.83,0,0,0-6.78-7.68c-10.22-9.87-14.34-25.55-18.08-33.68s-18.54-12.91-16.95-2.83,5.51,16.94,8.9,27.1c3.22,9.67,6.64,23.33,11.08,35.39C172.66,362.2,175.91,362.08,179.76,360.17Z"/>
        </g>
      </g>
      <g>
        <path class="cls-7" d="M219.18,384.05H67.42V377H213.7c1,0,4.59,4.73,4.59,4.73a1.42,1.42,0,0,1-1.2,2.32Z"/>
        <path class="cls-7" d="M136.39,384.05h-91a10.88,10.88,0,0,1-10.47-7.94L7.66,279.17a5,5,0,0,1,4.86-6.42h92.3a11,11,0,0,1,10.56,8l26.88,95.55A6.1,6.1,0,0,1,136.39,384.05Z"/>
        <path class="cls-8" d="M136,384.05H44.64a10.77,10.77,0,0,1-10.36-7.85L7.18,279.85a3.57,3.57,0,0,1,3.43-4.53H102a10.77,10.77,0,0,1,10.36,7.85l27.1,96.34A3.57,3.57,0,0,1,136,384.05Z"/>
      </g>
      <rect class="cls-26" x="11.7" y="384.18" width="383.74" height="13.85" rx="6.92" transform="translate(407.13 782.21) rotate(180)"/>
    </g>
  </g>
</svg>
