<svg id="Capa_1" data-name="Capa 1" xmlns="http://www.w3.org/2000/svg" width="140" height="140" viewBox="0 0 140 140">
  <defs>
    <style>
      .cls-1 {
        fill: #8b82ca;
        stroke: #2f237d;
        stroke-miterlimit: 10;
        stroke-width: 6px;
      }

      .cls-2 {
        fill: #fff;
      }
    </style>
  </defs>
  <circle class="cls-1" cx="70" cy="70" r="60"/>
  <g>
    <path class="cls-2" d="M51.51,41.1a1.71,1.71,0,1,0,1.7,1.71A1.71,1.71,0,0,0,51.51,41.1Z"/>
    <path class="cls-2" d="M81.65,96.88l-5.21-8.69c-1.84-3.07-2.81-8.28-2.81-11.84V56.42A22.15,22.15,0,0,0,57,35a6.75,6.75,0,0,0,1.37-4.08,6.81,6.81,0,1,0-13.61,0A6.74,6.74,0,0,0,46.07,35,22.16,22.16,0,0,0,29.39,56.42V76.35c0,3.56-1,8.77-2.81,11.84l-5.21,8.69a3.84,3.84,0,0,0,3.3,5.82H41.45a10.21,10.21,0,0,0,20.13,0H78.36A3.84,3.84,0,0,0,81.65,96.88ZM51.51,27.49a3.41,3.41,0,1,1-3.4,3.41A3.41,3.41,0,0,1,51.51,27.49ZM32.79,76.35V56.42a18.72,18.72,0,0,1,37.44,0V76.35a31,31,0,0,0,2.82,12.74H30A30.8,30.8,0,0,0,32.79,76.35ZM51.51,107.8a6.83,6.83,0,0,1-6.59-5.12H58.1A6.82,6.82,0,0,1,51.51,107.8Zm26.85-8.5H24.67a.44.44,0,0,1-.38-.67L28,92.49H75.05l3.68,6.14A.44.44,0,0,1,78.36,99.3Z"/>
    <path class="cls-2" d="M58.93,43a1.7,1.7,0,1,0-1.65,3,11.92,11.92,0,0,1,6.14,10.42,1.71,1.71,0,0,0,3.41,0A15.35,15.35,0,0,0,58.93,43Z"/>
  </g>
  <g>
    <path class="cls-2" d="M98,34.81a1.07,1.07,0,1,0,1.07,1.07A1.07,1.07,0,0,0,98,34.81Z"/>
    <path class="cls-2" d="M117,70l-3.28-5.47A16.58,16.58,0,0,1,112,57V44.46A14,14,0,0,0,101.44,31a4.29,4.29,0,1,0-6.86,0,14,14,0,0,0-10.5,13.51V57a16.58,16.58,0,0,1-1.77,7.46L79,70a2.42,2.42,0,0,0,2.08,3.67H91.67a6.43,6.43,0,0,0,12.68,0h10.58A2.42,2.42,0,0,0,117,70ZM98,26.23a2.15,2.15,0,1,1-2.14,2.15A2.15,2.15,0,0,1,98,26.23ZM86.22,57V44.46a11.8,11.8,0,0,1,23.59,0V57a19.55,19.55,0,0,0,1.77,8H84.44A19.4,19.4,0,0,0,86.22,57ZM98,76.84a4.31,4.31,0,0,1-4.15-3.23h8.31A4.31,4.31,0,0,1,98,76.84Zm16.92-5.36H81.1a.28.28,0,0,1-.24-.42l2.32-3.87h29.66l2.33,3.87A.28.28,0,0,1,114.93,71.48Z"/>
    <path class="cls-2" d="M102.69,36a1.07,1.07,0,0,0-1,1.87,7.54,7.54,0,0,1,3.88,6.57,1.07,1.07,0,1,0,2.14,0A9.65,9.65,0,0,0,102.69,36Z"/>
  </g>
</svg>
