<svg xmlns="http://www.w3.org/2000/svg" xmlns:xlink="http://www.w3.org/1999/xlink" width="400" height="400" viewBox="0 0 400 400">
  <defs>
    <style>
      .cls-1 {
        fill: none;
      }

      .cls-2 {
        isolation: isolate;
      }

      .cls-13, .cls-3 {
        fill: #3e2ea6;
      }

      .cls-3 {
        opacity: 0.45;
      }

      .cls-4 {
        clip-path: url(#clip-path);
      }

      .cls-5 {
        fill: #eea066;
      }

      .cls-6 {
        fill: #fcc;
      }

      .cls-7 {
        fill: #6558b8;
      }

      .cls-8 {
        fill: #ff9595;
      }

      .cls-9 {
        fill: #292d95;
      }

      .cls-10 {
        fill: #6b70cb;
      }

      .cls-11 {
        fill: #c9ccd6;
        mix-blend-mode: overlay;
      }

      .cls-12 {
        fill: #fff;
      }

      .cls-14 {
        fill: #fd9292;
      }

      .cls-15 {
        fill: #ff9484;
      }

      .cls-16 {
        fill: #fa66bc;
      }

      .cls-17 {
        fill: #091320;
      }

      .cls-18 {
        fill: #eb8233;
      }

      .cls-19 {
        fill: #d8d5ed;
      }

      .cls-20 {
        opacity: 0.2;
      }

      .cls-21 {
        fill: #8b82ca;
      }

      .cls-22 {
        fill: #3a424d;
      }

      .cls-23 {
        fill: #7fc8e9;
      }

      .cls-24 {
        fill: #928985;
      }

      .cls-25 {
        fill: #2b4046;
      }

      .cls-26 {
        fill: #ff9494;
      }

      .cls-27 {
        fill: #996233;
      }

      .cls-28 {
        fill: #bf885f;
      }

      .cls-29 {
        fill: #814b1b;
      }

      .cls-30 {
        fill: #3b5058;
      }

      .cls-31 {
        fill: #e6e6e6;
      }

      .cls-32 {
        fill: #e86c00;
      }

      .cls-33 {
        fill: #e17171;
      }

      .cls-34 {
        fill: #c95151;
      }

      .cls-35 {
        fill: #0f0140;
      }
    </style>
    <clipPath id="clip-path">
      <circle class="cls-1" cx="200.72" cy="198.29" r="117.73"/>
    </clipPath>
  </defs>
  <g class="cls-2">
    <g id="Capa_1" data-name="Capa 1">
      <circle class="cls-3" cx="200.72" cy="198.29" r="117.73"/>
      <g class="cls-4">
        <g>
          <path class="cls-5" d="M321.57,175.68s-17.64-7.18-19.75-18a56.84,56.84,0,0,1-.92-11.62,37.37,37.37,0,0,0-10.41-26.53c-10.38-10.79-28.62-22.35-57.72-18.68-35.32,4.45-21.5,41-21.5,41s-6.63,15.95-27,12c0,0-1.49,16,10.52,24.87a11.57,11.57,0,0,0,3.25-.73,24.93,24.93,0,0,1-1.85,1.69,30.52,30.52,0,0,0,12,4.3s-9.61,10.92-2.84,21.27c0,0,2.11-1.7,4.22-3.63a2.45,2.45,0,0,1,4.09,1.42c.5,3.13,1.77,6.86,4.87,9.2,6.14,4.62,52.79,17.86,68.84,1.49,0,0,3.86-4.23,4.21-7.09a1.1,1.1,0,0,1,2-.46,12.83,12.83,0,0,1,2.1,6.25s8.84-14.17,1.63-19.74C297.33,192.72,312.71,194,321.57,175.68Z"/>
          <g>
            <path class="cls-6" d="M226.83,266.23c-1,1.36-52.54,74.49-71.54,49-13.52-18.15,31.26-58.37,56.5-76.28Z"/>
            <path class="cls-7" d="M222.09,230.41s-39.69,28.46-44.79,40.22c0,0,17.58,28.34,31.89,42.3L255.37,265Z"/>
            <g>
              <path class="cls-6" d="M178.68,310.3c-3.51,6.82-17.85,18.42-30.43,4.08-6.4-7.3-.55-37.23,11.88-60.75s22.8-53.75,22.8-53.75l17.77,7c-4.08,8.13-5.1,13.48-8.93,24.42C188.09,241.8,181.78,304.28,178.68,310.3Z"/>
              <path class="cls-8" d="M178.68,310.93a.59.59,0,0,1-.29-.07.63.63,0,0,1-.27-.85c1.34-2.61,3.44-17.21,5.31-30.69a.63.63,0,0,1,.71-.54.63.63,0,0,1,.54.72c-2.39,17.33-4.14,28.57-5.43,31.09A.64.64,0,0,1,178.68,310.93Z"/>
              <g>
                <path class="cls-6" d="M206.83,162.34l-24,4.16c-2.07,15.84-.31,29.27.1,35,5.6,1.14,17.49,5.71,17.49,5.71l5.31-2.57Z"/>
                <g>
                  <path class="cls-9" d="M187.42,172.59l4.32,17.53a3.62,3.62,0,0,0,4.53,2.48L241,180.83a3.77,3.77,0,0,0,2.83-4.42l-4.32-17.53a3.62,3.62,0,0,0-4.53-2.47l-44.77,11.77A3.76,3.76,0,0,0,187.42,172.59Z"/>
                  <path class="cls-10" d="M238.52,159.74l1.84,7.45a.83.83,0,0,0-.62,1,.8.8,0,0,0,1,.55l1.84,7.46a3.45,3.45,0,0,1-2.6,4L199.72,190.8a3.31,3.31,0,0,1-4.15-2.27l-4.06-16.43a3.45,3.45,0,0,1,2.6-4l40.27-10.6A3.32,3.32,0,0,1,238.52,159.74Z"/>
                  <polygon class="cls-11" points="209.98 163.88 239.87 180.24 230.12 182.81 200.24 166.44 209.98 163.88"/>
                  <path class="cls-11" d="M222.11,184.91,192.67,168.8a3.66,3.66,0,0,1,1.44-.74l2.29-.61,29.89,16.37Z"/>
                  <path class="cls-10" d="M190.17,179.31l.88,3.56a.86.86,0,0,0,1.08.59.89.89,0,0,0,.68-1.05l-.88-3.57a.86.86,0,0,0-1.08-.59A.9.9,0,0,0,190.17,179.31Z"/>
                  <path class="cls-12" d="M236.88,159.42l1,3.93a.27.27,0,0,0,.34.19.3.3,0,0,0,.22-.34l-1-3.92a.27.27,0,0,0-.34-.19A.29.29,0,0,0,236.88,159.42Z"/>
                  <path class="cls-12" d="M240.89,175.67l.57,2.32a.27.27,0,0,0,.34.19.29.29,0,0,0,.22-.33l-.58-2.33a.27.27,0,0,0-.34-.18A.28.28,0,0,0,240.89,175.67Z"/>
                </g>
                <path class="cls-6" d="M182.9,166.23s-.84,1.36,1.84,3.58c2.29,1.91,6.15,1.25,5.47-1.05a5.36,5.36,0,0,0,4.46,1.08,3.23,3.23,0,0,0,2.27-2.66,5.61,5.61,0,0,0,5.1,1.13c2.3-.73,2.05-3.5,2.05-3.5s1,1.93,3.83,1c2.18-.73,2.29-5.63,1.14-6-2.69-.91-6.07.56-6.36,1.17A8.11,8.11,0,0,0,196,162.5s-4.63-.94-7.61,1.91C188.42,164.41,184.48,163.66,182.9,166.23Z"/>
                <path class="cls-6" d="M225,189.34a2.09,2.09,0,0,0,1.26-3.1c-.68-1.08-2.62-1.54-4.25-1.34-6,.75-8.35,2.31-13,6.53,0,0-3.71-3.94-17.57,1.36-6.1,2.33-1.29,11.63-1.29,11.63s1.71,3.12,13.85,1.44c2.92-.41,5.44-3.8,6.83-5.83s6-5.31,8.73-7.33A26.61,26.61,0,0,1,225,189.34Z"/>
                <path class="cls-8" d="M191.44,193.42a.61.61,0,0,1-.59-.41.64.64,0,0,1,.36-.82c11.56-4.41,16.33-2.5,17.76-1.58,4.32-3.89,6.84-5.58,13-6.34a.64.64,0,0,1,.7.55.63.63,0,0,1-.55.71c-6,.74-8.21,2.34-12.66,6.37a.63.63,0,0,1-.89,0s-3.73-3.51-16.88,1.51A.57.57,0,0,1,191.44,193.42Z"/>
                <path class="cls-6" d="M185.25,171.46c-2,.18-2.41,1.32-2.93,13.67-.21,4.94.14,10.06.35,14.77a8.49,8.49,0,0,0,9.75,8l.12,0c2.43-2.84,5.85-14.76-.76-19.62C189.05,186.28,188.87,171.12,185.25,171.46Z"/>
              </g>
            </g>
          </g>
          <path class="cls-7" d="M343.86,303.3c-.62.35-1.29.78-2,1.25l-.72.49-.74.51-.76.53-1.16.79-.48.33c-.45.31-.89.61-1.33.89l-.78.51-.47.29-.3.18-.25.15-.38.22-.36.2-.32.17-.08,0-.16.08-.16.08-.22.11q-.45.21-.87.36l-.5.2L331,311l-.21.09-.18.09-.37.17-.12.06-.42.21-1.14.6-.37.21-.41.23-1,.59-.42.26-.8.51a5,5,0,0,1-6.34-.74c-.63-.67-1.35-1.42-2.13-2.26l-.8-.86-1.49-1.61-.38-.42c-1-1.08-2-2.23-3.1-3.43l-1-1.1c-1.64-1.86-3.34-3.81-5-5.8-2.31,8.15-4.6,16.68-6.09,23.29a59.27,59.27,0,0,0-1.64,9.91c-.14,7.36-2.34,23.44-1.51,39.3.32,6.23-96.27,5.84-97.13-8-1.13-18.12.15-56.63.29-60.62,0-.22,0-.33,0-.33l-.07-.22c-.14-.44-.29-.88-.44-1.32-2.14-6.33-4.83-13.24-3.54-21.06a2.87,2.87,0,0,1,.05-.31c1.52-8.59,6.6-20.14,14.72-33.79.91-1.53,1.79-2.94,2.68-4.25a37.78,37.78,0,0,1,9.11-9.81l.09-.06.14-.11.11-.08a48.11,48.11,0,0,1,4.69-3,65.16,65.16,0,0,1,11.08-5c-1.27,1.3-2.66,2.77-4.07,4.37l-.38.43c-.26.29-.52.59-.77.89s-.52.6-.77.91-.45.53-.66.8l-.66.81-.65.83-.06.07c-.19.25-.38.51-.58.76l-.33.45c-.11.15-.23.3-.33.45l-.65.9-.23.32c-.14.2-.27.4-.41.59s-.2.31-.31.46l-.52.8-.25.4c-.17.26-.33.53-.5.8l-.24.4-.23.4-.32.56-.3.55-.49.94c-.09.18-.18.36-.26.55s-.15.29-.21.44-.23.49-.33.74c-.33.77-.62,1.54-.86,2.3a1,1,0,0,0-.05.16c-.06.19-.12.38-.17.57l-.09.33a1.24,1.24,0,0,1,0,.16l-.06.24-.12.58c0,.09,0,.17-.05.25l-.06.35-.06.42c0,.11,0,.21,0,.32v0c0,.07,0,.14,0,.21s0,.2,0,.3,0,.19,0,.29v.13a.48.48,0,0,0,0,.12,11,11,0,0,0,0,1.15l0,.3v0l0,.23a2,2,0,0,0,0,.24,2.23,2.23,0,0,0,0,.23c0,.23.1.46.16.69a1.6,1.6,0,0,0,0,.21l.09.27c0,.13.08.25.13.37a5.16,5.16,0,0,0,.21.49,2,2,0,0,0,.1.21c.07.15.14.29.22.43a8.15,8.15,0,0,0,.53.82,2.43,2.43,0,0,0,.14.2l.16.2a3.9,3.9,0,0,0,.33.38l.18.19a4.4,4.4,0,0,0,.37.38l.2.18c.11.1.22.2.34.29l.25.21.27.2a15.65,15.65,0,0,0,3.49,1.89l.51.2c.29.11.6.21.91.31.52.17,1,.33,1.54.47s1,.28,1.51.4,1,.23,1.48.33l.66.13,1.2.21.39.05,1,.13.63.06.44,0,.69,0,.62,0h.14l.6,0H242c.41,0,.83,0,1.23,0h.24l.35,0h.28l.61,0,.32,0,.52-.05.36-.05.54-.07.48-.08.28,0c.37-.06.74-.13,1.1-.21l.6-.13.67-.17.33-.08.53-.15.09,0,.22-.06.48-.15.45-.15h0l.62-.21a30.57,30.57,0,0,0,3.56-1.54l.51-.27.34-.18.64-.35.06,0,.67-.4c.11-.07.23-.13.34-.21l.34-.21c.44-.28.88-.57,1.31-.87l.56-.41.1-.07.31-.23.63-.48.29-.23.5-.41L263,253l.41-.36.35-.31c.32-.28.63-.57.94-.86l.42-.41c.16-.16.33-.32.49-.49l.28-.27.47-.49.46-.49.64-.71.27-.3c.19-.21.38-.43.56-.65.35-.41.69-.82,1-1.24.12-.15.24-.31.37-.46.45-.58.88-1.16,1.3-1.73l.26-.36c.64-.9,1.24-1.8,1.82-2.7.14-.21.27-.43.41-.65.95-1.52,1.8-3,2.57-4.47l.35-.67.28-.55c.11-.22.22-.43.32-.64l.29-.59c.11-.23.23-.46.33-.69a.05.05,0,0,0,0,0l.18-.37.17-.38c.06-.14.13-.27.19-.41l.18-.4.18-.4.34-.79c.06-.13.12-.26.17-.39q.18-.45.36-.87c.05-.13.11-.27.16-.41.51-1.25.89-2.3,1.16-3.08,0,0,0-.1.05-.14.08-.23.15-.43.2-.6l.06-.17c.12-.39.19-.6.19-.6,2.66.79,6.76,2.25,11.23,4.1.48.19,1,.4,1.46.61l2.21,1c1,.44,2,.89,3,1.36,1.69.8,3.36,1.64,5,2.51l.43.24c.7.38,1.37.76,2,1.15l.49.29,1.11.68.24.15.3.2.08,0,.77.5.21.15.31.21.23.17.29.2.49.36.27.2.51.4.61.49.59.51.44.4,0,0,0,0,.09.09.16.16a9.85,9.85,0,0,1,.92,1C325.87,255,342,276.9,345.65,281.78q2.4,3.2,4.45,6.38S351.38,299,343.86,303.3Z"/>
          <path class="cls-13" d="M230.5,259.15c36.81,11.94,50.75-35.31,50.75-35.31l-1-.28a123.82,123.82,0,0,0-30.08-4.35c-3.6-.06-7.77,1.84-9.12,2.16-1,.32-2.12.69-3.23,1.11C227.94,232.61,211.32,252.93,230.5,259.15Z"/>
          <g>
            <path class="cls-6" d="M249.52,383.27c-.77,4.27,29.79,3.07,29.79,3.07l37.44-3.08s26-14,36.39-27.54c11.34-14.79,17.48-22.52,14.74-28.05-2.45-4.94-6.24-21.73-17.77-39.51-1.38-2.12-2.86-4.25-4.46-6.38C342,276.9,325.87,255,314.72,241.06c-3.87-4.83-9.9-5.2-15.1-2.84a18,18,0,0,0-4.51,2.92,16.1,16.1,0,0,0-5.69,11.6c-.34,15,13.63,27,13.63,27s12.26,17.09,22.79,30.59c5.85,7.5,11.16,13.89,13.54,15.64,0,0-23.51,33.86-38.81,46.48-5.69-1.16-19.46-14.12-22.79-14.84s-13.64,2.2-18.72,5.84c-3.35,2.4-9.29,5.23-11.46,10a3.28,3.28,0,0,0,.44,3.75C246,380,247.63,382.65,249.52,383.27Z"/>
            <path class="cls-8" d="M349.39,329.7a.65.65,0,0,1-.39-.13c-.05,0-5-3.83-9.51-3a.63.63,0,1,1-.22-1.24c5.11-.93,10.3,3.08,10.51,3.25a.63.63,0,0,1,.11.89A.62.62,0,0,1,349.39,329.7Z"/>
            <path class="cls-8" d="M249.45,376.71a.64.64,0,0,1-.42-1.11c.11-.09,10.42-9.16,23.78-12.55a.63.63,0,0,1,.77.46.64.64,0,0,1-.46.77c-13.06,3.31-23.14,12.18-23.24,12.27A.66.66,0,0,1,249.45,376.71Z"/>
            <path class="cls-8" d="M251,383a.64.64,0,0,1-.32-1.19c.13-.07,13.11-7.42,22.56-10.51a.64.64,0,0,1,.8.41.63.63,0,0,1-.41.8c-9.32,3-22.19,10.33-22.32,10.4A.61.61,0,0,1,251,383Z"/>
            <path class="cls-8" d="M255,386.92a.65.65,0,0,1,.48-.76,122.71,122.71,0,0,0,17.21-5.32.63.63,0,0,1,.83.33.65.65,0,0,1-.34.84C265.85,385.1,255.06,387.21,255,386.92Z"/>
            <path class="cls-8" d="M302.13,382.56a.63.63,0,0,1-.61-.43,45.86,45.86,0,0,1-1.63-6.67.63.63,0,0,1,.54-.72.64.64,0,0,1,.72.55,44.5,44.5,0,0,0,1.58,6.44.63.63,0,0,1-.6.83Z"/>
          </g>
          <path class="cls-7" d="M252.33,272.91l46.89,48.22c1.49-6.61,3.78-15.14,6.09-23.29,5.32,6.35,11,12.41,14.19,15.81a4.43,4.43,0,0,0,5.68.64,36.86,36.86,0,0,1,7.13-3.81c3.28-1.21,8.27-5.31,11.55-7.18,7.52-4.3,6.25-15.14,6.25-15.14-1.38-2.12-2.86-4.25-4.46-6.38C342,276.9,325.87,255,314.72,241.06a8.92,8.92,0,0,0-.93-1l-.3-.31c-4.54-4.26-13.33-8.62-21-11.79Z"/>
          <g>
            <path class="cls-13" d="M199.24,302.05a.62.62,0,0,1-.6-.44c-2-6.05-5.11-17.11-4-23.21,1.55-8.72,8.47-20.36,16.49-33.83a.63.63,0,0,1,1.09.65c-7.95,13.37-14.82,24.91-16.33,33.4-1.07,6.05,2.43,17.82,4,22.6a.63.63,0,0,1-.4.8Z"/>
            <path class="cls-13" d="M305.31,298.48a.63.63,0,0,1-.47-.22c-7.74-8.85-14.49-21.12-14.56-21.24a.63.63,0,0,1,1.11-.61c.07.12,6.76,12.27,14.4,21a.63.63,0,0,1-.06.89A.61.61,0,0,1,305.31,298.48Z"/>
            <path class="cls-13" d="M296.29,286.34a.71.71,0,0,1-.31-.08,91.06,91.06,0,0,1-9.83-6.94.63.63,0,1,1,.8-1,91.79,91.79,0,0,0,9.66,6.81.64.64,0,0,1-.32,1.19Z"/>
            <path class="cls-13" d="M257.88,310.29a.64.64,0,0,1-.13-1.26c10.74-2.31,17.75-12,17.82-12.06a.62.62,0,0,1,.88-.15.63.63,0,0,1,.15.88c-.3.42-7.36,10.15-18.59,12.57Z"/>
            <path class="cls-13" d="M285.42,344.27a.64.64,0,0,1-.51-1c6.46-8.73,9-24.22,9-24.38a.63.63,0,0,1,.73-.52.63.63,0,0,1,.53.72c-.1.65-2.58,15.95-9.22,24.93A.62.62,0,0,1,285.42,344.27Z"/>
            <path class="cls-13" d="M201,361.06a.63.63,0,1,1,1.22-.35C202.25,361,201.29,362.25,201,361.06Z"/>
            <path class="cls-13" d="M291.29,251.26a.57.57,0,0,1-.18,0,.63.63,0,0,1-.43-.79c2.8-9.39,13.36-11.65,13.8-11.74a.63.63,0,0,1,.26,1.24c-.1,0-10.26,2.21-12.84,10.86A.64.64,0,0,1,291.29,251.26Z"/>
          </g>
          <g id="_6" data-name="6">
            <path class="cls-6" d="M244.58,182.93c.16,5.89.61,15.14,0,23.32-.52,6.71-.47,14.24-3.46,15.12-13.91,18.94-22.86,31-5.41,34.64,26.87,5.6,41.83-31.28,42.11-33.33-7.2-1.59-5.84-39-4.77-45.28Z"/>
            <g>
              <path class="cls-6" d="M291.78,160.12c-4.42,30.45-17.12,19.27-17.12,19.27-10.81,23-36.21,30.87-49.21,25.6-13.69-5.55-16.21-26.77-13.55-38.92a56.55,56.55,0,0,0,1.66-12.47,55.49,55.49,0,0,0-.7-9.68,19.15,19.15,0,0,1,2.84-13.6,20.36,20.36,0,0,1,3.25-3.83,22.32,22.32,0,0,1,4.46-3.19c.7-.39,1.34-.69,1.89-.93,9.56-4.26,37.17,0,37.36,7.33.24,9.39,4.29,17.1,12.52,20.73,3.27,1.45-3.61,11.38,2.6,10.76C279.84,155.45,293,151.59,291.78,160.12Z"/>
              <path class="cls-8" d="M234.36,207.17a24.39,24.39,0,0,1-9.15-1.6c-8-3.24-11.64-11.25-13.28-17.4a50.16,50.16,0,0,1-.65-22.24.63.63,0,0,1,.75-.48.64.64,0,0,1,.49.76c-2.77,12.65.26,33,13.17,38.19,6.49,2.63,16.05,1.79,24.93-2.2a47.34,47.34,0,0,0,23.46-23.08.64.64,0,0,1,.85-.3.63.63,0,0,1,.3.84C266.33,198.59,248,207.17,234.36,207.17Z"/>
              <g>
                <path class="cls-14" d="M230.29,176.37h0c-.66-.06-6.42-.65-7.48-3.44-.45-1.18,0-2.5,1.33-3.93,6.58-7,5.16-18.05,5.14-18.16a.65.65,0,0,1,.55-.72.63.63,0,0,1,.71.54c.07.48,1.52,11.73-5.47,19.2-1,1-1.34,1.93-1.08,2.62.59,1.55,4.25,2.43,6.41,2.62a.64.64,0,0,1-.06,1.27Z"/>
                <path class="cls-15" d="M280,172l-.14,0a.63.63,0,0,1-.5-.66,17.64,17.64,0,0,1,5.74-11.48.64.64,0,0,1,.82,1,17.26,17.26,0,0,0-4.59,7.06,3.74,3.74,0,0,1,3.34-1.54,2.13,2.13,0,0,1,1.76,1.13,2.94,2.94,0,0,1-.31,2.45.62.62,0,0,1-.87.21.64.64,0,0,1-.22-.87,1.73,1.73,0,0,0,.25-1.25c-.12-.26-.51-.37-.8-.41-1.86-.29-3.44,2.79-3.89,4A.63.63,0,0,1,280,172Z"/>
                <g>
                  <path class="cls-12" d="M223.45,183.12s.4,8.3,4.79,8.49,6.67-5.06,7.3-7.57a11.72,11.72,0,0,1-12.09-.92Z"/>
                  <path class="cls-16" d="M228.21,192.25c-2.93,0-5.1-3.09-5.43-6a.63.63,0,1,1,1.26-.15c.26,2.3,2,4.85,4.17,4.85h0c2.55,0,4.83-1.75,6.09-4.61a.64.64,0,0,1,1.16.52c-1.44,3.27-4.22,5.33-7.24,5.36Z"/>
                  <path class="cls-16" d="M228.9,185.83h-.3a6,6,0,0,1-3.22-1.09,8.72,8.72,0,0,0-3.08-1.24.64.64,0,0,1-.5-.75.62.62,0,0,1,.74-.5,9.69,9.69,0,0,1,3.49,1.4,5,5,0,0,0,2.62.92,10.64,10.64,0,0,0,3.25-.53,12.27,12.27,0,0,1,5.06-.55.63.63,0,0,1,.56.7.65.65,0,0,1-.71.56,10.81,10.81,0,0,0-4.57.52A12.4,12.4,0,0,1,228.9,185.83Z"/>
                </g>
              </g>
              <g>
                <circle class="cls-17" cx="221.13" cy="154.3" r="4.25" transform="matrix(0.92, -0.4, 0.4, 0.92, -42.98, 99.98)"/>
                <circle class="cls-17" cx="245.6" cy="156.89" r="4.25" transform="translate(55.57 377.86) rotate(-81.88)"/>
                <path class="cls-18" d="M227.44,146.36a.61.61,0,0,1-.39-.13,8.66,8.66,0,0,0-9.5-.78.63.63,0,0,1-.86-.26.64.64,0,0,1,.26-.86,10,10,0,0,1,5.32-1.2,10.13,10.13,0,0,1,5.56,2.1.64.64,0,0,1,.11.89A.63.63,0,0,1,227.44,146.36Z"/>
                <path class="cls-18" d="M251.89,149.15a.64.64,0,0,1-.39-.14,8.88,8.88,0,0,0-4.85-1.83,8.71,8.71,0,0,0-4.64,1,.63.63,0,0,1-.86-.25.63.63,0,0,1,.25-.86,10,10,0,0,1,5.32-1.2,10.1,10.1,0,0,1,5.56,2.09.63.63,0,0,1,.11.89A.64.64,0,0,1,251.89,149.15Z"/>
              </g>
            </g>
            <g>
              <path class="cls-5" d="M225.9,106.83c-25.9,5.35-11.29,33-11.29,33a52.73,52.73,0,0,1,8.85-2.57l-1.21-4.72,3.24,4.34c7.14-1.23,16.86-1.59,26.19,2.28l1.3-6.39,1.71,7.8a36.74,36.74,0,0,1,7.41,5.12l9.26,5.79,10.5-29.86S258.17,100.18,225.9,106.83Z"/>
              <path class="cls-5" d="M267,126.23s4.11,32.34-18.61,40.35c0,0,16.13,18.31,31.16,4,8.26-7.87,13.82-29.61,13.82-29.61Z"/>
              <path class="cls-5" d="M289.29,138.75s-4.67,34.92-21.61,41.84c0,0,11.73,10.1,19.5-3.31C292,169,298.33,139.5,298.33,139.5Z"/>
            </g>
            <g>
              <path class="cls-18" d="M217.46,135.73a.64.64,0,0,1-.59-.4c-2.55-6.31-2.77-12-.65-16.87a20.68,20.68,0,0,1,10.69-10.27.63.63,0,1,1,.46,1.18c-.1,0-7,2.8-10,9.6-2,4.56-1.75,9.91.67,15.89a.63.63,0,0,1-.35.82A.52.52,0,0,1,217.46,135.73Z"/>
              <path class="cls-18" d="M233.26,134a.64.64,0,0,1-.55-.31c-2.93-4.93-3.8-9.75-2.58-14.32,2.11-7.87,9.59-12.15,9.91-12.33a.64.64,0,0,1,.62,1.11c-.07,0-7.35,4.21-9.31,11.56-1.12,4.22-.3,8.71,2.45,13.33a.63.63,0,0,1-.22.87A.62.62,0,0,1,233.26,134Z"/>
              <path class="cls-18" d="M246,134.14a.63.63,0,0,1-.58-.38c-3-6.67-3.57-12.47-1.6-17.23,2.36-5.71,7.62-8.22,9.77-9l.08,0a.64.64,0,1,1,.48,1.18l-.11,0c-2,.75-6.88,3.07-9.05,8.32-1.83,4.43-1.29,9.89,1.58,16.23a.63.63,0,0,1-.31.84A.65.65,0,0,1,246,134.14Z"/>
              <path class="cls-18" d="M258.8,136.08a.63.63,0,0,1-.61-.46c-2.71-9.74-.19-15.78,2.4-19.13a15.86,15.86,0,0,1,6.41-5,.63.63,0,0,1,.44,1.19,14.84,14.84,0,0,0-5.88,4.64c-3.48,4.53-4.2,10.57-2.15,18a.62.62,0,0,1-.44.78A.5.5,0,0,1,258.8,136.08Z"/>
              <path class="cls-18" d="M260.56,168.82a.64.64,0,0,1-.21-1.24c8.82-3,14.79-8.15,17.75-15.21,6-14.19-2.24-31.7-2.32-31.88a.63.63,0,1,1,1.14-.54,53.36,53.36,0,0,1,3.52,10.85c1.25,5.8,2.07,14.35-1.17,22.06-3.1,7.4-9.33,12.76-18.51,15.92A.48.48,0,0,1,260.56,168.82Z"/>
              <path class="cls-18" d="M272,181.47a.64.64,0,0,1-.57-.35.63.63,0,0,1,.29-.85c11.16-5.51,15.14-18.93,16.52-29.23a94.55,94.55,0,0,0,.28-21.41.64.64,0,0,1,.56-.71.63.63,0,0,1,.7.55,97.3,97.3,0,0,1-.28,21.72,55.52,55.52,0,0,1-4.92,17.31c-3,6-7.13,10.35-12.3,12.91A.71.71,0,0,1,272,181.47Z"/>
              <path class="cls-18" d="M306.1,180H306c-5.47-.58-9.07-5-10.42-12.9a47.72,47.72,0,0,1-.41-11.54.63.63,0,1,1,1.26.13c0,.21-2.13,21.79,9.7,23.05a.64.64,0,0,1-.07,1.27Z"/>
              <path class="cls-18" d="M281.51,211.18a.72.72,0,0,1-.43-.16.64.64,0,0,1-.05-.9c8.52-9.58-.78-20.81-.88-20.92a.63.63,0,0,1,.08-.89.62.62,0,0,1,.89.07,23.47,23.47,0,0,1,3.92,7.31A15,15,0,0,1,282,211,.65.65,0,0,1,281.51,211.18Z"/>
              <path class="cls-18" d="M190.72,162h-.05a.64.64,0,0,1,.1-1.27c1.9.1,15.89-.76,18.7-7.07a.63.63,0,0,1,.83-.32.64.64,0,0,1,.33.84C207.29,161.72,191.77,162,190.72,162Z"/>
            </g>
          </g>
        </g>
      </g>
      <path class="cls-19" d="M200,81.94v-70C96.13,11.92,11.92,96.13,11.92,200S96.13,388.08,200,388.08v-70a118.06,118.06,0,0,1,0-236.12Z"/>
      <g class="cls-20">
        <path class="cls-21" d="M200,388.08c103.87,0,188.08-84.21,188.08-188.08S303.87,11.92,200,11.92v70a118.06,118.06,0,0,1,0,236.12Z"/>
      </g>
      <g>
        <g>
          <path class="cls-17" d="M162.77,388H44.15L29.5,267.31c-.84-7.54,9.36-10,14.29-10.24l98.38,4.18a5.7,5.7,0,0,1,5.8,4.83Z"/>
          <path class="cls-22" d="M171.83,388H53.21L38.56,263.3a5.7,5.7,0,0,1,5.8-6.26H151.23a5.77,5.77,0,0,1,5.8,5Z"/>
        </g>
        <g>
          <path class="cls-23" d="M209.24,346.16s-4.91,11.3-.65,18.28a18.54,18.54,0,0,1-14.07,9.92c-4.18.54-24,4-38.57,4.11-7,.06-13.1-6.19-15-15.27-.15-.69-.27-1.24-.38-1.61-2.36-8.42,1.8-8.8-3.34-19.47-4.14-8.6-.14-16.21-4-24.59-3.59-7.9.58-16.55-1.13-25.48-1.44-7.52,4.05-35.11,16.76-31.51,10,2.83,14.05,22.32,11.72,41.32-.62,5.09-1.11,8,.35,11.42,2.74,6.37-.83,13.52,1.1,18.26s3.64,4.48,1.82,11.17c0,0,4-4.55,9.74-.26,3.55,2.62,8.92-2.87,14,.42C191.63,345.41,206.48,339,209.24,346.16Z"/>
          <g>
            <path class="cls-23" d="M162.38,380c.06,2,.88,4.94,1.39,8H62.25c0-.83.13-1.71.23-2.65a49.68,49.68,0,0,1,.87-5.32c1.74-7.74,4.22-8.69,1.29-16.07-3.48-8.8,2.82-10.57-3.12-21s3.86-7.89-8.4-33.68S50.85,268,63.29,262.69A136.15,136.15,0,0,1,87,255.9l45.67,1.5c8.37,1.75,11.79,1,16.23,3.14-2.6,23.69,10.08,59.74,7,72.89s3.59,14,7,19.44.58,20.48-.42,26A5.76,5.76,0,0,0,162.38,380Z"/>
            <g>
              <path class="cls-24" d="M162.45,379.22h-.06a.37.37,0,0,1-.3-.43l.06-.35c1-5.51,3.65-20.15.41-25.37a20.3,20.3,0,0,0-3.07-3.59,14.82,14.82,0,0,1-4-5.55c-1-2.73-1-6.09.07-10.58,1.43-6.11-.57-17.17-2.9-30-.87-4.8-1.77-9.76-2.53-14.74a.37.37,0,0,1,.31-.42.36.36,0,0,1,.42.31c.76,5,1.66,9.92,2.53,14.72,2.34,12.88,4.36,24,2.89,30.27C154,343,156.93,345.89,160,349a20.71,20.71,0,0,1,3.17,3.72c1.47,2.36,2,6.69,1.52,12.88a128.64,128.64,0,0,1-1.82,13l-.06.34A.38.38,0,0,1,162.45,379.22Z"/>
              <path class="cls-24" d="M135.27,381.77a.35.35,0,0,1-.28-.13c-1.54-1.8-2.75-6.56-3.2-8.52a32.55,32.55,0,0,1-1.08-8.66,8.71,8.71,0,0,1,1.18-2.91c1.15-2.09,2.46-4.47.59-8.34s-2.51-8.33-3.25-13.16c-.43-2.77-.87-5.63-1.54-8.49-1.24-5.29-1.38-11-1.5-16-.06-2.48-.12-4.82-.31-6.84-.44-4.83-.81-10.06-1.17-15.12-.49-7-.95-13.54-1.52-17.47a33.72,33.72,0,0,0-2.91-10.21.38.38,0,0,1,.15-.5.37.37,0,0,1,.5.15,33.72,33.72,0,0,1,3,10.46c.58,3.95,1,10.54,1.53,17.52.35,5.06.72,10.28,1.17,15.1.19,2.05.24,4.4.31,6.89.12,5,.26,10.62,1.48,15.83.68,2.89,1.12,5.77,1.55,8.55.73,4.77,1.42,9.28,3.19,12.95,2,4.21.56,6.88-.61,9a8,8,0,0,0-1.1,2.65,32.34,32.34,0,0,0,1.07,8.39c.91,4,2.05,7.05,3,8.21a.37.37,0,0,1-.28.61Z"/>
              <path class="cls-24" d="M151.84,297.21a.33.33,0,0,1-.21-.07.37.37,0,0,1-.1-.51c1.29-1.92,1.32-8,1.32-8.06a.38.38,0,0,1,.37-.37.37.37,0,0,1,.37.37c0,.26,0,6.37-1.45,8.47A.35.35,0,0,1,151.84,297.21Z"/>
            </g>
            <g>
              <path class="cls-24" d="M119.64,268.19a1.39,1.39,0,0,1-1.56,1.12,1.31,1.31,0,0,1-1.32-1.33,1.41,1.41,0,0,1,1.57-1.12A1.31,1.31,0,0,1,119.64,268.19Z"/>
              <ellipse class="cls-24" cx="122.83" cy="300.29" rx="1.44" ry="1.23"/>
              <ellipse class="cls-24" cx="125.72" cy="336.01" rx="1.44" ry="1.23"/>
              <ellipse class="cls-10" cx="130.17" cy="379.03" rx="1.44" ry="1.23"/>
            </g>
            <path class="cls-6" d="M97.38,224.18l-2.32,24.94c-2.72,7.94,10.89,17.73,23.14,15.55,12.09-2.14,5.94-15,5.94-15-.33-3.13-1.27-21.38-1.2-24Z"/>
            <g>
              <path class="cls-23" d="M118.2,264.67a20.25,20.25,0,0,0-5.37,6.27,17,17,0,0,0-2.06,8.8c-3.33-1.13-10.59-3.69-16.08-10.09A45.09,45.09,0,0,1,87,255.9c2.87-1.54,5.53-5.35,8.07-6.78A28,28,0,0,0,118.2,264.67Z"/>
              <path class="cls-23" d="M130.17,278.33s-5.66-13.08-12-13.66c0,0,3.5-2.22,4.63-4.45,1.66-3.29,2.46-6,1.31-10.51,2,1.15,5.92,6.41,8.52,7.69C134.88,272.33,130.17,278.33,130.17,278.33Z"/>
            </g>
            <g>
              <path class="cls-24" d="M110.77,280.11l-.11,0c-2.89-1-10.56-3.57-16.25-10.2a45.45,45.45,0,0,1-7.64-13.53.37.37,0,0,1,.22-.47.35.35,0,0,1,.47.21A44.69,44.69,0,0,0,95,269.41c5.25,6.12,12.28,8.73,15.42,9.81a17.47,17.47,0,0,1,2.12-8.46,18.52,18.52,0,0,1,5.43-6l0,0a.37.37,0,0,1,.45.58l0,0a18.06,18.06,0,0,0-5.23,5.81,16.77,16.77,0,0,0-2,8.61.37.37,0,0,1-.14.31A.4.4,0,0,1,110.77,280.11Z"/>
              <path class="cls-24" d="M130.17,278.7h0a.38.38,0,0,1-.3-.22c-.05-.12-5.65-12.58-11.66-13.13a.37.37,0,0,1,.07-.74c2.73.25,5.63,2.63,8.62,7.06a46.9,46.9,0,0,1,3.36,5.91,16.72,16.72,0,0,0,1.67-4.2c.8-3,1.53-8.11.45-15.61a.36.36,0,0,1,.31-.41.37.37,0,0,1,.42.31c1.1,7.65.34,12.9-.48,16a14.69,14.69,0,0,1-2.13,4.93A.37.37,0,0,1,130.17,278.7Z"/>
            </g>
          </g>
          <path class="cls-25" d="M116.76,378.89c-13,0-20-1.58-23.58-5.27a10.69,10.69,0,0,1-2.65-4.94A24.37,24.37,0,0,1,90,362c.06-1.71,1-5.46,2.23-10.21,1.86-7.25,4.17-16.27,4.17-21.79s-.67-13.82-2.56-19.87c-1.25-4-.86-10.65-.52-16.5.18-3.19.36-6.22.26-8.54-.26-6.24-2.08-11.53-4-17.12-.11-.34-.23-.67-.34-1a32.88,32.88,0,0,1-1.75-9.63,38,38,0,0,1,1.08-10.29c1.63-6.83,2.68-33.62,2.69-33.89a.37.37,0,1,1,.74,0c0,1.11-1.07,27.14-2.72,34a35,35,0,0,0,.66,19.51c.11.33.23.66.34,1,1.95,5.64,3.78,11,4,17.33.1,2.36-.08,5.4-.27,8.62-.33,5.78-.72,12.34.5,16.23,1.91,6.13,2.59,14.4,2.59,20.09s-2.32,14.69-4.19,22c-1.16,4.52-2.16,8.42-2.21,10-.18,5.42.71,8.73,3,11.08,3.42,3.53,10.31,5,23.05,5a.37.37,0,0,1,.37.37A.38.38,0,0,1,116.76,378.89Z"/>
          <g>
            <g>
              <path class="cls-6" d="M159.13,340.36s7.29,2.66,10.7,5.73,10.06,16.1,10.24,17.54a1.74,1.74,0,0,1-3,1.16,47,47,0,0,1-3.12-6.23l-5.88-7S152.72,348.68,159.13,340.36Z"/>
              <path class="cls-26" d="M180.07,364a.37.37,0,0,1-.36-.32,52.28,52.28,0,0,0-3.87-8c-2.56-4.62-4.84-8-6.26-9.29-3.32-3-10-5.44-10.05-5.46a.37.37,0,0,1-.23-.48.38.38,0,0,1,.48-.22c.28.1,6.87,2.52,10.3,5.61,2,1.83,4.88,6.72,6.41,9.48,2.07,3.76,3.85,7.48,3.95,8.29a.37.37,0,0,1-.32.41Z"/>
              <path class="cls-6" d="M157.61,342.27s2.39.35,6,1.08c2.69.55,6,.92,6.75,1.43,1.67,1.19,5.46,10.31,5.94,12.52s1.92,7.66,1.78,8.81-1.74,1.74-2.91.53-2.79-8.9-2.79-8.9l-3.92-6.84S154,355.18,157.61,342.27Z"/>
              <path class="cls-6" d="M155.55,346.41s10.22.4,11.14,1.67,8.74,18.52,9.23,19.12-2.34,2.63-4.17-.68c-2-3.62-2.66-4.95-2.66-4.95a56.88,56.88,0,0,1-4.27-6.51s-7.31-.76-9.36-2.88S155.55,346.41,155.55,346.41Z"/>
              <path class="cls-6" d="M170,368.79s-1.2,3.16-5.22-1.65a60,60,0,0,0-5.52-6.1l-5.07-2.7s-7.44,9-15.76,5.69c-2,0-4.1-2.16-4.21-7.22-.13-6,2.79-7.89,4.05-9.51a91.87,91.87,0,0,1,10.94-4.8c4.7-1.53,8.78-2.74,10.1-2.07l-.79,2.89-2.33,9.12s4,1.85,5.24,3.33,4.24,5.89,5.87,8C168.75,365.71,170.74,367.41,170,368.79Z"/>
              <path class="cls-26" d="M159.11,354.43a.41.41,0,0,1-.18-.05L156,352.76a.37.37,0,0,1,.35-.65l2.95,1.62a.37.37,0,0,1,.14.5A.35.35,0,0,1,159.11,354.43Z"/>
              <path class="cls-26" d="M175.82,367.4a.37.37,0,0,1-.29-.13c-.22-.28-1.36-2.57-3.89-7.74-2.21-4.5-5-10.09-5.45-10.76-.11-.16-.77-.72-4.37-1.34-2-.34-3.86-.52-3.88-.52a.37.37,0,0,1,.07-.74s1.93.19,3.94.53c3.74.64,4.55,1.24,4.84,1.63.53.73,3.06,5.89,5.51,10.87,1.76,3.59,3.57,7.29,3.81,7.6a.37.37,0,0,1-.06.52A.38.38,0,0,1,175.82,367.4Z"/>
              <path class="cls-26" d="M178,365.73a.37.37,0,0,1-.37-.33c-.16-1.34-.76-3.86-1.24-5.88-.2-.85-.38-1.59-.5-2.14-.51-2.31-4.3-11.23-5.79-12.3-.43-.31-4.28-1-6.83-1.43-1.3-.23-2.52-.45-3.34-.61a.37.37,0,0,1,.15-.73c.81.17,2,.38,3.31.61,4,.7,6.61,1.18,7.14,1.56,1.06.76,2.67,4.1,3.53,6a47.75,47.75,0,0,1,2.55,6.71c.12.55.29,1.28.5,2.13.48,2,1.09,4.59,1.25,6a.36.36,0,0,1-.32.41Z"/>
            </g>
            <path class="cls-19" d="M138.4,364l-9.18,2.29c-4.51-7,.69-18.27.69-18.27l8.33-.75C135.42,349.07,133.9,364.06,138.4,364Z"/>
            <path class="cls-24" d="M129.22,366.69a.36.36,0,0,1-.31-.17,12.45,12.45,0,0,1-1.85-6,22.64,22.64,0,0,1,.45-6.05,32.86,32.86,0,0,1,2.06-6.6.4.4,0,0,1,.3-.22l7.6-.69a.38.38,0,0,1,.4.34.37.37,0,0,1-.33.4l-7.38.67a32.82,32.82,0,0,0-1.93,6.26c-.64,3.23-.95,7.77,1.16,11.24l8-2a.37.37,0,1,1,.18.72l-8.23,2.05Z"/>
            <path class="cls-23" d="M129.91,348.05s-5.2,11.29-.69,18.27a19.46,19.46,0,0,1-14.89,9.93c-4.42.54-25.43,4-40.82,4.1-7.37.07-13.86-6.18-15.88-15.26-.16-.69-.29-1.24-.4-1.61-2.5-8.42,1.9-8.8-3.54-19.47-4.38-8.61-.15-16.21-4.18-24.59-3.81-7.9.6-16.55-1.2-25.48-1.52-7.52,1.4-26.16,14.64-31.1,12.93-4.81,18,21.91,15.5,40.91-.66,5.09-1.18,8,.37,11.42,2.89,6.37-.88,13.52,1.16,18.26s3.85,4.48,1.93,11.17c0,0,4.17-4.55,10.3-.26,3.76,2.62,9.45-2.87,14.87.41C111.27,347.3,127,340.86,129.91,348.05Z"/>
            <g>
              <path class="cls-24" d="M73.4,380.72a13.92,13.92,0,0,1-7.4-2.19,18.49,18.49,0,0,1-5.83-6,.37.37,0,1,1,.63-.38c3.09,5,7.73,7.93,12.71,7.88,12.69-.1,29.16-2.46,37.08-3.59l3.7-.51a19.29,19.29,0,0,0,11.25-5.33,17.49,17.49,0,0,0,3.25-4.21,12.67,12.67,0,0,1-1.73-5.79,22.64,22.64,0,0,1,.45-6.05,33.3,33.3,0,0,1,2-6.45c-1.77-4-8.13-3.31-13.74-2.7-3.83.41-7.14.77-8.87-.28-2.76-1.67-5.57-1-8.29-.29-2.42.61-4.71,1.18-6.6-.14-2.43-1.7-4.82-2.19-7.09-1.44a7,7,0,0,0-2.73,1.65.39.39,0,0,1-.46.07.38.38,0,0,1-.17-.43c1.39-4.83.82-5.84-.44-8a26.75,26.75,0,0,1-1.47-2.88c-1-2.26-.68-5-.37-7.9.36-3.43.74-7-.79-10.35s-1.13-6.05-.52-10.65q.06-.46.12-1c0-.16.51-4.77.48-7.33a.37.37,0,1,1,.74,0c0,2.64-.46,7.22-.48,7.42h0c0,.33-.09.65-.13,1-.59,4.47-.94,7.17.46,10.25,1.61,3.55,1.21,7.37.85,10.74-.3,2.8-.58,5.45.32,7.53a26.54,26.54,0,0,0,1.43,2.81c1.18,2.06,1.88,3.27.82,7.47a7.79,7.79,0,0,1,2.07-1.05c1.74-.58,4.49-.78,7.78,1.52,1.62,1.13,3.65.62,6,0,2.72-.68,5.82-1.45,8.84.38,1.52.92,4.86.56,8.41.17,5.94-.64,12.68-1.36,14.57,3.3a.39.39,0,0,1,0,.3,32.45,32.45,0,0,0-2,6.45c-.65,3.3-1,8,1.3,11.46a.36.36,0,0,1,0,.36,17.77,17.77,0,0,1-3.47,4.58,20.08,20.08,0,0,1-11.7,5.56c-.77.09-2,.27-3.68.51-7.94,1.13-24.45,3.48-37.19,3.59Z"/>
              <path class="cls-24" d="M75.94,352.62a.33.33,0,0,1-.19-.06.35.35,0,0,1-.13-.5,43.51,43.51,0,0,1,6-7.73.37.37,0,0,1,.51.53,43,43,0,0,0-5.91,7.58A.38.38,0,0,1,75.94,352.62Z"/>
              <path class="cls-27" d="M59.9,348.79a.36.36,0,0,1-.27-.12c-2-2.3-6.1-10.91-6.27-11.27a.36.36,0,0,1,.18-.49.37.37,0,0,1,.49.17c0,.09,4.19,8.88,6.15,11.1a.38.38,0,0,1,0,.52A.38.38,0,0,1,59.9,348.79Z"/>
              <path class="cls-24" d="M53.69,322.94a.38.38,0,0,1-.26-.11c-2.65-2.64-3.56-7.26-3.59-7.45a.38.38,0,0,1,.29-.44.38.38,0,0,1,.43.3s.91,4.59,3.39,7.07a.36.36,0,0,1,0,.52A.36.36,0,0,1,53.69,322.94Z"/>
              <path class="cls-24" d="M78.45,304.12a.37.37,0,0,1-.32-.18.38.38,0,0,1,.13-.51c2.36-1.45,4-7.1,4-7.16a.37.37,0,0,1,.71.2c-.07.25-1.73,6-4.34,7.59A.33.33,0,0,1,78.45,304.12Z"/>
              <path class="cls-24" d="M128.38,352.8a.51.51,0,0,1-.17,0,20.06,20.06,0,0,0-6.64-1.54.37.37,0,0,1-.36-.38.38.38,0,0,1,.39-.36,20.73,20.73,0,0,1,6.94,1.61.38.38,0,0,1,.17.5A.38.38,0,0,1,128.38,352.8Z"/>
              <path class="cls-24" d="M120.61,363.48a.37.37,0,0,1-.37-.33.38.38,0,0,1,.32-.41,17,17,0,0,0,6.67-2.33.37.37,0,0,1,.42.61,17.79,17.79,0,0,1-7,2.46Z"/>
            </g>
            <ellipse class="cls-24" cx="134.19" cy="363.11" rx="1.44" ry="1.23"/>
          </g>
          <g>
            <g>
              <path class="cls-28" d="M93.36,211.3s33.09,32,52.2-21.58c-3.37-1.53-4.19-4.74-5.12-4.92-6.06-1.17-4.52-2.83-11.28-3.33a12.05,12.05,0,0,1-6.68-2.41c-1.63-1.24-7.63-1.17-10.53-3.35-4.87-4.18-16-3.35-19.28,2.51C89,186.37,87.37,201.82,93.36,211.3Z"/>
              <path class="cls-6" d="M90.32,216.18a33.89,33.89,0,0,0,6.92,7.69s6.13,27.07,28,29.67a15.18,15.18,0,0,0,3.75,0c.39-.05.77-.12,1.14-.19,4.41-.43,7.68-4,9.92-7.84.38-.62.74-1.26,1.07-1.91A53,53,0,0,0,145.33,231a47.82,47.82,0,0,0,1.2-14c-.2-5.62,4.51-15.9,4.68-16.19,1.33-6.17-7.87-13.53-15.71-16.21s-19.66,4.1-19.66,4.1c-1.44.9-5,12.11-5.63,13.83a17.53,17.53,0,0,0-6.77,9.9l-1.63-.92s-4.67-8.34-8.66-6.34Z"/>
              <path class="cls-26" d="M125.26,253.91h-.05a27,27,0,0,1-13.79-5.81,37.6,37.6,0,0,1-8.69-10.18,53.74,53.74,0,0,1-5.85-14,.37.37,0,0,1,.28-.44.37.37,0,0,1,.44.28,53.19,53.19,0,0,0,5.77,13.77c3.85,6.39,10.78,14.29,21.93,15.62a.36.36,0,0,1,.32.41A.36.36,0,0,1,125.26,253.91Z"/>
              <path class="cls-6" d="M101.81,211.51s-1.56-10.64-8.87-7.51c-5.63,2.41-5.64,21,4.3,19.87Z"/>
              <path class="cls-28" d="M149.65,204.27s10.33-8.11,5.82-16.44c-1.63-3-5.91-5.74-11.82,1.14C143.65,189,150.68,194,149.65,204.27Z"/>
              <path class="cls-28" d="M94.27,176.24c3.82-.47,11.46,3.55,16.34,7.73,2.89,2.18,3.6,3.5,5.23,4.73a14.72,14.72,0,0,0,7.38,3.24c6.76.5,9-6.36,15.09-5.19a59.39,59.39,0,0,1,7.25,3l0-.08s2.9-16.38-16.76-23.27S95.41,173.73,94.27,176.24Z"/>
            </g>
            <circle class="cls-29" cx="141.56" cy="215.83" r="3.1"/>
            <circle class="cls-29" cx="123.94" cy="212.43" r="3.1"/>
            <path class="cls-29" d="M146.27,210.83a.74.74,0,0,1-.52-.22,6,6,0,0,0-6.5-1.41.74.74,0,0,1-.95-.43.73.73,0,0,1,.42-1,7.53,7.53,0,0,1,8.08,1.75.75.75,0,0,1,0,1.05A.73.73,0,0,1,146.27,210.83Z"/>
            <path class="cls-29" d="M128.62,207.56a.74.74,0,0,1-.53-.22,6.08,6.08,0,0,0-2.88-1.64,6.17,6.17,0,0,0-3.61.23.74.74,0,0,1-1-.42.76.76,0,0,1,.43-1,7.72,7.72,0,0,1,4.49-.29,7.47,7.47,0,0,1,3.58,2.05.74.74,0,0,1-.52,1.25Z"/>
            <path class="cls-26" d="M97.49,217.67h0a.37.37,0,0,1-.34-.35c-.06-1-.53-3.5-1.94-3.7a.83.83,0,0,0-.73.14,1.35,1.35,0,0,0-.12,1,.37.37,0,0,1-.27.45.36.36,0,0,1-.44-.27,2,2,0,0,1,.28-1.69,1.46,1.46,0,0,1,1.38-.38,2.91,2.91,0,0,1,2.12,2.17,12.66,12.66,0,0,0-1.72-6.43.37.37,0,0,1,.11-.51.36.36,0,0,1,.51.11,12.77,12.77,0,0,1,1.55,9.16A.36.36,0,0,1,97.49,217.67Z"/>
            <path class="cls-12" d="M133.63,236.25s-2.06,5.7-5.17,4.88-3.55-5-3.45-6.85a8.54,8.54,0,0,0,8.62,2Z"/>
            <path class="cls-26" d="M129.23,241.62a2.89,2.89,0,0,1-.88-.14,5.93,5.93,0,0,1-3.83-5.21.37.37,0,0,1,.32-.41.36.36,0,0,1,.41.32,5.16,5.16,0,0,0,3.32,4.6c1.56.5,3.37-.9,4.09-2.52a.37.37,0,0,1,.49-.19.36.36,0,0,1,.18.48,5.64,5.64,0,0,1-2,2.4A3.84,3.84,0,0,1,129.23,241.62Z"/>
            <path class="cls-26" d="M130.52,237.08a3.78,3.78,0,0,1-1-.15,8.13,8.13,0,0,1-2.38-1.17A8.28,8.28,0,0,0,124,234.4a.36.36,0,0,1-.3-.42.36.36,0,0,1,.43-.3,8.63,8.63,0,0,1,3.37,1.46,7.72,7.72,0,0,0,2.19,1.08,3.65,3.65,0,0,0,2.06-.08,7.37,7.37,0,0,1,2.71-.22.38.38,0,0,1,.32.41.37.37,0,0,1-.41.33,6.34,6.34,0,0,0-2.44.2A5.77,5.77,0,0,1,130.52,237.08Z"/>
            <path class="cls-26" d="M133.2,229.47h-.31a14.48,14.48,0,0,1-2.36-.26.37.37,0,0,1,.15-.73c1.13.24,4.26.61,5.12-.5.36-.45.3-1.18-.18-2.15a19.26,19.26,0,0,1-2-8.63,14.33,14.33,0,0,1,.45-3.63.38.38,0,0,1,.47-.24.37.37,0,0,1,.24.46,13.09,13.09,0,0,0-.42,3.45,18.62,18.62,0,0,0,1.94,8.27c.61,1.24.65,2.23.1,2.93S134.77,229.47,133.2,229.47Z"/>
          </g>
          <g>
            <ellipse class="cls-25" cx="95.41" cy="212.87" rx="9.11" ry="4.63" transform="translate(-125.32 288.36) rotate(-84.74)"/>
            <path class="cls-25" d="M88.9,247.51h-.08a.36.36,0,0,1-.27-.44c1.63-6.83,2.68-33.62,2.69-33.89a.37.37,0,1,1,.74,0c0,1.11-1.07,27.14-2.72,34A.36.36,0,0,1,88.9,247.51Z"/>
            <g>
              <path class="cls-30" d="M96.7,213c-.28,3.12-1.64,5.55-3,5.42l-2.07-.19a1.45,1.45,0,0,0,1.08-.4A4.83,4.83,0,0,0,93.9,216a11.36,11.36,0,0,0,.74-3.17,11,11,0,0,0-.15-3.25,4.88,4.88,0,0,0-.85-2,1.46,1.46,0,0,0-1-.59l2.07.19C96.1,207.24,97,209.87,96.7,213Z"/>
              <path class="cls-25" d="M94.64,212.8A11.36,11.36,0,0,1,93.9,216a4.83,4.83,0,0,1-1.21,1.85,1.45,1.45,0,0,1-1.08.4c-1.39-.13-2.28-2.76-2-5.88s1.64-5.55,3-5.42a1.46,1.46,0,0,1,1,.59,4.88,4.88,0,0,1,.85,2A11,11,0,0,1,94.64,212.8Z"/>
            </g>
            <path class="cls-30" d="M94.07,220.77a.37.37,0,0,1,0-.73,2.47,2.47,0,0,0,1.75-.87c1.78-1.93,2.27-6.5,2.15-8.92-.2-4.32-2.41-5-2.5-5a.37.37,0,0,1,.18-.72c.12,0,2.84.77,3.06,5.67.12,2.65-.4,7.35-2.35,9.46a3.18,3.18,0,0,1-2.26,1.1Z"/>
            <path class="cls-25" d="M91.3,210.56c1.77,5.25,10.92,26.46,32.6,37.8a.84.84,0,0,1,.35,1.14l-.35.7c-21.19-10.35-31.21-30.86-33.48-36.68a8.12,8.12,0,0,1-.2-2.83C90.44,210.37,91.21,210.28,91.3,210.56Z"/>
            <path class="cls-30" d="M90.92,210.83c1.93,5.2,11,26.75,32.7,38.08a.83.83,0,0,1,.35,1.14l-.07.15a.85.85,0,0,1-1.1.36c-21.19-10.35-30.39-30.67-32.65-36.49a4.53,4.53,0,0,1-.07-3.1l0-.13A.43.43,0,0,1,90.92,210.83Z"/>
            <path class="cls-25" d="M136.71,165.82a45.44,45.44,0,0,0-19.25,1.76c-5.65,1.79-10.56,4.68-13.84,8.37-9,10.17-11.68,31.11-11.79,32s-.1,1.26.33,1.39a10.74,10.74,0,0,0,1.18.2c.6.08,1.11-.56,1.18-1.22,0-.21,2.66-21,11.1-30.46,2.93-3.31,7.47-5.93,12.7-7.58a43.41,43.41,0,0,1,18.09-1.68c8.46,1.07,10.47,10.59,13.83,16,.07.11-.15-.08,1.1.05C151.18,184.14,154.3,168,136.71,165.82Z"/>
            <path class="cls-30" d="M135.86,165.07c-6.46-1.32-13.3-.13-19.25,1.76-5.65,1.79-10.56,4.68-13.84,8.37-9,10.17-11.68,31.66-11.79,32.57a1.42,1.42,0,0,0,1.18,1.59,1.22,1.22,0,0,0,.33,0,1.37,1.37,0,0,0,1.18-1.22c0-.21,2.66-21.51,11.1-31,2.93-3.31,7.47-5.92,12.7-7.58a40.51,40.51,0,0,1,18.09-1.67c20.08,3.12,14.68,16.79,14.68,16.79l1.1.05C151.26,184.25,156.14,169.21,135.86,165.07Z"/>
          </g>
          <path class="cls-28" d="M146.65,191.25c1.32-1.43,5.48-4.31,5.6-10.37a14.14,14.14,0,0,0-1.71-6.87c-5.86-9.79-21.22-11.58-25.57-7.14-6.49,6.63-22.83,9.9-14.36,17.1,2.89,2.18,3.6,3.5,5.23,4.73a14.72,14.72,0,0,0,7.39,3.24c6.75.5,9-6.36,15.08-5.19a18.35,18.35,0,0,1,4.89,1.84C144.62,189.86,146.31,190.4,146.65,191.25Z"/>
          <path class="cls-28" d="M110.61,184c2.89,2.18,3.6,3.5,5.23,4.73a14.72,14.72,0,0,0,7.38,3.24c6.76.5,9-6.36,15.09-5.19a59.39,59.39,0,0,1,7.25,3l0-.08s4-25.12-16.76-23.27C108.63,168.17,105.73,179.79,110.61,184Z"/>
          <g>
            <path class="cls-29" d="M123.94,192.34l-.74,0a14.77,14.77,0,0,1-7.58-3.31,16.17,16.17,0,0,1-1.87-1.73,27,27,0,0,0-3.37-3,.37.37,0,0,1-.07-.51.37.37,0,0,1,.52-.08,27.56,27.56,0,0,1,3.45,3.09,15.4,15.4,0,0,0,1.78,1.65,14,14,0,0,0,7.19,3.16c3.22.24,5.41-1.27,7.52-2.74s4.4-3.06,7.61-2.44a18.2,18.2,0,0,1,5,1.88.37.37,0,0,1,.14.51.38.38,0,0,1-.51.13,17.93,17.93,0,0,0-4.77-1.8c-2.9-.56-4.92.84-7.05,2.33S127,192.34,123.94,192.34Z"/>
            <path class="cls-29" d="M123.52,186.87c-3,0-6.07-1.24-9.51-3.76a.37.37,0,0,1,.44-.59c8,5.88,13,3.48,16.73.35a25.19,25.19,0,0,0,2.9-3.16c2.82-3.42,6.33-7.67,11-5.93a5.11,5.11,0,0,1,3.33,3.23c1.29,4-2.27,9.38-2.42,9.61a.36.36,0,0,1-.51.1.37.37,0,0,1-.11-.51c0-.05,3.51-5.36,2.33-9a4.41,4.41,0,0,0-2.88-2.76c-4.21-1.56-7.39,2.3-10.2,5.71a25.2,25.2,0,0,1-3,3.26,13.22,13.22,0,0,1-6.85,3.35A10.86,10.86,0,0,1,123.52,186.87Z"/>
            <path class="cls-29" d="M116.29,179.68c-1.43,0-3-.16-4.6-.32-1.48-.15-3-.31-4.65-.36a.37.37,0,0,1-.35-.38.36.36,0,0,1,.38-.36c1.65.05,3.2.21,4.7.36,5.64.57,10.1,1,13.77-5.06,1.86-3.07,4-5,6.29-5.63a7.47,7.47,0,0,1,6.4,1.33c.53.41.66.6.57.85a.39.39,0,0,1-.46.23.36.36,0,0,1-.25-.23,6.9,6.9,0,0,0-4.73-1.69c-2.64.14-5.06,2-7.18,5.52-1.8,3-3.88,4.68-6.55,5.36A13.11,13.11,0,0,1,116.29,179.68Z"/>
            <path class="cls-29" d="M151,200.56a.3.3,0,0,1-.22-.08.35.35,0,0,1-.07-.51c.05-.07,5.29-6.91,2.39-10.28-2.16-2.52-4.87-.44-5-.35a.36.36,0,0,1-.51-.06.37.37,0,0,1,.06-.52,5.61,5.61,0,0,1,2-.93,3.85,3.85,0,0,1,4,1.37c1.38,1.61,1.4,4.08,0,7.13a21.66,21.66,0,0,1-2.41,4.09A.37.37,0,0,1,151,200.56Z"/>
          </g>
        </g>
        <g>
          <rect class="cls-30" x="114.64" y="377.04" width="147.71" height="2.94" rx="1.47"/>
          <rect class="cls-25" x="114.64" y="377.04" width="52.93" height="2.94" rx="1.47"/>
          <path class="cls-25" d="M168.68,377.05h90.71a4.48,4.48,0,0,0,4.38-2.92l22.28-72.38a2.38,2.38,0,0,0-2.55-2.87H192.8a4.46,4.46,0,0,0-4.38,2.91l-22.28,72.39A2.37,2.37,0,0,0,168.68,377.05Z"/>
          <ellipse class="cls-31" cx="229.98" cy="339.14" rx="9.82" ry="7.72" transform="translate(-174.63 403.93) rotate(-64.95)"/>
          <path class="cls-30" d="M167.92,375.6l-.1,0a.36.36,0,0,1-.25-.46l21.84-71.64a4.74,4.74,0,0,1,4.64-3.15H283a.36.36,0,0,1,.37.37.37.37,0,0,1-.37.37h-88.9a4,4,0,0,0-3.94,2.62l-21.83,71.65A.39.39,0,0,1,167.92,375.6Z"/>
        </g>
        <g>
          <g>
            <path class="cls-32" d="M40.2,371.48s5-17.45-1.68-57.58C38.52,313.9,28.3,337.79,40.2,371.48Z"/>
            <path class="cls-32" d="M42,368.88s2.23-23.51-15.36-53.12C26.63,315.76,27.23,336.3,42,368.88Z"/>
            <path class="cls-18" d="M31.52,310.22s13.47,29,9.19,53.07C40.71,363.29,28.19,343.21,31.52,310.22Z"/>
            <path class="cls-32" d="M39.89,361.9a.38.38,0,0,1-.37-.31L32,314.89a.37.37,0,0,1,.73-.12l7.57,46.7a.38.38,0,0,1-.3.43Z"/>
            <path class="cls-5" d="M39,368.82S49.69,356.26,45,317C45,317,37.88,330.92,39,368.82Z"/>
            <path class="cls-18" d="M40.13,365h0a.36.36,0,0,1-.33-.4l4.32-39.79a.38.38,0,0,1,.41-.33.38.38,0,0,1,.33.41l-4.33,39.79A.37.37,0,0,1,40.13,365Z"/>
            <path class="cls-5" d="M21.61,322.11s18,19.29,19.91,46.31C41.52,368.42,26.38,357.32,21.61,322.11Z"/>
            <path class="cls-18" d="M40.13,365a.38.38,0,0,1-.34-.22L23.6,328.09a.37.37,0,1,1,.68-.3l16.18,36.69a.36.36,0,0,1-.18.48A.28.28,0,0,1,40.13,365Z"/>
          </g>
          <g>
            <path class="cls-32" d="M47.38,371.48s-5-17.45,1.68-57.58C49.06,313.9,59.28,337.79,47.38,371.48Z"/>
            <path class="cls-32" d="M45.59,368.88S43.36,345.37,61,315.76C61,315.76,60.36,336.3,45.59,368.88Z"/>
            <path class="cls-18" d="M56.06,310.22s-13.46,29-9.19,53.07C46.87,363.29,59.4,343.21,56.06,310.22Z"/>
            <path class="cls-32" d="M47.7,361.9h-.06a.39.39,0,0,1-.31-.43l7.58-46.7a.36.36,0,0,1,.42-.3.36.36,0,0,1,.3.42l-7.57,46.7A.37.37,0,0,1,47.7,361.9Z"/>
            <path class="cls-18" d="M48.61,368.82s-10.72-12.56-6-51.79C42.61,317,49.7,330.92,48.61,368.82Z"/>
            <path class="cls-18" d="M47.46,365a.37.37,0,0,1-.37-.33l-4.32-39.79a.36.36,0,0,1,.32-.41.37.37,0,0,1,.41.33l4.33,39.79a.37.37,0,0,1-.33.4Z"/>
            <path class="cls-5" d="M66,322.11S48,341.4,46.07,368.42C46.07,368.42,61.21,357.32,66,322.11Z"/>
            <path class="cls-18" d="M47.46,365a.28.28,0,0,1-.15,0,.36.36,0,0,1-.19-.48l16.19-36.69a.37.37,0,0,1,.49-.19.37.37,0,0,1,.18.49L47.8,364.78A.39.39,0,0,1,47.46,365Z"/>
          </g>
          <g>
            <path class="cls-32" d="M44.74,377.42s-7.36-16.59-6.36-57.26C38.38,320.16,51.83,342.39,44.74,377.42Z"/>
            <path class="cls-32" d="M42.61,375.1s-5.49-23,7.8-54.75C50.41,320.35,52.69,340.77,42.61,375.1Z"/>
            <path class="cls-5" d="M44.8,315.54s-9.3,30.58-1.7,53.84C43.1,369.38,52.7,347.75,44.8,315.54Z"/>
            <path class="cls-32" d="M43.67,367.89h0a.37.37,0,0,1-.36-.38l1-47.29a.35.35,0,0,1,.37-.36.37.37,0,0,1,.37.37l-1,47.3A.37.37,0,0,1,43.67,367.89Z"/>
            <path class="cls-5" d="M45.59,374.61s-12.36-10.94-13.16-50.44C32.43,324.17,41.39,336.93,45.59,374.61Z"/>
            <path class="cls-18" d="M43.86,371a.36.36,0,0,1-.35-.28l-9.83-38.79a.36.36,0,0,1,.26-.45.37.37,0,0,1,.45.26l9.83,38.8A.37.37,0,0,1,44,371Z"/>
            <path class="cls-5" d="M56.27,325.94S41.16,347.54,43,374.57C43,374.57,56.46,361.47,56.27,325.94Z"/>
            <path class="cls-18" d="M43.86,371h-.1a.37.37,0,0,1-.25-.46l10.91-38.59a.37.37,0,0,1,.46-.25.36.36,0,0,1,.25.45L44.22,370.72A.38.38,0,0,1,43.86,371Z"/>
          </g>
          <g>
            <path class="cls-33" d="M56.49,360.1v17.3c0,1.42-1.47,2.59-3.27,2.59H34.87c-1.8,0-3.28-1.17-3.28-2.59V360.1a.5.5,0,0,1,0-.12.92.92,0,0,1,1-.65h23a.93.93,0,0,1,1,.65A.49.49,0,0,1,56.49,360.1Z"/>
            <path class="cls-34" d="M56.49,361.28v4.82c-3.2-.48-6.62-.92-10.25-1.25-5.25-.49-10.16-.71-14.65-.76v-2.81a.36.36,0,0,1,0-.11Z"/>
            <rect class="cls-33" x="29.52" y="357.18" width="29.04" height="6.42" rx="3.21"/>
          </g>
        </g>
        <path class="cls-35" d="M283.92,384a4,4,0,0,1-4,4H5.88a4,4,0,0,1,0-8H279.93A4,4,0,0,1,283.92,384Z"/>
        <path class="cls-12" d="M180.46,123.1c-2.29-4.85-7.3-9-14-11.83a56.28,56.28,0,0,0-41.17,0,33.68,33.68,0,0,0-8.63,5.15c-4.23,3.56-6.72,7.92-6.72,12.63,0,7,5.43,13.15,13.88,17.12v9.74a.11.11,0,0,0,.19.08l7.15-7.15a56.78,56.78,0,0,0,14.71,1.89c9.47,0,18.07-2.21,24.49-5.81,4.73-2.66,8.26-6.07,10.08-9.92a13.61,13.61,0,0,0,0-11.9Zm-47.27,10.61a3.67,3.67,0,1,1,3.66-3.66A3.66,3.66,0,0,1,133.19,133.71Zm12.7,0a3.67,3.67,0,1,1,3.67-3.66A3.66,3.66,0,0,1,145.89,133.71Zm12.71,0a3.67,3.67,0,1,1,3.67-3.66A3.66,3.66,0,0,1,158.6,133.71Z"/>
      </g>
    </g>
  </g>
</svg>
