<svg id="Capa_1" data-name="Capa 1" xmlns="http://www.w3.org/2000/svg" width="140" height="140" viewBox="0 0 140 140">
  <defs>
    <style>
      .cls-1 {
        fill: #fff;
        stroke: #2f237d;
        stroke-miterlimit: 10;
        stroke-width: 6px;
      }

      .cls-2 {
        fill: #0f0140;
      }
    </style>
  </defs>
  <circle class="cls-1" cx="70" cy="70" r="60"/>
  <g>
    <path class="cls-2" d="M64.84,94.3l-7.35-2.45a1.59,1.59,0,0,1-1.09-1.51V87.56A10.41,10.41,0,0,0,60.9,79V77.81a4.42,4.42,0,0,0,1.5-3.31v-6A4.41,4.41,0,0,0,58,64.1H47.49a4.43,4.43,0,0,0-3.3,1.5,5.92,5.92,0,0,0-5.6,5.9v3a4.42,4.42,0,0,0,1.5,3.31V79a10.41,10.41,0,0,0,4.5,8.56v2.78a1.59,1.59,0,0,1-1.09,1.51L36.15,94.3a7.4,7.4,0,0,0-5.06,7v9.18a1.41,1.41,0,0,0,2.81,0v-9.18A4.59,4.59,0,0,1,37,97l4.12-1.37a10.4,10.4,0,0,0,18.67,0L64,97a4.59,4.59,0,0,1,3.14,4.36v9.18a1.41,1.41,0,0,0,2.81,0v-9.18a7.4,7.4,0,0,0-5.06-7ZM42.9,79V77.5A3.1,3.1,0,0,1,46,74.4h4.5a1.4,1.4,0,1,0,0-2.8H46a5.89,5.89,0,0,0-4.59,2.2V71.5a3.1,3.1,0,0,1,3.09-3.1h.42a1.39,1.39,0,0,0,1.21-.69,1.58,1.58,0,0,1,1.37-.81H58a1.6,1.6,0,0,1,1.6,1.6v5.3A5.89,5.89,0,0,0,57,71.93,1.4,1.4,0,1,0,56,74.58a3.11,3.11,0,0,1,2.06,2.92V79A7.6,7.6,0,1,1,42.9,79Zm7.59,19.6a7.64,7.64,0,0,1-6.64-3.91l.54-.18a4.39,4.39,0,0,0,3-4.17V88.93a10.43,10.43,0,0,0,6.19,0v1.41a4.39,4.39,0,0,0,3,4.17l.53.18A7.61,7.61,0,0,1,50.49,98.6Z"/>
    <path class="cls-2" d="M107.09,97.23l-6.16-2.31a1.71,1.71,0,0,1-.5-.32l5.2-2.6a5.87,5.87,0,0,0,3.27-5.28V79a14.91,14.91,0,0,0-29.81,0v7.72A5.88,5.88,0,0,0,82.35,92l5.21,2.6a1.77,1.77,0,0,1-.51.32l-6.16,2.31a7.43,7.43,0,0,0-4.8,6.93v6.34a1.41,1.41,0,0,0,2.81,0v-6.34a4.63,4.63,0,0,1,3-4.31l2.87-1.07a10.41,10.41,0,0,0,18.49,0l2.87,1.07a4.63,4.63,0,0,1,3,4.31v6.34a1.41,1.41,0,0,0,2.81,0v-6.34a7.42,7.42,0,0,0-4.81-6.93ZM81.9,86.72V79a12.1,12.1,0,1,1,24.19,0v7.72a3.09,3.09,0,0,1-1.71,2.77L99.9,91.73V90.56A10.41,10.41,0,0,0,104.4,82a4.18,4.18,0,0,0-1.88-3.5A1.4,1.4,0,0,0,101,80.84a1.38,1.38,0,0,1,.62,1.16A7.6,7.6,0,1,1,86.4,82,1.38,1.38,0,0,1,87,80.84l7-4.65,2.23,1.48a1.4,1.4,0,0,0,1.55-2.34l-3-2a1.41,1.41,0,0,0-1.55,0L85.46,78.5A4.2,4.2,0,0,0,83.59,82a10.38,10.38,0,0,0,4.5,8.56v1.17l-4.48-2.24a3.07,3.07,0,0,1-1.71-2.77ZM94,101.6a7.63,7.63,0,0,1-6.58-3.82l.63-.24a4.42,4.42,0,0,0,2.86-4.12V91.93a10.43,10.43,0,0,0,6.19,0v1.49A4.42,4.42,0,0,0,100,97.54l.63.24A7.61,7.61,0,0,1,94,101.6Z"/>
    <path class="cls-2" d="M101.56,27.93a40.4,40.4,0,0,0-69,28.57,40.64,40.64,0,0,0,.51,6.44L29,59.11a1.4,1.4,0,0,0-1.91,2.06L34.47,68a1.4,1.4,0,0,0,1,.37,1.14,1.14,0,0,0,.26,0,1.42,1.42,0,0,0,1-.75l4.51-9a1.4,1.4,0,1,0-2.51-1.25l-2.75,5.51a38.38,38.38,0,0,1-.53-6.34,37.6,37.6,0,1,1,73.81,10.12,1.4,1.4,0,0,0,1,1.73,1.18,1.18,0,0,0,.37.05,1.41,1.41,0,0,0,1.36-1A40.67,40.67,0,0,0,113.4,56.5a40.15,40.15,0,0,0-11.84-28.57Z"/>
    <path class="cls-2" d="M98.58,56.07l-3.75-5a1.4,1.4,0,0,0-2.25,1.68l6.07,8.08a1.39,1.39,0,0,0,1.12.56h0a1.39,1.39,0,0,0,1.13-.56l6-8.09a1.4,1.4,0,0,0-2.24-1.68l-3.33,4.45a28.4,28.4,0,0,0-56.79,1,30.07,30.07,0,0,0,.17,3.15,1.4,1.4,0,0,0,1.55,1.24,1.39,1.39,0,0,0,1.24-1.54,27.06,27.06,0,0,1-.15-2.85,25.59,25.59,0,0,1,51.18-.43Z"/>
  </g>
</svg>
