<svg id="Capa_1" data-name="Capa 1" xmlns="http://www.w3.org/2000/svg" width="140" height="140" viewBox="0 0 140 140">
  <defs>
    <style>
      .cls-1 {
        fill: #fff;
        stroke: #2f237d;
        stroke-miterlimit: 10;
        stroke-width: 6px;
      }

      .cls-2 {
        fill: #0f0140;
      }
    </style>
  </defs>
  <circle class="cls-1" cx="70" cy="70" r="60"/>
  <path class="cls-2" d="M71.67,25A30.66,30.66,0,0,0,41,55.67v1L32.23,73a1.22,1.22,0,0,0,.58,1.68L41,78.21V95.34a1.2,1.2,0,0,0,1.2,1.2H59.13l2.42,9.33a1.2,1.2,0,1,0,2.32-.6L61.22,95a1.2,1.2,0,0,0-1.16-.9H43.44V77.42a1.2,1.2,0,0,0-.73-1.1L35,73l8.33-15.48a1.16,1.16,0,0,0,.15-.57V55.67A28.23,28.23,0,1,1,88.7,78.18a1.22,1.22,0,0,0-.42,1.3l2.2,7.44a1.2,1.2,0,0,0,2.3-.68l-2-6.66A30.76,30.76,0,0,0,99,69.52a30.17,30.17,0,0,0,3.31-13.85A30.66,30.66,0,0,0,71.67,25Z"/>
  <path class="cls-2" d="M94.32,91.42a1.2,1.2,0,0,0-2.3.68l4.09,13.81a1.2,1.2,0,1,0,2.3-.68Z"/>
  <path class="cls-2" d="M84.39,55.67a12.72,12.72,0,1,0-19,11v.57h-.08a1.2,1.2,0,0,0-1.2,1.2V71.1H64a1.2,1.2,0,0,0,0,2.4h.08v1.28H64a1.2,1.2,0,0,0,0,2.4h.17a6.33,6.33,0,0,0,6.23,5.28H73a6.33,6.33,0,0,0,6.23-5.28h.17a1.2,1.2,0,0,0,0-2.4h-.08V73.5h.08a1.2,1.2,0,0,0,0-2.4h-.08V68.47a1.2,1.2,0,0,0-1.2-1.2H78V66.7A12.64,12.64,0,0,0,84.39,55.67ZM73,80.06H70.39a3.93,3.93,0,0,1-3.78-2.88H76.73A3.93,3.93,0,0,1,73,80.06Zm3.92-5.28H66.47V73.5h10.4ZM66.47,71.1V69.66h10.4V71.1Zm6.4-3.83V59.43h2.64a1.2,1.2,0,0,0,1.2-1.2V54.39a1.2,1.2,0,1,0-2.4,0V57H69V54.39a1.2,1.2,0,0,0-2.4,0v3.84a1.2,1.2,0,0,0,1.2,1.2h2.64v7.84H67.75V66a1.21,1.21,0,0,0-.66-1.08,10.32,10.32,0,1,1,9.16,0A1.21,1.21,0,0,0,75.59,66v1.28Z"/>
  <path class="cls-2" d="M72.87,40.31V37.75a1.2,1.2,0,0,0-2.4,0v2.56a1.2,1.2,0,1,0,2.4,0Z"/>
  <path class="cls-2" d="M64,43.57a1.21,1.21,0,0,0,1-1.8l-1.28-2.22a1.2,1.2,0,0,0-2.08,1.2c.43.74.84,1.48,1.27,2.2A1.22,1.22,0,0,0,64,43.57Z"/>
  <path class="cls-2" d="M57.77,49A1.2,1.2,0,0,0,59,47l-2.21-1.28a1.2,1.2,0,1,0-1.2,2.08Z"/>
  <path class="cls-2" d="M52.56,55.67a1.2,1.2,0,0,0,1.2,1.2h2.55a1.2,1.2,0,0,0,0-2.4H53.76A1.2,1.2,0,0,0,52.56,55.67Z"/>
  <path class="cls-2" d="M56.16,65.83a1.21,1.21,0,0,0,.6-.17L59,64.39a1.21,1.21,0,0,0,.44-1.64,1.2,1.2,0,0,0-1.64-.44l-2.21,1.28a1.2,1.2,0,0,0,.6,2.24Z"/>
  <path class="cls-2" d="M87.78,63.59l-2.21-1.28a1.2,1.2,0,0,0-1.2,2.08l2.21,1.27a1.21,1.21,0,0,0,1.7-.55A1.19,1.19,0,0,0,87.78,63.59Z"/>
  <path class="cls-2" d="M85.83,55.67a1.2,1.2,0,0,0,1.2,1.2h2.55a1.2,1.2,0,0,0,0-2.4H87A1.2,1.2,0,0,0,85.83,55.67Z"/>
  <path class="cls-2" d="M86.58,45.67,85,46.6l-.61.35a1.23,1.23,0,0,0-.56,1.36,1.21,1.21,0,0,0,1.76.72l2.21-1.28a1.2,1.2,0,1,0-1.2-2.08Z"/>
  <path class="cls-2" d="M79.35,43.57a1.2,1.2,0,0,0,1-.6l1.28-2.22a1.2,1.2,0,0,0-2.08-1.2l-1.28,2.22A1.21,1.21,0,0,0,79.35,43.57Z"/>
</svg>
