<svg id="Capa_1" data-name="Capa 1" xmlns="http://www.w3.org/2000/svg" width="110" height="110" viewBox="0 0 110 110">
  <defs>
    <style>
      .cls-1 {
        fill: none;
      }

      .cls-2 {
        fill: #6558b8;
      }

      .cls-3 {
        fill: #6f678c;
      }

      .cls-4 {
        fill: #efc4b1;
      }

      .cls-5 {
        fill: #d3aa9c;
      }

      .cls-6 {
        fill: #e2bdaf;
      }

      .cls-7 {
        fill: #c9a095;
      }

      .cls-8 {
        fill: #f9ceb7;
      }

      .cls-9 {
        fill: #ddb4a2;
      }

      .cls-10 {
        fill: #2a4149;
      }

      .cls-11 {
        fill: #f3d9c3;
      }

      .cls-12 {
        fill: #d8d5ed;
      }
    </style>
  </defs>
  <rect class="cls-1" width="110" height="110"/>
  <circle class="cls-2" cx="55" cy="55" r="50"/>
  <g>
    <path class="cls-3" d="M81.41,16c-2.29-4-7.17-6.51-11.42-8a1.31,1.31,0,0,1-1.57,1,14.83,14.83,0,0,1-5.16-2.87c-.43-.32-.9-.7-1.39-1.06,0,.18-.07.37-.11.55A9.32,9.32,0,0,0,57.63,4c-3.41-.51-7.12.35-10.48,1C40.72,6.16,32.05,10,28.59,16c-2.83,4.91-1.91,11.22-1.73,16.62a74.28,74.28,0,0,0,.6,9.77c.4,2.47,1.52,5,4.09,5.76A1.3,1.3,0,0,0,32.78,48a8.21,8.21,0,0,0,2.43.1,10.54,10.54,0,0,0,5.15-2.16c3.08-2.32,5.27-5.59,7.79-8.47C50.32,35,52.63,32.59,55,30.3c2.37,2.29,4.68,4.65,6.85,7.13,2.52,2.88,4.71,6.15,7.79,8.47a10.54,10.54,0,0,0,5.15,2.16,8.21,8.21,0,0,0,2.43-.1,1.3,1.3,0,0,0,1.23.21c2.57-.76,3.69-3.29,4.09-5.76a74.28,74.28,0,0,0,.6-9.77C83.32,27.24,84.24,20.93,81.41,16Z"/>
    <path class="cls-3" d="M28.59,16c2.29-4,7.17-6.51,11.42-8a1.31,1.31,0,0,0,1.57,1,14.83,14.83,0,0,0,5.16-2.87c.43-.32.9-.7,1.39-1.06,0,.18.07.37.11.55A9.32,9.32,0,0,1,52.37,4c3.41-.51,7.12.35,10.48,1C69.28,6.16,78,10,81.41,16c2.83,4.91,1.91,11.22,1.73,16.62a74.28,74.28,0,0,1-.6,9.77c-.4,2.47-1.52,5-4.09,5.76A1.3,1.3,0,0,1,77.22,48a8.21,8.21,0,0,1-2.43.1,10.54,10.54,0,0,1-5.15-2.16c-3.08-2.32-5.27-5.59-7.79-8.47C59.68,35,57.37,32.59,55,30.3c-2.37,2.29-4.68,4.65-6.85,7.13-2.52,2.88-4.71,6.15-7.79,8.47a10.54,10.54,0,0,1-5.15,2.16,8.21,8.21,0,0,1-2.43-.1,1.3,1.3,0,0,1-1.23.21c-2.57-.76-3.69-3.29-4.09-5.76a74.28,74.28,0,0,1-.6-9.77C26.68,27.24,25.76,20.93,28.59,16Z"/>
    <g>
      <path class="cls-4" d="M55,110V74.14H41.46a29,29,0,0,1-.21,8c-.57,3.06-1.94,6.73-4.62,8.77-3.53,2.7-9.5.89-13.75,1.56a31.18,31.18,0,0,0-5.94,1.14c-6.21,1.89-12.39,7.16-13.08,13.52a15.49,15.49,0,0,0,9,2.86Z"/>
      <path class="cls-5" d="M93.08,93.62a31.18,31.18,0,0,0-5.94-1.14c-4.26-.67-10.22,1.14-13.75-1.56-2.68-2-4-5.71-4.62-8.77a29,29,0,0,1-.21-8H55V110H97a15.45,15.45,0,0,0,9.18-3C105.38,100.7,99.25,95.5,93.08,93.62Z"/>
    </g>
    <path class="cls-6" d="M55,88V77.4c-4.14.95-9-.94-13.09-3.26h-.46a29,29,0,0,1-.21,8v0a28,28,0,0,0,11.68,5.51A18.31,18.31,0,0,0,55,88Z"/>
    <path class="cls-7" d="M55,77.4V88a18.31,18.31,0,0,0,2.09-.24A28,28,0,0,0,68.78,82.2v0a29,29,0,0,1-.21-8H68.1C64.06,76.46,59.15,78.35,55,77.4Z"/>
    <g>
      <path class="cls-8" d="M28.78,51.27c-.54-2.24.21-5.84,4-3.88a76,76,0,0,0,2.54,10.94C31.87,56.77,29.48,54.14,28.78,51.27Z"/>
      <path class="cls-9" d="M81.24,51.27c.54-2.24-.21-5.84-4-3.88a74.74,74.74,0,0,1-2.55,10.94C78.15,56.77,80.54,54.14,81.24,51.27Z"/>
    </g>
    <path class="cls-9" d="M80.83,33.9c-.48,8.58-3.75,16.79-5.71,25.24-.84,3.67-1.59,7.61-3.29,11.07a21.69,21.69,0,0,1-3.6,5.05c-1.4,1.55-2.55,3.37-4.22,4.67-2.64,2.06-5.83,1.83-9,1.86V20.41C65.47,20.7,75.22,25.35,80.83,33.9Z"/>
    <path class="cls-8" d="M28.33,32.93c.48,8.59,3.75,16.8,5.7,25.24.85,3.67,1.6,7.61,3.3,11.08a21.6,21.6,0,0,0,3.59,5c1.41,1.56,2.55,3.38,4.22,4.68,2.64,2,5.84,1.82,9,1.85V19.44C43.69,19.73,33.94,24.38,28.33,32.93Z"/>
    <path class="cls-10" d="M75.55,41a.72.72,0,0,0-.69-.54H74a8.27,8.27,0,0,1-1.42-.09A7.37,7.37,0,0,1,71.5,40c-.31-.1-.63-.21-1-.28a17.73,17.73,0,0,0-3.87-.39h-.33a16.72,16.72,0,0,0-7,1.34,9,9,0,0,1-3.56.85H54.2a9,9,0,0,1-3.56-.85,16.72,16.72,0,0,0-7-1.34h-.33a17.73,17.73,0,0,0-3.87.39c-.32.07-.64.18-1,.28a7.37,7.37,0,0,1-1.09.3,8.27,8.27,0,0,1-1.42.09h-.85a.73.73,0,0,0-.7.54v3.45a.83.83,0,0,0,.77.62h.16a6.71,6.71,0,0,1,0,.72v0c0,2.58.81,5.71,3.14,6.74a9.51,9.51,0,0,0,3.71.63h.4c3,0,5.33-.53,7-1.63A8.42,8.42,0,0,0,52.06,49a8.81,8.81,0,0,0,.66-1.42c.5-1.24,1-2.41,2.27-2.55,1.33.15,1.79,1.32,2.29,2.55A8.81,8.81,0,0,0,57.94,49a8.42,8.42,0,0,0,2.45,2.58c1.65,1.1,3.93,1.63,7,1.63h.4a9.51,9.51,0,0,0,3.71-.63c2.33-1,3.15-4.16,3.14-6.74v0a6.71,6.71,0,0,1,0-.72h.16a.81.81,0,0,0,.76-.61V41Zm-2.56,6A9.4,9.4,0,0,1,72.48,49a3.91,3.91,0,0,1-1.23,2,5.24,5.24,0,0,1-1.91.62h0a13.7,13.7,0,0,1-3.86.1,10.58,10.58,0,0,1-3.6-.85,5.84,5.84,0,0,1-2.68-2.74,14.64,14.64,0,0,1-.94-2.47A5.59,5.59,0,0,1,58,43.53a4,4,0,0,1,1.34-1.32,3.77,3.77,0,0,1,.45-.23l.08,0A11.11,11.11,0,0,1,61,41.51a15.79,15.79,0,0,1,5.24-.77c2.16.07,5.89.56,6.62,3.09A8.53,8.53,0,0,1,73,46.92ZM51.76,45.65a14.64,14.64,0,0,1-.94,2.47,5.84,5.84,0,0,1-2.68,2.74,10.58,10.58,0,0,1-3.6.85c-.62.06-1.18.09-1.7.09h0a12,12,0,0,1-2.16-.19h0a5.19,5.19,0,0,1-1.9-.62,3.91,3.91,0,0,1-1.23-2A9.68,9.68,0,0,1,37,46.92a8.53,8.53,0,0,1,.13-3.09c.73-2.53,4.46-3,6.62-3.09h.44a16,16,0,0,1,4.8.77,11.11,11.11,0,0,1,1.17.44l.08,0a3.77,3.77,0,0,1,.45.23A4,4,0,0,1,52,43.53,5.59,5.59,0,0,1,51.76,45.65Z"/>
    <g>
      <polygon class="cls-11" points="36.78 41.57 35.3 41.57 35.3 43.05 36.78 41.57"/>
      <polygon class="cls-11" points="73.22 41.57 74.7 41.57 74.7 43.05 73.22 41.57"/>
    </g>
    <path class="cls-12" d="M93.08,93.62a31.18,31.18,0,0,0-5.94-1.14c-3.53-.56-8.24.6-11.76-.54a6.77,6.77,0,0,1-1.9-1,18.26,18.26,0,0,1-5.61,3.25,29.13,29.13,0,0,1-8.78,1.56l-1.12,0a11.86,11.86,0,0,0-2.73,0h-.46a11.86,11.86,0,0,0-2.73,0l-1.12,0a29.13,29.13,0,0,1-8.78-1.56A18.14,18.14,0,0,1,36.54,91a6.77,6.77,0,0,1-1.9,1c-3.52,1.14-8.23,0-11.76.54a31.18,31.18,0,0,0-5.94,1.14c-6.21,1.89-12.39,7.16-13.08,13.52a15.49,15.49,0,0,0,9,2.86H97a15.45,15.45,0,0,0,9.18-3C105.38,100.7,99.25,95.5,93.08,93.62Z"/>
    <path class="cls-11" d="M44,107.53,55,95.8a33.29,33.29,0,0,1-10.32-4.62c-1.53-1-3-2.12-4.42-3.26l-2.21-1.76c-.11-.08-3.31,3.91-5,6.1l0,0a39.5,39.5,0,0,0,4.15,7.59A34.09,34.09,0,0,0,44,107.53Z"/>
    <path class="cls-11" d="M66,107.53,55,95.8a33.29,33.29,0,0,0,10.32-4.62c1.53-1,3-2.12,4.42-3.26L72,86.16c.11-.08,3.31,3.91,5,6.1l0,0a39.5,39.5,0,0,1-4.15,7.59A34.09,34.09,0,0,1,66,107.53Z"/>
    <path class="cls-3" d="M69.21,17.69A36.81,36.81,0,0,0,58,15.31c-1-.06-2-.07-3,0s-2,0-3,0A36.94,36.94,0,0,0,40.8,17.69C33.89,20.38,26.4,25.37,27,33.77a20.71,20.71,0,0,0,3.88,10.84c0,.28.08.57.13.85a15.27,15.27,0,0,0,2.35,6.65c.06.08.22.12.27,0,.88-2.07.64-4.32.64-6.52,0-2.49,0-5,0-7.46a26.64,26.64,0,0,1,.31-6.8A7.22,7.22,0,0,1,38.22,27a36.75,36.75,0,0,1,5.48-3,10,10,0,0,1,2.78-.73,11.13,11.13,0,0,0,2.63.6,36.3,36.3,0,0,0,3.88.45,17,17,0,0,0,2,0,17,17,0,0,0,2,0,36.3,36.3,0,0,0,3.88-.45,11.13,11.13,0,0,0,2.63-.6,10,10,0,0,1,2.78.73,36.75,36.75,0,0,1,5.48,3,7.22,7.22,0,0,1,3.59,4.3,26.64,26.64,0,0,1,.31,6.8c0,2.49,0,5,0,7.46,0,2.2-.24,4.45.64,6.52.05.12.21.08.27,0A15.27,15.27,0,0,0,79,45.46c0-.28.08-.57.12-.85A20.64,20.64,0,0,0,83,33.77C83.62,25.37,76.13,20.38,69.21,17.69Z"/>
    <g>
      <g>
        <path class="cls-11" d="M79.31,55.54a37.07,37.07,0,0,1-2.44,7.35,13.93,13.93,0,0,1-5.6,5.88,33,33,0,0,1-8,3.33c-.35.1-.69.18-1,.26-.51-1-2.35-1.5-4.44-1.25-2.39.28-4.21,1.49-4.07,2.69s2.2,2,4.59,1.67c2.06-.25,3.69-1.18,4-2.21l1.42-.34a32,32,0,0,0,8.42-3.47c5.08-3,6.83-8.16,8.24-13.6A.58.58,0,0,0,79.31,55.54Z"/>
        <path class="cls-11" d="M29.1,42.29a2.91,2.91,0,0,1,2,.35c1.71.91,2.54,5.56,2.79,7.26.3,2,1.47,7.44-1.32,8.07-2.4.54-5.14-2.53-6.11-6.86S26.69,42.83,29.1,42.29Z"/>
        <path class="cls-11" d="M80.9,42.29a2.91,2.91,0,0,0-2.05.35c-1.71.91-2.54,5.56-2.79,7.26-.3,2-1.47,7.44,1.32,8.07,2.4.54,5.14-2.53,6.11-6.86S83.31,42.83,80.9,42.29Z"/>
      </g>
      <path class="cls-12" d="M82.71,45.27a12.58,12.58,0,0,0,.2-2,25.07,25.07,0,0,0-.46-11.36,23.64,23.64,0,0,0-3.22-7.17A18.11,18.11,0,0,0,76.08,21a23,23,0,0,0-1.74-1.51,25.19,25.19,0,0,0-19.34-5,25.19,25.19,0,0,0-19.34,5A23,23,0,0,0,33.92,21a18.11,18.11,0,0,0-3.15,3.74,23.37,23.37,0,0,0-3.21,7.17,24.94,24.94,0,0,0-.47,11.36,12.58,12.58,0,0,0,.2,2c-1.45.55-2.12,3.07-1.5,5.83s2.48,4.95,4.09,4.58c1.86-.42,1.08-4.06.88-5.39a16.12,16.12,0,0,0-.92-3.58A34,34,0,0,1,29,42.44a24.76,24.76,0,0,1,.06-6,23.41,23.41,0,0,1,4.66-11.39,24.84,24.84,0,0,1,20.7-9.25.68.68,0,0,0,.45.07l.16,0,.16,0a.68.68,0,0,0,.45-.07,24.84,24.84,0,0,1,20.7,9.25A23.41,23.41,0,0,1,81,36.48a24.76,24.76,0,0,1,.06,6,34,34,0,0,1-.87,4.27,16.12,16.12,0,0,0-.92,3.58c-.2,1.33-1,5,.88,5.39,1.61.37,3.44-1.69,4.09-4.58S84.16,45.82,82.71,45.27Z"/>
    </g>
  </g>
</svg>
