<svg id="Capa_1" data-name="Capa 1" xmlns="http://www.w3.org/2000/svg" width="140" height="140" viewBox="0 0 140 140">
  <defs>
    <style>
      .cls-1 {
        fill: #fff;
        stroke: #8b82ca;
        stroke-miterlimit: 10;
        stroke-width: 6px;
      }

      .cls-2 {
        fill: #0f0140;
      }
    </style>
  </defs>
  <circle class="cls-1" cx="70" cy="70" r="60"/>
  <path class="cls-2" d="M64,74.43H51.47a7.15,7.15,0,1,0-10.63,0h-.65a6,6,0,0,0-6,6v8.35a1.19,1.19,0,0,0,1.19,1.19H39v14.31a1.19,1.19,0,0,0,1.19,1.19H52.12a1.19,1.19,0,0,0,1.19-1.19V81.59H64a1.19,1.19,0,0,0,1.19-1.2V75.63A1.19,1.19,0,0,0,64,74.43ZM46.16,64.9a4.77,4.77,0,1,1-4.77,4.76A4.76,4.76,0,0,1,46.16,64.9ZM62.85,79.2H52.12a1.2,1.2,0,0,0-1.2,1.19v22.66H47.35V89.93H45v13.12H41.39V80.39H39v7.16H36.62V80.39a3.57,3.57,0,0,1,3.57-3.57H62.85Z"/>
  <path class="cls-2" d="M99.81,74.43h-.65a7.15,7.15,0,1,0-10.63,0h-.65a6,6,0,0,0-6,6v8.35a1.19,1.19,0,0,0,1.19,1.19h3.58v14.31a1.19,1.19,0,0,0,1.19,1.19H99.81a1.19,1.19,0,0,0,1.19-1.19V89.93h3.58a1.19,1.19,0,0,0,1.19-1.19V80.39A6,6,0,0,0,99.81,74.43Zm-6-9.53a4.77,4.77,0,1,1-4.76,4.76A4.76,4.76,0,0,1,93.84,64.9Zm9.54,22.65H101V80.39H98.61v22.66H95V89.93H92.65v13.12H89.08V80.39H86.69v7.16H84.31V80.39a3.57,3.57,0,0,1,3.57-3.57H99.81a3.57,3.57,0,0,1,3.57,3.57Z"/>
  <path class="cls-2" d="M98.61,33.9H41.39a1.19,1.19,0,0,0-1.2,1.19V56.55a1.19,1.19,0,0,0,1.2,1.19H54.5v6a1.18,1.18,0,0,0,.74,1.1,1,1,0,0,0,.45.1,1.23,1.23,0,0,0,.85-.35l6.8-6.81H76.66l6.8,6.81a1.23,1.23,0,0,0,.85.35,1,1,0,0,0,.45-.1,1.18,1.18,0,0,0,.74-1.1v-6H98.61a1.19,1.19,0,0,0,1.2-1.19V35.09A1.19,1.19,0,0,0,98.61,33.9ZM70.89,48.2a1.19,1.19,0,0,0-2.08.79v6.37h-6a1.22,1.22,0,0,0-.85.34l-5.11,5.13V56.55a1.19,1.19,0,0,0-1.2-1.19H42.58V36.28H68.81V42.7A1.19,1.19,0,0,0,70,43.89a1.17,1.17,0,0,0,.89-.41,3.62,3.62,0,0,1,2.69-1.24,3.58,3.58,0,1,1-2.69,6Zm26.53,7.16H84.31a1.19,1.19,0,0,0-1.2,1.19v4.28L78,55.7a1.22,1.22,0,0,0-.85-.34h-6V51.27a6,6,0,1,0,0-10.9V36.28H97.42Z"/>
  <rect class="cls-2" x="46.16" y="39.86" width="19.08" height="2.38"/>
  <rect class="cls-2" x="46.16" y="44.63" width="19.08" height="2.38"/>
  <rect class="cls-2" x="46.16" y="49.4" width="19.08" height="2.38"/>
  <rect class="cls-2" x="83.11" y="39.86" width="10.73" height="2.38"/>
  <rect class="cls-2" x="83.11" y="44.63" width="10.73" height="2.38"/>
  <rect class="cls-2" x="83.11" y="49.4" width="10.73" height="2.38"/>
</svg>
