<svg id="Capa_1" data-name="Capa 1" xmlns="http://www.w3.org/2000/svg" width="110" height="110" viewBox="0 0 110 110">
  <defs>
    <style>
      .cls-1 {
        fill: none;
      }

      .cls-2 {
        fill: #6558b8;
      }

      .cls-3 {
        fill: #d3aa9c;
      }

      .cls-4 {
        fill: #efc4b1;
      }

      .cls-5 {
        fill: #e2bdaf;
      }

      .cls-6 {
        fill: #c9a095;
      }

      .cls-7 {
        fill: #f9ceb7;
      }

      .cls-8 {
        fill: #ddb4a2;
      }

      .cls-9 {
        fill: #d8d5ed;
      }

      .cls-10 {
        fill: #6f678c;
      }

      .cls-11 {
        fill: #f3d9c3;
      }

      .cls-12 {
        fill: #f78d8d;
      }

      .cls-13 {
        fill: #c96f6f;
      }

      .cls-14 {
        fill: #fff3c0;
      }

      .cls-15 {
        fill: #0f0140;
      }
    </style>
  </defs>
  <rect class="cls-1" width="110" height="110"/>
  <circle class="cls-2" cx="55" cy="55" r="50"/>
  <g>
    <g>
      <path class="cls-3" d="M96.71,110H55V75.45h9.53c0,.23-.06.45-.08.67-.45,4.27-.2,9.13,3,12.69a14,14,0,0,0,6.18,3.8,55.19,55.19,0,0,0,6.8,1.63c4.2.8,8.93,1.49,12.14,4.08a10.66,10.66,0,0,1,3.51,5.36,15.55,15.55,0,0,1,.6,4.33C96.7,108.67,96.69,109.34,96.71,110Z"/>
      <path class="cls-4" d="M55,75.45V110H13.29c0-.66,0-1.33,0-2a15.55,15.55,0,0,1,.6-4.33,10.66,10.66,0,0,1,3.51-5.36c3.21-2.59,7.94-3.28,12.14-4.08a55.19,55.19,0,0,0,6.8-1.63,14,14,0,0,0,6.18-3.8c3.21-3.56,3.46-8.42,3-12.69,0-.22,0-.44-.08-.67Z"/>
    </g>
    <path class="cls-5" d="M55,87.47V79.88c-3,.8-6.71-1.22-9.4-3.25a30.75,30.75,0,0,1-.05,5.91c2.41,2.21,5.1,4.14,8.15,4.76A11.57,11.57,0,0,0,55,87.47Z"/>
    <path class="cls-6" d="M55,87.47V79.88c3,.8,6.71-1.22,9.4-3.25a30.75,30.75,0,0,0,0,5.91c-2.41,2.21-5.1,4.14-8.15,4.76A11.57,11.57,0,0,1,55,87.47Z"/>
    <path class="cls-7" d="M55,27.52V82.2a28.83,28.83,0,0,1-11.59-7.11A36.29,36.29,0,0,1,36.06,64C32.79,56.49,31.43,48.24,31,40.14,36,32,45.66,27.74,55,27.52Z"/>
    <path class="cls-8" d="M55,27.52V82.2a28.83,28.83,0,0,0,11.59-7.11A36.29,36.29,0,0,0,73.94,64c3.27-7.46,4.63-15.71,5-23.81C74,32,64.34,27.74,55,27.52Z"/>
    <path class="cls-8" d="M80.28,51.89c.27-1.56-.41-4-2.9-2.48A52.37,52.37,0,0,1,76.14,57,7.62,7.62,0,0,0,80.28,51.89Z"/>
    <path class="cls-7" d="M29.72,51.89c-.27-1.56.41-4,2.9-2.48A52.37,52.37,0,0,0,33.86,57,7.62,7.62,0,0,1,29.72,51.89Z"/>
    <g>
      <path class="cls-9" d="M80.44,94.24l.79.15h0l-.64-.12-.1,0a41.35,41.35,0,0,1-2,9.08A40.66,40.66,0,0,1,75.35,110H34.64a39.48,39.48,0,0,1-5.13-15.75h0a55.19,55.19,0,0,0,6.8-1.63,14.31,14.31,0,0,0,5.71-3.32C44.42,92.88,49.83,94.53,55,95c5.17-.46,10.58-2.11,12.93-5.7a14.31,14.31,0,0,0,5.71,3.32A55.19,55.19,0,0,0,80.44,94.24Z"/>
      <g>
        <path class="cls-10" d="M96.69,108a15.62,15.62,0,0,0-.6-4.34,10.68,10.68,0,0,0-3.5-5.35c-3-2.43-7.37-3.19-11.36-3.93h0l-.64-.12-.1,0a41.35,41.35,0,0,1-2,9.08A40.66,40.66,0,0,1,75.35,110H96.7C96.69,109.34,96.7,108.67,96.69,108Z"/>
        <path class="cls-10" d="M29.51,94.25l-1.25.23c-3.85.72-8,1.51-10.85,3.84a10.68,10.68,0,0,0-3.5,5.35,15.62,15.62,0,0,0-.6,4.34c0,.66,0,1.33,0,2H34.64a39.48,39.48,0,0,1-5.13-15.75Z"/>
      </g>
      <g>
        <path class="cls-11" d="M52,102.08l3-7.53A25.55,25.55,0,0,1,47.08,91a41.08,41.08,0,0,1-3.39-2.5L42,87.15c-.08-.06-1.36-.93-1.36-1a14,14,0,0,1-2.48,5.63l0,0A44.77,44.77,0,0,0,49.75,101C50.49,101.37,51.26,101.74,52,102.08Z"/>
        <path class="cls-11" d="M58,102.08l-3-7.53A25.55,25.55,0,0,0,62.92,91a41.08,41.08,0,0,0,3.39-2.5L68,87.15c.08-.06,1.36-.93,1.36-1a14,14,0,0,0,2.48,5.63l0,0A44.77,44.77,0,0,1,60.25,101C59.51,101.37,58.74,101.74,58,102.08Z"/>
      </g>
    </g>
    <path class="cls-12" d="M53.49,66.83a5.86,5.86,0,0,0-2,.91,10.21,10.21,0,0,1-2.78,1.73l.1.08c1.88,1.62,3.58,2.86,6.17,3.24V67.18A2,2,0,0,0,53.49,66.83Z"/>
    <path class="cls-13" d="M56.51,66.83a5.86,5.86,0,0,1,2,.91,10.21,10.21,0,0,0,2.78,1.73l-.1.08c-1.88,1.62-3.58,2.86-6.17,3.24V67.18A2,2,0,0,1,56.51,66.83Z"/>
    <path class="cls-14" d="M83,40.05a22.11,22.11,0,0,0-.39-3.18,26.73,26.73,0,0,0-2.53-7.95A29,29,0,0,0,68.49,17.8c-.36-.2-.73-.39-1.1-.58a7.28,7.28,0,0,0,.69-1.15,8.89,8.89,0,0,0,.07-8,11.86,11.86,0,0,0-5.66-5.63,18.56,18.56,0,0,0-15.1,0,11.86,11.86,0,0,0-5.66,5.63,8.86,8.86,0,0,0,.07,8,7.17,7.17,0,0,0,.68,1.15l-1.09.58A28.91,28.91,0,0,0,29.82,28.93a20.78,20.78,0,0,0-2.31,7.72,21.19,21.19,0,0,0,0,7.15c.68,2.82,2.7,4.22,4.53,6.39.27.32.66.46.92.8A0,0,0,0,0,33,51c-.09-.46,0-.78-.13-1.15-.8-4.1,2.41-8.5,5.2-11.41l1-1,.7-.61c.31-.28.65-.57,1-.85a17.83,17.83,0,0,1,1.85-1.27A6.21,6.21,0,0,1,45,33.87c2.38-.27,3.86,1.27,5.78,2.22a20.46,20.46,0,0,0,3,2.07,31.84,31.84,0,0,0,6.47,2.64c2.53.79,5.65,1.47,7.55,3.25,0,0,0,0,0,0a23,23,0,0,0-2.51-2.33A18.27,18.27,0,0,0,62.18,40l-.53-.23c2.48.66,4.95,1.31,7.36,2.21,3.67,1.37,7.7,3.57,7.77,7.6-.07.37,0,.69-.12,1.15,0,0,0,.05.06,0,.88-1.11,2.27-2,3.27-3a11.17,11.17,0,0,0,2.24-3.16A9.9,9.9,0,0,0,83,40.05Z"/>
    <path class="cls-10" d="M77.6,58.37a33.39,33.39,0,0,1-2.27,6.83,12.94,12.94,0,0,1-5.2,5.47,31.23,31.23,0,0,1-7.43,3.1c-.32.09-.63.16-1,.23-.47-.88-2.18-1.39-4.13-1.16-2.22.27-3.91,1.39-3.78,2.51s2,1.81,4.26,1.55c1.92-.23,3.44-1.1,3.73-2.05.46-.1.9-.21,1.33-.32A30.1,30.1,0,0,0,71,71.3c4.71-2.81,6.34-7.58,7.65-12.64A.54.54,0,0,0,77.6,58.37Z"/>
    <path class="cls-10" d="M30.92,46.05a2.71,2.71,0,0,1,1.9.32c1.6.85,2.36,5.17,2.6,6.75.28,1.86,1.37,6.92-1.23,7.5-2.23.51-4.78-2.35-5.68-6.37S28.68,46.55,30.92,46.05Z"/>
    <path class="cls-10" d="M79.08,46.05a2.71,2.71,0,0,0-1.9.32c-1.6.85-2.36,5.17-2.6,6.75C74.3,55,73.21,60,75.81,60.62c2.23.51,4.78-2.35,5.68-6.37S81.32,46.55,79.08,46.05Z"/>
    <path class="cls-15" d="M80.76,48.82A11.87,11.87,0,0,0,81,46.93a23.27,23.27,0,0,0-.43-10.56,21.89,21.89,0,0,0-3-6.67,16.7,16.7,0,0,0-2.93-3.48c-.52-.49-1-1-1.62-1.4a23.48,23.48,0,0,0-18-4.64,23.48,23.48,0,0,0-18,4.64c-.57.44-1.1.91-1.62,1.4a16.7,16.7,0,0,0-2.93,3.48,21.89,21.89,0,0,0-3,6.67,23.27,23.27,0,0,0-.43,10.56,11.87,11.87,0,0,0,.19,1.89c-1.35.51-2,2.85-1.4,5.42s2.31,4.6,3.8,4.26c1.74-.39,1-3.78.82-5a15,15,0,0,0-.85-3.32,29.72,29.72,0,0,1-.81-4,23.42,23.42,0,0,1,.05-5.55,21.85,21.85,0,0,1,4.34-10.59,23.06,23.06,0,0,1,19.25-8.59.61.61,0,0,0,.41.06l.15,0,.15,0a.61.61,0,0,0,.41-.06,23.06,23.06,0,0,1,19.25,8.59,21.85,21.85,0,0,1,4.34,10.59,23.42,23.42,0,0,1,0,5.55,29.72,29.72,0,0,1-.81,4,15,15,0,0,0-.85,3.32c-.18,1.24-.92,4.63.82,5,1.49.34,3.2-1.57,3.8-4.26S82.11,49.33,80.76,48.82Z"/>
  </g>
</svg>
