<svg xmlns="http://www.w3.org/2000/svg" width="400" height="400" viewBox="0 0 400 400">
  <defs>
    <style>
      .cls-1 {
        isolation: isolate;
      }

      .cls-2, .cls-61 {
        fill: none;
      }

      .cls-3 {
        fill: #d8d5ed;
      }

      .cls-4 {
        fill: #cfccd9;
      }

      .cls-5 {
        fill: #914c3a;
      }

      .cls-6 {
        fill: #b52318;
      }

      .cls-7 {
        fill: #ce3929;
      }

      .cls-8 {
        fill: #3f3466;
      }

      .cls-9 {
        fill: #2c273e;
      }

      .cls-10 {
        fill: #6b5559;
      }

      .cls-11 {
        fill: #594348;
      }

      .cls-12 {
        fill: #ede3c3;
      }

      .cls-13 {
        fill: #f9f5e5;
      }

      .cls-14 {
        fill: #e5d8b1;
      }

      .cls-15 {
        fill: #b25473;
      }

      .cls-16 {
        fill: #ffb882;
      }

      .cls-17 {
        fill: #f4eab5;
      }

      .cls-18 {
        fill: #ff9566;
      }

      .cls-19 {
        fill: #c6a3ac;
      }

      .cls-20 {
        fill: #cebe91;
      }

      .cls-21 {
        fill: #843131;
        opacity: 0.6;
      }

      .cls-21, .cls-24, .cls-27, .cls-55 {
        mix-blend-mode: multiply;
      }

      .cls-22 {
        fill: #ea7b59;
      }

      .cls-23 {
        fill: #4f3131;
      }

      .cls-24 {
        fill: #939598;
      }

      .cls-25 {
        fill: #ed1c24;
      }

      .cls-26 {
        fill: #ffb740;
      }

      .cls-27 {
        fill: #a7a9ac;
      }

      .cls-28, .cls-40 {
        fill: #fff;
      }

      .cls-28 {
        opacity: 0.5;
      }

      .cls-29 {
        fill: #b2151b;
      }

      .cls-30 {
        fill: #754c29;
      }

      .cls-31 {
        fill: #a97c50;
      }

      .cls-32 {
        fill: #3c2415;
      }

      .cls-33 {
        fill: #ffc717;
      }

      .cls-34 {
        fill: #d1d3d4;
      }

      .cls-35 {
        fill: #414042;
      }

      .cls-36 {
        fill: #382f12;
      }

      .cls-37 {
        fill: #ecd691;
      }

      .cls-38 {
        fill: #e0ba47;
      }

      .cls-39 {
        fill: #6d6e71;
      }

      .cls-40 {
        stroke: #a97c50;
      }

      .cls-40, .cls-61 {
        stroke-miterlimit: 10;
      }

      .cls-41 {
        fill: #e82e5b;
      }

      .cls-42, .cls-51 {
        fill: #f9f0c7;
      }

      .cls-43 {
        fill: #51a8bf;
      }

      .cls-44 {
        fill: #67c1d6;
      }

      .cls-45 {
        fill: #3a91a5;
      }

      .cls-46 {
        fill: #efdbb4;
      }

      .cls-47 {
        fill: #a03264;
      }

      .cls-48 {
        fill: #382225;
      }

      .cls-49 {
        fill: #ef78a9;
      }

      .cls-50 {
        fill: #e55c9a;
      }

      .cls-51 {
        mix-blend-mode: overlay;
        opacity: 0.21;
      }

      .cls-52 {
        fill: #db428f;
      }

      .cls-53 {
        fill: #352929;
      }

      .cls-54, .cls-55 {
        fill: #4f4141;
      }

      .cls-55 {
        opacity: 0.75;
      }

      .cls-56 {
        fill: #ff7db8;
      }

      .cls-57 {
        fill: #64afdd;
      }

      .cls-58 {
        fill: #efe2ac;
      }

      .cls-59 {
        fill: #ad8066;
      }

      .cls-60 {
        fill: #ff97bd;
      }

      .cls-61 {
        stroke: #3f3466;
      }
    </style>
  </defs>
  <g class="cls-1">
    <g id="Capa_1" data-name="Capa 1">
      <rect class="cls-2" width="400" height="400"/>
      <path class="cls-3" d="M200,81.94v-70C96.13,11.92,11.92,96.13,11.92,200S96.13,388.08,200,388.08v-70a118.06,118.06,0,0,1,0-236.12Z"/>
      <path class="cls-4" d="M200,388.08c103.87,0,188.08-84.21,188.08-188.08S303.87,11.92,200,11.92v70a118.06,118.06,0,0,1,0,236.12Z"/>
      <g>
        <ellipse class="cls-5" cx="69.7" cy="390.42" rx="53.86" ry="1.78"/>
        <g>
          <path class="cls-6" d="M85.13,177.39c0-2.29-1.31-4.14-2.92-4.14s-2.93,1.85-2.93,4.14,1.31,4.14,2.93,4.14S85.13,179.68,85.13,177.39Z"/>
          <path class="cls-7" d="M60.37,174.7c-10.2-11.4-19.06-23-15.83-29.59s8.54-4.33,8.54-4.33-3.43-11.37,5.54-17.37,13.09,3,13.09,3,9.82-6.8,13.87-2.8S87,133.83,87,133.83s2.75.26,2.89,4.18-4.21,3.33-4.21,3.33,4,1.93,1.78,5.4-6.76,1.37-6.76,1.37S68.1,183.32,60.37,174.7Z"/>
          <g>
            <path class="cls-6" d="M88.05,143.93a3.36,3.36,0,0,1-.59,2.81c-1.56,2.41-4.2,2.14-5.67,1.75A24.56,24.56,0,0,0,88.05,143.93Z"/>
            <path class="cls-6" d="M44.54,145.11c3.24-6.55,8.54-4.33,8.54-4.33s-3-9.84,3.85-16c-3.12,8.08,6.79,13.62,12.63,12.68,6.36-1,4.18,14.51,10.75,11.75-2.18,5.81-13,33.26-19.94,25.53C50.17,163.3,41.31,151.67,44.54,145.11Z"/>
          </g>
          <path class="cls-8" d="M114,243.34c-1.37-5.3-7.23-40.76-12.62-46.37s-8.7,28.95-7.7,37.28,2.51,17.28,10.12,19.85C106.9,255.15,114.91,246.81,114,243.34Z"/>
          <path class="cls-9" d="M100.69,217.92c.49,15.57,3.87,28,7.73,28,1.87,0,3.83-2.13,4.69-6.86.39,2,.7,3.45.91,4.24.89,3.47-7.12,11.81-10.2,10.76-7.61-2.57-9.12-11.51-10.12-19.85C92.74,226.25,100.39,208.57,100.69,217.92Z"/>
          <path class="cls-8" d="M34.85,237.45c1.54-14.85,1.62-37.08,7.77-42.6s15.13,20.62,15.4,29-3.75,27-7.58,28.22S34.48,240.94,34.85,237.45Z"/>
          <path class="cls-9" d="M34.85,237.45c.2-1.91.37-3.94.54-6,.33,5.24.58,6.57,2.19,6.91,3.11.65,5.07-9.85,7.06-24.26,1-7.1,4.19-12.19,3.85-17.1,4.81,6.24,9.34,21,9.53,26.84.28,8.33-5.1,29.06-9.2,28.84C40.34,252.19,34.48,240.94,34.85,237.45Z"/>
          <path class="cls-10" d="M50.74,253.15c26.23-8.46,46.7,2.5,46.7,2.5,4.46,30.7.62,95.24-2.78,133.77h-.91C92.33,355,78.81,287,78.81,287l-5.29,2.16-29,100.3h-.9C46.5,355.9,50.74,253.15,50.74,253.15Z"/>
          <g>
            <path class="cls-11" d="M80.76,265.94l-12.29.3L49.13,290.05c1-21.16,1.61-36.9,1.61-36.9,26.23-8.46,46.7,2.5,46.7,2.5,1.38,9.52,2,22.3,2,36.54Z"/>
            <path class="cls-11" d="M65.47,285.94a36.69,36.69,0,0,0,19.73-1.82l-2.33,3.07S92.48,369,94.71,388.88c0,.18,0,.37,0,.54h-.91C92.33,355,78.06,288.2,78.06,288.2L74.21,290,44.52,389.42h-.9a1.8,1.8,0,0,1,0-.22L70.89,288.91Z"/>
          </g>
          <path class="cls-12" d="M95.82,243.12l2.36,18.63s-27.87,2.51-48.05-1.13l-.06-14.78,25-18.86Z"/>
          <polygon class="cls-13" points="78.54 261.73 71.32 261.54 75.22 255.11 78.54 261.73"/>
          <path class="cls-8" d="M102.6,289.71c-11.3-8.21-27.29-37.58-27.29-37.58s-12.75,20.92-27.67,34.25c0,0,1.86-50.16,1-57s-6.43-33-5.65-34.7S61.68,182.43,70.82,183s28.27,10.31,30.05,13.19S98.7,238.8,99,242,104.9,291.38,102.6,289.71Z"/>
          <path class="cls-9" d="M47.18,229.4c-.32-2.54-2.07-14.07-1.61-18.07,5.17,14.12,41.5,25.77,47.32,23.81s6.12-9,7.88-19.18c0,12.7-2,23.59-1.81,26,.09,1.05.77,6.81,1.55,14-7.13-.83-16-.92-17.28.72-.65.83.14,5.51,1.34,10.92-5.33-8.27-9.26-15.48-9.26-15.48s-4.12,6.75-10.41,15c1.51-4.84,5-15.82,3-16.79-7.83-3.87-14.25,6.48-19.39,7.39A215,215,0,0,0,47.18,229.4Z"/>
          <path class="cls-13" d="M75.73,228.26l-20.8-40.89c4.77-2.66,11.56-5,15.86-4.72,3.92.26,9.78,2.06,15.23,4.77Z"/>
          <polygon class="cls-14" points="70.22 187.41 72.43 187.63 77.64 221.27 75.75 228.4 71.36 219.67 70.22 187.41"/>
          <polygon class="cls-14" points="72.1 194.79 74.06 190.47 72.61 188.37 70.11 188.2 69.19 190.3 72.1 194.79"/>
          <path class="cls-14" d="M76.13,192.66,71.69,188a15.43,15.43,0,0,0,10-2.74l1.15.69S81.5,189.41,76.13,192.66Z"/>
          <path class="cls-14" d="M67.94,193.12l4.38-4.87c-4.79-.34-8.4-1-12.38-3.44l-2,1.06S60.61,189.25,67.94,193.12Z"/>
          <polygon class="cls-15" points="70.93 186.74 71.97 186.74 76.9 223.62 75.76 228.5 72.33 221.57 70.93 186.74"/>
          <path class="cls-16" d="M81.16,185.38,80,172.88,60,165.15,60.08,185s6.3,2.54,11.16,2.66A25.62,25.62,0,0,0,81.16,185.38Z"/>
          <path class="cls-17" d="M93.24,390.64h14.21s-11.14-4.78-13.14-5.23S93.24,390.64,93.24,390.64Z"/>
          <path class="cls-17" d="M47.41,390.64h-12s6.65-4.78,8.27-5.23S47.41,390.64,47.41,390.64Z"/>
          <g>
            <path class="cls-18" d="M64,227.81l-2.08,13c3,.18,7.95,1.57,9.37,2.48l3.82-8.63S67.27,231.8,64,227.81Z"/>
            <path class="cls-18" d="M66.39,231.41c-.67-.89-.59-2.46-2.39-4.11-5.43-5-7.09-9.67-8.08-9.79-1.44-.16-3,.88-3,1.67s5.71,7.33,4.67,7.67c-1.72.57-5.47-1.46-6.29-1.13-1.77.73.26,9.24,1.11,11.48s7.27,5,12,3.81C66.12,240.58,66.39,231.41,66.39,231.41Z"/>
            <path class="cls-18" d="M53.53,233.85c.26,2.09.41,4.52,5.59,7.13-3.27-.66-6.71-2.22-7.26-3.69-.85-2.24-2.88-10.9-1.11-11.63.08,0,5.37,2,5.5,2.05C55,230.25,53.15,230.69,53.53,233.85Z"/>
            <path class="cls-18" d="M54.83,226.6a5.18,5.18,0,0,0,2.73.25c1-.34-4.71-6.88-4.67-7.67s1.59-1.83,3-1.67c1,.12,2.65,4.79,8.08,9.79,3,2.72,2.85,6,2.5,8.83A6.43,6.43,0,0,1,60,235C58.05,233.29,56,228.46,54.83,226.6Z"/>
            <path class="cls-18" d="M55.68,225.9c-2.77-.52-5.53-1.17-6.4-1.06s-1.34,2.92,0,3.66a23.32,23.32,0,0,0,7.29,1.6C57,229.93,57.22,226.2,55.68,225.9Z"/>
            <path class="cls-18" d="M55.49,230.58c-2.77-.52-5.53-1.17-6.4-1.06s-1.34,2.92,0,3.66a23.91,23.91,0,0,0,7.29,1.6C56.79,234.61,57,230.87,55.49,230.58Z"/>
            <path class="cls-18" d="M56.27,235.54a57.93,57.93,0,0,0-5.89-1.08c-1.11.07-1.21,2.59,0,3.41s6.93,1.58,7.33,1.41S57.71,235.8,56.27,235.54Z"/>
          </g>
          <polygon class="cls-12" points="68.49 229.88 73.78 231.24 71.11 245.42 65.82 244.06 68.49 229.88"/>
          <path class="cls-8" d="M103,252.75c-12.33-.94-35.64-7.25-35.64-7.25l3.16-16.19s28.87,3.28,33.09,5.74S112.07,253.45,103,252.75Z"/>
          <g>
            <path class="cls-9" d="M86.47,231.79c-2.11-.49-13.41-2.44-15.39-2.79,8.79,1.18,29.52,4.22,32.11,5.74C98.36,234.83,94.74,233.71,86.47,231.79Z"/>
            <path class="cls-9" d="M84.5,243.94c10.37,2.41,19.54,3.07,24,2,.55,4.52-.56,8.62-5,8.28-12.33-.94-36.13-8.71-36.13-8.71l1.28-6.59A96.25,96.25,0,0,0,84.5,243.94Z"/>
          </g>
          <polygon class="cls-11" points="79.73 264.65 78.95 283.14 77.21 283.44 75.74 263.82 79.73 264.65"/>
          <polygon class="cls-11" points="71.14 265.11 77.31 265.11 77.74 270.33 71.58 270.33 71.14 265.11"/>
          <polygon class="cls-19" points="73.11 264.86 78.22 264.68 78.34 267.85 73.23 268.02 73.11 264.86"/>
          <path class="cls-9" d="M71.16,239.37a1.65,1.65,0,0,1,1.68-1.8,2,2,0,0,1,2,1.8,1.64,1.64,0,0,1-1.68,1.8A2,2,0,0,1,71.16,239.37Z"/>
          <path class="cls-20" d="M71.68,238.84a1.06,1.06,0,0,1,1.09-1.17,1.3,1.3,0,0,1,1.29,1.17A1.07,1.07,0,0,1,73,240,1.31,1.31,0,0,1,71.68,238.84Z"/>
          <path class="cls-9" d="M76.47,241.19a1.65,1.65,0,0,1,1.68-1.8,2,2,0,0,1,2,1.8,1.65,1.65,0,0,1-1.68,1.8A2,2,0,0,1,76.47,241.19Z"/>
          <path class="cls-20" d="M77.36,240.51a1.08,1.08,0,0,1,1.1-1.18,1.32,1.32,0,0,1,1.29,1.18,1.07,1.07,0,0,1-1.1,1.17A1.3,1.3,0,0,1,77.36,240.51Z"/>
          <polygon class="cls-15" points="71.95 192.97 73.91 188.66 72.46 186.55 69.96 186.38 69.04 188.49 71.95 192.97"/>
          <path class="cls-13" d="M76.18,191.72l-4.71-5.23c4.29-.14,6.87-.62,9.84-2.61l1.45,1.48S81.61,188.2,76.18,191.72Z"/>
          <path class="cls-13" d="M67.63,191.78l4.55-5.32c-4.8-.36-8.2-.94-12.32-3.33l-1.44,2.19S60.31,187.89,67.63,191.78Z"/>
          <path class="cls-21" d="M74.37,206.39c-9,0-20.49-5.51-25.16-16,.84-.43,4.87-2.55,5.76-3l0-.07c1-.54,2-1.07,3.13-1.56l.53-.28a1.61,1.61,0,0,1-.17-.21l1.44-2.19.21.11,0-18.09L80,172.88,81,184.05l.28-.17,1.45,1.48a3.44,3.44,0,0,1-.22.42l.32.19h0c1.06.45,2.12.92,3.16,1.44l0,.17c2.4,1,4.73,2.16,6.82,3.25C89.53,200.16,82.73,206.39,74.37,206.39Z"/>
          <path class="cls-16" d="M83.77,142.45c2.21,4.82-.39,39.64-1.26,40.9,0,0-13.33.16-21.1-6.56-1.72-1.5-2.07-29.56,1-35.33S80.57,135.48,83.77,142.45Z"/>
          <path class="cls-6" d="M65.29,156.45c-.61,12.05.36,18.26,3.65,19.11s4.18,5.88-1.06,4.91-7-2.36-7.83-6.14c-1.3-5.75-.24-13.62-.24-13.62Z"/>
          <path class="cls-6" d="M63.4,137.41c4.64,7.16,1.12,28.06.68,29.08s-4.52-.32-4.65-2.25S59,130.61,63.4,137.41Z"/>
          <path class="cls-16" d="M61.11,167.76c-2.68-2.16-6.29-7.06-5.13-9.8,1.36-3.21,4.23-1.22,5.47,2.82C62.42,164,61.11,167.76,61.11,167.76Z"/>
          <path class="cls-22" d="M60.21,165.32c-1.7-1.37-4-4.47-3.25-6.2.86-2,2.67-.77,3.46,1.78A8.37,8.37,0,0,1,60.21,165.32Z"/>
          <path class="cls-16" d="M60.33,165.5c-1.18-.95-2.76-3.1-2.25-4.3.59-1.41,1.85-.54,2.4,1.24A5.81,5.81,0,0,1,60.33,165.5Z"/>
          <path class="cls-6" d="M69.3,170.76a16.07,16.07,0,0,0,7-.92L81,173.22s-1.35-5.25-3.92-6S69.3,170.76,69.3,170.76Z"/>
          <g>
            <path class="cls-23" d="M82.06,156.54c-.12-1.44-.77-2.69-1.46-2.79s-1.15,1-1,2.44.77,2.72,1.47,2.82S82.19,158,82.06,156.54Z"/>
            <path class="cls-16" d="M76.91,153.23c.86-.63,5,12.36,4.73,14.47-.15,1.09-6-1.34-6-1.34S76.76,153.35,76.91,153.23Z"/>
            <path class="cls-22" d="M77.28,153.5c1,2.14,4.31,12.09,4,13.82-.12.81-3.85-.51-5.23-1.07,0,.34,0,.54,0,.54s6.41,3.08,6.53,2C82.79,166.64,78.19,153.78,77.28,153.5Z"/>
            <path class="cls-23" d="M73.81,155.21c-.09-1.45-.74-2.7-1.43-2.81s-1.21,1-1.12,2.44.73,2.74,1.44,2.85S73.9,156.67,73.81,155.21Z"/>
            <path class="cls-7" d="M74.91,149.09c-.63,1.63-6.15,1.36-6.93.47s-1.32-1.81-.37-2.35,5.48-1.91,6.45-1.24A3.05,3.05,0,0,1,74.91,149.09Z"/>
            <path class="cls-7" d="M78.89,149.58c.29,1.59,5.67,3.06,6.28,2.29s1.07-1.57.47-2.15-5.11-3.54-5.85-3A3.51,3.51,0,0,0,78.89,149.58Z"/>
            <path class="cls-23" d="M74,173.52c0-.89.5-1.54,1-1.47s.88.84.84,1.72-.5,1.54-1,1.47S74,174.4,74,173.52Z"/>
          </g>
          <g>
            <path class="cls-16" d="M60.11,201.82l10.77,9.62c-2.35,1.63-5.51,5.25-6.06,6.71L55.64,213S60.12,206.75,60.11,201.82Z"/>
            <path class="cls-16" d="M60.58,206c-.06-1.06-1.22-2.31-.88-4.57,1-6.81-.85-11.47-.11-12.06,1.08-.86,3.09-.77,3.68-.15s.36,8.87,1.47,8.63c1.83-.39,3.53-3.93,4.44-4.06,2-.29,6.21,7.71,7.08,10s-2.58,7.71-7.32,9.12C67.2,213.38,60.58,206,60.58,206Z"/>
            <path class="cls-16" d="M73,201.58c1.24,1.84,2.81,3.91.33,8.64,2.25-2.18,4-5.18,3.45-6.65-.86-2.27-5.2-10.39-7.18-10.1-.09,0-3,4.34-3.14,4.42C69.24,199.35,71.08,198.79,73,201.58Z"/>
            <path class="cls-16" d="M66.83,196.27a4.45,4.45,0,0,1-2.09,1.57c-1.11.24-.88-8-1.47-8.63s-2.6-.71-3.68.15c-.74.59,1.14,5.25.11,12.06-.56,3.71,1.84,6.37,4.08,8.5a5.36,5.36,0,0,0,4.61-4.21C68.83,203.37,67.16,198.38,66.83,196.27Z"/>
            <path class="cls-16" d="M69.06,199.87c1.93-1.82,3.77-3.72,4.57-4.07s3.15,1.73,2.58,3c-.67,1.49-4.47,4.87-4.94,5S68,200.88,69.06,199.87Z"/>
            <path class="cls-16" d="M71.87,204.33A46,46,0,0,1,76,200.5c1-.49,2.81,1.53,2.36,2.81s-4.66,4.76-5.11,4.82S70.85,205.26,71.87,204.33Z"/>
            <path class="cls-16" d="M66.53,196.73c1-1.68,3.3-4.53,3.83-5.44.42-.73,2-5.26,2.53-5.46s2.78-.28,2.8.9a26.47,26.47,0,0,1-2.43,7.37c-.75,1-2.91,4.55-3.33,4.68S65.83,197.91,66.53,196.73Z"/>
          </g>
          <polygon class="cls-12" points="55.32 209.34 52.82 213.84 66.13 221.6 68.63 217.1 55.32 209.34"/>
          <path class="cls-8" d="M49.86,249.23c7.8-9.1,18.64-29.63,18.64-29.63l-15.34-8.74s-17.39,22-18.31,26.59S44.13,255.92,49.86,249.23Z"/>
          <path class="cls-9" d="M35,237c3.38,5.22,6.54,8.7,10.32,4.29,5.48-6.41,12.17-19,15.65-25.88l7.55,4.21s-10.23,21.58-18,30.68C44.75,257,33.92,242,34.85,237.45A3.78,3.78,0,0,1,35,237Z"/>
          <path class="cls-9" d="M55.73,225.59a2,2,0,0,1-1.36-2.27,1.68,1.68,0,0,1,2.21-1.15,2,2,0,0,1,1.36,2.27A1.7,1.7,0,0,1,55.73,225.59Z"/>
          <path class="cls-20" d="M55.33,224.9a1.28,1.28,0,0,1-.89-1.48,1.11,1.11,0,0,1,1.45-.75,1.26,1.26,0,0,1,.88,1.48A1.1,1.1,0,0,1,55.33,224.9Z"/>
          <path class="cls-9" d="M58.73,221.33a2,2,0,0,1-1.35-2.27,1.68,1.68,0,0,1,2.21-1.15A2,2,0,0,1,61,220.18,1.7,1.7,0,0,1,58.73,221.33Z"/>
          <path class="cls-20" d="M58.28,220.23a1.27,1.27,0,0,1-.89-1.48,1.11,1.11,0,0,1,1.44-.75,1.28,1.28,0,0,1,.89,1.48A1.09,1.09,0,0,1,58.28,220.23Z"/>
        </g>
      </g>
      <g>
        <path class="cls-24" d="M160.3,263a.38.38,0,0,0,0-.76v-6.06a.38.38,0,0,0,0-.76v-6.06a.38.38,0,0,0,0-.75h-14a.38.38,0,0,0,0,.75v6.06a.38.38,0,0,0,0,.76v6.06a.38.38,0,0,0,0,.76v3.24h14Z"/>
        <g>
          <rect class="cls-25" x="141.96" y="245.06" width="13.97" height="21.22"/>
          <rect class="cls-26" x="141.96" y="252.3" width="13.97" height="6.73"/>
          <g>
            <rect class="cls-27" x="150.8" y="245.06" width="4.55" height="21.22"/>
            <rect class="cls-27" x="149.72" y="245.06" width="4.91" height="21.22"/>
          </g>
          <rect class="cls-28" x="143.51" y="245.06" width="2.98" height="21.22"/>
          <g>
            <rect class="cls-27" x="141.96" y="245.45" width="13.97" height="0.75"/>
            <g>
              <g>
                <path class="cls-29" d="M155.91,245.82H142a.39.39,0,0,1-.39-.38h0a.39.39,0,0,1,.39-.38h13.92a.38.38,0,0,1,.38.38h0A.38.38,0,0,1,155.91,245.82Z"/>
                <path class="cls-29" d="M155.91,245.82H142a.39.39,0,0,1-.39-.38h0a.39.39,0,0,1,.39-.38h13.92a.38.38,0,0,1,.38.38h0A.38.38,0,0,1,155.91,245.82Z"/>
              </g>
              <g>
                <path class="cls-28" d="M150,245.44H141.6a.39.39,0,0,1,.39-.38h7.6a.38.38,0,0,1,.38.38Z"/>
                <path class="cls-27" d="M150,245.44v0a.37.37,0,0,1-.25.36h6.19a.38.38,0,0,0,.38-.38Z"/>
              </g>
            </g>
          </g>
          <g>
            <rect class="cls-27" x="141.96" y="252.26" width="13.97" height="0.75"/>
            <g>
              <g>
                <path class="cls-29" d="M155.91,252.64H142a.39.39,0,0,1-.39-.38h0a.39.39,0,0,1,.39-.39h13.92a.38.38,0,0,1,.38.39h0A.38.38,0,0,1,155.91,252.64Z"/>
                <path class="cls-29" d="M155.91,252.64H142a.39.39,0,0,1-.39-.38h0a.39.39,0,0,1,.39-.39h13.92a.38.38,0,0,1,.38.39h0A.38.38,0,0,1,155.91,252.64Z"/>
              </g>
              <g>
                <path class="cls-28" d="M150,252.26H141.6a.39.39,0,0,1,.39-.39h7.6a.38.38,0,0,1,.38.39Z"/>
                <path class="cls-27" d="M150,252.26v0a.39.39,0,0,1-.25.36h6.19a.38.38,0,0,0,.38-.38Z"/>
              </g>
            </g>
          </g>
          <g>
            <rect class="cls-27" x="141.96" y="259.08" width="13.97" height="0.75"/>
            <g>
              <g>
                <path class="cls-29" d="M155.91,259.45H142a.39.39,0,0,1-.39-.38h0a.39.39,0,0,1,.39-.38h13.92a.38.38,0,0,1,.38.38h0A.38.38,0,0,1,155.91,259.45Z"/>
                <path class="cls-29" d="M155.91,259.45H142a.39.39,0,0,1-.39-.38h0a.39.39,0,0,1,.39-.38h13.92a.38.38,0,0,1,.38.38h0A.38.38,0,0,1,155.91,259.45Z"/>
              </g>
              <g>
                <path class="cls-28" d="M150,259.07H141.6a.39.39,0,0,1,.39-.38h7.6a.38.38,0,0,1,.38.38Z"/>
                <path class="cls-27" d="M150,259.07v0a.37.37,0,0,1-.25.35h6.19a.38.38,0,0,0,.38-.38Z"/>
              </g>
            </g>
          </g>
          <g>
            <g>
              <path class="cls-29" d="M155.91,266.27H142a.39.39,0,0,1-.39-.38h0a.39.39,0,0,1,.39-.38h13.92a.38.38,0,0,1,.38.38h0A.38.38,0,0,1,155.91,266.27Z"/>
              <path class="cls-29" d="M155.91,266.27H142a.39.39,0,0,1-.39-.38h0a.39.39,0,0,1,.39-.38h13.92a.38.38,0,0,1,.38.38h0A.38.38,0,0,1,155.91,266.27Z"/>
            </g>
            <g>
              <path class="cls-28" d="M150,265.89H141.6a.39.39,0,0,1,.39-.38h7.6a.38.38,0,0,1,.38.38Z"/>
              <path class="cls-27" d="M150,265.89v0a.37.37,0,0,1-.25.36h6.19a.38.38,0,0,0,.38-.38Z"/>
            </g>
          </g>
        </g>
      </g>
      <g>
        <polygon class="cls-24" points="298.17 283.21 159.97 283.21 145.01 270.98 145.79 162.62 284.95 162.62 298.17 176.17 298.17 283.21"/>
        <rect class="cls-30" x="140.15" y="162.62" width="144.79" height="108.36"/>
        <rect class="cls-31" x="128.21" y="162.62" width="144.79" height="108.36"/>
        <rect class="cls-32" x="132.32" y="167.33" width="136.57" height="98.94"/>
        <g>
          <path class="cls-24" d="M178.85,262.78a.41.41,0,0,0,0-.82v-6.53a.4.4,0,0,0,.38-.4.41.41,0,0,0-.38-.41v-6.53a.4.4,0,0,0,.38-.4.41.41,0,0,0-.38-.41h-15a.41.41,0,0,0-.38.41.4.4,0,0,0,.38.4v6.53a.41.41,0,0,0-.38.41.4.4,0,0,0,.38.4V262a.41.41,0,0,0,0,.82v3.49h15Z"/>
          <g>
            <rect class="cls-25" x="158.65" y="245.06" width="13.97" height="21.22"/>
            <rect class="cls-26" x="158.65" y="252.3" width="13.97" height="6.73"/>
            <g>
              <rect class="cls-27" x="167.49" y="245.06" width="4.55" height="21.22"/>
              <rect class="cls-27" x="166.41" y="245.06" width="4.91" height="21.22"/>
            </g>
            <rect class="cls-28" x="160.2" y="245.06" width="2.98" height="21.22"/>
            <g>
              <rect class="cls-27" x="158.65" y="245.45" width="13.97" height="0.75"/>
              <g>
                <g>
                  <path class="cls-29" d="M172.59,245.82H158.67a.38.38,0,0,1-.38-.38h0a.38.38,0,0,1,.38-.38h13.92a.38.38,0,0,1,.39.38h0A.38.38,0,0,1,172.59,245.82Z"/>
                  <path class="cls-29" d="M172.59,245.82H158.67a.38.38,0,0,1-.38-.38h0a.38.38,0,0,1,.38-.38h13.92a.38.38,0,0,1,.39.38h0A.38.38,0,0,1,172.59,245.82Z"/>
                </g>
                <g>
                  <path class="cls-28" d="M166.66,245.44h-8.37a.38.38,0,0,1,.38-.38h7.6a.39.39,0,0,1,.39.38Z"/>
                  <path class="cls-27" d="M166.66,245.44v0a.38.38,0,0,1-.25.36h6.18a.38.38,0,0,0,.39-.38Z"/>
                </g>
              </g>
            </g>
            <g>
              <rect class="cls-27" x="158.65" y="252.26" width="13.97" height="0.75"/>
              <g>
                <g>
                  <path class="cls-29" d="M172.59,252.64H158.67a.38.38,0,0,1-.38-.38h0a.38.38,0,0,1,.38-.39h13.92a.38.38,0,0,1,.39.39h0A.38.38,0,0,1,172.59,252.64Z"/>
                  <path class="cls-29" d="M172.59,252.64H158.67a.38.38,0,0,1-.38-.38h0a.38.38,0,0,1,.38-.39h13.92a.38.38,0,0,1,.39.39h0A.38.38,0,0,1,172.59,252.64Z"/>
                </g>
                <g>
                  <path class="cls-28" d="M166.66,252.26h-8.37a.38.38,0,0,1,.38-.39h7.6a.39.39,0,0,1,.39.39Z"/>
                  <path class="cls-27" d="M166.66,252.26v0a.4.4,0,0,1-.25.36h6.18a.38.38,0,0,0,.39-.38Z"/>
                </g>
              </g>
            </g>
            <g>
              <rect class="cls-27" x="158.65" y="259.08" width="13.97" height="0.75"/>
              <g>
                <g>
                  <path class="cls-29" d="M172.59,259.45H158.67a.38.38,0,0,1-.38-.38h0a.38.38,0,0,1,.38-.38h13.92a.38.38,0,0,1,.39.38h0A.38.38,0,0,1,172.59,259.45Z"/>
                  <path class="cls-29" d="M172.59,259.45H158.67a.38.38,0,0,1-.38-.38h0a.38.38,0,0,1,.38-.38h13.92a.38.38,0,0,1,.39.38h0A.38.38,0,0,1,172.59,259.45Z"/>
                </g>
                <g>
                  <path class="cls-28" d="M166.66,259.07h-8.37a.38.38,0,0,1,.38-.38h7.6a.39.39,0,0,1,.39.38Z"/>
                  <path class="cls-27" d="M166.66,259.07v0a.38.38,0,0,1-.25.35h6.18a.38.38,0,0,0,.39-.38Z"/>
                </g>
              </g>
            </g>
            <g>
              <g>
                <path class="cls-29" d="M172.59,266.27H158.67a.38.38,0,0,1-.38-.38h0a.38.38,0,0,1,.38-.38h13.92a.38.38,0,0,1,.39.38h0A.38.38,0,0,1,172.59,266.27Z"/>
                <path class="cls-29" d="M172.59,266.27H158.67a.38.38,0,0,1-.38-.38h0a.38.38,0,0,1,.38-.38h13.92a.38.38,0,0,1,.39.38h0A.38.38,0,0,1,172.59,266.27Z"/>
              </g>
              <g>
                <path class="cls-28" d="M166.66,265.89h-8.37a.38.38,0,0,1,.38-.38h7.6a.39.39,0,0,1,.39.38Z"/>
                <path class="cls-27" d="M166.66,265.89v0a.38.38,0,0,1-.25.36h6.18a.38.38,0,0,0,.39-.38Z"/>
              </g>
            </g>
          </g>
        </g>
        <g>
          <path class="cls-24" d="M254.75,263a.38.38,0,0,0,0-.76v-6.06a.38.38,0,0,0,0-.76v-6.06a.38.38,0,0,0,0-.75h-14a.38.38,0,0,0,0,.75v6.06a.38.38,0,0,0,0,.76v6.06a.38.38,0,0,0,0,.76v3.24h14Z"/>
          <g>
            <rect class="cls-26" x="233.79" y="245.06" width="13.97" height="21.22"/>
            <rect class="cls-26" x="233.79" y="252.3" width="13.97" height="6.73"/>
            <g>
              <rect class="cls-27" x="242.64" y="245.06" width="4.55" height="21.22"/>
              <rect class="cls-27" x="241.55" y="245.06" width="4.91" height="21.22"/>
            </g>
            <rect class="cls-28" x="235.35" y="245.06" width="2.98" height="21.22"/>
            <g>
              <rect class="cls-27" x="233.79" y="245.45" width="13.97" height="0.75"/>
              <g>
                <g>
                  <path class="cls-33" d="M247.74,245.82H233.82a.38.38,0,0,1-.38-.38h0a.38.38,0,0,1,.38-.38h13.92a.38.38,0,0,1,.38.38h0A.38.38,0,0,1,247.74,245.82Z"/>
                  <path class="cls-33" d="M247.74,245.82H233.82a.38.38,0,0,1-.38-.38h0a.38.38,0,0,1,.38-.38h13.92a.38.38,0,0,1,.38.38h0A.38.38,0,0,1,247.74,245.82Z"/>
                </g>
                <g>
                  <path class="cls-28" d="M241.8,245.44h-8.36a.38.38,0,0,1,.38-.38h7.6a.38.38,0,0,1,.38.38Z"/>
                  <path class="cls-27" d="M241.8,245.44v0a.37.37,0,0,1-.25.36h6.19a.38.38,0,0,0,.38-.38Z"/>
                </g>
              </g>
            </g>
            <g>
              <rect class="cls-27" x="233.79" y="252.26" width="13.97" height="0.75"/>
              <g>
                <g>
                  <path class="cls-33" d="M247.74,252.64H233.82a.38.38,0,0,1-.38-.38h0a.38.38,0,0,1,.38-.39h13.92a.38.38,0,0,1,.38.39h0A.38.38,0,0,1,247.74,252.64Z"/>
                  <path class="cls-33" d="M247.74,252.64H233.82a.38.38,0,0,1-.38-.38h0a.38.38,0,0,1,.38-.39h13.92a.38.38,0,0,1,.38.39h0A.38.38,0,0,1,247.74,252.64Z"/>
                </g>
                <g>
                  <path class="cls-28" d="M241.8,252.26h-8.36a.38.38,0,0,1,.38-.39h7.6a.38.38,0,0,1,.38.39Z"/>
                  <path class="cls-27" d="M241.8,252.26v0a.39.39,0,0,1-.25.36h6.19a.38.38,0,0,0,.38-.38Z"/>
                </g>
              </g>
            </g>
            <g>
              <rect class="cls-27" x="233.79" y="259.08" width="13.97" height="0.75"/>
              <g>
                <g>
                  <path class="cls-33" d="M247.74,259.45H233.82a.38.38,0,0,1-.38-.38h0a.38.38,0,0,1,.38-.38h13.92a.38.38,0,0,1,.38.38h0A.38.38,0,0,1,247.74,259.45Z"/>
                  <path class="cls-33" d="M247.74,259.45H233.82a.38.38,0,0,1-.38-.38h0a.38.38,0,0,1,.38-.38h13.92a.38.38,0,0,1,.38.38h0A.38.38,0,0,1,247.74,259.45Z"/>
                </g>
                <g>
                  <path class="cls-28" d="M241.8,259.07h-8.36a.38.38,0,0,1,.38-.38h7.6a.38.38,0,0,1,.38.38Z"/>
                  <path class="cls-27" d="M241.8,259.07v0a.37.37,0,0,1-.25.35h6.19a.38.38,0,0,0,.38-.38Z"/>
                </g>
              </g>
            </g>
            <g>
              <g>
                <path class="cls-29" d="M247.74,266.27H233.82a.38.38,0,0,1-.38-.38h0a.38.38,0,0,1,.38-.38h13.92a.38.38,0,0,1,.38.38h0A.38.38,0,0,1,247.74,266.27Z"/>
                <path class="cls-33" d="M247.74,266.27H233.82a.38.38,0,0,1-.38-.38h0a.38.38,0,0,1,.38-.38h13.92a.38.38,0,0,1,.38.38h0A.38.38,0,0,1,247.74,266.27Z"/>
              </g>
              <g>
                <path class="cls-28" d="M241.8,265.89h-8.36a.38.38,0,0,1,.38-.38h7.6a.38.38,0,0,1,.38.38Z"/>
                <path class="cls-27" d="M241.8,265.89v0a.37.37,0,0,1-.25.36h6.19a.38.38,0,0,0,.38-.38Z"/>
              </g>
            </g>
          </g>
        </g>
        <polygon class="cls-27" points="268.89 186.35 145.78 186.35 132.32 167.33 268.89 167.33 268.89 186.35"/>
        <g>
          <path class="cls-24" d="M210.29,236.9c0,17.75,13.08,32.14,29.21,32.14s29.2-14.38,29.21-32.12v0h0c0-17.74-13.07-32.13-29.21-32.13S210.29,219.16,210.29,236.9ZM235.21,258c-.38-.15-.75-.32-1.12-.5a1.57,1.57,0,0,1-.69-2.11l4.72-9.44a7,7,0,0,0,1.94.28c.18,0,.35,0,.53,0v11.38a1.57,1.57,0,0,1-.55,1.17A16.58,16.58,0,0,1,235.21,258ZM240,215a1.55,1.55,0,0,1,.55,1.16v11.39c-.18,0-.35,0-.53,0a7,7,0,0,0-1.94.28l-4.72-9.45a1.56,1.56,0,0,1,.69-2.1c.37-.18.74-.35,1.12-.51A16.92,16.92,0,0,1,240,215Zm-14.95,12.23a1.52,1.52,0,0,1,.63.24l7.27,4.84a10.5,10.5,0,0,0-1,3.71h-8a1.57,1.57,0,0,1-1.56-1.73,25.35,25.35,0,0,1,1.36-6.06A1.56,1.56,0,0,1,225.09,227.25ZM234,230.7l-7.42-4.94a1.58,1.58,0,0,1-.45-2.17,21.42,21.42,0,0,1,3.74-4.43,1.47,1.47,0,0,1,.8-.37,1.59,1.59,0,0,1,1.17.85l4.48,9A8.41,8.41,0,0,0,234,230.7Zm2.32,14.51-4.48,9a1.59,1.59,0,0,1-1.17.85,1.63,1.63,0,0,1-.8-.37,21.73,21.73,0,0,1-3.74-4.43,1.58,1.58,0,0,1,.45-2.17l7.42-5A8.29,8.29,0,0,0,236.32,245.21Zm15,9-5.38-10.78a9.05,9.05,0,0,0,1.11-1.7l9.41,6.28a21.22,21.22,0,0,1-5,6.43Zm5.14-28.33L247,232.11a9.31,9.31,0,0,0-1.11-1.69l5.38-10.78a1.88,1.88,0,0,1,.16-.23A21.06,21.06,0,0,1,256.43,225.84Zm.81,1.76A24.31,24.31,0,0,1,259,236H248.14a11.23,11.23,0,0,0-.39-2.11Zm0,18.6-9.49-6.33a11,11,0,0,0,.39-2.1H259A24.48,24.48,0,0,1,257.24,246.2Zm-14.38-30.92a17.28,17.28,0,0,1,7,2.87,1.43,1.43,0,0,1-.08.22L244.42,229a7.74,7.74,0,0,0-1.87-1V216.18A1.51,1.51,0,0,1,242.86,215.28Zm0,43.25a1.51,1.51,0,0,1-.31-.91v-11.8a8.1,8.1,0,0,0,1.87-1l5.32,10.63a2.09,2.09,0,0,1,.08.23A17.28,17.28,0,0,1,242.86,258.53Zm-17.14-12.21a1.47,1.47,0,0,1-.63.24,1.56,1.56,0,0,1-1.25-1,25.35,25.35,0,0,1-1.36-6.06,1.57,1.57,0,0,1,1.56-1.73h8a10.45,10.45,0,0,0,1,3.7Z"/>
          <g>
            <path d="M234.73,223c-4.48,0-8.11,4.19-8.11,9.36s3.63,9.37,8.11,9.37,8.11-4.19,8.11-9.37S239.21,223,234.73,223Z"/>
            <path d="M234.17,200.2c-16.13,0-29.2,14.39-29.2,32.13s13.07,32.14,29.2,32.14,29.21-14.39,29.21-32.14S250.31,200.2,234.17,200.2Zm2.56,56.63c-11.72,0-21.21-11-21.21-24.5s9.49-24.49,21.21-24.49,21.2,11,21.2,24.49S248.44,256.83,236.73,256.83Z"/>
            <path d="M235.93,202.5c-15.17,0-27.46,13.36-27.46,29.83s12.29,29.84,27.46,29.84,27.45-13.36,27.45-29.84S251.09,202.5,235.93,202.5Zm2.39,56.16c-11,0-24.48-13.77-24.48-26.33s13.47-26.25,24.48-26.25,19.94,13.7,19.94,26.25S249.34,258.66,238.32,258.66Z"/>
            <g>
              <path d="M234.73,208c-11.64,0-21.08,10.88-21.08,24.29s9.44,24.3,21.08,24.3,21.09-10.88,21.09-24.3S246.38,208,234.73,208Zm0,46.18c-10.49,0-19-9.8-19-21.89s8.5-21.88,19-21.88,19,9.8,19,21.88S245.23,254.22,234.73,254.22Z"/>
              <g>
                <path d="M236,207.4c-11.93,0-21.6,11.16-21.6,24.93s9.67,24.95,21.6,24.95,21.59-11.17,21.59-24.95S247.94,207.4,236,207.4ZM254,241a1.57,1.57,0,0,1-2.34.76L241.51,235a1,1,0,0,1-.39-1.08h0a.85.85,0,0,1,.8-.72h11.84a1.57,1.57,0,0,1,1.56,1.73A24.89,24.89,0,0,1,254,241Zm-12-9.52a.85.85,0,0,1-.8-.71v0a1,1,0,0,1,.39-1.08l10.11-6.74a1.57,1.57,0,0,1,2.34.76,24.89,24.89,0,0,1,1.37,6.06,1.57,1.57,0,0,1-1.56,1.73ZM251.68,219a1.58,1.58,0,0,1-.45,2.17l-10.47,7a.74.74,0,0,1-1-.16h0a1.07,1.07,0,0,1-.14-1.15l5.89-11.78a1.56,1.56,0,0,1,2.43-.48A21.46,21.46,0,0,1,251.68,219Zm-17.05,19.23h0a1,1,0,0,1,.62.92v13.89a1.56,1.56,0,0,1-1.77,1.55A17.28,17.28,0,0,1,228.3,253a1.57,1.57,0,0,1-.69-2.11l6.08-12.17A.78.78,0,0,1,234.63,238.25ZM228.3,211.7a17.28,17.28,0,0,1,5.19-1.64,1.56,1.56,0,0,1,1.77,1.56V225.5a1,1,0,0,1-.62.92h0a.79.79,0,0,1-.94-.45l-6.08-12.17A1.57,1.57,0,0,1,228.3,211.7Zm8.45,27.47a1,1,0,0,1,.62-.92h0a.77.77,0,0,1,.93.44l6.09,12.17a1.58,1.58,0,0,1-.69,2.11,17.37,17.37,0,0,1-5.19,1.64,1.57,1.57,0,0,1-1.78-1.55ZM238.32,226a.79.79,0,0,1-.93.45h0a1,1,0,0,1-.62-.92V211.62a1.57,1.57,0,0,1,1.78-1.56,17.37,17.37,0,0,1,5.19,1.64,1.58,1.58,0,0,1,.69,2.11Zm-14.24-11.39a1.56,1.56,0,0,1,2.43.48l5.89,11.78a1,1,0,0,1-.14,1.15h0a.74.74,0,0,1-1,.16l-10.47-7a1.58,1.58,0,0,1-.44-2.17A21.11,21.11,0,0,1,224.08,214.59Zm-7.4,20.34a1.58,1.58,0,0,1,1.57-1.73h11.84a.86.86,0,0,1,.8.72h0a1,1,0,0,1-.38,1.08l-10.12,6.74a1.57,1.57,0,0,1-2.34-.76A25.36,25.36,0,0,1,216.68,234.93Zm14.21-4.19v0a.86.86,0,0,1-.8.71H218.25a1.58,1.58,0,0,1-1.57-1.73,24.89,24.89,0,0,1,1.37-6.06,1.57,1.57,0,0,1,2.34-.76l10.12,6.74A1,1,0,0,1,230.89,230.74Zm-10.55,14.91a1.58,1.58,0,0,1,.44-2.17l10.47-7a.75.75,0,0,1,1,.16h0a1.07,1.07,0,0,1,.14,1.16l-5.89,11.77a1.56,1.56,0,0,1-2.43.48A21.11,21.11,0,0,1,220.34,245.65Zm27.59,4.43a1.56,1.56,0,0,1-2.43-.48l-5.89-11.77a1.09,1.09,0,0,1,.14-1.16h0a.74.74,0,0,1,1-.16l10.47,7a1.59,1.59,0,0,1,.45,2.17A21.46,21.46,0,0,1,247.93,250.08Z"/>
                <path class="cls-34" d="M236.47,207.4c-11.93,0-21.59,11.16-21.59,24.93s9.66,24.95,21.59,24.95,21.6-11.17,21.6-24.95S248.4,207.4,236.47,207.4Zm18,33.59a1.58,1.58,0,0,1-2.35.76L242,235a1,1,0,0,1-.38-1.08h0a.85.85,0,0,1,.8-.72h11.84a1.57,1.57,0,0,1,1.56,1.73A25.35,25.35,0,0,1,254.43,241Zm-12-9.52a.86.86,0,0,1-.8-.71v0a1,1,0,0,1,.38-1.08l10.11-6.74a1.58,1.58,0,0,1,2.35.76,25.36,25.36,0,0,1,1.37,6.06,1.58,1.58,0,0,1-1.57,1.73ZM252.14,219a1.59,1.59,0,0,1-.44,2.17l-10.48,7a.74.74,0,0,1-1-.16h0a1.07,1.07,0,0,1-.13-1.15L246,215.07a1.57,1.57,0,0,1,2.44-.48A21.11,21.11,0,0,1,252.14,219Zm-17,19.23h0a.93.93,0,0,1,.62.92v13.89a1.56,1.56,0,0,1-1.77,1.55,17.37,17.37,0,0,1-5.19-1.64,1.58,1.58,0,0,1-.69-2.11l6.09-12.17A.77.77,0,0,1,235.09,238.25Zm-6.33-26.55a17.37,17.37,0,0,1,5.19-1.64,1.56,1.56,0,0,1,1.77,1.56V225.5a.93.93,0,0,1-.62.92h0a.79.79,0,0,1-.93-.45l-6.09-12.17A1.58,1.58,0,0,1,228.76,211.7Zm8.46,27.47a.93.93,0,0,1,.62-.92h0a.76.76,0,0,1,.93.44l6.09,12.17a1.57,1.57,0,0,1-.69,2.11,17.37,17.37,0,0,1-5.19,1.64,1.56,1.56,0,0,1-1.77-1.55ZM238.78,226a.78.78,0,0,1-.93.45h0a.93.93,0,0,1-.62-.92V211.62a1.56,1.56,0,0,1,1.77-1.56,17.37,17.37,0,0,1,5.19,1.64,1.57,1.57,0,0,1,.69,2.11Zm-14.24-11.39a1.57,1.57,0,0,1,2.44.48l5.88,11.78a1,1,0,0,1-.13,1.15h0a.74.74,0,0,1-1,.16l-10.47-7a1.58,1.58,0,0,1-.45-2.17A21.73,21.73,0,0,1,224.54,214.59Zm-7.39,20.34a1.57,1.57,0,0,1,1.56-1.73h11.84a.85.85,0,0,1,.8.72h0A1,1,0,0,1,231,235l-10.11,6.74a1.57,1.57,0,0,1-2.34-.76A24.89,24.89,0,0,1,217.15,234.93Zm14.2-4.19v0a.86.86,0,0,1-.8.71H218.71a1.57,1.57,0,0,1-1.56-1.73,25.35,25.35,0,0,1,1.36-6.06,1.58,1.58,0,0,1,2.35-.76L231,229.66A1,1,0,0,1,231.35,230.74ZM220.8,245.65a1.58,1.58,0,0,1,.45-2.17l10.47-7a.74.74,0,0,1,1,.16h0a1.06,1.06,0,0,1,.13,1.16L227,249.6a1.57,1.57,0,0,1-2.44.48A21.73,21.73,0,0,1,220.8,245.65Zm27.6,4.43a1.57,1.57,0,0,1-2.44-.48l-5.88-11.77a1.08,1.08,0,0,1,.13-1.16h0a.74.74,0,0,1,1-.16l10.47,7a1.58,1.58,0,0,1,.45,2.17A21.11,21.11,0,0,1,248.4,250.08Z"/>
              </g>
            </g>
            <path class="cls-35" d="M236.73,203.74c-13.68,0-24.76,12.81-24.76,28.59s11.08,28.6,24.76,28.6,24.76-12.8,24.76-28.6S250.4,203.74,236.73,203.74Zm0,54.36c-12.33,0-22.31-11.54-22.31-25.77s10-25.76,22.31-25.76S259,218.11,259,232.33,249.05,258.1,236.73,258.1Z"/>
            <g>
              <path d="M236.73,228.12a4.26,4.26,0,1,0,3.65,4.22A4,4,0,0,0,236.73,228.12Z"/>
              <g>
                <g>
                  <path d="M239.52,229.24a3.13,3.13,0,1,1-2.68,3.1A2.91,2.91,0,0,1,239.52,229.24Z"/>
                  <path class="cls-36" d="M236.84,232.34a2.91,2.91,0,0,1,2.68-3.1h-2.17a3.13,3.13,0,0,0,0,6.19h2.17A2.91,2.91,0,0,1,236.84,232.34Z"/>
                  <path class="cls-37" d="M239.52,229.24h-2.17a2.8,2.8,0,0,0-2.61,2.4h2.17A2.79,2.79,0,0,1,239.52,229.24Z"/>
                </g>
                <path class="cls-38" d="M239.52,229.83a2.53,2.53,0,1,1-2.17,2.51A2.36,2.36,0,0,1,239.52,229.83Z"/>
              </g>
            </g>
            <path class="cls-39" d="M236.73,206c-12.6,0-22.8,11.79-22.8,26.32s10.2,26.33,22.8,26.33,22.79-11.78,22.79-26.33S249.32,206,236.73,206Zm0,50.05c-11.35,0-20.54-10.63-20.54-23.73s9.19-23.72,20.54-23.72,20.54,10.63,20.54,23.72S248.07,256.06,236.73,256.06Z"/>
          </g>
        </g>
        <g>
          <path class="cls-24" d="M187.1,236.9c0,17.75,13.08,32.14,29.21,32.14s29.2-14.38,29.21-32.12v0h0c0-17.74-13.07-32.13-29.21-32.13S187.1,219.16,187.1,236.9ZM212,258c-.38-.15-.75-.32-1.12-.5a1.57,1.57,0,0,1-.69-2.11l4.72-9.44a7,7,0,0,0,1.94.28c.18,0,.35,0,.53,0v11.38a1.57,1.57,0,0,1-.55,1.17A16.58,16.58,0,0,1,212,258Zm4.83-43a1.55,1.55,0,0,1,.55,1.16v11.39c-.18,0-.35,0-.53,0a7,7,0,0,0-1.94.28l-4.72-9.45a1.56,1.56,0,0,1,.69-2.1c.37-.18.74-.35,1.12-.51A16.86,16.86,0,0,1,216.85,215ZM201.9,227.25a1.52,1.52,0,0,1,.63.24l7.27,4.84a10.5,10.5,0,0,0-1,3.71h-8a1.57,1.57,0,0,1-1.56-1.73,25.35,25.35,0,0,1,1.36-6.06A1.55,1.55,0,0,1,201.9,227.25Zm8.91,3.45-7.42-4.94a1.58,1.58,0,0,1-.45-2.17,21.42,21.42,0,0,1,3.74-4.43,1.47,1.47,0,0,1,.8-.37,1.59,1.59,0,0,1,1.17.85l4.48,9A8.41,8.41,0,0,0,210.81,230.7Zm2.32,14.51-4.48,9a1.59,1.59,0,0,1-1.17.85,1.63,1.63,0,0,1-.8-.37,21.42,21.42,0,0,1-3.74-4.43,1.58,1.58,0,0,1,.45-2.17l7.42-5A8.29,8.29,0,0,0,213.13,245.21Zm15,9-5.39-10.78a9.09,9.09,0,0,0,1.12-1.7l9.41,6.28a21.22,21.22,0,0,1-5,6.43Zm5.14-28.33-9.41,6.27a9.31,9.31,0,0,0-1.11-1.69l5.38-10.78a1.88,1.88,0,0,1,.16-.23A21.22,21.22,0,0,1,233.24,225.84Zm.81,1.76a24.54,24.54,0,0,1,1.78,8.44H224.94a10.47,10.47,0,0,0-.38-2.11Zm0,18.6-9.49-6.33a10.25,10.25,0,0,0,.38-2.1h10.89A24.48,24.48,0,0,1,234.05,246.2Zm-14.38-30.92a17.33,17.33,0,0,1,7,2.87,1.43,1.43,0,0,1-.08.22L221.23,229a7.74,7.74,0,0,0-1.87-1V216.18A1.51,1.51,0,0,1,219.67,215.28Zm0,43.25a1.51,1.51,0,0,1-.31-.91v-11.8a8.1,8.1,0,0,0,1.87-1l5.32,10.63a2.09,2.09,0,0,1,.08.23A17.33,17.33,0,0,1,219.67,258.53Zm-17.14-12.21a1.52,1.52,0,0,1-.63.24,1.56,1.56,0,0,1-1.25-1,25.35,25.35,0,0,1-1.36-6.06,1.57,1.57,0,0,1,1.56-1.73h8a10.45,10.45,0,0,0,1,3.7Z"/>
          <g>
            <path d="M211.54,223c-4.48,0-8.11,4.19-8.11,9.36s3.63,9.37,8.11,9.37,8.11-4.19,8.11-9.37S216,223,211.54,223Z"/>
            <path d="M211,200.2c-16.13,0-29.2,14.39-29.2,32.13s13.07,32.14,29.2,32.14,29.21-14.39,29.21-32.14S227.12,200.2,211,200.2Zm2.56,56.63c-11.72,0-21.21-11-21.21-24.5s9.49-24.49,21.21-24.49,21.2,11,21.2,24.49S225.25,256.83,213.54,256.83Z"/>
            <path d="M212.73,202.5c-15.16,0-27.45,13.36-27.45,29.83s12.29,29.84,27.45,29.84,27.46-13.36,27.46-29.84S227.9,202.5,212.73,202.5Zm2.4,56.16c-11,0-24.48-13.77-24.48-26.33s13.47-26.25,24.48-26.25,19.94,13.7,19.94,26.25S226.15,258.66,215.13,258.66Z"/>
            <g>
              <path d="M211.54,208c-11.64,0-21.08,10.88-21.08,24.29s9.44,24.3,21.08,24.3,21.09-10.88,21.09-24.3S223.19,208,211.54,208Zm0,46.18c-10.49,0-19-9.8-19-21.89s8.5-21.88,19-21.88,19,9.8,19,21.88S222,254.22,211.54,254.22Z"/>
              <g>
                <path d="M212.82,207.4c-11.93,0-21.6,11.16-21.6,24.93s9.67,24.95,21.6,24.95,21.59-11.17,21.59-24.95S224.75,207.4,212.82,207.4Zm18,33.59a1.57,1.57,0,0,1-2.34.76L218.32,235a1,1,0,0,1-.39-1.08h0a.85.85,0,0,1,.8-.72h11.84a1.57,1.57,0,0,1,1.56,1.73A24.89,24.89,0,0,1,230.77,241Zm-12-9.52a.85.85,0,0,1-.8-.71v0a1,1,0,0,1,.39-1.08l10.11-6.74a1.57,1.57,0,0,1,2.34.76,24.89,24.89,0,0,1,1.37,6.06,1.57,1.57,0,0,1-1.56,1.73ZM228.49,219a1.58,1.58,0,0,1-.45,2.17l-10.47,7a.74.74,0,0,1-1-.16h0a1.07,1.07,0,0,1-.14-1.15l5.89-11.78a1.56,1.56,0,0,1,2.43-.48A21.46,21.46,0,0,1,228.49,219Zm-17.05,19.23h0a1,1,0,0,1,.62.92v13.89a1.56,1.56,0,0,1-1.77,1.55,17.28,17.28,0,0,1-5.19-1.64,1.57,1.57,0,0,1-.69-2.11l6.08-12.17A.78.78,0,0,1,211.44,238.25Zm-6.33-26.55a17.28,17.28,0,0,1,5.19-1.64,1.56,1.56,0,0,1,1.77,1.56V225.5a1,1,0,0,1-.62.92h0a.79.79,0,0,1-.94-.45l-6.08-12.17A1.57,1.57,0,0,1,205.11,211.7Zm8.45,27.47a1,1,0,0,1,.62-.92h0a.77.77,0,0,1,.93.44l6.09,12.17a1.58,1.58,0,0,1-.7,2.11,17.22,17.22,0,0,1-5.18,1.64,1.57,1.57,0,0,1-1.78-1.55ZM215.13,226a.79.79,0,0,1-.93.45h0a1,1,0,0,1-.62-.92V211.62a1.57,1.57,0,0,1,1.78-1.56,17.22,17.22,0,0,1,5.18,1.64,1.58,1.58,0,0,1,.7,2.11Zm-14.24-11.39a1.56,1.56,0,0,1,2.43.48l5.89,11.78a1,1,0,0,1-.14,1.15h0a.74.74,0,0,1-1,.16l-10.47-7a1.58,1.58,0,0,1-.44-2.17A21.11,21.11,0,0,1,200.89,214.59Zm-7.4,20.34a1.58,1.58,0,0,1,1.57-1.73H206.9a.86.86,0,0,1,.8.72h0a1,1,0,0,1-.38,1.08l-10.12,6.74a1.57,1.57,0,0,1-2.34-.76A24.89,24.89,0,0,1,193.49,234.93Zm14.21-4.19v0a.86.86,0,0,1-.8.71H195.06a1.58,1.58,0,0,1-1.57-1.73,24.89,24.89,0,0,1,1.37-6.06,1.57,1.57,0,0,1,2.34-.76l10.12,6.74A1,1,0,0,1,207.7,230.74Zm-10.55,14.91a1.58,1.58,0,0,1,.44-2.17l10.47-7a.74.74,0,0,1,1,.16h0a1.07,1.07,0,0,1,.14,1.16l-5.89,11.77a1.56,1.56,0,0,1-2.43.48A21.11,21.11,0,0,1,197.15,245.65Zm27.59,4.43a1.56,1.56,0,0,1-2.43-.48l-5.89-11.77a1.09,1.09,0,0,1,.14-1.16h0a.74.74,0,0,1,1-.16l10.47,7a1.59,1.59,0,0,1,.45,2.17A21.46,21.46,0,0,1,224.74,250.08Z"/>
                <path class="cls-34" d="M213.28,207.4c-11.93,0-21.6,11.16-21.6,24.93s9.67,24.95,21.6,24.95,21.6-11.17,21.6-24.95S225.21,207.4,213.28,207.4Zm18,33.59a1.58,1.58,0,0,1-2.35.76L218.78,235a1,1,0,0,1-.38-1.08h0a.85.85,0,0,1,.8-.72H231a1.57,1.57,0,0,1,1.56,1.73A25.35,25.35,0,0,1,231.24,241Zm-12-9.52a.86.86,0,0,1-.8-.71v0a1,1,0,0,1,.38-1.08l10.11-6.74a1.58,1.58,0,0,1,2.35.76,24.88,24.88,0,0,1,1.36,6.06,1.57,1.57,0,0,1-1.56,1.73ZM229,219a1.58,1.58,0,0,1-.45,2.17l-10.47,7a.74.74,0,0,1-1-.16h0a1.07,1.07,0,0,1-.13-1.15l5.88-11.78a1.57,1.57,0,0,1,2.44-.48A21.11,21.11,0,0,1,229,219Zm-17,19.23h0a.93.93,0,0,1,.62.92v13.89a1.56,1.56,0,0,1-1.77,1.55,17.37,17.37,0,0,1-5.19-1.64,1.58,1.58,0,0,1-.69-2.11L211,238.69A.77.77,0,0,1,211.9,238.25Zm-6.33-26.55a17.37,17.37,0,0,1,5.19-1.64,1.56,1.56,0,0,1,1.77,1.56V225.5a.93.93,0,0,1-.62.92h0A.79.79,0,0,1,211,226l-6.09-12.17A1.58,1.58,0,0,1,205.57,211.7ZM214,239.17a.93.93,0,0,1,.62-.92h0a.76.76,0,0,1,.93.44l6.09,12.17A1.57,1.57,0,0,1,221,253a17.37,17.37,0,0,1-5.19,1.64,1.56,1.56,0,0,1-1.77-1.55ZM215.59,226a.78.78,0,0,1-.93.45h0a.93.93,0,0,1-.62-.92V211.62a1.56,1.56,0,0,1,1.77-1.56A17.37,17.37,0,0,1,221,211.7a1.57,1.57,0,0,1,.69,2.11Zm-14.24-11.39a1.57,1.57,0,0,1,2.44.48l5.88,11.78a1.07,1.07,0,0,1-.13,1.15h0a.74.74,0,0,1-1,.16l-10.47-7a1.58,1.58,0,0,1-.45-2.17A21.73,21.73,0,0,1,201.35,214.59ZM194,234.93a1.57,1.57,0,0,1,1.56-1.73h11.84a.85.85,0,0,1,.8.72h0a1,1,0,0,1-.38,1.08l-10.11,6.74a1.58,1.58,0,0,1-2.35-.76A25.35,25.35,0,0,1,194,234.93Zm14.2-4.19v0a.86.86,0,0,1-.8.71H195.52a1.57,1.57,0,0,1-1.56-1.73,25.35,25.35,0,0,1,1.36-6.06,1.58,1.58,0,0,1,2.35-.76l10.11,6.74A1,1,0,0,1,208.16,230.74Zm-10.55,14.91a1.58,1.58,0,0,1,.45-2.17l10.47-7a.74.74,0,0,1,1,.16h0a1.08,1.08,0,0,1,.13,1.16l-5.88,11.77a1.57,1.57,0,0,1-2.44.48A21.73,21.73,0,0,1,197.61,245.65Zm27.6,4.43a1.57,1.57,0,0,1-2.44-.48l-5.88-11.77a1.08,1.08,0,0,1,.13-1.16h0a.74.74,0,0,1,1-.16l10.47,7a1.58,1.58,0,0,1,.45,2.17A21.11,21.11,0,0,1,225.21,250.08Z"/>
              </g>
            </g>
            <path class="cls-35" d="M213.54,203.74c-13.68,0-24.76,12.81-24.76,28.59s11.08,28.6,24.76,28.6,24.75-12.8,24.75-28.6S227.21,203.74,213.54,203.74Zm0,54.36c-12.33,0-22.31-11.54-22.31-25.77s10-25.76,22.31-25.76,22.3,11.54,22.3,25.76S225.86,258.1,213.54,258.1Z"/>
            <g>
              <path d="M213.54,228.12a4.26,4.26,0,1,0,3.65,4.22A4,4,0,0,0,213.54,228.12Z"/>
              <g>
                <g>
                  <path d="M216.33,229.24a3.13,3.13,0,1,1-2.68,3.1A2.91,2.91,0,0,1,216.33,229.24Z"/>
                  <path class="cls-36" d="M213.65,232.34a2.91,2.91,0,0,1,2.68-3.1h-2.17a3.13,3.13,0,0,0,0,6.19h2.17A2.91,2.91,0,0,1,213.65,232.34Z"/>
                  <path class="cls-37" d="M216.33,229.24h-2.17a2.8,2.8,0,0,0-2.61,2.4h2.17A2.79,2.79,0,0,1,216.33,229.24Z"/>
                </g>
                <path class="cls-38" d="M216.33,229.83a2.53,2.53,0,1,1-2.18,2.51A2.36,2.36,0,0,1,216.33,229.83Z"/>
              </g>
            </g>
            <path class="cls-39" d="M213.54,206c-12.6,0-22.8,11.79-22.8,26.32s10.2,26.33,22.8,26.33,22.79-11.78,22.79-26.33S226.13,206,213.54,206Zm0,50.05c-11.35,0-20.54-10.63-20.54-23.73s9.19-23.72,20.54-23.72,20.54,10.63,20.54,23.72S224.88,256.06,213.54,256.06Z"/>
          </g>
        </g>
        <g>
          <path class="cls-24" d="M158.73,236.9c0,17.75,13.08,32.14,29.21,32.14s29.2-14.38,29.21-32.12v0h0c0-17.74-13.07-32.13-29.21-32.13S158.73,219.16,158.73,236.9ZM183.65,258c-.38-.15-.75-.32-1.12-.5a1.57,1.57,0,0,1-.69-2.11l4.72-9.44a7,7,0,0,0,1.94.28c.18,0,.35,0,.53,0v11.38a1.55,1.55,0,0,1-.56,1.17A16.52,16.52,0,0,1,183.65,258Zm4.82-43a1.53,1.53,0,0,1,.56,1.16v11.39c-.18,0-.35,0-.53,0a7,7,0,0,0-1.94.28l-4.72-9.45a1.56,1.56,0,0,1,.69-2.1c.37-.18.74-.35,1.12-.51A16.8,16.8,0,0,1,188.47,215Zm-14.94,12.23a1.52,1.52,0,0,1,.63.24l7.27,4.84a10.1,10.1,0,0,0-1,3.71h-8a1.58,1.58,0,0,1-1.57-1.73,25.36,25.36,0,0,1,1.37-6.06A1.55,1.55,0,0,1,173.53,227.25Zm8.9,3.45L175,225.76a1.59,1.59,0,0,1-.44-2.17,21.11,21.11,0,0,1,3.74-4.43,1.47,1.47,0,0,1,.8-.37,1.59,1.59,0,0,1,1.17.85l4.48,9A8.45,8.45,0,0,0,182.43,230.7Zm2.33,14.51-4.48,9a1.59,1.59,0,0,1-1.17.85,1.63,1.63,0,0,1-.8-.37,21.11,21.11,0,0,1-3.74-4.43,1.58,1.58,0,0,1,.45-2.17l7.41-5A8.33,8.33,0,0,0,184.76,245.21Zm15,9-5.39-10.78a9.09,9.09,0,0,0,1.12-1.7l9.41,6.28a21.09,21.09,0,0,1-5,6.43C199.83,254.32,199.77,254.25,199.73,254.17Zm5.14-28.33-9.41,6.27a9.35,9.35,0,0,0-1.12-1.69l5.39-10.78a1.19,1.19,0,0,1,.16-.23A21.22,21.22,0,0,1,204.87,225.84Zm.81,1.76a24.54,24.54,0,0,1,1.78,8.44H196.57a10.47,10.47,0,0,0-.38-2.11Zm0,18.6-9.49-6.33a10.25,10.25,0,0,0,.38-2.1h10.89A24.48,24.48,0,0,1,205.68,246.2ZM191.3,215.28a17.33,17.33,0,0,1,7,2.87.85.85,0,0,1-.09.22L192.86,229a7.74,7.74,0,0,0-1.87-1V216.18A1.51,1.51,0,0,1,191.3,215.28Zm0,43.25a1.51,1.51,0,0,1-.31-.91v-11.8a8.1,8.1,0,0,0,1.87-1l5.31,10.63a2.18,2.18,0,0,1,.09.23A17.33,17.33,0,0,1,191.3,258.53Zm-17.14-12.21a1.52,1.52,0,0,1-.63.24,1.55,1.55,0,0,1-1.25-1,25.36,25.36,0,0,1-1.37-6.06,1.58,1.58,0,0,1,1.57-1.73h8a10.24,10.24,0,0,0,1,3.7Z"/>
          <g>
            <path d="M183.17,223c-4.48,0-8.11,4.19-8.11,9.36s3.63,9.37,8.11,9.37,8.11-4.19,8.11-9.37S187.65,223,183.17,223Z"/>
            <path d="M182.61,200.2c-16.13,0-29.21,14.39-29.21,32.13s13.08,32.14,29.21,32.14,29.21-14.39,29.21-32.14S198.75,200.2,182.61,200.2Zm2.55,56.63c-11.71,0-21.2-11-21.2-24.5s9.49-24.49,21.2-24.49,21.21,11,21.21,24.49S196.88,256.83,185.16,256.83Z"/>
            <path d="M184.36,202.5c-15.16,0-27.45,13.36-27.45,29.83s12.29,29.84,27.45,29.84,27.46-13.36,27.46-29.84S199.53,202.5,184.36,202.5Zm2.4,56.16c-11,0-24.48-13.77-24.48-26.33s13.47-26.25,24.48-26.25,19.94,13.7,19.94,26.25S197.78,258.66,186.76,258.66Z"/>
            <g>
              <path d="M183.17,208c-11.65,0-21.08,10.88-21.08,24.29s9.43,24.3,21.08,24.3,21.09-10.88,21.09-24.3S194.82,208,183.17,208Zm0,46.18c-10.49,0-19-9.8-19-21.89s8.5-21.88,19-21.88,19,9.8,19,21.88S193.67,254.22,183.17,254.22Z"/>
              <g>
                <path d="M184.45,207.4c-11.93,0-21.6,11.16-21.6,24.93s9.67,24.95,21.6,24.95S206,246.11,206,232.33,196.37,207.4,184.45,207.4Zm18,33.59a1.57,1.57,0,0,1-2.34.76L190,235a1,1,0,0,1-.39-1.08h0a.85.85,0,0,1,.8-.72H202.2a1.58,1.58,0,0,1,1.57,1.73A24.89,24.89,0,0,1,202.4,241Zm-12-9.52a.85.85,0,0,1-.8-.71v0a1,1,0,0,1,.39-1.08l10.11-6.74a1.57,1.57,0,0,1,2.34.76,24.89,24.89,0,0,1,1.37,6.06,1.58,1.58,0,0,1-1.57,1.73ZM200.12,219a1.59,1.59,0,0,1-.45,2.17l-10.47,7a.74.74,0,0,1-1-.16h0a1,1,0,0,1-.14-1.15l5.89-11.78a1.56,1.56,0,0,1,2.43-.48A21.46,21.46,0,0,1,200.12,219Zm-17.06,19.23h0a1,1,0,0,1,.62.92v13.89a1.56,1.56,0,0,1-1.77,1.55,17.19,17.19,0,0,1-5.19-1.64,1.58,1.58,0,0,1-.7-2.11l6.09-12.17A.77.77,0,0,1,183.06,238.25Zm-6.32-26.55a17.19,17.19,0,0,1,5.19-1.64,1.56,1.56,0,0,1,1.77,1.56V225.5a1,1,0,0,1-.62.92h0a.79.79,0,0,1-.93-.45L176,213.81A1.58,1.58,0,0,1,176.74,211.7Zm8.45,27.47a1,1,0,0,1,.62-.92h0a.77.77,0,0,1,.93.44l6.09,12.17a1.58,1.58,0,0,1-.7,2.11,17.19,17.19,0,0,1-5.19,1.64,1.56,1.56,0,0,1-1.77-1.55ZM186.76,226a.79.79,0,0,1-.93.45h0a1,1,0,0,1-.62-.92V211.62a1.56,1.56,0,0,1,1.77-1.56,17.19,17.19,0,0,1,5.19,1.64,1.58,1.58,0,0,1,.7,2.11Zm-14.24-11.39a1.56,1.56,0,0,1,2.43.48l5.89,11.78a1,1,0,0,1-.14,1.15h0a.74.74,0,0,1-1,.16l-10.47-7a1.59,1.59,0,0,1-.45-2.17A21.46,21.46,0,0,1,172.52,214.59Zm-7.4,20.34a1.58,1.58,0,0,1,1.57-1.73h11.83a.85.85,0,0,1,.8.72h0a1,1,0,0,1-.39,1.08l-10.11,6.74a1.57,1.57,0,0,1-2.34-.76A24.89,24.89,0,0,1,165.12,234.93Zm14.21-4.19v0a.85.85,0,0,1-.8.71H166.69a1.58,1.58,0,0,1-1.57-1.73,24.89,24.89,0,0,1,1.37-6.06,1.57,1.57,0,0,1,2.34-.76l10.11,6.74A1,1,0,0,1,179.33,230.74Zm-10.56,14.91a1.59,1.59,0,0,1,.45-2.17l10.47-7a.74.74,0,0,1,1,.16h0a1.07,1.07,0,0,1,.14,1.16L175,249.6a1.56,1.56,0,0,1-2.43.48A21.46,21.46,0,0,1,168.77,245.65Zm27.6,4.43a1.56,1.56,0,0,1-2.43-.48l-5.89-11.77a1.07,1.07,0,0,1,.14-1.16h0a.74.74,0,0,1,1-.16l10.47,7a1.59,1.59,0,0,1,.45,2.17A21.46,21.46,0,0,1,196.37,250.08Z"/>
                <path class="cls-34" d="M184.91,207.4c-11.93,0-21.6,11.16-21.6,24.93s9.67,24.95,21.6,24.95,21.6-11.17,21.6-24.95S196.84,207.4,184.91,207.4Zm18,33.59a1.58,1.58,0,0,1-2.35.76L190.41,235a1,1,0,0,1-.38-1.08h0a.85.85,0,0,1,.8-.72h11.84a1.57,1.57,0,0,1,1.56,1.73A25.35,25.35,0,0,1,202.87,241Zm-12-9.52a.86.86,0,0,1-.8-.71v0a1,1,0,0,1,.38-1.08l10.11-6.74a1.58,1.58,0,0,1,2.35.76,25.35,25.35,0,0,1,1.36,6.06,1.57,1.57,0,0,1-1.56,1.73ZM200.58,219a1.58,1.58,0,0,1-.45,2.17l-10.47,7a.74.74,0,0,1-1-.16h0a1.07,1.07,0,0,1-.13-1.15l5.88-11.78a1.57,1.57,0,0,1,2.44-.48A21.73,21.73,0,0,1,200.58,219Zm-17.05,19.23h0a.93.93,0,0,1,.62.92v13.89a1.56,1.56,0,0,1-1.77,1.55A17.37,17.37,0,0,1,177.2,253a1.57,1.57,0,0,1-.69-2.11l6.09-12.17A.77.77,0,0,1,183.53,238.25ZM177.2,211.7a17.37,17.37,0,0,1,5.19-1.64,1.56,1.56,0,0,1,1.77,1.56V225.5a.93.93,0,0,1-.62.92h0a.78.78,0,0,1-.93-.45l-6.09-12.17A1.57,1.57,0,0,1,177.2,211.7Zm8.46,27.47a.93.93,0,0,1,.62-.92h0a.77.77,0,0,1,.93.44l6.09,12.17a1.57,1.57,0,0,1-.69,2.11,17.37,17.37,0,0,1-5.19,1.64,1.56,1.56,0,0,1-1.77-1.55ZM187.22,226a.79.79,0,0,1-.93.45h0a.93.93,0,0,1-.62-.92V211.62a1.56,1.56,0,0,1,1.77-1.56,17.37,17.37,0,0,1,5.19,1.64,1.57,1.57,0,0,1,.69,2.11ZM173,214.59a1.57,1.57,0,0,1,2.44.48l5.88,11.78a1.07,1.07,0,0,1-.13,1.15h0a.74.74,0,0,1-1,.16l-10.47-7a1.58,1.58,0,0,1-.45-2.17A21.42,21.42,0,0,1,173,214.59Zm-7.39,20.34a1.57,1.57,0,0,1,1.56-1.73H179a.85.85,0,0,1,.8.72h0a1,1,0,0,1-.38,1.08l-10.11,6.74A1.58,1.58,0,0,1,167,241,25.35,25.35,0,0,1,165.59,234.93Zm14.2-4.19v0a.86.86,0,0,1-.8.71H167.15a1.57,1.57,0,0,1-1.56-1.73,25.35,25.35,0,0,1,1.36-6.06,1.58,1.58,0,0,1,2.35-.76l10.11,6.74A1,1,0,0,1,179.79,230.74Zm-10.55,14.91a1.58,1.58,0,0,1,.45-2.17l10.47-7a.74.74,0,0,1,1,.16h0a1.08,1.08,0,0,1,.13,1.16l-5.88,11.77a1.57,1.57,0,0,1-2.44.48A21.42,21.42,0,0,1,169.24,245.65Zm27.6,4.43a1.57,1.57,0,0,1-2.44-.48l-5.88-11.77a1.08,1.08,0,0,1,.13-1.16h0a.74.74,0,0,1,1-.16l10.47,7a1.58,1.58,0,0,1,.45,2.17A21.73,21.73,0,0,1,196.84,250.08Z"/>
              </g>
            </g>
            <path class="cls-35" d="M185.16,203.74c-13.67,0-24.75,12.81-24.75,28.59s11.08,28.6,24.75,28.6,24.76-12.8,24.76-28.6S198.84,203.74,185.16,203.74Zm0,54.36c-12.32,0-22.3-11.54-22.3-25.77s10-25.76,22.3-25.76,22.31,11.54,22.31,25.76S197.49,258.1,185.16,258.1Z"/>
            <g>
              <path d="M185.16,228.12a4.26,4.26,0,1,0,3.66,4.22A4,4,0,0,0,185.16,228.12Z"/>
              <g>
                <g>
                  <path d="M188,229.24a3.13,3.13,0,1,1-2.68,3.1A2.91,2.91,0,0,1,188,229.24Z"/>
                  <path class="cls-36" d="M185.28,232.34a2.91,2.91,0,0,1,2.68-3.1h-2.17a3.13,3.13,0,0,0,0,6.19H188A2.91,2.91,0,0,1,185.28,232.34Z"/>
                  <path class="cls-37" d="M188,229.24h-2.17a2.8,2.8,0,0,0-2.61,2.4h2.17A2.79,2.79,0,0,1,188,229.24Z"/>
                </g>
                <path class="cls-38" d="M188,229.83a2.53,2.53,0,1,1-2.18,2.51A2.36,2.36,0,0,1,188,229.83Z"/>
              </g>
            </g>
            <path class="cls-39" d="M185.16,206c-12.59,0-22.79,11.79-22.79,26.32s10.2,26.33,22.79,26.33S208,246.88,208,232.33,197.76,206,185.16,206Zm0,50.05c-11.34,0-20.54-10.63-20.54-23.73s9.2-23.72,20.54-23.72,20.54,10.63,20.54,23.72S196.51,256.06,185.16,256.06Z"/>
          </g>
        </g>
        <g>
          <path class="cls-24" d="M210.29,132.31c0,17.75,13.08,32.14,29.21,32.14s29.2-14.38,29.21-32.11v0h0c0-17.74-13.07-32.13-29.21-32.13S210.29,114.57,210.29,132.31Zm24.92,21.15c-.38-.16-.75-.33-1.12-.51a1.57,1.57,0,0,1-.69-2.11l4.72-9.44a7,7,0,0,0,1.94.28c.18,0,.35,0,.53,0V153a1.57,1.57,0,0,1-.55,1.16A16.92,16.92,0,0,1,235.21,153.46Zm4.83-43a1.57,1.57,0,0,1,.55,1.16V123c-.18,0-.35,0-.53,0a7,7,0,0,0-1.94.28l-4.72-9.44a1.57,1.57,0,0,1,.69-2.11c.37-.18.74-.35,1.12-.51A16.92,16.92,0,0,1,240,110.43Zm-14.95,12.23a1.52,1.52,0,0,1,.63.24l7.27,4.85a10.39,10.39,0,0,0-1,3.7h-8a1.57,1.57,0,0,1-1.56-1.73,25.35,25.35,0,0,1,1.36-6.06A1.56,1.56,0,0,1,225.09,122.66Zm8.91,3.45-7.42-4.94a1.58,1.58,0,0,1-.45-2.17,21.42,21.42,0,0,1,3.74-4.43,1.54,1.54,0,0,1,.8-.37,1.59,1.59,0,0,1,1.17.85l4.48,9A8.41,8.41,0,0,0,234,126.11Zm2.32,14.51-4.48,9a1.59,1.59,0,0,1-1.17.85,1.54,1.54,0,0,1-.8-.37,21.73,21.73,0,0,1-3.74-4.43,1.58,1.58,0,0,1,.45-2.17l7.42-4.94A8.41,8.41,0,0,0,236.32,140.62Zm15,9-5.38-10.78a9.05,9.05,0,0,0,1.11-1.7l9.41,6.28a21.22,21.22,0,0,1-5,6.43Zm5.14-28.33L247,127.53a9.05,9.05,0,0,0-1.11-1.7l5.38-10.78.16-.23A21.06,21.06,0,0,1,256.43,121.25Zm.81,1.77a24.2,24.2,0,0,1,1.78,8.43H248.14a11.23,11.23,0,0,0-.39-2.11Zm0,18.59-9.49-6.32a11.23,11.23,0,0,0,.39-2.11H259A24.43,24.43,0,0,1,257.24,141.61Zm-14.38-30.92a17.28,17.28,0,0,1,7,2.87,2.09,2.09,0,0,1-.08.23l-5.32,10.63a8.1,8.1,0,0,0-1.87-1V111.59A1.51,1.51,0,0,1,242.86,110.69Zm0,43.25a1.51,1.51,0,0,1-.31-.9V141.23a8.1,8.1,0,0,0,1.87-1l5.32,10.63a2.09,2.09,0,0,1,.08.23A17.28,17.28,0,0,1,242.86,153.94Zm-17.14-12.21a1.47,1.47,0,0,1-.63.24,1.56,1.56,0,0,1-1.25-1,25.35,25.35,0,0,1-1.36-6.06,1.57,1.57,0,0,1,1.56-1.73h8a10.45,10.45,0,0,0,1,3.7Z"/>
          <g>
            <path d="M234.73,118.38c-4.48,0-8.11,4.2-8.11,9.37s3.63,9.36,8.11,9.36,8.11-4.19,8.11-9.36S239.21,118.38,234.73,118.38Z"/>
            <path d="M234.17,95.61C218,95.61,205,110,205,127.74s13.07,32.14,29.2,32.14,29.21-14.39,29.21-32.14S250.31,95.61,234.17,95.61Zm2.56,56.63c-11.72,0-21.21-11-21.21-24.5s9.49-24.49,21.21-24.49,21.2,11,21.2,24.49S248.44,152.24,236.73,152.24Z"/>
            <path d="M235.93,97.92c-15.17,0-27.46,13.35-27.46,29.82s12.29,29.84,27.46,29.84,27.45-13.36,27.45-29.84S251.09,97.92,235.93,97.92Zm2.39,56.16c-11,0-24.48-13.78-24.48-26.34s13.47-26.25,24.48-26.25,19.94,13.7,19.94,26.25S249.34,154.08,238.32,154.08Z"/>
            <g>
              <path d="M234.73,103.45c-11.64,0-21.08,10.88-21.08,24.29s9.44,24.3,21.08,24.3,21.09-10.88,21.09-24.3S246.38,103.45,234.73,103.45Zm0,46.18c-10.49,0-19-9.8-19-21.89s8.5-21.88,19-21.88,19,9.8,19,21.88S245.23,149.63,234.73,149.63Z"/>
              <g>
                <path d="M236,102.81c-11.93,0-21.6,11.16-21.6,24.93s9.67,25,21.6,25,21.59-11.17,21.59-25S247.94,102.81,236,102.81Zm18,33.59a1.57,1.57,0,0,1-2.34.76l-10.11-6.74a1,1,0,0,1-.39-1.08h0a.86.86,0,0,1,.8-.72h11.84a1.58,1.58,0,0,1,1.56,1.74A24.91,24.91,0,0,1,254,136.4Zm-12-9.52a.85.85,0,0,1-.8-.71v0a1,1,0,0,1,.39-1.07l10.11-6.75a1.57,1.57,0,0,1,2.34.76,25,25,0,0,1,1.37,6.06,1.57,1.57,0,0,1-1.56,1.73Zm9.75-12.44a1.57,1.57,0,0,1-.45,2.16l-10.47,7a.75.75,0,0,1-1-.15v0a1.07,1.07,0,0,1-.14-1.15l5.89-11.78a1.56,1.56,0,0,1,2.43-.48A21.26,21.26,0,0,1,251.68,114.44Zm-17.05,19.22h0a1,1,0,0,1,.62.92v13.89a1.56,1.56,0,0,1-1.77,1.55,17.28,17.28,0,0,1-5.19-1.64,1.56,1.56,0,0,1-.69-2.1l6.08-12.18A.78.78,0,0,1,234.63,133.66Zm-6.33-26.55a17.28,17.28,0,0,1,5.19-1.64,1.56,1.56,0,0,1,1.77,1.56v13.88a.94.94,0,0,1-.62.92h0a.79.79,0,0,1-.94-.45l-6.08-12.17A1.57,1.57,0,0,1,228.3,107.11Zm8.45,27.47a1,1,0,0,1,.62-.92h0a.77.77,0,0,1,.93.44l6.09,12.18a1.57,1.57,0,0,1-.69,2.1,17.37,17.37,0,0,1-5.19,1.64,1.57,1.57,0,0,1-1.78-1.55Zm1.57-13.19a.79.79,0,0,1-.93.45h0a.94.94,0,0,1-.62-.92V107a1.57,1.57,0,0,1,1.78-1.56,17.37,17.37,0,0,1,5.19,1.64,1.58,1.58,0,0,1,.69,2.11ZM224.08,110a1.56,1.56,0,0,1,2.43.48l5.89,11.78a1,1,0,0,1-.14,1.15v0a.75.75,0,0,1-1,.15l-10.47-7a1.57,1.57,0,0,1-.44-2.16A20.92,20.92,0,0,1,224.08,110Zm-7.4,20.35a1.59,1.59,0,0,1,1.57-1.74h11.84a.87.87,0,0,1,.8.72h0a1,1,0,0,1-.38,1.08l-10.12,6.74a1.57,1.57,0,0,1-2.34-.76A25.39,25.39,0,0,1,216.68,130.35Zm14.21-4.2v0a.86.86,0,0,1-.8.71H218.25a1.58,1.58,0,0,1-1.57-1.73,25,25,0,0,1,1.37-6.06,1.57,1.57,0,0,1,2.34-.76l10.12,6.75A1,1,0,0,1,230.89,126.15Zm-10.55,14.91a1.58,1.58,0,0,1,.44-2.17l10.47-7a.76.76,0,0,1,1,.16h0a1.07,1.07,0,0,1,.14,1.16L226.51,145a1.55,1.55,0,0,1-2.43.48A21.11,21.11,0,0,1,220.34,141.06Zm27.59,4.43a1.56,1.56,0,0,1-2.43-.48l-5.89-11.77a1.09,1.09,0,0,1,.14-1.16h0a.75.75,0,0,1,1-.16l10.47,7a1.59,1.59,0,0,1,.45,2.17A21.46,21.46,0,0,1,247.93,145.49Z"/>
                <path class="cls-34" d="M236.47,102.81c-11.93,0-21.59,11.16-21.59,24.93s9.66,25,21.59,25,21.6-11.17,21.6-25S248.4,102.81,236.47,102.81Zm18,33.59a1.58,1.58,0,0,1-2.35.76L242,130.42a1,1,0,0,1-.38-1.08h0a.87.87,0,0,1,.8-.72h11.84a1.57,1.57,0,0,1,1.56,1.74A25.38,25.38,0,0,1,254.43,136.4Zm-12-9.52a.86.86,0,0,1-.8-.71v0a1,1,0,0,1,.38-1.07l10.11-6.75a1.58,1.58,0,0,1,2.35.76,25.47,25.47,0,0,1,1.37,6.06,1.58,1.58,0,0,1-1.57,1.73Zm9.75-12.44a1.58,1.58,0,0,1-.44,2.16l-10.48,7a.75.75,0,0,1-1-.15v0a1.07,1.07,0,0,1-.13-1.15L246,110.48a1.57,1.57,0,0,1,2.44-.48A20.92,20.92,0,0,1,252.14,114.44Zm-17,19.22h0a.93.93,0,0,1,.62.92v13.89A1.56,1.56,0,0,1,234,150a17.37,17.37,0,0,1-5.19-1.64,1.57,1.57,0,0,1-.69-2.1l6.09-12.18A.77.77,0,0,1,235.09,133.66Zm-6.33-26.55a17.37,17.37,0,0,1,5.19-1.64,1.56,1.56,0,0,1,1.77,1.56v13.88a.93.93,0,0,1-.62.92h0a.79.79,0,0,1-.93-.45l-6.09-12.17A1.58,1.58,0,0,1,228.76,107.11Zm8.46,27.47a.93.93,0,0,1,.62-.92h0a.76.76,0,0,1,.93.44l6.09,12.18a1.56,1.56,0,0,1-.69,2.1A17.37,17.37,0,0,1,239,150a1.56,1.56,0,0,1-1.77-1.55Zm1.56-13.19a.78.78,0,0,1-.93.45h0a.93.93,0,0,1-.62-.92V107a1.56,1.56,0,0,1,1.77-1.56,17.37,17.37,0,0,1,5.19,1.64,1.57,1.57,0,0,1,.69,2.11ZM224.54,110a1.57,1.57,0,0,1,2.44.48l5.88,11.78a1,1,0,0,1-.13,1.15v0a.75.75,0,0,1-1,.15l-10.47-7a1.57,1.57,0,0,1-.45-2.16A21.53,21.53,0,0,1,224.54,110Zm-7.39,20.35a1.58,1.58,0,0,1,1.56-1.74h11.84a.87.87,0,0,1,.8.72h0a1,1,0,0,1-.38,1.08l-10.11,6.74a1.57,1.57,0,0,1-2.34-.76A24.91,24.91,0,0,1,217.15,130.35Zm14.2-4.2v0a.86.86,0,0,1-.8.71H218.71a1.57,1.57,0,0,1-1.56-1.73,25.46,25.46,0,0,1,1.36-6.06,1.58,1.58,0,0,1,2.35-.76L231,125.08A1,1,0,0,1,231.35,126.15ZM220.8,141.06a1.58,1.58,0,0,1,.45-2.17l10.47-7a.75.75,0,0,1,1,.16h0a1.06,1.06,0,0,1,.13,1.16L227,145a1.56,1.56,0,0,1-2.44.48A21.73,21.73,0,0,1,220.8,141.06Zm27.6,4.43A1.57,1.57,0,0,1,246,145l-5.88-11.77a1.08,1.08,0,0,1,.13-1.16h0a.75.75,0,0,1,1-.16l10.47,7a1.58,1.58,0,0,1,.45,2.17A21.11,21.11,0,0,1,248.4,145.49Z"/>
              </g>
            </g>
            <path class="cls-35" d="M236.73,99.15C223.05,99.15,212,112,212,127.74s11.08,28.6,24.76,28.6,24.76-12.8,24.76-28.6S250.4,99.15,236.73,99.15Zm0,54.36c-12.33,0-22.31-11.54-22.31-25.77S224.4,102,236.73,102,259,113.52,259,127.74,249.05,153.51,236.73,153.51Z"/>
            <g>
              <path d="M236.73,123.53a4.26,4.26,0,1,0,3.65,4.22A4,4,0,0,0,236.73,123.53Z"/>
              <g>
                <g>
                  <path d="M239.52,124.65a3.13,3.13,0,1,1-2.68,3.1A2.91,2.91,0,0,1,239.52,124.65Z"/>
                  <path class="cls-36" d="M236.84,127.75a2.91,2.91,0,0,1,2.68-3.1h-2.17a3.13,3.13,0,0,0,0,6.19h2.17A2.9,2.9,0,0,1,236.84,127.75Z"/>
                  <path class="cls-37" d="M239.52,124.65h-2.17a2.8,2.8,0,0,0-2.61,2.4h2.17A2.79,2.79,0,0,1,239.52,124.65Z"/>
                </g>
                <path class="cls-38" d="M239.52,125.24a2.54,2.54,0,1,1-2.17,2.51A2.36,2.36,0,0,1,239.52,125.24Z"/>
              </g>
            </g>
            <path class="cls-39" d="M236.73,101.42c-12.6,0-22.8,11.79-22.8,26.32s10.2,26.34,22.8,26.34,22.79-11.79,22.79-26.34S249.32,101.42,236.73,101.42Zm0,50.05c-11.35,0-20.54-10.62-20.54-23.73S225.38,104,236.73,104s20.54,10.62,20.54,23.71S248.07,151.47,236.73,151.47Z"/>
          </g>
        </g>
        <g>
          <path class="cls-24" d="M187.1,132.31c0,17.75,13.08,32.14,29.21,32.14s29.2-14.38,29.21-32.11v0h0c0-17.74-13.07-32.13-29.21-32.13S187.1,114.57,187.1,132.31ZM212,153.46c-.38-.16-.75-.33-1.12-.51a1.57,1.57,0,0,1-.69-2.11l4.72-9.44a7,7,0,0,0,1.94.28c.18,0,.35,0,.53,0V153a1.57,1.57,0,0,1-.55,1.16A16.92,16.92,0,0,1,212,153.46Zm4.83-43a1.57,1.57,0,0,1,.55,1.16V123c-.18,0-.35,0-.53,0a7,7,0,0,0-1.94.28l-4.72-9.44a1.57,1.57,0,0,1,.69-2.11c.37-.18.74-.35,1.12-.51A16.86,16.86,0,0,1,216.85,110.43ZM201.9,122.66a1.52,1.52,0,0,1,.63.24l7.27,4.85a10.39,10.39,0,0,0-1,3.7h-8a1.57,1.57,0,0,1-1.56-1.73,25.35,25.35,0,0,1,1.36-6.06A1.55,1.55,0,0,1,201.9,122.66Zm8.91,3.45-7.42-4.94a1.58,1.58,0,0,1-.45-2.17,21.42,21.42,0,0,1,3.74-4.43,1.54,1.54,0,0,1,.8-.37,1.59,1.59,0,0,1,1.17.85l4.48,9A8.41,8.41,0,0,0,210.81,126.11Zm2.32,14.51-4.48,9a1.59,1.59,0,0,1-1.17.85,1.54,1.54,0,0,1-.8-.37,21.42,21.42,0,0,1-3.74-4.43,1.58,1.58,0,0,1,.45-2.17l7.42-4.94A8.41,8.41,0,0,0,213.13,140.62Zm15,9-5.39-10.78a9.09,9.09,0,0,0,1.12-1.7l9.41,6.28a21.22,21.22,0,0,1-5,6.43Zm5.14-28.33-9.41,6.28a9.05,9.05,0,0,0-1.11-1.7l5.38-10.78.16-.23A21.22,21.22,0,0,1,233.24,121.25Zm.81,1.77a24.43,24.43,0,0,1,1.78,8.43H224.94a10.47,10.47,0,0,0-.38-2.11Zm0,18.59-9.49-6.32a10.47,10.47,0,0,0,.38-2.11h10.89A24.43,24.43,0,0,1,234.05,141.61Zm-14.38-30.92a17.33,17.33,0,0,1,7,2.87,2.09,2.09,0,0,1-.08.23l-5.32,10.63a8.1,8.1,0,0,0-1.87-1V111.59A1.51,1.51,0,0,1,219.67,110.69Zm0,43.25a1.51,1.51,0,0,1-.31-.9V141.23a8.1,8.1,0,0,0,1.87-1l5.32,10.63a2.09,2.09,0,0,1,.08.23A17.33,17.33,0,0,1,219.67,153.94Zm-17.14-12.21a1.52,1.52,0,0,1-.63.24,1.56,1.56,0,0,1-1.25-1,25.35,25.35,0,0,1-1.36-6.06,1.57,1.57,0,0,1,1.56-1.73h8a10.45,10.45,0,0,0,1,3.7Z"/>
          <g>
            <path d="M211.54,118.38c-4.48,0-8.11,4.2-8.11,9.37s3.63,9.36,8.11,9.36,8.11-4.19,8.11-9.36S216,118.38,211.54,118.38Z"/>
            <path d="M211,95.61c-16.13,0-29.2,14.39-29.2,32.13s13.07,32.14,29.2,32.14,29.21-14.39,29.21-32.14S227.12,95.61,211,95.61Zm2.56,56.63c-11.72,0-21.21-11-21.21-24.5s9.49-24.49,21.21-24.49,21.2,11,21.2,24.49S225.25,152.24,213.54,152.24Z"/>
            <path d="M212.73,97.92c-15.16,0-27.45,13.35-27.45,29.82s12.29,29.84,27.45,29.84,27.46-13.36,27.46-29.84S227.9,97.92,212.73,97.92Zm2.4,56.16c-11,0-24.48-13.78-24.48-26.34s13.47-26.25,24.48-26.25,19.94,13.7,19.94,26.25S226.15,154.08,215.13,154.08Z"/>
            <g>
              <path d="M211.54,103.45c-11.64,0-21.08,10.88-21.08,24.29S199.9,152,211.54,152s21.09-10.88,21.09-24.3S223.19,103.45,211.54,103.45Zm0,46.18c-10.49,0-19-9.8-19-21.89s8.5-21.88,19-21.88,19,9.8,19,21.88S222,149.63,211.54,149.63Z"/>
              <g>
                <path d="M212.82,102.81c-11.93,0-21.6,11.16-21.6,24.93s9.67,25,21.6,25,21.59-11.17,21.59-25S224.75,102.81,212.82,102.81Zm18,33.59a1.57,1.57,0,0,1-2.34.76l-10.11-6.74a1,1,0,0,1-.39-1.08h0a.86.86,0,0,1,.8-.72h11.84a1.58,1.58,0,0,1,1.56,1.74A24.91,24.91,0,0,1,230.77,136.4Zm-12-9.52a.85.85,0,0,1-.8-.71v0a1,1,0,0,1,.39-1.07l10.11-6.75a1.57,1.57,0,0,1,2.34.76,25,25,0,0,1,1.37,6.06,1.57,1.57,0,0,1-1.56,1.73Zm9.75-12.44a1.57,1.57,0,0,1-.45,2.16l-10.47,7a.75.75,0,0,1-1-.15v0a1.07,1.07,0,0,1-.14-1.15l5.89-11.78a1.56,1.56,0,0,1,2.43-.48A21.26,21.26,0,0,1,228.49,114.44Zm-17.05,19.22h0a1,1,0,0,1,.62.92v13.89A1.56,1.56,0,0,1,210.3,150a17.28,17.28,0,0,1-5.19-1.64,1.56,1.56,0,0,1-.69-2.1l6.08-12.18A.78.78,0,0,1,211.44,133.66Zm-6.33-26.55a17.28,17.28,0,0,1,5.19-1.64,1.56,1.56,0,0,1,1.77,1.56v13.88a.94.94,0,0,1-.62.92h0a.79.79,0,0,1-.94-.45l-6.08-12.17A1.57,1.57,0,0,1,205.11,107.11Zm8.45,27.47a1,1,0,0,1,.62-.92h0a.77.77,0,0,1,.93.44l6.09,12.18a1.57,1.57,0,0,1-.7,2.1,17.22,17.22,0,0,1-5.18,1.64,1.57,1.57,0,0,1-1.78-1.55Zm1.57-13.19a.79.79,0,0,1-.93.45h0a.94.94,0,0,1-.62-.92V107a1.57,1.57,0,0,1,1.78-1.56,17.22,17.22,0,0,1,5.18,1.64,1.58,1.58,0,0,1,.7,2.11ZM200.89,110a1.56,1.56,0,0,1,2.43.48l5.89,11.78a1,1,0,0,1-.14,1.15v0a.75.75,0,0,1-1,.15l-10.47-7a1.57,1.57,0,0,1-.44-2.16A20.92,20.92,0,0,1,200.89,110Zm-7.4,20.35a1.59,1.59,0,0,1,1.57-1.74H206.9a.87.87,0,0,1,.8.72h0a1,1,0,0,1-.38,1.08l-10.12,6.74a1.57,1.57,0,0,1-2.34-.76A24.91,24.91,0,0,1,193.49,130.35Zm14.21-4.2v0a.86.86,0,0,1-.8.71H195.06a1.58,1.58,0,0,1-1.57-1.73,25,25,0,0,1,1.37-6.06,1.57,1.57,0,0,1,2.34-.76l10.12,6.75A1,1,0,0,1,207.7,126.15Zm-10.55,14.91a1.58,1.58,0,0,1,.44-2.17l10.47-7a.75.75,0,0,1,1,.16h0a1.07,1.07,0,0,1,.14,1.16L203.32,145a1.55,1.55,0,0,1-2.43.48A21.11,21.11,0,0,1,197.15,141.06Zm27.59,4.43a1.56,1.56,0,0,1-2.43-.48l-5.89-11.77a1.09,1.09,0,0,1,.14-1.16h0a.75.75,0,0,1,1-.16l10.47,7a1.59,1.59,0,0,1,.45,2.17A21.46,21.46,0,0,1,224.74,145.49Z"/>
                <path class="cls-34" d="M213.28,102.81c-11.93,0-21.6,11.16-21.6,24.93s9.67,25,21.6,25,21.6-11.17,21.6-25S225.21,102.81,213.28,102.81Zm18,33.59a1.58,1.58,0,0,1-2.35.76l-10.11-6.74a1,1,0,0,1-.38-1.08h0a.87.87,0,0,1,.8-.72H231a1.57,1.57,0,0,1,1.56,1.74A25.38,25.38,0,0,1,231.24,136.4Zm-12-9.52a.86.86,0,0,1-.8-.71v0a1,1,0,0,1,.38-1.07l10.11-6.75a1.58,1.58,0,0,1,2.35.76,25,25,0,0,1,1.36,6.06,1.56,1.56,0,0,1-1.56,1.73ZM229,114.44a1.57,1.57,0,0,1-.45,2.16l-10.47,7a.75.75,0,0,1-1-.15v0a1.07,1.07,0,0,1-.13-1.15l5.88-11.78a1.57,1.57,0,0,1,2.44-.48A20.92,20.92,0,0,1,229,114.44Zm-17,19.22h0a.93.93,0,0,1,.62.92v13.89a1.56,1.56,0,0,1-1.77,1.55,17.37,17.37,0,0,1-5.19-1.64,1.57,1.57,0,0,1-.69-2.1L211,134.1A.77.77,0,0,1,211.9,133.66Zm-6.33-26.55a17.37,17.37,0,0,1,5.19-1.64,1.56,1.56,0,0,1,1.77,1.56v13.88a.93.93,0,0,1-.62.92h0a.79.79,0,0,1-.93-.45l-6.09-12.17A1.58,1.58,0,0,1,205.57,107.11ZM214,134.58a.93.93,0,0,1,.62-.92h0a.76.76,0,0,1,.93.44l6.09,12.18a1.56,1.56,0,0,1-.69,2.1A17.37,17.37,0,0,1,215.8,150a1.56,1.56,0,0,1-1.77-1.55Zm1.56-13.19a.78.78,0,0,1-.93.45h0a.93.93,0,0,1-.62-.92V107a1.56,1.56,0,0,1,1.77-1.56,17.37,17.37,0,0,1,5.19,1.64,1.57,1.57,0,0,1,.69,2.11ZM201.35,110a1.57,1.57,0,0,1,2.44.48l5.88,11.78a1.07,1.07,0,0,1-.13,1.15v0a.75.75,0,0,1-1,.15l-10.47-7a1.57,1.57,0,0,1-.45-2.16A21.53,21.53,0,0,1,201.35,110ZM194,130.35a1.58,1.58,0,0,1,1.56-1.74h11.84a.87.87,0,0,1,.8.72h0a1,1,0,0,1-.38,1.08l-10.11,6.74a1.58,1.58,0,0,1-2.35-.76A25.38,25.38,0,0,1,194,130.35Zm14.2-4.2v0a.86.86,0,0,1-.8.71H195.52a1.56,1.56,0,0,1-1.56-1.73,25.46,25.46,0,0,1,1.36-6.06,1.58,1.58,0,0,1,2.35-.76l10.11,6.75A1,1,0,0,1,208.16,126.15Zm-10.55,14.91a1.58,1.58,0,0,1,.45-2.17l10.47-7a.75.75,0,0,1,1,.16h0a1.08,1.08,0,0,1,.13,1.16L203.79,145a1.56,1.56,0,0,1-2.44.48A21.73,21.73,0,0,1,197.61,141.06Zm27.6,4.43a1.57,1.57,0,0,1-2.44-.48l-5.88-11.77a1.08,1.08,0,0,1,.13-1.16h0a.75.75,0,0,1,1-.16l10.47,7a1.58,1.58,0,0,1,.45,2.17A21.11,21.11,0,0,1,225.21,145.49Z"/>
              </g>
            </g>
            <path class="cls-35" d="M213.54,99.15c-13.68,0-24.76,12.81-24.76,28.59s11.08,28.6,24.76,28.6,24.75-12.8,24.75-28.6S227.21,99.15,213.54,99.15Zm0,54.36c-12.33,0-22.31-11.54-22.31-25.77s10-25.75,22.31-25.75,22.3,11.53,22.3,25.75S225.86,153.51,213.54,153.51Z"/>
            <g>
              <path d="M213.54,123.53a4.26,4.26,0,1,0,3.65,4.22A4,4,0,0,0,213.54,123.53Z"/>
              <g>
                <g>
                  <path d="M216.33,124.65a3.13,3.13,0,1,1-2.68,3.1A2.91,2.91,0,0,1,216.33,124.65Z"/>
                  <path class="cls-36" d="M213.65,127.75a2.91,2.91,0,0,1,2.68-3.1h-2.17a3.13,3.13,0,0,0,0,6.19h2.17A2.9,2.9,0,0,1,213.65,127.75Z"/>
                  <path class="cls-37" d="M216.33,124.65h-2.17a2.8,2.8,0,0,0-2.61,2.4h2.17A2.79,2.79,0,0,1,216.33,124.65Z"/>
                </g>
                <path class="cls-38" d="M216.33,125.24a2.53,2.53,0,1,1-2.18,2.51A2.36,2.36,0,0,1,216.33,125.24Z"/>
              </g>
            </g>
            <path class="cls-39" d="M213.54,101.42c-12.6,0-22.8,11.79-22.8,26.32s10.2,26.34,22.8,26.34,22.79-11.79,22.79-26.34S226.13,101.42,213.54,101.42Zm0,50.05c-11.35,0-20.54-10.62-20.54-23.73S202.19,104,213.54,104s20.54,10.62,20.54,23.71S224.88,151.47,213.54,151.47Z"/>
          </g>
        </g>
        <g>
          <path class="cls-24" d="M158.73,132.31c0,17.75,13.08,32.14,29.21,32.14s29.2-14.38,29.21-32.11v0h0c0-17.74-13.07-32.13-29.21-32.13S158.73,114.57,158.73,132.31Zm24.92,21.15c-.38-.16-.75-.33-1.12-.51a1.57,1.57,0,0,1-.69-2.11l4.72-9.44a7,7,0,0,0,1.94.28c.18,0,.35,0,.53,0V153a1.54,1.54,0,0,1-.56,1.16A16.85,16.85,0,0,1,183.65,153.46Zm4.82-43a1.54,1.54,0,0,1,.56,1.16V123c-.18,0-.35,0-.53,0a7,7,0,0,0-1.94.28l-4.72-9.44a1.57,1.57,0,0,1,.69-2.11c.37-.18.74-.35,1.12-.51A16.8,16.8,0,0,1,188.47,110.43Zm-14.94,12.23a1.52,1.52,0,0,1,.63.24l7.27,4.85a10,10,0,0,0-1,3.7h-8a1.58,1.58,0,0,1-1.57-1.73,25.36,25.36,0,0,1,1.37-6.06A1.55,1.55,0,0,1,173.53,122.66Zm8.9,3.45L175,121.17a1.59,1.59,0,0,1-.44-2.17,21.11,21.11,0,0,1,3.74-4.43,1.54,1.54,0,0,1,.8-.37,1.59,1.59,0,0,1,1.17.85l4.48,9A8.45,8.45,0,0,0,182.43,126.11Zm2.33,14.51-4.48,9a1.59,1.59,0,0,1-1.17.85,1.54,1.54,0,0,1-.8-.37,21.11,21.11,0,0,1-3.74-4.43,1.58,1.58,0,0,1,.45-2.17l7.41-4.94A8.45,8.45,0,0,0,184.76,140.62Zm15,9-5.39-10.78a9.09,9.09,0,0,0,1.12-1.7l9.41,6.28a21.09,21.09,0,0,1-5,6.43C199.83,149.73,199.77,149.66,199.73,149.58Zm5.14-28.33-9.41,6.28a9.09,9.09,0,0,0-1.12-1.7l5.39-10.78a1.6,1.6,0,0,1,.16-.23A21.22,21.22,0,0,1,204.87,121.25Zm.81,1.77a24.43,24.43,0,0,1,1.78,8.43H196.57a10.47,10.47,0,0,0-.38-2.11Zm0,18.59-9.49-6.32a10.47,10.47,0,0,0,.38-2.11h10.89A24.43,24.43,0,0,1,205.68,141.61ZM191.3,110.69a17.33,17.33,0,0,1,7,2.87,1.09,1.09,0,0,1-.09.23l-5.31,10.63a8.1,8.1,0,0,0-1.87-1V111.59A1.51,1.51,0,0,1,191.3,110.69Zm0,43.25a1.51,1.51,0,0,1-.31-.9V141.23a8.1,8.1,0,0,0,1.87-1l5.31,10.63a2.18,2.18,0,0,1,.09.23A17.33,17.33,0,0,1,191.3,153.94Zm-17.14-12.21a1.52,1.52,0,0,1-.63.24,1.55,1.55,0,0,1-1.25-1,25.36,25.36,0,0,1-1.37-6.06,1.58,1.58,0,0,1,1.57-1.73h8a10.24,10.24,0,0,0,1,3.7Z"/>
          <g>
            <path d="M183.17,118.38c-4.48,0-8.11,4.2-8.11,9.37s3.63,9.36,8.11,9.36,8.11-4.19,8.11-9.36S187.65,118.38,183.17,118.38Z"/>
            <path d="M182.61,95.61c-16.13,0-29.21,14.39-29.21,32.13s13.08,32.14,29.21,32.14,29.21-14.39,29.21-32.14S198.75,95.61,182.61,95.61Zm2.55,56.63c-11.71,0-21.2-11-21.2-24.5s9.49-24.49,21.2-24.49,21.21,11,21.21,24.49S196.88,152.24,185.16,152.24Z"/>
            <path d="M184.36,97.92c-15.16,0-27.45,13.35-27.45,29.82s12.29,29.84,27.45,29.84,27.46-13.36,27.46-29.84S199.53,97.92,184.36,97.92Zm2.4,56.16c-11,0-24.48-13.78-24.48-26.34s13.47-26.25,24.48-26.25,19.94,13.7,19.94,26.25S197.78,154.08,186.76,154.08Z"/>
            <g>
              <path d="M183.17,103.45c-11.65,0-21.08,10.88-21.08,24.29s9.43,24.3,21.08,24.3,21.09-10.88,21.09-24.3S194.82,103.45,183.17,103.45Zm0,46.18c-10.49,0-19-9.8-19-21.89s8.5-21.88,19-21.88,19,9.8,19,21.88S193.67,149.63,183.17,149.63Z"/>
              <g>
                <path d="M184.45,102.81c-11.93,0-21.6,11.16-21.6,24.93s9.67,25,21.6,25,21.59-11.17,21.59-25S196.37,102.81,184.45,102.81Zm18,33.59a1.57,1.57,0,0,1-2.34.76L190,130.42a1,1,0,0,1-.39-1.08h0a.86.86,0,0,1,.8-.72H202.2a1.58,1.58,0,0,1,1.57,1.74A24.91,24.91,0,0,1,202.4,136.4Zm-12-9.52a.85.85,0,0,1-.8-.71v0a1,1,0,0,1,.39-1.07l10.11-6.75a1.57,1.57,0,0,1,2.34.76,25,25,0,0,1,1.37,6.06,1.57,1.57,0,0,1-1.57,1.73Zm9.75-12.44a1.58,1.58,0,0,1-.45,2.16l-10.47,7a.75.75,0,0,1-1-.15v0a1,1,0,0,1-.14-1.15l5.89-11.78a1.56,1.56,0,0,1,2.43-.48A21.26,21.26,0,0,1,200.12,114.44Zm-17.06,19.22h0a1,1,0,0,1,.62.92v13.89a1.56,1.56,0,0,1-1.77,1.55,17.19,17.19,0,0,1-5.19-1.64,1.57,1.57,0,0,1-.7-2.1l6.09-12.18A.77.77,0,0,1,183.06,133.66Zm-6.32-26.55a17.19,17.19,0,0,1,5.19-1.64A1.56,1.56,0,0,1,183.7,107v13.88a.94.94,0,0,1-.62.92h0a.79.79,0,0,1-.93-.45L176,109.22A1.58,1.58,0,0,1,176.74,107.11Zm8.45,27.47a1,1,0,0,1,.62-.92h0a.77.77,0,0,1,.93.44l6.09,12.18a1.57,1.57,0,0,1-.7,2.1A17.19,17.19,0,0,1,187,150a1.56,1.56,0,0,1-1.77-1.55Zm1.57-13.19a.79.79,0,0,1-.93.45h0a.94.94,0,0,1-.62-.92V107a1.56,1.56,0,0,1,1.77-1.56,17.19,17.19,0,0,1,5.19,1.64,1.58,1.58,0,0,1,.7,2.11ZM172.52,110a1.56,1.56,0,0,1,2.43.48l5.89,11.78a1,1,0,0,1-.14,1.15v0a.75.75,0,0,1-1,.15l-10.47-7a1.58,1.58,0,0,1-.45-2.16A21.26,21.26,0,0,1,172.52,110Zm-7.4,20.35a1.58,1.58,0,0,1,1.57-1.74h11.83a.86.86,0,0,1,.8.72h0a1,1,0,0,1-.39,1.08l-10.11,6.74a1.57,1.57,0,0,1-2.34-.76A24.91,24.91,0,0,1,165.12,130.35Zm14.21-4.2v0a.85.85,0,0,1-.8.71H166.69a1.57,1.57,0,0,1-1.57-1.73,25,25,0,0,1,1.37-6.06,1.57,1.57,0,0,1,2.34-.76l10.11,6.75A1,1,0,0,1,179.33,126.15Zm-10.56,14.91a1.59,1.59,0,0,1,.45-2.17l10.47-7a.75.75,0,0,1,1,.16h0a1.07,1.07,0,0,1,.14,1.16L175,145a1.56,1.56,0,0,1-2.43.48A21.46,21.46,0,0,1,168.77,141.06Zm27.6,4.43a1.56,1.56,0,0,1-2.43-.48l-5.89-11.77a1.07,1.07,0,0,1,.14-1.16h0a.75.75,0,0,1,1-.16l10.47,7a1.59,1.59,0,0,1,.45,2.17A21.46,21.46,0,0,1,196.37,145.49Z"/>
                <path class="cls-34" d="M184.91,102.81c-11.93,0-21.6,11.16-21.6,24.93s9.67,25,21.6,25,21.6-11.17,21.6-25S196.84,102.81,184.91,102.81Zm18,33.59a1.58,1.58,0,0,1-2.35.76l-10.11-6.74a1,1,0,0,1-.38-1.08h0a.87.87,0,0,1,.8-.72h11.84a1.57,1.57,0,0,1,1.56,1.74A25.38,25.38,0,0,1,202.87,136.4Zm-12-9.52a.86.86,0,0,1-.8-.71v0a1,1,0,0,1,.38-1.07l10.11-6.75a1.58,1.58,0,0,1,2.35.76,25.46,25.46,0,0,1,1.36,6.06,1.56,1.56,0,0,1-1.56,1.73Zm9.75-12.44a1.57,1.57,0,0,1-.45,2.16l-10.47,7a.75.75,0,0,1-1-.15v0a1.07,1.07,0,0,1-.13-1.15l5.88-11.78a1.57,1.57,0,0,1,2.44-.48A21.53,21.53,0,0,1,200.58,114.44Zm-17.05,19.22h0a.93.93,0,0,1,.62.92v13.89a1.56,1.56,0,0,1-1.77,1.55,17.37,17.37,0,0,1-5.19-1.64,1.56,1.56,0,0,1-.69-2.1l6.09-12.18A.77.77,0,0,1,183.53,133.66Zm-6.33-26.55a17.37,17.37,0,0,1,5.19-1.64,1.56,1.56,0,0,1,1.77,1.56v13.88a.93.93,0,0,1-.62.92h0a.78.78,0,0,1-.93-.45l-6.09-12.17A1.57,1.57,0,0,1,177.2,107.11Zm8.46,27.47a.93.93,0,0,1,.62-.92h0a.77.77,0,0,1,.93.44l6.09,12.18a1.56,1.56,0,0,1-.69,2.1,17.37,17.37,0,0,1-5.19,1.64,1.56,1.56,0,0,1-1.77-1.55Zm1.56-13.19a.79.79,0,0,1-.93.45h0a.93.93,0,0,1-.62-.92V107a1.56,1.56,0,0,1,1.77-1.56,17.37,17.37,0,0,1,5.19,1.64,1.57,1.57,0,0,1,.69,2.11ZM173,110a1.57,1.57,0,0,1,2.44.48l5.88,11.78a1.07,1.07,0,0,1-.13,1.15v0a.75.75,0,0,1-1,.15l-10.47-7a1.57,1.57,0,0,1-.45-2.16A21.22,21.22,0,0,1,173,110Zm-7.39,20.35a1.57,1.57,0,0,1,1.56-1.74H179a.87.87,0,0,1,.8.72h0a1,1,0,0,1-.38,1.08l-10.11,6.74a1.58,1.58,0,0,1-2.35-.76A25.38,25.38,0,0,1,165.59,130.35Zm14.2-4.2v0a.86.86,0,0,1-.8.71H167.15a1.56,1.56,0,0,1-1.56-1.73,25.46,25.46,0,0,1,1.36-6.06,1.58,1.58,0,0,1,2.35-.76l10.11,6.75A1,1,0,0,1,179.79,126.15Zm-10.55,14.91a1.58,1.58,0,0,1,.45-2.17l10.47-7a.75.75,0,0,1,1,.16h0a1.08,1.08,0,0,1,.13,1.16L175.42,145a1.56,1.56,0,0,1-2.44.48A21.42,21.42,0,0,1,169.24,141.06Zm27.6,4.43a1.56,1.56,0,0,1-2.44-.48l-5.88-11.77a1.08,1.08,0,0,1,.13-1.16h0a.75.75,0,0,1,1-.16l10.47,7a1.58,1.58,0,0,1,.45,2.17A21.73,21.73,0,0,1,196.84,145.49Z"/>
              </g>
            </g>
            <path class="cls-35" d="M185.16,99.15c-13.67,0-24.75,12.81-24.75,28.59s11.08,28.6,24.75,28.6,24.76-12.8,24.76-28.6S198.84,99.15,185.16,99.15Zm0,54.36c-12.32,0-22.3-11.54-22.3-25.77s10-25.75,22.3-25.75,22.31,11.53,22.31,25.75S197.49,153.51,185.16,153.51Z"/>
            <g>
              <path d="M185.16,123.53a4.26,4.26,0,1,0,3.66,4.22A4,4,0,0,0,185.16,123.53Z"/>
              <g>
                <g>
                  <path d="M188,124.65a3.13,3.13,0,1,1-2.68,3.1A2.91,2.91,0,0,1,188,124.65Z"/>
                  <path class="cls-36" d="M185.28,127.75a2.91,2.91,0,0,1,2.68-3.1h-2.17a3.13,3.13,0,0,0,0,6.19H188A2.9,2.9,0,0,1,185.28,127.75Z"/>
                  <path class="cls-37" d="M188,124.65h-2.17a2.8,2.8,0,0,0-2.61,2.4h2.17A2.79,2.79,0,0,1,188,124.65Z"/>
                </g>
                <path class="cls-38" d="M188,125.24a2.53,2.53,0,1,1-2.18,2.51A2.36,2.36,0,0,1,188,125.24Z"/>
              </g>
            </g>
            <path class="cls-39" d="M185.16,101.42c-12.59,0-22.79,11.79-22.79,26.32s10.2,26.34,22.79,26.34S208,142.29,208,127.74,197.76,101.42,185.16,101.42Zm0,50.05c-11.34,0-20.54-10.62-20.54-23.73S173.82,104,185.16,104s20.54,10.62,20.54,23.71S196.51,151.47,185.16,151.47Z"/>
          </g>
        </g>
      </g>
      <rect class="cls-40" x="303.18" y="188.46" width="86.04" height="55.7"/>
      <g>
        <path class="cls-41" d="M382.09,223.5c0-.49,1.23-.88,2.73-.88s2.73.52,2.73.88-1.22.88-2.73.88S382.09,224,382.09,223.5Z"/>
        <polygon class="cls-42" points="385.85 222.47 386.55 222.47 385.38 224.66 384.69 224.66 385.85 222.47"/>
        <path class="cls-43" d="M332.71,213.63l-.81,8.58,36.35,4.61s-3-8.93-10.76-11.36C350.27,213.2,332.71,213.63,332.71,213.63Z"/>
        <polygon class="cls-44" points="333.01 214.64 347.94 215.53 348.19 218.05 332.73 218.05 333.01 214.64"/>
        <path class="cls-45" d="M351.87,220l-1.35-4.43c-4.75-.91-11.08-1.1-17.86-1.32l0-.58s17.56-.43,24.78,1.83c7.8,2.43,10.76,11.36,10.76,11.36l-36.35-4.61.22-2.25Z"/>
        <polygon class="cls-45" points="348.24 214.52 349.11 214.41 349.48 222.45 348.61 222.42 348.24 214.52"/>
        <polygon class="cls-45" points="334.84 213.52 335.23 213.43 336.09 221.39 335.21 221.36 334.84 213.52"/>
        <polygon class="cls-46" points="333.51 213.52 333.9 213.43 334.76 221.39 333.88 221.36 333.51 213.52"/>
        <polygon class="cls-46" points="349.4 214.52 350.27 214.41 350.65 222.45 349.77 222.42 349.4 214.52"/>
        <path class="cls-46" d="M353.21,215.78c-5.42-1.61-14.89-2-20.39-2-1.39,0-1.12-.94.36-.92,0,0,16.44-.27,24.07,2,8.24,2.44,13,11.3,13,11.3l-8.14-.09C362.23,223.56,359.46,217.63,353.21,215.78Z"/>
        <path class="cls-42" d="M356.88,215.29c-7.63-2.26-24.07-2-24.07-2a2.33,2.33,0,0,0-.88.13c-.09-.26.35-.59,1.25-.58,0,0,16.44-.27,24.07,2,8.24,2.44,13,11.3,13,11.3h-.63C368.53,224.3,364,217.4,356.88,215.29Z"/>
        <polygon class="cls-46" points="352.61 215.24 361.13 217.89 365.2 222.59 356.08 222.59 352.61 215.24"/>
        <rect class="cls-47" x="310.9" y="230.46" width="22.85" height="3.61" transform="translate(644.65 464.52) rotate(180)"/>
        <polygon class="cls-48" points="321.77 234.44 366.36 231.42 366.36 235.87 322.17 235.87 321.77 234.44"/>
        <path class="cls-47" d="M366,227.11h6.62c1.92,0,8.2,5.48,8.2,5.48L359.59,235l-.28-2.84,3.78-2.33A2.76,2.76,0,0,1,366,227.11Z"/>
        <path class="cls-49" d="M308.74,221.72c4-.61,23.32-.89,23.32-.89h39.12l11.35.4-6.41,10.46-13.86-.31-3.06,3-37.36-.26-1.62-2.08-10.78-.14-1.52-7.78h0C306.32,224.15,305.74,222.18,308.74,221.72Z"/>
        <polygon class="cls-49" points="387.93 218.91 380.82 232.59 369.62 221.14 374.71 218.91 387.93 218.91"/>
        <polygon class="cls-50" points="382.52 221.23 382.53 221.23 382.52 221.24 382.52 221.23"/>
        <path class="cls-50" d="M385.33,223.84l-4,7.85-19.05-.31-3.32,3-37.1-.26-1.62-2.08-10.78-.14-1.52-7.78a1.53,1.53,0,0,1-1-.31Z"/>
        <path class="cls-51" d="M339.79,220.74s12.51,9.13,19.15,13.67L340,234.1a44.75,44.75,0,0,0-8.74-13.26Z"/>
        <path class="cls-52" d="M311.41,226c.79,2.1-2.24,4.75-2.24,4.75l-.95-4.32Z"/>
        <path class="cls-52" d="M333.23,234.35c-1.65-4.6-4.11-7.44-9.44-8.47l7,8.31Z"/>
        <path class="cls-47" d="M318.15,227.11h6.62a4.46,4.46,0,0,1,4.24,2.72l2.41,5.19-11.31-.43-5.38-2.15.59-2.51A2.67,2.67,0,0,1,318.15,227.11Z"/>
        <polygon class="cls-52" points="330.8 233.81 358.84 234.37 359.66 235.02 331.29 235.02 330.8 233.81"/>
        <g>
          <path class="cls-53" d="M321.56,226.81a5.56,5.56,0,1,1-4.86,6.12A5.49,5.49,0,0,1,321.56,226.81Z"/>
          <ellipse class="cls-54" cx="322.16" cy="232.31" rx="5.28" ry="5.31" transform="translate(60.89 531.47) rotate(-84.66)"/>
          <path class="cls-53" d="M321.71,228.25a4.07,4.07,0,0,1,4.47,3.65,4.06,4.06,0,1,1-4.47-3.65Z"/>
          <path class="cls-55" d="M319.64,233a2.53,2.53,0,0,0,2.78,2.32,2.59,2.59,0,0,0,2.24-2.88,2.55,2.55,0,0,0-2.78-2.33A2.6,2.6,0,0,0,319.64,233Z"/>
          <path class="cls-42" d="M319.92,232.58a2.24,2.24,0,1,0,2-2.5A2.25,2.25,0,0,0,319.92,232.58Z"/>
          <path class="cls-55" d="M322.44,233.11a22.08,22.08,0,0,0-5.75-.25,5.48,5.48,0,1,1,10.53,1.56A23.62,23.62,0,0,0,322.44,233.11Z"/>
        </g>
        <g>
          <path class="cls-53" d="M367.35,226.81a5.56,5.56,0,1,0,4.87,6.12A5.49,5.49,0,0,0,367.35,226.81Z"/>
          <ellipse class="cls-54" cx="366.75" cy="232.31" rx="5.31" ry="5.28" transform="translate(-20.02 35.13) rotate(-5.34)"/>
          <path class="cls-53" d="M367.2,228.25a4.06,4.06,0,0,0-4.46,3.65,4.05,4.05,0,1,0,4.46-3.65Z"/>
          <path class="cls-55" d="M367,230.09a2.55,2.55,0,0,0-2.78,2.33,2.59,2.59,0,0,0,2.25,2.88,2.54,2.54,0,0,0,2.78-2.32A2.62,2.62,0,0,0,367,230.09Z"/>
          <path class="cls-42" d="M367,230.08a2.27,2.27,0,1,0,2,2.5A2.26,2.26,0,0,0,367,230.08Z"/>
          <path class="cls-55" d="M367.35,226.81a5.54,5.54,0,0,1,4.87,6.12,6.17,6.17,0,0,1-.27,1.22,17.36,17.36,0,0,0-5.37.06,37.28,37.28,0,0,0-4.26,1.38,5.6,5.6,0,0,1-1-3.84A5.49,5.49,0,0,1,367.35,226.81Z"/>
        </g>
        <path class="cls-56" d="M322.61,231.27a27,27,0,0,0-7.51-.3l-.08-1.72c-.16-4.29,12.19-5.73,14.79,1.27.34.91,1.52,4.5,1.52,4.5C329.18,233.74,326,231.85,322.61,231.27Z"/>
        <path class="cls-49" d="M321.62,227.69c2.46,0,4.78.22,6.48.28a6.56,6.56,0,0,1,1.71,2.55c.34.91,1.52,4.5,1.52,4.5-2.15-1.28-5.37-3.17-8.72-3.75a27,27,0,0,0-7.51-.3l-.08-1.72a2.23,2.23,0,0,1,.35-1.28C316.88,227.93,319.07,227.69,321.62,227.69Z"/>
        <path class="cls-57" d="M307.09,226.62c-.1-1,.25-1.74.78-1.8s1,.71,1.14,1.71-.24,1.85-.76,1.9S307.2,227.62,307.09,226.62Z"/>
        <path class="cls-42" d="M307.61,224.7c2.08,0,3.73.43,3.73,1.35s-1.63,2.55-3,2.55Z"/>
        <path class="cls-58" d="M311.32,225.88a.47.47,0,0,1,0,.17c0,1-1.63,2.55-3,2.55l-.45-2.8C309.05,225.72,310.34,226.18,311.32,225.88Z"/>
        <path class="cls-42" d="M309,230.79h5.25c.34,0,.62.36.67.84h0c.17,1.59-.67,3-1.77,3h-3.71C307.9,234.66,307.74,230.9,309,230.79Z"/>
        <path class="cls-49" d="M362.47,226.77c4.25-.39,21.43-.11,21.43-.11l-3,5.93c-14.69,0-18.8.22-21.42,2.43a5.37,5.37,0,0,1-1.7-4.25C357.91,228.63,359.6,227,362.47,226.77Z"/>
        <path class="cls-56" d="M363.45,228.31c-2.88.26-4.56,1.86-4.74,4a5,5,0,0,0,.4,2.4,5.34,5.34,0,0,1-1.38-3.93c.18-2.14,1.87-3.73,4.74-4,4.25-.39,21.43-.11,21.43-.11l-.89,1.51C378.44,228.11,366.83,228,363.45,228.31Z"/>
        <polygon class="cls-42" points="314.87 223.69 380.78 223.69 382.78 223.84 380.78 224.02 314.87 224.02 314.87 223.69"/>
        <path class="cls-47" d="M336.45,233.25H353.8l0-.07c0-.07,3.06-7,1.52-12.5l-.23.07c1.44,5.08-1.16,11.51-1.48,12.26h-17L335,220.7l-.23,0Z"/>
        <path class="cls-42" d="M307.91,232.26h4.25c.27,0,.5.12.54.28h0c.13.53-.55,1-1.44,1h-3C307,233.55,306.9,232.3,307.91,232.26Z"/>
        <polygon class="cls-47" points="332.07 220.5 355.09 220.5 356.86 220.84 331.3 220.84 332.07 220.5"/>
        <path class="cls-42" d="M322.92,231a26.42,26.42,0,0,1,8.53,3.63.26.26,0,0,1,.11.14h0a.24.24,0,0,1-.35.3,25.85,25.85,0,0,0-8.47-3.68,27,27,0,0,0-7.55-.34.23.23,0,0,1-.24-.21h0a.23.23,0,0,1,.2-.24A29.12,29.12,0,0,1,322.92,231Z"/>
        <rect class="cls-42" x="312.88" y="223.59" width="1.33" height="0.52" transform="translate(627.09 447.71) rotate(180)"/>
        <polygon class="cls-58" points="307.65 224.7 308.16 224.71 309.42 227.8 308.35 228.22 307.65 224.7"/>
        <path class="cls-58" d="M307.61,233H311a1.84,1.84,0,0,0,1.56-.61.34.34,0,0,1,.15.17c.13.53-.55,1-1.44,1h-3a1,1,0,0,1-1-.6A2,2,0,0,0,307.61,233Z"/>
        <g>
          <path class="cls-59" d="M356.27,219.8l-.18-.35h6.35l.49.31,0,0Z"/>
          <path class="cls-59" d="M355.79,218.87h5.68c.2.11.39.23.58.35H356Z"/>
          <path class="cls-59" d="M355.49,218.28h5l.6.35h-5.4Z"/>
          <path class="cls-59" d="M355.19,217.7h4.22l.64.35h-4.68Z"/>
          <path class="cls-59" d="M354.89,217.12h3.41l.68.35h-3.91Z"/>
          <path class="cls-59" d="M354.59,216.54h2.52l.73.35h-3.07Z"/>
          <path class="cls-59" d="M354.29,216h1.53l.79.35h-2.14Z"/>
        </g>
        <path class="cls-46" d="M332.41,221c-.13-.74.33-1.45.61-1.49s.47.54.6,1.28.14,1.37-.13,1.41S332.54,221.71,332.41,221Z"/>
        <path class="cls-43" d="M333.1,220.78c-.1-.55-.09-1,0-1s.27.4.36,1,.09,1,0,1S333.19,221.32,333.1,220.78Z"/>
        <polygon class="cls-42" points="307.28 224.61 307.86 224.61 308.61 228.8 308.03 228.8 307.28 224.61"/>
        <path class="cls-60" d="M312.56,225.9c0-.13.34-.24.77-.24s.77.11.77.24-.34.25-.77.25S312.56,226,312.56,225.9Z"/>
        <path class="cls-42" d="M381.27,232.54h0a.26.26,0,0,1-.23.13c-14.38.06-18.75.3-21.43,2.4a.38.38,0,0,1-.51,0h0a.38.38,0,0,1,.06-.57c2.83-2,7.59-2.22,21.88-2.28A.26.26,0,0,1,381.27,232.54Z"/>
        <path class="cls-47" d="M349.48,221.6h4l.19,1.05h-2.73a1.45,1.45,0,0,1-1.44-1.05Z"/>
        <path class="cls-49" d="M349.62,221.43h3.65l.17.93h-2.5a1.31,1.31,0,0,1-1.32-.93Z"/>
        <polygon class="cls-50" points="370.44 220.78 374.71 218.91 387.93 218.91 386.96 220.78 370.44 220.78"/>
        <polygon class="cls-46" points="374.94 218.65 388.84 218.65 387.86 219.02 374.43 219.02 374.94 218.65"/>
        <path class="cls-54" d="M302.82,237.89h85s-14.34.86-46.36.86S302.82,237.89,302.82,237.89Z"/>
      </g>
      <polyline class="cls-61" points="306.6 188.46 346.02 159.48 385.62 188.46"/>
    </g>
  </g>
</svg>
