<svg xmlns="http://www.w3.org/2000/svg" xmlns:xlink="http://www.w3.org/1999/xlink" width="400" height="400" viewBox="0 0 400 400">
  <defs>
    <style>
      .cls-1 {
        mask: url(#mask);
        filter: url(#luminosity-noclip-2);
      }

      .cls-2, .cls-29 {
        mix-blend-mode: multiply;
      }

      .cls-2 {
        fill: url(#linear-gradient);
      }

      .cls-3 {
        isolation: isolate;
      }

      .cls-4 {
        fill: none;
      }

      .cls-5 {
        fill: #d8d5ed;
      }

      .cls-6 {
        fill: #cfccd9;
      }

      .cls-7 {
        fill: #f48c58;
      }

      .cls-8 {
        fill: #a34213;
      }

      .cls-9 {
        fill: #7f3011;
      }

      .cls-10 {
        fill: #2d8e96;
      }

      .cls-11 {
        fill: #1c787a;
      }

      .cls-12 {
        fill: #ffc522;
      }

      .cls-13 {
        fill: #d69209;
      }

      .cls-14 {
        fill: #dd9e1f;
      }

      .cls-15 {
        fill: #ce6e0f;
      }

      .cls-16 {
        fill: #fc9c29;
      }

      .cls-17 {
        fill: #bc5319;
      }

      .cls-18 {
        fill: #4cc6c9;
      }

      .cls-19 {
        fill: #ffae6c;
      }

      .cls-20 {
        fill: #efa726;
      }

      .cls-21 {
        fill: #ffcc3b;
      }

      .cls-22 {
        fill: #aad1c5;
      }

      .cls-23 {
        fill: #547a6f;
      }

      .cls-24 {
        fill: #46685d;
      }

      .cls-25 {
        fill: #ce5a2c;
      }

      .cls-26 {
        fill: #d2d3a1;
      }

      .cls-27 {
        fill: #b29b62;
      }

      .cls-28 {
        fill: #48b4b7;
      }

      .cls-29 {
        fill: #612800;
        opacity: 0.4;
      }

      .cls-30 {
        fill: #7c3f15;
      }

      .cls-31 {
        fill: #63300e;
      }

      .cls-32 {
        fill: #ffe3d4;
      }

      .cls-33 {
        fill: #563725;
      }

      .cls-34 {
        fill: #5e2d0d;
      }

      .cls-35 {
        fill: #683310;
      }

      .cls-36 {
        fill: #6f678c;
      }

      .cls-37 {
        fill: #4d3932;
      }

      .cls-38 {
        fill: #694e45;
      }

      .cls-39 {
        fill: #b2abdb;
      }

      .cls-40 {
        fill: #8b82ca;
      }

      .cls-41 {
        fill: #ffece6;
      }

      .cls-42 {
        fill: #f7bf6f;
      }

      .cls-43 {
        fill: #e0784b;
      }

      .cls-44 {
        fill: #d8bb44;
      }

      .cls-45 {
        fill: #c67f20;
      }

      .cls-46 {
        fill: #e5a117;
      }

      .cls-47 {
        fill: #9b5b2f;
      }

      .cls-48 {
        fill: #3e2ea6;
      }

      .cls-49 {
        fill: #2f237d;
      }

      .cls-50 {
        fill: #ffc933;
      }

      .cls-51 {
        fill: #edb220;
      }

      .cls-52 {
        fill: #cde8e8;
      }

      .cls-53 {
        fill: #83a1aa;
      }

      .cls-54 {
        fill: #6a8c93;
      }

      .cls-55 {
        fill: #dd7f40;
      }

      .cls-56 {
        fill: #f49351;
      }

      .cls-57 {
        fill: #ffb93e;
      }

      .cls-58 {
        fill: #89471a;
      }

      .cls-59 {
        fill: #9e5721;
      }

      .cls-60 {
        fill: #562f1f;
      }

      .cls-61 {
        fill: #fce2d9;
      }

      .cls-62 {
        fill: #f4d44e;
      }

      .cls-63 {
        fill: #dd9731;
      }

      .cls-64 {
        fill: #5b3d29;
      }

      .cls-65 {
        mix-blend-mode: overlay;
      }

      .cls-66 {
        mask: url(#mask-2);
      }

      .cls-67 {
        fill: url(#linear-gradient-2);
      }

      .cls-68 {
        filter: url(#luminosity-noclip);
      }
    </style>
    <filter id="luminosity-noclip" x="85.32" y="-5863.64" width="0.54" height="32766" filterUnits="userSpaceOnUse" color-interpolation-filters="sRGB">
      <feFlood flood-color="#fff" result="bg"/>
      <feBlend in="SourceGraphic" in2="bg"/>
    </filter>
    <mask id="mask" x="85.32" y="-5863.64" width="0.54" height="32766" maskUnits="userSpaceOnUse">
      <g class="cls-68"/>
    </mask>
    <linearGradient id="linear-gradient" x1="72.09" y1="95.93" x2="146.94" y2="317.98" gradientUnits="userSpaceOnUse">
      <stop offset="0" stop-color="gray"/>
      <stop offset="0.41" stop-color="#969696"/>
      <stop offset="1" stop-color="#b3b3b3"/>
    </linearGradient>
    <filter id="luminosity-noclip-2" x="85.32" y="135.75" width="0.54" height="0.44" filterUnits="userSpaceOnUse" color-interpolation-filters="sRGB">
      <feFlood flood-color="#fff" result="bg"/>
      <feBlend in="SourceGraphic" in2="bg"/>
    </filter>
    <mask id="mask-2" x="85.32" y="135.75" width="0.54" height="0.44" maskUnits="userSpaceOnUse">
      <g class="cls-1">
        <path class="cls-2" d="M85.32,135.75l.53.44A2,2,0,0,0,85.32,135.75Z"/>
      </g>
    </mask>
    <linearGradient id="linear-gradient-2" x1="72.09" y1="95.93" x2="146.94" y2="317.98" gradientUnits="userSpaceOnUse">
      <stop offset="0" stop-color="#ffb864"/>
      <stop offset="0.41" stop-color="#b3674c"/>
      <stop offset="0.81" stop-color="#6f1d36"/>
      <stop offset="1" stop-color="#54002d"/>
    </linearGradient>
  </defs>
  <g class="cls-3">
    <g id="Capa_1" data-name="Capa 1">
      <rect class="cls-4" width="400" height="400"/>
      <path class="cls-5" d="M200,81.94v-70C96.13,11.92,11.92,96.13,11.92,200S96.13,388.08,200,388.08v-70a118.06,118.06,0,0,1,0-236.12Z"/>
      <path class="cls-6" d="M200,388.08c103.87,0,188.08-84.21,188.08-188.08S303.87,11.92,200,11.92v70a118.06,118.06,0,0,1,0,236.12Z"/>
      <g>
        <polygon class="cls-7" points="273.48 354.56 271.1 342.34 266.3 343.94 267.62 357.17 273.48 354.56"/>
        <polygon class="cls-7" points="237.75 354.08 237.26 341.63 243.12 342.12 245.07 355.31 237.75 354.08"/>
        <path class="cls-8" d="M242,124.31s26.11-4.85,27.72-4,16,15.88,16.32,17.18-13.34,54.49-13.73,55-13.22.21-17.75-.76S242,124.31,242,124.31Z"/>
        <polygon class="cls-9" points="281.05 131.4 274.37 159.51 283.25 133.69 281.05 131.4"/>
        <polygon class="cls-9" points="274.21 124.81 270.22 154.62 276.63 127.24 274.21 124.81"/>
        <path class="cls-10" d="M235.18,344.07c-6.22-34.42-17.7-112.66-15.5-139.4,0,0,29.17-11.11,47.85,3.91,0,0,2.08,121.94,6.1,137.33l-7.69.73L247.76,232.26l-10.26-3.42s5.74,111.21,7.57,117.07Z"/>
        <g>
          <path class="cls-11" d="M248,232.57l-13.73-8.25s5.86,112.06,7.69,117.92l-7.35-1.36c.2,1.1.39,2.17.57,3.19l9.89,1.84c-1.83-5.86-7-115.54-7-115.54Z"/>
          <path class="cls-11" d="M267.53,208.58a30.47,30.47,0,0,0-3.09-2.19c.25,13.86,2.31,121.47,6.08,135.85l-5.2.5.62,3.9,7.69-.73C269.61,330.52,267.53,208.58,267.53,208.58Z"/>
          <path class="cls-11" d="M219.8,204.55c2.57,4.76,21.24,17.76,46.88,15.75l.36-13.74Z"/>
        </g>
        <path class="cls-12" d="M222.37,207.6c12.2,9,42,4.89,44.18,2.44,4.15-4.64-4.88-25.14,5.13-54.44.75-2.19-8.3-31.25-13.43-29.78s-30,3.66-32.95,3.9-11,14.27-4.89,39.8C224.32,185.87,214.76,202,222.37,207.6Z"/>
        <path class="cls-13" d="M258.48,125.77c4.76,7.42,9.93,24.86,9.36,26.54-10,29.29.15,50.71-4,55.35-2.08,2.32-30.07,5.24-43.26-2.06a6.41,6.41,0,0,0,1.79,2c12.2,9,42,4.89,44.18,2.44,4.15-4.64-4.88-25.14,5.13-54.44C272.42,153.44,263.64,125.18,258.48,125.77Z"/>
        <path class="cls-12" d="M205.28,165.85c-5.08,1.7-1,18.31,3.9,17.09s13.19-13.18,13.67-16.11,4-38.08,2.45-37.11C215.77,135.58,212.6,163.41,205.28,165.85Z"/>
        <path class="cls-13" d="M225.3,129.72a10.25,10.25,0,0,0-1.64,1.28c-.29,9.35-2.45,30.48-2.82,32.72-.49,2.93-8.79,14.89-13.67,16.11a2.68,2.68,0,0,1-2.53-.91c1.16,2.62,2.8,4.46,4.54,4,4.88-1.22,13.19-13.18,13.67-16.11S226.88,128.75,225.3,129.72Z"/>
        <path class="cls-12" d="M294.87,168.05c5.23.84-11.61,12.43-14.4,8.3-6.1-9-12.3-8.14-13.26-10.95s-9.82-39.18-8-39.34C275.59,124.59,287.33,166.84,294.87,168.05Z"/>
        <path class="cls-13" d="M282.48,172.87c-4.9-7.26-13.06-10-16.56-12.29.63,2.51,1.11,4.28,1.29,4.82,1,2.81,7.16,1.92,13.26,10.95,2.59,3.83,17.26-5.86,15.19-7.95C291.84,171.7,284.27,175.52,282.48,172.87Z"/>
        <path class="cls-14" d="M257.34,126.82c-.1-.43,2.84-6.68,2.84-6.68L252.39,118l-20.87,6L234,129.6l6.47,9.89Z"/>
        <path class="cls-15" d="M277.85,173.61c-1.5,1.92-.8,6.65,3.11,6.16s15.13-3.66,15.13-3.66C305.86,156.59,280.41,170.31,277.85,173.61Z"/>
        <path class="cls-16" d="M285.54,173.24c1.12-1.45,6.68-4.92,11.73-6.69-3.92-3.07-17.58,4.69-19.42,7.06-1.5,1.92-.8,6.65,3.11,6.16,1.2-.15,3.08-.55,5.12-1A4.36,4.36,0,0,1,285.54,173.24Z"/>
        <path class="cls-15" d="M208.14,165.26c-1.3-2.07-7.72-.35-7.56,3.58,1,24.57,13.33,20,13.55,11C214.31,172.14,208.14,165.26,208.14,165.26Z"/>
        <path class="cls-16" d="M205.7,177.45c-.14-3.72,5.58-5.46,7.3-3.88a28.38,28.38,0,0,0-4.86-8.31c-1.3-2.07-7.72-.35-7.56,3.58.44,11.28,3.28,16.41,6.25,17.79A49.08,49.08,0,0,1,205.7,177.45Z"/>
        <path class="cls-17" d="M261.37,125.63c-1.65,3.66-2.57,26.74,6.95,51.64l2.75-2.38s-2.2-42.3.55-47.06Z"/>
        <path class="cls-17" d="M221.63,129.48c-1.83,3.11-5.12,26.36-1.64,47.42l1.83,1.1s5.57-44.85,8.6-49.44Z"/>
        <polygon class="cls-18" points="235.55 217.61 234.82 214.19 243.12 214.68 242.38 220.3 235.55 217.61"/>
        <path class="cls-19" d="M241.71,129.23c-.24-1-3.17-13.67-3.17-13.67l16.6-10-2.68,23Z"/>
        <path class="cls-19" d="M205.52,184.77c-8.92,4.31-15-22-21.06-34.78l4.76-2.57C195.08,161.89,216.14,181.3,205.52,184.77Z"/>
        <path class="cls-7" d="M188,149l-3.57,1c5.5,11.66,11,34.47,18.72,35.23C197.51,176.16,192.21,158.41,188,149Z"/>
        <polygon class="cls-19" points="241.65 127.28 242.02 135.58 252.64 128.5 246.35 125.08 241.65 127.28"/>
        <path class="cls-19" d="M282.06,178.37c-4.58,9.33-17,26.91-14.1,36.8l4.94-.92c-1.46-11.35,25.64-32.59,20.51-39.18C286.63,170.49,282.06,178.37,282.06,178.37Z"/>
        <path class="cls-7" d="M293.41,175.07a6.73,6.73,0,0,0-8.09-.16A8.35,8.35,0,0,1,288.2,176c5.29,5.94-17.72,27.07-18,38.77l2.71-.51C271.44,202.9,298.54,181.66,293.41,175.07Z"/>
        <path class="cls-16" d="M242,147c-.5-3.81,2.94-2.55,3.11-.18C245.31,149.38,242.57,151.21,242,147Z"/>
        <path class="cls-16" d="M241.1,167.93c-.49-3.82,3-2.56,3.12-.18C244.4,170.31,241.65,172.14,241.1,167.93Z"/>
        <path class="cls-16" d="M239.94,184.9c-.49-3.82,2.95-2.56,3.12-.19C243.24,187.28,240.49,189.11,239.94,184.9Z"/>
        <path class="cls-16" d="M238.91,201.25c-.5-3.81,2.94-2.55,3.11-.18C242.2,203.63,239.46,205.47,238.91,201.25Z"/>
        <polygon class="cls-20" points="247.08 342.43 232.8 339.86 233.53 347.19 247.27 348.47 247.08 342.43"/>
        <polygon class="cls-20" points="263.05 342.19 276.11 341.39 274.47 348.56 262.06 348.16 263.05 342.19"/>
        <polygon class="cls-16" points="226.53 152.81 237.32 154.08 236.73 156.77 231.04 159.23 226.33 155.54 226.53 152.81"/>
        <polygon class="cls-21" points="256.91 126.79 264.11 127.28 260.08 119.83 256.91 126.79"/>
        <polygon class="cls-21" points="228.35 130.55 234.36 129.66 231.61 124.08 228.35 130.55"/>
        <path class="cls-7" d="M171.55,134c2-2.31,7-1.64,11.27,8.33l-3.3,1.65S169.72,136.07,171.55,134Z"/>
        <path class="cls-22" d="M173.84,127.28c.28.28,10.07,14.56,10.07,14.56l7.79-.09-12.27-20.33Z"/>
        <path class="cls-23" d="M172.2,129.39c.27.27,10.07,13.55,10.07,13.55l7.78-.1-12.27-20.32Z"/>
        <path class="cls-24" d="M172.2,129.39c.27.27,10.07,13.55,10.07,13.55l-4.49-20.42Z"/>
        <path class="cls-19" d="M189.22,152.18c6.05-2.74,7.51-9,3.85-7.5,0,0,4-6.23-.55-5,0,0,3.48-7-2.38-4.21l-12.45,7L186.11,154Z"/>
        <path class="cls-7" d="M187,137.29l-9.28,5.19L186.11,154l3.11-1.83c.38-.17.73-.35,1.07-.54Z"/>
        <path class="cls-25" d="M275.84,128c.74-3.23,2.77-7.76,5.27-9.88l6.55,4.25s-6.83,7.94-7,11.26Z"/>
        <path class="cls-25" d="M283,133.78c1.55-1.76,4.33-3.89,6.6-4.37l2.65,4.86s-6.93,2.63-8.16,4.64Z"/>
        <path class="cls-19" d="M272.17,211.75c1.46,2.2,6.35,15.63,1.22,18.31s-8.3,0-5.61-18.8C269,208.58,272.17,211.75,272.17,211.75Z"/>
        <path class="cls-7" d="M268.75,230.06c2.69,1.95,11.6.37,11.35-4.15s-2.07-6-3.05-1.46-3.42,1.1-3.42,1.1Z"/>
        <path class="cls-7" d="M269,226.09c2.1,1.53,8.38,3.36,8.88-3.25.27-3.52-1.62-4.67-2.39-1.14s-2.67.86-2.67.86Z"/>
        <path class="cls-7" d="M272.17,211.75a8.31,8.31,0,0,0-1.32-1c1.11,3.21,3.21,12.48.41,14.5s-4.7.35-3.75-12c-2.19,17,.94,19.44,5.88,16.85C278.52,227.38,273.63,214,272.17,211.75Z"/>
        <path class="cls-7" d="M278.76,220.39a2.13,2.13,0,1,0-2.1,2.47A2.3,2.3,0,0,0,278.76,220.39Z"/>
        <path class="cls-22" d="M177.51,132.22c-.34,2,2.19,4.4,2.38,2S177.87,130,177.51,132.22Z"/>
        <path class="cls-26" d="M209.91,365.07c-1-5.37.21-5.83,6.84-6.1,11.72-.49,14.16-9.77,24.9-7.57s7.57,13.43,7.57,13.43Z"/>
        <path class="cls-26" d="M298.51,365.07c.89-5.15-.2-5.59-6.27-5.85-10.75-.47-13-9.36-22.84-7.26s-6.94,12.88-6.94,12.88Z"/>
        <rect class="cls-27" x="207.9" y="361.51" width="42.3" height="3.57"/>
        <rect class="cls-27" x="261.49" y="361.51" width="38.15" height="3.57"/>
        <path class="cls-27" d="M224.81,356.89c3.54,3.42,8.18,2.57,3.29-1.71Z"/>
        <path class="cls-27" d="M229,354.45c3.54,3.42,8.18,2.56,3.29-1.71Z"/>
        <path class="cls-27" d="M233.35,352.38c3.54,3.41,8.18,2.56,3.3-1.71Z"/>
        <path class="cls-27" d="M286.94,358c-3.52,3.42-8.13,2.56-3.28-1.71Z"/>
        <path class="cls-27" d="M282.81,355.55c-3.52,3.42-8.13,2.56-3.28-1.71Z"/>
        <path class="cls-27" d="M278.44,353.47c-3.52,3.42-8.13,2.57-3.28-1.71Z"/>
        <polygon class="cls-28" points="254.84 220.54 262.89 228.6 260.45 220.78 254.84 220.54"/>
        <polygon class="cls-28" points="224.58 214.06 219.91 223.36 220.15 215.3 224.58 214.06"/>
        <path class="cls-29" d="M270.85,121.21a7.89,7.89,0,0,0-1.16-.93c-.58-.3-4.34.15-8.92.83l-.69-1.28-.11.25-6.33-1.71,1.5-12.82-16.6,10,1.39,6L231.52,124l.06.15-2.29,4.55-7.52.78C244,142.18,259.46,134.28,270.85,121.21Z"/>
        <path class="cls-30" d="M226,77.84c-1.47-4.64-1-12.08,13.67-7.81Z"/>
        <path class="cls-30" d="M256.12,104.58c-1.28-14.28,7.81-20.63,1.71-28.32-3.14-4-12.58-7.21-17.52-7.39s-18.49,4.7-18.62,10.8C221.53,88.08,256.12,104.58,256.12,104.58Z"/>
        <path class="cls-31" d="M258,76.5c2.17,7.87-5.95,12.63-9.21,24.36,4.27,2.26,7.32,3.72,7.32,3.72C254.85,90.45,263.73,84.08,258,76.5Z"/>
        <path class="cls-19" d="M232.44,108c-2.93-13.91-9-29.78-3.18-32s22.71-1.46,24.66,3.66-2.44,29.54-2.44,29.54Z"/>
        <path class="cls-7" d="M253.92,79.67c-1.72-4.5-14.92-5.61-22.08-4.33,7.35-.58,17.65.76,19.15,4.7,1.78,4.68-1.71,25.38-2.34,29l2.83.18S255.87,84.8,253.92,79.67Z"/>
        <path class="cls-30" d="M256.36,106.28s-7.81,9.28-9,11.24-14.89,2-17.34.24-4.88-6.84-4.88-6.84,5.37-8.79,4.64-13.67l1.22,3.18A9.83,9.83,0,0,1,237,98c6,0,12.82,6,17.64-3.66Z"/>
        <g>
          <path class="cls-31" d="M229.79,98.9l.46-.35-.5-1.3A7.48,7.48,0,0,1,229.79,98.9Z"/>
          <path class="cls-31" d="M256.24,93.59c-.79-1.83-2.4,1.91-2.75,2.44l1.41,9s-7.82,9.28-9,11.23-14.22,2-17.12.37a7.82,7.82,0,0,0,1.25,1.16c2.45,1.71,16.12,1.71,17.34-.24s9-11.24,9-11.24Z"/>
        </g>
        <path class="cls-7" d="M255.75,92c3.05-.61,4.15,0,3.66,4.76-.07.71-2.93,3.3-4.27,3.18C255.26,96.7,255.75,92,255.75,92Z"/>
        <path class="cls-32" d="M233.26,105.22l.27-.74s5.77.92,10-2.28l1.83.82-2,3.11Z"/>
        <path class="cls-33" d="M243.42,92.37c-.44-2.09,1.78-2.73,2.1-.19S243.91,94.63,243.42,92.37Z"/>
        <path class="cls-33" d="M231,93.39c-.41-2.09,1.69-2.7,2-.15S231.44,95.65,231,93.39Z"/>
        <polygon class="cls-34" points="249.13 87.64 239.79 87.36 239.79 88.92 249.04 88.46 249.13 87.64"/>
        <polygon class="cls-34" points="225.99 89.84 234.61 89.72 234.54 88.2 226.03 89.03 225.99 89.84"/>
        <polygon class="cls-7" points="234.45 89.56 233.17 101.37 238.66 101.56 241.41 97.16 234.45 89.56"/>
        <polygon class="cls-19" points="235.38 88.61 233.9 100.7 238.66 100.88 241.71 97.04 235.38 88.61"/>
        <path class="cls-30" d="M225.84,75.1c.57,3.53,10.81,4.48,11.36-1.47S225.2,71.07,225.84,75.1Z"/>
        <path class="cls-30" d="M228.08,76.84c-4-.12-7.8-5-6.23-8.51,0,0-.63,6.19,6.92,5.22Z"/>
        <path class="cls-30" d="M228.24,77.16c-3.07,2.61-9.15,1.48-10.32-2.15,0,0,3.68,5,8.64-.76Z"/>
        <path class="cls-30" d="M227.28,76.08c-3.63-1.45-4.18-7.66-1.35-9.82,0,0-3.57,5,3.23,6.47Z"/>
        <path class="cls-35" d="M235.49,106.9l5.19.54S237.08,110.68,235.49,106.9Z"/>
        <path class="cls-13" d="M236.77,211.75c-1.22-2.2-1.71-7.08-.24-9.52,0,0,1,8.06,6.83,9.77Z"/>
      </g>
      <rect class="cls-36" x="252.81" y="154.39" width="84.86" height="51.37" rx="13.77"/>
      <path class="cls-37" d="M331.65,184.8a1.32,1.32,0,0,1-1.32-1.32V165a2.25,2.25,0,0,0-2.24-2.25H289a1.32,1.32,0,0,1,0-2.64h39.06A4.9,4.9,0,0,1,333,165v18.5A1.32,1.32,0,0,1,331.65,184.8Z"/>
      <path class="cls-38" d="M157.33,189.46h.26a6.16,6.16,0,0,1,6.16,6.16V296a0,0,0,0,1,0,0h-6.43a0,0,0,0,1,0,0V189.46A0,0,0,0,1,157.33,189.46Z" transform="translate(-82.2 403.28) rotate(-90)"/>
      <path class="cls-37" d="M268,213.24h54.42A10.52,10.52,0,0,1,333,223.76v.45a0,0,0,0,1,0,0H257.51a0,0,0,0,1,0,0v-.45A10.52,10.52,0,0,1,268,213.24Z"/>
      <path class="cls-39" d="M109.88,245.11H379.27a0,0,0,0,1,0,0V352.82A16.25,16.25,0,0,1,363,369.07H126.13a16.25,16.25,0,0,1-16.25-16.25V245.11A0,0,0,0,1,109.88,245.11Z"/>
      <path class="cls-40" d="M230.07,220.67H360.41a16.25,16.25,0,0,1,16.25,16.25v9a0,0,0,0,1,0,0H213.82a0,0,0,0,1,0,0v-9A16.25,16.25,0,0,1,230.07,220.67Z"/>
      <path class="cls-37" d="M307.83,220.67H282.64L289.06,193a6.34,6.34,0,0,1,6.18-4.9h0a6.32,6.32,0,0,1,6.17,4.9Z"/>
      <rect class="cls-37" x="263.5" y="148.07" width="9.45" height="6.32"/>
      <rect class="cls-38" x="253.49" y="130.93" width="29.46" height="17.14" rx="8.22"/>
      <path class="cls-41" d="M280,139.24v.52a5.62,5.62,0,0,1-5.62,5.61h-12.3a5.61,5.61,0,0,1-5.25-3.62,5.46,5.46,0,0,1-.37-2v-.52a5.62,5.62,0,0,1,5.62-5.61h12.3a5.61,5.61,0,0,1,5.62,5.61Z"/>
      <path class="cls-42" d="M240.38,160.46a.86.86,0,0,1-.86-.83,149.71,149.71,0,0,0-1.79-16.39c-1.5-9,0-13.59,0-13.78a.86.86,0,0,1,1.09-.54.85.85,0,0,1,.54,1.08c0,.07-1.38,4.44,0,13a155.34,155.34,0,0,1,1.82,16.6.86.86,0,0,1-.82.9Z"/>
      <path class="cls-42" d="M285.93,152.09h-.12a.86.86,0,0,1-.73-1c0-.11,1.5-10.5,2.15-14.48s2.26-9.9,2.33-10.15a.86.86,0,0,1,1.66.45c0,.06-1.65,6-2.29,10s-2.13,14.34-2.15,14.44A.85.85,0,0,1,285.93,152.09Z"/>
      <g>
        <g>
          <polygon class="cls-43" points="82.21 357.17 76.14 359.17 76.87 367.16 82.16 368.65 82.21 357.17"/>
          <path class="cls-44" d="M93.83,381.81c1.74-4.12-2.7-6.49-5.39-6.3-3.41.24-2.37-6.54-4-7.27s-8.25-3.63-9.76,13.33Z"/>
          <polygon class="cls-45" points="74.2 379.75 95 379.75 94.47 382.66 73.67 382.66 74.2 379.75"/>
          <polygon class="cls-45" points="85.45 370.21 85.05 365.85 76.47 368.4 75.89 372.64 85.45 370.21"/>
          <polygon class="cls-7" points="79.66 357.73 73.59 359.73 74.32 367.72 79.61 369.21 79.66 357.73"/>
          <path class="cls-46" d="M98.62,185.22c-3,6.56-.75,10.68,4.69,10.86s7.3-8.05,2.43-13.67S98.62,185.22,98.62,185.22Z"/>
          <polygon class="cls-47" points="48.53 143.02 40.04 194.82 41.88 195.17 50.95 142.34 48.53 143.02"/>
          <path class="cls-48" d="M88.23,201.51c-10.15.75-36.52-2.24-36.52-2.24C31,239.61,66.18,286.67,70.15,364l13.58-2.24C76.79,303.6,106.92,243,88.23,201.51Zm-14.16,118c-8.46-34.36-5.84-87.65-5.84-87.65l6.48.5C77.51,247.7,74.07,319.54,74.07,319.54Z"/>
          <g>
            <path class="cls-49" d="M69.25,233.07l6.2-.37c-.1-.86-10.12-3.3-10.12-3.3,0,41.08,4.31,77.74,8.55,95a55.89,55.89,0,0,1,.06-6.53C68.52,284.42,69.25,233.07,69.25,233.07Z"/>
            <path class="cls-49" d="M88.23,201.51c-.56,0-1.17.07-1.82.09C102.78,243,74,302.31,80.82,359.25L70,361c.06,1,.12,2,.17,2.94l13.58-2.24C76.79,303.6,106.92,243,88.23,201.51Z"/>
            <path class="cls-49" d="M61,210.35c7.85,4,26.44,4.61,29.69,1.25l-.9-6.1-30.06-1.25Z"/>
          </g>
          <path class="cls-49" d="M62,229.25l-.4-29c-5.67-.53-9.85-1-9.85-1a59.11,59.11,0,0,0-5.47,27Z"/>
          <polygon class="cls-50" points="70.89 195.15 75.2 209.58 90.75 206.95 70.89 195.15"/>
          <polygon class="cls-50" points="73.14 196.46 72.39 211.26 50.28 201.71 73.14 196.46"/>
          <path class="cls-46" d="M85.32,135.75c3.47,1.76,13.68,32.42,11.24,33l6.37-5.62C98.76,150,92.64,141.51,85.32,135.75Z"/>
          <path class="cls-50" d="M90.78,207c-6.81-13.55-7.24-34,1.66-46.09,5.24-7.12-1.25-23.05-9.5-26.3s-33.23,5.75-35.72,7.75S70.14,158.05,50,202.52Z"/>
          <path class="cls-51" d="M72.76,205.45c-.37-9.93.56-23.42,2.25-29.79,0,0-2.25,26.61-.37,31.86Z"/>
          <path class="cls-51" d="M90.56,163.29c-10.49,2.63-15.74,21.74-14.24,29.8L90.8,206.93S80.07,187.47,90.56,163.29Z"/>
          <path class="cls-51" d="M55.06,202.14c16.89-34.1.32-51.5-6.74-57.29,4.42,5.8,18,21.66,1.64,57.67Z"/>
          <path class="cls-46" d="M55.46,138.81c19,18,33.73,12.68,23.49-4.56C68.46,134.2,62.83,135.65,55.46,138.81Z"/>
          <path class="cls-19" d="M56.33,138.4c17,16.15,30.29,11.38,21.09-4.1C68,134.26,63,135.56,56.33,138.4Z"/>
          <path class="cls-50" d="M47.22,142.31C45,145.12,43.16,182.59,40,183.72l9.74-.94s9.19-27.54,3.94-35.6S47.22,142.31,47.22,142.31Z"/>
          <path class="cls-51" d="M53.65,147.18l-.12-.18c1,11.26-4.94,31.52-6.31,36l2.49-.24S58.9,155.24,53.65,147.18Z"/>
          <path class="cls-19" d="M60.58,139.87c.19-5.43,1.31-18.74,0-21.74L70,119.44s-.37,15.18,4.12,17.81Z"/>
          <path class="cls-7" d="M107.77,161.91c.91-5.47,1.36-8.51,2.37-8.4s.84,6.31-.87,8.79Z"/>
          <polygon class="cls-47" points="51.59 140.24 52.9 192.71 54.77 192.71 53.84 139.12 51.59 140.24"/>
          <path class="cls-46" d="M42,189.15c-2.87-.75-7.87-2.75-9-5.24,0,0,15-13.5,21.62-9.5h0Z"/>
          <path class="cls-19" d="M39.43,188c-3.88-4.34,19.65-19.68,30.33-29.8a8.72,8.72,0,0,0,1.88,2.25S47,196.52,39.43,188Z"/>
          <path class="cls-7" d="M71.26,158.05c-.62.58-1.29,1.19-2,1.81C65.05,165.82,46.65,191,39,187a1.63,1.63,0,0,0,.39,1c7.6,8.49,32.21-27.55,32.21-27.55A8,8,0,0,0,71.26,158.05Z"/>
          <path class="cls-19" d="M66.58,161.23c.75-5.06,5.62-12,13.12-4.31,0,0,8.8,9.93-2.07,2.06,0,0-4.48,5.63-8.62,3.56C68.27,162.17,66.58,161.23,66.58,161.23Z"/>
          <path class="cls-7" d="M80.55,157.93c1,1.69.65,2.39-4.73-1.51,0,0-4.22,4.1-8.1,5.44.47.25,1.06,1.08,1.39,1.25,4.14,2.07,8.52-4.13,8.52-4.13C86.29,165.25,82.47,160.23,80.55,157.93Z"/>
          <path class="cls-52" d="M97.29,188.19a1.12,1.12,0,0,0,1.13-.76l11.49-35a1.44,1.44,0,0,0-1.37-1.89L81,150.31a1.67,1.67,0,0,0-1.67,1.39L73.7,184A2.5,2.5,0,0,0,76,186.86Z"/>
          <path class="cls-53" d="M98.42,189.07a1.11,1.11,0,0,0,1.12-.77l11.49-35a1.47,1.47,0,0,0-.2-1.3,1.44,1.44,0,0,0-1.16-.6l-27.52-.2a1.7,1.7,0,0,0-1.67,1.39l-5.65,32.25a2.45,2.45,0,0,0,.49,2,2.49,2.49,0,0,0,1.8.94Z"/>
          <path class="cls-54" d="M107.63,151.37l-25.48-.19a1.7,1.7,0,0,0-1.67,1.39l-5.65,32.25a1.32,1.32,0,0,0,0,.28Z"/>
          <path class="cls-52" d="M92.62,166.85c2.58-1.36,4.47,1.6.93,3.75S89.59,168.44,92.62,166.85Z"/>
          <path class="cls-19" d="M102.33,193.84c-8,.36,1.16-15.37,2.32-26.89a18.4,18.4,0,0,0,4.13-3.24S111.27,192.48,102.33,193.84Z"/>
          <path class="cls-7" d="M108.78,163.71a17.1,17.1,0,0,1-3.21,2.65c.34,6.69.61,23.92-5.3,27a3.45,3.45,0,0,0,2.06.45C111.27,192.48,108.78,163.71,108.78,163.71Z"/>
          <path class="cls-19" d="M104.81,167.79c-1.5-3.37-.75-2.34-2.72-4.31-2.27-2.27,10.4-17.24,6.65,2.44Z"/>
          <path class="cls-7" d="M107.53,155.9c.57,1.56.42,5.72-1.79,11.8l3-1.78C110.19,158.29,109.18,155.87,107.53,155.9Z"/>
          <path class="cls-19" d="M106.77,157.86c-2.81-4.78-4.4-7.4-3.56-8s4.69,4.31,5,7.31Z"/>
          <path class="cls-19" d="M104.7,160.65c-3.67-4.16-5.73-6.43-5-7.14s5.42,3.34,6.26,6.23Z"/>
          <path class="cls-19" d="M102.86,164c-4.22-3.61-6.58-5.57-6-6.37s5.83,2.55,7.07,5.29Z"/>
          <path class="cls-7" d="M69.76,162.82c2.63,1.32,6.28,1.41,5.72-2.24Z"/>
          <path class="cls-7" d="M72.65,161.83c2.86.62,6.43-.19,5-3.6Z"/>
          <path class="cls-19" d="M72.49,157.67c2.73,1.79,5.84,1.58,2.69-1.93Z"/>
          <path class="cls-19" d="M70.14,159.26c2.73,1.79,5.85,1.58,2.7-1.93Z"/>
          <polygon class="cls-47" points="53.46 192.15 36.22 191.59 29.85 217.45 49.15 223.07 58.52 221.94 57.96 193.09 53.46 192.15"/>
          <polygon class="cls-55" points="52.52 193.65 36.22 191.59 29.85 217.45 49.15 221.01 52.52 193.65"/>
          <polygon class="cls-56" points="49.08 193.21 36.22 191.59 30.28 215.7 49.08 193.21"/>
          <polygon class="cls-47" points="33.41 203.02 51.77 204.89 51.96 207.14 33.41 203.02"/>
          <polygon class="cls-57" points="39.03 202.27 37.35 207.89 41.66 208.83 42.22 202.08 39.03 202.27"/>
          <path class="cls-29" d="M80.71,134a31.08,31.08,0,0,0-8.76.43,29.55,29.55,0,0,1-1.76-8.5l-9-3.77c.16,4.12-.2,10.13-.44,14.5-1.43.49-2.88,1.06-4.4,1.72l0,0-.68.29c-.64.22-1.25.43-1.84.65v-.25l-2.07,1c-1.49.59-2.69,1.12-3.51,1.54a1,1,0,0,0-1,.62.42.42,0,0,0-.17.28,6.65,6.65,0,0,0-.38,1.13C61.8,146.78,74.85,146.57,80.71,134Z"/>
          <path class="cls-58" d="M52.25,126.17c-14.43-17.92-9-36.24,6.84-38.91l3.7,37.64Z"/>
          <path class="cls-59" d="M77.94,126.4C93.07,109.58,88.1,87.85,71.49,87L67.1,124.33Z"/>
          <path class="cls-59" d="M86.89,97.19a24,24,0,0,1-1.91,12s-8.73-16-8.91-23A11.82,11.82,0,0,1,86.89,97.19Z"/>
          <path class="cls-59" d="M50.29,109.25c1.17,6.08,8.44,16.82,18.81,17.37s19.15-24.25,13.72-35.47S44.48,79,50.29,109.25Z"/>
          <path class="cls-19" d="M53.49,111.7c1,5.73,7.38,15.85,16.4,16.36S85.74,105.16,81,94.59,48.36,83.24,53.49,111.7Z"/>
          <path class="cls-7" d="M60.41,113.5c2.58-17-1.28-23.62,5.8-25.53-8,1-15.61,7.71-12.72,23.73,1,5.73,7.38,15.85,16.4,16.36C70.74,128.11,58.62,125.26,60.41,113.5Z"/>
          <path class="cls-59" d="M50.52,108.83c1.9,5.62,6.38,10,9.67,12.61,0,0-.19-23.7-3.93-28.23C56.26,93.21,47.59,100.19,50.52,108.83Z"/>
          <path class="cls-59" d="M43.79,113c1.5,5.74,5.65,10.47,8.75,13.28,0,0,9.2-35,5.79-39.8C58.33,86.46,36.85,91.34,43.79,113Z"/>
          <path class="cls-59" d="M54.15,99.58a18.65,18.65,0,0,0,7.22,9.85S66.42,91.38,63.88,85C63.88,85,51.49,89.79,54.15,99.58Z"/>
          <path class="cls-59" d="M61.5,109.25c5.52-21,15-18.46,12.06-21.9C73.56,87.35,51.68,82.83,61.5,109.25Z"/>
          <path class="cls-7" d="M57,113.78s-9.5-5-.62-7.09Z"/>
          <path class="cls-60" d="M65.67,117.25l11.43,1S71.11,129.31,65.67,117.25Z"/>
          <polygon class="cls-61" points="74.15 120.2 67.12 119.36 66.11 117.5 74.81 118.39 74.15 120.2"/>
          <path class="cls-7" d="M72.06,113.64c1.77,2.82,5.07.42,2.71-1.67S72.06,113.64,72.06,113.64Z"/>
          <path class="cls-19" d="M71.6,113.52c1.55,2.46,4.42.37,2.37-1.45S71.6,113.52,71.6,113.52Z"/>
          <polygon class="cls-49" points="73.56 323.02 81.16 360.37 83.09 328.75 74.66 307.09 73.56 323.02"/>
          <path class="cls-49" d="M78,326.31c-.19-1.13-1.79-80.12-1.79-80.12l-2.82,73.36Z"/>
          <path class="cls-62" d="M56.62,381.79c-1.1-7,15.51-14,15.51-14,2.28-.74,11.38-3.73,8.73,13.7Z"/>
          <polygon class="cls-63" points="81.93 379.67 55.7 379.67 55.59 382.66 81.82 382.66 81.93 379.67"/>
          <polygon class="cls-63" points="70.14 368.39 71.97 365.38 82.12 368 80.82 371.57 70.14 368.39"/>
          <path class="cls-63" d="M67.94,371.55c10.34,3.34,9.61,2.06,9.54,1.21s-4.77-2.64-7-2.92S65.52,370.76,67.94,371.55Z"/>
          <path class="cls-63" d="M65.5,374.66c9.23,3,8.58,1.84,8.52,1.08s-4.26-2.35-6.3-2.6S63.34,374,65.5,374.66Z"/>
          <path class="cls-64" d="M67,107.08c.28-2,2.36-1.73,2,.26C68.61,109.16,66.45,110.8,67,107.08Z"/>
          <path class="cls-64" d="M77.61,108.89c.36-2,2.42-1.65,2,.33C79.17,111,77,112.58,77.61,108.89Z"/>
          <path class="cls-59" d="M63.3,106.61c1.59-2,6.93-4.22,7.78-1.59C72.11,101.27,65.76,102.93,63.3,106.61Z"/>
          <path class="cls-59" d="M81.5,109.39c.16-2.07-2.14-5.38-4.47-3.41C78.76,102.57,82.17,105.66,81.5,109.39Z"/>
          <path class="cls-59" d="M72.29,86.84c3.47,2.9,4.41,7-1.12,10,0,0,5.34-4.87.66-8.52Z"/>
          <path class="cls-7" d="M71.58,123.69c1.61.2,1.62,1.94-.38,1.31S70.08,123.5,71.58,123.69Z"/>
          <path class="cls-7" d="M65.87,111.6c3.09.11,3.4,3.38-.48,2.54S63,111.5,65.87,111.6Z"/>
          <path class="cls-7" d="M79.23,113.17c2.1.08,2.31,2.31-.32,1.73S77.29,113.1,79.23,113.17Z"/>
        </g>
        <g class="cls-65">
          <g class="cls-66">
            <path class="cls-67" d="M85.32,135.75l.53.44A2,2,0,0,0,85.32,135.75Z"/>
          </g>
        </g>
      </g>
    </g>
  </g>
</svg>
