<svg xmlns="http://www.w3.org/2000/svg" width="400" height="400" viewBox="0 0 400 400">
  <defs>
    <style>
      .cls-1 {
        isolation: isolate;
      }

      .cls-2 {
        fill: #d8d5ed;
      }

      .cls-3 {
        opacity: 0.44;
      }

      .cls-4 {
        fill: #e56c00;
      }

      .cls-5 {
        fill: #eb9d66;
      }

      .cls-6 {
        fill: #6f678c;
      }

      .cls-7 {
        fill: #3f3466;
      }

      .cls-8 {
        fill: #b2abdb;
      }

      .cls-9 {
        fill: #00a8f1;
      }

      .cls-10 {
        fill: #93d1ff;
      }

      .cls-11 {
        fill: #eee;
      }

      .cls-12 {
        fill: #cbe8ff;
      }

      .cls-13 {
        fill: #3e2ea6;
      }

      .cls-14 {
        fill: #2f237d;
      }

      .cls-15 {
        fill: #f2d8c2;
      }

      .cls-16 {
        fill: #cde5ff;
      }

      .cls-17 {
        fill: #ffbdbf;
      }

      .cls-18 {
        fill: #ff8283;
      }

      .cls-19 {
        fill: #ff9f9c;
      }

      .cls-20 {
        fill: #e32c31;
      }

      .cls-21 {
        fill: #da1926;
      }

      .cls-22 {
        fill: #ff8080;
      }

      .cls-23 {
        fill: #251462;
      }

      .cls-24 {
        fill: #ffd4d4;
      }

      .cls-25 {
        fill: #0f0140;
      }

      .cls-26 {
        mix-blend-mode: multiply;
        opacity: 0.25;
      }

      .cls-27 {
        fill: #00214f;
      }

      .cls-28 {
        fill: #80ccf2;
      }

      .cls-29 {
        fill: #97d7f1;
      }

      .cls-30 {
        fill: #f0f4ff;
      }
    </style>
  </defs>
  <g class="cls-1">
    <g id="Capa_1" data-name="Capa 1">
      <path class="cls-2" d="M200,81.94v-70C96.13,11.92,11.92,96.13,11.92,200S96.13,388.08,200,388.08v-70a118.06,118.06,0,0,1,0-236.12Z"/>
      <g class="cls-3">
        <path class="cls-2" d="M200,388.08c103.87,0,188.08-84.21,188.08-188.08S303.87,11.92,200,11.92v70a118.06,118.06,0,0,1,0,236.12Z"/>
      </g>
      <g>
        <path class="cls-4" d="M116.7,114.3v-6.94a2.57,2.57,0,0,0-2.58-2.58h-6.61a33,33,0,0,0-6-13.74l4.86-4.86a2.58,2.58,0,0,0,0-3.65l-4.91-4.91a2.58,2.58,0,0,0-3.65,0l-5.11,5.12a33.11,33.11,0,0,0-13.48-5V69.92a2.59,2.59,0,0,0-2.58-2.58h-7a2.59,2.59,0,0,0-2.58,2.58v8.36a33.17,33.17,0,0,0-12.29,5.64l-6.31-6.3a2.57,2.57,0,0,0-3.64,0L40,82.53a2.6,2.6,0,0,0,0,3.65l6.57,6.56a33.44,33.44,0,0,0-4.77,12H32.3a2.58,2.58,0,0,0-2.58,2.58v6.94a2.58,2.58,0,0,0,2.58,2.58h9.5a33.39,33.39,0,0,0,4.77,12L40,135.47a2.6,2.6,0,0,0,0,3.65L44.92,144a2.57,2.57,0,0,0,3.64,0l6.31-6.29a33.17,33.17,0,0,0,12.29,5.64v8.36a2.58,2.58,0,0,0,2.58,2.58h7a2.58,2.58,0,0,0,2.58-2.58v-7.83a33.13,33.13,0,0,0,13.48-5L97.86,144a2.58,2.58,0,0,0,3.65,0l4.91-4.91a2.58,2.58,0,0,0,0-3.65l-4.86-4.86a33.12,33.12,0,0,0,6-13.73h6.61A2.57,2.57,0,0,0,116.7,114.3Zm-27,6.15a17.73,17.73,0,0,1-6.83,6.23,16.93,16.93,0,0,1-4.71,1.67,17.73,17.73,0,0,1-9.23-.6A17.16,17.16,0,0,1,65,125.88a17.81,17.81,0,0,1-6.24-6.82,18.13,18.13,0,0,1-1.4-3.61,17.8,17.8,0,0,1,0-9.24,17.35,17.35,0,0,1,1.41-3.61A17.88,17.88,0,0,1,65,95.77a17.16,17.16,0,0,1,3.91-1.87A17.73,17.73,0,0,1,74.66,93a16.92,16.92,0,0,1,3.51.35A17.24,17.24,0,0,1,82.88,95a17.91,17.91,0,0,1,9,20.48A17.69,17.69,0,0,1,89.71,120.45Z"/>
        <path class="cls-5" d="M114.12,104.78h-6.61a33,33,0,0,0-6-13.74l4.86-4.86a2.58,2.58,0,0,0,0-3.65l-4.91-4.91a2.58,2.58,0,0,0-3.65,0l-5.11,5.12a33.11,33.11,0,0,0-13.48-5V69.92a2.59,2.59,0,0,0-2.58-2.58h-7a2.59,2.59,0,0,0-2.58,2.58v8.36a33.17,33.17,0,0,0-12.29,5.64l-6.31-6.3a2.57,2.57,0,0,0-3.64,0L40,82.53a2.6,2.6,0,0,0,0,3.65l6.57,6.56a33.44,33.44,0,0,0-4.77,12h-.88A50.56,50.56,0,0,0,59.77,120.7a16.91,16.91,0,0,1-1-1.64,18.13,18.13,0,0,1-1.4-3.61,17.8,17.8,0,0,1,0-9.24,17.35,17.35,0,0,1,1.41-3.61A17.88,17.88,0,0,1,65,95.77a17.16,17.16,0,0,1,3.91-1.87A17.73,17.73,0,0,1,74.66,93a16.92,16.92,0,0,1,3.51.35A17.24,17.24,0,0,1,82.88,95a17.91,17.91,0,0,1,9,20.48,17.84,17.84,0,0,1-7.43,10.28A50.21,50.21,0,0,0,107,119.07c.18-.72.35-1.45.48-2.19h3a49.59,49.59,0,0,0,6.21-5.07v-4.45A2.57,2.57,0,0,0,114.12,104.78Z"/>
      </g>
      <g>
        <g>
          <rect class="cls-6" x="171.19" y="277.66" width="56.74" height="37.04"/>
          <rect class="cls-7" x="171.19" y="277.66" width="56.74" height="16.44"/>
          <path class="cls-6" d="M83,110.83h233.1a19.27,19.27,0,0,1,19.27,19.27V265a0,0,0,0,1,0,0H63.74a0,0,0,0,1,0,0V130.1A19.27,19.27,0,0,1,83,110.83Z"/>
          <rect class="cls-8" x="73.21" y="126.86" width="252.7" height="130.89"/>
          <path class="cls-9" d="M63.74,257.76H335.38a0,0,0,0,1,0,0v8a19.27,19.27,0,0,1-19.27,19.27H83A19.27,19.27,0,0,1,63.74,265.8v-8A0,0,0,0,1,63.74,257.76Z"/>
          <circle class="cls-6" cx="199.56" cy="272.52" r="5.14"/>
          <path class="cls-9" d="M301.9,321.4H97.22A3.41,3.41,0,0,1,93.81,318h0a10,10,0,0,1,10-10H295.33a10,10,0,0,1,10,10h0A3.42,3.42,0,0,1,301.9,321.4Z"/>
          <g>
            <g>
              <rect class="cls-10" x="258.82" y="146.53" width="56.02" height="14.01" rx="2.19"/>
              <g>
                <polygon class="cls-5" points="266.71 155.86 264.57 156.84 264.84 154.5 263.24 152.76 265.55 152.29 266.71 150.24 267.87 152.29 270.18 152.76 268.58 154.5 268.86 156.84 266.71 155.86"/>
                <polygon class="cls-5" points="276.77 155.86 274.63 156.84 274.9 154.5 273.3 152.76 275.61 152.29 276.77 150.24 277.93 152.29 280.24 152.76 278.64 154.5 278.92 156.84 276.77 155.86"/>
                <polygon class="cls-5" points="286.83 155.86 284.69 156.84 284.95 154.5 283.36 152.76 285.67 152.29 286.83 150.24 287.99 152.29 290.3 152.76 288.7 154.5 288.97 156.84 286.83 155.86"/>
                <polygon class="cls-5" points="296.89 155.86 294.74 156.84 295.01 154.5 293.42 152.76 295.73 152.29 296.89 150.24 298.05 152.29 300.36 152.76 298.76 154.5 299.03 156.84 296.89 155.86"/>
                <polygon class="cls-11" points="306.95 155.86 304.8 156.84 305.07 154.5 303.48 152.76 305.79 152.29 306.95 150.24 308.1 152.29 310.42 152.76 308.82 154.5 309.09 156.84 306.95 155.86"/>
              </g>
            </g>
            <g>
              <rect class="cls-10" x="84.29" y="138.39" width="62.61" height="19.47" rx="4.38"/>
              <g>
                <g>
                  <circle class="cls-5" cx="94.71" cy="148.12" r="5.46" transform="translate(-78.44 178.6) rotate(-67.39)"/>
                  <path class="cls-11" d="M91,152.16a5.44,5.44,0,0,0,7.33,0A3.66,3.66,0,0,0,96.08,149a2.27,2.27,0,1,0-3.64-1.8,2.26,2.26,0,0,0,.9,1.8A3.69,3.69,0,0,0,91,152.16Z"/>
                </g>
                <g>
                  <rect class="cls-12" x="104.13" y="145.27" width="29.1" height="1.04"/>
                  <rect class="cls-12" x="104.13" y="147.6" width="37.81" height="1.04"/>
                  <rect class="cls-12" x="104.13" y="149.93" width="37.81" height="1.04"/>
                </g>
              </g>
            </g>
            <g>
              <rect class="cls-10" x="84.29" y="165.56" width="35.71" height="8.93" rx="2.19"/>
              <rect class="cls-10" x="84.29" y="178.18" width="35.71" height="8.93" rx="2.19"/>
              <rect class="cls-12" x="84.29" y="190.8" width="35.71" height="8.93" rx="2.19"/>
              <rect class="cls-5" x="125.43" y="178.18" width="35.71" height="8.93" rx="2.19"/>
              <rect class="cls-10" x="125.43" y="190.8" width="35.71" height="8.93" rx="2.19"/>
            </g>
            <g>
              <rect class="cls-5" x="279.13" y="182.64" width="35.71" height="8.93" rx="2.19"/>
              <rect class="cls-10" x="279.13" y="195.26" width="35.71" height="8.93" rx="2.19"/>
              <rect class="cls-12" x="279.13" y="207.88" width="35.71" height="8.93" rx="2.19"/>
            </g>
          </g>
        </g>
        <g>
          <g>
            <path class="cls-13" d="M156.73,135.63c-1.61,40.72-20.55,44.84,0,74.22s91.32,19,92.52-3.27-13.74-35.64-3.95-63.47S156.73,135.63,156.73,135.63Z"/>
            <path class="cls-14" d="M162,146.47c-2.38,18.51-8.73,36.76-5.47,46.79,0,0,.36-11.29,2.47-14,0,0-2.11,15.85,4.35,28.7s76.22,10.4,76.22,10.4,1.43-14.07,0-24.27-4.14-14.16-4.93-19.63c0,0,4.3,8.88,6,12.28a25.4,25.4,0,0,1,1.9,8.39s.45-9.07-3.08-16-1.42-26.06-.37-33.5-49.21-16.25-54.67-13.27S162,146.47,162,146.47Z"/>
          </g>
          <g>
            <path class="cls-15" d="M178.21,196.74C154,205,136.57,208,131.54,223.89s-12.06,33.87-12.06,33.87h164s-8.12-37.35-17-43.53-43.67-16.55-54.3-18.32S178.21,196.74,178.21,196.74Z"/>
            <path class="cls-16" d="M245,232.63s.62,14.87-1.55,25.13h5.56Z"/>
            <path class="cls-16" d="M158.77,238.49s-.48,11.4,1.19,19.27H155.7Z"/>
            <path class="cls-16" d="M139.27,219.36c2.13-5.6,9-12.17,9-12.18-8.32,3.83-14.14,8.59-16.72,16.71-5,15.85-12.06,33.87-12.06,33.87H132.7C132.12,240.88,137.15,225,139.27,219.36Z"/>
            <path class="cls-6" d="M207.88,227.56s-11.79-.77-18.94-6.18-6.18-10.82-6.18-10.82a43.19,43.19,0,0,1-7.16,0c-1.93-.39.85-20.53,12.12-20.89s34.88,4.3,37.78,4.46,12.46,8.73,10,19.58c-.38,1.74-5-3.15-7.18-.64S224.5,226.21,207.88,227.56Z"/>
            <path class="cls-7" d="M204,224.32a59.46,59.46,0,0,1-20.54-28.15c-1-2.95.7-4.6,3.83-5.1Z"/>
            <path class="cls-7" d="M208.48,227.18c8.29-5.3,15.92-18.35,18.24-22.7s2.41-8.44-4.69-9.19S208.48,227.18,208.48,227.18Z"/>
            <path class="cls-17" d="M223.09,168.83c-2.14,17.24-3.36,26.46,2.41,33.61,0,0-10.28,20.87-17.62,25.12,0,0-17.59-12.56-22.42-32.66a24.49,24.49,0,0,0,3.29-11c.38-6.57-.58-18-.58-18Z"/>
            <path class="cls-18" d="M218.59,214.78c-10.72,13-21.77,2-25.88-3.54a67.14,67.14,0,0,0,15.17,16.32C211.26,225.61,215.26,220.13,218.59,214.78Z"/>
            <path class="cls-18" d="M188.75,183.89a25,25,0,0,1-3.12,10.73c8-1.41,25-4.68,35.72-8.49.17-4.73.88-10.36,1.74-17.3l-21.31-1.78-13.59-.88A164.73,164.73,0,0,1,188.75,183.89Z"/>
          </g>
          <g>
            <g>
              <path class="cls-19" d="M250.87,124.9c.68-10.87.86-20.76-7.63-33.44s-6.69,20.78-6.55,21.16,7.52,14.5,7.52,14.5Z"/>
              <path class="cls-5" d="M246.08,142.11c-1.08,6.26-.35,11.42,2.65,11.94s6.3-4.14,7.38-10.39-.48-11.74-3.48-12.26S247.15,135.86,246.08,142.11Z"/>
              <path class="cls-20" d="M251.94,146.13l-1.89.76L248.2,152s-.31.63-.7,1.45a2.65,2.65,0,0,0,1.23.58c2.65.45,5.55-3.15,6.92-8.33C253.27,147,251.94,146.13,251.94,146.13Z"/>
              <path class="cls-5" d="M243.3,122.87c2.33-.43,8.92,1.32,9.67,4.73,1.71,7.75-1.12,25.72-6.31,30.16-1.89,1.61-7.16,1.28-9,.71-4.74-1.46-4.76-9-3-19.1S240.07,123.47,243.3,122.87Z"/>
              <path class="cls-20" d="M251.94,146.13c-2.42,1.74-3.67,0-3.67,0-1.64,3.48-4.64,3.47-8.44,4L237.7,149s-2.08,1.53-4,2.91c.35,3.47,1.53,5.82,4,6.57,1.87.57,7.14.9,9-.71C248.93,155.81,250.75,151.27,251.94,146.13Z"/>
              <path class="cls-19" d="M253,127.6c-.75-3.41-7.34-5.16-9.67-4.73a4.69,4.69,0,0,0-.58.17c4.26-.32,6.49,2.67,7,6.08s0,18.89-5,25.71c-.64.87-1.75,3.41-5.48,3.95,2.37.31,5.95.25,7.45-1C251.85,153.32,254.68,135.35,253,127.6Z"/>
              <path class="cls-5" d="M251.94,146.13c-2.42,1.74-3.67,0-3.67,0h0a24.86,24.86,0,0,1-3.58,8.7c-.64.87-1.75,3.41-5.48,3.95,2.37.31,5.95.25,7.45-1C248.93,155.81,250.75,151.27,251.94,146.13Z"/>
              <path class="cls-20" d="M243.66,140.78c-.95,5.46-2.89,9.68-4.35,9.43s-1.89-4.88-.95-10.34,2.89-9.68,4.35-9.43S244.6,135.32,243.66,140.78Z"/>
            </g>
            <path class="cls-17" d="M170.61,158.14l.2.47a54.87,54.87,0,0,0,10.86,15.46c6.2,6.32,14.61,11.81,23.53,13,9.59,1.28,18.38-4.05,24.8-10.89a24.75,24.75,0,0,0,6.2-11.26c1-4.49.46-9.31,1.19-13.91a41.38,41.38,0,0,1,2.23-7.15,52.57,52.57,0,0,0,3-23.1c-.37-3.23-.89-7.86-2.64-10.67-2-3.22-6.67-5.75-9.81-7.72-10.06-6.3-23.4-8.6-34.84-5-11.69,3.64-21.22,13-26.14,24.09-2.35,5.28-3.71,10.47-2.57,16.15C168,144.67,167.78,151.31,170.61,158.14Z"/>
            <path class="cls-18" d="M168.26,131.5s18.17,5,34.21,0,21.48-15,22.82-20.26c0,0,13.1,10.28,15.72,25.43,0,0,.9-26.91-7.46-30.26s-25.87-7.73-27.8-6-34.4,20.29-34.4,20.29Z"/>
            <g>
              <path class="cls-14" d="M186.75,131.88a36,36,0,0,1,4.1-1.69,22.94,22.94,0,0,1,4.39-1,12.11,12.11,0,0,1,4.57,0,8.13,8.13,0,0,1,4.11,2l-.07.2a20.75,20.75,0,0,1-2.24,0l-2.12-.12c-1.38-.05-2.73-.39-4.15-.39a29.32,29.32,0,0,0-4.25.34c-1.42.2-2.84.53-4.27.86Z"/>
              <path class="cls-14" d="M234,132.33a16.35,16.35,0,0,0-4.19-1.17,22.75,22.75,0,0,0-4.28-.21c-1.43.06-2.8.45-4.21.53a41.63,41.63,0,0,1-4.42.19l-.08-.2A10.18,10.18,0,0,1,221,129.4a13.17,13.17,0,0,1,4.6-.15,19.49,19.49,0,0,1,4.5.88,14.91,14.91,0,0,1,4,2Z"/>
              <ellipse class="cls-14" cx="195.58" cy="140.01" rx="1.38" ry="2.82"/>
              <ellipse class="cls-14" cx="224.63" cy="140.15" rx="1.33" ry="2.82"/>
              <path class="cls-18" d="M214.32,153.58a5.33,5.33,0,0,1-2,2.62,3.6,3.6,0,0,1-3.23.34c-1.68-.71-2.14-2.67.14-2.22a8.09,8.09,0,0,0,2.64.15C212.29,154.4,214.12,154.1,214.32,153.58Z"/>
              <g>
                <path class="cls-21" d="M197.69,161.25a209.64,209.64,0,0,0,24.12.86c-1.85,6.14-6.4,12.15-12.64,11.93C202.77,173.81,199.05,167.65,197.69,161.25Z"/>
                <path class="cls-22" d="M216.72,170.85c-4.81-4-8.29-.58-8.29-.58-1.1-.75-4.13-2-6.8-.2a10.45,10.45,0,0,0,5.56,3.68l2.15.28A10.27,10.27,0,0,0,216.72,170.85Z"/>
                <path class="cls-15" d="M199.19,161.42a14.8,14.8,0,0,0,.61,3,33.47,33.47,0,0,0,19.58,1,32,32,0,0,0,.53-3.3C214.72,162.24,204.77,162,199.19,161.42Z"/>
              </g>
            </g>
            <g>
              <path class="cls-19" d="M234.89,173.19a6.24,6.24,0,0,1-1.37,0l-6.74-.92.26-1.93,6.74.92c4,.56,9.22-5.87,10.59-13.42a1,1,0,0,1,1.09-.81h0a1,1,0,0,1,.83,1.12C244.87,166.09,239.64,172.81,234.89,173.19Z"/>
              <path class="cls-5" d="M246.06,157.33a1.48,1.48,0,0,1,0,.21c-1.42,8-6.65,14.69-11.41,15.07a6.16,6.16,0,0,1-1.36,0l-6.43-.88-.07.54,6.74.92a6.24,6.24,0,0,0,1.37,0c4.75-.38,10-7.1,11.4-15.07A.93.93,0,0,0,246.06,157.33Z"/>
              <path class="cls-13" d="M226.88,173.34l-3.85-.53a2.43,2.43,0,0,1-2.08-2.74h0a2.44,2.44,0,0,1,2.74-2.08l3.85.53a2.43,2.43,0,0,1,2.08,2.74h0A2.43,2.43,0,0,1,226.88,173.34Z"/>
              <path class="cls-23" d="M229.06,169.36a2.57,2.57,0,0,1,0,.48h0a2.43,2.43,0,0,1-2.74,2.08l-3.37-.46A2.42,2.42,0,0,1,221,169.9a1.09,1.09,0,0,0-.05.17h0a2.43,2.43,0,0,0,2.08,2.74l3.85.53a2.43,2.43,0,0,0,2.74-2.08h0A2.42,2.42,0,0,0,229.06,169.36Z"/>
            </g>
            <g>
              <path class="cls-13" d="M221.6,106.49s19.32,8.12,19.52,34.59c0,0,15.46-17,6.37-42.51S212.13,74,212.13,74Z"/>
              <path class="cls-23" d="M221.6,106.49s18.85,7.94,19.49,33.66v-.45c-.32-25.94-9.31-32.84-18.2-37.56l-2.12,1.51Z"/>
              <path class="cls-13" d="M167.17,130.07s53.27,3.09,57.52-24-9.4-33.62-16.1-34.27-19.76-2.2-30.92,8.63S154,97.86,155.42,132.9Z"/>
              <path class="cls-14" d="M166.06,122.74c2.32-1.29,4.64-2.62,6.88-4.08s4.48-3,6.64-4.54A142,142,0,0,0,192.1,103.9a141.46,141.46,0,0,1-11.55,11.42q-3,2.72-6.26,5.23c-2.14,1.7-4.37,3.28-6.63,4.84Z"/>
              <path class="cls-14" d="M196.34,82.77c-12.62,6.83-26.5,23.25-26.77,36.85A11.24,11.24,0,0,1,167,107.57c2.81-7.11,11.07-15,15.65-18.36S196.34,82.77,196.34,82.77Z"/>
              <path class="cls-14" d="M170.34,124.25c-1.69-4.38-.53-19.34,0-23.59a39.52,39.52,0,0,1,2.27-8.28c.17-.8-.2-1-.2-1,8.79-13.53,21.26-15.46,33.91-19.42l-.73-.36c-7.14-.56-18.24-.48-27.92,8.91C166.5,91.3,154,97.86,155.42,132.9l11.75-2.83s18.21,1.05,34.19-3.48C183.6,130.08,172,128.63,170.34,124.25Z"/>
              <path class="cls-14" d="M218.09,106c-5.22,8.15-11.68,15.76-36.34,19.3-16.44,2.36-19-1-19-1s28.68-1.91,40.26-7.79S218.09,106,218.09,106Z"/>
            </g>
            <g>
              <path class="cls-19" d="M170.84,92C174,82.64,190,72.09,208.59,71.84A38.54,38.54,0,0,0,188,73.64c-11.08,4.12-19.05,10.85-23.44,18.44S170.84,92,170.84,92Z"/>
              <path class="cls-5" d="M187,76.17a37.28,37.28,0,0,0-15.78,12.66c-.51.06-5.14.92-5.21.93-.53.77-1,1.53-1.48,2.32-.16.27-.29.52-.41.75a15.94,15.94,0,0,1,4.14,0,2.48,2.48,0,0,0,1.41-.1c.7-.46,1.17-.8,1.17-.8C174,82.64,190,72.09,208.59,71.84,202.34,71.76,197.15,72.11,187,76.17Z"/>
              <path class="cls-19" d="M168.36,124.91c-.88-17.36,1.58-29.19,3.77-32.41s-6.8-1.82-8.61.71c-1.16,1.63-5.12,15.44-3.67,31.82S168.36,124.91,168.36,124.91Z"/>
              <path class="cls-5" d="M170.51,90.63c.78.29,1,.68.45,1.51s-2.8,8.18-3.38,14.66-.29,13.27-.42,14-5.79,2.2-7.5,1.42c.05.92.11,1.84.19,2.77.11,1.21.25,2.23.41,3.1,1.72.2,4.11.28,6.29.32a35.85,35.85,0,0,0,1.81-3.54c-.88-17.36,1.58-29.19,3.77-32.41C173,91.19,172.07,90.65,170.51,90.63Z"/>
              <path class="cls-5" d="M166.86,124.06c-2.27-.66-9,.4-10.1,3.71-2.5,7.53-1.53,25.7,3.17,30.65,1.72,1.8,7,2,8.91,1.64,4.87-1,5.66-8.51,5-18.69S170,125,166.86,124.06Z"/>
              <path class="cls-20" d="M159.93,158.42c1.72,1.8,7,2,8.91,1.64,2.8-.56,4.25-3.29,4.84-7.44-2.34,2-8.32,1.36-11.35,0,0,0,.5-9-1.11-14.14a111.68,111.68,0,0,0-4.6,12.19C157.36,154.05,158.47,156.87,159.93,158.42Z"/>
              <path class="cls-19" d="M166,141.89c.61,9.1-1.53,16.66-4.8,16.88s-6.41-7-7-16.08,1.54-16.65,4.8-16.88S165.42,132.79,166,141.89Z"/>
              <path class="cls-5" d="M161.87,145.72s-4.17.52-5.78,6.83c1.35,3.89,3.23,6.35,5.15,6.22,1.66-.12,3-2.13,3.9-5.28a13.3,13.3,0,0,1-2.81-.88S162.7,151.14,161.87,145.72Z"/>
              <path class="cls-5" d="M161.78,143c.47,6.82-.77,12.26-3.8,12.46s-5.87-5.15-6.33-12,1.63-12.51,4.66-12.72S161.32,136.14,161.78,143Z"/>
              <path class="cls-20" d="M157.22,153.06c-1.39.09-2.74-.73-3.93-2.21,1.2,2.88,2.91,4.68,4.69,4.56,2.61-.17,3.88-4.23,3.89-9.69C161.23,150,159.69,152.89,157.22,153.06Z"/>
            </g>
          </g>
        </g>
      </g>
      <g>
        <g>
          <g>
            <path class="cls-17" d="M304.45,178.64c-.63,2.32,1.36,4.38,2,4.77s5,2.19,7.73,2.25,6.7-5.67,5.28-6.31S308.13,178,307,178A8.14,8.14,0,0,0,304.45,178.64Z"/>
            <path class="cls-15" d="M311.64,177.41c.68,7,3.1,12.37,4,12.47s9.5-2.8,11.9-3.87.55-17.39-.92-17.1-4.86,3.43-7.58,4.93S311.64,177.41,311.64,177.41Z"/>
            <path class="cls-16" d="M325.31,180.31c-.92,1.39-7.87,4.92-11.65,6.2.77,2.06,1.53,3.32,1.95,3.37.74.08,7.18-2,10.52-3.31A49.06,49.06,0,0,0,325.31,180.31Z"/>
            <path class="cls-17" d="M304.46,178.32c-.27,2.76,2.19,3.15,5.22,2.44s8.37-7.4,10.76-10.43,6.81-8.42,7.68-8.91,2.8-.74,4.64-3.46.09-8.42-.63-9.1-7.52,1.58-8.38,2.73,0,7.27-.27,8-6.39,7.08-9,8.63S304.66,176.32,304.46,178.32Z"/>
            <path class="cls-18" d="M328.4,153.42c.81-.39,1.13-2.14.61-1.84a5.29,5.29,0,0,1-2.53.29,9.82,9.82,0,0,1-1.63-.12,11.07,11.07,0,0,0-.21,1.39S327.59,153.8,328.4,153.42Z"/>
            <path class="cls-18" d="M333.54,153.82l-.73-1.55-4.88,4.39a26.6,26.6,0,0,0-2.62-2.07l-.46.72a13.75,13.75,0,0,1,1.07,4.53s.64.78,1,.84c0,0-5.44,7.73-8.86,11.53s-5.77,7-7.31,8.1c3.09-1.71,7.54-7.29,9.66-10,2.38-3,6.81-8.42,7.68-8.91s2.8-.74,4.64-3.46A6.69,6.69,0,0,0,333.54,153.82Z"/>
            <path class="cls-14" d="M324,154.26c0,.45,4.27,4.38,4.71,4.83a.74.74,0,0,0,.49,0c1.28-1.06,7.24-10.62,7.36-11s-3.15-3.61-4.15-4.49a1,1,0,0,0-.85.1C330.38,145.33,324,153.68,324,154.26Z"/>
            <path class="cls-13" d="M324.5,154.26c0,.45,4.27,4.38,4.71,4.83s7.72-10.59,7.85-11-3.55-3.55-4.55-4.43a.31.31,0,0,0-.45,0C330.87,145.33,324.47,153.68,324.5,154.26Z"/>
            <path class="cls-9" d="M325.31,153.61c0,.42,4,4.1,4.4,4.52s7.23-9.91,7.35-10.26-3.32-3.32-4.26-4.15a.29.29,0,0,0-.42,0C331.27,145.26,325.28,153.07,325.31,153.61Z"/>
            <path class="cls-17" d="M328.42,148.22a5.54,5.54,0,0,0,1.81-2.34c.11-.48.1-.92-.28-1s-1.64,1.42-2.25,1.87-1.38,1.38-1.14,2,1.54.39,1.69.29S328.42,148.22,328.42,148.22Z"/>
            <path class="cls-18" d="M330.16,145c.19.54-1.43,2.75-2.74,3.38l.43.54.5-.11a5,5,0,0,0,.07-.59,5.54,5.54,0,0,0,1.81-2.34A1.05,1.05,0,0,0,330.16,145Z"/>
            <path class="cls-17" d="M326.62,150.45a14.45,14.45,0,0,1,2.88-.84c.67-.26.87-1.28.43-1.45a12.08,12.08,0,0,0-3.91.58c-.73.32-1.17,1.76-1.17,1.76Z"/>
            <path class="cls-18" d="M327.21,149.7c-.7.13-.92,0-.92,0,0,.26-.26.4-.57.78l.9,0a14.45,14.45,0,0,1,2.88-.84,1.09,1.09,0,0,0,.6-.68C329.77,149.49,327.9,149.57,327.21,149.7Z"/>
            <path class="cls-17" d="M323.75,151.59c.58.89,3.77.5,4.42.4s1.07-.49,1-.9c-.08-.82-4.26-.67-4.62-.55S323.75,151.59,323.75,151.59Z"/>
            <path class="cls-18" d="M329.17,151.29a5,5,0,0,1-2.66.76,10.76,10.76,0,0,1-1.68,0,13,13,0,0,0,3.34-.09A1.14,1.14,0,0,0,329.17,151.29Z"/>
          </g>
          <g>
            <g>
              <path class="cls-24" d="M339.33,335.25c.19,1.69.87,2.32,3.33,2.66s6.09.29,8-1.55a11.34,11.34,0,0,0,3.19-4.88,9.5,9.5,0,0,1,.39-2.41c.29-.48,1.82-.79,1.63-3.48S339.33,335.25,339.33,335.25Z"/>
              <path class="cls-5" d="M355.28,319.19c-.27-3.74-9.14-2.3-9.19-.8s-2.12,7.78-4.16,9.69h0c-2.67,1.22-3.68,4.26-2.6,7.17.91,2.48,7.78,1.88,9.42,1a11.16,11.16,0,0,0,4-4.82h0a11.24,11.24,0,0,1,1.35-3c.82-1,1.26-.82,1.65-2S355.56,322.93,355.28,319.19Z"/>
              <path class="cls-24" d="M347.71,319c-.86,3.86-2.7,6.37-2.16,6.82s3.86,1,4.49,0a21.31,21.31,0,0,0,1.7-6.82C351.74,317.37,347.71,319,347.71,319Z"/>
            </g>
            <g>
              <path class="cls-5" d="M328.09,322.2a11.62,11.62,0,0,0-1.18-6.95c-1.42-2.8-1.35-3-3-3.33s-7.64-1.11-7.64-1.11a9.89,9.89,0,0,1-4.54,4.73c-3.53,1.93-4.25,2.61-6.52,2.61s-7.29.27-5.32,6.28c0,0,1.6.69,5.59.66s8.05-.35,9.5-.9,3-.84,3.84-.48,3.7.22,5.31,0A15.32,15.32,0,0,0,328.09,322.2Z"/>
              <path class="cls-24" d="M309.14,316.69a.4.4,0,0,0-.19.6c.47.73,1.46,1.54,2,1.36a37.71,37.71,0,0,0,5.21-3.87c.74-.64,1.45-1.86,1-2.44s-1.51-1.26-2-.91a25.57,25.57,0,0,1-3.16,3.58A9.31,9.31,0,0,1,309.14,316.69Z"/>
              <path class="cls-24" d="M299.9,324.43a74.81,74.81,0,0,0,15-.87c1.87-.48,2.88-1.3,4.67-.63s7.29-.38,8.16-.72.63,1,0,1.16-4.59,1-6.61,1.16-2.13-1.31-4.55-.2-6.37,1.11-8.11,1.11-6.72.39-7.64,0S299.9,324.43,299.9,324.43Z"/>
            </g>
            <path class="cls-7" d="M345.37,319.26c2.71.74,10.43.48,10.82-.58s-1.06-17.78-1.06-23.09-1.84-18.46-1.55-19.91a11.37,11.37,0,0,0-.19-5c-.49-2.51-.68-31.63-3-51.25l-30.15,2.84s-4.83,18.55-5.21,31.69.06,19.46,0,21.39.82,3.86,1,5.41-.06,13-.32,17.13-.44,11.73-.86,12.63,9.11,2.71,10.4,2.06,1.29-.77,1.29-7.47.9-22.8.9-25.64.9-3.35.51-4.77,1-7.85,2.45-12.62,3.09-9.92,3.09-9.92,4,25.77,5.29,27.31,1,5.54,1.8,7.86,3.09,18,3.09,22.8S342.53,318.49,345.37,319.26Z"/>
            <path class="cls-25" d="M351.79,319.64a18.57,18.57,0,0,0,3.31-.41c.32-1.37.67-3.1,1-5.11-.29-5.63-1-14.84-1-18.53,0-5.32-1.84-18.46-1.55-19.91a11.37,11.37,0,0,0-.19-5c-.49-2.51-.68-31.63-3-51.25l-6.07.58-17.75,6.67a135.27,135.27,0,0,0,18.51-1.1s1.39,15.71,1.44,18,1.72,24,1.72,26,.77,2.57.9,4.73a3,3,0,0,1-1.55,2.93s2.32.77,2.32,1.16.49,6.6.49,9,1.05,5.7,1.34,12.95S353,316.18,353,317.15,353,319.07,351.79,319.64Z"/>
            <path class="cls-25" d="M332.23,237.53l-6.47-1.64,5,2.41-4.06.1,3.11,1.11s1,8.07-1.05,13.48c-2.21,5.93-3.22,21.06-3.89,22.22s-2.42.87-2.42.87,1.84.2,1.93,1.55-.38,5.12-.38,9.11a121.06,121.06,0,0,1-.78,13c-.38,2.69-.56,9.28-.77,11s-2.84,1.34-2.84,1.34h0a34,34,0,0,0,3.79.52c4,.37,3.15-1.1,3.15-8.93.1-7.3.89-21.63.89-24.29,0-2.83.9-3.35.51-4.77s1-7.85,2.45-12.62,3.09-9.92,3.09-9.92-.7-6.59-.8-8.14S332.23,237.53,332.23,237.53Z"/>
          </g>
          <g>
            <path class="cls-15" d="M337.64,164.08c-7,3.41-8.05,3.28-11.05,4.83s-3.32,17.85-3.32,20.36,0,12.49-.61,15.2-2.8,12.75-3.58,14.3-2.22,4.16-.38,5.7,5.88,2.61,14.87,2,19-6.09,19.53-6.86-3.19-15-3.19-17.68a35.5,35.5,0,0,0-.58-6c-.2-1.26,3.08-7.15,3.81-10.92s5.58-14.17,4.94-16.07-7.61-4-12.29-6.45S337.64,164.08,337.64,164.08Z"/>
            <path class="cls-16" d="M336.05,166.8a5,5,0,0,0,.09,1.22,3.06,3.06,0,0,0,.43,1.11,2.23,2.23,0,0,0,1.94,1,6.64,6.64,0,0,0,2.34-.47c.77-.28,1.5-.65,2.25-1-.33.25-.68.47-1,.71s-.72.41-1.11.57a5.61,5.61,0,0,1-2.47.58h-.32l-.33-.08a2.32,2.32,0,0,1-.62-.23,2.35,2.35,0,0,1-.91-.94A3.57,3.57,0,0,1,336.05,166.8Z"/>
            <path class="cls-16" d="M353.1,219.64c.48-.77-3.19-15-3.19-17.68a35.5,35.5,0,0,0-.58-6c-.2-1.26,3.08-7.15,3.81-10.92a21.15,21.15,0,0,1,.71-2.49L351,180.31c-2.13,4.94-3.87,13.64-5.7,15.77s-6.09,3-6.09,3,4.06,1,5.9.58c0,0,1.37,7.64,1.11,11.4s-1,9.47-1.11,10.25c0,.28,0,1.29,0,2.44C349.5,222,352.82,220.08,353.1,219.64Z"/>
            <path class="cls-17" d="M345.53,155.67c-.23,4-.16,6.8.67,7.57,0,0-2,6.69-8.11,6.12-2.06-.19-1.61-3.67-.45-5.28l-.26-4.94Z"/>
            <path class="cls-18" d="M345.79,162.53h0c-.44-1.23-.44-3.64-.26-6.86l-8.15,3.47.16,3.17h0C338.9,162.93,345.79,162.53,345.79,162.53Z"/>
          </g>
          <g>
            <path class="cls-17" d="M364.89,188.28c1.23,1.87,2.71,6.5,1.87,8.63s-8.56,11.6-12,15.14-4.25,4.12-4.9,5.28a60.59,60.59,0,0,1-4.51,6.67,3.93,3.93,0,0,1-2.08.82,3.66,3.66,0,0,1-2.89.87,11.51,11.51,0,0,1-3,1.4s-.48.82-.92.89-.92-.79,0-2.53,2.27-2.47,2.56-3.58a24.63,24.63,0,0,1,1.46-3.38s-2.42,2.32-3.82,2.46-1.53-.67-.72-1.35a19.91,19.91,0,0,0,2.89-3,5.79,5.79,0,0,1,4-2.42,10.91,10.91,0,0,0,3.53-.77,34.12,34.12,0,0,0,4.87-7.17c1.84-3.54,3.59-8.07,7.9-12.05l-1.55-3.09Z"/>
            <path class="cls-18" d="M337.42,226.87a8.07,8.07,0,0,1,1.85-2.56l.29-.27c.09-.09.24-.19.28-.24s.28-.41.43-.62c.29-.43.57-.88.88-1.3a10.9,10.9,0,0,1-.62,1.45,5.09,5.09,0,0,1-.41.7,3.73,3.73,0,0,1-.3.29l-.28.27c-.38.35-.73.73-1.09,1.1S337.75,226.46,337.42,226.87Z"/>
            <path class="cls-18" d="M340.44,225.35c.31-.52.66-1,1-1.44s.63-.94.93-1.45a3.18,3.18,0,0,1-.61,1.67A4.06,4.06,0,0,1,340.44,225.35Z"/>
            <path class="cls-18" d="M341.84,225.56a3.37,3.37,0,0,0,1.39-.74,3.93,3.93,0,0,0,2.08-.82,21.85,21.85,0,0,0,1.79-2.4s-.89.89-1.53,1.62a2.07,2.07,0,0,1-2,.69l.22-.95S342.82,225.1,341.84,225.56Z"/>
            <path class="cls-18" d="M367,194.55c-.1.88-.16,1.58-1.64,3.89-1.66,2.61-11.3,13.58-13.38,15.61s-2,2.16-3.4,5.36c.58-.9,1.07-1.69,1.28-2.08.65-1.16,1.42-1.74,4.9-5.28s11.21-13,12-15.14A5.18,5.18,0,0,0,367,194.55Z"/>
            <path class="cls-18" d="M360.22,192l.63,1.2a4.48,4.48,0,0,0-1.75,1l-1.23-2.37Z"/>
            <path class="cls-15" d="M352.22,185.46c-1.59-3.63-1.9-9.53,0-12.63s5.12-4.22,5.86-3.85,2.49,5.21,4.29,7.45,6.7,8.5,6.83,9-4.23,4.79-12.05,7.92C356.22,193.75,352.22,185.46,352.22,185.46Z"/>
            <path class="cls-16" d="M357.64,188.28l1,2.48s-5.53-6-7.68-10.44a16.71,16.71,0,0,0,1.23,5.14s4,8.29,4.93,7.92c1.34-.54,2.57-1.11,3.7-1.68Z"/>
          </g>
          <g>
            <path class="cls-13" d="M349.68,150.42c1.42-3.47,3.16-7.15,1-9.08a10.39,10.39,0,0,1,3.73-.51,9.79,9.79,0,0,0-3.86-1s.51-5.87-.84-8.38c0,0,0,2.58-.71,3.61a8.79,8.79,0,0,0-5.6-4.19c-4.19-1.16-8.25-1.29-11.14,1.68s-6.3,6.76-1.41,12.49a22.79,22.79,0,0,0,14.1,7.6C347.69,153,349.68,150.42,349.68,150.42Z"/>
            <path class="cls-14" d="M334.74,139.41a15.85,15.85,0,0,0,3,.94c1,.22,2,.43,3.06.59s2.05.29,3.08.39a13,13,0,0,0,3.12,0,7.64,7.64,0,0,1-3.14.6,18,18,0,0,1-3.19-.23,18.51,18.51,0,0,1-3.1-.78A8.31,8.31,0,0,1,334.74,139.41Z"/>
            <path class="cls-14" d="M346,144.42a10.19,10.19,0,0,0,3-2.07s-1.92,1.36-5.86,1a34,34,0,0,1-6.58-1.15,38.42,38.42,0,0,0,5.56,2.77C343.63,145.4,346,144.42,346,144.42Z"/>
            <path class="cls-14" d="M332.32,141.81c-1.83-.91-2.36,0-2.36.78a8.08,8.08,0,0,0,.86,2.42Z"/>
            <path class="cls-14" d="M351.63,144.65a16.5,16.5,0,0,1-4.72,5.13s-1.27,1.71.16,2.41l.19.08a6.85,6.85,0,0,0,2.42-1.85A26,26,0,0,0,351.63,144.65Z"/>
            <path class="cls-17" d="M346.91,149.78s1.5-1.11,2.51,0-.91,6.28-3.18,5c0,0-3.77,4.79-6.38,6.14s-4.35.68-5.22-.29-3.79-4.93-4.06-9.13c-.09-1.5.34-4.45.34-5.07s-.39-3.1.15-3.82a2.05,2.05,0,0,1,1.25-.82,20.51,20.51,0,0,0,6,1.83,11.21,11.21,0,0,1-1.79-1.4,44.73,44.73,0,0,0,9.47,2.18,20.91,20.91,0,0,0,.15,3.19A12.86,12.86,0,0,0,346.91,149.78Z"/>
            <path class="cls-18" d="M348.93,151.19c-.13-.94-.93-1.13-1.57-.47a5.05,5.05,0,0,0-.79,3.13c.13.32,1.19.3,1.44-.36s-.34-1.06-.95-.87a2.36,2.36,0,0,1,.44-1.57c.53-.61,1-.38,1.13-.22A3.7,3.7,0,0,0,348.93,151.19Z"/>
            <g>
              <path class="cls-14" d="M342.7,147a7.87,7.87,0,0,0-.68-.6,4.5,4.5,0,0,0-.79-.48,2.5,2.5,0,0,0-.88-.31,2.08,2.08,0,0,0-.93.12v.05a4.28,4.28,0,0,0,.43.14l.42.12c.27.08.56.11.83.2a5.11,5.11,0,0,1,.8.35,7.37,7.37,0,0,1,.77.45Z"/>
              <path class="cls-14" d="M332.09,145.92a3.25,3.25,0,0,1,.84-.3,5.16,5.16,0,0,1,.87-.1c.3,0,.58,0,.87,0s.58,0,.91,0v0a2,2,0,0,0-.87-.37,3,3,0,0,0-1,0,4.59,4.59,0,0,0-.9.24,3.18,3.18,0,0,0-.8.47Z"/>
              <path class="cls-14" d="M339.71,148.7c0-.41.27-.72.51-.69s.4.37.36.78-.27.72-.51.7S339.67,149.11,339.71,148.7Z"/>
              <path class="cls-14" d="M333.29,148.19c0-.41.23-.73.43-.71s.33.37.29.78-.24.72-.43.7S333.25,148.59,333.29,148.19Z"/>
              <path class="cls-18" d="M337.4,152.67a1.82,1.82,0,0,1-2,0,.82.82,0,0,0,.46.74,1.25,1.25,0,0,0,.93,0C337.09,153.21,337.2,152.92,337.4,152.67Z"/>
              <g>
                <path class="cls-21" d="M339.46,155.07a52.51,52.51,0,0,1-5.61-.38,2.83,2.83,0,0,0,5.61.38Z"/>
                <path class="cls-22" d="M338.09,157a2.44,2.44,0,0,0-1.3,0,2,2,0,0,0-1.74-.17,2.43,2.43,0,0,0,3,.18Z"/>
                <path class="cls-15" d="M334.68,155.84a6.7,6.7,0,0,0,4.15-.16c0-.21.05-.41.08-.61-1.33,0-3.47-.19-4.62-.32A3.56,3.56,0,0,0,334.68,155.84Z"/>
              </g>
            </g>
          </g>
        </g>
        <g>
          <g class="cls-26">
            <path class="cls-27" d="M374.42,140.14a13.31,13.31,0,0,1,1-2.15,5,5,0,0,1,1.62-1.67,6.55,6.55,0,0,1,2.8-.91c.36,0,.87-.11,1.53-.17a14.36,14.36,0,0,0,2.05-.34,7,7,0,0,0,1.93-.73,2.52,2.52,0,0,0,1.17-1.33,1.9,1.9,0,0,0,.05-1.2,2.31,2.31,0,0,0-.64-1,3.11,3.11,0,0,0-1.12-.69,2.74,2.74,0,0,0-1.79-.13,4.2,4.2,0,0,0-1.41.68c-.41.3-.77.55-1.09.74l-3.65-5.35a8.43,8.43,0,0,1,3-2.12,9.54,9.54,0,0,1,3.63-.7,11.06,11.06,0,0,1,3.9.73,12.17,12.17,0,0,1,3,1.6,9.47,9.47,0,0,1,2.36,2.49,7.61,7.61,0,0,1,1.16,3.34,9,9,0,0,1-.63,4.14,10.8,10.8,0,0,1-.86,1.81,6.73,6.73,0,0,1-2.75,2.6,9.51,9.51,0,0,1-2,.75,18,18,0,0,1-2.94.47,16.22,16.22,0,0,0-2.54.37,1.86,1.86,0,0,0-1.4,1.17Zm-2.63,7.47.13-.36a3.39,3.39,0,0,1,4.35-2h0a3.38,3.38,0,0,1,2,4.35l-.13.36a3.38,3.38,0,0,1-4.35,2h0A3.38,3.38,0,0,1,371.79,147.61Z"/>
            <path class="cls-27" d="M363.27,140.8a10.42,10.42,0,0,1-.12-1.73,3.71,3.71,0,0,1,.45-1.64,4.8,4.8,0,0,1,1.46-1.57c.21-.16.52-.38.92-.65a12.22,12.22,0,0,0,1.19-.94,5.16,5.16,0,0,0,1-1.15,1.82,1.82,0,0,0,.27-1.27,1.3,1.3,0,0,0-.39-.78,1.79,1.79,0,0,0-.77-.44,2.37,2.37,0,0,0-1,0,2,2,0,0,0-1.19.55,3.09,3.09,0,0,0-.66.94c-.15.33-.3.62-.43.85l-4.22-2.13a6.18,6.18,0,0,1,1.18-2.41,6.83,6.83,0,0,1,2.07-1.73,8.14,8.14,0,0,1,2.74-.92,9.2,9.2,0,0,1,2.46,0,6.91,6.91,0,0,1,2.38.76,5.41,5.41,0,0,1,1.92,1.72,6.48,6.48,0,0,1,1.06,2.86,7.3,7.3,0,0,1,.09,1.46,5.16,5.16,0,0,1-.22,1.36,5.28,5.28,0,0,1-.61,1.27,6.6,6.6,0,0,1-1,1.19,12.41,12.41,0,0,1-1.71,1.34,11.07,11.07,0,0,0-1.49,1.14,1.36,1.36,0,0,0-.48,1.24Zm1,5.69,0-.28a2.46,2.46,0,0,1,2.06-2.81h0a2.47,2.47,0,0,1,2.81,2.07l.05.28a2.47,2.47,0,0,1-2.07,2.81h0A2.47,2.47,0,0,1,364.23,146.49Z"/>
          </g>
          <g>
            <path class="cls-5" d="M369.42,135.14a13.31,13.31,0,0,1,1-2.15,5,5,0,0,1,1.62-1.67,6.55,6.55,0,0,1,2.8-.91c.36,0,.87-.11,1.53-.17a14.36,14.36,0,0,0,2.05-.34,7,7,0,0,0,1.93-.73,2.52,2.52,0,0,0,1.17-1.33,1.9,1.9,0,0,0,.05-1.2,2.31,2.31,0,0,0-.64-1,3.11,3.11,0,0,0-1.12-.69,2.74,2.74,0,0,0-1.79-.13,4.2,4.2,0,0,0-1.41.68c-.41.3-.77.55-1.09.74l-3.65-5.35a8.43,8.43,0,0,1,3-2.12,9.54,9.54,0,0,1,3.63-.7,11.06,11.06,0,0,1,3.9.73,12.17,12.17,0,0,1,3,1.6,9.47,9.47,0,0,1,2.36,2.49,7.61,7.61,0,0,1,1.16,3.34,9,9,0,0,1-.63,4.14,10.8,10.8,0,0,1-.86,1.81,6.73,6.73,0,0,1-2.75,2.6,9.51,9.51,0,0,1-2,.75,18,18,0,0,1-2.94.47,16.22,16.22,0,0,0-2.54.37,1.86,1.86,0,0,0-1.4,1.17Zm-2.63,7.47.13-.36a3.39,3.39,0,0,1,4.35-2h0a3.38,3.38,0,0,1,2,4.35l-.13.36a3.38,3.38,0,0,1-4.35,2h0A3.38,3.38,0,0,1,366.79,142.61Z"/>
            <path class="cls-5" d="M358.27,135.8a10.42,10.42,0,0,1-.12-1.73,3.71,3.71,0,0,1,.45-1.64,4.8,4.8,0,0,1,1.46-1.57c.21-.16.52-.38.92-.65a12.22,12.22,0,0,0,1.19-.94,5.16,5.16,0,0,0,1-1.15,1.82,1.82,0,0,0,.27-1.27,1.3,1.3,0,0,0-.39-.78,1.79,1.79,0,0,0-.77-.44,2.37,2.37,0,0,0-1,0,2,2,0,0,0-1.19.55,3.09,3.09,0,0,0-.66.94c-.15.33-.3.62-.43.85l-4.22-2.13a6.18,6.18,0,0,1,1.18-2.41,6.83,6.83,0,0,1,2.07-1.73,8.14,8.14,0,0,1,2.74-.92,9.2,9.2,0,0,1,2.46,0,6.91,6.91,0,0,1,2.38.76,5.41,5.41,0,0,1,1.92,1.72,6.48,6.48,0,0,1,1.06,2.86,7.3,7.3,0,0,1,.09,1.46,5.16,5.16,0,0,1-.22,1.36,5.28,5.28,0,0,1-.61,1.27,6.6,6.6,0,0,1-1,1.19,12.41,12.41,0,0,1-1.71,1.34,11.07,11.07,0,0,0-1.49,1.14,1.36,1.36,0,0,0-.48,1.24Zm1,5.69,0-.28a2.46,2.46,0,0,1,2.06-2.81h0a2.47,2.47,0,0,1,2.81,2.07l.05.28a2.47,2.47,0,0,1-2.07,2.81h0A2.47,2.47,0,0,1,359.23,141.49Z"/>
          </g>
        </g>
      </g>
      <g>
        <g>
          <rect class="cls-28" x="86.2" y="224.32" width="58.79" height="35.21" rx="6.85"/>
          <path class="cls-29" d="M141.82,259.53H89.37a3.17,3.17,0,0,1-3.17-3.17l29.4-19.51L145,256.36A3.17,3.17,0,0,1,141.82,259.53Z"/>
          <path class="cls-30" d="M141.82,224.32H89.37a3.17,3.17,0,0,0-3.17,3.17L115.6,247,145,227.49A3.17,3.17,0,0,0,141.82,224.32Z"/>
        </g>
        <g>
          <path class="cls-28" d="M380.62,53.17H263.3a6.62,6.62,0,0,0-6.62,6.62V87.23a6.61,6.61,0,0,0,6.62,6.61h11.78l-4,9.92,13.35-9.92h96.2a6.61,6.61,0,0,0,6.62-6.61V59.79A6.62,6.62,0,0,0,380.62,53.17Z"/>
          <path class="cls-15" d="M372.88,68.11H283.46a1.55,1.55,0,0,1,0-3.09h89.42a1.55,1.55,0,0,1,0,3.09Zm1.54,5.4A1.54,1.54,0,0,0,372.88,72H271a1.55,1.55,0,0,0,0,3.09H372.88A1.54,1.54,0,0,0,374.42,73.51Zm-44.7,6.94a1.56,1.56,0,0,0-1.55-1.55H271a1.55,1.55,0,0,0,0,3.1h57.13A1.56,1.56,0,0,0,329.72,80.45Z"/>
        </g>
      </g>
    </g>
  </g>
</svg>
