<svg id="Capa_1" data-name="Capa 1" xmlns="http://www.w3.org/2000/svg" xmlns:xlink="http://www.w3.org/1999/xlink" width="400" height="400" viewBox="0 0 400 400">
  <defs>
    <style>
      .cls-1 {
        fill: #d8d5ed;
      }

      .cls-2 {
        fill: #cfccd9;
      }

      .cls-3 {
        fill: #9f99b3;
      }

      .cls-10, .cls-11, .cls-12, .cls-13, .cls-14, .cls-15, .cls-16, .cls-17, .cls-18, .cls-19, .cls-20, .cls-21, .cls-22, .cls-23, .cls-24, .cls-25, .cls-26, .cls-27, .cls-28, .cls-29, .cls-3, .cls-30, .cls-31, .cls-32, .cls-33, .cls-34, .cls-35, .cls-36, .cls-37, .cls-38, .cls-39, .cls-4, .cls-40, .cls-41, .cls-42, .cls-43, .cls-44, .cls-45, .cls-46, .cls-47, .cls-48, .cls-49, .cls-5, .cls-50, .cls-51, .cls-52, .cls-53, .cls-54, .cls-55, .cls-56, .cls-57, .cls-58, .cls-59, .cls-6, .cls-60, .cls-61, .cls-62, .cls-63, .cls-64, .cls-65, .cls-66, .cls-67, .cls-7, .cls-8, .cls-9 {
        fill-rule: evenodd;
      }

      .cls-4 {
        fill: #1e1e1f;
      }

      .cls-5 {
        fill: #ebac81;
      }

      .cls-6 {
        fill: #1f1753;
      }

      .cls-7 {
        fill: #147689;
      }

      .cls-8 {
        fill: #a29f9d;
      }

      .cls-9 {
        fill: #c3c1bf;
      }

      .cls-10 {
        fill: #8b8886;
      }

      .cls-11 {
        fill: #534b48;
      }

      .cls-12 {
        fill: #b8cce2;
      }

      .cls-13 {
        fill: #3a424d;
      }

      .cls-14 {
        fill: #665c59;
      }

      .cls-15 {
        fill: url(#Degradado_sin_nombre_15);
      }

      .cls-16 {
        fill: #032f4c;
      }

      .cls-17 {
        fill: #43628a;
      }

      .cls-18 {
        fill: #7289a7;
      }

      .cls-19 {
        fill: #b9b7b5;
      }

      .cls-20 {
        fill: #d0cecc;
      }

      .cls-21 {
        fill: #afadab;
      }

      .cls-22 {
        fill: url(#Degradado_sin_nombre_15-2);
      }

      .cls-23 {
        fill: url(#Degradado_sin_nombre_15-3);
      }

      .cls-24 {
        fill: url(#Degradado_sin_nombre_15-4);
      }

      .cls-25 {
        fill: url(#linear-gradient);
      }

      .cls-26 {
        fill: #e29e76;
      }

      .cls-27, .cls-57, .cls-58, .cls-59 {
        fill: #fff;
      }

      .cls-28 {
        fill: #38251b;
      }

      .cls-29 {
        fill: #422d22;
      }

      .cls-30 {
        fill: #e59a6f;
      }

      .cls-31 {
        fill: #a56f48;
      }

      .cls-32 {
        fill: #b2d0ec;
      }

      .cls-33 {
        fill: #cfe5ff;
      }

      .cls-34 {
        fill: #070e18;
      }

      .cls-35 {
        fill: #eff3ff;
      }

      .cls-36 {
        fill: url(#Degradado_sin_nombre_15-5);
      }

      .cls-37 {
        fill: #0071b7;
      }

      .cls-38 {
        fill: url(#Degradado_sin_nombre_15-6);
      }

      .cls-39 {
        fill: url(#Degradado_sin_nombre_15-7);
      }

      .cls-40 {
        fill: #97aec6;
      }

      .cls-41 {
        fill: #a1b0c4;
      }

      .cls-42 {
        fill: #003454;
      }

      .cls-43, .cls-56 {
        fill: #e5eeff;
      }

      .cls-44 {
        fill: #3f3466;
      }

      .cls-45 {
        fill: #f0a266;
      }

      .cls-46, .cls-55 {
        fill: #cddeef;
      }

      .cls-47 {
        fill: #ed8433;
      }

      .cls-48 {
        fill: #d59069;
      }

      .cls-49 {
        fill: url(#linear-gradient-2);
      }

      .cls-50 {
        fill: #091320;
      }

      .cls-51 {
        fill: #ffb800;
      }

      .cls-52 {
        fill: #1984a0;
      }

      .cls-53 {
        fill: #efae00;
      }

      .cls-54 {
        fill: url(#linear-gradient-3);
      }

      .cls-55, .cls-56, .cls-57 {
        opacity: 0.5;
      }

      .cls-58 {
        opacity: 0.4;
      }

      .cls-59 {
        opacity: 0.3;
      }

      .cls-60 {
        fill: #080120;
      }

      .cls-61 {
        fill: url(#linear-gradient-4);
      }

      .cls-62 {
        fill: #48202d;
      }

      .cls-63 {
        fill: url(#Degradado_sin_nombre_15-8);
      }

      .cls-64 {
        fill: url(#Degradado_sin_nombre_15-9);
      }

      .cls-65 {
        fill: url(#Degradado_sin_nombre_15-10);
      }

      .cls-66 {
        fill: #401c28;
      }

      .cls-67 {
        fill: #e78280;
      }
    </style>
    <linearGradient id="Degradado_sin_nombre_15" data-name="Degradado sin nombre 15" x1="223.89" y1="316.06" x2="247.38" y2="316.68" gradientUnits="userSpaceOnUse">
      <stop offset="0" stop-color="#1f1753"/>
      <stop offset="1" stop-color="#2f237d"/>
    </linearGradient>
    <linearGradient id="Degradado_sin_nombre_15-2" x1="274.37" y1="292.06" x2="295.48" y2="292.06" xlink:href="#Degradado_sin_nombre_15"/>
    <linearGradient id="Degradado_sin_nombre_15-3" x1="314.35" y1="281.65" x2="332.75" y2="281.65" xlink:href="#Degradado_sin_nombre_15"/>
    <linearGradient id="Degradado_sin_nombre_15-4" x1="325.03" y1="256.16" x2="305.74" y2="261.51" xlink:href="#Degradado_sin_nombre_15"/>
    <linearGradient id="linear-gradient" x1="328.37" y1="228.6" x2="317.14" y2="215.3" gradientUnits="userSpaceOnUse">
      <stop offset="0" stop-color="#98afc7"/>
      <stop offset="1" stop-color="#b9cde3"/>
    </linearGradient>
    <linearGradient id="Degradado_sin_nombre_15-5" x1="282.8" y1="233.59" x2="324.22" y2="233.59" xlink:href="#Degradado_sin_nombre_15"/>
    <linearGradient id="Degradado_sin_nombre_15-6" x1="283.91" y1="234.09" x2="318.5" y2="234.09" xlink:href="#Degradado_sin_nombre_15"/>
    <linearGradient id="Degradado_sin_nombre_15-7" x1="272.62" y1="228.07" x2="307.21" y2="228.07" xlink:href="#Degradado_sin_nombre_15"/>
    <linearGradient id="linear-gradient-2" x1="339.06" y1="237" x2="346.76" y2="247.84" gradientUnits="userSpaceOnUse">
      <stop offset="0" stop-color="#6a3144"/>
      <stop offset="1" stop-color="#381823"/>
    </linearGradient>
    <linearGradient id="linear-gradient-3" x1="233.41" y1="250.69" x2="226.12" y2="290.48" xlink:href="#linear-gradient-2"/>
    <linearGradient id="linear-gradient-4" x1="100.76" y1="222.54" x2="107.72" y2="242.19" xlink:href="#linear-gradient-2"/>
    <linearGradient id="Degradado_sin_nombre_15-8" x1="94.65" y1="342.56" x2="101.98" y2="342.56" xlink:href="#Degradado_sin_nombre_15"/>
    <linearGradient id="Degradado_sin_nombre_15-9" x1="105.71" y1="337.06" x2="116.66" y2="337.06" xlink:href="#Degradado_sin_nombre_15"/>
    <linearGradient id="Degradado_sin_nombre_15-10" x1="97.73" y1="295.76" x2="107.48" y2="296.71" xlink:href="#Degradado_sin_nombre_15"/>
  </defs>
  <path class="cls-1" d="M200,81.94v-70C96.13,11.92,11.92,96.13,11.92,200S96.13,388.08,200,388.08v-70a118.06,118.06,0,0,1,0-236.12Z"/>
  <path class="cls-2" d="M200,388.08c103.87,0,188.08-84.21,188.08-188.08S303.87,11.92,200,11.92v70a118.06,118.06,0,0,1,0,236.12Z"/>
  <g>
    <path class="cls-3" d="M269.42,357.16l-31.34-17.85c-3.42-1.57-8.31-2.81-11.79-1-3.17,1.65-18.66,10.86-21,12.18-1.75,1-7.84,4.65-4,6.71,11.16,6.07,22.21,12.9,33.54,19.06a15.9,15.9,0,0,0,8.57,1.32,22.68,22.68,0,0,0,9.29-2.77c1.88-1.09,14-8,15.82-9.06,2.45-1.43,3.76-3.13,3.89-4.69S271.52,358.11,269.42,357.16Z"/>
    <polygon class="cls-3" points="181.31 317.02 279.9 373.72 383.17 314.21 284.57 257.5 181.31 317.02"/>
    <g>
      <g>
        <path class="cls-4" d="M262.72,345.53c-.13-.69-2.49-.43-3.28-.4-.42,0-1.58-.08-1.87-.44-.53-.66-1.4,1.05-2,1,.82.25,2.75.05,3.42.19a3.48,3.48,0,0,0,1.58.08Z"/>
        <path class="cls-5" d="M258.05,345c.39.64,1.69.19,2.53.5,1.86.7-2.65,3.22-4.05,3.28-3,.14-.83-3.94-4.47-6.73-1.68-1.29-4-3-1.74-6.07,1.2-1.65,1.31-2.85,1.32-4.93,0-4.06-1.43-10.1-.87-13.76.32-2.09,2.35-14.54,2.55-14.72a6,6,0,0,1,5.19,1.71c1.77,1.8,1.75,4.79,1.69,8.12-.12,6.55-1.24,9.17-2.5,15.18S255.66,341.1,258.05,345Z"/>
        <path class="cls-6" d="M250.4,335.73a4.74,4.74,0,0,0-1.68,6,42.44,42.44,0,0,1,.85,8.65l.67.29.58-.28.31-6.61c1.17,1.54.9,3.49,1.62,4.27a18.67,18.67,0,0,0,3.06,1.92,8.25,8.25,0,0,0,2.43-.73c1.15-.54,5-2.92,4.43-3.85-.17-.27-.52-.27-.88-.31-.85-.09-2,.18-2.29.08a.65.65,0,0,1,.4.37c.24.55-2.31,1.44-2.63,1.16C254.29,343.91,254.53,335.79,250.4,335.73Z"/>
        <path class="cls-7" d="M269.47,349.14c-.13-.7-2.49-.44-3.29-.4-.41,0-1.57-.09-1.86-.44-.53-.66-1.4,1.05-2,1,.82.25,2.75.05,3.42.19a3.48,3.48,0,0,0,1.58.08Z"/>
        <path class="cls-5" d="M264.8,348.58c.39.64,1.68.19,2.53.5,1.86.7-2.65,3.22-4.05,3.28-3,.14-.83-3.94-4.47-6.73-1.68-1.29-4-3-1.74-6.07,1.83-2.5-1-15.06-.41-19.19.31-2.09,3.21-14,3.41-14.21a6,6,0,0,1,5.19,1.7c1.77,1.8,1.75,4.79,1.69,8.12-.17,9-3.94,17-3.7,26A13.45,13.45,0,0,0,264.8,348.58Z"/>
        <path class="cls-6" d="M257.15,339.33a4.76,4.76,0,0,0-1.69,6.05,41.8,41.8,0,0,1,.86,8.65l.67.29.58-.28.31-6.61c1.17,1.54.9,3.49,1.62,4.27a18.67,18.67,0,0,0,3.06,1.92,8,8,0,0,0,2.43-.73c1.15-.54,5-2.92,4.42-3.85-.17-.27-.52-.27-.87-.31-.85-.09-2,.18-2.29.08a.65.65,0,0,1,.4.37c.24.55-2.32,1.45-2.63,1.16C261,347.51,261.28,339.4,257.15,339.33Z"/>
      </g>
      <g>
        <g>
          <path class="cls-8" d="M238.14,337.48l-1.13-.65a6.16,6.16,0,0,1-.48,2.24,7,7,0,0,1-2.72,3.3l1.13.66a6,6,0,0,0,1.74-1.54,8.06,8.06,0,0,0,1-1.82A5.51,5.51,0,0,0,238.14,337.48Z"/>
          <polygon class="cls-9" points="233.81 342.37 215.65 352.89 216.75 353.53 234.94 343.03 233.81 342.37"/>
          <polygon class="cls-8" points="237.85 313.63 236.72 312.98 237.01 336.82 238.14 337.48 237.85 313.63"/>
          <path class="cls-10" d="M238,312.24a14.08,14.08,0,0,0-.19-1.65,11.66,11.66,0,0,0-2.37-5.48,8.36,8.36,0,0,0-2.41-2.1l-1.13-.66c2.49,1.45,4.06,4,4.61,7.62a13.46,13.46,0,0,1,.17,1.61c0,.34,0,1.34,0,1.4l1.13.65A13,13,0,0,0,238,312.24Z"/>
          <path class="cls-8" d="M233.48,302.32h0c-2.73-1.59-4.39-2.19-7.65-2a23.91,23.91,0,0,0-9.87,3.33c-.56.33-1.12.67-1.68,1l1.13.66c.56-.37,1.12-.72,1.68-1a30.73,30.73,0,0,1,3.4-1.69,21,21,0,0,1,5.73-1.54,13.65,13.65,0,0,1,3.94.06,9.93,9.93,0,0,1,3,.94Z"/>
          <path class="cls-11" d="M238.42,313.73c0-.08,0-1.6,0-2.11s-.14-1.22-.24-1.79c-.7-4-2.65-6.73-5.73-8-4-1.7-9.67-.74-15.36,2.55-.56.32-1.12.67-1.68,1l0,.63c.55-.36,1.1-.7,1.64-1,5.56-3.21,11.06-4.14,15-2.49,3.06,1.3,5,4.09,5.6,8.12a13.46,13.46,0,0,1,.17,1.61c0,.34,0,1.34,0,1.39l.29,23.85a5.78,5.78,0,0,1-.47,2.21,7,7,0,0,1-2.73,3.34l-18.19,10.5v.65l18.18-10.5a8.29,8.29,0,0,0,3.77-6.53Z"/>
          <path class="cls-12" d="M233.44,303.36l-2.23-1.2a8.84,8.84,0,0,1,3.68,4.28l2.12,1.23A8.73,8.73,0,0,0,233.44,303.36Z"/>
          <polygon class="cls-12" points="220.8 300.71 220.67 301.39 222.18 302.2 222.08 302.72 222.73 303.01 223 301.93 220.8 300.71"/>
          <path class="cls-12" d="M230.2,301.31a9.64,9.64,0,0,1,3.73,1.05h0a19.38,19.38,0,0,0-4.16-2.11,11.91,11.91,0,0,0-3.44-.48,17.38,17.38,0,0,0-4.8.72l-.73.22,2.12,1.23A18.45,18.45,0,0,1,230.2,301.31Z"/>
          <path class="cls-13" d="M222.92,301.94l-.19,1.07c6.77-2.16,12.11-.42,14.28,4.66l.79-.81C235.53,301.53,230,299.69,222.92,301.94Z"/>
          <path class="cls-14" d="M214.91,354.61a1.79,1.79,0,0,0-1.06,1.48v.65a1.79,1.79,0,0,1,1.06-1.48l.05-.4Z"/>
          <polygon class="cls-11" points="225.98 348.22 214.91 354.61 214.91 355.26 225.98 348.87 225.98 348.22"/>
          <path class="cls-14" d="M213.69,358.82l.07,0v-.66a3.87,3.87,0,0,1-.9-.74,2.09,2.09,0,0,1-.4-.55l0-.07a1.9,1.9,0,0,1-.16-.75,5.61,5.61,0,0,0,0,.82,2.14,2.14,0,0,0,.46,1.08A3.85,3.85,0,0,0,213.69,358.82Z"/>
          <polygon class="cls-10" points="231.7 368.57 213.75 358.2 213.76 358.86 231.7 369.22 231.7 368.57"/>
          <polygon class="cls-11" points="250.11 362.18 239.04 368.57 239.04 369.23 250.11 362.83 250.11 362.18"/>
          <path class="cls-14" d="M239,369.22v-.65a6.35,6.35,0,0,1-1.94.7,8.77,8.77,0,0,1-3.23.05,6.66,6.66,0,0,1-2.17-.75v.65a6.76,6.76,0,0,0,2.2.76,8.84,8.84,0,0,0,3.28-.07A6.13,6.13,0,0,0,239,369.22Z"/>
          <path class="cls-9" d="M249,361.53l-11.07,6.38a5.59,5.59,0,0,1-5.07,0l-18-10.37c-1.39-.81-1.38-2.12,0-2.93L226,348.22l-1.13-.66L213.78,354c-2,1.17-2,3.08,0,4.25l17.95,10.37a8.11,8.11,0,0,0,7.34,0l11.07-6.39Z"/>
        </g>
        <g>
          <path class="cls-12" d="M264.69,319.77a7.47,7.47,0,0,0-1.81-1.53c-4-2.93-11.79-7.29-16.49-9.85-1.8-.95-3.54-1.93-5.39-2.77l-.16-.07c-1.34-.6-1.55-.82-2.81-.26-.48.21-1,.48-1.48.72-3.8,1.88-8.38,4.56-12,6.82l-8.05,5a23.19,23.19,0,0,1-3.84.9l-.69-.4a2.5,2.5,0,0,0,.21,1.82,10.25,10.25,0,0,0,2.61,2.19,184.43,184.43,0,0,0,21.15,12.29,9.69,9.69,0,0,0,2.37.85,2.67,2.67,0,0,0,1.42-.12l1-.42c1.45-1.15,11.08-7.33,15.94-10.1l1-.57,6.32-2.75a1,1,0,0,0,.27-.15,1.65,1.65,0,0,0,.39-.48A1.15,1.15,0,0,0,264.69,319.77Z"/>
          <path class="cls-13" d="M264.11,319.82c-3.76,1.86-7,3.58-10.11,5.39-3.93,2.27-7.76,4.68-12.48,7.64l-.26.16c-1.47.86-2.21.69-2.43.33a2.4,2.4,0,0,1,.35-1.81l-1.21-.38c-.78,1.57-.85,2.86-.42,3.63.51.94,1.85.94,3.73-.14l.3-.19c4.7-2.95,8.5-5.34,12.41-7.6,3.12-1.8,6.27-3.51,10.07-5.37a1.58,1.58,0,0,0,.71-1.16C264.79,319.85,264.5,319.63,264.11,319.82Z"/>
        </g>
      </g>
      <g>
        <path class="cls-6" d="M258.08,312.05c2-1.11,2.45-3.55,1.67-5.78a26.19,26.19,0,0,0-7.16-3.85c-.26,0-.52.06-.78.11-4.92.86-16.91,5.93-21.55,9.24l-5.81-6.53c-.92,4.2-4.92,8.33-4,13,.56,2.88.92,3.75,3.41,5.21a18.58,18.58,0,0,0,4.8,2.07,9.56,9.56,0,0,0,6.09-.79C240.5,322,254.69,314,258.08,312.05Z"/>
        <path class="cls-15" d="M264.84,315.9h0a8.62,8.62,0,0,0-3.26-8.18c-.51-.44-1.16-.95-1.89-1.47-.37,0-.75.08-1.14.14-3.15.55-9.14,2.84-14.25,5.28-.07-.25-.16-.51-.25-.77-.9-2.48-2.13-4.05-2.93-6.62-4.72,5.06-10,1.07-16.11-2.33a9.09,9.09,0,0,1-.82,2.68,22.59,22.59,0,0,0-3.74,10.86c-.24,5.46,1.48,8.65,5.71,11.86,5.49,4.16,10.83,4,16.94.56C249.5,324.67,261.71,317.67,264.84,315.9Z"/>
      </g>
    </g>
    <g>
      <g>
        <g>
          <path class="cls-16" d="M307.65,331.89c-1.42-.2-4.87-1.73-9.36-2.33-1.83-.24-4.37.24-3.55,2.71,1.09,3.3,4.28,5.72,7.41,6.89,1.11.41,2.5.51,3.83,1.1,1,.46,1.26,1.23,2,1.74a5.86,5.86,0,0,0,5,.59,3.21,3.21,0,0,0,2.64-2.91,13.56,13.56,0,0,0,0-5.76,1.81,1.81,0,0,0-.25-.59c-.27-1.85.2-5.24.58-9.11L307,322C307.62,326.37,308.21,329.47,307.65,331.89Z"/>
          <path class="cls-17" d="M315.65,333.18c.31-2.05,1.55-8.41,1.68-9.88.72-8.28,1-17.81-1.35-22.89a21.25,21.25,0,0,1-2-7.7c-2.66-5.84-13.35-3.3-12.67-.38,1,5.4,2.55,10,3.47,15.57a160,160,0,0,1,2.36,23.68C308.71,335,314.36,334.7,315.65,333.18Z"/>
        </g>
        <g>
          <path class="cls-16" d="M300.21,339.2c-1.42-.2-4.87-1.73-9.37-2.33-1.82-.24-4.36.23-3.54,2.7,1.09,3.31,4.28,5.73,7.41,6.89,1.11.42,2.5.51,3.83,1.11,1,.46,1.26,1.22,2,1.74a5.88,5.88,0,0,0,5,.58,3.2,3.2,0,0,0,2.64-2.91,13.68,13.68,0,0,0,0-5.75,2,2,0,0,0-.25-.6c-.27-1.84.2-5.23.58-9.11l-8.92-2.24C300.18,333.68,300.77,336.78,300.21,339.2Z"/>
          <path class="cls-18" d="M308.55,341.8c1.37-9,3.58-26.38,0-34.08-.25-.54-1.17-3.64-2.48-8.15L293,300c.9,5.9,3.23,11.63,4.15,17.67.57,3.75.95,7.28,1.29,9.86.2,1.49.65,11.45.85,12.17C299.28,342.84,307.76,344.41,308.55,341.8Z"/>
        </g>
      </g>
      <g>
        <path class="cls-12" d="M301.65,311.76a8.55,8.55,0,0,1,2.07-1.76c4.57-3.34,13.45-8.31,18.82-11.24,2-1.08,4-2.2,6.15-3.16l.19-.08c1.52-.68,1.76-.93,3.2-.3.55.25,1.13.55,1.68.83,4.34,2.14,9.58,5.21,13.74,7.78l9.19,5.7a26.23,26.23,0,0,0,4.38,1l.79-.45a2.82,2.82,0,0,1-.25,2.07,11.83,11.83,0,0,1-3,2.5,210.89,210.89,0,0,1-24.15,14,10.43,10.43,0,0,1-2.71,1,3.12,3.12,0,0,1-1.62-.13l-1.17-.48c-1.64-1.31-12.64-8.37-18.19-11.53l-1.17-.65-7.2-3.13a1.08,1.08,0,0,1-.31-.18,1.67,1.67,0,0,1-.45-.54A1.33,1.33,0,0,1,301.65,311.76Z"/>
        <path class="cls-13" d="M302.31,311.82c4.3,2.12,8,4.08,11.55,6.15,4.48,2.58,8.85,5.33,14.24,8.71l.29.19c1.68,1,2.52.79,2.77.37a2.65,2.65,0,0,0-.39-2.06l1.38-.43c.89,1.79,1,3.26.48,4.14-.59,1.08-2.11,1.07-4.26-.16-.11-.08-.23-.15-.35-.22-5.36-3.37-9.7-6.1-14.16-8.67-3.56-2-7.16-4-11.49-6.13a1.8,1.8,0,0,1-.81-1.33C301.53,311.85,301.87,311.6,302.31,311.82Z"/>
      </g>
      <g>
        <path class="cls-17" d="M306.31,302.21c-3.13-1.76-9.33-6.36-6.47-9.09,2.91-6.92,12.64-3.9,16.34-2.82,5.62,1.65,20.08,5.3,25.61,11.19l9.66-9.73c1.1,5,3.11,11.86,2,17.45-.66,3.43-1.09,4.47-4.05,6.21a22.69,22.69,0,0,1-5.72,2.47,11.39,11.39,0,0,1-7.25-.95C329.58,313.65,310.34,304.49,306.31,302.21Z"/>
        <path class="cls-18" d="M295.39,304.63c-3.12-1.77-3.1-6.34-.57-9.38,1.48-1.77,4.35-2.6,8.05-2,5.85,1,25.11,8.84,30.63,12.79l11.56-11.79a58.37,58.37,0,0,1,.3,19.51c-.66,3.43-1.26,4.47-4.22,6.21a22.69,22.69,0,0,1-5.72,2.47,11.43,11.43,0,0,1-7.26-1C321.3,318.24,299.43,306.9,295.39,304.63Z"/>
      </g>
    </g>
    <g>
      <g>
        <g>
          <g>
            <polygon class="cls-9" points="318.77 267 302.1 276.62 302.41 276.84 303.14 277.18 319.34 267.94 319.8 267.56 318.77 267"/>
            <path class="cls-19" d="M303.14,277.18l-1-.56a2.39,2.39,0,0,1-2.22.09C301.21,277.67,301.89,277.91,303.14,277.18Z"/>
            <path class="cls-9" d="M299.66,275.8l-1.11-.66a2.36,2.36,0,0,0,.95,2.2l1.17.68A2.42,2.42,0,0,1,299.66,275.8Z"/>
            <path class="cls-20" d="M303.66,237.49s0-.08.06-.11h0a30.86,30.86,0,0,1,5.54-7.89l.14-.14A28,28,0,0,1,315,225a24.84,24.84,0,0,1,5.24-2.47l0-.1-.9-.5-.1,0a26.71,26.71,0,0,0-5.06,2.27,29.42,29.42,0,0,0-11.83,13.21c-.07.17-.15.33-.23.5a45.41,45.41,0,0,0-3.45,13.39,29.07,29.07,0,0,0-.13,3.73l0,20.06,1.11.66.17-21.22A40.17,40.17,0,0,1,303.66,237.49Z"/>
            <path class="cls-11" d="M307.12,231.5a27.63,27.63,0,0,1,7.87-6.81,24.54,24.54,0,0,1,5.24-2.24l0,.84a26.62,26.62,0,0,0-12.68,8.86,35.27,35.27,0,0,0-6.71,15.48,41.49,41.49,0,0,0-.75,8.69l.05,19.18c0,1.86,1.33,2.62,3,1.68l16.66-9.62v.6l-16.66,9.62c-1.91,1.1-3.48.22-3.48-2q-.06-9.68-.12-19.38a43.62,43.62,0,0,1,.78-8.91,36.34,36.34,0,0,1,6.8-16Z"/>
            <path class="cls-14" d="M343.32,278.23a2.64,2.64,0,0,1-1.38,1.93l-.13.35.13.25.06,0a3.87,3.87,0,0,0,.83-.68,2.62,2.62,0,0,0,.37-.6v0a0,0,0,0,0,0,0,.83.83,0,0,0,0-.12,2,2,0,0,0,.06-.54Z"/>
            <path class="cls-20" d="M340.88,276.87v.6a2.06,2.06,0,0,1,.84.81,1.2,1.2,0,0,1,.13.55v-.6A1.64,1.64,0,0,0,340.88,276.87Z"/>
            <path class="cls-8" d="M322.28,267.51a4.86,4.86,0,0,1,2.25.55l.22-.16-.22-.43a4.78,4.78,0,0,0-4.64,0v.59l.3-.15A5,5,0,0,1,322.28,267.51Z"/>
            <polygon class="cls-21" points="340.88 276.87 340.88 277.47 324.53 268.06 324.53 267.47 340.88 276.87"/>
            <path class="cls-9" d="M341.92,276.27l-16.35-9.41a7.44,7.44,0,0,0-6.72,0l-10,5.89,1,.57,10.08-5.85a5.07,5.07,0,0,1,4.64,0l16.35,9.4c1.29.74,1.3,1.95,0,2.69l-10.07,5.86,1,.6,10.07-5.86C343.79,279.09,343.78,277.34,341.92,276.27Z"/>
            <polygon class="cls-11" points="331.87 286.02 331.87 286.62 341.94 280.76 341.94 280.17 331.87 286.02"/>
            <path class="cls-14" d="M322.28,267.51v-.64a4.78,4.78,0,0,0-2.4.6l-.12.37.12.22.3-.15A5,5,0,0,1,322.28,267.51Z"/>
            <polygon class="cls-11" points="309.81 273.32 309.81 273.92 319.89 268.06 319.89 267.47 309.81 273.32"/>
            <polygon class="cls-9" points="340.67 279.75 324 289.37 324.31 289.59 325.04 289.92 341.24 280.69 341.7 280.3 340.67 279.75"/>
            <path class="cls-19" d="M325,289.92l-1-.55a2.38,2.38,0,0,1-2.23.08C323.11,290.41,323.79,290.66,325,289.92Z"/>
          </g>
          <g>
            <path class="cls-12" d="M315.47,224.73c.24-.14.64-.23.87-.35l0,1.05-.68.38c-4.54,2.62-10.27,7.77-13.22,17.71l-.83.08a28.11,28.11,0,0,1,13.88-18.87Z"/>
            <path class="cls-13" d="M301.59,243.6l-1.79-1a35.55,35.55,0,0,1,5-10.48,29.82,29.82,0,0,1,3.74-4.35,28.12,28.12,0,0,1,6-4.36l.06,0,1.79,1C308.78,228.45,304,235.51,301.59,243.6Z"/>
          </g>
        </g>
        <g>
          <path class="cls-13" d="M315.55,262.83c.09.05.22.11.31.17a5.69,5.69,0,0,0,1.3.49,1.58,1.58,0,0,0,1.17-.12A186.82,186.82,0,0,1,339.59,250c0-1.07-.77-1.35-1.48-1.94l-20.32-11.5-.17.08c-.5-.28-1.35-.65-1.64-.52h0l-2.8,1.48a170,170,0,0,0-17.79,10.37,2.23,2.23,0,0,0-.89.86,2.12,2.12,0,0,0-.18.62,1.33,1.33,0,0,0,.33.91,4.85,4.85,0,0,0,1.16,1C301.67,254.87,309.22,259.14,315.55,262.83Z"/>
          <path class="cls-12" d="M316,236.08c.19-.1.7.08.87.14a8.77,8.77,0,0,1,1,.5L337.27,248c.42.29,1.86,1.26,1.92,1.74a5.15,5.15,0,0,0,2.22-2.21.73.73,0,0,0,.11-.51c-.17-.65-1.68-1.09-2.1-1.34l-19.67-11.36c-.35-.21-1.61-.35-1.6-.73h0C318.15,234.6,316.62,235.69,316,236.08Z"/>
          <path class="cls-13" d="M318.16,234l20.9,12.15a5.33,5.33,0,0,0,.57.31,6.65,6.65,0,0,0,.77.34c.23.09,1.05.6,1.28.46,0-2.7-2-4.21-2.13-7.42.55-12.55,3.12-20.38,6.5-32.14.21-.6-1.44-2-1.86-2.21l-19.47-11.32c-1.43-.83-3-1.16-3.35.93-1.06,4.89-2.29,9.73-3.34,14.63C316.11,218.73,313.59,225.53,318.16,234Z"/>
          <path class="cls-12" d="M345.28,207.52c-1.24,1.63-4.69,18.41-5.18,21.19A69.66,69.66,0,0,0,339,239.46a11.06,11.06,0,0,0,1.21,5.39c.3.49,1.16,1.52,1.26,1.74a1.05,1.05,0,0,1,.09.44c0,.51-.36.87-.95,1.4a16.19,16.19,0,0,1-3.38,2c-3.58,2-8,4.7-9.64,5.63-2.88,1.66-5.82,3.49-9.26,5.76a1.43,1.43,0,0,0-.6,1.15c0,.37.3.51.7.29a.1.1,0,0,1-.05.1h0c3.47-2.3,6.43-4.12,9.36-5.8,3.43-1.94,6.8-4.16,10.34-5.84A11.24,11.24,0,0,0,342,249a3.32,3.32,0,0,0-.08-4.54,8.29,8.29,0,0,1-1.48-3.94,41.3,41.3,0,0,1,.63-9.42c.65-4.29,1.67-9,2.64-13.18.48-2.08.95-4,1.36-5.7s.75-3.1,1-4.17c.08-.39-.07-.59-.29-.64A.44.44,0,0,0,345.28,207.52Z"/>
        </g>
      </g>
      <g>
        <path class="cls-22" d="M284.9,284.89c-.51,2.07-.63,3.14-1.44,4.37-1.63,2.44-4.08,4.23-7.66,6.95-1.7,1.29-2,2.47-.23,3.49,1.42.8,4.79,0,6.9-.56,3.95-1.07,5.48-3.51,6.82-4.18l1,.2c.84,0,4.11-1.46,4.73-2.35a23.56,23.56,0,0,0,.42-3.1c0-3.38-.51-3-1.5-5.62C290.93,284.41,288,284.68,284.9,284.89Z"/>
        <path class="cls-6" d="M312.7,229.35a8.78,8.78,0,0,0-.89,1c-.35.34-.75.74-1.21,1.21v0c-7,3.87-18,15.43-23.65,20.79a7.55,7.55,0,0,0-1,1.14,4.6,4.6,0,0,0-1,2.65c.61,10.56-.21,20-.08,30.24.72,1.28,3.19,1.91,5.54,1.61,1.61-.2,3.56-.7,4.45-1.86-.3-7.16,4.38-20.38,1.31-26.3,6.29-3.5,16.21-10.63,21.16-14.52h0l-1.73-6.89-1.67-5.85-.8-3.4-.39.3Z"/>
        <path class="cls-23" d="M321.39,278.27l.3-.9,2.6-2.6c2.78-2.58,4.66-1.56,6.49-.51a3.83,3.83,0,0,1,2,3.41,5.92,5.92,0,0,1-2.82,4.37,5.41,5.41,0,0,0-2.75,2.42c-1.57,3.12-3.76,5-5.83,5.49-1.62.43-5.63.28-6.82-1.55-.55-.85.4-1.53.94-2C318.15,283.8,319.41,281.28,321.39,278.27Z"/>
        <path class="cls-24" d="M326.92,235.61l-.15-.13-12-.35a26.6,26.6,0,0,0-4.56,6.6c-2.3,1.77-8.53,5.59-12.49,9.39-2.3,2.21-3.84,4.41-3.38,6.2.33,3.26,4,4.81,5.76,6.13,6.23,4.65,15.63,11.68,21.58,16,4.34,3.15,9.43-4,7.1-6.65-3.3-2.95-8-8.11-10.77-11l0,0a39.69,39.69,0,0,0-4.64-4.22c2.33-.77,4.66-1.45,6.79-2.12,14.34-4.55,15-11.11,9.54-20.34Z"/>
        <path class="cls-25" d="M327.11,199.65c-1.39-.61-4.49-2.73-7.56-4.12-3.79-1.71-7.63-2.65-9.27-2.29a8.55,8.55,0,0,0-6.56,5.29c-1.48,3.57.59,8.32,1.52,14.57a36.79,36.79,0,0,0,1.61,5.74,38.13,38.13,0,0,1,1.85,15.55c1.66,4.25,9,8.78,15.44,9.54v0l.54,0a12.79,12.79,0,0,0,3.79-.19,6.8,6.8,0,0,0,2.88-1.17l.26-.23.23-.18a2.46,2.46,0,0,0,.46-.79,5.16,5.16,0,0,0,.43-1.21c1.33-6.11,1.4-19.43.83-28.71C333.18,205.42,333.57,202.58,327.11,199.65Z"/>
        <g>
          <path class="cls-26" d="M310.31,197.7c-.13-.29-.28-.57-.43-.88-.42-.87-.63-2.72-1.42-4.77l7.69-3.53,1.63-.92a13.82,13.82,0,0,0,1.85,7.74c.41,2.92-5.37,4.25-8.42,5C310.86,199.63,310.72,198.59,310.31,197.7Z"/>
          <path class="cls-27" d="M311.22,200.34c-.17-.42-.25-1.29-.43-2S310,196,310,195.54c-.68.18-1.12,4.07-1.9,5.71A4.26,4.26,0,0,1,311.22,200.34Z"/>
          <path class="cls-27" d="M319.44,194.73c-.11,2.9-5,4.9-8.25,5.61.79,1,1.81,2.15,1.77,3.11,2.27-.62,6.12-1.69,7.68-4.6A2.84,2.84,0,0,0,319.44,194.73Z"/>
          <path class="cls-5" d="M311.14,196.55c.86-.67,3-2.06,3.76-2.72,1.68-1.44,1.34-3.09,1.66-5.75,1.58-1.31,2.06-2.3,2.13-3.38a7.78,7.78,0,0,0-3.54-6.54,6.79,6.79,0,0,0-5.92-.75c-4.19,1.26-5.84,3.66-5.78,7.35a9.8,9.8,0,0,0,.33,1.86c.28.73.5.83.64,1.34a2.41,2.41,0,0,1,0,1.28c-.3,1.27,1.71,6.88,2.61,7.42A4.1,4.1,0,0,0,311.14,196.55Z"/>
          <path class="cls-28" d="M307,183.9c.93-.69,4.41-3.26,5.91-4.46s3.21-2.56,4.78-1.71A8.56,8.56,0,0,1,320,183.3c0,2.24-1.14,4.38-2.73,6.7-.6.87-1-2.23-1.35-2.85-.21,1.17-.53,1.7-.87,1.83s-.5.3-.73-1.1c-.37-2.15-1.44-2.32-1.19-3.82.2-1.19-.52-.93-.84-1.33C310.68,183.07,309.36,184.1,307,183.9Z"/>
          <path class="cls-5" d="M316.47,185.77c1.55-.85,1.89,1.06,1.84,2.25,0,.83-.71.88-.83,1.55a1.52,1.52,0,0,1-1.17,1.32c-1,.15-.65-1.45-.63-2.07C315.39,187.87,315.48,186.31,316.47,185.77Z"/>
          <path class="cls-29" d="M317.85,177.84c-1.2.55-2.52,2.13-4.16,3.42-2.27,1.76-5,3.21-7.21,3a4.67,4.67,0,0,1-3-1.34C299.34,175.19,314.71,171.14,317.85,177.84Z"/>
          <g>
            <path class="cls-30" d="M306.4,194c.17,0,.24,0,.44.09a1.46,1.46,0,0,1,.65.06c.42.12.49.36,1.12.49.19,0,.16.07,0,.16a4.07,4.07,0,0,1-1.87,0c-.31-.1-.22-.26-.37-.4S306.06,194,306.4,194Z"/>
            <path class="cls-31" d="M308.55,188.69a3,3,0,0,0,2.61-.38A2.1,2.1,0,0,1,308.55,188.69Z"/>
            <path class="cls-31" d="M305.94,188.29a2.31,2.31,0,0,1-1.5-.37,1.63,1.63,0,0,0,1.52.5Z"/>
            <path class="cls-31" d="M306.26,189.1a4.48,4.48,0,0,1-.52,2c-.67,1.08-.29,1.5.82,1.61-1.18-.3-1.05-.64-.62-1.61A4.65,4.65,0,0,0,306.26,189.1Z"/>
            <path class="cls-31" d="M304.85,188.23c.16.39.59.5.83.15A2.06,2.06,0,0,1,304.85,188.23Z"/>
            <path class="cls-31" d="M310.36,188.76a.46.46,0,0,1-.83.15A2.47,2.47,0,0,0,310.36,188.76Z"/>
          </g>
        </g>
      </g>
      <g>
        <path class="cls-9" d="M321.56,288.54l-1.11-.66a2.39,2.39,0,0,0,.95,2.21l1.17.67A2.42,2.42,0,0,1,321.56,288.54Z"/>
        <path class="cls-20" d="M325.56,250.23a.6.6,0,0,0,.06-.11h0a31,31,0,0,1,5.54-7.89l.14-.14a28.39,28.39,0,0,1,5.55-4.33,25.87,25.87,0,0,1,5.24-2.47l0-.09-.9-.51-.1,0a26.43,26.43,0,0,0-5.06,2.27,29.31,29.31,0,0,0-11.83,13.21c-.07.16-.15.33-.23.49a45.81,45.81,0,0,0-3.46,13.39,31.06,31.06,0,0,0-.12,3.73l0,20.06,1.11.66.17-21.21A40.18,40.18,0,0,1,325.56,250.23Z"/>
        <path class="cls-11" d="M329,244.24a27.42,27.42,0,0,1,7.87-6.8,24,24,0,0,1,5.24-2.24l0,.84a26.36,26.36,0,0,0-5.05,2.25,26.94,26.94,0,0,0-7.63,6.61,35.28,35.28,0,0,0-6.71,15.47,41.55,41.55,0,0,0-.75,8.69l.05,19.18c0,1.87,1.33,2.62,2.95,1.68l16.67-9.62v.6L325,290.52c-1.91,1.11-3.47.22-3.47-2,0-6.44-.09-12.92-.12-19.37a43,43,0,0,1,.78-8.92,36.39,36.39,0,0,1,6.8-16Z"/>
        <g>
          <path class="cls-12" d="M337.37,237.47c.24-.14.64-.22.87-.35l0,1.06-.68.38c-4.53,2.62-10.26,7.77-13.21,17.7l-.83.08a28.11,28.11,0,0,1,13.88-18.87Z"/>
          <path class="cls-13" d="M323.49,256.34l-1.8-1a35.81,35.81,0,0,1,5-10.48,29.74,29.74,0,0,1,3.74-4.34,28.16,28.16,0,0,1,6-4.37l.06,0,1.79,1C330.68,241.2,325.88,248.26,323.49,256.34Z"/>
        </g>
      </g>
    </g>
    <g>
      <g>
        <polygon class="cls-32" points="303.08 244.2 306.47 297.99 308.9 296.56 310.93 241.61 309.11 242.15 303.08 244.2"/>
        <polygon class="cls-33" points="303.86 296.62 306.47 297.99 306.45 245.13 301.65 241.16 303.86 296.62"/>
      </g>
      <g>
        <polygon class="cls-34" points="364.28 269.42 367.24 316.43 369.67 315 371.35 269.42 364.28 269.42"/>
        <polygon class="cls-13" points="364.62 315.06 367.24 316.43 367.22 269.42 362.81 269.42 364.62 315.06"/>
      </g>
      <g>
        <polygon class="cls-32" points="197.24 273.74 200.12 319.38 202.55 317.96 204.18 273.74 197.24 273.74"/>
        <polygon class="cls-13" points="197.5 318.01 200.12 319.38 200.1 273.74 195.74 273.74 197.5 318.01"/>
      </g>
      <g>
        <polygon class="cls-34" points="278.14 312.25 281.53 366.04 283.96 364.62 285.99 309.67 284.17 310.2 278.14 312.25"/>
        <polygon class="cls-13" points="278.92 364.67 281.53 366.04 281.51 313.18 276.71 309.21 278.92 364.67"/>
      </g>
      <g>
        <polygon class="cls-34" points="276.25 316.9 281.15 323.97 371.49 271.94 371.46 266.21 370.2 265.47 323.37 280.69 276.25 316.9"/>
        <polygon class="cls-13" points="194.89 274.36 281.15 323.97 281.13 318.25 274.48 305.85 230.83 281.16 194.9 268.65 194.89 274.36"/>
        <polygon class="cls-35" points="194.9 268.65 281.13 318.25 371.44 266.2 285.21 216.6 194.9 268.65"/>
      </g>
    </g>
    <g>
      <g>
        <path class="cls-26" d="M301.92,213.29a33.38,33.38,0,0,1-3.65,1.82l-.81.21a3.63,3.63,0,0,0-1.14.81c-1.68,1.11-2.59,1.44-4.07,2.39l-1.81,3.11.35,3.45a2.41,2.41,0,0,0,1.12,1.8c.45.16.79.27,1.06.34s.54.12.61.06a.26.26,0,0,0,.13-.06.79.79,0,0,0,.26-.46c.43-.88.38-2.26,1-3.61,1.25-.57,2.74-.68,3.42-1.81.4-.65.44-1.28.73-1.82a18.94,18.94,0,0,1,3.78-1.46Z"/>
        <path class="cls-12" d="M305,210.89c-2,1-5,2.72-6.68,3.77-.48,1.63.82,4.53,1.53,4.91,1-.27,4.73-1.26,6.85-1.87Z"/>
        <g>
          <path class="cls-36" d="M323.36,236.08l-16.77,9.52c-.28.19-.41,0-.58-.48L282.9,231.66c-.18-.38-.22-.8.88-1.36L299,221.84a2.64,2.64,0,0,1,2.44-.06l22.81,12.52v.75C324.28,235.38,323.93,235.77,323.36,236.08Z"/>
          <path class="cls-37" d="M323.36,235.24l-16.77,9.52c-.28.19-.41,0-.58-.47L282.9,230.83c-.18-.39-.22-.8.88-1.37L299,221a2.64,2.64,0,0,1,2.44-.07l22.61,13C324.48,234.3,324.1,234.84,323.36,235.24Z"/>
          <path class="cls-38" d="M317.85,236.87l-12.77,7.25c-.21.15-.31,0-.44-.36l-20.65-12c-.14-.29-.17-.61.67-1l11.56-6.44a2,2,0,0,1,1.86,0l20.27,11.67C318.7,236.16,318.41,236.57,317.85,236.87Z"/>
        </g>
        <path class="cls-26" d="M298.05,217.59c.52,1.58-.65,1.77-1.79,3.08a7.07,7.07,0,0,1-.51,1.63c.35,1.79.5,2.76-.6,2.91-.21-.57-.64-2.05-.77-2.56.11-2.87-.64-2.23,1.78-5.37A1.07,1.07,0,0,1,298.05,217.59Z"/>
        <g>
          <path class="cls-39" d="M272.62,211c.24-.14.44-.35.68-.48s.65.15,1.3.53l21.17,12.74c1.47.88,1.27.61,2,2.14q4.45,8.9,8.9,17.81c.39.88.59,1.34.47,1.45l-.72.5Z"/>
          <path class="cls-37" d="M297.11,226.41,306,244.22c.74,1.65.79,1.84-.64.92l-21.51-12.93c-1.34-.79-1.11-.72-1.81-2.11L272.94,212c-.85-1.47-.14-1.1.95-.45l21.18,12.74C296.54,225.15,296.34,224.88,297.11,226.41Z"/>
          <g>
            <path class="cls-34" d="M286.1,220.05c.18-.07.53.13.77.44s.29.62.11.69-.52-.14-.76-.45S285.92,220.11,286.1,220.05Z"/>
            <path class="cls-40" d="M286.29,220.29c.11,0,.3.08.44.25s.16.35.06.39-.3-.08-.43-.25S286.19,220.33,286.29,220.29Z"/>
            <path class="cls-27" d="M286.37,220.4c.07,0,.2,0,.3.17s.11.23,0,.26-.2-.06-.29-.17S286.31,220.42,286.37,220.4Z"/>
            <path class="cls-40" d="M286.45,220.49s.11,0,.16.1.06.13,0,.14a.22.22,0,0,1-.17-.09C286.42,220.57,286.41,220.51,286.45,220.49Z"/>
          </g>
        </g>
      </g>
      <g>
        <path class="cls-5" d="M325.71,224.54c-.13,0-10.28,3.37-10.47,3.47-.38.18-.82.42-1.12.53-2.48.89-4.89,1.09-5.41,1.41a28.55,28.55,0,0,0-4,3.11c-.43.55-.81,1-2.1,2.74-.63.85.65,1.06.8,1,.76-.33,1.25-1.67,2.2-2.44a12.57,12.57,0,0,1,2.22-1.31,16.19,16.19,0,0,0-1.93,1.8,12.44,12.44,0,0,0-1.32,2.53c-.32.79.42,1.2.7.93a27.89,27.89,0,0,0,1.83-2.63c1-.5,1.41-.88,2.5-1.42l-1.82,1.83-1.34,2.4c-.43.86.35,1.22.83.74A17.62,17.62,0,0,0,308.8,237c.59-.39,1.4-1.13,2.23-1.79l-1,1.6a11.53,11.53,0,0,0-1.26,1.77c-.21.45.18,1,.86.34.52-.46,1.27-1.27,1.5-1.51a10.59,10.59,0,0,1,2.82-2.09c1.05-.77,2.35-2.12,3.45-2.78.09-.06,11.53-1.95,11.63-2Z"/>
        <path class="cls-41" d="M317.17,232.7a6.33,6.33,0,0,1-2.09-4.73c2.09-1.18,12.54-5.13,14.92-5-1.36-3.26-2.62-4.82-4.35-9-1.84-4.48-3-8.32,1-11.44,2.9-2.23,5.76-.61,7,2.5a55.39,55.39,0,0,1,1.94,5.69c1,3.37,2.38,8.76,3.09,12.72.16.92.47,1.67.52,2.4.19,2.58-1.21,3.09-4.17,4.32C331.63,231.59,319.19,232.42,317.17,232.7Z"/>
      </g>
    </g>
    <path class="cls-3" d="M303.77,355.37l31.34-17.85c3.42-1.56,8.31-2.81,11.79-1,3.17,1.65,18.66,10.86,21,12.17,1.75,1,7.84,4.65,4.05,6.72-11.16,6.07-22.21,12.89-33.54,19.06a16,16,0,0,1-8.57,1.31,22.73,22.73,0,0,1-9.28-2.76c-1.89-1.1-14-8-15.82-9.07-2.46-1.43-3.77-3.12-3.89-4.69S301.67,356.33,303.77,355.37Z"/>
    <g>
      <g>
        <polygon class="cls-42" points="310.69 250.24 332.36 268.5 312.14 280.75 290.47 262.49 310.69 250.24"/>
        <path class="cls-43" d="M310.64,251.11l-9.37,5.65-9.66,5.82,10.4,8.74,10.41,8.75,9.36-6.09,9.09-5.9-10.12-8.49Z"/>
        <path class="cls-44" d="M312.91,268.75l-3.25-1.81-3.25-1.81,2,2.6c.67.87,1.34,1.73,2,2.61Z"/>
        <path class="cls-45" d="M311.11,269.89l-5.53-2.38,2.44,4.33Z"/>
        <path class="cls-46" d="M309.49,270.91l-6.46-2.7,2.75,5.05Z"/>
        <path class="cls-46" d="M310.89,252.13c-2.18,1.32-15.42,9.52-17.61,10.84l-.47-.4c2.19-1.31,15.43-9.52,17.62-10.83l.46.39Zm4,3.33-.61-.52c-2.18,1.33-15.41,9.55-17.58,10.88l.62.52c2.17-1.33,15.4-9.55,17.57-10.88Zm1.06.89-.46-.39c-1,.61-13.06,8.11-14.06,8.72l.47.4,14.05-8.73Zm-2-1.72L311.93,253c-2.18,1.33-15.42,9.53-17.61,10.86l2,1.65c2.18-1.33,15.41-9.54,17.59-10.87Zm-2.24-1.87-.46-.39c-1.1.66-13.27,8.21-14.37,8.88l.46.4C298.38,261,310.55,253.42,311.64,252.76Z"/>
        <path class="cls-46" d="M317.5,258l-2.39,1.48-2.4,1.5-.41-.35,2.4-1.49,2.39-1.48.41.34Zm2.81,2.36-.54-.45-4.69,2.94-4.76,3,.55.46,4.76-3,4.68-2.95Zm.93.78-.41-.34-4.33,2.73.41.35,4.33-2.74Zm-1.79-1.5-1.71-1.43-4.7,2.93-4.77,3,1.73,1.45,4.76-3Z"/>
        <path class="cls-46" d="M326.63,265.63c-.14.09-.17.24-.05.34a.42.42,0,0,0,.47,0c.14-.1.17-.25.05-.35A.4.4,0,0,0,326.63,265.63Z"/>
        <path class="cls-45" d="M328.06,267l-5-.27c0-.05,0-.06-.1-.15a.69.69,0,0,0-.66,0,.33.33,0,0,0-.07.48c.08.08,0,0,.05,0l-2.55,4a.81.81,0,0,0-.5.08.25.25,0,0,0-.12.11l-5.91-1.14c0-.08,0-.13-.1-.23a.7.7,0,0,0-.68,0,.33.33,0,0,0-.08.49c.1.09.08.06.14.08-.33,1-.66,2.06-1,3.09a.63.63,0,0,0-.41.1.35.35,0,0,0-.18.35l-3.05.77s.05,0,0,0a.55.55,0,0,0-.49,0c-.16.1-.19.26-.07.36a.52.52,0,0,0,.5,0c.12-.08.13-.13.13-.2l3.09-.78h0a.62.62,0,0,0,.68,0,.34.34,0,0,0,.08-.5l-.06,0c.34-1.05.67-2.09,1-3.13a.71.71,0,0,0,.31-.09.37.37,0,0,0,.11-.1L319,271.4c0,.08,0,.12.1.22a.69.69,0,0,0,.67,0c.21-.14.24-.35.09-.49l2.57-4a.69.69,0,0,0,.41-.09.37.37,0,0,0,.15-.16l5,.27s0,0,.06.07a.51.51,0,0,0,.47,0c.15-.1.17-.25.05-.35a.46.46,0,0,0-.47,0C328.07,266.93,328.08,266.93,328.06,267Z"/>
        <path class="cls-44" d="M329.14,267.72l-6.07-2.37A.24.24,0,0,0,323,265a.73.73,0,0,0-.66,0c-.17.11-.2.22-.18.33l-2.92,1.2-2.94,1.2a.62.62,0,0,0-.64,0,.3.3,0,0,0,.09.57l-.51,3.57c-.18,1.19-.35,2.39-.53,3.59a.76.76,0,0,0-.29.1.31.31,0,0,0-.1.08l-4.22-2.09a.22.22,0,0,0-.08-.31.77.77,0,0,0-.68,0c-.16.1-.16.15-.18.23l-2.31.37,0,0a.55.55,0,0,0-.49,0c-.15.09-.18.25-.07.35a.52.52,0,0,0,.5,0c.11-.08.12-.11.13-.18l2.29-.36s0,0,.07.1a1.08,1.08,0,0,0,.69,0l0,0,4.25,2.1c0,.09,0,.14.1.25a.68.68,0,0,0,.68,0,.32.32,0,0,0,.08-.49c-.1-.09-.09-.07-.15-.09.17-1.2.35-2.4.52-3.6s.35-2.38.52-3.56a.6.6,0,0,0,.27-.1.33.33,0,0,0,.16-.38l2.94-1.2,2.9-1.19h0a1.06,1.06,0,0,0,.66,0c.11-.06,0,0,0,0l6.06,2.37a.17.17,0,0,0,.06.22.48.48,0,0,0,.48,0,.2.2,0,0,0,.05-.34A.42.42,0,0,0,329.14,267.72Z"/>
        <path class="cls-46" d="M327,265.66l-2.75,2.6a.55.55,0,0,0-.47.08.3.3,0,0,0-.09.47c-.8.93-1.61,1.87-2.43,2.8a.59.59,0,0,0-.42.1.32.32,0,0,0-.18.31l-3.7,1.12s0,0-.05-.06a.74.74,0,0,0-.67,0,.32.32,0,0,0-.08.49.27.27,0,0,0,.18.09c-.48,1-1,2-1.45,3a.73.73,0,0,0-.57.06c-.12.08-.11.09-.14.14l-4.62-.86c0-.05,0-.07-.07-.14a.53.53,0,0,0-.49,0c-.16.1-.19.26-.07.36a.55.55,0,0,0,.5,0c.09,0,0,0,.07,0l4.63.83c0,.08,0,.12.1.22a.71.71,0,0,0,.68,0c.2-.13.24-.32.12-.46.51-1.05,1-2.09,1.51-3.14a.55.55,0,0,0,.29-.09.46.46,0,0,0,.19-.28l3.71-1.13s-.06-.05,0,0a.73.73,0,0,0,.67,0,.34.34,0,0,0,.07-.49l0,0,2.4-2.78a.54.54,0,0,0,.5-.07.35.35,0,0,0,.08-.48c-.08-.07,0,0,0,0l2.68-2.57Z"/>
      </g>
      <g>
        <path class="cls-5" d="M312.49,288.64a18.89,18.89,0,0,1-1.41-3.26c-2.14-4.79-.88-12.56-1.86-19h0c-.28-1.3-2.15-2.22-2.41-4.11-.31-2.26-1-5.68-.15-6.77a5.44,5.44,0,0,1,3-1.93.56.56,0,0,1,0-.12s-.54-3-.7-4.15,1.63-2.12,1.94-.86c.42,1.72,1,4.47,1.49,6.26,1.44,2.16,1.55,7.07,2.11,10.33a3.68,3.68,0,0,1,.16.54c1.09,5.51,3.38,9.5,4.52,16.69C319.9,286.63,315.07,290.53,312.49,288.64Z"/>
        <path class="cls-47" d="M351.06,253.07c3.06,1.27,4.45,3.76,4.94,6.68,1.44,8.52-3.21,14.2-3.55,21.42-.39,8.52,5,13.9,2.95,27.25-.83,4-16.72,11.21-22.59,10.55a8.36,8.36,0,0,1-5.64-3.39,34.93,34.93,0,0,1-.14-12.32c.8-5.27,2-7.95,1.28-13.28-1.07-8-6.13-18.25-3.68-24.52a6.65,6.65,0,0,1,2.48-2.84c2.7-2.17,16.66-9.27,20.89-9.78A6.67,6.67,0,0,1,351.06,253.07Z"/>
        <g>
          <path class="cls-26" d="M330.9,251.64c.77.38,4.68-.18,4.56.17-.06,1.79-.6,2.86-.76,5.39,4-.14,9.61-1.19,10.22-4.18-.14-1.69-.21-3.47.25-4.22.91-1.47,2.78-3.11,3.45-5.34,1.06-3.57.67-7.53-2.65-10.17-6.07-4.82-13.84-1.39-15.8,5.66-.39,1.38.7,2.12.66,3.3,0,.23-.31.47-.56,1C329.93,243.94,330,251.17,330.9,251.64Z"/>
          <path class="cls-26" d="M331.06,251.64a6.27,6.27,0,0,0,3.35-.41,6,6,0,0,0,1.49-1c.52-.21,1.68-1.86-.12-4.47s8.83,4,9.39,3.07c.91-1.47,2.78-3.11,3.45-5.34,1.06-3.57.67-7.53-2.65-10.17-6.07-4.82-13.84-1.39-15.8,5.66-.39,1.38.7,2.12.66,3.3,0,.23-.31.47-.56,1C329.93,243.94,330.13,251.14,331.06,251.64Z"/>
          <g>
            <path class="cls-5" d="M335.42,246.75c-.33-.9-.05-1.23.34-1.13a2.52,2.52,0,0,1,1.38,1.66c.52,1.51-.22,3.42-1.68,2.67,1.25.07,1.13-1.43.76-2.37C336,247,335.57,246.5,335.42,246.75Z"/>
            <path class="cls-48" d="M336,247.16c-.35.65-.47,1-.36,1.26s.32.33.72,0A2.24,2.24,0,0,0,336,247.16Z"/>
          </g>
          <path class="cls-49" d="M345.23,250.34c.33-2.42,2.67-4.46,3.46-7.13a9.67,9.67,0,0,0-.27-6.89c.35-1.75-2.6-4.31-3.78-4.72a2.18,2.18,0,0,1,.31.49c-3.51-1.87-4.49-1.5-8.33-1,.42.07.81.16,1.22.25-2.13,0-7.53,2.49-7.29,6.4.73-1.75,1.62-1.52,2.38-1.05a5.55,5.55,0,0,0,.61,4.41c1.28,1.84,1.31,2.1,1.24,4.9l.73.58c.3-2.19,1.27-2,2.22-1.29,1.66,1.28.86,5.87,4.65,6A3.65,3.65,0,0,0,345.23,250.34Z"/>
          <path class="cls-45" d="M345,252.91c1.19.37,2.3,1.59,2.09,2.38-1.19,4.83-10.05,5.91-15.57,4.75-.06,0,2.07-2.83,3.12-3.17C338.07,257.21,343.89,255.77,345,252.91Z"/>
        </g>
        <path class="cls-45" d="M324.5,265.34c-2.72,2.89-4.83,7.55-7.31,12.39a2.1,2.1,0,0,0-1.48.07c-1.87.8-3.63,3.53-3.77,6.43-.28,5.83,6,7.67,8.46,4.86a14.89,14.89,0,0,0,3.54-3.6c3.18-4.13,12.38-16.23,9.34-20C330.55,262,327.17,262.51,324.5,265.34Z"/>
      </g>
      <g>
        <path class="cls-8" d="M332,332l1.29-.75a6.81,6.81,0,0,0,.56,2.56,8,8,0,0,0,3.1,3.78l-1.29.75a6.84,6.84,0,0,1-2-1.76,9.32,9.32,0,0,1-1.2-2.08A6.29,6.29,0,0,1,332,332Z"/>
        <polygon class="cls-9" points="336.9 337.56 357.63 349.56 356.36 350.29 335.61 338.31 336.9 337.56"/>
        <polygon class="cls-8" points="332.28 304.75 333.57 304 333.24 331.22 331.95 331.97 332.28 304.75"/>
        <path class="cls-10" d="M332.07,303.16a15.62,15.62,0,0,1,.22-1.88A13.36,13.36,0,0,1,335,295a9.44,9.44,0,0,1,2.75-2.4l1.29-.75c-2.85,1.65-4.64,4.61-5.26,8.69a15,15,0,0,0-.2,1.84c0,.39,0,1.53,0,1.59l-1.29.75A15.78,15.78,0,0,1,332.07,303.16Z"/>
        <path class="cls-8" d="M337.27,291.84h0c3.12-1.81,5-2.5,8.73-2.24a27.15,27.15,0,0,1,11.27,3.81c.64.36,1.28.76,1.92,1.18l-1.29.75c-.64-.42-1.28-.82-1.92-1.19a34.11,34.11,0,0,0-3.88-1.92,24.72,24.72,0,0,0-6.54-1.77,16,16,0,0,0-4.49.08,11.11,11.11,0,0,0-3.37,1.07Z"/>
        <path class="cls-11" d="M331.63,304.86c0-.09,0-1.83,0-2.41s.16-1.38.27-2c.79-4.53,3-7.68,6.54-9.16,4.6-1.94,11-.85,17.53,2.9.64.37,1.28.77,1.92,1.19l0,.72c-.62-.41-1.25-.8-1.87-1.16-6.35-3.67-12.63-4.73-17.1-2.84-3.51,1.48-5.7,4.67-6.4,9.27a16.8,16.8,0,0,0-.2,1.83c0,.39,0,1.53,0,1.59L332,332a6.65,6.65,0,0,0,.54,2.52,8,8,0,0,0,3.12,3.82l20.75,12V351l-20.76-12a9.49,9.49,0,0,1-4.3-7.45Z"/>
        <path class="cls-12" d="M337.32,293l2.55-1.36a10.09,10.09,0,0,0-4.21,4.88L333.24,298A9.94,9.94,0,0,1,337.32,293Z"/>
        <polygon class="cls-12" points="351.75 290 351.9 290.77 350.18 291.7 350.29 292.3 349.54 292.62 349.23 291.39 351.75 290"/>
        <path class="cls-12" d="M341,290.68a11.22,11.22,0,0,0-4.26,1.2h0a22.07,22.07,0,0,1,4.75-2.4,13.17,13.17,0,0,1,3.92-.55,20,20,0,0,1,5.48.82l.84.25-2.42,1.41A21,21,0,0,0,341,290.68Z"/>
        <path class="cls-13" d="M349.33,291.41l.21,1.21c-7.73-2.46-13.82-.47-16.3,5.33l-.9-.93C334.93,290.94,341.29,288.84,349.33,291.41Z"/>
        <path class="cls-14" d="M358.47,351.52a2.06,2.06,0,0,1,1.21,1.69V354a2,2,0,0,0-1.21-1.69l-.06-.47Z"/>
        <polygon class="cls-11" points="345.84 344.23 358.47 351.52 358.47 352.27 345.83 344.97 345.84 344.23"/>
        <path class="cls-14" d="M359.86,356.33l-.07,0v-.75a4.1,4.1,0,0,0,1-.85,2.27,2.27,0,0,0,.46-.62l0-.08a2.25,2.25,0,0,0,.19-.86,5.88,5.88,0,0,1,0,.94,2.37,2.37,0,0,1-.52,1.24A4.37,4.37,0,0,1,359.86,356.33Z"/>
        <polygon class="cls-10" points="339.31 367.46 359.79 355.62 359.79 356.37 339.3 368.2 339.31 367.46"/>
        <polygon class="cls-11" points="318.29 360.17 330.93 367.46 330.92 368.21 318.29 360.91 318.29 360.17"/>
        <path class="cls-14" d="M330.92,368.21v-.75a7.4,7.4,0,0,0,2.21.8,9.9,9.9,0,0,0,3.68.05,7.45,7.45,0,0,0,2.48-.85v.74a7.8,7.8,0,0,1-2.51.87,10.24,10.24,0,0,1-3.74-.08A7.67,7.67,0,0,1,330.92,368.21Z"/>
        <path class="cls-9" d="M319.58,359.42l12.64,7.29a6.42,6.42,0,0,0,5.79,0l20.48-11.84c1.59-.92,1.58-2.42,0-3.35l-12.63-7.29,1.29-.75,12.63,7.29c2.32,1.34,2.33,3.51,0,4.85L339.3,367.46a9.22,9.22,0,0,1-8.37,0l-12.64-7.29Z"/>
      </g>
      <path class="cls-50" d="M328.38,328.74h0c4.22,2.4,4.22-1.1,2.59-5a25.15,25.15,0,0,1-2-14.18,146.51,146.51,0,0,1,6.61-26.17v0a.56.56,0,0,1,0-.12c.37-.83,4.29-3.31,5.34-4a205.91,205.91,0,0,1,21.75-12.33c1.25-.57,2.76-1.47,3.44.29a1.94,1.94,0,0,1-.14,1.4c-.65,2.05-1.39,4.09-2.08,6.13-1.14,3.39-2.54,7.77-3.55,12.16-.37,1.69-.69,3.28-.94,5a29.79,29.79,0,0,0-.07,10.65,26.86,26.86,0,0,0,1.84,5.58c.53,1.26,1.13,2.91.41,4.05a11.83,11.83,0,0,1-3,2.5,210.89,210.89,0,0,1-24.15,14,10.43,10.43,0,0,1-2.71,1,4.13,4.13,0,0,1-1.62-.13,5.84,5.84,0,0,1-1.55-.66l-.23-.12h0Z"/>
      <path class="cls-13" d="M326.87,325.92l1.23.76.29.19c1.68,1,2.52.79,2.77.37a2.65,2.65,0,0,0-.39-2.06,29.91,29.91,0,0,1-2.44-8.85c-.73-9.61,3.44-21.72,5.95-29,.55-1.56,1-2.93,1.3-3.93a.62.62,0,0,1,.93-.26,1.47,1.47,0,0,1,.63,1.69c-.3,1-.78,2.38-1.32,4-2.45,7.09-6.56,19-5.88,28.28a22.29,22.29,0,0,0,2.21,7.66c.89,1.79,1,3.26.48,4.14-.59,1.08-2.11,1.07-4.26-.16-.11-.08-.23-.15-.35-.22l-2-1.27Z"/>
      <g>
        <path class="cls-8" d="M304.77,348.1l1.29-.74a6.89,6.89,0,0,0,.56,2.56,8,8,0,0,0,3.1,3.77l-1.29.75a6.84,6.84,0,0,1-2-1.76,9.32,9.32,0,0,1-1.2-2.08A6.29,6.29,0,0,1,304.77,348.1Z"/>
        <polygon class="cls-9" points="309.72 353.69 330.45 365.69 329.18 366.42 308.43 354.44 309.72 353.69"/>
        <polygon class="cls-8" points="305.1 320.88 306.39 320.13 306.06 347.36 304.77 348.1 305.1 320.88"/>
        <path class="cls-10" d="M304.89,319.29a15.62,15.62,0,0,1,.22-1.88,13.36,13.36,0,0,1,2.7-6.25,9.57,9.57,0,0,1,2.75-2.4l1.29-.75c-2.84,1.65-4.64,4.62-5.26,8.7a16.8,16.8,0,0,0-.2,1.83c0,.39,0,1.53,0,1.59l-1.29.75A15.37,15.37,0,0,1,304.89,319.29Z"/>
        <path class="cls-8" d="M310.09,308h0c3.12-1.81,5-2.5,8.73-2.23a27,27,0,0,1,11.27,3.8c.64.37,1.28.76,1.92,1.18l-1.29.75c-.64-.42-1.28-.81-1.92-1.18a32.59,32.59,0,0,0-3.88-1.93,24.32,24.32,0,0,0-6.54-1.76,15.66,15.66,0,0,0-4.49.07,11.11,11.11,0,0,0-3.37,1.07Z"/>
        <path class="cls-11" d="M304.45,321c0-.09,0-1.83,0-2.41s.16-1.38.27-2c.79-4.53,3-7.68,6.54-9.16,4.6-1.94,11-.84,17.53,2.91.64.37,1.28.76,1.92,1.18l-.05.72c-.62-.41-1.25-.8-1.87-1.16-6.35-3.66-12.63-4.73-17.1-2.84-3.51,1.48-5.7,4.67-6.4,9.27a16.8,16.8,0,0,0-.2,1.83c0,.39,0,1.54,0,1.59l-.33,27.22a6.74,6.74,0,0,0,.54,2.53,8,8,0,0,0,3.12,3.81l20.75,12v.75l-20.76-12a9.49,9.49,0,0,1-4.3-7.45Z"/>
        <polygon class="cls-10" points="330.72 311.47 332.01 310.72 331.97 311.44 330.68 312.19 330.72 311.47"/>
        <path class="cls-12" d="M310.14,309.15l2.55-1.36a10.09,10.09,0,0,0-4.21,4.88l-2.41,1.41A9.92,9.92,0,0,1,310.14,309.15Z"/>
        <polygon class="cls-12" points="324.57 306.13 324.72 306.91 323 307.83 323.11 308.43 322.36 308.75 322.05 307.52 324.57 306.13"/>
        <path class="cls-12" d="M313.84,306.81a11.22,11.22,0,0,0-4.26,1.2h0a22.07,22.07,0,0,1,4.75-2.4,13.17,13.17,0,0,1,3.92-.55,20,20,0,0,1,5.48.82l.84.25-2.42,1.41A21.21,21.21,0,0,0,313.84,306.81Z"/>
        <path class="cls-13" d="M322.15,307.54l.21,1.21c-7.73-2.46-13.82-.47-16.29,5.33l-.91-.93C307.75,307.07,314.11,305,322.15,307.54Z"/>
      </g>
    </g>
    <g>
      <g>
        <polygon class="cls-13" points="258.51 273.34 242.3 282.96 256.58 291.21 272.79 281.58 258.51 273.34"/>
        <path class="cls-12" d="M253.44,276.88l.6-.35,6.92,4-.6.34-6.92-4Zm1-.56,6.92,4,1.9-1.11-6.92-4-1.9,1.1Zm-2,1.16,3.2,1.85.45-.26-3.2-1.85-.45.26Zm5.35-3.11-.45.27,6.91,4,.46-.27-6.92-4Zm2.79,2.46-3.52-2-.46.27,3.52,2Z"/>
        <path class="cls-45" d="M266.84,282.61l1.43.82-2.79,1.62-1.42-.83,2.78-1.61Zm-7-.85,3.28-1.91,1.43.83-3.28,1.9-1.43-.82Zm2.14,1.23,1.42.82,4.32-2.51-1.42-.82Z"/>
        <polygon class="cls-44" points="263.85 285.99 263.17 286.38 250.26 278.93 250.93 278.54 263.85 285.99"/>
        <polygon class="cls-44" points="271.8 281.57 271.32 281.85 258.07 274.19 258.55 273.91 271.8 281.57"/>
        <polygon class="cls-45" points="252.39 281.08 252.39 281.6 251.48 281.6 248.65 279.97 249.56 279.44 252.39 281.08"/>
        <polygon class="cls-51" points="252.06 282.22 252.07 282.74 251.16 282.75 247.51 280.63 248.41 280.11 252.06 282.22"/>
        <polygon class="cls-45" points="251.74 283.36 251.75 283.88 250.84 283.88 246.36 281.3 247.27 280.77 251.74 283.36"/>
      </g>
      <g>
        <path class="cls-5" d="M226.38,278.44a77.45,77.45,0,0,0,12.08-5.05c1.64-.93,3-2,4.76-2.81,1.31-.63,1.55-.46,2.88-.15a4,4,0,0,1,2.62,1.54,4.36,4.36,0,0,1,1.26,2.56c0,1.83-3.41.34-3.76.31-1.09.73-1.67,1.45-2.94,1.51a14.64,14.64,0,0,0-3.07.16c-2.48,1.11-8.73,6.84-11.22,7.38C223.31,285.38,222.61,279.61,226.38,278.44Z"/>
        <path class="cls-52" d="M242.59,269.38c3.29,3.23,7.65,7.74,10.18,8.93-.94-2.1-5.9-6.61-9.26-9.83C242.69,267.68,241.82,268.63,242.59,269.38Z"/>
        <path class="cls-5" d="M240,275c2.06,1.41,2.25,0,3.82-1a5.7,5.7,0,0,0,1.51-.26c1.63.58,2.2,0,2.4-.83-.51-.27-1.5-.81-2-1-2.84-.29-4.28-.65-7.15,1.6l.22,2Z"/>
        <path class="cls-5" d="M249.12,272.11l.89,2c-1,.41-1.66-.64-1.94-1.53l-.89-.63-.45-1.39c.37.16.9.39,1.28.59S248.9,271.6,249.12,272.11Z"/>
        <path class="cls-53" d="M226.38,278.44c3.4-1.82,6.44-2.65,9.65-4.21.36-.18.89-.1,1.25-.28l1.19-.65a7.08,7.08,0,0,0,1.85,3.24c-.4.21-.55.32-1.16.65-.41.28-.46.7-.93,1-3,2.17-7.81,5.74-9.59,6.13a26.49,26.49,0,0,1-5.8.59c-4.34-.31-4.41-5.72-2.79-5.93S223.91,278.59,226.38,278.44Z"/>
      </g>
      <path class="cls-47" d="M241.32,304.53c-.88-2.58-3.28-8.25-3.56-9.81-.66-3.76-1.43-4.83-1-7.93,2.75-2,2.64-4.14,2.16-5.23a43.3,43.3,0,0,0-2.37-4c-3.24-3.77-12.61-7.8-16.49-8.24-3.27-.37-3.82,3.13-3.21,6.58,1,6,9.55,19.9,6.88,24.69C224.4,311.52,241.49,308.42,241.32,304.53Z"/>
      <g>
        <path class="cls-26" d="M259.82,285.81c.36-.67.38-.9.31-1.1a3.17,3.17,0,0,0-2.33-1.7c-.38,0-.64.67-1.1,1.58-.84,1.64-1.87,2.63,1.13,4.73Z"/>
        <path class="cls-48" d="M259.66,286c.06-.4-.15-.8-.76-1.16l-.68-.42c.08-.14.61-.94.25-1.29-.16-.14-1.14.61-1.21.48a5.38,5.38,0,0,0-.53.86c-.84,1.64-1.9,2.71,1.1,4.81Z"/>
        <path class="cls-5" d="M253,290.29c2.19-.65,4.22-.66,4.7-1a7.2,7.2,0,0,0,2.13-3.18c.09-.23.19-.43.27-.63a1.12,1.12,0,0,0-.19-1.26,23.18,23.18,0,0,1-2.73.76c-.7.18-.73.12-.65-.17.28-.41,2.36-.25,1.95-1.85-.31.11-1.58.24-1.87.32a10.77,10.77,0,0,0-2.09.74,2.67,2.67,0,0,0-1.14,1,8.72,8.72,0,0,1-1.74,2c-4.84,3.05-9.49,2.58-13.59,4.31-1.52.64-2.18,1.32-2.37,2.73-.1.7-.33,1.85.05,2.31.53.63,1.06.7,2.17.67C242.64,296.94,247.7,291.85,253,290.29Z"/>
        <path class="cls-5" d="M231.9,279.15c-.22-1.32-.09-2.71,1.38-3.15,2.14-.65,4.89,1.65,5.49,3.81a41.71,41.71,0,0,1,1,12c-.07,3.46-.93,4.95-2.08,5.14a2,2,0,0,1-1.89-.52c-.77-.56-1.44-3-1.65-5C233.8,288,232.38,283.12,231.9,279.15Z"/>
        <path class="cls-45" d="M253,290.36c.46-1-.9-3.24-1.46-3.47-.34.22-.72.38-1.06.57a1.51,1.51,0,0,0-1,.06c-3.31,1.48-6.65,1.58-9.65,3.17a40,40,0,0,0-1.1-10.88c-.6-2.16-3.35-4.46-5.49-3.81-1.47.44-1.92,2.23-1.69,3.54.47,4,2,8.73,2.32,12.15a9.58,9.58,0,0,0,1.68,4.59.86.86,0,0,0,.1.16c.53.63,1.12.75,2.22.71,4.18-.14,8.64-3.37,13.08-5.56a2.17,2.17,0,0,0,.75-.76C252.08,290.7,252.71,290.46,253,290.36Z"/>
      </g>
      <g>
        <g>
          <path class="cls-50" d="M241.27,334.65h0c-3.7,2.1-3.7-1-2.27-4.36a22.09,22.09,0,0,0,1.75-12.42,128.25,128.25,0,0,0-5.8-22.94h0l0-.11c-.33-.72-3.76-2.89-4.68-3.49a180.69,180.69,0,0,0-19.06-10.8c-1.09-.5-2.42-1.29-3,.25a1.7,1.7,0,0,0,.12,1.23c.57,1.79,1.22,3.58,1.83,5.36,1,3,2.22,6.81,3.11,10.66.32,1.49.6,2.87.82,4.37a26.31,26.31,0,0,1,.06,9.32,23.77,23.77,0,0,1-1.61,4.89c-.47,1.1-1,2.55-.37,3.55a10.25,10.25,0,0,0,2.61,2.19,184.43,184.43,0,0,0,21.15,12.29,9.69,9.69,0,0,0,2.37.85,3.66,3.66,0,0,0,1.42-.12,5.21,5.21,0,0,0,1.36-.58l.2-.11h0Z"/>
          <path class="cls-13" d="M242.59,332.18l-1.07.67-.26.16c-1.47.86-2.21.69-2.43.33a2.4,2.4,0,0,1,.35-1.81,26.6,26.6,0,0,0,2.14-7.75c.63-8.42-3-19-5.22-25.4-.48-1.37-.87-2.57-1.13-3.44a.57.57,0,0,0-.83-.23,1.3,1.3,0,0,0-.55,1.48c.27.89.69,2.09,1.16,3.48,2.15,6.21,5.75,16.65,5.15,24.77a19.54,19.54,0,0,1-1.93,6.71c-.78,1.57-.85,2.86-.42,3.63.51.94,1.85.94,3.73-.14l.3-.19,1.78-1.12Z"/>
        </g>
        <g>
          <path class="cls-8" d="M262,351.61l-1.13-.65a6.17,6.17,0,0,1-.49,2.24,7,7,0,0,1-2.72,3.31l1.13.65a5.82,5.82,0,0,0,1.74-1.54,7.85,7.85,0,0,0,1.05-1.82A5.69,5.69,0,0,0,262,351.61Z"/>
          <polygon class="cls-9" points="257.62 356.5 239.46 367.02 240.57 367.66 258.75 357.16 257.62 356.5"/>
          <polygon class="cls-8" points="261.67 327.77 260.54 327.11 260.83 350.96 261.96 351.61 261.67 327.77"/>
          <path class="cls-10" d="M261.85,326.37a13.67,13.67,0,0,0-.19-1.64,11.62,11.62,0,0,0-2.37-5.48,8.4,8.4,0,0,0-2.41-2.11l-1.13-.65c2.49,1.44,4.06,4,4.61,7.62a13.29,13.29,0,0,1,.17,1.6c0,.35,0,1.35,0,1.4l1.13.66A13.84,13.84,0,0,0,261.85,326.37Z"/>
          <path class="cls-8" d="M257.29,316.45h0c-2.73-1.58-4.39-2.19-7.65-1.95a23.77,23.77,0,0,0-9.87,3.33c-.56.32-1.12.67-1.68,1l1.13.66c.56-.37,1.12-.71,1.68-1a32.59,32.59,0,0,1,3.4-1.69,21.74,21.74,0,0,1,5.73-1.54,13.65,13.65,0,0,1,3.94.07,9.63,9.63,0,0,1,3,.93Z"/>
          <path class="cls-11" d="M262.24,327.86c0-.08,0-1.6,0-2.11s-.14-1.21-.24-1.79c-.69-4-2.65-6.72-5.73-8-4-1.7-9.66-.74-15.36,2.54-.56.33-1.12.67-1.68,1l0,.63q.83-.54,1.65-1c5.55-3.21,11.06-4.14,15-2.48,3.07,1.29,5,4.08,5.6,8.11a13.46,13.46,0,0,1,.17,1.61c0,.34,0,1.35,0,1.4l.29,23.84a5.93,5.93,0,0,1-.47,2.21,6.93,6.93,0,0,1-2.74,3.34l-18.18,10.5v.66l18.18-10.5a8.36,8.36,0,0,0,3.78-6.53Z"/>
          <polygon class="cls-10" points="239.22 319.52 238.09 318.86 238.13 319.49 239.26 320.15 239.22 319.52"/>
          <path class="cls-12" d="M257.25,317.49,255,316.3a8.77,8.77,0,0,1,3.68,4.27l2.12,1.24A8.7,8.7,0,0,0,257.25,317.49Z"/>
          <polygon class="cls-12" points="244.61 314.84 244.48 315.52 245.99 316.33 245.89 316.86 246.55 317.14 246.81 316.06 244.61 314.84"/>
          <path class="cls-12" d="M254,315.44a9.64,9.64,0,0,1,3.73,1.05h0a19.85,19.85,0,0,0-4.16-2.11,11.54,11.54,0,0,0-3.43-.47,17,17,0,0,0-4.81.72l-.73.21,2.12,1.24A18.27,18.27,0,0,1,254,315.44Z"/>
          <path class="cls-13" d="M246.73,316.08l-.18,1.06c6.77-2.16,12.1-.42,14.27,4.67l.79-.82C259.34,315.67,253.78,313.83,246.73,316.08Z"/>
        </g>
      </g>
      <g>
        <g>
          <path class="cls-48" d="M218.55,268.14c.2.32,2.5.21,3.43-.19.31,1.44.73,3.14,1.17,5.11,0,.22.47-3.35,6.35-5.13a3.68,3.68,0,0,1,.42-1.62c.79-1.18,2.38-2.46,3-4.27C232,259.54,224.74,263.2,218.55,268.14Z"/>
          <path class="cls-26" d="M218.58,268.17c.54.35,3.92-1.4,4.23-1.38,2.95.15,6.52.39,7.11-.48.79-1.18,2.38-2.46,3-4.27,1-2.89.79-6.15-1.85-8.42-4.6-3.94-11.81-1.05-12.84,3.41-.42,1.84.23,2.3.14,3.53a8,8,0,0,1-.62,1.54,23.13,23.13,0,0,0,.29,3.14C218.11,266.6,218.23,267.94,218.58,268.17Z"/>
        </g>
        <path class="cls-54" d="M214.84,284.06c5,1.08,5.16-1.89,4.06-6.91a12,12,0,0,1,.73-8.44c.57-1.08,1-2.11.48-3.16-2.84-5.69-3.84-17.86,5-16.76,3.92-2.79,13.15-1.68,15.38,6.94.46,1.76,5.67,8.71,3.6,15.53-.73,2.42-1.51,5-2.43,7.36a18,18,0,0,1-6,8.37C225,294.37,216.17,288.75,214.84,284.06Z"/>
      </g>
    </g>
  </g>
  <g>
    <g>
      <polygon class="cls-55" points="111.13 65.25 111.23 100.42 95.12 109.69 95.02 74.52 111.13 65.25"/>
      <polygon class="cls-56" points="62.78 86.76 62.9 128.22 46.79 137.48 46.67 96.03 62.78 86.76"/>
      <polygon class="cls-57" points="86.91 59.71 87.07 114.31 70.96 123.58 70.8 68.98 86.91 59.71"/>
    </g>
    <g>
      <polygon class="cls-55" points="183.72 25.5 183.82 60.67 167.71 69.93 167.61 34.76 183.72 25.5"/>
      <polygon class="cls-56" points="135.37 47.01 135.49 88.46 119.38 97.73 119.26 56.28 135.37 47.01"/>
      <polygon class="cls-57" points="159.5 19.96 159.66 74.56 143.55 83.83 143.39 29.23 159.5 19.96"/>
    </g>
  </g>
  <g>
    <polygon class="cls-58" points="321.93 90.04 321.88 90.21 319.93 96.24 319.77 96.7 317.9 102.49 317.75 102.95 316.33 107.33 321.29 128.1 311.44 122.43 327.4 131.61 332.2 134.37 329.27 121.71 328.09 116.61 327.94 115.97 326.03 107.71 325.88 107.07 324.05 99.16 323.9 98.52 321.99 90.28 321.93 90.04"/>
    <polygon class="cls-59" points="309.04 76.77 307.49 81.39 307.33 81.85 305.31 87.83 305.16 88.3 303.22 94.04 303.06 94.51 301.04 100.5 300.89 100.96 298.87 106.94 298.72 107.4 296.71 113.37 296.54 113.86 311.44 122.43 321.29 128.1 316.33 107.33 314.9 101.31 314.75 100.67 312.85 92.72 312.7 92.08 310.72 83.8 310.57 83.16 309.04 76.77"/>
    <polygon class="cls-57" points="336.03 85.78 335.29 89.68 335.2 90.18 333.99 96.63 333.89 97.13 332.68 103.57 332.59 104.07 331.42 110.26 331.33 110.76 330.11 117.22 330.02 117.72 329.27 121.71 332.2 134.37 327.4 131.61 344.35 141.36 344.26 140.72 343.09 132.92 343 132.32 341.83 124.51 341.74 123.91 340.56 116.08 340.47 115.47 339.35 107.96 339.26 107.36 338.09 99.54 338 98.94 336.83 91.11 336.74 90.51 336.03 85.78"/>
  </g>
  <g>
    <g>
      <g>
        <g>
          <path class="cls-46" d="M113.22,134.79c-6,3.48-10.75,11.88-10.73,18.6l5.54,7.08,5-1c2.72-4.75,13.17-8.89,10.73-18.59L224.87,85.65l30.54-20.78h0L258,61.25c-1.84-1-3.63-2.2-5.41-3.23-2.39-1.41-5.43-.54-7.67.75h0Z"/>
          <path class="cls-34" d="M102.75,267.75c0,3.4,1.21,5.78,3.14,6.91l5.62,3.33a11.66,11.66,0,0,0,1.25-4.42l.49.29,3-70.37-3.23-44-10.51-6.1Z"/>
        </g>
        <path class="cls-43" d="M261.41,68.31c0-6.83-4.86-9.59-10.8-6.15l-131.68,76c-6,3.43-10.76,11.76-10.74,18.59l.26,114.37c0,6.83,4.86,9.59,10.8,6.16l131.68-76c5.95-3.43,10.76-11.76,10.74-18.59Z"/>
      </g>
      <g>
        <g>
          <g>
            <polygon class="cls-45" points="220.64 121.59 220.68 136.29 213.95 140.16 213.91 125.47 220.64 121.59"/>
            <polygon class="cls-46" points="200.44 130.59 200.49 147.91 193.75 151.78 193.7 134.46 200.44 130.59"/>
            <polygon class="cls-44" points="210.52 119.28 210.59 142.1 203.85 145.97 203.79 123.15 210.52 119.28"/>
          </g>
          <g>
            <polygon class="cls-45" points="250.98 104.98 251.02 119.68 244.29 123.55 244.25 108.85 250.98 104.98"/>
            <polygon class="cls-34" points="230.77 113.97 230.82 131.3 224.09 135.17 224.04 117.84 230.77 113.97"/>
            <polygon class="cls-44" points="240.86 102.67 240.93 125.49 234.19 129.36 234.13 106.54 240.86 102.67"/>
          </g>
        </g>
        <g>
          <polygon class="cls-45" points="213.76 161.08 213.84 161.31 216.48 169.48 216.69 170.12 219.23 177.96 219.43 178.6 221.35 184.53 214.63 212.71 227.99 205.03 206.33 217.48 199.82 221.22 203.81 204.04 205.41 197.12 205.61 196.26 208.2 185.05 208.41 184.19 210.89 173.45 211.09 172.58 213.69 161.4 213.76 161.08"/>
          <polygon class="cls-44" points="232.38 143.06 234.5 149.34 234.71 149.96 237.44 158.08 237.65 158.71 240.28 166.5 240.49 167.13 243.24 175.27 243.44 175.89 246.18 184.01 246.39 184.63 249.12 192.73 249.34 193.4 229.12 205.03 215.76 212.71 222.49 184.53 224.44 176.37 224.64 175.5 227.22 164.71 227.42 163.84 230.11 152.6 230.31 151.74 232.38 143.06"/>
          <polygon class="cls-46" points="195.77 155.3 196.76 160.59 196.89 161.26 198.54 170.02 198.66 170.69 200.31 179.44 200.44 180.12 202.02 188.51 202.14 189.19 203.79 197.96 203.92 198.63 204.94 204.04 200.96 221.22 207.47 217.48 184.47 230.71 184.6 229.83 186.19 219.25 186.31 218.44 187.9 207.84 188.02 207.03 189.61 196.4 189.74 195.58 191.26 185.39 191.38 184.57 192.97 173.96 193.09 173.15 194.69 162.53 194.81 161.72 195.77 155.3"/>
        </g>
        <g>
          <path class="cls-44" d="M167.62,182c5.09,3.08,8.23,9.48,8.25,18.51,0,18.29-12.69,40.53-28.55,49.95,0-4.46.07-10.42.11-17.05,7.64-4.77,13.73-15.52,13.7-24.39,0-4.42-1.54-7.56-4-9.09C161.18,193,164.86,186.72,167.62,182Z"/>
          <path class="cls-46" d="M146.76,206.49c5.19-3,9.44-.58,9.46,5.38s-4.21,13.27-9.39,16.26-9.44.58-9.45-5.38S141.58,209.48,146.76,206.49Z"/>
          <path class="cls-60" d="M146.7,183.9c7.8-4.51,14.89-5.07,20.12-2.34l-10.51,17.95c-2.54-1.14-5.89-.79-9.56,1.33a22.22,22.22,0,0,0-3.22,2.28c-1.44-5.49-2.74-10.52-3.71-14.3A45.08,45.08,0,0,1,146.7,183.9Z"/>
          <path class="cls-45" d="M121.35,215.7c3.36.35,7.85.82,12.72,1.31a25.56,25.56,0,0,0-1.61,8.57c0,8.9,6.18,12.6,13.85,8.49,0,6.62-.07,12.58-.11,17-15.74,8.67-28.43,1.18-28.48-17A52.37,52.37,0,0,1,121.35,215.7Z"/>
          <path class="cls-46" d="M138.74,189.77c1,3.72,2.24,8.69,3.71,14.31a33.76,33.76,0,0,0-7.83,11.49l-12.71-1.3A68.13,68.13,0,0,1,138.74,189.77Z"/>
        </g>
        <path class="cls-45" d="M248.34,84.4c0-.24-.17-.33-.37-.21L211.7,104.9a.81.81,0,0,0-.37.64v3.95c0,.23.16.33.37.21L248,89a.84.84,0,0,0,.37-.64Z"/>
        <path class="cls-46" d="M117.84,192.56v-3.67L141,175.59v3.67l-23.13,13.3Zm-.12-43.14,64.11-36.93v3.67l-64.11,36.93v-3.67Zm25.41-8.71-25.39,14.6V159l25.39-14.6v-3.67ZM117.8,176.49l64.11-36.92,0-15.3L117.75,161.2l0,15.29Zm0,7.72,64.11-36.92v-4.83l-64.11,36.93Z"/>
        <path class="cls-60" d="M248.34,74.34c0-.31-.23-.43-.5-.28l-48,27.44a1.08,1.08,0,0,0-.5.85l0,5.23c0,.31.22.44.49.28l48.05-27.44a1.1,1.1,0,0,0,.49-.85Z"/>
      </g>
    </g>
    <g>
      <path class="cls-3" d="M70.91,344.12l31.34-17.85c3.42-1.56,8.31-2.8,11.79-1,3.17,1.65,18.66,10.86,21,12.18,1.75,1,7.85,4.65,4.05,6.71-11.16,6.07-22.21,12.89-33.54,19.06A15.8,15.8,0,0,1,97,364.54a22.58,22.58,0,0,1-9.28-2.76c-1.89-1.1-14-8-15.82-9.07-2.46-1.43-3.76-3.12-3.89-4.69S68.81,345.08,70.91,344.12Z"/>
      <g>
        <g>
          <path class="cls-61" d="M111.84,206.07c2.49-.39,4.46,1.32,5.46,3.61a13.52,13.52,0,0,1,.61,7.95c-1.63,5.91,1.45,8,2.5,10.8A12.21,12.21,0,0,1,121,233c-.09,2.42,1.79,5,.71,7.49-1.18,2.74-6.71,8.2-9.09,9.56-16.28,7.38-22.86,2.9-24.66-4.12-.85-3.33,4.42-7.14,3.33-9.49-2.6-5.58-1.93-10.29,2.68-14A8.51,8.51,0,0,0,96.42,219c.55-1.27.75-3.56,1.29-5.72a10.58,10.58,0,0,1,2.88-5.28C103.94,204.8,107.74,205.61,111.84,206.07Z"/>
          <path class="cls-62" d="M114.22,208.73a6.05,6.05,0,0,1-1.33,4.35c-2.23,3.14-3.4,2.89-4.61,6.89-2-1.34-3.38-1.54-4-.23-.92,2.11-.34,3.36-.55,5.54-.36,3.55-2.83,3-6.12,5.8-2.3,1.93-5.42,6.87-3,16.36.48,1.94,6.69-7.73,13.68-7.73l5.77-1.44c2.31-2.08,4-2.36,4.74-3.61s.77-3-.07-5.27c-.77-2.11-2-3.9-2.06-5.54C116.66,218.19,117.75,214.57,114.22,208.73Z"/>
        </g>
        <g>
          <g>
            <path class="cls-5" d="M133.44,204.56c.43-.84.84-1.69,1.23-2.56.86-2,1.41-3.88,2.44-5.84.93-1.77,1.92-2.57,2.58-2.44,2.63.55,3.87,1.93,4.24,2.77.15.36.2.95-1.26,1.85-.5,1.42-.42,2.15-1.54,3.07a16.31,16.31,0,0,0-2.71,2.25,14.58,14.58,0,0,0-.93,2.3Z"/>
            <g>
              <path class="cls-5" d="M141.2,191l2.15-1.35c.65,1.08-.43,2-1.4,2.46l-.87,1.3-1.41,2.22c.11-.46-1.66-.59-1.5-1.06A18,18,0,0,1,141.2,191Z"/>
              <path class="cls-26" d="M137.87,197c.95-1.41,1.24-.05,2.19.61a4.12,4.12,0,0,0,1.75.64c.27.53-4.23,3.44-5,4,.5-1.23,1.3-2.83.91-3.47Z"/>
              <path class="cls-5" d="M136.69,201.79c1.83-.15,2-1.81,2.15-2.83a8.6,8.6,0,0,0,1.27-1.53c1.89-.59,2.3-.94,1.93-1.84-.65.11-2.17.47-2.72.61-2.8,1.68-3.29,1.78-4.38,5.82l1.17.74Z"/>
            </g>
          </g>
          <path class="cls-44" d="M126.22,216.15c2-4.24,4.34-7.25,6.32-11.1.23-.43.79-.73,1-1.17l.69-1.49a8.72,8.72,0,0,0,4.15,1.8c-.24.49-.31.7-.66,1.48-.19.55.06,1-.14,1.68-1.33,4.26-3.43,11.23-4.87,12.9s-16,14.31-18.54,10c-1.37-2.31-1.59-2.9-.31-4.66C116.35,222.17,124.47,217.64,126.22,216.15Z"/>
        </g>
        <g>
          <path class="cls-5" d="M96.88,331.34a19.29,19.29,0,0,1-.46,2.21,25.43,25.43,0,0,0-.79,3.76,33.81,33.81,0,0,0-.16,6.93c.08,1,.44,1.45.53,2.79l5.46,1.74c-.13-1.16-.29-2.93-.37-4.89-.06-1.74,0-3.64,0-5.37,0-2-.16-3.8,0-4.89Z"/>
          <path class="cls-63" d="M96.56,333.13a10.45,10.45,0,0,0-1.17,3.16c-.25,1.53.15,4-.16,5.91l-.48,3c-.29,1.75,0,3,1.81,4.74,1.63,1.55,3.32,2.32,4.34,2,.75-.25,1.48-1.42.82-4.84a59.75,59.75,0,0,1-.66-8.57,30.45,30.45,0,0,0,.06,6.88c.1.82.15,2.15-.82,2.16-4,0-4-1-4.21-2.28A39.41,39.41,0,0,1,96.56,333.13Z"/>
        </g>
        <g>
          <g>
            <path class="cls-26" d="M107.63,328.56c-2.47,3,.29,2.56.06,6.57,0,.35,1.34,6.47,1.34,6.47s3.66,1,3.94,1,2.55-.83,2.55-.83c-.18-.34-.4-1.15-.55-1.45a24.49,24.49,0,0,1-1.56-7.17,40.63,40.63,0,0,1-.67-4.93Z"/>
            <path class="cls-64" d="M114.49,339.18c.39.73.82,1.76,1.18,2.55a15.28,15.28,0,0,1,.93,2.46,1.16,1.16,0,0,1-.09,1c-.88,1.19-5.32-1-6.8-2.29-1-.85-1-1.85-1.21-3.08-.33-1.84-.39-2-.83-3.93l-.5,5.13-.42.25a57.15,57.15,0,0,0-.64-6.63c-.13-.72-.35-1.53-.38-1.92a4.08,4.08,0,0,1,2-4.12c-.39,1.42.63,3.71,1.1,6.6s2.16,6.33,3.47,6.61c.56.12,1.79-.57,2.45-.95C115,340.7,114.75,339.84,114.49,339.18Z"/>
          </g>
          <path class="cls-6" d="M119.72,260.82c.14,1.39.33,4.85.44,10.09a201.7,201.7,0,0,1-1.1,21.33c-1.4,12.3-3.45,24.43-5.71,36.6-1.06,1.22-3.89,1.45-6.37-.08.07-4-.71-8.94-.41-14.47.41-7.61,2.34-14.31,2.89-21.33a245.84,245.84,0,0,1-1.79-31.27Z"/>
        </g>
        <path class="cls-65" d="M101.77,256.39c-1.51,4.89-4.5,9.36-5.09,13.19-.88,5.76.27,11.06,1.82,23.58a31.82,31.82,0,0,1,.2,6.62c-.36,5.44-1.88,9.28-2.47,14-.71,5.66-.69,13.21-.71,20.72,1.64,1.17,5.23,1.67,6.22.8,1.38-9.16,3.31-17.26,5.06-24.54.8-3.36,1.7-6.88,2.75-10.88a30.11,30.11,0,0,0,1-5.93c.32-5.35.54-11.76.58-17.24,4.41-6.4,7.28-9.54,8.48-12.88a15.09,15.09,0,0,0-.53-4.78Z"/>
        <path class="cls-37" d="M99.28,250.6c2.11,4.9-1.22,7.72.08,11.09l-.64,1.47c3.86,2.77,17.92,5,21.38-.45l.07-2.74c.6-1.31-.08-6-.26-6.87-.55-2.78-.3-4.26-.6-7.47-.08-.86-.16-1.73-.25-2.6,0-.18,0-.36,0-.54a5.25,5.25,0,0,0,2.11-3.08,6.59,6.59,0,0,0-1.05-5.33,22.81,22.81,0,0,1-2.39-4.22,19.86,19.86,0,0,0-.54-2.41,4,4,0,0,0-.64-1.32c-.88-1.26-2.45-1.89-5.19-.74-2.46,1-6.81,2.38-9.63,4.91-1.09,1-3.71,1.46-5.1,3.22a5.59,5.59,0,0,0-.87,2.66C95.42,240.5,97.54,246.58,99.28,250.6Z"/>
        <path class="cls-26" d="M106,221.27a15.1,15.1,0,0,1-.58,7.42c2.09,1.93,5.8,1.11,6.66-.64-.18-1.13-.4-2.17-.52-3.33Z"/>
        <g>
          <g>
            <path class="cls-5" d="M114.62,210.49a8.27,8.27,0,0,1,1.36,5.66,2.35,2.35,0,0,0,.19,1.35,5.34,5.34,0,0,1,.4,4.63c-.47,1.71-.43,2.6-1,3.19a3.42,3.42,0,0,1-2.25.79c-1.56.1-4.23-.93-5.78-1.78-1.15-.63-1.11-1.06-1.59-2.15-1.63-1.41-.57-2.44,0-2.55,1.56-.3,1.81,1.5,2.74,1.89C108.49,218.36,114.51,213,114.62,210.49Z"/>
            <path class="cls-26" d="M114.62,210.49c-.87,3.88-5.94,6.82-6,11C110,217.14,114.94,214.15,114.62,210.49Z"/>
            <g>
              <path class="cls-66" d="M114.83,217.36a3.48,3.48,0,0,1,.55-.8,5.4,5.4,0,0,0,1.18-1.18,3.24,3.24,0,0,1-.91,1.36A4,4,0,0,1,114.83,217.36Z"/>
              <path class="cls-66" d="M113,218.48a2.43,2.43,0,0,0-1.12.36,5.9,5.9,0,0,1-1.14.81,4.9,4.9,0,0,0,1.35-.56C112.45,218.93,112.66,218.61,113,218.48Z"/>
              <path class="cls-67" d="M115.43,222.35a2.82,2.82,0,0,0-.74.39,3.7,3.7,0,0,1-1.76.57,3.11,3.11,0,0,0,2.61-.28C115.63,223,115.8,222.24,115.43,222.35Z"/>
              <path class="cls-26" d="M114.53,218.07c.9,1.7,2.25,1.74.79,3C117.33,220,115.6,219.61,114.53,218.07Z"/>
            </g>
          </g>
          <path class="cls-66" d="M115.48,216.54c.13,0,.23.14.23.32s-.1.33-.23.33-.23-.14-.23-.33S115.35,216.54,115.48,216.54Z"/>
          <path class="cls-66" d="M112.05,218.8c.14,0,.24.12.24.31s-.11.36-.25.36-.25-.16-.25-.36A.29.29,0,0,1,112.05,218.8Z"/>
        </g>
        <g>
          <path class="cls-5" d="M96.72,260.54c.68.41,1.93.81,2.43,1.11.26.16,2.12,1.32,3.17,2s1.43,1.84,2.1,3a7.46,7.46,0,0,1,.75,2.19c.07.5-1.22,1.48-1.77,1.36-1.24-.28-2.52-1.81-2.84-2-2.8-1.44-4.13-1.59-5.14-2.74-.43-.49-.69-1.93-1.58-3.22l1.71-1.55Z"/>
          <path class="cls-44" d="M96.72,233.24c-4.15,2.61-8.39,10.15-12.49,15.43a2.5,2.5,0,0,0-.4,2.84,8.48,8.48,0,0,0,.8,1.46,37.57,37.57,0,0,0,7.72,8.85,2.48,2.48,0,0,0,1.07.51c.26.21.63.6.91.83-.35-.45,1.73-2.68,2.67-2.53-.25-.3-.49-.63-.74-1a1.41,1.41,0,0,0-.28-.89,81.82,81.82,0,0,0-6.17-8.24c2.78-2.25,5.82-4.46,8-7,.57-.66.88-1,1.44-1.66C103.48,236.74,99.47,231.51,96.72,233.24Z"/>
        </g>
      </g>
    </g>
  </g>
</svg>
