<svg id="Capa_1" data-name="Capa 1" xmlns="http://www.w3.org/2000/svg" width="140" height="140" viewBox="0 0 140 140">
  <defs>
    <style>
      .cls-1 {
        fill: #fff;
        stroke: #2f237d;
        stroke-miterlimit: 10;
        stroke-width: 6px;
      }

      .cls-2 {
        fill: #0f0140;
      }
    </style>
  </defs>
  <circle class="cls-1" cx="70" cy="70" r="60"/>
  <g>
    <path class="cls-2" d="M107.31,33.11H72.68a3,3,0,0,0-3,3V42.4A18.25,18.25,0,0,0,41.4,55a49.2,49.2,0,0,1-1.7,7.49l-2.3,7.74a7.77,7.77,0,0,0,3.53,8.92,8,8,0,0,0,4,1h5.81l0,.4a2.45,2.45,0,0,1-2.2,2.14c-2.72.27-5.51.4-8.22.84A12.47,12.47,0,0,0,29.65,96v7.85a1.1,1.1,0,0,0,1.1,1.1H87.29a1.11,1.11,0,0,0,1.11-1.1h0V96A12.48,12.48,0,0,0,77.72,83.59c-2.71-.44-5.49-.57-8.22-.84a2.45,2.45,0,0,1-2.2-2.14l0-.39h6.69a8.08,8.08,0,0,0,4-1,7.76,7.76,0,0,0,3.54-8.92l-.8-2.68,9.59-6.22h17a3,3,0,0,0,3-3V36.15A3,3,0,0,0,107.31,33.11ZM74.6,62.94a2.36,2.36,0,0,1-2.36,2.36H72a33.19,33.19,0,0,0,.77-3.95H74A2.37,2.37,0,0,1,74.6,62.94Zm-4.17-.62-1.05,4.83c-.23,1-.42,2.11-.72,3.14a10.08,10.08,0,0,1-3.6,5.16,11,11,0,0,1-6,2,11.1,11.1,0,0,1-6-2,10.06,10.06,0,0,1-3.2-4,16.54,16.54,0,0,1-.85-3c-.31-1.44-.63-2.88-.94-4.33a20.88,20.88,0,0,1-.6-3.52,25.64,25.64,0,0,0,3.7-.57s0,.08,0,.12a2.33,2.33,0,0,0,4.66,0,2.29,2.29,0,0,0-.52-1.46A15.41,15.41,0,0,0,61.44,54a13,13,0,0,0,2,3.83,2.33,2.33,0,1,0,2.76,2.59,13.07,13.07,0,0,0,4.24,1.81s0,.07,0,.11ZM45.18,60.66A27.18,27.18,0,0,0,46,65.3h-.2a2.36,2.36,0,0,1-.62-4.64ZM59.46,41.5a16,16,0,0,1,10.18,3.65V58.31a3.12,3.12,0,0,0,.41,1.49A10.15,10.15,0,0,1,63,51a1.11,1.11,0,0,0-1.16-1.05,1.1,1.1,0,0,0-.94.64c-3.48,7.56-14.38,7.82-14.66,7.82a4.33,4.33,0,0,0-3.48,1.11c.35-1.48.61-2.86.8-4.19A16.07,16.07,0,0,1,59.46,41.5ZM45,78a5.82,5.82,0,0,1-2.94-.74,5.56,5.56,0,0,1-2.54-6.39l2-6.53a4.57,4.57,0,0,0,4.34,3.16,3.71,3.71,0,0,0,.67-.06c.25,1.13.45,2.28.77,3.39a12.3,12.3,0,0,0,4,6L51.08,78ZM31.85,96A10.28,10.28,0,0,1,39.39,86v16.69H31.85Zm9.75,6.75V85.65l5.63-.55.57,1a13,13,0,0,0,22.31,0l.58-1,5.75.56v17.07ZM86.19,96v6.75H78.65V86A10.27,10.27,0,0,1,86.19,96ZM68.33,84.74l-.12.21A10.75,10.75,0,0,1,49.7,85l-.09-.17a4.64,4.64,0,0,0,3.33-3.89l.2-1.64h0l.13-1a12.24,12.24,0,0,0,11.49,0l.13,1h0l.21,1.64a4.62,4.62,0,0,0,3.23,3.85ZM78.8,68.81l.61,2.07a5.56,5.56,0,0,1-2.53,6.39,5.82,5.82,0,0,1-2.94.74H67l-.14-1.13a12.3,12.3,0,0,0,4-6c.32-1.11.53-2.26.77-3.38a4.46,4.46,0,0,0,3.68-1.09v2.71a1.12,1.12,0,0,0,1.14,1.1A1.22,1.22,0,0,0,77,70Zm29.35-10.5a.84.84,0,0,1-.84.83H90a1.08,1.08,0,0,0-.6.18L77.46,67.05V60.24a1.1,1.1,0,0,0-1.1-1.1H72.68a.85.85,0,0,1-.83-.83V36.15a.84.84,0,0,1,.83-.84h34.63a.85.85,0,0,1,.84.84Z"/>
    <path class="cls-2" d="M76.19,40H90a1.11,1.11,0,0,0,0-2.21H76.19a1.11,1.11,0,0,0,0,2.21Z"/>
    <path class="cls-2" d="M103.8,43.34H76.19a1.11,1.11,0,0,0,0,2.21H103.8a1.11,1.11,0,1,0,0-2.21Z"/>
    <path class="cls-2" d="M103.8,48.91H76.19a1.11,1.11,0,0,0,0,2.21H103.8a1.11,1.11,0,1,0,0-2.21Z"/>
    <path class="cls-2" d="M103.8,54.48H76.19a1.11,1.11,0,0,0,0,2.21H103.8a1.11,1.11,0,1,0,0-2.21Z"/>
    <path class="cls-2" d="M59.15,66.92h1a1.1,1.1,0,1,0,0-2.2h-.71l.32-2.11a1.11,1.11,0,0,0-2.19-.33h0l-.36,2.39a2,2,0,0,0,1.65,2.23Z"/>
    <path class="cls-2" d="M61.51,68.88a3.81,3.81,0,0,1-5.1,0,1.1,1.1,0,0,0-1.7,1.41,6,6,0,0,0,8.5,0,1.1,1.1,0,1,0-1.67-1.44l0,0Z"/>
  </g>
</svg>
