<svg id="Capa_1" data-name="Capa 1" xmlns="http://www.w3.org/2000/svg" width="140" height="140" viewBox="0 0 140 140">
  <defs>
    <style>
      .cls-1, .cls-3 {
        fill: #8b82ca;
      }

      .cls-1 {
        stroke: #2f237d;
        stroke-width: 6px;
      }

      .cls-1, .cls-2, .cls-3 {
        stroke-miterlimit: 10;
      }

      .cls-2 {
        fill: #6558b8;
      }

      .cls-2, .cls-3 {
        stroke: #fff;
        stroke-width: 3px;
      }
    </style>
  </defs>
  <circle class="cls-1" cx="70" cy="70" r="60"/>
  <path class="cls-2" d="M55.72,64.47,34.86,43.61A7.82,7.82,0,0,0,23.8,54.67L39.13,70,23.8,85.33A7.82,7.82,0,0,0,34.86,96.39L55.72,75.53A7.83,7.83,0,0,0,55.72,64.47Z"/>
  <path class="cls-2" d="M88.37,64.47,67.5,43.61A7.82,7.82,0,0,0,56.44,54.67L71.77,70,56.44,85.33A7.82,7.82,0,0,0,67.5,96.39L88.37,75.53A7.83,7.83,0,0,0,88.37,64.47Z"/>
  <path class="cls-3" d="M121,64.47,100.15,43.61A7.82,7.82,0,0,0,89.09,54.67L104.41,70,89.09,85.33a7.82,7.82,0,0,0,11.06,11.06L121,75.53A7.83,7.83,0,0,0,121,64.47Z"/>
</svg>
