<svg xmlns="http://www.w3.org/2000/svg" width="376.66" height="376.16" viewBox="0 0 376.66 376.16">
  <g id="cf5_venta_telefonica" data-name="cf5_venta telefonica" transform="translate(-11.92 -11.92)">
    <g id="Grupo_90498" data-name="Grupo 90498">
      <path id="Trazado_152759" data-name="Trazado 152759" d="M54.68,44.67V30.79a37.28,37.28,0,0,0,0,74.56V91.47a23.4,23.4,0,0,1,0-46.8Z" fill="#8b82ca" opacity="0.69"/>
      <g id="Grupo_90497" data-name="Grupo 90497" opacity="0.5">
        <path id="Trazado_152760" data-name="Trazado 152760" d="M54.68,105.35a37.28,37.28,0,0,0,0-74.56V44.67a23.4,23.4,0,0,1,0,46.8Z" fill="#8b82ca"/>
      </g>
    </g>
    <g id="Grupo_90499" data-name="Grupo 90499">
      <path id="Trazado_152761" data-name="Trazado 152761" d="M200,318.06v70c103.87,0,188.08-84.21,188.08-188.08S303.87,11.92,200,11.92v70a118.06,118.06,0,0,1,0,236.12Z" fill="#cfccd9"/>
      <path id="Trazado_152762" data-name="Trazado 152762" d="M200,11.92C96.13,11.92,11.92,96.13,11.92,200S96.13,388.08,200,388.08v-70a118.06,118.06,0,1,1,0-236.12Z" fill="#d8d5ed"/>
    </g>
    <g id="Grupo_90500" data-name="Grupo 90500">
      <path id="Trazado_152763" data-name="Trazado 152763" d="M65.43,301.43V283a49.587,49.587,0,1,0,0,99.175V363.68a31.128,31.128,0,1,1,0-62.255Z" fill="#cfccd9"/>
      <path id="Trazado_152764" data-name="Trazado 152764" d="M65.43,382.14a49.587,49.587,0,1,0,0-99.175V301.43a31.128,31.128,0,1,1,0,62.255Z" fill="#b2abdb"/>
    </g>
    <g id="Grupo_90536" data-name="Grupo 90536">
      <g id="Grupo_90514" data-name="Grupo 90514">
        <g id="Grupo_90501" data-name="Grupo 90501">
          <path id="Trazado_152765" data-name="Trazado 152765" d="M388.58,199.14v-20.2h-7.66A39.14,39.14,0,0,0,376.8,169l5.42-5.42L367.93,149.3l-5.42,5.42a39.139,39.139,0,0,0-9.93-4.12v-7.66H332.37v7.66a39.139,39.139,0,0,0-9.93,4.12L317,149.3l-14.29,14.29,5.42,5.42a39.5,39.5,0,0,0-4.12,9.93h-7.66v20.2H304a39.2,39.2,0,0,0,4.12,9.93l-5.42,5.43L317,228.78l5.42-5.41a39.869,39.869,0,0,0,9.93,4.12v7.66h20.21v-7.66a39.87,39.87,0,0,0,9.93-4.12l5.42,5.41L382.2,214.5l-5.42-5.43a38.84,38.84,0,0,0,4.12-9.93Zm-46.1,7.4a17.5,17.5,0,1,1,12.4-5.133,17.5,17.5,0,0,1-12.4,5.133Z" fill="#f2d8c2"/>
          <path id="Trazado_152766" data-name="Trazado 152766" d="M327.53,249.76l-3.84-10-3.8,1.46a20.91,20.91,0,0,0-3.93-4.14l1.65-3.72-9.8-4.37-1.66,3.72a20.939,20.939,0,0,0-5.71-.16L299,228.74l-10,3.84,1.45,3.8a21.181,21.181,0,0,0-4.14,3.93l-3.72-1.65-4.37,9.8,3.72,1.66a21.352,21.352,0,0,0-.15,5.71l-3.8,1.45,3.84,10,3.8-1.45a21.48,21.48,0,0,0,3.93,4.14l-1.65,3.72,9.8,4.36,1.66-3.71a21.359,21.359,0,0,0,5.71.15l1.46,3.8,10-3.85-1.46-3.79a21,21,0,0,0,4.14-3.94l3.72,1.66,4.37-9.8-3.72-1.66a20.582,20.582,0,0,0,.15-5.71ZM306.08,262.2a9.3,9.3,0,1,1,5.35-12,9.3,9.3,0,0,1-5.35,12Z" fill="none" stroke="#a2c7eb" stroke-miterlimit="10" stroke-width="1"/>
          <path id="Trazado_152767" data-name="Trazado 152767" d="M294.71,214.62l-2.6-6.77-2.57,1a14.061,14.061,0,0,0-2.65-2.79l1.12-2.52-6.63-3-1.12,2.51a14.23,14.23,0,0,0-3.86-.1l-1-2.57-6.77,2.6,1,2.57a14.061,14.061,0,0,0-2.79,2.65l-2.52-1.11-2.95,6.62,2.51,1.12a14.629,14.629,0,0,0-.1,3.86l-2.57,1,2.6,6.77,2.57-1a14.39,14.39,0,0,0,2.65,2.8l-1.11,2.51,6.62,2.95,1.12-2.51a14.231,14.231,0,0,0,3.86.1l1,2.57,6.77-2.6-1-2.57a14.389,14.389,0,0,0,2.8-2.65l2.51,1.11,2.95-6.62L292,219.46a13.841,13.841,0,0,0,.1-3.86Zm-14.5,8.4a10.855,10.855,0,1,0,0-.02Z" fill="none" stroke="#efba8f" stroke-miterlimit="10" stroke-width="1"/>
        </g>
        <g id="Grupo_90503" data-name="Grupo 90503">
          <path id="Trazado_152768" data-name="Trazado 152768" d="M292.35,96.1a31.88,31.88,0,1,1-9.337-22.583A31.92,31.92,0,0,1,292.35,96.1Z" fill="#6558b8" stroke="#0097d8" stroke-miterlimit="10" stroke-width="1"/>
          <g id="Grupo_90502" data-name="Grupo 90502">
            <circle id="Elipse_5220" data-name="Elipse 5220" cx="10.45" cy="10.45" r="10.45" transform="translate(248.784 76.486) rotate(-7.04)" fill="#fff"/>
            <path id="Trazado_152769" data-name="Trazado 152769" d="M280.23,117.12a32,32,0,0,1-39.59,0c2-9,3.92-16.74,5.87-18.7,2.76-2.77,10.1-4.38,13.91-4.38s11.5,2,12.91,3.38C276.23,100.3,278.72,108.27,280.23,117.12Z" fill="#fff"/>
          </g>
        </g>
        <g id="Grupo_90506" data-name="Grupo 90506">
          <g id="Grupo_90504" data-name="Grupo 90504">
            <path id="Trazado_152770" data-name="Trazado 152770" d="M214.56,174.78V159a7.79,7.79,0,0,1,7.79-7.79H272a7.79,7.79,0,0,1,7.8,7.79v15.76a7.79,7.79,0,0,1-7.79,7.79H222.36a7.79,7.79,0,0,1-7.8-7.77Z" fill="#6558b8"/>
            <path id="Trazado_152771" data-name="Trazado 152771" d="M235.53,173.96,211.5,197.37l38.95-19.69" fill="#6558b8"/>
          </g>
          <g id="Grupo_90505" data-name="Grupo 90505">
            <path id="Trazado_152772" data-name="Trazado 152772" d="M220.59,158.63v-.08a1.15,1.15,0,0,1,1.15-1.16H246.3a1.16,1.16,0,0,1,1.16,1.16v.08a1.16,1.16,0,0,1-1.16,1.16H221.74a1.15,1.15,0,0,1-1.15-1.16Z" fill="#fff"/>
            <path id="Trazado_152773" data-name="Trazado 152773" d="M248.56,158.63v-.08a1.16,1.16,0,0,1,1.16-1.16h21.43a1.15,1.15,0,0,1,1.15,1.16v.08a1.15,1.15,0,0,1-1.15,1.16H249.72a1.16,1.16,0,0,1-1.16-1.16Z" fill="#fff"/>
            <path id="Trazado_152774" data-name="Trazado 152774" d="M239.2,163.91v-.09a1.16,1.16,0,0,1,1.16-1.16h30.79a1.15,1.15,0,0,1,1.15,1.16v.09a1.14,1.14,0,0,1-1.15,1.15H240.36a1.15,1.15,0,0,1-1.16-1.15Z" fill="#fff"/>
            <path id="Trazado_152775" data-name="Trazado 152775" d="M220.59,163.91v-.09a1.15,1.15,0,0,1,1.15-1.16h13.75a1.16,1.16,0,0,1,1.16,1.16v.09a1.15,1.15,0,0,1-1.16,1.15H221.74a1.14,1.14,0,0,1-1.15-1.15Z" fill="#fff"/>
            <path id="Trazado_152776" data-name="Trazado 152776" d="M243.48,169.18v-.08a1.16,1.16,0,0,1,1.16-1.16h26.51a1.15,1.15,0,0,1,1.15,1.16v.08a1.15,1.15,0,0,1-1.15,1.16H244.64a1.16,1.16,0,0,1-1.16-1.16Z" fill="#fff"/>
            <path id="Trazado_152777" data-name="Trazado 152777" d="M220.59,169.18v-.08a1.15,1.15,0,0,1,1.15-1.16h18.32a1.16,1.16,0,0,1,1.16,1.16v.08a1.16,1.16,0,0,1-1.16,1.16H221.74a1.15,1.15,0,0,1-1.15-1.16Z" fill="#fff"/>
            <path id="Trazado_152778" data-name="Trazado 152778" d="M220.59,174.46v-.09a1.15,1.15,0,0,1,1.15-1.16h6.8a1.16,1.16,0,0,1,1.16,1.16v.09a1.16,1.16,0,0,1-1.16,1.16h-6.8a1.15,1.15,0,0,1-1.15-1.16Z" fill="#fff"/>
            <path id="Trazado_152779" data-name="Trazado 152779" d="M232.1,174.46v-.09a1.16,1.16,0,0,1,1.16-1.16h37.89a1.15,1.15,0,0,1,1.15,1.16v.09a1.15,1.15,0,0,1-1.15,1.16H233.26a1.16,1.16,0,0,1-1.16-1.16Z" fill="#fff"/>
          </g>
        </g>
        <g id="Grupo_90511" data-name="Grupo 90511">
          <g id="Grupo_90510" data-name="Grupo 90510">
            <circle id="Elipse_5221" data-name="Elipse 5221" cx="30.71" cy="30.71" r="30.71" transform="translate(23.324 154.394) rotate(-65.05)" fill="#6558b8"/>
            <g id="Grupo_90509" data-name="Grupo 90509">
              <g id="Grupo_90507" data-name="Grupo 90507">
                <circle id="Elipse_5222" data-name="Elipse 5222" cx="7.44" cy="7.44" r="7.44" transform="translate(47.403 150.043) rotate(-19.35)" fill="#fff"/>
                <path id="Trazado_152780" data-name="Trazado 152780" d="M52.98,157.26l-.35-4.72,3.9-2.67,4.27,2.04.36,4.72-3.91,2.68Z" fill="#6558b8"/>
              </g>
              <g id="Grupo_90508" data-name="Grupo 90508">
                <circle id="Elipse_5223" data-name="Elipse 5223" cx="7.44" cy="7.44" r="7.44" transform="translate(61.852 119.948) rotate(-19.67)" fill="#fff"/>
                <path id="Trazado_152781" data-name="Trazado 152781" d="M67.67,126.66l.26-6,4.52-3.95,4.27,2.05-.26,6-4.52,3.95Z" fill="#6558b8"/>
              </g>
              <path id="Trazado_152782" data-name="Trazado 152782" d="M62.05,151.15l-5.7-2.74,4.21-9.7c.27-.62.56-1.22.87-1.82l4.94-9.35,5.7,2.74L68,139.83c-.32.74-.66,1.47-1,2.17Z" fill="#fff"/>
            </g>
          </g>
          <path id="Trazado_152783" data-name="Trazado 152783" d="M85.46,156c1.1-.51,18.72.29,18.72.29l-12.7-11.66Z" fill="#6558b8"/>
        </g>
        <g id="Grupo_90513" data-name="Grupo 90513">
          <circle id="Elipse_5224" data-name="Elipse 5224" cx="30.18" cy="30.18" r="30.18" transform="translate(95.835 91.322) rotate(-66.61)" fill="#3f3466"/>
          <g id="Grupo_90512" data-name="Grupo 90512">
            <rect id="Rectángulo_34914" data-name="Rectángulo 34914" width="2.02" height="25.35" transform="translate(134.51 49.88)" fill="#fff"/>
            <rect id="Rectángulo_34915" data-name="Rectángulo 34915" width="2.02" height="25.69" transform="translate(114.398 91.509) rotate(-124.69)" fill="#fff"/>
            <path id="Trazado_152784" data-name="Trazado 152784" d="M138.3,75.61a2.78,2.78,0,1,1-2.78-2.78A2.78,2.78,0,0,1,138.3,75.61Z" fill="#fff"/>
          </g>
        </g>
      </g>
      <g id="Grupo_90535" data-name="Grupo 90535">
        <g id="Grupo_90534" data-name="Grupo 90534">
          <g id="Grupo_90515" data-name="Grupo 90515">
            <path id="Trazado_152785" data-name="Trazado 152785" d="M190.28,284.23s2,18.61,4.3,20.1c4.06,2.68,51.07,8.87,51.07,8.87l-1.54,12.23S179.72,331.22,177,328c-4.75-5.58-13.09-32.51-13.09-32.51Z" fill="#e06a58"/>
            <path id="Trazado_152786" data-name="Trazado 152786" d="M159.23,236.32l5.2-12.49s14.12,6.63,18.77,14.82c5,8.75,11.07,55.29,11.07,55.29s-24.91,5.74-29.49,3.3S159.23,236.32,159.23,236.32Z" fill="#e88033"/>
          </g>
          <path id="Trazado_152787" data-name="Trazado 152787" d="M119.61,178.35c-3.64-1.33-7.5-2.5-11.4-2.21s-7.89,2.37-9.22,5.8c-.94,2.43-.51,5.29-2,7.48s-4.27,3-6.92,3.15-5.34-.17-8,.17c-8.16,1.09-14,9.95-11.3,17.21,1.06,2.89,3.25,5.66,2.75,8.67-.53,3.23-3.91,5.35-5.3,8.34-1.85,4,.36,8.82,4,11.54s8.38,3.74,13,4.42c6.34,1,12.87,1.39,19.13.06s12.24-4.64,15.48-9.79c1.43-2.28,2.31-4.86,4-7,3.45-4.43,9.56-6.14,14.38-9.28,5.25-3.44,9.11-10.13,6-15.37-3-5-10.75-6.16-13.87-11.12-1.29-2-1.59-4.48-2.43-6.72S125,180.33,119.61,178.35Z" fill="#0a2240"/>
          <g id="Grupo_90516" data-name="Grupo 90516">
            <path id="Trazado_152788" data-name="Trazado 152788" d="M140.85,240.11c.91,1.06,2,2.22,3.5,2.32s2.91-1,3.93-2.1a39.86,39.86,0,0,0,10.16-19.47c-1.31-.74-2.57-1.45-3.71-2.12a5.59,5.59,0,0,1-2.31-2.54,4.87,4.87,0,0,1-.35-2.39,68.591,68.591,0,0,1,3.85-17.93c-11.62-2.63-22.59-5.74-28.9-11-.77,3.25-1.68,9.6-3.61,15.89-2.07,6.67-5.3,13.26-10.77,16.1A115.28,115.28,0,0,1,140.85,240.11Z" fill="#f9a07b"/>
            <path id="Trazado_152789" data-name="Trazado 152789" d="M152.07,213.82a4.85,4.85,0,0,0,.35,2.39c-6.88,8.34-22.26-2.56-29-15.44,1.93-6.29,2.84-12.65,3.61-15.89,6.3,5.27,17.28,8.39,28.9,11a68.66,68.66,0,0,0-3.86,17.94Z" fill="#e06a58"/>
          </g>
          <g id="Grupo_90517" data-name="Grupo 90517">
            <path id="Trazado_152790" data-name="Trazado 152790" d="M171.23,314.7c-1.52,10.07,9.35,20.9,9.62,26.28-23.08,0-71.43,1.41-96-1.94-1.13-6.21,11-20.18,11-34,0-1.82-.07-3.83-.22-6-.39-6.15-1.3-13.48-2.31-21-2.75-20.15-6.4-41.7-3.7-46.16,5.28-8.71,17.64-14.63,23.77-17.17,2.11-.87,3.48-1.34,3.58-1.4,7.69,13.11,23.33,24.3,29.24,23.79,1.64-.13,6.51-1.82,9.72-18,1.25.71,2.51,1.37,3.75,2,6.11,3.18,11.84,5.81,13.49,9.9,4.36,10.76,8.63,37.9,7.69,47.55s-4.87,17.17-7.62,27c-.64,2.29-1.22,4.71-1.69,7.33C171.42,313.45,171.32,314.07,171.23,314.7Z" fill="#eb9d66"/>
            <path id="Trazado_152791" data-name="Trazado 152791" d="M180.85,341c-23.08,0-71.43,1.41-96-1.94-1.13-6.21,11-20.18,11-34,0-1.82-.07-3.83-.22-6-.39-6.15-1.3-13.48-2.31-21,4.37,4.61,10.74-14.86,13.55-9.16,15.26,30.78,27.28,38.88,48.18,38.88a80.74,80.74,0,0,0,18.19-2.27c-.64,2.29-1.22,4.71-1.69,7.33-.11.59-.22,1.2-.31,1.84C169.71,324.76,180.58,335.6,180.85,341Z" fill="#e56c00"/>
            <path id="Trazado_152792" data-name="Trazado 152792" d="M159.67,221.14c-1,7.21-3.93,16.91-12.48,19.47-11.55,3.46-28.27-18.12-33.81-25.85,2.11-.87,3.48-1.34,3.58-1.4,7.69,13.11,23.33,24.3,29.24,23.79,1.64-.13,6.51-1.82,9.72-18C157.17,219.83,158.43,220.49,159.67,221.14Z" fill="#efba8f"/>
          </g>
          <g id="Grupo_90520" data-name="Grupo 90520">
            <g id="Grupo_90519" data-name="Grupo 90519">
              <path id="Trazado_152793" data-name="Trazado 152793" d="M164.42,330.14l-.09,8.04,143.72.86.3-9.12Z" fill="#325f73"/>
              <g id="Grupo_90518" data-name="Grupo 90518">
                <path id="Trazado_152794" data-name="Trazado 152794" d="M370.34,258.42l-3.2-3.24-104.68-.69-52.52,75.95,2.75,2.21Z" fill="#325f73"/>
                <path id="Trazado_152795" data-name="Trazado 152795" d="M264.48,257.3l-51.79,75.35,98.93.49,58.72-74.72Z" fill="#0b2d50"/>
              </g>
            </g>
            <ellipse id="Elipse_5225" data-name="Elipse 5225" cx="11.52" cy="5.76" rx="11.52" ry="5.76" transform="translate(277.96 293.88)" fill="#3c738c"/>
          </g>
          <g id="Grupo_90528" data-name="Grupo 90528">
            <ellipse id="Elipse_5226" data-name="Elipse 5226" cx="16.12" cy="10.64" rx="16.12" ry="10.64" transform="translate(163.593 198.786) rotate(-79.44)" fill="#56c4f9"/>
            <path id="Trazado_152796" data-name="Trazado 152796" d="M187.47,159.34c-1.08,7.63-4.48,16-9.44,25.31-1.75-7.61-2.86-16.87-4.4-26.13s-3.56-18.56-7-26.15a44.61,44.61,0,0,0-2.54-4.76,16.941,16.941,0,0,1,6.1.54,20.46,20.46,0,0,1,8.35,4.56A29.27,29.27,0,0,1,186.65,146a29.86,29.86,0,0,1,.82,13.34Z" fill="#0b2d50"/>
            <g id="Grupo_90521" data-name="Grupo 90521">
              <path id="Trazado_152797" data-name="Trazado 152797" d="M181.64,167.23c0,1.5-.15,3-.29,4.55-2.12,24.66-12.47,41.58-28.32,41.58-22.37,0-36.87-25.09-36.87-49.67,0-24.24,14.85-41.8,32.23-39.76,10,1.14,17.35,4.47,22.55,9.35a30.7,30.7,0,0,1,7.62,11.63,50.649,50.649,0,0,1,3.07,16.74v.06C181.73,163.51,181.71,165.34,181.64,167.23Z" fill="#f9a07b"/>
              <path id="Trazado_152798" data-name="Trazado 152798" d="M181.64,167.23a24.64,24.64,0,0,0-3-6.8,70.41,70.41,0,0,1-43.83,7c-2.84,2.36-5.61,4.69-8.4,7,.06-11.22.21-18.82,4.59-24.25,4.11-5.1,11-7,17.45-7.85a80.79,80.79,0,0,1,22,.13,22.29,22.29,0,0,1,8.11,2.41,50.6,50.6,0,0,1,3.07,16.74v.06C181.73,163.51,181.71,165.34,181.64,167.23Z" fill="#e06a58"/>
            </g>
            <path id="Trazado_152799" data-name="Trazado 152799" d="M184.87,152a41.71,41.71,0,0,1-11.24,6.49c-12.29,5-28.27,6.6-40.72,6-6.12,13.44-8.6,18.26-10.16,30-6-5.61-10.85-15.88-12.3-24a54.81,54.81,0,0,1,1-24.4A36.46,36.46,0,0,1,130,123.77a35.169,35.169,0,0,1,4-1.86c7.89-3,16.78-2.77,24.88-.29a29.63,29.63,0,0,1,11.25,6.54c6.32,5.7,10.22,13.43,12.74,19.21C183.7,149.14,184.34,150.75,184.87,152Z" fill="#0b2d50"/>
            <path id="Trazado_152800" data-name="Trazado 152800" d="M187.47,159.34a37.56,37.56,0,0,0-2.35-7.83,26.31,26.31,0,0,0-2.21-4.15,22.74,22.74,0,0,0-11.84-9.65,44.06,44.06,0,0,0-4.45-5.33,34.42,34.42,0,0,0-19.16-10.11A36.54,36.54,0,0,0,130,123.76a34.429,34.429,0,0,1,4-1.86c7.89-3.05,16.78-2.77,24.88-.29a29.63,29.63,0,0,1,11.25,6.54,20.46,20.46,0,0,1,8.35,4.56A29.27,29.27,0,0,1,186.66,146a30,30,0,0,1,.81,13.34Z" fill="#225570"/>
            <g id="Grupo_90524" data-name="Grupo 90524">
              <g id="Grupo_90522" data-name="Grupo 90522">
                <path id="Trazado_152801" data-name="Trazado 152801" d="M140,174.47a15.71,15.71,0,0,1,14.45-1.24" fill="none" stroke="#0b2d50" stroke-linecap="round" stroke-miterlimit="10" stroke-width="2"/>
                <path id="Trazado_152802" data-name="Trazado 152802" d="M168.36,174.3c3.54-2.64,8.79-2.91,11.52,0" fill="none" stroke="#0b2d50" stroke-linecap="round" stroke-miterlimit="10" stroke-width="2"/>
                <path id="Trazado_152803" data-name="Trazado 152803" d="M164.08,187.78c.36,1.87.17,6-.72,7.88" fill="none" stroke="#cc454e" stroke-linecap="round" stroke-miterlimit="10" stroke-width="2"/>
                <ellipse id="Elipse_5227" data-name="Elipse 5227" cx="1.71" cy="2.69" rx="1.71" ry="2.69" transform="translate(148.4 183.66)" fill="#262d40"/>
                <ellipse id="Elipse_5228" data-name="Elipse 5228" cx="1.71" cy="2.69" rx="1.71" ry="2.69" transform="translate(170.7 182.41)" fill="#262d40"/>
              </g>
              <g id="Grupo_90523" data-name="Grupo 90523">
                <path id="Trazado_152804" data-name="Trazado 152804" d="M162,199.32a13.7,13.7,0,0,1-1,1.53,10.57,10.57,0,0,1-5,3.93h0a6.69,6.69,0,0,1-3.24.21c-3.48-.62-4.4-3.84-4.57-6.31v-1.34a11.088,11.088,0,0,1,.13-1.67C153.8,198.73,162,199.32,162,199.32Z" fill="#cc454e"/>
                <path id="Trazado_152805" data-name="Trazado 152805" d="M162,199.32a13.7,13.7,0,0,1-1,1.53c-2.83,0-8.64-1.49-12.87-3.51a11.09,11.09,0,0,1,.13-1.67C153.8,198.73,162,199.32,162,199.32Z" fill="#fff"/>
                <path id="Trazado_152806" data-name="Trazado 152806" d="M156,204.77a6.69,6.69,0,0,1-3.24.21c-3.48-.62-4.4-3.84-4.57-6.31a9.47,9.47,0,0,1,7.81,6.1Z" fill="#e8729b"/>
              </g>
            </g>
            <g id="Grupo_90527" data-name="Grupo 90527">
              <path id="Trazado_152807" data-name="Trazado 152807" d="M122.8,170.21a64.19,64.19,0,0,1,4.62-23.05c6-14.42,18.34-20.58,30.27-21a32.54,32.54,0,0,1,23.39,9.14s-4.68-8.26-13.92-10.63c-6.06-1.56-15.21-1.81-22.56,1.17-7.56,3.07-17,11.59-20.41,20.6s-5.06,23-5.06,23Z" fill="#3d86e0"/>
              <g id="Grupo_90525" data-name="Grupo 90525">
                <ellipse id="Elipse_5229" data-name="Elipse 5229" cx="11.21" cy="16.99" rx="11.21" ry="16.99" transform="translate(107.915 167.674) rotate(-5.94)" fill="#56c4f9"/>
                <ellipse id="Elipse_5230" data-name="Elipse 5230" cx="7.28" cy="12.8" rx="7.28" ry="12.8" transform="matrix(0.989, -0.149, 0.149, 0.989, 108.741, 173.065)" fill="#3d86e0"/>
              </g>
              <g id="Grupo_90526" data-name="Grupo 90526">
                <ellipse id="Elipse_5231" data-name="Elipse 5231" cx="5.97" cy="3.72" rx="5.97" ry="3.72" transform="translate(151.82 206.27)" fill="#3a92c9"/>
                <path id="Trazado_152808" data-name="Trazado 152808" d="M127.79,197.55s8.77,11.28,24,12.44" fill="none" stroke="#3a92c9" stroke-linecap="round" stroke-miterlimit="10" stroke-width="2"/>
              </g>
            </g>
          </g>
          <g id="Grupo_90533" data-name="Grupo 90533">
            <g id="Grupo_90532" data-name="Grupo 90532">
              <g id="Grupo_90531" data-name="Grupo 90531">
                <g id="Grupo_90529" data-name="Grupo 90529">
                  <path id="Trazado_152809" data-name="Trazado 152809" d="M164.33,308.68l-.57,14.82s-53.62,16.07-62.48,11C97,332,92.93,318.34,89.92,305c-3.16-14-5.18-27.67-5.18-27.67l31.43-6.16s0,19.17,1.09,30.25c.38,4.12.93,7.13,1.66,7.62C121.69,310.87,164.33,308.68,164.33,308.68Z" fill="#f9a07b"/>
                  <path id="Trazado_152810" data-name="Trazado 152810" d="M117.26,301.4c-5.71,1.85-16.74,4.72-27.34,3.59-3.16-14-5.18-27.67-5.18-27.67l31.43-6.16S116.19,290.32,117.26,301.4Z" fill="#e06a58"/>
                </g>
                <g id="Grupo_90530" data-name="Grupo 90530">
                  <path id="Trazado_152811" data-name="Trazado 152811" d="M162.8,308.83c8-1.71,21.48-5.81,27.08-7.22,4-1,14.33,4.36,17.07,9.41,1.19,2.21,2.32,14.71-1.82,13.42-2.08-.65-1.73-6-2.38-8.2-.53-1.78-2.22-3.5-4.79-5,1.72,4.27,1.65,8,1.47,12.62a6.57,6.57,0,0,1-.6,3,2.12,2.12,0,0,1-2.5,1.12c-1-.39-1.27-1.56-1.48-2.59a82,82,0,0,1-1.77-11.15c.07,4,0,7.93-.26,11.88-.19,3-1.69,4.68-3.54,4.15-.82-.23-1.16-1-1.51-2-.55,1.94-2,4.08-3.74,3.26-1.1-.49-1.77-4.44-1.58-8.5a23.87,23.87,0,0,1-11.83,3.26c-4,.18-8.14-.57-10.56-3.3a71.268,71.268,0,0,1,2.74-14.16Z" fill="#f9a07b"/>
                  <path id="Trazado_152812" data-name="Trazado 152812" d="M187.86,327.65a28.48,28.48,0,0,0-.83-9.56" fill="none" stroke="#cc454e" stroke-linecap="round" stroke-miterlimit="10" stroke-width="1"/>
                </g>
              </g>
              <path id="Trazado_152813" data-name="Trazado 152813" d="M112.64,240.08C110.36,233.65,102,220.5,102,220.5s-12.75,5.31-17.28,14.31c-7.66,15.24-3.76,59-3.76,59,10.32,4.32,31,4.38,39.85,3.14C120.82,297,117.21,252.92,112.64,240.08Z" fill="#eb9d66"/>
            </g>
            <path id="Trazado_152814" data-name="Trazado 152814" d="M114.26,242.76a284.054,284.054,0,0,1,5.94,47.37" fill="none" stroke="#f2ae30" stroke-linecap="round" stroke-miterlimit="10" stroke-width="1"/>
          </g>
        </g>
        <rect id="Rectángulo_34916" data-name="Rectángulo 34916" width="365.58" height="9.17" transform="translate(21.56 336.39)" fill="#0b2d50"/>
      </g>
    </g>
  </g>
</svg>
