<svg id="cf5_guion_copia" data-name="cf5_guion copia" xmlns="http://www.w3.org/2000/svg" width="110" height="110" viewBox="0 0 110 110">
  <rect id="Rect치ngulo_34930" data-name="Rect치ngulo 34930" width="110" height="110" fill="none"/>
  <rect id="Rect치ngulo_34931" data-name="Rect치ngulo 34931" width="110" height="110" fill="none"/>
  <circle id="Elipse_5237" data-name="Elipse 5237" cx="50" cy="50" r="50" transform="translate(5 5)" fill="#6558b8"/>
  <g id="Grupo_90579" data-name="Grupo 90579">
    <path id="Trazado_153092" data-name="Trazado 153092" d="M5.48,50.63c.15-.77.31-1.53.46-2.29A29.52,29.52,0,0,1,24.6,41.66c.25,2.15.38,4.31.77,6.43a29.31,29.31,0,0,0,4.37,10.27l-4.7.18c-.06,0-.11-.11-.16-.12-3,0-6-.11-8.93,0a2.76,2.76,0,0,0-2.54,3.19,2.64,2.64,0,0,0,2.42,2.44h9l7.89.07-1,5.07-.19.2H15.34a2.21,2.21,0,0,0-1.57.65,1.77,1.77,0,0,0-.14,1.65,2.24,2.24,0,0,0,1.62.89c5.37.07,10.73,0,16.09,0v4.06H15.28a1.7,1.7,0,0,0-1.86,1.5A1.84,1.84,0,0,0,15,80.11a4.351,4.351,0,0,0,.81,0H30.49a6.762,6.762,0,0,0,1.11-.07c-.28-.4-.48-.66-.65-.94-.68-1.12.24-1.72.8-2.44H56.82a1.82,1.82,0,0,1,1.84,1.44,1.79,1.79,0,0,1-1.54,2,5.82,5.82,0,0,1-1.11.06H33.18a9.81,9.81,0,0,0-1.27.06c.28,1,.55,1.89.75,2.78a1.471,1.471,0,0,0,1.71,1.25h22.4a1.64,1.64,0,0,1,1.76,1.05c.47,1.19-.36,2.23-1.79,2.23h-22a3,3,0,0,0,.06.39,3.739,3.739,0,0,0,.22.45,25.49,25.49,0,0,0,7.2,7.91c2.59,1.76,5.4,3.19,8.12,4.76-1.93.22-3.13,1.49-4.22,2.93a47.91,47.91,0,0,1-13.89-4.8A50.28,50.28,0,0,1,18.41,88.46c-.27-.3-.51-.63-.76-.95h14c-1.12-1.23-1.15-1.68-.2-3.27H15A47.73,47.73,0,0,1,6.52,65.12c-.39-1.91-.57-3.87-.86-5.81A1.19,1.19,0,0,0,5.48,59Z" fill="#01a6fb"/>
    <path id="Trazado_153093" data-name="Trazado 153093" d="M80.85,12.05a29.07,29.07,0,0,1,21.6,10.21,28.7,28.7,0,0,1,7.14,16.52,29,29,0,0,1-4.07,18.12c-.12.2-.2.43-.3.64l-1,1.38a30,30,0,0,1-10.21,9,30.79,30.79,0,0,1-13.93,3.54h-9.4c-.88-.84-1.78-1.65-2.64-2.52a37.45,37.45,0,0,1-6.8-9c-.62-1.2-1.07-2.49-1.66-3.9H87.39a4.1,4.1,0,0,0,1.11-.09A1.76,1.76,0,0,0,89.73,54c-.19-1-.91-1.5-2.21-1.5H58.64l-.39-4.05,1,.15c.64-.06,1.28-.16,1.91-.16H87.74c1.28,0,2-.58,2.07-1.59s-1-1.67-2.13-1.67H58.45l.61-4H87.64a2.9,2.9,0,0,0,.51,0,1.69,1.69,0,0,0,1.58-1.59,1.51,1.51,0,0,0-1.26-1.71,6.39,6.39,0,0,0-1.3-.14H60.08l2.64-5.1h1.11a2.9,2.9,0,0,0,2.6-1.82,2.66,2.66,0,0,0-.53-2.93,3.78,3.78,0,0,0-3.19-.94c-.36-.61-.74-1.21-1.09-1.83-1.66-2.95-2.68-6-1.29-9.36A26.82,26.82,0,0,1,62.52,12H79.44a6.105,6.105,0,0,0,1.21-.08h0Z" fill="#fae253"/>
    <path id="Trazado_153094" data-name="Trazado 153094" d="M15,84.24H31.42c-1,1.59-.92,2,.2,3.27h-14Z" fill="#008ffa"/>
    <path id="Trazado_153095" data-name="Trazado 153095" d="M80.85,12.05l-.23-.13Z" fill="#013470"/>
    <path id="Trazado_153096" data-name="Trazado 153096" d="M24.6,41.66a29.46,29.46,0,0,1,5.88-17.57C35.43,17.52,42,13.37,50.15,12.38c4.08-.49,8.24-.28,12.37-.38a26.819,26.819,0,0,0-2.19,3.6C58.94,18.93,60,22,61.62,25c.35.62.73,1.22,1.09,1.83H47.43a2.93,2.93,0,0,0-3,2.8,2.9,2.9,0,0,0,2.91,2.9H62.77l-2.64,5.1H87.17a6.39,6.39,0,0,1,1.3.14,1.51,1.51,0,0,1,1.26,1.71A1.69,1.69,0,0,1,88.15,41a2.9,2.9,0,0,1-.51,0H59.24c-1.31-1.65-1.32-1.74-.35-3a.431.431,0,0,1,.06-.26c.06-.08-.13-.13-.18-.13H46.24a1.55,1.55,0,0,0-1.66,1.47c-.11,1.26.52,1.95,1.85,2H59.06c-.21,1.35-.41,2.7-.61,4h-12c-1.24,0-1.88.55-1.89,1.59s.58,1.66,1.9,1.67H58.23l.39,4.05H46.56c-1.28,0-1.9.52-2,1.56-.09,1.26.55,1.88,2,1.89H59.33C58,54.54,58,54.35,59,52.76a.88.88,0,0,0,.06-.29H87.52c1.3,0,2,.52,2.21,1.5a1.76,1.76,0,0,1-1.23,1.87,4.1,4.1,0,0,1-1.11.09H59.56a40.827,40.827,0,0,0,1.66,3.9,37.45,37.45,0,0,0,6.8,9c.86.87,1.76,1.68,2.64,2.52-2.53.51-3.67,1.87-3.67,4.41v4.68a1.37,1.37,0,0,1-.58,1c-.23.12-.71-.18-1-.37a3.29,3.29,0,0,1-.64-.65l-7.7-7.82c-.79-.4-1.58-1.13-2.38-1.14A35,35,0,0,1,43.4,69.35a35.18,35.18,0,0,1-9.12-5.74l-4.54-5.25a29.31,29.31,0,0,1-4.37-10.27C25,46,24.85,43.81,24.6,41.66Z" fill="#fcc333"/>
    <path id="Trazado_153097" data-name="Trazado 153097" d="M57.07,72.6l7.64,7.86a3.29,3.29,0,0,0,.64.65c.32.19.8.49,1,.37a1.37,1.37,0,0,0,.58-1c.07-1.56,0-3.12,0-4.68,0-2.54,1.14-3.9,3.67-4.41H80A29.67,29.67,0,0,1,50.35,101c-2.72-1.57-5.53-3-8.12-4.76A25.49,25.49,0,0,1,35,88.33a3.74,3.74,0,0,1-.22-.45,3,3,0,0,1-.06-.39h22c1.43,0,2.26-1,1.79-2.23a1.64,1.64,0,0,0-1.76-1.05H34.35c-1,0-1.5-.3-1.71-1.25s-.47-1.75-.75-2.78c.5,0,.88-.06,1.27-.06H56a5.82,5.82,0,0,0,1.11-.06,1.79,1.79,0,0,0,1.54-2,1.82,1.82,0,0,0-1.84-1.44H31.35V72.63h.39Z" fill="#33b8fc"/>
    <path id="Trazado_153098" data-name="Trazado 153098" d="M57.07,72.6H31.75c-1.31-1.07-1.36-1.76-.2-3.26l.19-.2a4.72,4.72,0,0,0,1,.19H43.42a35,35,0,0,0,11.29,2.11C55.49,71.47,56.28,72.2,57.07,72.6Z" fill="#01a6fa"/>
    <path id="Trazado_153099" data-name="Trazado 153099" d="M31.36,76.69h.39c-.56.72-1.48,1.32-.8,2.44.17.28.37.54.65.94-.47,0-.79.07-1.11.07H15.84a4.35,4.35,0,0,1-.81,0,1.84,1.84,0,0,1-1.61-1.91,1.7,1.7,0,0,1,1.86-1.5h4.27Z" fill="#008ffa"/>
    <path id="Trazado_153100" data-name="Trazado 153100" d="M24.86,64c-3,0-6,.06-9,0a2.64,2.64,0,0,1-2.42-2.44A2.76,2.76,0,0,1,16,58.42c3-.11,5.95,0,8.93,0,.05,0,.1.08.16.12-1.19.91-2.17,2-1.59,3.58A8.36,8.36,0,0,0,24.86,64Z" fill="#33b8fc"/>
    <path id="Trazado_153101" data-name="Trazado 153101" d="M31.55,69.36c-1.16,1.5-1.11,2.19.2,3.26H15.27a2.24,2.24,0,0,1-1.62-.89A1.77,1.77,0,0,1,13.79,70a2.21,2.21,0,0,1,1.57-.65C20.76,69.34,26.15,69.36,31.55,69.36Z" fill="#008efa"/>
    <path id="Trazado_153102" data-name="Trazado 153102" d="M24.86,64a8.36,8.36,0,0,1-1.41-1.9c-.58-1.61.4-2.67,1.59-3.58l4.7-.18,4.54,5.25-1.53.48Z" fill="#65d0fa"/>
    <path id="Trazado_153103" data-name="Trazado 153103" d="M32.75,64.09l1.53-.48a35.18,35.18,0,0,0,9.12,5.74H32.72a4.72,4.72,0,0,1-1-.19Q32.24,66.63,32.75,64.09Z" fill="#33b8fb"/>
    <path id="Trazado_153104" data-name="Trazado 153104" d="M59.25,45.13H87.66c1.17,0,2.16.78,2.13,1.67s-.79,1.59-2.07,1.59H61.14c-.63,0-1.27.1-1.91.16C57.92,46.72,57.92,46.22,59.25,45.13Z" fill="#fcc333"/>
    <path id="Trazado_153105" data-name="Trazado 153105" d="M62.72,32.49H56.43c-.23-.13-.47-.26-.69-.41a2.8,2.8,0,0,1,0-4.81c.23-.15.47-.28.7-.41h6.28a3.78,3.78,0,0,1,3.19.94,2.66,2.66,0,0,1,.53,2.93,2.9,2.9,0,0,1-2.6,1.82A10.646,10.646,0,0,0,62.72,32.49Z" fill="#fdeeaf"/>
    <path id="Trazado_153106" data-name="Trazado 153106" d="M59,52.47a.88.88,0,0,1-.06.29c-1,1.59-1,1.78.35,3.16H46.6c-1.47,0-2.11-.63-2-1.89.08-1,.7-1.56,2-1.56H59Z" fill="#f7a42b"/>
    <path id="Trazado_153107" data-name="Trazado 153107" d="M59.06,41.06H46.43c-1.33,0-2-.7-1.85-2a1.55,1.55,0,0,1,1.66-1.47H58.77s.1.07.18.13,0,.19-.06.26c-1,1.3-1,1.39.35,3Z" fill="#f7a42b"/>
    <path id="Trazado_153108" data-name="Trazado 153108" d="M59.25,45.13c-1.33,1.09-1.33,1.59,0,3.43l-1-.15H46.48c-1.32,0-1.91-.52-1.9-1.67s.65-1.59,1.89-1.59h12Z" fill="#f7a32b"/>
    <path id="Trazado_153109" data-name="Trazado 153109" d="M56.43,26.83c-.23.13-.47.26-.7.41a2.8,2.8,0,0,0,0,4.81c.22.15.46.28.69.41H47.28a2.9,2.9,0,0,1-2.91-2.9,2.93,2.93,0,0,1,3-2.8Z" fill="#fae254"/>
  </g>
</svg>
