<svg xmlns="http://www.w3.org/2000/svg" xmlns:xlink="http://www.w3.org/1999/xlink" width="400" height="400" viewBox="0 0 400 400">
  <defs>
    <style>
      .cls-1 {
        isolation: isolate;
      }

      .cls-2 {
        fill: #d8d5ed;
      }

      .cls-3 {
        fill: #cfccd9;
      }

      .cls-4 {
        fill: #ffa89c;
      }

      .cls-5 {
        fill: #32425b;
      }

      .cls-6 {
        fill: #384c68;
      }

      .cls-7 {
        fill: #3e2ea6;
      }

      .cls-8 {
        fill: #965f7e;
        opacity: 0.18;
      }

      .cls-10, .cls-11, .cls-23, .cls-39, .cls-40, .cls-43, .cls-8, .cls-9 {
        mix-blend-mode: multiply;
      }

      .cls-9 {
        fill: #3c80d3;
      }

      .cls-23, .cls-43, .cls-9 {
        opacity: 0.3;
      }

      .cls-10 {
        fill: #7baeff;
        opacity: 0.15;
      }

      .cls-11, .cls-37 {
        fill: #3e6593;
      }

      .cls-11 {
        opacity: 0.28;
      }

      .cls-12 {
        fill: #438ac5;
      }

      .cls-13 {
        fill: #77bef9;
      }

      .cls-14 {
        fill: url(#Degradado_sin_nombre_8);
      }

      .cls-15, .cls-23 {
        fill: #9f99b3;
      }

      .cls-16, .cls-26 {
        fill: #e9f6ff;
      }

      .cls-16 {
        mix-blend-mode: overlay;
        opacity: 0.2;
      }

      .cls-17, .cls-43 {
        fill: #6f678c;
      }

      .cls-18 {
        fill: #b2abdb;
      }

      .cls-19 {
        fill: #fff;
      }

      .cls-20 {
        fill: #ed8433;
      }

      .cls-21 {
        fill: #f4bf94;
      }

      .cls-22 {
        fill: #f7ddc7;
      }

      .cls-24 {
        fill: #4ea0d8;
      }

      .cls-25 {
        fill: #d9f5ff;
      }

      .cls-27 {
        fill: #3f3466;
      }

      .cls-28 {
        fill: #dcedf9;
      }

      .cls-29 {
        fill: #c0dff2;
      }

      .cls-30 {
        fill: #cee6f2;
      }

      .cls-31 {
        fill: #b9deed;
      }

      .cls-32 {
        fill: #e3f5fc;
      }

      .cls-33 {
        fill: #091320;
      }

      .cls-34 {
        fill: #4483c1;
      }

      .cls-35 {
        fill: #427db7;
      }

      .cls-36 {
        fill: #d7ecf4;
      }

      .cls-38 {
        fill: #ebfbff;
      }

      .cls-39 {
        fill: #7daaea;
        opacity: 0.42;
      }

      .cls-40 {
        fill: #659cdb;
        opacity: 0.22;
      }

      .cls-41 {
        fill: #e29191;
      }

      .cls-42 {
        fill: #134470;
      }

      .cls-44 {
        fill: #4d9edb;
      }

      .cls-45 {
        fill: #e4f0f9;
      }

      .cls-46 {
        fill: #2b3b51;
      }

      .cls-47 {
        fill: #efa0a0;
      }

      .cls-48 {
        fill: #594732;
      }
    </style>
    <linearGradient id="Degradado_sin_nombre_8" data-name="Degradado sin nombre 8" x1="75.36" y1="132.01" x2="158.29" y2="132.01" gradientUnits="userSpaceOnUse">
      <stop offset="0" stop-color="#9f99b3"/>
      <stop offset="1" stop-color="#cfccd9"/>
    </linearGradient>
  </defs>
  <g class="cls-1">
    <g id="Capa_1" data-name="Capa 1">
      <path class="cls-2" d="M200,81.94v-70C96.13,11.92,11.92,96.13,11.92,200S96.13,388.08,200,388.08v-70a118.06,118.06,0,0,1,0-236.12Z"/>
      <path class="cls-3" d="M200,388.08c103.87,0,188.08-84.21,188.08-188.08S303.87,11.92,200,11.92v70a118.06,118.06,0,0,1,0,236.12Z"/>
      <g id="_2" data-name="2">
        <g>
          <g id="_2-2" data-name="2">
            <g>
              <path class="cls-4" d="M297.26,300.48s-1.08,4.54-5.13,6.06.85-6.8.85-6.8Z"/>
              <path class="cls-5" d="M287.24,306.64a42.74,42.74,0,0,0,5-5.67c-.63,1.11-1.09,2.24-.49,2.38,2,.49,5-3.12,6.42-4.47.45-.42.52-.59.53-.66.82,2.61.52,3.88-.27,4.77a9.74,9.74,0,0,0-1.55,3.87s-1,1.2-1.46.35c0,0,.25-1.11-.26-1.51a12.57,12.57,0,0,0-1.64,3.08c-1.42,3.5-7.48,4.3-9,3.14C283.37,311,285,308.82,287.24,306.64Z"/>
              <path class="cls-6" d="M284.21,310.38a9.38,9.38,0,0,1,2.93-3.6,26.57,26.57,0,0,0,4.64-4.82c-.31.72-.41,1.29,0,1.39,1.17.29,3.14-1.26,4.59-2.61h0a22.74,22.74,0,0,1-3.32,3.47c-1.24.83-2.26,7-6.05,7.42C284.18,311.92,284.08,310.91,284.21,310.38Z"/>
              <path class="cls-7" d="M294.44,206.85c5.15-.55,7.36,8.45,12.53,8.53-1.94,13.17-6.26,28.27-7,34.44-.32,2.25,2.73,7.22,2.24,14.34-.24,3.49-3.05,35.27-3.25,35.33-2.57,3.07-7.44,2.45-6.54,1.26.4-.52-1.37-23.09-3.13-45.18-.16-2-.95-11.61-1.24-14.33,0-.29-2.16-26,2.4-41.32C292.11,199.87,292.75,207,294.44,206.85Z"/>
              <path class="cls-8" d="M293.34,215.46c4.91-.48,8.68-.17,13.61-.08h0c-1.94,13.17-6.26,28.27-7,34.44-.32,2.25,2.73,7.22,2.24,14.34-.24,3.49-3.05,35.27-3.25,35.33a6.35,6.35,0,0,1-3.76,2.12,11.63,11.63,0,0,0,2-3.29c4.16-27.82.24-41.6-1.7-45.55,1.86-5.21,1.75-11.48,1.62-16.58C297,229.91,297.48,221,293.34,215.46Z"/>
              <path class="cls-4" d="M305.41,304.74s-1.08,4.54-5.14,6.06.86-6.8.86-6.8Z"/>
              <path class="cls-5" d="M295.75,313.12a52.37,52.37,0,0,0,5.12-8.92c-.53,1.47-1.44,4.4-.49,4.83,1.89.85,5-4,5-4h0c.64-1,.62-1.37.62-1.37a4.71,4.71,0,0,1,.57,4h0l0,0a4.39,4.39,0,0,1-.81,1.36,8,8,0,0,0-1.14,3.2s-.78.92-1.26.59a10.27,10.27,0,0,1-.93,2.53c-1.76,3.34-6.4,5-7.75,3.66C293.56,317.92,294,315.71,295.75,313.12Z"/>
              <path class="cls-6" d="M295.93,313.07a57.68,57.68,0,0,0,4.53-7.64c-.45,1.48-.81,3.27-.08,3.6,1.64.74,4.22-2.85,4.87-3.81a3.52,3.52,0,0,1-.64,1.31c-.85,1.11-3.16,3.46-3.28,5.44s-1.48,6.87-5.24,6.22C293,317.66,295.93,313.07,295.93,313.07Z"/>
              <path class="cls-7" d="M289.53,208c0-5,1-12.16,5.55-13.38,1.33-.36,14.46,5.09,15.91,5.24,6.46.64,11.25,10.45,10.58,17.38-1.36,14.1-6.81,32.56-7.59,39.54-.32,2.25,1.53,6.69.45,15.34-.43,3.48-7.12,28.19-7.13,28.29A24.09,24.09,0,0,1,306,304.6c-1,1.59-3.52,2.78-5.33,2.07s-.47-4.2-.52-4.62a134.85,134.85,0,0,0,2.57-39.25c-.16-2-.34-11.86-.63-14.58,0-.38-2.32-26.76-2.32-26.76C299.77,221.74,289.53,213.9,289.53,208Z"/>
              <path class="cls-9" d="M321.57,217.26c-1.37,14.1-6.81,32.56-7.59,39.54-.32,2.25,1.53,6.69.45,15.34-.43,3.48-7.12,28.19-7.13,28.29A24.09,24.09,0,0,1,306,304.6a5.12,5.12,0,0,1-2,1.72,5.39,5.39,0,0,0,.22-.64c10.48-38.45,5.49-47.4,4.67-47.38-.3,0-.58,0-.88,0,.44-8.19,3.81-16.74,3.82-24.76,0-9.87-4.37-21.29-13.25-24.43.75-4.48,1.29-4.71,1.89-7.39,2.49-.61,4.93-1.05,6.55-1.48a11.75,11.75,0,0,1,3.86-.36l.16,0C317.45,200.52,322.24,210.33,321.57,217.26Z"/>
            </g>
          </g>
          <g id="_12" data-name="12">
            <polygon class="cls-5" points="290.05 293.13 290.05 293.13 290.05 293.13 290.05 293.13"/>
            <g>
              <path class="cls-10" d="M316.59,187.47l-.63-.08Z"/>
              <path class="cls-11" d="M318.79,186.38l0,0Z"/>
            </g>
          </g>
        </g>
        <g>
          <g>
            <path class="cls-9" d="M203.08,248.38l-80.4-44.73-14.87,13.9L63.37,243.21a2.12,2.12,0,0,0,2.12,3.68l29.75-17.18H128l40,22.69-44.18,25.51a2.12,2.12,0,0,0,1.06,4,2.16,2.16,0,0,0,1.06-.28l50.09-28.92H202A2.29,2.29,0,0,0,203.08,248.38Z"/>
            <path class="cls-12" d="M61,245.57a2.12,2.12,0,0,1-1.06-4l54.2-31.3a2.13,2.13,0,0,1,2.13,3.68L62.08,245.28A2.14,2.14,0,0,1,61,245.57Z"/>
            <path class="cls-12" d="M121.49,280.27a2.12,2.12,0,0,1-1.06-4l54.2-31.3a2.12,2.12,0,0,1,2.12,3.68L122.55,280A2,2,0,0,1,121.49,280.27Z"/>
            <path class="cls-13" d="M164.48,253.4v.19a2.17,2.17,0,0,1-1.31,1.74,6.25,6.25,0,0,1-3.08.76,5.28,5.28,0,0,1-1.89-.32h0a2.75,2.75,0,0,1-.49-.23l-81.38-47c-1.41-.81-1.24-2.23.38-3.16a6.45,6.45,0,0,1,3.12-.79,4.88,4.88,0,0,1,2.37.55l76,43.88,5.39,3.12A1.54,1.54,0,0,1,164.48,253.4Z"/>
            <path class="cls-12" d="M88.89,228.47a2.12,2.12,0,0,1-2.12-2.12V192.72a2.12,2.12,0,0,1,4.24,0v33.63A2.12,2.12,0,0,1,88.89,228.47Z"/>
            <path class="cls-12" d="M149.83,262.41a2.12,2.12,0,0,1-2.12-2.13V228.21a2.12,2.12,0,1,1,4.24,0v32.07A2.12,2.12,0,0,1,149.83,262.41Z"/>
            <polygon class="cls-14" points="158.29 56.67 158.29 255.81 75.36 207.26 75.36 8.22 158.29 56.67"/>
            <path class="cls-15" d="M164.48,54.47V253.59a2.17,2.17,0,0,1-1.31,1.74,6.25,6.25,0,0,1-3.08.76,5.28,5.28,0,0,1-1.89-.32h0V55.89Z"/>
            <path class="cls-2" d="M157.69,56.6,76.3,9.61c-1.4-.81-1.22-2.23.4-3.16h0a6.08,6.08,0,0,1,5.48-.23l81.38,47c1.4.8,1.22,2.23-.39,3.16h0A6.11,6.11,0,0,1,157.69,56.6Z"/>
          </g>
          <polygon class="cls-16" points="158.29 111.01 75.36 158.9 75.36 207.26 158.29 255.81 158.29 111.01"/>
          <path class="cls-9" d="M156.4,110.05v6a4,4,0,0,1-6,3.49L99.71,90.43Z"/>
          <path class="cls-9" d="M156.4,163.73v6a4,4,0,0,1-6,3.49L99.71,144.11Z"/>
          <path class="cls-9" d="M156.4,217.11v6a4,4,0,0,1-6,3.49L99.71,197.48Z"/>
          <path class="cls-17" d="M141.27,116.08,70.64,75.3c-2.8-1.62-2.45-4.45.79-6.32l1.44-.83c3.24-1.88,8.14-2.08,10.95-.46l70.62,40.78c2.81,1.62,2.46,4.45-.78,6.32l-1.44.83C149,117.49,144.08,117.7,141.27,116.08Z"/>
          <path class="cls-2" d="M141.27,114.67,70.64,73.9c-2.8-1.63-2.45-4.46.79-6.33l1.44-.83c3.24-1.87,8.14-2.07,10.95-.45l70.62,40.77c2.81,1.63,2.46,4.46-.78,6.33l-1.44.83C149,116.09,144.08,116.29,141.27,114.67Z"/>
          <polygon class="cls-9" points="102.83 83.53 113.75 83.53 113.75 61.61 107.03 46.55 102.83 83.53"/>
          <polygon class="cls-9" points="138.87 103.87 149.78 103.87 149.78 81.96 143.06 66.89 138.87 103.87"/>
          <path class="cls-17" d="M141.27,169.3,70.64,128.53c-2.8-1.63-2.45-4.46.79-6.33l1.44-.83c3.24-1.87,8.14-2.07,10.95-.45l70.62,40.77c2.81,1.63,2.46,4.46-.78,6.33l-1.44.83C149,170.72,144.08,170.92,141.27,169.3Z"/>
          <path class="cls-2" d="M141.27,167.9,70.64,127.12c-2.8-1.62-2.45-4.45.79-6.32l1.44-.83c3.24-1.87,8.14-2.08,10.95-.46l70.62,40.78c2.81,1.62,2.46,4.45-.78,6.32l-1.44.83C149,169.32,144.08,169.52,141.27,167.9Z"/>
          <path class="cls-17" d="M141.27,222.53,70.64,181.75c-2.8-1.62-2.45-4.45.79-6.32l1.44-.83c3.24-1.87,8.14-2.08,10.95-.46l70.62,40.78c2.81,1.62,2.46,4.45-.78,6.32l-1.44.83C149,224,144.08,224.15,141.27,222.53Z"/>
          <polygon class="cls-9" points="102.83 136.85 113.75 136.85 113.75 114.94 107.03 99.87 102.83 136.85"/>
          <polygon class="cls-9" points="138.87 157.2 149.78 157.2 149.78 135.29 143.06 120.22 138.87 157.2"/>
          <path class="cls-2" d="M141.27,221.12,70.64,180.35c-2.8-1.62-2.45-4.45.79-6.32l1.44-.83c3.24-1.88,8.14-2.08,10.95-.46l70.62,40.78c2.81,1.62,2.46,4.45-.78,6.32l-1.44.83C149,222.54,144.08,222.75,141.27,221.12Z"/>
          <polygon class="cls-18" points="106.83 80.66 102.8 83.44 86.78 34.85 107.03 46.55 106.83 80.66"/>
          <polygon class="cls-9" points="102.83 189.38 113.75 189.38 113.75 167.46 107.03 152.4 102.83 189.38"/>
          <polygon class="cls-9" points="138.87 209.72 149.78 209.72 149.78 187.81 143.06 172.75 138.87 209.72"/>
          <polygon class="cls-19" points="102.83 83.53 82.59 71.83 86.38 35.16 106.63 46.84 102.83 83.53"/>
          <polygon class="cls-18" points="142.92 101 138.88 103.79 122.86 55.2 143.11 66.89 142.92 101"/>
          <polygon class="cls-19" points="138.92 103.87 118.67 92.18 122.46 55.5 142.71 67.19 138.92 103.87"/>
          <polygon class="cls-20" points="126.84 67.42 123.98 65.77 124.52 60.58 127.38 62.23 126.84 67.42"/>
          <polygon class="cls-20" points="131.81 70.13 128.94 68.47 129.48 63.29 132.34 64.94 131.81 70.13"/>
          <polygon class="cls-20" points="126.02 74.19 123.15 72.53 123.69 67.35 126.55 69 126.02 74.19"/>
          <polygon class="cls-20" points="130.98 76.89 128.11 75.24 128.65 70.05 131.51 71.71 130.98 76.89"/>
          <polygon class="cls-18" points="106.83 133.48 102.8 136.26 86.78 87.68 107.03 99.37 106.83 133.48"/>
          <polygon class="cls-19" points="102.83 136.35 82.59 124.66 86.38 87.98 106.63 99.67 102.83 136.35"/>
          <polygon class="cls-18" points="142.92 153.83 138.88 156.61 122.86 108.03 143.11 119.72 142.92 153.83"/>
          <polygon class="cls-19" points="138.92 156.7 118.67 145.01 122.46 108.33 142.71 120.02 138.92 156.7"/>
          <polygon class="cls-21" points="131.07 132.55 122.73 127.74 124.3 112.63 132.63 117.44 131.07 132.55"/>
          <path class="cls-21" d="M130.08,135c-5.69,1-7.84,5.22-8.66,8.59l15.84,9.15,3.25-31.41-3.78-2.18C137.13,125,136.66,133.92,130.08,135Z"/>
          <path class="cls-20" d="M129.68,82.12c-5.69,1-7.85,5.21-8.66,8.59l15.84,9.14,3.25-31.41-3.78-2.18C136.73,72,136.26,81,129.68,82.12Z"/>
          <polygon class="cls-18" points="106.83 186.41 102.8 189.19 86.78 140.61 107.03 152.3 106.83 186.41"/>
          <polygon class="cls-19" points="102.83 189.28 82.59 177.59 86.38 140.91 106.63 152.6 102.83 189.28"/>
          <polygon class="cls-22" points="93.38 158.51 88.07 155.44 89.06 145.81 94.38 148.88 93.38 158.51"/>
          <path class="cls-22" d="M94.07,167.82c-5.69,1-7.85,5.21-8.66,8.59l15.84,9.15,3.25-31.41L100.72,152C101.12,157.73,100.65,166.7,94.07,167.82Z"/>
          <polygon class="cls-18" points="142.92 206.76 138.88 209.54 122.86 160.96 143.11 172.65 142.92 206.76"/>
          <polygon class="cls-19" points="138.92 209.63 118.67 197.94 122.46 161.25 142.71 172.94 138.92 209.63"/>
          <g>
            <path class="cls-18" d="M101.44,81.3a.22.22,0,0,1-.13,0L83.87,71.19a.26.26,0,0,1,.26-.46L101.58,80.8a.28.28,0,0,1,.09.37A.28.28,0,0,1,101.44,81.3Z"/>
            <path class="cls-18" d="M101.66,79.27a.31.31,0,0,1-.13,0L84.09,69.16a.26.26,0,0,1,.26-.46L101.8,78.78a.26.26,0,0,1,.09.36A.28.28,0,0,1,101.66,79.27Z"/>
            <path class="cls-18" d="M101.88,77.25a.22.22,0,0,1-.13,0L84.31,67.14a.27.27,0,1,1,.27-.46L102,76.75a.27.27,0,0,1-.14.5Z"/>
            <path class="cls-18" d="M102.1,75.22a.31.31,0,0,1-.13,0L84.53,65.11a.26.26,0,0,1-.1-.36.28.28,0,0,1,.37-.1l17.44,10.08a.26.26,0,0,1,.09.36A.25.25,0,0,1,102.1,75.22Z"/>
            <path class="cls-18" d="M102.33,73.2a.23.23,0,0,1-.14,0L84.75,63.09a.28.28,0,0,1-.1-.36.27.27,0,0,1,.37-.1L102.46,72.7a.28.28,0,0,1,.1.36A.27.27,0,0,1,102.33,73.2Z"/>
            <path class="cls-18" d="M102.55,71.17a.35.35,0,0,1-.14,0L85,61.06a.27.27,0,0,1-.1-.36.28.28,0,0,1,.37-.1l17.44,10.08a.26.26,0,0,1,.1.36A.28.28,0,0,1,102.55,71.17Z"/>
            <path class="cls-18" d="M102.77,69.15a.25.25,0,0,1-.14,0L85.19,59a.27.27,0,0,1-.09-.37.26.26,0,0,1,.36-.09L102.9,68.65a.27.27,0,0,1-.13.5Z"/>
            <path class="cls-18" d="M103,67.12a.28.28,0,0,1-.13,0L85.41,57a.26.26,0,0,1-.09-.36.26.26,0,0,1,.36-.1l17.44,10.08a.26.26,0,0,1,.1.36A.28.28,0,0,1,103,67.12Z"/>
            <path class="cls-18" d="M103.21,65.1a.2.2,0,0,1-.13,0L85.64,55a.27.27,0,0,1-.1-.36.26.26,0,0,1,.36-.1L103.34,64.6a.27.27,0,0,1-.13.5Z"/>
            <path class="cls-18" d="M103.43,63.07a.28.28,0,0,1-.13,0L85.86,53a.26.26,0,0,1,.26-.46l17.44,10.08a.26.26,0,0,1,.1.36A.28.28,0,0,1,103.43,63.07Z"/>
            <path class="cls-18" d="M103.65,61.05a.28.28,0,0,1-.13,0L86.08,50.94a.28.28,0,0,1-.1-.37.27.27,0,0,1,.36-.09l17.44,10.07a.27.27,0,0,1-.13.5Z"/>
            <path class="cls-18" d="M103.87,59a.31.31,0,0,1-.13,0L86.3,48.91a.26.26,0,0,1,.26-.46L104,58.53a.26.26,0,0,1,.1.36A.28.28,0,0,1,103.87,59Z"/>
            <path class="cls-18" d="M104.09,57a.33.33,0,0,1-.13,0L86.52,46.89a.28.28,0,0,1-.1-.37.27.27,0,0,1,.36-.09L104.23,56.5a.26.26,0,0,1,.09.36A.27.27,0,0,1,104.09,57Z"/>
            <path class="cls-18" d="M104.31,55a.31.31,0,0,1-.13,0L86.74,44.86a.26.26,0,0,1-.1-.36.27.27,0,0,1,.36-.1l17.45,10.08a.26.26,0,0,1,.09.36A.28.28,0,0,1,104.31,55Z"/>
            <path class="cls-18" d="M104.53,53a.33.33,0,0,1-.13,0L87,42.84a.28.28,0,0,1-.1-.37.27.27,0,0,1,.37-.09l17.44,10.07a.26.26,0,0,1,.09.36A.25.25,0,0,1,104.53,53Z"/>
            <path class="cls-18" d="M104.75,50.92a.31.31,0,0,1-.13,0L87.18,40.81a.26.26,0,0,1-.1-.36.28.28,0,0,1,.37-.1l17.44,10.08a.26.26,0,0,1,.09.36A.26.26,0,0,1,104.75,50.92Z"/>
            <path class="cls-18" d="M105,48.9a.33.33,0,0,1-.14,0L87.4,38.79a.29.29,0,0,1-.1-.37.27.27,0,0,1,.37-.09L105.11,48.4a.27.27,0,0,1,.1.36A.27.27,0,0,1,105,48.9Z"/>
          </g>
          <g>
            <path class="cls-18" d="M101.32,133.65a.25.25,0,0,1-.14,0L83.74,123.54a.26.26,0,0,1-.09-.36.25.25,0,0,1,.36-.1l17.44,10.07a.27.27,0,0,1-.13.5Z"/>
            <path class="cls-18" d="M101.54,131.62a.28.28,0,0,1-.13,0L84,121.51a.26.26,0,0,1-.09-.36.26.26,0,0,1,.36-.1l17.44,10.08a.26.26,0,0,1,.1.36A.28.28,0,0,1,101.54,131.62Z"/>
            <path class="cls-18" d="M101.76,129.6a.2.2,0,0,1-.13,0L84.18,119.49a.28.28,0,0,1-.09-.37.27.27,0,0,1,.36-.09l17.44,10.07a.27.27,0,0,1-.13.5Z"/>
            <path class="cls-18" d="M102,127.57a.28.28,0,0,1-.13,0L84.41,117.46a.26.26,0,1,1,.26-.46l17.44,10.08a.26.26,0,0,1,.1.36A.28.28,0,0,1,102,127.57Z"/>
            <path class="cls-18" d="M102.2,125.55a.2.2,0,0,1-.13,0L84.63,115.44a.26.26,0,1,1,.26-.46l17.44,10.07a.27.27,0,0,1-.13.5Z"/>
            <path class="cls-18" d="M102.42,123.52a.31.31,0,0,1-.13,0L84.85,113.41a.26.26,0,1,1,.26-.46L102.55,123a.26.26,0,0,1,.1.36A.28.28,0,0,1,102.42,123.52Z"/>
            <path class="cls-18" d="M102.64,121.5a.33.33,0,0,1-.13,0L85.07,111.39A.28.28,0,0,1,85,111a.27.27,0,0,1,.36-.09L102.77,121a.27.27,0,0,1-.13.5Z"/>
            <path class="cls-18" d="M102.86,119.47a.31.31,0,0,1-.13,0L85.29,109.36a.26.26,0,0,1,.26-.46L103,119a.26.26,0,0,1,.09.36A.28.28,0,0,1,102.86,119.47Z"/>
            <path class="cls-18" d="M103.08,117.45a.22.22,0,0,1-.13,0L85.51,107.34a.28.28,0,0,1-.1-.37.28.28,0,0,1,.37-.09L103.22,117a.26.26,0,0,1,.09.36A.27.27,0,0,1,103.08,117.45Z"/>
            <path class="cls-18" d="M103.3,115.42a.31.31,0,0,1-.13,0L85.73,105.31a.26.26,0,0,1-.1-.36.28.28,0,0,1,.37-.1l17.44,10.08a.26.26,0,0,1,.09.36A.26.26,0,0,1,103.3,115.42Z"/>
            <path class="cls-18" d="M103.52,113.4a.33.33,0,0,1-.13,0L86,103.29a.28.28,0,0,1-.1-.37.27.27,0,0,1,.37-.09l17.44,10.07a.26.26,0,0,1,.09.36A.24.24,0,0,1,103.52,113.4Z"/>
            <path class="cls-18" d="M103.75,111.37a.35.35,0,0,1-.14,0L86.17,101.26a.27.27,0,0,1-.1-.36.28.28,0,0,1,.37-.1l17.44,10.08a.26.26,0,0,1,.1.36A.28.28,0,0,1,103.75,111.37Z"/>
            <path class="cls-18" d="M104,109.35a.37.37,0,0,1-.14,0L86.39,99.24a.27.27,0,0,1-.09-.37.26.26,0,0,1,.36-.09l17.44,10.07a.27.27,0,0,1-.13.5Z"/>
            <path class="cls-18" d="M104.19,107.32a.28.28,0,0,1-.13,0L86.61,97.21a.26.26,0,0,1-.09-.36.26.26,0,0,1,.36-.1l17.44,10.08a.26.26,0,0,1,.1.36A.28.28,0,0,1,104.19,107.32Z"/>
            <path class="cls-18" d="M104.41,105.3a.28.28,0,0,1-.13,0L86.84,95.19a.28.28,0,0,1-.1-.37.26.26,0,0,1,.36-.09l17.44,10.07a.27.27,0,0,1-.13.5Z"/>
            <path class="cls-18" d="M104.63,103.27a.2.2,0,0,1-.13,0L87.06,93.16a.26.26,0,0,1,.26-.46l17.44,10.07a.27.27,0,0,1-.13.5Z"/>
            <path class="cls-18" d="M104.85,101.24a.28.28,0,0,1-.13,0L87.28,91.14a.28.28,0,0,1-.1-.37.25.25,0,0,1,.36-.09L105,100.75a.26.26,0,0,1,.1.36A.26.26,0,0,1,104.85,101.24Z"/>
          </g>
          <g>
            <path class="cls-18" d="M137.2,207a.31.31,0,0,1-.13,0l-17.44-10.08a.26.26,0,0,1,.26-.46l17.44,10.08a.26.26,0,0,1,.1.36A.28.28,0,0,1,137.2,207Z"/>
            <path class="cls-18" d="M137.42,205a.33.33,0,0,1-.13,0l-17.44-10.07a.28.28,0,0,1-.1-.37.26.26,0,0,1,.36-.09l17.45,10.07a.26.26,0,0,1,.09.36A.27.27,0,0,1,137.42,205Z"/>
            <path class="cls-18" d="M137.64,203a.31.31,0,0,1-.13,0l-17.44-10.08a.26.26,0,0,1-.1-.36.27.27,0,0,1,.36-.1l17.45,10.08a.26.26,0,0,1,.09.36A.26.26,0,0,1,137.64,203Z"/>
            <path class="cls-18" d="M137.86,201a.22.22,0,0,1-.13,0l-17.44-10.07a.28.28,0,0,1-.1-.37.27.27,0,0,1,.37-.09L138,200.45a.26.26,0,0,1,.09.36A.24.24,0,0,1,137.86,201Z"/>
            <path class="cls-18" d="M138.09,198.92a.32.32,0,0,1-.14,0l-17.44-10.08a.27.27,0,0,1-.1-.36.28.28,0,0,1,.37-.1l17.44,10.08a.27.27,0,0,1,.1.36A.28.28,0,0,1,138.09,198.92Z"/>
            <path class="cls-18" d="M138.31,196.9a.37.37,0,0,1-.14,0l-17.44-10.07a.27.27,0,0,1-.09-.37.27.27,0,0,1,.36-.09l17.44,10.07a.27.27,0,0,1-.13.5Z"/>
            <path class="cls-18" d="M138.53,194.87a.35.35,0,0,1-.14,0L121,184.76a.26.26,0,0,1-.09-.36.26.26,0,0,1,.36-.1l17.44,10.08a.26.26,0,0,1,.1.36A.28.28,0,0,1,138.53,194.87Z"/>
            <path class="cls-18" d="M138.75,192.85a.28.28,0,0,1-.13,0l-17.45-10.07a.27.27,0,0,1-.09-.37.27.27,0,0,1,.36-.09l17.44,10.07a.27.27,0,0,1-.13.5Z"/>
            <path class="cls-18" d="M139,190.82a.28.28,0,0,1-.13,0l-17.45-10.08a.26.26,0,0,1-.09-.36.26.26,0,0,1,.36-.1l17.44,10.08a.26.26,0,0,1,.1.36A.28.28,0,0,1,139,190.82Z"/>
            <path class="cls-18" d="M139.19,188.8a.28.28,0,0,1-.13,0l-17.44-10.07a.28.28,0,0,1-.1-.37.26.26,0,0,1,.36-.09l17.44,10.07a.27.27,0,0,1-.13.5Z"/>
            <path class="cls-18" d="M139.41,186.77a.22.22,0,0,1-.13,0l-17.44-10.07a.26.26,0,0,1,.26-.46l17.44,10.07a.27.27,0,0,1-.13.5Z"/>
            <path class="cls-18" d="M139.63,184.75a.33.33,0,0,1-.13,0l-17.44-10.07a.28.28,0,0,1-.1-.37.26.26,0,0,1,.36-.09l17.44,10.07a.27.27,0,0,1-.13.5Z"/>
            <path class="cls-18" d="M139.85,182.72a.31.31,0,0,1-.13,0l-17.44-10.08a.26.26,0,0,1,.26-.46L140,182.23a.26.26,0,0,1,.1.36A.28.28,0,0,1,139.85,182.72Z"/>
            <path class="cls-18" d="M140.07,180.69a.31.31,0,0,1-.13,0L122.5,170.59a.28.28,0,0,1-.1-.37.25.25,0,0,1,.36-.09l17.45,10.07a.26.26,0,0,1,.09.36A.26.26,0,0,1,140.07,180.69Z"/>
            <path class="cls-18" d="M140.29,178.67a.22.22,0,0,1-.13,0l-17.44-10.07a.26.26,0,0,1,.26-.46l17.45,10.07a.27.27,0,0,1,.09.37A.26.26,0,0,1,140.29,178.67Z"/>
            <path class="cls-18" d="M140.51,176.65a.33.33,0,0,1-.13,0l-17.44-10.07a.28.28,0,0,1-.1-.37.26.26,0,0,1,.37-.09l17.44,10.07a.26.26,0,0,1,.09.36A.24.24,0,0,1,140.51,176.65Z"/>
            <path class="cls-18" d="M140.74,174.62a.23.23,0,0,1-.14,0l-17.44-10.07a.27.27,0,1,1,.27-.46l17.44,10.07a.29.29,0,0,1,.1.37A.28.28,0,0,1,140.74,174.62Z"/>
          </g>
          <path class="cls-18" d="M93.21,160.16a.31.31,0,0,1-.13,0l-5.32-3.07a.27.27,0,0,1-.09-.37.26.26,0,0,1,.36-.09l5.31,3.07a.26.26,0,0,1,.1.36A.28.28,0,0,1,93.21,160.16Z"/>
          <path class="cls-18" d="M92.76,161.55a.28.28,0,0,1-.13,0l-5.32-3.07a.27.27,0,0,1,.27-.46l5.31,3.07a.26.26,0,0,1,.1.36A.28.28,0,0,1,92.76,161.55Z"/>
        </g>
        <g>
          <polygon class="cls-23" points="333.75 373.24 372.97 350.6 225.08 265.21 158.99 303.37 280.01 373.24 333.75 373.24"/>
          <polygon class="cls-17" points="279.95 273.74 158.65 203.71 158.65 200.4 334.15 239.14 334.15 242.44 279.95 273.74"/>
          <polygon class="cls-24" points="279.94 273.73 280.02 273.7 334.15 242.44 334.15 239.14 330.06 238.23 326 239.06 279.92 270.18 279.92 273.72 279.94 273.73"/>
          <polygon class="cls-2" points="279.95 270.43 158.65 200.4 212.85 169.1 334.15 239.14 279.95 270.43"/>
          <polygon class="cls-16" points="183.98 215.02 279.95 270.43 334.15 239.14 269.37 201.73 183.98 215.02"/>
          <path class="cls-25" d="M280,271a.54.54,0,0,1-.27-.07l-121.29-70a.53.53,0,1,1,.53-.92l121,69.88,53.94-31.14a.52.52,0,0,1,.72.19.54.54,0,0,1-.19.73l-54.2,31.29A.54.54,0,0,1,280,271Z"/>
          <polygon class="cls-17" points="279.95 373.21 158.65 303.18 158.65 203.71 279.95 273.74 279.95 373.21"/>
          <g>
            <path class="cls-26" d="M223,276.28c0,5.23-3.7,7.34-8.26,4.71s-8.26-9-8.26-14.24,3.7-7.34,8.26-4.71S223,271.05,223,276.28Z"/>
            <path class="cls-26" d="M229.56,284.4c0,3.37-2.38,4.72-5.31,3a11.68,11.68,0,0,1-5.3-9.15c0-3.36,2.37-4.72,5.3-3A11.68,11.68,0,0,1,229.56,284.4Z"/>
            <path class="cls-26" d="M227.43,270.43c0,1.36-1,1.9-2.14,1.22a4.7,4.7,0,0,1-2.13-3.68c0-1.36,1-1.9,2.13-1.22A4.71,4.71,0,0,1,227.43,270.43Z"/>
            <path class="cls-26" d="M232.83,317.24l-30.47-17.59a1.25,1.25,0,0,1-.57-1c0-.36.25-.51.57-.32l30.47,17.59a1.26,1.26,0,0,1,.57,1C233.4,317.27,233.14,317.42,232.83,317.24Z"/>
            <path class="cls-26" d="M232.83,320.7l-30.47-17.59a1.27,1.27,0,0,1-.57-1c0-.36.25-.51.57-.33l30.47,17.59a1.3,1.3,0,0,1,.57,1C233.4,320.73,233.14,320.88,232.83,320.7Z"/>
            <path class="cls-26" d="M199.63,293.27l-5.29-3V279.9l5.29,3.06Zm6.87-6.35-5.29-3.05v10.31l5.29,3.06Zm6.87,4-5.29-3.05v10.31l5.29,3.05Zm6.87,4L215,291.8v10.32l5.29,3.05Zm6.87,4-5.29-3.05v10.31l5.29,3.06Zm6.87,4-5.29-3.05v10.31L234,313.1Zm6.87,4-5.29-3.06V314l5.29,3.05Z"/>
          </g>
          <polygon class="cls-16" points="163.22 305.82 279.95 373.21 279.95 273.74 249.37 256.08 163.22 305.82"/>
          <polygon class="cls-27" points="334.15 242.44 334.15 341.92 279.95 373.21 279.95 273.74 334.15 242.44"/>
          <g>
            <polygon class="cls-9" points="316.39 246.56 306.55 240.84 292.75 248.71 299.08 252.39 306.3 252.39 316.39 246.56"/>
            <polygon class="cls-28" points="288.53 235.25 288.54 246.26 299.07 252.38 299.06 241.37 288.53 235.25"/>
            <polygon class="cls-29" points="299.06 241.37 299.07 252.38 309.68 246.26 309.66 235.25 299.06 241.37"/>
            <polygon class="cls-19" points="288.53 235.25 299.06 241.37 309.66 235.25 299.13 229.13 288.53 235.25"/>
          </g>
          <g>
            <polygon class="cls-9" points="299.25 257.09 289.41 251.37 275.61 259.24 281.94 262.91 289.16 262.91 299.25 257.09"/>
            <polygon class="cls-28" points="271.39 245.78 271.4 256.79 281.93 262.91 281.92 251.89 271.39 245.78"/>
            <polygon class="cls-29" points="281.92 251.89 281.93 262.91 292.53 256.79 292.52 245.77 281.92 251.89"/>
            <polygon class="cls-19" points="271.39 245.78 281.92 251.89 292.52 245.77 281.99 239.65 271.39 245.78"/>
          </g>
          <g>
            <g>
              <polygon class="cls-9" points="206.05 209.53 234.13 193.32 212.37 180.76 179.52 199.72 196.51 209.53 206.05 209.53"/>
              <polygon class="cls-30" points="205.84 182.88 224.22 193.5 196.47 209.51 178.09 198.9 205.84 182.88"/>
              <polygon class="cls-31" points="205.84 177.72 224.22 188.33 196.47 204.35 178.09 193.74 205.84 177.72"/>
              <polygon class="cls-19" points="205.63 177.25 224.01 187.87 196.27 203.88 177.89 193.27 205.63 177.25"/>
              <path class="cls-18" d="M196.4,202.05l24.78-14.31-8.06-4.65c-1.07,5.09-4.52,9.91-14.15,8.45-8.09-1.22-13.37.24-16.78,2.3Z"/>
            </g>
            <polygon class="cls-30" points="224.22 188.33 224.22 193.5 196.47 209.51 196.47 204.35 224.22 188.33"/>
            <polygon class="cls-32" points="178.09 193.74 178.09 198.9 196.47 209.51 196.47 204.35 178.09 193.74"/>
          </g>
          <g>
            <polygon class="cls-9" points="273.42 228.88 290.55 218.99 256.09 199.1 233.75 212 262.98 228.88 273.42 228.88"/>
            <polygon class="cls-33" points="262.94 228.86 232.83 211.48 232.83 210.24 282.46 216.35 282.46 217.59 262.94 228.86"/>
            <polygon class="cls-34" points="262.94 227.62 232.83 210.24 252.35 198.96 282.46 216.35 262.94 227.62"/>
            <polygon class="cls-33" points="262.51 224.13 238.81 210.43 249.17 204.56 272.87 218.27 262.51 224.13"/>
            <polygon class="cls-35" points="263.17 227.26 262.94 227.62 222.15 201.36 222.38 201 252.49 218.38 263.17 227.26"/>
            <polygon class="cls-33" points="262.94 227.62 232.83 210.24 222.15 201.36 252.26 218.74 262.94 227.62"/>
          </g>
          <path class="cls-9" d="M218.22,220.22l-10.32-6a2.07,2.07,0,0,0-1.87.08l-5.41,3.12c-.56.32-.62.8-.14,1.08l7.45,4.3a1.39,1.39,0,0,0,.72.19h5.15a4.83,4.83,0,0,0,2.41-.64l1.88-1.09C218.64,221,218.7,220.5,218.22,220.22Z"/>
          <g>
            <path class="cls-32" d="M205.53,214.19a1.76,1.76,0,0,0-1.59.06l-1.19.69-3.78-.52v3h0a.51.51,0,0,0,.25.36l8.74,5v-7.27Z"/>
            <path class="cls-30" d="M209.42,215.85v7c.06,0,.12,0,.17,0l4.6-2.65c.29-.18.4-.4.36-.6h0v-3Z"/>
            <polygon class="cls-30" points="209.42 215.85 209.42 213.97 207.97 213.97 207.97 215.59 208.11 215.67 209.42 215.85"/>
            <path class="cls-36" d="M208.11,215.67l-.14-.08v7.27l0,0a1.72,1.72,0,0,0,1.42,0v-7Z"/>
          </g>
          <path class="cls-19" d="M208,219.88l-8.76-5.07c-.41-.23-.36-.64.11-.91l4.59-2.66a1.76,1.76,0,0,1,1.59-.06l8.77,5.06c.41.24.36.65-.11.92l-4.6,2.65A1.79,1.79,0,0,1,208,219.88Z"/>
        </g>
        <g>
          <path class="cls-37" d="M261.78,198.3a1.79,1.79,0,0,1-1.81-.08,4.34,4.34,0,0,1-1.37-1.06,5.16,5.16,0,0,1-.6-.76,4.91,4.91,0,0,1-.91-2.66,1.52,1.52,0,0,1,2.24-1.62,4.93,4.93,0,0,1,2,1.63c.09.1.16.21.24.31a5,5,0,0,1,.74,1.71A2.21,2.21,0,0,1,261.78,198.3Z"/>
          <path class="cls-38" d="M288.11,144h0a15.91,15.91,0,0,0-5.51,8.41,14.59,14.59,0,0,0-.51,2.62c-1.43,7.45-2.94,14.89-4.71,22.3C270.3,182.43,264.5,187,257.89,192a2.52,2.52,0,0,0-.25.21,2,2,0,0,1,1.76.06,5.73,5.73,0,0,1,3,4.2,1.79,1.79,0,0,1-.68,1.81,12.11,12.11,0,0,0,2.2-1.2c7.28-4.72,14.07-8.87,21.35-13.94a4.06,4.06,0,0,0,1.67-2.52c.09-.43.13-.78.21-1,1.28-4.07,5.21-17.53,7.42-25.33a14.54,14.54,0,0,0,1.21-6.81C295.34,142.85,291.9,141.31,288.11,144Z"/>
          <path class="cls-39" d="M287,180.53a8.18,8.18,0,0,1,.19-.93c1.28-4.07,5.21-17.53,7.42-25.33a14.54,14.54,0,0,0,1.21-6.81c-.25-2.55-1.42-4.16-3.06-4.63a10.31,10.31,0,0,1,.43,7.93c-1.6,4.53-5.95,19-8.36,26.76a12.63,12.63,0,0,1-2.94,5,55.19,55.19,0,0,1-19.75,12.78,4.69,4.69,0,0,1,.3,1.17,1.79,1.79,0,0,1-.68,1.81,12.11,12.11,0,0,0,2.2-1.2c7.28-4.72,14.07-8.87,21.34-13.94A4.14,4.14,0,0,0,287,180.53Z"/>
          <path class="cls-38" d="M282.53,171.71c-1.17-3,1.17-19.89,5.64-26.44a5.5,5.5,0,0,1,5.68-2.22c5,1,17.67,4.59,26.83,15a5.56,5.56,0,0,1,1.31,4.56c-1,6.22-7,23.06-6.56,30.8,0,0,1,5.16,1.54,7.68a4,4,0,0,1-1,3.59,9.28,9.28,0,0,1-2,1.48c-4.52,2.62-14.53,3.58-20.87-.09a9.12,9.12,0,0,1-4.36-5s-.16-2.74-.16-2.77c.87-8.54,1.43-11-2.46-20.7a15.34,15.34,0,0,0-2-2.8A15.38,15.38,0,0,1,282.53,171.71Z"/>
          <path class="cls-40" d="M321.43,159.12c-2.53,3.23-5.06,6.78-5.06,6.78-5.66,1.82-13.75,9.71-13.35,15.37.39,5.48,6.66,23.1,1.73,27.15a21.44,21.44,0,0,0,9.27-2.29,9.28,9.28,0,0,0,2-1.48,4,4,0,0,0,1-3.59c-.51-2.52-1.54-7.66-1.54-7.68-.42-7.74,5.55-24.58,6.56-30.8A5.64,5.64,0,0,0,321.43,159.12Z"/>
          <path class="cls-41" d="M299.17,151.77l.1-.12a1.74,1.74,0,0,1-.1-.59c0-.77.12-13.54,1.14-14.13a8.2,8.2,0,0,1,7.41,0c.89.51,1.8,13.16,1.91,13.83a2.47,2.47,0,0,1-1.52,2.44,8.24,8.24,0,0,1-5.51.7h0s-5.62,2.58-7.13,6.46C295.47,160.36,297.1,154.63,299.17,151.77Z"/>
          <path class="cls-4" d="M311.12,129.75c2.4,10.65-7.61,16.47-11.32,16.27-3.12-.17-7.46-5.76-9.26-12.39s4-12.27,8.73-13.55S309.62,123.05,311.12,129.75Z"/>
          <path class="cls-8" d="M308.06,141.6c.86-8.29-4.11.58-6.38-2.18s-7.84-4.58-11-5.4l-.12-.39a9.49,9.49,0,0,1-.32-2.81l4.41-6a7.93,7.93,0,0,1,4-4.06l4.68-.22A11.66,11.66,0,0,1,310,126.5c.22.46.41.93.59,1.42l.09.26a13.5,13.5,0,0,1,.45,1.57A12.84,12.84,0,0,1,308.06,141.6Z"/>
          <path class="cls-42" d="M290.21,131.58c-.62,0-1.72.38-2.9-3a3.68,3.68,0,0,1,1.51-4.61,7.77,7.77,0,0,1,.46-1c6.58-11.92,17.35-11.83,23-4.66a4.7,4.7,0,0,1,4.43.45,4.92,4.92,0,0,1,.78,8.15,1.16,1.16,0,0,0,0,1.71,3,3,0,0,1,.84,1.59,3.1,3.1,0,0,1-2.45,3.63c-.11,0-.23,0-.35,0-1.51,5.9-6.56,6.37-6.56,6.37s-1.24,1.12-.61-2.87c.49-3.06-.24-4.61-1.84-6.89.54,1.63-.93,7.08-3.21,9.61C303.36,140.13,299.15,129.47,290.21,131.58Z"/>
          <path class="cls-4" d="M309.47,135.53c.72-1.24.65-2.62-.16-3.09s-2,.16-2.76,1.4.3.77.16,3.09C306.65,137.86,308.75,136.77,309.47,135.53Z"/>
          <path class="cls-8" d="M306.71,136.93c.14-2.32-.88-1.85-.16-3.09l0-.05,2.15-.71a2.57,2.57,0,0,0-1.33,2.18c0,2,1.8.46,1.8.46s0,.09,0,.2C308.32,137,306.66,137.76,306.71,136.93Z"/>
          <path class="cls-4" d="M262.3,195.77c-.41.4-.89.87-1.37,1.36a12.67,12.67,0,0,0-1,1.09,10.09,10.09,0,0,0-.75,1.06.15.15,0,0,0,0,.06,8.48,8.48,0,0,1-.69,1.3,5.24,5.24,0,0,1-2.17,2,.55.55,0,0,1-.59-.91l0,0a4,4,0,0,0,1-1.48,2.65,2.65,0,0,0-.51.43l-.42.42a.05.05,0,0,1,0,0,13.45,13.45,0,0,1-1.73,1.39c-.26.18-.51.36-.78.53a10.31,10.31,0,0,1-2.22,1.09l-.29.09-.15,0a3,3,0,0,1-.63.08,1.46,1.46,0,0,1-.38-.05,1,1,0,0,1-.31-.13,1.32,1.32,0,0,1-.42-1.3c.33-3.47,1.65-4.43,3.92-6,.75-.51,2.71-1.95,4.25-3.11l.27-.21,1.88-1.42h.09a4.93,4.93,0,0,1,2,1.63c.09.1.16.21.24.31A5,5,0,0,1,262.3,195.77Z"/>
          <path class="cls-8" d="M261.56,194.06a5,5,0,0,1,.74,1.71c-.41.4-.89.87-1.37,1.36a12.67,12.67,0,0,0-1,1.09,10.09,10.09,0,0,0-.75,1.06.15.15,0,0,0,0,.06,8.48,8.48,0,0,1-.69,1.3,5.24,5.24,0,0,1-2.17,2,.55.55,0,0,1-.59-.91l0,0a4,4,0,0,0,1-1.48,2.65,2.65,0,0,0-.51.43l-.42.42a.05.05,0,0,1,0,0,13.45,13.45,0,0,1-1.73,1.39c-.26.18-.51.36-.78.53a10.31,10.31,0,0,1-2.22,1.09l-.29.09-.15,0a3,3,0,0,1-.63.08,1.46,1.46,0,0,1-.38-.05,1,1,0,0,1-.31-.13c.58-.23,1.26-.53,2-.84,1.9-.85,4.07-3.78,4.89-4.31a19.55,19.55,0,0,0,2.41-1.82,6.82,6.82,0,0,0,1-1.06v0s1.11-1.6,1.12-1.6l.56-.7C261.41,193.85,261.48,194,261.56,194.06Z"/>
          <g>
            <g>
              <path class="cls-37" d="M284,206.75c.94,1.79.86,3.69-.18,4.24s-2.65-.47-3.58-2.27-.86-3.69.18-4.23S283.06,205,284,206.75Z"/>
              <path class="cls-4" d="M286.84,202.27s-8.12,3.73-9.31,5-8.92,8.76-6.23,10,9.44-3,11.29-5.61a19.69,19.69,0,0,1,3.87-4.09c.58-.5,5.52-2.18,5.44-2.94C291.77,203.43,289.26,201,286.84,202.27Z"/>
              <path class="cls-8" d="M287.8,205.27a11.3,11.3,0,0,0-5.09,4.13c-1.73,2.87-7,6.54-9.33,7.42a2.79,2.79,0,0,1-2.54,0,.88.88,0,0,0,.46.49c2.63,1.22,9.44-3,11.29-5.61a19.69,19.69,0,0,1,3.87-4.09,8.15,8.15,0,0,1,1.39-.69Z"/>
              <path class="cls-4" d="M277.63,209.77l-1.24,1.06c-.4.36-.83.69-1.21,1.07l-2.36,2.24a.71.71,0,0,1-1-1l2.27-2.38c.36-.41.78-.77,1.17-1.15l1.2-1.13a.86.86,0,0,1,1.24,0,.88.88,0,0,1,0,1.24Z"/>
            </g>
            <path class="cls-38" d="M315.31,159.53s0,0,0,0a16,16,0,0,0-6.31,7.83,14.82,14.82,0,0,0-.75,2.56c-2.16,7.27-4.38,14.53-6.87,21.73-7.51,4.35-13.72,8.28-20.79,12.66a2.4,2.4,0,0,0-.26.18,1.9,1.9,0,0,1,1.74.24,5.73,5.73,0,0,1,2.6,4.47,1.78,1.78,0,0,1-.86,1.73,12.57,12.57,0,0,0,2.31-1c7.71-4,14.87-7.47,22.6-11.8a4.05,4.05,0,0,0,1.91-2.35c.13-.42.21-.76.31-1,1.67-3.91,6.9-16.93,9.85-24.48a14.39,14.39,0,0,0,1.87-6.66C322.63,159.06,319.35,157.2,315.31,159.53Z"/>
            <path class="cls-39" d="M310.63,195.76a9.09,9.09,0,0,1,.28-.92c1.67-3.91,6.9-16.93,9.85-24.48a14.39,14.39,0,0,0,1.87-6.66c0-2.56-1-4.27-2.59-4.9a10.32,10.32,0,0,1-.35,7.93c-2,4.24-7,17.12-10.11,24.84a14.69,14.69,0,0,1-4.22,5.78A58,58,0,0,1,284.45,208a4.28,4.28,0,0,1,.19,1.2,1.78,1.78,0,0,1-.86,1.73,12.57,12.57,0,0,0,2.31-1c7.71-4,14.86-7.46,22.6-11.8A4.18,4.18,0,0,0,310.63,195.76Z"/>
          </g>
        </g>
        <g id="w1">
          <path class="cls-43" d="M157.34,368.6c10.43,6,27.38,6,37.87-.07s10.54-15.85.12-21.86-27.38-6-37.87.06S146.92,362.58,157.34,368.6Z"/>
          <path class="cls-4" d="M164.79,348.28c1.39,1.06,5.29-.59,7.5,1.34,1.28,1.12-6.38,3.16-6.38,3.16S163.86,347.58,164.79,348.28Z"/>
          <path class="cls-5" d="M161.68,349.23s.21,2.24,3.43,2.22,6.52-1.6,6.09-2.24c-.19-.27-1.52-.48-2-.63,1.25.2,2.29-.32,4.54-.88,2.09-.53,5.32-1.35,5,1.33-.31,2.39-3.45,6.66-7,6.14-3.22-.48-5.36-.37-6.49.3s-.71,2.32-.82,2.44a1.77,1.77,0,0,1-.73.42l-.14.08,0,0-.07,0a2.38,2.38,0,0,1-.75-.51,10.14,10.14,0,0,0-2-3.44C159.07,352.08,161.68,349.23,161.68,349.23Z"/>
          <path class="cls-33" d="M154,253.59c.9-7.66,8.68-22.18,17.44-14,1.24,1.14,3.13,1.07,4.43,2a12.94,12.94,0,0,1,5.18,13.6c-.82,3.42-1.5,6.86-2.26,10.29,0,0-7.13,29.38-7.18,29.68-.18,3.39-4.42,54.93-4.43,55a1.87,1.87,0,0,1-1,1.23,5.48,5.48,0,0,1-4.94,0,1.85,1.85,0,0,1-1-1.19c-.22-.35-2.15-20.75-4-36.3-.78-6.62,1.18-15.06,1.18-15.06C158.45,290.86,152.43,267,154,253.59Z"/>
          <path class="cls-11" d="M165.29,351.71a5.4,5.4,0,0,1-.72.16h-.07a6.16,6.16,0,0,1-1.82,0h0c4.5-1.72,4.24-42.17,2.34-51-.92-4.29,1.56-13.45,0-22.7-3.12-18.56-.86-19.49-.86-19.49l14.52,7.24c-.88,3.64-7,29-7.07,29.23-.18,3.39-4.42,54.93-4.43,55a1.87,1.87,0,0,1-1,1.23,4.12,4.12,0,0,1-.71.31Z"/>
          <path class="cls-4" d="M178.7,356s5.13-.2,7.34,1.73c1.28,1.12-6.38,3.16-6.38,3.16Z"/>
          <path class="cls-5" d="M176.86,357.76s.21,2.24,3.43,2.22,6.22-1.72,5.68-2.27c-.13-.12-.92-.48-1.32-.8,1.13.54,2.59.13,5.36-.17,2.15-.23,5.25-.92,4.9,1.76-.3,2.38-5.75,5.79-9,6.17s-3.82-1.33-4.95-.65-1.25,2.3-1.36,2.42a1.77,1.77,0,0,1-.73.42l-.14.08,0,0-.07,0a2.57,2.57,0,0,1-.76-.5c-.37-1.61-.9-1.8-2-3.45C174.3,360.58,176.86,357.76,176.86,357.76Z"/>
          <path class="cls-33" d="M158.45,249.85c0-5.53,12.38-6.94,17.42-8.29a13,13,0,0,1,4.63-.37c7.1.71,10.26,6.47,10.17,18.59,0,6.18-1.83,23.72-3.27,41.73-2.19,27.41-4.33,56.91-4.34,57a1.82,1.82,0,0,1-1,1.32,2.66,2.66,0,0,1-.6.26,5.52,5.52,0,0,1-4-.11,1.57,1.57,0,0,1-.32-.15,1.88,1.88,0,0,1-1-1.3,278.69,278.69,0,0,1-5.15-42.36c-.22-4.72,1-9.46,1.28-14.14.62-11.12-2.86-24.39-3.18-31.76a7.41,7.41,0,0,0-2.48-5.29C163.2,262,158.45,254.94,158.45,249.85Z"/>
          <path class="cls-11" d="M171,246.37l11.57-4.78c5.64,1.59,8.17,7.34,8.09,18.19,0,6.18-1.83,23.72-3.27,41.73-2.19,27.41-4.33,56.91-4.34,57a1.82,1.82,0,0,1-1,1.32,2.66,2.66,0,0,1-.6.26,5.58,5.58,0,0,1-3.59,0c3-7.93,3.84-48.09,3-55.82-.51-4.55,1.61-8.39,2.89-18a42.93,42.93,0,0,0-1-17.85,29.43,29.43,0,0,0-7.31-12.54c-2.84-2.86-15.35-4.89-16.71-11.13C159.13,243,170,247.77,171,246.37Z"/>
          <path class="cls-44" d="M152.59,218.6c.71,4.21,2,6,3.44,6.36,3.6.93,8.37-6.63,8.88-7.42l0-.08-1.75-34.59s-3.49-.22-5.45,1.57C154.91,187,150.05,203.49,152.59,218.6Z"/>
          <path class="cls-9" d="M153.87,219.39c.48,2.9,1.25,4.65,2.16,5.57,3.6.93,8.37-6.63,8.88-7.42l-1.72-33.86a7.19,7.19,0,0,0-4.15,1.54C156.21,187.81,151.34,204.27,153.87,219.39Z"/>
          <path class="cls-44" d="M156.46,220c-3.61-13.37-2.67-27.7,2.15-34.76a5.92,5.92,0,0,1,6.12-2.4c5.35,1.12,19,4.95,28.92,16.14a6,6,0,0,1,1.4,4.91c-1.08,6.7-7.52,24.85-7.07,33.2,0,0,.44,3.37.8,6.18a8.11,8.11,0,0,0,.31,1.27,5.2,5.2,0,0,1,.17,2.43v.06h0a5,5,0,0,1-2.78,3.8,10.34,10.34,0,0,1-1.34.63c-5.49,2.41-14.72,1.45-21.35-2.38-5.55-3.21-7.62-7.46-5.69-10.62a9.76,9.76,0,0,0,1.2-6.23C158.91,229.06,158,225.73,156.46,220Z"/>
          <path class="cls-9" d="M172.35,252.23c10.38-3,5.7-29.92,9.67-41.82,2.83-8.51,7.16-9.11,10.9-9a3.28,3.28,0,0,1,2.12.65,6.17,6.17,0,0,1,0,1.82c-1.08,6.7-7.52,24.85-7.07,33.2,0,0,.44,3.37.8,6.18a8.11,8.11,0,0,0,.31,1.27,5.64,5.64,0,0,1,.13.67c0,.27.06.51.09.74a4.92,4.92,0,0,1-.05,1v.06h0a5,5,0,0,1-2.78,3.8,10.34,10.34,0,0,1-1.34.63C181.78,253,177,253.16,172.35,252.23Z"/>
          <path class="cls-41" d="M221.29,218a9.5,9.5,0,0,0,2.56-10.17c-2.13-6.26-4.48-6.62-4.48-6.62L218.8,216Z"/>
          <g>
            <path class="cls-45" d="M198.13,211.27,216.71,222a.58.58,0,0,0,.84-.33l9.1-29a.82.82,0,0,0-.37-1L207.7,181a.58.58,0,0,0-.84.33l-9.1,29A.82.82,0,0,0,198.13,211.27Z"/>
            <path class="cls-18" d="M217.48,217.86l7.31-23.35-8.07-4.66c-1.06,5.1,4.35,13.08-5.33,14.1-10.68,1.13-10.65,3.12-11.81,5.86Z"/>
            <path class="cls-18" d="M214.71,194.59a.21.21,0,0,0,.17-.1.19.19,0,0,0-.07-.26l-8-4.48a.18.18,0,0,0-.25.07.19.19,0,0,0,.07.26l8,4.48A.16.16,0,0,0,214.71,194.59Z"/>
            <path class="cls-18" d="M215.38,193.12a.18.18,0,0,0,.09-.35l-8-4.48a.19.19,0,0,0-.19.33l8,4.48A.15.15,0,0,0,215.38,193.12Z"/>
          </g>
          <path class="cls-41" d="M223,211.38a3.62,3.62,0,0,1-3.56-3.55c-.29-3.56-.36-3.13-.93-3.56s-1.7,7.54-1,9.32,5.62,3.56,5.62,3.56Z"/>
          <path class="cls-41" d="M191.44,211s5.92-.91,7.47-1.7,3.52-.43,1.62-3.06a5.12,5.12,0,0,0-7.32-1.38,22.08,22.08,0,0,1-4.82,2.63c-.74.29-.81,1.17-.86,1.76C187.45,210.19,188.52,211.6,191.44,211Z"/>
          <path class="cls-41" d="M205.26,206.07c-1-.19-1.92-.47-2.87-.75h-.13c-1.58-.24-3.16-.39-4.74-.69a1.07,1.07,0,1,0-.4,2.11.93.93,0,0,0,.23,0c1.61-.05,3.2,0,4.8.06l-.14,0c1,.22,1.93.43,2.87.74a.75.75,0,1,0,.47-1.43Z"/>
          <path class="cls-44" d="M185.21,207.62a11.12,11.12,0,0,1,4.88-7.47,3.7,3.7,0,0,1,3.26-.5,2.65,2.65,0,0,1,1.38,1.43s0,0,0,0a6,6,0,0,1,.6,1.22l8.81,23.91,12.09-12.12a4.51,4.51,0,1,1,6.4,6.37l-17.07,17.15a5,5,0,0,1-1.33.92,4.51,4.51,0,0,1-6-2.25l-.07-.15s-11.92-24.36-12.28-24.79a4,4,0,0,1-.79-2.63A7,7,0,0,1,185.21,207.62Z"/>
          <path class="cls-9" d="M201.19,237.21c2-9.42-10.09-33.78-11.59-36.73a3.82,3.82,0,0,1,.49-.33,3.7,3.7,0,0,1,3.26-.5,2.65,2.65,0,0,1,1.38,1.43s0,0,0,0a6,6,0,0,1,.6,1.22l8.81,23.91,12.09-12.12a4.51,4.51,0,1,1,6.4,6.37l-17.07,17.15a5,5,0,0,1-1.33.92,4.48,4.48,0,0,1-3.46.11A11.51,11.51,0,0,0,201.19,237.21Z"/>
          <path class="cls-10" d="M191.3,235.43l-.7-.1Z"/>
          <g>
            <path class="cls-46" d="M180.63,181.14h0A0,0,0,0,1,180.63,181.14Z"/>
            <path class="cls-46" d="M180.57,180h0Z"/>
          </g>
          <path class="cls-41" d="M172,176.21a8.85,8.85,0,0,1,8,0c.72.42,1.45,9.59,1.82,13.85a1.75,1.75,0,0,1,0,.4,2.81,2.81,0,0,1-1.66,2.29,8.8,8.8,0,0,1-8,0,2.68,2.68,0,0,1-1.63-2.45C170.63,186,171.14,176.69,172,176.21Z"/>
          <path class="cls-47" d="M169.46,169.06c-2.41,15.56,12.63,15.64,14.95,14.92,3.38-1,3.71-3.1,5.32-10.32,2.24-10.07-1.2-14-6.37-15.21S170.59,161.74,169.46,169.06Z"/>
          <path class="cls-48" d="M183.34,152.35c-5.87-.68-8.26,2.18-8.26,2.18-7.61.5-12.41,4.73-14.12,9.86a5.41,5.41,0,0,0-.12,1.7,3.7,3.7,0,0,0-1.31,1.48,1.71,1.71,0,0,0-.17.33c-3.31,6.67-2,27.53-2,33.87,0,7.14,7.15,8.19,12.33,1,3.39-4.67,1.26-14-.62-19.87a6.77,6.77,0,0,0,6.29.57c2.35-.42,4.92-4.47,7.18-8.71a5.41,5.41,0,0,1-.46-.61,1.33,1.33,0,0,1,1.74-1.84l1.27-2.62s1,3.38,2.31,3.79c-.88-5.78,1-5.87,1.52-6.74.32-.47,1.36-.54,1.68-1C197,165.37,191.9,153.34,183.34,152.35Z"/>
          <path class="cls-47" d="M180.68,172.65c.43-.91,1.91-1.11,3.31-.45.14.07.17.91.26,1a6.75,6.75,0,0,0,.41,2.66,4.6,4.6,0,0,1-2.23-.34C181,174.83,180.25,173.56,180.68,172.65Z"/>
        </g>
      </g>
    </g>
  </g>
</svg>
