<svg xmlns="http://www.w3.org/2000/svg" xmlns:xlink="http://www.w3.org/1999/xlink" width="700" height="340" viewBox="0 0 700 340">
  <defs>
    <style>
      .cls-1, .cls-16, .cls-24, .cls-6, .cls-62 {
        fill: none;
      }

      .cls-2 {
        isolation: isolate;
      }

      .cls-3, .cls-34 {
        fill: #fff;
      }

      .cls-4 {
        fill: #7d10e8;
      }

      .cls-5 {
        opacity: 0.16;
      }

      .cls-16, .cls-24, .cls-6, .cls-62 {
        stroke: #fff;
        stroke-linecap: round;
        stroke-linejoin: round;
      }

      .cls-6 {
        stroke-width: 1.5px;
      }

      .cls-16, .cls-24, .cls-53, .cls-6, .cls-61 {
        opacity: 0.4;
      }

      .cls-7 {
        fill: #e61038;
      }

      .cls-8 {
        opacity: 0.1;
      }

      .cls-9 {
        fill: #1fab0c;
      }

      .cls-10 {
        fill: #ff6a00;
      }

      .cls-11 {
        fill: #fa5252;
      }

      .cls-12 {
        fill: #fa2323;
      }

      .cls-13 {
        fill: #e3e3e3;
      }

      .cls-14 {
        fill: #ffae00;
      }

      .cls-15 {
        fill: #ff6f00;
      }

      .cls-16, .cls-62 {
        stroke-width: 3px;
      }

      .cls-17 {
        fill: #2c83f5;
      }

      .cls-18 {
        fill: #006af5;
      }

      .cls-19 {
        fill: #004ac2;
      }

      .cls-20 {
        fill: #2c97f5;
      }

      .cls-21 {
        fill: #b5f2ff;
      }

      .cls-22 {
        fill: #28eb00;
      }

      .cls-23 {
        fill: #199400;
      }

      .cls-24 {
        stroke-width: 2px;
      }

      .cls-25 {
        fill: #64c700;
      }

      .cls-26 {
        fill: #aee300;
      }

      .cls-27 {
        fill: #a4d600;
      }

      .cls-28, .cls-33 {
        opacity: 0.6;
      }

      .cls-29 {
        fill: #fa7900;
      }

      .cls-30 {
        fill: #e63d00;
      }

      .cls-31 {
        fill: #8fc700;
      }

      .cls-32 {
        fill: #fa0;
      }

      .cls-33 {
        fill: #ed8e00;
      }

      .cls-34 {
        opacity: 0.2;
      }

      .cls-35 {
        fill: #c21000;
      }

      .cls-36 {
        fill: #ab1f1f;
      }

      .cls-37 {
        fill: #f01818;
      }

      .cls-38 {
        fill: #fca800;
      }

      .cls-39 {
        opacity: 0.14;
      }

      .cls-40 {
        fill: #b83737;
      }

      .cls-41 {
        fill: #fcc77b;
      }

      .cls-42 {
        fill: #3c1b00;
      }

      .cls-43 {
        fill: #783600;
      }

      .cls-44 {
        fill: #8c311b;
      }

      .cls-45 {
        fill: #fc9300;
      }

      .cls-46 {
        fill: #1b0e4a;
      }

      .cls-47, .cls-53 {
        fill: #ebebeb;
      }

      .cls-48 {
        fill: #080120;
      }

      .cls-49 {
        fill: #0f0140;
      }

      .cls-50 {
        clip-path: url(#clip-path);
      }

      .cls-51 {
        fill: #2f9e00;
      }

      .cls-52 {
        fill: #241751;
      }

      .cls-54 {
        fill: #ff9500;
      }

      .cls-55 {
        fill: #e08300;
      }

      .cls-56 {
        clip-path: url(#clip-path-2);
      }

      .cls-57 {
        fill: #ffb44a;
      }

      .cls-58 {
        fill: #e88033;
      }

      .cls-59 {
        fill: #ff1922;
      }

      .cls-60 {
        fill: #ffac26;
      }

      .cls-63 {
        fill: #ff6a19;
      }

      .cls-64 {
        fill: #f5aa33;
      }

      .cls-65 {
        fill: #ffbc52;
      }

      .cls-66 {
        fill: #0f31d9;
      }

      .cls-67 {
        fill: #3353f2;
      }

      .cls-68 {
        fill: #f0c100;
      }

      .cls-69 {
        mix-blend-mode: multiply;
        opacity: 0.12;
      }

      .cls-70 {
        fill: #ffc459;
      }

      .cls-71 {
        fill: #e8a62e;
      }

      .cls-72 {
        fill: #00b809;
      }

      .cls-73 {
        fill: #008223;
      }

      .cls-74 {
        fill: #37b83d;
      }

      .cls-75 {
        fill: #f7f7f7;
      }

      .cls-76 {
        fill: #f29a35;
      }

      .cls-77 {
        fill: #de8826;
      }

      .cls-78 {
        fill: #3e2ea6;
      }

      .cls-79 {
        fill: #2f237d;
      }

      .cls-80 {
        fill: #6558b8;
      }

      .cls-81 {
        fill: #e67f09;
      }

      .cls-82 {
        fill: #d17308;
      }

      .cls-83 {
        fill: #f59f0a;
      }

      .cls-84 {
        fill: #de9009;
      }

      .cls-85 {
        fill: #fc306a;
      }

      .cls-86 {
        fill: #fc0d51;
      }

      .cls-87 {
        fill: #d1003b;
      }

      .cls-88 {
        fill: #a16828;
      }

      .cls-89 {
        fill: #8c5921;
      }

      .cls-90 {
        fill: #ab763a;
      }

      .cls-91 {
        fill: #f40;
      }

      .cls-92 {
        fill: #e56c00;
      }

      .cls-93 {
        fill: #ff8e3d;
      }

      .cls-94 {
        fill: #cf8738;
      }

      .cls-95 {
        fill: #b56a19;
      }

      .cls-96 {
        fill: #e89a43;
      }

      .cls-97 {
        fill: #c97d28;
      }
    </style>
    <clipPath id="clip-path">
      <path class="cls-1" d="M575.87,233a28.74,28.74,0,0,0,0,57.47Z"/>
    </clipPath>
    <clipPath id="clip-path-2">
      <path class="cls-1" d="M649.86,233a28.74,28.74,0,0,0,0,57.47Z"/>
    </clipPath>
  </defs>
  <g class="cls-2">
    <g id="Capa_1" data-name="Capa 1">
      <g>
        <g>
          <path class="cls-3" d="M33.16,243.55A1.14,1.14,0,0,1,32,244.69h0a1.14,1.14,0,0,1-1.15-1.14V203.69A1.15,1.15,0,0,1,32,202.54h0a1.15,1.15,0,0,1,1.14,1.15Z"/>
          <path class="cls-4" d="M44,198.52a11.94,11.94,0,1,0-14.09,11.74l-2.43,3.43h9.15l-2.43-3.43A11.94,11.94,0,0,0,44,198.52Z"/>
          <path class="cls-5" d="M39.46,189.19A15.76,15.76,0,0,1,37,200.08a15.32,15.32,0,0,1-13.17,7.14,11.93,11.93,0,1,0,15.61-18Z"/>
          <path class="cls-6" d="M29,190.63a8.4,8.4,0,0,1,3.06-.57"/>
          <path class="cls-6" d="M23.56,198.52a8.43,8.43,0,0,1,2.85-6.33"/>
        </g>
        <g>
          <path class="cls-3" d="M75.92,242.06a1.18,1.18,0,0,1-1.17,1.17h0a1.17,1.17,0,0,1-1.17-1.17V201.37a1.17,1.17,0,0,1,1.17-1.17h0a1.17,1.17,0,0,1,1.17,1.17Z"/>
          <path class="cls-7" d="M86.94,196.09a12.19,12.19,0,1,0-14.38,12l-2.48,3.51h9.34l-2.48-3.51A12.18,12.18,0,0,0,86.94,196.09Z"/>
          <path class="cls-8" d="M82.35,186.57a16,16,0,0,1-2.5,11.11A15.57,15.57,0,0,1,66.42,205a12.18,12.18,0,1,0,15.93-18.4Z"/>
          <path class="cls-6" d="M71.63,188a8.52,8.52,0,0,1,3.12-.58"/>
          <path class="cls-6" d="M66.12,196.09A8.59,8.59,0,0,1,69,189.63"/>
        </g>
        <g>
          <path class="cls-3" d="M75.92,310.91a1.17,1.17,0,0,1-1.17,1.17h0a1.17,1.17,0,0,1-1.17-1.17V270.22a1.17,1.17,0,0,1,1.17-1.17h0a1.18,1.18,0,0,1,1.17,1.17Z"/>
          <path class="cls-9" d="M86.94,264.94a12.19,12.19,0,1,0-14.38,12l-2.48,3.5h9.34l-2.48-3.5A12.2,12.2,0,0,0,86.94,264.94Z"/>
          <path class="cls-8" d="M82.35,255.42a16,16,0,0,1-2.5,11.11,15.57,15.57,0,0,1-13.43,7.29,12.18,12.18,0,1,0,15.93-18.4Z"/>
          <path class="cls-6" d="M71.63,256.89a8.73,8.73,0,0,1,3.12-.58"/>
          <path class="cls-6" d="M66.12,264.94A8.59,8.59,0,0,1,69,258.48"/>
        </g>
        <g>
          <path class="cls-3" d="M33.16,311A1.14,1.14,0,0,1,32,312.13h0A1.14,1.14,0,0,1,30.87,311V271.13A1.14,1.14,0,0,1,32,270h0a1.14,1.14,0,0,1,1.14,1.14Z"/>
          <path class="cls-10" d="M44,266A11.94,11.94,0,1,0,29.87,277.7l-2.43,3.43h9.15l-2.43-3.43A11.94,11.94,0,0,0,44,266Z"/>
          <path class="cls-8" d="M39.46,256.64A15.74,15.74,0,0,1,37,267.52a15.29,15.29,0,0,1-13.17,7.14,11.93,11.93,0,1,0,15.61-18Z"/>
          <path class="cls-6" d="M29,258.07a8.61,8.61,0,0,1,3.06-.56"/>
          <path class="cls-6" d="M23.56,266a8.43,8.43,0,0,1,2.85-6.33"/>
        </g>
      </g>
      <g>
        <g>
          <g>
            <g>
              <polygon class="cls-11" points="496.1 234.99 451.21 234.99 452.19 226.71 495.13 226.71 496.1 234.99"/>
              <polygon class="cls-11" points="451.21 300.27 496.1 300.27 495.13 308.55 452.19 308.55 451.21 300.27"/>
            </g>
            <rect class="cls-12" x="450.95" y="229.72" width="45.41" height="75.82"/>
          </g>
          <g>
            <path class="cls-13" d="M496.94,225.42a1.32,1.32,0,0,1-1.36,1.29H451.73a1.32,1.32,0,0,1-1.36-1.29v-1.7a1.32,1.32,0,0,1,1.36-1.28h43.85a1.32,1.32,0,0,1,1.36,1.28Z"/>
            <path class="cls-13" d="M496.94,311.54a1.33,1.33,0,0,1-1.36,1.29H451.73a1.33,1.33,0,0,1-1.36-1.29v-1.7a1.32,1.32,0,0,1,1.36-1.29h43.85a1.32,1.32,0,0,1,1.36,1.29Z"/>
          </g>
        </g>
        <path class="cls-14" d="M451,292.44c6.18,1.39,14.24.79,23.07-2.19a67.44,67.44,0,0,0,22.34-12.73v-35.1c-6.07-1.19-13.86-.51-22.34,2.35A67.17,67.17,0,0,0,451,258.14Z"/>
        <path class="cls-15" d="M451,284.4c5.08,2.77,13.52,3,23.07,0,9.11-2.87,17.2-8,22.34-13.66V250.25c-5.14-2.41-13.23-2.47-22.34.4-9.55,3-18,8.52-23.07,14.48Z"/>
        <g>
          <line class="cls-16" x1="458.35" y1="251.91" x2="458.35" y2="301.63"/>
          <line class="cls-16" x1="458.35" y1="236.05" x2="458.35" y2="245.13"/>
        </g>
      </g>
      <g>
        <g>
          <g>
            <g>
              <polygon class="cls-17" points="644.97 82.27 600.08 82.27 601.05 74 643.99 74 644.97 82.27"/>
              <polygon class="cls-17" points="600.08 147.55 644.97 147.55 643.99 155.83 601.05 155.83 600.08 147.55"/>
            </g>
            <rect class="cls-18" x="599.82" y="77" width="45.41" height="75.82"/>
          </g>
          <g>
            <path class="cls-13" d="M645.81,72.71A1.33,1.33,0,0,1,644.44,74H600.6a1.34,1.34,0,0,1-1.37-1.29V71a1.33,1.33,0,0,1,1.37-1.29h43.84A1.32,1.32,0,0,1,645.81,71Z"/>
            <path class="cls-13" d="M645.81,158.82a1.33,1.33,0,0,1-1.37,1.29H600.6a1.34,1.34,0,0,1-1.37-1.29v-1.7a1.34,1.34,0,0,1,1.37-1.29h43.84a1.33,1.33,0,0,1,1.37,1.29Z"/>
          </g>
        </g>
        <path class="cls-19" d="M599.82,125.81c2.34-.24,4.72-.59,7.13-1.07a85.61,85.61,0,0,0,38.27-18.68V85.2c-7.94,4.85-16.57,7-25.33,8.76a72,72,0,0,1-20.07,1.17Z"/>
        <path class="cls-20" d="M599.82,130.87v11.36c2.34-.24,4.72-.59,7.13-1.07,14.3-2.85,28.65-13.23,38.27-24.66v-5.38A85.71,85.71,0,0,1,607,129.8C604.54,130.28,602.16,130.63,599.82,130.87Z"/>
        <g>
          <line class="cls-16" x1="607.22" y1="99.2" x2="607.22" y2="148.91"/>
          <line class="cls-16" x1="607.22" y1="83.33" x2="607.22" y2="92.41"/>
        </g>
      </g>
      <g>
        <g>
          <path class="cls-21" d="M490,33h-.14V22.59H477.73V33h-.14s-15.25,31.07-15.25,44.41v70.31h0v5.41a7.16,7.16,0,0,0,14.31,0,7.15,7.15,0,0,0,14.3,0,7.16,7.16,0,0,0,14.31,0v-5.41h0V77.42C505.26,64.08,490,33,490,33Z"/>
          <path class="cls-22" d="M483.8,50.68A104.26,104.26,0,0,1,472.13,50c-3.87,9.46-7.85,20.79-7.85,27.38v75.72a5.22,5.22,0,0,0,10.43,0,1.94,1.94,0,0,1,3.87,0,5.22,5.22,0,0,0,10.44,0,1.94,1.94,0,0,1,3.87,0,5.22,5.22,0,0,0,10.43,0V77.42c0-6.59-4-17.92-7.85-27.38A104.26,104.26,0,0,1,483.8,50.68Z"/>
          <path class="cls-23" d="M491.2,32.47a.92.92,0,0,1-.92.92h-13a.92.92,0,0,1-.92-.92h0a.92.92,0,0,1,.92-.92h13a.92.92,0,0,1,.92.92Z"/>
          <rect class="cls-23" x="475.9" y="18.6" width="15.81" height="9.24" rx="1.29"/>
          <rect class="cls-23" x="462.34" y="82.69" width="42.91" height="53.6"/>
          <path class="cls-24" d="M471.61,62.3c-2.18,7.2-3.89,14.4-3.89,19.26v70.3h0"/>
          <path class="cls-24" d="M478.61,42.29c-1.3,3.35-3.06,8-4.78,13.12"/>
        </g>
        <g>
          <g>
            <path class="cls-25" d="M494,90.25s-.43,4.16-3.19,6.07-6.8.83-6.8.83.43-4.16,3.19-6.06S494,90.25,494,90.25Z"/>
            <path class="cls-25" d="M476.83,91.84s.32,3.08,2.37,4.49,5,.62,5,.62-.32-3.08-2.37-4.5S476.83,91.84,476.83,91.84Z"/>
          </g>
          <circle class="cls-26" cx="483.8" cy="107.22" r="10.21"/>
          <path class="cls-27" d="M489.48,98.74a13.06,13.06,0,0,1,.88,4.71c0,6.88-5.3,12.46-11.85,12.5a10.21,10.21,0,0,0,11-17.21Z"/>
          <g class="cls-28">
            <circle class="cls-25" cx="480.47" cy="102.24" r="1.95"/>
            <circle class="cls-25" cx="477.94" cy="106.31" r="1.32"/>
            <path class="cls-25" d="M482.42,106.82a1,1,0,1,1-1.95,0,1,1,0,0,1,1.95,0Z"/>
          </g>
        </g>
        <g>
          <path class="cls-25" d="M494.78,122.48a1.17,1.17,0,0,1-1.17,1.18H474a1.17,1.17,0,0,1-1.17-1.18h0a1.17,1.17,0,0,1,1.17-1.17h19.62a1.17,1.17,0,0,1,1.17,1.17Z"/>
          <path class="cls-25" d="M494.78,127.85a1.17,1.17,0,0,1-1.17,1.17H474a1.17,1.17,0,0,1-1.17-1.17h0a1.17,1.17,0,0,1,1.17-1.17h19.62a1.17,1.17,0,0,1,1.17,1.17Z"/>
        </g>
      </g>
      <g>
        <g>
          <path class="cls-21" d="M558.25,33h-.14V22.59H546V33h-.14s-15.24,31.07-15.24,44.41v70.31h0v5.41a7.15,7.15,0,0,0,14.3,0,7.15,7.15,0,0,0,14.3,0,7.16,7.16,0,0,0,14.31,0v-5.41h0V77.42C573.5,64.08,558.25,33,558.25,33Z"/>
          <path class="cls-29" d="M552,50.68A104.26,104.26,0,0,1,540.37,50c-3.87,9.46-7.85,20.79-7.85,27.38v75.72a5.22,5.22,0,0,0,10.43,0,1.94,1.94,0,0,1,3.87,0,5.22,5.22,0,0,0,10.44,0,1.94,1.94,0,0,1,3.87,0,5.22,5.22,0,0,0,10.43,0V77.42c0-6.59-4-17.92-7.85-27.38A104.26,104.26,0,0,1,552,50.68Z"/>
          <path class="cls-30" d="M559.44,32.47a.92.92,0,0,1-.92.92h-13a.92.92,0,0,1-.92-.92h0a.92.92,0,0,1,.92-.92h13a.92.92,0,0,1,.92.92Z"/>
          <rect class="cls-30" x="544.14" y="18.6" width="15.81" height="9.24" rx="1.29"/>
          <rect class="cls-30" x="530.59" y="82.69" width="42.91" height="53.6"/>
          <path class="cls-24" d="M539.86,62.3c-2.19,7.2-3.9,14.4-3.9,19.26v70.3h0"/>
          <path class="cls-24" d="M546.85,42.29c-1.3,3.35-3.06,8-4.78,13.12"/>
        </g>
        <g>
          <path class="cls-31" d="M551.53,105.89s-2.81,1.28-5,.24-3.07-4-3.07-4,2.81-1.28,5.05-.24S551.53,105.89,551.53,105.89Z"/>
          <g>
            <g>
              <circle class="cls-32" cx="552.04" cy="118.07" r="10.95" transform="translate(310.73 628.42) rotate(-76.77)"/>
              <path class="cls-33" d="M558,108.89a12.28,12.28,0,0,1,1.51,8.44c-1.14,6.4-6.89,10.74-12.85,9.68a10.44,10.44,0,0,1-1.46-.38A11,11,0,1,0,558,108.89Z"/>
            </g>
            <g>
              <circle class="cls-34" cx="548.47" cy="113.43" r="3.27"/>
              <path class="cls-34" d="M547.26,119.66a1.89,1.89,0,1,1-1.88-1.88A1.89,1.89,0,0,1,547.26,119.66Z"/>
              <path class="cls-34" d="M551.42,119.08a1.31,1.31,0,1,1-1.31-1.3A1.31,1.31,0,0,1,551.42,119.08Z"/>
            </g>
          </g>
          <path class="cls-35" d="M553.12,104a4.4,4.4,0,0,0-2.25,3.09l.23,0a4,4,0,0,1,2.71-2.52A1.07,1.07,0,0,0,553.12,104Z"/>
        </g>
        <rect class="cls-29" x="540.54" y="89.19" width="23" height="6.02" rx="2.58"/>
      </g>
      <g>
        <g>
          <rect class="cls-36" x="383.82" y="190.62" width="38.62" height="118.25"/>
          <rect class="cls-37" x="383.82" y="213.77" width="38.62" height="71.94"/>
          <rect class="cls-38" x="383.82" y="209.67" width="38.62" height="4.1"/>
          <rect class="cls-38" x="383.82" y="285.71" width="38.62" height="4.1"/>
          <rect class="cls-38" x="391.28" y="222.76" width="23.7" height="53.96" rx="4"/>
          <rect class="cls-39" x="383.82" y="190.62" width="38.62" height="3.73"/>
          <rect class="cls-39" x="383.82" y="305.14" width="38.62" height="3.73"/>
          <polygon class="cls-40" points="422.44 187.4 420.3 189.24 418.15 187.4 416.01 189.24 413.86 187.4 411.72 189.24 409.57 187.4 407.43 189.24 405.28 187.4 403.13 189.24 400.99 187.4 398.84 189.24 396.7 187.4 394.55 189.24 392.4 187.4 390.26 189.24 388.11 187.4 385.97 189.24 383.82 187.4 383.82 190.66 385 190.66 386.94 190.66 389.29 190.66 391.23 190.66 393.58 190.66 395.52 190.66 397.87 190.66 399.81 190.66 402.17 190.66 404.1 190.66 406.46 190.66 408.39 190.66 410.75 190.66 412.68 190.66 415.04 190.66 416.98 190.66 419.33 190.66 421.27 190.66 422.44 190.66 422.44 187.4"/>
          <polygon class="cls-40" points="383.82 312.13 385.97 310.29 388.11 312.13 390.26 310.29 392.4 312.13 394.55 310.29 396.7 312.13 398.84 310.29 400.99 312.13 403.13 310.29 405.28 312.13 407.43 310.29 409.57 312.13 411.72 310.29 413.86 312.13 416.01 310.29 418.15 312.13 420.3 310.29 422.44 312.13 422.44 308.87 421.27 308.87 419.33 308.87 416.98 308.87 415.04 308.87 412.68 308.87 410.75 308.87 408.39 308.87 406.46 308.87 404.1 308.87 402.17 308.87 399.81 308.87 397.87 308.87 395.52 308.87 393.58 308.87 391.23 308.87 389.29 308.87 386.94 308.87 385 308.87 383.82 308.87 383.82 312.13"/>
        </g>
        <path class="cls-41" d="M409.44,268.72a3.19,3.19,0,0,1-3.38,3h-5.85a3.19,3.19,0,0,1-3.38-3V230.8a3.18,3.18,0,0,1,3.38-3h5.85a3.18,3.18,0,0,1,3.38,3Z"/>
      </g>
      <g>
        <g>
          <rect class="cls-42" x="323.34" y="190.62" width="38.62" height="118.25"/>
          <g>
            <polygon class="cls-43" points="361.96 208.96 323.34 227.5 323.34 214.47 361.96 195.93 361.96 208.96"/>
            <polygon class="cls-43" points="361.96 228 323.34 246.54 323.34 233.51 361.96 214.96 361.96 228"/>
            <polygon class="cls-43" points="361.96 247.03 323.34 265.57 323.34 252.54 361.96 234 361.96 247.03"/>
            <polygon class="cls-43" points="361.96 266.07 323.34 284.61 323.34 271.58 361.96 253.04 361.96 266.07"/>
            <polygon class="cls-43" points="361.96 285.11 323.34 303.65 323.34 290.62 361.96 272.07 361.96 285.11"/>
          </g>
          <rect class="cls-39" x="323.34" y="190.62" width="38.62" height="3.73"/>
          <rect class="cls-39" x="323.34" y="305.14" width="38.62" height="3.73"/>
          <polygon class="cls-44" points="361.96 187.4 359.82 189.24 357.67 187.4 355.53 189.24 353.38 187.4 351.24 189.24 349.09 187.4 346.94 189.24 344.8 187.4 342.65 189.24 340.51 187.4 338.36 189.24 336.21 187.4 334.07 189.24 331.92 187.4 329.78 189.24 327.63 187.4 325.49 189.24 323.34 187.4 323.34 190.66 324.52 190.66 326.45 190.66 328.81 190.66 330.75 190.66 333.1 190.66 335.04 190.66 337.39 190.66 339.33 190.66 341.68 190.66 343.62 190.66 345.98 190.66 347.91 190.66 350.27 190.66 352.2 190.66 354.56 190.66 356.49 190.66 358.85 190.66 360.79 190.66 361.96 190.66 361.96 187.4"/>
          <polygon class="cls-44" points="323.34 312.13 325.49 310.29 327.63 312.13 329.78 310.29 331.92 312.13 334.07 310.29 336.21 312.13 338.36 310.29 340.51 312.13 342.65 310.29 344.8 312.13 346.94 310.29 349.09 312.13 351.24 310.29 353.38 312.13 355.53 310.29 357.67 312.13 359.82 310.29 361.96 312.13 361.96 308.87 360.79 308.87 358.85 308.87 356.49 308.87 354.56 308.87 352.2 308.87 350.27 308.87 347.91 308.87 345.98 308.87 343.62 308.87 341.68 308.87 339.33 308.87 337.39 308.87 335.04 308.87 333.1 308.87 330.75 308.87 328.81 308.87 326.45 308.87 324.52 308.87 323.34 308.87 323.34 312.13"/>
        </g>
        <rect class="cls-45" x="333.32" y="213.93" width="18.67" height="71.67" rx="2.16"/>
        <path class="cls-41" d="M348.72,280.11c0,1.08-.63,1.95-1.4,1.95H338c-.78,0-1.41-.87-1.41-1.95V219.42c0-1.08.63-1.95,1.41-1.95h9.33c.77,0,1.4.87,1.4,1.95Z"/>
      </g>
      <g>
        <g>
          <g>
            <g>
              <path class="cls-46" d="M521.51,204.64V310.25a2.58,2.58,0,0,0,2.58,2.58h49.2a2.58,2.58,0,0,0,2.58-2.58V204.64Z"/>
              <polygon class="cls-47" points="575.87 204.64 568.13 182.81 529.25 182.81 521.51 204.64 575.87 204.64"/>
              <path class="cls-8" d="M521.51,305.06v5.19a2.58,2.58,0,0,0,2.58,2.58h49.2a2.58,2.58,0,0,0,2.58-2.58v-5.19Z"/>
            </g>
            <g>
              <line class="cls-16" x1="530.92" y1="233.28" x2="530.92" y2="299.3"/>
              <line class="cls-16" x1="530.92" y1="213.09" x2="530.92" y2="224.1"/>
            </g>
          </g>
          <g>
            <path class="cls-48" d="M563.46,193.29a7,7,0,1,1-7-7A7,7,0,0,1,563.46,193.29Z"/>
            <path class="cls-49" d="M561.56,193.29a5.07,5.07,0,1,1-5.07-5.07A5.07,5.07,0,0,1,561.56,193.29Z"/>
          </g>
        </g>
        <path class="cls-48" d="M575.87,227.5a34.26,34.26,0,0,0,0,68.52Z"/>
        <path class="cls-47" d="M575.87,233a28.74,28.74,0,0,0,0,57.47Z"/>
        <rect class="cls-48" x="542.77" y="215.13" width="27.45" height="8.34" rx="2.58"/>
        <g class="cls-50">
          <g>
            <path class="cls-51" d="M571.59,251.34s-4.38-.71-6.24-3.75-.47-7.26-.47-7.26,4.39.7,6.24,3.75S571.59,251.34,571.59,251.34Z"/>
            <path class="cls-51" d="M571.89,250.41s0-3.1,1.93-4.69,4.95-1.09,4.95-1.09,0,3.1-1.93,4.69S571.89,250.41,571.89,250.41Z"/>
            <g>
              <g>
                <circle class="cls-52" cx="571.21" cy="274.39" r="5.65"/>
                <path class="cls-49" d="M573.66,269.33a5.54,5.54,0,0,1,1.21,3.45,5.61,5.61,0,0,1-8.11,5.06,5.63,5.63,0,1,0,6.9-8.51Z"/>
                <path class="cls-53" d="M571.49,272.17a1.81,1.81,0,1,1-1.8-1.8A1.81,1.81,0,0,1,571.49,272.17Z"/>
              </g>
              <g>
                <g>
                  <path class="cls-52" d="M566,256.37a5.65,5.65,0,1,1-5.65-5.65A5.65,5.65,0,0,1,566,256.37Z"/>
                  <path class="cls-49" d="M562.62,251.07a5.62,5.62,0,0,1-6.91,8.52,5.64,5.64,0,1,0,6.91-8.52Z"/>
                  <path class="cls-53" d="M560.45,253.92a1.81,1.81,0,1,1-1.81-1.81A1.81,1.81,0,0,1,560.45,253.92Z"/>
                </g>
                <g>
                  <circle class="cls-52" cx="571.44" cy="256.37" r="5.65"/>
                  <path class="cls-49" d="M573.66,251.07a5.58,5.58,0,0,1,1.21,3.45,5.62,5.62,0,0,1-8.11,5.07,5.63,5.63,0,1,0,6.9-8.52Z"/>
                  <path class="cls-53" d="M571.49,253.92a1.81,1.81,0,1,1-1.8-1.81A1.81,1.81,0,0,1,571.49,253.92Z"/>
                </g>
                <g>
                  <path class="cls-49" d="M587.9,256.13a5.65,5.65,0,1,1-5.65-5.64A5.65,5.65,0,0,1,587.9,256.13Z"/>
                  <path class="cls-49" d="M584.71,251.07a5.58,5.58,0,0,1,1.21,3.45,5.62,5.62,0,0,1-8.11,5.07,5.63,5.63,0,1,0,6.9-8.52Z"/>
                  <path class="cls-53" d="M582.54,253.92a1.81,1.81,0,1,1-1.81-1.81A1.81,1.81,0,0,1,582.54,253.92Z"/>
                </g>
              </g>
              <g>
                <g>
                  <circle class="cls-52" cx="565.91" cy="265.11" r="5.65"/>
                  <path class="cls-49" d="M568.14,259.81a5.62,5.62,0,0,1-6.9,8.52,5.63,5.63,0,1,0,6.9-8.52Z"/>
                  <path class="cls-53" d="M566,262.66a1.81,1.81,0,1,1-1.81-1.81A1.81,1.81,0,0,1,566,262.66Z"/>
                </g>
                <g>
                  <circle class="cls-49" cx="576.73" cy="264.88" r="5.65"/>
                  <path class="cls-49" d="M579.19,259.81a5.62,5.62,0,0,1-6.9,8.52,5.63,5.63,0,1,0,6.9-8.52Z"/>
                  <path class="cls-53" d="M577,262.66a1.81,1.81,0,1,1-1.81-1.81A1.81,1.81,0,0,1,577,262.66Z"/>
                </g>
              </g>
            </g>
          </g>
        </g>
      </g>
      <g>
        <g>
          <g>
            <g>
              <path class="cls-54" d="M595.49,204.64V310.25a2.59,2.59,0,0,0,2.58,2.58h49.21a2.59,2.59,0,0,0,2.58-2.58V204.64Z"/>
              <polygon class="cls-47" points="649.86 204.64 642.12 182.81 603.24 182.81 595.49 204.64 649.86 204.64"/>
              <path class="cls-8" d="M595.49,305.06v5.19a2.59,2.59,0,0,0,2.58,2.58h49.21a2.59,2.59,0,0,0,2.58-2.58v-5.19Z"/>
            </g>
            <g>
              <line class="cls-16" x1="604.9" y1="233.28" x2="604.9" y2="299.3"/>
              <line class="cls-16" x1="604.9" y1="213.09" x2="604.9" y2="224.1"/>
            </g>
          </g>
          <g>
            <path class="cls-55" d="M637.45,193.29a7,7,0,1,1-7-7A7,7,0,0,1,637.45,193.29Z"/>
            <path class="cls-54" d="M635.54,193.29a5.06,5.06,0,1,1-5.06-5.07A5.07,5.07,0,0,1,635.54,193.29Z"/>
          </g>
        </g>
        <path class="cls-10" d="M649.86,227.5a34.26,34.26,0,0,0,0,68.52Z"/>
        <path class="cls-47" d="M649.86,233a28.74,28.74,0,0,0,0,57.47Z"/>
        <g class="cls-56">
          <g>
            <circle class="cls-10" cx="650.24" cy="261.52" r="19.75" transform="translate(5.53 536.39) rotate(-45)"/>
            <circle class="cls-57" cx="650.24" cy="261.52" r="17.14" transform="translate(5.53 536.39) rotate(-45)"/>
            <circle class="cls-54" cx="650.24" cy="261.52" r="14.72"/>
            <rect class="cls-57" x="649.61" y="245.43" width="1.26" height="32.19"/>
            <rect class="cls-57" x="634.15" y="260.89" width="32.19" height="1.26"/>
            <rect class="cls-57" x="649.61" y="245.43" width="1.26" height="32.19" transform="translate(5.53 536.39) rotate(-45)"/>
            <rect class="cls-57" x="634.15" y="260.89" width="32.19" height="1.26" transform="translate(5.53 536.39) rotate(-45)"/>
          </g>
        </g>
      </g>
      <g>
        <g>
          <g>
            <g>
              <g>
                <rect class="cls-58" x="22.93" y="57.67" width="68.62" height="93.25"/>
                <rect class="cls-59" x="22.93" y="72.46" width="68.62" height="31.26"/>
                <rect class="cls-8" x="22.93" y="57.67" width="68.62" height="3.57"/>
                <rect class="cls-8" x="22.93" y="147.36" width="68.62" height="3.57"/>
                <polygon class="cls-60" points="92.87 57.67 21.61 57.67 20.66 50.16 93.82 50.16 92.87 57.67"/>
                <polygon class="cls-60" points="21.61 150.93 92.87 150.93 93.82 158.44 20.66 158.44 21.61 150.93"/>
              </g>
              <g class="cls-61">
                <line class="cls-62" x1="29.25" y1="86.08" x2="29.25" y2="140.68"/>
                <line class="cls-62" x1="29.25" y1="68.65" x2="29.25" y2="78.63"/>
              </g>
            </g>
            <circle class="cls-63" cx="57.24" cy="102.87" r="20.18" transform="translate(-55.98 70.61) rotate(-45)"/>
            <circle class="cls-3" cx="57.24" cy="102.87" r="16.83" transform="translate(-55.98 70.61) rotate(-45)"/>
          </g>
          <rect class="cls-59" x="44.16" y="127.68" width="26.15" height="8.6" rx="2.58"/>
        </g>
        <path class="cls-64" d="M49.15,107.91c-.29,1.61,2.4,5,7.92,4,4-.72,12.14-7,11.72-12.15s-5.42-4.94-6.69-2.76c-.68,1.17-5.81,7.36-8.56,8.68S49.29,107.12,49.15,107.91Z"/>
        <path class="cls-65" d="M46.35,107.49c0,1.63,3.26,4.53,8.51,2.59,3.84-1.42,10.71-9.08,9.4-14s-6.2-3.91-7.06-1.54c-.47,1.27-4.43,8.26-6.91,10S46.35,106.68,46.35,107.49Z"/>
      </g>
      <g>
        <path class="cls-66" d="M194.37,103.71c0-22.24,5.39-45.64,5.39-45.64H127.23s5.39,23.4,5.39,45.64h0c0,22.24-5.39,45.64-5.39,45.64h72.53s-5.39-23.4-5.39-45.64Z"/>
        <polygon class="cls-67" points="201.5 58.07 125.92 58.07 124.91 48.97 202.51 48.97 201.5 58.07"/>
        <polygon class="cls-67" points="125.92 149.35 201.5 149.35 202.51 158.44 124.91 158.44 125.92 149.35"/>
        <path class="cls-8" d="M199,61.63c.45-2.26.75-3.56.75-3.56H127.23s.3,1.3.76,3.56Z"/>
        <path class="cls-8" d="M128,145.78c-.46,2.26-.76,3.57-.76,3.57h72.53s-.3-1.31-.75-3.57Z"/>
        <path class="cls-68" d="M196.09,79.38c-8.71-4.79-20-7.7-32.38-7.7-12.56,0-24,3-32.78,7.92a194,194,0,0,1,1.69,24.11,193.93,193.93,0,0,1-1.69,24.1c8.76,4.93,20.22,7.92,32.78,7.92,12.37,0,23.67-2.91,32.38-7.7a194.91,194.91,0,0,1-1.72-24.32h0A195.07,195.07,0,0,1,196.09,79.38Z"/>
        <path class="cls-59" d="M163.71,129.71c12.73,0,24.07-3.79,31.49-9.7-.5-5.26-.83-10.82-.83-16.3h0c0-5.49.33-11,.83-16.31-7.42-5.91-18.76-9.69-31.49-9.69-13,0-24.48,3.92-31.88,10,.48,5.17.79,10.61.79,16s-.31,10.82-.79,16C139.23,125.78,150.75,129.71,163.71,129.71Z"/>
        <path class="cls-16" d="M139.13,89.36l.09,1.09c.35,4.33.56,8.82.56,13.26h0a218.33,218.33,0,0,1-3.46,35.8"/>
        <path class="cls-16" d="M136.22,67.32c.63,3.57,1.33,8,1.94,12.86.08.59.15,1.19.22,1.8"/>
        <g>
          <g class="cls-69">
            <path d="M176.69,99.4,164.44,89A1.17,1.17,0,0,0,163,89L150.73,99.4a.78.78,0,0,0,0,1.23L163,111a1.17,1.17,0,0,0,1.46,0l12.25-10.4A.78.78,0,0,0,176.69,99.4Z"/>
            <path d="M159,105.08a.22.22,0,0,1-.3,0h0a.21.21,0,0,1,0-.29L168.9,94.63a.21.21,0,0,1,.29,0h0a.19.19,0,0,1,0,.29Z"/>
            <path d="M169.19,104.79a.19.19,0,0,1,0,.29h0a.21.21,0,0,1-.29,0L158.74,94.92a.21.21,0,0,1,0-.29h0a.22.22,0,0,1,.3,0Z"/>
            <path d="M164.49,93.77a1,1,0,1,1-1-1A1,1,0,0,1,164.49,93.77Z"/>
            <path d="M156.65,99.14a.66.66,0,0,1-.66.65.65.65,0,0,1-.65-.65.66.66,0,0,1,.65-.66A.67.67,0,0,1,156.65,99.14Z"/>
            <path d="M160.48,99.12a.9.9,0,1,1-.9-.9A.89.89,0,0,1,160.48,99.12Z"/>
            <path d="M163.45,107.51a.53.53,0,0,1-.53.52.53.53,0,0,1,0-1A.53.53,0,0,1,163.45,107.51Z"/>
            <path d="M164.1,103.48a.42.42,0,1,1-.42-.42A.42.42,0,0,1,164.1,103.48Z"/>
            <path d="M170.71,101.26a.89.89,0,1,1-.89-.88A.88.88,0,0,1,170.71,101.26Z"/>
            <path d="M171.82,98.18a.72.72,0,1,1-1.44,0,.72.72,0,1,1,1.44,0Z"/>
          </g>
          <g>
            <path class="cls-70" d="M176.69,98.4,164.44,88A1.17,1.17,0,0,0,163,88L150.73,98.4a.78.78,0,0,0,0,1.23L163,110a1.17,1.17,0,0,0,1.46,0l12.25-10.4A.78.78,0,0,0,176.69,98.4Z"/>
            <g class="cls-61">
              <path class="cls-71" d="M159,104.08a.22.22,0,0,1-.3,0h0a.21.21,0,0,1,0-.29L168.9,93.63a.21.21,0,0,1,.29,0h0a.19.19,0,0,1,0,.29Z"/>
              <path class="cls-71" d="M169.19,103.79a.19.19,0,0,1,0,.29h0a.21.21,0,0,1-.29,0L158.74,93.92a.21.21,0,0,1,0-.29h0a.22.22,0,0,1,.3,0Z"/>
            </g>
            <path class="cls-71" d="M164.49,92.77a1,1,0,1,1-1-1A1,1,0,0,1,164.49,92.77Z"/>
            <path class="cls-71" d="M156.65,98.14a.66.66,0,0,1-.66.65.65.65,0,0,1-.65-.65.66.66,0,0,1,.65-.66A.67.67,0,0,1,156.65,98.14Z"/>
            <path class="cls-71" d="M160.48,98.12a.9.9,0,1,1-.9-.9A.89.89,0,0,1,160.48,98.12Z"/>
            <path class="cls-71" d="M163.45,106.51a.53.53,0,0,1-.53.52.53.53,0,0,1,0-1A.53.53,0,0,1,163.45,106.51Z"/>
            <path class="cls-71" d="M164.1,102.48a.42.42,0,1,1-.42-.42A.42.42,0,0,1,164.1,102.48Z"/>
            <path class="cls-71" d="M170.71,100.26a.89.89,0,1,1-.89-.88A.88.88,0,0,1,170.71,100.26Z"/>
            <path class="cls-71" d="M171.82,97.18a.72.72,0,1,1-1.44,0,.72.72,0,1,1,1.44,0Z"/>
          </g>
        </g>
        <g>
          <g class="cls-69">
            <path d="M176.69,94.2,164.44,83.81a1.17,1.17,0,0,0-1.46,0L150.73,94.2a.79.79,0,0,0,0,1.24L163,105.83a1.17,1.17,0,0,0,1.46,0l12.25-10.39A.79.79,0,0,0,176.69,94.2Z"/>
            <path d="M159,99.89a.22.22,0,0,1-.3,0h0a.22.22,0,0,1,0-.3L168.9,89.44a.21.21,0,0,1,.29,0h0a.19.19,0,0,1,0,.29Z"/>
            <path d="M169.19,99.59a.2.2,0,0,1,0,.3h0a.21.21,0,0,1-.29,0L158.74,89.73a.21.21,0,0,1,0-.29h0a.22.22,0,0,1,.3,0Z"/>
            <path d="M164.49,88.58a1,1,0,1,1-1-1A1,1,0,0,1,164.49,88.58Z"/>
            <path d="M156.65,93.94a.67.67,0,0,1-.66.66.66.66,0,0,1-.65-.66.65.65,0,0,1,.65-.65A.66.66,0,0,1,156.65,93.94Z"/>
            <path d="M160.48,93.92a.9.9,0,1,1-.9-.89A.9.9,0,0,1,160.48,93.92Z"/>
            <path d="M163.45,102.31a.52.52,0,0,1-.53.52.52.52,0,1,1,0-1A.52.52,0,0,1,163.45,102.31Z"/>
            <circle cx="163.68" cy="98.29" r="0.42"/>
            <path d="M170.71,96.07a.89.89,0,1,1-.89-.89A.89.89,0,0,1,170.71,96.07Z"/>
            <path d="M171.82,93a.72.72,0,1,1-.72-.72A.72.72,0,0,1,171.82,93Z"/>
          </g>
          <g>
            <path class="cls-70" d="M176.69,93.2,164.44,82.81a1.17,1.17,0,0,0-1.46,0L150.73,93.2a.79.79,0,0,0,0,1.24L163,104.83a1.17,1.17,0,0,0,1.46,0l12.25-10.39A.79.79,0,0,0,176.69,93.2Z"/>
            <g class="cls-61">
              <path class="cls-71" d="M159,98.89a.22.22,0,0,1-.3,0h0a.22.22,0,0,1,0-.3L168.9,88.44a.21.21,0,0,1,.29,0h0a.19.19,0,0,1,0,.29Z"/>
              <path class="cls-71" d="M169.19,98.59a.2.2,0,0,1,0,.3h0a.21.21,0,0,1-.29,0L158.74,88.73a.21.21,0,0,1,0-.29h0a.22.22,0,0,1,.3,0Z"/>
            </g>
            <path class="cls-71" d="M164.49,87.58a1,1,0,1,1-1-1A1,1,0,0,1,164.49,87.58Z"/>
            <path class="cls-71" d="M156.65,92.94a.67.67,0,0,1-.66.66.66.66,0,0,1-.65-.66.65.65,0,0,1,.65-.65A.66.66,0,0,1,156.65,92.94Z"/>
            <path class="cls-71" d="M160.48,92.92a.9.9,0,1,1-.9-.89A.9.9,0,0,1,160.48,92.92Z"/>
            <path class="cls-71" d="M163.45,101.31a.52.52,0,0,1-.53.52.52.52,0,1,1,0-1A.52.52,0,0,1,163.45,101.31Z"/>
            <circle class="cls-71" cx="163.68" cy="97.29" r="0.42"/>
            <path class="cls-71" d="M170.71,95.07a.89.89,0,1,1-.89-.89A.89.89,0,0,1,170.71,95.07Z"/>
            <path class="cls-71" d="M171.82,92a.72.72,0,1,1-.72-.72A.72.72,0,0,1,171.82,92Z"/>
          </g>
        </g>
        <rect class="cls-68" x="151.94" y="114.98" width="23.53" height="7.43" rx="1.29"/>
      </g>
      <g>
        <g>
          <g>
            <g>
              <rect class="cls-72" x="243.41" y="57.67" width="68.62" height="93.25"/>
              <polygon class="cls-73" points="312.03 139.05 243.41 105.25 243.41 69.56 312.03 103.35 312.03 139.05"/>
              <rect class="cls-8" x="243.41" y="57.67" width="68.62" height="3.57"/>
              <rect class="cls-8" x="243.41" y="147.36" width="68.62" height="3.57"/>
              <polygon class="cls-74" points="313.35 57.67 242.09 57.67 241.14 50.16 314.3 50.16 313.35 57.67"/>
              <polygon class="cls-74" points="242.09 150.93 313.35 150.93 314.3 158.44 241.14 158.44 242.09 150.93"/>
            </g>
            <g class="cls-61">
              <line class="cls-62" x1="249.73" y1="86.08" x2="249.73" y2="140.68"/>
              <line class="cls-62" x1="249.73" y1="68.65" x2="249.73" y2="78.63"/>
            </g>
          </g>
          <g>
            <rect class="cls-68" x="260.89" y="80.74" width="33.66" height="47.11" rx="2.34"/>
            <path class="cls-75" d="M264,83.86a.38.38,0,0,0-.38.38v40.12a.38.38,0,0,0,.38.38h27.4a.38.38,0,0,0,.38-.38V84.24a.38.38,0,0,0-.38-.38Z"/>
          </g>
          <g>
            <path class="cls-68" d="M293.82,71.38a2.13,2.13,0,0,1-2.14,2.13H263.76a2.13,2.13,0,0,1-2.13-2.13h0a2.13,2.13,0,0,1,2.13-2.14h27.92a2.14,2.14,0,0,1,2.14,2.14Z"/>
            <path class="cls-68" d="M293.82,137.22a2.14,2.14,0,0,1-2.14,2.14H263.76a2.13,2.13,0,0,1-2.13-2.14h0a2.13,2.13,0,0,1,2.13-2.13h27.92a2.14,2.14,0,0,1,2.14,2.13Z"/>
          </g>
        </g>
        <g>
          <g class="cls-69">
            <circle cx="277.72" cy="109.23" r="9.61" transform="translate(107.42 354.3) rotate(-76.67)"/>
            <path d="M278.5,105.86a2.78,2.78,0,1,1-2.78-2.78A2.78,2.78,0,0,1,278.5,105.86Z"/>
            <path d="M281.82,110.14a1.85,1.85,0,1,1-1.85-1.85A1.85,1.85,0,0,1,281.82,110.14Z"/>
            <path d="M276,112a1.34,1.34,0,1,1-1.34-1.35A1.34,1.34,0,0,1,276,112Z"/>
            <path d="M282.5,105.31a1,1,0,1,1-1-1A1,1,0,0,1,282.5,105.31Z"/>
            <circle cx="280.2" cy="114.36" r="1.02"/>
          </g>
          <g>
            <circle class="cls-76" cx="277.72" cy="108.23" r="9.61" transform="translate(108.39 353.53) rotate(-76.67)"/>
            <g>
              <path class="cls-77" d="M278.5,104.86a2.78,2.78,0,1,1-2.78-2.78A2.78,2.78,0,0,1,278.5,104.86Z"/>
              <path class="cls-77" d="M281.82,109.14a1.85,1.85,0,1,1-1.85-1.85A1.85,1.85,0,0,1,281.82,109.14Z"/>
              <path class="cls-77" d="M276,111a1.34,1.34,0,1,1-1.34-1.35A1.34,1.34,0,0,1,276,111Z"/>
              <path class="cls-77" d="M282.5,104.31a1,1,0,1,1-1-1A1,1,0,0,1,282.5,104.31Z"/>
              <circle class="cls-77" cx="280.2" cy="113.36" r="1.02"/>
            </g>
          </g>
        </g>
        <g>
          <g class="cls-69">
            <circle cx="277.72" cy="100.57" r="9.61" transform="translate(10.23 225.84) rotate(-45)"/>
            <path d="M278.5,97.2a2.78,2.78,0,1,1-2.78-2.78A2.78,2.78,0,0,1,278.5,97.2Z"/>
            <path d="M281.82,101.48A1.85,1.85,0,1,1,280,99.63,1.85,1.85,0,0,1,281.82,101.48Z"/>
            <path d="M276,103.34A1.34,1.34,0,1,1,274.7,102,1.34,1.34,0,0,1,276,103.34Z"/>
            <path d="M282.5,96.65a1,1,0,1,1-1-1A1,1,0,0,1,282.5,96.65Z"/>
            <path d="M281.22,105.7a1,1,0,1,1-1-1A1,1,0,0,1,281.22,105.7Z"/>
          </g>
          <g>
            <circle class="cls-76" cx="277.72" cy="99.57" r="9.61" transform="translate(10.94 225.54) rotate(-45)"/>
            <g>
              <path class="cls-77" d="M278.5,96.2a2.78,2.78,0,1,1-2.78-2.78A2.78,2.78,0,0,1,278.5,96.2Z"/>
              <path class="cls-77" d="M281.82,100.48A1.85,1.85,0,1,1,280,98.63,1.85,1.85,0,0,1,281.82,100.48Z"/>
              <path class="cls-77" d="M276,102.34A1.34,1.34,0,1,1,274.7,101,1.34,1.34,0,0,1,276,102.34Z"/>
              <path class="cls-77" d="M282.5,95.65a1,1,0,1,1-1-1A1,1,0,0,1,282.5,95.65Z"/>
              <path class="cls-77" d="M281.22,104.7a1,1,0,1,1-1-1A1,1,0,0,1,281.22,104.7Z"/>
            </g>
          </g>
        </g>
      </g>
      <g>
        <path class="cls-78" d="M416.92,103.71c0-22.24,5.39-45.64,5.39-45.64H349.78s5.39,23.4,5.39,45.64h0c0,22.24-5.39,45.64-5.39,45.64h72.53s-5.39-23.4-5.39-45.64Z"/>
        <path class="cls-79" d="M355,111.16a246.26,246.26,0,0,1-5.2,38.19h72.53A246.17,246.17,0,0,1,417.1,111a112.82,112.82,0,0,0-62.12.12Z"/>
        <polygon class="cls-80" points="424.05 58.07 348.46 58.07 347.45 48.97 425.05 48.97 424.05 58.07"/>
        <polygon class="cls-80" points="348.46 149.35 424.05 149.35 425.05 158.44 347.45 158.44 348.46 149.35"/>
        <g>
          <path class="cls-16" d="M361.68,89.36l.09,1.09c.34,4.33.55,8.82.55,13.26h0a218.33,218.33,0,0,1-3.46,35.8"/>
          <path class="cls-16" d="M358.76,67.32c.63,3.57,1.33,8,1.95,12.86.07.59.14,1.19.22,1.8"/>
        </g>
        <path class="cls-8" d="M421.55,61.63c.46-2.26.76-3.56.76-3.56H349.78s.3,1.3.75,3.56Z"/>
        <path class="cls-8" d="M350.53,145.78c-.45,2.26-.75,3.57-.75,3.57h72.53s-.3-1.31-.76-3.57Z"/>
        <g>
          <circle class="cls-68" cx="386.25" cy="105.87" r="17.63" transform="translate(38.27 304.13) rotate(-45)"/>
          <circle class="cls-75" cx="386.25" cy="105.87" r="14.7"/>
        </g>
        <g>
          <path class="cls-78" d="M379.53,141.14a1.26,1.26,0,0,1-1.26,1.26h0a1.25,1.25,0,0,1-1.26-1.26V128a1.25,1.25,0,0,1,1.26-1.26h0a1.26,1.26,0,0,1,1.26,1.26Z"/>
          <path class="cls-78" d="M387.51,141.14a1.25,1.25,0,0,1-1.26,1.26h0a1.26,1.26,0,0,1-1.26-1.26V128a1.26,1.26,0,0,1,1.26-1.26h0a1.25,1.25,0,0,1,1.26,1.26Z"/>
          <path class="cls-78" d="M395.49,141.14a1.25,1.25,0,0,1-1.25,1.26h0a1.25,1.25,0,0,1-1.26-1.26V128a1.25,1.25,0,0,1,1.26-1.26h0a1.25,1.25,0,0,1,1.25,1.26Z"/>
        </g>
        <rect class="cls-68" x="370.73" y="73.66" width="31.05" height="7.36" rx="3.07"/>
        <g>
          <g>
            <polygon class="cls-81" points="393.42 98.12 376.85 104.83 390.96 115.85 393.42 98.12"/>
            <g>
              <path class="cls-82" d="M387.35,106.23a1.86,1.86,0,1,1-1.56-2.13A1.86,1.86,0,0,1,387.35,106.23Z"/>
              <path class="cls-82" d="M389.89,103.15a1.08,1.08,0,1,1-.9-1.24A1.09,1.09,0,0,1,389.89,103.15Z"/>
              <path class="cls-82" d="M390.17,107a.85.85,0,0,1-1,.7.84.84,0,1,1,1-.7Z"/>
            </g>
          </g>
          <g>
            <polygon class="cls-83" points="392.17 96.83 374.71 100.67 386.77 113.89 392.17 96.83"/>
            <g>
              <path class="cls-84" d="M384.82,103.8a1.86,1.86,0,1,1-1.17-2.35A1.86,1.86,0,0,1,384.82,103.8Z"/>
              <path class="cls-84" d="M387.85,101.19a1.08,1.08,0,1,1-.69-1.37A1.09,1.09,0,0,1,387.85,101.19Z"/>
              <path class="cls-84" d="M387.48,105A.83.83,0,1,1,387,104,.83.83,0,0,1,387.48,105Z"/>
            </g>
          </g>
        </g>
      </g>
      <g>
        <polygon class="cls-85" points="120.12 309.02 122.72 312.13 125.33 309.02 127.94 312.13 130.55 309.02 133.16 312.13 135.76 309.02 138.37 312.13 140.98 309.02 143.59 312.13 146.19 309.02 148.8 312.13 151.41 309.02 154.02 312.13 156.63 309.02 159.24 312.13 161.84 309.02 164.45 312.13 167.06 309.02 169.67 312.13 172.27 309.02 174.88 312.13 177.49 309.02 180.1 312.13 182.71 309.02 185.31 312.13 187.92 309.02 190.53 312.13 190.53 308.46 188.39 308.46 187.45 308.46 183.18 308.46 182.23 308.46 177.96 308.46 177.02 308.46 172.75 308.46 171.8 308.46 167.53 308.46 166.59 308.46 162.31 308.46 161.37 308.46 157.1 308.46 156.16 308.46 151.88 308.46 150.94 308.46 146.67 308.46 145.72 308.46 141.45 308.46 140.51 308.46 136.24 308.46 135.29 308.46 131.02 308.46 130.08 308.46 125.8 308.46 124.86 308.46 120.59 308.46 119.65 308.46 117.51 308.46 117.51 312.13 120.12 309.02"/>
        <g>
          <polygon class="cls-85" points="187.92 181.52 185.31 178.4 182.71 181.52 180.1 178.4 177.49 181.52 174.88 178.4 172.27 181.52 169.67 178.4 167.06 181.52 164.45 178.4 161.84 181.52 159.24 178.4 156.63 181.52 154.02 178.4 151.41 181.52 148.8 178.4 146.19 181.52 143.59 178.4 140.98 181.52 138.37 178.4 135.76 181.52 133.16 178.4 130.55 181.52 127.94 178.4 125.33 181.52 122.72 178.4 120.12 181.52 117.51 178.4 117.51 182.08 119.65 182.08 120.59 182.08 124.86 182.08 125.8 182.08 130.08 182.08 131.02 182.08 135.29 182.08 136.24 182.08 140.51 182.08 141.45 182.08 145.72 182.08 146.67 182.08 150.94 182.08 151.88 182.08 156.16 182.08 157.1 182.08 161.37 182.08 162.31 182.08 166.59 182.08 167.53 182.08 171.8 182.08 172.75 182.08 177.02 182.08 177.96 182.08 182.23 182.08 183.18 182.08 187.45 182.08 188.39 182.08 190.53 182.08 190.53 178.4 187.92 181.52"/>
          <polygon class="cls-8" points="118.72 304.68 117.51 308.46 154.02 308.46 190.53 308.46 189.32 304.68 118.72 304.68"/>
          <polygon class="cls-86" points="187.56 191.38 190.53 182.08 154.02 182.08 117.51 182.08 120.48 191.38 120.48 299.15 117.51 308.46 154.02 308.46 190.53 308.46 187.56 299.15 187.56 191.38"/>
          <g>
            <path class="cls-87" d="M154.35,285a214.35,214.35,0,0,0-33.87,2.59v11.54l-3,9.31h73l-3-9.31V287.51A215.43,215.43,0,0,0,154.35,285Z"/>
            <path class="cls-68" d="M187.56,287.51v-2.95a239,239,0,0,0-67.08.09v3a222.73,222.73,0,0,1,67.08-.1Z"/>
            <path class="cls-87" d="M154.35,205.51A215.48,215.48,0,0,0,187.56,203V191.38l3-9.3h-73l3,9.3v11.54A214.35,214.35,0,0,0,154.35,205.51Z"/>
          </g>
          <path class="cls-68" d="M120.48,202.92v3a230.67,230.67,0,0,0,33.87,2.41A231.18,231.18,0,0,0,187.56,206V203a215.48,215.48,0,0,1-33.21,2.48A214.35,214.35,0,0,1,120.48,202.92Z"/>
          <circle class="cls-87" cx="154.02" cy="254.75" r="22.32" transform="translate(-93.08 88.73) rotate(-24.95)"/>
          <circle class="cls-68" cx="154.02" cy="254.75" r="18.9" transform="translate(-127.89 350.38) rotate(-77.58)"/>
          <circle class="cls-75" cx="154.02" cy="254.75" r="15.59" transform="translate(-127.87 350.44) rotate(-77.59)"/>
          <polygon class="cls-8" points="189.32 185.85 190.53 182.08 154.02 182.08 117.51 182.08 118.72 185.85 189.32 185.85"/>
          <g>
            <rect class="cls-68" x="143.15" y="213.67" width="4.82" height="15.31" rx="2.31"/>
            <rect class="cls-68" x="151.61" y="213.67" width="4.82" height="15.31" rx="2.31"/>
            <rect class="cls-68" x="160.07" y="213.67" width="4.82" height="15.31" rx="2.31"/>
          </g>
          <line class="cls-16" x1="127.81" y1="219.41" x2="127.81" y2="296.66"/>
          <line class="cls-16" x1="127.81" y1="194.75" x2="127.81" y2="208.87"/>
          <g>
            <g>
              <path class="cls-88" d="M156.71,257.32c1.14-.9,3.83.24,5.68-1s3.61-4.77,1.62-7.59-5.7-2.06-7.34-.53-1.38,4.58-2.52,5.48-4-1.29-7.23,1.31c-1.82,1.44-2.56,4.08-.23,7.38s4.94,3.32,6.76,1.88C156.75,261.69,155.57,258.22,156.71,257.32Z"/>
              <path class="cls-89" d="M160,251.38a1.06,1.06,0,0,1-1.53-.24,1.21,1.21,0,0,1,.22-1.62,1.06,1.06,0,0,1,1.53.24A1.21,1.21,0,0,1,160,251.38Z"/>
              <path class="cls-89" d="M153.81,260.3a1.05,1.05,0,0,1-1.53-.24,1.19,1.19,0,0,1,.22-1.61,1.06,1.06,0,0,1,1.53.24A1.19,1.19,0,0,1,153.81,260.3Z"/>
              <path class="cls-89" d="M158.21,254.42a.75.75,0,0,1-1.1-.17.86.86,0,0,1,.16-1.16.76.76,0,0,1,1.1.17A.86.86,0,0,1,158.21,254.42Z"/>
              <path class="cls-89" d="M161.38,254.16a.6.6,0,0,1-.87-.13.68.68,0,0,1,.12-.92.61.61,0,0,1,.87.14A.68.68,0,0,1,161.38,254.16Z"/>
              <path class="cls-89" d="M151.81,256.38a.59.59,0,0,1-.86-.13.68.68,0,0,1,.12-.92.61.61,0,0,1,.87.14A.67.67,0,0,1,151.81,256.38Z"/>
              <path class="cls-89" d="M162.68,251a.42.42,0,0,1-.6-.1.47.47,0,0,1,.09-.63.4.4,0,0,1,.59.09A.47.47,0,0,1,162.68,251Z"/>
              <path class="cls-89" d="M149.53,259.75a.41.41,0,0,1-.6-.09A.47.47,0,0,1,149,259a.41.41,0,0,1,.6.09A.47.47,0,0,1,149.53,259.75Z"/>
            </g>
            <g>
              <path class="cls-90" d="M153.78,255.24c.72-1.29,3.61-1.35,4.87-3.24s1.57-5.88-1.29-7.67-6,.44-7,2.52.4,4.8-.32,6.09-4.1.43-6.17,4.17c-1.15,2.08-.86,4.82,2.49,6.92s5.76,1,6.92-1C155.41,259.26,153.06,256.54,153.78,255.24Z"/>
              <path class="cls-89" d="M154.63,248.4a1.06,1.06,0,0,1-1.49.41,1.19,1.19,0,0,1-.39-1.58,1.06,1.06,0,0,1,1.49-.41A1.2,1.2,0,0,1,154.63,248.4Z"/>
              <path class="cls-89" d="M152.2,259.18a1.06,1.06,0,0,1-1.49.41,1.19,1.19,0,0,1-.39-1.58,1.06,1.06,0,0,1,1.49-.41A1.2,1.2,0,0,1,152.2,259.18Z"/>
              <path class="cls-89" d="M154.1,252a.76.76,0,0,1-1.08.29.86.86,0,0,1-.28-1.14.77.77,0,0,1,1.08-.29A.87.87,0,0,1,154.1,252Z"/>
              <path class="cls-89" d="M156.92,250.41a.6.6,0,0,1-.85.23.68.68,0,0,1-.22-.89.59.59,0,0,1,.85-.23A.68.68,0,0,1,156.92,250.41Z"/>
              <path class="cls-89" d="M148.93,256.38a.61.61,0,0,1-.85.23.69.69,0,0,1-.22-.9.6.6,0,0,1,.85-.23A.69.69,0,0,1,148.93,256.38Z"/>
              <path class="cls-89" d="M157,247a.41.41,0,0,1-.59.16.47.47,0,0,1-.15-.62.43.43,0,0,1,.59-.16A.47.47,0,0,1,157,247Z"/>
              <path class="cls-89" d="M148.06,260.43a.43.43,0,0,1-.59.16.47.47,0,0,1-.15-.62.41.41,0,0,1,.59-.16A.47.47,0,0,1,148.06,260.43Z"/>
            </g>
          </g>
        </g>
      </g>
      <g>
        <g>
          <g>
            <polygon class="cls-91" points="293.16 191.38 296.13 182.08 259.62 182.08 223.11 182.08 226.08 191.38 226.08 299.15 223.11 308.46 259.62 308.46 296.13 308.46 293.16 299.15 293.16 191.38"/>
            <g>
              <path class="cls-10" d="M226.08,201.39c28.29-7.13,53.27-4.63,67.08,5.84V191.38l3-9.3h-73l3,9.3Z"/>
              <path class="cls-92" d="M293.16,258.84c-13.14,17.66-36.58,34.42-64.6,44.3-1.4.49-2.81,1-4.2,1.41l-1.25,3.91h73l-3-9.31Z"/>
            </g>
            <path class="cls-92" d="M223.11,182.08l3,9.3v47.4c3-.35,6.11-.79,9.23-1.34,22.18-3.86,42.43-12.07,57.85-22.45V191.38l3-9.3h-73Z"/>
            <polygon class="cls-93" points="293.52 181.52 290.92 178.4 288.31 181.52 285.7 178.4 283.09 181.52 280.48 178.4 277.88 181.52 275.27 178.4 272.66 181.52 270.05 178.4 267.44 181.52 264.84 178.4 262.23 181.52 259.62 178.4 257.01 181.52 254.41 178.4 251.8 181.52 249.19 178.4 246.58 181.52 243.97 178.4 241.37 181.52 238.76 178.4 236.15 181.52 233.54 178.4 230.94 181.52 228.33 178.4 225.72 181.52 223.11 178.4 223.11 182.08 225.25 182.08 226.19 182.08 230.47 182.08 231.41 182.08 235.68 182.08 236.62 182.08 240.9 182.08 241.84 182.08 246.11 182.08 247.05 182.08 251.33 182.08 252.27 182.08 256.54 182.08 257.48 182.08 261.76 182.08 262.7 182.08 266.97 182.08 267.92 182.08 272.19 182.08 273.13 182.08 277.4 182.08 278.35 182.08 282.62 182.08 283.56 182.08 287.84 182.08 288.78 182.08 293.05 182.08 293.99 182.08 296.13 182.08 296.13 178.4 293.52 181.52"/>
            <polygon class="cls-93" points="225.72 309.02 228.33 312.13 230.94 309.02 233.54 312.13 236.15 309.02 238.76 312.13 241.37 309.02 243.97 312.13 246.58 309.02 249.19 312.13 251.8 309.02 254.41 312.13 257.01 309.02 259.62 312.13 262.23 309.02 264.84 312.13 267.44 309.02 270.05 312.13 272.66 309.02 275.27 312.13 277.88 309.02 280.48 312.13 283.09 309.02 285.7 312.13 288.31 309.02 290.92 312.13 293.52 309.02 296.13 312.13 296.13 308.46 293.99 308.46 293.05 308.46 288.78 308.46 287.84 308.46 283.56 308.46 282.62 308.46 278.35 308.46 277.4 308.46 273.13 308.46 272.19 308.46 267.92 308.46 266.97 308.46 262.7 308.46 261.76 308.46 257.48 308.46 256.54 308.46 252.27 308.46 251.33 308.46 247.05 308.46 246.11 308.46 241.84 308.46 240.9 308.46 236.62 308.46 235.68 308.46 231.41 308.46 230.47 308.46 226.19 308.46 225.25 308.46 223.11 308.46 223.11 312.13 225.72 309.02"/>
            <polygon class="cls-8" points="294.93 185.85 296.13 182.08 259.62 182.08 223.11 182.08 224.32 185.85 294.93 185.85"/>
            <polygon class="cls-8" points="224.32 304.68 223.11 308.46 259.62 308.46 296.13 308.46 294.93 304.68 224.32 304.68"/>
            <g>
              <line class="cls-16" x1="233.41" y1="219.41" x2="233.41" y2="296.66"/>
              <line class="cls-16" x1="233.41" y1="194.75" x2="233.41" y2="208.87"/>
            </g>
          </g>
          <circle class="cls-68" cx="259.62" cy="231.18" r="21.63"/>
          <circle class="cls-75" cx="259.62" cy="231.18" r="17.97" transform="translate(-87.43 251.29) rotate(-45)"/>
          <rect class="cls-68" x="241.31" y="257.37" width="37.04" height="8.27" rx="3.17"/>
        </g>
        <g>
          <g>
            <path class="cls-94" d="M269.38,232a2.17,2.17,0,0,0-.38-1.92,2.15,2.15,0,0,0,1.2-1,1.76,1.76,0,0,0,.16-.4,2.16,2.16,0,0,0-3.41-2.31,2.16,2.16,0,0,0-3.36-1,2.16,2.16,0,0,0-3.36-1,2.16,2.16,0,0,0-3.37-1,2.16,2.16,0,0,0-4.12.12,2.17,2.17,0,0,0,.37,1.92,2.22,2.22,0,0,0-1.36,1.44,2.2,2.2,0,0,0,.38,1.93,2.16,2.16,0,0,0-1,3.36,2.18,2.18,0,0,0-1.36,1.44,2.14,2.14,0,0,0,.38,1.92,2.17,2.17,0,0,0,.12,4.13,2.15,2.15,0,0,0,1.92-.38,2.16,2.16,0,0,0,3.37,1,2.13,2.13,0,0,0,1.44,1.36,2.17,2.17,0,0,0,1.92-.37,2.18,2.18,0,0,0,1.44,1.36,2.15,2.15,0,0,0,1.92-.38,2.16,2.16,0,0,0,1.44,1.36,2.17,2.17,0,0,0,2.52-1.07,3,3,0,0,0,.17-.41,2.2,2.2,0,0,0-.38-1.93,2.15,2.15,0,0,0,1-3.36,2.16,2.16,0,0,0,1-3.36A2.2,2.2,0,0,0,269.38,232Z"/>
            <path class="cls-95" d="M259.14,228.07a1.59,1.59,0,1,1-1.08-2A1.58,1.58,0,0,1,259.14,228.07Z"/>
            <path class="cls-95" d="M262.14,234.17a1.77,1.77,0,1,1-1.2-2.2A1.78,1.78,0,0,1,262.14,234.17Z"/>
            <path class="cls-95" d="M257.37,231.58a.89.89,0,0,1-1.09.6.88.88,0,1,1,1.09-.6Z"/>
            <path class="cls-95" d="M263.71,236.71a.65.65,0,1,1-.44-.81A.66.66,0,0,1,263.71,236.71Z"/>
            <path class="cls-95" d="M264.86,233.47a.88.88,0,1,1-.59-1.09A.88.88,0,0,1,264.86,233.47Z"/>
            <path class="cls-95" d="M256.1,235.59a.88.88,0,0,1-1.09.59.87.87,0,0,1-.59-1.08.88.88,0,0,1,1.09-.6A.89.89,0,0,1,256.1,235.59Z"/>
            <path class="cls-95" d="M259.78,238.35a.88.88,0,0,1-1.68-.49.88.88,0,1,1,1.68.49Z"/>
            <path class="cls-95" d="M263.53,229.83a1.24,1.24,0,1,1-.84-1.54A1.24,1.24,0,0,1,263.53,229.83Z"/>
          </g>
          <g>
            <path class="cls-96" d="M268.26,228.74a2.18,2.18,0,0,0-.38-1.92,2.17,2.17,0,0,0,1.2-1,2.05,2.05,0,0,0,.16-.41,2.16,2.16,0,0,0-3.41-2.31,2.16,2.16,0,0,0-3.36-1,2.16,2.16,0,0,0-3.36-1,2.16,2.16,0,0,0-3.37-1,2.13,2.13,0,0,0-1.44-1.36,2.16,2.16,0,0,0-2.68,1.48,2.19,2.19,0,0,0,.37,1.93,2.15,2.15,0,0,0-1,3.36,2.16,2.16,0,0,0-1,3.36,2.16,2.16,0,0,0-1,3.37,2.16,2.16,0,1,0,2,3.75,2.16,2.16,0,0,0,3.37,1,2.16,2.16,0,0,0,3.36,1,2.18,2.18,0,0,0,1.44,1.36,2.15,2.15,0,0,0,1.92-.38,2.16,2.16,0,0,0,1.44,1.36,2.17,2.17,0,0,0,2.52-1.07,3,3,0,0,0,.17-.41,2.17,2.17,0,0,0-.38-1.92,2.16,2.16,0,0,0,1-3.37,2.16,2.16,0,0,0,1-3.36A2.2,2.2,0,0,0,268.26,228.74Z"/>
            <path class="cls-97" d="M258,224.77a1.59,1.59,0,1,1-1.08-2A1.58,1.58,0,0,1,258,224.77Z"/>
            <path class="cls-97" d="M261,230.87a1.77,1.77,0,1,1-1.2-2.19A1.78,1.78,0,0,1,261,230.87Z"/>
            <path class="cls-97" d="M256.25,228.28a.89.89,0,0,1-1.09.6.88.88,0,1,1,1.09-.6Z"/>
            <path class="cls-97" d="M262.59,233.41a.65.65,0,0,1-1.25-.36.65.65,0,0,1,1.25.36Z"/>
            <path class="cls-97" d="M263.74,230.17a.88.88,0,0,1-1.09.59.88.88,0,0,1,.49-1.68A.88.88,0,0,1,263.74,230.17Z"/>
            <path class="cls-97" d="M255,232.29a.88.88,0,0,1-1.68-.49.86.86,0,0,1,1.08-.59A.87.87,0,0,1,255,232.29Z"/>
            <path class="cls-97" d="M258.66,235.05a.88.88,0,0,1-1.68-.49.88.88,0,1,1,1.68.49Z"/>
            <path class="cls-97" d="M262.41,226.54a1.24,1.24,0,1,1-.84-1.55A1.25,1.25,0,0,1,262.41,226.54Z"/>
          </g>
        </g>
      </g>
    </g>
  </g>
</svg>
