<svg id="Capa_1" data-name="Capa 1" xmlns="http://www.w3.org/2000/svg" width="140" height="140" viewBox="0 0 140 140">
  <defs>
    <style>
      .cls-1 {
        fill: #8b82ca;
        stroke: #2f237d;
        stroke-miterlimit: 10;
        stroke-width: 6px;
      }

      .cls-2 {
        fill: #fff;
      }
    </style>
  </defs>
  <circle class="cls-1" cx="70" cy="70" r="60"/>
  <path class="cls-2" d="M41.33,54.18A12.33,12.33,0,1,0,29,41.85,12.34,12.34,0,0,0,41.33,54.18Zm0-22.26a9.93,9.93,0,1,1-9.93,9.93A9.94,9.94,0,0,1,41.33,31.92ZM102.27,39a1.2,1.2,0,1,0-1.2-1.2A1.2,1.2,0,0,0,102.27,39Zm-3.6,15.2A12.33,12.33,0,1,0,86.34,41.85,12.34,12.34,0,0,0,98.67,54.18Zm0-22.26a9.93,9.93,0,1,1-9.93,9.93A9.94,9.94,0,0,1,98.67,31.92ZM73.6,39a1.2,1.2,0,1,0-1.2-1.2A1.2,1.2,0,0,0,73.6,39Zm21.46,8.14h7.21a1.21,1.21,0,0,0,0-2.41H95.06a1.21,1.21,0,0,0,0,2.41Zm0-8.14a1.2,1.2,0,1,0-1.2-1.2A1.21,1.21,0,0,0,95.06,39Zm11.72,21.91H77.91a9,9,0,0,0-15.82,0H49.3a1.21,1.21,0,0,0,0,2.41H61.22A9,9,0,0,0,61,65.12a9.14,9.14,0,0,0,.19,1.82h-28a1.82,1.82,0,0,1,0-3.64H43.69a1.21,1.21,0,0,0,0-2.41H33.22a4.23,4.23,0,0,0,0,8.45H62.09a9.09,9.09,0,0,0,4.6,4.12V84.12L62,79.18a3.15,3.15,0,0,0-4.62.11,4.43,4.43,0,0,0-.58,5L67,103.86a4.39,4.39,0,0,0-2.24,3.83v2.62a1.2,1.2,0,1,0,2.4,0V107.7a2,2,0,0,1,2-2H84.66a2,2,0,0,1,2,2v2.61a1.21,1.21,0,1,0,2.41,0V107.7a4.43,4.43,0,0,0-2.53-4l1.29-7.13a1.2,1.2,0,1,0-2.36-.43l-1.3,7.14H69.37L58.91,83.15a2,2,0,0,1,.27-2.28.68.68,0,0,1,1.07,0l5.67,6a1.85,1.85,0,0,0,3.18-1.28v-20a1.21,1.21,0,0,1,1.2-1.21,1.22,1.22,0,0,1,1.21,1.21c0,2.93,0,14.51,0,17.45a1.2,1.2,0,0,0,2.4,0V78.48a1.21,1.21,0,1,1,2.42,0v4.46a1.2,1.2,0,0,0,2.4,0V78.48a1.21,1.21,0,1,1,2.41,0h0v4.46a1.2,1.2,0,0,0,2.4,0V78.48h0a1.21,1.21,0,1,1,2.42,0v12.3a1.2,1.2,0,0,0,2.4,0V78.48a3.64,3.64,0,0,0-3.61-3.61,3.58,3.58,0,0,0-2.41.93,3.57,3.57,0,0,0-4.81,0,3.58,3.58,0,0,0-2.41-.93,3.75,3.75,0,0,0-1.21.21V73.19a9,9,0,0,0,4-3.85h28.88A4.27,4.27,0,0,0,111,65.12a4.23,4.23,0,0,0-4.22-4.23Zm-32.87,9.5v-4.9a3.61,3.61,0,0,0-7.22,0v5.3a6.57,6.57,0,1,1,7.22-.4Zm32.87-3.45h-28A9.14,9.14,0,0,0,79,65.12a9,9,0,0,0-.19-1.82h28a1.82,1.82,0,0,1,1.82,1.82A1.85,1.85,0,0,1,106.78,66.94ZM37.73,39a1.2,1.2,0,1,0-1.2-1.2A1.2,1.2,0,0,0,37.73,39Zm7.21,0a1.2,1.2,0,1,0-1.21-1.2A1.2,1.2,0,0,0,44.94,39ZM66.4,39a1.2,1.2,0,1,0-1.2-1.2A1.2,1.2,0,0,0,66.4,39ZM38.31,47a6.24,6.24,0,0,1,6,0,1.21,1.21,0,0,0,1.17-2.11,8.72,8.72,0,0,0-4.15-1.07h0a8.71,8.71,0,0,0-4.18,1.07A1.2,1.2,0,0,0,38.31,47ZM70,54.18A12.33,12.33,0,1,0,57.67,41.85,12.34,12.34,0,0,0,70,54.18Zm0-22.26a9.93,9.93,0,1,1-9.93,9.93A9.94,9.94,0,0,1,70,31.92ZM65.82,46A8.7,8.7,0,0,0,70,47.12h0A8.63,8.63,0,0,0,74.18,46,1.2,1.2,0,1,0,73,43.94a6.31,6.31,0,0,1-6,0A1.2,1.2,0,0,0,65.82,46Z"/>
</svg>
