<svg xmlns="http://www.w3.org/2000/svg" width="573.83" height="536.035" viewBox="0 0 573.83 536.035">
  <g id="cf5_mensaje" transform="translate(-21.54 -17.47)">
    <g id="Grupo_90581" data-name="Grupo 90581" transform="translate(116.532 17.47)">
      <circle id="Elipse_5239" data-name="Elipse 5239" cx="199.114" cy="199.114" r="199.114" fill="#b2abdb"/>
      <path id="Trazado_153153" data-name="Trazado 153153" d="M244.183,77.723a99.853,99.853,0,0,0-85.054,152.1c-.692,8.372-4.944,28.016-28.1,38.283,0,0,30.208,6.18,47.891-15.046A99.837,99.837,0,1,0,244.183,77.69Z" transform="translate(-45.58 21.554)" fill="#efd5bf"/>
    </g>
    <g id="Grupo_90582" data-name="Grupo 90582" transform="translate(24.481 264.243)">
      <path id="Trazado_153154" data-name="Trazado 153154" d="M159.23,273.525s.478,3.148.923,7.68a22.034,22.034,0,0,1-15.392,0s4.334,7.581,16.019,9.41c.346,9.328-.346,19.546-4.483,22.364-8.125,5.537-36.883-2.95-36.883-2.95L104.3,346.879l-51.435-24.72s13.464-19.2,11.635-26.583S43.819,276.821,39.04,266.933s-10.976-31.312-4.054-46.82c23.6-53.083,92.174-39.454,106.2-17.7s7.68,25.478,11.388,33.966,15.508,24.72,18.738,28.675S159.23,273.525,159.23,273.525Z" transform="translate(-17.771 -156.861)" fill="#ea9c80"/>
      <path id="Trazado_153155" data-name="Trazado 153155" d="M98.846,227.919s-2.917,2.077-3.955-3.807c-.939-5.274,1.648-5.191,1.648-5.191s2.241-.61,3.115,3.988S98.846,227.919,98.846,227.919Z" transform="translate(22.919 -133.717)" fill="#3b2645"/>
      <path id="Trazado_153156" data-name="Trazado 153156" d="M108.039,213.516c-3.543-1.434-7.647-.313-11.157.824-3.3,1.055-7.894,2.489-9.229,5.883a.626.626,0,0,0,.56.89c3.148.1,6.048-2.225,9-3.181,3.461-1.1,7.334-.89,10.63-2.373C108.649,215.213,109.094,213.928,108.039,213.516Z" transform="translate(18.324 -137.64)" fill="#3b2645"/>
      <path id="Trazado_153157" data-name="Trazado 153157" d="M67.527,233.181a12.409,12.409,0,0,0-6.114-4.021c-.379,0-.742.412-.412.725,1.648,1.467,3.428,2.571,4.944,4.169a4.664,4.664,0,0,0-3.082,1.45.511.511,0,0,0,.494.84c.758-.115,1.5-.346,2.274-.4a8.988,8.988,0,0,0,1.763-.082c.313.461.61.906.89,1.384a5.224,5.224,0,0,0,1.533,2.027.56.56,0,0,0,.824-.33C70.971,236.84,68.862,234.615,67.527,233.181Z" transform="translate(1.007 -127.064)" fill="#d5805c"/>
      <path id="Trazado_153158" data-name="Trazado 153158" d="M80.57,280.061q-.148-.461-.346-.939a32.613,32.613,0,0,0-3.3-5.422,26.022,26.022,0,0,1-4.812-13.613,14.486,14.486,0,0,1,6.213-12.541c5.669-3.494,11.965-.165,16.282,3.84,1.945,1.829,2.472,6.23,5.29,6.74,8.636,1.533,1.763-12.706.725-15.1a23.072,23.072,0,0,1-2.571-9.328c.1-6.164,5.076-11.174,10.35-14.354s11.272-5.34,15.8-9.526c2.521-2.34,4.516-5.224,7.136-7.449a24.292,24.292,0,0,0,4.944-4.417c3.626-5.307-5.29-10.036-9.245-12.162A49.721,49.721,0,0,0,109.46,180.6a108.226,108.226,0,0,0-37.328,2.67,66.959,66.959,0,0,0-30.5,15.491c-7.3,6.773-10.827,16.777-13.036,26.368-4.433,19.348-.33,41.332,14.931,54.961,3.873,3.461,8.5,6.246,11.932,10.185,2.966,3.411,4.384,12.294,9.888,11.833a10.811,10.811,0,0,0,4.483-1.648A24.028,24.028,0,0,0,79.1,291.63,14.948,14.948,0,0,0,80.57,280.061Z" transform="translate(-21.002 -158.897)" fill="#efd5bf"/>
      <path id="Trazado_153159" data-name="Trazado 153159" d="M33.66,286.878,56.947,262.57s26.451,19.2,49.787,24.308c0,0,1.978,9.806,4.532,23.435S37.516,299.667,33.66,286.878Z" transform="translate(-16.627 -105.414)" fill="#3f3466"/>
      <path id="Trazado_153160" data-name="Trazado 153160" d="M144.924,203.422c-26.154,10.712-40.179,17.255-67.569,47.15-8.932,9.74-17.3,26.368-27.407,34.328-6,4.73-9.526,2.109-12.047-2.5a66.137,66.137,0,0,0,10.185-10.416,2.7,2.7,0,0,0,.692-1.45,2.835,2.835,0,0,0-.643-1.648,80.93,80.93,0,0,0-5.57-7.779c.676.808-6.114,7.053-9.179,10.135l-.1-.264c-6.312-15.458-13.052-30.126-8.438-47.2,3.675-13.629,13.514-24.72,24.209-34C61.386,179.163,76.284,170,92.534,170,114.008,170.165,132.268,186.052,144.924,203.422Z" transform="translate(-23.324 -165.401)" fill="#8b82ca"/>
      <path id="Trazado_153161" data-name="Trazado 153161" d="M58.73,247.881s38.349-79.632,73.963-80.654-10.959,42.848-10.959,42.848S89.218,215.184,58.73,247.881Z" transform="translate(-0.381 -167.209)" fill="#6f678c"/>
      <path id="Trazado_153162" data-name="Trazado 153162" d="M91.318,266.09l-2.785,6.773c-3.3-1.862-9.888-7.3-13.283-21.8C75.629,251.686,81.43,261.459,91.318,266.09Z" transform="translate(10.324 -112.873)" fill="#e58a6c"/>
    </g>
    <g id="Grupo_90583" data-name="Grupo 90583" transform="translate(441.078 276.897)">
      <path id="Trazado_153163" data-name="Trazado 153163" d="M285.4,273.494a7.021,7.021,0,0,1-1.549,5.62c-.363.428,2.357,4.3,2.324,4.845,0,.148-3.939,3.692-2.719,4.054,6.823,2.027-2.357,18.656,3.3,23.814,6.889,6.213,34.526-2.785,37.641-3.823l.231-.082a15,15,0,0,1,.709,1.648l14.486,35.268,51.418-24.72S377.776,300.9,379.7,293.551s20.666-18.919,25.445-28.824,10.959-31.181,4.054-46.787c-23.616-53.083-92.19-39.437-106.2-17.683s-6.74,36.174-10.432,44.645-11.536,13.415-15.87,17.98C273.341,266.375,285.4,273.494,285.4,273.494Z" transform="translate(-276.111 -170.918)" fill="#ea9c80"/>
      <path id="Trazado_153164" data-name="Trazado 153164" d="M291.925,228.789s2.917,2.076,3.955-3.807c.923-5.274-1.566-5.191-1.566-5.191s-2.258-.61-3.115,3.988S291.925,228.789,291.925,228.789Z" transform="translate(-266.498 -145.807)" fill="#3b2645"/>
      <path id="Trazado_153165" data-name="Trazado 153165" d="M290.841,213.954c3.527-1.434,7.63-.3,11.157.84,3.3,1.038,7.894,2.488,9.212,5.867a.626.626,0,0,1-.544.89c-3.148.1-6.065-2.225-9.015-3.164-3.461-1.121-7.334-.906-10.613-2.373C290.265,215.668,289.836,214.366,290.841,213.954Z" transform="translate(-266.947 -150.007)" fill="#efd5bf"/>
      <path id="Trazado_153166" data-name="Trazado 153166" d="M326.946,231.015a12.294,12.294,0,0,1,6.114-4.021c.4-.082.758.412.412.725-1.648,1.467-3.411,2.571-4.944,4.169a4.68,4.68,0,0,1,3.082,1.434.511.511,0,0,1-.494.857,17.988,17.988,0,0,0-2.258-.4,10.367,10.367,0,0,1-1.763-.082,15.233,15.233,0,0,0-.89,1.384,5.388,5.388,0,0,1-1.549,2.027.56.56,0,0,1-.807-.33C323.6,234.673,325.612,232.449,326.946,231.015Z" transform="translate(-245.19 -141.128)" fill="#d5805c"/>
      <path id="Trazado_153167" data-name="Trazado 153167" d="M367.484,263.6l17.8,13.069S356.9,305.46,314.155,308.756a4.136,4.136,0,0,1-4.169-5.521l6.081-16.909S344.594,279.932,367.484,263.6Z" transform="translate(-254.317 -117.401)" fill="#e26c00"/>
      <path id="Trazado_153168" data-name="Trazado 153168" d="M295.942,190.383c-15.129,21.721,16.975,35.5,29.038,47.315a53.526,53.526,0,0,1,8.817,11.421,13.729,13.729,0,0,0,2.67,3.725,4.021,4.021,0,0,0,4.268.84,6.592,6.592,0,0,0,2.258-2.488c2.7-3.972,7.268-6.971,12.063-6.592,6.164.478,10.877,6.592,11.124,12.822s-3.131,12.064-7.647,16.315c-2.142,2.011-4.68,3.955-5.405,6.806a8.421,8.421,0,0,0,2.423,7.548,20.714,20.714,0,0,0,7,4.318,1.829,1.829,0,0,1,.89.626c.511.923-2.587,5.389-3.049,6.592a6.757,6.757,0,0,0,0,6.18,10.794,10.794,0,0,0,12.228,5.7c-3.395,6.806-3.972,14.041,2.307,18.342,2.7,1.862,16.167,9.344,19.463,6.114-6.246,6.147-3.84,18.474,4.252,21.82a11.042,11.042,0,0,1,4.68,2.472,6.905,6.905,0,0,1,1.121,4.763A18.128,18.128,0,0,1,399.5,375.7c-1.9,2.027-4.4,3.955-4.6,6.74a1.993,1.993,0,0,0,.181,1.121c.544.923,1.879.775,2.933.709a18.227,18.227,0,0,1,8.454,2.225,16.48,16.48,0,0,0,8.5,1.978c5.274-.659,5.175-4.6,5.142-8.652,0-9.1-1.384-19.562-8.982-24.572a4.417,4.417,0,0,0,5.241-2.06,10.729,10.729,0,0,0,1.121-5.966c-.313-7.779-4.5-16.6-12.212-17.7,3.049.445,3.065-7.7,2.818-9.13a12.426,12.426,0,0,0-5.867-8.965c-3-1.648-6.592-2.6-8.866-5.125a9.641,9.641,0,0,0,2.6-15.145c-1.17-1.253-2.769-2.406-2.868-4.12a5.406,5.406,0,0,1,1.071-3c5.125-8.52,11.338-16.48,14.206-25.973,3.082-10.284,2.208-19.348,2.208-29.78-3.131-19.776-16.365-38.069-34.757-46.145-11.536-4.944-24.935-7.086-37.41-7.251C324.519,174.76,304.528,178.039,295.942,190.383Z" transform="translate(-265.835 -174.888)" fill="#efd5bf"/>
      <path id="Trazado_153169" data-name="Trazado 153169" d="M291.161,246.21s-7.416-3.065-9.888-5.62c0,0-2.027,2.208-.379,4.021,0,0-2.027,3.444,0,4.944S291.161,246.21,291.161,246.21Z" transform="translate(-273.595 -132.311)" fill="#d86c29"/>
      <path id="Trazado_153170" data-name="Trazado 153170" d="M291.125,191.373c-6.691,5.092-11.536,13.58-9.888,21.82.939,4.6,3.807,8.932,3.214,13.58a20.089,20.089,0,0,1-3.906,8.24,16.579,16.579,0,0,0-3.494,8.355c-.082,3.1,2.142,6.394,5.191,6.394-.643-3.131-1.22-6.707.692-9.262a31.937,31.937,0,0,1,3.955-3.477c4.268-4.137,3.3-11.042,3.444-16.975a7.07,7.07,0,0,1,1.137-4.186c1.648-2.044,4.664-1.961,7.268-1.961a38.7,38.7,0,0,0,26.137-10.284,38.054,38.054,0,0,0,9.723-14.536,8.982,8.982,0,0,0-9.756-12.344,29.8,29.8,0,0,0-10.234,2.917C306.847,182.984,297.882,186.231,291.125,191.373Z" transform="translate(-275.503 -173.768)" fill="#efd5bf"/>
      <path id="Trazado_153171" data-name="Trazado 153171" d="M363.3,284.531a8.7,8.7,0,0,1,7.993.824,1.072,1.072,0,0,1,.412.544v.132a.925.925,0,0,1,0,.363v.313a1.5,1.5,0,0,1-1.038,1.368c-1.253.428-2.39-.082-3.659,0a5.62,5.62,0,0,0-3.988,2.637c-1.533,1.78-4.45,1.5-4.6-1.22S361.306,285.239,363.3,284.531Z" transform="translate(-222.775 -104.234)" fill="#adb8d8"/>
      <path id="Trazado_153172" data-name="Trazado 153172" d="M344.926,191.917c12.92,7.169,21.292,25,16.48,39.421-.181.577-1.2.527-1.121-.148,1.879-15.425-2.7-29.384-15.557-38.811C344.382,192.18,344.613,191.735,344.926,191.917Z" transform="translate(-231.758 -163.88)" fill="#e7ceaf"/>
      <path id="Trazado_153173" data-name="Trazado 153173" d="M342.864,198.146c-.132-.2.132-.478.33-.33,11.091,8.24,11.9,23.781,9.971,36.256-2.39,15.425-8.009,32.1.692,46.639.247.412-.346.725-.61.363-8.009-10.514-6.262-24.127-3.922-36.256,1.648-8.322,3.576-16.793,2.8-25.33S347.511,204.82,342.864,198.146Z" transform="translate(-232.877 -160.057)" fill="#e7ceaf"/>
      <path id="Trazado_153174" data-name="Trazado 153174" d="M318.887,189.512c13.184,1.648,24.885,11.8,29.977,23.649.115.28-.264.527-.412.247-6.856-11.849-16.975-18.59-29.664-22.759C318.145,190.468,318.195,189.429,318.887,189.512Z" transform="translate(-248.749 -165.414)" fill="#e7ceaf"/>
      <path id="Trazado_153175" data-name="Trazado 153175" d="M318.631,194.535A28.494,28.494,0,0,1,336.512,207.8c.2.33-.3.742-.56.428a47.924,47.924,0,0,0-17.8-12.574C317.493,195.31,317.988,194.4,318.631,194.535Z" transform="translate(-249.069 -162.164)" fill="#e7ceaf"/>
      <path id="Trazado_153176" data-name="Trazado 153176" d="M352.833,258.676c5.636-2.011,8.833,6.757,8.685,10.86a.709.709,0,0,1-1.384.181c-.824-2.175-.89-4.549-2.126-6.592a8.487,8.487,0,0,0-5.175-3.56.461.461,0,0,1,0-.89Z" transform="translate(-226.613 -120.783)" fill="#e7ceaf"/>
      <path id="Trazado_153177" data-name="Trazado 153177" d="M347.327,259.5a.643.643,0,0,1,1.17.494c-2.752,8.487,8.075,15.063,13.81,19.3a.495.495,0,0,1-.494.857C355.286,277.134,342.284,268.086,347.327,259.5Z" transform="translate(-230.698 -120.255)" fill="#e7ceaf"/>
      <path id="Trazado_153178" data-name="Trazado 153178" d="M361.311,272.86c-.214-.4.247-.939.659-.659,3.725,2.6,4.516,9.212,1.829,12.756a.478.478,0,0,1-.873-.363,11.866,11.866,0,0,0-1.648-11.734Z" transform="translate(-220.935 -111.877)" fill="#e7ceaf"/>
      <path id="Trazado_153179" data-name="Trazado 153179" d="M339.9,249.875a.527.527,0,0,1,.989,0c.577,1.862.363,3.922,1.549,5.57a3.3,3.3,0,0,0,4.5.956c.33-.2.643.2.494.494-1.005,2.109-3.939,1.747-5.521.544a7.532,7.532,0,0,1-2.011-7.564Z" transform="translate(-234.973 -126.517)" fill="#e7ceaf"/>
      <path id="Trazado_153180" data-name="Trazado 153180" d="M305.59,263.541a14.984,14.984,0,0,1,.709,1.648l2.043,4.944c3.477-2.6,8.652-8.372,11.536-20.683a42.42,42.42,0,0,1-14.288,14.091Z" transform="translate(-257.008 -126.57)" fill="#e58a6c"/>
    </g>
    <text id="_..." data-name="..." transform="translate(285.141 256.315)" fill="#091320" font-size="73" font-family="Roboto-Regular, Roboto"><tspan x="0" y="0">...</tspan></text>
    <g id="Grupo_90584" data-name="Grupo 90584" transform="translate(210.172 321.859)">
      <path id="Trazado_153181" data-name="Trazado 153181" d="M136,337.835c10.7-13.547,17.9-38.844,17.9-67.832s-7.2-54.286-17.9-67.832" transform="translate(-136 -202.17)" fill="none" stroke="#3e2ea6" stroke-linecap="round" stroke-miterlimit="10" stroke-width="2"/>
      <path id="Trazado_153182" data-name="Trazado 153182" d="M157.8,337.835c10.712-13.547,17.914-38.844,17.914-67.832s-7.2-54.286-17.914-67.832" transform="translate(-121.873 -202.17)" fill="none" stroke="#3e2ea6" stroke-linecap="round" stroke-miterlimit="10" stroke-width="3"/>
      <path id="Trazado_153183" data-name="Trazado 153183" d="M179.64,337.835c10.7-13.547,17.9-38.844,17.9-67.832s-7.2-54.286-17.9-67.832" transform="translate(-107.72 -202.17)" fill="none" stroke="#3e2ea6" stroke-linecap="round" stroke-miterlimit="10" stroke-width="4"/>
      <path id="Trazado_153184" data-name="Trazado 153184" d="M201.47,337.835c10.712-13.547,17.914-38.844,17.914-67.832s-7.2-54.286-17.914-67.832" transform="translate(-93.574 -202.17)" fill="none" stroke="#3e2ea6" stroke-linecap="round" stroke-miterlimit="10" stroke-width="5"/>
      <path id="Trazado_153185" data-name="Trazado 153185" d="M223.31,337.835c10.7-13.547,17.914-38.844,17.914-67.832s-7.218-54.286-17.914-67.832" transform="translate(-79.422 -202.17)" fill="none" stroke="#3e2ea6" stroke-linecap="round" stroke-miterlimit="10" stroke-width="6"/>
      <path id="Trazado_153186" data-name="Trazado 153186" d="M245.14,337.835c10.712-13.547,17.914-38.844,17.914-67.832s-7.2-54.286-17.914-67.832" transform="translate(-65.275 -202.17)" fill="none" stroke="#3e2ea6" stroke-linecap="round" stroke-miterlimit="10" stroke-width="7"/>
    </g>
    <text id="Mensaje" transform="translate(268.145 91.955)" fill="#2f237d" font-size="25" font-family="Roboto-Regular, Roboto"><tspan x="0" y="0">Mensaje</tspan></text>
    <text id="Código" transform="translate(276.145 204.235)" fill="#2f237d" font-size="25" font-family="Roboto-Regular, Roboto"><tspan x="0" y="0">Código</tspan></text>
    <text id="Emisor" transform="translate(21.54 546.505)" fill="#2f237d" font-size="25" font-family="Roboto-Regular, Roboto"><tspan x="0" y="0">Emisor</tspan></text>
    <text id="Receptor" transform="translate(456.617 546.505)" fill="#2f237d" font-size="25" font-family="Roboto-Regular, Roboto"><tspan x="0" y="0">Recep</tspan><tspan y="0" letter-spacing="-0.01em">t</tspan><tspan y="0">or</tspan></text>
    <text id="Canal" transform="translate(285.141 546.505)" fill="#2f237d" font-size="25" font-family="Roboto-Regular, Roboto"><tspan x="0" y="0">Canal</tspan></text>
    <g id="Grupo_90598" data-name="Grupo 90598" transform="translate(89.606 96.931)">
      <g id="Grupo_89699" data-name="Grupo 89699">
        <path id="Trazado_150570" data-name="Trazado 150570" d="M225.63,43.872V36.539a19.7,19.7,0,0,0-19.7,19.7h0a19.7,19.7,0,0,0,19.695,19.7h0V68.6a12.364,12.364,0,1,1,0-24.728Z" fill="#8880c7" opacity="0.18" style="isolation: isolate"/>
        <g id="Grupo_89698" data-name="Grupo 89698" opacity="0.31">
          <path id="Trazado_150571" data-name="Trazado 150571" d="M225.63,75.932a19.7,19.7,0,0,0,19.7-19.7h0a19.7,19.7,0,0,0-19.7-19.7h0v7.333a12.363,12.363,0,1,1,0,24.727Z" fill="#6558b5"/>
        </g>
      </g>
      <path id="Trazado_153224" data-name="Trazado 153224" d="M238.347,56.236a12.719,12.719,0,0,0-12.719-12.72v0a12.718,12.718,0,0,0,0,25.436V68.95A12.718,12.718,0,0,0,238.347,56.236Z" fill="#3f3466"/>
    </g>
    <g id="Grupo_90600" data-name="Grupo 90600" transform="translate(-165.09 444.573)">
      <g id="Grupo_89699-2" data-name="Grupo 89699">
        <path id="Trazado_150570-2" data-name="Trazado 150570" d="M225.63,43.872V36.539a19.7,19.7,0,0,0-19.7,19.7h0a19.7,19.7,0,0,0,19.695,19.7h0V68.6a12.364,12.364,0,1,1,0-24.728Z" fill="#8880c7" opacity="0.18" style="isolation: isolate"/>
        <g id="Grupo_89698-2" data-name="Grupo 89698" opacity="0.31">
          <path id="Trazado_150571-2" data-name="Trazado 150571" d="M225.63,75.932a19.7,19.7,0,0,0,19.7-19.7h0a19.7,19.7,0,0,0-19.7-19.7h0v7.333a12.363,12.363,0,1,1,0,24.727Z" fill="#6558b5"/>
        </g>
      </g>
      <path id="Trazado_153224-2" data-name="Trazado 153224" d="M238.347,56.236a12.719,12.719,0,0,0-12.719-12.72v0a12.718,12.718,0,0,0,0,25.436V68.95A12.718,12.718,0,0,0,238.347,56.236Z" fill="#3f3466"/>
    </g>
    <g id="Grupo_90602" data-name="Grupo 90602" transform="translate(280.486 444.573)">
      <g id="Grupo_89699-3" data-name="Grupo 89699">
        <path id="Trazado_150570-3" data-name="Trazado 150570" d="M225.63,43.872V36.539a19.7,19.7,0,0,0-19.7,19.7h0a19.7,19.7,0,0,0,19.695,19.7h0V68.6a12.364,12.364,0,1,1,0-24.728Z" fill="#8880c7" opacity="0.18" style="isolation: isolate"/>
        <g id="Grupo_89698-3" data-name="Grupo 89698" opacity="0.31">
          <path id="Trazado_150571-3" data-name="Trazado 150571" d="M225.63,75.932a19.7,19.7,0,0,0,19.7-19.7h0a19.7,19.7,0,0,0-19.7-19.7h0v7.333a12.363,12.363,0,1,1,0,24.727Z" fill="#6558b5"/>
        </g>
      </g>
      <path id="Trazado_153224-3" data-name="Trazado 153224" d="M238.347,56.236a12.719,12.719,0,0,0-12.719-12.72v0a12.718,12.718,0,0,0,0,25.436V68.95A12.718,12.718,0,0,0,238.347,56.236Z" fill="#3f3466"/>
    </g>
    <g id="Grupo_90601" data-name="Grupo 90601" transform="translate(89.606 444.573)">
      <g id="Grupo_89699-4" data-name="Grupo 89699">
        <path id="Trazado_150570-4" data-name="Trazado 150570" d="M225.63,43.872V36.539a19.7,19.7,0,0,0-19.7,19.7h0a19.7,19.7,0,0,0,19.695,19.7h0V68.6a12.364,12.364,0,1,1,0-24.728Z" fill="#8880c7" opacity="0.18" style="isolation: isolate"/>
        <g id="Grupo_89698-4" data-name="Grupo 89698" opacity="0.31">
          <path id="Trazado_150571-4" data-name="Trazado 150571" d="M225.63,75.932a19.7,19.7,0,0,0,19.7-19.7h0a19.7,19.7,0,0,0-19.7-19.7h0v7.333a12.363,12.363,0,1,1,0,24.727Z" fill="#6558b5"/>
        </g>
      </g>
      <path id="Trazado_153224-4" data-name="Trazado 153224" d="M238.347,56.236a12.719,12.719,0,0,0-12.719-12.72v0a12.718,12.718,0,0,0,0,25.436V68.95A12.718,12.718,0,0,0,238.347,56.236Z" fill="#3f3466"/>
    </g>
    <g id="Grupo_90599" data-name="Grupo 90599" transform="translate(89.211 -9.069)">
      <g id="Grupo_89699-5" data-name="Grupo 89699">
        <path id="Trazado_150570-5" data-name="Trazado 150570" d="M225.63,43.872V36.539a19.7,19.7,0,0,0-19.7,19.7h0a19.7,19.7,0,0,0,19.695,19.7h0V68.6a12.364,12.364,0,1,1,0-24.728Z" fill="#8880c7" opacity="0.18" style="isolation: isolate"/>
        <g id="Grupo_89698-5" data-name="Grupo 89698" opacity="0.31">
          <path id="Trazado_150571-5" data-name="Trazado 150571" d="M225.63,75.932a19.7,19.7,0,0,0,19.7-19.7h0a19.7,19.7,0,0,0-19.7-19.7h0v7.333a12.363,12.363,0,1,1,0,24.727Z" fill="#6558b5"/>
        </g>
      </g>
      <path id="Trazado_153224-5" data-name="Trazado 153224" d="M238.347,56.236a12.719,12.719,0,0,0-12.719-12.72v0a12.718,12.718,0,0,0,0,25.436V68.95A12.718,12.718,0,0,0,238.347,56.236Z" fill="#3f3466"/>
    </g>
  </g>
</svg>
