<svg id="Capa_1" data-name="Capa 1" xmlns="http://www.w3.org/2000/svg" width="140" height="140" viewBox="0 0 140 140">
  <defs>
    <style>
      .cls-1 {
        fill: #8b82ca;
        stroke: #2f237d;
        stroke-miterlimit: 10;
        stroke-width: 6px;
      }

      .cls-2 {
        fill: #fff;
      }
    </style>
  </defs>
  <circle class="cls-1" cx="70" cy="70" r="60"/>
  <g>
    <circle class="cls-2" cx="68.7" cy="54.4" r="2.6"/>
    <circle class="cls-2" cx="84.28" cy="54.4" r="2.6"/>
    <path class="cls-2" d="M99.6,81.75,86.87,78.09V73.6a20.21,20.21,0,0,0,7.24-10.11H97.9A4.54,4.54,0,0,0,102.44,59V51.16a4.54,4.54,0,0,0-4.54-4.54H94.66V44a18.17,18.17,0,0,0-36.34,0v2.6H55.08a4.55,4.55,0,0,0-4.55,4.54V59a4.56,4.56,0,0,0,4.55,4.54h.64v5.19A1.3,1.3,0,0,0,57,70h5.34a23.35,23.35,0,0,0,3.75,3.62v4.49l-2.6.74v-3a3.25,3.25,0,0,0-3.24-3.25H33a3.25,3.25,0,0,0-3.24,3.25V95.28A3.25,3.25,0,0,0,33,98.53h6.68l-.58,2.59H36.26a1.3,1.3,0,0,0,0,2.6h72.67a1.3,1.3,0,0,0,1.3-1.3V95.55A14.28,14.28,0,0,0,99.6,81.75Zm-1-32.42a1.94,1.94,0,0,1,1.3,1.83V59a2,2,0,0,1-1.3,1.83Zm-3.89-.12H96V60.89H94.66ZM54.43,60.78A2,2,0,0,1,53.13,59V51.16a1.94,1.94,0,0,1,1.3-1.83ZM89.15,81.44,83.8,91.62l-5.24-2.57L86,80.54Zm-12.66,6-7.79-8.9V75.35a16.22,16.22,0,0,0,7.79,2.41,16.22,16.22,0,0,0,7.79-2.41v3.22ZM60.92,44a15.57,15.57,0,0,1,31.14,0v4.43a12.86,12.86,0,0,1-6.7-5.11A1.3,1.3,0,0,0,83.62,43,51,51,0,0,1,60.92,49ZM57,49.21h1.3V60.89H57Zm1.3,18.17V63.49h.55a16.76,16.76,0,0,0,1.68,3.89ZM65.87,70h5.65a3.89,3.89,0,0,0,3.67,2.59h2.6a3.89,3.89,0,1,0,0-7.78h-2.6a3.89,3.89,0,0,0-3.67,2.59H63.61a13.4,13.4,0,0,1-2.69-7.78v-8a54,54,0,0,0,23-5.87,15.22,15.22,0,0,0,8.14,5.39V59.6c0,2.23-.72,6.61-5.57,11-3.12,2.8-7,4.61-10,4.61s-6.88-1.81-10-4.61C66.27,70.37,66.06,70.17,65.87,70Zm8-1.3a1.3,1.3,0,0,1,1.3-1.3h2.6a1.3,1.3,0,0,1,0,2.6h-2.6A1.3,1.3,0,0,1,73.89,68.68ZM67,80.54,74.41,89l-5.15,2.57L63.9,81.42Zm-25.2,20.58.81-3.63h0L43.79,92h5.7l1.21,5.45h0l.81,3.63ZM53,95.93,51.8,90.46a1.31,1.31,0,0,0-1.27-1H42.75a1.31,1.31,0,0,0-1.27,1l-1.22,5.47H33a.65.65,0,0,1-.64-.65V75.82a.65.65,0,0,1,.64-.65H60.27a.65.65,0,0,1,.65.65V95.28a.65.65,0,0,1-.65.65Zm18.64,5.19H54.17l-.58-2.59h6.68a3.25,3.25,0,0,0,3.24-3.25v-9l4,7.68a1.3,1.3,0,0,0,1.73.56L70.2,94l2.29,4.59Zm2.74,0,.43-1.29h3.36l.48,1.29Zm3.88-3.89H74.69l-2.17-4.35,3.94-2,4,2Zm29.35,3.89h-6.48V97.23a1.3,1.3,0,0,0-2.6,0v3.89H81.44L80.5,98.6,82.79,94l1,.49a1.16,1.16,0,0,0,.57.13,1.26,1.26,0,0,0,1.15-.69L91.7,82.18l7.2,2.07h0a11.67,11.67,0,0,1,8.7,11.29Z"/>
    <path class="cls-2" d="M32.37,101.12h-1.3a1.3,1.3,0,0,0,0,2.6h1.3a1.3,1.3,0,0,0,0-2.6Z"/>
  </g>
</svg>
