<svg id="Capa_1" data-name="Capa 1" xmlns="http://www.w3.org/2000/svg" width="140" height="140" viewBox="0 0 140 140">
  <defs>
    <style>
      .cls-1 {
        fill: #8b82ca;
        stroke: #2f237d;
        stroke-miterlimit: 10;
        stroke-width: 6px;
      }

      .cls-2 {
        fill: #fff;
      }
    </style>
  </defs>
  <circle class="cls-1" cx="70" cy="70" r="60"/>
  <g id="best_customer" data-name="best customer">
    <path class="cls-2" d="M60.16,78.5a.8.8,0,0,0-.13.13c-7,.57-17.23,2.1-17.23,6.08l2.58.06c.32-.8,4.75-2.81,15.76-3.62l8.21,4.69a1.29,1.29,0,0,0,1.29,0l8.22-4.7C89.87,82,94.3,84,94.61,84.71H97.2c0-4-10.23-5.51-17.23-6.08l-.12-.13L75.18,75V72.15a15.12,15.12,0,0,0,3.39-1.69H95.91a1.28,1.28,0,0,0,1.29-1.29,1.12,1.12,0,0,0,0-.36l-1.06-3.68A37.55,37.55,0,0,1,94.61,54.7V51A24.6,24.6,0,0,0,70,26.42c-.55,0-1.1,0-1.66.06a25,25,0,0,0-23,25.16v3A37.49,37.49,0,0,1,44,64.9l-1.11,3.92a1.31,1.31,0,0,0,.89,1.6,1.39,1.39,0,0,0,.35,0H61.43a15.12,15.12,0,0,0,3.39,1.69V75Zm9.84-8a13,13,0,0,1-13-12.95V44l8-4.54,18,4.79V57.51A13,13,0,0,1,70,70.46ZM46.45,65.61a40.3,40.3,0,0,0,1.53-11v-3A22.39,22.39,0,0,1,68.52,29.06,22,22,0,0,1,92,49.54c0,.5,0,1,0,1.49V54.7A40.05,40.05,0,0,0,93.6,65.85l.59,2H81.55a15.4,15.4,0,0,0,3.93-9.06h1.36a3.89,3.89,0,0,0,3.89-3.89V52.33a3.89,3.89,0,0,0-3.89-3.89h-1.3V43.26a1.28,1.28,0,0,0-1-1.25L65.15,36.83a1.26,1.26,0,0,0-1,.13l-9.07,5.18a1.3,1.3,0,0,0-.65,1.12v5.18h-1.3a3.89,3.89,0,0,0-3.89,3.89v2.59a3.89,3.89,0,0,0,3.89,3.89h1.36a15.4,15.4,0,0,0,3.93,9.06H45.81ZM85.54,51h1.3a1.3,1.3,0,0,1,1.3,1.3v2.59a1.3,1.3,0,0,1-1.3,1.3h-1.3ZM54.46,56.22h-1.3a1.3,1.3,0,0,1-1.3-1.3V52.33a1.3,1.3,0,0,1,1.3-1.3h1.3ZM70,73.06a16,16,0,0,0,2.59-.24v2.83a1.28,1.28,0,0,0,.52,1l3.6,2.71L70,83.22l-6.71-3.83,3.6-2.71a1.28,1.28,0,0,0,.52-1V72.82A16,16,0,0,0,70,73.06Z"/>
    <path class="cls-2" d="M78,92.49H72.82l-1.59-4.9a1.29,1.29,0,0,0-1.63-.83,1.32,1.32,0,0,0-.83.83l-1.59,4.9H62a1.3,1.3,0,0,0-1.3,1.29,1.28,1.28,0,0,0,.54,1l4.16,3-1.59,4.9a1.29,1.29,0,0,0,.83,1.63,1.26,1.26,0,0,0,1.16-.19l4.17-3,4.17,3a1.29,1.29,0,0,0,2-1.44l-1.59-4.9,4.16-3A1.29,1.29,0,0,0,78,92.49Zm-6.16,5.27.65,2-1.7-1.23a1.29,1.29,0,0,0-1.52,0l-1.71,1.23.65-2a1.31,1.31,0,0,0-.47-1.45L66,95.08h2.11a1.29,1.29,0,0,0,1.23-.9l.65-2,.65,2a1.29,1.29,0,0,0,1.23.9H74l-1.7,1.23A1.32,1.32,0,0,0,71.81,97.76Z"/>
    <path class="cls-2" d="M109,93.38a1.29,1.29,0,0,0-1.23-.89h-5.15L101,87.59a1.3,1.3,0,0,0-2.47,0L97,92.49H91.82a1.29,1.29,0,0,0-1.29,1.29,1.27,1.27,0,0,0,.53,1l4.17,3-1.6,4.9a1.3,1.3,0,0,0,.84,1.63,1.27,1.27,0,0,0,1.16-.19l4.16-3,4.17,3a1.29,1.29,0,0,0,2-1.44l-1.59-4.9,4.17-3A1.31,1.31,0,0,0,109,93.38Zm-7.39,4.38.65,2-1.71-1.23a1.29,1.29,0,0,0-1.52,0l-1.7,1.23.65-2a1.31,1.31,0,0,0-.47-1.45l-1.7-1.23h2.1a1.29,1.29,0,0,0,1.23-.9l.65-2,.65,2a1.29,1.29,0,0,0,1.23.9h2.11l-1.71,1.23A1.3,1.3,0,0,0,101.61,97.76Z"/>
    <path class="cls-2" d="M48.18,92.49H43l-1.59-4.9a1.29,1.29,0,0,0-2.46,0l-1.6,4.9H32.23a1.3,1.3,0,0,0-.76,2.34l4.17,3-1.59,4.9a1.29,1.29,0,0,0,.83,1.63A1.27,1.27,0,0,0,36,104.2l4.17-3,4.16,3a1.3,1.3,0,0,0,2-1.44l-1.6-4.9,4.17-3A1.3,1.3,0,0,0,49.23,93,1.33,1.33,0,0,0,48.18,92.49ZM42,97.76l.65,2L41,98.53a1.31,1.31,0,0,0-1.53,0l-1.7,1.23.65-2a1.28,1.28,0,0,0-.47-1.45l-1.7-1.23h2.1a1.31,1.31,0,0,0,1.24-.9l.65-2,.64,2a1.3,1.3,0,0,0,1.24.9h2.1l-1.7,1.23A1.3,1.3,0,0,0,42,97.76Z"/>
  </g>
</svg>
